<?xml version="1.0" encoding="UTF-8" standalone="no"?>
<!DOCTYPE svg PUBLIC "-//W3C//DTD SVG 1.1//EN"
 "http://www.w3.org/Graphics/SVG/1.1/DTD/svg11.dtd">
<!-- Generated by graphviz version 2.47.1 (20210421.1823)
 -->
<!-- Title: get_cheby Pages: 1 -->
<svg width="1319pt" height="484pt"
 viewBox="0.00 0.00 1319.00 484.00" xmlns="http://www.w3.org/2000/svg" xmlns:xlink="http://www.w3.org/1999/xlink">
<g id="graph0" class="graph" transform="scale(1 1) rotate(0) translate(4 480)">
<title>get_cheby</title>
<polygon fill="white" stroke="transparent" points="-4,4 -4,-480 1315,-480 1315,4 -4,4"/>
<!-- Node1 -->
<g id="node1" class="node">
<title>Node1</title>
<g id="a_node1"><a xlink:title="Get the Chebyshev polynomials with zeroth, first derivatives.">
<polygon fill="#bfbfbf" stroke="black" points="1250,-271.5 1250,-290.5 1311,-290.5 1311,-271.5 1250,-271.5"/>
<text text-anchor="middle" x="1280.5" y="-278.5" font-family="Helvetica,sans-Serif" font-size="10.00">get_cheby</text>
</a>
</g>
</g>
<!-- Node2 -->
<g id="node2" class="node">
<title>Node2</title>
<g id="a_node2"><a xlink:href="group__grp__diagnostics.html#ga20985df1b0df0503ca03ca13f1daf642" target="_top" xlink:title="Compute the magnetic field.">
<polygon fill="white" stroke="black" points="553,-351.5 553,-370.5 592,-370.5 592,-351.5 553,-351.5"/>
<text text-anchor="middle" x="572.5" y="-358.5" font-family="Helvetica,sans-Serif" font-size="10.00">bfield</text>
</a>
</g>
</g>
<!-- Node1&#45;&gt;Node2 -->
<g id="edge1" class="edge">
<title>Node1&#45;&gt;Node2</title>
<path fill="none" stroke="midnightblue" d="M1260.26,-297.18C1230.42,-320.55 1170.3,-361 1111.5,-361 1111.5,-361 1111.5,-361 803,-361 724.71,-361 631.39,-361 592.24,-361"/>
<polygon fill="midnightblue" stroke="midnightblue" points="1262.58,-299.8 1268.17,-290.81 1258.19,-294.35 1262.58,-299.8"/>
</g>
<!-- Node11 -->
<g id="node11" class="node">
<title>Node11</title>
<g id="a_node11"><a xlink:href="intghs_8f90.html#a21d3b7106371783302e68297f7797e9f" target="_top" xlink:title="Calculates volume integrals of Chebyshev polynomials and covariant field products.">
<polygon fill="white" stroke="black" points="1171,-167.5 1171,-186.5 1214,-186.5 1214,-167.5 1171,-167.5"/>
<text text-anchor="middle" x="1192.5" y="-174.5" font-family="Helvetica,sans-Serif" font-size="10.00">intghs</text>
</a>
</g>
</g>
<!-- Node1&#45;&gt;Node11 -->
<g id="edge12" class="edge">
<title>Node1&#45;&gt;Node11</title>
<path fill="none" stroke="midnightblue" d="M1265.01,-263.47C1246.7,-241.34 1215.87,-204.05 1201.42,-186.57"/>
<polygon fill="midnightblue" stroke="midnightblue" points="1262.49,-265.93 1271.56,-271.4 1267.89,-261.47 1262.49,-265.93"/>
</g>
<!-- Node33 -->
<g id="node33" class="node">
<title>Node33</title>
<g id="a_node33"><a xlink:href="group__grp__integrals.html#ga400af9e33dd5465ff9a4bba9fbf91108" target="_top" xlink:title="Calculates volume integrals of Chebyshev polynomials and metric element products.">
<polygon fill="white" stroke="black" points="778.5,-271.5 778.5,-290.5 829.5,-290.5 829.5,-271.5 778.5,-271.5"/>
<text text-anchor="middle" x="804" y="-278.5" font-family="Helvetica,sans-Serif" font-size="10.00">ma00aa</text>
</a>
</g>
</g>
<!-- Node1&#45;&gt;Node33 -->
<g id="edge58" class="edge">
<title>Node1&#45;&gt;Node33</title>
<path fill="none" stroke="midnightblue" d="M1239.74,-281C1205.7,-281 1155.38,-281 1111.5,-281 1111.5,-281 1111.5,-281 1020.5,-281 951.29,-281 869.57,-281 829.56,-281"/>
<polygon fill="midnightblue" stroke="midnightblue" points="1239.76,-284.5 1249.76,-281 1239.76,-277.5 1239.76,-284.5"/>
</g>
<!-- Node34 -->
<g id="node34" class="node">
<title>Node34</title>
<g id="a_node34"><a xlink:href="group__grp__initialization.html#ga28628de0fdb3b3497668007d8d0643bd" target="_top" xlink:title="Allocates and initializes internal arrays.">
<polygon fill="white" stroke="black" points="550.5,-313.5 550.5,-332.5 594.5,-332.5 594.5,-313.5 550.5,-313.5"/>
<text text-anchor="middle" x="572.5" y="-320.5" font-family="Helvetica,sans-Serif" font-size="10.00">preset</text>
</a>
</g>
</g>
<!-- Node1&#45;&gt;Node34 -->
<g id="edge61" class="edge">
<title>Node1&#45;&gt;Node34</title>
<path fill="none" stroke="midnightblue" d="M1246.89,-294.2C1213.47,-306.51 1159.73,-323 1111.5,-323 1111.5,-323 1111.5,-323 803,-323 726.3,-323 635.18,-323 594.7,-323"/>
<polygon fill="midnightblue" stroke="midnightblue" points="1248.47,-297.34 1256.58,-290.53 1245.99,-290.79 1248.47,-297.34"/>
</g>
<!-- Node35 -->
<g id="node35" class="node">
<title>Node35</title>
<g id="a_node35"><a xlink:href="spsint_8f90.html#a01df49c498752e8a4201cc6eb5e283af" target="_top" xlink:title="Calculates volume integrals of Chebyshev&#45;polynomials and metric elements for preconditioner.">
<polygon fill="white" stroke="black" points="1089,-34.5 1089,-53.5 1132,-53.5 1132,-34.5 1089,-34.5"/>
<text text-anchor="middle" x="1110.5" y="-41.5" font-family="Helvetica,sans-Serif" font-size="10.00">spsint</text>
</a>
</g>
</g>
<!-- Node1&#45;&gt;Node35 -->
<g id="edge64" class="edge">
<title>Node1&#45;&gt;Node35</title>
<path fill="none" stroke="midnightblue" d="M1271.04,-261.94C1259.63,-237.07 1237.96,-192.65 1214,-158 1183.73,-114.22 1171.19,-107.03 1135,-68 1130.56,-63.21 1125.51,-58.02 1121.23,-53.69"/>
<polygon fill="midnightblue" stroke="midnightblue" points="1267.97,-263.64 1275.28,-271.31 1274.35,-260.76 1267.97,-263.64"/>
</g>
<!-- Node3 -->
<g id="node3" class="node">
<title>Node3</title>
<g id="a_node3"><a xlink:href="bfield_8f90.html#adc615fe98d38488525cbe807d008860a" target="_top" xlink:title="compute the tangential magnetic field">
<polygon fill="white" stroke="black" points="388,-418.5 388,-437.5 465,-437.5 465,-418.5 388,-418.5"/>
<text text-anchor="middle" x="426.5" y="-425.5" font-family="Helvetica,sans-Serif" font-size="10.00">bfield_tangent</text>
</a>
</g>
</g>
<!-- Node2&#45;&gt;Node3 -->
<g id="edge2" class="edge">
<title>Node2&#45;&gt;Node3</title>
<path fill="none" stroke="midnightblue" d="M545.57,-375.44C529.5,-384.16 508.3,-395.24 489,-404 477.63,-409.17 464.79,-414.28 453.79,-418.46"/>
<polygon fill="midnightblue" stroke="midnightblue" points="547.29,-378.48 554.39,-370.61 543.93,-372.34 547.29,-378.48"/>
</g>
<!-- Node4 -->
<g id="node4" class="node">
<title>Node4</title>
<g id="a_node4"><a xlink:href="group__grp__diagnostics.html#ga6411205c36a7d50002d7f3fb3133c441" target="_top" xlink:title="Measures error in Beltrami equation, .">
<polygon fill="white" stroke="black" points="281.5,-342.5 281.5,-361.5 326.5,-361.5 326.5,-342.5 281.5,-342.5"/>
<text text-anchor="middle" x="304" y="-349.5" font-family="Helvetica,sans-Serif" font-size="10.00">jo00aa</text>
</a>
</g>
</g>
<!-- Node2&#45;&gt;Node4 -->
<g id="edge3" class="edge">
<title>Node2&#45;&gt;Node4</title>
<path fill="none" stroke="midnightblue" d="M542.54,-360.02C488.71,-358.2 374.39,-354.34 326.65,-352.73"/>
<polygon fill="midnightblue" stroke="midnightblue" points="542.65,-363.53 552.76,-360.37 542.88,-356.53 542.65,-363.53"/>
</g>
<!-- Node8 -->
<g id="node8" class="node">
<title>Node8</title>
<g id="a_node8"><a xlink:href="group__grp__diagnostics.html#ga831aed2458140e266ee4d37461dd5350" target="_top" xlink:title="Constructs Poincaré plot and &quot;approximate&quot; rotational&#45;transform (for single field line).">
<polygon fill="white" stroke="black" points="402.5,-304.5 402.5,-323.5 450.5,-323.5 450.5,-304.5 402.5,-304.5"/>
<text text-anchor="middle" x="426.5" y="-311.5" font-family="Helvetica,sans-Serif" font-size="10.00">pp00ab</text>
</a>
</g>
</g>
<!-- Node2&#45;&gt;Node8 -->
<g id="edge8" class="edge">
<title>Node2&#45;&gt;Node8</title>
<path fill="none" stroke="midnightblue" d="M543.32,-351.8C516.29,-342.98 475.96,-329.82 450.72,-321.58"/>
<polygon fill="midnightblue" stroke="midnightblue" points="542.38,-355.18 552.97,-354.95 544.55,-348.52 542.38,-355.18"/>
</g>
<!-- Node10 -->
<g id="node10" class="node">
<title>Node10</title>
<g id="a_node10"><a xlink:href="sphdf5_8f90.html#a17e65b951634f7098213fd071d905482" target="_top" xlink:title="write the magnetic field on a grid; previously the (wflag.eq.1) part of globals.f90/wrtend to write ....">
<polygon fill="white" stroke="black" points="380.5,-456.5 380.5,-475.5 472.5,-475.5 472.5,-456.5 380.5,-456.5"/>
<text text-anchor="middle" x="426.5" y="-463.5" font-family="Helvetica,sans-Serif" font-size="10.00">sphdf5::write_grid</text>
</a>
</g>
</g>
<!-- Node2&#45;&gt;Node10 -->
<g id="edge11" class="edge">
<title>Node2&#45;&gt;Node10</title>
<path fill="none" stroke="midnightblue" d="M558.85,-378.81C544.16,-398.25 518.18,-428.99 489,-447 482.82,-450.81 475.81,-453.92 468.8,-456.42"/>
<polygon fill="midnightblue" stroke="midnightblue" points="561.84,-380.66 564.95,-370.53 556.2,-376.51 561.84,-380.66"/>
</g>
<!-- Node5 -->
<g id="node5" class="node">
<title>Node5</title>
<g id="a_node5"><a xlink:href="xspech_8f90.html#a48f45478dc2c9f70ea8aa1c60ad06503" target="_top" xlink:title=" ">
<polygon fill="white" stroke="black" points="168,-266.5 168,-285.5 206,-285.5 206,-266.5 168,-266.5"/>
<text text-anchor="middle" x="187" y="-273.5" font-family="Helvetica,sans-Serif" font-size="10.00">spec</text>
</a>
</g>
</g>
<!-- Node4&#45;&gt;Node5 -->
<g id="edge4" class="edge">
<title>Node4&#45;&gt;Node5</title>
<path fill="none" stroke="midnightblue" d="M279.91,-336.74C256.78,-321.46 221.91,-298.41 202.45,-285.55"/>
<polygon fill="midnightblue" stroke="midnightblue" points="278.16,-339.78 288.44,-342.37 282.02,-333.94 278.16,-339.78"/>
</g>
<!-- Node6 -->
<g id="node6" class="node">
<title>Node6</title>
<g id="a_node6"><a xlink:href="sphdf5_8f90.html#a0f962c09cd5d5eba99f1cba043cb3898" target="_top" xlink:title="initialize the interface to the HDF5 library and open the output file">
<polygon fill="white" stroke="black" points="0,-304.5 0,-323.5 94,-323.5 94,-304.5 0,-304.5"/>
<text text-anchor="middle" x="47" y="-311.5" font-family="Helvetica,sans-Serif" font-size="10.00">sphdf5::init_outfile</text>
</a>
</g>
</g>
<!-- Node5&#45;&gt;Node6 -->
<g id="edge5" class="edge">
<title>Node5&#45;&gt;Node6</title>
<path fill="none" stroke="midnightblue" d="M158.05,-283.7C136.32,-289.68 106.06,-298.01 82.76,-304.43"/>
<polygon fill="midnightblue" stroke="midnightblue" points="159.25,-287 167.96,-280.97 157.39,-280.25 159.25,-287"/>
</g>
<!-- Node7 -->
<g id="node7" class="node">
<title>Node7</title>
<g id="a_node7"><a xlink:href="xspech_8f90.html#aea782eae089760a491c2c54f9903abcc" target="_top" xlink:title="Main program of SPEC.">
<polygon fill="white" stroke="black" points="23.5,-266.5 23.5,-285.5 70.5,-285.5 70.5,-266.5 23.5,-266.5"/>
<text text-anchor="middle" x="47" y="-273.5" font-family="Helvetica,sans-Serif" font-size="10.00">xspech</text>
</a>
</g>
</g>
<!-- Node5&#45;&gt;Node7 -->
<g id="edge6" class="edge">
<title>Node5&#45;&gt;Node7</title>
<path fill="none" stroke="midnightblue" d="M157.72,-270.43C131.97,-268.73 94.44,-268.87 70.63,-270.85"/>
<polygon fill="midnightblue" stroke="midnightblue" points="157.71,-273.94 167.96,-271.27 158.28,-266.96 157.71,-273.94"/>
</g>
<!-- Node7&#45;&gt;Node5 -->
<g id="edge7" class="edge">
<title>Node7&#45;&gt;Node5</title>
<path fill="none" stroke="midnightblue" d="M80.87,-281.85C108.14,-283.35 145.9,-282.98 167.96,-280.73"/>
<polygon fill="midnightblue" stroke="midnightblue" points="80.84,-278.34 70.63,-281.15 80.37,-285.32 80.84,-278.34"/>
</g>
<!-- Node9 -->
<g id="node9" class="node">
<title>Node9</title>
<g id="a_node9"><a xlink:href="group__grp__diagnostics.html#gad67931244268a09bd077dae8910c7096" target="_top" xlink:title="Constructs Poincaré plot and &quot;approximate&quot; rotational&#45;transform (driver).">
<polygon fill="white" stroke="black" points="280,-304.5 280,-323.5 328,-323.5 328,-304.5 280,-304.5"/>
<text text-anchor="middle" x="304" y="-311.5" font-family="Helvetica,sans-Serif" font-size="10.00">pp00aa</text>
</a>
</g>
</g>
<!-- Node8&#45;&gt;Node9 -->
<g id="edge9" class="edge">
<title>Node8&#45;&gt;Node9</title>
<path fill="none" stroke="midnightblue" d="M392.16,-314C371.81,-314 346.31,-314 328.16,-314"/>
<polygon fill="midnightblue" stroke="midnightblue" points="392.27,-317.5 402.27,-314 392.27,-310.5 392.27,-317.5"/>
</g>
<!-- Node9&#45;&gt;Node5 -->
<g id="edge10" class="edge">
<title>Node9&#45;&gt;Node5</title>
<path fill="none" stroke="midnightblue" d="M270.05,-303.11C249.35,-296.27 223.43,-287.71 206.32,-282.05"/>
<polygon fill="midnightblue" stroke="midnightblue" points="269.13,-306.5 279.73,-306.31 271.33,-299.85 269.13,-306.5"/>
</g>
<!-- Node12 -->
<g id="node12" class="node">
<title>Node12</title>
<g id="a_node12"><a xlink:href="dfp200_8f90.html#a5e56f1f4b1e6df11a9cffa6237c37469" target="_top" xlink:title="This routine evaluates the value of the magnetic field once the interface is perturbed using matrix p...">
<polygon fill="white" stroke="black" points="746.5,-219.5 746.5,-238.5 861.5,-238.5 861.5,-219.5 746.5,-219.5"/>
<text text-anchor="middle" x="804" y="-226.5" font-family="Helvetica,sans-Serif" font-size="10.00">get_perturbed_solution</text>
</a>
</g>
</g>
<!-- Node11&#45;&gt;Node12 -->
<g id="edge13" class="edge">
<title>Node11&#45;&gt;Node12</title>
<path fill="none" stroke="midnightblue" d="M1161.03,-186.64C1152.66,-189.01 1143.54,-191.34 1135,-193 1040.11,-211.48 927.88,-221.2 861.78,-225.7"/>
<polygon fill="midnightblue" stroke="midnightblue" points="1162.17,-189.95 1170.77,-183.77 1160.19,-183.23 1162.17,-189.95"/>
</g>
<!-- Node26 -->
<g id="node26" class="node">
<title>Node26</title>
<g id="a_node26"><a xlink:href="intghs_8f90.html#ae10091a51178071d12004da4952104d4" target="_top" xlink:title="free workspace">
<polygon fill="white" stroke="black" points="738,-181.5 738,-200.5 870,-200.5 870,-181.5 738,-181.5"/>
<text text-anchor="middle" x="804" y="-188.5" font-family="Helvetica,sans-Serif" font-size="10.00">intghs_workspace_destroy</text>
</a>
</g>
</g>
<!-- Node11&#45;&gt;Node26 -->
<g id="edge42" class="edge">
<title>Node11&#45;&gt;Node26</title>
<path fill="none" stroke="midnightblue" d="M1160.98,-178.11C1098.42,-180.37 954.44,-185.59 870,-188.65"/>
<polygon fill="midnightblue" stroke="midnightblue" points="1161.13,-181.6 1170.99,-177.74 1160.87,-174.61 1161.13,-181.6"/>
</g>
<!-- Node28 -->
<g id="node28" class="node">
<title>Node28</title>
<g id="a_node28"><a xlink:href="intghs_8f90.html#ae8299d4625cabd90eb1398fd2cd38089" target="_top" xlink:title="init workspace">
<polygon fill="white" stroke="black" points="747.5,-143.5 747.5,-162.5 860.5,-162.5 860.5,-143.5 747.5,-143.5"/>
<text text-anchor="middle" x="804" y="-150.5" font-family="Helvetica,sans-Serif" font-size="10.00">intghs_workspace_init</text>
</a>
</g>
</g>
<!-- Node11&#45;&gt;Node28 -->
<g id="edge48" class="edge">
<title>Node11&#45;&gt;Node28</title>
<path fill="none" stroke="midnightblue" d="M1160.99,-175.11C1096.02,-171.07 943.23,-161.58 860.52,-156.45"/>
<polygon fill="midnightblue" stroke="midnightblue" points="1160.8,-178.6 1170.99,-175.73 1161.23,-171.61 1160.8,-178.6"/>
</g>
<!-- Node29 -->
<g id="node29" class="node">
<title>Node29</title>
<g id="a_node29"><a xlink:href="mp00ac_8f90.html#ae9fe335bb4916face9f9d19ce8c0f5d7" target="_top" xlink:title="compute a.x by either by coumputing it directly, or using a matrix free method">
<polygon fill="white" stroke="black" points="1086,-110.5 1086,-129.5 1135,-129.5 1135,-110.5 1086,-110.5"/>
<text text-anchor="middle" x="1110.5" y="-117.5" font-family="Helvetica,sans-Serif" font-size="10.00">matvec</text>
</a>
</g>
</g>
<!-- Node11&#45;&gt;Node29 -->
<g id="edge52" class="edge">
<title>Node11&#45;&gt;Node29</title>
<path fill="none" stroke="midnightblue" d="M1169.61,-161.41C1155.3,-151.21 1137.06,-138.21 1124.87,-129.53"/>
<polygon fill="midnightblue" stroke="midnightblue" points="1167.75,-164.38 1177.93,-167.33 1171.82,-158.68 1167.75,-164.38"/>
</g>
<!-- Node31 -->
<g id="node31" class="node">
<title>Node31</title>
<g id="a_node31"><a xlink:href="group__grp__solver.html#ga6626839aff500f060beb5bce2b90c447" target="_top" xlink:title="Solves Beltrami/vacuum (linear) system, given matrices.unpacking fluxes, helicity multiplier">
<polygon fill="white" stroke="black" points="906,-105.5 906,-124.5 957,-124.5 957,-105.5 906,-105.5"/>
<text text-anchor="middle" x="931.5" y="-112.5" font-family="Helvetica,sans-Serif" font-size="10.00">mp00ac</text>
</a>
</g>
</g>
<!-- Node11&#45;&gt;Node31 -->
<g id="edge57" class="edge">
<title>Node11&#45;&gt;Node31</title>
<path fill="none" stroke="midnightblue" d="M1179.38,-158.99C1164.75,-137.54 1141.33,-104.18 1135,-101 1076.75,-71.72 996.94,-92.07 957.15,-105.61"/>
<polygon fill="midnightblue" stroke="midnightblue" points="1176.52,-161.02 1185.03,-167.33 1182.32,-157.09 1176.52,-161.02"/>
</g>
<!-- Node13 -->
<g id="node13" class="node">
<title>Node13</title>
<g id="a_node13"><a xlink:href="dfp200_8f90.html#a55ea75395f8c71731451e1add3720c7e" target="_top" xlink:title="Given the field consistent with the constraints and the geometry, computes local quantites related to...">
<polygon fill="white" stroke="black" points="656,-219.5 656,-238.5 702,-238.5 702,-219.5 656,-219.5"/>
<text text-anchor="middle" x="679" y="-226.5" font-family="Helvetica,sans-Serif" font-size="10.00">dfp200</text>
</a>
</g>
</g>
<!-- Node12&#45;&gt;Node13 -->
<g id="edge14" class="edge">
<title>Node12&#45;&gt;Node13</title>
<path fill="none" stroke="midnightblue" d="M735.92,-222.27C723.74,-222.38 711.85,-222.85 702.19,-223.67"/>
<polygon fill="midnightblue" stroke="midnightblue" points="736.18,-225.77 746.18,-222.27 736.18,-218.77 736.18,-225.77"/>
</g>
<!-- Node13&#45;&gt;Node12 -->
<g id="edge41" class="edge">
<title>Node13&#45;&gt;Node12</title>
<path fill="none" stroke="midnightblue" d="M712.41,-235.03C722.79,-235.58 734.59,-235.82 746.18,-235.73"/>
<polygon fill="midnightblue" stroke="midnightblue" points="712.4,-231.52 702.19,-234.33 711.93,-238.5 712.4,-231.52"/>
</g>
<!-- Node14 -->
<g id="node14" class="node">
<title>Node14</title>
<g id="a_node14"><a xlink:href="group__grp__global__force.html#ga38c9d3c50bd043707fefa5137c9dbf44" target="_top" xlink:title="Calculates , where &#160;and , and .">
<polygon fill="white" stroke="black" points="550.5,-105.5 550.5,-124.5 594.5,-124.5 594.5,-105.5 550.5,-105.5"/>
<text text-anchor="middle" x="572.5" y="-112.5" font-family="Helvetica,sans-Serif" font-size="10.00">dforce</text>
</a>
</g>
</g>
<!-- Node13&#45;&gt;Node14 -->
<g id="edge15" class="edge">
<title>Node13&#45;&gt;Node14</title>
<path fill="none" stroke="midnightblue" d="M670.58,-209.73C661.55,-188.55 644.42,-154.79 620,-134 612.83,-127.89 603.43,-123.56 594.96,-120.59"/>
<polygon fill="midnightblue" stroke="midnightblue" points="667.45,-211.32 674.46,-219.26 673.94,-208.68 667.45,-211.32"/>
</g>
<!-- Node20 -->
<g id="node20" class="node">
<title>Node20</title>
<g id="a_node20"><a xlink:href="dfp200_8f90.html#a6aca59cf350d7b1941f8389d50945a43" target="_top" xlink:title="get LU Beltrami matrices">
<polygon fill="white" stroke="black" points="364,-228.5 364,-247.5 489,-247.5 489,-228.5 364,-228.5"/>
<text text-anchor="middle" x="426.5" y="-235.5" font-family="Helvetica,sans-Serif" font-size="10.00">get_lu_beltrami_matrices</text>
</a>
</g>
</g>
<!-- Node13&#45;&gt;Node20 -->
<g id="edge40" class="edge">
<title>Node13&#45;&gt;Node20</title>
<path fill="none" stroke="midnightblue" d="M645.67,-225.45C606.24,-224.64 538.75,-226.66 489.25,-229.87"/>
<polygon fill="midnightblue" stroke="midnightblue" points="645.67,-228.96 655.77,-225.75 645.88,-221.96 645.67,-228.96"/>
</g>
<!-- Node24 -->
<g id="node24" class="node">
<title>Node24</title>
<g id="a_node24"><a xlink:href="dfp200_8f90.html#a7b64c7392b45d0042d8bd7379c0761a5" target="_top" xlink:title="Evaluate the derivative of the square of the magnetic field modulus. Add spectral constraint derivati...">
<polygon fill="white" stroke="black" points="535.5,-181.5 535.5,-200.5 609.5,-200.5 609.5,-181.5 535.5,-181.5"/>
<text text-anchor="middle" x="572.5" y="-188.5" font-family="Helvetica,sans-Serif" font-size="10.00">evaluate_dbb</text>
</a>
</g>
</g>
<!-- Node13&#45;&gt;Node24 -->
<g id="edge36" class="edge">
<title>Node13&#45;&gt;Node24</title>
<path fill="none" stroke="midnightblue" d="M655,-214.93C641.71,-209.03 624.69,-202.59 609.65,-197.69"/>
<polygon fill="midnightblue" stroke="midnightblue" points="653.8,-218.23 664.34,-219.3 656.76,-211.89 653.8,-218.23"/>
</g>
<!-- Node25 -->
<g id="node25" class="node">
<title>Node25</title>
<g id="a_node25"><a xlink:href="dfp200_8f90.html#a73ddf39ecc5228201fb643779e17cd36" target="_top" xlink:title="Evaluate mu and psip derivatives and store them in dmupfdx.">
<polygon fill="white" stroke="black" points="525,-143.5 525,-162.5 620,-162.5 620,-143.5 525,-143.5"/>
<text text-anchor="middle" x="572.5" y="-150.5" font-family="Helvetica,sans-Serif" font-size="10.00">evaluate_dmupfdx</text>
</a>
</g>
</g>
<!-- Node13&#45;&gt;Node25 -->
<g id="edge38" class="edge">
<title>Node13&#45;&gt;Node25</title>
<path fill="none" stroke="midnightblue" d="M667.05,-211.02C653.29,-193.58 630.24,-169.74 620,-163 619.85,-162.9 619.71,-162.81 619.56,-162.71"/>
<polygon fill="midnightblue" stroke="midnightblue" points="664.52,-213.48 673.28,-219.43 670.14,-209.32 664.52,-213.48"/>
</g>
<!-- Node14&#45;&gt;Node5 -->
<g id="edge35" class="edge">
<title>Node14&#45;&gt;Node5</title>
<path fill="none" stroke="midnightblue" d="M540.89,-125.93C535.45,-128.31 529.95,-131.02 525,-134 507.15,-144.73 507.02,-153.55 489,-164 437.63,-193.79 263.37,-251.54 206.28,-270.1"/>
<polygon fill="midnightblue" stroke="midnightblue" points="542.54,-129.04 550.47,-122.02 539.89,-122.56 542.54,-129.04"/>
</g>
<!-- Node15 -->
<g id="node15" class="node">
<title>Node15</title>
<g id="a_node15"><a xlink:href="namespaceallglobal.html#a7824bc37519fe88336534ce90ab2af16" target="_top" xlink:title=" ">
<polygon fill="white" stroke="black" points="130,-199.5 130,-218.5 244,-218.5 244,-199.5 130,-199.5"/>
<text text-anchor="middle" x="187" y="-206.5" font-family="Helvetica,sans-Serif" font-size="10.00">allglobal::check_inputs</text>
</a>
</g>
</g>
<!-- Node14&#45;&gt;Node15 -->
<g id="edge16" class="edge">
<title>Node14&#45;&gt;Node15</title>
<path fill="none" stroke="midnightblue" d="M540.42,-122.5C487.12,-135.39 374.82,-162.6 280,-186 262.26,-190.38 242.6,-195.28 226.03,-199.44"/>
<polygon fill="midnightblue" stroke="midnightblue" points="541.38,-125.87 550.28,-120.12 539.73,-119.07 541.38,-125.87"/>
</g>
<!-- Node16 -->
<g id="node16" class="node">
<title>Node16</title>
<g id="a_node16"><a xlink:href="group__grp__force__driver.html#gabbc245b3884ee8d8d3e2a52f25149f78" target="_top" xlink:title="fcn1">
<polygon fill="white" stroke="black" points="409,-76.5 409,-95.5 444,-95.5 444,-76.5 409,-76.5"/>
<text text-anchor="middle" x="426.5" y="-83.5" font-family="Helvetica,sans-Serif" font-size="10.00">fcn1</text>
</a>
</g>
</g>
<!-- Node14&#45;&gt;Node16 -->
<g id="edge18" class="edge">
<title>Node14&#45;&gt;Node16</title>
<path fill="none" stroke="midnightblue" d="M540.08,-108.67C510.64,-102.74 467.77,-94.11 444.34,-89.39"/>
<polygon fill="midnightblue" stroke="midnightblue" points="539.76,-112.18 550.25,-110.72 541.14,-105.32 539.76,-112.18"/>
</g>
<!-- Node17 -->
<g id="node17" class="node">
<title>Node17</title>
<g id="a_node17"><a xlink:href="group__grp__force__driver.html#gaec14f81fbdbedafbc4189489ec8ae178" target="_top" xlink:title="Employs Newton method to find , where &#160;and &#160;is defined in dforce() .">
<polygon fill="white" stroke="black" points="280,-95.5 280,-114.5 328,-114.5 328,-95.5 280,-95.5"/>
<text text-anchor="middle" x="304" y="-102.5" font-family="Helvetica,sans-Serif" font-size="10.00">newton</text>
</a>
</g>
</g>
<!-- Node14&#45;&gt;Node17 -->
<g id="edge32" class="edge">
<title>Node14&#45;&gt;Node17</title>
<path fill="none" stroke="midnightblue" d="M540.09,-113.82C485.97,-111.79 376.32,-107.68 328.35,-105.88"/>
<polygon fill="midnightblue" stroke="midnightblue" points="540.02,-117.32 550.14,-114.2 540.28,-110.33 540.02,-117.32"/>
</g>
<!-- Node18 -->
<g id="node18" class="node">
<title>Node18</title>
<g id="a_node18"><a xlink:href="group__grp__force__driver.html#ga8ccd6c7d901872702521d0a0edf95412" target="_top" xlink:title="fcn2">
<polygon fill="white" stroke="black" points="29.5,-100.5 29.5,-119.5 64.5,-119.5 64.5,-100.5 29.5,-100.5"/>
<text text-anchor="middle" x="47" y="-107.5" font-family="Helvetica,sans-Serif" font-size="10.00">fcn2</text>
</a>
</g>
</g>
<!-- Node14&#45;&gt;Node18 -->
<g id="edge27" class="edge">
<title>Node14&#45;&gt;Node18</title>
<path fill="none" stroke="midnightblue" d="M551.38,-99.19C535.46,-87.75 512.14,-73.24 489,-67 334.95,-25.45 284.93,-28.84 130,-67 103.93,-73.42 76.98,-89.76 61.39,-100.35"/>
<polygon fill="midnightblue" stroke="midnightblue" points="549.72,-102.32 559.84,-105.49 553.9,-96.71 549.72,-102.32"/>
</g>
<!-- Node14&#45;&gt;Node20 -->
<g id="edge28" class="edge">
<title>Node14&#45;&gt;Node20</title>
<path fill="none" stroke="midnightblue" d="M540.6,-123.75C534.93,-126.37 529.42,-129.73 525,-134 496.95,-161.08 517.26,-187.14 489,-214 482.44,-220.24 474.07,-224.91 465.63,-228.39"/>
<polygon fill="midnightblue" stroke="midnightblue" points="542.1,-126.92 550.11,-119.99 539.52,-120.41 542.1,-126.92"/>
</g>
<!-- Node21 -->
<g id="node21" class="node">
<title>Node21</title>
<g id="a_node21"><a xlink:href="group__grp__diagnostics.html#ga7401b50ec10c6598ee4a8112717a63ec" target="_top" xlink:title="Computes eigenvalues and eigenvectors of derivative matrix, .">
<polygon fill="white" stroke="black" points="404,-266.5 404,-285.5 449,-285.5 449,-266.5 404,-266.5"/>
<text text-anchor="middle" x="426.5" y="-273.5" font-family="Helvetica,sans-Serif" font-size="10.00">hesian</text>
</a>
</g>
</g>
<!-- Node14&#45;&gt;Node21 -->
<g id="edge30" class="edge">
<title>Node14&#45;&gt;Node21</title>
<path fill="none" stroke="midnightblue" d="M540.42,-123.14C534.68,-125.82 529.19,-129.35 525,-134 486.85,-176.3 528.98,-216.42 489,-257 478.57,-267.59 462.38,-272.3 449.23,-274.39"/>
<polygon fill="midnightblue" stroke="midnightblue" points="542.06,-126.26 550.12,-119.39 539.53,-119.73 542.06,-126.26"/>
</g>
<!-- Node22 -->
<g id="node22" class="node">
<title>Node22</title>
<g id="a_node22"><a xlink:href="group__grp__conjugate__gradient.html#ga4d8415226e62a9fdb42b0fd0b464251e" target="_top" xlink:title="Returns the energy functional and it&#39;s derivatives with respect to geometry.">
<polygon fill="white" stroke="black" points="402.5,-0.5 402.5,-19.5 450.5,-19.5 450.5,-0.5 402.5,-0.5"/>
<text text-anchor="middle" x="426.5" y="-7.5" font-family="Helvetica,sans-Serif" font-size="10.00">pc00ab</text>
</a>
</g>
</g>
<!-- Node14&#45;&gt;Node22 -->
<g id="edge33" class="edge">
<title>Node14&#45;&gt;Node22</title>
<path fill="none" stroke="midnightblue" d="M557.46,-97.54C542.22,-79.55 516.37,-51.71 489,-34 477.26,-26.41 462.74,-20.6 450.76,-16.6"/>
<polygon fill="midnightblue" stroke="midnightblue" points="554.98,-100.03 564.05,-105.49 560.37,-95.56 554.98,-100.03"/>
</g>
<!-- Node15&#45;&gt;Node7 -->
<g id="edge17" class="edge">
<title>Node15&#45;&gt;Node7</title>
<path fill="none" stroke="midnightblue" d="M156.96,-223.1C130.16,-236.11 91.08,-255.08 67.74,-266.42"/>
<polygon fill="midnightblue" stroke="midnightblue" points="158.76,-226.12 166.23,-218.6 155.7,-219.82 158.76,-226.12"/>
</g>
<!-- Node16&#45;&gt;Node17 -->
<g id="edge19" class="edge">
<title>Node16&#45;&gt;Node17</title>
<path fill="none" stroke="midnightblue" d="M398.51,-84.52C377.38,-86.41 348.31,-91.09 328.22,-95.88"/>
<polygon fill="midnightblue" stroke="midnightblue" points="399.02,-87.99 408.74,-83.8 398.52,-81.01 399.02,-87.99"/>
</g>
<!-- Node17&#45;&gt;Node5 -->
<g id="edge23" class="edge">
<title>Node17&#45;&gt;Node5</title>
<path fill="none" stroke="midnightblue" d="M296.6,-124.28C287.54,-149.72 269.24,-195.12 244,-228 232.15,-243.44 214.63,-257.47 202.35,-266.31"/>
<polygon fill="midnightblue" stroke="midnightblue" points="299.95,-125.28 299.91,-114.69 293.34,-123 299.95,-125.28"/>
</g>
<!-- Node17&#45;&gt;Node16 -->
<g id="edge20" class="edge">
<title>Node17&#45;&gt;Node16</title>
<path fill="none" stroke="midnightblue" d="M338.21,-105.87C361.11,-103.43 390.58,-98.36 408.74,-93.49"/>
<polygon fill="midnightblue" stroke="midnightblue" points="337.85,-102.39 328.22,-106.8 338.5,-109.36 337.85,-102.39"/>
</g>
<!-- Node17&#45;&gt;Node18 -->
<g id="edge21" class="edge">
<title>Node17&#45;&gt;Node18</title>
<path fill="none" stroke="midnightblue" d="M269.62,-100.92C214.42,-98.97 106.09,-101.48 64.66,-106.12"/>
<polygon fill="midnightblue" stroke="midnightblue" points="269.78,-104.43 279.92,-101.37 270.08,-97.44 269.78,-104.43"/>
</g>
<!-- Node19 -->
<g id="node19" class="node">
<title>Node19</title>
<g id="a_node19"><a xlink:href="group__grp__force__driver.html#ga382822b303cbf8c56d6f54dcb379caf2" target="_top" xlink:title="read or write force&#45;derivative matrix">
<polygon fill="white" stroke="black" points="154.5,-76.5 154.5,-95.5 219.5,-95.5 219.5,-76.5 154.5,-76.5"/>
<text text-anchor="middle" x="187" y="-83.5" font-family="Helvetica,sans-Serif" font-size="10.00">writereadgf</text>
</a>
</g>
</g>
<!-- Node17&#45;&gt;Node19 -->
<g id="edge24" class="edge">
<title>Node17&#45;&gt;Node19</title>
<path fill="none" stroke="midnightblue" d="M269.82,-93.34C253.99,-89.94 235.13,-86.85 219.52,-85.11"/>
<polygon fill="midnightblue" stroke="midnightblue" points="269.2,-96.78 279.73,-95.61 270.76,-89.96 269.2,-96.78"/>
</g>
<!-- Node18&#45;&gt;Node17 -->
<g id="edge22" class="edge">
<title>Node18&#45;&gt;Node17</title>
<path fill="none" stroke="midnightblue" d="M74.74,-113.81C124.98,-116.13 232.63,-113.93 279.92,-109.53"/>
<polygon fill="midnightblue" stroke="midnightblue" points="74.84,-110.31 64.66,-113.23 74.44,-117.3 74.84,-110.31"/>
</g>
<!-- Node19&#45;&gt;Node17 -->
<g id="edge26" class="edge">
<title>Node19&#45;&gt;Node17</title>
<path fill="none" stroke="midnightblue" d="M221.9,-97.82C240.51,-101.78 263.12,-105.29 279.73,-106.7"/>
<polygon fill="midnightblue" stroke="midnightblue" points="222.56,-94.38 212.03,-95.58 221.01,-101.2 222.56,-94.38"/>
</g>
<!-- Node19&#45;&gt;Node18 -->
<g id="edge25" class="edge">
<title>Node19&#45;&gt;Node18</title>
<path fill="none" stroke="midnightblue" d="M144.47,-93.22C117.77,-97.87 84.51,-103.65 64.84,-107.07"/>
<polygon fill="midnightblue" stroke="midnightblue" points="145.09,-96.67 154.34,-91.51 143.89,-89.77 145.09,-96.67"/>
</g>
<!-- Node20&#45;&gt;Node13 -->
<g id="edge29" class="edge">
<title>Node20&#45;&gt;Node13</title>
<path fill="none" stroke="midnightblue" d="M499.29,-241.59C552.29,-240.91 621.01,-237.73 655.77,-233.85"/>
<polygon fill="midnightblue" stroke="midnightblue" points="499.21,-238.09 489.25,-241.69 499.28,-245.09 499.21,-238.09"/>
</g>
<!-- Node21&#45;&gt;Node5 -->
<g id="edge31" class="edge">
<title>Node21&#45;&gt;Node5</title>
<path fill="none" stroke="midnightblue" d="M393.54,-276C343.04,-276 246.39,-276 206.22,-276"/>
<polygon fill="midnightblue" stroke="midnightblue" points="393.58,-279.5 403.58,-276 393.58,-272.5 393.58,-279.5"/>
</g>
<!-- Node23 -->
<g id="node23" class="node">
<title>Node23</title>
<g id="a_node23"><a xlink:href="group__grp__conjugate__gradient.html#ga25a3bae2ff2ee0469b045de0d033398b" target="_top" xlink:title="Use preconditioned conjugate gradient method to find minimum of energy functional.">
<polygon fill="white" stroke="black" points="280,-0.5 280,-19.5 328,-19.5 328,-0.5 280,-0.5"/>
<text text-anchor="middle" x="304" y="-7.5" font-family="Helvetica,sans-Serif" font-size="10.00">pc00aa</text>
</a>
</g>
</g>
<!-- Node22&#45;&gt;Node23 -->
<g id="edge34" class="edge">
<title>Node22&#45;&gt;Node23</title>
<path fill="none" stroke="midnightblue" d="M392.16,-10C371.81,-10 346.31,-10 328.16,-10"/>
<polygon fill="midnightblue" stroke="midnightblue" points="392.27,-13.5 402.27,-10 392.27,-6.5 392.27,-13.5"/>
</g>
<!-- Node24&#45;&gt;Node13 -->
<g id="edge37" class="edge">
<title>Node24&#45;&gt;Node13</title>
<path fill="none" stroke="midnightblue" d="M596.55,-205.09C614.21,-212.92 638.41,-221.7 655.84,-226.58"/>
<polygon fill="midnightblue" stroke="midnightblue" points="597.55,-201.7 587.01,-200.63 594.59,-208.04 597.55,-201.7"/>
</g>
<!-- Node25&#45;&gt;Node13 -->
<g id="edge39" class="edge">
<title>Node25&#45;&gt;Node13</title>
<path fill="none" stroke="midnightblue" d="M592.37,-166.98C601.17,-170.99 611.53,-175.42 620,-181 629.2,-187.06 648.72,-206.9 662.57,-219.44"/>
<polygon fill="midnightblue" stroke="midnightblue" points="593.82,-163.79 583.3,-162.58 590.77,-170.09 593.82,-163.79"/>
</g>
<!-- Node26&#45;&gt;Node13 -->
<g id="edge46" class="edge">
<title>Node26&#45;&gt;Node13</title>
<path fill="none" stroke="midnightblue" d="M759.78,-203.42C752.5,-205.58 745.03,-207.82 738,-210 726.16,-213.67 713.03,-217.95 702.26,-221.52"/>
<polygon fill="midnightblue" stroke="midnightblue" points="760.93,-206.73 769.54,-200.56 758.96,-200.02 760.93,-206.73"/>
</g>
<!-- Node26&#45;&gt;Node25 -->
<g id="edge47" class="edge">
<title>Node26&#45;&gt;Node25</title>
<path fill="none" stroke="midnightblue" d="M734,-179.83C709.38,-175.82 681.45,-171.24 656,-167 644.39,-165.07 631.87,-162.96 620.18,-160.97"/>
<polygon fill="midnightblue" stroke="midnightblue" points="733.54,-183.3 743.98,-181.45 734.67,-176.39 733.54,-183.3"/>
</g>
<!-- Node27 -->
<g id="node27" class="node">
<title>Node27</title>
<g id="a_node27"><a xlink:href="dfp100_8f90.html#a17a3ac15cc83994394f7b4cc05e5898e" target="_top" xlink:title="Split the work between MPI nodes and evaluate the global constraint.">
<polygon fill="white" stroke="black" points="656,-105.5 656,-124.5 702,-124.5 702,-105.5 656,-105.5"/>
<text text-anchor="middle" x="679" y="-112.5" font-family="Helvetica,sans-Serif" font-size="10.00">dfp100</text>
</a>
</g>
</g>
<!-- Node26&#45;&gt;Node27 -->
<g id="edge43" class="edge">
<title>Node26&#45;&gt;Node27</title>
<path fill="none" stroke="midnightblue" d="M749.58,-177.77C745.56,-176.06 741.65,-174.14 738,-172 716.57,-159.43 697.19,-137.2 687.17,-124.54"/>
<polygon fill="midnightblue" stroke="midnightblue" points="748.52,-181.11 759.11,-181.39 751.01,-174.56 748.52,-181.11"/>
</g>
<!-- Node27&#45;&gt;Node14 -->
<g id="edge44" class="edge">
<title>Node27&#45;&gt;Node14</title>
<path fill="none" stroke="midnightblue" d="M645.46,-115C628.86,-115 609.15,-115 594.56,-115"/>
<polygon fill="midnightblue" stroke="midnightblue" points="645.84,-118.5 655.84,-115 645.84,-111.5 645.84,-118.5"/>
</g>
<!-- Node27&#45;&gt;Node25 -->
<g id="edge45" class="edge">
<title>Node27&#45;&gt;Node25</title>
<path fill="none" stroke="midnightblue" d="M646.04,-126.62C631.19,-132.02 613.75,-138.36 599.69,-143.48"/>
<polygon fill="midnightblue" stroke="midnightblue" points="647.64,-129.77 655.84,-123.06 645.24,-123.19 647.64,-129.77"/>
</g>
<!-- Node28&#45;&gt;Node13 -->
<g id="edge50" class="edge">
<title>Node28&#45;&gt;Node13</title>
<path fill="none" stroke="midnightblue" d="M749.58,-166.23C745.56,-167.94 741.65,-169.86 738,-172 716.57,-184.57 697.19,-206.8 687.17,-219.46"/>
<polygon fill="midnightblue" stroke="midnightblue" points="751.01,-169.44 759.11,-162.61 748.52,-162.89 751.01,-169.44"/>
</g>
<!-- Node28&#45;&gt;Node25 -->
<g id="edge51" class="edge">
<title>Node28&#45;&gt;Node25</title>
<path fill="none" stroke="midnightblue" d="M737.13,-153C699.69,-153 653.71,-153 620.04,-153"/>
<polygon fill="midnightblue" stroke="midnightblue" points="737.44,-156.5 747.44,-153 737.44,-149.5 737.44,-156.5"/>
</g>
<!-- Node28&#45;&gt;Node27 -->
<g id="edge49" class="edge">
<title>Node28&#45;&gt;Node27</title>
<path fill="none" stroke="midnightblue" d="M759.78,-140.58C752.5,-138.42 745.03,-136.18 738,-134 726.16,-130.33 713.03,-126.05 702.26,-122.48"/>
<polygon fill="midnightblue" stroke="midnightblue" points="758.96,-143.98 769.54,-143.44 760.93,-137.27 758.96,-143.98"/>
</g>
<!-- Node30 -->
<g id="node30" class="node">
<title>Node30</title>
<g id="a_node30"><a xlink:href="mp00ac_8f90.html#a304edac43f63d39dda4419b4d044eac5" target="_top" xlink:title="run GMRES">
<polygon fill="white" stroke="black" points="993,-110.5 993,-129.5 1050,-129.5 1050,-110.5 993,-110.5"/>
<text text-anchor="middle" x="1021.5" y="-117.5" font-family="Helvetica,sans-Serif" font-size="10.00">rungmres</text>
</a>
</g>
</g>
<!-- Node29&#45;&gt;Node30 -->
<g id="edge53" class="edge">
<title>Node29&#45;&gt;Node30</title>
<path fill="none" stroke="midnightblue" d="M1075.5,-120C1067.13,-120 1058.28,-120 1050.25,-120"/>
<polygon fill="midnightblue" stroke="midnightblue" points="1075.73,-123.5 1085.73,-120 1075.73,-116.5 1075.73,-123.5"/>
</g>
<!-- Node30&#45;&gt;Node31 -->
<g id="edge54" class="edge">
<title>Node30&#45;&gt;Node31</title>
<path fill="none" stroke="midnightblue" d="M982.46,-117.84C973.9,-117.35 965.03,-116.85 957.19,-116.4"/>
<polygon fill="midnightblue" stroke="midnightblue" points="982.47,-121.34 992.66,-118.42 982.87,-114.36 982.47,-121.34"/>
</g>
<!-- Node32 -->
<g id="node32" class="node">
<title>Node32</title>
<g id="a_node32"><a xlink:href="group__grp__solver__driver.html#gacad623d4c5c006e9ad10116372f92ad3" target="_top" xlink:title="Constructs Beltrami field in given volume consistent with flux, helicity, rotational&#45;transform and/or...">
<polygon fill="white" stroke="black" points="778.5,-105.5 778.5,-124.5 829.5,-124.5 829.5,-105.5 778.5,-105.5"/>
<text text-anchor="middle" x="804" y="-112.5" font-family="Helvetica,sans-Serif" font-size="10.00">ma02aa</text>
</a>
</g>
</g>
<!-- Node31&#45;&gt;Node32 -->
<g id="edge55" class="edge">
<title>Node31&#45;&gt;Node32</title>
<path fill="none" stroke="midnightblue" d="M895.6,-115C874.67,-115 848.55,-115 829.74,-115"/>
<polygon fill="midnightblue" stroke="midnightblue" points="895.71,-118.5 905.71,-115 895.71,-111.5 895.71,-118.5"/>
</g>
<!-- Node32&#45;&gt;Node27 -->
<g id="edge56" class="edge">
<title>Node32&#45;&gt;Node27</title>
<path fill="none" stroke="midnightblue" d="M768.16,-115C746.93,-115 720.45,-115 702.08,-115"/>
<polygon fill="midnightblue" stroke="midnightblue" points="768.4,-118.5 778.4,-115 768.4,-111.5 768.4,-118.5"/>
</g>
<!-- Node33&#45;&gt;Node20 -->
<g id="edge60" class="edge">
<title>Node33&#45;&gt;Node20</title>
<path fill="none" stroke="midnightblue" d="M768.22,-278.64C715.49,-274.86 612.2,-266.66 525,-255 509.59,-252.94 492.89,-250.21 477.74,-247.54"/>
<polygon fill="midnightblue" stroke="midnightblue" points="768.16,-282.14 778.38,-279.36 768.65,-275.16 768.16,-282.14"/>
</g>
<!-- Node33&#45;&gt;Node27 -->
<g id="edge59" class="edge">
<title>Node33&#45;&gt;Node27</title>
<path fill="none" stroke="midnightblue" d="M768.82,-269.03C757.9,-263.9 746.46,-256.97 738,-248 702.74,-210.61 686.85,-148.36 681.84,-124.61"/>
<polygon fill="midnightblue" stroke="midnightblue" points="767.63,-272.33 778.2,-273.09 770.41,-265.9 767.63,-272.33"/>
</g>
<!-- Node34&#45;&gt;Node7 -->
<g id="edge63" class="edge">
<title>Node34&#45;&gt;Node7</title>
<path fill="none" stroke="midnightblue" d="M540.66,-335.34C487.34,-355.05 374.55,-389.61 280,-371 277.25,-370.46 128.7,-309.27 70.78,-285.39"/>
<polygon fill="midnightblue" stroke="midnightblue" points="542.09,-338.54 550.2,-331.73 539.61,-331.99 542.09,-338.54"/>
</g>
<!-- Node34&#45;&gt;Node21 -->
<g id="edge62" class="edge">
<title>Node34&#45;&gt;Node21</title>
<path fill="none" stroke="midnightblue" d="M540.6,-312.29C525.14,-306.98 506.11,-300.55 489,-295 475.82,-290.73 460.98,-286.14 449.18,-282.54"/>
<polygon fill="midnightblue" stroke="midnightblue" points="539.59,-315.64 550.19,-315.59 541.87,-309.02 539.59,-315.64"/>
</g>
<!-- Node35&#45;&gt;Node27 -->
<g id="edge65" class="edge">
<title>Node35&#45;&gt;Node27</title>
<path fill="none" stroke="midnightblue" d="M1078.49,-46.47C1014.29,-51.98 862.44,-67.15 738,-96 725.92,-98.8 712.77,-103.01 702.05,-106.75"/>
<polygon fill="midnightblue" stroke="midnightblue" points="1079.05,-49.93 1088.73,-45.61 1078.47,-42.96 1079.05,-49.93"/>
</g>
</g>
</svg>
