<?xml version="1.0" encoding="UTF-8" standalone="no"?>
<!DOCTYPE svg PUBLIC "-//W3C//DTD SVG 1.1//EN"
 "http://www.w3.org/Graphics/SVG/1.1/DTD/svg11.dtd">
<!-- Generated by graphviz version 2.47.1 (20210421.1823)
 -->
<!-- Title: get_cheby Pages: 1 -->
<svg width="1400pt" height="476pt"
 viewBox="0.00 0.00 1400.00 475.97" xmlns="http://www.w3.org/2000/svg" xmlns:xlink="http://www.w3.org/1999/xlink">
<g id="graph0" class="graph" transform="scale(1 1) rotate(0) translate(4 471.97)">
<title>get_cheby</title>
<polygon fill="white" stroke="transparent" points="-4,4 -4,-471.97 1396,-471.97 1396,4 -4,4"/>
<!-- Node1 -->
<g id="node1" class="node">
<title>Node1</title>
<g id="a_node1"><a xlink:title="Get the Chebyshev polynomials with zeroth, first derivatives.">
<polygon fill="#bfbfbf" stroke="black" points="1331,-207.47 1331,-226.47 1392,-226.47 1392,-207.47 1331,-207.47"/>
<text text-anchor="middle" x="1361.5" y="-214.47" font-family="Helvetica,sans-Serif" font-size="10.00">get_cheby</text>
</a>
</g>
</g>
<!-- Node2 -->
<g id="node2" class="node">
<title>Node2</title>
<g id="a_node2"><a xlink:href="group__grp__diagnostics.html#ga20985df1b0df0503ca03ca13f1daf642" target="_top" xlink:title="Compute the magnetic field.">
<polygon fill="white" stroke="black" points="634,-61.47 634,-80.47 673,-80.47 673,-61.47 634,-61.47"/>
<text text-anchor="middle" x="653.5" y="-68.47" font-family="Helvetica,sans-Serif" font-size="10.00">bfield</text>
</a>
</g>
</g>
<!-- Node1&#45;&gt;Node2 -->
<g id="edge1" class="edge">
<title>Node1&#45;&gt;Node2</title>
<path fill="none" stroke="midnightblue" d="M1346.92,-199.13C1320.81,-167.06 1260.16,-102.97 1192.5,-102.97 1192.5,-102.97 1192.5,-102.97 884,-102.97 804.95,-102.97 712.04,-84.11 673.12,-75.35"/>
<polygon fill="midnightblue" stroke="midnightblue" points="1344.39,-201.58 1353.35,-207.25 1349.88,-197.23 1344.39,-201.58"/>
</g>
<!-- Node11 -->
<g id="node11" class="node">
<title>Node11</title>
<g id="a_node11"><a xlink:href="intghs_8f90.html#a21d3b7106371783302e68297f7797e9f" target="_top" xlink:title="Calculates volume integrals of Chebyshev polynomials and covariant field products.">
<polygon fill="white" stroke="black" points="1252,-302.47 1252,-321.47 1295,-321.47 1295,-302.47 1252,-302.47"/>
<text text-anchor="middle" x="1273.5" y="-309.47" font-family="Helvetica,sans-Serif" font-size="10.00">intghs</text>
</a>
</g>
</g>
<!-- Node1&#45;&gt;Node11 -->
<g id="edge14" class="edge">
<title>Node1&#45;&gt;Node11</title>
<path fill="none" stroke="midnightblue" d="M1344.84,-234.26C1326.75,-254.24 1297.64,-286.4 1283.2,-302.35"/>
<polygon fill="midnightblue" stroke="midnightblue" points="1347.5,-236.54 1351.62,-226.77 1342.31,-231.84 1347.5,-236.54"/>
</g>
<!-- Node33 -->
<g id="node33" class="node">
<title>Node33</title>
<g id="a_node33"><a xlink:href="group__grp__integrals.html#ga400af9e33dd5465ff9a4bba9fbf91108" target="_top" xlink:title="Calculates volume integrals of Chebyshev polynomials and metric element products.">
<polygon fill="white" stroke="black" points="859.5,-435.47 859.5,-454.47 910.5,-454.47 910.5,-435.47 859.5,-435.47"/>
<text text-anchor="middle" x="885" y="-442.47" font-family="Helvetica,sans-Serif" font-size="10.00">ma00aa</text>
</a>
</g>
</g>
<!-- Node1&#45;&gt;Node33 -->
<g id="edge60" class="edge">
<title>Node1&#45;&gt;Node33</title>
<path fill="none" stroke="midnightblue" d="M1356.18,-236.38C1342.67,-291.5 1295.77,-444.97 1192.5,-444.97 1192.5,-444.97 1192.5,-444.97 1101.5,-444.97 1032.29,-444.97 950.57,-444.97 910.56,-444.97"/>
<polygon fill="midnightblue" stroke="midnightblue" points="1359.63,-237.01 1358.51,-226.47 1352.82,-235.41 1359.63,-237.01"/>
</g>
<!-- Node34 -->
<g id="node34" class="node">
<title>Node34</title>
<g id="a_node34"><a xlink:href="group__grp__initialization.html#ga28628de0fdb3b3497668007d8d0643bd" target="_top" xlink:title="Allocates and initializes internal arrays.">
<polygon fill="white" stroke="black" points="631.5,-169.47 631.5,-188.47 675.5,-188.47 675.5,-169.47 631.5,-169.47"/>
<text text-anchor="middle" x="653.5" y="-176.47" font-family="Helvetica,sans-Serif" font-size="10.00">preset</text>
</a>
</g>
</g>
<!-- Node1&#45;&gt;Node34 -->
<g id="edge63" class="edge">
<title>Node1&#45;&gt;Node34</title>
<path fill="none" stroke="midnightblue" d="M1324.9,-204.07C1291.25,-193.05 1239.11,-178.97 1192.5,-178.97 1192.5,-178.97 1192.5,-178.97 884,-178.97 807.3,-178.97 716.18,-178.97 675.7,-178.97"/>
<polygon fill="midnightblue" stroke="midnightblue" points="1324.13,-207.51 1334.72,-207.38 1326.36,-200.87 1324.13,-207.51"/>
</g>
<!-- Node35 -->
<g id="node35" class="node">
<title>Node35</title>
<g id="a_node35"><a xlink:href="group__grp__integrals.html#ga01df49c498752e8a4201cc6eb5e283af" target="_top" xlink:title="Calculates volume integrals of Chebyshev&#45;polynomials and metric elements for preconditioner.">
<polygon fill="white" stroke="black" points="1170,-207.47 1170,-226.47 1213,-226.47 1213,-207.47 1170,-207.47"/>
<text text-anchor="middle" x="1191.5" y="-214.47" font-family="Helvetica,sans-Serif" font-size="10.00">spsint</text>
</a>
</g>
</g>
<!-- Node1&#45;&gt;Node35 -->
<g id="edge66" class="edge">
<title>Node1&#45;&gt;Node35</title>
<path fill="none" stroke="midnightblue" d="M1320.43,-216.97C1286.78,-216.97 1240.04,-216.97 1213.37,-216.97"/>
<polygon fill="midnightblue" stroke="midnightblue" points="1320.85,-220.47 1330.85,-216.97 1320.85,-213.47 1320.85,-220.47"/>
</g>
<!-- Node3 -->
<g id="node3" class="node">
<title>Node3</title>
<g id="a_node3"><a xlink:href="bfield_8f90.html#adc615fe98d38488525cbe807d008860a" target="_top" xlink:title="compute the tangential magnetic field">
<polygon fill="white" stroke="black" points="469,-61.47 469,-80.47 546,-80.47 546,-61.47 469,-61.47"/>
<text text-anchor="middle" x="507.5" y="-68.47" font-family="Helvetica,sans-Serif" font-size="10.00">bfield_tangent</text>
</a>
</g>
</g>
<!-- Node2&#45;&gt;Node3 -->
<g id="edge2" class="edge">
<title>Node2&#45;&gt;Node3</title>
<path fill="none" stroke="midnightblue" d="M623.8,-70.97C601.5,-70.97 570.38,-70.97 546.09,-70.97"/>
<polygon fill="midnightblue" stroke="midnightblue" points="623.97,-74.47 633.97,-70.97 623.97,-67.47 623.97,-74.47"/>
</g>
<!-- Node4 -->
<g id="node4" class="node">
<title>Node4</title>
<g id="a_node4"><a xlink:href="group__grp__diagnostics.html#ga6411205c36a7d50002d7f3fb3133c441" target="_top" xlink:title="Measures error in Beltrami equation, .">
<polygon fill="white" stroke="black" points="362.5,-137.47 362.5,-156.47 407.5,-156.47 407.5,-137.47 362.5,-137.47"/>
<text text-anchor="middle" x="385" y="-144.47" font-family="Helvetica,sans-Serif" font-size="10.00">jo00aa</text>
</a>
</g>
</g>
<!-- Node2&#45;&gt;Node4 -->
<g id="edge3" class="edge">
<title>Node2&#45;&gt;Node4</title>
<path fill="none" stroke="midnightblue" d="M623.87,-79.13C570.19,-94.44 455.49,-127.15 407.65,-140.79"/>
<polygon fill="midnightblue" stroke="midnightblue" points="625.1,-82.42 633.76,-76.31 623.18,-75.69 625.1,-82.42"/>
</g>
<!-- Node8 -->
<g id="node8" class="node">
<title>Node8</title>
<g id="a_node8"><a xlink:href="group__grp__diagnostics.html#ga831aed2458140e266ee4d37461dd5350" target="_top" xlink:title="Constructs Poincaré plot and &quot;approximate&quot; rotational&#45;transform (for single field line).">
<polygon fill="white" stroke="black" points="483.5,-23.47 483.5,-42.47 531.5,-42.47 531.5,-23.47 483.5,-23.47"/>
<text text-anchor="middle" x="507.5" y="-30.47" font-family="Helvetica,sans-Serif" font-size="10.00">pp00ab</text>
</a>
</g>
</g>
<!-- Node2&#45;&gt;Node8 -->
<g id="edge9" class="edge">
<title>Node2&#45;&gt;Node8</title>
<path fill="none" stroke="midnightblue" d="M623.96,-63.43C596.93,-56.3 556.85,-45.72 531.72,-39.09"/>
<polygon fill="midnightblue" stroke="midnightblue" points="623.41,-66.91 633.97,-66.08 625.19,-60.14 623.41,-66.91"/>
</g>
<!-- Node10 -->
<g id="node10" class="node">
<title>Node10</title>
<g id="a_node10"><a xlink:href="namespacesphdf5.html#a17e65b951634f7098213fd071d905482" target="_top" xlink:title="write the magnetic field on a grid; previously the (wflag.eq.1) part of globals.f90/wrtend to write ....">
<polygon fill="white" stroke="black" points="233,-23.47 233,-42.47 325,-42.47 325,-23.47 233,-23.47"/>
<text text-anchor="middle" x="279" y="-30.47" font-family="Helvetica,sans-Serif" font-size="10.00">sphdf5::write_grid</text>
</a>
</g>
</g>
<!-- Node2&#45;&gt;Node10 -->
<g id="edge12" class="edge">
<title>Node2&#45;&gt;Node10</title>
<path fill="none" stroke="midnightblue" d="M635.18,-54.25C619.57,-40.43 595.24,-21.84 570,-13.97 479.93,14.12 366.71,-8.96 312.22,-23.45"/>
<polygon fill="midnightblue" stroke="midnightblue" points="633.18,-57.16 642.91,-61.34 637.91,-52 633.18,-57.16"/>
</g>
<!-- Node5 -->
<g id="node5" class="node">
<title>Node5</title>
<g id="a_node5"><a xlink:href="xspech_8f90.html#a48f45478dc2c9f70ea8aa1c60ad06503" target="_top" xlink:title=" ">
<polygon fill="white" stroke="black" points="260,-161.47 260,-180.47 298,-180.47 298,-161.47 260,-161.47"/>
<text text-anchor="middle" x="279" y="-168.47" font-family="Helvetica,sans-Serif" font-size="10.00">spec</text>
</a>
</g>
</g>
<!-- Node4&#45;&gt;Node5 -->
<g id="edge4" class="edge">
<title>Node4&#45;&gt;Node5</title>
<path fill="none" stroke="midnightblue" d="M352.48,-154.24C334.66,-158.35 313.03,-163.34 298.06,-166.8"/>
<polygon fill="midnightblue" stroke="midnightblue" points="353.49,-157.6 362.45,-151.94 351.92,-150.78 353.49,-157.6"/>
</g>
<!-- Node6 -->
<g id="node6" class="node">
<title>Node6</title>
<g id="a_node6"><a xlink:href="namespacesphdf5.html#a0f962c09cd5d5eba99f1cba043cb3898" target="_top" xlink:title="initialize the interface to the HDF5 library and open the output file">
<polygon fill="white" stroke="black" points="93,-200.47 93,-219.47 187,-219.47 187,-200.47 93,-200.47"/>
<text text-anchor="middle" x="140" y="-207.47" font-family="Helvetica,sans-Serif" font-size="10.00">sphdf5::init_outfile</text>
</a>
</g>
</g>
<!-- Node5&#45;&gt;Node6 -->
<g id="edge5" class="edge">
<title>Node5&#45;&gt;Node6</title>
<path fill="none" stroke="midnightblue" d="M250.13,-178.9C228.27,-185.12 197.75,-193.81 174.55,-200.42"/>
<polygon fill="midnightblue" stroke="midnightblue" points="251.15,-182.25 259.81,-176.14 249.23,-175.52 251.15,-182.25"/>
</g>
<!-- Node7 -->
<g id="node7" class="node">
<title>Node7</title>
<g id="a_node7"><a xlink:href="xspech_8f90.html#aea782eae089760a491c2c54f9903abcc" target="_top" xlink:title="Main program of SPEC.">
<polygon fill="white" stroke="black" points="0,-153.47 0,-172.47 47,-172.47 47,-153.47 0,-153.47"/>
<text text-anchor="middle" x="23.5" y="-160.47" font-family="Helvetica,sans-Serif" font-size="10.00">xspech</text>
</a>
</g>
</g>
<!-- Node5&#45;&gt;Node7 -->
<g id="edge8" class="edge">
<title>Node5&#45;&gt;Node7</title>
<path fill="none" stroke="midnightblue" d="M249.51,-165.61C198.71,-160.82 93.5,-157.63 47.2,-159.62"/>
<polygon fill="midnightblue" stroke="midnightblue" points="249.46,-169.12 259.77,-166.69 250.19,-162.16 249.46,-169.12"/>
</g>
<!-- Node6&#45;&gt;Node7 -->
<g id="edge6" class="edge">
<title>Node6&#45;&gt;Node7</title>
<path fill="none" stroke="midnightblue" d="M106.41,-196.59C87.5,-188.83 64.17,-179.25 47.25,-172.3"/>
<polygon fill="midnightblue" stroke="midnightblue" points="105.25,-199.89 115.83,-200.45 107.91,-193.42 105.25,-199.89"/>
</g>
<!-- Node7&#45;&gt;Node5 -->
<g id="edge7" class="edge">
<title>Node7&#45;&gt;Node5</title>
<path fill="none" stroke="midnightblue" d="M57.28,-168.71C111.31,-173.44 217.3,-176.45 259.77,-174.09"/>
<polygon fill="midnightblue" stroke="midnightblue" points="57.49,-165.22 47.2,-167.74 56.82,-172.18 57.49,-165.22"/>
</g>
<!-- Node9 -->
<g id="node9" class="node">
<title>Node9</title>
<g id="a_node9"><a xlink:href="group__grp__diagnostics.html#gad67931244268a09bd077dae8910c7096" target="_top" xlink:title="Constructs Poincaré plot and &quot;approximate&quot; rotational&#45;transform (driver).">
<polygon fill="white" stroke="black" points="361,-42.47 361,-61.47 409,-61.47 409,-42.47 361,-42.47"/>
<text text-anchor="middle" x="385" y="-49.47" font-family="Helvetica,sans-Serif" font-size="10.00">pp00aa</text>
</a>
</g>
</g>
<!-- Node8&#45;&gt;Node9 -->
<g id="edge10" class="edge">
<title>Node8&#45;&gt;Node9</title>
<path fill="none" stroke="midnightblue" d="M473.16,-38.22C452.81,-41.43 427.31,-45.45 409.16,-48.31"/>
<polygon fill="midnightblue" stroke="midnightblue" points="473.93,-41.64 483.27,-36.63 472.84,-34.73 473.93,-41.64"/>
</g>
<!-- Node9&#45;&gt;Node5 -->
<g id="edge11" class="edge">
<title>Node9&#45;&gt;Node5</title>
<path fill="none" stroke="midnightblue" d="M368.69,-69.48C346.41,-94.98 305.79,-141.45 288.34,-161.43"/>
<polygon fill="midnightblue" stroke="midnightblue" points="371.54,-71.54 375.49,-61.7 366.27,-66.93 371.54,-71.54"/>
</g>
<!-- Node10&#45;&gt;Node7 -->
<g id="edge13" class="edge">
<title>Node10&#45;&gt;Node7</title>
<path fill="none" stroke="midnightblue" d="M222.89,-42.05C181.77,-50.74 125.57,-66.82 83,-94.97 59.36,-110.6 39.76,-138.37 30.41,-153.12"/>
<polygon fill="midnightblue" stroke="midnightblue" points="223.64,-45.47 232.74,-40.04 222.25,-38.61 223.64,-45.47"/>
</g>
<!-- Node12 -->
<g id="node12" class="node">
<title>Node12</title>
<g id="a_node12"><a xlink:href="dfp200_8f90.html#a5e56f1f4b1e6df11a9cffa6237c37469" target="_top" xlink:title="This routine evaluates the value of the magnetic field once the interface is perturbed using matrix p...">
<polygon fill="white" stroke="black" points="827.5,-397.47 827.5,-416.47 942.5,-416.47 942.5,-397.47 827.5,-397.47"/>
<text text-anchor="middle" x="885" y="-404.47" font-family="Helvetica,sans-Serif" font-size="10.00">get_perturbed_solution</text>
</a>
</g>
</g>
<!-- Node11&#45;&gt;Node12 -->
<g id="edge15" class="edge">
<title>Node11&#45;&gt;Node12</title>
<path fill="none" stroke="midnightblue" d="M1253.23,-327.89C1242.81,-335.71 1229.36,-344.58 1216,-349.97 1124.74,-386.77 1009.91,-399.83 942.56,-404.45"/>
<polygon fill="midnightblue" stroke="midnightblue" points="1255.47,-330.58 1261.2,-321.67 1251.16,-325.06 1255.47,-330.58"/>
</g>
<!-- Node26 -->
<g id="node26" class="node">
<title>Node26</title>
<g id="a_node26"><a xlink:href="intghs_8f90.html#ae10091a51178071d12004da4952104d4" target="_top" xlink:title="free workspace">
<polygon fill="white" stroke="black" points="819,-359.47 819,-378.47 951,-378.47 951,-359.47 819,-359.47"/>
<text text-anchor="middle" x="885" y="-366.47" font-family="Helvetica,sans-Serif" font-size="10.00">intghs_workspace_destroy</text>
</a>
</g>
</g>
<!-- Node11&#45;&gt;Node26 -->
<g id="edge44" class="edge">
<title>Node11&#45;&gt;Node26</title>
<path fill="none" stroke="midnightblue" d="M1242.46,-324.03C1234.01,-327.03 1224.75,-329.95 1216,-331.97 1125.54,-352.76 1018.34,-362.03 951.23,-366.05"/>
<polygon fill="midnightblue" stroke="midnightblue" points="1243.75,-327.29 1251.91,-320.53 1241.32,-320.72 1243.75,-327.29"/>
</g>
<!-- Node28 -->
<g id="node28" class="node">
<title>Node28</title>
<g id="a_node28"><a xlink:href="intghs_8f90.html#ae8299d4625cabd90eb1398fd2cd38089" target="_top" xlink:title="init workspace">
<polygon fill="white" stroke="black" points="828.5,-321.47 828.5,-340.47 941.5,-340.47 941.5,-321.47 828.5,-321.47"/>
<text text-anchor="middle" x="885" y="-328.47" font-family="Helvetica,sans-Serif" font-size="10.00">intghs_workspace_init</text>
</a>
</g>
</g>
<!-- Node11&#45;&gt;Node28 -->
<g id="edge50" class="edge">
<title>Node11&#45;&gt;Node28</title>
<path fill="none" stroke="midnightblue" d="M1241.75,-314.94C1233.4,-315.68 1224.36,-316.42 1216,-316.97 1119.58,-323.27 1007.12,-327.34 941.51,-329.39"/>
<polygon fill="midnightblue" stroke="midnightblue" points="1242.21,-318.42 1251.85,-314.02 1241.58,-311.45 1242.21,-318.42"/>
</g>
<!-- Node29 -->
<g id="node29" class="node">
<title>Node29</title>
<g id="a_node29"><a xlink:href="mp00ac_8f90.html#ae9fe335bb4916face9f9d19ce8c0f5d7" target="_top" xlink:title="compute a.x by either by coumputing it directly, or using a matrix free method">
<polygon fill="white" stroke="black" points="1167,-245.47 1167,-264.47 1216,-264.47 1216,-245.47 1167,-245.47"/>
<text text-anchor="middle" x="1191.5" y="-252.47" font-family="Helvetica,sans-Serif" font-size="10.00">matvec</text>
</a>
</g>
</g>
<!-- Node11&#45;&gt;Node29 -->
<g id="edge54" class="edge">
<title>Node11&#45;&gt;Node29</title>
<path fill="none" stroke="midnightblue" d="M1250.61,-296.37C1236.3,-286.17 1218.06,-273.18 1205.87,-264.49"/>
<polygon fill="midnightblue" stroke="midnightblue" points="1248.75,-299.34 1258.93,-302.3 1252.82,-293.64 1248.75,-299.34"/>
</g>
<!-- Node31 -->
<g id="node31" class="node">
<title>Node31</title>
<g id="a_node31"><a xlink:href="group__grp__solver.html#ga6626839aff500f060beb5bce2b90c447" target="_top" xlink:title="Solves Beltrami/vacuum (linear) system, given matrices.unpacking fluxes, helicity multiplier">
<polygon fill="white" stroke="black" points="987,-283.47 987,-302.47 1038,-302.47 1038,-283.47 987,-283.47"/>
<text text-anchor="middle" x="1012.5" y="-290.47" font-family="Helvetica,sans-Serif" font-size="10.00">mp00ac</text>
</a>
</g>
</g>
<!-- Node11&#45;&gt;Node31 -->
<g id="edge59" class="edge">
<title>Node11&#45;&gt;Node31</title>
<path fill="none" stroke="midnightblue" d="M1241.46,-309.69C1189.38,-305.87 1085.49,-298.25 1038.09,-294.77"/>
<polygon fill="midnightblue" stroke="midnightblue" points="1241.51,-313.2 1251.74,-310.44 1242.03,-306.22 1241.51,-313.2"/>
</g>
<!-- Node13 -->
<g id="node13" class="node">
<title>Node13</title>
<g id="a_node13"><a xlink:href="dfp200_8f90.html#a55ea75395f8c71731451e1add3720c7e" target="_top" xlink:title="Given the field consistent with the constraints and the geometry, computes local quantites related to...">
<polygon fill="white" stroke="black" points="737,-397.47 737,-416.47 783,-416.47 783,-397.47 737,-397.47"/>
<text text-anchor="middle" x="760" y="-404.47" font-family="Helvetica,sans-Serif" font-size="10.00">dfp200</text>
</a>
</g>
</g>
<!-- Node12&#45;&gt;Node13 -->
<g id="edge16" class="edge">
<title>Node12&#45;&gt;Node13</title>
<path fill="none" stroke="midnightblue" d="M816.92,-400.24C804.74,-400.35 792.85,-400.81 783.19,-401.63"/>
<polygon fill="midnightblue" stroke="midnightblue" points="817.18,-403.74 827.18,-400.23 817.18,-396.74 817.18,-403.74"/>
</g>
<!-- Node13&#45;&gt;Node12 -->
<g id="edge43" class="edge">
<title>Node13&#45;&gt;Node12</title>
<path fill="none" stroke="midnightblue" d="M793.41,-412.99C803.79,-413.55 815.59,-413.78 827.18,-413.7"/>
<polygon fill="midnightblue" stroke="midnightblue" points="793.4,-409.49 783.19,-412.3 792.93,-416.47 793.4,-409.49"/>
</g>
<!-- Node14 -->
<g id="node14" class="node">
<title>Node14</title>
<g id="a_node14"><a xlink:href="group__grp__global__force.html#ga38c9d3c50bd043707fefa5137c9dbf44" target="_top" xlink:title="Calculates , where &#160;and , and .">
<polygon fill="white" stroke="black" points="631.5,-289.47 631.5,-308.47 675.5,-308.47 675.5,-289.47 631.5,-289.47"/>
<text text-anchor="middle" x="653.5" y="-296.47" font-family="Helvetica,sans-Serif" font-size="10.00">dforce</text>
</a>
</g>
</g>
<!-- Node13&#45;&gt;Node14 -->
<g id="edge17" class="edge">
<title>Node13&#45;&gt;Node14</title>
<path fill="none" stroke="midnightblue" d="M742.65,-390.07C720.5,-367.18 681.7,-327.08 663.9,-308.68"/>
<polygon fill="midnightblue" stroke="midnightblue" points="740.26,-392.63 749.73,-397.38 745.29,-387.76 740.26,-392.63"/>
</g>
<!-- Node20 -->
<g id="node20" class="node">
<title>Node20</title>
<g id="a_node20"><a xlink:href="dfp200_8f90.html#a6aca59cf350d7b1941f8389d50945a43" target="_top" xlink:title="get LU Beltrami matrices">
<polygon fill="white" stroke="black" points="445,-448.47 445,-467.47 570,-467.47 570,-448.47 445,-448.47"/>
<text text-anchor="middle" x="507.5" y="-455.47" font-family="Helvetica,sans-Serif" font-size="10.00">get_lu_beltrami_matrices</text>
</a>
</g>
</g>
<!-- Node13&#45;&gt;Node20 -->
<g id="edge42" class="edge">
<title>Node13&#45;&gt;Node20</title>
<path fill="none" stroke="midnightblue" d="M727.09,-409.69C718.68,-412.12 709.56,-414.86 701,-416.97 643.59,-431.06 575,-440.81 537.15,-448.44"/>
<polygon fill="midnightblue" stroke="midnightblue" points="728.24,-413 736.92,-406.93 726.35,-406.26 728.24,-413"/>
</g>
<!-- Node24 -->
<g id="node24" class="node">
<title>Node24</title>
<g id="a_node24"><a xlink:href="dfp200_8f90.html#a7b64c7392b45d0042d8bd7379c0761a5" target="_top" xlink:title="Evaluate the derivative of the square of the magnetic field modulus. Add spectral constraint derivati...">
<polygon fill="white" stroke="black" points="616.5,-397.47 616.5,-416.47 690.5,-416.47 690.5,-397.47 616.5,-397.47"/>
<text text-anchor="middle" x="653.5" y="-404.47" font-family="Helvetica,sans-Serif" font-size="10.00">evaluate_dbb</text>
</a>
</g>
</g>
<!-- Node13&#45;&gt;Node24 -->
<g id="edge38" class="edge">
<title>Node13&#45;&gt;Node24</title>
<path fill="none" stroke="midnightblue" d="M726.82,-400.68C715.36,-400.12 702.38,-400.07 690.61,-400.51"/>
<polygon fill="midnightblue" stroke="midnightblue" points="726.63,-404.17 736.84,-401.33 727.09,-397.19 726.63,-404.17"/>
</g>
<!-- Node25 -->
<g id="node25" class="node">
<title>Node25</title>
<g id="a_node25"><a xlink:href="dfp200_8f90.html#a73ddf39ecc5228201fb643779e17cd36" target="_top" xlink:title="Evaluate mu and psip derivatives and store them in dmupfdx.">
<polygon fill="white" stroke="black" points="606,-359.47 606,-378.47 701,-378.47 701,-359.47 606,-359.47"/>
<text text-anchor="middle" x="653.5" y="-366.47" font-family="Helvetica,sans-Serif" font-size="10.00">evaluate_dmupfdx</text>
</a>
</g>
</g>
<!-- Node13&#45;&gt;Node25 -->
<g id="edge40" class="edge">
<title>Node13&#45;&gt;Node25</title>
<path fill="none" stroke="midnightblue" d="M736.21,-392.99C725.42,-388.19 712.13,-383.03 699.43,-378.61"/>
<polygon fill="midnightblue" stroke="midnightblue" points="734.8,-396.19 745.34,-397.27 737.77,-389.85 734.8,-396.19"/>
</g>
<!-- Node14&#45;&gt;Node5 -->
<g id="edge37" class="edge">
<title>Node14&#45;&gt;Node5</title>
<path fill="none" stroke="midnightblue" d="M633.55,-282.85C617.57,-270.04 593.58,-252.55 570,-241.97 482.77,-202.81 453.86,-213.76 361,-190.97 339.34,-185.65 314.42,-179.49 298.01,-175.43"/>
<polygon fill="midnightblue" stroke="midnightblue" points="631.6,-285.78 641.55,-289.42 636.04,-280.37 631.6,-285.78"/>
</g>
<!-- Node15 -->
<g id="node15" class="node">
<title>Node15</title>
<g id="a_node15"><a xlink:href="namespaceallglobal.html#a7824bc37519fe88336534ce90ab2af16" target="_top" xlink:title=" ">
<polygon fill="white" stroke="black" points="83,-258.47 83,-277.47 197,-277.47 197,-258.47 83,-258.47"/>
<text text-anchor="middle" x="140" y="-265.47" font-family="Helvetica,sans-Serif" font-size="10.00">allglobal::check_inputs</text>
</a>
</g>
</g>
<!-- Node14&#45;&gt;Node15 -->
<g id="edge18" class="edge">
<title>Node14&#45;&gt;Node15</title>
<path fill="none" stroke="midnightblue" d="M621.31,-297.08C537.18,-291.98 304.71,-277.89 197.06,-271.36"/>
<polygon fill="midnightblue" stroke="midnightblue" points="621.3,-300.58 631.49,-297.69 621.73,-293.59 621.3,-300.58"/>
</g>
<!-- Node16 -->
<g id="node16" class="node">
<title>Node16</title>
<g id="a_node16"><a xlink:href="group__grp__force__driver.html#gabbc245b3884ee8d8d3e2a52f25149f78" target="_top" xlink:title="fcn1">
<polygon fill="white" stroke="black" points="490,-327.47 490,-346.47 525,-346.47 525,-327.47 490,-327.47"/>
<text text-anchor="middle" x="507.5" y="-334.47" font-family="Helvetica,sans-Serif" font-size="10.00">fcn1</text>
</a>
</g>
</g>
<!-- Node14&#45;&gt;Node16 -->
<g id="edge20" class="edge">
<title>Node14&#45;&gt;Node16</title>
<path fill="none" stroke="midnightblue" d="M621.46,-307.16C592.02,-314.93 548.87,-326.31 525.34,-332.52"/>
<polygon fill="midnightblue" stroke="midnightblue" points="622.48,-310.51 631.25,-304.57 620.69,-303.74 622.48,-310.51"/>
</g>
<!-- Node17 -->
<g id="node17" class="node">
<title>Node17</title>
<g id="a_node17"><a xlink:href="group__grp__force__driver.html#gaec14f81fbdbedafbc4189489ec8ae178" target="_top" xlink:title="Employs Newton method to find , where &#160;and &#160;is defined in dforce() .">
<polygon fill="white" stroke="black" points="361,-327.47 361,-346.47 409,-346.47 409,-327.47 361,-327.47"/>
<text text-anchor="middle" x="385" y="-334.47" font-family="Helvetica,sans-Serif" font-size="10.00">newton</text>
</a>
</g>
</g>
<!-- Node14&#45;&gt;Node17 -->
<g id="edge34" class="edge">
<title>Node14&#45;&gt;Node17</title>
<path fill="none" stroke="midnightblue" d="M635.18,-315.68C619.57,-329.5 595.24,-348.09 570,-355.97 516.96,-372.51 499.88,-364.58 445,-355.97 432.88,-354.06 419.86,-350.09 409.13,-346.26"/>
<polygon fill="midnightblue" stroke="midnightblue" points="637.91,-317.93 642.91,-308.59 633.18,-312.77 637.91,-317.93"/>
</g>
<!-- Node18 -->
<g id="node18" class="node">
<title>Node18</title>
<g id="a_node18"><a xlink:href="group__grp__force__driver.html#ga8ccd6c7d901872702521d0a0edf95412" target="_top" xlink:title="fcn2">
<polygon fill="white" stroke="black" points="122.5,-363.47 122.5,-382.47 157.5,-382.47 157.5,-363.47 122.5,-363.47"/>
<text text-anchor="middle" x="140" y="-370.47" font-family="Helvetica,sans-Serif" font-size="10.00">fcn2</text>
</a>
</g>
</g>
<!-- Node14&#45;&gt;Node18 -->
<g id="edge29" class="edge">
<title>Node14&#45;&gt;Node18</title>
<path fill="none" stroke="midnightblue" d="M636.74,-315.89C617.48,-336.09 585.53,-367.93 570,-373.97 419.72,-432.42 216.8,-391.29 157.76,-377.2"/>
<polygon fill="midnightblue" stroke="midnightblue" points="639.36,-318.22 643.68,-308.55 634.27,-313.41 639.36,-318.22"/>
</g>
<!-- Node14&#45;&gt;Node20 -->
<g id="edge30" class="edge">
<title>Node14&#45;&gt;Node20</title>
<path fill="none" stroke="midnightblue" d="M634.45,-315.83C625.1,-325.23 614.01,-337.53 606,-349.97 584.01,-384.12 599.19,-405.72 570,-433.97 563.49,-440.26 555.15,-444.96 546.71,-448.44"/>
<polygon fill="midnightblue" stroke="midnightblue" points="637.07,-318.16 641.78,-308.67 632.18,-313.15 637.07,-318.16"/>
</g>
<!-- Node21 -->
<g id="node21" class="node">
<title>Node21</title>
<g id="a_node21"><a xlink:href="group__grp__diagnostics.html#ga7401b50ec10c6598ee4a8112717a63ec" target="_top" xlink:title="Computes eigenvalues and eigenvectors of derivative matrix, .">
<polygon fill="white" stroke="black" points="485,-175.47 485,-194.47 530,-194.47 530,-175.47 485,-175.47"/>
<text text-anchor="middle" x="507.5" y="-182.47" font-family="Helvetica,sans-Serif" font-size="10.00">hesian</text>
</a>
</g>
</g>
<!-- Node14&#45;&gt;Node21 -->
<g id="edge32" class="edge">
<title>Node14&#45;&gt;Node21</title>
<path fill="none" stroke="midnightblue" d="M639.98,-280.97C625.26,-260.98 599.12,-228.91 570,-208.97 557.9,-200.68 542.52,-194.68 530.17,-190.75"/>
<polygon fill="midnightblue" stroke="midnightblue" points="637.23,-283.14 645.91,-289.21 642.91,-279.05 637.23,-283.14"/>
</g>
<!-- Node22 -->
<g id="node22" class="node">
<title>Node22</title>
<g id="a_node22"><a xlink:href="group__grp__conjugate__gradient.html#ga4d8415226e62a9fdb42b0fd0b464251e" target="_top" xlink:title="Returns the energy functional and it&#39;s derivatives with respect to geometry.">
<polygon fill="white" stroke="black" points="483.5,-251.47 483.5,-270.47 531.5,-270.47 531.5,-251.47 483.5,-251.47"/>
<text text-anchor="middle" x="507.5" y="-258.47" font-family="Helvetica,sans-Serif" font-size="10.00">pc00ab</text>
</a>
</g>
</g>
<!-- Node14&#45;&gt;Node22 -->
<g id="edge35" class="edge">
<title>Node14&#45;&gt;Node22</title>
<path fill="none" stroke="midnightblue" d="M621.54,-290.8C594.6,-283.69 556.13,-273.54 531.75,-267.1"/>
<polygon fill="midnightblue" stroke="midnightblue" points="620.69,-294.19 631.25,-293.36 622.48,-287.42 620.69,-294.19"/>
</g>
<!-- Node15&#45;&gt;Node7 -->
<g id="edge19" class="edge">
<title>Node15&#45;&gt;Node7</title>
<path fill="none" stroke="midnightblue" d="M114.59,-252.8C104.41,-246.02 92.72,-237.61 83,-228.97 62.64,-210.85 42.31,-186.02 31.81,-172.57"/>
<polygon fill="midnightblue" stroke="midnightblue" points="112.76,-255.79 123.05,-258.3 116.58,-249.92 112.76,-255.79"/>
</g>
<!-- Node16&#45;&gt;Node17 -->
<g id="edge21" class="edge">
<title>Node16&#45;&gt;Node17</title>
<path fill="none" stroke="midnightblue" d="M479.51,-331.23C458.38,-329.79 429.31,-329.88 409.22,-331.51"/>
<polygon fill="midnightblue" stroke="midnightblue" points="479.48,-334.74 489.74,-332.12 480.09,-327.77 479.48,-334.74"/>
</g>
<!-- Node17&#45;&gt;Node5 -->
<g id="edge25" class="edge">
<title>Node17&#45;&gt;Node5</title>
<path fill="none" stroke="midnightblue" d="M372.27,-318.24C350.1,-282.85 302.78,-207.33 286.03,-180.59"/>
<polygon fill="midnightblue" stroke="midnightblue" points="369.53,-320.46 377.81,-327.08 375.46,-316.75 369.53,-320.46"/>
</g>
<!-- Node17&#45;&gt;Node16 -->
<g id="edge22" class="edge">
<title>Node17&#45;&gt;Node16</title>
<path fill="none" stroke="midnightblue" d="M419.21,-343.07C442.11,-344.24 471.58,-343.82 489.74,-341.81"/>
<polygon fill="midnightblue" stroke="midnightblue" points="419.42,-339.58 409.22,-342.42 418.97,-346.56 419.42,-339.58"/>
</g>
<!-- Node17&#45;&gt;Node18 -->
<g id="edge23" class="edge">
<title>Node17&#45;&gt;Node18</title>
<path fill="none" stroke="midnightblue" d="M350.51,-337.1C297.73,-342 197.14,-357.31 157.58,-366.89"/>
<polygon fill="midnightblue" stroke="midnightblue" points="351.03,-340.57 360.7,-336.24 350.44,-333.59 351.03,-340.57"/>
</g>
<!-- Node19 -->
<g id="node19" class="node">
<title>Node19</title>
<g id="a_node19"><a xlink:href="group__grp__force__driver.html#ga382822b303cbf8c56d6f54dcb379caf2" target="_top" xlink:title="read or write force&#45;derivative matrix">
<polygon fill="white" stroke="black" points="246.5,-316.47 246.5,-335.47 311.5,-335.47 311.5,-316.47 246.5,-316.47"/>
<text text-anchor="middle" x="279" y="-323.47" font-family="Helvetica,sans-Serif" font-size="10.00">writereadgf</text>
</a>
</g>
</g>
<!-- Node17&#45;&gt;Node19 -->
<g id="edge26" class="edge">
<title>Node17&#45;&gt;Node19</title>
<path fill="none" stroke="midnightblue" d="M350.86,-327.12C338.33,-325.23 324.1,-323.74 311.69,-323.05"/>
<polygon fill="midnightblue" stroke="midnightblue" points="350.48,-330.61 360.92,-328.8 351.63,-323.7 350.48,-330.61"/>
</g>
<!-- Node18&#45;&gt;Node17 -->
<g id="edge24" class="edge">
<title>Node18&#45;&gt;Node17</title>
<path fill="none" stroke="midnightblue" d="M167.79,-373.42C215.73,-369.5 315.41,-354.65 360.7,-344.6"/>
<polygon fill="midnightblue" stroke="midnightblue" points="167.31,-369.94 157.58,-374.13 167.79,-376.93 167.31,-369.94"/>
</g>
<!-- Node19&#45;&gt;Node17 -->
<g id="edge28" class="edge">
<title>Node19&#45;&gt;Node17</title>
<path fill="none" stroke="midnightblue" d="M321.34,-336.96C334.82,-338.71 349.28,-339.94 360.92,-340.24"/>
<polygon fill="midnightblue" stroke="midnightblue" points="321.69,-333.48 311.3,-335.53 320.71,-340.41 321.69,-333.48"/>
</g>
<!-- Node19&#45;&gt;Node18 -->
<g id="edge27" class="edge">
<title>Node19&#45;&gt;Node18</title>
<path fill="none" stroke="midnightblue" d="M240.74,-338.75C213.71,-348.02 178.43,-360.12 157.89,-367.17"/>
<polygon fill="midnightblue" stroke="midnightblue" points="241.95,-342.03 250.28,-335.48 239.68,-335.41 241.95,-342.03"/>
</g>
<!-- Node20&#45;&gt;Node13 -->
<g id="edge31" class="edge">
<title>Node20&#45;&gt;Node13</title>
<path fill="none" stroke="midnightblue" d="M580.15,-456.77C616.6,-452.32 661.45,-444.67 701,-434.97 718.7,-430.62 738.8,-423.54 750.08,-416.63"/>
<polygon fill="midnightblue" stroke="midnightblue" points="579.63,-453.3 570.1,-457.94 580.44,-460.26 579.63,-453.3"/>
</g>
<!-- Node21&#45;&gt;Node5 -->
<g id="edge33" class="edge">
<title>Node21&#45;&gt;Node5</title>
<path fill="none" stroke="midnightblue" d="M474.6,-182.99C426.38,-180.01 336.51,-174.46 298.13,-172.09"/>
<polygon fill="midnightblue" stroke="midnightblue" points="474.59,-186.5 484.78,-183.62 475.02,-179.51 474.59,-186.5"/>
</g>
<!-- Node23 -->
<g id="node23" class="node">
<title>Node23</title>
<g id="a_node23"><a xlink:href="group__grp__conjugate__gradient.html#ga25a3bae2ff2ee0469b045de0d033398b" target="_top" xlink:title="Use preconditioned conjugate gradient method to find minimum of energy functional.">
<polygon fill="white" stroke="black" points="361,-251.47 361,-270.47 409,-270.47 409,-251.47 361,-251.47"/>
<text text-anchor="middle" x="385" y="-258.47" font-family="Helvetica,sans-Serif" font-size="10.00">pc00aa</text>
</a>
</g>
</g>
<!-- Node22&#45;&gt;Node23 -->
<g id="edge36" class="edge">
<title>Node22&#45;&gt;Node23</title>
<path fill="none" stroke="midnightblue" d="M473.16,-260.97C452.81,-260.97 427.31,-260.97 409.16,-260.97"/>
<polygon fill="midnightblue" stroke="midnightblue" points="473.27,-264.47 483.27,-260.97 473.27,-257.47 473.27,-264.47"/>
</g>
<!-- Node24&#45;&gt;Node13 -->
<g id="edge39" class="edge">
<title>Node24&#45;&gt;Node13</title>
<path fill="none" stroke="midnightblue" d="M700.93,-413.68C713.42,-413.84 726.35,-413.48 736.84,-412.6"/>
<polygon fill="midnightblue" stroke="midnightblue" points="700.69,-410.17 690.61,-413.42 700.52,-417.17 700.69,-410.17"/>
</g>
<!-- Node25&#45;&gt;Node13 -->
<g id="edge41" class="edge">
<title>Node25&#45;&gt;Node13</title>
<path fill="none" stroke="midnightblue" d="M677.55,-383.06C695.21,-390.89 719.41,-399.67 736.84,-404.54"/>
<polygon fill="midnightblue" stroke="midnightblue" points="678.55,-379.66 668.01,-378.59 675.59,-386 678.55,-379.66"/>
</g>
<!-- Node26&#45;&gt;Node13 -->
<g id="edge48" class="edge">
<title>Node26&#45;&gt;Node13</title>
<path fill="none" stroke="midnightblue" d="M840.78,-381.39C833.5,-383.54 826.03,-385.79 819,-387.97 807.16,-391.63 794.03,-395.92 783.26,-399.49"/>
<polygon fill="midnightblue" stroke="midnightblue" points="841.93,-384.7 850.54,-378.52 839.96,-377.98 841.93,-384.7"/>
</g>
<!-- Node26&#45;&gt;Node25 -->
<g id="edge49" class="edge">
<title>Node26&#45;&gt;Node25</title>
<path fill="none" stroke="midnightblue" d="M808.54,-368.97C773.13,-368.97 732.05,-368.97 701.22,-368.97"/>
<polygon fill="midnightblue" stroke="midnightblue" points="808.85,-372.47 818.85,-368.97 808.85,-365.47 808.85,-372.47"/>
</g>
<!-- Node27 -->
<g id="node27" class="node">
<title>Node27</title>
<g id="a_node27"><a xlink:href="dfp100_8f90.html#a17a3ac15cc83994394f7b4cc05e5898e" target="_top" xlink:title="Split the work between MPI nodes and evaluate the global constraint.">
<polygon fill="white" stroke="black" points="737,-283.47 737,-302.47 783,-302.47 783,-283.47 737,-283.47"/>
<text text-anchor="middle" x="760" y="-290.47" font-family="Helvetica,sans-Serif" font-size="10.00">dfp100</text>
</a>
</g>
</g>
<!-- Node26&#45;&gt;Node27 -->
<g id="edge45" class="edge">
<title>Node26&#45;&gt;Node27</title>
<path fill="none" stroke="midnightblue" d="M830.58,-355.73C826.56,-354.02 822.65,-352.11 819,-349.97 797.57,-337.39 778.19,-315.17 768.17,-302.5"/>
<polygon fill="midnightblue" stroke="midnightblue" points="829.52,-359.07 840.11,-359.36 832.01,-352.53 829.52,-359.07"/>
</g>
<!-- Node27&#45;&gt;Node14 -->
<g id="edge46" class="edge">
<title>Node27&#45;&gt;Node14</title>
<path fill="none" stroke="midnightblue" d="M726.46,-294.83C709.86,-295.79 690.15,-296.92 675.56,-297.76"/>
<polygon fill="midnightblue" stroke="midnightblue" points="727.06,-298.31 736.84,-294.24 726.65,-291.32 727.06,-298.31"/>
</g>
<!-- Node27&#45;&gt;Node25 -->
<g id="edge47" class="edge">
<title>Node27&#45;&gt;Node25</title>
<path fill="none" stroke="midnightblue" d="M737.46,-308.63C716.44,-323.91 685.16,-346.67 667.63,-359.42"/>
<polygon fill="midnightblue" stroke="midnightblue" points="739.74,-311.3 745.77,-302.59 735.62,-305.64 739.74,-311.3"/>
</g>
<!-- Node28&#45;&gt;Node13 -->
<g id="edge52" class="edge">
<title>Node28&#45;&gt;Node13</title>
<path fill="none" stroke="midnightblue" d="M830.58,-344.2C826.56,-345.91 822.65,-347.82 819,-349.97 797.57,-362.54 778.19,-384.77 768.17,-397.43"/>
<polygon fill="midnightblue" stroke="midnightblue" points="832.01,-347.4 840.11,-340.57 829.52,-340.86 832.01,-347.4"/>
</g>
<!-- Node28&#45;&gt;Node25 -->
<g id="edge53" class="edge">
<title>Node28&#45;&gt;Node25</title>
<path fill="none" stroke="midnightblue" d="M818.13,-341.87C780.69,-348.07 734.71,-355.68 701.04,-361.26"/>
<polygon fill="midnightblue" stroke="midnightblue" points="819.15,-345.25 828.44,-340.16 818.01,-338.34 819.15,-345.25"/>
</g>
<!-- Node28&#45;&gt;Node27 -->
<g id="edge51" class="edge">
<title>Node28&#45;&gt;Node27</title>
<path fill="none" stroke="midnightblue" d="M840.78,-318.54C833.5,-316.39 826.03,-314.14 819,-311.97 807.16,-308.3 794.03,-304.01 783.26,-300.44"/>
<polygon fill="midnightblue" stroke="midnightblue" points="839.96,-321.95 850.54,-321.41 841.93,-315.23 839.96,-321.95"/>
</g>
<!-- Node30 -->
<g id="node30" class="node">
<title>Node30</title>
<g id="a_node30"><a xlink:href="mp00ac_8f90.html#a304edac43f63d39dda4419b4d044eac5" target="_top" xlink:title="run GMRES">
<polygon fill="white" stroke="black" points="1074,-245.47 1074,-264.47 1131,-264.47 1131,-245.47 1074,-245.47"/>
<text text-anchor="middle" x="1102.5" y="-252.47" font-family="Helvetica,sans-Serif" font-size="10.00">rungmres</text>
</a>
</g>
</g>
<!-- Node29&#45;&gt;Node30 -->
<g id="edge55" class="edge">
<title>Node29&#45;&gt;Node30</title>
<path fill="none" stroke="midnightblue" d="M1156.5,-254.97C1148.13,-254.97 1139.28,-254.97 1131.25,-254.97"/>
<polygon fill="midnightblue" stroke="midnightblue" points="1156.73,-258.47 1166.73,-254.97 1156.73,-251.47 1156.73,-258.47"/>
</g>
<!-- Node30&#45;&gt;Node31 -->
<g id="edge56" class="edge">
<title>Node30&#45;&gt;Node31</title>
<path fill="none" stroke="midnightblue" d="M1070.1,-268.52C1058.72,-273.44 1046.12,-278.88 1035.7,-283.38"/>
<polygon fill="midnightblue" stroke="midnightblue" points="1071.5,-271.73 1079.29,-264.55 1068.73,-265.31 1071.5,-271.73"/>
</g>
<!-- Node32 -->
<g id="node32" class="node">
<title>Node32</title>
<g id="a_node32"><a xlink:href="group__grp__solver__driver.html#gacad623d4c5c006e9ad10116372f92ad3" target="_top" xlink:title="Constructs Beltrami field in given volume consistent with flux, helicity, rotational&#45;transform and/or...">
<polygon fill="white" stroke="black" points="859.5,-283.47 859.5,-302.47 910.5,-302.47 910.5,-283.47 859.5,-283.47"/>
<text text-anchor="middle" x="885" y="-290.47" font-family="Helvetica,sans-Serif" font-size="10.00">ma02aa</text>
</a>
</g>
</g>
<!-- Node31&#45;&gt;Node32 -->
<g id="edge57" class="edge">
<title>Node31&#45;&gt;Node32</title>
<path fill="none" stroke="midnightblue" d="M976.6,-292.97C955.67,-292.97 929.55,-292.97 910.74,-292.97"/>
<polygon fill="midnightblue" stroke="midnightblue" points="976.71,-296.47 986.71,-292.97 976.71,-289.47 976.71,-296.47"/>
</g>
<!-- Node32&#45;&gt;Node27 -->
<g id="edge58" class="edge">
<title>Node32&#45;&gt;Node27</title>
<path fill="none" stroke="midnightblue" d="M849.16,-292.97C827.93,-292.97 801.45,-292.97 783.08,-292.97"/>
<polygon fill="midnightblue" stroke="midnightblue" points="849.4,-296.47 859.4,-292.97 849.4,-289.47 849.4,-296.47"/>
</g>
<!-- Node33&#45;&gt;Node20 -->
<g id="edge62" class="edge">
<title>Node33&#45;&gt;Node20</title>
<path fill="none" stroke="midnightblue" d="M849.27,-448.17C812.49,-451.39 752.71,-456.13 701,-457.97 657.25,-459.52 607.87,-459.48 570.07,-459.08"/>
<polygon fill="midnightblue" stroke="midnightblue" points="849.81,-451.64 859.46,-447.26 849.19,-444.66 849.81,-451.64"/>
</g>
<!-- Node33&#45;&gt;Node27 -->
<g id="edge61" class="edge">
<title>Node33&#45;&gt;Node27</title>
<path fill="none" stroke="midnightblue" d="M849.32,-440.67C838.61,-437.91 827.43,-433.38 819,-425.97 780.24,-391.84 766.37,-327.08 762.37,-302.63"/>
<polygon fill="midnightblue" stroke="midnightblue" points="848.83,-444.15 859.34,-442.82 850.29,-437.3 848.83,-444.15"/>
</g>
<!-- Node34&#45;&gt;Node7 -->
<g id="edge65" class="edge">
<title>Node34&#45;&gt;Node7</title>
<path fill="none" stroke="midnightblue" d="M621.58,-170.34C575.65,-158.02 486.49,-135.99 409,-127.97 271.65,-113.74 106.38,-145.07 47.06,-157.85"/>
<polygon fill="midnightblue" stroke="midnightblue" points="620.67,-173.72 631.24,-172.96 622.5,-166.96 620.67,-173.72"/>
</g>
<!-- Node34&#45;&gt;Node21 -->
<g id="edge64" class="edge">
<title>Node34&#45;&gt;Node21</title>
<path fill="none" stroke="midnightblue" d="M621,-180.28C593.54,-181.42 554.44,-183.05 530.31,-184.06"/>
<polygon fill="midnightblue" stroke="midnightblue" points="621.41,-183.76 631.25,-179.85 621.12,-176.77 621.41,-183.76"/>
</g>
<!-- Node35&#45;&gt;Node27 -->
<g id="edge67" class="edge">
<title>Node35&#45;&gt;Node27</title>
<path fill="none" stroke="midnightblue" d="M1159.49,-219.98C1095.31,-226.6 943.49,-244.24 819,-273.97 806.94,-276.84 793.79,-281.06 783.06,-284.79"/>
<polygon fill="midnightblue" stroke="midnightblue" points="1160.14,-223.43 1169.73,-218.94 1159.43,-216.47 1160.14,-223.43"/>
</g>
</g>
</svg>
