<?xml version="1.0" encoding="UTF-8" standalone="no"?>
<!DOCTYPE svg PUBLIC "-//W3C//DTD SVG 1.1//EN"
 "http://www.w3.org/Graphics/SVG/1.1/DTD/svg11.dtd">
<!-- Generated by graphviz version 2.49.0 (0)
 -->
<!-- Title: get_zernike_rm Pages: 1 -->
<svg width="664pt" height="113pt"
 viewBox="0.00 0.00 664.00 113.00" xmlns="http://www.w3.org/2000/svg" xmlns:xlink="http://www.w3.org/1999/xlink">
<g id="graph0" class="graph" transform="scale(1 1) rotate(0) translate(4 109)">
<title>get_zernike_rm</title>
<polygon fill="white" stroke="transparent" points="-4,4 -4,-109 660,-109 660,4 -4,4"/>
<!-- Node1 -->
<g id="node1" class="node">
<title>Node1</title>
<g id="a_node1"><a xlink:title="Get the Zernike polynomials .">
<polygon fill="#bfbfbf" stroke="black" points="573,-14.5 573,-33.5 656,-33.5 656,-14.5 573,-14.5"/>
<text text-anchor="middle" x="614.5" y="-21.5" font-family="Helvetica,sans-Serif" font-size="10.00">get_zernike_rm</text>
</a>
</g>
</g>
<!-- Node2 -->
<g id="node2" class="node">
<title>Node2</title>
<g id="a_node2"><a xlink:href="group__grp__initialization.html#ga28628de0fdb3b3497668007d8d0643bd" target="_top" xlink:title="Allocates and initializes internal arrays.">
<polygon fill="white" stroke="black" points="493,-14.5 493,-33.5 537,-33.5 537,-14.5 493,-14.5"/>
<text text-anchor="middle" x="515" y="-21.5" font-family="Helvetica,sans-Serif" font-size="10.00">preset</text>
</a>
</g>
</g>
<!-- Node1&#45;&gt;Node2 -->
<g id="edge1" class="edge">
<title>Node1&#45;&gt;Node2</title>
<path fill="none" stroke="midnightblue" d="M562.77,-24C553.69,-24 544.7,-24 537.07,-24"/>
<polygon fill="midnightblue" stroke="midnightblue" points="563,-27.5 573,-24 563,-20.5 563,-27.5"/>
</g>
<!-- Node2&#45;&gt;Node2 -->
<g id="edge13" class="edge">
<title>Node2&#45;&gt;Node2</title>
<path fill="none" stroke="midnightblue" d="M529.73,-43.77C528.58,-48.5 523.66,-52 515,-52 500.78,-52 496.67,-42.57 502.67,-33.76"/>
<polygon fill="midnightblue" stroke="midnightblue" points="533.07,-42.66 527.33,-33.76 526.26,-44.3 533.07,-42.66"/>
</g>
<!-- Node3 -->
<g id="node3" class="node">
<title>Node3</title>
<g id="a_node3"><a xlink:href="group__grp__diagnostics.html#ga7401b50ec10c6598ee4a8112717a63ec" target="_top" xlink:title="Computes eigenvalues and eigenvectors of derivative matrix, .">
<polygon fill="white" stroke="black" points="412,-34.5 412,-53.5 457,-53.5 457,-34.5 412,-34.5"/>
<text text-anchor="middle" x="434.5" y="-41.5" font-family="Helvetica,sans-Serif" font-size="10.00">hesian</text>
</a>
</g>
</g>
<!-- Node2&#45;&gt;Node3 -->
<g id="edge2" class="edge">
<title>Node2&#45;&gt;Node3</title>
<path fill="none" stroke="midnightblue" d="M483.13,-31.86C474.44,-34.08 465.17,-36.44 457.14,-38.49"/>
<polygon fill="midnightblue" stroke="midnightblue" points="484.14,-35.22 492.96,-29.36 482.41,-28.44 484.14,-35.22"/>
</g>
<!-- Node6 -->
<g id="node6" class="node">
<title>Node6</title>
<g id="a_node6"><a xlink:href="xspech_8f90.html#a9fdc71dffd7c61ee4588a3f80d3ab9ce" target="_top" xlink:title="Main subroutine of SPEC.">
<polygon fill="white" stroke="black" points="125,-38.5 125,-57.5 172,-57.5 172,-38.5 125,-38.5"/>
<text text-anchor="middle" x="148.5" y="-45.5" font-family="Helvetica,sans-Serif" font-size="10.00">xspech</text>
</a>
</g>
</g>
<!-- Node2&#45;&gt;Node6 -->
<g id="edge14" class="edge">
<title>Node2&#45;&gt;Node6</title>
<path fill="none" stroke="midnightblue" d="M482.71,-23.95C462.52,-24 435.71,-24.24 412,-25 323.07,-27.84 217.74,-39.64 172.27,-45.15"/>
<polygon fill="midnightblue" stroke="midnightblue" points="482.9,-27.45 492.9,-23.94 482.89,-20.45 482.9,-27.45"/>
</g>
<!-- Node3&#45;&gt;Node3 -->
<g id="edge3" class="edge">
<title>Node3&#45;&gt;Node3</title>
<path fill="none" stroke="midnightblue" d="M448.5,-63.77C447.4,-68.5 442.73,-72 434.5,-72 420.99,-72 417.09,-62.57 422.79,-53.76"/>
<polygon fill="midnightblue" stroke="midnightblue" points="451.85,-62.73 446.21,-53.76 445.02,-64.28 451.85,-62.73"/>
</g>
<!-- Node4 -->
<g id="node4" class="node">
<title>Node4</title>
<g id="a_node4"><a xlink:href="xspech_8f90.html#a48f45478dc2c9f70ea8aa1c60ad06503" target="_top" xlink:title="This is the main &quot;driver&quot; for the physics part of SPEC.">
<polygon fill="white" stroke="black" points="338,-38.5 338,-57.5 376,-57.5 376,-38.5 338,-38.5"/>
<text text-anchor="middle" x="357" y="-45.5" font-family="Helvetica,sans-Serif" font-size="10.00">spec</text>
</a>
</g>
</g>
<!-- Node3&#45;&gt;Node4 -->
<g id="edge4" class="edge">
<title>Node3&#45;&gt;Node4</title>
<path fill="none" stroke="midnightblue" d="M401.55,-45.69C392.99,-46.15 384.03,-46.62 376.47,-47.02"/>
<polygon fill="midnightblue" stroke="midnightblue" points="401.86,-49.18 411.66,-45.16 401.49,-42.19 401.86,-49.18"/>
</g>
<!-- Node5 -->
<g id="node5" class="node">
<title>Node5</title>
<g id="a_node5"><a xlink:href="group__grp__output.html#ga0f962c09cd5d5eba99f1cba043cb3898" target="_top" xlink:title="Initialize the interface to the HDF5 library and open the output file.">
<polygon fill="white" stroke="black" points="208,-85.5 208,-104.5 302,-104.5 302,-85.5 208,-85.5"/>
<text text-anchor="middle" x="255" y="-92.5" font-family="Helvetica,sans-Serif" font-size="10.00">sphdf5::init_outfile</text>
</a>
</g>
</g>
<!-- Node4&#45;&gt;Node5 -->
<g id="edge5" class="edge">
<title>Node4&#45;&gt;Node5</title>
<path fill="none" stroke="midnightblue" d="M328.49,-60.93C311.97,-68.69 291.32,-78.4 276.29,-85.46"/>
<polygon fill="midnightblue" stroke="midnightblue" points="330.1,-64.04 337.66,-56.62 327.12,-57.71 330.1,-64.04"/>
</g>
<!-- Node4&#45;&gt;Node6 -->
<g id="edge12" class="edge">
<title>Node4&#45;&gt;Node6</title>
<path fill="none" stroke="midnightblue" d="M327.7,-43.18C286.3,-40.48 210.03,-40.61 172.12,-43.59"/>
<polygon fill="midnightblue" stroke="midnightblue" points="327.43,-46.67 337.67,-43.95 327.97,-39.69 327.43,-46.67"/>
</g>
<!-- Node5&#45;&gt;Node6 -->
<g id="edge6" class="edge">
<title>Node5&#45;&gt;Node6</title>
<path fill="none" stroke="midnightblue" d="M223.43,-81.25C206.59,-73.68 186.11,-64.46 170.97,-57.66"/>
<polygon fill="midnightblue" stroke="midnightblue" points="222.3,-84.58 232.85,-85.49 225.17,-78.19 222.3,-84.58"/>
</g>
<!-- Node6&#45;&gt;Node4 -->
<g id="edge9" class="edge">
<title>Node6&#45;&gt;Node4</title>
<path fill="none" stroke="midnightblue" d="M182.28,-53.09C226.23,-55.61 302.75,-55.26 337.67,-52.05"/>
<polygon fill="midnightblue" stroke="midnightblue" points="182.33,-49.59 172.12,-52.41 181.86,-56.57 182.33,-49.59"/>
</g>
<!-- Node6&#45;&gt;Node6 -->
<g id="edge11" class="edge">
<title>Node6&#45;&gt;Node6</title>
<path fill="none" stroke="midnightblue" d="M167.76,-67.4C166.47,-72.31 160.05,-76 148.5,-76 130.02,-76 124.67,-66.57 132.47,-57.76"/>
<polygon fill="midnightblue" stroke="midnightblue" points="171.02,-66.13 164.53,-57.76 164.39,-68.35 171.02,-66.13"/>
</g>
<!-- Node7 -->
<g id="node7" class="node">
<title>Node7</title>
<g id="a_node7"><a xlink:href="xspech_8f90.html#a1451823a7b97101a797de616250752c1" target="_top" xlink:title="Final diagnostics.">
<polygon fill="white" stroke="black" points="0,-38.5 0,-57.5 89,-57.5 89,-38.5 0,-38.5"/>
<text text-anchor="middle" x="44.5" y="-45.5" font-family="Helvetica,sans-Serif" font-size="10.00">final_diagnostics</text>
</a>
</g>
</g>
<!-- Node6&#45;&gt;Node7 -->
<g id="edge7" class="edge">
<title>Node6&#45;&gt;Node7</title>
<path fill="none" stroke="midnightblue" d="M114.63,-41.64C106.47,-41.27 97.59,-41.16 89.01,-41.32"/>
<polygon fill="midnightblue" stroke="midnightblue" points="114.67,-45.15 124.86,-42.28 115.1,-38.17 114.67,-45.15"/>
</g>
<!-- Node8 -->
<g id="node8" class="node">
<title>Node8</title>
<g id="a_node8"><a xlink:href="xspech_8f90.html#a95271e8805067f801b5d4e524d6901d4" target="_top" xlink:title="Main program of SPEC.">
<polygon fill="white" stroke="black" points="12.5,-0.5 12.5,-19.5 76.5,-19.5 76.5,-0.5 12.5,-0.5"/>
<text text-anchor="middle" x="44.5" y="-7.5" font-family="Helvetica,sans-Serif" font-size="10.00">spec_main</text>
</a>
</g>
</g>
<!-- Node6&#45;&gt;Node8 -->
<g id="edge10" class="edge">
<title>Node6&#45;&gt;Node8</title>
<path fill="none" stroke="midnightblue" d="M115.45,-36.06C101.23,-30.76 84.72,-24.61 71.31,-19.62"/>
<polygon fill="midnightblue" stroke="midnightblue" points="114.27,-39.36 124.86,-39.57 116.71,-32.8 114.27,-39.36"/>
</g>
<!-- Node7&#45;&gt;Node6 -->
<g id="edge8" class="edge">
<title>Node7&#45;&gt;Node6</title>
<path fill="none" stroke="midnightblue" d="M99.21,-54.74C108.25,-54.68 117.19,-54.34 124.86,-53.72"/>
<polygon fill="midnightblue" stroke="midnightblue" points="99.03,-51.24 89.01,-54.68 98.99,-58.24 99.03,-51.24"/>
</g>
</g>
</svg>
