<?xml version="1.0" encoding="UTF-8" standalone="no"?>
<!DOCTYPE svg PUBLIC "-//W3C//DTD SVG 1.1//EN"
 "http://www.w3.org/Graphics/SVG/1.1/DTD/svg11.dtd">
<!-- Generated by graphviz version 2.47.1 (20210421.1823)
 -->
<!-- Title: get_cheby_d2 Pages: 1 -->
<svg width="362pt" height="66pt"
 viewBox="0.00 0.00 362.00 66.00" xmlns="http://www.w3.org/2000/svg" xmlns:xlink="http://www.w3.org/1999/xlink">
<g id="graph0" class="graph" transform="scale(1 1) rotate(0) translate(4 62)">
<title>get_cheby_d2</title>
<polygon fill="white" stroke="transparent" points="-4,4 -4,-62 358,-62 358,4 -4,4"/>
<!-- Node1 -->
<g id="node1" class="node">
<title>Node1</title>
<g id="a_node1"><a xlink:title="Get the Chebyshev polynomials with zeroth, first and second derivatives The Chebyshev polynomial has ...">
<polygon fill="#bfbfbf" stroke="black" points="277,-19.5 277,-38.5 354,-38.5 354,-19.5 277,-19.5"/>
<text text-anchor="middle" x="315.5" y="-26.5" font-family="Helvetica,sans-Serif" font-size="10.00">get_cheby_d2</text>
</a>
</g>
</g>
<!-- Node2 -->
<g id="node2" class="node">
<title>Node2</title>
<g id="a_node2"><a xlink:href="bfield_8f90.html#adc615fe98d38488525cbe807d008860a" target="_top" xlink:title="compute the tangential magnetic field">
<polygon fill="white" stroke="black" points="164,-38.5 164,-57.5 241,-57.5 241,-38.5 164,-38.5"/>
<text text-anchor="middle" x="202.5" y="-45.5" font-family="Helvetica,sans-Serif" font-size="10.00">bfield_tangent</text>
</a>
</g>
</g>
<!-- Node1&#45;&gt;Node2 -->
<g id="edge1" class="edge">
<title>Node1&#45;&gt;Node2</title>
<path fill="none" stroke="midnightblue" d="M266.93,-37.14C258.28,-38.62 249.36,-40.15 241.04,-41.57"/>
<polygon fill="midnightblue" stroke="midnightblue" points="267.65,-40.57 276.92,-35.43 266.47,-33.67 267.65,-40.57"/>
</g>
<!-- Node3 -->
<g id="node3" class="node">
<title>Node3</title>
<g id="a_node3"><a xlink:href="group__grp__diagnostics.html#ga6411205c36a7d50002d7f3fb3133c441" target="_top" xlink:title="Measures error in Beltrami equation, .">
<polygon fill="white" stroke="black" points="180,-0.5 180,-19.5 225,-19.5 225,-0.5 180,-0.5"/>
<text text-anchor="middle" x="202.5" y="-7.5" font-family="Helvetica,sans-Serif" font-size="10.00">jo00aa</text>
</a>
</g>
</g>
<!-- Node1&#45;&gt;Node3 -->
<g id="edge2" class="edge">
<title>Node1&#45;&gt;Node3</title>
<path fill="none" stroke="midnightblue" d="M267.01,-20.87C252.44,-18.38 237.12,-15.75 225.17,-13.71"/>
<polygon fill="midnightblue" stroke="midnightblue" points="266.47,-24.33 276.92,-22.57 267.65,-17.43 266.47,-24.33"/>
</g>
<!-- Node4 -->
<g id="node4" class="node">
<title>Node4</title>
<g id="a_node4"><a xlink:href="xspech_8f90.html#aea782eae089760a491c2c54f9903abcc" target="_top" xlink:title="Main program of SPEC.">
<polygon fill="white" stroke="black" points="81,-0.5 81,-19.5 128,-19.5 128,-0.5 81,-0.5"/>
<text text-anchor="middle" x="104.5" y="-7.5" font-family="Helvetica,sans-Serif" font-size="10.00">xspech</text>
</a>
</g>
</g>
<!-- Node3&#45;&gt;Node4 -->
<g id="edge3" class="edge">
<title>Node3&#45;&gt;Node4</title>
<path fill="none" stroke="midnightblue" d="M169.39,-10C155.89,-10 140.49,-10 128.2,-10"/>
<polygon fill="midnightblue" stroke="midnightblue" points="169.72,-13.5 179.72,-10 169.72,-6.5 169.72,-13.5"/>
</g>
<!-- Node5 -->
<g id="node5" class="node">
<title>Node5</title>
<g id="a_node5"><a xlink:href="xspech_8f90.html#a537af4990058c0b0f2cd8b3669af204f" target="_top" xlink:title="todo remark">
<polygon fill="white" stroke="black" points="0,-0.5 0,-19.5 45,-19.5 45,-0.5 0,-0.5"/>
<text text-anchor="middle" x="22.5" y="-7.5" font-family="Helvetica,sans-Serif" font-size="10.00">ending</text>
</a>
</g>
</g>
<!-- Node4&#45;&gt;Node5 -->
<g id="edge4" class="edge">
<title>Node4&#45;&gt;Node5</title>
<path fill="none" stroke="midnightblue" d="M70.65,-3.35C62.06,-3.11 53.01,-3.3 45.17,-3.92"/>
<polygon fill="midnightblue" stroke="midnightblue" points="70.63,-6.85 80.79,-3.84 70.97,0.14 70.63,-6.85"/>
</g>
<!-- Node5&#45;&gt;Node4 -->
<g id="edge5" class="edge">
<title>Node5&#45;&gt;Node4</title>
<path fill="none" stroke="midnightblue" d="M55.22,-16.62C63.77,-16.89 72.84,-16.74 80.79,-16.16"/>
<polygon fill="midnightblue" stroke="midnightblue" points="55.34,-13.12 45.17,-16.08 54.96,-20.11 55.34,-13.12"/>
</g>
</g>
</svg>
