<?xml version="1.0" encoding="UTF-8" standalone="no"?>
<!DOCTYPE svg PUBLIC "-//W3C//DTD SVG 1.1//EN"
 "http://www.w3.org/Graphics/SVG/1.1/DTD/svg11.dtd">
<!-- Generated by graphviz version 2.44.0 ()
 -->
<!-- Title: get_zernike Pages: 1 -->
<svg width="1306pt" height="459pt"
 viewBox="0.00 0.00 1306.00 459.00" xmlns="http://www.w3.org/2000/svg" xmlns:xlink="http://www.w3.org/1999/xlink">
<g id="graph0" class="graph" transform="scale(1 1) rotate(0) translate(4 455)">
<title>get_zernike</title>
<polygon fill="white" stroke="transparent" points="-4,4 -4,-455 1302,-455 1302,4 -4,4"/>
<!-- Node1 -->
<g id="node1" class="node">
<title>Node1</title>
<g id="a_node1"><a xlink:title="Get the Zernike polynomials &#160;with zeroth, first derivatives.">
<polygon fill="#bfbfbf" stroke="black" points="1232,-237.5 1232,-256.5 1298,-256.5 1298,-237.5 1232,-237.5"/>
<text text-anchor="middle" x="1265" y="-244.5" font-family="Helvetica,sans-Serif" font-size="10.00">get_zernike</text>
</a>
</g>
</g>
<!-- Node2 -->
<g id="node2" class="node">
<title>Node2</title>
<g id="a_node2"><a xlink:href="group__grp__diagnostics.html#ga20985df1b0df0503ca03ca13f1daf642" target="_top" xlink:title="Compute the magnetic field.">
<polygon fill="white" stroke="black" points="766.5,-355.5 766.5,-374.5 805.5,-374.5 805.5,-355.5 766.5,-355.5"/>
<text text-anchor="middle" x="786" y="-362.5" font-family="Helvetica,sans-Serif" font-size="10.00">bfield</text>
</a>
</g>
</g>
<!-- Node1&#45;&gt;Node2 -->
<g id="edge1" class="edge">
<title>Node1&#45;&gt;Node2</title>
<path fill="none" stroke="midnightblue" d="M1248.06,-264.11C1219.83,-292.44 1157.95,-346 1093.5,-346 1093.5,-346 1093.5,-346 1002.5,-346 929.45,-346 843.01,-356.97 805.69,-362.24"/>
<polygon fill="midnightblue" stroke="midnightblue" points="1250.64,-266.47 1255.1,-256.85 1245.62,-261.59 1250.64,-266.47"/>
</g>
<!-- Node13 -->
<g id="node13" class="node">
<title>Node13</title>
<g id="a_node13"><a xlink:href="intghs_8f90.html#a21d3b7106371783302e68297f7797e9f" target="_top" xlink:title="Calculates volume integrals of Chebyshev polynomials and covariant field products.">
<polygon fill="white" stroke="black" points="1153,-133.5 1153,-152.5 1196,-152.5 1196,-133.5 1153,-133.5"/>
<text text-anchor="middle" x="1174.5" y="-140.5" font-family="Helvetica,sans-Serif" font-size="10.00">intghs</text>
</a>
</g>
</g>
<!-- Node1&#45;&gt;Node13 -->
<g id="edge17" class="edge">
<title>Node1&#45;&gt;Node13</title>
<path fill="none" stroke="midnightblue" d="M1249.33,-229.76C1230.53,-207.67 1198.58,-170.12 1183.65,-152.57"/>
<polygon fill="midnightblue" stroke="midnightblue" points="1246.69,-232.05 1255.83,-237.4 1252.02,-227.52 1246.69,-232.05"/>
</g>
<!-- Node35 -->
<g id="node35" class="node">
<title>Node35</title>
<g id="a_node35"><a xlink:href="group__grp__integrals.html#ga400af9e33dd5465ff9a4bba9fbf91108" target="_top" xlink:title="Calculates volume integrals of Chebyshev polynomials and metric element products.">
<polygon fill="white" stroke="black" points="760.5,-237.5 760.5,-256.5 811.5,-256.5 811.5,-237.5 760.5,-237.5"/>
<text text-anchor="middle" x="786" y="-244.5" font-family="Helvetica,sans-Serif" font-size="10.00">ma00aa</text>
</a>
</g>
</g>
<!-- Node1&#45;&gt;Node35 -->
<g id="edge63" class="edge">
<title>Node1&#45;&gt;Node35</title>
<path fill="none" stroke="midnightblue" d="M1221.76,-247C1187.26,-247 1137.23,-247 1093.5,-247 1093.5,-247 1093.5,-247 1002.5,-247 933.29,-247 851.57,-247 811.56,-247"/>
<polygon fill="midnightblue" stroke="midnightblue" points="1221.95,-250.5 1231.95,-247 1221.95,-243.5 1221.95,-250.5"/>
</g>
<!-- Node36 -->
<g id="node36" class="node">
<title>Node36</title>
<g id="a_node36"><a xlink:href="group__grp__initialization.html#ga28628de0fdb3b3497668007d8d0643bd" target="_top" xlink:title="Allocates and initializes internal arrays.">
<polygon fill="white" stroke="black" points="501.5,-279.5 501.5,-298.5 545.5,-298.5 545.5,-279.5 501.5,-279.5"/>
<text text-anchor="middle" x="523.5" y="-286.5" font-family="Helvetica,sans-Serif" font-size="10.00">preset</text>
</a>
</g>
</g>
<!-- Node1&#45;&gt;Node36 -->
<g id="edge66" class="edge">
<title>Node1&#45;&gt;Node36</title>
<path fill="none" stroke="midnightblue" d="M1231.33,-260.04C1197.43,-272.37 1142.61,-289 1093.5,-289 1093.5,-289 1093.5,-289 785,-289 696.13,-289 590.21,-289 545.77,-289"/>
<polygon fill="midnightblue" stroke="midnightblue" points="1232.58,-263.3 1240.73,-256.53 1230.13,-256.75 1232.58,-263.3"/>
</g>
<!-- Node37 -->
<g id="node37" class="node">
<title>Node37</title>
<g id="a_node37"><a xlink:href="group__grp__integrals.html#ga01df49c498752e8a4201cc6eb5e283af" target="_top" xlink:title="Calculates volume integrals of Chebyshev&#45;polynomials and metric elements for preconditioner.">
<polygon fill="white" stroke="black" points="1071,-0.5 1071,-19.5 1114,-19.5 1114,-0.5 1071,-0.5"/>
<text text-anchor="middle" x="1092.5" y="-7.5" font-family="Helvetica,sans-Serif" font-size="10.00">spsint</text>
</a>
</g>
</g>
<!-- Node1&#45;&gt;Node37 -->
<g id="edge69" class="edge">
<title>Node1&#45;&gt;Node37</title>
<path fill="none" stroke="midnightblue" d="M1254.94,-228.07C1242.79,-203.34 1219.97,-159.08 1196,-124 1165.02,-78.66 1156.1,-67.56 1117,-29 1113.71,-25.76 1109.91,-22.5 1106.33,-19.62"/>
<polygon fill="midnightblue" stroke="midnightblue" points="1251.94,-229.92 1259.46,-237.38 1258.24,-226.86 1251.94,-229.92"/>
</g>
<!-- Node3 -->
<g id="node3" class="node">
<title>Node3</title>
<g id="a_node3"><a xlink:href="bfield_8f90.html#adc615fe98d38488525cbe807d008860a" target="_top" xlink:title="compute the tangential magnetic field">
<polygon fill="white" stroke="black" points="607,-431.5 607,-450.5 684,-450.5 684,-431.5 607,-431.5"/>
<text text-anchor="middle" x="645.5" y="-438.5" font-family="Helvetica,sans-Serif" font-size="10.00">bfield_tangent</text>
</a>
</g>
</g>
<!-- Node2&#45;&gt;Node3 -->
<g id="edge2" class="edge">
<title>Node2&#45;&gt;Node3</title>
<path fill="none" stroke="midnightblue" d="M759.75,-379.66C739.43,-391.37 710.05,-408.06 684,-422 678.08,-425.17 671.57,-428.51 665.66,-431.5"/>
<polygon fill="midnightblue" stroke="midnightblue" points="761.77,-382.54 768.68,-374.51 758.27,-376.48 761.77,-382.54"/>
</g>
<!-- Node4 -->
<g id="node4" class="node">
<title>Node4</title>
<g id="a_node4"><a xlink:href="group__grp__diagnostics.html#ga6411205c36a7d50002d7f3fb3133c441" target="_top" xlink:title="Measures error in Beltrami equation, .">
<polygon fill="white" stroke="black" points="623,-393.5 623,-412.5 668,-412.5 668,-393.5 623,-393.5"/>
<text text-anchor="middle" x="645.5" y="-400.5" font-family="Helvetica,sans-Serif" font-size="10.00">jo00aa</text>
</a>
</g>
</g>
<!-- Node2&#45;&gt;Node4 -->
<g id="edge3" class="edge">
<title>Node2&#45;&gt;Node4</title>
<path fill="none" stroke="midnightblue" d="M756.57,-372.8C730.31,-380 691.87,-390.55 668.06,-397.08"/>
<polygon fill="midnightblue" stroke="midnightblue" points="757.6,-376.15 766.32,-370.12 755.75,-369.4 757.6,-376.15"/>
</g>
<!-- Node10 -->
<g id="node10" class="node">
<title>Node10</title>
<g id="a_node10"><a xlink:href="group__grp__diagnostics.html#ga831aed2458140e266ee4d37461dd5350" target="_top" xlink:title="Constructs Poincaré plot and &quot;approximate&quot; rotational&#45;transform (for single field line).">
<polygon fill="white" stroke="black" points="621.5,-355.5 621.5,-374.5 669.5,-374.5 669.5,-355.5 621.5,-355.5"/>
<text text-anchor="middle" x="645.5" y="-362.5" font-family="Helvetica,sans-Serif" font-size="10.00">pp00ab</text>
</a>
</g>
</g>
<!-- Node2&#45;&gt;Node10 -->
<g id="edge12" class="edge">
<title>Node2&#45;&gt;Node10</title>
<path fill="none" stroke="midnightblue" d="M756.13,-365C730.57,-365 693.74,-365 669.96,-365"/>
<polygon fill="midnightblue" stroke="midnightblue" points="756.32,-368.5 766.32,-365 756.32,-361.5 756.32,-368.5"/>
</g>
<!-- Node12 -->
<g id="node12" class="node">
<title>Node12</title>
<g id="a_node12"><a xlink:href="group__grp__output.html#ga17e65b951634f7098213fd071d905482" target="_top" xlink:title="Write the magnetic field on a grid.">
<polygon fill="white" stroke="black" points="477.5,-317.5 477.5,-336.5 569.5,-336.5 569.5,-317.5 477.5,-317.5"/>
<text text-anchor="middle" x="523.5" y="-324.5" font-family="Helvetica,sans-Serif" font-size="10.00">sphdf5::write_grid</text>
</a>
</g>
</g>
<!-- Node2&#45;&gt;Node12 -->
<g id="edge15" class="edge">
<title>Node2&#45;&gt;Node12</title>
<path fill="none" stroke="midnightblue" d="M756.64,-359.14C736.44,-355.09 708.63,-349.78 684,-346 645.55,-340.1 601.64,-334.99 569.64,-331.56"/>
<polygon fill="midnightblue" stroke="midnightblue" points="755.95,-362.57 766.45,-361.12 757.34,-355.71 755.95,-362.57"/>
</g>
<!-- Node5 -->
<g id="node5" class="node">
<title>Node5</title>
<g id="a_node5"><a xlink:href="xspech_8f90.html#a1451823a7b97101a797de616250752c1" target="_top" xlink:title="Final diagnostics.">
<polygon fill="white" stroke="black" points="333,-355.5 333,-374.5 422,-374.5 422,-355.5 333,-355.5"/>
<text text-anchor="middle" x="377.5" y="-362.5" font-family="Helvetica,sans-Serif" font-size="10.00">final_diagnostics</text>
</a>
</g>
</g>
<!-- Node4&#45;&gt;Node5 -->
<g id="edge4" class="edge">
<title>Node4&#45;&gt;Node5</title>
<path fill="none" stroke="midnightblue" d="M612.64,-400.18C578.69,-396.99 523.39,-391.28 476,-384 458.27,-381.28 438.86,-377.63 422.05,-374.26"/>
<polygon fill="midnightblue" stroke="midnightblue" points="612.6,-403.69 622.88,-401.12 613.25,-396.72 612.6,-403.69"/>
</g>
<!-- Node6 -->
<g id="node6" class="node">
<title>Node6</title>
<g id="a_node6"><a xlink:href="xspech_8f90.html#a9fdc71dffd7c61ee4588a3f80d3ab9ce" target="_top" xlink:title="Main subroutine of SPEC.">
<polygon fill="white" stroke="black" points="231.5,-279.5 231.5,-298.5 278.5,-298.5 278.5,-279.5 231.5,-279.5"/>
<text text-anchor="middle" x="255" y="-286.5" font-family="Helvetica,sans-Serif" font-size="10.00">xspech</text>
</a>
</g>
</g>
<!-- Node5&#45;&gt;Node6 -->
<g id="edge5" class="edge">
<title>Node5&#45;&gt;Node6</title>
<path fill="none" stroke="midnightblue" d="M355.63,-351.06C343.31,-345.79 327.69,-339.73 315,-332 299.14,-322.34 283.48,-308.27 272.29,-298.55"/>
<polygon fill="midnightblue" stroke="midnightblue" points="354.51,-354.39 365.07,-355.31 357.39,-348.01 354.51,-354.39"/>
</g>
<!-- Node6&#45;&gt;Node5 -->
<g id="edge6" class="edge">
<title>Node6&#45;&gt;Node5</title>
<path fill="none" stroke="midnightblue" d="M266.63,-307.26C277.78,-320.99 296.25,-338.58 315,-350 320.58,-353.4 326.72,-356.47 332.9,-359.1"/>
<polygon fill="midnightblue" stroke="midnightblue" points="269.2,-304.85 260.44,-298.9 263.58,-309.01 269.2,-304.85"/>
</g>
<!-- Node7 -->
<g id="node7" class="node">
<title>Node7</title>
<g id="a_node7"><a xlink:href="xspech_8f90.html#a48f45478dc2c9f70ea8aa1c60ad06503" target="_top" xlink:title="This is the main &quot;driver&quot; for the physics part of SPEC.">
<polygon fill="white" stroke="black" points="143.5,-241.5 143.5,-260.5 181.5,-260.5 181.5,-241.5 143.5,-241.5"/>
<text text-anchor="middle" x="162.5" y="-248.5" font-family="Helvetica,sans-Serif" font-size="10.00">spec</text>
</a>
</g>
</g>
<!-- Node6&#45;&gt;Node7 -->
<g id="edge7" class="edge">
<title>Node6&#45;&gt;Node7</title>
<path fill="none" stroke="midnightblue" d="M233.28,-274.52C217.68,-266.6 196.51,-257.79 181.59,-253.07"/>
<polygon fill="midnightblue" stroke="midnightblue" points="231.7,-277.65 242.17,-279.3 235.02,-271.48 231.7,-277.65"/>
</g>
<!-- Node9 -->
<g id="node9" class="node">
<title>Node9</title>
<g id="a_node9"><a xlink:href="xspech_8f90.html#a95271e8805067f801b5d4e524d6901d4" target="_top" xlink:title="Main program of SPEC.">
<polygon fill="white" stroke="black" points="130.5,-279.5 130.5,-298.5 194.5,-298.5 194.5,-279.5 130.5,-279.5"/>
<text text-anchor="middle" x="162.5" y="-286.5" font-family="Helvetica,sans-Serif" font-size="10.00">spec_main</text>
</a>
</g>
</g>
<!-- Node6&#45;&gt;Node9 -->
<g id="edge11" class="edge">
<title>Node6&#45;&gt;Node9</title>
<path fill="none" stroke="midnightblue" d="M221.03,-289C212.38,-289 203.08,-289 194.53,-289"/>
<polygon fill="midnightblue" stroke="midnightblue" points="221.16,-292.5 231.16,-289 221.16,-285.5 221.16,-292.5"/>
</g>
<!-- Node7&#45;&gt;Node6 -->
<g id="edge10" class="edge">
<title>Node7&#45;&gt;Node6</title>
<path fill="none" stroke="midnightblue" d="M184.13,-265.43C198.14,-272.56 216.7,-280.41 231.16,-285.36"/>
<polygon fill="midnightblue" stroke="midnightblue" points="185.71,-262.31 175.25,-260.65 182.4,-268.47 185.71,-262.31"/>
</g>
<!-- Node8 -->
<g id="node8" class="node">
<title>Node8</title>
<g id="a_node8"><a xlink:href="group__grp__output.html#ga0f962c09cd5d5eba99f1cba043cb3898" target="_top" xlink:title="Initialize the interface to the HDF5 library and open the output file.">
<polygon fill="white" stroke="black" points="0,-279.5 0,-298.5 94,-298.5 94,-279.5 0,-279.5"/>
<text text-anchor="middle" x="47" y="-286.5" font-family="Helvetica,sans-Serif" font-size="10.00">sphdf5::init_outfile</text>
</a>
</g>
</g>
<!-- Node7&#45;&gt;Node8 -->
<g id="edge8" class="edge">
<title>Node7&#45;&gt;Node8</title>
<path fill="none" stroke="midnightblue" d="M133.66,-260.32C116.25,-266.15 93.89,-273.63 76.38,-279.5"/>
<polygon fill="midnightblue" stroke="midnightblue" points="134.89,-263.6 143.26,-257.11 132.67,-256.96 134.89,-263.6"/>
</g>
<!-- Node8&#45;&gt;Node6 -->
<g id="edge9" class="edge">
<title>Node8&#45;&gt;Node6</title>
<path fill="none" stroke="midnightblue" d="M90.93,-300.88C103.42,-303.81 117.17,-306.53 130,-308 158.7,-311.28 166.46,-312.48 195,-308 207.33,-306.06 220.6,-301.98 231.43,-298.09"/>
<polygon fill="midnightblue" stroke="midnightblue" points="91.76,-297.48 81.21,-298.51 90.09,-304.28 91.76,-297.48"/>
</g>
<!-- Node11 -->
<g id="node11" class="node">
<title>Node11</title>
<g id="a_node11"><a xlink:href="group__grp__diagnostics.html#gad67931244268a09bd077dae8910c7096" target="_top" xlink:title="Constructs Poincaré plot and &quot;approximate&quot; rotational&#45;transform (driver).">
<polygon fill="white" stroke="black" points="499.5,-355.5 499.5,-374.5 547.5,-374.5 547.5,-355.5 499.5,-355.5"/>
<text text-anchor="middle" x="523.5" y="-362.5" font-family="Helvetica,sans-Serif" font-size="10.00">pp00aa</text>
</a>
</g>
</g>
<!-- Node10&#45;&gt;Node11 -->
<g id="edge13" class="edge">
<title>Node10&#45;&gt;Node11</title>
<path fill="none" stroke="midnightblue" d="M611.3,-365C591.04,-365 565.64,-365 547.57,-365"/>
<polygon fill="midnightblue" stroke="midnightblue" points="611.36,-368.5 621.36,-365 611.36,-361.5 611.36,-368.5"/>
</g>
<!-- Node11&#45;&gt;Node5 -->
<g id="edge14" class="edge">
<title>Node11&#45;&gt;Node5</title>
<path fill="none" stroke="midnightblue" d="M489.22,-365C469.3,-365 443.74,-365 422.2,-365"/>
<polygon fill="midnightblue" stroke="midnightblue" points="489.36,-368.5 499.36,-365 489.36,-361.5 489.36,-368.5"/>
</g>
<!-- Node12&#45;&gt;Node6 -->
<g id="edge16" class="edge">
<title>Node12&#45;&gt;Node6</title>
<path fill="none" stroke="midnightblue" d="M467.33,-322.4C425.37,-318.48 366.31,-312.02 315,-303 302.87,-300.87 289.5,-297.76 278.56,-295.01"/>
<polygon fill="midnightblue" stroke="midnightblue" points="467.07,-325.89 477.35,-323.32 467.71,-318.92 467.07,-325.89"/>
</g>
<!-- Node14 -->
<g id="node14" class="node">
<title>Node14</title>
<g id="a_node14"><a xlink:href="dfp200_8f90.html#a5e56f1f4b1e6df11a9cffa6237c37469" target="_top" xlink:title="This routine evaluates the value of the magnetic field once the interface is perturbed using matrix p...">
<polygon fill="white" stroke="black" points="728.5,-185.5 728.5,-204.5 843.5,-204.5 843.5,-185.5 728.5,-185.5"/>
<text text-anchor="middle" x="786" y="-192.5" font-family="Helvetica,sans-Serif" font-size="10.00">get_perturbed_solution</text>
</a>
</g>
</g>
<!-- Node13&#45;&gt;Node14 -->
<g id="edge18" class="edge">
<title>Node13&#45;&gt;Node14</title>
<path fill="none" stroke="midnightblue" d="M1143.03,-152.64C1134.66,-155.01 1125.54,-157.34 1117,-159 1022.11,-177.48 909.88,-187.2 843.78,-191.7"/>
<polygon fill="midnightblue" stroke="midnightblue" points="1144.17,-155.95 1152.77,-149.77 1142.19,-149.23 1144.17,-155.95"/>
</g>
<!-- Node28 -->
<g id="node28" class="node">
<title>Node28</title>
<g id="a_node28"><a xlink:href="intghs_8f90.html#ae10091a51178071d12004da4952104d4" target="_top" xlink:title="free workspace">
<polygon fill="white" stroke="black" points="720,-147.5 720,-166.5 852,-166.5 852,-147.5 720,-147.5"/>
<text text-anchor="middle" x="786" y="-154.5" font-family="Helvetica,sans-Serif" font-size="10.00">intghs_workspace_destroy</text>
</a>
</g>
</g>
<!-- Node13&#45;&gt;Node28 -->
<g id="edge47" class="edge">
<title>Node13&#45;&gt;Node28</title>
<path fill="none" stroke="midnightblue" d="M1142.98,-144.11C1080.42,-146.37 936.44,-151.59 852,-154.65"/>
<polygon fill="midnightblue" stroke="midnightblue" points="1143.13,-147.6 1152.99,-143.74 1142.87,-140.61 1143.13,-147.6"/>
</g>
<!-- Node30 -->
<g id="node30" class="node">
<title>Node30</title>
<g id="a_node30"><a xlink:href="intghs_8f90.html#ae8299d4625cabd90eb1398fd2cd38089" target="_top" xlink:title="init workspace">
<polygon fill="white" stroke="black" points="729.5,-109.5 729.5,-128.5 842.5,-128.5 842.5,-109.5 729.5,-109.5"/>
<text text-anchor="middle" x="786" y="-116.5" font-family="Helvetica,sans-Serif" font-size="10.00">intghs_workspace_init</text>
</a>
</g>
</g>
<!-- Node13&#45;&gt;Node30 -->
<g id="edge53" class="edge">
<title>Node13&#45;&gt;Node30</title>
<path fill="none" stroke="midnightblue" d="M1142.99,-141.11C1078.02,-137.07 925.23,-127.58 842.52,-122.45"/>
<polygon fill="midnightblue" stroke="midnightblue" points="1142.8,-144.6 1152.99,-141.73 1143.23,-137.61 1142.8,-144.6"/>
</g>
<!-- Node31 -->
<g id="node31" class="node">
<title>Node31</title>
<g id="a_node31"><a xlink:href="mp00ac_8f90.html#ae9fe335bb4916face9f9d19ce8c0f5d7" target="_top" xlink:title="compute a.x by either by coumputing it directly, or using a matrix free method">
<polygon fill="white" stroke="black" points="1068,-38.5 1068,-57.5 1117,-57.5 1117,-38.5 1068,-38.5"/>
<text text-anchor="middle" x="1092.5" y="-45.5" font-family="Helvetica,sans-Serif" font-size="10.00">matvec</text>
</a>
</g>
</g>
<!-- Node13&#45;&gt;Node31 -->
<g id="edge57" class="edge">
<title>Node13&#45;&gt;Node31</title>
<path fill="none" stroke="midnightblue" d="M1159.92,-124.91C1148.77,-110.31 1132.37,-89.4 1117,-72 1112.68,-67.1 1107.64,-61.9 1103.34,-57.59"/>
<polygon fill="midnightblue" stroke="midnightblue" points="1157.3,-127.24 1166.13,-133.1 1162.88,-123.01 1157.3,-127.24"/>
</g>
<!-- Node33 -->
<g id="node33" class="node">
<title>Node33</title>
<g id="a_node33"><a xlink:href="group__grp__solver.html#ga6626839aff500f060beb5bce2b90c447" target="_top" xlink:title="Solves Beltrami/vacuum (linear) system, given matrices.unpacking fluxes, helicity multiplier">
<polygon fill="white" stroke="black" points="888,-71.5 888,-90.5 939,-90.5 939,-71.5 888,-71.5"/>
<text text-anchor="middle" x="913.5" y="-78.5" font-family="Helvetica,sans-Serif" font-size="10.00">mp00ac</text>
</a>
</g>
</g>
<!-- Node13&#45;&gt;Node33 -->
<g id="edge62" class="edge">
<title>Node13&#45;&gt;Node33</title>
<path fill="none" stroke="midnightblue" d="M1151.74,-127.62C1141.62,-121.19 1129.15,-114.24 1117,-110 1055.46,-88.55 978.1,-82.95 939.22,-81.5"/>
<polygon fill="midnightblue" stroke="midnightblue" points="1150.02,-130.69 1160.29,-133.29 1153.89,-124.85 1150.02,-130.69"/>
</g>
<!-- Node15 -->
<g id="node15" class="node">
<title>Node15</title>
<g id="a_node15"><a xlink:href="dfp200_8f90.html#a55ea75395f8c71731451e1add3720c7e" target="_top" xlink:title="Given the field consistent with the constraints and the geometry, computes local quantites related to...">
<polygon fill="white" stroke="black" points="622.5,-185.5 622.5,-204.5 668.5,-204.5 668.5,-185.5 622.5,-185.5"/>
<text text-anchor="middle" x="645.5" y="-192.5" font-family="Helvetica,sans-Serif" font-size="10.00">dfp200</text>
</a>
</g>
</g>
<!-- Node14&#45;&gt;Node15 -->
<g id="edge19" class="edge">
<title>Node14&#45;&gt;Node15</title>
<path fill="none" stroke="midnightblue" d="M717.88,-188.25C700.14,-188.21 682.22,-188.75 668.77,-189.88"/>
<polygon fill="midnightblue" stroke="midnightblue" points="718.24,-191.76 728.27,-188.35 718.3,-184.76 718.24,-191.76"/>
</g>
<!-- Node15&#45;&gt;Node14 -->
<g id="edge46" class="edge">
<title>Node15&#45;&gt;Node14</title>
<path fill="none" stroke="midnightblue" d="M678.87,-200.81C693.58,-201.64 711.44,-201.92 728.27,-201.65"/>
<polygon fill="midnightblue" stroke="midnightblue" points="678.98,-197.31 668.77,-200.12 678.5,-204.3 678.98,-197.31"/>
</g>
<!-- Node16 -->
<g id="node16" class="node">
<title>Node16</title>
<g id="a_node16"><a xlink:href="group__grp__global__force.html#ga38c9d3c50bd043707fefa5137c9dbf44" target="_top" xlink:title="Calculates , where &#160;and , and .">
<polygon fill="white" stroke="black" points="501.5,-71.5 501.5,-90.5 545.5,-90.5 545.5,-71.5 501.5,-71.5"/>
<text text-anchor="middle" x="523.5" y="-78.5" font-family="Helvetica,sans-Serif" font-size="10.00">dforce</text>
</a>
</g>
</g>
<!-- Node15&#45;&gt;Node16 -->
<g id="edge20" class="edge">
<title>Node15&#45;&gt;Node16</title>
<path fill="none" stroke="midnightblue" d="M634.18,-176.36C621.68,-155.28 598.8,-121.14 571,-100 563.5,-94.3 554.06,-90.03 545.64,-86.99"/>
<polygon fill="midnightblue" stroke="midnightblue" points="631.3,-178.37 639.32,-185.29 637.37,-174.88 631.3,-178.37"/>
</g>
<!-- Node22 -->
<g id="node22" class="node">
<title>Node22</title>
<g id="a_node22"><a xlink:href="dfp200_8f90.html#a6aca59cf350d7b1941f8389d50945a43" target="_top" xlink:title="get LU Beltrami matrices">
<polygon fill="white" stroke="black" points="315,-203.5 315,-222.5 440,-222.5 440,-203.5 315,-203.5"/>
<text text-anchor="middle" x="377.5" y="-210.5" font-family="Helvetica,sans-Serif" font-size="10.00">get_lu_beltrami_matrices</text>
</a>
</g>
</g>
<!-- Node15&#45;&gt;Node22 -->
<g id="edge45" class="edge">
<title>Node15&#45;&gt;Node22</title>
<path fill="none" stroke="midnightblue" d="M612.19,-192.59C568.38,-193.1 489.43,-198.09 435.53,-203.49"/>
<polygon fill="midnightblue" stroke="midnightblue" points="612.29,-196.09 622.28,-192.56 612.27,-189.09 612.29,-196.09"/>
</g>
<!-- Node26 -->
<g id="node26" class="node">
<title>Node26</title>
<g id="a_node26"><a xlink:href="dfp200_8f90.html#a7b64c7392b45d0042d8bd7379c0761a5" target="_top" xlink:title="Evaluate the derivative of the square of the magnetic field modulus. Add spectral constraint derivati...">
<polygon fill="white" stroke="black" points="486.5,-147.5 486.5,-166.5 560.5,-166.5 560.5,-147.5 486.5,-147.5"/>
<text text-anchor="middle" x="523.5" y="-154.5" font-family="Helvetica,sans-Serif" font-size="10.00">evaluate_dbb</text>
</a>
</g>
</g>
<!-- Node15&#45;&gt;Node26 -->
<g id="edge41" class="edge">
<title>Node15&#45;&gt;Node26</title>
<path fill="none" stroke="midnightblue" d="M619.52,-181.49C602.48,-174.82 579.65,-167.38 560.63,-162.19"/>
<polygon fill="midnightblue" stroke="midnightblue" points="618.23,-184.74 628.81,-185.3 620.89,-178.27 618.23,-184.74"/>
</g>
<!-- Node27 -->
<g id="node27" class="node">
<title>Node27</title>
<g id="a_node27"><a xlink:href="dfp200_8f90.html#a73ddf39ecc5228201fb643779e17cd36" target="_top" xlink:title="Evaluate mu and psip derivatives and store them in dmupfdx.">
<polygon fill="white" stroke="black" points="476,-109.5 476,-128.5 571,-128.5 571,-109.5 476,-109.5"/>
<text text-anchor="middle" x="523.5" y="-116.5" font-family="Helvetica,sans-Serif" font-size="10.00">evaluate_dmupfdx</text>
</a>
</g>
</g>
<!-- Node15&#45;&gt;Node27 -->
<g id="edge43" class="edge">
<title>Node15&#45;&gt;Node27</title>
<path fill="none" stroke="midnightblue" d="M630.39,-178.72C623.19,-173.37 614.41,-167.7 607,-162 589.8,-148.77 589.33,-140.62 571,-129 570.85,-128.91 570.7,-128.81 570.56,-128.72"/>
<polygon fill="midnightblue" stroke="midnightblue" points="628.48,-181.68 638.44,-185.29 632.91,-176.26 628.48,-181.68"/>
</g>
<!-- Node16&#45;&gt;Node7 -->
<g id="edge40" class="edge">
<title>Node16&#45;&gt;Node7</title>
<path fill="none" stroke="midnightblue" d="M491.78,-93.17C486.49,-95.37 481.06,-97.7 476,-100 459.71,-107.39 456.62,-111.37 440,-118 386.06,-139.5 367.84,-131.92 315,-156 260.19,-180.98 201.45,-222.65 176.21,-241.38"/>
<polygon fill="midnightblue" stroke="midnightblue" points="493.13,-96.4 501.06,-89.37 490.48,-89.92 493.13,-96.4"/>
</g>
<!-- Node17 -->
<g id="node17" class="node">
<title>Node17</title>
<g id="a_node17"><a xlink:href="namespaceallglobal.html#a7824bc37519fe88336534ce90ab2af16" target="_top" xlink:title=" ">
<polygon fill="white" stroke="black" points="320.5,-165.5 320.5,-184.5 434.5,-184.5 434.5,-165.5 320.5,-165.5"/>
<text text-anchor="middle" x="377.5" y="-172.5" font-family="Helvetica,sans-Serif" font-size="10.00">allglobal::check_inputs</text>
</a>
</g>
</g>
<!-- Node16&#45;&gt;Node17 -->
<g id="edge21" class="edge">
<title>Node16&#45;&gt;Node17</title>
<path fill="none" stroke="midnightblue" d="M491.9,-90.59C486.29,-93.13 480.72,-96.24 476,-100 454.29,-117.27 461.85,-133.9 440,-151 432.15,-157.15 422.53,-161.89 413.25,-165.47"/>
<polygon fill="midnightblue" stroke="midnightblue" points="493.26,-93.81 501.24,-86.83 490.65,-87.31 493.26,-93.81"/>
</g>
<!-- Node18 -->
<g id="node18" class="node">
<title>Node18</title>
<g id="a_node18"><a xlink:href="group__grp__force__driver.html#gabbc245b3884ee8d8d3e2a52f25149f78" target="_top" xlink:title="fcn1">
<polygon fill="white" stroke="black" points="360,-51.5 360,-70.5 395,-70.5 395,-51.5 360,-51.5"/>
<text text-anchor="middle" x="377.5" y="-58.5" font-family="Helvetica,sans-Serif" font-size="10.00">fcn1</text>
</a>
</g>
</g>
<!-- Node16&#45;&gt;Node18 -->
<g id="edge23" class="edge">
<title>Node16&#45;&gt;Node18</title>
<path fill="none" stroke="midnightblue" d="M491.08,-76.64C461.64,-72.55 418.77,-66.59 395.34,-63.34"/>
<polygon fill="midnightblue" stroke="midnightblue" points="490.87,-80.14 501.25,-78.05 491.83,-73.21 490.87,-80.14"/>
</g>
<!-- Node19 -->
<g id="node19" class="node">
<title>Node19</title>
<g id="a_node19"><a xlink:href="group__grp__force__driver.html#gaec14f81fbdbedafbc4189489ec8ae178" target="_top" xlink:title="Employs Newton method to find , where &#160;and &#160;is defined in dforce() .">
<polygon fill="white" stroke="black" points="231,-51.5 231,-70.5 279,-70.5 279,-51.5 231,-51.5"/>
<text text-anchor="middle" x="255" y="-58.5" font-family="Helvetica,sans-Serif" font-size="10.00">newton</text>
</a>
</g>
</g>
<!-- Node16&#45;&gt;Node19 -->
<g id="edge37" class="edge">
<title>Node16&#45;&gt;Node19</title>
<path fill="none" stroke="midnightblue" d="M498.77,-66.32C482.81,-57.34 460.93,-46.7 440,-42 385.79,-29.83 369.88,-33.38 315,-42 302.88,-43.9 289.86,-47.88 279.13,-51.7"/>
<polygon fill="midnightblue" stroke="midnightblue" points="497.02,-69.36 507.43,-71.36 500.54,-63.31 497.02,-69.36"/>
</g>
<!-- Node20 -->
<g id="node20" class="node">
<title>Node20</title>
<g id="a_node20"><a xlink:href="group__grp__force__driver.html#ga8ccd6c7d901872702521d0a0edf95412" target="_top" xlink:title="fcn2">
<polygon fill="white" stroke="black" points="29.5,-37.5 29.5,-56.5 64.5,-56.5 64.5,-37.5 29.5,-37.5"/>
<text text-anchor="middle" x="47" y="-44.5" font-family="Helvetica,sans-Serif" font-size="10.00">fcn2</text>
</a>
</g>
</g>
<!-- Node16&#45;&gt;Node20 -->
<g id="edge32" class="edge">
<title>Node16&#45;&gt;Node20</title>
<path fill="none" stroke="midnightblue" d="M502.43,-65.38C486.45,-53.84 463.02,-38.81 440,-31 336.27,4.22 304.38,-10.01 195,-4 166.15,-2.42 158.05,2.91 130,-4 103.93,-10.42 76.98,-26.76 61.39,-37.35"/>
<polygon fill="midnightblue" stroke="midnightblue" points="500.38,-68.22 510.49,-71.37 504.55,-62.6 500.38,-68.22"/>
</g>
<!-- Node16&#45;&gt;Node22 -->
<g id="edge33" class="edge">
<title>Node16&#45;&gt;Node22</title>
<path fill="none" stroke="midnightblue" d="M491.71,-89.41C485.95,-92.07 480.38,-95.53 476,-100 444.72,-131.98 472.66,-163.43 440,-194 435.84,-197.89 430.9,-200.99 425.65,-203.45"/>
<polygon fill="midnightblue" stroke="midnightblue" points="493.34,-92.53 501.4,-85.64 490.81,-86 493.34,-92.53"/>
</g>
<!-- Node23 -->
<g id="node23" class="node">
<title>Node23</title>
<g id="a_node23"><a xlink:href="group__grp__diagnostics.html#ga7401b50ec10c6598ee4a8112717a63ec" target="_top" xlink:title="Computes eigenvalues and eigenvectors of derivative matrix, .">
<polygon fill="white" stroke="black" points="355,-241.5 355,-260.5 400,-260.5 400,-241.5 355,-241.5"/>
<text text-anchor="middle" x="377.5" y="-248.5" font-family="Helvetica,sans-Serif" font-size="10.00">hesian</text>
</a>
</g>
</g>
<!-- Node16&#45;&gt;Node23 -->
<g id="edge35" class="edge">
<title>Node16&#45;&gt;Node23</title>
<path fill="none" stroke="midnightblue" d="M491.36,-89.08C485.62,-91.76 480.15,-95.31 476,-100 435.69,-145.53 482.27,-188.29 440,-232 429.67,-242.68 413.47,-247.39 400.29,-249.46"/>
<polygon fill="midnightblue" stroke="midnightblue" points="492.99,-92.2 501.06,-85.33 490.47,-85.67 492.99,-92.2"/>
</g>
<!-- Node24 -->
<g id="node24" class="node">
<title>Node24</title>
<g id="a_node24"><a xlink:href="group__grp__conjugate__gradient.html#ga4d8415226e62a9fdb42b0fd0b464251e" target="_top" xlink:title="Returns the energy functional and it&#39;s derivatives with respect to geometry.">
<polygon fill="white" stroke="black" points="353.5,-89.5 353.5,-108.5 401.5,-108.5 401.5,-89.5 353.5,-89.5"/>
<text text-anchor="middle" x="377.5" y="-96.5" font-family="Helvetica,sans-Serif" font-size="10.00">pc00ab</text>
</a>
</g>
</g>
<!-- Node16&#45;&gt;Node24 -->
<g id="edge38" class="edge">
<title>Node16&#45;&gt;Node24</title>
<path fill="none" stroke="midnightblue" d="M491.19,-84.91C464.26,-88.28 426.03,-93.06 401.75,-96.09"/>
<polygon fill="midnightblue" stroke="midnightblue" points="491.76,-88.37 501.25,-83.66 490.9,-81.42 491.76,-88.37"/>
</g>
<!-- Node17&#45;&gt;Node6 -->
<g id="edge22" class="edge">
<title>Node17&#45;&gt;Node6</title>
<path fill="none" stroke="midnightblue" d="M322.82,-188.88C320.07,-190.42 317.44,-192.11 315,-194 285.03,-217.13 266.48,-260.14 259.35,-279.33"/>
<polygon fill="midnightblue" stroke="midnightblue" points="324.41,-192 331.93,-184.54 321.4,-185.69 324.41,-192"/>
</g>
<!-- Node18&#45;&gt;Node19 -->
<g id="edge24" class="edge">
<title>Node18&#45;&gt;Node19</title>
<path fill="none" stroke="midnightblue" d="M349.51,-55.26C328.38,-53.82 299.31,-53.92 279.22,-55.54"/>
<polygon fill="midnightblue" stroke="midnightblue" points="349.48,-58.77 359.74,-56.16 350.09,-51.8 349.48,-58.77"/>
</g>
<!-- Node19&#45;&gt;Node7 -->
<g id="edge28" class="edge">
<title>Node19&#45;&gt;Node7</title>
<path fill="none" stroke="midnightblue" d="M232.44,-78.14C231.94,-78.75 231.46,-79.37 231,-80 191.8,-133.97 171.62,-213.79 165.53,-241.28"/>
<polygon fill="midnightblue" stroke="midnightblue" points="235.16,-80.37 239.79,-70.84 230.23,-75.41 235.16,-80.37"/>
</g>
<!-- Node19&#45;&gt;Node18 -->
<g id="edge25" class="edge">
<title>Node19&#45;&gt;Node18</title>
<path fill="none" stroke="midnightblue" d="M289.21,-67.11C312.11,-68.27 341.58,-67.85 359.74,-65.84"/>
<polygon fill="midnightblue" stroke="midnightblue" points="289.42,-63.61 279.22,-66.46 288.97,-70.6 289.42,-63.61"/>
</g>
<!-- Node19&#45;&gt;Node20 -->
<g id="edge26" class="edge">
<title>Node19&#45;&gt;Node20</title>
<path fill="none" stroke="midnightblue" d="M220.71,-53.61C176.07,-48.06 98.52,-43.2 64.64,-44.24"/>
<polygon fill="midnightblue" stroke="midnightblue" points="220.39,-57.1 230.77,-54.96 221.32,-50.16 220.39,-57.1"/>
</g>
<!-- Node21 -->
<g id="node21" class="node">
<title>Node21</title>
<g id="a_node21"><a xlink:href="group__grp__force__driver.html#ga382822b303cbf8c56d6f54dcb379caf2" target="_top" xlink:title="read or write force&#45;derivative matrix">
<polygon fill="white" stroke="black" points="130,-13.5 130,-32.5 195,-32.5 195,-13.5 130,-13.5"/>
<text text-anchor="middle" x="162.5" y="-20.5" font-family="Helvetica,sans-Serif" font-size="10.00">writereadgf</text>
</a>
</g>
</g>
<!-- Node19&#45;&gt;Node21 -->
<g id="edge29" class="edge">
<title>Node19&#45;&gt;Node21</title>
<path fill="none" stroke="midnightblue" d="M233.13,-46.45C221.89,-40.74 207.77,-34.59 195.2,-29.84"/>
<polygon fill="midnightblue" stroke="midnightblue" points="231.7,-49.65 242.17,-51.3 235.01,-43.49 231.7,-49.65"/>
</g>
<!-- Node20&#45;&gt;Node19 -->
<g id="edge27" class="edge">
<title>Node20&#45;&gt;Node19</title>
<path fill="none" stroke="midnightblue" d="M74.62,-53.52C115.3,-59.08 192.23,-64.23 230.77,-63.88"/>
<polygon fill="midnightblue" stroke="midnightblue" points="75.05,-50.04 64.64,-52.02 74.01,-56.97 75.05,-50.04"/>
</g>
<!-- Node21&#45;&gt;Node19 -->
<g id="edge31" class="edge">
<title>Node21&#45;&gt;Node19</title>
<path fill="none" stroke="midnightblue" d="M184.32,-37.53C198.16,-44.55 216.37,-52.27 230.69,-57.2"/>
<polygon fill="midnightblue" stroke="midnightblue" points="185.59,-34.24 175.13,-32.58 182.27,-40.4 185.59,-34.24"/>
</g>
<!-- Node21&#45;&gt;Node20 -->
<g id="edge30" class="edge">
<title>Node21&#45;&gt;Node20</title>
<path fill="none" stroke="midnightblue" d="M119.88,-31.8C100.78,-35.84 79.22,-40.4 64.73,-43.46"/>
<polygon fill="midnightblue" stroke="midnightblue" points="120.82,-35.18 129.88,-29.69 119.38,-28.33 120.82,-35.18"/>
</g>
<!-- Node22&#45;&gt;Node15 -->
<g id="edge34" class="edge">
<title>Node22&#45;&gt;Node15</title>
<path fill="none" stroke="midnightblue" d="M450.29,-214.21C507.81,-211.69 584.88,-205.77 622.28,-200.45"/>
<polygon fill="midnightblue" stroke="midnightblue" points="450,-210.72 440.15,-214.63 450.28,-217.71 450,-210.72"/>
</g>
<!-- Node23&#45;&gt;Node7 -->
<g id="edge36" class="edge">
<title>Node23&#45;&gt;Node7</title>
<path fill="none" stroke="midnightblue" d="M344.77,-251C299.56,-251 218.06,-251 181.78,-251"/>
<polygon fill="midnightblue" stroke="midnightblue" points="344.9,-254.5 354.9,-251 344.9,-247.5 344.9,-254.5"/>
</g>
<!-- Node25 -->
<g id="node25" class="node">
<title>Node25</title>
<g id="a_node25"><a xlink:href="group__grp__conjugate__gradient.html#ga25a3bae2ff2ee0469b045de0d033398b" target="_top" xlink:title="Use preconditioned conjugate gradient method to find minimum of energy functional.">
<polygon fill="white" stroke="black" points="231,-89.5 231,-108.5 279,-108.5 279,-89.5 231,-89.5"/>
<text text-anchor="middle" x="255" y="-96.5" font-family="Helvetica,sans-Serif" font-size="10.00">pc00aa</text>
</a>
</g>
</g>
<!-- Node24&#45;&gt;Node25 -->
<g id="edge39" class="edge">
<title>Node24&#45;&gt;Node25</title>
<path fill="none" stroke="midnightblue" d="M343.16,-99C322.81,-99 297.31,-99 279.16,-99"/>
<polygon fill="midnightblue" stroke="midnightblue" points="343.27,-102.5 353.27,-99 343.27,-95.5 343.27,-102.5"/>
</g>
<!-- Node26&#45;&gt;Node15 -->
<g id="edge42" class="edge">
<title>Node26&#45;&gt;Node15</title>
<path fill="none" stroke="midnightblue" d="M549.35,-170.46C570.91,-178.9 601.81,-188.61 622.49,-193.39"/>
<polygon fill="midnightblue" stroke="midnightblue" points="550.47,-167.14 539.89,-166.57 547.81,-173.61 550.47,-167.14"/>
</g>
<!-- Node27&#45;&gt;Node15 -->
<g id="edge44" class="edge">
<title>Node27&#45;&gt;Node15</title>
<path fill="none" stroke="midnightblue" d="M543.29,-133.11C552.06,-137.16 562.44,-141.57 571,-147 589.33,-158.62 589.8,-166.77 607,-180 611.78,-183.68 617.13,-187.34 622.25,-190.4"/>
<polygon fill="midnightblue" stroke="midnightblue" points="544.76,-129.93 534.24,-128.66 541.67,-136.22 544.76,-129.93"/>
</g>
<!-- Node28&#45;&gt;Node15 -->
<g id="edge51" class="edge">
<title>Node28&#45;&gt;Node15</title>
<path fill="none" stroke="midnightblue" d="M740.15,-169.31C716.31,-175.85 688.05,-183.6 668.86,-188.87"/>
<polygon fill="midnightblue" stroke="midnightblue" points="741.33,-172.61 750.05,-166.59 739.48,-165.86 741.33,-172.61"/>
</g>
<!-- Node28&#45;&gt;Node27 -->
<g id="edge52" class="edge">
<title>Node28&#45;&gt;Node27</title>
<path fill="none" stroke="midnightblue" d="M709.73,-147.43C677.98,-143.24 640.66,-138.12 607,-133 595.37,-131.23 582.84,-129.18 571.14,-127.2"/>
<polygon fill="midnightblue" stroke="midnightblue" points="709.46,-150.92 719.83,-148.75 710.37,-143.98 709.46,-150.92"/>
</g>
<!-- Node29 -->
<g id="node29" class="node">
<title>Node29</title>
<g id="a_node29"><a xlink:href="dfp100_8f90.html#a17a3ac15cc83994394f7b4cc05e5898e" target="_top" xlink:title="Split the work between MPI nodes and evaluate the global constraint.">
<polygon fill="white" stroke="black" points="622.5,-71.5 622.5,-90.5 668.5,-90.5 668.5,-71.5 622.5,-71.5"/>
<text text-anchor="middle" x="645.5" y="-78.5" font-family="Helvetica,sans-Serif" font-size="10.00">dfp100</text>
</a>
</g>
</g>
<!-- Node28&#45;&gt;Node29 -->
<g id="edge48" class="edge">
<title>Node28&#45;&gt;Node29</title>
<path fill="none" stroke="midnightblue" d="M733.74,-144.02C729,-142.22 724.35,-140.22 720,-138 694.97,-125.22 670.01,-103.48 656.59,-90.87"/>
<polygon fill="midnightblue" stroke="midnightblue" points="732.94,-147.44 743.53,-147.41 735.23,-140.83 732.94,-147.44"/>
</g>
<!-- Node29&#45;&gt;Node16 -->
<g id="edge49" class="edge">
<title>Node29&#45;&gt;Node16</title>
<path fill="none" stroke="midnightblue" d="M612.33,-81C591.16,-81 564.03,-81 545.57,-81"/>
<polygon fill="midnightblue" stroke="midnightblue" points="612.49,-84.5 622.49,-81 612.49,-77.5 612.49,-84.5"/>
</g>
<!-- Node29&#45;&gt;Node27 -->
<g id="edge50" class="edge">
<title>Node29&#45;&gt;Node27</title>
<path fill="none" stroke="midnightblue" d="M612.72,-91.07C594.68,-96.78 572.24,-103.88 554.51,-109.5"/>
<polygon fill="midnightblue" stroke="midnightblue" points="614.01,-94.33 622.49,-87.97 611.9,-87.65 614.01,-94.33"/>
</g>
<!-- Node30&#45;&gt;Node15 -->
<g id="edge55" class="edge">
<title>Node30&#45;&gt;Node15</title>
<path fill="none" stroke="midnightblue" d="M733.74,-131.98C729,-133.78 724.35,-135.78 720,-138 694.97,-150.78 670.01,-172.52 656.59,-185.13"/>
<polygon fill="midnightblue" stroke="midnightblue" points="735.23,-135.17 743.53,-128.59 732.94,-128.56 735.23,-135.17"/>
</g>
<!-- Node30&#45;&gt;Node27 -->
<g id="edge56" class="edge">
<title>Node30&#45;&gt;Node27</title>
<path fill="none" stroke="midnightblue" d="M719.23,-119C673.09,-119 612.52,-119 571.27,-119"/>
<polygon fill="midnightblue" stroke="midnightblue" points="719.44,-122.5 729.44,-119 719.44,-115.5 719.44,-122.5"/>
</g>
<!-- Node30&#45;&gt;Node29 -->
<g id="edge54" class="edge">
<title>Node30&#45;&gt;Node29</title>
<path fill="none" stroke="midnightblue" d="M740.15,-106.69C716.31,-100.15 688.05,-92.4 668.86,-87.13"/>
<polygon fill="midnightblue" stroke="midnightblue" points="739.48,-110.14 750.05,-109.41 741.33,-103.39 739.48,-110.14"/>
</g>
<!-- Node32 -->
<g id="node32" class="node">
<title>Node32</title>
<g id="a_node32"><a xlink:href="mp00ac_8f90.html#a304edac43f63d39dda4419b4d044eac5" target="_top" xlink:title="run GMRES">
<polygon fill="white" stroke="black" points="975,-38.5 975,-57.5 1032,-57.5 1032,-38.5 975,-38.5"/>
<text text-anchor="middle" x="1003.5" y="-45.5" font-family="Helvetica,sans-Serif" font-size="10.00">rungmres</text>
</a>
</g>
</g>
<!-- Node31&#45;&gt;Node32 -->
<g id="edge58" class="edge">
<title>Node31&#45;&gt;Node32</title>
<path fill="none" stroke="midnightblue" d="M1057.5,-48C1049.13,-48 1040.28,-48 1032.25,-48"/>
<polygon fill="midnightblue" stroke="midnightblue" points="1057.73,-51.5 1067.73,-48 1057.73,-44.5 1057.73,-51.5"/>
</g>
<!-- Node32&#45;&gt;Node33 -->
<g id="edge59" class="edge">
<title>Node32&#45;&gt;Node33</title>
<path fill="none" stroke="midnightblue" d="M967.5,-61.13C958.06,-64.67 948.04,-68.42 939.29,-71.7"/>
<polygon fill="midnightblue" stroke="midnightblue" points="968.91,-64.33 977.05,-57.54 966.45,-57.78 968.91,-64.33"/>
</g>
<!-- Node34 -->
<g id="node34" class="node">
<title>Node34</title>
<g id="a_node34"><a xlink:href="group__grp__solver__driver.html#gacad623d4c5c006e9ad10116372f92ad3" target="_top" xlink:title="Constructs Beltrami field in given volume consistent with flux, helicity, rotational&#45;transform and/or...">
<polygon fill="white" stroke="black" points="760.5,-71.5 760.5,-90.5 811.5,-90.5 811.5,-71.5 760.5,-71.5"/>
<text text-anchor="middle" x="786" y="-78.5" font-family="Helvetica,sans-Serif" font-size="10.00">ma02aa</text>
</a>
</g>
</g>
<!-- Node33&#45;&gt;Node34 -->
<g id="edge60" class="edge">
<title>Node33&#45;&gt;Node34</title>
<path fill="none" stroke="midnightblue" d="M877.6,-81C856.67,-81 830.55,-81 811.74,-81"/>
<polygon fill="midnightblue" stroke="midnightblue" points="877.71,-84.5 887.71,-81 877.71,-77.5 877.71,-84.5"/>
</g>
<!-- Node34&#45;&gt;Node29 -->
<g id="edge61" class="edge">
<title>Node34&#45;&gt;Node29</title>
<path fill="none" stroke="midnightblue" d="M750.21,-81C724.67,-81 690.74,-81 668.76,-81"/>
<polygon fill="midnightblue" stroke="midnightblue" points="750.24,-84.5 760.24,-81 750.24,-77.5 750.24,-84.5"/>
</g>
<!-- Node35&#45;&gt;Node22 -->
<g id="edge65" class="edge">
<title>Node35&#45;&gt;Node22</title>
<path fill="none" stroke="midnightblue" d="M749.79,-245.35C692.36,-242.49 575.01,-235.95 476,-226 464.36,-224.83 451.97,-223.36 440.06,-221.82"/>
<polygon fill="midnightblue" stroke="midnightblue" points="749.96,-248.86 760.12,-245.86 750.3,-241.87 749.96,-248.86"/>
</g>
<!-- Node35&#45;&gt;Node29 -->
<g id="edge64" class="edge">
<title>Node35&#45;&gt;Node29</title>
<path fill="none" stroke="midnightblue" d="M751.04,-234.44C740.23,-229.28 728.8,-222.5 720,-214 681.28,-176.62 657.6,-114.36 649.57,-90.61"/>
<polygon fill="midnightblue" stroke="midnightblue" points="749.74,-237.69 760.3,-238.55 752.58,-231.29 749.74,-237.69"/>
</g>
<!-- Node36&#45;&gt;Node6 -->
<g id="edge68" class="edge">
<title>Node36&#45;&gt;Node6</title>
<path fill="none" stroke="midnightblue" d="M491.04,-289C436.6,-289 326.13,-289 278.59,-289"/>
<polygon fill="midnightblue" stroke="midnightblue" points="491.14,-292.5 501.14,-289 491.14,-285.5 491.14,-292.5"/>
</g>
<!-- Node36&#45;&gt;Node23 -->
<g id="edge67" class="edge">
<title>Node36&#45;&gt;Node23</title>
<path fill="none" stroke="midnightblue" d="M491.36,-280.78C463.88,-273.53 424.54,-263.15 400.31,-256.75"/>
<polygon fill="midnightblue" stroke="midnightblue" points="490.69,-284.23 501.25,-283.39 492.48,-277.46 490.69,-284.23"/>
</g>
<!-- Node37&#45;&gt;Node29 -->
<g id="edge70" class="edge">
<title>Node37&#45;&gt;Node29</title>
<path fill="none" stroke="midnightblue" d="M1060.63,-13.12C996.69,-19.84 845.3,-37.12 720,-62 702.55,-65.47 683.06,-70.56 668.54,-74.6"/>
<polygon fill="midnightblue" stroke="midnightblue" points="1061.24,-16.57 1070.82,-12.06 1060.51,-9.61 1061.24,-16.57"/>
</g>
</g>
</svg>
