<?xml version="1.0" encoding="UTF-8" standalone="no"?>
<!DOCTYPE svg PUBLIC "-//W3C//DTD SVG 1.1//EN"
 "http://www.w3.org/Graphics/SVG/1.1/DTD/svg11.dtd">
<!-- Generated by graphviz version 3.0.0 (20220413.0106)
 -->
<!-- Title: dfp100 Pages: 1 -->
<svg width="1043pt" height="765pt"
 viewBox="0.00 0.00 1043.27 765.00" xmlns="http://www.w3.org/2000/svg" xmlns:xlink="http://www.w3.org/1999/xlink">
<g id="graph0" class="graph" transform="scale(1 1) rotate(0) translate(4 761)">
<title>dfp100</title>
<polygon fill="white" stroke="transparent" points="-4,4 -4,-761 1039.27,-761 1039.27,4 -4,4"/>
<!-- Node1 -->
<g id="node1" class="node">
<title>Node1</title>
<g id="a_node1"><a xlink:title="Split the work between MPI nodes and evaluate the global constraint.">
<polygon fill="#bfbfbf" stroke="black" points="1.27,-429.5 1.27,-448.5 47.27,-448.5 47.27,-429.5 1.27,-429.5"/>
<text text-anchor="middle" x="24.27" y="-436.5" font-family="Helvetica,sans-Serif" font-size="10.00">dfp100</text>
</a>
</g>
</g>
<!-- Node1&#45;&gt;Node1 -->
<g id="edge14" class="edge">
<title>Node1&#45;&gt;Node1</title>
<path fill="none" stroke="midnightblue" d="M4.54,-448.76C-5.05,-457.57 1.52,-467 24.27,-467 38.85,-467 46.78,-463.13 48.08,-458.03"/>
<polygon fill="midnightblue" stroke="midnightblue" points="51.23,-456.5 44,-448.76 44.83,-459.32 51.23,-456.5"/>
</g>
<!-- Node2 -->
<g id="node2" class="node">
<title>Node2</title>
<g id="a_node2"><a xlink:href="memory_8f90.html#a8a98304f95fee4429a60a58050e999b8" target="_top" xlink:title="allocate Beltrami matrices">
<polygon fill="white" stroke="black" points="85.77,-737.5 85.77,-756.5 218.77,-756.5 218.77,-737.5 85.77,-737.5"/>
<text text-anchor="middle" x="152.27" y="-744.5" font-family="Helvetica,sans-Serif" font-size="10.00">allocate_beltrami_matrices</text>
</a>
</g>
</g>
<!-- Node1&#45;&gt;Node2 -->
<g id="edge1" class="edge">
<title>Node1&#45;&gt;Node2</title>
<path fill="none" stroke="midnightblue" d="M25.87,-448.53C28.92,-493.68 44.02,-685.71 83.27,-728 84.5,-729.33 85.82,-730.57 87.21,-731.72"/>
<polygon fill="midnightblue" stroke="midnightblue" points="85.56,-734.83 95.83,-737.45 89.44,-729 85.56,-734.83"/>
</g>
<!-- Node3 -->
<g id="node3" class="node">
<title>Node3</title>
<g id="a_node3"><a xlink:href="memory_8f90.html#a91ea75b56a77c048841932a601482f78" target="_top" xlink:title="allocate geometry matrices">
<polygon fill="white" stroke="black" points="83.27,-699.5 83.27,-718.5 221.27,-718.5 221.27,-699.5 83.27,-699.5"/>
<text text-anchor="middle" x="152.27" y="-706.5" font-family="Helvetica,sans-Serif" font-size="10.00">allocate_geometry_matrices</text>
</a>
</g>
</g>
<!-- Node1&#45;&gt;Node3 -->
<g id="edge2" class="edge">
<title>Node1&#45;&gt;Node3</title>
<path fill="none" stroke="midnightblue" d="M26.32,-448.67C30.92,-489.66 50.66,-648.67 83.27,-685 86.74,-688.86 90.86,-692.1 95.34,-694.82"/>
<polygon fill="midnightblue" stroke="midnightblue" points="93.82,-697.97 104.32,-699.43 97.02,-691.75 93.82,-697.97"/>
</g>
<!-- Node4 -->
<g id="node4" class="node">
<title>Node4</title>
<g id="a_node4"><a xlink:href="metrix_8f90.html#a80c802cda076dd9e7031bc5f9098c175" target="_top" xlink:title="compute guvijsave">
<polygon fill="white" stroke="black" points="768.27,-529.5 768.27,-548.5 869.27,-548.5 869.27,-529.5 768.27,-529.5"/>
<text text-anchor="middle" x="818.77" y="-536.5" font-family="Helvetica,sans-Serif" font-size="10.00">compute_guvijsave</text>
</a>
</g>
</g>
<!-- Node1&#45;&gt;Node4 -->
<g id="edge3" class="edge">
<title>Node1&#45;&gt;Node4</title>
<path fill="none" stroke="midnightblue" d="M25.9,-448.51C28.19,-474.43 38.49,-546.33 83.27,-576 193.56,-649.07 606.63,-579.59 759.98,-550.47"/>
<polygon fill="midnightblue" stroke="midnightblue" points="760.97,-553.84 770.14,-548.53 759.66,-546.97 760.97,-553.84"/>
</g>
<!-- Node6 -->
<g id="node6" class="node">
<title>Node6</title>
<g id="a_node6"><a xlink:href="group__grp__volume.html#gae4c62d20b8fef07f4471b5b0889ab005" target="_top" xlink:title="Computes volume of each region; and, if required, the derivatives of the volume with respect to the i...">
<polygon fill="white" stroke="black" points="987.27,-576.5 987.27,-595.5 1035.27,-595.5 1035.27,-576.5 987.27,-576.5"/>
<text text-anchor="middle" x="1011.27" y="-583.5" font-family="Helvetica,sans-Serif" font-size="10.00">volume</text>
</a>
</g>
</g>
<!-- Node1&#45;&gt;Node6 -->
<g id="edge64" class="edge">
<title>Node1&#45;&gt;Node6</title>
<path fill="none" stroke="midnightblue" d="M24.74,-448.86C23.54,-481.76 24.5,-588.58 83.27,-640 153.78,-701.69 198.09,-671 291.77,-671 291.77,-671 291.77,-671 819.77,-671 886.93,-671 956.74,-626.4 990.13,-601.82"/>
<polygon fill="midnightblue" stroke="midnightblue" points="992.3,-604.56 998.18,-595.75 988.09,-598.97 992.3,-604.56"/>
</g>
<!-- Node7 -->
<g id="node7" class="node">
<title>Node7</title>
<g id="a_node7"><a xlink:href="group__grp__currents.html#gacaf4411e0ba378631dcd2ccb3752e452" target="_top" xlink:title="Computes the plasma current, , and the &quot;linking&quot; current, .">
<polygon fill="white" stroke="black" points="398.77,-96.5 398.77,-115.5 442.77,-115.5 442.77,-96.5 398.77,-96.5"/>
<text text-anchor="middle" x="420.77" y="-103.5" font-family="Helvetica,sans-Serif" font-size="10.00">curent</text>
</a>
</g>
</g>
<!-- Node1&#45;&gt;Node7 -->
<g id="edge9" class="edge">
<title>Node1&#45;&gt;Node7</title>
<path fill="none" stroke="midnightblue" d="M26.35,-429.34C31.04,-389.09 50.85,-235.31 83.27,-201 165.81,-113.65 321.94,-104.59 388.47,-104.97"/>
<polygon fill="midnightblue" stroke="midnightblue" points="388.67,-108.47 398.72,-105.11 388.77,-101.47 388.67,-108.47"/>
</g>
<!-- Node8 -->
<g id="node8" class="node">
<title>Node8</title>
<g id="a_node8"><a xlink:href="memory_8f90.html#a4591e03fce625b2a91ab6d970a3a1ede" target="_top" xlink:title="deallocate Beltrami matrices">
<polygon fill="white" stroke="black" points="101.77,-536 101.77,-566 202.77,-566 202.77,-536 101.77,-536"/>
<text text-anchor="start" x="109.77" y="-554" font-family="Helvetica,sans-Serif" font-size="10.00">deallocate_beltrami</text>
<text text-anchor="middle" x="152.27" y="-543" font-family="Helvetica,sans-Serif" font-size="10.00">_matrices</text>
</a>
</g>
</g>
<!-- Node1&#45;&gt;Node8 -->
<g id="edge12" class="edge">
<title>Node1&#45;&gt;Node8</title>
<path fill="none" stroke="midnightblue" d="M29.15,-448.69C36.81,-466.68 55.6,-505.36 83.27,-527 86.21,-529.29 89.38,-531.38 92.69,-533.27"/>
<polygon fill="midnightblue" stroke="midnightblue" points="91.22,-536.45 101.72,-537.85 94.38,-530.21 91.22,-536.45"/>
</g>
<!-- Node9 -->
<g id="node9" class="node">
<title>Node9</title>
<g id="a_node9"><a xlink:href="memory_8f90.html#a7b3f3dc45c42c50c1db3cc7e354031a2" target="_top" xlink:title="deallocate geometry matrices">
<polygon fill="white" stroke="black" points="99.27,-487 99.27,-517 205.27,-517 205.27,-487 99.27,-487"/>
<text text-anchor="start" x="107.27" y="-505" font-family="Helvetica,sans-Serif" font-size="10.00">deallocate_geometry</text>
<text text-anchor="middle" x="152.27" y="-494" font-family="Helvetica,sans-Serif" font-size="10.00">_matrices</text>
</a>
</g>
</g>
<!-- Node1&#45;&gt;Node9 -->
<g id="edge13" class="edge">
<title>Node1&#45;&gt;Node9</title>
<path fill="none" stroke="midnightblue" d="M41.28,-448.69C52.8,-455.52 68.78,-464.71 83.27,-472 90.56,-475.67 98.41,-479.36 106.08,-482.83"/>
<polygon fill="midnightblue" stroke="midnightblue" points="104.75,-486.07 115.31,-486.95 107.6,-479.68 104.75,-486.07"/>
</g>
<!-- Node10 -->
<g id="node10" class="node">
<title>Node10</title>
<g id="a_node10"><a xlink:href="intghs_8f90.html#ae10091a51178071d12004da4952104d4" target="_top" xlink:title="free workspace">
<polygon fill="white" stroke="black" points="513.27,-474.5 513.27,-493.5 645.27,-493.5 645.27,-474.5 513.27,-474.5"/>
<text text-anchor="middle" x="579.27" y="-481.5" font-family="Helvetica,sans-Serif" font-size="10.00">intghs_workspace_destroy</text>
</a>
</g>
</g>
<!-- Node1&#45;&gt;Node10 -->
<g id="edge15" class="edge">
<title>Node1&#45;&gt;Node10</title>
<path fill="none" stroke="midnightblue" d="M47.3,-440.93C58.14,-441.87 71.39,-443.01 83.27,-444 232.02,-456.42 405.96,-470.34 502.99,-478.04"/>
<polygon fill="midnightblue" stroke="midnightblue" points="502.76,-481.54 513,-478.84 503.31,-474.56 502.76,-481.54"/>
</g>
<!-- Node14 -->
<g id="node14" class="node">
<title>Node14</title>
<g id="a_node14"><a xlink:href="intghs_8f90.html#ae8299d4625cabd90eb1398fd2cd38089" target="_top" xlink:title="init workspace">
<polygon fill="white" stroke="black" points="364.27,-436.5 364.27,-455.5 477.27,-455.5 477.27,-436.5 364.27,-436.5"/>
<text text-anchor="middle" x="420.77" y="-443.5" font-family="Helvetica,sans-Serif" font-size="10.00">intghs_workspace_init</text>
</a>
</g>
</g>
<!-- Node1&#45;&gt;Node14 -->
<g id="edge21" class="edge">
<title>Node1&#45;&gt;Node14</title>
<path fill="none" stroke="midnightblue" d="M47.33,-439.39C105.22,-440.42 263.26,-443.22 353.77,-444.83"/>
<polygon fill="midnightblue" stroke="midnightblue" points="353.87,-448.33 363.93,-445.01 353.99,-441.33 353.87,-448.33"/>
</g>
<!-- Node15 -->
<g id="node15" class="node">
<title>Node15</title>
<g id="a_node15"><a xlink:href="namespaceallglobal.html#aea1f5a74462533337cb950b8d7486b25" target="_top" xlink:title="Check if volume vvol is associated to the corresponding MPI node.">
<polygon fill="white" stroke="black" points="98.27,-372.5 98.27,-391.5 206.27,-391.5 206.27,-372.5 98.27,-372.5"/>
<text text-anchor="middle" x="152.27" y="-379.5" font-family="Helvetica,sans-Serif" font-size="10.00">allglobal::ismyvolume</text>
</a>
</g>
</g>
<!-- Node1&#45;&gt;Node15 -->
<g id="edge23" class="edge">
<title>Node1&#45;&gt;Node15</title>
<path fill="none" stroke="midnightblue" d="M40.63,-429.26C52.1,-422.24 68.31,-412.83 83.27,-406 92.15,-401.95 101.92,-398.14 111.22,-394.8"/>
<polygon fill="midnightblue" stroke="midnightblue" points="112.4,-398.1 120.69,-391.5 110.09,-391.49 112.4,-398.1"/>
</g>
<!-- Node16 -->
<g id="node16" class="node">
<title>Node16</title>
<g id="a_node16"><a xlink:href="group__grp__integrals.html#ga400af9e33dd5465ff9a4bba9fbf91108" target="_top" xlink:title="Calculates volume integrals of Chebyshev polynomials and metric element products.">
<polygon fill="white" stroke="black" points="681.27,-605.5 681.27,-624.5 732.27,-624.5 732.27,-605.5 681.27,-605.5"/>
<text text-anchor="middle" x="706.77" y="-612.5" font-family="Helvetica,sans-Serif" font-size="10.00">ma00aa</text>
</a>
</g>
</g>
<!-- Node1&#45;&gt;Node16 -->
<g id="edge24" class="edge">
<title>Node1&#45;&gt;Node16</title>
<path fill="none" stroke="midnightblue" d="M25.26,-448.66C25.8,-478.16 31.8,-567.52 83.27,-609 155.9,-667.53 198.49,-633 291.77,-633 291.77,-633 291.77,-633 421.77,-633 511.86,-633 617.7,-623.87 671.14,-618.61"/>
<polygon fill="midnightblue" stroke="midnightblue" points="671.51,-622.09 681.11,-617.62 670.81,-615.13 671.51,-622.09"/>
</g>
<!-- Node18 -->
<g id="node18" class="node">
<title>Node18</title>
<g id="a_node18"><a xlink:href="group__grp__solver__driver.html#gacad623d4c5c006e9ad10116372f92ad3" target="_top" xlink:title="Constructs Beltrami field in given volume consistent with flux, helicity, rotational&#45;transform and/or...">
<polygon fill="white" stroke="black" points="126.77,-266.5 126.77,-285.5 177.77,-285.5 177.77,-266.5 126.77,-266.5"/>
<text text-anchor="middle" x="152.27" y="-273.5" font-family="Helvetica,sans-Serif" font-size="10.00">ma02aa</text>
</a>
</g>
</g>
<!-- Node1&#45;&gt;Node18 -->
<g id="edge32" class="edge">
<title>Node1&#45;&gt;Node18</title>
<path fill="none" stroke="midnightblue" d="M28.79,-429.47C36.47,-409.51 56.25,-362.45 83.27,-330 95.77,-314.98 113.05,-301.33 127.06,-291.51"/>
<polygon fill="midnightblue" stroke="midnightblue" points="129.4,-294.15 135.71,-285.63 125.47,-288.36 129.4,-294.15"/>
</g>
<!-- Node27 -->
<g id="node27" class="node">
<title>Node27</title>
<g id="a_node27"><a xlink:href="group__grp__build__matrices.html#ga1c52bb6dbffdb432550aae12b096080f" target="_top" xlink:title="Constructs energy and helicity matrices that represent the Beltrami linear system....">
<polygon fill="white" stroke="black" points="130.77,-210.5 130.77,-229.5 173.77,-229.5 173.77,-210.5 130.77,-210.5"/>
<text text-anchor="middle" x="152.27" y="-217.5" font-family="Helvetica,sans-Serif" font-size="10.00">matrix</text>
</a>
</g>
</g>
<!-- Node1&#45;&gt;Node27 -->
<g id="edge53" class="edge">
<title>Node1&#45;&gt;Node27</title>
<path fill="none" stroke="midnightblue" d="M25.89,-429.11C28.2,-399.6 38.7,-310.94 83.27,-257 93.19,-244.99 108.06,-236.28 121.37,-230.33"/>
<polygon fill="midnightblue" stroke="midnightblue" points="122.78,-233.53 130.69,-226.48 120.11,-227.06 122.78,-233.53"/>
</g>
<!-- Node28 -->
<g id="node28" class="node">
<title>Node28</title>
<g id="a_node28"><a xlink:href="group__grp__integrals.html#ga01df49c498752e8a4201cc6eb5e283af" target="_top" xlink:title="Calculates volume integrals of Chebyshev&#45;polynomials and metric elements for preconditioner.">
<polygon fill="white" stroke="black" points="685.27,-408.5 685.27,-427.5 728.27,-427.5 728.27,-408.5 685.27,-408.5"/>
<text text-anchor="middle" x="706.77" y="-415.5" font-family="Helvetica,sans-Serif" font-size="10.00">spsint</text>
</a>
</g>
</g>
<!-- Node1&#45;&gt;Node28 -->
<g id="edge55" class="edge">
<title>Node1&#45;&gt;Node28</title>
<path fill="none" stroke="midnightblue" d="M29.21,-429.24C36.75,-412.08 55.01,-376.99 83.27,-363 189.13,-310.62 565.21,-387.12 675.29,-411.17"/>
<polygon fill="midnightblue" stroke="midnightblue" points="674.58,-414.59 685.09,-413.32 676.08,-407.76 674.58,-414.59"/>
</g>
<!-- Node29 -->
<g id="node29" class="node">
<title>Node29</title>
<g id="a_node29"><a xlink:href="group__grp__build__matrices.html#ga4d521a46a64530ade50e6b79a33e1452" target="_top" xlink:title="Constructs matrices for the precondtioner.">
<polygon fill="white" stroke="black" points="127.77,-58.5 127.77,-77.5 176.77,-77.5 176.77,-58.5 127.77,-58.5"/>
<text text-anchor="middle" x="152.27" y="-65.5" font-family="Helvetica,sans-Serif" font-size="10.00">spsmat</text>
</a>
</g>
</g>
<!-- Node1&#45;&gt;Node29 -->
<g id="edge59" class="edge">
<title>Node1&#45;&gt;Node29</title>
<path fill="none" stroke="midnightblue" d="M25.91,-429.39C29.3,-381.03 46.32,-164.48 83.27,-110 91.86,-97.34 105.66,-87.8 118.59,-81.03"/>
<polygon fill="midnightblue" stroke="midnightblue" points="120.29,-84.1 127.77,-76.59 117.24,-77.8 120.29,-84.1"/>
</g>
<!-- Node33 -->
<g id="node33" class="node">
<title>Node33</title>
<g id="a_node33"><a xlink:href="namespaceallglobal.html#ad2dbd21d0579d623a92119c5ab553c7c" target="_top" xlink:title="Returns which MPI node is associated to a given volume.">
<polygon fill="white" stroke="black" points="99.77,-20.5 99.77,-39.5 204.77,-39.5 204.77,-20.5 99.77,-20.5"/>
<text text-anchor="middle" x="152.27" y="-27.5" font-family="Helvetica,sans-Serif" font-size="10.00">allglobal::whichcpuid</text>
</a>
</g>
</g>
<!-- Node1&#45;&gt;Node33 -->
<g id="edge65" class="edge">
<title>Node1&#45;&gt;Node33</title>
<path fill="none" stroke="midnightblue" d="M25.34,-429.22C25.9,-374.63 31.3,-107.9 83.27,-49 85.5,-46.47 88.04,-44.27 90.79,-42.35"/>
<polygon fill="midnightblue" stroke="midnightblue" points="92.59,-45.35 99.59,-37.4 89.16,-39.25 92.59,-45.35"/>
</g>
<!-- Node5 -->
<g id="node5" class="node">
<title>Node5</title>
<g id="a_node5"><a xlink:href="group__grp__geometry.html#gaaca20aa60eaf39055f3c9d5c02a24ac2" target="_top" xlink:title="Calculates coordinates, , and metrics, using FFTs.">
<polygon fill="white" stroke="black" points="905.27,-548.5 905.27,-567.5 951.27,-567.5 951.27,-548.5 905.27,-548.5"/>
<text text-anchor="middle" x="928.27" y="-555.5" font-family="Helvetica,sans-Serif" font-size="10.00">coords</text>
</a>
</g>
</g>
<!-- Node4&#45;&gt;Node5 -->
<g id="edge4" class="edge">
<title>Node4&#45;&gt;Node5</title>
<path fill="none" stroke="midnightblue" d="M869.43,-547.78C878.15,-549.32 887.02,-550.89 895.1,-552.31"/>
<polygon fill="midnightblue" stroke="midnightblue" points="894.75,-555.81 905.2,-554.1 895.97,-548.91 894.75,-555.81"/>
</g>
<!-- Node5&#45;&gt;Node5 -->
<g id="edge5" class="edge">
<title>Node5&#45;&gt;Node5</title>
<path fill="none" stroke="midnightblue" d="M915.63,-567.76C909.48,-576.57 913.7,-586 928.27,-586 937.15,-586 942.19,-582.5 943.37,-577.77"/>
<polygon fill="midnightblue" stroke="midnightblue" points="946.7,-576.63 940.91,-567.76 939.9,-578.3 946.7,-576.63"/>
</g>
<!-- Node5&#45;&gt;Node6 -->
<g id="edge6" class="edge">
<title>Node5&#45;&gt;Node6</title>
<path fill="none" stroke="midnightblue" d="M951.41,-559.56C962.71,-562.6 976.43,-567.33 987.79,-572.11"/>
<polygon fill="midnightblue" stroke="midnightblue" points="986.48,-575.36 997.03,-576.28 989.35,-568.98 986.48,-575.36"/>
</g>
<!-- Node6&#45;&gt;Node5 -->
<g id="edge7" class="edge">
<title>Node6&#45;&gt;Node5</title>
<path fill="none" stroke="midnightblue" d="M987.16,-584.17C976.02,-581.12 962.71,-576.5 951.67,-571.85"/>
<polygon fill="midnightblue" stroke="midnightblue" points="952.84,-568.54 942.29,-567.61 949.96,-574.92 952.84,-568.54"/>
</g>
<!-- Node6&#45;&gt;Node6 -->
<g id="edge8" class="edge">
<title>Node6&#45;&gt;Node6</title>
<path fill="none" stroke="midnightblue" d="M998.63,-595.76C992.48,-604.57 996.7,-614 1011.27,-614 1020.15,-614 1025.19,-610.5 1026.37,-605.77"/>
<polygon fill="midnightblue" stroke="midnightblue" points="1029.7,-604.63 1023.91,-595.76 1022.9,-606.3 1029.7,-604.63"/>
</g>
<!-- Node7&#45;&gt;Node5 -->
<g id="edge10" class="edge">
<title>Node7&#45;&gt;Node5</title>
<path fill="none" stroke="midnightblue" d="M442.87,-105.29C497.1,-104.56 643.34,-109.74 732.27,-181 854.89,-279.25 908.53,-475.38 923.03,-538.17"/>
<polygon fill="midnightblue" stroke="midnightblue" points="919.69,-539.3 925.29,-548.29 926.53,-537.77 919.69,-539.3"/>
</g>
<!-- Node7&#45;&gt;Node7 -->
<g id="edge11" class="edge">
<title>Node7&#45;&gt;Node7</title>
<path fill="none" stroke="midnightblue" d="M401.04,-115.76C391.45,-124.57 398.02,-134 420.77,-134 435.35,-134 443.28,-130.13 444.58,-125.03"/>
<polygon fill="midnightblue" stroke="midnightblue" points="447.73,-123.5 440.5,-115.76 441.33,-126.32 447.73,-123.5"/>
</g>
<!-- Node11 -->
<g id="node11" class="node">
<title>Node11</title>
<g id="a_node11"><a xlink:href="intghs_8f90.html#a21d3b7106371783302e68297f7797e9f" target="_top" xlink:title="Calculates volume integrals of Chebyshev polynomials and covariant field products.">
<polygon fill="white" stroke="black" points="685.27,-464.5 685.27,-483.5 728.27,-483.5 728.27,-464.5 685.27,-464.5"/>
<text text-anchor="middle" x="706.77" y="-471.5" font-family="Helvetica,sans-Serif" font-size="10.00">intghs</text>
</a>
</g>
</g>
<!-- Node10&#45;&gt;Node11 -->
<g id="edge16" class="edge">
<title>Node10&#45;&gt;Node11</title>
<path fill="none" stroke="midnightblue" d="M645.59,-478.79C655.95,-477.97 666.22,-477.15 675.26,-476.43"/>
<polygon fill="midnightblue" stroke="midnightblue" points="675.55,-479.92 685.24,-475.64 675,-472.94 675.55,-479.92"/>
</g>
<!-- Node11&#45;&gt;Node4 -->
<g id="edge17" class="edge">
<title>Node11&#45;&gt;Node4</title>
<path fill="none" stroke="midnightblue" d="M724,-483.59C742.12,-494.3 771.65,-511.75 792.74,-524.21"/>
<polygon fill="midnightblue" stroke="midnightblue" points="791.08,-527.3 801.47,-529.37 794.65,-521.27 791.08,-527.3"/>
</g>
<!-- Node11&#45;&gt;Node11 -->
<g id="edge20" class="edge">
<title>Node11&#45;&gt;Node11</title>
<path fill="none" stroke="midnightblue" d="M689.51,-483.76C681.11,-492.57 686.87,-502 706.77,-502 719.21,-502 726.13,-498.31 727.51,-493.4"/>
<polygon fill="midnightblue" stroke="midnightblue" points="730.72,-491.98 724.03,-483.76 724.13,-494.35 730.72,-491.98"/>
</g>
<!-- Node12 -->
<g id="node12" class="node">
<title>Node12</title>
<g id="a_node12"><a xlink:href="basefn_8f90.html#af6a4cad04c70bfb14fd18a3bfbc843a3" target="_top" xlink:title="Get the Chebyshev polynomials with zeroth, first derivatives.">
<polygon fill="white" stroke="black" points="788.27,-441.5 788.27,-460.5 849.27,-460.5 849.27,-441.5 788.27,-441.5"/>
<text text-anchor="middle" x="818.77" y="-448.5" font-family="Helvetica,sans-Serif" font-size="10.00">get_cheby</text>
</a>
</g>
</g>
<!-- Node11&#45;&gt;Node12 -->
<g id="edge18" class="edge">
<title>Node11&#45;&gt;Node12</title>
<path fill="none" stroke="midnightblue" d="M728.46,-469.67C742.38,-466.76 761.17,-462.83 777.93,-459.33"/>
<polygon fill="midnightblue" stroke="midnightblue" points="778.97,-462.69 788.04,-457.22 777.53,-455.84 778.97,-462.69"/>
</g>
<!-- Node13 -->
<g id="node13" class="node">
<title>Node13</title>
<g id="a_node13"><a xlink:href="basefn_8f90.html#a38dc596fb909186b01dacc1feac03164" target="_top" xlink:title="Get the Zernike polynomials &#160;with zeroth, first derivatives.">
<polygon fill="white" stroke="black" points="785.77,-479.5 785.77,-498.5 851.77,-498.5 851.77,-479.5 785.77,-479.5"/>
<text text-anchor="middle" x="818.77" y="-486.5" font-family="Helvetica,sans-Serif" font-size="10.00">get_zernike</text>
</a>
</g>
</g>
<!-- Node11&#45;&gt;Node13 -->
<g id="edge19" class="edge">
<title>Node11&#45;&gt;Node13</title>
<path fill="none" stroke="midnightblue" d="M728.46,-476.82C741.63,-478.62 759.18,-481.01 775.23,-483.2"/>
<polygon fill="midnightblue" stroke="midnightblue" points="775.11,-486.72 785.5,-484.6 776.06,-479.78 775.11,-486.72"/>
</g>
<!-- Node14&#45;&gt;Node11 -->
<g id="edge22" class="edge">
<title>Node14&#45;&gt;Node11</title>
<path fill="none" stroke="midnightblue" d="M477.44,-449.76C522.72,-453.05 588.22,-458.34 645.27,-465 655.03,-466.14 665.64,-467.63 675.21,-469.07"/>
<polygon fill="midnightblue" stroke="midnightblue" points="674.68,-472.53 685.09,-470.6 675.74,-465.61 674.68,-472.53"/>
</g>
<!-- Node16&#45;&gt;Node4 -->
<g id="edge25" class="edge">
<title>Node16&#45;&gt;Node4</title>
<path fill="none" stroke="midnightblue" d="M717.59,-605.35C733.23,-590.04 762.59,-561.57 768.27,-558 771.38,-556.05 774.72,-554.24 778.14,-552.59"/>
<polygon fill="midnightblue" stroke="midnightblue" points="779.55,-555.79 787.29,-548.55 776.73,-549.38 779.55,-555.79"/>
</g>
<!-- Node16&#45;&gt;Node6 -->
<g id="edge31" class="edge">
<title>Node16&#45;&gt;Node6</title>
<path fill="none" stroke="midnightblue" d="M732.47,-616.3C764.22,-617.63 821.01,-618.9 869.27,-614 906.64,-610.21 948.81,-601.2 977.22,-594.41"/>
<polygon fill="midnightblue" stroke="midnightblue" points="978.14,-597.79 987.03,-592.03 976.48,-590.99 978.14,-597.79"/>
</g>
<!-- Node16&#45;&gt;Node12 -->
<g id="edge26" class="edge">
<title>Node16&#45;&gt;Node12</title>
<path fill="none" stroke="midnightblue" d="M709.12,-605.42C713.21,-579.87 727.78,-509.35 768.27,-470 771.35,-467.01 774.96,-464.47 778.79,-462.33"/>
<polygon fill="midnightblue" stroke="midnightblue" points="780.44,-465.42 788.02,-458.01 777.47,-459.08 780.44,-465.42"/>
</g>
<!-- Node16&#45;&gt;Node13 -->
<g id="edge27" class="edge">
<title>Node16&#45;&gt;Node13</title>
<path fill="none" stroke="midnightblue" d="M712.09,-605.4C720.7,-587.08 741.49,-546.58 768.27,-520 774.34,-513.97 781.79,-508.55 789.05,-503.99"/>
<polygon fill="midnightblue" stroke="midnightblue" points="791.19,-506.79 798.02,-498.69 787.63,-500.77 791.19,-506.79"/>
</g>
<!-- Node16&#45;&gt;Node16 -->
<g id="edge28" class="edge">
<title>Node16&#45;&gt;Node16</title>
<path fill="none" stroke="midnightblue" d="M689.51,-624.76C681.11,-633.57 686.87,-643 706.77,-643 719.21,-643 726.13,-639.31 727.51,-634.4"/>
<polygon fill="midnightblue" stroke="midnightblue" points="730.72,-632.98 724.03,-624.76 724.13,-635.35 730.72,-632.98"/>
</g>
<!-- Node17 -->
<g id="node17" class="node">
<title>Node17</title>
<g id="a_node17"><a xlink:href="group__grp__metrics.html#ga254ce8e645c4110d77e3b3dbc3a89885" target="_top" xlink:title="Calculates the metric quantities, , which are required for the energy and helicity integrals.">
<polygon fill="white" stroke="black" points="797.27,-567.5 797.27,-586.5 840.27,-586.5 840.27,-567.5 797.27,-567.5"/>
<text text-anchor="middle" x="818.77" y="-574.5" font-family="Helvetica,sans-Serif" font-size="10.00">metrix</text>
</a>
</g>
</g>
<!-- Node16&#45;&gt;Node17 -->
<g id="edge29" class="edge">
<title>Node16&#45;&gt;Node17</title>
<path fill="none" stroke="midnightblue" d="M732.46,-606.47C748.77,-600.84 770.25,-593.42 787.57,-587.43"/>
<polygon fill="midnightblue" stroke="midnightblue" points="788.92,-590.67 797.22,-584.1 786.63,-584.06 788.92,-590.67"/>
</g>
<!-- Node17&#45;&gt;Node17 -->
<g id="edge30" class="edge">
<title>Node17&#45;&gt;Node17</title>
<path fill="none" stroke="midnightblue" d="M802.13,-586.76C794.03,-595.57 799.58,-605 818.77,-605 830.77,-605 837.44,-601.31 838.77,-596.4"/>
<polygon fill="midnightblue" stroke="midnightblue" points="842.01,-595.05 835.42,-586.76 835.4,-597.35 842.01,-595.05"/>
</g>
<!-- Node18&#45;&gt;Node18 -->
<g id="edge35" class="edge">
<title>Node18&#45;&gt;Node18</title>
<path fill="none" stroke="midnightblue" d="M132.54,-285.76C122.95,-294.57 129.52,-304 152.27,-304 166.85,-304 174.78,-300.13 176.08,-295.03"/>
<polygon fill="midnightblue" stroke="midnightblue" points="179.23,-293.5 172,-285.76 172.83,-296.32 179.23,-293.5"/>
</g>
<!-- Node19 -->
<g id="node19" class="node">
<title>Node19</title>
<g id="a_node19"><a xlink:href="group__grp__integrals.html#ga6d086e8d1af527def50b653b86e8373a" target="_top" xlink:title="Evaluates volume integrals, and their derivatives w.r.t. interface geometry, using &quot;packed&quot; format.">
<polygon fill="white" stroke="black" points="269.77,-210.5 269.77,-229.5 315.77,-229.5 315.77,-210.5 269.77,-210.5"/>
<text text-anchor="middle" x="292.77" y="-217.5" font-family="Helvetica,sans-Serif" font-size="10.00">df00ab</text>
</a>
</g>
</g>
<!-- Node18&#45;&gt;Node19 -->
<g id="edge33" class="edge">
<title>Node18&#45;&gt;Node19</title>
<path fill="none" stroke="midnightblue" d="M177.92,-270.45C191.01,-267.17 207.26,-262.56 221.27,-257 236.99,-250.76 253.78,-242.04 267.03,-234.63"/>
<polygon fill="midnightblue" stroke="midnightblue" points="269.04,-237.51 275.99,-229.52 265.57,-231.43 269.04,-237.51"/>
</g>
<!-- Node20 -->
<g id="node20" class="node">
<title>Node20</title>
<g id="a_node20"><a xlink:href="group__grp__solver.html#ga6626839aff500f060beb5bce2b90c447" target="_top" xlink:title="Solves Beltrami/vacuum (linear) system, given matrices.unpacking fluxes, helicity multiplier">
<polygon fill="white" stroke="black" points="267.27,-266.5 267.27,-285.5 318.27,-285.5 318.27,-266.5 267.27,-266.5"/>
<text text-anchor="middle" x="292.77" y="-273.5" font-family="Helvetica,sans-Serif" font-size="10.00">mp00ac</text>
</a>
</g>
</g>
<!-- Node18&#45;&gt;Node20 -->
<g id="edge36" class="edge">
<title>Node18&#45;&gt;Node20</title>
<path fill="none" stroke="midnightblue" d="M178.03,-276C200.09,-276 232.59,-276 257.21,-276"/>
<polygon fill="midnightblue" stroke="midnightblue" points="257.23,-279.5 267.23,-276 257.23,-272.5 257.23,-279.5"/>
</g>
<!-- Node22 -->
<g id="node22" class="node">
<title>Node22</title>
<g id="a_node22"><a xlink:href="group__grp__packing.html#gaee2357e570aebf8559e169def6b619dd" target="_top" xlink:title="Packs and unpacks Beltrami field solution vector.">
<polygon fill="white" stroke="black" points="682.77,-190.5 682.77,-209.5 730.77,-209.5 730.77,-190.5 682.77,-190.5"/>
<text text-anchor="middle" x="706.77" y="-197.5" font-family="Helvetica,sans-Serif" font-size="10.00">packab</text>
</a>
</g>
</g>
<!-- Node18&#45;&gt;Node22 -->
<g id="edge52" class="edge">
<title>Node18&#45;&gt;Node22</title>
<path fill="none" stroke="midnightblue" d="M177.8,-273.49C191.65,-271.07 208.65,-266.32 221.27,-257 245.08,-239.43 231.39,-215.33 257.27,-201 394.84,-124.85 594.44,-168.21 672.61,-189.92"/>
<polygon fill="midnightblue" stroke="midnightblue" points="671.82,-193.34 682.39,-192.71 673.73,-186.6 671.82,-193.34"/>
</g>
<!-- Node19&#45;&gt;Node19 -->
<g id="edge34" class="edge">
<title>Node19&#45;&gt;Node19</title>
<path fill="none" stroke="midnightblue" d="M273.04,-229.76C263.45,-238.57 270.02,-248 292.77,-248 307.35,-248 315.28,-244.13 316.58,-239.03"/>
<polygon fill="midnightblue" stroke="midnightblue" points="319.73,-237.5 312.5,-229.76 313.33,-240.32 319.73,-237.5"/>
</g>
<!-- Node20&#45;&gt;Node7 -->
<g id="edge37" class="edge">
<title>Node20&#45;&gt;Node7</title>
<path fill="none" stroke="midnightblue" d="M315.96,-266.36C320.39,-263.76 324.76,-260.64 328.27,-257 352.86,-231.56 346.15,-216.38 364.27,-186 377.45,-163.91 394.56,-139.82 406.29,-123.91"/>
<polygon fill="midnightblue" stroke="midnightblue" points="409.33,-125.68 412.49,-115.57 403.72,-121.5 409.33,-125.68"/>
</g>
<!-- Node20&#45;&gt;Node11 -->
<g id="edge38" class="edge">
<title>Node20&#45;&gt;Node11</title>
<path fill="none" stroke="midnightblue" d="M300.44,-285.71C311.79,-301.53 336.37,-332.94 364.27,-351 475.19,-422.78 522.05,-400.33 645.27,-448 655.35,-451.9 666.23,-456.46 675.95,-460.67"/>
<polygon fill="midnightblue" stroke="midnightblue" points="674.64,-463.92 685.21,-464.72 677.45,-457.5 674.64,-463.92"/>
</g>
<!-- Node20&#45;&gt;Node20 -->
<g id="edge39" class="edge">
<title>Node20&#45;&gt;Node20</title>
<path fill="none" stroke="midnightblue" d="M273.04,-285.76C263.45,-294.57 270.02,-304 292.77,-304 307.35,-304 315.28,-300.13 316.58,-295.03"/>
<polygon fill="midnightblue" stroke="midnightblue" points="319.73,-293.5 312.5,-285.76 313.33,-296.32 319.73,-293.5"/>
</g>
<!-- Node21 -->
<g id="node21" class="node">
<title>Node21</title>
<g id="a_node21"><a xlink:href="group__grp__build__matrices.html#ga6c22bb4322fbcc29cb17dcc90b56eacd" target="_top" xlink:title="Constructs matrices that represent the Beltrami linear system, matrix&#45;free.">
<polygon fill="white" stroke="black" points="683.77,-284.5 683.77,-303.5 729.77,-303.5 729.77,-284.5 683.77,-284.5"/>
<text text-anchor="middle" x="706.77" y="-291.5" font-family="Helvetica,sans-Serif" font-size="10.00">mtrxhs</text>
</a>
</g>
</g>
<!-- Node20&#45;&gt;Node21 -->
<g id="edge40" class="edge">
<title>Node20&#45;&gt;Node21</title>
<path fill="none" stroke="midnightblue" d="M318.57,-267.6C331.94,-263.51 348.81,-259.05 364.27,-257 488.33,-240.58 522.76,-249.46 645.27,-275 654.77,-276.98 664.9,-279.85 674.1,-282.76"/>
<polygon fill="midnightblue" stroke="midnightblue" points="673.05,-286.1 683.64,-285.89 675.23,-279.45 673.05,-286.1"/>
</g>
<!-- Node20&#45;&gt;Node22 -->
<g id="edge42" class="edge">
<title>Node20&#45;&gt;Node22</title>
<path fill="none" stroke="midnightblue" d="M310.89,-266.48C324.84,-259.15 345.27,-249.41 364.27,-244 474.11,-212.76 610.18,-203.64 672.17,-201.03"/>
<polygon fill="midnightblue" stroke="midnightblue" points="672.66,-204.51 682.52,-200.62 672.39,-197.52 672.66,-204.51"/>
</g>
<!-- Node23 -->
<g id="node23" class="node">
<title>Node23</title>
<g id="a_node23"><a xlink:href="mp00ac_8f90.html#a304edac43f63d39dda4419b4d044eac5" target="_top" xlink:title="run GMRES">
<polygon fill="white" stroke="black" points="392.27,-322.5 392.27,-341.5 449.27,-341.5 449.27,-322.5 392.27,-322.5"/>
<text text-anchor="middle" x="420.77" y="-329.5" font-family="Helvetica,sans-Serif" font-size="10.00">rungmres</text>
</a>
</g>
</g>
<!-- Node20&#45;&gt;Node23 -->
<g id="edge44" class="edge">
<title>Node20&#45;&gt;Node23</title>
<path fill="none" stroke="midnightblue" d="M310.23,-285.56C324.3,-293.51 345.23,-304.8 364.27,-313 370.1,-315.51 376.39,-317.93 382.55,-320.14"/>
<polygon fill="midnightblue" stroke="midnightblue" points="381.48,-323.47 392.07,-323.45 383.77,-316.86 381.48,-323.47"/>
</g>
<!-- Node26 -->
<g id="node26" class="node">
<title>Node26</title>
<g id="a_node26"><a xlink:href="group__grp__transform.html#ga0e0447653b8da82f06748dd8831bc337" target="_top" xlink:title="Calculates rotational transform given an arbitrary tangential field.">
<polygon fill="white" stroke="black" points="398.77,-266.5 398.77,-285.5 442.77,-285.5 442.77,-266.5 398.77,-266.5"/>
<text text-anchor="middle" x="420.77" y="-273.5" font-family="Helvetica,sans-Serif" font-size="10.00">tr00ab</text>
</a>
</g>
</g>
<!-- Node20&#45;&gt;Node26 -->
<g id="edge50" class="edge">
<title>Node20&#45;&gt;Node26</title>
<path fill="none" stroke="midnightblue" d="M318.37,-276C338.43,-276 366.9,-276 388.57,-276"/>
<polygon fill="midnightblue" stroke="midnightblue" points="388.59,-279.5 398.59,-276 388.59,-272.5 388.59,-279.5"/>
</g>
<!-- Node21&#45;&gt;Node21 -->
<g id="edge41" class="edge">
<title>Node21&#45;&gt;Node21</title>
<path fill="none" stroke="midnightblue" d="M689.51,-303.76C681.11,-312.57 686.87,-322 706.77,-322 719.21,-322 726.13,-318.31 727.51,-313.4"/>
<polygon fill="midnightblue" stroke="midnightblue" points="730.72,-311.98 724.03,-303.76 724.13,-314.35 730.72,-311.98"/>
</g>
<!-- Node22&#45;&gt;Node22 -->
<g id="edge43" class="edge">
<title>Node22&#45;&gt;Node22</title>
<path fill="none" stroke="midnightblue" d="M689.51,-209.76C681.11,-218.57 686.87,-228 706.77,-228 719.21,-228 726.13,-224.31 727.51,-219.4"/>
<polygon fill="midnightblue" stroke="midnightblue" points="730.72,-217.98 724.03,-209.76 724.13,-220.35 730.72,-217.98"/>
</g>
<!-- Node24 -->
<g id="node24" class="node">
<title>Node24</title>
<g id="a_node24"><a xlink:href="mp00ac_8f90.html#ae9fe335bb4916face9f9d19ce8c0f5d7" target="_top" xlink:title="compute a.x by either by coumputing it directly, or using a matrix free method">
<polygon fill="white" stroke="black" points="554.77,-322.5 554.77,-341.5 603.77,-341.5 603.77,-322.5 554.77,-322.5"/>
<text text-anchor="middle" x="579.27" y="-329.5" font-family="Helvetica,sans-Serif" font-size="10.00">matvec</text>
</a>
</g>
</g>
<!-- Node23&#45;&gt;Node24 -->
<g id="edge45" class="edge">
<title>Node23&#45;&gt;Node24</title>
<path fill="none" stroke="midnightblue" d="M449.39,-332C475.85,-332 515.83,-332 544.24,-332"/>
<polygon fill="midnightblue" stroke="midnightblue" points="544.51,-335.5 554.51,-332 544.51,-328.5 544.51,-335.5"/>
</g>
<!-- Node25 -->
<g id="node25" class="node">
<title>Node25</title>
<g id="a_node25"><a xlink:href="mp00ac_8f90.html#a76cda97bf815eb7f40cb76ad1719d809" target="_top" xlink:title="apply the preconditioner">
<polygon fill="white" stroke="black" points="547.27,-284.5 547.27,-303.5 611.27,-303.5 611.27,-284.5 547.27,-284.5"/>
<text text-anchor="middle" x="579.27" y="-291.5" font-family="Helvetica,sans-Serif" font-size="10.00">prec_solve</text>
</a>
</g>
</g>
<!-- Node23&#45;&gt;Node25 -->
<g id="edge49" class="edge">
<title>Node23&#45;&gt;Node25</title>
<path fill="none" stroke="midnightblue" d="M449.39,-325.29C473.77,-319.37 509.65,-310.66 537.37,-303.93"/>
<polygon fill="midnightblue" stroke="midnightblue" points="538.28,-307.31 547.17,-301.55 536.63,-300.51 538.28,-307.31"/>
</g>
<!-- Node24&#45;&gt;Node11 -->
<g id="edge46" class="edge">
<title>Node24&#45;&gt;Node11</title>
<path fill="none" stroke="midnightblue" d="M603.99,-335.66C617.65,-338.9 634.24,-344.91 645.27,-356 678.3,-389.19 653.69,-417.17 681.27,-455 681.83,-455.76 682.42,-456.51 683.04,-457.24"/>
<polygon fill="midnightblue" stroke="midnightblue" points="680.88,-460.01 690.55,-464.34 685.69,-454.92 680.88,-460.01"/>
</g>
<!-- Node24&#45;&gt;Node21 -->
<g id="edge47" class="edge">
<title>Node24&#45;&gt;Node21</title>
<path fill="none" stroke="midnightblue" d="M603.77,-325.25C616.14,-321.67 631.55,-317.16 645.27,-313 654.63,-310.16 664.79,-307 674.05,-304.09"/>
<polygon fill="midnightblue" stroke="midnightblue" points="675.2,-307.4 683.68,-301.05 673.09,-300.73 675.2,-307.4"/>
</g>
<!-- Node24&#45;&gt;Node22 -->
<g id="edge48" class="edge">
<title>Node24&#45;&gt;Node22</title>
<path fill="none" stroke="midnightblue" d="M604.01,-329.61C617.34,-327.23 633.59,-322.48 645.27,-313 675.52,-288.45 692.7,-244.62 700.53,-219.37"/>
<polygon fill="midnightblue" stroke="midnightblue" points="703.97,-220.08 703.4,-209.5 697.24,-218.12 703.97,-220.08"/>
</g>
<!-- Node26&#45;&gt;Node26 -->
<g id="edge51" class="edge">
<title>Node26&#45;&gt;Node26</title>
<path fill="none" stroke="midnightblue" d="M401.04,-285.76C391.45,-294.57 398.02,-304 420.77,-304 435.35,-304 443.28,-300.13 444.58,-295.03"/>
<polygon fill="midnightblue" stroke="midnightblue" points="447.73,-293.5 440.5,-285.76 441.33,-296.32 447.73,-293.5"/>
</g>
<!-- Node27&#45;&gt;Node27 -->
<g id="edge54" class="edge">
<title>Node27&#45;&gt;Node27</title>
<path fill="none" stroke="midnightblue" d="M132.54,-229.76C122.95,-238.57 129.52,-248 152.27,-248 166.85,-248 174.78,-244.13 176.08,-239.03"/>
<polygon fill="midnightblue" stroke="midnightblue" points="179.23,-237.5 172,-229.76 172.83,-240.32 179.23,-237.5"/>
</g>
<!-- Node28&#45;&gt;Node12 -->
<g id="edge56" class="edge">
<title>Node28&#45;&gt;Node12</title>
<path fill="none" stroke="midnightblue" d="M728.46,-424.21C742.51,-428.42 761.53,-434.13 778.4,-439.19"/>
<polygon fill="midnightblue" stroke="midnightblue" points="777.45,-442.56 788.04,-442.08 779.47,-435.85 777.45,-442.56"/>
</g>
<!-- Node28&#45;&gt;Node13 -->
<g id="edge57" class="edge">
<title>Node28&#45;&gt;Node13</title>
<path fill="none" stroke="midnightblue" d="M716.82,-427.58C728.01,-438.96 748.06,-457.93 768.27,-470 771.5,-471.93 774.97,-473.73 778.51,-475.39"/>
<polygon fill="midnightblue" stroke="midnightblue" points="777.37,-478.71 787.94,-479.45 780.14,-472.28 777.37,-478.71"/>
</g>
<!-- Node28&#45;&gt;Node28 -->
<g id="edge58" class="edge">
<title>Node28&#45;&gt;Node28</title>
<path fill="none" stroke="midnightblue" d="M689.51,-427.76C681.11,-436.57 686.87,-446 706.77,-446 719.21,-446 726.13,-442.31 727.51,-437.4"/>
<polygon fill="midnightblue" stroke="midnightblue" points="730.72,-435.98 724.03,-427.76 724.13,-438.35 730.72,-435.98"/>
</g>
<!-- Node29&#45;&gt;Node29 -->
<g id="edge63" class="edge">
<title>Node29&#45;&gt;Node29</title>
<path fill="none" stroke="midnightblue" d="M132.54,-77.76C122.95,-86.57 129.52,-96 152.27,-96 166.85,-96 174.78,-92.13 176.08,-87.03"/>
<polygon fill="midnightblue" stroke="midnightblue" points="179.23,-85.5 172,-77.76 172.83,-88.32 179.23,-85.5"/>
</g>
<!-- Node30 -->
<g id="node30" class="node">
<title>Node30</title>
<g id="a_node30"><a xlink:href="spsmat_8f90.html#a029deb1b6e086ff346f36f5c61d0c1b2" target="_top" xlink:title="add the content from the queue to the real matrices">
<polygon fill="white" stroke="black" points="269.27,-38.5 269.27,-57.5 316.27,-57.5 316.27,-38.5 269.27,-38.5"/>
<text text-anchor="middle" x="292.77" y="-45.5" font-family="Helvetica,sans-Serif" font-size="10.00">addline</text>
</a>
</g>
</g>
<!-- Node29&#45;&gt;Node30 -->
<g id="edge60" class="edge">
<title>Node29&#45;&gt;Node30</title>
<path fill="none" stroke="midnightblue" d="M177.08,-64.56C199.68,-61.3 233.85,-56.36 259.02,-52.73"/>
<polygon fill="midnightblue" stroke="midnightblue" points="259.79,-56.15 269.19,-51.26 258.79,-49.23 259.79,-56.15"/>
</g>
<!-- Node31 -->
<g id="node31" class="node">
<title>Node31</title>
<g id="a_node31"><a xlink:href="spsmat_8f90.html#ab8d57e74b7461b1d2781c5d56dea6120" target="_top" xlink:title="clean the queue">
<polygon fill="white" stroke="black" points="257.27,-0.5 257.27,-19.5 328.27,-19.5 328.27,-0.5 257.27,-0.5"/>
<text text-anchor="middle" x="292.77" y="-7.5" font-family="Helvetica,sans-Serif" font-size="10.00">clean_queue</text>
</a>
</g>
</g>
<!-- Node29&#45;&gt;Node31 -->
<g id="edge61" class="edge">
<title>Node29&#45;&gt;Node31</title>
<path fill="none" stroke="midnightblue" d="M177.02,-62.82C190.29,-59.56 206.99,-54.87 221.27,-49 238.2,-42.04 241.26,-37.86 257.27,-29 259.85,-27.57 262.54,-26.09 265.23,-24.6"/>
<polygon fill="midnightblue" stroke="midnightblue" points="267.15,-27.55 274.21,-19.65 263.77,-21.41 267.15,-27.55"/>
</g>
<!-- Node32 -->
<g id="node32" class="node">
<title>Node32</title>
<g id="a_node32"><a xlink:href="spsmat_8f90.html#a6c4c1ca7c194a5116f2d358c2065ce00" target="_top" xlink:title="push a new element at the back of the queue">
<polygon fill="white" stroke="black" points="260.77,-76.5 260.77,-95.5 324.77,-95.5 324.77,-76.5 260.77,-76.5"/>
<text text-anchor="middle" x="292.77" y="-83.5" font-family="Helvetica,sans-Serif" font-size="10.00">push_back</text>
</a>
</g>
</g>
<!-- Node29&#45;&gt;Node32 -->
<g id="edge62" class="edge">
<title>Node29&#45;&gt;Node32</title>
<path fill="none" stroke="midnightblue" d="M177.08,-71.09C197.23,-73.71 226.55,-77.52 250.51,-80.64"/>
<polygon fill="midnightblue" stroke="midnightblue" points="250.38,-84.15 260.75,-81.97 251.28,-77.21 250.38,-84.15"/>
</g>
</g>
</svg>
