<?xml version="1.0" encoding="UTF-8" standalone="no"?>
<!DOCTYPE svg PUBLIC "-//W3C//DTD SVG 1.1//EN"
 "http://www.w3.org/Graphics/SVG/1.1/DTD/svg11.dtd">
<!-- Generated by graphviz version 2.49.0 (0)
 -->
<!-- Title: dfp100 Pages: 1 -->
<svg width="1043pt" height="793pt"
 viewBox="0.00 0.00 1043.27 793.00" xmlns="http://www.w3.org/2000/svg" xmlns:xlink="http://www.w3.org/1999/xlink">
<g id="graph0" class="graph" transform="scale(1 1) rotate(0) translate(4 789)">
<title>dfp100</title>
<polygon fill="white" stroke="transparent" points="-4,4 -4,-789 1039.27,-789 1039.27,4 -4,4"/>
<!-- Node1 -->
<g id="node1" class="node">
<title>Node1</title>
<g id="a_node1"><a xlink:title="Split the work between MPI nodes and evaluate the global constraint.">
<polygon fill="#bfbfbf" stroke="black" points="1.27,-456.5 1.27,-475.5 47.27,-475.5 47.27,-456.5 1.27,-456.5"/>
<text text-anchor="middle" x="24.27" y="-463.5" font-family="Helvetica,sans-Serif" font-size="10.00">dfp100</text>
</a>
</g>
</g>
<!-- Node1&#45;&gt;Node1 -->
<g id="edge17" class="edge">
<title>Node1&#45;&gt;Node1</title>
<path fill="none" stroke="midnightblue" d="M4.54,-475.76C-5.05,-484.57 1.52,-494 24.27,-494 38.85,-494 46.78,-490.13 48.08,-485.03"/>
<polygon fill="midnightblue" stroke="midnightblue" points="51.23,-483.5 44,-475.76 44.83,-486.32 51.23,-483.5"/>
</g>
<!-- Node2 -->
<g id="node2" class="node">
<title>Node2</title>
<g id="a_node2"><a xlink:href="memory_8f90.html#a8a98304f95fee4429a60a58050e999b8" target="_top" xlink:title="allocate Beltrami matrices">
<polygon fill="white" stroke="black" points="85.77,-765.5 85.77,-784.5 218.77,-784.5 218.77,-765.5 85.77,-765.5"/>
<text text-anchor="middle" x="152.27" y="-772.5" font-family="Helvetica,sans-Serif" font-size="10.00">allocate_beltrami_matrices</text>
</a>
</g>
</g>
<!-- Node1&#45;&gt;Node2 -->
<g id="edge1" class="edge">
<title>Node1&#45;&gt;Node2</title>
<path fill="none" stroke="midnightblue" d="M25.87,-475.56C28.89,-520.87 43.9,-713.56 83.27,-756 84.5,-757.33 85.82,-758.57 87.21,-759.72"/>
<polygon fill="midnightblue" stroke="midnightblue" points="85.56,-762.83 95.83,-765.45 89.44,-757 85.56,-762.83"/>
</g>
<!-- Node3 -->
<g id="node3" class="node">
<title>Node3</title>
<g id="a_node3"><a xlink:href="memory_8f90.html#a91ea75b56a77c048841932a601482f78" target="_top" xlink:title="allocate geometry matrices">
<polygon fill="white" stroke="black" points="83.27,-727.5 83.27,-746.5 221.27,-746.5 221.27,-727.5 83.27,-727.5"/>
<text text-anchor="middle" x="152.27" y="-734.5" font-family="Helvetica,sans-Serif" font-size="10.00">allocate_geometry_matrices</text>
</a>
</g>
</g>
<!-- Node1&#45;&gt;Node3 -->
<g id="edge2" class="edge">
<title>Node1&#45;&gt;Node3</title>
<path fill="none" stroke="midnightblue" d="M26.31,-475.71C30.9,-516.87 50.55,-676.52 83.27,-713 86.74,-716.86 90.86,-720.1 95.34,-722.82"/>
<polygon fill="midnightblue" stroke="midnightblue" points="93.82,-725.98 104.31,-727.43 97.02,-719.75 93.82,-725.98"/>
</g>
<!-- Node4 -->
<g id="node4" class="node">
<title>Node4</title>
<g id="a_node4"><a xlink:href="metrix_8f90.html#a80c802cda076dd9e7031bc5f9098c175" target="_top" xlink:title="compute guvijsave">
<polygon fill="white" stroke="black" points="768.27,-613.5 768.27,-632.5 869.27,-632.5 869.27,-613.5 768.27,-613.5"/>
<text text-anchor="middle" x="818.77" y="-620.5" font-family="Helvetica,sans-Serif" font-size="10.00">compute_guvijsave</text>
</a>
</g>
</g>
<!-- Node1&#45;&gt;Node4 -->
<g id="edge3" class="edge">
<title>Node1&#45;&gt;Node4</title>
<path fill="none" stroke="midnightblue" d="M26.22,-475.69C29.27,-501.49 41.28,-572.29 83.27,-608 155.72,-669.6 196.68,-656 291.77,-656 291.77,-656 291.77,-656 589.77,-656 651.12,-656 720.82,-644.15 766.82,-634.65"/>
<polygon fill="midnightblue" stroke="midnightblue" points="767.78,-638.03 776.84,-632.54 766.33,-631.18 767.78,-638.03"/>
</g>
<!-- Node7 -->
<g id="node7" class="node">
<title>Node7</title>
<g id="a_node7"><a xlink:href="group__grp__volume.html#gae4c62d20b8fef07f4471b5b0889ab005" target="_top" xlink:title="Computes volume of each region; and, if required, the derivatives of the volume with respect to the i...">
<polygon fill="white" stroke="black" points="987.27,-623.5 987.27,-642.5 1035.27,-642.5 1035.27,-623.5 987.27,-623.5"/>
<text text-anchor="middle" x="1011.27" y="-630.5" font-family="Helvetica,sans-Serif" font-size="10.00">volume</text>
</a>
</g>
</g>
<!-- Node1&#45;&gt;Node7 -->
<g id="edge76" class="edge">
<title>Node1&#45;&gt;Node7</title>
<path fill="none" stroke="midnightblue" d="M25.33,-475.9C26.05,-506.18 32.53,-598.35 83.27,-646 152.97,-711.45 196.16,-699 291.77,-699 291.77,-699 291.77,-699 819.77,-699 879.72,-699 895.74,-691.57 951.27,-669 964.47,-663.63 978.12,-655.5 988.96,-648.32"/>
<polygon fill="midnightblue" stroke="midnightblue" points="991.06,-651.13 997.34,-642.6 987.11,-645.35 991.06,-651.13"/>
</g>
<!-- Node8 -->
<g id="node8" class="node">
<title>Node8</title>
<g id="a_node8"><a xlink:href="group__grp__currents.html#gacaf4411e0ba378631dcd2ccb3752e452" target="_top" xlink:title="Computes the plasma current, , and the &quot;linking&quot; current, .">
<polygon fill="white" stroke="black" points="796.77,-293.5 796.77,-312.5 840.77,-312.5 840.77,-293.5 796.77,-293.5"/>
<text text-anchor="middle" x="818.77" y="-300.5" font-family="Helvetica,sans-Serif" font-size="10.00">curent</text>
</a>
</g>
</g>
<!-- Node1&#45;&gt;Node8 -->
<g id="edge10" class="edge">
<title>Node1&#45;&gt;Node8</title>
<path fill="none" stroke="midnightblue" d="M26.98,-456.33C31.62,-433.12 46.6,-373.85 83.27,-343 131.95,-302.04 177.43,-351.09 221.27,-305 272.1,-251.56 199.74,-189.15 257.27,-143 299.55,-109.09 458.89,-76.24 732.27,-219 762.98,-235.04 789.91,-265.75 804.99,-285.26"/>
<polygon fill="midnightblue" stroke="midnightblue" points="802.25,-287.44 811.05,-293.34 807.85,-283.24 802.25,-287.44"/>
</g>
<!-- Node10 -->
<g id="node10" class="node">
<title>Node10</title>
<g id="a_node10"><a xlink:href="memory_8f90.html#a4591e03fce625b2a91ab6d970a3a1ede" target="_top" xlink:title="deallocate Beltrami matrices">
<polygon fill="white" stroke="black" points="101.77,-265 101.77,-295 202.77,-295 202.77,-265 101.77,-265"/>
<text text-anchor="start" x="109.77" y="-283" font-family="Helvetica,sans-Serif" font-size="10.00">deallocate_beltrami</text>
<text text-anchor="middle" x="152.27" y="-272" font-family="Helvetica,sans-Serif" font-size="10.00">_matrices</text>
</a>
</g>
</g>
<!-- Node1&#45;&gt;Node10 -->
<g id="edge15" class="edge">
<title>Node1&#45;&gt;Node10</title>
<path fill="none" stroke="midnightblue" d="M26.28,-456.22C29.53,-429.39 42.06,-353.74 83.27,-310 86.63,-306.43 90.5,-303.26 94.64,-300.45"/>
<polygon fill="midnightblue" stroke="midnightblue" points="96.67,-303.31 103.45,-295.17 93.08,-297.3 96.67,-303.31"/>
</g>
<!-- Node11 -->
<g id="node11" class="node">
<title>Node11</title>
<g id="a_node11"><a xlink:href="memory_8f90.html#a7b3f3dc45c42c50c1db3cc7e354031a2" target="_top" xlink:title="deallocate geometry matrices">
<polygon fill="white" stroke="black" points="99.27,-216 99.27,-246 205.27,-246 205.27,-216 99.27,-216"/>
<text text-anchor="start" x="107.27" y="-234" font-family="Helvetica,sans-Serif" font-size="10.00">deallocate_geometry</text>
<text text-anchor="middle" x="152.27" y="-223" font-family="Helvetica,sans-Serif" font-size="10.00">_matrices</text>
</a>
</g>
</g>
<!-- Node1&#45;&gt;Node11 -->
<g id="edge16" class="edge">
<title>Node1&#45;&gt;Node11</title>
<path fill="none" stroke="midnightblue" d="M25.02,-456.17C24.72,-423.29 28.2,-315.83 83.27,-256 85.35,-253.74 87.65,-251.69 90.1,-249.82"/>
<polygon fill="midnightblue" stroke="midnightblue" points="92.44,-252.49 98.99,-244.16 88.67,-246.58 92.44,-252.49"/>
</g>
<!-- Node12 -->
<g id="node12" class="node">
<title>Node12</title>
<g id="a_node12"><a xlink:href="intghs_8f90.html#ae10091a51178071d12004da4952104d4" target="_top" xlink:title="free workspace">
<polygon fill="white" stroke="black" points="364.27,-494.5 364.27,-513.5 496.27,-513.5 496.27,-494.5 364.27,-494.5"/>
<text text-anchor="middle" x="430.27" y="-501.5" font-family="Helvetica,sans-Serif" font-size="10.00">intghs_workspace_destroy</text>
</a>
</g>
</g>
<!-- Node1&#45;&gt;Node12 -->
<g id="edge18" class="edge">
<title>Node1&#45;&gt;Node12</title>
<path fill="none" stroke="midnightblue" d="M47.41,-472.27C58.15,-475.07 71.29,-478.15 83.27,-480 175.87,-494.28 283.72,-500.07 354.08,-502.41"/>
<polygon fill="midnightblue" stroke="midnightblue" points="354.08,-505.91 364.19,-502.73 354.3,-498.92 354.08,-505.91"/>
</g>
<!-- Node16 -->
<g id="node16" class="node">
<title>Node16</title>
<g id="a_node16"><a xlink:href="intghs_8f90.html#ae8299d4625cabd90eb1398fd2cd38089" target="_top" xlink:title="init workspace">
<polygon fill="white" stroke="black" points="532.27,-456.5 532.27,-475.5 645.27,-475.5 645.27,-456.5 532.27,-456.5"/>
<text text-anchor="middle" x="588.77" y="-463.5" font-family="Helvetica,sans-Serif" font-size="10.00">intghs_workspace_init</text>
</a>
</g>
</g>
<!-- Node1&#45;&gt;Node16 -->
<g id="edge26" class="edge">
<title>Node1&#45;&gt;Node16</title>
<path fill="none" stroke="midnightblue" d="M47.32,-466C126.15,-466 395.99,-466 521.98,-466"/>
<polygon fill="midnightblue" stroke="midnightblue" points="522.26,-469.5 532.26,-466 522.26,-462.5 522.26,-469.5"/>
</g>
<!-- Node17 -->
<g id="node17" class="node">
<title>Node17</title>
<g id="a_node17"><a xlink:href="namespaceallglobal.html#aea1f5a74462533337cb950b8d7486b25" target="_top" xlink:title="Check if volume vvol is associated to the corresponding MPI node.">
<polygon fill="white" stroke="black" points="98.27,-177.5 98.27,-196.5 206.27,-196.5 206.27,-177.5 98.27,-177.5"/>
<text text-anchor="middle" x="152.27" y="-184.5" font-family="Helvetica,sans-Serif" font-size="10.00">allglobal::ismyvolume</text>
</a>
</g>
</g>
<!-- Node1&#45;&gt;Node17 -->
<g id="edge28" class="edge">
<title>Node1&#45;&gt;Node17</title>
<path fill="none" stroke="midnightblue" d="M26.14,-456.35C30.13,-413.96 48.08,-244.59 83.27,-207 85.11,-205.04 87.13,-203.26 89.29,-201.66"/>
<polygon fill="midnightblue" stroke="midnightblue" points="91.45,-204.44 98.21,-196.28 87.84,-198.45 91.45,-204.44"/>
</g>
<!-- Node18 -->
<g id="node18" class="node">
<title>Node18</title>
<g id="a_node18"><a xlink:href="lbpol_8f90.html#a29ae6196c664f390d0e60ab7916c806b" target="_top" xlink:title="Computes &#160;at the interface.">
<polygon fill="white" stroke="black" points="800.27,-557.5 800.27,-576.5 837.27,-576.5 837.27,-557.5 800.27,-557.5"/>
<text text-anchor="middle" x="818.77" y="-564.5" font-family="Helvetica,sans-Serif" font-size="10.00">lbpol</text>
</a>
</g>
</g>
<!-- Node1&#45;&gt;Node18 -->
<g id="edge29" class="edge">
<title>Node1&#45;&gt;Node18</title>
<path fill="none" stroke="midnightblue" d="M27.81,-475.81C33.74,-496.65 50.54,-545.42 83.27,-570 159.31,-627.11 196.68,-618 291.77,-618 291.77,-618 291.77,-618 589.77,-618 663.78,-618 748.11,-592.09 790.46,-577.21"/>
<polygon fill="midnightblue" stroke="midnightblue" points="791.81,-580.44 800.04,-573.77 789.45,-573.85 791.81,-580.44"/>
</g>
<!-- Node19 -->
<g id="node19" class="node">
<title>Node19</title>
<g id="a_node19"><a xlink:href="group__grp__integrals.html#ga400af9e33dd5465ff9a4bba9fbf91108" target="_top" xlink:title="Calculates volume integrals of Chebyshev polynomials and metric element products.">
<polygon fill="white" stroke="black" points="681.27,-542.5 681.27,-561.5 732.27,-561.5 732.27,-542.5 681.27,-542.5"/>
<text text-anchor="middle" x="706.77" y="-549.5" font-family="Helvetica,sans-Serif" font-size="10.00">ma00aa</text>
</a>
</g>
</g>
<!-- Node1&#45;&gt;Node19 -->
<g id="edge34" class="edge">
<title>Node1&#45;&gt;Node19</title>
<path fill="none" stroke="midnightblue" d="M30.65,-475.62C39.54,-490.6 58.8,-519.3 83.27,-534 164.62,-582.86 196.88,-580 291.77,-580 291.77,-580 291.77,-580 431.27,-580 517.99,-580 619.33,-566 671.25,-557.8"/>
<polygon fill="midnightblue" stroke="midnightblue" points="671.93,-561.23 681.25,-556.19 670.82,-554.32 671.93,-561.23"/>
</g>
<!-- Node21 -->
<g id="node21" class="node">
<title>Node21</title>
<g id="a_node21"><a xlink:href="group__grp__solver__driver.html#gacad623d4c5c006e9ad10116372f92ad3" target="_top" xlink:title="Constructs Beltrami field in given volume consistent with flux, helicity, rotational&#45;transform and/or...">
<polygon fill="white" stroke="black" points="126.77,-352.5 126.77,-371.5 177.77,-371.5 177.77,-352.5 126.77,-352.5"/>
<text text-anchor="middle" x="152.27" y="-359.5" font-family="Helvetica,sans-Serif" font-size="10.00">ma02aa</text>
</a>
</g>
</g>
<!-- Node1&#45;&gt;Node21 -->
<g id="edge43" class="edge">
<title>Node1&#45;&gt;Node21</title>
<path fill="none" stroke="midnightblue" d="M36.9,-456.4C58.56,-438.52 105.29,-399.96 131.82,-378.05"/>
<polygon fill="midnightblue" stroke="midnightblue" points="134.19,-380.64 139.67,-371.57 129.73,-375.24 134.19,-380.64"/>
</g>
<!-- Node30 -->
<g id="node30" class="node">
<title>Node30</title>
<g id="a_node30"><a xlink:href="group__grp__build__matrices.html#ga1c52bb6dbffdb432550aae12b096080f" target="_top" xlink:title="Constructs energy and helicity matrices that represent the Beltrami linear system....">
<polygon fill="white" stroke="black" points="130.77,-121.5 130.77,-140.5 173.77,-140.5 173.77,-121.5 130.77,-121.5"/>
<text text-anchor="middle" x="152.27" y="-128.5" font-family="Helvetica,sans-Serif" font-size="10.00">matrix</text>
</a>
</g>
</g>
<!-- Node1&#45;&gt;Node30 -->
<g id="edge65" class="edge">
<title>Node1&#45;&gt;Node30</title>
<path fill="none" stroke="midnightblue" d="M26.05,-456.36C29.9,-410.64 48.15,-215.94 83.27,-168 92.54,-155.35 107.49,-146.55 121.01,-140.71"/>
<polygon fill="midnightblue" stroke="midnightblue" points="122.48,-143.89 130.5,-136.97 119.91,-137.38 122.48,-143.89"/>
</g>
<!-- Node31 -->
<g id="node31" class="node">
<title>Node31</title>
<g id="a_node31"><a xlink:href="group__grp__integrals.html#ga01df49c498752e8a4201cc6eb5e283af" target="_top" xlink:title="Calculates volume integrals of Chebyshev&#45;polynomials and metric elements for preconditioner.">
<polygon fill="white" stroke="black" points="685.27,-478.5 685.27,-497.5 728.27,-497.5 728.27,-478.5 685.27,-478.5"/>
<text text-anchor="middle" x="706.77" y="-485.5" font-family="Helvetica,sans-Serif" font-size="10.00">spsint</text>
</a>
</g>
</g>
<!-- Node1&#45;&gt;Node31 -->
<g id="edge67" class="edge">
<title>Node1&#45;&gt;Node31</title>
<path fill="none" stroke="midnightblue" d="M38.4,-475.76C49.73,-483.72 66.82,-494.64 83.27,-501 171.37,-535.02 197.33,-542 291.77,-542 291.77,-542 291.77,-542 431.27,-542 527.44,-542 552.06,-533.66 645.27,-510 655.32,-507.45 666.03,-503.86 675.61,-500.31"/>
<polygon fill="midnightblue" stroke="midnightblue" points="677.01,-503.53 685.1,-496.69 674.51,-496.99 677.01,-503.53"/>
</g>
<!-- Node32 -->
<g id="node32" class="node">
<title>Node32</title>
<g id="a_node32"><a xlink:href="group__grp__build__matrices.html#ga4d521a46a64530ade50e6b79a33e1452" target="_top" xlink:title="Constructs matrices for the precondtioner.">
<polygon fill="white" stroke="black" points="127.77,-65.5 127.77,-84.5 176.77,-84.5 176.77,-65.5 127.77,-65.5"/>
<text text-anchor="middle" x="152.27" y="-72.5" font-family="Helvetica,sans-Serif" font-size="10.00">spsmat</text>
</a>
</g>
</g>
<!-- Node1&#45;&gt;Node32 -->
<g id="edge71" class="edge">
<title>Node1&#45;&gt;Node32</title>
<path fill="none" stroke="midnightblue" d="M25.73,-456.3C28.27,-405.46 42.17,-169.89 83.27,-112 91.77,-100.04 105.38,-91.55 118.21,-85.75"/>
<polygon fill="midnightblue" stroke="midnightblue" points="119.84,-88.86 127.76,-81.82 117.18,-82.38 119.84,-88.86"/>
</g>
<!-- Node36 -->
<g id="node36" class="node">
<title>Node36</title>
<g id="a_node36"><a xlink:href="namespaceallglobal.html#ad2dbd21d0579d623a92119c5ab553c7c" target="_top" xlink:title="Returns which MPI node is associated to a given volume.">
<polygon fill="white" stroke="black" points="99.77,-27.5 99.77,-46.5 204.77,-46.5 204.77,-27.5 99.77,-27.5"/>
<text text-anchor="middle" x="152.27" y="-34.5" font-family="Helvetica,sans-Serif" font-size="10.00">allglobal::whichcpuid</text>
</a>
</g>
</g>
<!-- Node1&#45;&gt;Node36 -->
<g id="edge77" class="edge">
<title>Node1&#45;&gt;Node36</title>
<path fill="none" stroke="midnightblue" d="M25.26,-456.46C25.37,-400.8 28.68,-118.32 83.27,-56 85.49,-53.46 88.02,-51.25 90.77,-49.33"/>
<polygon fill="midnightblue" stroke="midnightblue" points="92.57,-52.33 99.56,-44.37 89.13,-46.24 92.57,-52.33"/>
</g>
<!-- Node5 -->
<g id="node5" class="node">
<title>Node5</title>
<g id="a_node5"><a xlink:href="group__grp__geometry.html#gaaca20aa60eaf39055f3c9d5c02a24ac2" target="_top" xlink:title="Calculates coordinates, , and metrics, using FFTs.">
<polygon fill="white" stroke="black" points="905.27,-576.5 905.27,-595.5 951.27,-595.5 951.27,-576.5 905.27,-576.5"/>
<text text-anchor="middle" x="928.27" y="-583.5" font-family="Helvetica,sans-Serif" font-size="10.00">coords</text>
</a>
</g>
</g>
<!-- Node4&#45;&gt;Node5 -->
<g id="edge4" class="edge">
<title>Node4&#45;&gt;Node5</title>
<path fill="none" stroke="midnightblue" d="M847.46,-613.47C862.15,-608.41 880.28,-602.17 895.54,-596.92"/>
<polygon fill="midnightblue" stroke="midnightblue" points="896.78,-600.2 905.1,-593.63 894.5,-593.58 896.78,-600.2"/>
</g>
<!-- Node5&#45;&gt;Node5 -->
<g id="edge5" class="edge">
<title>Node5&#45;&gt;Node5</title>
<path fill="none" stroke="midnightblue" d="M915.63,-595.76C909.48,-604.57 913.7,-614 928.27,-614 937.15,-614 942.19,-610.5 943.37,-605.77"/>
<polygon fill="midnightblue" stroke="midnightblue" points="946.7,-604.63 940.91,-595.76 939.9,-606.3 946.7,-604.63"/>
</g>
<!-- Node6 -->
<g id="node6" class="node">
<title>Node6</title>
<g id="a_node6"><a xlink:href="group__grp__numerics.html#ga1fd52accb0646f535f9bcc46cf5a68f3" target="_top" xlink:title="Inverse Fourier transform (fftw wrapper)">
<polygon fill="white" stroke="black" points="992.27,-349.5 992.27,-368.5 1030.27,-368.5 1030.27,-349.5 992.27,-349.5"/>
<text text-anchor="middle" x="1011.27" y="-356.5" font-family="Helvetica,sans-Serif" font-size="10.00">invfft</text>
</a>
</g>
</g>
<!-- Node5&#45;&gt;Node6 -->
<g id="edge6" class="edge">
<title>Node5&#45;&gt;Node6</title>
<path fill="none" stroke="midnightblue" d="M934.17,-576.43C938.88,-567.04 946.03,-552.23 951.27,-539 974.02,-481.59 995.14,-411.56 1004.78,-378.31"/>
<polygon fill="midnightblue" stroke="midnightblue" points="1008.2,-379.09 1007.6,-368.51 1001.47,-377.16 1008.2,-379.09"/>
</g>
<!-- Node5&#45;&gt;Node7 -->
<g id="edge7" class="edge">
<title>Node5&#45;&gt;Node7</title>
<path fill="none" stroke="midnightblue" d="M951.41,-592.75C964.54,-599.36 980.96,-609.04 993.11,-617.41"/>
<polygon fill="midnightblue" stroke="midnightblue" points="991.3,-620.42 1001.45,-623.48 995.42,-614.76 991.3,-620.42"/>
</g>
<!-- Node7&#45;&gt;Node5 -->
<g id="edge8" class="edge">
<title>Node7&#45;&gt;Node5</title>
<path fill="none" stroke="midnightblue" d="M987.1,-625.72C974.13,-619.13 958.24,-609.72 946.4,-601.57"/>
<polygon fill="midnightblue" stroke="midnightblue" points="948.4,-598.69 938.25,-595.64 944.28,-604.35 948.4,-598.69"/>
</g>
<!-- Node7&#45;&gt;Node7 -->
<g id="edge9" class="edge">
<title>Node7&#45;&gt;Node7</title>
<path fill="none" stroke="midnightblue" d="M998.63,-642.76C992.48,-651.57 996.7,-661 1011.27,-661 1020.15,-661 1025.19,-657.5 1026.37,-652.77"/>
<polygon fill="midnightblue" stroke="midnightblue" points="1029.7,-651.63 1023.91,-642.76 1022.9,-653.3 1029.7,-651.63"/>
</g>
<!-- Node8&#45;&gt;Node5 -->
<g id="edge11" class="edge">
<title>Node8&#45;&gt;Node5</title>
<path fill="none" stroke="midnightblue" d="M824.29,-312.56C833.34,-331.89 854.14,-377.07 869.27,-416 890.2,-469.82 911.2,-534.72 921.21,-566.52"/>
<polygon fill="midnightblue" stroke="midnightblue" points="917.95,-567.82 924.28,-576.31 924.63,-565.72 917.95,-567.82"/>
</g>
<!-- Node8&#45;&gt;Node6 -->
<g id="edge13" class="edge">
<title>Node8&#45;&gt;Node6</title>
<path fill="none" stroke="midnightblue" d="M840.89,-309.21C875.33,-319.33 943.63,-339.41 982.14,-350.73"/>
<polygon fill="midnightblue" stroke="midnightblue" points="981.59,-354.22 992.17,-353.68 983.56,-347.5 981.59,-354.22"/>
</g>
<!-- Node8&#45;&gt;Node8 -->
<g id="edge12" class="edge">
<title>Node8&#45;&gt;Node8</title>
<path fill="none" stroke="midnightblue" d="M802.13,-312.76C794.03,-321.57 799.58,-331 818.77,-331 830.77,-331 837.44,-327.31 838.77,-322.4"/>
<polygon fill="midnightblue" stroke="midnightblue" points="842.01,-321.05 835.42,-312.76 835.4,-323.35 842.01,-321.05"/>
</g>
<!-- Node9 -->
<g id="node9" class="node">
<title>Node9</title>
<g id="a_node9"><a xlink:href="group__grp__numerics.html#ga041138109a57e651c57117bb4180409e" target="_top" xlink:title="Forward Fourier transform (fftw wrapper)">
<polygon fill="white" stroke="black" points="913.77,-434.5 913.77,-453.5 942.77,-453.5 942.77,-434.5 913.77,-434.5"/>
<text text-anchor="middle" x="928.27" y="-441.5" font-family="Helvetica,sans-Serif" font-size="10.00">tfft</text>
</a>
</g>
</g>
<!-- Node8&#45;&gt;Node9 -->
<g id="edge14" class="edge">
<title>Node8&#45;&gt;Node9</title>
<path fill="none" stroke="midnightblue" d="M827.16,-312.69C845.03,-336.14 890.82,-396.19 913.76,-426.27"/>
<polygon fill="midnightblue" stroke="midnightblue" points="910.98,-428.41 919.83,-434.24 916.55,-424.17 910.98,-428.41"/>
</g>
<!-- Node13 -->
<g id="node13" class="node">
<title>Node13</title>
<g id="a_node13"><a xlink:href="intghs_8f90.html#a21d3b7106371783302e68297f7797e9f" target="_top" xlink:title="Calculates volume integrals of Chebyshev polynomials and covariant field products.">
<polygon fill="white" stroke="black" points="685.27,-422.5 685.27,-441.5 728.27,-441.5 728.27,-422.5 685.27,-422.5"/>
<text text-anchor="middle" x="706.77" y="-429.5" font-family="Helvetica,sans-Serif" font-size="10.00">intghs</text>
</a>
</g>
</g>
<!-- Node12&#45;&gt;Node13 -->
<g id="edge19" class="edge">
<title>Node12&#45;&gt;Node13</title>
<path fill="none" stroke="midnightblue" d="M496.55,-508.52C540.3,-509.12 598.29,-505.09 645.27,-485 663.42,-477.24 679.98,-461.89 691.16,-449.69"/>
<polygon fill="midnightblue" stroke="midnightblue" points="694.04,-451.72 698,-441.89 688.78,-447.1 694.04,-451.72"/>
</g>
<!-- Node13&#45;&gt;Node4 -->
<g id="edge20" class="edge">
<title>Node13&#45;&gt;Node4</title>
<path fill="none" stroke="midnightblue" d="M715.35,-441.54C720.74,-448.73 727.78,-459.02 732.27,-469 757.75,-525.63 726.75,-557.83 768.27,-604 769.46,-605.32 770.74,-606.54 772.11,-607.69"/>
<polygon fill="midnightblue" stroke="midnightblue" points="770.38,-610.74 780.65,-613.35 774.25,-604.91 770.38,-610.74"/>
</g>
<!-- Node13&#45;&gt;Node6 -->
<g id="edge24" class="edge">
<title>Node13&#45;&gt;Node6</title>
<path fill="none" stroke="midnightblue" d="M726.14,-422.46C737.92,-416.69 753.67,-409.58 768.27,-405 843.64,-381.37 936.22,-367.89 981.95,-362.22"/>
<polygon fill="midnightblue" stroke="midnightblue" points="982.5,-365.68 992.01,-361 981.66,-358.73 982.5,-365.68"/>
</g>
<!-- Node13&#45;&gt;Node9 -->
<g id="edge25" class="edge">
<title>Node13&#45;&gt;Node9</title>
<path fill="none" stroke="midnightblue" d="M728.51,-425.09C740.06,-421.61 754.8,-417.75 768.27,-416 812.79,-410.21 825.51,-405.99 869.27,-416 881.62,-418.83 894.4,-424.64 904.81,-430.23"/>
<polygon fill="midnightblue" stroke="midnightblue" points="903.2,-433.34 913.63,-435.22 906.65,-427.25 903.2,-433.34"/>
</g>
<!-- Node13&#45;&gt;Node13 -->
<g id="edge23" class="edge">
<title>Node13&#45;&gt;Node13</title>
<path fill="none" stroke="midnightblue" d="M689.51,-441.76C681.11,-450.57 686.87,-460 706.77,-460 719.21,-460 726.13,-456.31 727.51,-451.4"/>
<polygon fill="midnightblue" stroke="midnightblue" points="730.72,-449.98 724.03,-441.76 724.13,-452.35 730.72,-449.98"/>
</g>
<!-- Node14 -->
<g id="node14" class="node">
<title>Node14</title>
<g id="a_node14"><a xlink:href="basefn_8f90.html#af6a4cad04c70bfb14fd18a3bfbc843a3" target="_top" xlink:title="Get the Chebyshev polynomials with zeroth, first derivatives.">
<polygon fill="white" stroke="black" points="788.27,-425.5 788.27,-444.5 849.27,-444.5 849.27,-425.5 788.27,-425.5"/>
<text text-anchor="middle" x="818.77" y="-432.5" font-family="Helvetica,sans-Serif" font-size="10.00">get_cheby</text>
</a>
</g>
</g>
<!-- Node13&#45;&gt;Node14 -->
<g id="edge21" class="edge">
<title>Node13&#45;&gt;Node14</title>
<path fill="none" stroke="midnightblue" d="M728.46,-432.56C742.38,-432.94 761.17,-433.46 777.93,-433.91"/>
<polygon fill="midnightblue" stroke="midnightblue" points="777.95,-437.42 788.04,-434.19 778.14,-430.42 777.95,-437.42"/>
</g>
<!-- Node15 -->
<g id="node15" class="node">
<title>Node15</title>
<g id="a_node15"><a xlink:href="basefn_8f90.html#a38dc596fb909186b01dacc1feac03164" target="_top" xlink:title="Get the Zernike polynomials &#160;with zeroth, first derivatives.">
<polygon fill="white" stroke="black" points="785.77,-463.5 785.77,-482.5 851.77,-482.5 851.77,-463.5 785.77,-463.5"/>
<text text-anchor="middle" x="818.77" y="-470.5" font-family="Helvetica,sans-Serif" font-size="10.00">get_zernike</text>
</a>
</g>
</g>
<!-- Node13&#45;&gt;Node15 -->
<g id="edge22" class="edge">
<title>Node13&#45;&gt;Node15</title>
<path fill="none" stroke="midnightblue" d="M728.46,-439.71C743.69,-445.39 764.76,-453.24 782.61,-459.89"/>
<polygon fill="midnightblue" stroke="midnightblue" points="781.55,-463.23 792.14,-463.45 783.99,-456.67 781.55,-463.23"/>
</g>
<!-- Node16&#45;&gt;Node13 -->
<g id="edge27" class="edge">
<title>Node16&#45;&gt;Node13</title>
<path fill="none" stroke="midnightblue" d="M622.39,-456.44C638.88,-451.61 658.78,-445.77 675.01,-441.02"/>
<polygon fill="midnightblue" stroke="midnightblue" points="676.45,-444.24 685.06,-438.07 674.48,-437.52 676.45,-444.24"/>
</g>
<!-- Node18&#45;&gt;Node5 -->
<g id="edge30" class="edge">
<title>Node18&#45;&gt;Node5</title>
<path fill="none" stroke="midnightblue" d="M837.52,-570.14C853.12,-572.89 876.21,-576.97 895.06,-580.31"/>
<polygon fill="midnightblue" stroke="midnightblue" points="894.56,-583.77 905.02,-582.07 895.78,-576.88 894.56,-583.77"/>
</g>
<!-- Node18&#45;&gt;Node6 -->
<g id="edge31" class="edge">
<title>Node18&#45;&gt;Node6</title>
<path fill="none" stroke="midnightblue" d="M837.62,-562.23C847.46,-559.11 859.6,-554.4 869.27,-548 936.04,-503.79 983.09,-416.79 1001.58,-378.21"/>
<polygon fill="midnightblue" stroke="midnightblue" points="1004.97,-379.23 1006.03,-368.69 998.63,-376.26 1004.97,-379.23"/>
</g>
<!-- Node18&#45;&gt;Node9 -->
<g id="edge33" class="edge">
<title>Node18&#45;&gt;Node9</title>
<path fill="none" stroke="midnightblue" d="M837.37,-563.42C847.61,-560.62 860.23,-555.84 869.27,-548 895.84,-524.97 912.7,-486.64 921.03,-463.5"/>
<polygon fill="midnightblue" stroke="midnightblue" points="924.44,-464.37 924.35,-453.77 917.81,-462.11 924.44,-464.37"/>
</g>
<!-- Node18&#45;&gt;Node18 -->
<g id="edge32" class="edge">
<title>Node18&#45;&gt;Node18</title>
<path fill="none" stroke="midnightblue" d="M802.13,-576.76C794.03,-585.57 799.58,-595 818.77,-595 830.77,-595 837.44,-591.31 838.77,-586.4"/>
<polygon fill="midnightblue" stroke="midnightblue" points="842.01,-585.05 835.42,-576.76 835.4,-587.35 842.01,-585.05"/>
</g>
<!-- Node19&#45;&gt;Node4 -->
<g id="edge35" class="edge">
<title>Node19&#45;&gt;Node4</title>
<path fill="none" stroke="midnightblue" d="M716.82,-561.58C728.01,-572.96 748.06,-591.93 768.27,-604 771.5,-605.93 774.97,-607.73 778.51,-609.39"/>
<polygon fill="midnightblue" stroke="midnightblue" points="777.37,-612.71 787.94,-613.45 780.14,-606.28 777.37,-612.71"/>
</g>
<!-- Node19&#45;&gt;Node7 -->
<g id="edge42" class="edge">
<title>Node19&#45;&gt;Node7</title>
<path fill="none" stroke="midnightblue" d="M710.82,-561.65C717.54,-581.11 735.7,-624.65 768.27,-642 835.48,-677.8 928.72,-658.44 977.52,-644.05"/>
<polygon fill="midnightblue" stroke="midnightblue" points="978.69,-647.35 987.23,-641.08 976.64,-640.66 978.69,-647.35"/>
</g>
<!-- Node19&#45;&gt;Node14 -->
<g id="edge36" class="edge">
<title>Node19&#45;&gt;Node14</title>
<path fill="none" stroke="midnightblue" d="M718,-542.03C722.69,-537.16 728.11,-531.05 732.27,-525 752.34,-495.86 742,-477.7 768.27,-454 771.42,-451.16 775.05,-448.72 778.87,-446.64"/>
<polygon fill="midnightblue" stroke="midnightblue" points="780.42,-449.78 788.02,-442.39 777.48,-443.43 780.42,-449.78"/>
</g>
<!-- Node19&#45;&gt;Node15 -->
<g id="edge37" class="edge">
<title>Node19&#45;&gt;Node15</title>
<path fill="none" stroke="midnightblue" d="M716.72,-542.18C730.59,-527.15 756.84,-499.39 768.27,-492 771.22,-490.09 774.39,-488.33 777.65,-486.72"/>
<polygon fill="midnightblue" stroke="midnightblue" points="779.27,-489.83 786.96,-482.55 776.41,-483.44 779.27,-489.83"/>
</g>
<!-- Node19&#45;&gt;Node19 -->
<g id="edge38" class="edge">
<title>Node19&#45;&gt;Node19</title>
<path fill="none" stroke="midnightblue" d="M689.51,-561.76C681.11,-570.57 686.87,-580 706.77,-580 719.21,-580 726.13,-576.31 727.51,-571.4"/>
<polygon fill="midnightblue" stroke="midnightblue" points="730.72,-569.98 724.03,-561.76 724.13,-572.35 730.72,-569.98"/>
</g>
<!-- Node20 -->
<g id="node20" class="node">
<title>Node20</title>
<g id="a_node20"><a xlink:href="group__grp__metrics.html#ga254ce8e645c4110d77e3b3dbc3a89885" target="_top" xlink:title="Calculates the metric quantities, , which are required for the energy and helicity integrals.">
<polygon fill="white" stroke="black" points="797.27,-501.5 797.27,-520.5 840.27,-520.5 840.27,-501.5 797.27,-501.5"/>
<text text-anchor="middle" x="818.77" y="-508.5" font-family="Helvetica,sans-Serif" font-size="10.00">metrix</text>
</a>
</g>
</g>
<!-- Node19&#45;&gt;Node20 -->
<g id="edge39" class="edge">
<title>Node19&#45;&gt;Node20</title>
<path fill="none" stroke="midnightblue" d="M732.46,-542.8C748.77,-536.72 770.25,-528.71 787.57,-522.26"/>
<polygon fill="midnightblue" stroke="midnightblue" points="789.08,-525.43 797.22,-518.66 786.63,-518.87 789.08,-525.43"/>
</g>
<!-- Node20&#45;&gt;Node9 -->
<g id="edge41" class="edge">
<title>Node20&#45;&gt;Node9</title>
<path fill="none" stroke="midnightblue" d="M840.69,-504.67C849.78,-501.49 860.37,-497.2 869.27,-492 884.2,-483.28 899.19,-470.75 910.19,-460.68"/>
<polygon fill="midnightblue" stroke="midnightblue" points="912.87,-462.97 917.75,-453.57 908.07,-457.87 912.87,-462.97"/>
</g>
<!-- Node20&#45;&gt;Node20 -->
<g id="edge40" class="edge">
<title>Node20&#45;&gt;Node20</title>
<path fill="none" stroke="midnightblue" d="M802.13,-520.76C794.03,-529.57 799.58,-539 818.77,-539 830.77,-539 837.44,-535.31 838.77,-530.4"/>
<polygon fill="midnightblue" stroke="midnightblue" points="842.01,-529.05 835.42,-520.76 835.4,-531.35 842.01,-529.05"/>
</g>
<!-- Node21&#45;&gt;Node21 -->
<g id="edge46" class="edge">
<title>Node21&#45;&gt;Node21</title>
<path fill="none" stroke="midnightblue" d="M132.54,-371.76C122.95,-380.57 129.52,-390 152.27,-390 166.85,-390 174.78,-386.13 176.08,-381.03"/>
<polygon fill="midnightblue" stroke="midnightblue" points="179.23,-379.5 172,-371.76 172.83,-382.32 179.23,-379.5"/>
</g>
<!-- Node22 -->
<g id="node22" class="node">
<title>Node22</title>
<g id="a_node22"><a xlink:href="group__grp__integrals.html#ga6d086e8d1af527def50b653b86e8373a" target="_top" xlink:title="Evaluates volume integrals, and their derivatives w.r.t. interface geometry, using &quot;packed&quot; format.">
<polygon fill="white" stroke="black" points="269.77,-152.5 269.77,-171.5 315.77,-171.5 315.77,-152.5 269.77,-152.5"/>
<text text-anchor="middle" x="292.77" y="-159.5" font-family="Helvetica,sans-Serif" font-size="10.00">df00ab</text>
</a>
</g>
</g>
<!-- Node21&#45;&gt;Node22 -->
<g id="edge44" class="edge">
<title>Node21&#45;&gt;Node22</title>
<path fill="none" stroke="midnightblue" d="M177.78,-359.1C192.32,-356.13 210.04,-350.13 221.27,-338 263.17,-292.75 229.07,-258.84 257.27,-204 261.8,-195.19 268.41,-186.55 274.64,-179.42"/>
<polygon fill="midnightblue" stroke="midnightblue" points="277.44,-181.55 281.63,-171.81 272.28,-176.81 277.44,-181.55"/>
</g>
<!-- Node23 -->
<g id="node23" class="node">
<title>Node23</title>
<g id="a_node23"><a xlink:href="group__grp__solver.html#ga6626839aff500f060beb5bce2b90c447" target="_top" xlink:title="Solves Beltrami/vacuum (linear) system, given matrices.unpacking fluxes, helicity multiplier">
<polygon fill="white" stroke="black" points="267.27,-342.5 267.27,-361.5 318.27,-361.5 318.27,-342.5 267.27,-342.5"/>
<text text-anchor="middle" x="292.77" y="-349.5" font-family="Helvetica,sans-Serif" font-size="10.00">mp00ac</text>
</a>
</g>
</g>
<!-- Node21&#45;&gt;Node23 -->
<g id="edge47" class="edge">
<title>Node21&#45;&gt;Node23</title>
<path fill="none" stroke="midnightblue" d="M178.03,-360.21C200.09,-358.62 232.59,-356.27 257.21,-354.5"/>
<polygon fill="midnightblue" stroke="midnightblue" points="257.5,-357.98 267.23,-353.77 257,-351 257.5,-357.98"/>
</g>
<!-- Node25 -->
<g id="node25" class="node">
<title>Node25</title>
<g id="a_node25"><a xlink:href="group__grp__packing.html#gaee2357e570aebf8559e169def6b619dd" target="_top" xlink:title="Packs and unpacks Beltrami field solution vector.">
<polygon fill="white" stroke="black" points="682.77,-228.5 682.77,-247.5 730.77,-247.5 730.77,-228.5 682.77,-228.5"/>
<text text-anchor="middle" x="706.77" y="-235.5" font-family="Helvetica,sans-Serif" font-size="10.00">packab</text>
</a>
</g>
</g>
<!-- Node21&#45;&gt;Node25 -->
<g id="edge64" class="edge">
<title>Node21&#45;&gt;Node25</title>
<path fill="none" stroke="midnightblue" d="M178.01,-354.67C191.14,-350.43 207.38,-344.64 221.27,-338 288.61,-305.84 293.58,-273.92 364.27,-250 472.11,-213.51 610.17,-224.99 672.54,-233.02"/>
<polygon fill="midnightblue" stroke="midnightblue" points="672.21,-236.5 682.59,-234.37 673.14,-229.57 672.21,-236.5"/>
</g>
<!-- Node22&#45;&gt;Node22 -->
<g id="edge45" class="edge">
<title>Node22&#45;&gt;Node22</title>
<path fill="none" stroke="midnightblue" d="M271.81,-171.76C261.61,-180.57 268.6,-190 292.77,-190 308.26,-190 316.69,-186.13 318.07,-181.03"/>
<polygon fill="midnightblue" stroke="midnightblue" points="321.14,-179.33 313.73,-171.76 314.8,-182.3 321.14,-179.33"/>
</g>
<!-- Node23&#45;&gt;Node8 -->
<g id="edge48" class="edge">
<title>Node23&#45;&gt;Node8</title>
<path fill="none" stroke="midnightblue" d="M318.42,-357.68C331.88,-360.5 348.9,-363.59 364.27,-365 527.27,-379.9 575.22,-397.08 732.27,-351 755.84,-344.08 780,-329.72 796.6,-318.49"/>
<polygon fill="midnightblue" stroke="midnightblue" points="798.79,-321.24 804.99,-312.65 794.79,-315.49 798.79,-321.24"/>
</g>
<!-- Node23&#45;&gt;Node13 -->
<g id="edge49" class="edge">
<title>Node23&#45;&gt;Node13</title>
<path fill="none" stroke="midnightblue" d="M303.21,-361.73C315.83,-374.03 339.49,-394.71 364.27,-404 472.52,-444.58 613.21,-439.68 674.71,-434.97"/>
<polygon fill="midnightblue" stroke="midnightblue" points="675.23,-438.44 684.91,-434.14 674.66,-431.47 675.23,-438.44"/>
</g>
<!-- Node23&#45;&gt;Node23 -->
<g id="edge50" class="edge">
<title>Node23&#45;&gt;Node23</title>
<path fill="none" stroke="midnightblue" d="M271.81,-361.76C261.61,-370.57 268.6,-380 292.77,-380 308.26,-380 316.69,-376.13 318.07,-371.03"/>
<polygon fill="midnightblue" stroke="midnightblue" points="321.14,-369.33 313.73,-361.76 314.8,-372.3 321.14,-369.33"/>
</g>
<!-- Node24 -->
<g id="node24" class="node">
<title>Node24</title>
<g id="a_node24"><a xlink:href="group__grp__build__matrices.html#ga6c22bb4322fbcc29cb17dcc90b56eacd" target="_top" xlink:title="Constructs matrices that represent the Beltrami linear system, matrix&#45;free.">
<polygon fill="white" stroke="black" points="683.77,-304.5 683.77,-323.5 729.77,-323.5 729.77,-304.5 683.77,-304.5"/>
<text text-anchor="middle" x="706.77" y="-311.5" font-family="Helvetica,sans-Serif" font-size="10.00">mtrxhs</text>
</a>
</g>
</g>
<!-- Node23&#45;&gt;Node24 -->
<g id="edge51" class="edge">
<title>Node23&#45;&gt;Node24</title>
<path fill="none" stroke="midnightblue" d="M318.31,-352.77C375.91,-354.11 524.1,-354.94 645.27,-333 654.82,-331.27 664.96,-328.48 674.16,-325.57"/>
<polygon fill="midnightblue" stroke="midnightblue" points="675.31,-328.87 683.7,-322.4 673.1,-322.23 675.31,-328.87"/>
</g>
<!-- Node23&#45;&gt;Node25 -->
<g id="edge53" class="edge">
<title>Node23&#45;&gt;Node25</title>
<path fill="none" stroke="midnightblue" d="M302.82,-342.32C315.37,-329.49 339.34,-307.08 364.27,-295 468.33,-244.58 608.84,-237.75 672.25,-237.47"/>
<polygon fill="midnightblue" stroke="midnightblue" points="672.46,-240.97 682.46,-237.48 672.47,-233.97 672.46,-240.97"/>
</g>
<!-- Node26 -->
<g id="node26" class="node">
<title>Node26</title>
<g id="a_node26"><a xlink:href="mp00ac_8f90.html#a304edac43f63d39dda4419b4d044eac5" target="_top" xlink:title="run GMRES">
<polygon fill="white" stroke="black" points="401.77,-304.5 401.77,-323.5 458.77,-323.5 458.77,-304.5 401.77,-304.5"/>
<text text-anchor="middle" x="430.27" y="-311.5" font-family="Helvetica,sans-Serif" font-size="10.00">rungmres</text>
</a>
</g>
</g>
<!-- Node23&#45;&gt;Node26 -->
<g id="edge55" class="edge">
<title>Node23&#45;&gt;Node26</title>
<path fill="none" stroke="midnightblue" d="M318.31,-345.12C338.86,-339.35 368.52,-331.04 392.01,-324.45"/>
<polygon fill="midnightblue" stroke="midnightblue" points="392.97,-327.82 401.65,-321.75 391.08,-321.08 392.97,-327.82"/>
</g>
<!-- Node29 -->
<g id="node29" class="node">
<title>Node29</title>
<g id="a_node29"><a xlink:href="group__grp__transform.html#ga0e0447653b8da82f06748dd8831bc337" target="_top" xlink:title="Calculates rotational transform given an arbitrary tangential field.">
<polygon fill="white" stroke="black" points="906.27,-195.5 906.27,-214.5 950.27,-214.5 950.27,-195.5 906.27,-195.5"/>
<text text-anchor="middle" x="928.27" y="-202.5" font-family="Helvetica,sans-Serif" font-size="10.00">tr00ab</text>
</a>
</g>
</g>
<!-- Node23&#45;&gt;Node29 -->
<g id="edge61" class="edge">
<title>Node23&#45;&gt;Node29</title>
<path fill="none" stroke="midnightblue" d="M297.42,-342.23C305.7,-321.53 328.08,-273.43 364.27,-252 541.27,-147.18 806.12,-182.56 896.08,-198.78"/>
<polygon fill="midnightblue" stroke="midnightblue" points="895.7,-202.27 906.17,-200.65 896.98,-195.38 895.7,-202.27"/>
</g>
<!-- Node24&#45;&gt;Node24 -->
<g id="edge52" class="edge">
<title>Node24&#45;&gt;Node24</title>
<path fill="none" stroke="midnightblue" d="M689.51,-323.76C681.11,-332.57 686.87,-342 706.77,-342 719.21,-342 726.13,-338.31 727.51,-333.4"/>
<polygon fill="midnightblue" stroke="midnightblue" points="730.72,-331.98 724.03,-323.76 724.13,-334.35 730.72,-331.98"/>
</g>
<!-- Node25&#45;&gt;Node25 -->
<g id="edge54" class="edge">
<title>Node25&#45;&gt;Node25</title>
<path fill="none" stroke="midnightblue" d="M689.51,-247.76C681.11,-256.57 686.87,-266 706.77,-266 719.21,-266 726.13,-262.31 727.51,-257.4"/>
<polygon fill="midnightblue" stroke="midnightblue" points="730.72,-255.98 724.03,-247.76 724.13,-258.35 730.72,-255.98"/>
</g>
<!-- Node27 -->
<g id="node27" class="node">
<title>Node27</title>
<g id="a_node27"><a xlink:href="mp00ac_8f90.html#ae9fe335bb4916face9f9d19ce8c0f5d7" target="_top" xlink:title="compute a.x by either by coumputing it directly, or using a matrix free method">
<polygon fill="white" stroke="black" points="564.27,-266.5 564.27,-285.5 613.27,-285.5 613.27,-266.5 564.27,-266.5"/>
<text text-anchor="middle" x="588.77" y="-273.5" font-family="Helvetica,sans-Serif" font-size="10.00">matvec</text>
</a>
</g>
</g>
<!-- Node26&#45;&gt;Node27 -->
<g id="edge56" class="edge">
<title>Node26&#45;&gt;Node27</title>
<path fill="none" stroke="midnightblue" d="M458.89,-307.29C485.46,-300.84 525.68,-291.08 554.12,-284.17"/>
<polygon fill="midnightblue" stroke="midnightblue" points="555.12,-287.53 564.01,-281.77 553.47,-280.73 555.12,-287.53"/>
</g>
<!-- Node28 -->
<g id="node28" class="node">
<title>Node28</title>
<g id="a_node28"><a xlink:href="mp00ac_8f90.html#a76cda97bf815eb7f40cb76ad1719d809" target="_top" xlink:title="apply the preconditioner">
<polygon fill="white" stroke="black" points="556.77,-304.5 556.77,-323.5 620.77,-323.5 620.77,-304.5 556.77,-304.5"/>
<text text-anchor="middle" x="588.77" y="-311.5" font-family="Helvetica,sans-Serif" font-size="10.00">prec_solve</text>
</a>
</g>
</g>
<!-- Node26&#45;&gt;Node28 -->
<g id="edge60" class="edge">
<title>Node26&#45;&gt;Node28</title>
<path fill="none" stroke="midnightblue" d="M458.89,-314C483.17,-314 518.84,-314 546.5,-314"/>
<polygon fill="midnightblue" stroke="midnightblue" points="546.67,-317.5 556.67,-314 546.67,-310.5 546.67,-317.5"/>
</g>
<!-- Node27&#45;&gt;Node13 -->
<g id="edge57" class="edge">
<title>Node27&#45;&gt;Node13</title>
<path fill="none" stroke="midnightblue" d="M613.32,-279.6C624.14,-282.28 636.49,-286.94 645.27,-295 663.42,-311.65 687.85,-378.72 699.32,-412.44"/>
<polygon fill="midnightblue" stroke="midnightblue" points="696.06,-413.74 702.56,-422.11 702.7,-411.51 696.06,-413.74"/>
</g>
<!-- Node27&#45;&gt;Node24 -->
<g id="edge58" class="edge">
<title>Node27&#45;&gt;Node24</title>
<path fill="none" stroke="midnightblue" d="M613.53,-283.78C630.94,-289.49 654.78,-297.3 673.86,-303.55"/>
<polygon fill="midnightblue" stroke="midnightblue" points="673.03,-306.96 683.62,-306.74 675.21,-300.3 673.03,-306.96"/>
</g>
<!-- Node27&#45;&gt;Node25 -->
<g id="edge59" class="edge">
<title>Node27&#45;&gt;Node25</title>
<path fill="none" stroke="midnightblue" d="M613.53,-268.22C630.61,-262.62 653.86,-255.01 672.75,-248.82"/>
<polygon fill="midnightblue" stroke="midnightblue" points="674.03,-252.08 682.45,-245.64 671.85,-245.43 674.03,-252.08"/>
</g>
<!-- Node29&#45;&gt;Node6 -->
<g id="edge62" class="edge">
<title>Node29&#45;&gt;Node6</title>
<path fill="none" stroke="midnightblue" d="M934.34,-214.63C947.52,-239.7 983.07,-307.28 1000.44,-340.31"/>
<polygon fill="midnightblue" stroke="midnightblue" points="997.45,-342.15 1005.21,-349.37 1003.65,-338.89 997.45,-342.15"/>
</g>
<!-- Node29&#45;&gt;Node29 -->
<g id="edge63" class="edge">
<title>Node29&#45;&gt;Node29</title>
<path fill="none" stroke="midnightblue" d="M915.63,-214.76C909.48,-223.57 913.7,-233 928.27,-233 937.15,-233 942.19,-229.5 943.37,-224.77"/>
<polygon fill="midnightblue" stroke="midnightblue" points="946.7,-223.63 940.91,-214.76 939.9,-225.3 946.7,-223.63"/>
</g>
<!-- Node30&#45;&gt;Node30 -->
<g id="edge66" class="edge">
<title>Node30&#45;&gt;Node30</title>
<path fill="none" stroke="midnightblue" d="M132.54,-140.76C122.95,-149.57 129.52,-159 152.27,-159 166.85,-159 174.78,-155.13 176.08,-150.03"/>
<polygon fill="midnightblue" stroke="midnightblue" points="179.23,-148.5 172,-140.76 172.83,-151.32 179.23,-148.5"/>
</g>
<!-- Node31&#45;&gt;Node14 -->
<g id="edge68" class="edge">
<title>Node31&#45;&gt;Node14</title>
<path fill="none" stroke="midnightblue" d="M723.36,-478.41C735.39,-471.21 752.57,-461.38 768.27,-454 772.41,-452.05 776.81,-450.15 781.22,-448.34"/>
<polygon fill="midnightblue" stroke="midnightblue" points="782.75,-451.49 790.76,-444.55 780.17,-444.99 782.75,-451.49"/>
</g>
<!-- Node31&#45;&gt;Node15 -->
<g id="edge69" class="edge">
<title>Node31&#45;&gt;Node15</title>
<path fill="none" stroke="midnightblue" d="M728.46,-485.18C741.63,-483.38 759.18,-480.99 775.23,-478.8"/>
<polygon fill="midnightblue" stroke="midnightblue" points="776.06,-482.22 785.5,-477.4 775.11,-475.28 776.06,-482.22"/>
</g>
<!-- Node31&#45;&gt;Node31 -->
<g id="edge70" class="edge">
<title>Node31&#45;&gt;Node31</title>
<path fill="none" stroke="midnightblue" d="M689.51,-497.76C681.11,-506.57 686.87,-516 706.77,-516 719.21,-516 726.13,-512.31 727.51,-507.4"/>
<polygon fill="midnightblue" stroke="midnightblue" points="730.72,-505.98 724.03,-497.76 724.13,-508.35 730.72,-505.98"/>
</g>
<!-- Node32&#45;&gt;Node32 -->
<g id="edge75" class="edge">
<title>Node32&#45;&gt;Node32</title>
<path fill="none" stroke="midnightblue" d="M132.54,-84.76C122.95,-93.57 129.52,-103 152.27,-103 166.85,-103 174.78,-99.13 176.08,-94.03"/>
<polygon fill="midnightblue" stroke="midnightblue" points="179.23,-92.5 172,-84.76 172.83,-95.32 179.23,-92.5"/>
</g>
<!-- Node33 -->
<g id="node33" class="node">
<title>Node33</title>
<g id="a_node33"><a xlink:href="spsmat_8f90.html#a029deb1b6e086ff346f36f5c61d0c1b2" target="_top" xlink:title="add the content from the queue to the real matrices">
<polygon fill="white" stroke="black" points="269.27,-0.5 269.27,-19.5 316.27,-19.5 316.27,-0.5 269.27,-0.5"/>
<text text-anchor="middle" x="292.77" y="-7.5" font-family="Helvetica,sans-Serif" font-size="10.00">addline</text>
</a>
</g>
</g>
<!-- Node32&#45;&gt;Node33 -->
<g id="edge72" class="edge">
<title>Node32&#45;&gt;Node33</title>
<path fill="none" stroke="midnightblue" d="M177.03,-70.63C190.46,-67.61 207.31,-62.88 221.27,-56 239.21,-47.16 240.47,-39.85 257.27,-29 259.56,-27.52 261.98,-26.04 264.42,-24.6"/>
<polygon fill="midnightblue" stroke="midnightblue" points="266.27,-27.57 273.23,-19.59 262.81,-21.49 266.27,-27.57"/>
</g>
<!-- Node34 -->
<g id="node34" class="node">
<title>Node34</title>
<g id="a_node34"><a xlink:href="spsmat_8f90.html#ab8d57e74b7461b1d2781c5d56dea6120" target="_top" xlink:title="clean the queue">
<polygon fill="white" stroke="black" points="257.27,-76.5 257.27,-95.5 328.27,-95.5 328.27,-76.5 257.27,-76.5"/>
<text text-anchor="middle" x="292.77" y="-83.5" font-family="Helvetica,sans-Serif" font-size="10.00">clean_queue</text>
</a>
</g>
</g>
<!-- Node32&#45;&gt;Node34 -->
<g id="edge73" class="edge">
<title>Node32&#45;&gt;Node34</title>
<path fill="none" stroke="midnightblue" d="M177.08,-76.89C196.28,-78.42 223.83,-80.6 247.11,-82.45"/>
<polygon fill="midnightblue" stroke="midnightblue" points="246.88,-85.95 257.13,-83.25 247.44,-78.97 246.88,-85.95"/>
</g>
<!-- Node35 -->
<g id="node35" class="node">
<title>Node35</title>
<g id="a_node35"><a xlink:href="spsmat_8f90.html#a6c4c1ca7c194a5116f2d358c2065ce00" target="_top" xlink:title="push a new element at the back of the queue">
<polygon fill="white" stroke="black" points="260.77,-38.5 260.77,-57.5 324.77,-57.5 324.77,-38.5 260.77,-38.5"/>
<text text-anchor="middle" x="292.77" y="-45.5" font-family="Helvetica,sans-Serif" font-size="10.00">push_back</text>
</a>
</g>
</g>
<!-- Node32&#45;&gt;Node35 -->
<g id="edge74" class="edge">
<title>Node32&#45;&gt;Node35</title>
<path fill="none" stroke="midnightblue" d="M177.08,-70.36C197.32,-66.41 226.82,-60.66 250.83,-55.98"/>
<polygon fill="midnightblue" stroke="midnightblue" points="251.6,-59.4 260.75,-54.05 250.26,-52.53 251.6,-59.4"/>
</g>
</g>
</svg>
