<?xml version="1.0" encoding="UTF-8" standalone="no"?>
<!DOCTYPE svg PUBLIC "-//W3C//DTD SVG 1.1//EN"
 "http://www.w3.org/Graphics/SVG/1.1/DTD/svg11.dtd">
<!-- Generated by graphviz version 2.44.0 ()
 -->
<!-- Title: dfp100 Pages: 1 -->
<svg width="1042pt" height="744pt"
 viewBox="0.00 0.00 1042.00 744.00" xmlns="http://www.w3.org/2000/svg" xmlns:xlink="http://www.w3.org/1999/xlink">
<g id="graph0" class="graph" transform="scale(1 1) rotate(0) translate(4 740)">
<title>dfp100</title>
<polygon fill="white" stroke="transparent" points="-4,4 -4,-740 1038,-740 1038,4 -4,4"/>
<!-- Node1 -->
<g id="node1" class="node">
<title>Node1</title>
<g id="a_node1"><a xlink:title="Split the work between MPI nodes and evaluate the global constraint.">
<polygon fill="#bfbfbf" stroke="black" points="0,-408.5 0,-427.5 46,-427.5 46,-408.5 0,-408.5"/>
<text text-anchor="middle" x="23" y="-415.5" font-family="Helvetica,sans-Serif" font-size="10.00">dfp100</text>
</a>
</g>
</g>
<!-- Node2 -->
<g id="node2" class="node">
<title>Node2</title>
<g id="a_node2"><a xlink:href="memory_8f90.html#a8a98304f95fee4429a60a58050e999b8" target="_top" xlink:title="allocate Beltrami matrices">
<polygon fill="white" stroke="black" points="84.5,-716.5 84.5,-735.5 217.5,-735.5 217.5,-716.5 84.5,-716.5"/>
<text text-anchor="middle" x="151" y="-723.5" font-family="Helvetica,sans-Serif" font-size="10.00">allocate_beltrami_matrices</text>
</a>
</g>
</g>
<!-- Node1&#45;&gt;Node2 -->
<g id="edge1" class="edge">
<title>Node1&#45;&gt;Node2</title>
<path fill="none" stroke="midnightblue" d="M24.6,-427.53C27.64,-472.68 42.75,-664.71 82,-707 83.23,-708.33 84.55,-709.57 85.94,-710.72"/>
<polygon fill="midnightblue" stroke="midnightblue" points="84.29,-713.83 94.56,-716.45 88.17,-708 84.29,-713.83"/>
</g>
<!-- Node3 -->
<g id="node3" class="node">
<title>Node3</title>
<g id="a_node3"><a xlink:href="memory_8f90.html#a91ea75b56a77c048841932a601482f78" target="_top" xlink:title="allocate geometry matrices">
<polygon fill="white" stroke="black" points="82,-678.5 82,-697.5 220,-697.5 220,-678.5 82,-678.5"/>
<text text-anchor="middle" x="151" y="-685.5" font-family="Helvetica,sans-Serif" font-size="10.00">allocate_geometry_matrices</text>
</a>
</g>
</g>
<!-- Node1&#45;&gt;Node3 -->
<g id="edge2" class="edge">
<title>Node1&#45;&gt;Node3</title>
<path fill="none" stroke="midnightblue" d="M25.04,-427.67C29.65,-468.66 49.39,-627.67 82,-664 85.47,-667.86 89.59,-671.1 94.07,-673.82"/>
<polygon fill="midnightblue" stroke="midnightblue" points="92.55,-676.97 103.05,-678.43 95.75,-670.75 92.55,-676.97"/>
</g>
<!-- Node4 -->
<g id="node4" class="node">
<title>Node4</title>
<g id="a_node4"><a xlink:href="metrix_8f90.html#a80c802cda076dd9e7031bc5f9098c175" target="_top" xlink:title="compute guvijsave">
<polygon fill="white" stroke="black" points="767,-526.5 767,-545.5 868,-545.5 868,-526.5 767,-526.5"/>
<text text-anchor="middle" x="817.5" y="-533.5" font-family="Helvetica,sans-Serif" font-size="10.00">compute_guvijsave</text>
</a>
</g>
</g>
<!-- Node1&#45;&gt;Node4 -->
<g id="edge3" class="edge">
<title>Node1&#45;&gt;Node4</title>
<path fill="none" stroke="midnightblue" d="M24.82,-427.67C27.55,-453.36 38.82,-523.48 82,-555 157.15,-609.87 197.45,-574 290.5,-574 290.5,-574 290.5,-574 579,-574 645.91,-574 722.11,-559.11 769.76,-547.97"/>
<polygon fill="midnightblue" stroke="midnightblue" points="770.85,-551.31 779.77,-545.59 769.23,-544.5 770.85,-551.31"/>
</g>
<!-- Node6 -->
<g id="node6" class="node">
<title>Node6</title>
<g id="a_node6"><a xlink:href="group__grp__volume.html#gae4c62d20b8fef07f4471b5b0889ab005" target="_top" xlink:title="Computes volume of each region; and, if required, the derivatives of the volume with respect to the i...">
<polygon fill="white" stroke="black" points="986,-564.5 986,-583.5 1034,-583.5 1034,-564.5 986,-564.5"/>
<text text-anchor="middle" x="1010" y="-571.5" font-family="Helvetica,sans-Serif" font-size="10.00">volume</text>
</a>
</g>
</g>
<!-- Node1&#45;&gt;Node6 -->
<g id="edge48" class="edge">
<title>Node1&#45;&gt;Node6</title>
<path fill="none" stroke="midnightblue" d="M23.46,-427.86C22.27,-460.76 23.23,-567.58 82,-619 152.51,-680.69 196.81,-650 290.5,-650 290.5,-650 290.5,-650 818.5,-650 883.27,-650 952.17,-611.63 986.64,-589.42"/>
<polygon fill="midnightblue" stroke="midnightblue" points="988.99,-592.06 995.41,-583.63 985.14,-586.21 988.99,-592.06"/>
</g>
<!-- Node7 -->
<g id="node7" class="node">
<title>Node7</title>
<g id="a_node7"><a xlink:href="group__grp__currents.html#gacaf4411e0ba378631dcd2ccb3752e452" target="_top" xlink:title="Computes the plasma current, , and the &quot;linking&quot; current, .">
<polygon fill="white" stroke="black" points="397.5,-114.5 397.5,-133.5 441.5,-133.5 441.5,-114.5 397.5,-114.5"/>
<text text-anchor="middle" x="419.5" y="-121.5" font-family="Helvetica,sans-Serif" font-size="10.00">curent</text>
</a>
</g>
</g>
<!-- Node1&#45;&gt;Node7 -->
<g id="edge7" class="edge">
<title>Node1&#45;&gt;Node7</title>
<path fill="none" stroke="midnightblue" d="M24.01,-408.31C24.55,-376.83 30.44,-276.21 82,-219 162.46,-129.72 319.72,-121.71 386.88,-122.67"/>
<polygon fill="midnightblue" stroke="midnightblue" points="387.15,-126.18 397.23,-122.9 387.31,-119.18 387.15,-126.18"/>
</g>
<!-- Node8 -->
<g id="node8" class="node">
<title>Node8</title>
<g id="a_node8"><a xlink:href="memory_8f90.html#a4591e03fce625b2a91ab6d970a3a1ede" target="_top" xlink:title="deallocate Beltrami matrices">
<polygon fill="white" stroke="black" points="100.5,-515 100.5,-545 201.5,-545 201.5,-515 100.5,-515"/>
<text text-anchor="start" x="108.5" y="-533" font-family="Helvetica,sans-Serif" font-size="10.00">deallocate_beltrami</text>
<text text-anchor="middle" x="151" y="-522" font-family="Helvetica,sans-Serif" font-size="10.00">_matrices</text>
</a>
</g>
</g>
<!-- Node1&#45;&gt;Node8 -->
<g id="edge9" class="edge">
<title>Node1&#45;&gt;Node8</title>
<path fill="none" stroke="midnightblue" d="M27.87,-427.69C35.54,-445.68 54.33,-484.36 82,-506 84.93,-508.29 88.1,-510.38 91.42,-512.27"/>
<polygon fill="midnightblue" stroke="midnightblue" points="89.95,-515.45 100.45,-516.85 93.11,-509.21 89.95,-515.45"/>
</g>
<!-- Node9 -->
<g id="node9" class="node">
<title>Node9</title>
<g id="a_node9"><a xlink:href="memory_8f90.html#a7b3f3dc45c42c50c1db3cc7e354031a2" target="_top" xlink:title="deallocate geometry matrices">
<polygon fill="white" stroke="black" points="98,-466 98,-496 204,-496 204,-466 98,-466"/>
<text text-anchor="start" x="106" y="-484" font-family="Helvetica,sans-Serif" font-size="10.00">deallocate_geometry</text>
<text text-anchor="middle" x="151" y="-473" font-family="Helvetica,sans-Serif" font-size="10.00">_matrices</text>
</a>
</g>
</g>
<!-- Node1&#45;&gt;Node9 -->
<g id="edge10" class="edge">
<title>Node1&#45;&gt;Node9</title>
<path fill="none" stroke="midnightblue" d="M40.01,-427.69C51.52,-434.52 67.51,-443.71 82,-451 89.29,-454.67 97.13,-458.36 104.81,-461.83"/>
<polygon fill="midnightblue" stroke="midnightblue" points="103.48,-465.07 114.04,-465.95 106.33,-458.68 103.48,-465.07"/>
</g>
<!-- Node10 -->
<g id="node10" class="node">
<title>Node10</title>
<g id="a_node10"><a xlink:href="intghs_8f90.html#ae10091a51178071d12004da4952104d4" target="_top" xlink:title="free workspace">
<polygon fill="white" stroke="black" points="512,-456.5 512,-475.5 644,-475.5 644,-456.5 512,-456.5"/>
<text text-anchor="middle" x="578" y="-463.5" font-family="Helvetica,sans-Serif" font-size="10.00">intghs_workspace_destroy</text>
</a>
</g>
</g>
<!-- Node1&#45;&gt;Node10 -->
<g id="edge11" class="edge">
<title>Node1&#45;&gt;Node10</title>
<path fill="none" stroke="midnightblue" d="M46.02,-419.91C121.81,-426.49 374.22,-448.4 501.8,-459.47"/>
<polygon fill="midnightblue" stroke="midnightblue" points="501.62,-462.97 511.89,-460.35 502.23,-456 501.62,-462.97"/>
</g>
<!-- Node14 -->
<g id="node14" class="node">
<title>Node14</title>
<g id="a_node14"><a xlink:href="intghs_8f90.html#ae8299d4625cabd90eb1398fd2cd38089" target="_top" xlink:title="init workspace">
<polygon fill="white" stroke="black" points="363,-418.5 363,-437.5 476,-437.5 476,-418.5 363,-418.5"/>
<text text-anchor="middle" x="419.5" y="-425.5" font-family="Helvetica,sans-Serif" font-size="10.00">intghs_workspace_init</text>
</a>
</g>
</g>
<!-- Node1&#45;&gt;Node14 -->
<g id="edge16" class="edge">
<title>Node1&#45;&gt;Node14</title>
<path fill="none" stroke="midnightblue" d="M46.06,-418.56C103.94,-420.03 261.98,-424.03 352.5,-426.33"/>
<polygon fill="midnightblue" stroke="midnightblue" points="352.57,-429.83 362.66,-426.58 352.75,-422.83 352.57,-429.83"/>
</g>
<!-- Node15 -->
<g id="node15" class="node">
<title>Node15</title>
<g id="a_node15"><a xlink:href="namespaceallglobal.html#aea1f5a74462533337cb950b8d7486b25" target="_top" xlink:title="Check if volume vvol is associated to the corresponding MPI node.">
<polygon fill="white" stroke="black" points="97,-351.5 97,-370.5 205,-370.5 205,-351.5 97,-351.5"/>
<text text-anchor="middle" x="151" y="-358.5" font-family="Helvetica,sans-Serif" font-size="10.00">allglobal::ismyvolume</text>
</a>
</g>
</g>
<!-- Node1&#45;&gt;Node15 -->
<g id="edge18" class="edge">
<title>Node1&#45;&gt;Node15</title>
<path fill="none" stroke="midnightblue" d="M39.36,-408.26C50.83,-401.24 67.03,-391.83 82,-385 90.88,-380.95 100.65,-377.14 109.95,-373.8"/>
<polygon fill="midnightblue" stroke="midnightblue" points="111.12,-377.1 119.42,-370.5 108.82,-370.49 111.12,-377.1"/>
</g>
<!-- Node16 -->
<g id="node16" class="node">
<title>Node16</title>
<g id="a_node16"><a xlink:href="group__grp__integrals.html#ga400af9e33dd5465ff9a4bba9fbf91108" target="_top" xlink:title="Calculates volume integrals of Chebyshev polynomials and metric element products.">
<polygon fill="white" stroke="black" points="680,-602.5 680,-621.5 731,-621.5 731,-602.5 680,-602.5"/>
<text text-anchor="middle" x="705.5" y="-609.5" font-family="Helvetica,sans-Serif" font-size="10.00">ma00aa</text>
</a>
</g>
</g>
<!-- Node1&#45;&gt;Node16 -->
<g id="edge19" class="edge">
<title>Node1&#45;&gt;Node16</title>
<path fill="none" stroke="midnightblue" d="M23.99,-427.66C24.53,-457.16 30.52,-546.52 82,-588 154.63,-646.53 197.22,-612 290.5,-612 290.5,-612 290.5,-612 420.5,-612 510.22,-612 615.88,-612 669.49,-612"/>
<polygon fill="midnightblue" stroke="midnightblue" points="669.81,-615.5 679.81,-612 669.81,-608.5 669.81,-615.5"/>
</g>
<!-- Node18 -->
<g id="node18" class="node">
<title>Node18</title>
<g id="a_node18"><a xlink:href="group__grp__solver__driver.html#gacad623d4c5c006e9ad10116372f92ad3" target="_top" xlink:title="Constructs Beltrami field in given volume consistent with flux, helicity, rotational&#45;transform and/or...">
<polygon fill="white" stroke="black" points="125.5,-266.5 125.5,-285.5 176.5,-285.5 176.5,-266.5 125.5,-266.5"/>
<text text-anchor="middle" x="151" y="-273.5" font-family="Helvetica,sans-Serif" font-size="10.00">ma02aa</text>
</a>
</g>
</g>
<!-- Node1&#45;&gt;Node18 -->
<g id="edge25" class="edge">
<title>Node1&#45;&gt;Node18</title>
<path fill="none" stroke="midnightblue" d="M26.88,-408.28C33.45,-387.55 51.44,-338.45 82,-309 91.52,-299.82 104.09,-292.76 115.82,-287.56"/>
<polygon fill="midnightblue" stroke="midnightblue" points="117.48,-290.67 125.4,-283.63 114.82,-284.19 117.48,-290.67"/>
</g>
<!-- Node27 -->
<g id="node27" class="node">
<title>Node27</title>
<g id="a_node27"><a xlink:href="group__grp__build__matrices.html#ga1c52bb6dbffdb432550aae12b096080f" target="_top" xlink:title="Constructs energy and helicity matrices that represent the Beltrami linear system....">
<polygon fill="white" stroke="black" points="129.5,-228.5 129.5,-247.5 172.5,-247.5 172.5,-228.5 129.5,-228.5"/>
<text text-anchor="middle" x="151" y="-235.5" font-family="Helvetica,sans-Serif" font-size="10.00">matrix</text>
</a>
</g>
</g>
<!-- Node1&#45;&gt;Node27 -->
<g id="edge40" class="edge">
<title>Node1&#45;&gt;Node27</title>
<path fill="none" stroke="midnightblue" d="M24.52,-408.39C26.55,-380.6 36.3,-299.47 82,-257 92.13,-247.58 106.54,-242.78 119.49,-240.35"/>
<polygon fill="midnightblue" stroke="midnightblue" points="120.08,-243.8 129.45,-238.86 119.05,-236.87 120.08,-243.8"/>
</g>
<!-- Node28 -->
<g id="node28" class="node">
<title>Node28</title>
<g id="a_node28"><a xlink:href="group__grp__integrals.html#ga01df49c498752e8a4201cc6eb5e283af" target="_top" xlink:title="Calculates volume integrals of Chebyshev&#45;polynomials and metric elements for preconditioner.">
<polygon fill="white" stroke="black" points="684,-404.5 684,-423.5 727,-423.5 727,-404.5 684,-404.5"/>
<text text-anchor="middle" x="705.5" y="-411.5" font-family="Helvetica,sans-Serif" font-size="10.00">spsint</text>
</a>
</g>
</g>
<!-- Node1&#45;&gt;Node28 -->
<g id="edge41" class="edge">
<title>Node1&#45;&gt;Node28</title>
<path fill="none" stroke="midnightblue" d="M27.94,-408.24C35.48,-391.08 53.73,-355.99 82,-342 136.97,-314.8 158.83,-337.48 220,-342 392.93,-354.78 597.76,-392.88 673.96,-407.86"/>
<polygon fill="midnightblue" stroke="midnightblue" points="673.36,-411.3 683.84,-409.81 674.71,-404.44 673.36,-411.3"/>
</g>
<!-- Node29 -->
<g id="node29" class="node">
<title>Node29</title>
<g id="a_node29"><a xlink:href="group__grp__build__matrices.html#ga4d521a46a64530ade50e6b79a33e1452" target="_top" xlink:title="Constructs matrices for the precondtioner.">
<polygon fill="white" stroke="black" points="126.5,-76.5 126.5,-95.5 175.5,-95.5 175.5,-76.5 126.5,-76.5"/>
<text text-anchor="middle" x="151" y="-83.5" font-family="Helvetica,sans-Serif" font-size="10.00">spsmat</text>
</a>
</g>
</g>
<!-- Node1&#45;&gt;Node29 -->
<g id="edge44" class="edge">
<title>Node1&#45;&gt;Node29</title>
<path fill="none" stroke="midnightblue" d="M24.55,-408.23C27.42,-360.98 41.98,-156.68 82,-110 90.75,-99.8 104.11,-93.94 116.68,-90.56"/>
<polygon fill="midnightblue" stroke="midnightblue" points="117.5,-93.97 126.49,-88.36 115.96,-87.14 117.5,-93.97"/>
</g>
<!-- Node33 -->
<g id="node33" class="node">
<title>Node33</title>
<g id="a_node33"><a xlink:href="namespaceallglobal.html#ad2dbd21d0579d623a92119c5ab553c7c" target="_top" xlink:title="Returns which MPI node is associated to a given volume.">
<polygon fill="white" stroke="black" points="98.5,-38.5 98.5,-57.5 203.5,-57.5 203.5,-38.5 98.5,-38.5"/>
<text text-anchor="middle" x="151" y="-45.5" font-family="Helvetica,sans-Serif" font-size="10.00">allglobal::whichcpuid</text>
</a>
</g>
</g>
<!-- Node1&#45;&gt;Node33 -->
<g id="edge49" class="edge">
<title>Node1&#45;&gt;Node33</title>
<path fill="none" stroke="midnightblue" d="M24.24,-408.2C25.71,-356.88 34.99,-119.42 82,-67 84.25,-64.49 86.8,-62.3 89.56,-60.39"/>
<polygon fill="midnightblue" stroke="midnightblue" points="91.37,-63.39 98.39,-55.46 87.95,-57.28 91.37,-63.39"/>
</g>
<!-- Node5 -->
<g id="node5" class="node">
<title>Node5</title>
<g id="a_node5"><a xlink:href="group__grp__geometry.html#gaaca20aa60eaf39055f3c9d5c02a24ac2" target="_top" xlink:title="Calculates coordinates, , and metrics, using FFTs.">
<polygon fill="white" stroke="black" points="904,-545.5 904,-564.5 950,-564.5 950,-545.5 904,-545.5"/>
<text text-anchor="middle" x="927" y="-552.5" font-family="Helvetica,sans-Serif" font-size="10.00">coords</text>
</a>
</g>
</g>
<!-- Node4&#45;&gt;Node5 -->
<g id="edge4" class="edge">
<title>Node4&#45;&gt;Node5</title>
<path fill="none" stroke="midnightblue" d="M868.16,-544.78C876.88,-546.32 885.75,-547.89 893.83,-549.31"/>
<polygon fill="midnightblue" stroke="midnightblue" points="893.47,-552.81 903.93,-551.1 894.69,-545.91 893.47,-552.81"/>
</g>
<!-- Node5&#45;&gt;Node6 -->
<g id="edge5" class="edge">
<title>Node5&#45;&gt;Node6</title>
<path fill="none" stroke="midnightblue" d="M950.13,-554.1C960.21,-555.69 972.22,-558.42 982.75,-561.48"/>
<polygon fill="midnightblue" stroke="midnightblue" points="981.7,-564.82 992.29,-564.5 983.81,-558.14 981.7,-564.82"/>
</g>
<!-- Node6&#45;&gt;Node5 -->
<g id="edge6" class="edge">
<title>Node6&#45;&gt;Node5</title>
<path fill="none" stroke="midnightblue" d="M985.79,-574.73C975.97,-573.12 964.49,-570.49 954.35,-567.55"/>
<polygon fill="midnightblue" stroke="midnightblue" points="955.37,-564.2 944.78,-564.53 953.27,-570.88 955.37,-564.2"/>
</g>
<!-- Node7&#45;&gt;Node5 -->
<g id="edge8" class="edge">
<title>Node7&#45;&gt;Node5</title>
<path fill="none" stroke="midnightblue" d="M441.68,-122.1C495.49,-118.39 639.64,-115.6 731,-181 858.51,-272.27 909.14,-472.54 922.29,-535.59"/>
<polygon fill="midnightblue" stroke="midnightblue" points="918.86,-536.3 924.26,-545.41 925.73,-534.92 918.86,-536.3"/>
</g>
<!-- Node11 -->
<g id="node11" class="node">
<title>Node11</title>
<g id="a_node11"><a xlink:href="intghs_8f90.html#a21d3b7106371783302e68297f7797e9f" target="_top" xlink:title="Calculates volume integrals of Chebyshev polynomials and covariant field products.">
<polygon fill="white" stroke="black" points="684,-442.5 684,-461.5 727,-461.5 727,-442.5 684,-442.5"/>
<text text-anchor="middle" x="705.5" y="-449.5" font-family="Helvetica,sans-Serif" font-size="10.00">intghs</text>
</a>
</g>
</g>
<!-- Node10&#45;&gt;Node11 -->
<g id="edge12" class="edge">
<title>Node10&#45;&gt;Node11</title>
<path fill="none" stroke="midnightblue" d="M644.32,-458.71C654.68,-457.56 664.95,-456.41 673.99,-455.4"/>
<polygon fill="midnightblue" stroke="midnightblue" points="674.42,-458.88 683.97,-454.29 673.64,-451.92 674.42,-458.88"/>
</g>
<!-- Node11&#45;&gt;Node4 -->
<g id="edge13" class="edge">
<title>Node11&#45;&gt;Node4</title>
<path fill="none" stroke="midnightblue" d="M717.41,-461.52C729.35,-471.81 749.16,-488.54 767,-502 775.31,-508.27 784.67,-514.82 793,-520.48"/>
<polygon fill="midnightblue" stroke="midnightblue" points="791.28,-523.54 801.53,-526.22 795.18,-517.74 791.28,-523.54"/>
</g>
<!-- Node12 -->
<g id="node12" class="node">
<title>Node12</title>
<g id="a_node12"><a xlink:href="basefn_8f90.html#af6a4cad04c70bfb14fd18a3bfbc843a3" target="_top" xlink:title="Get the Chebyshev polynomials with zeroth, first derivatives.">
<polygon fill="white" stroke="black" points="787,-435.5 787,-454.5 848,-454.5 848,-435.5 787,-435.5"/>
<text text-anchor="middle" x="817.5" y="-442.5" font-family="Helvetica,sans-Serif" font-size="10.00">get_cheby</text>
</a>
</g>
</g>
<!-- Node11&#45;&gt;Node12 -->
<g id="edge14" class="edge">
<title>Node11&#45;&gt;Node12</title>
<path fill="none" stroke="midnightblue" d="M727.19,-450.68C741.11,-449.8 759.9,-448.6 776.66,-447.54"/>
<polygon fill="midnightblue" stroke="midnightblue" points="777.01,-451.02 786.77,-446.89 776.56,-444.03 777.01,-451.02"/>
</g>
<!-- Node13 -->
<g id="node13" class="node">
<title>Node13</title>
<g id="a_node13"><a xlink:href="basefn_8f90.html#a38dc596fb909186b01dacc1feac03164" target="_top" xlink:title="Get the Zernike polynomials &#160;with zeroth, first derivatives.">
<polygon fill="white" stroke="black" points="784.5,-473.5 784.5,-492.5 850.5,-492.5 850.5,-473.5 784.5,-473.5"/>
<text text-anchor="middle" x="817.5" y="-480.5" font-family="Helvetica,sans-Serif" font-size="10.00">get_zernike</text>
</a>
</g>
</g>
<!-- Node11&#45;&gt;Node13 -->
<g id="edge15" class="edge">
<title>Node11&#45;&gt;Node13</title>
<path fill="none" stroke="midnightblue" d="M727.19,-457.83C740.49,-461.58 758.24,-466.58 774.41,-471.14"/>
<polygon fill="midnightblue" stroke="midnightblue" points="773.65,-474.56 784.22,-473.9 775.55,-467.82 773.65,-474.56"/>
</g>
<!-- Node14&#45;&gt;Node11 -->
<g id="edge17" class="edge">
<title>Node14&#45;&gt;Node11</title>
<path fill="none" stroke="midnightblue" d="M476.27,-432.71C535.32,-437.7 626.38,-445.4 673.65,-449.39"/>
<polygon fill="midnightblue" stroke="midnightblue" points="673.6,-452.9 683.86,-450.26 674.19,-445.93 673.6,-452.9"/>
</g>
<!-- Node16&#45;&gt;Node4 -->
<g id="edge20" class="edge">
<title>Node16&#45;&gt;Node4</title>
<path fill="none" stroke="midnightblue" d="M716.32,-602.35C731.96,-587.04 761.32,-558.57 767,-555 770.11,-553.05 773.44,-551.24 776.87,-549.59"/>
<polygon fill="midnightblue" stroke="midnightblue" points="778.28,-552.79 786.02,-545.55 775.46,-546.38 778.28,-552.79"/>
</g>
<!-- Node16&#45;&gt;Node6 -->
<g id="edge24" class="edge">
<title>Node16&#45;&gt;Node6</title>
<path fill="none" stroke="midnightblue" d="M731.14,-609.23C762.83,-605.64 819.54,-599.11 868,-593 904.72,-588.37 946.77,-582.65 975.32,-578.7"/>
<polygon fill="midnightblue" stroke="midnightblue" points="976.14,-582.12 985.56,-577.28 975.18,-575.19 976.14,-582.12"/>
</g>
<!-- Node16&#45;&gt;Node12 -->
<g id="edge21" class="edge">
<title>Node16&#45;&gt;Node12</title>
<path fill="none" stroke="midnightblue" d="M707.79,-602.23C711.72,-576.15 725.93,-504.19 767,-464 770.11,-460.96 773.76,-458.39 777.64,-456.23"/>
<polygon fill="midnightblue" stroke="midnightblue" points="779.39,-459.28 786.97,-451.88 776.43,-452.93 779.39,-459.28"/>
</g>
<!-- Node16&#45;&gt;Node13 -->
<g id="edge22" class="edge">
<title>Node16&#45;&gt;Node13</title>
<path fill="none" stroke="midnightblue" d="M711.06,-602.22C719.93,-583.94 740.92,-544 767,-517 773.91,-509.84 782.56,-503.29 790.67,-497.9"/>
<polygon fill="midnightblue" stroke="midnightblue" points="792.6,-500.82 799.17,-492.52 788.85,-494.91 792.6,-500.82"/>
</g>
<!-- Node17 -->
<g id="node17" class="node">
<title>Node17</title>
<g id="a_node17"><a xlink:href="group__grp__metrics.html#ga254ce8e645c4110d77e3b3dbc3a89885" target="_top" xlink:title="Calculates the metric quantities, , which are required for the energy and helicity integrals.">
<polygon fill="white" stroke="black" points="796,-564.5 796,-583.5 839,-583.5 839,-564.5 796,-564.5"/>
<text text-anchor="middle" x="817.5" y="-571.5" font-family="Helvetica,sans-Serif" font-size="10.00">metrix</text>
</a>
</g>
</g>
<!-- Node16&#45;&gt;Node17 -->
<g id="edge23" class="edge">
<title>Node16&#45;&gt;Node17</title>
<path fill="none" stroke="midnightblue" d="M731.19,-603.47C747.5,-597.84 768.98,-590.42 786.3,-584.43"/>
<polygon fill="midnightblue" stroke="midnightblue" points="787.64,-587.67 795.95,-581.1 785.36,-581.06 787.64,-587.67"/>
</g>
<!-- Node19 -->
<g id="node19" class="node">
<title>Node19</title>
<g id="a_node19"><a xlink:href="group__grp__integrals.html#ga6d086e8d1af527def50b653b86e8373a" target="_top" xlink:title="Evaluates volume integrals, and their derivatives w.r.t. interface geometry, using &quot;packed&quot; format.">
<polygon fill="white" stroke="black" points="268.5,-228.5 268.5,-247.5 314.5,-247.5 314.5,-228.5 268.5,-228.5"/>
<text text-anchor="middle" x="291.5" y="-235.5" font-family="Helvetica,sans-Serif" font-size="10.00">df00ab</text>
</a>
</g>
</g>
<!-- Node18&#45;&gt;Node19 -->
<g id="edge26" class="edge">
<title>Node18&#45;&gt;Node19</title>
<path fill="none" stroke="midnightblue" d="M176.76,-269.21C199.6,-262.94 233.64,-253.6 258.53,-246.77"/>
<polygon fill="midnightblue" stroke="midnightblue" points="259.52,-250.13 268.24,-244.11 257.67,-243.38 259.52,-250.13"/>
</g>
<!-- Node20 -->
<g id="node20" class="node">
<title>Node20</title>
<g id="a_node20"><a xlink:href="group__grp__solver.html#ga6626839aff500f060beb5bce2b90c447" target="_top" xlink:title="Solves Beltrami/vacuum (linear) system, given matrices.unpacking fluxes, helicity multiplier">
<polygon fill="white" stroke="black" points="266,-266.5 266,-285.5 317,-285.5 317,-266.5 266,-266.5"/>
<text text-anchor="middle" x="291.5" y="-273.5" font-family="Helvetica,sans-Serif" font-size="10.00">mp00ac</text>
</a>
</g>
</g>
<!-- Node18&#45;&gt;Node20 -->
<g id="edge27" class="edge">
<title>Node18&#45;&gt;Node20</title>
<path fill="none" stroke="midnightblue" d="M176.76,-276C198.82,-276 231.32,-276 255.94,-276"/>
<polygon fill="midnightblue" stroke="midnightblue" points="255.95,-279.5 265.95,-276 255.95,-272.5 255.95,-279.5"/>
</g>
<!-- Node22 -->
<g id="node22" class="node">
<title>Node22</title>
<g id="a_node22"><a xlink:href="group__grp__packing.html#gaee2357e570aebf8559e169def6b619dd" target="_top" xlink:title="Packs and unpacks Beltrami field solution vector.">
<polygon fill="white" stroke="black" points="681.5,-190.5 681.5,-209.5 729.5,-209.5 729.5,-190.5 681.5,-190.5"/>
<text text-anchor="middle" x="705.5" y="-197.5" font-family="Helvetica,sans-Serif" font-size="10.00">packab</text>
</a>
</g>
</g>
<!-- Node18&#45;&gt;Node22 -->
<g id="edge39" class="edge">
<title>Node18&#45;&gt;Node22</title>
<path fill="none" stroke="midnightblue" d="M176.56,-272.45C190.09,-269.7 206.77,-264.97 220,-257 239.92,-244.99 235.06,-229.14 256,-219 397.02,-150.71 593.15,-177.96 670.86,-192.81"/>
<polygon fill="midnightblue" stroke="midnightblue" points="670.54,-196.31 681.02,-194.81 671.89,-189.44 670.54,-196.31"/>
</g>
<!-- Node20&#45;&gt;Node7 -->
<g id="edge28" class="edge">
<title>Node20&#45;&gt;Node7</title>
<path fill="none" stroke="midnightblue" d="M314.69,-266.36C319.12,-263.76 323.48,-260.64 327,-257 351.59,-231.56 343.03,-215.21 363,-186 374.24,-169.56 389.46,-152.86 401.12,-140.93"/>
<polygon fill="midnightblue" stroke="midnightblue" points="403.61,-143.39 408.19,-133.84 398.65,-138.45 403.61,-143.39"/>
</g>
<!-- Node20&#45;&gt;Node11 -->
<g id="edge29" class="edge">
<title>Node20&#45;&gt;Node11</title>
<path fill="none" stroke="midnightblue" d="M302.2,-285.7C315.1,-298.14 339.07,-319.69 363,-333 364.79,-334 590.82,-412.52 674.13,-441.45"/>
<polygon fill="midnightblue" stroke="midnightblue" points="673.18,-444.83 683.78,-444.81 675.48,-438.22 673.18,-444.83"/>
</g>
<!-- Node21 -->
<g id="node21" class="node">
<title>Node21</title>
<g id="a_node21"><a xlink:href="group__grp__build__matrices.html#ga6c22bb4322fbcc29cb17dcc90b56eacd" target="_top" xlink:title="Constructs matrices that represent the Beltrami linear system, matrix&#45;free.">
<polygon fill="white" stroke="black" points="682.5,-266.5 682.5,-285.5 728.5,-285.5 728.5,-266.5 682.5,-266.5"/>
<text text-anchor="middle" x="705.5" y="-273.5" font-family="Helvetica,sans-Serif" font-size="10.00">mtrxhs</text>
</a>
</g>
</g>
<!-- Node20&#45;&gt;Node21 -->
<g id="edge30" class="edge">
<title>Node20&#45;&gt;Node21</title>
<path fill="none" stroke="midnightblue" d="M317.3,-267.6C330.66,-263.51 347.54,-259.05 363,-257 486.81,-240.61 520.55,-238.07 644,-257 653.59,-258.47 663.75,-261.18 672.94,-264.1"/>
<polygon fill="midnightblue" stroke="midnightblue" points="671.88,-267.44 682.47,-267.31 674.11,-260.8 671.88,-267.44"/>
</g>
<!-- Node20&#45;&gt;Node22 -->
<g id="edge31" class="edge">
<title>Node20&#45;&gt;Node22</title>
<path fill="none" stroke="midnightblue" d="M310.49,-266.39C329.52,-256.3 357.54,-241.65 363,-240 472.13,-206.92 608.55,-200.93 670.76,-200.03"/>
<polygon fill="midnightblue" stroke="midnightblue" points="671.18,-203.52 681.15,-199.92 671.11,-196.52 671.18,-203.52"/>
</g>
<!-- Node23 -->
<g id="node23" class="node">
<title>Node23</title>
<g id="a_node23"><a xlink:href="mp00ac_8f90.html#a304edac43f63d39dda4419b4d044eac5" target="_top" xlink:title="run GMRES">
<polygon fill="white" stroke="black" points="391,-304.5 391,-323.5 448,-323.5 448,-304.5 391,-304.5"/>
<text text-anchor="middle" x="419.5" y="-311.5" font-family="Helvetica,sans-Serif" font-size="10.00">rungmres</text>
</a>
</g>
</g>
<!-- Node20&#45;&gt;Node23 -->
<g id="edge32" class="edge">
<title>Node20&#45;&gt;Node23</title>
<path fill="none" stroke="midnightblue" d="M317.09,-283.42C335.31,-288.91 360.46,-296.5 381.15,-302.74"/>
<polygon fill="midnightblue" stroke="midnightblue" points="380.32,-306.14 390.9,-305.68 382.34,-299.44 380.32,-306.14"/>
</g>
<!-- Node26 -->
<g id="node26" class="node">
<title>Node26</title>
<g id="a_node26"><a xlink:href="group__grp__transform.html#ga0e0447653b8da82f06748dd8831bc337" target="_top" xlink:title="Calculates rotational transform given an arbitrary tangential field.">
<polygon fill="white" stroke="black" points="397.5,-266.5 397.5,-285.5 441.5,-285.5 441.5,-266.5 397.5,-266.5"/>
<text text-anchor="middle" x="419.5" y="-273.5" font-family="Helvetica,sans-Serif" font-size="10.00">tr00ab</text>
</a>
</g>
</g>
<!-- Node20&#45;&gt;Node26 -->
<g id="edge38" class="edge">
<title>Node20&#45;&gt;Node26</title>
<path fill="none" stroke="midnightblue" d="M317.09,-276C337.16,-276 365.63,-276 387.29,-276"/>
<polygon fill="midnightblue" stroke="midnightblue" points="387.32,-279.5 397.32,-276 387.32,-272.5 387.32,-279.5"/>
</g>
<!-- Node24 -->
<g id="node24" class="node">
<title>Node24</title>
<g id="a_node24"><a xlink:href="mp00ac_8f90.html#ae9fe335bb4916face9f9d19ce8c0f5d7" target="_top" xlink:title="compute a.x by either by coumputing it directly, or using a matrix free method">
<polygon fill="white" stroke="black" points="553.5,-304.5 553.5,-323.5 602.5,-323.5 602.5,-304.5 553.5,-304.5"/>
<text text-anchor="middle" x="578" y="-311.5" font-family="Helvetica,sans-Serif" font-size="10.00">matvec</text>
</a>
</g>
</g>
<!-- Node23&#45;&gt;Node24 -->
<g id="edge33" class="edge">
<title>Node23&#45;&gt;Node24</title>
<path fill="none" stroke="midnightblue" d="M448.12,-314C474.57,-314 514.56,-314 542.97,-314"/>
<polygon fill="midnightblue" stroke="midnightblue" points="543.24,-317.5 553.24,-314 543.24,-310.5 543.24,-317.5"/>
</g>
<!-- Node25 -->
<g id="node25" class="node">
<title>Node25</title>
<g id="a_node25"><a xlink:href="mp00ac_8f90.html#a76cda97bf815eb7f40cb76ad1719d809" target="_top" xlink:title="apply the preconditioner">
<polygon fill="white" stroke="black" points="546,-266.5 546,-285.5 610,-285.5 610,-266.5 546,-266.5"/>
<text text-anchor="middle" x="578" y="-273.5" font-family="Helvetica,sans-Serif" font-size="10.00">prec_solve</text>
</a>
</g>
</g>
<!-- Node23&#45;&gt;Node25 -->
<g id="edge37" class="edge">
<title>Node23&#45;&gt;Node25</title>
<path fill="none" stroke="midnightblue" d="M448.12,-307.29C472.5,-301.37 508.38,-292.66 536.09,-285.93"/>
<polygon fill="midnightblue" stroke="midnightblue" points="537.01,-289.31 545.9,-283.55 535.36,-282.51 537.01,-289.31"/>
</g>
<!-- Node24&#45;&gt;Node11 -->
<g id="edge34" class="edge">
<title>Node24&#45;&gt;Node11</title>
<path fill="none" stroke="midnightblue" d="M602.67,-317.72C616.31,-320.97 632.9,-326.99 644,-338 676.06,-369.79 653.16,-396.69 680,-433 680.56,-433.76 681.16,-434.5 681.79,-435.23"/>
<polygon fill="midnightblue" stroke="midnightblue" points="679.63,-438.01 689.31,-442.32 684.43,-432.91 679.63,-438.01"/>
</g>
<!-- Node24&#45;&gt;Node21 -->
<g id="edge35" class="edge">
<title>Node24&#45;&gt;Node21</title>
<path fill="none" stroke="midnightblue" d="M602.5,-307.25C614.87,-303.67 630.27,-299.16 644,-295 653.36,-292.16 663.51,-289 672.78,-286.09"/>
<polygon fill="midnightblue" stroke="midnightblue" points="673.92,-289.4 682.41,-283.05 671.82,-282.73 673.92,-289.4"/>
</g>
<!-- Node24&#45;&gt;Node22 -->
<g id="edge36" class="edge">
<title>Node24&#45;&gt;Node22</title>
<path fill="none" stroke="midnightblue" d="M602.79,-311.22C615.97,-308.71 632.06,-303.97 644,-295 670.2,-275.32 688.03,-240.7 697.21,-219.13"/>
<polygon fill="midnightblue" stroke="midnightblue" points="700.52,-220.29 701.03,-209.71 694.03,-217.67 700.52,-220.29"/>
</g>
<!-- Node28&#45;&gt;Node12 -->
<g id="edge42" class="edge">
<title>Node28&#45;&gt;Node12</title>
<path fill="none" stroke="midnightblue" d="M727.19,-419.83C741.24,-423.79 760.25,-429.15 777.13,-433.91"/>
<polygon fill="midnightblue" stroke="midnightblue" points="776.19,-437.28 786.77,-436.62 778.09,-430.54 776.19,-437.28"/>
</g>
<!-- Node28&#45;&gt;Node13 -->
<g id="edge43" class="edge">
<title>Node28&#45;&gt;Node13</title>
<path fill="none" stroke="midnightblue" d="M719.06,-423.54C722.92,-426.53 727.17,-429.87 731,-433 747.35,-446.36 748.88,-453.17 767,-464 770.23,-465.93 773.7,-467.73 777.23,-469.39"/>
<polygon fill="midnightblue" stroke="midnightblue" points="776.1,-472.71 786.66,-473.46 778.87,-466.28 776.1,-472.71"/>
</g>
<!-- Node30 -->
<g id="node30" class="node">
<title>Node30</title>
<g id="a_node30"><a xlink:href="spsmat_8f90.html#a029deb1b6e086ff346f36f5c61d0c1b2" target="_top" xlink:title="add the content from the queue to the real matrices">
<polygon fill="white" stroke="black" points="268,-38.5 268,-57.5 315,-57.5 315,-38.5 268,-38.5"/>
<text text-anchor="middle" x="291.5" y="-45.5" font-family="Helvetica,sans-Serif" font-size="10.00">addline</text>
</a>
</g>
</g>
<!-- Node29&#45;&gt;Node30 -->
<g id="edge45" class="edge">
<title>Node29&#45;&gt;Node30</title>
<path fill="none" stroke="midnightblue" d="M175.81,-79.47C198.51,-73.24 232.88,-63.81 258.08,-56.89"/>
<polygon fill="midnightblue" stroke="midnightblue" points="259.2,-60.22 267.92,-54.2 257.35,-53.47 259.2,-60.22"/>
</g>
<!-- Node31 -->
<g id="node31" class="node">
<title>Node31</title>
<g id="a_node31"><a xlink:href="spsmat_8f90.html#ab8d57e74b7461b1d2781c5d56dea6120" target="_top" xlink:title="clean the queue">
<polygon fill="white" stroke="black" points="256,-0.5 256,-19.5 327,-19.5 327,-0.5 256,-0.5"/>
<text text-anchor="middle" x="291.5" y="-7.5" font-family="Helvetica,sans-Serif" font-size="10.00">clean_queue</text>
</a>
</g>
</g>
<!-- Node29&#45;&gt;Node31 -->
<g id="edge46" class="edge">
<title>Node29&#45;&gt;Node31</title>
<path fill="none" stroke="midnightblue" d="M175.6,-82.64C189.3,-79.92 206.46,-75.16 220,-67 239.92,-54.99 237.59,-43.23 256,-29 257.8,-27.61 259.72,-26.26 261.69,-24.96"/>
<polygon fill="midnightblue" stroke="midnightblue" points="263.74,-27.81 270.5,-19.65 260.13,-21.81 263.74,-27.81"/>
</g>
<!-- Node32 -->
<g id="node32" class="node">
<title>Node32</title>
<g id="a_node32"><a xlink:href="spsmat_8f90.html#a6c4c1ca7c194a5116f2d358c2065ce00" target="_top" xlink:title="push a new element at the back of the queue">
<polygon fill="white" stroke="black" points="259.5,-76.5 259.5,-95.5 323.5,-95.5 323.5,-76.5 259.5,-76.5"/>
<text text-anchor="middle" x="291.5" y="-83.5" font-family="Helvetica,sans-Serif" font-size="10.00">push_back</text>
</a>
</g>
</g>
<!-- Node29&#45;&gt;Node32 -->
<g id="edge47" class="edge">
<title>Node29&#45;&gt;Node32</title>
<path fill="none" stroke="midnightblue" d="M175.81,-86C195.95,-86 225.28,-86 249.24,-86"/>
<polygon fill="midnightblue" stroke="midnightblue" points="249.47,-89.5 259.47,-86 249.47,-82.5 249.47,-89.5"/>
</g>
</g>
</svg>
