<?xml version="1.0" encoding="UTF-8" standalone="no"?>
<!DOCTYPE svg PUBLIC "-//W3C//DTD SVG 1.1//EN"
 "http://www.w3.org/Graphics/SVG/1.1/DTD/svg11.dtd">
<!-- Generated by graphviz version 2.49.3 (20211027.1534)
 -->
<!-- Title: dfp100 Pages: 1 -->
<svg width="1043pt" height="816pt"
 viewBox="0.00 0.00 1043.27 816.00" xmlns="http://www.w3.org/2000/svg" xmlns:xlink="http://www.w3.org/1999/xlink">
<g id="graph0" class="graph" transform="scale(1 1) rotate(0) translate(4 812)">
<title>dfp100</title>
<polygon fill="white" stroke="transparent" points="-4,4 -4,-812 1039.27,-812 1039.27,4 -4,4"/>
<!-- Node1 -->
<g id="node1" class="node">
<title>Node1</title>
<g id="a_node1"><a xlink:title="Split the work between MPI nodes and evaluate the global constraint.">
<polygon fill="#bfbfbf" stroke="black" points="1.27,-473.5 1.27,-492.5 47.27,-492.5 47.27,-473.5 1.27,-473.5"/>
<text text-anchor="middle" x="24.27" y="-480.5" font-family="Helvetica,sans-Serif" font-size="10.00">dfp100</text>
</a>
</g>
</g>
<!-- Node1&#45;&gt;Node1 -->
<g id="edge16" class="edge">
<title>Node1&#45;&gt;Node1</title>
<path fill="none" stroke="midnightblue" d="M4.54,-492.76C-5.05,-501.57 1.52,-511 24.27,-511 38.85,-511 46.78,-507.13 48.08,-502.03"/>
<polygon fill="midnightblue" stroke="midnightblue" points="51.23,-500.5 44,-492.76 44.83,-503.32 51.23,-500.5"/>
</g>
<!-- Node2 -->
<g id="node2" class="node">
<title>Node2</title>
<g id="a_node2"><a xlink:href="memory_8f90.html#a8a98304f95fee4429a60a58050e999b8" target="_top" xlink:title="allocate Beltrami matrices">
<polygon fill="white" stroke="black" points="85.77,-788.5 85.77,-807.5 218.77,-807.5 218.77,-788.5 85.77,-788.5"/>
<text text-anchor="middle" x="152.27" y="-795.5" font-family="Helvetica,sans-Serif" font-size="10.00">allocate_beltrami_matrices</text>
</a>
</g>
</g>
<!-- Node1&#45;&gt;Node2 -->
<g id="edge1" class="edge">
<title>Node1&#45;&gt;Node2</title>
<path fill="none" stroke="midnightblue" d="M25.84,-492.76C28.72,-539 43.2,-735.63 83.27,-779 84.5,-780.33 85.82,-781.57 87.2,-782.73"/>
<polygon fill="midnightblue" stroke="midnightblue" points="85.55,-785.83 95.81,-788.47 89.43,-780.01 85.55,-785.83"/>
</g>
<!-- Node3 -->
<g id="node3" class="node">
<title>Node3</title>
<g id="a_node3"><a xlink:href="memory_8f90.html#a91ea75b56a77c048841932a601482f78" target="_top" xlink:title="allocate geometry matrices">
<polygon fill="white" stroke="black" points="83.27,-750.5 83.27,-769.5 221.27,-769.5 221.27,-750.5 83.27,-750.5"/>
<text text-anchor="middle" x="152.27" y="-757.5" font-family="Helvetica,sans-Serif" font-size="10.00">allocate_geometry_matrices</text>
</a>
</g>
</g>
<!-- Node1&#45;&gt;Node3 -->
<g id="edge2" class="edge">
<title>Node1&#45;&gt;Node3</title>
<path fill="none" stroke="midnightblue" d="M26.25,-492.66C30.64,-534.36 49.82,-698.51 83.27,-736 86.73,-739.87 90.84,-743.12 95.32,-745.84"/>
<polygon fill="midnightblue" stroke="midnightblue" points="93.79,-748.99 104.29,-750.46 97,-742.77 93.79,-748.99"/>
</g>
<!-- Node4 -->
<g id="node4" class="node">
<title>Node4</title>
<g id="a_node4"><a xlink:href="metrix_8f90.html#a80c802cda076dd9e7031bc5f9098c175" target="_top" xlink:title="compute guvijsave">
<polygon fill="white" stroke="black" points="768.27,-504.5 768.27,-523.5 869.27,-523.5 869.27,-504.5 768.27,-504.5"/>
<text text-anchor="middle" x="818.77" y="-511.5" font-family="Helvetica,sans-Serif" font-size="10.00">compute_guvijsave</text>
</a>
</g>
</g>
<!-- Node1&#45;&gt;Node4 -->
<g id="edge3" class="edge">
<title>Node1&#45;&gt;Node4</title>
<path fill="none" stroke="midnightblue" d="M24.91,-473.42C24.06,-438.16 25.49,-313.77 83.27,-238 147.31,-154.02 186.16,-124 291.77,-124 291.77,-124 291.77,-124 589.77,-124 657.98,-124 687.25,-129.75 732.27,-181 814.83,-274.97 819.52,-438.24 818.5,-494.38"/>
<polygon fill="midnightblue" stroke="midnightblue" points="815,-494.31 818.23,-504.4 822,-494.5 815,-494.31"/>
</g>
<!-- Node6 -->
<g id="node6" class="node">
<title>Node6</title>
<g id="a_node6"><a xlink:href="group__grp__volume.html#gae4c62d20b8fef07f4471b5b0889ab005" target="_top" xlink:title="Computes volume of each region; and, if required, the derivatives of the volume with respect to the i...">
<polygon fill="white" stroke="black" points="987.27,-561.5 987.27,-580.5 1035.27,-580.5 1035.27,-561.5 987.27,-561.5"/>
<text text-anchor="middle" x="1011.27" y="-568.5" font-family="Helvetica,sans-Serif" font-size="10.00">volume</text>
</a>
</g>
</g>
<!-- Node1&#45;&gt;Node6 -->
<g id="edge66" class="edge">
<title>Node1&#45;&gt;Node6</title>
<path fill="none" stroke="midnightblue" d="M24.88,-492.61C24.15,-524.71 26.4,-629.07 83.27,-681 153.01,-744.68 197.33,-722 291.77,-722 291.77,-722 291.77,-722 819.77,-722 904.16,-722 972.95,-629.87 999.02,-589.53"/>
<polygon fill="midnightblue" stroke="midnightblue" points="1002.08,-591.23 1004.45,-580.91 996.16,-587.5 1002.08,-591.23"/>
</g>
<!-- Node7 -->
<g id="node7" class="node">
<title>Node7</title>
<g id="a_node7"><a xlink:href="group__grp__currents.html#gacaf4411e0ba378631dcd2ccb3752e452" target="_top" xlink:title="Computes the plasma current, , and the &quot;linking&quot; current, .">
<polygon fill="white" stroke="black" points="408.27,-398.5 408.27,-417.5 452.27,-417.5 452.27,-398.5 408.27,-398.5"/>
<text text-anchor="middle" x="430.27" y="-405.5" font-family="Helvetica,sans-Serif" font-size="10.00">curent</text>
</a>
</g>
</g>
<!-- Node1&#45;&gt;Node7 -->
<g id="edge9" class="edge">
<title>Node1&#45;&gt;Node7</title>
<path fill="none" stroke="midnightblue" d="M29.21,-473.24C36.75,-456.08 55.01,-420.99 83.27,-407 188.59,-354.89 334.97,-383 398.18,-399.16"/>
<polygon fill="midnightblue" stroke="midnightblue" points="397.37,-402.57 407.94,-401.73 399.16,-395.8 397.37,-402.57"/>
</g>
<!-- Node9 -->
<g id="node9" class="node">
<title>Node9</title>
<g id="a_node9"><a xlink:href="memory_8f90.html#a4591e03fce625b2a91ab6d970a3a1ede" target="_top" xlink:title="deallocate Beltrami matrices">
<polygon fill="white" stroke="black" points="101.77,-580 101.77,-610 202.77,-610 202.77,-580 101.77,-580"/>
<text text-anchor="start" x="109.77" y="-598" font-family="Helvetica,sans-Serif" font-size="10.00">deallocate_beltrami</text>
<text text-anchor="middle" x="152.27" y="-587" font-family="Helvetica,sans-Serif" font-size="10.00">_matrices</text>
</a>
</g>
</g>
<!-- Node1&#45;&gt;Node9 -->
<g id="edge14" class="edge">
<title>Node1&#45;&gt;Node9</title>
<path fill="none" stroke="midnightblue" d="M29.15,-492.69C36.81,-510.68 55.6,-549.36 83.27,-571 86.21,-573.29 89.38,-575.38 92.69,-577.27"/>
<polygon fill="midnightblue" stroke="midnightblue" points="91.22,-580.45 101.72,-581.85 94.38,-574.21 91.22,-580.45"/>
</g>
<!-- Node10 -->
<g id="node10" class="node">
<title>Node10</title>
<g id="a_node10"><a xlink:href="memory_8f90.html#a7b3f3dc45c42c50c1db3cc7e354031a2" target="_top" xlink:title="deallocate geometry matrices">
<polygon fill="white" stroke="black" points="99.27,-531 99.27,-561 205.27,-561 205.27,-531 99.27,-531"/>
<text text-anchor="start" x="107.27" y="-549" font-family="Helvetica,sans-Serif" font-size="10.00">deallocate_geometry</text>
<text text-anchor="middle" x="152.27" y="-538" font-family="Helvetica,sans-Serif" font-size="10.00">_matrices</text>
</a>
</g>
</g>
<!-- Node1&#45;&gt;Node10 -->
<g id="edge15" class="edge">
<title>Node1&#45;&gt;Node10</title>
<path fill="none" stroke="midnightblue" d="M41.28,-492.69C52.8,-499.52 68.78,-508.71 83.27,-516 90.56,-519.67 98.41,-523.36 106.08,-526.83"/>
<polygon fill="midnightblue" stroke="midnightblue" points="104.75,-530.07 115.31,-530.95 107.6,-523.68 104.75,-530.07"/>
</g>
<!-- Node11 -->
<g id="node11" class="node">
<title>Node11</title>
<g id="a_node11"><a xlink:href="intghs_8f90.html#ae10091a51178071d12004da4952104d4" target="_top" xlink:title="free workspace.">
<polygon fill="white" stroke="black" points="364.27,-517.5 364.27,-536.5 496.27,-536.5 496.27,-517.5 364.27,-517.5"/>
<text text-anchor="middle" x="430.27" y="-524.5" font-family="Helvetica,sans-Serif" font-size="10.00">intghs_workspace_destroy</text>
</a>
</g>
</g>
<!-- Node1&#45;&gt;Node11 -->
<g id="edge17" class="edge">
<title>Node1&#45;&gt;Node11</title>
<path fill="none" stroke="midnightblue" d="M47.28,-485.4C104.47,-491.63 259.87,-508.55 353.91,-518.79"/>
<polygon fill="midnightblue" stroke="midnightblue" points="353.61,-522.28 363.93,-519.88 354.37,-515.32 353.61,-522.28"/>
</g>
<!-- Node15 -->
<g id="node15" class="node">
<title>Node15</title>
<g id="a_node15"><a xlink:href="intghs_8f90.html#ae8299d4625cabd90eb1398fd2cd38089" target="_top" xlink:title="init workspace">
<polygon fill="white" stroke="black" points="532.27,-504.5 532.27,-523.5 645.27,-523.5 645.27,-504.5 532.27,-504.5"/>
<text text-anchor="middle" x="588.77" y="-511.5" font-family="Helvetica,sans-Serif" font-size="10.00">intghs_workspace_init</text>
</a>
</g>
</g>
<!-- Node1&#45;&gt;Node15 -->
<g id="edge23" class="edge">
<title>Node1&#45;&gt;Node15</title>
<path fill="none" stroke="midnightblue" d="M47.33,-482.73C83.63,-482.4 158.21,-482.19 221.27,-485 326.63,-489.7 448.66,-500.41 521.95,-507.42"/>
<polygon fill="midnightblue" stroke="midnightblue" points="521.67,-510.91 531.96,-508.38 522.34,-503.94 521.67,-510.91"/>
</g>
<!-- Node16 -->
<g id="node16" class="node">
<title>Node16</title>
<g id="a_node16"><a xlink:href="namespaceallglobal.html#aea1f5a74462533337cb950b8d7486b25" target="_top" xlink:title="Check if volume vvol is associated to the corresponding MPI node.">
<polygon fill="white" stroke="black" points="98.27,-416.5 98.27,-435.5 206.27,-435.5 206.27,-416.5 98.27,-416.5"/>
<text text-anchor="middle" x="152.27" y="-423.5" font-family="Helvetica,sans-Serif" font-size="10.00">allglobal::ismyvolume</text>
</a>
</g>
</g>
<!-- Node1&#45;&gt;Node16 -->
<g id="edge25" class="edge">
<title>Node1&#45;&gt;Node16</title>
<path fill="none" stroke="midnightblue" d="M40.63,-473.26C52.1,-466.24 68.31,-456.83 83.27,-450 92.15,-445.95 101.92,-442.14 111.22,-438.8"/>
<polygon fill="midnightblue" stroke="midnightblue" points="112.4,-442.1 120.69,-435.5 110.09,-435.49 112.4,-442.1"/>
</g>
<!-- Node17 -->
<g id="node17" class="node">
<title>Node17</title>
<g id="a_node17"><a xlink:href="group__grp__integrals.html#ga400af9e33dd5465ff9a4bba9fbf91108" target="_top" xlink:title="Calculates volume integrals of Chebyshev polynomials and metric element products.">
<polygon fill="white" stroke="black" points="681.27,-618.5 681.27,-637.5 732.27,-637.5 732.27,-618.5 681.27,-618.5"/>
<text text-anchor="middle" x="706.77" y="-625.5" font-family="Helvetica,sans-Serif" font-size="10.00">ma00aa</text>
</a>
</g>
</g>
<!-- Node1&#45;&gt;Node17 -->
<g id="edge26" class="edge">
<title>Node1&#45;&gt;Node17</title>
<path fill="none" stroke="midnightblue" d="M25.39,-492.81C26.32,-521.92 33.35,-608.29 83.27,-649 155.73,-708.09 198.27,-677 291.77,-677 291.77,-677 291.77,-677 431.27,-677 518.86,-677 619.76,-652.52 671.4,-638.17"/>
<polygon fill="midnightblue" stroke="midnightblue" points="672.38,-641.53 681.06,-635.44 670.48,-634.79 672.38,-641.53"/>
</g>
<!-- Node19 -->
<g id="node19" class="node">
<title>Node19</title>
<g id="a_node19"><a xlink:href="group__grp__solver__driver.html#gacad623d4c5c006e9ad10116372f92ad3" target="_top" xlink:title="Constructs Beltrami field in given volume consistent with flux, helicity, rotational&#45;transform and/or...">
<polygon fill="white" stroke="black" points="126.77,-303.5 126.77,-322.5 177.77,-322.5 177.77,-303.5 126.77,-303.5"/>
<text text-anchor="middle" x="152.27" y="-310.5" font-family="Helvetica,sans-Serif" font-size="10.00">ma02aa</text>
</a>
</g>
</g>
<!-- Node1&#45;&gt;Node19 -->
<g id="edge34" class="edge">
<title>Node1&#45;&gt;Node19</title>
<path fill="none" stroke="midnightblue" d="M29.07,-473.3C37.13,-453.4 57.37,-407.08 83.27,-374 96.71,-356.83 115.33,-340.51 129.68,-329.08"/>
<polygon fill="midnightblue" stroke="midnightblue" points="132.24,-331.53 137.99,-322.63 127.94,-326 132.24,-331.53"/>
</g>
<!-- Node28 -->
<g id="node28" class="node">
<title>Node28</title>
<g id="a_node28"><a xlink:href="group__grp__build__matrices.html#ga1c52bb6dbffdb432550aae12b096080f" target="_top" xlink:title="Constructs energy and helicity matrices that represent the Beltrami linear system....">
<polygon fill="white" stroke="black" points="130.77,-247.5 130.77,-266.5 173.77,-266.5 173.77,-247.5 130.77,-247.5"/>
<text text-anchor="middle" x="152.27" y="-254.5" font-family="Helvetica,sans-Serif" font-size="10.00">matrix</text>
</a>
</g>
</g>
<!-- Node1&#45;&gt;Node28 -->
<g id="edge55" class="edge">
<title>Node1&#45;&gt;Node28</title>
<path fill="none" stroke="midnightblue" d="M25.74,-473.16C27.67,-442.98 37.23,-350.34 83.27,-294 93.13,-281.94 107.99,-273.22 121.31,-267.28"/>
<polygon fill="midnightblue" stroke="midnightblue" points="122.73,-270.48 130.65,-263.44 120.07,-264.01 122.73,-270.48"/>
</g>
<!-- Node29 -->
<g id="node29" class="node">
<title>Node29</title>
<g id="a_node29"><a xlink:href="group__grp__integrals.html#ga01df49c498752e8a4201cc6eb5e283af" target="_top" xlink:title="Calculates volume integrals of Chebyshev&#45;polynomials and metric elements for preconditioner.">
<polygon fill="white" stroke="black" points="685.27,-562.5 685.27,-581.5 728.27,-581.5 728.27,-562.5 685.27,-562.5"/>
<text text-anchor="middle" x="706.77" y="-569.5" font-family="Helvetica,sans-Serif" font-size="10.00">spsint</text>
</a>
</g>
</g>
<!-- Node1&#45;&gt;Node29 -->
<g id="edge57" class="edge">
<title>Node1&#45;&gt;Node29</title>
<path fill="none" stroke="midnightblue" d="M26.09,-492.67C28.82,-518.36 40.09,-588.48 83.27,-620 158.43,-674.87 198.72,-639 291.77,-639 291.77,-639 291.77,-639 431.27,-639 522.37,-639 625.75,-603.74 675.65,-584.38"/>
<polygon fill="midnightblue" stroke="midnightblue" points="677.17,-587.55 685.19,-580.62 674.6,-581.03 677.17,-587.55"/>
</g>
<!-- Node30 -->
<g id="node30" class="node">
<title>Node30</title>
<g id="a_node30"><a xlink:href="group__grp__build__matrices.html#ga4d521a46a64530ade50e6b79a33e1452" target="_top" xlink:title="Constructs matrices for the precondtioner.">
<polygon fill="white" stroke="black" points="127.77,-58.5 127.77,-77.5 176.77,-77.5 176.77,-58.5 127.77,-58.5"/>
<text text-anchor="middle" x="152.27" y="-65.5" font-family="Helvetica,sans-Serif" font-size="10.00">spsmat</text>
</a>
</g>
</g>
<!-- Node1&#45;&gt;Node30 -->
<g id="edge61" class="edge">
<title>Node1&#45;&gt;Node30</title>
<path fill="none" stroke="midnightblue" d="M25.7,-473.17C28.17,-420.57 41.87,-172.39 83.27,-110 91.73,-97.25 105.51,-87.7 118.47,-80.95"/>
<polygon fill="midnightblue" stroke="midnightblue" points="120.17,-84.01 127.67,-76.52 117.14,-77.7 120.17,-84.01"/>
</g>
<!-- Node34 -->
<g id="node34" class="node">
<title>Node34</title>
<g id="a_node34"><a xlink:href="namespaceallglobal.html#ad2dbd21d0579d623a92119c5ab553c7c" target="_top" xlink:title="Returns which MPI node is associated to a given volume.">
<polygon fill="white" stroke="black" points="99.77,-20.5 99.77,-39.5 204.77,-39.5 204.77,-20.5 99.77,-20.5"/>
<text text-anchor="middle" x="152.27" y="-27.5" font-family="Helvetica,sans-Serif" font-size="10.00">allglobal::whichcpuid</text>
</a>
</g>
</g>
<!-- Node1&#45;&gt;Node34 -->
<g id="edge67" class="edge">
<title>Node1&#45;&gt;Node34</title>
<path fill="none" stroke="midnightblue" d="M25.18,-473.29C24.8,-415.32 25.67,-115.26 83.27,-49 85.48,-46.46 88,-44.24 90.74,-42.31"/>
<polygon fill="midnightblue" stroke="midnightblue" points="92.54,-45.31 99.52,-37.34 89.09,-39.22 92.54,-45.31"/>
</g>
<!-- Node5 -->
<g id="node5" class="node">
<title>Node5</title>
<g id="a_node5"><a xlink:href="group__grp__geometry.html#gaaca20aa60eaf39055f3c9d5c02a24ac2" target="_top" xlink:title="Calculates coordinates, , and metrics, using FFTs.">
<polygon fill="white" stroke="black" points="905.27,-533.5 905.27,-552.5 951.27,-552.5 951.27,-533.5 905.27,-533.5"/>
<text text-anchor="middle" x="928.27" y="-540.5" font-family="Helvetica,sans-Serif" font-size="10.00">coords</text>
</a>
</g>
</g>
<!-- Node4&#45;&gt;Node5 -->
<g id="edge4" class="edge">
<title>Node4&#45;&gt;Node5</title>
<path fill="none" stroke="midnightblue" d="M855.27,-523.58C868.07,-527.03 882.45,-530.91 894.96,-534.28"/>
<polygon fill="midnightblue" stroke="midnightblue" points="894.4,-537.76 904.97,-536.98 896.22,-531 894.4,-537.76"/>
</g>
<!-- Node5&#45;&gt;Node5 -->
<g id="edge5" class="edge">
<title>Node5&#45;&gt;Node5</title>
<path fill="none" stroke="midnightblue" d="M915.63,-552.76C909.48,-561.57 913.7,-571 928.27,-571 937.15,-571 942.19,-567.5 943.37,-562.77"/>
<polygon fill="midnightblue" stroke="midnightblue" points="946.7,-561.63 940.91,-552.76 939.9,-563.3 946.7,-561.63"/>
</g>
<!-- Node5&#45;&gt;Node6 -->
<g id="edge6" class="edge">
<title>Node5&#45;&gt;Node6</title>
<path fill="none" stroke="midnightblue" d="M951.41,-544.56C962.71,-547.6 976.43,-552.33 987.79,-557.11"/>
<polygon fill="midnightblue" stroke="midnightblue" points="986.48,-560.36 997.03,-561.28 989.35,-553.98 986.48,-560.36"/>
</g>
<!-- Node6&#45;&gt;Node5 -->
<g id="edge7" class="edge">
<title>Node6&#45;&gt;Node5</title>
<path fill="none" stroke="midnightblue" d="M987.16,-569.17C976.02,-566.12 962.71,-561.5 951.67,-556.85"/>
<polygon fill="midnightblue" stroke="midnightblue" points="952.84,-553.54 942.29,-552.61 949.96,-559.92 952.84,-553.54"/>
</g>
<!-- Node6&#45;&gt;Node6 -->
<g id="edge8" class="edge">
<title>Node6&#45;&gt;Node6</title>
<path fill="none" stroke="midnightblue" d="M998.63,-580.76C992.48,-589.57 996.7,-599 1011.27,-599 1020.15,-599 1025.19,-595.5 1026.37,-590.77"/>
<polygon fill="midnightblue" stroke="midnightblue" points="1029.7,-589.63 1023.91,-580.76 1022.9,-591.3 1029.7,-589.63"/>
</g>
<!-- Node7&#45;&gt;Node5 -->
<g id="edge12" class="edge">
<title>Node7&#45;&gt;Node5</title>
<path fill="none" stroke="midnightblue" d="M446.69,-417.55C465.95,-428.98 500.26,-447.73 532.27,-457 677.05,-498.94 730.55,-436.05 869.27,-495 885.73,-501.99 901.16,-515.22 911.96,-526.02"/>
<polygon fill="midnightblue" stroke="midnightblue" points="909.51,-528.52 918.96,-533.33 914.57,-523.69 909.51,-528.52"/>
</g>
<!-- Node7&#45;&gt;Node7 -->
<g id="edge13" class="edge">
<title>Node7&#45;&gt;Node7</title>
<path fill="none" stroke="midnightblue" d="M409.31,-417.76C399.11,-426.57 406.1,-436 430.27,-436 445.76,-436 454.19,-432.13 455.57,-427.03"/>
<polygon fill="midnightblue" stroke="midnightblue" points="458.64,-425.33 451.23,-417.76 452.3,-428.3 458.64,-425.33"/>
</g>
<!-- Node8 -->
<g id="node8" class="node">
<title>Node8</title>
<g id="a_node8"><a xlink:href="namespaceallglobal.html#af3f23b45db519a643eea14b410e6d428" target="_top" xlink:title=" ">
<polygon fill="white" stroke="black" points="534.27,-399 534.27,-429 643.27,-429 643.27,-399 534.27,-399"/>
<text text-anchor="start" x="542.27" y="-417" font-family="Helvetica,sans-Serif" font-size="10.00">allglobal::build_vector</text>
<text text-anchor="middle" x="588.77" y="-406" font-family="Helvetica,sans-Serif" font-size="10.00">_potential</text>
</a>
</g>
</g>
<!-- Node7&#45;&gt;Node8 -->
<g id="edge10" class="edge">
<title>Node7&#45;&gt;Node8</title>
<path fill="none" stroke="midnightblue" d="M452.38,-408.81C470.79,-409.52 498.49,-410.58 524.04,-411.56"/>
<polygon fill="midnightblue" stroke="midnightblue" points="523.95,-415.06 534.08,-411.94 524.22,-408.06 523.95,-415.06"/>
</g>
<!-- Node8&#45;&gt;Node8 -->
<g id="edge11" class="edge">
<title>Node8&#45;&gt;Node8</title>
<path fill="none" stroke="midnightblue" d="M568.21,-429.16C563.25,-438.56 570.1,-447.5 588.77,-447.5 600.15,-447.5 607.14,-444.18 609.74,-439.46"/>
<polygon fill="midnightblue" stroke="midnightblue" points="613.22,-439.01 609.34,-429.16 606.23,-439.29 613.22,-439.01"/>
</g>
<!-- Node12 -->
<g id="node12" class="node">
<title>Node12</title>
<g id="a_node12"><a xlink:href="intghs_8f90.html#a21d3b7106371783302e68297f7797e9f" target="_top" xlink:title="Calculates volume integrals of Chebyshev polynomials and covariant field products.">
<polygon fill="white" stroke="black" points="685.27,-504.5 685.27,-523.5 728.27,-523.5 728.27,-504.5 685.27,-504.5"/>
<text text-anchor="middle" x="706.77" y="-511.5" font-family="Helvetica,sans-Serif" font-size="10.00">intghs</text>
</a>
</g>
</g>
<!-- Node11&#45;&gt;Node12 -->
<g id="edge18" class="edge">
<title>Node11&#45;&gt;Node12</title>
<path fill="none" stroke="midnightblue" d="M496.74,-534.89C539.3,-538.54 595.86,-540.58 645.27,-533 655.37,-531.45 666.09,-528.53 675.66,-525.43"/>
<polygon fill="midnightblue" stroke="midnightblue" points="676.81,-528.74 685.14,-522.2 674.55,-522.12 676.81,-528.74"/>
</g>
<!-- Node12&#45;&gt;Node4 -->
<g id="edge19" class="edge">
<title>Node12&#45;&gt;Node4</title>
<path fill="none" stroke="midnightblue" d="M728.46,-514C736.95,-514 747.26,-514 757.81,-514"/>
<polygon fill="midnightblue" stroke="midnightblue" points="757.95,-517.5 767.95,-514 757.95,-510.5 757.95,-517.5"/>
</g>
<!-- Node12&#45;&gt;Node12 -->
<g id="edge22" class="edge">
<title>Node12&#45;&gt;Node12</title>
<path fill="none" stroke="midnightblue" d="M689.51,-523.76C681.11,-532.57 686.87,-542 706.77,-542 719.21,-542 726.13,-538.31 727.51,-533.4"/>
<polygon fill="midnightblue" stroke="midnightblue" points="730.72,-531.98 724.03,-523.76 724.13,-534.35 730.72,-531.98"/>
</g>
<!-- Node13 -->
<g id="node13" class="node">
<title>Node13</title>
<g id="a_node13"><a xlink:href="basefn_8f90.html#af6a4cad04c70bfb14fd18a3bfbc843a3" target="_top" xlink:title="Get the Chebyshev polynomials with zeroth, first derivatives.">
<polygon fill="white" stroke="black" points="788.27,-580.5 788.27,-599.5 849.27,-599.5 849.27,-580.5 788.27,-580.5"/>
<text text-anchor="middle" x="818.77" y="-587.5" font-family="Helvetica,sans-Serif" font-size="10.00">get_cheby</text>
</a>
</g>
</g>
<!-- Node12&#45;&gt;Node13 -->
<g id="edge20" class="edge">
<title>Node12&#45;&gt;Node13</title>
<path fill="none" stroke="midnightblue" d="M715.87,-523.69C726.7,-536.11 747.01,-557.64 768.27,-571 771.6,-573.09 775.19,-575.01 778.86,-576.76"/>
<polygon fill="midnightblue" stroke="midnightblue" points="777.51,-579.99 788.07,-580.76 780.29,-573.57 777.51,-579.99"/>
</g>
<!-- Node14 -->
<g id="node14" class="node">
<title>Node14</title>
<g id="a_node14"><a xlink:href="basefn_8f90.html#a38dc596fb909186b01dacc1feac03164" target="_top" xlink:title="Get the Zernike polynomials &#160;with zeroth, first derivatives.">
<polygon fill="white" stroke="black" points="785.77,-542.5 785.77,-561.5 851.77,-561.5 851.77,-542.5 785.77,-542.5"/>
<text text-anchor="middle" x="818.77" y="-549.5" font-family="Helvetica,sans-Serif" font-size="10.00">get_zernike</text>
</a>
</g>
</g>
<!-- Node12&#45;&gt;Node14 -->
<g id="edge21" class="edge">
<title>Node12&#45;&gt;Node14</title>
<path fill="none" stroke="midnightblue" d="M728.46,-521.15C743.03,-526.18 762.94,-533.06 780.27,-539.04"/>
<polygon fill="midnightblue" stroke="midnightblue" points="779.52,-542.49 790.11,-542.44 781.8,-535.87 779.52,-542.49"/>
</g>
<!-- Node15&#45;&gt;Node12 -->
<g id="edge24" class="edge">
<title>Node15&#45;&gt;Node12</title>
<path fill="none" stroke="midnightblue" d="M645.39,-514C655.59,-514 665.89,-514 675.02,-514"/>
<polygon fill="midnightblue" stroke="midnightblue" points="675.12,-517.5 685.12,-514 675.12,-510.5 675.12,-517.5"/>
</g>
<!-- Node17&#45;&gt;Node4 -->
<g id="edge27" class="edge">
<title>Node17&#45;&gt;Node4</title>
<path fill="none" stroke="midnightblue" d="M722.51,-618.37C726,-615.63 729.51,-612.44 732.27,-609 755.68,-579.86 740.86,-558.41 768.27,-533 769.97,-531.42 771.82,-529.97 773.76,-528.64"/>
<polygon fill="midnightblue" stroke="midnightblue" points="775.82,-531.5 782.79,-523.51 772.36,-525.41 775.82,-531.5"/>
</g>
<!-- Node17&#45;&gt;Node6 -->
<g id="edge33" class="edge">
<title>Node17&#45;&gt;Node6</title>
<path fill="none" stroke="midnightblue" d="M732.29,-626.24C764.09,-623.7 821.17,-618.26 869.27,-609 906.74,-601.79 948.89,-589.92 977.27,-581.36"/>
<polygon fill="midnightblue" stroke="midnightblue" points="978.52,-584.64 987.06,-578.38 976.48,-577.95 978.52,-584.64"/>
</g>
<!-- Node17&#45;&gt;Node13 -->
<g id="edge28" class="edge">
<title>Node17&#45;&gt;Node13</title>
<path fill="none" stroke="midnightblue" d="M732.46,-619.47C746.62,-614.58 764.68,-608.34 780.54,-602.86"/>
<polygon fill="midnightblue" stroke="midnightblue" points="781.76,-606.14 790.07,-599.57 779.48,-599.53 781.76,-606.14"/>
</g>
<!-- Node17&#45;&gt;Node14 -->
<g id="edge29" class="edge">
<title>Node17&#45;&gt;Node14</title>
<path fill="none" stroke="midnightblue" d="M720.79,-618.5C724.59,-615.57 728.68,-612.25 732.27,-609 749.51,-593.38 748.93,-583.93 768.27,-571 771.15,-569.07 774.26,-567.3 777.45,-565.68"/>
<polygon fill="midnightblue" stroke="midnightblue" points="778.96,-568.84 786.61,-561.52 776.06,-562.47 778.96,-568.84"/>
</g>
<!-- Node17&#45;&gt;Node17 -->
<g id="edge30" class="edge">
<title>Node17&#45;&gt;Node17</title>
<path fill="none" stroke="midnightblue" d="M689.51,-637.76C681.11,-646.57 686.87,-656 706.77,-656 719.21,-656 726.13,-652.31 727.51,-647.4"/>
<polygon fill="midnightblue" stroke="midnightblue" points="730.72,-645.98 724.03,-637.76 724.13,-648.35 730.72,-645.98"/>
</g>
<!-- Node18 -->
<g id="node18" class="node">
<title>Node18</title>
<g id="a_node18"><a xlink:href="group__grp__metrics.html#ga254ce8e645c4110d77e3b3dbc3a89885" target="_top" xlink:title="Calculates the metric quantities, , which are required for the energy and helicity integrals.">
<polygon fill="white" stroke="black" points="797.27,-656.5 797.27,-675.5 840.27,-675.5 840.27,-656.5 797.27,-656.5"/>
<text text-anchor="middle" x="818.77" y="-663.5" font-family="Helvetica,sans-Serif" font-size="10.00">metrix</text>
</a>
</g>
</g>
<!-- Node17&#45;&gt;Node18 -->
<g id="edge31" class="edge">
<title>Node17&#45;&gt;Node18</title>
<path fill="none" stroke="midnightblue" d="M732.46,-636.53C748.77,-642.16 770.25,-649.58 787.57,-655.57"/>
<polygon fill="midnightblue" stroke="midnightblue" points="786.63,-658.94 797.22,-658.9 788.92,-652.33 786.63,-658.94"/>
</g>
<!-- Node18&#45;&gt;Node18 -->
<g id="edge32" class="edge">
<title>Node18&#45;&gt;Node18</title>
<path fill="none" stroke="midnightblue" d="M802.13,-675.76C794.03,-684.57 799.58,-694 818.77,-694 830.77,-694 837.44,-690.31 838.77,-685.4"/>
<polygon fill="midnightblue" stroke="midnightblue" points="842.01,-684.05 835.42,-675.76 835.4,-686.35 842.01,-684.05"/>
</g>
<!-- Node19&#45;&gt;Node19 -->
<g id="edge37" class="edge">
<title>Node19&#45;&gt;Node19</title>
<path fill="none" stroke="midnightblue" d="M132.54,-322.76C122.95,-331.57 129.52,-341 152.27,-341 166.85,-341 174.78,-337.13 176.08,-332.03"/>
<polygon fill="midnightblue" stroke="midnightblue" points="179.23,-330.5 172,-322.76 172.83,-333.32 179.23,-330.5"/>
</g>
<!-- Node20 -->
<g id="node20" class="node">
<title>Node20</title>
<g id="a_node20"><a xlink:href="group__grp__integrals.html#ga6d086e8d1af527def50b653b86e8373a" target="_top" xlink:title="Evaluates volume integrals, and their derivatives w.r.t. interface geometry, using &quot;packed&quot; format.">
<polygon fill="white" stroke="black" points="269.77,-152.5 269.77,-171.5 315.77,-171.5 315.77,-152.5 269.77,-152.5"/>
<text text-anchor="middle" x="292.77" y="-159.5" font-family="Helvetica,sans-Serif" font-size="10.00">df00ab</text>
</a>
</g>
</g>
<!-- Node19&#45;&gt;Node20 -->
<g id="edge35" class="edge">
<title>Node19&#45;&gt;Node20</title>
<path fill="none" stroke="midnightblue" d="M177.86,-311.46C192.06,-309.38 209.41,-304.64 221.27,-294 253.34,-265.23 235.34,-241.08 257.27,-204 262.38,-195.36 269.2,-186.65 275.43,-179.42"/>
<polygon fill="midnightblue" stroke="midnightblue" points="278.27,-181.49 282.33,-171.7 273.05,-176.82 278.27,-181.49"/>
</g>
<!-- Node21 -->
<g id="node21" class="node">
<title>Node21</title>
<g id="a_node21"><a xlink:href="group__grp__solver.html#ga6626839aff500f060beb5bce2b90c447" target="_top" xlink:title="Solves Beltrami/vacuum (linear) system, given matrices.unpacking fluxes, helicity multiplier">
<polygon fill="white" stroke="black" points="267.27,-303.5 267.27,-322.5 318.27,-322.5 318.27,-303.5 267.27,-303.5"/>
<text text-anchor="middle" x="292.77" y="-310.5" font-family="Helvetica,sans-Serif" font-size="10.00">mp00ac</text>
</a>
</g>
</g>
<!-- Node19&#45;&gt;Node21 -->
<g id="edge38" class="edge">
<title>Node19&#45;&gt;Node21</title>
<path fill="none" stroke="midnightblue" d="M178.03,-313C200.09,-313 232.59,-313 257.21,-313"/>
<polygon fill="midnightblue" stroke="midnightblue" points="257.23,-316.5 267.23,-313 257.23,-309.5 257.23,-316.5"/>
</g>
<!-- Node23 -->
<g id="node23" class="node">
<title>Node23</title>
<g id="a_node23"><a xlink:href="group__grp__packing.html#gaee2357e570aebf8559e169def6b619dd" target="_top" xlink:title="Packs and unpacks Beltrami field solution vector.">
<polygon fill="white" stroke="black" points="682.77,-190.5 682.77,-209.5 730.77,-209.5 730.77,-190.5 682.77,-190.5"/>
<text text-anchor="middle" x="706.77" y="-197.5" font-family="Helvetica,sans-Serif" font-size="10.00">packab</text>
</a>
</g>
</g>
<!-- Node19&#45;&gt;Node23 -->
<g id="edge54" class="edge">
<title>Node19&#45;&gt;Node23</title>
<path fill="none" stroke="midnightblue" d="M178.08,-308.6C191.38,-305.62 207.75,-300.95 221.27,-294 257.54,-275.35 325.89,-192.78 364.27,-179 481.82,-136.81 522.43,-154.44 645.27,-177 655.88,-178.95 667.04,-182.67 676.85,-186.56"/>
<polygon fill="midnightblue" stroke="midnightblue" points="675.56,-189.81 686.13,-190.45 678.26,-183.36 675.56,-189.81"/>
</g>
<!-- Node20&#45;&gt;Node20 -->
<g id="edge36" class="edge">
<title>Node20&#45;&gt;Node20</title>
<path fill="none" stroke="midnightblue" d="M271.81,-171.76C261.61,-180.57 268.6,-190 292.77,-190 308.26,-190 316.69,-186.13 318.07,-181.03"/>
<polygon fill="midnightblue" stroke="midnightblue" points="321.14,-179.33 313.73,-171.76 314.8,-182.3 321.14,-179.33"/>
</g>
<!-- Node21&#45;&gt;Node7 -->
<g id="edge39" class="edge">
<title>Node21&#45;&gt;Node7</title>
<path fill="none" stroke="midnightblue" d="M300.98,-322.59C312.73,-337.6 337.39,-366.72 364.27,-384 374.58,-390.62 386.97,-395.78 398.15,-399.58"/>
<polygon fill="midnightblue" stroke="midnightblue" points="397.41,-403.01 408,-402.69 399.52,-396.34 397.41,-403.01"/>
</g>
<!-- Node21&#45;&gt;Node12 -->
<g id="edge40" class="edge">
<title>Node21&#45;&gt;Node12</title>
<path fill="none" stroke="midnightblue" d="M307.94,-322.61C321.71,-331.46 343.52,-344.21 364.27,-351 484.11,-390.2 543.2,-315.98 645.27,-390 680.2,-415.32 695.92,-466.39 702.18,-494.44"/>
<polygon fill="midnightblue" stroke="midnightblue" points="698.76,-495.19 704.19,-504.28 705.62,-493.78 698.76,-495.19"/>
</g>
<!-- Node21&#45;&gt;Node21 -->
<g id="edge41" class="edge">
<title>Node21&#45;&gt;Node21</title>
<path fill="none" stroke="midnightblue" d="M271.81,-322.76C261.61,-331.57 268.6,-341 292.77,-341 308.26,-341 316.69,-337.13 318.07,-332.03"/>
<polygon fill="midnightblue" stroke="midnightblue" points="321.14,-330.33 313.73,-322.76 314.8,-333.3 321.14,-330.33"/>
</g>
<!-- Node22 -->
<g id="node22" class="node">
<title>Node22</title>
<g id="a_node22"><a xlink:href="group__grp__build__matrices.html#ga6c22bb4322fbcc29cb17dcc90b56eacd" target="_top" xlink:title="Constructs matrices that represent the Beltrami linear system, matrix&#45;free.">
<polygon fill="white" stroke="black" points="683.77,-265.5 683.77,-284.5 729.77,-284.5 729.77,-265.5 683.77,-265.5"/>
<text text-anchor="middle" x="706.77" y="-272.5" font-family="Helvetica,sans-Serif" font-size="10.00">mtrxhs</text>
</a>
</g>
</g>
<!-- Node21&#45;&gt;Node22 -->
<g id="edge42" class="edge">
<title>Node21&#45;&gt;Node22</title>
<path fill="none" stroke="midnightblue" d="M318.34,-307.77C361.41,-298.89 453.48,-281.24 532.27,-275 581.39,-271.11 638.58,-272.19 673.47,-273.48"/>
<polygon fill="midnightblue" stroke="midnightblue" points="673.41,-276.98 683.54,-273.88 673.69,-269.99 673.41,-276.98"/>
</g>
<!-- Node21&#45;&gt;Node23 -->
<g id="edge44" class="edge">
<title>Node21&#45;&gt;Node23</title>
<path fill="none" stroke="midnightblue" d="M297.63,-303.34C306.19,-283.41 328.84,-237.96 364.27,-219 465.44,-164.85 608.46,-181.63 672.5,-193.1"/>
<polygon fill="midnightblue" stroke="midnightblue" points="671.97,-196.56 682.44,-194.96 673.26,-189.68 671.97,-196.56"/>
</g>
<!-- Node24 -->
<g id="node24" class="node">
<title>Node24</title>
<g id="a_node24"><a xlink:href="mp00ac_8f90.html#a304edac43f63d39dda4419b4d044eac5" target="_top" xlink:title="run GMRES">
<polygon fill="white" stroke="black" points="401.77,-322.5 401.77,-341.5 458.77,-341.5 458.77,-322.5 401.77,-322.5"/>
<text text-anchor="middle" x="430.27" y="-329.5" font-family="Helvetica,sans-Serif" font-size="10.00">rungmres</text>
</a>
</g>
</g>
<!-- Node21&#45;&gt;Node24 -->
<g id="edge46" class="edge">
<title>Node21&#45;&gt;Node24</title>
<path fill="none" stroke="midnightblue" d="M318.31,-316.44C338.77,-319.31 368.26,-323.44 391.69,-326.73"/>
<polygon fill="midnightblue" stroke="midnightblue" points="391.26,-330.2 401.65,-328.13 392.23,-323.27 391.26,-330.2"/>
</g>
<!-- Node27 -->
<g id="node27" class="node">
<title>Node27</title>
<g id="a_node27"><a xlink:href="group__grp__transform.html#ga0e0447653b8da82f06748dd8831bc337" target="_top" xlink:title="Calculates rotational transform given an arbitrary tangential field.">
<polygon fill="white" stroke="black" points="408.27,-228.5 408.27,-247.5 452.27,-247.5 452.27,-228.5 408.27,-228.5"/>
<text text-anchor="middle" x="430.27" y="-235.5" font-family="Helvetica,sans-Serif" font-size="10.00">tr00ab</text>
</a>
</g>
</g>
<!-- Node21&#45;&gt;Node27 -->
<g id="edge52" class="edge">
<title>Node21&#45;&gt;Node27</title>
<path fill="none" stroke="midnightblue" d="M311.21,-303.35C334.48,-290.47 375.9,-267.54 402.98,-252.55"/>
<polygon fill="midnightblue" stroke="midnightblue" points="404.85,-255.52 411.9,-247.61 401.46,-249.39 404.85,-255.52"/>
</g>
<!-- Node22&#45;&gt;Node22 -->
<g id="edge43" class="edge">
<title>Node22&#45;&gt;Node22</title>
<path fill="none" stroke="midnightblue" d="M689.51,-284.76C681.11,-293.57 686.87,-303 706.77,-303 719.21,-303 726.13,-299.31 727.51,-294.4"/>
<polygon fill="midnightblue" stroke="midnightblue" points="730.72,-292.98 724.03,-284.76 724.13,-295.35 730.72,-292.98"/>
</g>
<!-- Node23&#45;&gt;Node23 -->
<g id="edge45" class="edge">
<title>Node23&#45;&gt;Node23</title>
<path fill="none" stroke="midnightblue" d="M689.51,-209.76C681.11,-218.57 686.87,-228 706.77,-228 719.21,-228 726.13,-224.31 727.51,-219.4"/>
<polygon fill="midnightblue" stroke="midnightblue" points="730.72,-217.98 724.03,-209.76 724.13,-220.35 730.72,-217.98"/>
</g>
<!-- Node25 -->
<g id="node25" class="node">
<title>Node25</title>
<g id="a_node25"><a xlink:href="mp00ac_8f90.html#ae9fe335bb4916face9f9d19ce8c0f5d7" target="_top" xlink:title="compute a.x by either by coumputing it directly, or using a matrix free method">
<polygon fill="white" stroke="black" points="564.27,-284.5 564.27,-303.5 613.27,-303.5 613.27,-284.5 564.27,-284.5"/>
<text text-anchor="middle" x="588.77" y="-291.5" font-family="Helvetica,sans-Serif" font-size="10.00">matvec</text>
</a>
</g>
</g>
<!-- Node24&#45;&gt;Node25 -->
<g id="edge47" class="edge">
<title>Node24&#45;&gt;Node25</title>
<path fill="none" stroke="midnightblue" d="M458.89,-325.29C485.46,-318.84 525.68,-309.08 554.12,-302.17"/>
<polygon fill="midnightblue" stroke="midnightblue" points="555.12,-305.53 564.01,-299.77 553.47,-298.73 555.12,-305.53"/>
</g>
<!-- Node26 -->
<g id="node26" class="node">
<title>Node26</title>
<g id="a_node26"><a xlink:href="mp00ac_8f90.html#a76cda97bf815eb7f40cb76ad1719d809" target="_top" xlink:title="apply the preconditioner">
<polygon fill="white" stroke="black" points="556.77,-322.5 556.77,-341.5 620.77,-341.5 620.77,-322.5 556.77,-322.5"/>
<text text-anchor="middle" x="588.77" y="-329.5" font-family="Helvetica,sans-Serif" font-size="10.00">prec_solve</text>
</a>
</g>
</g>
<!-- Node24&#45;&gt;Node26 -->
<g id="edge51" class="edge">
<title>Node24&#45;&gt;Node26</title>
<path fill="none" stroke="midnightblue" d="M458.89,-332C483.17,-332 518.84,-332 546.5,-332"/>
<polygon fill="midnightblue" stroke="midnightblue" points="546.67,-335.5 556.67,-332 546.67,-328.5 546.67,-335.5"/>
</g>
<!-- Node25&#45;&gt;Node12 -->
<g id="edge48" class="edge">
<title>Node25&#45;&gt;Node12</title>
<path fill="none" stroke="midnightblue" d="M613.5,-297.07C624.49,-299.63 636.93,-304.34 645.27,-313 694.62,-364.23 703.89,-454.19 705.51,-494.04"/>
<polygon fill="midnightblue" stroke="midnightblue" points="702.01,-494.18 705.79,-504.08 709.01,-493.99 702.01,-494.18"/>
</g>
<!-- Node25&#45;&gt;Node22 -->
<g id="edge49" class="edge">
<title>Node25&#45;&gt;Node22</title>
<path fill="none" stroke="midnightblue" d="M613.53,-290.11C630.86,-287.27 654.56,-283.39 673.6,-280.27"/>
<polygon fill="midnightblue" stroke="midnightblue" points="674.32,-283.7 683.62,-278.63 673.19,-276.79 674.32,-283.7"/>
</g>
<!-- Node25&#45;&gt;Node23 -->
<g id="edge50" class="edge">
<title>Node25&#45;&gt;Node23</title>
<path fill="none" stroke="midnightblue" d="M601.75,-284.29C621.74,-268.1 662.08,-235.41 686.23,-215.84"/>
<polygon fill="midnightblue" stroke="midnightblue" points="688.47,-218.53 694.03,-209.51 684.06,-213.09 688.47,-218.53"/>
</g>
<!-- Node27&#45;&gt;Node27 -->
<g id="edge53" class="edge">
<title>Node27&#45;&gt;Node27</title>
<path fill="none" stroke="midnightblue" d="M409.31,-247.76C399.11,-256.57 406.1,-266 430.27,-266 445.76,-266 454.19,-262.13 455.57,-257.03"/>
<polygon fill="midnightblue" stroke="midnightblue" points="458.64,-255.33 451.23,-247.76 452.3,-258.3 458.64,-255.33"/>
</g>
<!-- Node28&#45;&gt;Node28 -->
<g id="edge56" class="edge">
<title>Node28&#45;&gt;Node28</title>
<path fill="none" stroke="midnightblue" d="M132.54,-266.76C122.95,-275.57 129.52,-285 152.27,-285 166.85,-285 174.78,-281.13 176.08,-276.03"/>
<polygon fill="midnightblue" stroke="midnightblue" points="179.23,-274.5 172,-266.76 172.83,-277.32 179.23,-274.5"/>
</g>
<!-- Node29&#45;&gt;Node13 -->
<g id="edge58" class="edge">
<title>Node29&#45;&gt;Node13</title>
<path fill="none" stroke="midnightblue" d="M728.46,-575.39C742.38,-577.66 761.17,-580.74 777.93,-583.48"/>
<polygon fill="midnightblue" stroke="midnightblue" points="777.6,-586.97 788.04,-585.13 778.73,-580.07 777.6,-586.97"/>
</g>
<!-- Node29&#45;&gt;Node14 -->
<g id="edge59" class="edge">
<title>Node29&#45;&gt;Node14</title>
<path fill="none" stroke="midnightblue" d="M728.46,-568.24C741.63,-565.84 759.18,-562.65 775.23,-559.74"/>
<polygon fill="midnightblue" stroke="midnightblue" points="776.28,-563.1 785.5,-557.87 775.03,-556.21 776.28,-563.1"/>
</g>
<!-- Node29&#45;&gt;Node29 -->
<g id="edge60" class="edge">
<title>Node29&#45;&gt;Node29</title>
<path fill="none" stroke="midnightblue" d="M689.51,-581.76C681.11,-590.57 686.87,-600 706.77,-600 719.21,-600 726.13,-596.31 727.51,-591.4"/>
<polygon fill="midnightblue" stroke="midnightblue" points="730.72,-589.98 724.03,-581.76 724.13,-592.35 730.72,-589.98"/>
</g>
<!-- Node30&#45;&gt;Node30 -->
<g id="edge65" class="edge">
<title>Node30&#45;&gt;Node30</title>
<path fill="none" stroke="midnightblue" d="M132.54,-77.76C122.95,-86.57 129.52,-96 152.27,-96 166.85,-96 174.78,-92.13 176.08,-87.03"/>
<polygon fill="midnightblue" stroke="midnightblue" points="179.23,-85.5 172,-77.76 172.83,-88.32 179.23,-85.5"/>
</g>
<!-- Node31 -->
<g id="node31" class="node">
<title>Node31</title>
<g id="a_node31"><a xlink:href="spsmat_8f90.html#a029deb1b6e086ff346f36f5c61d0c1b2" target="_top" xlink:title="add the content from the queue to the real matrices">
<polygon fill="white" stroke="black" points="269.27,-0.5 269.27,-19.5 316.27,-19.5 316.27,-0.5 269.27,-0.5"/>
<text text-anchor="middle" x="292.77" y="-7.5" font-family="Helvetica,sans-Serif" font-size="10.00">addline</text>
</a>
</g>
</g>
<!-- Node30&#45;&gt;Node31 -->
<g id="edge62" class="edge">
<title>Node30&#45;&gt;Node31</title>
<path fill="none" stroke="midnightblue" d="M177.02,-62.82C190.29,-59.56 206.99,-54.87 221.27,-49 238.2,-42.04 241.26,-37.86 257.27,-29 259.85,-27.57 262.54,-26.09 265.23,-24.6"/>
<polygon fill="midnightblue" stroke="midnightblue" points="267.15,-27.55 274.21,-19.65 263.77,-21.41 267.15,-27.55"/>
</g>
<!-- Node32 -->
<g id="node32" class="node">
<title>Node32</title>
<g id="a_node32"><a xlink:href="spsmat_8f90.html#ab8d57e74b7461b1d2781c5d56dea6120" target="_top" xlink:title="clean the queue">
<polygon fill="white" stroke="black" points="257.27,-76.5 257.27,-95.5 328.27,-95.5 328.27,-76.5 257.27,-76.5"/>
<text text-anchor="middle" x="292.77" y="-83.5" font-family="Helvetica,sans-Serif" font-size="10.00">clean_queue</text>
</a>
</g>
</g>
<!-- Node30&#45;&gt;Node32 -->
<g id="edge63" class="edge">
<title>Node30&#45;&gt;Node32</title>
<path fill="none" stroke="midnightblue" d="M177.08,-71.09C196.28,-73.59 223.83,-77.17 247.11,-80.2"/>
<polygon fill="midnightblue" stroke="midnightblue" points="246.76,-83.68 257.13,-81.5 247.66,-76.74 246.76,-83.68"/>
</g>
<!-- Node33 -->
<g id="node33" class="node">
<title>Node33</title>
<g id="a_node33"><a xlink:href="spsmat_8f90.html#a6c4c1ca7c194a5116f2d358c2065ce00" target="_top" xlink:title="push a new element at the back of the queue">
<polygon fill="white" stroke="black" points="260.77,-38.5 260.77,-57.5 324.77,-57.5 324.77,-38.5 260.77,-38.5"/>
<text text-anchor="middle" x="292.77" y="-45.5" font-family="Helvetica,sans-Serif" font-size="10.00">push_back</text>
</a>
</g>
</g>
<!-- Node30&#45;&gt;Node33 -->
<g id="edge64" class="edge">
<title>Node30&#45;&gt;Node33</title>
<path fill="none" stroke="midnightblue" d="M177.08,-64.56C197.32,-61.64 226.82,-57.38 250.83,-53.91"/>
<polygon fill="midnightblue" stroke="midnightblue" points="251.35,-57.37 260.75,-52.48 250.35,-50.45 251.35,-57.37"/>
</g>
</g>
</svg>
