<?xml version="1.0" encoding="UTF-8" standalone="no"?>
<!DOCTYPE svg PUBLIC "-//W3C//DTD SVG 1.1//EN"
 "http://www.w3.org/Graphics/SVG/1.1/DTD/svg11.dtd">
<!-- Generated by graphviz version 2.48.0 (0)
 -->
<!-- Title: dfp100 Pages: 1 -->
<svg width="1042pt" height="782pt"
 viewBox="0.00 0.00 1042.00 782.00" xmlns="http://www.w3.org/2000/svg" xmlns:xlink="http://www.w3.org/1999/xlink">
<g id="graph0" class="graph" transform="scale(1 1) rotate(0) translate(4 778)">
<title>dfp100</title>
<polygon fill="white" stroke="transparent" points="-4,4 -4,-778 1038,-778 1038,4 -4,4"/>
<!-- Node1 -->
<g id="node1" class="node">
<title>Node1</title>
<g id="a_node1"><a xlink:title="Split the work between MPI nodes and evaluate the global constraint.">
<polygon fill="#bfbfbf" stroke="black" points="0,-450.5 0,-469.5 46,-469.5 46,-450.5 0,-450.5"/>
<text text-anchor="middle" x="23" y="-457.5" font-family="Helvetica,sans-Serif" font-size="10.00">dfp100</text>
</a>
</g>
</g>
<!-- Node2 -->
<g id="node2" class="node">
<title>Node2</title>
<g id="a_node2"><a xlink:href="memory_8f90.html#a8a98304f95fee4429a60a58050e999b8" target="_top" xlink:title="allocate Beltrami matrices">
<polygon fill="white" stroke="black" points="84.5,-754.5 84.5,-773.5 217.5,-773.5 217.5,-754.5 84.5,-754.5"/>
<text text-anchor="middle" x="151" y="-761.5" font-family="Helvetica,sans-Serif" font-size="10.00">allocate_beltrami_matrices</text>
</a>
</g>
</g>
<!-- Node1&#45;&gt;Node2 -->
<g id="edge1" class="edge">
<title>Node1&#45;&gt;Node2</title>
<path fill="none" stroke="midnightblue" d="M24.64,-469.7C27.82,-514.77 43.3,-703.42 82,-745 83.23,-746.33 84.55,-747.56 85.94,-748.72"/>
<polygon fill="midnightblue" stroke="midnightblue" points="84.3,-751.83 94.57,-754.44 88.17,-745.99 84.3,-751.83"/>
</g>
<!-- Node3 -->
<g id="node3" class="node">
<title>Node3</title>
<g id="a_node3"><a xlink:href="memory_8f90.html#a91ea75b56a77c048841932a601482f78" target="_top" xlink:title="allocate geometry matrices">
<polygon fill="white" stroke="black" points="82,-716.5 82,-735.5 220,-735.5 220,-716.5 82,-716.5"/>
<text text-anchor="middle" x="151" y="-723.5" font-family="Helvetica,sans-Serif" font-size="10.00">allocate_geometry_matrices</text>
</a>
</g>
</g>
<!-- Node1&#45;&gt;Node3 -->
<g id="edge2" class="edge">
<title>Node1&#45;&gt;Node3</title>
<path fill="none" stroke="midnightblue" d="M25.07,-469.51C29.77,-509.85 49.83,-666.29 82,-702 85.47,-705.85 89.6,-709.09 94.09,-711.8"/>
<polygon fill="midnightblue" stroke="midnightblue" points="92.57,-714.96 103.06,-716.41 95.77,-708.73 92.57,-714.96"/>
</g>
<!-- Node4 -->
<g id="node4" class="node">
<title>Node4</title>
<g id="a_node4"><a xlink:href="metrix_8f90.html#a80c802cda076dd9e7031bc5f9098c175" target="_top" xlink:title="compute guvijsave">
<polygon fill="white" stroke="black" points="767,-602.5 767,-621.5 868,-621.5 868,-602.5 767,-602.5"/>
<text text-anchor="middle" x="817.5" y="-609.5" font-family="Helvetica,sans-Serif" font-size="10.00">compute_guvijsave</text>
</a>
</g>
</g>
<!-- Node1&#45;&gt;Node4 -->
<g id="edge3" class="edge">
<title>Node1&#45;&gt;Node4</title>
<path fill="none" stroke="midnightblue" d="M24.95,-469.69C28,-495.49 40,-566.29 82,-602 154.44,-663.6 195.41,-650 290.5,-650 290.5,-650 290.5,-650 588.5,-650 652.67,-650 725.63,-635.17 771.37,-624.04"/>
<polygon fill="midnightblue" stroke="midnightblue" points="772.4,-627.39 781.26,-621.59 770.71,-620.6 772.4,-627.39"/>
</g>
<!-- Node7 -->
<g id="node7" class="node">
<title>Node7</title>
<g id="a_node7"><a xlink:href="group__grp__volume.html#gae4c62d20b8fef07f4471b5b0889ab005" target="_top" xlink:title="Computes volume of each region; and, if required, the derivatives of the volume with respect to the i...">
<polygon fill="white" stroke="black" points="986,-621.5 986,-640.5 1034,-640.5 1034,-621.5 986,-621.5"/>
<text text-anchor="middle" x="1010" y="-628.5" font-family="Helvetica,sans-Serif" font-size="10.00">volume</text>
</a>
</g>
</g>
<!-- Node1&#45;&gt;Node7 -->
<g id="edge59" class="edge">
<title>Node1&#45;&gt;Node7</title>
<path fill="none" stroke="midnightblue" d="M24,-469.53C24.54,-499.5 30.48,-592.71 82,-640 152.05,-704.31 195.41,-688 290.5,-688 290.5,-688 290.5,-688 818.5,-688 878.16,-688 893.68,-680.7 950,-661 961.63,-656.93 973.86,-651.01 984.15,-645.5"/>
<polygon fill="midnightblue" stroke="midnightblue" points="985.93,-648.52 992.99,-640.63 982.54,-642.4 985.93,-648.52"/>
</g>
<!-- Node8 -->
<g id="node8" class="node">
<title>Node8</title>
<g id="a_node8"><a xlink:href="group__grp__currents.html#gacaf4411e0ba378631dcd2ccb3752e452" target="_top" xlink:title="Computes the plasma current, , and the &quot;linking&quot; current, .">
<polygon fill="white" stroke="black" points="795.5,-336.5 795.5,-355.5 839.5,-355.5 839.5,-336.5 795.5,-336.5"/>
<text text-anchor="middle" x="817.5" y="-343.5" font-family="Helvetica,sans-Serif" font-size="10.00">curent</text>
</a>
</g>
</g>
<!-- Node1&#45;&gt;Node8 -->
<g id="edge8" class="edge">
<title>Node1&#45;&gt;Node8</title>
<path fill="none" stroke="midnightblue" d="M25.29,-450.15C29.1,-425.26 42.58,-359.36 82,-325 129.96,-283.2 175.55,-332.51 220,-287 266.09,-239.8 204,-183.6 256,-143 302.85,-106.42 486.88,-51.13 731,-213 772.97,-240.83 798.7,-297.08 809.91,-326.72"/>
<polygon fill="midnightblue" stroke="midnightblue" points="806.69,-328.12 813.38,-336.34 813.27,-325.74 806.69,-328.12"/>
</g>
<!-- Node10 -->
<g id="node10" class="node">
<title>Node10</title>
<g id="a_node10"><a xlink:href="memory_8f90.html#a4591e03fce625b2a91ab6d970a3a1ede" target="_top" xlink:title="deallocate Beltrami matrices">
<polygon fill="white" stroke="black" points="100.5,-247 100.5,-277 201.5,-277 201.5,-247 100.5,-247"/>
<text text-anchor="start" x="108.5" y="-265" font-family="Helvetica,sans-Serif" font-size="10.00">deallocate_beltrami</text>
<text text-anchor="middle" x="151" y="-254" font-family="Helvetica,sans-Serif" font-size="10.00">_matrices</text>
</a>
</g>
</g>
<!-- Node1&#45;&gt;Node10 -->
<g id="edge12" class="edge">
<title>Node1&#45;&gt;Node10</title>
<path fill="none" stroke="midnightblue" d="M24.7,-450.29C27.2,-422.18 38.12,-339.68 82,-292 85.32,-288.39 89.15,-285.19 93.27,-282.36"/>
<polygon fill="midnightblue" stroke="midnightblue" points="95.31,-285.22 102.06,-277.06 91.69,-279.23 95.31,-285.22"/>
</g>
<!-- Node11 -->
<g id="node11" class="node">
<title>Node11</title>
<g id="a_node11"><a xlink:href="memory_8f90.html#a7b3f3dc45c42c50c1db3cc7e354031a2" target="_top" xlink:title="deallocate geometry matrices">
<polygon fill="white" stroke="black" points="98,-198 98,-228 204,-228 204,-198 98,-198"/>
<text text-anchor="start" x="106" y="-216" font-family="Helvetica,sans-Serif" font-size="10.00">deallocate_geometry</text>
<text text-anchor="middle" x="151" y="-205" font-family="Helvetica,sans-Serif" font-size="10.00">_matrices</text>
</a>
</g>
</g>
<!-- Node1&#45;&gt;Node11 -->
<g id="edge13" class="edge">
<title>Node1&#45;&gt;Node11</title>
<path fill="none" stroke="midnightblue" d="M23.57,-450.1C22.64,-415.96 24.17,-301.71 82,-238 84.24,-235.53 86.75,-233.31 89.44,-231.3"/>
<polygon fill="midnightblue" stroke="midnightblue" points="91.39,-234.21 97.99,-225.92 87.66,-228.28 91.39,-234.21"/>
</g>
<!-- Node12 -->
<g id="node12" class="node">
<title>Node12</title>
<g id="a_node12"><a xlink:href="intghs_8f90.html#ae10091a51178071d12004da4952104d4" target="_top" xlink:title="free workspace">
<polygon fill="white" stroke="black" points="363,-488.5 363,-507.5 495,-507.5 495,-488.5 363,-488.5"/>
<text text-anchor="middle" x="429" y="-495.5" font-family="Helvetica,sans-Serif" font-size="10.00">intghs_workspace_destroy</text>
</a>
</g>
</g>
<!-- Node1&#45;&gt;Node12 -->
<g id="edge14" class="edge">
<title>Node1&#45;&gt;Node12</title>
<path fill="none" stroke="midnightblue" d="M46.14,-466.27C56.88,-469.07 70.02,-472.15 82,-474 174.6,-488.28 282.45,-494.07 352.81,-496.41"/>
<polygon fill="midnightblue" stroke="midnightblue" points="352.81,-499.91 362.91,-496.73 353.03,-492.92 352.81,-499.91"/>
</g>
<!-- Node16 -->
<g id="node16" class="node">
<title>Node16</title>
<g id="a_node16"><a xlink:href="intghs_8f90.html#ae8299d4625cabd90eb1398fd2cd38089" target="_top" xlink:title="init workspace">
<polygon fill="white" stroke="black" points="531,-450.5 531,-469.5 644,-469.5 644,-450.5 531,-450.5"/>
<text text-anchor="middle" x="587.5" y="-457.5" font-family="Helvetica,sans-Serif" font-size="10.00">intghs_workspace_init</text>
</a>
</g>
</g>
<!-- Node1&#45;&gt;Node16 -->
<g id="edge21" class="edge">
<title>Node1&#45;&gt;Node16</title>
<path fill="none" stroke="midnightblue" d="M46.05,-460C124.88,-460 394.72,-460 520.71,-460"/>
<polygon fill="midnightblue" stroke="midnightblue" points="520.99,-463.5 530.99,-460 520.99,-456.5 520.99,-463.5"/>
</g>
<!-- Node17 -->
<g id="node17" class="node">
<title>Node17</title>
<g id="a_node17"><a xlink:href="namespaceallglobal.html#aea1f5a74462533337cb950b8d7486b25" target="_top" xlink:title="Check if volume vvol is associated to the corresponding MPI node.">
<polygon fill="white" stroke="black" points="97,-159.5 97,-178.5 205,-178.5 205,-159.5 97,-159.5"/>
<text text-anchor="middle" x="151" y="-166.5" font-family="Helvetica,sans-Serif" font-size="10.00">allglobal::ismyvolume</text>
</a>
</g>
</g>
<!-- Node1&#45;&gt;Node17 -->
<g id="edge23" class="edge">
<title>Node1&#45;&gt;Node17</title>
<path fill="none" stroke="midnightblue" d="M24.75,-450.5C28.36,-407.16 45.27,-228.6 82,-189 83.83,-187.03 85.84,-185.24 88,-183.63"/>
<polygon fill="midnightblue" stroke="midnightblue" points="90.16,-186.42 96.9,-178.25 86.53,-180.43 90.16,-186.42"/>
</g>
<!-- Node18 -->
<g id="node18" class="node">
<title>Node18</title>
<g id="a_node18"><a xlink:href="lbpol_8f90.html#a29ae6196c664f390d0e60ab7916c806b" target="_top" xlink:title="Computes &#160;at the interface.">
<polygon fill="white" stroke="black" points="799,-564.5 799,-583.5 836,-583.5 836,-564.5 799,-564.5"/>
<text text-anchor="middle" x="817.5" y="-571.5" font-family="Helvetica,sans-Serif" font-size="10.00">lbpol</text>
</a>
</g>
</g>
<!-- Node1&#45;&gt;Node18 -->
<g id="edge24" class="edge">
<title>Node1&#45;&gt;Node18</title>
<path fill="none" stroke="midnightblue" d="M26.54,-469.81C32.47,-490.65 49.27,-539.42 82,-564 158.03,-621.11 195.41,-612 290.5,-612 290.5,-612 290.5,-612 588.5,-612 661.75,-612 746.46,-592.68 789.04,-581.59"/>
<polygon fill="midnightblue" stroke="midnightblue" points="790.16,-584.92 798.93,-578.97 788.37,-578.15 790.16,-584.92"/>
</g>
<!-- Node19 -->
<g id="node19" class="node">
<title>Node19</title>
<g id="a_node19"><a xlink:href="group__grp__integrals.html#ga400af9e33dd5465ff9a4bba9fbf91108" target="_top" xlink:title="Calculates volume integrals of Chebyshev polynomials and metric element products.">
<polygon fill="white" stroke="black" points="680,-545.5 680,-564.5 731,-564.5 731,-545.5 680,-545.5"/>
<text text-anchor="middle" x="705.5" y="-552.5" font-family="Helvetica,sans-Serif" font-size="10.00">ma00aa</text>
</a>
</g>
</g>
<!-- Node1&#45;&gt;Node19 -->
<g id="edge28" class="edge">
<title>Node1&#45;&gt;Node19</title>
<path fill="none" stroke="midnightblue" d="M29.37,-469.62C38.27,-484.6 57.52,-513.3 82,-528 163.35,-576.86 195.6,-574 290.5,-574 290.5,-574 290.5,-574 430,-574 516.48,-574 617.92,-564.5 669.91,-558.93"/>
<polygon fill="midnightblue" stroke="midnightblue" points="670.37,-562.41 679.93,-557.84 669.61,-555.45 670.37,-562.41"/>
</g>
<!-- Node21 -->
<g id="node21" class="node">
<title>Node21</title>
<g id="a_node21"><a xlink:href="group__grp__solver__driver.html#gacad623d4c5c006e9ad10116372f92ad3" target="_top" xlink:title="Constructs Beltrami field in given volume consistent with flux, helicity, rotational&#45;transform and/or...">
<polygon fill="white" stroke="black" points="125.5,-334.5 125.5,-353.5 176.5,-353.5 176.5,-334.5 125.5,-334.5"/>
<text text-anchor="middle" x="151" y="-341.5" font-family="Helvetica,sans-Serif" font-size="10.00">ma02aa</text>
</a>
</g>
</g>
<!-- Node1&#45;&gt;Node21 -->
<g id="edge35" class="edge">
<title>Node1&#45;&gt;Node21</title>
<path fill="none" stroke="midnightblue" d="M34.74,-450.11C56.42,-430.15 105.61,-384.87 132.17,-360.41"/>
<polygon fill="midnightblue" stroke="midnightblue" points="134.65,-362.89 139.64,-353.54 129.91,-357.74 134.65,-362.89"/>
</g>
<!-- Node30 -->
<g id="node30" class="node">
<title>Node30</title>
<g id="a_node30"><a xlink:href="group__grp__build__matrices.html#ga1c52bb6dbffdb432550aae12b096080f" target="_top" xlink:title="Constructs energy and helicity matrices that represent the Beltrami linear system....">
<polygon fill="white" stroke="black" points="129.5,-121.5 129.5,-140.5 172.5,-140.5 172.5,-121.5 129.5,-121.5"/>
<text text-anchor="middle" x="151" y="-128.5" font-family="Helvetica,sans-Serif" font-size="10.00">matrix</text>
</a>
</g>
</g>
<!-- Node1&#45;&gt;Node30 -->
<g id="edge51" class="edge">
<title>Node1&#45;&gt;Node30</title>
<path fill="none" stroke="midnightblue" d="M24.46,-450.42C26.94,-403.21 40.11,-195.72 82,-150 91.41,-139.73 105.86,-134.83 119.03,-132.56"/>
<polygon fill="midnightblue" stroke="midnightblue" points="119.72,-136 129.19,-131.25 118.82,-129.06 119.72,-136"/>
</g>
<!-- Node31 -->
<g id="node31" class="node">
<title>Node31</title>
<g id="a_node31"><a xlink:href="group__grp__integrals.html#ga01df49c498752e8a4201cc6eb5e283af" target="_top" xlink:title="Calculates volume integrals of Chebyshev&#45;polynomials and metric elements for preconditioner.">
<polygon fill="white" stroke="black" points="684,-488.5 684,-507.5 727,-507.5 727,-488.5 684,-488.5"/>
<text text-anchor="middle" x="705.5" y="-495.5" font-family="Helvetica,sans-Serif" font-size="10.00">spsint</text>
</a>
</g>
</g>
<!-- Node1&#45;&gt;Node31 -->
<g id="edge52" class="edge">
<title>Node1&#45;&gt;Node31</title>
<path fill="none" stroke="midnightblue" d="M37.13,-469.76C48.46,-477.72 65.54,-488.64 82,-495 170.1,-529.02 196.06,-536 290.5,-536 290.5,-536 290.5,-536 430,-536 519.38,-536 623.6,-515.99 674.05,-505.01"/>
<polygon fill="midnightblue" stroke="midnightblue" points="674.97,-508.39 683.97,-502.81 673.45,-501.56 674.97,-508.39"/>
</g>
<!-- Node32 -->
<g id="node32" class="node">
<title>Node32</title>
<g id="a_node32"><a xlink:href="group__grp__build__matrices.html#ga4d521a46a64530ade50e6b79a33e1452" target="_top" xlink:title="Constructs matrices for the precondtioner.">
<polygon fill="white" stroke="black" points="126.5,-76.5 126.5,-95.5 175.5,-95.5 175.5,-76.5 126.5,-76.5"/>
<text text-anchor="middle" x="151" y="-83.5" font-family="Helvetica,sans-Serif" font-size="10.00">spsmat</text>
</a>
</g>
</g>
<!-- Node1&#45;&gt;Node32 -->
<g id="edge55" class="edge">
<title>Node1&#45;&gt;Node32</title>
<path fill="none" stroke="midnightblue" d="M24.34,-450.36C26.33,-399.86 37.8,-166.06 82,-112 90.59,-101.5 103.92,-95.23 116.52,-91.5"/>
<polygon fill="midnightblue" stroke="midnightblue" points="117.52,-94.85 126.36,-89.01 115.8,-88.07 117.52,-94.85"/>
</g>
<!-- Node36 -->
<g id="node36" class="node">
<title>Node36</title>
<g id="a_node36"><a xlink:href="namespaceallglobal.html#ad2dbd21d0579d623a92119c5ab553c7c" target="_top" xlink:title="Returns which MPI node is associated to a given volume.">
<polygon fill="white" stroke="black" points="98.5,-38.5 98.5,-57.5 203.5,-57.5 203.5,-38.5 98.5,-38.5"/>
<text text-anchor="middle" x="151" y="-45.5" font-family="Helvetica,sans-Serif" font-size="10.00">allglobal::whichcpuid</text>
</a>
</g>
</g>
<!-- Node1&#45;&gt;Node36 -->
<g id="edge60" class="edge">
<title>Node1&#45;&gt;Node36</title>
<path fill="none" stroke="midnightblue" d="M24.05,-450.15C24.55,-395.14 29.67,-126.37 82,-67 84.23,-64.47 86.76,-62.27 89.51,-60.35"/>
<polygon fill="midnightblue" stroke="midnightblue" points="91.31,-63.35 98.31,-55.39 87.88,-57.25 91.31,-63.35"/>
</g>
<!-- Node5 -->
<g id="node5" class="node">
<title>Node5</title>
<g id="a_node5"><a xlink:href="group__grp__geometry.html#gaaca20aa60eaf39055f3c9d5c02a24ac2" target="_top" xlink:title="Calculates coordinates, , and metrics, using FFTs.">
<polygon fill="white" stroke="black" points="904,-583.5 904,-602.5 950,-602.5 950,-583.5 904,-583.5"/>
<text text-anchor="middle" x="927" y="-590.5" font-family="Helvetica,sans-Serif" font-size="10.00">coords</text>
</a>
</g>
</g>
<!-- Node4&#45;&gt;Node5 -->
<g id="edge4" class="edge">
<title>Node4&#45;&gt;Node5</title>
<path fill="none" stroke="midnightblue" d="M868.16,-603.22C876.88,-601.68 885.75,-600.11 893.83,-598.69"/>
<polygon fill="midnightblue" stroke="midnightblue" points="894.69,-602.09 903.93,-596.9 893.47,-595.19 894.69,-602.09"/>
</g>
<!-- Node6 -->
<g id="node6" class="node">
<title>Node6</title>
<g id="a_node6"><a xlink:href="group__grp__numerics.html#ga1fd52accb0646f535f9bcc46cf5a68f3" target="_top" xlink:title="Inverse Fourier transform (fftw wrapper)">
<polygon fill="white" stroke="black" points="991,-374.5 991,-393.5 1029,-393.5 1029,-374.5 991,-374.5"/>
<text text-anchor="middle" x="1010" y="-381.5" font-family="Helvetica,sans-Serif" font-size="10.00">invfft</text>
</a>
</g>
</g>
<!-- Node5&#45;&gt;Node6 -->
<g id="edge5" class="edge">
<title>Node5&#45;&gt;Node6</title>
<path fill="none" stroke="midnightblue" d="M933.44,-583.27C938.14,-574.67 944.95,-561.7 950,-550 972.43,-498 993.28,-434.37 1003.1,-403.15"/>
<polygon fill="midnightblue" stroke="midnightblue" points="1006.47,-404.12 1006.1,-393.53 999.78,-402.03 1006.47,-404.12"/>
</g>
<!-- Node5&#45;&gt;Node7 -->
<g id="edge6" class="edge">
<title>Node5&#45;&gt;Node7</title>
<path fill="none" stroke="midnightblue" d="M950.13,-597.29C962.55,-602.16 977.89,-609.44 989.8,-616.15"/>
<polygon fill="midnightblue" stroke="midnightblue" points="988.12,-619.22 998.49,-621.35 991.71,-613.22 988.12,-619.22"/>
</g>
<!-- Node7&#45;&gt;Node5 -->
<g id="edge7" class="edge">
<title>Node7&#45;&gt;Node5</title>
<path fill="none" stroke="midnightblue" d="M985.79,-626.28C973.65,-621.45 958.94,-614.45 947.41,-607.97"/>
<polygon fill="midnightblue" stroke="midnightblue" points="948.97,-604.82 938.59,-602.7 945.38,-610.83 948.97,-604.82"/>
</g>
<!-- Node8&#45;&gt;Node5 -->
<g id="edge9" class="edge">
<title>Node8&#45;&gt;Node5</title>
<path fill="none" stroke="midnightblue" d="M823.94,-355.53C833.48,-372.44 853.59,-408.94 868,-441 888.95,-487.6 909.25,-544.24 919.36,-573.46"/>
<polygon fill="midnightblue" stroke="midnightblue" points="916.16,-574.92 922.72,-583.24 922.78,-572.64 916.16,-574.92"/>
</g>
<!-- Node8&#45;&gt;Node6 -->
<g id="edge10" class="edge">
<title>Node8&#45;&gt;Node6</title>
<path fill="none" stroke="midnightblue" d="M839.52,-349.49C865.54,-353.88 911.16,-361.85 950,-370 960.14,-372.13 971.2,-374.69 980.98,-377.03"/>
<polygon fill="midnightblue" stroke="midnightblue" points="980.44,-380.5 990.98,-379.46 982.09,-373.7 980.44,-380.5"/>
</g>
<!-- Node9 -->
<g id="node9" class="node">
<title>Node9</title>
<g id="a_node9"><a xlink:href="group__grp__numerics.html#ga041138109a57e651c57117bb4180409e" target="_top" xlink:title="Forward Fourier transform (fftw wrapper)">
<polygon fill="white" stroke="black" points="912.5,-450.5 912.5,-469.5 941.5,-469.5 941.5,-450.5 912.5,-450.5"/>
<text text-anchor="middle" x="927" y="-457.5" font-family="Helvetica,sans-Serif" font-size="10.00">tfft</text>
</a>
</g>
</g>
<!-- Node8&#45;&gt;Node9 -->
<g id="edge11" class="edge">
<title>Node8&#45;&gt;Node9</title>
<path fill="none" stroke="midnightblue" d="M827.67,-355.72C845.91,-375.07 886.99,-418.63 909.86,-442.88"/>
<polygon fill="midnightblue" stroke="midnightblue" points="907.45,-445.43 916.86,-450.31 912.54,-440.63 907.45,-445.43"/>
</g>
<!-- Node13 -->
<g id="node13" class="node">
<title>Node13</title>
<g id="a_node13"><a xlink:href="intghs_8f90.html#a21d3b7106371783302e68297f7797e9f" target="_top" xlink:title="Calculates volume integrals of Chebyshev polynomials and covariant field products.">
<polygon fill="white" stroke="black" points="684,-450.5 684,-469.5 727,-469.5 727,-450.5 684,-450.5"/>
<text text-anchor="middle" x="705.5" y="-457.5" font-family="Helvetica,sans-Serif" font-size="10.00">intghs</text>
</a>
</g>
</g>
<!-- Node12&#45;&gt;Node13 -->
<g id="edge15" class="edge">
<title>Node12&#45;&gt;Node13</title>
<path fill="none" stroke="midnightblue" d="M495.13,-495.86C537.8,-493.57 594.61,-488.83 644,-479 654.02,-477.01 664.72,-473.96 674.29,-470.89"/>
<polygon fill="midnightblue" stroke="midnightblue" points="675.41,-474.21 683.79,-467.72 673.2,-467.57 675.41,-474.21"/>
</g>
<!-- Node13&#45;&gt;Node4 -->
<g id="edge16" class="edge">
<title>Node13&#45;&gt;Node4</title>
<path fill="none" stroke="midnightblue" d="M721.83,-469.58C725.22,-472.29 728.54,-475.47 731,-479 761.37,-522.6 730.59,-554.31 767,-593 768.37,-594.46 769.87,-595.81 771.46,-597.05"/>
<polygon fill="midnightblue" stroke="midnightblue" points="769.71,-600.09 780.04,-602.46 773.45,-594.17 769.71,-600.09"/>
</g>
<!-- Node13&#45;&gt;Node6 -->
<g id="edge19" class="edge">
<title>Node13&#45;&gt;Node6</title>
<path fill="none" stroke="midnightblue" d="M723.49,-450.41C735.35,-444.08 751.74,-436.05 767,-431 842.24,-406.12 935.23,-392.64 980.94,-387.09"/>
<polygon fill="midnightblue" stroke="midnightblue" points="981.47,-390.55 990.99,-385.9 980.65,-383.6 981.47,-390.55"/>
</g>
<!-- Node13&#45;&gt;Node9 -->
<g id="edge20" class="edge">
<title>Node13&#45;&gt;Node9</title>
<path fill="none" stroke="midnightblue" d="M727.13,-451.8C738.65,-447.66 753.4,-443.09 767,-441 811.37,-434.2 823.67,-433.92 868,-441 879.77,-442.88 892.4,-446.78 902.85,-450.55"/>
<polygon fill="midnightblue" stroke="midnightblue" points="901.88,-453.93 912.48,-454.21 904.37,-447.39 901.88,-453.93"/>
</g>
<!-- Node14 -->
<g id="node14" class="node">
<title>Node14</title>
<g id="a_node14"><a xlink:href="basefn_8f90.html#af6a4cad04c70bfb14fd18a3bfbc843a3" target="_top" xlink:title="Get the Chebyshev polynomials with zeroth, first derivatives.">
<polygon fill="white" stroke="black" points="787,-450.5 787,-469.5 848,-469.5 848,-450.5 787,-450.5"/>
<text text-anchor="middle" x="817.5" y="-457.5" font-family="Helvetica,sans-Serif" font-size="10.00">get_cheby</text>
</a>
</g>
</g>
<!-- Node13&#45;&gt;Node14 -->
<g id="edge17" class="edge">
<title>Node13&#45;&gt;Node14</title>
<path fill="none" stroke="midnightblue" d="M727.19,-460C741.11,-460 759.9,-460 776.66,-460"/>
<polygon fill="midnightblue" stroke="midnightblue" points="776.77,-463.5 786.77,-460 776.77,-456.5 776.77,-463.5"/>
</g>
<!-- Node15 -->
<g id="node15" class="node">
<title>Node15</title>
<g id="a_node15"><a xlink:href="basefn_8f90.html#a38dc596fb909186b01dacc1feac03164" target="_top" xlink:title="Get the Zernike polynomials &#160;with zeroth, first derivatives.">
<polygon fill="white" stroke="black" points="784.5,-488.5 784.5,-507.5 850.5,-507.5 850.5,-488.5 784.5,-488.5"/>
<text text-anchor="middle" x="817.5" y="-495.5" font-family="Helvetica,sans-Serif" font-size="10.00">get_zernike</text>
</a>
</g>
</g>
<!-- Node13&#45;&gt;Node15 -->
<g id="edge18" class="edge">
<title>Node13&#45;&gt;Node15</title>
<path fill="none" stroke="midnightblue" d="M727.19,-467.15C741.76,-472.18 761.67,-479.06 779,-485.04"/>
<polygon fill="midnightblue" stroke="midnightblue" points="778.25,-488.49 788.84,-488.44 780.53,-481.87 778.25,-488.49"/>
</g>
<!-- Node16&#45;&gt;Node13 -->
<g id="edge22" class="edge">
<title>Node16&#45;&gt;Node13</title>
<path fill="none" stroke="midnightblue" d="M644.12,-460C654.32,-460 664.61,-460 673.74,-460"/>
<polygon fill="midnightblue" stroke="midnightblue" points="673.85,-463.5 683.85,-460 673.85,-456.5 673.85,-463.5"/>
</g>
<!-- Node18&#45;&gt;Node5 -->
<g id="edge25" class="edge">
<title>Node18&#45;&gt;Node5</title>
<path fill="none" stroke="midnightblue" d="M836.25,-577.14C851.85,-579.89 874.93,-583.97 893.78,-587.31"/>
<polygon fill="midnightblue" stroke="midnightblue" points="893.29,-590.77 903.75,-589.07 894.51,-583.88 893.29,-590.77"/>
</g>
<!-- Node18&#45;&gt;Node6 -->
<g id="edge26" class="edge">
<title>Node18&#45;&gt;Node6</title>
<path fill="none" stroke="midnightblue" d="M836.21,-569.02C846.01,-565.83 858.15,-561.13 868,-555 910.18,-528.73 918.39,-517.34 950,-479 970.18,-454.52 988.64,-422.59 999.35,-402.69"/>
<polygon fill="midnightblue" stroke="midnightblue" points="1002.51,-404.21 1004.08,-393.73 996.32,-400.94 1002.51,-404.21"/>
</g>
<!-- Node18&#45;&gt;Node9 -->
<g id="edge27" class="edge">
<title>Node18&#45;&gt;Node9</title>
<path fill="none" stroke="midnightblue" d="M836.46,-570.16C846.57,-567.29 858.95,-562.54 868,-555 892.77,-534.37 909.88,-500.29 918.8,-479.04"/>
<polygon fill="midnightblue" stroke="midnightblue" points="922.16,-480.09 922.62,-469.5 915.66,-477.49 922.16,-480.09"/>
</g>
<!-- Node19&#45;&gt;Node4 -->
<g id="edge29" class="edge">
<title>Node19&#45;&gt;Node4</title>
<path fill="none" stroke="midnightblue" d="M719.99,-564.54C731.97,-572.75 750.14,-584.57 767,-593 771,-595 775.26,-596.92 779.54,-598.73"/>
<polygon fill="midnightblue" stroke="midnightblue" points="778.27,-601.99 788.86,-602.48 780.89,-595.5 778.27,-601.99"/>
</g>
<!-- Node19&#45;&gt;Node7 -->
<g id="edge34" class="edge">
<title>Node19&#45;&gt;Node7</title>
<path fill="none" stroke="midnightblue" d="M710.61,-564.51C718.59,-581.59 737.98,-617.01 767,-631 835.22,-663.89 927.37,-650.46 975.91,-639.63"/>
<polygon fill="midnightblue" stroke="midnightblue" points="976.92,-642.99 985.86,-637.31 975.33,-636.18 976.92,-642.99"/>
</g>
<!-- Node19&#45;&gt;Node14 -->
<g id="edge30" class="edge">
<title>Node19&#45;&gt;Node14</title>
<path fill="none" stroke="midnightblue" d="M713.11,-545.49C725.87,-527.33 753.81,-488.67 767,-479 770.25,-476.62 773.83,-474.5 777.54,-472.62"/>
<polygon fill="midnightblue" stroke="midnightblue" points="779.21,-475.7 786.9,-468.42 776.35,-469.32 779.21,-475.7"/>
</g>
<!-- Node19&#45;&gt;Node15 -->
<g id="edge31" class="edge">
<title>Node19&#45;&gt;Node15</title>
<path fill="none" stroke="midnightblue" d="M719.99,-545.46C731.97,-537.25 750.14,-525.43 767,-517 771,-515 775.26,-513.08 779.54,-511.27"/>
<polygon fill="midnightblue" stroke="midnightblue" points="780.89,-514.5 788.86,-507.52 778.27,-508.01 780.89,-514.5"/>
</g>
<!-- Node20 -->
<g id="node20" class="node">
<title>Node20</title>
<g id="a_node20"><a xlink:href="group__grp__metrics.html#ga254ce8e645c4110d77e3b3dbc3a89885" target="_top" xlink:title="Calculates the metric quantities, , which are required for the energy and helicity integrals.">
<polygon fill="white" stroke="black" points="796,-526.5 796,-545.5 839,-545.5 839,-526.5 796,-526.5"/>
<text text-anchor="middle" x="817.5" y="-533.5" font-family="Helvetica,sans-Serif" font-size="10.00">metrix</text>
</a>
</g>
</g>
<!-- Node19&#45;&gt;Node20 -->
<g id="edge32" class="edge">
<title>Node19&#45;&gt;Node20</title>
<path fill="none" stroke="midnightblue" d="M731.19,-550.74C747.34,-547.95 768.57,-544.28 785.81,-541.3"/>
<polygon fill="midnightblue" stroke="midnightblue" points="786.69,-544.7 795.95,-539.55 785.5,-537.8 786.69,-544.7"/>
</g>
<!-- Node20&#45;&gt;Node9 -->
<g id="edge33" class="edge">
<title>Node20&#45;&gt;Node9</title>
<path fill="none" stroke="midnightblue" d="M839.15,-530.19C848.39,-527.07 859.17,-522.68 868,-517 884.79,-506.2 900.72,-489.95 911.63,-477.55"/>
<polygon fill="midnightblue" stroke="midnightblue" points="914.49,-479.59 918.32,-469.71 909.17,-475.04 914.49,-479.59"/>
</g>
<!-- Node22 -->
<g id="node22" class="node">
<title>Node22</title>
<g id="a_node22"><a xlink:href="group__grp__integrals.html#ga6d086e8d1af527def50b653b86e8373a" target="_top" xlink:title="Evaluates volume integrals, and their derivatives w.r.t. interface geometry, using &quot;packed&quot; format.">
<polygon fill="white" stroke="black" points="268.5,-152.5 268.5,-171.5 314.5,-171.5 314.5,-152.5 268.5,-152.5"/>
<text text-anchor="middle" x="291.5" y="-159.5" font-family="Helvetica,sans-Serif" font-size="10.00">df00ab</text>
</a>
</g>
</g>
<!-- Node21&#45;&gt;Node22 -->
<g id="edge36" class="edge">
<title>Node21&#45;&gt;Node22</title>
<path fill="none" stroke="midnightblue" d="M176.5,-341.1C191.04,-338.13 208.77,-332.13 220,-320 261.9,-274.75 220.54,-236.45 256,-186 258.08,-183.05 260.64,-180.34 263.43,-177.89"/>
<polygon fill="midnightblue" stroke="midnightblue" points="265.76,-180.51 271.64,-171.69 261.55,-174.92 265.76,-180.51"/>
</g>
<!-- Node23 -->
<g id="node23" class="node">
<title>Node23</title>
<g id="a_node23"><a xlink:href="group__grp__solver.html#ga6626839aff500f060beb5bce2b90c447" target="_top" xlink:title="Solves Beltrami/vacuum (linear) system, given matrices.unpacking fluxes, helicity multiplier">
<polygon fill="white" stroke="black" points="266,-334.5 266,-353.5 317,-353.5 317,-334.5 266,-334.5"/>
<text text-anchor="middle" x="291.5" y="-341.5" font-family="Helvetica,sans-Serif" font-size="10.00">mp00ac</text>
</a>
</g>
</g>
<!-- Node21&#45;&gt;Node23 -->
<g id="edge37" class="edge">
<title>Node21&#45;&gt;Node23</title>
<path fill="none" stroke="midnightblue" d="M176.76,-344C198.82,-344 231.32,-344 255.94,-344"/>
<polygon fill="midnightblue" stroke="midnightblue" points="255.95,-347.5 265.95,-344 255.95,-340.5 255.95,-347.5"/>
</g>
<!-- Node25 -->
<g id="node25" class="node">
<title>Node25</title>
<g id="a_node25"><a xlink:href="group__grp__packing.html#gaee2357e570aebf8559e169def6b619dd" target="_top" xlink:title="Packs and unpacks Beltrami field solution vector.">
<polygon fill="white" stroke="black" points="681.5,-222.5 681.5,-241.5 729.5,-241.5 729.5,-222.5 681.5,-222.5"/>
<text text-anchor="middle" x="705.5" y="-229.5" font-family="Helvetica,sans-Serif" font-size="10.00">packab</text>
</a>
</g>
</g>
<!-- Node21&#45;&gt;Node25 -->
<g id="edge50" class="edge">
<title>Node21&#45;&gt;Node25</title>
<path fill="none" stroke="midnightblue" d="M176.58,-336.31C189.65,-331.98 205.9,-326.19 220,-320 285.9,-291.05 294.07,-264.7 363,-244 472.03,-211.26 609.49,-220.86 671.5,-227.72"/>
<polygon fill="midnightblue" stroke="midnightblue" points="671.14,-231.2 681.48,-228.88 671.95,-224.25 671.14,-231.2"/>
</g>
<!-- Node23&#45;&gt;Node8 -->
<g id="edge38" class="edge">
<title>Node23&#45;&gt;Node8</title>
<path fill="none" stroke="midnightblue" d="M317.12,-350.12C330.58,-353.15 347.6,-356.49 363,-358 521.01,-373.54 711.37,-357.16 785.16,-349.5"/>
<polygon fill="midnightblue" stroke="midnightblue" points="785.61,-352.97 795.18,-348.44 784.87,-346.01 785.61,-352.97"/>
</g>
<!-- Node23&#45;&gt;Node13 -->
<g id="edge39" class="edge">
<title>Node23&#45;&gt;Node13</title>
<path fill="none" stroke="midnightblue" d="M301.97,-353.84C314.62,-366.32 338.32,-387.49 363,-398 479.23,-447.52 520.93,-412.43 644,-441 654.03,-443.33 664.8,-446.49 674.44,-449.57"/>
<polygon fill="midnightblue" stroke="midnightblue" points="673.4,-452.91 683.99,-452.7 675.59,-446.26 673.4,-452.91"/>
</g>
<!-- Node24 -->
<g id="node24" class="node">
<title>Node24</title>
<g id="a_node24"><a xlink:href="group__grp__build__matrices.html#ga6c22bb4322fbcc29cb17dcc90b56eacd" target="_top" xlink:title="Constructs matrices that represent the Beltrami linear system, matrix&#45;free.">
<polygon fill="white" stroke="black" points="682.5,-298.5 682.5,-317.5 728.5,-317.5 728.5,-298.5 682.5,-298.5"/>
<text text-anchor="middle" x="705.5" y="-305.5" font-family="Helvetica,sans-Serif" font-size="10.00">mtrxhs</text>
</a>
</g>
</g>
<!-- Node23&#45;&gt;Node24 -->
<g id="edge40" class="edge">
<title>Node23&#45;&gt;Node24</title>
<path fill="none" stroke="midnightblue" d="M317.03,-344.95C374.63,-346.73 522.8,-348.59 644,-327 653.55,-325.3 663.7,-322.52 672.89,-319.6"/>
<polygon fill="midnightblue" stroke="midnightblue" points="674.05,-322.91 682.43,-316.43 671.84,-316.26 674.05,-322.91"/>
</g>
<!-- Node23&#45;&gt;Node25 -->
<g id="edge41" class="edge">
<title>Node23&#45;&gt;Node25</title>
<path fill="none" stroke="midnightblue" d="M302.05,-334.25C314.79,-321.82 338.59,-300.57 363,-289 467.49,-239.49 607.78,-232.2 671.06,-231.64"/>
<polygon fill="midnightblue" stroke="midnightblue" points="671.26,-235.14 681.25,-231.6 671.24,-228.14 671.26,-235.14"/>
</g>
<!-- Node26 -->
<g id="node26" class="node">
<title>Node26</title>
<g id="a_node26"><a xlink:href="mp00ac_8f90.html#a304edac43f63d39dda4419b4d044eac5" target="_top" xlink:title="run GMRES">
<polygon fill="white" stroke="black" points="400.5,-298.5 400.5,-317.5 457.5,-317.5 457.5,-298.5 400.5,-298.5"/>
<text text-anchor="middle" x="429" y="-305.5" font-family="Helvetica,sans-Serif" font-size="10.00">rungmres</text>
</a>
</g>
</g>
<!-- Node23&#45;&gt;Node26 -->
<g id="edge42" class="edge">
<title>Node23&#45;&gt;Node26</title>
<path fill="none" stroke="midnightblue" d="M317.04,-337.48C337.5,-332.04 366.99,-324.21 390.42,-317.98"/>
<polygon fill="midnightblue" stroke="midnightblue" points="391.61,-321.29 400.38,-315.34 389.81,-314.52 391.61,-321.29"/>
</g>
<!-- Node29 -->
<g id="node29" class="node">
<title>Node29</title>
<g id="a_node29"><a xlink:href="group__grp__transform.html#ga0e0447653b8da82f06748dd8831bc337" target="_top" xlink:title="Calculates rotational transform given an arbitrary tangential field.">
<polygon fill="white" stroke="black" points="905,-222.5 905,-241.5 949,-241.5 949,-222.5 905,-222.5"/>
<text text-anchor="middle" x="927" y="-229.5" font-family="Helvetica,sans-Serif" font-size="10.00">tr00ab</text>
</a>
</g>
</g>
<!-- Node23&#45;&gt;Node29 -->
<g id="edge48" class="edge">
<title>Node23&#45;&gt;Node29</title>
<path fill="none" stroke="midnightblue" d="M296.19,-334.4C304.57,-314.08 327.13,-266.87 363,-246 540.42,-142.77 805.47,-199.44 895.11,-223.17"/>
<polygon fill="midnightblue" stroke="midnightblue" points="894.35,-226.59 904.92,-225.82 896.18,-219.83 894.35,-226.59"/>
</g>
<!-- Node27 -->
<g id="node27" class="node">
<title>Node27</title>
<g id="a_node27"><a xlink:href="mp00ac_8f90.html#ae9fe335bb4916face9f9d19ce8c0f5d7" target="_top" xlink:title="compute a.x by either by coumputing it directly, or using a matrix free method">
<polygon fill="white" stroke="black" points="563,-260.5 563,-279.5 612,-279.5 612,-260.5 563,-260.5"/>
<text text-anchor="middle" x="587.5" y="-267.5" font-family="Helvetica,sans-Serif" font-size="10.00">matvec</text>
</a>
</g>
</g>
<!-- Node26&#45;&gt;Node27 -->
<g id="edge43" class="edge">
<title>Node26&#45;&gt;Node27</title>
<path fill="none" stroke="midnightblue" d="M457.62,-301.29C484.19,-294.84 524.41,-285.08 552.84,-278.17"/>
<polygon fill="midnightblue" stroke="midnightblue" points="553.85,-281.53 562.74,-275.77 552.2,-274.73 553.85,-281.53"/>
</g>
<!-- Node28 -->
<g id="node28" class="node">
<title>Node28</title>
<g id="a_node28"><a xlink:href="mp00ac_8f90.html#a76cda97bf815eb7f40cb76ad1719d809" target="_top" xlink:title="apply the preconditioner">
<polygon fill="white" stroke="black" points="555.5,-298.5 555.5,-317.5 619.5,-317.5 619.5,-298.5 555.5,-298.5"/>
<text text-anchor="middle" x="587.5" y="-305.5" font-family="Helvetica,sans-Serif" font-size="10.00">prec_solve</text>
</a>
</g>
</g>
<!-- Node26&#45;&gt;Node28 -->
<g id="edge47" class="edge">
<title>Node26&#45;&gt;Node28</title>
<path fill="none" stroke="midnightblue" d="M457.62,-308C481.9,-308 517.57,-308 545.23,-308"/>
<polygon fill="midnightblue" stroke="midnightblue" points="545.4,-311.5 555.4,-308 545.4,-304.5 545.4,-311.5"/>
</g>
<!-- Node27&#45;&gt;Node13 -->
<g id="edge44" class="edge">
<title>Node27&#45;&gt;Node13</title>
<path fill="none" stroke="midnightblue" d="M612.05,-273.24C623,-275.85 635.46,-280.55 644,-289 686.61,-331.18 699.3,-405.2 703.01,-440.38"/>
<polygon fill="midnightblue" stroke="midnightblue" points="699.53,-440.7 703.93,-450.34 706.5,-440.06 699.53,-440.7"/>
</g>
<!-- Node27&#45;&gt;Node24 -->
<g id="edge45" class="edge">
<title>Node27&#45;&gt;Node24</title>
<path fill="none" stroke="midnightblue" d="M612.25,-277.78C629.67,-283.49 653.51,-291.3 672.59,-297.55"/>
<polygon fill="midnightblue" stroke="midnightblue" points="671.76,-300.96 682.35,-300.74 673.94,-294.3 671.76,-300.96"/>
</g>
<!-- Node27&#45;&gt;Node25 -->
<g id="edge46" class="edge">
<title>Node27&#45;&gt;Node25</title>
<path fill="none" stroke="midnightblue" d="M612.25,-262.22C629.33,-256.62 652.59,-249.01 671.48,-242.82"/>
<polygon fill="midnightblue" stroke="midnightblue" points="672.76,-246.08 681.17,-239.64 670.58,-239.43 672.76,-246.08"/>
</g>
<!-- Node29&#45;&gt;Node6 -->
<g id="edge49" class="edge">
<title>Node29&#45;&gt;Node6</title>
<path fill="none" stroke="midnightblue" d="M933.07,-241.51C946.25,-266.25 981.8,-332.95 999.17,-365.56"/>
<polygon fill="midnightblue" stroke="midnightblue" points="996.14,-367.32 1003.94,-374.5 1002.32,-364.02 996.14,-367.32"/>
</g>
<!-- Node31&#45;&gt;Node14 -->
<g id="edge53" class="edge">
<title>Node31&#45;&gt;Node14</title>
<path fill="none" stroke="midnightblue" d="M727.19,-490.85C741.76,-485.82 761.67,-478.94 779,-472.96"/>
<polygon fill="midnightblue" stroke="midnightblue" points="780.53,-476.13 788.84,-469.56 778.25,-469.51 780.53,-476.13"/>
</g>
<!-- Node31&#45;&gt;Node15 -->
<g id="edge54" class="edge">
<title>Node31&#45;&gt;Node15</title>
<path fill="none" stroke="midnightblue" d="M727.19,-498C740.36,-498 757.9,-498 773.95,-498"/>
<polygon fill="midnightblue" stroke="midnightblue" points="774.22,-501.5 784.22,-498 774.22,-494.5 774.22,-501.5"/>
</g>
<!-- Node33 -->
<g id="node33" class="node">
<title>Node33</title>
<g id="a_node33"><a xlink:href="spsmat_8f90.html#a029deb1b6e086ff346f36f5c61d0c1b2" target="_top" xlink:title="add the content from the queue to the real matrices">
<polygon fill="white" stroke="black" points="268,-0.5 268,-19.5 315,-19.5 315,-0.5 268,-0.5"/>
<text text-anchor="middle" x="291.5" y="-7.5" font-family="Helvetica,sans-Serif" font-size="10.00">addline</text>
</a>
</g>
</g>
<!-- Node32&#45;&gt;Node33 -->
<g id="edge56" class="edge">
<title>Node32&#45;&gt;Node33</title>
<path fill="none" stroke="midnightblue" d="M175.6,-82.64C189.3,-79.92 206.46,-75.16 220,-67 239.92,-54.99 237.59,-43.23 256,-29 257.8,-27.61 259.72,-26.26 261.69,-24.96"/>
<polygon fill="midnightblue" stroke="midnightblue" points="263.74,-27.81 270.5,-19.65 260.13,-21.81 263.74,-27.81"/>
</g>
<!-- Node34 -->
<g id="node34" class="node">
<title>Node34</title>
<g id="a_node34"><a xlink:href="spsmat_8f90.html#ab8d57e74b7461b1d2781c5d56dea6120" target="_top" xlink:title="clean the queue">
<polygon fill="white" stroke="black" points="256,-76.5 256,-95.5 327,-95.5 327,-76.5 256,-76.5"/>
<text text-anchor="middle" x="291.5" y="-83.5" font-family="Helvetica,sans-Serif" font-size="10.00">clean_queue</text>
</a>
</g>
</g>
<!-- Node32&#45;&gt;Node34 -->
<g id="edge57" class="edge">
<title>Node32&#45;&gt;Node34</title>
<path fill="none" stroke="midnightblue" d="M175.81,-86C195.01,-86 222.56,-86 245.84,-86"/>
<polygon fill="midnightblue" stroke="midnightblue" points="245.86,-89.5 255.86,-86 245.86,-82.5 245.86,-89.5"/>
</g>
<!-- Node35 -->
<g id="node35" class="node">
<title>Node35</title>
<g id="a_node35"><a xlink:href="spsmat_8f90.html#a6c4c1ca7c194a5116f2d358c2065ce00" target="_top" xlink:title="push a new element at the back of the queue">
<polygon fill="white" stroke="black" points="259.5,-38.5 259.5,-57.5 323.5,-57.5 323.5,-38.5 259.5,-38.5"/>
<text text-anchor="middle" x="291.5" y="-45.5" font-family="Helvetica,sans-Serif" font-size="10.00">push_back</text>
</a>
</g>
</g>
<!-- Node32&#45;&gt;Node35 -->
<g id="edge58" class="edge">
<title>Node32&#45;&gt;Node35</title>
<path fill="none" stroke="midnightblue" d="M175.81,-79.47C196.04,-73.92 225.55,-65.82 249.56,-59.23"/>
<polygon fill="midnightblue" stroke="midnightblue" points="250.76,-62.53 259.47,-56.51 248.9,-55.78 250.76,-62.53"/>
</g>
</g>
</svg>
