<?xml version="1.0" encoding="UTF-8" standalone="no"?>
<!DOCTYPE svg PUBLIC "-//W3C//DTD SVG 1.1//EN"
 "http://www.w3.org/Graphics/SVG/1.1/DTD/svg11.dtd">
<!-- Generated by graphviz version 3.0.0 (20220413.0106)
 -->
<!-- Title: get_perturbed_solution Pages: 1 -->
<svg width="836pt" height="453pt"
 viewBox="0.00 0.00 836.00 453.00" xmlns="http://www.w3.org/2000/svg" xmlns:xlink="http://www.w3.org/1999/xlink">
<g id="graph0" class="graph" transform="scale(1 1) rotate(0) translate(4 449)">
<title>get_perturbed_solution</title>
<polygon fill="white" stroke="transparent" points="-4,4 -4,-449 832,-449 832,4 -4,4"/>
<!-- Node1 -->
<g id="node1" class="node">
<title>Node1</title>
<g id="a_node1"><a xlink:title="This routine evaluates the value of the magnetic field once the interface is perturbed using matrix p...">
<polygon fill="#bfbfbf" stroke="black" points="713,-38.5 713,-57.5 828,-57.5 828,-38.5 713,-38.5"/>
<text text-anchor="middle" x="770.5" y="-45.5" font-family="Helvetica,sans-Serif" font-size="10.00">get_perturbed_solution</text>
</a>
</g>
</g>
<!-- Node2 -->
<g id="node2" class="node">
<title>Node2</title>
<g id="a_node2"><a xlink:href="dfp200_8f90.html#a55ea75395f8c71731451e1add3720c7e" target="_top" xlink:title="Given the field consistent with the constraints and the geometry, computes local quantites related to...">
<polygon fill="white" stroke="black" points="631,-38.5 631,-57.5 677,-57.5 677,-38.5 631,-38.5"/>
<text text-anchor="middle" x="654" y="-45.5" font-family="Helvetica,sans-Serif" font-size="10.00">dfp200</text>
</a>
</g>
</g>
<!-- Node1&#45;&gt;Node2 -->
<g id="edge1" class="edge">
<title>Node1&#45;&gt;Node2</title>
<path fill="none" stroke="midnightblue" d="M702.81,-41.33C693.57,-41.49 684.67,-41.9 677.11,-42.54"/>
<polygon fill="midnightblue" stroke="midnightblue" points="702.95,-44.83 712.92,-41.25 702.89,-37.83 702.95,-44.83"/>
</g>
<!-- Node2&#45;&gt;Node1 -->
<g id="edge44" class="edge">
<title>Node2&#45;&gt;Node1</title>
<path fill="none" stroke="midnightblue" d="M687.14,-54.14C695.19,-54.56 704.07,-54.76 712.92,-54.75"/>
<polygon fill="midnightblue" stroke="midnightblue" points="687.32,-50.64 677.11,-53.46 686.85,-57.62 687.32,-50.64"/>
</g>
<!-- Node2&#45;&gt;Node2 -->
<g id="edge38" class="edge">
<title>Node2&#45;&gt;Node2</title>
<path fill="none" stroke="midnightblue" d="M673.63,-67.4C672.32,-72.31 665.77,-76 654,-76 635.16,-76 629.71,-66.57 637.66,-57.76"/>
<polygon fill="midnightblue" stroke="midnightblue" points="676.88,-66.09 670.34,-57.76 670.26,-68.35 676.88,-66.09"/>
</g>
<!-- Node3 -->
<g id="node3" class="node">
<title>Node3</title>
<g id="a_node3"><a xlink:href="group__grp__global__force.html#ga38c9d3c50bd043707fefa5137c9dbf44" target="_top" xlink:title="Calculates , where &#160;and , and .">
<polygon fill="white" stroke="black" points="525.5,-217.5 525.5,-236.5 569.5,-236.5 569.5,-217.5 525.5,-217.5"/>
<text text-anchor="middle" x="547.5" y="-224.5" font-family="Helvetica,sans-Serif" font-size="10.00">dforce</text>
</a>
</g>
</g>
<!-- Node2&#45;&gt;Node3 -->
<g id="edge2" class="edge">
<title>Node2&#45;&gt;Node3</title>
<path fill="none" stroke="midnightblue" d="M642.18,-66.54C620.16,-104.25 570.84,-188.74 554.15,-217.33"/>
<polygon fill="midnightblue" stroke="midnightblue" points="645.36,-68.02 647.38,-57.62 639.32,-64.5 645.36,-68.02"/>
</g>
<!-- Node14 -->
<g id="node14" class="node">
<title>Node14</title>
<g id="a_node14"><a xlink:href="dfp200_8f90.html#a6aca59cf350d7b1941f8389d50945a43" target="_top" xlink:title="get LU Beltrami matrices">
<polygon fill="white" stroke="black" points="339,-85.5 339,-104.5 464,-104.5 464,-85.5 339,-85.5"/>
<text text-anchor="middle" x="401.5" y="-92.5" font-family="Helvetica,sans-Serif" font-size="10.00">get_lu_beltrami_matrices</text>
</a>
</g>
</g>
<!-- Node2&#45;&gt;Node14 -->
<g id="edge43" class="edge">
<title>Node2&#45;&gt;Node14</title>
<path fill="none" stroke="midnightblue" d="M621.12,-50.84C612.71,-53.28 603.58,-55.99 595,-58 539.76,-70.96 474.12,-78.97 435.52,-85.49"/>
<polygon fill="midnightblue" stroke="midnightblue" points="622.27,-54.15 630.95,-48.08 620.37,-47.42 622.27,-54.15"/>
</g>
<!-- Node18 -->
<g id="node18" class="node">
<title>Node18</title>
<g id="a_node18"><a xlink:href="dfp200_8f90.html#a7b64c7392b45d0042d8bd7379c0761a5" target="_top" xlink:title="Evaluate the derivative of the square of the magnetic field modulus. Add spectral constraint derivati...">
<polygon fill="white" stroke="black" points="510.5,-38.5 510.5,-57.5 584.5,-57.5 584.5,-38.5 510.5,-38.5"/>
<text text-anchor="middle" x="547.5" y="-45.5" font-family="Helvetica,sans-Serif" font-size="10.00">evaluate_dbb</text>
</a>
</g>
</g>
<!-- Node2&#45;&gt;Node18 -->
<g id="edge39" class="edge">
<title>Node2&#45;&gt;Node18</title>
<path fill="none" stroke="midnightblue" d="M620.82,-41.71C609.36,-41.16 596.38,-41.1 584.61,-41.54"/>
<polygon fill="midnightblue" stroke="midnightblue" points="620.63,-45.21 630.84,-42.36 621.09,-38.22 620.63,-45.21"/>
</g>
<!-- Node19 -->
<g id="node19" class="node">
<title>Node19</title>
<g id="a_node19"><a xlink:href="dfp200_8f90.html#a73ddf39ecc5228201fb643779e17cd36" target="_top" xlink:title="Evaluate mu and psip derivatives and store them in dmupfdx.">
<polygon fill="white" stroke="black" points="500,-0.5 500,-19.5 595,-19.5 595,-0.5 500,-0.5"/>
<text text-anchor="middle" x="547.5" y="-7.5" font-family="Helvetica,sans-Serif" font-size="10.00">evaluate_dmupfdx</text>
</a>
</g>
</g>
<!-- Node2&#45;&gt;Node19 -->
<g id="edge41" class="edge">
<title>Node2&#45;&gt;Node19</title>
<path fill="none" stroke="midnightblue" d="M630.21,-34.03C619.42,-29.23 606.13,-24.06 593.43,-19.65"/>
<polygon fill="midnightblue" stroke="midnightblue" points="628.8,-37.23 639.34,-38.3 631.77,-30.89 628.8,-37.23"/>
</g>
<!-- Node3&#45;&gt;Node3 -->
<g id="edge13" class="edge">
<title>Node3&#45;&gt;Node3</title>
<path fill="none" stroke="midnightblue" d="M567.13,-246.4C565.82,-251.31 559.27,-255 547.5,-255 528.66,-255 523.21,-245.57 531.16,-236.76"/>
<polygon fill="midnightblue" stroke="midnightblue" points="570.38,-245.09 563.84,-236.76 563.76,-247.35 570.38,-245.09"/>
</g>
<!-- Node4 -->
<g id="node4" class="node">
<title>Node4</title>
<g id="a_node4"><a xlink:href="namespaceallglobal.html#a7824bc37519fe88336534ce90ab2af16" target="_top" xlink:title=" ">
<polygon fill="white" stroke="black" points="344.5,-387.5 344.5,-406.5 458.5,-406.5 458.5,-387.5 344.5,-387.5"/>
<text text-anchor="middle" x="401.5" y="-394.5" font-family="Helvetica,sans-Serif" font-size="10.00">allglobal::check_inputs</text>
</a>
</g>
</g>
<!-- Node3&#45;&gt;Node4 -->
<g id="edge3" class="edge">
<title>Node3&#45;&gt;Node4</title>
<path fill="none" stroke="midnightblue" d="M540.4,-246.24C529.7,-277.07 504.73,-337.69 464,-373 456.81,-379.23 447.82,-383.95 438.95,-387.47"/>
<polygon fill="midnightblue" stroke="midnightblue" points="543.75,-247.25 543.59,-236.66 537.11,-245.04 543.75,-247.25"/>
</g>
<!-- Node7 -->
<g id="node7" class="node">
<title>Node7</title>
<g id="a_node7"><a xlink:href="xspech_8f90.html#a48f45478dc2c9f70ea8aa1c60ad06503" target="_top" xlink:title="This is the main &quot;driver&quot; for the physics part of SPEC.">
<polygon fill="white" stroke="black" points="155.5,-311.5 155.5,-330.5 193.5,-330.5 193.5,-311.5 155.5,-311.5"/>
<text text-anchor="middle" x="174.5" y="-318.5" font-family="Helvetica,sans-Serif" font-size="10.00">spec</text>
</a>
</g>
</g>
<!-- Node3&#45;&gt;Node7 -->
<g id="edge37" class="edge">
<title>Node3&#45;&gt;Node7</title>
<path fill="none" stroke="midnightblue" d="M533.14,-244.63C518.3,-262.91 492.63,-290.88 464,-306 380.78,-349.95 348.46,-351.01 255,-340 233.58,-337.48 209.57,-331.25 193.6,-326.61"/>
<polygon fill="midnightblue" stroke="midnightblue" points="536.08,-246.56 539.52,-236.54 530.58,-242.22 536.08,-246.56"/>
</g>
<!-- Node10 -->
<g id="node10" class="node">
<title>Node10</title>
<g id="a_node10"><a xlink:href="group__grp__force__driver.html#gabbc245b3884ee8d8d3e2a52f25149f78" target="_top" xlink:title="fcn1">
<polygon fill="white" stroke="black" points="384,-217.5 384,-236.5 419,-236.5 419,-217.5 384,-217.5"/>
<text text-anchor="middle" x="401.5" y="-224.5" font-family="Helvetica,sans-Serif" font-size="10.00">fcn1</text>
</a>
</g>
</g>
<!-- Node3&#45;&gt;Node10 -->
<g id="edge14" class="edge">
<title>Node3&#45;&gt;Node10</title>
<path fill="none" stroke="midnightblue" d="M515.08,-227C485.64,-227 442.77,-227 419.34,-227"/>
<polygon fill="midnightblue" stroke="midnightblue" points="515.25,-230.5 525.25,-227 515.25,-223.5 515.25,-230.5"/>
</g>
<!-- Node11 -->
<g id="node11" class="node">
<title>Node11</title>
<g id="a_node11"><a xlink:href="group__grp__force__driver.html#gaec14f81fbdbedafbc4189489ec8ae178" target="_top" xlink:title="Employs Newton method to find , where &#160;and &#160;is defined in dforce() .">
<polygon fill="white" stroke="black" points="255,-227.5 255,-246.5 303,-246.5 303,-227.5 255,-227.5"/>
<text text-anchor="middle" x="279" y="-234.5" font-family="Helvetica,sans-Serif" font-size="10.00">newton</text>
</a>
</g>
</g>
<!-- Node3&#45;&gt;Node11 -->
<g id="edge32" class="edge">
<title>Node3&#45;&gt;Node11</title>
<path fill="none" stroke="midnightblue" d="M521.33,-241.64C505.46,-250.01 484.21,-259.68 464,-264 409.67,-275.62 393.28,-275.83 339,-264 323.59,-260.64 307.39,-252.88 295.87,-246.54"/>
<polygon fill="midnightblue" stroke="midnightblue" points="523.35,-244.52 530.45,-236.66 520,-238.38 523.35,-244.52"/>
</g>
<!-- Node12 -->
<g id="node12" class="node">
<title>Node12</title>
<g id="a_node12"><a xlink:href="group__grp__force__driver.html#ga8ccd6c7d901872702521d0a0edf95412" target="_top" xlink:title="fcn2">
<polygon fill="white" stroke="black" points="29.5,-250.5 29.5,-269.5 64.5,-269.5 64.5,-250.5 29.5,-250.5"/>
<text text-anchor="middle" x="47" y="-257.5" font-family="Helvetica,sans-Serif" font-size="10.00">fcn2</text>
</a>
</g>
</g>
<!-- Node3&#45;&gt;Node12 -->
<g id="edge26" class="edge">
<title>Node3&#45;&gt;Node12</title>
<path fill="none" stroke="midnightblue" d="M515.12,-218.81C444.59,-201.85 268.85,-167.69 130,-208 101.51,-216.27 73.43,-237.75 58.67,-250.36"/>
<polygon fill="midnightblue" stroke="midnightblue" points="514.58,-222.28 525.13,-221.27 516.26,-215.49 514.58,-222.28"/>
</g>
<!-- Node3&#45;&gt;Node14 -->
<g id="edge27" class="edge">
<title>Node3&#45;&gt;Node14</title>
<path fill="none" stroke="midnightblue" d="M537.51,-207.97C524.68,-182.82 498.75,-138.81 464,-114 458.54,-110.1 452.26,-106.99 445.85,-104.51"/>
<polygon fill="midnightblue" stroke="midnightblue" points="534.5,-209.78 542.06,-217.2 540.78,-206.68 534.5,-209.78"/>
</g>
<!-- Node15 -->
<g id="node15" class="node">
<title>Node15</title>
<g id="a_node15"><a xlink:href="group__grp__diagnostics.html#ga7401b50ec10c6598ee4a8112717a63ec" target="_top" xlink:title="Computes eigenvalues and eigenvectors of derivative matrix, .">
<polygon fill="white" stroke="black" points="256.5,-293.5 256.5,-312.5 301.5,-312.5 301.5,-293.5 256.5,-293.5"/>
<text text-anchor="middle" x="279" y="-300.5" font-family="Helvetica,sans-Serif" font-size="10.00">hesian</text>
</a>
</g>
</g>
<!-- Node3&#45;&gt;Node15 -->
<g id="edge29" class="edge">
<title>Node3&#45;&gt;Node15</title>
<path fill="none" stroke="midnightblue" d="M527.77,-243.3C511.92,-256.11 488.01,-273.21 464,-282 408.14,-302.44 336.93,-304.31 301.72,-303.77"/>
<polygon fill="midnightblue" stroke="midnightblue" points="530.25,-245.79 535.7,-236.71 525.78,-240.41 530.25,-245.79"/>
</g>
<!-- Node16 -->
<g id="node16" class="node">
<title>Node16</title>
<g id="a_node16"><a xlink:href="group__grp__conjugate__gradient.html#ga4d8415226e62a9fdb42b0fd0b464251e" target="_top" xlink:title="Returns the energy functional and it&#39;s derivatives with respect to geometry.">
<polygon fill="white" stroke="black" points="377.5,-123.5 377.5,-142.5 425.5,-142.5 425.5,-123.5 377.5,-123.5"/>
<text text-anchor="middle" x="401.5" y="-130.5" font-family="Helvetica,sans-Serif" font-size="10.00">pc00ab</text>
</a>
</g>
</g>
<!-- Node3&#45;&gt;Node16 -->
<g id="edge33" class="edge">
<title>Node3&#45;&gt;Node16</title>
<path fill="none" stroke="midnightblue" d="M523.35,-211.89C493.42,-192.35 442.18,-158.9 417.14,-142.56"/>
<polygon fill="midnightblue" stroke="midnightblue" points="521.61,-214.93 531.9,-217.47 525.44,-209.07 521.61,-214.93"/>
</g>
<!-- Node5 -->
<g id="node5" class="node">
<title>Node5</title>
<g id="a_node5"><a xlink:href="xspech_8f90.html#a9fdc71dffd7c61ee4588a3f80d3ab9ce" target="_top" xlink:title="Main subroutine of SPEC.">
<polygon fill="white" stroke="black" points="255.5,-387.5 255.5,-406.5 302.5,-406.5 302.5,-387.5 255.5,-387.5"/>
<text text-anchor="middle" x="279" y="-394.5" font-family="Helvetica,sans-Serif" font-size="10.00">xspech</text>
</a>
</g>
</g>
<!-- Node4&#45;&gt;Node5 -->
<g id="edge4" class="edge">
<title>Node4&#45;&gt;Node5</title>
<path fill="none" stroke="midnightblue" d="M334.45,-397C323.06,-397 311.95,-397 302.77,-397"/>
<polygon fill="midnightblue" stroke="midnightblue" points="334.48,-400.5 344.48,-397 334.48,-393.5 334.48,-400.5"/>
</g>
<!-- Node5&#45;&gt;Node5 -->
<g id="edge12" class="edge">
<title>Node5&#45;&gt;Node5</title>
<path fill="none" stroke="midnightblue" d="M298.26,-416.4C296.97,-421.31 290.55,-425 279,-425 260.52,-425 255.17,-415.57 262.97,-406.76"/>
<polygon fill="midnightblue" stroke="midnightblue" points="301.52,-415.13 295.03,-406.76 294.89,-417.35 301.52,-415.13"/>
</g>
<!-- Node6 -->
<g id="node6" class="node">
<title>Node6</title>
<g id="a_node6"><a xlink:href="xspech_8f90.html#a1451823a7b97101a797de616250752c1" target="_top" xlink:title="Final diagnostics.">
<polygon fill="white" stroke="black" points="130,-425.5 130,-444.5 219,-444.5 219,-425.5 130,-425.5"/>
<text text-anchor="middle" x="174.5" y="-432.5" font-family="Helvetica,sans-Serif" font-size="10.00">final_diagnostics</text>
</a>
</g>
</g>
<!-- Node5&#45;&gt;Node6 -->
<g id="edge5" class="edge">
<title>Node5&#45;&gt;Node6</title>
<path fill="none" stroke="midnightblue" d="M245.65,-402.67C226.44,-408.89 203.1,-418.08 188.78,-425.36"/>
<polygon fill="midnightblue" stroke="midnightblue" points="246.72,-406 255.25,-399.71 244.66,-399.31 246.72,-406"/>
</g>
<!-- Node5&#45;&gt;Node7 -->
<g id="edge7" class="edge">
<title>Node5&#45;&gt;Node7</title>
<path fill="none" stroke="midnightblue" d="M266.82,-379.07C252.78,-361.67 229.28,-337.88 219,-331 211.19,-325.77 201.71,-321.43 193.6,-319.02"/>
<polygon fill="midnightblue" stroke="midnightblue" points="264.35,-381.6 273.18,-387.45 269.93,-377.37 264.35,-381.6"/>
</g>
<!-- Node9 -->
<g id="node9" class="node">
<title>Node9</title>
<g id="a_node9"><a xlink:href="xspech_8f90.html#a95271e8805067f801b5d4e524d6901d4" target="_top" xlink:title="Main program of SPEC.">
<polygon fill="white" stroke="black" points="142.5,-349.5 142.5,-368.5 206.5,-368.5 206.5,-349.5 142.5,-349.5"/>
<text text-anchor="middle" x="174.5" y="-356.5" font-family="Helvetica,sans-Serif" font-size="10.00">spec_main</text>
</a>
</g>
</g>
<!-- Node5&#45;&gt;Node9 -->
<g id="edge11" class="edge">
<title>Node5&#45;&gt;Node9</title>
<path fill="none" stroke="midnightblue" d="M245.79,-385.06C231.5,-379.76 214.91,-373.61 201.44,-368.62"/>
<polygon fill="midnightblue" stroke="midnightblue" points="244.66,-388.37 255.25,-388.57 247.09,-381.81 244.66,-388.37"/>
</g>
<!-- Node6&#45;&gt;Node5 -->
<g id="edge6" class="edge">
<title>Node6&#45;&gt;Node5</title>
<path fill="none" stroke="midnightblue" d="M228.8,-421.99C242.12,-416.99 255.26,-411.44 264.6,-406.7"/>
<polygon fill="midnightblue" stroke="midnightblue" points="227.31,-418.8 219.11,-425.51 229.71,-425.38 227.31,-418.8"/>
</g>
<!-- Node7&#45;&gt;Node5 -->
<g id="edge10" class="edge">
<title>Node7&#45;&gt;Node5</title>
<path fill="none" stroke="midnightblue" d="M193.35,-335.31C201.52,-339.34 211.11,-343.72 219,-349 228.23,-355.18 248.12,-374.99 262.25,-387.5"/>
<polygon fill="midnightblue" stroke="midnightblue" points="194.78,-332.11 184.3,-330.52 191.5,-338.29 194.78,-332.11"/>
</g>
<!-- Node8 -->
<g id="node8" class="node">
<title>Node8</title>
<g id="a_node8"><a xlink:href="group__grp__output.html#ga0f962c09cd5d5eba99f1cba043cb3898" target="_top" xlink:title="Initialize the interface to the HDF5 library and open the output file.">
<polygon fill="white" stroke="black" points="0,-325.5 0,-344.5 94,-344.5 94,-325.5 0,-325.5"/>
<text text-anchor="middle" x="47" y="-332.5" font-family="Helvetica,sans-Serif" font-size="10.00">sphdf5::init_outfile</text>
</a>
</g>
</g>
<!-- Node7&#45;&gt;Node8 -->
<g id="edge8" class="edge">
<title>Node7&#45;&gt;Node8</title>
<path fill="none" stroke="midnightblue" d="M145.06,-324.17C130.04,-325.85 111.23,-327.95 94.18,-329.85"/>
<polygon fill="midnightblue" stroke="midnightblue" points="145.7,-327.62 155.25,-323.04 144.92,-320.67 145.7,-327.62"/>
</g>
<!-- Node8&#45;&gt;Node5 -->
<g id="edge9" class="edge">
<title>Node8&#45;&gt;Node5</title>
<path fill="none" stroke="midnightblue" d="M71.03,-349.93C86.96,-359.51 108.98,-371.38 130,-378 172.99,-391.55 225.91,-395.46 255.41,-396.57"/>
<polygon fill="midnightblue" stroke="midnightblue" points="72.76,-346.88 62.42,-344.6 69.08,-352.83 72.76,-346.88"/>
</g>
<!-- Node10&#45;&gt;Node10 -->
<g id="edge15" class="edge">
<title>Node10&#45;&gt;Node10</title>
<path fill="none" stroke="midnightblue" d="M424.37,-244.14C424.68,-250.14 417.06,-255 401.5,-255 378.86,-255 373.03,-244.72 383.99,-235.6"/>
<polygon fill="midnightblue" stroke="midnightblue" points="427.29,-242.21 419.01,-235.6 421.36,-245.93 427.29,-242.21"/>
</g>
<!-- Node10&#45;&gt;Node11 -->
<g id="edge16" class="edge">
<title>Node10&#45;&gt;Node11</title>
<path fill="none" stroke="midnightblue" d="M373.51,-223.5C352.38,-223.82 323.31,-226.32 303.22,-229.62"/>
<polygon fill="midnightblue" stroke="midnightblue" points="373.73,-227 383.74,-223.55 373.76,-220 373.73,-227"/>
</g>
<!-- Node11&#45;&gt;Node7 -->
<g id="edge22" class="edge">
<title>Node11&#45;&gt;Node7</title>
<path fill="none" stroke="midnightblue" d="M263.33,-254.44C252.04,-267.2 235.61,-284.4 219,-297 211.17,-302.94 201.68,-308.35 193.57,-312.52"/>
<polygon fill="midnightblue" stroke="midnightblue" points="266.05,-256.65 269.95,-246.8 260.76,-252.06 266.05,-256.65"/>
</g>
<!-- Node11&#45;&gt;Node10 -->
<g id="edge17" class="edge">
<title>Node11&#45;&gt;Node10</title>
<path fill="none" stroke="midnightblue" d="M313.52,-240.34C336.37,-239.59 365.66,-236.74 383.74,-233.24"/>
<polygon fill="midnightblue" stroke="midnightblue" points="313.15,-236.85 303.22,-240.53 313.28,-243.84 313.15,-236.85"/>
</g>
<!-- Node11&#45;&gt;Node11 -->
<g id="edge21" class="edge">
<title>Node11&#45;&gt;Node11</title>
<path fill="none" stroke="midnightblue" d="M298.26,-256.4C296.97,-261.31 290.55,-265 279,-265 260.52,-265 255.17,-255.57 262.97,-246.76"/>
<polygon fill="midnightblue" stroke="midnightblue" points="301.52,-255.13 295.03,-246.76 294.89,-257.35 301.52,-255.13"/>
</g>
<!-- Node11&#45;&gt;Node12 -->
<g id="edge18" class="edge">
<title>Node11&#45;&gt;Node12</title>
<path fill="none" stroke="midnightblue" d="M244.62,-233.79C236.27,-234.77 227.32,-236.03 219,-237 162.49,-243.61 95.12,-248.15 64.55,-253.77"/>
<polygon fill="midnightblue" stroke="midnightblue" points="245.21,-237.25 254.79,-232.74 244.49,-230.29 245.21,-237.25"/>
</g>
<!-- Node13 -->
<g id="node13" class="node">
<title>Node13</title>
<g id="a_node13"><a xlink:href="group__grp__force__driver.html#ga382822b303cbf8c56d6f54dcb379caf2" target="_top" xlink:title="read or write force&#45;derivative matrix">
<polygon fill="white" stroke="black" points="142,-217.5 142,-236.5 207,-236.5 207,-217.5 142,-217.5"/>
<text text-anchor="middle" x="174.5" y="-224.5" font-family="Helvetica,sans-Serif" font-size="10.00">writereadgf</text>
</a>
</g>
</g>
<!-- Node11&#45;&gt;Node13 -->
<g id="edge23" class="edge">
<title>Node11&#45;&gt;Node13</title>
<path fill="none" stroke="midnightblue" d="M244.89,-227.41C232.86,-225.7 219.29,-224.39 207.36,-223.81"/>
<polygon fill="midnightblue" stroke="midnightblue" points="244.57,-230.9 255,-229.02 245.67,-223.99 244.57,-230.9"/>
</g>
<!-- Node12&#45;&gt;Node11 -->
<g id="edge20" class="edge">
<title>Node12&#45;&gt;Node11</title>
<path fill="none" stroke="midnightblue" d="M74.95,-264.67C108.69,-265.21 168.23,-260.94 219,-255 234.44,-253.19 252.04,-250.41 263.97,-246.61"/>
<polygon fill="midnightblue" stroke="midnightblue" points="74.66,-261.15 64.55,-264.29 74.41,-268.15 74.66,-261.15"/>
</g>
<!-- Node12&#45;&gt;Node12 -->
<g id="edge19" class="edge">
<title>Node12&#45;&gt;Node12</title>
<path fill="none" stroke="midnightblue" d="M70.55,-276.53C71.46,-282.81 63.61,-288 47,-288 23.38,-288 17.47,-277.5 29.28,-268.31"/>
<polygon fill="midnightblue" stroke="midnightblue" points="73.36,-274.44 64.72,-268.31 67.65,-278.49 73.36,-274.44"/>
</g>
<!-- Node13&#45;&gt;Node11 -->
<g id="edge25" class="edge">
<title>Node13&#45;&gt;Node11</title>
<path fill="none" stroke="midnightblue" d="M217.42,-237.74C230.26,-239.27 243.91,-240.3 255,-240.5"/>
<polygon fill="midnightblue" stroke="midnightblue" points="217.74,-234.25 207.36,-236.41 216.82,-241.19 217.74,-234.25"/>
</g>
<!-- Node13&#45;&gt;Node12 -->
<g id="edge24" class="edge">
<title>Node13&#45;&gt;Node12</title>
<path fill="none" stroke="midnightblue" d="M131.96,-237.92C108.99,-243.96 81.73,-251.13 64.64,-255.62"/>
<polygon fill="midnightblue" stroke="midnightblue" points="133.05,-241.26 141.83,-235.33 131.27,-234.49 133.05,-241.26"/>
</g>
<!-- Node14&#45;&gt;Node2 -->
<g id="edge28" class="edge">
<title>Node14&#45;&gt;Node2</title>
<path fill="none" stroke="midnightblue" d="M474.18,-95.62C510.63,-92.01 555.48,-85.27 595,-76 612.74,-71.84 632.83,-64.69 644.1,-57.72"/>
<polygon fill="midnightblue" stroke="midnightblue" points="473.76,-92.14 464.13,-96.55 474.41,-99.11 473.76,-92.14"/>
</g>
<!-- Node15&#45;&gt;Node7 -->
<g id="edge31" class="edge">
<title>Node15&#45;&gt;Node7</title>
<path fill="none" stroke="midnightblue" d="M246.08,-308.61C228.88,-311.63 208.27,-315.24 193.78,-317.79"/>
<polygon fill="midnightblue" stroke="midnightblue" points="247.02,-311.99 256.26,-306.82 245.81,-305.1 247.02,-311.99"/>
</g>
<!-- Node15&#45;&gt;Node15 -->
<g id="edge30" class="edge">
<title>Node15&#45;&gt;Node15</title>
<path fill="none" stroke="midnightblue" d="M298.26,-322.4C296.97,-327.31 290.55,-331 279,-331 260.52,-331 255.17,-321.57 262.97,-312.76"/>
<polygon fill="midnightblue" stroke="midnightblue" points="301.52,-321.13 295.03,-312.76 294.89,-323.35 301.52,-321.13"/>
</g>
<!-- Node16&#45;&gt;Node16 -->
<g id="edge36" class="edge">
<title>Node16&#45;&gt;Node16</title>
<path fill="none" stroke="midnightblue" d="M424.19,-152.03C422.96,-157.13 415.39,-161 401.5,-161 379.82,-161 373.55,-151.57 382.7,-142.76"/>
<polygon fill="midnightblue" stroke="midnightblue" points="427.4,-150.62 420.3,-142.76 420.94,-153.33 427.4,-150.62"/>
</g>
<!-- Node17 -->
<g id="node17" class="node">
<title>Node17</title>
<g id="a_node17"><a xlink:href="group__grp__conjugate__gradient.html#ga25a3bae2ff2ee0469b045de0d033398b" target="_top" xlink:title="Use preconditioned conjugate gradient method to find minimum of energy functional.">
<polygon fill="white" stroke="black" points="255,-123.5 255,-142.5 303,-142.5 303,-123.5 255,-123.5"/>
<text text-anchor="middle" x="279" y="-130.5" font-family="Helvetica,sans-Serif" font-size="10.00">pc00aa</text>
</a>
</g>
</g>
<!-- Node16&#45;&gt;Node17 -->
<g id="edge34" class="edge">
<title>Node16&#45;&gt;Node17</title>
<path fill="none" stroke="midnightblue" d="M367.16,-133C346.81,-133 321.31,-133 303.16,-133"/>
<polygon fill="midnightblue" stroke="midnightblue" points="367.27,-136.5 377.27,-133 367.27,-129.5 367.27,-136.5"/>
</g>
<!-- Node17&#45;&gt;Node17 -->
<g id="edge35" class="edge">
<title>Node17&#45;&gt;Node17</title>
<path fill="none" stroke="midnightblue" d="M298.26,-152.4C296.97,-157.31 290.55,-161 279,-161 260.52,-161 255.17,-151.57 262.97,-142.76"/>
<polygon fill="midnightblue" stroke="midnightblue" points="301.52,-151.13 295.03,-142.76 294.89,-153.35 301.52,-151.13"/>
</g>
<!-- Node18&#45;&gt;Node2 -->
<g id="edge40" class="edge">
<title>Node18&#45;&gt;Node2</title>
<path fill="none" stroke="midnightblue" d="M594.93,-54.71C607.42,-54.87 620.35,-54.51 630.84,-53.64"/>
<polygon fill="midnightblue" stroke="midnightblue" points="594.69,-51.21 584.61,-54.46 594.52,-58.2 594.69,-51.21"/>
</g>
<!-- Node19&#45;&gt;Node2 -->
<g id="edge42" class="edge">
<title>Node19&#45;&gt;Node2</title>
<path fill="none" stroke="midnightblue" d="M571.55,-24.09C589.21,-31.92 613.41,-40.7 630.84,-45.58"/>
<polygon fill="midnightblue" stroke="midnightblue" points="572.55,-20.7 562.01,-19.63 569.59,-27.04 572.55,-20.7"/>
</g>
</g>
</svg>
