<?xml version="1.0" encoding="UTF-8" standalone="no"?>
<!DOCTYPE svg PUBLIC "-//W3C//DTD SVG 1.1//EN"
 "http://www.w3.org/Graphics/SVG/1.1/DTD/svg11.dtd">
<!-- Generated by graphviz version 2.47.0 (20210316.2052)
 -->
<!-- Title: evaluate_dmupfdx Pages: 1 -->
<svg width="846pt" height="467pt"
 viewBox="0.00 0.00 846.00 467.37" xmlns="http://www.w3.org/2000/svg" xmlns:xlink="http://www.w3.org/1999/xlink">
<g id="graph0" class="graph" transform="scale(1 1) rotate(0) translate(4 463.37)">
<title>evaluate_dmupfdx</title>
<polygon fill="white" stroke="transparent" points="-4,4 -4,-463.37 842,-463.37 842,4 -4,4"/>
<!-- Node1 -->
<g id="node1" class="node">
<title>Node1</title>
<g id="a_node1"><a xlink:title="Evaluate mu and psip derivatives and store them in dmupfdx.">
<polygon fill="#bfbfbf" stroke="black" points="743,-38.5 743,-57.5 838,-57.5 838,-38.5 743,-38.5"/>
<text text-anchor="middle" x="790.5" y="-45.5" font-family="Helvetica,sans-Serif" font-size="10.00">evaluate_dmupfdx</text>
</a>
</g>
</g>
<!-- Node2 -->
<g id="node2" class="node">
<title>Node2</title>
<g id="a_node2"><a xlink:href="dfp200_8f90.html#a55ea75395f8c71731451e1add3720c7e" target="_top" xlink:title="Given the field consistent with the constraints and the geometry, computes local quantites related to...">
<polygon fill="white" stroke="black" points="661,-38.5 661,-57.5 707,-57.5 707,-38.5 661,-38.5"/>
<text text-anchor="middle" x="684" y="-45.5" font-family="Helvetica,sans-Serif" font-size="10.00">dfp200</text>
</a>
</g>
</g>
<!-- Node1&#45;&gt;Node2 -->
<g id="edge1" class="edge">
<title>Node1&#45;&gt;Node2</title>
<path fill="none" stroke="midnightblue" d="M732.55,-41.27C723.54,-41.37 714.71,-41.73 707.16,-42.36"/>
<polygon fill="midnightblue" stroke="midnightblue" points="732.75,-44.77 742.75,-41.28 732.75,-37.77 732.75,-44.77"/>
</g>
<!-- Node2&#45;&gt;Node1 -->
<g id="edge30" class="edge">
<title>Node2&#45;&gt;Node1</title>
<path fill="none" stroke="midnightblue" d="M717.25,-54.29C725.32,-54.68 734.14,-54.82 742.75,-54.72"/>
<polygon fill="midnightblue" stroke="midnightblue" points="717.36,-50.79 707.16,-53.64 716.91,-57.78 717.36,-50.79"/>
</g>
<!-- Node3 -->
<g id="node3" class="node">
<title>Node3</title>
<g id="a_node3"><a xlink:href="group__grp__global__force.html#ga38c9d3c50bd043707fefa5137c9dbf44" target="_top" xlink:title="Calculates , where &#160;and , and .">
<polygon fill="white" stroke="black" points="545.5,-199.5 545.5,-218.5 589.5,-218.5 589.5,-199.5 545.5,-199.5"/>
<text text-anchor="middle" x="567.5" y="-206.5" font-family="Helvetica,sans-Serif" font-size="10.00">dforce</text>
</a>
</g>
</g>
<!-- Node2&#45;&gt;Node3 -->
<g id="edge2" class="edge">
<title>Node2&#45;&gt;Node3</title>
<path fill="none" stroke="midnightblue" d="M670.11,-66.12C645.85,-100.24 594.13,-172.96 575.43,-199.26"/>
<polygon fill="midnightblue" stroke="midnightblue" points="673.24,-67.77 676.18,-57.59 667.53,-63.71 673.24,-67.77"/>
</g>
<!-- Node10 -->
<g id="node10" class="node">
<title>Node10</title>
<g id="a_node10"><a xlink:href="dfp200_8f90.html#a6aca59cf350d7b1941f8389d50945a43" target="_top" xlink:title="get LU Beltrami matrices">
<polygon fill="white" stroke="black" points="349,-85.5 349,-104.5 474,-104.5 474,-85.5 349,-85.5"/>
<text text-anchor="middle" x="411.5" y="-92.5" font-family="Helvetica,sans-Serif" font-size="10.00">get_lu_beltrami_matrices</text>
</a>
</g>
</g>
<!-- Node2&#45;&gt;Node10 -->
<g id="edge31" class="edge">
<title>Node2&#45;&gt;Node10</title>
<path fill="none" stroke="midnightblue" d="M651.14,-50.92C642.73,-53.35 633.59,-56.04 625,-58 565.13,-71.63 494.16,-79.32 451.27,-85.48"/>
<polygon fill="midnightblue" stroke="midnightblue" points="652.29,-54.23 660.96,-48.15 650.39,-47.5 652.29,-54.23"/>
</g>
<!-- Node16 -->
<g id="node16" class="node">
<title>Node16</title>
<g id="a_node16"><a xlink:href="dfp200_8f90.html#a7b64c7392b45d0042d8bd7379c0761a5" target="_top" xlink:title="Evaluate the derivative of the square of the magnetic field modulus. Add spectral constraint derivati...">
<polygon fill="white" stroke="black" points="530.5,-38.5 530.5,-57.5 604.5,-57.5 604.5,-38.5 530.5,-38.5"/>
<text text-anchor="middle" x="567.5" y="-45.5" font-family="Helvetica,sans-Serif" font-size="10.00">evaluate_dbb</text>
</a>
</g>
</g>
<!-- Node2&#45;&gt;Node16 -->
<g id="edge28" class="edge">
<title>Node2&#45;&gt;Node16</title>
<path fill="none" stroke="midnightblue" d="M650.61,-41.85C636.37,-41.12 619.59,-41.06 604.93,-41.66"/>
<polygon fill="midnightblue" stroke="midnightblue" points="650.71,-45.37 660.92,-42.54 651.18,-38.38 650.71,-45.37"/>
</g>
<!-- Node17 -->
<g id="node17" class="node">
<title>Node17</title>
<g id="a_node17"><a xlink:href="dfp200_8f90.html#a5e56f1f4b1e6df11a9cffa6237c37469" target="_top" xlink:title="This routine evaluates the value of the magnetic field once the interface is perturbed using matrix p...">
<polygon fill="white" stroke="black" points="510,-0.5 510,-19.5 625,-19.5 625,-0.5 510,-0.5"/>
<text text-anchor="middle" x="567.5" y="-7.5" font-family="Helvetica,sans-Serif" font-size="10.00">get_perturbed_solution</text>
</a>
</g>
</g>
<!-- Node2&#45;&gt;Node17 -->
<g id="edge32" class="edge">
<title>Node2&#45;&gt;Node17</title>
<path fill="none" stroke="midnightblue" d="M658.71,-34.3C646.69,-29.39 631.73,-24.08 617.48,-19.57"/>
<polygon fill="midnightblue" stroke="midnightblue" points="657.46,-37.57 668.03,-38.3 660.22,-31.14 657.46,-37.57"/>
</g>
<!-- Node4 -->
<g id="node4" class="node">
<title>Node4</title>
<g id="a_node4"><a xlink:href="group__grp__force__driver.html#gabbc245b3884ee8d8d3e2a52f25149f78" target="_top" xlink:title="fcn1">
<polygon fill="white" stroke="black" points="394,-322.5 394,-341.5 429,-341.5 429,-322.5 394,-322.5"/>
<text text-anchor="middle" x="411.5" y="-329.5" font-family="Helvetica,sans-Serif" font-size="10.00">fcn1</text>
</a>
</g>
</g>
<!-- Node3&#45;&gt;Node4 -->
<g id="edge3" class="edge">
<title>Node3&#45;&gt;Node4</title>
<path fill="none" stroke="midnightblue" d="M546.5,-224.97C514.05,-250.89 450.9,-301.33 424.53,-322.39"/>
<polygon fill="midnightblue" stroke="midnightblue" points="548.79,-227.63 554.42,-218.65 544.42,-222.16 548.79,-227.63"/>
</g>
<!-- Node5 -->
<g id="node5" class="node">
<title>Node5</title>
<g id="a_node5"><a xlink:href="group__grp__force__driver.html#gaec14f81fbdbedafbc4189489ec8ae178" target="_top" xlink:title="Employs Newton method to find , where &#160;and &#160;is defined in dforce() .">
<polygon fill="white" stroke="black" points="265,-360.5 265,-379.5 313,-379.5 313,-360.5 265,-360.5"/>
<text text-anchor="middle" x="289" y="-367.5" font-family="Helvetica,sans-Serif" font-size="10.00">newton</text>
</a>
</g>
</g>
<!-- Node3&#45;&gt;Node5 -->
<g id="edge19" class="edge">
<title>Node3&#45;&gt;Node5</title>
<path fill="none" stroke="midnightblue" d="M560.17,-228.2C548.63,-259.86 520.93,-322.35 474,-351 423.43,-381.88 350.18,-378.12 313.21,-373.61"/>
<polygon fill="midnightblue" stroke="midnightblue" points="563.48,-229.34 563.47,-218.74 556.88,-227.03 563.48,-229.34"/>
</g>
<!-- Node6 -->
<g id="node6" class="node">
<title>Node6</title>
<g id="a_node6"><a xlink:href="group__grp__force__driver.html#ga8ccd6c7d901872702521d0a0edf95412" target="_top" xlink:title="fcn2">
<polygon fill="white" stroke="black" points="87,-383.5 87,-402.5 122,-402.5 122,-383.5 87,-383.5"/>
<text text-anchor="middle" x="104.5" y="-390.5" font-family="Helvetica,sans-Serif" font-size="10.00">fcn2</text>
</a>
</g>
</g>
<!-- Node3&#45;&gt;Node6 -->
<g id="edge14" class="edge">
<title>Node3&#45;&gt;Node6</title>
<path fill="none" stroke="midnightblue" d="M561.32,-228.87C550.99,-264.36 524.39,-338.54 474,-377 362.51,-462.09 297.27,-479.71 164,-436 144.12,-429.48 125.42,-413.33 114.74,-402.79"/>
<polygon fill="midnightblue" stroke="midnightblue" points="564.81,-229.37 564.11,-218.8 558.06,-227.5 564.81,-229.37"/>
</g>
<!-- Node8 -->
<g id="node8" class="node">
<title>Node8</title>
<g id="a_node8"><a xlink:href="xspech_8f90.html#aea782eae089760a491c2c54f9903abcc" target="_top" xlink:title="Main program of SPEC.">
<polygon fill="white" stroke="black" points="81,-237.5 81,-256.5 128,-256.5 128,-237.5 81,-237.5"/>
<text text-anchor="middle" x="104.5" y="-244.5" font-family="Helvetica,sans-Serif" font-size="10.00">xspech</text>
</a>
</g>
</g>
<!-- Node3&#45;&gt;Node8 -->
<g id="edge27" class="edge">
<title>Node3&#45;&gt;Node8</title>
<path fill="none" stroke="midnightblue" d="M535.49,-199.03C465.93,-178.44 293.44,-137.37 164,-190 140.36,-199.61 121.04,-223.89 111.65,-237.45"/>
<polygon fill="midnightblue" stroke="midnightblue" points="534.78,-202.47 545.36,-202.02 536.81,-195.77 534.78,-202.47"/>
</g>
<!-- Node3&#45;&gt;Node10 -->
<g id="edge15" class="edge">
<title>Node3&#45;&gt;Node10</title>
<path fill="none" stroke="midnightblue" d="M553.68,-191.19C537.44,-169.88 507.5,-134.5 474,-114 467.71,-110.15 460.57,-107.02 453.45,-104.5"/>
<polygon fill="midnightblue" stroke="midnightblue" points="550.99,-193.45 559.77,-199.38 556.61,-189.27 550.99,-193.45"/>
</g>
<!-- Node11 -->
<g id="node11" class="node">
<title>Node11</title>
<g id="a_node11"><a xlink:href="group__grp__diagnostics.html#ga7401b50ec10c6598ee4a8112717a63ec" target="_top" xlink:title="Computes eigenvalues and eigenvectors of derivative matrix, .">
<polygon fill="white" stroke="black" points="174,-199.5 174,-218.5 219,-218.5 219,-199.5 174,-199.5"/>
<text text-anchor="middle" x="196.5" y="-206.5" font-family="Helvetica,sans-Serif" font-size="10.00">hesian</text>
</a>
</g>
</g>
<!-- Node3&#45;&gt;Node11 -->
<g id="edge17" class="edge">
<title>Node3&#45;&gt;Node11</title>
<path fill="none" stroke="midnightblue" d="M534.92,-209C461.58,-209 281.28,-209 219.04,-209"/>
<polygon fill="midnightblue" stroke="midnightblue" points="535.34,-212.5 545.34,-209 535.34,-205.5 535.34,-212.5"/>
</g>
<!-- Node12 -->
<g id="node12" class="node">
<title>Node12</title>
<g id="a_node12"><a xlink:href="group__grp__conjugate__gradient.html#ga4d8415226e62a9fdb42b0fd0b464251e" target="_top" xlink:title="Returns the energy functional and it&#39;s derivatives with respect to geometry.">
<polygon fill="white" stroke="black" points="387.5,-123.5 387.5,-142.5 435.5,-142.5 435.5,-123.5 387.5,-123.5"/>
<text text-anchor="middle" x="411.5" y="-130.5" font-family="Helvetica,sans-Serif" font-size="10.00">pc00ab</text>
</a>
</g>
</g>
<!-- Node3&#45;&gt;Node12 -->
<g id="edge20" class="edge">
<title>Node3&#45;&gt;Node12</title>
<path fill="none" stroke="midnightblue" d="M542.54,-194.3C524.15,-183.33 497.93,-168.33 474,-157 461.57,-151.12 447.28,-145.47 435.6,-141.14"/>
<polygon fill="midnightblue" stroke="midnightblue" points="540.77,-197.32 551.14,-199.48 544.38,-191.33 540.77,-197.32"/>
</g>
<!-- Node14 -->
<g id="node14" class="node">
<title>Node14</title>
<g id="a_node14"><a xlink:href="namespaceallglobal.html#ad32ae6194892fe7d876622a6455189e2" target="_top" xlink:title="The master node reads the input namelist and sets various internal variables. The relevant quantities...">
<polygon fill="white" stroke="black" points="370,-237.5 370,-256.5 453,-256.5 453,-237.5 370,-237.5"/>
<text text-anchor="middle" x="411.5" y="-244.5" font-family="Helvetica,sans-Serif" font-size="10.00">allglobal::readin</text>
</a>
</g>
</g>
<!-- Node3&#45;&gt;Node14 -->
<g id="edge22" class="edge">
<title>Node3&#45;&gt;Node14</title>
<path fill="none" stroke="midnightblue" d="M535.63,-216.62C511.3,-222.62 477.23,-231.03 451.1,-237.48"/>
<polygon fill="midnightblue" stroke="midnightblue" points="536.54,-220 545.41,-214.2 534.86,-213.2 536.54,-220"/>
</g>
<!-- Node4&#45;&gt;Node5 -->
<g id="edge4" class="edge">
<title>Node4&#45;&gt;Node5</title>
<path fill="none" stroke="midnightblue" d="M383.84,-334.69C359.79,-340.62 325.24,-351.85 305.47,-360.42"/>
<polygon fill="midnightblue" stroke="midnightblue" points="384.77,-338.07 393.74,-332.44 383.22,-331.25 384.77,-338.07"/>
</g>
<!-- Node5&#45;&gt;Node4 -->
<g id="edge5" class="edge">
<title>Node5&#45;&gt;Node4</title>
<path fill="none" stroke="midnightblue" d="M323.04,-365.68C346.39,-359.52 376.63,-349.52 394.75,-341.7"/>
<polygon fill="midnightblue" stroke="midnightblue" points="322.05,-362.32 313.19,-368.14 323.74,-369.11 322.05,-362.32"/>
</g>
<!-- Node5&#45;&gt;Node6 -->
<g id="edge6" class="edge">
<title>Node5&#45;&gt;Node6</title>
<path fill="none" stroke="midnightblue" d="M254.78,-368.84C215.66,-371.55 152.21,-379.96 122.22,-386.79"/>
<polygon fill="midnightblue" stroke="midnightblue" points="255.11,-372.32 264.89,-368.24 254.7,-365.34 255.11,-372.32"/>
</g>
<!-- Node7 -->
<g id="node7" class="node">
<title>Node7</title>
<g id="a_node7"><a xlink:href="group__grp__force__driver.html#ga382822b303cbf8c56d6f54dcb379caf2" target="_top" xlink:title="read or write force&#45;derivative matrix">
<polygon fill="white" stroke="black" points="164,-407.5 164,-426.5 229,-426.5 229,-407.5 164,-407.5"/>
<text text-anchor="middle" x="196.5" y="-414.5" font-family="Helvetica,sans-Serif" font-size="10.00">writereadgf</text>
</a>
</g>
</g>
<!-- Node5&#45;&gt;Node7 -->
<g id="edge8" class="edge">
<title>Node5&#45;&gt;Node7</title>
<path fill="none" stroke="midnightblue" d="M255.18,-380.53C238.41,-388.6 219.16,-399.28 207.68,-407.25"/>
<polygon fill="midnightblue" stroke="midnightblue" points="257.09,-383.5 264.69,-376.12 254.15,-377.15 257.09,-383.5"/>
</g>
<!-- Node5&#45;&gt;Node8 -->
<g id="edge11" class="edge">
<title>Node5&#45;&gt;Node8</title>
<path fill="none" stroke="midnightblue" d="M259.1,-355.63C233.29,-342.3 194.9,-321.21 164,-299 145.68,-285.83 126.52,-267.88 115.32,-256.88"/>
<polygon fill="midnightblue" stroke="midnightblue" points="257.84,-358.92 268.34,-360.35 261.02,-352.68 257.84,-358.92"/>
</g>
<!-- Node6&#45;&gt;Node5 -->
<g id="edge7" class="edge">
<title>Node6&#45;&gt;Node5</title>
<path fill="none" stroke="midnightblue" d="M132.41,-394.56C168.26,-392.53 231.07,-384.52 264.89,-377.59"/>
<polygon fill="midnightblue" stroke="midnightblue" points="132.06,-391.07 122.22,-394.99 132.36,-398.07 132.06,-391.07"/>
</g>
<!-- Node7&#45;&gt;Node5 -->
<g id="edge10" class="edge">
<title>Node7&#45;&gt;Node5</title>
<path fill="none" stroke="midnightblue" d="M237.61,-402.88C252.5,-395.37 268.14,-386.49 277.97,-379.64"/>
<polygon fill="midnightblue" stroke="midnightblue" points="235.94,-399.8 228.5,-407.35 239.02,-406.09 235.94,-399.8"/>
</g>
<!-- Node7&#45;&gt;Node6 -->
<g id="edge9" class="edge">
<title>Node7&#45;&gt;Node6</title>
<path fill="none" stroke="midnightblue" d="M153.99,-405.93C142.69,-402.92 131.09,-399.82 122.07,-397.42"/>
<polygon fill="midnightblue" stroke="midnightblue" points="153.21,-409.34 163.77,-408.54 155.01,-402.58 153.21,-409.34"/>
</g>
<!-- Node9 -->
<g id="node9" class="node">
<title>Node9</title>
<g id="a_node9"><a xlink:href="xspech_8f90.html#a537af4990058c0b0f2cd8b3669af204f" target="_top" xlink:title="todo remark">
<polygon fill="white" stroke="black" points="0,-237.5 0,-256.5 45,-256.5 45,-237.5 0,-237.5"/>
<text text-anchor="middle" x="22.5" y="-244.5" font-family="Helvetica,sans-Serif" font-size="10.00">ending</text>
</a>
</g>
</g>
<!-- Node8&#45;&gt;Node9 -->
<g id="edge12" class="edge">
<title>Node8&#45;&gt;Node9</title>
<path fill="none" stroke="midnightblue" d="M70.65,-240.35C62.06,-240.11 53.01,-240.3 45.17,-240.92"/>
<polygon fill="midnightblue" stroke="midnightblue" points="70.63,-243.85 80.79,-240.84 70.97,-236.86 70.63,-243.85"/>
</g>
<!-- Node9&#45;&gt;Node8 -->
<g id="edge13" class="edge">
<title>Node9&#45;&gt;Node8</title>
<path fill="none" stroke="midnightblue" d="M55.22,-253.62C63.77,-253.89 72.84,-253.74 80.79,-253.16"/>
<polygon fill="midnightblue" stroke="midnightblue" points="55.34,-250.12 45.17,-253.08 54.96,-257.11 55.34,-250.12"/>
</g>
<!-- Node10&#45;&gt;Node2 -->
<g id="edge16" class="edge">
<title>Node10&#45;&gt;Node2</title>
<path fill="none" stroke="midnightblue" d="M484.42,-96.76C525.86,-93.51 578.74,-86.53 625,-76 642.98,-71.91 663.31,-64.6 674.49,-57.51"/>
<polygon fill="midnightblue" stroke="midnightblue" points="484.13,-93.28 474.41,-97.49 484.64,-100.26 484.13,-93.28"/>
</g>
<!-- Node11&#45;&gt;Node8 -->
<g id="edge18" class="edge">
<title>Node11&#45;&gt;Node8</title>
<path fill="none" stroke="midnightblue" d="M164.49,-222.09C152.51,-227.15 139.06,-232.83 128.03,-237.49"/>
<polygon fill="midnightblue" stroke="midnightblue" points="165.86,-225.31 173.71,-218.2 163.14,-218.86 165.86,-225.31"/>
</g>
<!-- Node13 -->
<g id="node13" class="node">
<title>Node13</title>
<g id="a_node13"><a xlink:href="group__grp__conjugate__gradient.html#ga25a3bae2ff2ee0469b045de0d033398b" target="_top" xlink:title="Use preconditioned conjugate gradient method to find minimum of energy functional.">
<polygon fill="white" stroke="black" points="265,-123.5 265,-142.5 313,-142.5 313,-123.5 265,-123.5"/>
<text text-anchor="middle" x="289" y="-130.5" font-family="Helvetica,sans-Serif" font-size="10.00">pc00aa</text>
</a>
</g>
</g>
<!-- Node12&#45;&gt;Node13 -->
<g id="edge21" class="edge">
<title>Node12&#45;&gt;Node13</title>
<path fill="none" stroke="midnightblue" d="M377.16,-133C356.81,-133 331.31,-133 313.16,-133"/>
<polygon fill="midnightblue" stroke="midnightblue" points="377.27,-136.5 387.27,-133 377.27,-129.5 377.27,-136.5"/>
</g>
<!-- Node14&#45;&gt;Node8 -->
<g id="edge26" class="edge">
<title>Node14&#45;&gt;Node8</title>
<path fill="none" stroke="midnightblue" d="M361.11,-258.54C345.78,-261.6 328.77,-264.48 313,-266 247.05,-272.37 229.59,-270.39 164,-261 152.01,-259.28 138.87,-256.25 128.09,-253.44"/>
<polygon fill="midnightblue" stroke="midnightblue" points="361.82,-261.96 370.91,-256.51 360.4,-255.11 361.82,-261.96"/>
</g>
<!-- Node15 -->
<g id="node15" class="node">
<title>Node15</title>
<g id="a_node15"><a xlink:href="group__grp__initialization.html#ga28628de0fdb3b3497668007d8d0643bd" target="_top" xlink:title="Allocates and initializes internal arrays.">
<polygon fill="white" stroke="black" points="267,-237.5 267,-256.5 311,-256.5 311,-237.5 267,-237.5"/>
<text text-anchor="middle" x="289" y="-244.5" font-family="Helvetica,sans-Serif" font-size="10.00">preset</text>
</a>
</g>
</g>
<!-- Node14&#45;&gt;Node15 -->
<g id="edge23" class="edge">
<title>Node14&#45;&gt;Node15</title>
<path fill="none" stroke="midnightblue" d="M359.34,-247C342.41,-247 324.5,-247 311.13,-247"/>
<polygon fill="midnightblue" stroke="midnightblue" points="359.7,-250.5 369.7,-247 359.7,-243.5 359.7,-250.5"/>
</g>
<!-- Node15&#45;&gt;Node8 -->
<g id="edge25" class="edge">
<title>Node15&#45;&gt;Node8</title>
<path fill="none" stroke="midnightblue" d="M256.59,-247C219.98,-247 160.4,-247 128.08,-247"/>
<polygon fill="midnightblue" stroke="midnightblue" points="256.71,-250.5 266.71,-247 256.71,-243.5 256.71,-250.5"/>
</g>
<!-- Node15&#45;&gt;Node11 -->
<g id="edge24" class="edge">
<title>Node15&#45;&gt;Node11</title>
<path fill="none" stroke="midnightblue" d="M256.98,-233.97C244.51,-228.74 230.43,-222.83 219.11,-218.07"/>
<polygon fill="midnightblue" stroke="midnightblue" points="255.98,-237.35 266.55,-237.99 258.69,-230.9 255.98,-237.35"/>
</g>
<!-- Node16&#45;&gt;Node2 -->
<g id="edge29" class="edge">
<title>Node16&#45;&gt;Node2</title>
<path fill="none" stroke="midnightblue" d="M615.12,-54.65C630.95,-54.96 647.92,-54.56 660.92,-53.46"/>
<polygon fill="midnightblue" stroke="midnightblue" points="615.03,-51.14 604.93,-54.34 614.81,-58.14 615.03,-51.14"/>
</g>
<!-- Node17&#45;&gt;Node2 -->
<g id="edge33" class="edge">
<title>Node17&#45;&gt;Node2</title>
<path fill="none" stroke="midnightblue" d="M592.66,-23.65C612.83,-31.89 641.35,-41.3 660.92,-46.13"/>
<polygon fill="midnightblue" stroke="midnightblue" points="593.8,-20.33 583.23,-19.59 591.04,-26.76 593.8,-20.33"/>
</g>
</g>
</svg>
