<?xml version="1.0" encoding="UTF-8" standalone="no"?>
<!DOCTYPE svg PUBLIC "-//W3C//DTD SVG 1.1//EN"
 "http://www.w3.org/Graphics/SVG/1.1/DTD/svg11.dtd">
<!-- Generated by graphviz version 2.44.0 ()
 -->
<!-- Title: dfp200 Pages: 1 -->
<svg width="705pt" height="473pt"
 viewBox="0.00 0.00 705.00 473.00" xmlns="http://www.w3.org/2000/svg" xmlns:xlink="http://www.w3.org/1999/xlink">
<g id="graph0" class="graph" transform="scale(1 1) rotate(0) translate(4 469)">
<title>dfp200</title>
<polygon fill="white" stroke="transparent" points="-4,4 -4,-469 701,-469 701,4 -4,4"/>
<!-- Node1 -->
<g id="node1" class="node">
<title>Node1</title>
<g id="a_node1"><a xlink:title="Given the field consistent with the constraints and the geometry, computes local quantites related to...">
<polygon fill="#bfbfbf" stroke="black" points="651,-76.5 651,-95.5 697,-95.5 697,-76.5 651,-76.5"/>
<text text-anchor="middle" x="674" y="-83.5" font-family="Helvetica,sans-Serif" font-size="10.00">dfp200</text>
</a>
</g>
</g>
<!-- Node2 -->
<g id="node2" class="node">
<title>Node2</title>
<g id="a_node2"><a xlink:href="group__grp__global__force.html#ga38c9d3c50bd043707fefa5137c9dbf44" target="_top" xlink:title="Calculates , where &#160;and , and .">
<polygon fill="white" stroke="black" points="535.5,-237.5 535.5,-256.5 579.5,-256.5 579.5,-237.5 535.5,-237.5"/>
<text text-anchor="middle" x="557.5" y="-244.5" font-family="Helvetica,sans-Serif" font-size="10.00">dforce</text>
</a>
</g>
</g>
<!-- Node1&#45;&gt;Node2 -->
<g id="edge1" class="edge">
<title>Node1&#45;&gt;Node2</title>
<path fill="none" stroke="midnightblue" d="M660.11,-104.12C635.85,-138.24 584.13,-210.96 565.43,-237.26"/>
<polygon fill="midnightblue" stroke="midnightblue" points="663.24,-105.77 666.18,-95.59 657.53,-101.71 663.24,-105.77"/>
</g>
<!-- Node13 -->
<g id="node13" class="node">
<title>Node13</title>
<g id="a_node13"><a xlink:href="dfp200_8f90.html#a6aca59cf350d7b1941f8389d50945a43" target="_top" xlink:title="get LU Beltrami matrices">
<polygon fill="white" stroke="black" points="339,-123.5 339,-142.5 464,-142.5 464,-123.5 339,-123.5"/>
<text text-anchor="middle" x="401.5" y="-130.5" font-family="Helvetica,sans-Serif" font-size="10.00">get_lu_beltrami_matrices</text>
</a>
</g>
</g>
<!-- Node1&#45;&gt;Node13 -->
<g id="edge33" class="edge">
<title>Node1&#45;&gt;Node13</title>
<path fill="none" stroke="midnightblue" d="M641.14,-88.92C632.73,-91.35 623.59,-94.04 615,-96 555.13,-109.63 484.16,-117.32 441.27,-123.48"/>
<polygon fill="midnightblue" stroke="midnightblue" points="642.29,-92.23 650.96,-86.15 640.39,-85.5 642.29,-92.23"/>
</g>
<!-- Node17 -->
<g id="node17" class="node">
<title>Node17</title>
<g id="a_node17"><a xlink:href="dfp200_8f90.html#a7b64c7392b45d0042d8bd7379c0761a5" target="_top" xlink:title="Evaluate the derivative of the square of the magnetic field modulus. Add spectral constraint derivati...">
<polygon fill="white" stroke="black" points="520.5,-76.5 520.5,-95.5 594.5,-95.5 594.5,-76.5 520.5,-76.5"/>
<text text-anchor="middle" x="557.5" y="-83.5" font-family="Helvetica,sans-Serif" font-size="10.00">evaluate_dbb</text>
</a>
</g>
</g>
<!-- Node1&#45;&gt;Node17 -->
<g id="edge29" class="edge">
<title>Node1&#45;&gt;Node17</title>
<path fill="none" stroke="midnightblue" d="M640.61,-79.85C626.37,-79.12 609.59,-79.06 594.93,-79.66"/>
<polygon fill="midnightblue" stroke="midnightblue" points="640.71,-83.37 650.92,-80.54 641.18,-76.38 640.71,-83.37"/>
</g>
<!-- Node18 -->
<g id="node18" class="node">
<title>Node18</title>
<g id="a_node18"><a xlink:href="dfp200_8f90.html#a73ddf39ecc5228201fb643779e17cd36" target="_top" xlink:title="Evaluate mu and psip derivatives and store them in dmupfdx.">
<polygon fill="white" stroke="black" points="510,-38.5 510,-57.5 605,-57.5 605,-38.5 510,-38.5"/>
<text text-anchor="middle" x="557.5" y="-45.5" font-family="Helvetica,sans-Serif" font-size="10.00">evaluate_dmupfdx</text>
</a>
</g>
</g>
<!-- Node1&#45;&gt;Node18 -->
<g id="edge31" class="edge">
<title>Node1&#45;&gt;Node18</title>
<path fill="none" stroke="midnightblue" d="M648.66,-72.28C636,-67.11 620.09,-61.5 605.17,-56.84"/>
<polygon fill="midnightblue" stroke="midnightblue" points="647.46,-75.58 658.03,-76.3 650.22,-69.14 647.46,-75.58"/>
</g>
<!-- Node19 -->
<g id="node19" class="node">
<title>Node19</title>
<g id="a_node19"><a xlink:href="dfp200_8f90.html#a5e56f1f4b1e6df11a9cffa6237c37469" target="_top" xlink:title="This routine evaluates the value of the magnetic field once the interface is perturbed using matrix p...">
<polygon fill="white" stroke="black" points="500,-0.5 500,-19.5 615,-19.5 615,-0.5 500,-0.5"/>
<text text-anchor="middle" x="557.5" y="-7.5" font-family="Helvetica,sans-Serif" font-size="10.00">get_perturbed_solution</text>
</a>
</g>
</g>
<!-- Node1&#45;&gt;Node19 -->
<g id="edge34" class="edge">
<title>Node1&#45;&gt;Node19</title>
<path fill="none" stroke="midnightblue" d="M663.87,-67.72C653.35,-52.5 634.93,-32.23 615,-20 614.74,-19.84 614.47,-19.68 614.2,-19.52"/>
<polygon fill="midnightblue" stroke="midnightblue" points="661.06,-69.82 669.34,-76.42 666.98,-66.09 661.06,-69.82"/>
</g>
<!-- Node3 -->
<g id="node3" class="node">
<title>Node3</title>
<g id="a_node3"><a xlink:href="namespaceallglobal.html#a7824bc37519fe88336534ce90ab2af16" target="_top" xlink:title=" ">
<polygon fill="white" stroke="black" points="344.5,-389.5 344.5,-408.5 458.5,-408.5 458.5,-389.5 344.5,-389.5"/>
<text text-anchor="middle" x="401.5" y="-396.5" font-family="Helvetica,sans-Serif" font-size="10.00">allglobal::check_inputs</text>
</a>
</g>
</g>
<!-- Node2&#45;&gt;Node3 -->
<g id="edge2" class="edge">
<title>Node2&#45;&gt;Node3</title>
<path fill="none" stroke="midnightblue" d="M547.39,-265.79C533.17,-293.33 503.2,-344.66 464,-375 456.11,-381.1 446.48,-385.83 437.21,-389.41"/>
<polygon fill="midnightblue" stroke="midnightblue" points="550.55,-267.31 551.91,-256.81 544.29,-264.17 550.55,-267.31"/>
</g>
<!-- Node6 -->
<g id="node6" class="node">
<title>Node6</title>
<g id="a_node6"><a xlink:href="xspech_8f90.html#a48f45478dc2c9f70ea8aa1c60ad06503" target="_top" xlink:title="This is the main &quot;driver&quot; for the physics part of SPEC.">
<polygon fill="white" stroke="black" points="155.5,-331.5 155.5,-350.5 193.5,-350.5 193.5,-331.5 155.5,-331.5"/>
<text text-anchor="middle" x="174.5" y="-338.5" font-family="Helvetica,sans-Serif" font-size="10.00">spec</text>
</a>
</g>
</g>
<!-- Node2&#45;&gt;Node6 -->
<g id="edge28" class="edge">
<title>Node2&#45;&gt;Node6</title>
<path fill="none" stroke="midnightblue" d="M537.47,-263.02C519.61,-277.23 491.59,-297.46 464,-309 368.47,-348.98 240.41,-345.39 193.6,-342.42"/>
<polygon fill="midnightblue" stroke="midnightblue" points="539.82,-265.62 545.37,-256.6 535.4,-260.19 539.82,-265.62"/>
</g>
<!-- Node9 -->
<g id="node9" class="node">
<title>Node9</title>
<g id="a_node9"><a xlink:href="group__grp__force__driver.html#gabbc245b3884ee8d8d3e2a52f25149f78" target="_top" xlink:title="fcn1">
<polygon fill="white" stroke="black" points="384,-237.5 384,-256.5 419,-256.5 419,-237.5 384,-237.5"/>
<text text-anchor="middle" x="401.5" y="-244.5" font-family="Helvetica,sans-Serif" font-size="10.00">fcn1</text>
</a>
</g>
</g>
<!-- Node2&#45;&gt;Node9 -->
<g id="edge11" class="edge">
<title>Node2&#45;&gt;Node9</title>
<path fill="none" stroke="midnightblue" d="M525.22,-247C493.12,-247 444.41,-247 419.09,-247"/>
<polygon fill="midnightblue" stroke="midnightblue" points="525.41,-250.5 535.41,-247 525.41,-243.5 525.41,-250.5"/>
</g>
<!-- Node10 -->
<g id="node10" class="node">
<title>Node10</title>
<g id="a_node10"><a xlink:href="group__grp__force__driver.html#gaec14f81fbdbedafbc4189489ec8ae178" target="_top" xlink:title="Employs Newton method to find , where &#160;and &#160;is defined in dforce() .">
<polygon fill="white" stroke="black" points="255,-256.5 255,-275.5 303,-275.5 303,-256.5 255,-256.5"/>
<text text-anchor="middle" x="279" y="-263.5" font-family="Helvetica,sans-Serif" font-size="10.00">newton</text>
</a>
</g>
</g>
<!-- Node2&#45;&gt;Node10 -->
<g id="edge25" class="edge">
<title>Node2&#45;&gt;Node10</title>
<path fill="none" stroke="midnightblue" d="M525.51,-255C507.66,-259.2 484.72,-263.89 464,-266 406.32,-271.86 337.94,-269.41 303.02,-267.49"/>
<polygon fill="midnightblue" stroke="midnightblue" points="526.48,-258.37 535.38,-252.61 524.84,-251.56 526.48,-258.37"/>
</g>
<!-- Node11 -->
<g id="node11" class="node">
<title>Node11</title>
<g id="a_node11"><a xlink:href="group__grp__force__driver.html#ga8ccd6c7d901872702521d0a0edf95412" target="_top" xlink:title="fcn2">
<polygon fill="white" stroke="black" points="29.5,-261.5 29.5,-280.5 64.5,-280.5 64.5,-261.5 29.5,-261.5"/>
<text text-anchor="middle" x="47" y="-268.5" font-family="Helvetica,sans-Serif" font-size="10.00">fcn2</text>
</a>
</g>
</g>
<!-- Node2&#45;&gt;Node11 -->
<g id="edge20" class="edge">
<title>Node2&#45;&gt;Node11</title>
<path fill="none" stroke="midnightblue" d="M525.1,-239.63C453.68,-224.16 274.1,-192.51 130,-228 103.93,-234.42 76.98,-250.76 61.39,-261.35"/>
<polygon fill="midnightblue" stroke="midnightblue" points="524.71,-243.13 535.23,-241.88 526.22,-236.3 524.71,-243.13"/>
</g>
<!-- Node2&#45;&gt;Node13 -->
<g id="edge21" class="edge">
<title>Node2&#45;&gt;Node13</title>
<path fill="none" stroke="midnightblue" d="M543.68,-229.19C527.44,-207.88 497.5,-172.5 464,-152 457.71,-148.15 450.57,-145.02 443.45,-142.5"/>
<polygon fill="midnightblue" stroke="midnightblue" points="540.99,-231.45 549.77,-237.38 546.61,-227.27 540.99,-231.45"/>
</g>
<!-- Node14 -->
<g id="node14" class="node">
<title>Node14</title>
<g id="a_node14"><a xlink:href="group__grp__diagnostics.html#ga7401b50ec10c6598ee4a8112717a63ec" target="_top" xlink:title="Computes eigenvalues and eigenvectors of derivative matrix, .">
<polygon fill="white" stroke="black" points="256.5,-313.5 256.5,-332.5 301.5,-332.5 301.5,-313.5 256.5,-313.5"/>
<text text-anchor="middle" x="279" y="-320.5" font-family="Helvetica,sans-Serif" font-size="10.00">hesian</text>
</a>
</g>
</g>
<!-- Node2&#45;&gt;Node14 -->
<g id="edge23" class="edge">
<title>Node2&#45;&gt;Node14</title>
<path fill="none" stroke="midnightblue" d="M526.1,-259.29C508.21,-266.24 485.04,-274.76 464,-281 406.2,-298.14 336.43,-312.34 301.76,-318.97"/>
<polygon fill="midnightblue" stroke="midnightblue" points="527.42,-262.53 535.45,-255.61 524.86,-256.02 527.42,-262.53"/>
</g>
<!-- Node15 -->
<g id="node15" class="node">
<title>Node15</title>
<g id="a_node15"><a xlink:href="group__grp__conjugate__gradient.html#ga4d8415226e62a9fdb42b0fd0b464251e" target="_top" xlink:title="Returns the energy functional and it&#39;s derivatives with respect to geometry.">
<polygon fill="white" stroke="black" points="377.5,-161.5 377.5,-180.5 425.5,-180.5 425.5,-161.5 377.5,-161.5"/>
<text text-anchor="middle" x="401.5" y="-168.5" font-family="Helvetica,sans-Serif" font-size="10.00">pc00ab</text>
</a>
</g>
</g>
<!-- Node2&#45;&gt;Node15 -->
<g id="edge26" class="edge">
<title>Node2&#45;&gt;Node15</title>
<path fill="none" stroke="midnightblue" d="M532.54,-232.3C514.15,-221.33 487.93,-206.33 464,-195 451.57,-189.12 437.28,-183.47 425.6,-179.14"/>
<polygon fill="midnightblue" stroke="midnightblue" points="530.77,-235.32 541.14,-237.48 534.38,-229.33 530.77,-235.32"/>
</g>
<!-- Node4 -->
<g id="node4" class="node">
<title>Node4</title>
<g id="a_node4"><a xlink:href="xspech_8f90.html#a9fdc71dffd7c61ee4588a3f80d3ab9ce" target="_top" xlink:title="Main subroutine of SPEC.">
<polygon fill="white" stroke="black" points="255.5,-389.5 255.5,-408.5 302.5,-408.5 302.5,-389.5 255.5,-389.5"/>
<text text-anchor="middle" x="279" y="-396.5" font-family="Helvetica,sans-Serif" font-size="10.00">xspech</text>
</a>
</g>
</g>
<!-- Node3&#45;&gt;Node4 -->
<g id="edge3" class="edge">
<title>Node3&#45;&gt;Node4</title>
<path fill="none" stroke="midnightblue" d="M334.45,-399C323.06,-399 311.95,-399 302.77,-399"/>
<polygon fill="midnightblue" stroke="midnightblue" points="334.48,-402.5 344.48,-399 334.48,-395.5 334.48,-402.5"/>
</g>
<!-- Node5 -->
<g id="node5" class="node">
<title>Node5</title>
<g id="a_node5"><a xlink:href="xspech_8f90.html#a1451823a7b97101a797de616250752c1" target="_top" xlink:title="Final diagnostics.">
<polygon fill="white" stroke="black" points="130,-445.5 130,-464.5 219,-464.5 219,-445.5 130,-445.5"/>
<text text-anchor="middle" x="174.5" y="-452.5" font-family="Helvetica,sans-Serif" font-size="10.00">final_diagnostics</text>
</a>
</g>
</g>
<!-- Node4&#45;&gt;Node5 -->
<g id="edge4" class="edge">
<title>Node4&#45;&gt;Node5</title>
<path fill="none" stroke="midnightblue" d="M246.08,-410.13C225.23,-420.52 199.37,-435.35 185.47,-445.35"/>
<polygon fill="midnightblue" stroke="midnightblue" points="247.77,-413.21 255.25,-405.71 244.72,-406.9 247.77,-413.21"/>
</g>
<!-- Node4&#45;&gt;Node6 -->
<g id="edge6" class="edge">
<title>Node4&#45;&gt;Node6</title>
<path fill="none" stroke="midnightblue" d="M265.02,-382.4C253.33,-372.13 235.49,-359.97 219,-351 210.89,-346.59 201.55,-342.4 193.61,-339.84"/>
<polygon fill="midnightblue" stroke="midnightblue" points="262.72,-385.04 272.34,-389.46 267.58,-380 262.72,-385.04"/>
</g>
<!-- Node8 -->
<g id="node8" class="node">
<title>Node8</title>
<g id="a_node8"><a xlink:href="xspech_8f90.html#a95271e8805067f801b5d4e524d6901d4" target="_top" xlink:title="Main program of SPEC.">
<polygon fill="white" stroke="black" points="142.5,-369.5 142.5,-388.5 206.5,-388.5 206.5,-369.5 142.5,-369.5"/>
<text text-anchor="middle" x="174.5" y="-376.5" font-family="Helvetica,sans-Serif" font-size="10.00">spec_main</text>
</a>
</g>
</g>
<!-- Node4&#45;&gt;Node8 -->
<g id="edge10" class="edge">
<title>Node4&#45;&gt;Node8</title>
<path fill="none" stroke="midnightblue" d="M245.34,-392.63C232.98,-390.22 218.96,-387.48 206.74,-385.09"/>
<polygon fill="midnightblue" stroke="midnightblue" points="244.77,-396.08 255.25,-394.56 246.11,-389.21 244.77,-396.08"/>
</g>
<!-- Node5&#45;&gt;Node4 -->
<g id="edge5" class="edge">
<title>Node5&#45;&gt;Node4</title>
<path fill="none" stroke="midnightblue" d="M213.54,-440.76C233.19,-430.64 255.63,-417.6 268.17,-408.55"/>
<polygon fill="midnightblue" stroke="midnightblue" points="211.83,-437.71 204.46,-445.32 214.97,-443.96 211.83,-437.71"/>
</g>
<!-- Node6&#45;&gt;Node4 -->
<g id="edge9" class="edge">
<title>Node6&#45;&gt;Node4</title>
<path fill="none" stroke="midnightblue" d="M192.07,-355.54C200.33,-359.86 210.36,-364.3 219,-369 231.41,-375.74 244.57,-384.3 255.31,-390.86"/>
<polygon fill="midnightblue" stroke="midnightblue" points="193.8,-352.49 183.39,-350.52 190.3,-358.55 193.8,-352.49"/>
</g>
<!-- Node7 -->
<g id="node7" class="node">
<title>Node7</title>
<g id="a_node7"><a xlink:href="group__grp__output.html#ga0f962c09cd5d5eba99f1cba043cb3898" target="_top" xlink:title="Initialize the interface to the HDF5 library and open the output file.">
<polygon fill="white" stroke="black" points="0,-369.5 0,-388.5 94,-388.5 94,-369.5 0,-369.5"/>
<text text-anchor="middle" x="47" y="-376.5" font-family="Helvetica,sans-Serif" font-size="10.00">sphdf5::init_outfile</text>
</a>
</g>
</g>
<!-- Node6&#45;&gt;Node7 -->
<g id="edge7" class="edge">
<title>Node6&#45;&gt;Node7</title>
<path fill="none" stroke="midnightblue" d="M145.67,-349.43C126.05,-355.37 99.76,-363.33 79.39,-369.49"/>
<polygon fill="midnightblue" stroke="midnightblue" points="146.69,-352.77 155.25,-346.53 144.67,-346.07 146.69,-352.77"/>
</g>
<!-- Node7&#45;&gt;Node4 -->
<g id="edge8" class="edge">
<title>Node7&#45;&gt;Node4</title>
<path fill="none" stroke="midnightblue" d="M91.64,-390.99C103.95,-393.86 117.41,-396.52 130,-398 174.15,-403.2 226.22,-401.83 255.34,-400.39"/>
<polygon fill="midnightblue" stroke="midnightblue" points="92.16,-387.52 81.62,-388.56 90.51,-394.32 92.16,-387.52"/>
</g>
<!-- Node9&#45;&gt;Node10 -->
<g id="edge12" class="edge">
<title>Node9&#45;&gt;Node10</title>
<path fill="none" stroke="midnightblue" d="M373.51,-245.52C352.38,-247.41 323.31,-252.09 303.22,-256.88"/>
<polygon fill="midnightblue" stroke="midnightblue" points="374.02,-248.99 383.74,-244.8 373.52,-242.01 374.02,-248.99"/>
</g>
<!-- Node10&#45;&gt;Node6 -->
<g id="edge16" class="edge">
<title>Node10&#45;&gt;Node6</title>
<path fill="none" stroke="midnightblue" d="M260.61,-282.74C249.26,-293.23 233.84,-306.66 219,-317 211.07,-322.52 201.76,-327.81 193.78,-332"/>
<polygon fill="midnightblue" stroke="midnightblue" points="263.2,-285.11 268.09,-275.71 258.4,-280.01 263.2,-285.11"/>
</g>
<!-- Node10&#45;&gt;Node9 -->
<g id="edge13" class="edge">
<title>Node10&#45;&gt;Node9</title>
<path fill="none" stroke="midnightblue" d="M313.21,-266.87C336.11,-264.43 365.58,-259.36 383.74,-254.49"/>
<polygon fill="midnightblue" stroke="midnightblue" points="312.85,-263.39 303.22,-267.8 313.5,-270.36 312.85,-263.39"/>
</g>
<!-- Node10&#45;&gt;Node11 -->
<g id="edge14" class="edge">
<title>Node10&#45;&gt;Node11</title>
<path fill="none" stroke="midnightblue" d="M244.39,-261.79C194.39,-260.11 102.25,-262.52 64.65,-266.92"/>
<polygon fill="midnightblue" stroke="midnightblue" points="244.54,-265.3 254.68,-262.23 244.84,-258.31 244.54,-265.3"/>
</g>
<!-- Node12 -->
<g id="node12" class="node">
<title>Node12</title>
<g id="a_node12"><a xlink:href="group__grp__force__driver.html#ga382822b303cbf8c56d6f54dcb379caf2" target="_top" xlink:title="read or write force&#45;derivative matrix">
<polygon fill="white" stroke="black" points="142,-237.5 142,-256.5 207,-256.5 207,-237.5 142,-237.5"/>
<text text-anchor="middle" x="174.5" y="-244.5" font-family="Helvetica,sans-Serif" font-size="10.00">writereadgf</text>
</a>
</g>
</g>
<!-- Node10&#45;&gt;Node12 -->
<g id="edge17" class="edge">
<title>Node10&#45;&gt;Node12</title>
<path fill="none" stroke="midnightblue" d="M246.76,-253.94C234.23,-250.98 219.81,-248.3 207.23,-246.59"/>
<polygon fill="midnightblue" stroke="midnightblue" points="246.21,-257.41 256.76,-256.47 247.93,-250.62 246.21,-257.41"/>
</g>
<!-- Node11&#45;&gt;Node10 -->
<g id="edge15" class="edge">
<title>Node11&#45;&gt;Node10</title>
<path fill="none" stroke="midnightblue" d="M74.91,-274.94C120.41,-277 211.74,-274.93 254.68,-270.78"/>
<polygon fill="midnightblue" stroke="midnightblue" points="74.83,-271.43 64.65,-274.35 74.43,-278.42 74.83,-271.43"/>
</g>
<!-- Node12&#45;&gt;Node10 -->
<g id="edge19" class="edge">
<title>Node12&#45;&gt;Node10</title>
<path fill="none" stroke="midnightblue" d="M206.43,-258.99C222.05,-262.68 240.67,-265.96 255,-267.48"/>
<polygon fill="midnightblue" stroke="midnightblue" points="207.23,-255.58 196.68,-256.51 205.51,-262.37 207.23,-255.58"/>
</g>
<!-- Node12&#45;&gt;Node11 -->
<g id="edge18" class="edge">
<title>Node12&#45;&gt;Node11</title>
<path fill="none" stroke="midnightblue" d="M131.96,-254.94C108.99,-259.34 81.73,-264.55 64.64,-267.82"/>
<polygon fill="midnightblue" stroke="midnightblue" points="132.67,-258.37 141.83,-253.06 131.35,-251.5 132.67,-258.37"/>
</g>
<!-- Node13&#45;&gt;Node1 -->
<g id="edge22" class="edge">
<title>Node13&#45;&gt;Node1</title>
<path fill="none" stroke="midnightblue" d="M474.42,-134.76C515.86,-131.51 568.74,-124.53 615,-114 632.98,-109.91 653.31,-102.6 664.49,-95.51"/>
<polygon fill="midnightblue" stroke="midnightblue" points="474.13,-131.28 464.41,-135.49 474.64,-138.26 474.13,-131.28"/>
</g>
<!-- Node14&#45;&gt;Node6 -->
<g id="edge24" class="edge">
<title>Node14&#45;&gt;Node6</title>
<path fill="none" stroke="midnightblue" d="M246.08,-328.61C228.88,-331.63 208.27,-335.24 193.78,-337.79"/>
<polygon fill="midnightblue" stroke="midnightblue" points="247.02,-331.99 256.26,-326.82 245.81,-325.1 247.02,-331.99"/>
</g>
<!-- Node16 -->
<g id="node16" class="node">
<title>Node16</title>
<g id="a_node16"><a xlink:href="group__grp__conjugate__gradient.html#ga25a3bae2ff2ee0469b045de0d033398b" target="_top" xlink:title="Use preconditioned conjugate gradient method to find minimum of energy functional.">
<polygon fill="white" stroke="black" points="255,-161.5 255,-180.5 303,-180.5 303,-161.5 255,-161.5"/>
<text text-anchor="middle" x="279" y="-168.5" font-family="Helvetica,sans-Serif" font-size="10.00">pc00aa</text>
</a>
</g>
</g>
<!-- Node15&#45;&gt;Node16 -->
<g id="edge27" class="edge">
<title>Node15&#45;&gt;Node16</title>
<path fill="none" stroke="midnightblue" d="M367.16,-171C346.81,-171 321.31,-171 303.16,-171"/>
<polygon fill="midnightblue" stroke="midnightblue" points="367.27,-174.5 377.27,-171 367.27,-167.5 367.27,-174.5"/>
</g>
<!-- Node17&#45;&gt;Node1 -->
<g id="edge30" class="edge">
<title>Node17&#45;&gt;Node1</title>
<path fill="none" stroke="midnightblue" d="M605.12,-92.65C620.95,-92.96 637.92,-92.56 650.92,-91.46"/>
<polygon fill="midnightblue" stroke="midnightblue" points="605.03,-89.14 594.93,-92.34 604.81,-96.14 605.03,-89.14"/>
</g>
<!-- Node18&#45;&gt;Node1 -->
<g id="edge32" class="edge">
<title>Node18&#45;&gt;Node1</title>
<path fill="none" stroke="midnightblue" d="M582.66,-61.65C602.83,-69.89 631.35,-79.3 650.92,-84.13"/>
<polygon fill="midnightblue" stroke="midnightblue" points="583.8,-58.33 573.23,-57.59 581.04,-64.76 583.8,-58.33"/>
</g>
<!-- Node19&#45;&gt;Node1 -->
<g id="edge35" class="edge">
<title>Node19&#45;&gt;Node1</title>
<path fill="none" stroke="midnightblue" d="M580.92,-23.14C591.73,-27.06 604.57,-31.6 615,-38 632.33,-48.64 648.51,-65.34 659.36,-76.32"/>
<polygon fill="midnightblue" stroke="midnightblue" points="581.92,-19.78 571.33,-19.53 579.46,-26.33 581.92,-19.78"/>
</g>
</g>
</svg>
