<?xml version="1.0" encoding="UTF-8" standalone="no"?>
<!DOCTYPE svg PUBLIC "-//W3C//DTD SVG 1.1//EN"
 "http://www.w3.org/Graphics/SVG/1.1/DTD/svg11.dtd">
<!-- Generated by graphviz version 2.47.1 (20210421.1823)
 -->
<!-- Title: evaluate_dbb Pages: 1 -->
<svg width="791pt" height="379pt"
 viewBox="0.00 0.00 791.00 379.00" xmlns="http://www.w3.org/2000/svg" xmlns:xlink="http://www.w3.org/1999/xlink">
<g id="graph0" class="graph" transform="scale(1 1) rotate(0) translate(4 375)">
<title>evaluate_dbb</title>
<polygon fill="white" stroke="transparent" points="-4,4 -4,-375 787,-375 787,4 -4,4"/>
<!-- Node1 -->
<g id="node1" class="node">
<title>Node1</title>
<g id="a_node1"><a xlink:title="Evaluate the derivative of the square of the magnetic field modulus. Add spectral constraint derivati...">
<polygon fill="#bfbfbf" stroke="black" points="709,-38.5 709,-57.5 783,-57.5 783,-38.5 709,-38.5"/>
<text text-anchor="middle" x="746" y="-45.5" font-family="Helvetica,sans-Serif" font-size="10.00">evaluate_dbb</text>
</a>
</g>
</g>
<!-- Node2 -->
<g id="node2" class="node">
<title>Node2</title>
<g id="a_node2"><a xlink:href="dfp200_8f90.html#a55ea75395f8c71731451e1add3720c7e" target="_top" xlink:title="Given the field consistent with the constraints and the geometry, computes local quantites related to...">
<polygon fill="white" stroke="black" points="627,-38.5 627,-57.5 673,-57.5 673,-38.5 627,-38.5"/>
<text text-anchor="middle" x="650" y="-45.5" font-family="Helvetica,sans-Serif" font-size="10.00">dfp200</text>
</a>
</g>
</g>
<!-- Node1&#45;&gt;Node2 -->
<g id="edge1" class="edge">
<title>Node1&#45;&gt;Node2</title>
<path fill="none" stroke="midnightblue" d="M698.92,-41.25C689.97,-41.23 680.98,-41.53 673.25,-42.16"/>
<polygon fill="midnightblue" stroke="midnightblue" points="698.87,-44.75 708.93,-41.41 698.98,-37.75 698.87,-44.75"/>
</g>
<!-- Node2&#45;&gt;Node1 -->
<g id="edge27" class="edge">
<title>Node2&#45;&gt;Node1</title>
<path fill="none" stroke="midnightblue" d="M683.27,-54.45C691.54,-54.8 700.48,-54.84 708.93,-54.59"/>
<polygon fill="midnightblue" stroke="midnightblue" points="683.44,-50.95 673.25,-53.84 683.02,-57.94 683.44,-50.95"/>
</g>
<!-- Node3 -->
<g id="node3" class="node">
<title>Node3</title>
<g id="a_node3"><a xlink:href="group__grp__global__force.html#ga38c9d3c50bd043707fefa5137c9dbf44" target="_top" xlink:title="Calculates , where &#160;and , and .">
<polygon fill="white" stroke="black" points="511.5,-199.5 511.5,-218.5 555.5,-218.5 555.5,-199.5 511.5,-199.5"/>
<text text-anchor="middle" x="533.5" y="-206.5" font-family="Helvetica,sans-Serif" font-size="10.00">dforce</text>
</a>
</g>
</g>
<!-- Node2&#45;&gt;Node3 -->
<g id="edge2" class="edge">
<title>Node2&#45;&gt;Node3</title>
<path fill="none" stroke="midnightblue" d="M636.11,-66.12C611.85,-100.24 560.13,-172.96 541.43,-199.26"/>
<polygon fill="midnightblue" stroke="midnightblue" points="639.24,-67.77 642.18,-57.59 633.53,-63.71 639.24,-67.77"/>
</g>
<!-- Node12 -->
<g id="node12" class="node">
<title>Node12</title>
<g id="a_node12"><a xlink:href="dfp200_8f90.html#a6aca59cf350d7b1941f8389d50945a43" target="_top" xlink:title="get LU Beltrami matrices">
<polygon fill="white" stroke="black" points="315,-85.5 315,-104.5 440,-104.5 440,-85.5 315,-85.5"/>
<text text-anchor="middle" x="377.5" y="-92.5" font-family="Helvetica,sans-Serif" font-size="10.00">get_lu_beltrami_matrices</text>
</a>
</g>
</g>
<!-- Node2&#45;&gt;Node12 -->
<g id="edge30" class="edge">
<title>Node2&#45;&gt;Node12</title>
<path fill="none" stroke="midnightblue" d="M617.14,-50.92C608.73,-53.35 599.59,-56.04 591,-58 531.13,-71.63 460.16,-79.32 417.27,-85.48"/>
<polygon fill="midnightblue" stroke="midnightblue" points="618.29,-54.23 626.96,-48.15 616.39,-47.5 618.29,-54.23"/>
</g>
<!-- Node16 -->
<g id="node16" class="node">
<title>Node16</title>
<g id="a_node16"><a xlink:href="dfp200_8f90.html#a73ddf39ecc5228201fb643779e17cd36" target="_top" xlink:title="Evaluate mu and psip derivatives and store them in dmupfdx.">
<polygon fill="white" stroke="black" points="486,-38.5 486,-57.5 581,-57.5 581,-38.5 486,-38.5"/>
<text text-anchor="middle" x="533.5" y="-45.5" font-family="Helvetica,sans-Serif" font-size="10.00">evaluate_dmupfdx</text>
</a>
</g>
</g>
<!-- Node2&#45;&gt;Node16 -->
<g id="edge28" class="edge">
<title>Node2&#45;&gt;Node16</title>
<path fill="none" stroke="midnightblue" d="M616.86,-41.86C605.78,-41.29 593.15,-41.12 581.15,-41.35"/>
<polygon fill="midnightblue" stroke="midnightblue" points="616.71,-45.36 626.92,-42.54 617.18,-38.38 616.71,-45.36"/>
</g>
<!-- Node17 -->
<g id="node17" class="node">
<title>Node17</title>
<g id="a_node17"><a xlink:href="dfp200_8f90.html#a5e56f1f4b1e6df11a9cffa6237c37469" target="_top" xlink:title="This routine evaluates the value of the magnetic field once the interface is perturbed using matrix p...">
<polygon fill="white" stroke="black" points="476,-0.5 476,-19.5 591,-19.5 591,-0.5 476,-0.5"/>
<text text-anchor="middle" x="533.5" y="-7.5" font-family="Helvetica,sans-Serif" font-size="10.00">get_perturbed_solution</text>
</a>
</g>
</g>
<!-- Node2&#45;&gt;Node17 -->
<g id="edge31" class="edge">
<title>Node2&#45;&gt;Node17</title>
<path fill="none" stroke="midnightblue" d="M624.71,-34.3C612.69,-29.39 597.73,-24.08 583.48,-19.57"/>
<polygon fill="midnightblue" stroke="midnightblue" points="623.46,-37.57 634.03,-38.3 626.22,-31.14 623.46,-37.57"/>
</g>
<!-- Node4 -->
<g id="node4" class="node">
<title>Node4</title>
<g id="a_node4"><a xlink:href="namespaceallglobal.html#a7824bc37519fe88336534ce90ab2af16" target="_top" xlink:title=" ">
<polygon fill="white" stroke="black" points="320.5,-351.5 320.5,-370.5 434.5,-370.5 434.5,-351.5 320.5,-351.5"/>
<text text-anchor="middle" x="377.5" y="-358.5" font-family="Helvetica,sans-Serif" font-size="10.00">allglobal::check_inputs</text>
</a>
</g>
</g>
<!-- Node3&#45;&gt;Node4 -->
<g id="edge3" class="edge">
<title>Node3&#45;&gt;Node4</title>
<path fill="none" stroke="midnightblue" d="M524.27,-228.07C510.83,-256.96 481.45,-311.69 440,-342 434.68,-345.89 428.54,-349 422.25,-351.48"/>
<polygon fill="midnightblue" stroke="midnightblue" points="527.58,-229.24 528.49,-218.68 521.2,-226.36 527.58,-229.24"/>
</g>
<!-- Node6 -->
<g id="node6" class="node">
<title>Node6</title>
<g id="a_node6"><a xlink:href="xspech_8f90.html#a48f45478dc2c9f70ea8aa1c60ad06503" target="_top" xlink:title=" ">
<polygon fill="white" stroke="black" points="143.5,-284.5 143.5,-303.5 181.5,-303.5 181.5,-284.5 143.5,-284.5"/>
<text text-anchor="middle" x="162.5" y="-291.5" font-family="Helvetica,sans-Serif" font-size="10.00">spec</text>
</a>
</g>
</g>
<!-- Node3&#45;&gt;Node6 -->
<g id="edge26" class="edge">
<title>Node3&#45;&gt;Node6</title>
<path fill="none" stroke="midnightblue" d="M501.31,-215.59C483.39,-219.33 460.45,-224.04 440,-228 347.31,-245.94 321.56,-239.32 231,-266 213.84,-271.06 195.11,-279.04 181.74,-285.19"/>
<polygon fill="midnightblue" stroke="midnightblue" points="502.15,-218.99 511.22,-213.51 500.71,-212.14 502.15,-218.99"/>
</g>
<!-- Node8 -->
<g id="node8" class="node">
<title>Node8</title>
<g id="a_node8"><a xlink:href="group__grp__force__driver.html#gabbc245b3884ee8d8d3e2a52f25149f78" target="_top" xlink:title="fcn1">
<polygon fill="white" stroke="black" points="360,-199.5 360,-218.5 395,-218.5 395,-199.5 360,-199.5"/>
<text text-anchor="middle" x="377.5" y="-206.5" font-family="Helvetica,sans-Serif" font-size="10.00">fcn1</text>
</a>
</g>
</g>
<!-- Node3&#45;&gt;Node8 -->
<g id="edge9" class="edge">
<title>Node3&#45;&gt;Node8</title>
<path fill="none" stroke="midnightblue" d="M501.22,-209C469.12,-209 420.41,-209 395.09,-209"/>
<polygon fill="midnightblue" stroke="midnightblue" points="501.41,-212.5 511.41,-209 501.41,-205.5 501.41,-212.5"/>
</g>
<!-- Node9 -->
<g id="node9" class="node">
<title>Node9</title>
<g id="a_node9"><a xlink:href="group__grp__force__driver.html#gaec14f81fbdbedafbc4189489ec8ae178" target="_top" xlink:title="Employs Newton method to find , where &#160;and &#160;is defined in dforce() .">
<polygon fill="white" stroke="black" points="231,-199.5 231,-218.5 279,-218.5 279,-199.5 231,-199.5"/>
<text text-anchor="middle" x="255" y="-206.5" font-family="Helvetica,sans-Serif" font-size="10.00">newton</text>
</a>
</g>
</g>
<!-- Node3&#45;&gt;Node9 -->
<g id="edge23" class="edge">
<title>Node3&#45;&gt;Node9</title>
<path fill="none" stroke="midnightblue" d="M501.51,-201C483.66,-196.8 460.72,-192.11 440,-190 384.73,-184.38 369.88,-181.38 315,-190 302.88,-191.9 289.86,-195.88 279.13,-199.7"/>
<polygon fill="midnightblue" stroke="midnightblue" points="500.84,-204.44 511.38,-203.39 502.48,-197.63 500.84,-204.44"/>
</g>
<!-- Node10 -->
<g id="node10" class="node">
<title>Node10</title>
<g id="a_node10"><a xlink:href="group__grp__force__driver.html#ga8ccd6c7d901872702521d0a0edf95412" target="_top" xlink:title="fcn2">
<polygon fill="white" stroke="black" points="29.5,-170.5 29.5,-189.5 64.5,-189.5 64.5,-170.5 29.5,-170.5"/>
<text text-anchor="middle" x="47" y="-177.5" font-family="Helvetica,sans-Serif" font-size="10.00">fcn2</text>
</a>
</g>
</g>
<!-- Node3&#45;&gt;Node10 -->
<g id="edge18" class="edge">
<title>Node3&#45;&gt;Node10</title>
<path fill="none" stroke="midnightblue" d="M501.48,-196.68C483.78,-190.31 461,-183.21 440,-180 296.04,-157.96 118.84,-172.77 64.57,-178.22"/>
<polygon fill="midnightblue" stroke="midnightblue" points="500.67,-200.11 511.26,-200.31 503.1,-193.55 500.67,-200.11"/>
</g>
<!-- Node3&#45;&gt;Node12 -->
<g id="edge19" class="edge">
<title>Node3&#45;&gt;Node12</title>
<path fill="none" stroke="midnightblue" d="M518.22,-191.36C501.33,-171.48 471.51,-139.28 440,-119 430.84,-113.11 420.01,-108.28 410.01,-104.55"/>
<polygon fill="midnightblue" stroke="midnightblue" points="515.74,-193.86 524.83,-199.3 521.12,-189.38 515.74,-193.86"/>
</g>
<!-- Node13 -->
<g id="node13" class="node">
<title>Node13</title>
<g id="a_node13"><a xlink:href="group__grp__diagnostics.html#ga7401b50ec10c6598ee4a8112717a63ec" target="_top" xlink:title="Computes eigenvalues and eigenvectors of derivative matrix, .">
<polygon fill="white" stroke="black" points="232.5,-275.5 232.5,-294.5 277.5,-294.5 277.5,-275.5 232.5,-275.5"/>
<text text-anchor="middle" x="255" y="-282.5" font-family="Helvetica,sans-Serif" font-size="10.00">hesian</text>
</a>
</g>
</g>
<!-- Node3&#45;&gt;Node13 -->
<g id="edge21" class="edge">
<title>Node3&#45;&gt;Node13</title>
<path fill="none" stroke="midnightblue" d="M510.57,-224.53C492.5,-236.51 465.75,-252.44 440,-261 383.44,-279.8 312.54,-283.96 277.56,-284.82"/>
<polygon fill="midnightblue" stroke="midnightblue" points="512.87,-227.2 519.17,-218.68 508.93,-221.41 512.87,-227.2"/>
</g>
<!-- Node14 -->
<g id="node14" class="node">
<title>Node14</title>
<g id="a_node14"><a xlink:href="group__grp__conjugate__gradient.html#ga4d8415226e62a9fdb42b0fd0b464251e" target="_top" xlink:title="Returns the energy functional and it&#39;s derivatives with respect to geometry.">
<polygon fill="white" stroke="black" points="353.5,-313.5 353.5,-332.5 401.5,-332.5 401.5,-313.5 353.5,-313.5"/>
<text text-anchor="middle" x="377.5" y="-320.5" font-family="Helvetica,sans-Serif" font-size="10.00">pc00ab</text>
</a>
</g>
</g>
<!-- Node3&#45;&gt;Node14 -->
<g id="edge24" class="edge">
<title>Node3&#45;&gt;Node14</title>
<path fill="none" stroke="midnightblue" d="M518.22,-226.64C501.33,-246.52 471.51,-278.72 440,-299 428.24,-306.57 413.72,-312.37 401.75,-316.38"/>
<polygon fill="midnightblue" stroke="midnightblue" points="521.12,-228.62 524.83,-218.7 515.74,-224.14 521.12,-228.62"/>
</g>
<!-- Node5 -->
<g id="node5" class="node">
<title>Node5</title>
<g id="a_node5"><a xlink:href="xspech_8f90.html#aea782eae089760a491c2c54f9903abcc" target="_top" xlink:title="Main program of SPEC.">
<polygon fill="white" stroke="black" points="231.5,-351.5 231.5,-370.5 278.5,-370.5 278.5,-351.5 231.5,-351.5"/>
<text text-anchor="middle" x="255" y="-358.5" font-family="Helvetica,sans-Serif" font-size="10.00">xspech</text>
</a>
</g>
</g>
<!-- Node4&#45;&gt;Node5 -->
<g id="edge4" class="edge">
<title>Node4&#45;&gt;Node5</title>
<path fill="none" stroke="midnightblue" d="M310.45,-361C299.06,-361 287.95,-361 278.77,-361"/>
<polygon fill="midnightblue" stroke="midnightblue" points="310.48,-364.5 320.48,-361 310.48,-357.5 310.48,-364.5"/>
</g>
<!-- Node5&#45;&gt;Node6 -->
<g id="edge5" class="edge">
<title>Node5&#45;&gt;Node6</title>
<path fill="none" stroke="midnightblue" d="M238.53,-344.32C222.8,-330.75 198.41,-312.59 181.74,-301.96"/>
<polygon fill="midnightblue" stroke="midnightblue" points="236.51,-347.21 246.28,-351.31 241.2,-342.01 236.51,-347.21"/>
</g>
<!-- Node6&#45;&gt;Node5 -->
<g id="edge8" class="edge">
<title>Node6&#45;&gt;Node5</title>
<path fill="none" stroke="midnightblue" d="M178.77,-310.51C193.66,-323.37 216.42,-340.42 233.01,-351.26"/>
<polygon fill="midnightblue" stroke="midnightblue" points="180.79,-307.62 171.02,-303.51 176.09,-312.81 180.79,-307.62"/>
</g>
<!-- Node7 -->
<g id="node7" class="node">
<title>Node7</title>
<g id="a_node7"><a xlink:href="namespacesphdf5.html#a0f962c09cd5d5eba99f1cba043cb3898" target="_top" xlink:title="initialize the interface to the HDF5 library and open the output file">
<polygon fill="white" stroke="black" points="0,-303.5 0,-322.5 94,-322.5 94,-303.5 0,-303.5"/>
<text text-anchor="middle" x="47" y="-310.5" font-family="Helvetica,sans-Serif" font-size="10.00">sphdf5::init_outfile</text>
</a>
</g>
</g>
<!-- Node6&#45;&gt;Node7 -->
<g id="edge6" class="edge">
<title>Node6&#45;&gt;Node7</title>
<path fill="none" stroke="midnightblue" d="M133.13,-298.75C121.33,-300.72 107.32,-303.07 94.11,-305.28"/>
<polygon fill="midnightblue" stroke="midnightblue" points="133.98,-302.16 143.26,-297.05 132.82,-295.25 133.98,-302.16"/>
</g>
<!-- Node7&#45;&gt;Node5 -->
<g id="edge7" class="edge">
<title>Node7&#45;&gt;Node5</title>
<path fill="none" stroke="midnightblue" d="M98.89,-324.86C141.21,-334.72 199.45,-348.29 231.17,-355.68"/>
<polygon fill="midnightblue" stroke="midnightblue" points="99.58,-321.42 89.04,-322.56 97.99,-328.24 99.58,-321.42"/>
</g>
<!-- Node8&#45;&gt;Node9 -->
<g id="edge10" class="edge">
<title>Node8&#45;&gt;Node9</title>
<path fill="none" stroke="midnightblue" d="M349.51,-203.26C328.38,-201.82 299.31,-201.92 279.22,-203.54"/>
<polygon fill="midnightblue" stroke="midnightblue" points="349.48,-206.77 359.74,-204.16 350.09,-199.8 349.48,-206.77"/>
</g>
<!-- Node9&#45;&gt;Node6 -->
<g id="edge14" class="edge">
<title>Node9&#45;&gt;Node6</title>
<path fill="none" stroke="midnightblue" d="M236.32,-225.61C217.68,-243.11 188.96,-270.08 173.76,-284.36"/>
<polygon fill="midnightblue" stroke="midnightblue" points="238.73,-228.15 243.62,-218.75 233.93,-223.05 238.73,-228.15"/>
</g>
<!-- Node9&#45;&gt;Node8 -->
<g id="edge11" class="edge">
<title>Node9&#45;&gt;Node8</title>
<path fill="none" stroke="midnightblue" d="M289.21,-215.11C312.11,-216.27 341.58,-215.85 359.74,-213.84"/>
<polygon fill="midnightblue" stroke="midnightblue" points="289.42,-211.61 279.22,-214.46 288.97,-218.6 289.42,-211.61"/>
</g>
<!-- Node9&#45;&gt;Node10 -->
<g id="edge12" class="edge">
<title>Node9&#45;&gt;Node10</title>
<path fill="none" stroke="midnightblue" d="M220.71,-199.19C176.07,-190.38 98.52,-179.88 64.64,-178.45"/>
<polygon fill="midnightblue" stroke="midnightblue" points="220.27,-202.67 230.77,-201.27 221.68,-195.82 220.27,-202.67"/>
</g>
<!-- Node11 -->
<g id="node11" class="node">
<title>Node11</title>
<g id="a_node11"><a xlink:href="group__grp__force__driver.html#ga382822b303cbf8c56d6f54dcb379caf2" target="_top" xlink:title="read or write force&#45;derivative matrix">
<polygon fill="white" stroke="black" points="130,-217.5 130,-236.5 195,-236.5 195,-217.5 130,-217.5"/>
<text text-anchor="middle" x="162.5" y="-224.5" font-family="Helvetica,sans-Serif" font-size="10.00">writereadgf</text>
</a>
</g>
</g>
<!-- Node9&#45;&gt;Node11 -->
<g id="edge15" class="edge">
<title>Node9&#45;&gt;Node11</title>
<path fill="none" stroke="midnightblue" d="M220.51,-209.12C207.9,-211.17 193.98,-214.23 183.06,-217.44"/>
<polygon fill="midnightblue" stroke="midnightblue" points="221.3,-212.54 230.69,-207.65 220.3,-205.61 221.3,-212.54"/>
</g>
<!-- Node10&#45;&gt;Node9 -->
<g id="edge13" class="edge">
<title>Node10&#45;&gt;Node9</title>
<path fill="none" stroke="midnightblue" d="M74.62,-188.46C115.3,-196.98 192.23,-207.73 230.77,-210.19"/>
<polygon fill="midnightblue" stroke="midnightblue" points="75.17,-184.99 64.64,-186.23 73.64,-191.83 75.17,-184.99"/>
</g>
<!-- Node11&#45;&gt;Node9 -->
<g id="edge17" class="edge">
<title>Node11&#45;&gt;Node9</title>
<path fill="none" stroke="midnightblue" d="M205.21,-225.44C215.38,-223.52 225.79,-221.1 234.36,-218.58"/>
<polygon fill="midnightblue" stroke="midnightblue" points="204.45,-222.01 195.2,-227.17 205.65,-228.91 204.45,-222.01"/>
</g>
<!-- Node11&#45;&gt;Node10 -->
<g id="edge16" class="edge">
<title>Node11&#45;&gt;Node10</title>
<path fill="none" stroke="midnightblue" d="M129.02,-213.55C108.01,-204.85 81.53,-193.88 64.67,-186.91"/>
<polygon fill="midnightblue" stroke="midnightblue" points="127.95,-216.9 138.53,-217.49 130.63,-210.43 127.95,-216.9"/>
</g>
<!-- Node12&#45;&gt;Node2 -->
<g id="edge20" class="edge">
<title>Node12&#45;&gt;Node2</title>
<path fill="none" stroke="midnightblue" d="M450.42,-96.76C491.86,-93.51 544.74,-86.53 591,-76 608.98,-71.91 629.31,-64.6 640.49,-57.51"/>
<polygon fill="midnightblue" stroke="midnightblue" points="450.13,-93.28 440.41,-97.49 450.64,-100.26 450.13,-93.28"/>
</g>
<!-- Node13&#45;&gt;Node6 -->
<g id="edge22" class="edge">
<title>Node13&#45;&gt;Node6</title>
<path fill="none" stroke="midnightblue" d="M222.13,-288.17C208.52,-289.52 193.15,-291.05 181.56,-292.2"/>
<polygon fill="midnightblue" stroke="midnightblue" points="222.49,-291.65 232.09,-287.18 221.8,-284.69 222.49,-291.65"/>
</g>
<!-- Node15 -->
<g id="node15" class="node">
<title>Node15</title>
<g id="a_node15"><a xlink:href="group__grp__conjugate__gradient.html#ga25a3bae2ff2ee0469b045de0d033398b" target="_top" xlink:title="Use preconditioned conjugate gradient method to find minimum of energy functional.">
<polygon fill="white" stroke="black" points="231,-313.5 231,-332.5 279,-332.5 279,-313.5 231,-313.5"/>
<text text-anchor="middle" x="255" y="-320.5" font-family="Helvetica,sans-Serif" font-size="10.00">pc00aa</text>
</a>
</g>
</g>
<!-- Node14&#45;&gt;Node15 -->
<g id="edge25" class="edge">
<title>Node14&#45;&gt;Node15</title>
<path fill="none" stroke="midnightblue" d="M343.16,-323C322.81,-323 297.31,-323 279.16,-323"/>
<polygon fill="midnightblue" stroke="midnightblue" points="343.27,-326.5 353.27,-323 343.27,-319.5 343.27,-326.5"/>
</g>
<!-- Node16&#45;&gt;Node2 -->
<g id="edge29" class="edge">
<title>Node16&#45;&gt;Node2</title>
<path fill="none" stroke="midnightblue" d="M591.27,-54.75C603.95,-54.76 616.67,-54.33 626.92,-53.46"/>
<polygon fill="midnightblue" stroke="midnightblue" points="591.19,-51.25 581.15,-54.65 591.12,-58.25 591.19,-51.25"/>
</g>
<!-- Node17&#45;&gt;Node2 -->
<g id="edge32" class="edge">
<title>Node17&#45;&gt;Node2</title>
<path fill="none" stroke="midnightblue" d="M558.66,-23.65C578.83,-31.89 607.35,-41.3 626.92,-46.13"/>
<polygon fill="midnightblue" stroke="midnightblue" points="559.8,-20.33 549.23,-19.59 557.04,-26.76 559.8,-20.33"/>
</g>
</g>
</svg>
