<?xml version="1.0" encoding="UTF-8" standalone="no"?>
<!DOCTYPE svg PUBLIC "-//W3C//DTD SVG 1.1//EN"
 "http://www.w3.org/Graphics/SVG/1.1/DTD/svg11.dtd">
<!-- Generated by graphviz version 2.49.3 (20211027.1534)
 -->
<!-- Title: evaluate_dbb Pages: 1 -->
<svg width="815pt" height="485pt"
 viewBox="0.00 0.00 815.00 485.00" xmlns="http://www.w3.org/2000/svg" xmlns:xlink="http://www.w3.org/1999/xlink">
<g id="graph0" class="graph" transform="scale(1 1) rotate(0) translate(4 481)">
<title>evaluate_dbb</title>
<polygon fill="white" stroke="transparent" points="-4,4 -4,-481 811,-481 811,4 -4,4"/>
<!-- Node1 -->
<g id="node1" class="node">
<title>Node1</title>
<g id="a_node1"><a xlink:title="Evaluate the derivative of the square of the magnetic field modulus. Add spectral constraint derivati...">
<polygon fill="#bfbfbf" stroke="black" points="733,-38.5 733,-57.5 807,-57.5 807,-38.5 733,-38.5"/>
<text text-anchor="middle" x="770" y="-45.5" font-family="Helvetica,sans-Serif" font-size="10.00">evaluate_dbb</text>
</a>
</g>
</g>
<!-- Node2 -->
<g id="node2" class="node">
<title>Node2</title>
<g id="a_node2"><a xlink:href="dfp200_8f90.html#a55ea75395f8c71731451e1add3720c7e" target="_top" xlink:title="Given the field consistent with the constraints and the geometry, computes local quantites related to...">
<polygon fill="white" stroke="black" points="651,-38.5 651,-57.5 697,-57.5 697,-38.5 651,-38.5"/>
<text text-anchor="middle" x="674" y="-45.5" font-family="Helvetica,sans-Serif" font-size="10.00">dfp200</text>
</a>
</g>
</g>
<!-- Node1&#45;&gt;Node2 -->
<g id="edge1" class="edge">
<title>Node1&#45;&gt;Node2</title>
<path fill="none" stroke="midnightblue" d="M722.92,-41.25C713.97,-41.23 704.98,-41.53 697.25,-42.16"/>
<polygon fill="midnightblue" stroke="midnightblue" points="722.87,-44.75 732.93,-41.41 722.98,-37.75 722.87,-44.75"/>
</g>
<!-- Node2&#45;&gt;Node1 -->
<g id="edge40" class="edge">
<title>Node2&#45;&gt;Node1</title>
<path fill="none" stroke="midnightblue" d="M707.27,-54.45C715.54,-54.8 724.48,-54.84 732.93,-54.59"/>
<polygon fill="midnightblue" stroke="midnightblue" points="707.44,-50.95 697.25,-53.84 707.02,-57.94 707.44,-50.95"/>
</g>
<!-- Node2&#45;&gt;Node2 -->
<g id="edge39" class="edge">
<title>Node2&#45;&gt;Node2</title>
<path fill="none" stroke="midnightblue" d="M691.78,-67.4C690.59,-72.31 684.66,-76 674,-76 656.94,-76 652.01,-66.57 659.2,-57.76"/>
<polygon fill="midnightblue" stroke="midnightblue" points="695.09,-66.28 688.8,-57.76 688.41,-68.34 695.09,-66.28"/>
</g>
<!-- Node3 -->
<g id="node3" class="node">
<title>Node3</title>
<g id="a_node3"><a xlink:href="group__grp__global__force.html#ga38c9d3c50bd043707fefa5137c9dbf44" target="_top" xlink:title="Calculates , where &#160;and , and .">
<polygon fill="white" stroke="black" points="535.5,-245.5 535.5,-264.5 579.5,-264.5 579.5,-245.5 535.5,-245.5"/>
<text text-anchor="middle" x="557.5" y="-252.5" font-family="Helvetica,sans-Serif" font-size="10.00">dforce</text>
</a>
</g>
</g>
<!-- Node2&#45;&gt;Node3 -->
<g id="edge2" class="edge">
<title>Node2&#45;&gt;Node3</title>
<path fill="none" stroke="midnightblue" d="M662.79,-66.46C639.28,-108.97 581.97,-212.57 563.99,-245.07"/>
<polygon fill="midnightblue" stroke="midnightblue" points="665.85,-68.15 667.63,-57.71 659.73,-64.76 665.85,-68.15"/>
</g>
<!-- Node14 -->
<g id="node14" class="node">
<title>Node14</title>
<g id="a_node14"><a xlink:href="dfp200_8f90.html#a6aca59cf350d7b1941f8389d50945a43" target="_top" xlink:title="get LU Beltrami matrices">
<polygon fill="white" stroke="black" points="339,-85.5 339,-104.5 464,-104.5 464,-85.5 339,-85.5"/>
<text text-anchor="middle" x="401.5" y="-92.5" font-family="Helvetica,sans-Serif" font-size="10.00">get_lu_beltrami_matrices</text>
</a>
</g>
</g>
<!-- Node2&#45;&gt;Node14 -->
<g id="edge43" class="edge">
<title>Node2&#45;&gt;Node14</title>
<path fill="none" stroke="midnightblue" d="M641.14,-50.92C632.73,-53.35 623.59,-56.04 615,-58 555.13,-71.63 484.16,-79.32 441.27,-85.48"/>
<polygon fill="midnightblue" stroke="midnightblue" points="642.29,-54.23 650.96,-48.15 640.39,-47.5 642.29,-54.23"/>
</g>
<!-- Node18 -->
<g id="node18" class="node">
<title>Node18</title>
<g id="a_node18"><a xlink:href="dfp200_8f90.html#a73ddf39ecc5228201fb643779e17cd36" target="_top" xlink:title="Evaluate mu and psip derivatives and store them in dmupfdx.">
<polygon fill="white" stroke="black" points="510,-38.5 510,-57.5 605,-57.5 605,-38.5 510,-38.5"/>
<text text-anchor="middle" x="557.5" y="-45.5" font-family="Helvetica,sans-Serif" font-size="10.00">evaluate_dmupfdx</text>
</a>
</g>
</g>
<!-- Node2&#45;&gt;Node18 -->
<g id="edge41" class="edge">
<title>Node2&#45;&gt;Node18</title>
<path fill="none" stroke="midnightblue" d="M640.86,-41.86C629.78,-41.29 617.15,-41.12 605.15,-41.35"/>
<polygon fill="midnightblue" stroke="midnightblue" points="640.71,-45.36 650.92,-42.54 641.18,-38.38 640.71,-45.36"/>
</g>
<!-- Node19 -->
<g id="node19" class="node">
<title>Node19</title>
<g id="a_node19"><a xlink:href="dfp200_8f90.html#a5e56f1f4b1e6df11a9cffa6237c37469" target="_top" xlink:title="This routine evaluates the value of the magnetic field once the interface is perturbed using matrix p...">
<polygon fill="white" stroke="black" points="500,-0.5 500,-19.5 615,-19.5 615,-0.5 500,-0.5"/>
<text text-anchor="middle" x="557.5" y="-7.5" font-family="Helvetica,sans-Serif" font-size="10.00">get_perturbed_solution</text>
</a>
</g>
</g>
<!-- Node2&#45;&gt;Node19 -->
<g id="edge44" class="edge">
<title>Node2&#45;&gt;Node19</title>
<path fill="none" stroke="midnightblue" d="M648.71,-34.3C636.69,-29.39 621.73,-24.08 607.48,-19.57"/>
<polygon fill="midnightblue" stroke="midnightblue" points="647.46,-37.57 658.03,-38.3 650.22,-31.14 647.46,-37.57"/>
</g>
<!-- Node3&#45;&gt;Node3 -->
<g id="edge14" class="edge">
<title>Node3&#45;&gt;Node3</title>
<path fill="none" stroke="midnightblue" d="M578.98,-274.4C577.55,-279.31 570.39,-283 557.5,-283 536.88,-283 530.92,-273.57 539.62,-264.76"/>
<polygon fill="midnightblue" stroke="midnightblue" points="582.16,-272.9 575.38,-264.76 575.6,-275.35 582.16,-272.9"/>
</g>
<!-- Node4 -->
<g id="node4" class="node">
<title>Node4</title>
<g id="a_node4"><a xlink:href="namespaceallglobal.html#a7824bc37519fe88336534ce90ab2af16" target="_top" xlink:title=" ">
<polygon fill="white" stroke="black" points="344.5,-405.5 344.5,-424.5 458.5,-424.5 458.5,-405.5 344.5,-405.5"/>
<text text-anchor="middle" x="401.5" y="-412.5" font-family="Helvetica,sans-Serif" font-size="10.00">allglobal::check_inputs</text>
</a>
</g>
</g>
<!-- Node3&#45;&gt;Node4 -->
<g id="edge3" class="edge">
<title>Node3&#45;&gt;Node4</title>
<path fill="none" stroke="midnightblue" d="M548.1,-274.13C534.44,-303.19 504.77,-358.51 464,-391 456.29,-397.14 446.82,-401.87 437.64,-405.43"/>
<polygon fill="midnightblue" stroke="midnightblue" points="551.43,-275.25 552.4,-264.7 545.07,-272.34 551.43,-275.25"/>
</g>
<!-- Node7 -->
<g id="node7" class="node">
<title>Node7</title>
<g id="a_node7"><a xlink:href="xspech_8f90.html#a48f45478dc2c9f70ea8aa1c60ad06503" target="_top" xlink:title="This is the main &quot;driver&quot; for the physics part of SPEC.">
<polygon fill="white" stroke="black" points="155.5,-343.5 155.5,-362.5 193.5,-362.5 193.5,-343.5 155.5,-343.5"/>
<text text-anchor="middle" x="174.5" y="-350.5" font-family="Helvetica,sans-Serif" font-size="10.00">spec</text>
</a>
</g>
</g>
<!-- Node3&#45;&gt;Node7 -->
<g id="edge38" class="edge">
<title>Node3&#45;&gt;Node7</title>
<path fill="none" stroke="midnightblue" d="M525.95,-265.43C508.34,-274.28 485.49,-286.1 464,-294 366.19,-329.96 240.03,-340.39 193.64,-347.74"/>
<polygon fill="midnightblue" stroke="midnightblue" points="527.75,-268.45 535.16,-260.87 524.64,-262.18 527.75,-268.45"/>
</g>
<!-- Node10 -->
<g id="node10" class="node">
<title>Node10</title>
<g id="a_node10"><a xlink:href="group__grp__force__driver.html#gabbc245b3884ee8d8d3e2a52f25149f78" target="_top" xlink:title="Objective to be given to the Newton solver, using only function values.">
<polygon fill="white" stroke="black" points="384,-217.5 384,-236.5 419,-236.5 419,-217.5 384,-217.5"/>
<text text-anchor="middle" x="401.5" y="-224.5" font-family="Helvetica,sans-Serif" font-size="10.00">fcn1</text>
</a>
</g>
</g>
<!-- Node3&#45;&gt;Node10 -->
<g id="edge15" class="edge">
<title>Node3&#45;&gt;Node10</title>
<path fill="none" stroke="midnightblue" d="M525.22,-249.31C493.12,-243.48 444.41,-234.62 419.09,-230.02"/>
<polygon fill="midnightblue" stroke="midnightblue" points="524.95,-252.82 535.41,-251.17 526.2,-245.93 524.95,-252.82"/>
</g>
<!-- Node11 -->
<g id="node11" class="node">
<title>Node11</title>
<g id="a_node11"><a xlink:href="group__grp__force__driver.html#gaec14f81fbdbedafbc4189489ec8ae178" target="_top" xlink:title="Employs Newton method to find , where &#160;and &#160;is defined in dforce() .">
<polygon fill="white" stroke="black" points="255,-227.5 255,-246.5 303,-246.5 303,-227.5 255,-227.5"/>
<text text-anchor="middle" x="279" y="-234.5" font-family="Helvetica,sans-Serif" font-size="10.00">newton</text>
</a>
</g>
</g>
<!-- Node3&#45;&gt;Node11 -->
<g id="edge33" class="edge">
<title>Node3&#45;&gt;Node11</title>
<path fill="none" stroke="midnightblue" d="M525.15,-261.23C482.49,-268.59 404.02,-278.17 339,-264 323.59,-260.64 307.39,-252.88 295.87,-246.54"/>
<polygon fill="midnightblue" stroke="midnightblue" points="525.97,-264.64 535.2,-259.42 524.73,-257.75 525.97,-264.64"/>
</g>
<!-- Node12 -->
<g id="node12" class="node">
<title>Node12</title>
<g id="a_node12"><a xlink:href="group__grp__force__driver.html#ga8ccd6c7d901872702521d0a0edf95412" target="_top" xlink:title="Objective to be given to the Newton solver, using function values and derivatives.">
<polygon fill="white" stroke="black" points="29.5,-241.5 29.5,-260.5 64.5,-260.5 64.5,-241.5 29.5,-241.5"/>
<text text-anchor="middle" x="47" y="-248.5" font-family="Helvetica,sans-Serif" font-size="10.00">fcn2</text>
</a>
</g>
</g>
<!-- Node3&#45;&gt;Node12 -->
<g id="edge27" class="edge">
<title>Node3&#45;&gt;Node12</title>
<path fill="none" stroke="midnightblue" d="M534.28,-239.93C516.24,-228.64 489.66,-214.14 464,-208 319.64,-173.43 274.14,-172.5 130,-208 103.93,-214.42 76.98,-230.76 61.39,-241.35"/>
<polygon fill="midnightblue" stroke="midnightblue" points="532.59,-243 542.89,-245.47 536.38,-237.11 532.59,-243"/>
</g>
<!-- Node3&#45;&gt;Node14 -->
<g id="edge28" class="edge">
<title>Node3&#45;&gt;Node14</title>
<path fill="none" stroke="midnightblue" d="M549.12,-236.07C536.37,-205.8 507.32,-146.59 464,-114 458.82,-110.1 452.83,-107 446.66,-104.52"/>
<polygon fill="midnightblue" stroke="midnightblue" points="545.94,-237.54 552.95,-245.48 552.43,-234.9 545.94,-237.54"/>
</g>
<!-- Node15 -->
<g id="node15" class="node">
<title>Node15</title>
<g id="a_node15"><a xlink:href="group__grp__output.html#ga7401b50ec10c6598ee4a8112717a63ec" target="_top" xlink:title="Computes eigenvalues and eigenvectors of derivative matrix, &#160;and saves them to .ext....">
<polygon fill="white" stroke="black" points="256.5,-293.5 256.5,-312.5 301.5,-312.5 301.5,-293.5 256.5,-293.5"/>
<text text-anchor="middle" x="279" y="-300.5" font-family="Helvetica,sans-Serif" font-size="10.00">hesian</text>
</a>
</g>
</g>
<!-- Node3&#45;&gt;Node15 -->
<g id="edge30" class="edge">
<title>Node3&#45;&gt;Node15</title>
<path fill="none" stroke="midnightblue" d="M525.81,-264.92C507.94,-270.37 484.88,-276.84 464,-281 405.94,-292.56 336.29,-298.87 301.7,-301.5"/>
<polygon fill="midnightblue" stroke="midnightblue" points="526.9,-268.24 535.42,-261.94 524.83,-261.56 526.9,-268.24"/>
</g>
<!-- Node16 -->
<g id="node16" class="node">
<title>Node16</title>
<g id="a_node16"><a xlink:href="group__grp__conjugate__gradient.html#ga4d8415226e62a9fdb42b0fd0b464251e" target="_top" xlink:title="Returns the energy functional and it&#39;s derivatives with respect to geometry.">
<polygon fill="white" stroke="black" points="377.5,-123.5 377.5,-142.5 425.5,-142.5 425.5,-123.5 377.5,-123.5"/>
<text text-anchor="middle" x="401.5" y="-130.5" font-family="Helvetica,sans-Serif" font-size="10.00">pc00ab</text>
</a>
</g>
</g>
<!-- Node3&#45;&gt;Node16 -->
<g id="edge34" class="edge">
<title>Node3&#45;&gt;Node16</title>
<path fill="none" stroke="midnightblue" d="M538.74,-238.56C520.48,-221.93 490.99,-195.78 464,-175 448.63,-163.17 430.16,-150.78 417.5,-142.55"/>
<polygon fill="midnightblue" stroke="midnightblue" points="536.55,-241.31 546.28,-245.48 541.28,-236.15 536.55,-241.31"/>
</g>
<!-- Node5 -->
<g id="node5" class="node">
<title>Node5</title>
<g id="a_node5"><a xlink:href="xspech_8f90.html#a9fdc71dffd7c61ee4588a3f80d3ab9ce" target="_top" xlink:title="Main subroutine of SPEC.">
<polygon fill="white" stroke="black" points="255.5,-405.5 255.5,-424.5 302.5,-424.5 302.5,-405.5 255.5,-405.5"/>
<text text-anchor="middle" x="279" y="-412.5" font-family="Helvetica,sans-Serif" font-size="10.00">xspech</text>
</a>
</g>
</g>
<!-- Node4&#45;&gt;Node5 -->
<g id="edge4" class="edge">
<title>Node4&#45;&gt;Node5</title>
<path fill="none" stroke="midnightblue" d="M334.45,-415C323.06,-415 311.95,-415 302.77,-415"/>
<polygon fill="midnightblue" stroke="midnightblue" points="334.48,-418.5 344.48,-415 334.48,-411.5 334.48,-418.5"/>
</g>
<!-- Node5&#45;&gt;Node5 -->
<g id="edge13" class="edge">
<title>Node5&#45;&gt;Node5</title>
<path fill="none" stroke="midnightblue" d="M298.26,-434.4C296.97,-439.31 290.55,-443 279,-443 260.52,-443 255.17,-433.57 262.97,-424.76"/>
<polygon fill="midnightblue" stroke="midnightblue" points="301.52,-433.13 295.03,-424.76 294.89,-435.35 301.52,-433.13"/>
</g>
<!-- Node6 -->
<g id="node6" class="node">
<title>Node6</title>
<g id="a_node6"><a xlink:href="xspech_8f90.html#a1451823a7b97101a797de616250752c1" target="_top" xlink:title="Final diagnostics.">
<polygon fill="white" stroke="black" points="130,-457.5 130,-476.5 219,-476.5 219,-457.5 130,-457.5"/>
<text text-anchor="middle" x="174.5" y="-464.5" font-family="Helvetica,sans-Serif" font-size="10.00">final_diagnostics</text>
</a>
</g>
</g>
<!-- Node5&#45;&gt;Node6 -->
<g id="edge5" class="edge">
<title>Node5&#45;&gt;Node6</title>
<path fill="none" stroke="midnightblue" d="M245.91,-424.97C225.34,-434.42 199.97,-447.96 185.99,-457.39"/>
<polygon fill="midnightblue" stroke="midnightblue" points="247.53,-428.08 255.25,-420.82 244.69,-421.68 247.53,-428.08"/>
</g>
<!-- Node5&#45;&gt;Node7 -->
<g id="edge7" class="edge">
<title>Node5&#45;&gt;Node7</title>
<path fill="none" stroke="midnightblue" d="M265.88,-397.98C254.31,-386.65 236.15,-372.84 219,-363 210.99,-358.41 201.67,-354.2 193.71,-351.67"/>
<polygon fill="midnightblue" stroke="midnightblue" points="263.36,-400.42 272.74,-405.35 268.48,-395.65 263.36,-400.42"/>
</g>
<!-- Node9 -->
<g id="node9" class="node">
<title>Node9</title>
<g id="a_node9"><a xlink:href="xspech_8f90.html#a95271e8805067f801b5d4e524d6901d4" target="_top" xlink:title="Main program of SPEC.">
<polygon fill="white" stroke="black" points="142.5,-381.5 142.5,-400.5 206.5,-400.5 206.5,-381.5 142.5,-381.5"/>
<text text-anchor="middle" x="174.5" y="-388.5" font-family="Helvetica,sans-Serif" font-size="10.00">spec_main</text>
</a>
</g>
</g>
<!-- Node5&#45;&gt;Node9 -->
<g id="edge12" class="edge">
<title>Node5&#45;&gt;Node9</title>
<path fill="none" stroke="midnightblue" d="M245.34,-407.35C232.98,-404.46 218.96,-401.18 206.74,-398.31"/>
<polygon fill="midnightblue" stroke="midnightblue" points="244.72,-410.8 255.25,-409.67 246.31,-403.99 244.72,-410.8"/>
</g>
<!-- Node6&#45;&gt;Node5 -->
<g id="edge6" class="edge">
<title>Node6&#45;&gt;Node5</title>
<path fill="none" stroke="midnightblue" d="M215.88,-453.13C234.56,-444.13 255.25,-432.86 267.42,-424.68"/>
<polygon fill="midnightblue" stroke="midnightblue" points="214.2,-450.05 206.64,-457.47 217.18,-456.39 214.2,-450.05"/>
</g>
<!-- Node7&#45;&gt;Node3 -->
<g id="edge8" class="edge">
<title>Node7&#45;&gt;Node3</title>
<path fill="none" stroke="midnightblue" d="M203.91,-356.71C256.66,-356.89 372.69,-345.57 464,-312 497.28,-299.76 533.82,-278.13 549.12,-264.62"/>
<polygon fill="midnightblue" stroke="midnightblue" points="203.71,-353.2 193.64,-356.5 203.57,-360.2 203.71,-353.2"/>
</g>
<!-- Node7&#45;&gt;Node5 -->
<g id="edge11" class="edge">
<title>Node7&#45;&gt;Node5</title>
<path fill="none" stroke="midnightblue" d="M192.73,-367.66C200.9,-371.85 210.67,-376.22 219,-381 231.86,-388.38 245.29,-397.99 256.08,-405.4"/>
<polygon fill="midnightblue" stroke="midnightblue" points="194.21,-364.47 183.77,-362.63 190.78,-370.58 194.21,-364.47"/>
</g>
<!-- Node8 -->
<g id="node8" class="node">
<title>Node8</title>
<g id="a_node8"><a xlink:href="group__grp__output.html#ga0f962c09cd5d5eba99f1cba043cb3898" target="_top" xlink:title="Initialize the interface to the HDF5 library and open the output file.">
<polygon fill="white" stroke="black" points="0,-381.5 0,-400.5 94,-400.5 94,-381.5 0,-381.5"/>
<text text-anchor="middle" x="47" y="-388.5" font-family="Helvetica,sans-Serif" font-size="10.00">sphdf5::init_outfile</text>
</a>
</g>
</g>
<!-- Node7&#45;&gt;Node8 -->
<g id="edge9" class="edge">
<title>Node7&#45;&gt;Node8</title>
<path fill="none" stroke="midnightblue" d="M145.67,-361.43C126.05,-367.37 99.76,-375.33 79.39,-381.49"/>
<polygon fill="midnightblue" stroke="midnightblue" points="146.69,-364.77 155.25,-358.53 144.67,-358.07 146.69,-364.77"/>
</g>
<!-- Node8&#45;&gt;Node5 -->
<g id="edge10" class="edge">
<title>Node8&#45;&gt;Node5</title>
<path fill="none" stroke="midnightblue" d="M92.33,-402.92C104.46,-405.73 117.66,-408.38 130,-410 174.1,-415.8 226.18,-416.04 255.32,-415.59"/>
<polygon fill="midnightblue" stroke="midnightblue" points="92.98,-399.48 82.44,-400.55 91.34,-406.29 92.98,-399.48"/>
</g>
<!-- Node10&#45;&gt;Node10 -->
<g id="edge16" class="edge">
<title>Node10&#45;&gt;Node10</title>
<path fill="none" stroke="midnightblue" d="M424.37,-244.14C424.68,-250.14 417.06,-255 401.5,-255 378.86,-255 373.03,-244.72 383.99,-235.6"/>
<polygon fill="midnightblue" stroke="midnightblue" points="427.29,-242.21 419.01,-235.6 421.36,-245.93 427.29,-242.21"/>
</g>
<!-- Node10&#45;&gt;Node11 -->
<g id="edge17" class="edge">
<title>Node10&#45;&gt;Node11</title>
<path fill="none" stroke="midnightblue" d="M373.51,-223.5C352.38,-223.82 323.31,-226.32 303.22,-229.62"/>
<polygon fill="midnightblue" stroke="midnightblue" points="373.73,-227 383.74,-223.55 373.76,-220 373.73,-227"/>
</g>
<!-- Node11&#45;&gt;Node7 -->
<g id="edge23" class="edge">
<title>Node11&#45;&gt;Node7</title>
<path fill="none" stroke="midnightblue" d="M262.55,-254.49C240.6,-279.33 201.15,-323.97 183.93,-343.46"/>
<polygon fill="midnightblue" stroke="midnightblue" points="265.26,-256.7 269.26,-246.89 260.02,-252.07 265.26,-256.7"/>
</g>
<!-- Node11&#45;&gt;Node10 -->
<g id="edge18" class="edge">
<title>Node11&#45;&gt;Node10</title>
<path fill="none" stroke="midnightblue" d="M313.52,-240.34C336.37,-239.59 365.66,-236.74 383.74,-233.24"/>
<polygon fill="midnightblue" stroke="midnightblue" points="313.15,-236.85 303.22,-240.53 313.28,-243.84 313.15,-236.85"/>
</g>
<!-- Node11&#45;&gt;Node11 -->
<g id="edge22" class="edge">
<title>Node11&#45;&gt;Node11</title>
<path fill="none" stroke="midnightblue" d="M298.26,-256.4C296.97,-261.31 290.55,-265 279,-265 260.52,-265 255.17,-255.57 262.97,-246.76"/>
<polygon fill="midnightblue" stroke="midnightblue" points="301.52,-255.13 295.03,-246.76 294.89,-257.35 301.52,-255.13"/>
</g>
<!-- Node11&#45;&gt;Node12 -->
<g id="edge19" class="edge">
<title>Node11&#45;&gt;Node12</title>
<path fill="none" stroke="midnightblue" d="M244.66,-234.1C236.3,-235.07 227.34,-236.24 219,-237 162.5,-242.12 95.12,-242.38 64.55,-245.92"/>
<polygon fill="midnightblue" stroke="midnightblue" points="245.25,-237.55 254.82,-233.02 244.51,-230.59 245.25,-237.55"/>
</g>
<!-- Node13 -->
<g id="node13" class="node">
<title>Node13</title>
<g id="a_node13"><a xlink:href="group__grp__output.html#ga382822b303cbf8c56d6f54dcb379caf2" target="_top" xlink:title="read or write force&#45;derivative matrix .ext.sp.DF">
<polygon fill="white" stroke="black" points="142,-217.5 142,-236.5 207,-236.5 207,-217.5 142,-217.5"/>
<text text-anchor="middle" x="174.5" y="-224.5" font-family="Helvetica,sans-Serif" font-size="10.00">writereadgf</text>
</a>
</g>
</g>
<!-- Node11&#45;&gt;Node13 -->
<g id="edge24" class="edge">
<title>Node11&#45;&gt;Node13</title>
<path fill="none" stroke="midnightblue" d="M244.89,-227.41C232.86,-225.7 219.29,-224.39 207.36,-223.81"/>
<polygon fill="midnightblue" stroke="midnightblue" points="244.57,-230.9 255,-229.02 245.67,-223.99 244.57,-230.9"/>
</g>
<!-- Node12&#45;&gt;Node11 -->
<g id="edge21" class="edge">
<title>Node12&#45;&gt;Node11</title>
<path fill="none" stroke="midnightblue" d="M74.51,-257.48C108.18,-260.28 168.02,-259.62 219,-255 234.89,-253.56 253.01,-250.6 264.93,-246.5"/>
<polygon fill="midnightblue" stroke="midnightblue" points="74.85,-254 64.55,-256.45 74.13,-260.96 74.85,-254"/>
</g>
<!-- Node12&#45;&gt;Node12 -->
<g id="edge20" class="edge">
<title>Node12&#45;&gt;Node12</title>
<path fill="none" stroke="midnightblue" d="M70.55,-267.53C71.46,-273.81 63.61,-279 47,-279 23.38,-279 17.47,-268.5 29.28,-259.31"/>
<polygon fill="midnightblue" stroke="midnightblue" points="73.36,-265.44 64.72,-259.31 67.65,-269.49 73.36,-265.44"/>
</g>
<!-- Node13&#45;&gt;Node11 -->
<g id="edge26" class="edge">
<title>Node13&#45;&gt;Node11</title>
<path fill="none" stroke="midnightblue" d="M217.42,-237.74C230.26,-239.27 243.91,-240.3 255,-240.5"/>
<polygon fill="midnightblue" stroke="midnightblue" points="217.74,-234.25 207.36,-236.41 216.82,-241.19 217.74,-234.25"/>
</g>
<!-- Node13&#45;&gt;Node12 -->
<g id="edge25" class="edge">
<title>Node13&#45;&gt;Node12</title>
<path fill="none" stroke="midnightblue" d="M131.96,-234.94C108.99,-239.34 81.73,-244.55 64.64,-247.82"/>
<polygon fill="midnightblue" stroke="midnightblue" points="132.67,-238.37 141.83,-233.06 131.35,-231.5 132.67,-238.37"/>
</g>
<!-- Node14&#45;&gt;Node2 -->
<g id="edge29" class="edge">
<title>Node14&#45;&gt;Node2</title>
<path fill="none" stroke="midnightblue" d="M474.42,-96.76C515.86,-93.51 568.74,-86.53 615,-76 632.98,-71.91 653.31,-64.6 664.49,-57.51"/>
<polygon fill="midnightblue" stroke="midnightblue" points="474.13,-93.28 464.41,-97.49 474.64,-100.26 474.13,-93.28"/>
</g>
<!-- Node15&#45;&gt;Node7 -->
<g id="edge32" class="edge">
<title>Node15&#45;&gt;Node7</title>
<path fill="none" stroke="midnightblue" d="M248.92,-317.19C231.21,-325.83 209.12,-336.6 193.82,-344.06"/>
<polygon fill="midnightblue" stroke="midnightblue" points="250.78,-320.17 258.24,-312.64 247.71,-313.88 250.78,-320.17"/>
</g>
<!-- Node15&#45;&gt;Node15 -->
<g id="edge31" class="edge">
<title>Node15&#45;&gt;Node15</title>
<path fill="none" stroke="midnightblue" d="M298.26,-322.4C296.97,-327.31 290.55,-331 279,-331 260.52,-331 255.17,-321.57 262.97,-312.76"/>
<polygon fill="midnightblue" stroke="midnightblue" points="301.52,-321.13 295.03,-312.76 294.89,-323.35 301.52,-321.13"/>
</g>
<!-- Node16&#45;&gt;Node16 -->
<g id="edge37" class="edge">
<title>Node16&#45;&gt;Node16</title>
<path fill="none" stroke="midnightblue" d="M424.19,-152.03C422.96,-157.13 415.39,-161 401.5,-161 379.82,-161 373.55,-151.57 382.7,-142.76"/>
<polygon fill="midnightblue" stroke="midnightblue" points="427.4,-150.62 420.3,-142.76 420.94,-153.33 427.4,-150.62"/>
</g>
<!-- Node17 -->
<g id="node17" class="node">
<title>Node17</title>
<g id="a_node17"><a xlink:href="group__grp__conjugate__gradient.html#ga25a3bae2ff2ee0469b045de0d033398b" target="_top" xlink:title="Use preconditioned conjugate gradient method to find minimum of energy functional.">
<polygon fill="white" stroke="black" points="255,-123.5 255,-142.5 303,-142.5 303,-123.5 255,-123.5"/>
<text text-anchor="middle" x="279" y="-130.5" font-family="Helvetica,sans-Serif" font-size="10.00">pc00aa</text>
</a>
</g>
</g>
<!-- Node16&#45;&gt;Node17 -->
<g id="edge35" class="edge">
<title>Node16&#45;&gt;Node17</title>
<path fill="none" stroke="midnightblue" d="M367.16,-133C346.81,-133 321.31,-133 303.16,-133"/>
<polygon fill="midnightblue" stroke="midnightblue" points="367.27,-136.5 377.27,-133 367.27,-129.5 367.27,-136.5"/>
</g>
<!-- Node17&#45;&gt;Node17 -->
<g id="edge36" class="edge">
<title>Node17&#45;&gt;Node17</title>
<path fill="none" stroke="midnightblue" d="M298.26,-152.4C296.97,-157.31 290.55,-161 279,-161 260.52,-161 255.17,-151.57 262.97,-142.76"/>
<polygon fill="midnightblue" stroke="midnightblue" points="301.52,-151.13 295.03,-142.76 294.89,-153.35 301.52,-151.13"/>
</g>
<!-- Node18&#45;&gt;Node2 -->
<g id="edge42" class="edge">
<title>Node18&#45;&gt;Node2</title>
<path fill="none" stroke="midnightblue" d="M615.27,-54.75C627.95,-54.76 640.67,-54.33 650.92,-53.46"/>
<polygon fill="midnightblue" stroke="midnightblue" points="615.19,-51.25 605.15,-54.65 615.12,-58.25 615.19,-51.25"/>
</g>
<!-- Node19&#45;&gt;Node2 -->
<g id="edge45" class="edge">
<title>Node19&#45;&gt;Node2</title>
<path fill="none" stroke="midnightblue" d="M582.66,-23.65C602.83,-31.89 631.35,-41.3 650.92,-46.13"/>
<polygon fill="midnightblue" stroke="midnightblue" points="583.8,-20.33 573.23,-19.59 581.04,-26.76 583.8,-20.33"/>
</g>
</g>
</svg>
