<?xml version="1.0" encoding="UTF-8" standalone="no"?>
<!DOCTYPE svg PUBLIC "-//W3C//DTD SVG 1.1//EN"
 "http://www.w3.org/Graphics/SVG/1.1/DTD/svg11.dtd">
<!-- Generated by graphviz version 2.47.1 (20210421.1823)
 -->
<!-- Title: get_lu_beltrami_matrices Pages: 1 -->
<svg width="831pt" height="244pt"
 viewBox="0.00 0.00 831.00 243.66" xmlns="http://www.w3.org/2000/svg" xmlns:xlink="http://www.w3.org/1999/xlink">
<g id="graph0" class="graph" transform="scale(1 1) rotate(0) translate(4 239.66)">
<title>get_lu_beltrami_matrices</title>
<polygon fill="white" stroke="transparent" points="-4,4 -4,-239.66 827,-239.66 827,4 -4,4"/>
<!-- Node1 -->
<g id="node1" class="node">
<title>Node1</title>
<g id="a_node1"><a xlink:title="get LU Beltrami matrices">
<polygon fill="#bfbfbf" stroke="black" points="698,-47.5 698,-66.5 823,-66.5 823,-47.5 698,-47.5"/>
<text text-anchor="middle" x="760.5" y="-54.5" font-family="Helvetica,sans-Serif" font-size="10.00">get_lu_beltrami_matrices</text>
</a>
</g>
</g>
<!-- Node2 -->
<g id="node2" class="node">
<title>Node2</title>
<g id="a_node2"><a xlink:href="dfp200_8f90.html#a55ea75395f8c71731451e1add3720c7e" target="_top" xlink:title="Given the field consistent with the constraints and the geometry, computes local quantites related to...">
<polygon fill="white" stroke="black" points="616,-47.5 616,-66.5 662,-66.5 662,-47.5 616,-47.5"/>
<text text-anchor="middle" x="639" y="-54.5" font-family="Helvetica,sans-Serif" font-size="10.00">dfp200</text>
</a>
</g>
</g>
<!-- Node1&#45;&gt;Node2 -->
<g id="edge1" class="edge">
<title>Node1&#45;&gt;Node2</title>
<path fill="none" stroke="midnightblue" d="M687.86,-50.37C678.62,-50.56 669.77,-50.97 662.25,-51.61"/>
<polygon fill="midnightblue" stroke="midnightblue" points="688.04,-53.87 698,-50.25 687.96,-46.87 688.04,-53.87"/>
</g>
<!-- Node2&#45;&gt;Node1 -->
<g id="edge29" class="edge">
<title>Node2&#45;&gt;Node1</title>
<path fill="none" stroke="midnightblue" d="M672.23,-63.07C680.24,-63.49 689.09,-63.72 698,-63.75"/>
<polygon fill="midnightblue" stroke="midnightblue" points="672.46,-59.58 662.25,-62.39 671.99,-66.56 672.46,-59.58"/>
</g>
<!-- Node3 -->
<g id="node3" class="node">
<title>Node3</title>
<g id="a_node3"><a xlink:href="group__grp__global__force.html#ga38c9d3c50bd043707fefa5137c9dbf44" target="_top" xlink:title="Calculates , where &#160;and , and .">
<polygon fill="white" stroke="black" points="500.5,-114.5 500.5,-133.5 544.5,-133.5 544.5,-114.5 500.5,-114.5"/>
<text text-anchor="middle" x="522.5" y="-121.5" font-family="Helvetica,sans-Serif" font-size="10.00">dforce</text>
</a>
</g>
</g>
<!-- Node2&#45;&gt;Node3 -->
<g id="edge2" class="edge">
<title>Node2&#45;&gt;Node3</title>
<path fill="none" stroke="midnightblue" d="M621.04,-73.9C610.09,-84.06 595.11,-96.59 580,-105 568.97,-111.14 555.62,-115.74 544.67,-118.88"/>
<polygon fill="midnightblue" stroke="midnightblue" points="623.75,-76.15 628.56,-66.71 618.92,-71.09 623.75,-76.15"/>
</g>
<!-- Node15 -->
<g id="node15" class="node">
<title>Node15</title>
<g id="a_node15"><a xlink:href="dfp200_8f90.html#a7b64c7392b45d0042d8bd7379c0761a5" target="_top" xlink:title="Evaluate the derivative of the square of the magnetic field modulus. Add spectral constraint derivati...">
<polygon fill="white" stroke="black" points="485.5,-76.5 485.5,-95.5 559.5,-95.5 559.5,-76.5 485.5,-76.5"/>
<text text-anchor="middle" x="522.5" y="-83.5" font-family="Helvetica,sans-Serif" font-size="10.00">evaluate_dbb</text>
</a>
</g>
</g>
<!-- Node2&#45;&gt;Node15 -->
<g id="edge25" class="edge">
<title>Node2&#45;&gt;Node15</title>
<path fill="none" stroke="midnightblue" d="M605.89,-59C585.02,-63.19 558.59,-70.25 541.37,-76.41"/>
<polygon fill="midnightblue" stroke="midnightblue" points="606.73,-62.4 615.92,-57.13 605.45,-55.52 606.73,-62.4"/>
</g>
<!-- Node16 -->
<g id="node16" class="node">
<title>Node16</title>
<g id="a_node16"><a xlink:href="dfp200_8f90.html#a73ddf39ecc5228201fb643779e17cd36" target="_top" xlink:title="Evaluate mu and psip derivatives and store them in dmupfdx.">
<polygon fill="white" stroke="black" points="475,-38.5 475,-57.5 570,-57.5 570,-38.5 475,-38.5"/>
<text text-anchor="middle" x="522.5" y="-45.5" font-family="Helvetica,sans-Serif" font-size="10.00">evaluate_dmupfdx</text>
</a>
</g>
</g>
<!-- Node2&#45;&gt;Node16 -->
<g id="edge27" class="edge">
<title>Node2&#45;&gt;Node16</title>
<path fill="none" stroke="midnightblue" d="M605.86,-48.34C594.78,-46.89 582.15,-45.73 570.15,-45.02"/>
<polygon fill="midnightblue" stroke="midnightblue" points="605.52,-51.83 615.92,-49.81 606.53,-44.9 605.52,-51.83"/>
</g>
<!-- Node17 -->
<g id="node17" class="node">
<title>Node17</title>
<g id="a_node17"><a xlink:href="dfp200_8f90.html#a5e56f1f4b1e6df11a9cffa6237c37469" target="_top" xlink:title="This routine evaluates the value of the magnetic field once the interface is perturbed using matrix p...">
<polygon fill="white" stroke="black" points="465,-0.5 465,-19.5 580,-19.5 580,-0.5 465,-0.5"/>
<text text-anchor="middle" x="522.5" y="-7.5" font-family="Helvetica,sans-Serif" font-size="10.00">get_perturbed_solution</text>
</a>
</g>
</g>
<!-- Node2&#45;&gt;Node17 -->
<g id="edge30" class="edge">
<title>Node2&#45;&gt;Node17</title>
<path fill="none" stroke="midnightblue" d="M622.88,-41.64C611.31,-34.13 594.87,-26.06 580,-20 579.62,-19.84 579.23,-19.69 578.84,-19.53"/>
<polygon fill="midnightblue" stroke="midnightblue" points="620.83,-44.48 630.99,-47.49 624.92,-38.8 620.83,-44.48"/>
</g>
<!-- Node3&#45;&gt;Node1 -->
<g id="edge18" class="edge">
<title>Node3&#45;&gt;Node1</title>
<path fill="none" stroke="midnightblue" d="M554.33,-115.25C598.67,-102.66 680.13,-79.53 725.94,-66.53"/>
<polygon fill="midnightblue" stroke="midnightblue" points="553.35,-111.89 544.68,-117.99 555.26,-118.62 553.35,-111.89"/>
</g>
<!-- Node4 -->
<g id="node4" class="node">
<title>Node4</title>
<g id="a_node4"><a xlink:href="namespaceallglobal.html#a7824bc37519fe88336534ce90ab2af16" target="_top" xlink:title=" ">
<polygon fill="white" stroke="black" points="315,-190.5 315,-209.5 429,-209.5 429,-190.5 315,-190.5"/>
<text text-anchor="middle" x="372" y="-197.5" font-family="Helvetica,sans-Serif" font-size="10.00">allglobal::check_inputs</text>
</a>
</g>
</g>
<!-- Node3&#45;&gt;Node4 -->
<g id="edge3" class="edge">
<title>Node3&#45;&gt;Node4</title>
<path fill="none" stroke="midnightblue" d="M497.1,-138.67C478.67,-149.51 452.6,-164.35 429,-176 418.66,-181.1 406.97,-186.21 396.96,-190.4"/>
<polygon fill="midnightblue" stroke="midnightblue" points="498.92,-141.66 505.74,-133.55 495.35,-135.63 498.92,-141.66"/>
</g>
<!-- Node6 -->
<g id="node6" class="node">
<title>Node6</title>
<g id="a_node6"><a xlink:href="xspech_8f90.html#a48f45478dc2c9f70ea8aa1c60ad06503" target="_top" xlink:title=" ">
<polygon fill="white" stroke="black" points="143.5,-190.5 143.5,-209.5 181.5,-209.5 181.5,-190.5 143.5,-190.5"/>
<text text-anchor="middle" x="162.5" y="-197.5" font-family="Helvetica,sans-Serif" font-size="10.00">spec</text>
</a>
</g>
</g>
<!-- Node3&#45;&gt;Node6 -->
<g id="edge24" class="edge">
<title>Node3&#45;&gt;Node6</title>
<path fill="none" stroke="midnightblue" d="M510.47,-142.19C495.38,-165.12 465.91,-203.42 429,-219 342.57,-255.48 226.27,-222.16 181.81,-206.8"/>
<polygon fill="midnightblue" stroke="midnightblue" points="513.47,-144.01 515.87,-133.69 507.56,-140.26 513.47,-144.01"/>
</g>
<!-- Node8 -->
<g id="node8" class="node">
<title>Node8</title>
<g id="a_node8"><a xlink:href="group__grp__force__driver.html#gabbc245b3884ee8d8d3e2a52f25149f78" target="_top" xlink:title="fcn1">
<polygon fill="white" stroke="black" points="354.5,-76.5 354.5,-95.5 389.5,-95.5 389.5,-76.5 354.5,-76.5"/>
<text text-anchor="middle" x="372" y="-83.5" font-family="Helvetica,sans-Serif" font-size="10.00">fcn1</text>
</a>
</g>
</g>
<!-- Node3&#45;&gt;Node8 -->
<g id="edge8" class="edge">
<title>Node3&#45;&gt;Node8</title>
<path fill="none" stroke="midnightblue" d="M490.45,-116.05C459.77,-108.2 413.99,-96.49 389.64,-90.26"/>
<polygon fill="midnightblue" stroke="midnightblue" points="489.67,-119.47 500.22,-118.56 491.4,-112.69 489.67,-119.47"/>
</g>
<!-- Node9 -->
<g id="node9" class="node">
<title>Node9</title>
<g id="a_node9"><a xlink:href="group__grp__force__driver.html#gaec14f81fbdbedafbc4189489ec8ae178" target="_top" xlink:title="Employs Newton method to find , where &#160;and &#160;is defined in dforce() .">
<polygon fill="white" stroke="black" points="231,-95.5 231,-114.5 279,-114.5 279,-95.5 231,-95.5"/>
<text text-anchor="middle" x="255" y="-102.5" font-family="Helvetica,sans-Serif" font-size="10.00">newton</text>
</a>
</g>
</g>
<!-- Node3&#45;&gt;Node9 -->
<g id="edge21" class="edge">
<title>Node3&#45;&gt;Node9</title>
<path fill="none" stroke="midnightblue" d="M490.21,-121.76C436.29,-117.9 327.05,-110.08 279.26,-106.66"/>
<polygon fill="midnightblue" stroke="midnightblue" points="490,-125.25 500.22,-122.48 490.5,-118.27 490,-125.25"/>
</g>
<!-- Node10 -->
<g id="node10" class="node">
<title>Node10</title>
<g id="a_node10"><a xlink:href="group__grp__force__driver.html#ga8ccd6c7d901872702521d0a0edf95412" target="_top" xlink:title="fcn2">
<polygon fill="white" stroke="black" points="29.5,-100.5 29.5,-119.5 64.5,-119.5 64.5,-100.5 29.5,-100.5"/>
<text text-anchor="middle" x="47" y="-107.5" font-family="Helvetica,sans-Serif" font-size="10.00">fcn2</text>
</a>
</g>
</g>
<!-- Node3&#45;&gt;Node10 -->
<g id="edge17" class="edge">
<title>Node3&#45;&gt;Node10</title>
<path fill="none" stroke="midnightblue" d="M490.47,-116.56C481.83,-113.71 472.71,-109.92 465,-105 445.39,-92.48 450.37,-76.19 429,-67 306.92,-14.49 259.03,-35.22 130,-67 103.93,-73.42 76.98,-89.76 61.39,-100.35"/>
<polygon fill="midnightblue" stroke="midnightblue" points="489.7,-119.99 500.28,-119.49 491.7,-113.28 489.7,-119.99"/>
</g>
<!-- Node12 -->
<g id="node12" class="node">
<title>Node12</title>
<g id="a_node12"><a xlink:href="group__grp__diagnostics.html#ga7401b50ec10c6598ee4a8112717a63ec" target="_top" xlink:title="Computes eigenvalues and eigenvectors of derivative matrix, .">
<polygon fill="white" stroke="black" points="232.5,-152.5 232.5,-171.5 277.5,-171.5 277.5,-152.5 232.5,-152.5"/>
<text text-anchor="middle" x="255" y="-159.5" font-family="Helvetica,sans-Serif" font-size="10.00">hesian</text>
</a>
</g>
</g>
<!-- Node3&#45;&gt;Node12 -->
<g id="edge19" class="edge">
<title>Node3&#45;&gt;Node12</title>
<path fill="none" stroke="midnightblue" d="M490.1,-128.49C435.56,-136.3 324.67,-152.17 277.75,-158.89"/>
<polygon fill="midnightblue" stroke="midnightblue" points="490.82,-131.93 500.22,-127.05 489.83,-125 490.82,-131.93"/>
</g>
<!-- Node13 -->
<g id="node13" class="node">
<title>Node13</title>
<g id="a_node13"><a xlink:href="group__grp__conjugate__gradient.html#ga4d8415226e62a9fdb42b0fd0b464251e" target="_top" xlink:title="Returns the energy functional and it&#39;s derivatives with respect to geometry.">
<polygon fill="white" stroke="black" points="348,-0.5 348,-19.5 396,-19.5 396,-0.5 348,-0.5"/>
<text text-anchor="middle" x="372" y="-7.5" font-family="Helvetica,sans-Serif" font-size="10.00">pc00ab</text>
</a>
</g>
</g>
<!-- Node3&#45;&gt;Node13 -->
<g id="edge22" class="edge">
<title>Node3&#45;&gt;Node13</title>
<path fill="none" stroke="midnightblue" d="M490.59,-118.29C481.58,-115.46 472.22,-111.25 465,-105 438.24,-81.86 454.81,-58.2 429,-34 419.82,-25.39 407.07,-19.6 396.06,-15.87"/>
<polygon fill="midnightblue" stroke="midnightblue" points="489.93,-121.74 500.49,-120.94 491.74,-114.97 489.93,-121.74"/>
</g>
<!-- Node5 -->
<g id="node5" class="node">
<title>Node5</title>
<g id="a_node5"><a xlink:href="xspech_8f90.html#aea782eae089760a491c2c54f9903abcc" target="_top" xlink:title="Main program of SPEC.">
<polygon fill="white" stroke="black" points="231.5,-190.5 231.5,-209.5 278.5,-209.5 278.5,-190.5 231.5,-190.5"/>
<text text-anchor="middle" x="255" y="-197.5" font-family="Helvetica,sans-Serif" font-size="10.00">xspech</text>
</a>
</g>
</g>
<!-- Node4&#45;&gt;Node5 -->
<g id="edge4" class="edge">
<title>Node4&#45;&gt;Node5</title>
<path fill="none" stroke="midnightblue" d="M304.61,-200C295.24,-200 286.2,-200 278.51,-200"/>
<polygon fill="midnightblue" stroke="midnightblue" points="304.85,-203.5 314.85,-200 304.85,-196.5 304.85,-203.5"/>
</g>
<!-- Node5&#45;&gt;Node6 -->
<g id="edge5" class="edge">
<title>Node5&#45;&gt;Node6</title>
<path fill="none" stroke="midnightblue" d="M220.97,-193.47C207.75,-192.98 193.01,-193.31 181.77,-194.46"/>
<polygon fill="midnightblue" stroke="midnightblue" points="220.98,-196.98 231.16,-194.05 221.38,-189.99 220.98,-196.98"/>
</g>
<!-- Node6&#45;&gt;Node5 -->
<g id="edge7" class="edge">
<title>Node6&#45;&gt;Node5</title>
<path fill="none" stroke="midnightblue" d="M191.82,-206.31C204.48,-207 219.22,-206.88 231.16,-205.95"/>
<polygon fill="midnightblue" stroke="midnightblue" points="192.01,-202.82 181.77,-205.54 191.48,-209.8 192.01,-202.82"/>
</g>
<!-- Node7 -->
<g id="node7" class="node">
<title>Node7</title>
<g id="a_node7"><a xlink:href="sphdf5_8f90.html#a0f962c09cd5d5eba99f1cba043cb3898" target="_top" xlink:title="initialize the interface to the HDF5 library and open the output file">
<polygon fill="white" stroke="black" points="0,-190.5 0,-209.5 94,-209.5 94,-190.5 0,-190.5"/>
<text text-anchor="middle" x="47" y="-197.5" font-family="Helvetica,sans-Serif" font-size="10.00">sphdf5::init_outfile</text>
</a>
</g>
</g>
<!-- Node6&#45;&gt;Node7 -->
<g id="edge6" class="edge">
<title>Node6&#45;&gt;Node7</title>
<path fill="none" stroke="midnightblue" d="M133.13,-200C121.33,-200 107.32,-200 94.11,-200"/>
<polygon fill="midnightblue" stroke="midnightblue" points="133.26,-203.5 143.26,-200 133.26,-196.5 133.26,-203.5"/>
</g>
<!-- Node8&#45;&gt;Node9 -->
<g id="edge9" class="edge">
<title>Node8&#45;&gt;Node9</title>
<path fill="none" stroke="midnightblue" d="M343.92,-84.65C324.32,-86.57 298.11,-90.99 279.42,-95.57"/>
<polygon fill="midnightblue" stroke="midnightblue" points="344.34,-88.12 354.03,-83.85 343.79,-81.15 344.34,-88.12"/>
</g>
<!-- Node9&#45;&gt;Node6 -->
<g id="edge13" class="edge">
<title>Node9&#45;&gt;Node6</title>
<path fill="none" stroke="midnightblue" d="M237.52,-122.3C218.49,-142.28 187.86,-174.43 172.66,-190.39"/>
<polygon fill="midnightblue" stroke="midnightblue" points="240.29,-124.46 244.66,-114.81 235.22,-119.64 240.29,-124.46"/>
</g>
<!-- Node9&#45;&gt;Node8 -->
<g id="edge10" class="edge">
<title>Node9&#45;&gt;Node8</title>
<path fill="none" stroke="midnightblue" d="M289.62,-105.65C310.76,-103.18 337.14,-98.41 354.03,-93.76"/>
<polygon fill="midnightblue" stroke="midnightblue" points="289.01,-102.19 279.42,-106.69 289.72,-109.16 289.01,-102.19"/>
</g>
<!-- Node9&#45;&gt;Node10 -->
<g id="edge11" class="edge">
<title>Node9&#45;&gt;Node10</title>
<path fill="none" stroke="midnightblue" d="M220.71,-100.68C176.07,-99.25 98.52,-101.54 64.64,-105.71"/>
<polygon fill="midnightblue" stroke="midnightblue" points="220.63,-104.18 230.77,-101.1 220.92,-97.19 220.63,-104.18"/>
</g>
<!-- Node11 -->
<g id="node11" class="node">
<title>Node11</title>
<g id="a_node11"><a xlink:href="group__grp__force__driver.html#ga382822b303cbf8c56d6f54dcb379caf2" target="_top" xlink:title="read or write force&#45;derivative matrix">
<polygon fill="white" stroke="black" points="130,-76.5 130,-95.5 195,-95.5 195,-76.5 130,-76.5"/>
<text text-anchor="middle" x="162.5" y="-83.5" font-family="Helvetica,sans-Serif" font-size="10.00">writereadgf</text>
</a>
</g>
</g>
<!-- Node9&#45;&gt;Node11 -->
<g id="edge14" class="edge">
<title>Node9&#45;&gt;Node11</title>
<path fill="none" stroke="midnightblue" d="M225.35,-92.66C215.71,-90.12 204.91,-87.81 195.06,-86.16"/>
<polygon fill="midnightblue" stroke="midnightblue" points="224.67,-96.1 235.25,-95.47 226.59,-89.37 224.67,-96.1"/>
</g>
<!-- Node10&#45;&gt;Node9 -->
<g id="edge12" class="edge">
<title>Node10&#45;&gt;Node9</title>
<path fill="none" stroke="midnightblue" d="M74.89,-114.08C115.62,-115.87 192.31,-113.92 230.77,-110.03"/>
<polygon fill="midnightblue" stroke="midnightblue" points="74.83,-110.57 64.64,-113.49 74.43,-117.56 74.83,-110.57"/>
</g>
<!-- Node11&#45;&gt;Node9 -->
<g id="edge16" class="edge">
<title>Node11&#45;&gt;Node9</title>
<path fill="none" stroke="midnightblue" d="M192.06,-98.32C204.51,-101.6 218.91,-104.51 230.69,-106.1"/>
<polygon fill="midnightblue" stroke="midnightblue" points="192.75,-94.88 182.17,-95.5 190.83,-101.61 192.75,-94.88"/>
</g>
<!-- Node11&#45;&gt;Node10 -->
<g id="edge15" class="edge">
<title>Node11&#45;&gt;Node10</title>
<path fill="none" stroke="midnightblue" d="M119.88,-94.8C100.78,-98.84 79.22,-103.4 64.73,-106.46"/>
<polygon fill="midnightblue" stroke="midnightblue" points="120.82,-98.18 129.88,-92.69 119.38,-91.33 120.82,-98.18"/>
</g>
<!-- Node12&#45;&gt;Node6 -->
<g id="edge20" class="edge">
<title>Node12&#45;&gt;Node6</title>
<path fill="none" stroke="midnightblue" d="M222.53,-175.22C208.83,-180.97 193.26,-187.5 181.56,-192.42"/>
<polygon fill="midnightblue" stroke="midnightblue" points="224.23,-178.3 232.09,-171.2 221.52,-171.84 224.23,-178.3"/>
</g>
<!-- Node14 -->
<g id="node14" class="node">
<title>Node14</title>
<g id="a_node14"><a xlink:href="group__grp__conjugate__gradient.html#ga25a3bae2ff2ee0469b045de0d033398b" target="_top" xlink:title="Use preconditioned conjugate gradient method to find minimum of energy functional.">
<polygon fill="white" stroke="black" points="231,-0.5 231,-19.5 279,-19.5 279,-0.5 231,-0.5"/>
<text text-anchor="middle" x="255" y="-7.5" font-family="Helvetica,sans-Serif" font-size="10.00">pc00aa</text>
</a>
</g>
</g>
<!-- Node13&#45;&gt;Node14 -->
<g id="edge23" class="edge">
<title>Node13&#45;&gt;Node14</title>
<path fill="none" stroke="midnightblue" d="M337.55,-10C318.84,-10 295.99,-10 279.24,-10"/>
<polygon fill="midnightblue" stroke="midnightblue" points="337.73,-13.5 347.73,-10 337.73,-6.5 337.73,-13.5"/>
</g>
<!-- Node15&#45;&gt;Node2 -->
<g id="edge26" class="edge">
<title>Node15&#45;&gt;Node2</title>
<path fill="none" stroke="midnightblue" d="M569.91,-80.89C587.56,-76.77 606.65,-71.41 620.11,-66.59"/>
<polygon fill="midnightblue" stroke="midnightblue" points="568.73,-77.56 559.73,-83.15 570.25,-84.4 568.73,-77.56"/>
</g>
<!-- Node16&#45;&gt;Node2 -->
<g id="edge28" class="edge">
<title>Node16&#45;&gt;Node2</title>
<path fill="none" stroke="midnightblue" d="M572.89,-58.58C587.92,-59.97 603.67,-60.8 615.92,-60.72"/>
<polygon fill="midnightblue" stroke="midnightblue" points="572.97,-55.07 562.66,-57.52 572.25,-62.03 572.97,-55.07"/>
</g>
<!-- Node17&#45;&gt;Node2 -->
<g id="edge31" class="edge">
<title>Node17&#45;&gt;Node2</title>
<path fill="none" stroke="midnightblue" d="M542.79,-23.72C553.81,-28.32 567.82,-33.04 580,-38 592.11,-42.94 605.27,-49.21 615.99,-53.71"/>
<polygon fill="midnightblue" stroke="midnightblue" points="544.19,-20.52 533.64,-19.54 541.28,-26.88 544.19,-20.52"/>
</g>
</g>
</svg>
