<?xml version="1.0" encoding="UTF-8" standalone="no"?>
<!DOCTYPE svg PUBLIC "-//W3C//DTD SVG 1.1//EN"
 "http://www.w3.org/Graphics/SVG/1.1/DTD/svg11.dtd">
<!-- Generated by graphviz version 2.49.3 (20211027.1534)
 -->
<!-- Title: dfp200 Pages: 1 -->
<svg width="705pt" height="523pt"
 viewBox="0.00 0.00 705.00 523.00" xmlns="http://www.w3.org/2000/svg" xmlns:xlink="http://www.w3.org/1999/xlink">
<g id="graph0" class="graph" transform="scale(1 1) rotate(0) translate(4 519)">
<title>dfp200</title>
<polygon fill="white" stroke="transparent" points="-4,4 -4,-519 701,-519 701,4 -4,4"/>
<!-- Node1 -->
<g id="node1" class="node">
<title>Node1</title>
<g id="a_node1"><a xlink:title="Given the field consistent with the constraints and the geometry, computes local quantites related to...">
<polygon fill="#bfbfbf" stroke="black" points="651,-76.5 651,-95.5 697,-95.5 697,-76.5 651,-76.5"/>
<text text-anchor="middle" x="674" y="-83.5" font-family="Helvetica,sans-Serif" font-size="10.00">dfp200</text>
</a>
</g>
</g>
<!-- Node1&#45;&gt;Node1 -->
<g id="edge38" class="edge">
<title>Node1&#45;&gt;Node1</title>
<path fill="none" stroke="midnightblue" d="M695.48,-105.4C694.05,-110.31 686.89,-114 674,-114 653.38,-114 647.42,-104.57 656.12,-95.76"/>
<polygon fill="midnightblue" stroke="midnightblue" points="698.66,-103.9 691.88,-95.76 692.1,-106.35 698.66,-103.9"/>
</g>
<!-- Node2 -->
<g id="node2" class="node">
<title>Node2</title>
<g id="a_node2"><a xlink:href="group__grp__global__force.html#ga38c9d3c50bd043707fefa5137c9dbf44" target="_top" xlink:title="Calculates , where &#160;and , and .">
<polygon fill="white" stroke="black" points="535.5,-283.5 535.5,-302.5 579.5,-302.5 579.5,-283.5 535.5,-283.5"/>
<text text-anchor="middle" x="557.5" y="-290.5" font-family="Helvetica,sans-Serif" font-size="10.00">dforce</text>
</a>
</g>
</g>
<!-- Node1&#45;&gt;Node2 -->
<g id="edge1" class="edge">
<title>Node1&#45;&gt;Node2</title>
<path fill="none" stroke="midnightblue" d="M662.79,-104.46C639.28,-146.97 581.97,-250.57 563.99,-283.07"/>
<polygon fill="midnightblue" stroke="midnightblue" points="665.85,-106.15 667.63,-95.71 659.73,-102.76 665.85,-106.15"/>
</g>
<!-- Node13 -->
<g id="node13" class="node">
<title>Node13</title>
<g id="a_node13"><a xlink:href="dfp200_8f90.html#a6aca59cf350d7b1941f8389d50945a43" target="_top" xlink:title="get LU Beltrami matrices">
<polygon fill="white" stroke="black" points="339,-123.5 339,-142.5 464,-142.5 464,-123.5 339,-123.5"/>
<text text-anchor="middle" x="401.5" y="-130.5" font-family="Helvetica,sans-Serif" font-size="10.00">get_lu_beltrami_matrices</text>
</a>
</g>
</g>
<!-- Node1&#45;&gt;Node13 -->
<g id="edge43" class="edge">
<title>Node1&#45;&gt;Node13</title>
<path fill="none" stroke="midnightblue" d="M641.14,-88.92C632.73,-91.35 623.59,-94.04 615,-96 555.13,-109.63 484.16,-117.32 441.27,-123.48"/>
<polygon fill="midnightblue" stroke="midnightblue" points="642.29,-92.23 650.96,-86.15 640.39,-85.5 642.29,-92.23"/>
</g>
<!-- Node17 -->
<g id="node17" class="node">
<title>Node17</title>
<g id="a_node17"><a xlink:href="dfp200_8f90.html#a7b64c7392b45d0042d8bd7379c0761a5" target="_top" xlink:title="Evaluate the derivative of the square of the magnetic field modulus. Add spectral constraint derivati...">
<polygon fill="white" stroke="black" points="520.5,-76.5 520.5,-95.5 594.5,-95.5 594.5,-76.5 520.5,-76.5"/>
<text text-anchor="middle" x="557.5" y="-83.5" font-family="Helvetica,sans-Serif" font-size="10.00">evaluate_dbb</text>
</a>
</g>
</g>
<!-- Node1&#45;&gt;Node17 -->
<g id="edge39" class="edge">
<title>Node1&#45;&gt;Node17</title>
<path fill="none" stroke="midnightblue" d="M640.61,-79.85C626.37,-79.12 609.59,-79.06 594.93,-79.66"/>
<polygon fill="midnightblue" stroke="midnightblue" points="640.71,-83.37 650.92,-80.54 641.18,-76.38 640.71,-83.37"/>
</g>
<!-- Node18 -->
<g id="node18" class="node">
<title>Node18</title>
<g id="a_node18"><a xlink:href="dfp200_8f90.html#a73ddf39ecc5228201fb643779e17cd36" target="_top" xlink:title="Evaluate mu and psip derivatives and store them in dmupfdx.">
<polygon fill="white" stroke="black" points="510,-38.5 510,-57.5 605,-57.5 605,-38.5 510,-38.5"/>
<text text-anchor="middle" x="557.5" y="-45.5" font-family="Helvetica,sans-Serif" font-size="10.00">evaluate_dmupfdx</text>
</a>
</g>
</g>
<!-- Node1&#45;&gt;Node18 -->
<g id="edge41" class="edge">
<title>Node1&#45;&gt;Node18</title>
<path fill="none" stroke="midnightblue" d="M648.66,-72.28C636,-67.11 620.09,-61.5 605.17,-56.84"/>
<polygon fill="midnightblue" stroke="midnightblue" points="647.46,-75.58 658.03,-76.3 650.22,-69.14 647.46,-75.58"/>
</g>
<!-- Node19 -->
<g id="node19" class="node">
<title>Node19</title>
<g id="a_node19"><a xlink:href="dfp200_8f90.html#a5e56f1f4b1e6df11a9cffa6237c37469" target="_top" xlink:title="This routine evaluates the value of the magnetic field once the interface is perturbed using matrix p...">
<polygon fill="white" stroke="black" points="500,-0.5 500,-19.5 615,-19.5 615,-0.5 500,-0.5"/>
<text text-anchor="middle" x="557.5" y="-7.5" font-family="Helvetica,sans-Serif" font-size="10.00">get_perturbed_solution</text>
</a>
</g>
</g>
<!-- Node1&#45;&gt;Node19 -->
<g id="edge44" class="edge">
<title>Node1&#45;&gt;Node19</title>
<path fill="none" stroke="midnightblue" d="M663.87,-67.72C653.35,-52.5 634.93,-32.23 615,-20 614.74,-19.84 614.47,-19.68 614.2,-19.52"/>
<polygon fill="midnightblue" stroke="midnightblue" points="661.06,-69.82 669.34,-76.42 666.98,-66.09 661.06,-69.82"/>
</g>
<!-- Node2&#45;&gt;Node2 -->
<g id="edge13" class="edge">
<title>Node2&#45;&gt;Node2</title>
<path fill="none" stroke="midnightblue" d="M578.98,-312.4C577.55,-317.31 570.39,-321 557.5,-321 536.88,-321 530.92,-311.57 539.62,-302.76"/>
<polygon fill="midnightblue" stroke="midnightblue" points="582.16,-310.9 575.38,-302.76 575.6,-313.35 582.16,-310.9"/>
</g>
<!-- Node3 -->
<g id="node3" class="node">
<title>Node3</title>
<g id="a_node3"><a xlink:href="namespaceallglobal.html#a7824bc37519fe88336534ce90ab2af16" target="_top" xlink:title=" ">
<polygon fill="white" stroke="black" points="344.5,-443.5 344.5,-462.5 458.5,-462.5 458.5,-443.5 344.5,-443.5"/>
<text text-anchor="middle" x="401.5" y="-450.5" font-family="Helvetica,sans-Serif" font-size="10.00">allglobal::check_inputs</text>
</a>
</g>
</g>
<!-- Node2&#45;&gt;Node3 -->
<g id="edge2" class="edge">
<title>Node2&#45;&gt;Node3</title>
<path fill="none" stroke="midnightblue" d="M548.1,-312.13C534.44,-341.19 504.77,-396.51 464,-429 456.29,-435.14 446.82,-439.87 437.64,-443.43"/>
<polygon fill="midnightblue" stroke="midnightblue" points="551.43,-313.25 552.4,-302.7 545.07,-310.34 551.43,-313.25"/>
</g>
<!-- Node6 -->
<g id="node6" class="node">
<title>Node6</title>
<g id="a_node6"><a xlink:href="xspech_8f90.html#a48f45478dc2c9f70ea8aa1c60ad06503" target="_top" xlink:title="This is the main &quot;driver&quot; for the physics part of SPEC.">
<polygon fill="white" stroke="black" points="155.5,-381.5 155.5,-400.5 193.5,-400.5 193.5,-381.5 155.5,-381.5"/>
<text text-anchor="middle" x="174.5" y="-388.5" font-family="Helvetica,sans-Serif" font-size="10.00">spec</text>
</a>
</g>
</g>
<!-- Node2&#45;&gt;Node6 -->
<g id="edge37" class="edge">
<title>Node2&#45;&gt;Node6</title>
<path fill="none" stroke="midnightblue" d="M525.95,-303.43C508.34,-312.28 485.49,-324.1 464,-332 366.19,-367.96 240.03,-378.39 193.64,-385.74"/>
<polygon fill="midnightblue" stroke="midnightblue" points="527.75,-306.45 535.16,-298.87 524.64,-300.18 527.75,-306.45"/>
</g>
<!-- Node9 -->
<g id="node9" class="node">
<title>Node9</title>
<g id="a_node9"><a xlink:href="group__grp__force__driver.html#gabbc245b3884ee8d8d3e2a52f25149f78" target="_top" xlink:title="Objective to be given to the Newton solver, using only function values.">
<polygon fill="white" stroke="black" points="384,-255.5 384,-274.5 419,-274.5 419,-255.5 384,-255.5"/>
<text text-anchor="middle" x="401.5" y="-262.5" font-family="Helvetica,sans-Serif" font-size="10.00">fcn1</text>
</a>
</g>
</g>
<!-- Node2&#45;&gt;Node9 -->
<g id="edge14" class="edge">
<title>Node2&#45;&gt;Node9</title>
<path fill="none" stroke="midnightblue" d="M525.22,-287.31C493.12,-281.48 444.41,-272.62 419.09,-268.02"/>
<polygon fill="midnightblue" stroke="midnightblue" points="524.95,-290.82 535.41,-289.17 526.2,-283.93 524.95,-290.82"/>
</g>
<!-- Node10 -->
<g id="node10" class="node">
<title>Node10</title>
<g id="a_node10"><a xlink:href="group__grp__force__driver.html#gaec14f81fbdbedafbc4189489ec8ae178" target="_top" xlink:title="Employs Newton method to find , where &#160;and &#160;is defined in dforce() .">
<polygon fill="white" stroke="black" points="255,-265.5 255,-284.5 303,-284.5 303,-265.5 255,-265.5"/>
<text text-anchor="middle" x="279" y="-272.5" font-family="Helvetica,sans-Serif" font-size="10.00">newton</text>
</a>
</g>
</g>
<!-- Node2&#45;&gt;Node10 -->
<g id="edge32" class="edge">
<title>Node2&#45;&gt;Node10</title>
<path fill="none" stroke="midnightblue" d="M525.15,-299.23C482.49,-306.59 404.02,-316.17 339,-302 323.59,-298.64 307.39,-290.88 295.87,-284.54"/>
<polygon fill="midnightblue" stroke="midnightblue" points="525.97,-302.64 535.2,-297.42 524.73,-295.75 525.97,-302.64"/>
</g>
<!-- Node11 -->
<g id="node11" class="node">
<title>Node11</title>
<g id="a_node11"><a xlink:href="group__grp__force__driver.html#ga8ccd6c7d901872702521d0a0edf95412" target="_top" xlink:title="Objective to be given to the Newton solver, using function values and derivatives.">
<polygon fill="white" stroke="black" points="29.5,-279.5 29.5,-298.5 64.5,-298.5 64.5,-279.5 29.5,-279.5"/>
<text text-anchor="middle" x="47" y="-286.5" font-family="Helvetica,sans-Serif" font-size="10.00">fcn2</text>
</a>
</g>
</g>
<!-- Node2&#45;&gt;Node11 -->
<g id="edge26" class="edge">
<title>Node2&#45;&gt;Node11</title>
<path fill="none" stroke="midnightblue" d="M534.28,-277.93C516.24,-266.64 489.66,-252.14 464,-246 319.64,-211.43 274.14,-210.5 130,-246 103.93,-252.42 76.98,-268.76 61.39,-279.35"/>
<polygon fill="midnightblue" stroke="midnightblue" points="532.59,-281 542.89,-283.47 536.38,-275.11 532.59,-281"/>
</g>
<!-- Node2&#45;&gt;Node13 -->
<g id="edge27" class="edge">
<title>Node2&#45;&gt;Node13</title>
<path fill="none" stroke="midnightblue" d="M549.12,-274.07C536.37,-243.8 507.32,-184.59 464,-152 458.82,-148.1 452.83,-145 446.66,-142.52"/>
<polygon fill="midnightblue" stroke="midnightblue" points="545.94,-275.54 552.95,-283.48 552.43,-272.9 545.94,-275.54"/>
</g>
<!-- Node14 -->
<g id="node14" class="node">
<title>Node14</title>
<g id="a_node14"><a xlink:href="group__grp__output.html#ga7401b50ec10c6598ee4a8112717a63ec" target="_top" xlink:title="Computes eigenvalues and eigenvectors of derivative matrix, &#160;and saves them to .ext....">
<polygon fill="white" stroke="black" points="256.5,-331.5 256.5,-350.5 301.5,-350.5 301.5,-331.5 256.5,-331.5"/>
<text text-anchor="middle" x="279" y="-338.5" font-family="Helvetica,sans-Serif" font-size="10.00">hesian</text>
</a>
</g>
</g>
<!-- Node2&#45;&gt;Node14 -->
<g id="edge29" class="edge">
<title>Node2&#45;&gt;Node14</title>
<path fill="none" stroke="midnightblue" d="M525.81,-302.92C507.94,-308.37 484.88,-314.84 464,-319 405.94,-330.56 336.29,-336.87 301.7,-339.5"/>
<polygon fill="midnightblue" stroke="midnightblue" points="526.9,-306.24 535.42,-299.94 524.83,-299.56 526.9,-306.24"/>
</g>
<!-- Node15 -->
<g id="node15" class="node">
<title>Node15</title>
<g id="a_node15"><a xlink:href="group__grp__conjugate__gradient.html#ga4d8415226e62a9fdb42b0fd0b464251e" target="_top" xlink:title="Returns the energy functional and it&#39;s derivatives with respect to geometry.">
<polygon fill="white" stroke="black" points="377.5,-161.5 377.5,-180.5 425.5,-180.5 425.5,-161.5 377.5,-161.5"/>
<text text-anchor="middle" x="401.5" y="-168.5" font-family="Helvetica,sans-Serif" font-size="10.00">pc00ab</text>
</a>
</g>
</g>
<!-- Node2&#45;&gt;Node15 -->
<g id="edge33" class="edge">
<title>Node2&#45;&gt;Node15</title>
<path fill="none" stroke="midnightblue" d="M538.74,-276.56C520.48,-259.93 490.99,-233.78 464,-213 448.63,-201.17 430.16,-188.78 417.5,-180.55"/>
<polygon fill="midnightblue" stroke="midnightblue" points="536.55,-279.31 546.28,-283.48 541.28,-274.15 536.55,-279.31"/>
</g>
<!-- Node4 -->
<g id="node4" class="node">
<title>Node4</title>
<g id="a_node4"><a xlink:href="xspech_8f90.html#a9fdc71dffd7c61ee4588a3f80d3ab9ce" target="_top" xlink:title="Main subroutine of SPEC.">
<polygon fill="white" stroke="black" points="255.5,-443.5 255.5,-462.5 302.5,-462.5 302.5,-443.5 255.5,-443.5"/>
<text text-anchor="middle" x="279" y="-450.5" font-family="Helvetica,sans-Serif" font-size="10.00">xspech</text>
</a>
</g>
</g>
<!-- Node3&#45;&gt;Node4 -->
<g id="edge3" class="edge">
<title>Node3&#45;&gt;Node4</title>
<path fill="none" stroke="midnightblue" d="M334.45,-453C323.06,-453 311.95,-453 302.77,-453"/>
<polygon fill="midnightblue" stroke="midnightblue" points="334.48,-456.5 344.48,-453 334.48,-449.5 334.48,-456.5"/>
</g>
<!-- Node4&#45;&gt;Node4 -->
<g id="edge12" class="edge">
<title>Node4&#45;&gt;Node4</title>
<path fill="none" stroke="midnightblue" d="M298.26,-472.4C296.97,-477.31 290.55,-481 279,-481 260.52,-481 255.17,-471.57 262.97,-462.76"/>
<polygon fill="midnightblue" stroke="midnightblue" points="301.52,-471.13 295.03,-462.76 294.89,-473.35 301.52,-471.13"/>
</g>
<!-- Node5 -->
<g id="node5" class="node">
<title>Node5</title>
<g id="a_node5"><a xlink:href="xspech_8f90.html#a1451823a7b97101a797de616250752c1" target="_top" xlink:title="Final diagnostics.">
<polygon fill="white" stroke="black" points="130,-495.5 130,-514.5 219,-514.5 219,-495.5 130,-495.5"/>
<text text-anchor="middle" x="174.5" y="-502.5" font-family="Helvetica,sans-Serif" font-size="10.00">final_diagnostics</text>
</a>
</g>
</g>
<!-- Node4&#45;&gt;Node5 -->
<g id="edge4" class="edge">
<title>Node4&#45;&gt;Node5</title>
<path fill="none" stroke="midnightblue" d="M245.91,-462.97C225.34,-472.42 199.97,-485.96 185.99,-495.39"/>
<polygon fill="midnightblue" stroke="midnightblue" points="247.53,-466.08 255.25,-458.82 244.69,-459.68 247.53,-466.08"/>
</g>
<!-- Node4&#45;&gt;Node6 -->
<g id="edge6" class="edge">
<title>Node4&#45;&gt;Node6</title>
<path fill="none" stroke="midnightblue" d="M265.88,-435.98C254.31,-424.65 236.15,-410.84 219,-401 210.99,-396.41 201.67,-392.2 193.71,-389.67"/>
<polygon fill="midnightblue" stroke="midnightblue" points="263.36,-438.42 272.74,-443.35 268.48,-433.65 263.36,-438.42"/>
</g>
<!-- Node8 -->
<g id="node8" class="node">
<title>Node8</title>
<g id="a_node8"><a xlink:href="xspech_8f90.html#a95271e8805067f801b5d4e524d6901d4" target="_top" xlink:title="Main program of SPEC.">
<polygon fill="white" stroke="black" points="142.5,-419.5 142.5,-438.5 206.5,-438.5 206.5,-419.5 142.5,-419.5"/>
<text text-anchor="middle" x="174.5" y="-426.5" font-family="Helvetica,sans-Serif" font-size="10.00">spec_main</text>
</a>
</g>
</g>
<!-- Node4&#45;&gt;Node8 -->
<g id="edge11" class="edge">
<title>Node4&#45;&gt;Node8</title>
<path fill="none" stroke="midnightblue" d="M245.34,-445.35C232.98,-442.46 218.96,-439.18 206.74,-436.31"/>
<polygon fill="midnightblue" stroke="midnightblue" points="244.72,-448.8 255.25,-447.67 246.31,-441.99 244.72,-448.8"/>
</g>
<!-- Node5&#45;&gt;Node4 -->
<g id="edge5" class="edge">
<title>Node5&#45;&gt;Node4</title>
<path fill="none" stroke="midnightblue" d="M215.88,-491.13C234.56,-482.13 255.25,-470.86 267.42,-462.68"/>
<polygon fill="midnightblue" stroke="midnightblue" points="214.2,-488.05 206.64,-495.47 217.18,-494.39 214.2,-488.05"/>
</g>
<!-- Node6&#45;&gt;Node2 -->
<g id="edge7" class="edge">
<title>Node6&#45;&gt;Node2</title>
<path fill="none" stroke="midnightblue" d="M203.91,-394.71C256.66,-394.89 372.69,-383.57 464,-350 497.28,-337.76 533.82,-316.13 549.12,-302.62"/>
<polygon fill="midnightblue" stroke="midnightblue" points="203.71,-391.2 193.64,-394.5 203.57,-398.2 203.71,-391.2"/>
</g>
<!-- Node6&#45;&gt;Node4 -->
<g id="edge10" class="edge">
<title>Node6&#45;&gt;Node4</title>
<path fill="none" stroke="midnightblue" d="M192.73,-405.66C200.9,-409.85 210.67,-414.22 219,-419 231.86,-426.38 245.29,-435.99 256.08,-443.4"/>
<polygon fill="midnightblue" stroke="midnightblue" points="194.21,-402.47 183.77,-400.63 190.78,-408.58 194.21,-402.47"/>
</g>
<!-- Node7 -->
<g id="node7" class="node">
<title>Node7</title>
<g id="a_node7"><a xlink:href="group__grp__output.html#ga0f962c09cd5d5eba99f1cba043cb3898" target="_top" xlink:title="Initialize the interface to the HDF5 library and open the output file.">
<polygon fill="white" stroke="black" points="0,-419.5 0,-438.5 94,-438.5 94,-419.5 0,-419.5"/>
<text text-anchor="middle" x="47" y="-426.5" font-family="Helvetica,sans-Serif" font-size="10.00">sphdf5::init_outfile</text>
</a>
</g>
</g>
<!-- Node6&#45;&gt;Node7 -->
<g id="edge8" class="edge">
<title>Node6&#45;&gt;Node7</title>
<path fill="none" stroke="midnightblue" d="M145.67,-399.43C126.05,-405.37 99.76,-413.33 79.39,-419.49"/>
<polygon fill="midnightblue" stroke="midnightblue" points="146.69,-402.77 155.25,-396.53 144.67,-396.07 146.69,-402.77"/>
</g>
<!-- Node7&#45;&gt;Node4 -->
<g id="edge9" class="edge">
<title>Node7&#45;&gt;Node4</title>
<path fill="none" stroke="midnightblue" d="M92.33,-440.92C104.46,-443.73 117.66,-446.38 130,-448 174.1,-453.8 226.18,-454.04 255.32,-453.59"/>
<polygon fill="midnightblue" stroke="midnightblue" points="92.98,-437.48 82.44,-438.55 91.34,-444.29 92.98,-437.48"/>
</g>
<!-- Node9&#45;&gt;Node9 -->
<g id="edge15" class="edge">
<title>Node9&#45;&gt;Node9</title>
<path fill="none" stroke="midnightblue" d="M424.37,-282.14C424.68,-288.14 417.06,-293 401.5,-293 378.86,-293 373.03,-282.72 383.99,-273.6"/>
<polygon fill="midnightblue" stroke="midnightblue" points="427.29,-280.21 419.01,-273.6 421.36,-283.93 427.29,-280.21"/>
</g>
<!-- Node9&#45;&gt;Node10 -->
<g id="edge16" class="edge">
<title>Node9&#45;&gt;Node10</title>
<path fill="none" stroke="midnightblue" d="M373.51,-261.5C352.38,-261.82 323.31,-264.32 303.22,-267.62"/>
<polygon fill="midnightblue" stroke="midnightblue" points="373.73,-265 383.74,-261.55 373.76,-258 373.73,-265"/>
</g>
<!-- Node10&#45;&gt;Node6 -->
<g id="edge22" class="edge">
<title>Node10&#45;&gt;Node6</title>
<path fill="none" stroke="midnightblue" d="M262.55,-292.49C240.6,-317.33 201.15,-361.97 183.93,-381.46"/>
<polygon fill="midnightblue" stroke="midnightblue" points="265.26,-294.7 269.26,-284.89 260.02,-290.07 265.26,-294.7"/>
</g>
<!-- Node10&#45;&gt;Node9 -->
<g id="edge17" class="edge">
<title>Node10&#45;&gt;Node9</title>
<path fill="none" stroke="midnightblue" d="M313.52,-278.34C336.37,-277.59 365.66,-274.74 383.74,-271.24"/>
<polygon fill="midnightblue" stroke="midnightblue" points="313.15,-274.85 303.22,-278.53 313.28,-281.84 313.15,-274.85"/>
</g>
<!-- Node10&#45;&gt;Node10 -->
<g id="edge21" class="edge">
<title>Node10&#45;&gt;Node10</title>
<path fill="none" stroke="midnightblue" d="M298.26,-294.4C296.97,-299.31 290.55,-303 279,-303 260.52,-303 255.17,-293.57 262.97,-284.76"/>
<polygon fill="midnightblue" stroke="midnightblue" points="301.52,-293.13 295.03,-284.76 294.89,-295.35 301.52,-293.13"/>
</g>
<!-- Node10&#45;&gt;Node11 -->
<g id="edge18" class="edge">
<title>Node10&#45;&gt;Node11</title>
<path fill="none" stroke="midnightblue" d="M244.66,-272.1C236.3,-273.07 227.34,-274.24 219,-275 162.5,-280.12 95.12,-280.38 64.55,-283.92"/>
<polygon fill="midnightblue" stroke="midnightblue" points="245.25,-275.55 254.82,-271.02 244.51,-268.59 245.25,-275.55"/>
</g>
<!-- Node12 -->
<g id="node12" class="node">
<title>Node12</title>
<g id="a_node12"><a xlink:href="group__grp__output.html#ga382822b303cbf8c56d6f54dcb379caf2" target="_top" xlink:title="read or write force&#45;derivative matrix .ext.sp.DF">
<polygon fill="white" stroke="black" points="142,-255.5 142,-274.5 207,-274.5 207,-255.5 142,-255.5"/>
<text text-anchor="middle" x="174.5" y="-262.5" font-family="Helvetica,sans-Serif" font-size="10.00">writereadgf</text>
</a>
</g>
</g>
<!-- Node10&#45;&gt;Node12 -->
<g id="edge23" class="edge">
<title>Node10&#45;&gt;Node12</title>
<path fill="none" stroke="midnightblue" d="M244.89,-265.41C232.86,-263.7 219.29,-262.39 207.36,-261.81"/>
<polygon fill="midnightblue" stroke="midnightblue" points="244.57,-268.9 255,-267.02 245.67,-261.99 244.57,-268.9"/>
</g>
<!-- Node11&#45;&gt;Node10 -->
<g id="edge20" class="edge">
<title>Node11&#45;&gt;Node10</title>
<path fill="none" stroke="midnightblue" d="M74.51,-295.48C108.18,-298.28 168.02,-297.62 219,-293 234.89,-291.56 253.01,-288.6 264.93,-284.5"/>
<polygon fill="midnightblue" stroke="midnightblue" points="74.85,-292 64.55,-294.45 74.13,-298.96 74.85,-292"/>
</g>
<!-- Node11&#45;&gt;Node11 -->
<g id="edge19" class="edge">
<title>Node11&#45;&gt;Node11</title>
<path fill="none" stroke="midnightblue" d="M70.55,-305.53C71.46,-311.81 63.61,-317 47,-317 23.38,-317 17.47,-306.5 29.28,-297.31"/>
<polygon fill="midnightblue" stroke="midnightblue" points="73.36,-303.44 64.72,-297.31 67.65,-307.49 73.36,-303.44"/>
</g>
<!-- Node12&#45;&gt;Node10 -->
<g id="edge25" class="edge">
<title>Node12&#45;&gt;Node10</title>
<path fill="none" stroke="midnightblue" d="M217.42,-275.74C230.26,-277.27 243.91,-278.3 255,-278.5"/>
<polygon fill="midnightblue" stroke="midnightblue" points="217.74,-272.25 207.36,-274.41 216.82,-279.19 217.74,-272.25"/>
</g>
<!-- Node12&#45;&gt;Node11 -->
<g id="edge24" class="edge">
<title>Node12&#45;&gt;Node11</title>
<path fill="none" stroke="midnightblue" d="M131.96,-272.94C108.99,-277.34 81.73,-282.55 64.64,-285.82"/>
<polygon fill="midnightblue" stroke="midnightblue" points="132.67,-276.37 141.83,-271.06 131.35,-269.5 132.67,-276.37"/>
</g>
<!-- Node13&#45;&gt;Node1 -->
<g id="edge28" class="edge">
<title>Node13&#45;&gt;Node1</title>
<path fill="none" stroke="midnightblue" d="M474.42,-134.76C515.86,-131.51 568.74,-124.53 615,-114 632.98,-109.91 653.31,-102.6 664.49,-95.51"/>
<polygon fill="midnightblue" stroke="midnightblue" points="474.13,-131.28 464.41,-135.49 474.64,-138.26 474.13,-131.28"/>
</g>
<!-- Node14&#45;&gt;Node6 -->
<g id="edge31" class="edge">
<title>Node14&#45;&gt;Node6</title>
<path fill="none" stroke="midnightblue" d="M248.92,-355.19C231.21,-363.83 209.12,-374.6 193.82,-382.06"/>
<polygon fill="midnightblue" stroke="midnightblue" points="250.78,-358.17 258.24,-350.64 247.71,-351.88 250.78,-358.17"/>
</g>
<!-- Node14&#45;&gt;Node14 -->
<g id="edge30" class="edge">
<title>Node14&#45;&gt;Node14</title>
<path fill="none" stroke="midnightblue" d="M298.26,-360.4C296.97,-365.31 290.55,-369 279,-369 260.52,-369 255.17,-359.57 262.97,-350.76"/>
<polygon fill="midnightblue" stroke="midnightblue" points="301.52,-359.13 295.03,-350.76 294.89,-361.35 301.52,-359.13"/>
</g>
<!-- Node15&#45;&gt;Node15 -->
<g id="edge36" class="edge">
<title>Node15&#45;&gt;Node15</title>
<path fill="none" stroke="midnightblue" d="M424.19,-190.03C422.96,-195.13 415.39,-199 401.5,-199 379.82,-199 373.55,-189.57 382.7,-180.76"/>
<polygon fill="midnightblue" stroke="midnightblue" points="427.4,-188.62 420.3,-180.76 420.94,-191.33 427.4,-188.62"/>
</g>
<!-- Node16 -->
<g id="node16" class="node">
<title>Node16</title>
<g id="a_node16"><a xlink:href="group__grp__conjugate__gradient.html#ga25a3bae2ff2ee0469b045de0d033398b" target="_top" xlink:title="Use preconditioned conjugate gradient method to find minimum of energy functional.">
<polygon fill="white" stroke="black" points="255,-161.5 255,-180.5 303,-180.5 303,-161.5 255,-161.5"/>
<text text-anchor="middle" x="279" y="-168.5" font-family="Helvetica,sans-Serif" font-size="10.00">pc00aa</text>
</a>
</g>
</g>
<!-- Node15&#45;&gt;Node16 -->
<g id="edge34" class="edge">
<title>Node15&#45;&gt;Node16</title>
<path fill="none" stroke="midnightblue" d="M367.16,-171C346.81,-171 321.31,-171 303.16,-171"/>
<polygon fill="midnightblue" stroke="midnightblue" points="367.27,-174.5 377.27,-171 367.27,-167.5 367.27,-174.5"/>
</g>
<!-- Node16&#45;&gt;Node16 -->
<g id="edge35" class="edge">
<title>Node16&#45;&gt;Node16</title>
<path fill="none" stroke="midnightblue" d="M298.26,-190.4C296.97,-195.31 290.55,-199 279,-199 260.52,-199 255.17,-189.57 262.97,-180.76"/>
<polygon fill="midnightblue" stroke="midnightblue" points="301.52,-189.13 295.03,-180.76 294.89,-191.35 301.52,-189.13"/>
</g>
<!-- Node17&#45;&gt;Node1 -->
<g id="edge40" class="edge">
<title>Node17&#45;&gt;Node1</title>
<path fill="none" stroke="midnightblue" d="M605.12,-92.65C620.95,-92.96 637.92,-92.56 650.92,-91.46"/>
<polygon fill="midnightblue" stroke="midnightblue" points="605.03,-89.14 594.93,-92.34 604.81,-96.14 605.03,-89.14"/>
</g>
<!-- Node18&#45;&gt;Node1 -->
<g id="edge42" class="edge">
<title>Node18&#45;&gt;Node1</title>
<path fill="none" stroke="midnightblue" d="M582.66,-61.65C602.83,-69.89 631.35,-79.3 650.92,-84.13"/>
<polygon fill="midnightblue" stroke="midnightblue" points="583.8,-58.33 573.23,-57.59 581.04,-64.76 583.8,-58.33"/>
</g>
<!-- Node19&#45;&gt;Node1 -->
<g id="edge45" class="edge">
<title>Node19&#45;&gt;Node1</title>
<path fill="none" stroke="midnightblue" d="M580.92,-23.14C591.73,-27.06 604.57,-31.6 615,-38 632.33,-48.64 648.51,-65.34 659.36,-76.32"/>
<polygon fill="midnightblue" stroke="midnightblue" points="581.92,-19.78 571.33,-19.53 579.46,-26.33 581.92,-19.78"/>
</g>
</g>
</svg>
