<?xml version="1.0" encoding="UTF-8" standalone="no"?>
<!DOCTYPE svg PUBLIC "-//W3C//DTD SVG 1.1//EN"
 "http://www.w3.org/Graphics/SVG/1.1/DTD/svg11.dtd">
<!-- Generated by graphviz version 2.50.0 (20220203.2022)
 -->
<!-- Title: dfp200 Pages: 1 -->
<svg width="705pt" height="491pt"
 viewBox="0.00 0.00 705.00 491.00" xmlns="http://www.w3.org/2000/svg" xmlns:xlink="http://www.w3.org/1999/xlink">
<g id="graph0" class="graph" transform="scale(1 1) rotate(0) translate(4 487)">
<title>dfp200</title>
<polygon fill="white" stroke="transparent" points="-4,4 -4,-487 701,-487 701,4 -4,4"/>
<!-- Node1 -->
<g id="node1" class="node">
<title>Node1</title>
<g id="a_node1"><a xlink:title="Given the field consistent with the constraints and the geometry, computes local quantites related to...">
<polygon fill="#bfbfbf" stroke="black" points="651,-76.5 651,-95.5 697,-95.5 697,-76.5 651,-76.5"/>
<text text-anchor="middle" x="674" y="-83.5" font-family="Helvetica,sans-Serif" font-size="10.00">dfp200</text>
</a>
</g>
</g>
<!-- Node1&#45;&gt;Node1 -->
<g id="edge37" class="edge">
<title>Node1&#45;&gt;Node1</title>
<path fill="none" stroke="midnightblue" d="M695.48,-105.4C694.05,-110.31 686.89,-114 674,-114 653.38,-114 647.42,-104.57 656.12,-95.76"/>
<polygon fill="midnightblue" stroke="midnightblue" points="698.66,-103.9 691.88,-95.76 692.1,-106.35 698.66,-103.9"/>
</g>
<!-- Node2 -->
<g id="node2" class="node">
<title>Node2</title>
<g id="a_node2"><a xlink:href="group__grp__global__force.html#ga38c9d3c50bd043707fefa5137c9dbf44" target="_top" xlink:title="Calculates , where &#160;and , and .">
<polygon fill="white" stroke="black" points="535.5,-255.5 535.5,-274.5 579.5,-274.5 579.5,-255.5 535.5,-255.5"/>
<text text-anchor="middle" x="557.5" y="-262.5" font-family="Helvetica,sans-Serif" font-size="10.00">dforce</text>
</a>
</g>
</g>
<!-- Node1&#45;&gt;Node2 -->
<g id="edge1" class="edge">
<title>Node1&#45;&gt;Node2</title>
<path fill="none" stroke="midnightblue" d="M661.45,-104.06C637.48,-141.53 583.05,-226.61 564.69,-255.33"/>
<polygon fill="midnightblue" stroke="midnightblue" points="664.4,-105.93 666.84,-95.62 658.51,-102.16 664.4,-105.93"/>
</g>
<!-- Node13 -->
<g id="node13" class="node">
<title>Node13</title>
<g id="a_node13"><a xlink:href="dfp200_8f90.html#a6aca59cf350d7b1941f8389d50945a43" target="_top" xlink:title="get LU Beltrami matrices">
<polygon fill="white" stroke="black" points="339,-123.5 339,-142.5 464,-142.5 464,-123.5 339,-123.5"/>
<text text-anchor="middle" x="401.5" y="-130.5" font-family="Helvetica,sans-Serif" font-size="10.00">get_lu_beltrami_matrices</text>
</a>
</g>
</g>
<!-- Node1&#45;&gt;Node13 -->
<g id="edge42" class="edge">
<title>Node1&#45;&gt;Node13</title>
<path fill="none" stroke="midnightblue" d="M641.14,-88.92C632.73,-91.35 623.59,-94.04 615,-96 555.13,-109.63 484.16,-117.32 441.27,-123.48"/>
<polygon fill="midnightblue" stroke="midnightblue" points="642.29,-92.23 650.96,-86.15 640.39,-85.5 642.29,-92.23"/>
</g>
<!-- Node17 -->
<g id="node17" class="node">
<title>Node17</title>
<g id="a_node17"><a xlink:href="dfp200_8f90.html#a7b64c7392b45d0042d8bd7379c0761a5" target="_top" xlink:title="Evaluate the derivative of the square of the magnetic field modulus. Add spectral constraint derivati...">
<polygon fill="white" stroke="black" points="520.5,-76.5 520.5,-95.5 594.5,-95.5 594.5,-76.5 520.5,-76.5"/>
<text text-anchor="middle" x="557.5" y="-83.5" font-family="Helvetica,sans-Serif" font-size="10.00">evaluate_dbb</text>
</a>
</g>
</g>
<!-- Node1&#45;&gt;Node17 -->
<g id="edge38" class="edge">
<title>Node1&#45;&gt;Node17</title>
<path fill="none" stroke="midnightblue" d="M640.61,-79.85C626.37,-79.12 609.59,-79.06 594.93,-79.66"/>
<polygon fill="midnightblue" stroke="midnightblue" points="640.71,-83.37 650.92,-80.54 641.18,-76.38 640.71,-83.37"/>
</g>
<!-- Node18 -->
<g id="node18" class="node">
<title>Node18</title>
<g id="a_node18"><a xlink:href="dfp200_8f90.html#a73ddf39ecc5228201fb643779e17cd36" target="_top" xlink:title="Evaluate mu and psip derivatives and store them in dmupfdx.">
<polygon fill="white" stroke="black" points="510,-38.5 510,-57.5 605,-57.5 605,-38.5 510,-38.5"/>
<text text-anchor="middle" x="557.5" y="-45.5" font-family="Helvetica,sans-Serif" font-size="10.00">evaluate_dmupfdx</text>
</a>
</g>
</g>
<!-- Node1&#45;&gt;Node18 -->
<g id="edge40" class="edge">
<title>Node1&#45;&gt;Node18</title>
<path fill="none" stroke="midnightblue" d="M648.66,-72.28C636,-67.11 620.09,-61.5 605.17,-56.84"/>
<polygon fill="midnightblue" stroke="midnightblue" points="647.46,-75.58 658.03,-76.3 650.22,-69.14 647.46,-75.58"/>
</g>
<!-- Node19 -->
<g id="node19" class="node">
<title>Node19</title>
<g id="a_node19"><a xlink:href="dfp200_8f90.html#a5e56f1f4b1e6df11a9cffa6237c37469" target="_top" xlink:title="This routine evaluates the value of the magnetic field once the interface is perturbed using matrix p...">
<polygon fill="white" stroke="black" points="500,-0.5 500,-19.5 615,-19.5 615,-0.5 500,-0.5"/>
<text text-anchor="middle" x="557.5" y="-7.5" font-family="Helvetica,sans-Serif" font-size="10.00">get_perturbed_solution</text>
</a>
</g>
</g>
<!-- Node1&#45;&gt;Node19 -->
<g id="edge43" class="edge">
<title>Node1&#45;&gt;Node19</title>
<path fill="none" stroke="midnightblue" d="M663.87,-67.72C653.35,-52.5 634.93,-32.23 615,-20 614.74,-19.84 614.47,-19.68 614.2,-19.52"/>
<polygon fill="midnightblue" stroke="midnightblue" points="661.06,-69.82 669.34,-76.42 666.98,-66.09 661.06,-69.82"/>
</g>
<!-- Node2&#45;&gt;Node2 -->
<g id="edge12" class="edge">
<title>Node2&#45;&gt;Node2</title>
<path fill="none" stroke="midnightblue" d="M578.98,-284.4C577.55,-289.31 570.39,-293 557.5,-293 536.88,-293 530.92,-283.57 539.62,-274.76"/>
<polygon fill="midnightblue" stroke="midnightblue" points="582.16,-282.9 575.38,-274.76 575.6,-285.35 582.16,-282.9"/>
</g>
<!-- Node3 -->
<g id="node3" class="node">
<title>Node3</title>
<g id="a_node3"><a xlink:href="namespaceallglobal.html#a7824bc37519fe88336534ce90ab2af16" target="_top" xlink:title=" ">
<polygon fill="white" stroke="black" points="344.5,-425.5 344.5,-444.5 458.5,-444.5 458.5,-425.5 344.5,-425.5"/>
<text text-anchor="middle" x="401.5" y="-432.5" font-family="Helvetica,sans-Serif" font-size="10.00">allglobal::check_inputs</text>
</a>
</g>
</g>
<!-- Node2&#45;&gt;Node3 -->
<g id="edge2" class="edge">
<title>Node2&#45;&gt;Node3</title>
<path fill="none" stroke="midnightblue" d="M549.02,-284.23C536.13,-315.07 506.88,-375.67 464,-411 456.48,-417.19 447.17,-421.92 438.1,-425.47"/>
<polygon fill="midnightblue" stroke="midnightblue" points="552.39,-285.24 552.9,-274.66 545.9,-282.61 552.39,-285.24"/>
</g>
<!-- Node6 -->
<g id="node6" class="node">
<title>Node6</title>
<g id="a_node6"><a xlink:href="xspech_8f90.html#a48f45478dc2c9f70ea8aa1c60ad06503" target="_top" xlink:title="This is the main &quot;driver&quot; for the physics part of SPEC.">
<polygon fill="white" stroke="black" points="155.5,-349.5 155.5,-368.5 193.5,-368.5 193.5,-349.5 155.5,-349.5"/>
<text text-anchor="middle" x="174.5" y="-356.5" font-family="Helvetica,sans-Serif" font-size="10.00">spec</text>
</a>
</g>
</g>
<!-- Node2&#45;&gt;Node6 -->
<g id="edge36" class="edge">
<title>Node2&#45;&gt;Node6</title>
<path fill="none" stroke="midnightblue" d="M541.52,-282.09C524.57,-300.32 495.22,-328.63 464,-344 379.57,-385.57 348.46,-389.01 255,-378 233.58,-375.48 209.57,-369.25 193.6,-364.61"/>
<polygon fill="midnightblue" stroke="midnightblue" points="544.28,-284.27 548.4,-274.51 539.09,-279.56 544.28,-284.27"/>
</g>
<!-- Node9 -->
<g id="node9" class="node">
<title>Node9</title>
<g id="a_node9"><a xlink:href="group__grp__force__driver.html#gabbc245b3884ee8d8d3e2a52f25149f78" target="_top" xlink:title="fcn1">
<polygon fill="white" stroke="black" points="384,-255.5 384,-274.5 419,-274.5 419,-255.5 384,-255.5"/>
<text text-anchor="middle" x="401.5" y="-262.5" font-family="Helvetica,sans-Serif" font-size="10.00">fcn1</text>
</a>
</g>
</g>
<!-- Node2&#45;&gt;Node9 -->
<g id="edge13" class="edge">
<title>Node2&#45;&gt;Node9</title>
<path fill="none" stroke="midnightblue" d="M525.22,-265C493.12,-265 444.41,-265 419.09,-265"/>
<polygon fill="midnightblue" stroke="midnightblue" points="525.41,-268.5 535.41,-265 525.41,-261.5 525.41,-268.5"/>
</g>
<!-- Node10 -->
<g id="node10" class="node">
<title>Node10</title>
<g id="a_node10"><a xlink:href="group__grp__force__driver.html#gaec14f81fbdbedafbc4189489ec8ae178" target="_top" xlink:title="Employs Newton method to find , where &#160;and &#160;is defined in dforce() .">
<polygon fill="white" stroke="black" points="255,-265.5 255,-284.5 303,-284.5 303,-265.5 255,-265.5"/>
<text text-anchor="middle" x="279" y="-272.5" font-family="Helvetica,sans-Serif" font-size="10.00">newton</text>
</a>
</g>
</g>
<!-- Node2&#45;&gt;Node10 -->
<g id="edge31" class="edge">
<title>Node2&#45;&gt;Node10</title>
<path fill="none" stroke="midnightblue" d="M529.07,-279.18C511.09,-287.66 486.79,-297.61 464,-302 409.45,-312.51 393.28,-313.83 339,-302 323.59,-298.64 307.39,-290.88 295.87,-284.54"/>
<polygon fill="midnightblue" stroke="midnightblue" points="530.89,-282.19 538.35,-274.67 527.83,-275.89 530.89,-282.19"/>
</g>
<!-- Node11 -->
<g id="node11" class="node">
<title>Node11</title>
<g id="a_node11"><a xlink:href="group__grp__force__driver.html#ga8ccd6c7d901872702521d0a0edf95412" target="_top" xlink:title="fcn2">
<polygon fill="white" stroke="black" points="29.5,-288.5 29.5,-307.5 64.5,-307.5 64.5,-288.5 29.5,-288.5"/>
<text text-anchor="middle" x="47" y="-295.5" font-family="Helvetica,sans-Serif" font-size="10.00">fcn2</text>
</a>
</g>
</g>
<!-- Node2&#45;&gt;Node11 -->
<g id="edge25" class="edge">
<title>Node2&#45;&gt;Node11</title>
<path fill="none" stroke="midnightblue" d="M525.32,-256.9C453.74,-239.73 272.81,-204.54 130,-246 101.51,-254.27 73.43,-275.75 58.67,-288.36"/>
<polygon fill="midnightblue" stroke="midnightblue" points="524.52,-260.31 535.07,-259.29 526.19,-253.51 524.52,-260.31"/>
</g>
<!-- Node2&#45;&gt;Node13 -->
<g id="edge26" class="edge">
<title>Node2&#45;&gt;Node13</title>
<path fill="none" stroke="midnightblue" d="M546.04,-246.33C531.05,-221.26 501.14,-176.99 464,-152 458.25,-148.13 451.68,-145.02 445.02,-142.53"/>
<polygon fill="midnightblue" stroke="midnightblue" points="543.15,-248.32 551.2,-255.21 549.2,-244.8 543.15,-248.32"/>
</g>
<!-- Node14 -->
<g id="node14" class="node">
<title>Node14</title>
<g id="a_node14"><a xlink:href="group__grp__diagnostics.html#ga7401b50ec10c6598ee4a8112717a63ec" target="_top" xlink:title="Computes eigenvalues and eigenvectors of derivative matrix, .">
<polygon fill="white" stroke="black" points="256.5,-331.5 256.5,-350.5 301.5,-350.5 301.5,-331.5 256.5,-331.5"/>
<text text-anchor="middle" x="279" y="-338.5" font-family="Helvetica,sans-Serif" font-size="10.00">hesian</text>
</a>
</g>
</g>
<!-- Node2&#45;&gt;Node14 -->
<g id="edge28" class="edge">
<title>Node2&#45;&gt;Node14</title>
<path fill="none" stroke="midnightblue" d="M535.67,-280.91C517.71,-293.73 490.54,-311.06 464,-320 407.63,-338.99 336.64,-341.5 301.6,-341.43"/>
<polygon fill="midnightblue" stroke="midnightblue" points="538.18,-283.41 544.18,-274.68 534.04,-277.77 538.18,-283.41"/>
</g>
<!-- Node15 -->
<g id="node15" class="node">
<title>Node15</title>
<g id="a_node15"><a xlink:href="group__grp__conjugate__gradient.html#ga4d8415226e62a9fdb42b0fd0b464251e" target="_top" xlink:title="Returns the energy functional and it&#39;s derivatives with respect to geometry.">
<polygon fill="white" stroke="black" points="377.5,-161.5 377.5,-180.5 425.5,-180.5 425.5,-161.5 377.5,-161.5"/>
<text text-anchor="middle" x="401.5" y="-168.5" font-family="Helvetica,sans-Serif" font-size="10.00">pc00ab</text>
</a>
</g>
</g>
<!-- Node2&#45;&gt;Node15 -->
<g id="edge32" class="edge">
<title>Node2&#45;&gt;Node15</title>
<path fill="none" stroke="midnightblue" d="M532.15,-250.14C500.21,-230.64 445.05,-196.97 418.16,-180.56"/>
<polygon fill="midnightblue" stroke="midnightblue" points="530.53,-253.25 540.89,-255.47 534.17,-247.27 530.53,-253.25"/>
</g>
<!-- Node4 -->
<g id="node4" class="node">
<title>Node4</title>
<g id="a_node4"><a xlink:href="xspech_8f90.html#a9fdc71dffd7c61ee4588a3f80d3ab9ce" target="_top" xlink:title="Main subroutine of SPEC.">
<polygon fill="white" stroke="black" points="255.5,-425.5 255.5,-444.5 302.5,-444.5 302.5,-425.5 255.5,-425.5"/>
<text text-anchor="middle" x="279" y="-432.5" font-family="Helvetica,sans-Serif" font-size="10.00">xspech</text>
</a>
</g>
</g>
<!-- Node3&#45;&gt;Node4 -->
<g id="edge3" class="edge">
<title>Node3&#45;&gt;Node4</title>
<path fill="none" stroke="midnightblue" d="M334.45,-435C323.06,-435 311.95,-435 302.77,-435"/>
<polygon fill="midnightblue" stroke="midnightblue" points="334.48,-438.5 344.48,-435 334.48,-431.5 334.48,-438.5"/>
</g>
<!-- Node4&#45;&gt;Node4 -->
<g id="edge11" class="edge">
<title>Node4&#45;&gt;Node4</title>
<path fill="none" stroke="midnightblue" d="M298.26,-454.4C296.97,-459.31 290.55,-463 279,-463 260.52,-463 255.17,-453.57 262.97,-444.76"/>
<polygon fill="midnightblue" stroke="midnightblue" points="301.52,-453.13 295.03,-444.76 294.89,-455.35 301.52,-453.13"/>
</g>
<!-- Node5 -->
<g id="node5" class="node">
<title>Node5</title>
<g id="a_node5"><a xlink:href="xspech_8f90.html#a1451823a7b97101a797de616250752c1" target="_top" xlink:title="Final diagnostics.">
<polygon fill="white" stroke="black" points="130,-463.5 130,-482.5 219,-482.5 219,-463.5 130,-463.5"/>
<text text-anchor="middle" x="174.5" y="-470.5" font-family="Helvetica,sans-Serif" font-size="10.00">final_diagnostics</text>
</a>
</g>
</g>
<!-- Node4&#45;&gt;Node5 -->
<g id="edge4" class="edge">
<title>Node4&#45;&gt;Node5</title>
<path fill="none" stroke="midnightblue" d="M245.65,-440.67C226.44,-446.89 203.1,-456.08 188.78,-463.36"/>
<polygon fill="midnightblue" stroke="midnightblue" points="246.72,-444 255.25,-437.71 244.66,-437.31 246.72,-444"/>
</g>
<!-- Node4&#45;&gt;Node6 -->
<g id="edge6" class="edge">
<title>Node4&#45;&gt;Node6</title>
<path fill="none" stroke="midnightblue" d="M266.82,-417.07C252.78,-399.67 229.28,-375.88 219,-369 211.19,-363.77 201.71,-359.43 193.6,-357.02"/>
<polygon fill="midnightblue" stroke="midnightblue" points="264.35,-419.6 273.18,-425.45 269.93,-415.37 264.35,-419.6"/>
</g>
<!-- Node8 -->
<g id="node8" class="node">
<title>Node8</title>
<g id="a_node8"><a xlink:href="xspech_8f90.html#a95271e8805067f801b5d4e524d6901d4" target="_top" xlink:title="Main program of SPEC.">
<polygon fill="white" stroke="black" points="142.5,-387.5 142.5,-406.5 206.5,-406.5 206.5,-387.5 142.5,-387.5"/>
<text text-anchor="middle" x="174.5" y="-394.5" font-family="Helvetica,sans-Serif" font-size="10.00">spec_main</text>
</a>
</g>
</g>
<!-- Node4&#45;&gt;Node8 -->
<g id="edge10" class="edge">
<title>Node4&#45;&gt;Node8</title>
<path fill="none" stroke="midnightblue" d="M245.79,-423.06C231.5,-417.76 214.91,-411.61 201.44,-406.62"/>
<polygon fill="midnightblue" stroke="midnightblue" points="244.66,-426.37 255.25,-426.57 247.09,-419.81 244.66,-426.37"/>
</g>
<!-- Node5&#45;&gt;Node4 -->
<g id="edge5" class="edge">
<title>Node5&#45;&gt;Node4</title>
<path fill="none" stroke="midnightblue" d="M228.8,-459.99C242.12,-454.99 255.26,-449.44 264.6,-444.7"/>
<polygon fill="midnightblue" stroke="midnightblue" points="227.31,-456.8 219.11,-463.51 229.71,-463.38 227.31,-456.8"/>
</g>
<!-- Node6&#45;&gt;Node4 -->
<g id="edge9" class="edge">
<title>Node6&#45;&gt;Node4</title>
<path fill="none" stroke="midnightblue" d="M193.35,-373.31C201.52,-377.34 211.11,-381.72 219,-387 228.23,-393.18 248.12,-412.99 262.25,-425.5"/>
<polygon fill="midnightblue" stroke="midnightblue" points="194.78,-370.11 184.3,-368.52 191.5,-376.29 194.78,-370.11"/>
</g>
<!-- Node7 -->
<g id="node7" class="node">
<title>Node7</title>
<g id="a_node7"><a xlink:href="group__grp__output.html#ga0f962c09cd5d5eba99f1cba043cb3898" target="_top" xlink:title="Initialize the interface to the HDF5 library and open the output file.">
<polygon fill="white" stroke="black" points="0,-363.5 0,-382.5 94,-382.5 94,-363.5 0,-363.5"/>
<text text-anchor="middle" x="47" y="-370.5" font-family="Helvetica,sans-Serif" font-size="10.00">sphdf5::init_outfile</text>
</a>
</g>
</g>
<!-- Node6&#45;&gt;Node7 -->
<g id="edge7" class="edge">
<title>Node6&#45;&gt;Node7</title>
<path fill="none" stroke="midnightblue" d="M145.06,-362.17C130.04,-363.85 111.23,-365.95 94.18,-367.85"/>
<polygon fill="midnightblue" stroke="midnightblue" points="145.7,-365.62 155.25,-361.04 144.92,-358.67 145.7,-365.62"/>
</g>
<!-- Node7&#45;&gt;Node4 -->
<g id="edge8" class="edge">
<title>Node7&#45;&gt;Node4</title>
<path fill="none" stroke="midnightblue" d="M71.03,-387.93C86.96,-397.51 108.98,-409.38 130,-416 172.99,-429.55 225.91,-433.46 255.41,-434.57"/>
<polygon fill="midnightblue" stroke="midnightblue" points="72.76,-384.88 62.42,-382.6 69.08,-390.83 72.76,-384.88"/>
</g>
<!-- Node9&#45;&gt;Node9 -->
<g id="edge14" class="edge">
<title>Node9&#45;&gt;Node9</title>
<path fill="none" stroke="midnightblue" d="M424.37,-282.14C424.68,-288.14 417.06,-293 401.5,-293 378.86,-293 373.03,-282.72 383.99,-273.6"/>
<polygon fill="midnightblue" stroke="midnightblue" points="427.29,-280.21 419.01,-273.6 421.36,-283.93 427.29,-280.21"/>
</g>
<!-- Node9&#45;&gt;Node10 -->
<g id="edge15" class="edge">
<title>Node9&#45;&gt;Node10</title>
<path fill="none" stroke="midnightblue" d="M373.51,-261.5C352.38,-261.82 323.31,-264.32 303.22,-267.62"/>
<polygon fill="midnightblue" stroke="midnightblue" points="373.73,-265 383.74,-261.55 373.76,-258 373.73,-265"/>
</g>
<!-- Node10&#45;&gt;Node6 -->
<g id="edge21" class="edge">
<title>Node10&#45;&gt;Node6</title>
<path fill="none" stroke="midnightblue" d="M263.33,-292.44C252.04,-305.2 235.61,-322.4 219,-335 211.17,-340.94 201.68,-346.35 193.57,-350.52"/>
<polygon fill="midnightblue" stroke="midnightblue" points="266.05,-294.65 269.95,-284.8 260.76,-290.06 266.05,-294.65"/>
</g>
<!-- Node10&#45;&gt;Node9 -->
<g id="edge16" class="edge">
<title>Node10&#45;&gt;Node9</title>
<path fill="none" stroke="midnightblue" d="M313.52,-278.34C336.37,-277.59 365.66,-274.74 383.74,-271.24"/>
<polygon fill="midnightblue" stroke="midnightblue" points="313.15,-274.85 303.22,-278.53 313.28,-281.84 313.15,-274.85"/>
</g>
<!-- Node10&#45;&gt;Node10 -->
<g id="edge20" class="edge">
<title>Node10&#45;&gt;Node10</title>
<path fill="none" stroke="midnightblue" d="M298.26,-294.4C296.97,-299.31 290.55,-303 279,-303 260.52,-303 255.17,-293.57 262.97,-284.76"/>
<polygon fill="midnightblue" stroke="midnightblue" points="301.52,-293.13 295.03,-284.76 294.89,-295.35 301.52,-293.13"/>
</g>
<!-- Node10&#45;&gt;Node11 -->
<g id="edge17" class="edge">
<title>Node10&#45;&gt;Node11</title>
<path fill="none" stroke="midnightblue" d="M244.62,-271.79C236.27,-272.77 227.32,-274.03 219,-275 162.49,-281.61 95.12,-286.15 64.55,-291.77"/>
<polygon fill="midnightblue" stroke="midnightblue" points="245.21,-275.25 254.79,-270.74 244.49,-268.29 245.21,-275.25"/>
</g>
<!-- Node12 -->
<g id="node12" class="node">
<title>Node12</title>
<g id="a_node12"><a xlink:href="group__grp__force__driver.html#ga382822b303cbf8c56d6f54dcb379caf2" target="_top" xlink:title="read or write force&#45;derivative matrix">
<polygon fill="white" stroke="black" points="142,-255.5 142,-274.5 207,-274.5 207,-255.5 142,-255.5"/>
<text text-anchor="middle" x="174.5" y="-262.5" font-family="Helvetica,sans-Serif" font-size="10.00">writereadgf</text>
</a>
</g>
</g>
<!-- Node10&#45;&gt;Node12 -->
<g id="edge22" class="edge">
<title>Node10&#45;&gt;Node12</title>
<path fill="none" stroke="midnightblue" d="M244.89,-265.41C232.86,-263.7 219.29,-262.39 207.36,-261.81"/>
<polygon fill="midnightblue" stroke="midnightblue" points="244.57,-268.9 255,-267.02 245.67,-261.99 244.57,-268.9"/>
</g>
<!-- Node11&#45;&gt;Node10 -->
<g id="edge19" class="edge">
<title>Node11&#45;&gt;Node10</title>
<path fill="none" stroke="midnightblue" d="M74.95,-302.67C108.69,-303.21 168.23,-298.94 219,-293 234.44,-291.19 252.04,-288.41 263.97,-284.61"/>
<polygon fill="midnightblue" stroke="midnightblue" points="74.66,-299.15 64.55,-302.29 74.41,-306.15 74.66,-299.15"/>
</g>
<!-- Node11&#45;&gt;Node11 -->
<g id="edge18" class="edge">
<title>Node11&#45;&gt;Node11</title>
<path fill="none" stroke="midnightblue" d="M70.55,-314.53C71.46,-320.81 63.61,-326 47,-326 23.38,-326 17.47,-315.5 29.28,-306.31"/>
<polygon fill="midnightblue" stroke="midnightblue" points="73.36,-312.44 64.72,-306.31 67.65,-316.49 73.36,-312.44"/>
</g>
<!-- Node12&#45;&gt;Node10 -->
<g id="edge24" class="edge">
<title>Node12&#45;&gt;Node10</title>
<path fill="none" stroke="midnightblue" d="M217.42,-275.74C230.26,-277.27 243.91,-278.3 255,-278.5"/>
<polygon fill="midnightblue" stroke="midnightblue" points="217.74,-272.25 207.36,-274.41 216.82,-279.19 217.74,-272.25"/>
</g>
<!-- Node12&#45;&gt;Node11 -->
<g id="edge23" class="edge">
<title>Node12&#45;&gt;Node11</title>
<path fill="none" stroke="midnightblue" d="M131.96,-275.92C108.99,-281.96 81.73,-289.13 64.64,-293.62"/>
<polygon fill="midnightblue" stroke="midnightblue" points="133.05,-279.26 141.83,-273.33 131.27,-272.49 133.05,-279.26"/>
</g>
<!-- Node13&#45;&gt;Node1 -->
<g id="edge27" class="edge">
<title>Node13&#45;&gt;Node1</title>
<path fill="none" stroke="midnightblue" d="M474.42,-134.76C515.86,-131.51 568.74,-124.53 615,-114 632.98,-109.91 653.31,-102.6 664.49,-95.51"/>
<polygon fill="midnightblue" stroke="midnightblue" points="474.13,-131.28 464.41,-135.49 474.64,-138.26 474.13,-131.28"/>
</g>
<!-- Node14&#45;&gt;Node6 -->
<g id="edge30" class="edge">
<title>Node14&#45;&gt;Node6</title>
<path fill="none" stroke="midnightblue" d="M246.08,-346.61C228.88,-349.63 208.27,-353.24 193.78,-355.79"/>
<polygon fill="midnightblue" stroke="midnightblue" points="247.02,-349.99 256.26,-344.82 245.81,-343.1 247.02,-349.99"/>
</g>
<!-- Node14&#45;&gt;Node14 -->
<g id="edge29" class="edge">
<title>Node14&#45;&gt;Node14</title>
<path fill="none" stroke="midnightblue" d="M298.26,-360.4C296.97,-365.31 290.55,-369 279,-369 260.52,-369 255.17,-359.57 262.97,-350.76"/>
<polygon fill="midnightblue" stroke="midnightblue" points="301.52,-359.13 295.03,-350.76 294.89,-361.35 301.52,-359.13"/>
</g>
<!-- Node15&#45;&gt;Node15 -->
<g id="edge35" class="edge">
<title>Node15&#45;&gt;Node15</title>
<path fill="none" stroke="midnightblue" d="M424.19,-190.03C422.96,-195.13 415.39,-199 401.5,-199 379.82,-199 373.55,-189.57 382.7,-180.76"/>
<polygon fill="midnightblue" stroke="midnightblue" points="427.4,-188.62 420.3,-180.76 420.94,-191.33 427.4,-188.62"/>
</g>
<!-- Node16 -->
<g id="node16" class="node">
<title>Node16</title>
<g id="a_node16"><a xlink:href="group__grp__conjugate__gradient.html#ga25a3bae2ff2ee0469b045de0d033398b" target="_top" xlink:title="Use preconditioned conjugate gradient method to find minimum of energy functional.">
<polygon fill="white" stroke="black" points="255,-161.5 255,-180.5 303,-180.5 303,-161.5 255,-161.5"/>
<text text-anchor="middle" x="279" y="-168.5" font-family="Helvetica,sans-Serif" font-size="10.00">pc00aa</text>
</a>
</g>
</g>
<!-- Node15&#45;&gt;Node16 -->
<g id="edge33" class="edge">
<title>Node15&#45;&gt;Node16</title>
<path fill="none" stroke="midnightblue" d="M367.16,-171C346.81,-171 321.31,-171 303.16,-171"/>
<polygon fill="midnightblue" stroke="midnightblue" points="367.27,-174.5 377.27,-171 367.27,-167.5 367.27,-174.5"/>
</g>
<!-- Node16&#45;&gt;Node16 -->
<g id="edge34" class="edge">
<title>Node16&#45;&gt;Node16</title>
<path fill="none" stroke="midnightblue" d="M298.26,-190.4C296.97,-195.31 290.55,-199 279,-199 260.52,-199 255.17,-189.57 262.97,-180.76"/>
<polygon fill="midnightblue" stroke="midnightblue" points="301.52,-189.13 295.03,-180.76 294.89,-191.35 301.52,-189.13"/>
</g>
<!-- Node17&#45;&gt;Node1 -->
<g id="edge39" class="edge">
<title>Node17&#45;&gt;Node1</title>
<path fill="none" stroke="midnightblue" d="M605.12,-92.65C620.95,-92.96 637.92,-92.56 650.92,-91.46"/>
<polygon fill="midnightblue" stroke="midnightblue" points="605.03,-89.14 594.93,-92.34 604.81,-96.14 605.03,-89.14"/>
</g>
<!-- Node18&#45;&gt;Node1 -->
<g id="edge41" class="edge">
<title>Node18&#45;&gt;Node1</title>
<path fill="none" stroke="midnightblue" d="M582.66,-61.65C602.83,-69.89 631.35,-79.3 650.92,-84.13"/>
<polygon fill="midnightblue" stroke="midnightblue" points="583.8,-58.33 573.23,-57.59 581.04,-64.76 583.8,-58.33"/>
</g>
<!-- Node19&#45;&gt;Node1 -->
<g id="edge44" class="edge">
<title>Node19&#45;&gt;Node1</title>
<path fill="none" stroke="midnightblue" d="M580.92,-23.14C591.73,-27.06 604.57,-31.6 615,-38 632.33,-48.64 648.51,-65.34 659.36,-76.32"/>
<polygon fill="midnightblue" stroke="midnightblue" points="581.92,-19.78 571.33,-19.53 579.46,-26.33 581.92,-19.78"/>
</g>
</g>
</svg>
