<?xml version="1.0" encoding="UTF-8" standalone="no"?>
<!DOCTYPE svg PUBLIC "-//W3C//DTD SVG 1.1//EN"
 "http://www.w3.org/Graphics/SVG/1.1/DTD/svg11.dtd">
<!-- Generated by graphviz version 2.48.0 (0)
 -->
<!-- Title: get_perturbed_solution Pages: 1 -->
<svg width="836pt" height="435pt"
 viewBox="0.00 0.00 836.00 435.00" xmlns="http://www.w3.org/2000/svg" xmlns:xlink="http://www.w3.org/1999/xlink">
<g id="graph0" class="graph" transform="scale(1 1) rotate(0) translate(4 431)">
<title>get_perturbed_solution</title>
<polygon fill="white" stroke="transparent" points="-4,4 -4,-431 832,-431 832,4 -4,4"/>
<!-- Node1 -->
<g id="node1" class="node">
<title>Node1</title>
<g id="a_node1"><a xlink:title="This routine evaluates the value of the magnetic field once the interface is perturbed using matrix p...">
<polygon fill="#bfbfbf" stroke="black" points="713,-38.5 713,-57.5 828,-57.5 828,-38.5 713,-38.5"/>
<text text-anchor="middle" x="770.5" y="-45.5" font-family="Helvetica,sans-Serif" font-size="10.00">get_perturbed_solution</text>
</a>
</g>
</g>
<!-- Node2 -->
<g id="node2" class="node">
<title>Node2</title>
<g id="a_node2"><a xlink:href="dfp200_8f90.html#a55ea75395f8c71731451e1add3720c7e" target="_top" xlink:title="Given the field consistent with the constraints and the geometry, computes local quantites related to...">
<polygon fill="white" stroke="black" points="631,-38.5 631,-57.5 677,-57.5 677,-38.5 631,-38.5"/>
<text text-anchor="middle" x="654" y="-45.5" font-family="Helvetica,sans-Serif" font-size="10.00">dfp200</text>
</a>
</g>
</g>
<!-- Node1&#45;&gt;Node2 -->
<g id="edge1" class="edge">
<title>Node1&#45;&gt;Node2</title>
<path fill="none" stroke="midnightblue" d="M702.81,-41.33C693.57,-41.49 684.67,-41.9 677.11,-42.54"/>
<polygon fill="midnightblue" stroke="midnightblue" points="702.95,-44.83 712.92,-41.25 702.89,-37.83 702.95,-44.83"/>
</g>
<!-- Node2&#45;&gt;Node1 -->
<g id="edge35" class="edge">
<title>Node2&#45;&gt;Node1</title>
<path fill="none" stroke="midnightblue" d="M687.14,-54.14C695.19,-54.56 704.07,-54.76 712.92,-54.75"/>
<polygon fill="midnightblue" stroke="midnightblue" points="687.32,-50.64 677.11,-53.46 686.85,-57.62 687.32,-50.64"/>
</g>
<!-- Node3 -->
<g id="node3" class="node">
<title>Node3</title>
<g id="a_node3"><a xlink:href="group__grp__global__force.html#ga38c9d3c50bd043707fefa5137c9dbf44" target="_top" xlink:title="Calculates , where &#160;and , and .">
<polygon fill="white" stroke="black" points="525.5,-199.5 525.5,-218.5 569.5,-218.5 569.5,-199.5 525.5,-199.5"/>
<text text-anchor="middle" x="547.5" y="-206.5" font-family="Helvetica,sans-Serif" font-size="10.00">dforce</text>
</a>
</g>
</g>
<!-- Node2&#45;&gt;Node3 -->
<g id="edge2" class="edge">
<title>Node2&#45;&gt;Node3</title>
<path fill="none" stroke="midnightblue" d="M641.24,-66.12C619.09,-100.24 571.89,-172.96 554.82,-199.26"/>
<polygon fill="midnightblue" stroke="midnightblue" points="644.27,-67.88 646.78,-57.59 638.4,-64.07 644.27,-67.88"/>
</g>
<!-- Node14 -->
<g id="node14" class="node">
<title>Node14</title>
<g id="a_node14"><a xlink:href="dfp200_8f90.html#a6aca59cf350d7b1941f8389d50945a43" target="_top" xlink:title="get LU Beltrami matrices">
<polygon fill="white" stroke="black" points="339,-85.5 339,-104.5 464,-104.5 464,-85.5 339,-85.5"/>
<text text-anchor="middle" x="401.5" y="-92.5" font-family="Helvetica,sans-Serif" font-size="10.00">get_lu_beltrami_matrices</text>
</a>
</g>
</g>
<!-- Node2&#45;&gt;Node14 -->
<g id="edge34" class="edge">
<title>Node2&#45;&gt;Node14</title>
<path fill="none" stroke="midnightblue" d="M621.12,-50.84C612.71,-53.28 603.58,-55.99 595,-58 539.76,-70.96 474.12,-78.97 435.52,-85.49"/>
<polygon fill="midnightblue" stroke="midnightblue" points="622.27,-54.15 630.95,-48.08 620.37,-47.42 622.27,-54.15"/>
</g>
<!-- Node18 -->
<g id="node18" class="node">
<title>Node18</title>
<g id="a_node18"><a xlink:href="dfp200_8f90.html#a7b64c7392b45d0042d8bd7379c0761a5" target="_top" xlink:title="Evaluate the derivative of the square of the magnetic field modulus. Add spectral constraint derivati...">
<polygon fill="white" stroke="black" points="510.5,-38.5 510.5,-57.5 584.5,-57.5 584.5,-38.5 510.5,-38.5"/>
<text text-anchor="middle" x="547.5" y="-45.5" font-family="Helvetica,sans-Serif" font-size="10.00">evaluate_dbb</text>
</a>
</g>
</g>
<!-- Node2&#45;&gt;Node18 -->
<g id="edge30" class="edge">
<title>Node2&#45;&gt;Node18</title>
<path fill="none" stroke="midnightblue" d="M620.82,-41.71C609.36,-41.16 596.38,-41.1 584.61,-41.54"/>
<polygon fill="midnightblue" stroke="midnightblue" points="620.63,-45.21 630.84,-42.36 621.09,-38.22 620.63,-45.21"/>
</g>
<!-- Node19 -->
<g id="node19" class="node">
<title>Node19</title>
<g id="a_node19"><a xlink:href="dfp200_8f90.html#a73ddf39ecc5228201fb643779e17cd36" target="_top" xlink:title="Evaluate mu and psip derivatives and store them in dmupfdx.">
<polygon fill="white" stroke="black" points="500,-0.5 500,-19.5 595,-19.5 595,-0.5 500,-0.5"/>
<text text-anchor="middle" x="547.5" y="-7.5" font-family="Helvetica,sans-Serif" font-size="10.00">evaluate_dmupfdx</text>
</a>
</g>
</g>
<!-- Node2&#45;&gt;Node19 -->
<g id="edge32" class="edge">
<title>Node2&#45;&gt;Node19</title>
<path fill="none" stroke="midnightblue" d="M630.21,-34.03C619.42,-29.23 606.13,-24.06 593.43,-19.65"/>
<polygon fill="midnightblue" stroke="midnightblue" points="628.8,-37.23 639.34,-38.3 631.77,-30.89 628.8,-37.23"/>
</g>
<!-- Node4 -->
<g id="node4" class="node">
<title>Node4</title>
<g id="a_node4"><a xlink:href="namespaceallglobal.html#a7824bc37519fe88336534ce90ab2af16" target="_top" xlink:title=" ">
<polygon fill="white" stroke="black" points="344.5,-351.5 344.5,-370.5 458.5,-370.5 458.5,-351.5 344.5,-351.5"/>
<text text-anchor="middle" x="401.5" y="-358.5" font-family="Helvetica,sans-Serif" font-size="10.00">allglobal::check_inputs</text>
</a>
</g>
</g>
<!-- Node3&#45;&gt;Node4 -->
<g id="edge3" class="edge">
<title>Node3&#45;&gt;Node4</title>
<path fill="none" stroke="midnightblue" d="M538.75,-228.18C526.67,-255.84 500.85,-306.89 464,-337 456.46,-343.16 447.14,-347.88 438.07,-351.43"/>
<polygon fill="midnightblue" stroke="midnightblue" points="542.03,-229.39 542.7,-218.82 535.59,-226.67 542.03,-229.39"/>
</g>
<!-- Node7 -->
<g id="node7" class="node">
<title>Node7</title>
<g id="a_node7"><a xlink:href="xspech_8f90.html#a48f45478dc2c9f70ea8aa1c60ad06503" target="_top" xlink:title="This is the main &quot;driver&quot; for the physics part of SPEC.">
<polygon fill="white" stroke="black" points="155.5,-293.5 155.5,-312.5 193.5,-312.5 193.5,-293.5 155.5,-293.5"/>
<text text-anchor="middle" x="174.5" y="-300.5" font-family="Helvetica,sans-Serif" font-size="10.00">spec</text>
</a>
</g>
</g>
<!-- Node3&#45;&gt;Node7 -->
<g id="edge29" class="edge">
<title>Node3&#45;&gt;Node7</title>
<path fill="none" stroke="midnightblue" d="M530.06,-225.62C514.44,-240.4 489.6,-261.42 464,-273 369.72,-315.67 240.9,-309.17 193.74,-304.94"/>
<polygon fill="midnightblue" stroke="midnightblue" points="532.61,-228.02 537.34,-218.54 527.73,-223 532.61,-228.02"/>
</g>
<!-- Node10 -->
<g id="node10" class="node">
<title>Node10</title>
<g id="a_node10"><a xlink:href="group__grp__force__driver.html#gabbc245b3884ee8d8d3e2a52f25149f78" target="_top" xlink:title="fcn1">
<polygon fill="white" stroke="black" points="384,-199.5 384,-218.5 419,-218.5 419,-199.5 384,-199.5"/>
<text text-anchor="middle" x="401.5" y="-206.5" font-family="Helvetica,sans-Serif" font-size="10.00">fcn1</text>
</a>
</g>
</g>
<!-- Node3&#45;&gt;Node10 -->
<g id="edge12" class="edge">
<title>Node3&#45;&gt;Node10</title>
<path fill="none" stroke="midnightblue" d="M515.08,-209C485.64,-209 442.77,-209 419.34,-209"/>
<polygon fill="midnightblue" stroke="midnightblue" points="515.25,-212.5 525.25,-209 515.25,-205.5 515.25,-212.5"/>
</g>
<!-- Node11 -->
<g id="node11" class="node">
<title>Node11</title>
<g id="a_node11"><a xlink:href="group__grp__force__driver.html#gaec14f81fbdbedafbc4189489ec8ae178" target="_top" xlink:title="Employs Newton method to find , where &#160;and &#160;is defined in dforce() .">
<polygon fill="white" stroke="black" points="255,-218.5 255,-237.5 303,-237.5 303,-218.5 255,-218.5"/>
<text text-anchor="middle" x="279" y="-225.5" font-family="Helvetica,sans-Serif" font-size="10.00">newton</text>
</a>
</g>
</g>
<!-- Node3&#45;&gt;Node11 -->
<g id="edge26" class="edge">
<title>Node3&#45;&gt;Node11</title>
<path fill="none" stroke="midnightblue" d="M515.38,-217.92C500.05,-221.86 481.21,-226.04 464,-228 406.39,-234.55 337.98,-231.81 303.04,-229.66"/>
<polygon fill="midnightblue" stroke="midnightblue" points="516.6,-221.22 525.36,-215.26 514.8,-214.45 516.6,-221.22"/>
</g>
<!-- Node12 -->
<g id="node12" class="node">
<title>Node12</title>
<g id="a_node12"><a xlink:href="group__grp__force__driver.html#ga8ccd6c7d901872702521d0a0edf95412" target="_top" xlink:title="fcn2">
<polygon fill="white" stroke="black" points="29.5,-223.5 29.5,-242.5 64.5,-242.5 64.5,-223.5 29.5,-223.5"/>
<text text-anchor="middle" x="47" y="-230.5" font-family="Helvetica,sans-Serif" font-size="10.00">fcn2</text>
</a>
</g>
</g>
<!-- Node3&#45;&gt;Node12 -->
<g id="edge21" class="edge">
<title>Node3&#45;&gt;Node12</title>
<path fill="none" stroke="midnightblue" d="M515.38,-200.08C500.05,-196.14 481.21,-191.96 464,-190 316.51,-173.24 274.14,-154.5 130,-190 103.93,-196.42 76.98,-212.76 61.39,-223.35"/>
<polygon fill="midnightblue" stroke="midnightblue" points="514.8,-203.55 525.36,-202.74 516.6,-196.78 514.8,-203.55"/>
</g>
<!-- Node3&#45;&gt;Node14 -->
<g id="edge22" class="edge">
<title>Node3&#45;&gt;Node14</title>
<path fill="none" stroke="midnightblue" d="M535.32,-190.85C521.24,-169.46 495.08,-134.26 464,-114 458.1,-110.16 451.38,-107.05 444.6,-104.56"/>
<polygon fill="midnightblue" stroke="midnightblue" points="532.42,-192.81 540.76,-199.35 538.32,-189.04 532.42,-192.81"/>
</g>
<!-- Node15 -->
<g id="node15" class="node">
<title>Node15</title>
<g id="a_node15"><a xlink:href="group__grp__diagnostics.html#ga7401b50ec10c6598ee4a8112717a63ec" target="_top" xlink:title="Computes eigenvalues and eigenvectors of derivative matrix, .">
<polygon fill="white" stroke="black" points="256.5,-275.5 256.5,-294.5 301.5,-294.5 301.5,-275.5 256.5,-275.5"/>
<text text-anchor="middle" x="279" y="-282.5" font-family="Helvetica,sans-Serif" font-size="10.00">hesian</text>
</a>
</g>
</g>
<!-- Node3&#45;&gt;Node15 -->
<g id="edge24" class="edge">
<title>Node3&#45;&gt;Node15</title>
<path fill="none" stroke="midnightblue" d="M517.74,-222.73C502.11,-229.8 482.28,-238.14 464,-244 406.5,-262.43 336.31,-275.59 301.59,-281.51"/>
<polygon fill="midnightblue" stroke="midnightblue" points="519.26,-225.88 526.88,-218.52 516.33,-219.52 519.26,-225.88"/>
</g>
<!-- Node16 -->
<g id="node16" class="node">
<title>Node16</title>
<g id="a_node16"><a xlink:href="group__grp__conjugate__gradient.html#ga4d8415226e62a9fdb42b0fd0b464251e" target="_top" xlink:title="Returns the energy functional and it&#39;s derivatives with respect to geometry.">
<polygon fill="white" stroke="black" points="377.5,-123.5 377.5,-142.5 425.5,-142.5 425.5,-123.5 377.5,-123.5"/>
<text text-anchor="middle" x="401.5" y="-130.5" font-family="Helvetica,sans-Serif" font-size="10.00">pc00ab</text>
</a>
</g>
</g>
<!-- Node3&#45;&gt;Node16 -->
<g id="edge27" class="edge">
<title>Node3&#45;&gt;Node16</title>
<path fill="none" stroke="midnightblue" d="M524.67,-193.63C508.42,-182.59 485.43,-167.81 464,-157 451.72,-150.81 437.44,-145.14 425.73,-140.88"/>
<polygon fill="midnightblue" stroke="midnightblue" points="522.74,-196.55 532.96,-199.33 526.7,-190.78 522.74,-196.55"/>
</g>
<!-- Node5 -->
<g id="node5" class="node">
<title>Node5</title>
<g id="a_node5"><a xlink:href="xspech_8f90.html#a9fdc71dffd7c61ee4588a3f80d3ab9ce" target="_top" xlink:title="Main subroutine of SPEC.">
<polygon fill="white" stroke="black" points="255.5,-351.5 255.5,-370.5 302.5,-370.5 302.5,-351.5 255.5,-351.5"/>
<text text-anchor="middle" x="279" y="-358.5" font-family="Helvetica,sans-Serif" font-size="10.00">xspech</text>
</a>
</g>
</g>
<!-- Node4&#45;&gt;Node5 -->
<g id="edge4" class="edge">
<title>Node4&#45;&gt;Node5</title>
<path fill="none" stroke="midnightblue" d="M334.45,-361C323.06,-361 311.95,-361 302.77,-361"/>
<polygon fill="midnightblue" stroke="midnightblue" points="334.48,-364.5 344.48,-361 334.48,-357.5 334.48,-364.5"/>
</g>
<!-- Node6 -->
<g id="node6" class="node">
<title>Node6</title>
<g id="a_node6"><a xlink:href="xspech_8f90.html#a1451823a7b97101a797de616250752c1" target="_top" xlink:title="Final diagnostics.">
<polygon fill="white" stroke="black" points="130,-407.5 130,-426.5 219,-426.5 219,-407.5 130,-407.5"/>
<text text-anchor="middle" x="174.5" y="-414.5" font-family="Helvetica,sans-Serif" font-size="10.00">final_diagnostics</text>
</a>
</g>
</g>
<!-- Node5&#45;&gt;Node6 -->
<g id="edge5" class="edge">
<title>Node5&#45;&gt;Node6</title>
<path fill="none" stroke="midnightblue" d="M246.08,-372.13C225.23,-382.52 199.37,-397.35 185.47,-407.35"/>
<polygon fill="midnightblue" stroke="midnightblue" points="247.77,-375.21 255.25,-367.71 244.72,-368.9 247.77,-375.21"/>
</g>
<!-- Node5&#45;&gt;Node7 -->
<g id="edge7" class="edge">
<title>Node5&#45;&gt;Node7</title>
<path fill="none" stroke="midnightblue" d="M265.02,-344.4C253.33,-334.13 235.49,-321.97 219,-313 210.89,-308.59 201.55,-304.4 193.61,-301.84"/>
<polygon fill="midnightblue" stroke="midnightblue" points="262.72,-347.04 272.34,-351.46 267.58,-342 262.72,-347.04"/>
</g>
<!-- Node9 -->
<g id="node9" class="node">
<title>Node9</title>
<g id="a_node9"><a xlink:href="xspech_8f90.html#a95271e8805067f801b5d4e524d6901d4" target="_top" xlink:title="Main program of SPEC.">
<polygon fill="white" stroke="black" points="142.5,-331.5 142.5,-350.5 206.5,-350.5 206.5,-331.5 142.5,-331.5"/>
<text text-anchor="middle" x="174.5" y="-338.5" font-family="Helvetica,sans-Serif" font-size="10.00">spec_main</text>
</a>
</g>
</g>
<!-- Node5&#45;&gt;Node9 -->
<g id="edge11" class="edge">
<title>Node5&#45;&gt;Node9</title>
<path fill="none" stroke="midnightblue" d="M245.34,-354.63C232.98,-352.22 218.96,-349.48 206.74,-347.09"/>
<polygon fill="midnightblue" stroke="midnightblue" points="244.77,-358.08 255.25,-356.56 246.11,-351.21 244.77,-358.08"/>
</g>
<!-- Node6&#45;&gt;Node5 -->
<g id="edge6" class="edge">
<title>Node6&#45;&gt;Node5</title>
<path fill="none" stroke="midnightblue" d="M213.54,-402.76C233.19,-392.64 255.63,-379.6 268.17,-370.55"/>
<polygon fill="midnightblue" stroke="midnightblue" points="211.83,-399.71 204.46,-407.32 214.97,-405.96 211.83,-399.71"/>
</g>
<!-- Node7&#45;&gt;Node5 -->
<g id="edge10" class="edge">
<title>Node7&#45;&gt;Node5</title>
<path fill="none" stroke="midnightblue" d="M192.07,-317.54C200.33,-321.86 210.36,-326.3 219,-331 231.41,-337.74 244.57,-346.3 255.31,-352.86"/>
<polygon fill="midnightblue" stroke="midnightblue" points="193.8,-314.49 183.39,-312.52 190.3,-320.55 193.8,-314.49"/>
</g>
<!-- Node8 -->
<g id="node8" class="node">
<title>Node8</title>
<g id="a_node8"><a xlink:href="group__grp__output.html#ga0f962c09cd5d5eba99f1cba043cb3898" target="_top" xlink:title="Initialize the interface to the HDF5 library and open the output file.">
<polygon fill="white" stroke="black" points="0,-331.5 0,-350.5 94,-350.5 94,-331.5 0,-331.5"/>
<text text-anchor="middle" x="47" y="-338.5" font-family="Helvetica,sans-Serif" font-size="10.00">sphdf5::init_outfile</text>
</a>
</g>
</g>
<!-- Node7&#45;&gt;Node8 -->
<g id="edge8" class="edge">
<title>Node7&#45;&gt;Node8</title>
<path fill="none" stroke="midnightblue" d="M145.67,-311.43C126.05,-317.37 99.76,-325.33 79.39,-331.49"/>
<polygon fill="midnightblue" stroke="midnightblue" points="146.69,-314.77 155.25,-308.53 144.67,-308.07 146.69,-314.77"/>
</g>
<!-- Node8&#45;&gt;Node5 -->
<g id="edge9" class="edge">
<title>Node8&#45;&gt;Node5</title>
<path fill="none" stroke="midnightblue" d="M91.64,-352.99C103.95,-355.86 117.41,-358.52 130,-360 174.15,-365.2 226.22,-363.83 255.34,-362.39"/>
<polygon fill="midnightblue" stroke="midnightblue" points="92.16,-349.52 81.62,-350.56 90.51,-356.32 92.16,-349.52"/>
</g>
<!-- Node10&#45;&gt;Node11 -->
<g id="edge13" class="edge">
<title>Node10&#45;&gt;Node11</title>
<path fill="none" stroke="midnightblue" d="M373.51,-207.52C352.38,-209.41 323.31,-214.09 303.22,-218.88"/>
<polygon fill="midnightblue" stroke="midnightblue" points="374.02,-210.99 383.74,-206.8 373.52,-204.01 374.02,-210.99"/>
</g>
<!-- Node11&#45;&gt;Node7 -->
<g id="edge17" class="edge">
<title>Node11&#45;&gt;Node7</title>
<path fill="none" stroke="midnightblue" d="M260.61,-244.74C249.26,-255.23 233.84,-268.66 219,-279 211.07,-284.52 201.76,-289.81 193.78,-294"/>
<polygon fill="midnightblue" stroke="midnightblue" points="263.2,-247.11 268.09,-237.71 258.4,-242.01 263.2,-247.11"/>
</g>
<!-- Node11&#45;&gt;Node10 -->
<g id="edge14" class="edge">
<title>Node11&#45;&gt;Node10</title>
<path fill="none" stroke="midnightblue" d="M313.21,-228.87C336.11,-226.43 365.58,-221.36 383.74,-216.49"/>
<polygon fill="midnightblue" stroke="midnightblue" points="312.85,-225.39 303.22,-229.8 313.5,-232.36 312.85,-225.39"/>
</g>
<!-- Node11&#45;&gt;Node12 -->
<g id="edge15" class="edge">
<title>Node11&#45;&gt;Node12</title>
<path fill="none" stroke="midnightblue" d="M244.39,-223.79C194.39,-222.11 102.25,-224.52 64.65,-228.92"/>
<polygon fill="midnightblue" stroke="midnightblue" points="244.54,-227.3 254.68,-224.23 244.84,-220.31 244.54,-227.3"/>
</g>
<!-- Node13 -->
<g id="node13" class="node">
<title>Node13</title>
<g id="a_node13"><a xlink:href="group__grp__force__driver.html#ga382822b303cbf8c56d6f54dcb379caf2" target="_top" xlink:title="read or write force&#45;derivative matrix">
<polygon fill="white" stroke="black" points="142,-199.5 142,-218.5 207,-218.5 207,-199.5 142,-199.5"/>
<text text-anchor="middle" x="174.5" y="-206.5" font-family="Helvetica,sans-Serif" font-size="10.00">writereadgf</text>
</a>
</g>
</g>
<!-- Node11&#45;&gt;Node13 -->
<g id="edge18" class="edge">
<title>Node11&#45;&gt;Node13</title>
<path fill="none" stroke="midnightblue" d="M246.76,-215.94C234.23,-212.98 219.81,-210.3 207.23,-208.59"/>
<polygon fill="midnightblue" stroke="midnightblue" points="246.21,-219.41 256.76,-218.47 247.93,-212.62 246.21,-219.41"/>
</g>
<!-- Node12&#45;&gt;Node11 -->
<g id="edge16" class="edge">
<title>Node12&#45;&gt;Node11</title>
<path fill="none" stroke="midnightblue" d="M74.91,-236.94C120.41,-239 211.74,-236.93 254.68,-232.78"/>
<polygon fill="midnightblue" stroke="midnightblue" points="74.83,-233.43 64.65,-236.35 74.43,-240.42 74.83,-233.43"/>
</g>
<!-- Node13&#45;&gt;Node11 -->
<g id="edge20" class="edge">
<title>Node13&#45;&gt;Node11</title>
<path fill="none" stroke="midnightblue" d="M206.43,-220.99C222.05,-224.68 240.67,-227.96 255,-229.48"/>
<polygon fill="midnightblue" stroke="midnightblue" points="207.23,-217.58 196.68,-218.51 205.51,-224.37 207.23,-217.58"/>
</g>
<!-- Node13&#45;&gt;Node12 -->
<g id="edge19" class="edge">
<title>Node13&#45;&gt;Node12</title>
<path fill="none" stroke="midnightblue" d="M131.96,-216.94C108.99,-221.34 81.73,-226.55 64.64,-229.82"/>
<polygon fill="midnightblue" stroke="midnightblue" points="132.67,-220.37 141.83,-215.06 131.35,-213.5 132.67,-220.37"/>
</g>
<!-- Node14&#45;&gt;Node2 -->
<g id="edge23" class="edge">
<title>Node14&#45;&gt;Node2</title>
<path fill="none" stroke="midnightblue" d="M474.18,-95.62C510.63,-92.01 555.48,-85.27 595,-76 612.74,-71.84 632.83,-64.69 644.1,-57.72"/>
<polygon fill="midnightblue" stroke="midnightblue" points="473.76,-92.14 464.13,-96.55 474.41,-99.11 473.76,-92.14"/>
</g>
<!-- Node15&#45;&gt;Node7 -->
<g id="edge25" class="edge">
<title>Node15&#45;&gt;Node7</title>
<path fill="none" stroke="midnightblue" d="M246.08,-290.61C228.88,-293.63 208.27,-297.24 193.78,-299.79"/>
<polygon fill="midnightblue" stroke="midnightblue" points="247.02,-293.99 256.26,-288.82 245.81,-287.1 247.02,-293.99"/>
</g>
<!-- Node17 -->
<g id="node17" class="node">
<title>Node17</title>
<g id="a_node17"><a xlink:href="group__grp__conjugate__gradient.html#ga25a3bae2ff2ee0469b045de0d033398b" target="_top" xlink:title="Use preconditioned conjugate gradient method to find minimum of energy functional.">
<polygon fill="white" stroke="black" points="255,-123.5 255,-142.5 303,-142.5 303,-123.5 255,-123.5"/>
<text text-anchor="middle" x="279" y="-130.5" font-family="Helvetica,sans-Serif" font-size="10.00">pc00aa</text>
</a>
</g>
</g>
<!-- Node16&#45;&gt;Node17 -->
<g id="edge28" class="edge">
<title>Node16&#45;&gt;Node17</title>
<path fill="none" stroke="midnightblue" d="M367.16,-133C346.81,-133 321.31,-133 303.16,-133"/>
<polygon fill="midnightblue" stroke="midnightblue" points="367.27,-136.5 377.27,-133 367.27,-129.5 367.27,-136.5"/>
</g>
<!-- Node18&#45;&gt;Node2 -->
<g id="edge31" class="edge">
<title>Node18&#45;&gt;Node2</title>
<path fill="none" stroke="midnightblue" d="M594.93,-54.71C607.42,-54.87 620.35,-54.51 630.84,-53.64"/>
<polygon fill="midnightblue" stroke="midnightblue" points="594.69,-51.21 584.61,-54.46 594.52,-58.2 594.69,-51.21"/>
</g>
<!-- Node19&#45;&gt;Node2 -->
<g id="edge33" class="edge">
<title>Node19&#45;&gt;Node2</title>
<path fill="none" stroke="midnightblue" d="M571.55,-24.09C589.21,-31.92 613.41,-40.7 630.84,-45.58"/>
<polygon fill="midnightblue" stroke="midnightblue" points="572.55,-20.7 562.01,-19.63 569.59,-27.04 572.55,-20.7"/>
</g>
</g>
</svg>
