<?xml version="1.0" encoding="UTF-8" standalone="no"?>
<!DOCTYPE svg PUBLIC "-//W3C//DTD SVG 1.1//EN"
 "http://www.w3.org/Graphics/SVG/1.1/DTD/svg11.dtd">
<!-- Generated by graphviz version 2.47.0 (20210407.0042)
 -->
<!-- Title: get_lu_beltrami_matrices Pages: 1 -->
<svg width="834pt" height="279pt"
 viewBox="0.00 0.00 834.00 278.83" xmlns="http://www.w3.org/2000/svg" xmlns:xlink="http://www.w3.org/1999/xlink">
<g id="graph0" class="graph" transform="scale(1 1) rotate(0) translate(4 274.83)">
<title>get_lu_beltrami_matrices</title>
<polygon fill="white" stroke="transparent" points="-4,4 -4,-274.83 830,-274.83 830,4 -4,4"/>
<!-- Node1 -->
<g id="node1" class="node">
<title>Node1</title>
<g id="a_node1"><a xlink:title="get LU Beltrami matrices">
<polygon fill="#bfbfbf" stroke="black" points="701,-59.75 701,-78.75 826,-78.75 826,-59.75 701,-59.75"/>
<text text-anchor="middle" x="763.5" y="-66.75" font-family="Helvetica,sans-Serif" font-size="10.00">get_lu_beltrami_matrices</text>
</a>
</g>
</g>
<!-- Node2 -->
<g id="node2" class="node">
<title>Node2</title>
<g id="a_node2"><a xlink:href="dfp200_8f90.html#a55ea75395f8c71731451e1add3720c7e" target="_top" xlink:title="Given the field consistent with the constraints and the geometry, computes local quantites related to...">
<polygon fill="white" stroke="black" points="619,-59.75 619,-78.75 665,-78.75 665,-59.75 619,-59.75"/>
<text text-anchor="middle" x="642" y="-66.75" font-family="Helvetica,sans-Serif" font-size="10.00">dfp200</text>
</a>
</g>
</g>
<!-- Node1&#45;&gt;Node2 -->
<g id="edge1" class="edge">
<title>Node1&#45;&gt;Node2</title>
<path fill="none" stroke="midnightblue" d="M690.86,-62.62C681.62,-62.81 672.77,-63.22 665.25,-63.86"/>
<polygon fill="midnightblue" stroke="midnightblue" points="691.04,-66.12 701,-62.51 690.96,-59.12 691.04,-66.12"/>
</g>
<!-- Node2&#45;&gt;Node1 -->
<g id="edge31" class="edge">
<title>Node2&#45;&gt;Node1</title>
<path fill="none" stroke="midnightblue" d="M675.23,-75.32C683.24,-75.75 692.09,-75.97 701,-76"/>
<polygon fill="midnightblue" stroke="midnightblue" points="675.46,-71.83 665.25,-74.64 674.99,-78.81 675.46,-71.83"/>
</g>
<!-- Node3 -->
<g id="node3" class="node">
<title>Node3</title>
<g id="a_node3"><a xlink:href="group__grp__global__force.html#ga38c9d3c50bd043707fefa5137c9dbf44" target="_top" xlink:title="Calculates , where &#160;and , and .">
<polygon fill="white" stroke="black" points="503.5,-126.75 503.5,-145.75 547.5,-145.75 547.5,-126.75 503.5,-126.75"/>
<text text-anchor="middle" x="525.5" y="-133.75" font-family="Helvetica,sans-Serif" font-size="10.00">dforce</text>
</a>
</g>
</g>
<!-- Node2&#45;&gt;Node3 -->
<g id="edge2" class="edge">
<title>Node2&#45;&gt;Node3</title>
<path fill="none" stroke="midnightblue" d="M624.04,-86.16C613.09,-96.31 598.11,-108.84 583,-117.25 571.97,-123.39 558.62,-128 547.67,-131.13"/>
<polygon fill="midnightblue" stroke="midnightblue" points="626.75,-88.41 631.56,-78.97 621.92,-83.35 626.75,-88.41"/>
</g>
<!-- Node15 -->
<g id="node15" class="node">
<title>Node15</title>
<g id="a_node15"><a xlink:href="dfp200_8f90.html#a7b64c7392b45d0042d8bd7379c0761a5" target="_top" xlink:title="Evaluate the derivative of the square of the magnetic field modulus. Add spectral constraint derivati...">
<polygon fill="white" stroke="black" points="488.5,-50.75 488.5,-69.75 562.5,-69.75 562.5,-50.75 488.5,-50.75"/>
<text text-anchor="middle" x="525.5" y="-57.75" font-family="Helvetica,sans-Serif" font-size="10.00">evaluate_dbb</text>
</a>
</g>
</g>
<!-- Node2&#45;&gt;Node15 -->
<g id="edge27" class="edge">
<title>Node2&#45;&gt;Node15</title>
<path fill="none" stroke="midnightblue" d="M609.03,-60.61C594.7,-58.73 577.74,-57.33 562.93,-56.78"/>
<polygon fill="midnightblue" stroke="midnightblue" points="608.52,-64.08 618.92,-62.06 609.54,-57.15 608.52,-64.08"/>
</g>
<!-- Node16 -->
<g id="node16" class="node">
<title>Node16</title>
<g id="a_node16"><a xlink:href="dfp200_8f90.html#a73ddf39ecc5228201fb643779e17cd36" target="_top" xlink:title="Evaluate mu and psip derivatives and store them in dmupfdx.">
<polygon fill="white" stroke="black" points="478,-12.75 478,-31.75 573,-31.75 573,-12.75 478,-12.75"/>
<text text-anchor="middle" x="525.5" y="-19.75" font-family="Helvetica,sans-Serif" font-size="10.00">evaluate_dmupfdx</text>
</a>
</g>
</g>
<!-- Node2&#45;&gt;Node16 -->
<g id="edge29" class="edge">
<title>Node2&#45;&gt;Node16</title>
<path fill="none" stroke="midnightblue" d="M625.88,-53.89C614.31,-46.39 597.87,-38.31 583,-32.25 579.84,-30.96 576.55,-29.69 573.23,-28.47"/>
<polygon fill="midnightblue" stroke="midnightblue" points="623.83,-56.73 633.99,-59.75 627.92,-51.06 623.83,-56.73"/>
</g>
<!-- Node17 -->
<g id="node17" class="node">
<title>Node17</title>
<g id="a_node17"><a xlink:href="dfp200_8f90.html#a5e56f1f4b1e6df11a9cffa6237c37469" target="_top" xlink:title="This routine evaluates the value of the magnetic field once the interface is perturbed using matrix p...">
<polygon fill="white" stroke="black" points="468,-88.75 468,-107.75 583,-107.75 583,-88.75 468,-88.75"/>
<text text-anchor="middle" x="525.5" y="-95.75" font-family="Helvetica,sans-Serif" font-size="10.00">get_perturbed_solution</text>
</a>
</g>
</g>
<!-- Node2&#45;&gt;Node17 -->
<g id="edge32" class="edge">
<title>Node2&#45;&gt;Node17</title>
<path fill="none" stroke="midnightblue" d="M608.89,-71.25C588.02,-75.45 561.59,-82.5 544.37,-88.66"/>
<polygon fill="midnightblue" stroke="midnightblue" points="609.73,-74.65 618.92,-69.39 608.45,-67.77 609.73,-74.65"/>
</g>
<!-- Node3&#45;&gt;Node1 -->
<g id="edge15" class="edge">
<title>Node3&#45;&gt;Node1</title>
<path fill="none" stroke="midnightblue" d="M557.33,-127.5C601.67,-114.91 683.13,-91.79 728.94,-78.78"/>
<polygon fill="midnightblue" stroke="midnightblue" points="556.35,-124.14 547.68,-130.24 558.26,-130.87 556.35,-124.14"/>
</g>
<!-- Node4 -->
<g id="node4" class="node">
<title>Node4</title>
<g id="a_node4"><a xlink:href="group__grp__force__driver.html#gabbc245b3884ee8d8d3e2a52f25149f78" target="_top" xlink:title="fcn1">
<polygon fill="white" stroke="black" points="373,-202.75 373,-221.75 408,-221.75 408,-202.75 373,-202.75"/>
<text text-anchor="middle" x="390.5" y="-209.75" font-family="Helvetica,sans-Serif" font-size="10.00">fcn1</text>
</a>
</g>
</g>
<!-- Node3&#45;&gt;Node4 -->
<g id="edge3" class="edge">
<title>Node3&#45;&gt;Node4</title>
<path fill="none" stroke="midnightblue" d="M498.85,-150.91C472.13,-166.18 431.02,-189.67 408.21,-202.71"/>
<polygon fill="midnightblue" stroke="midnightblue" points="500.71,-153.88 507.66,-145.88 497.24,-147.8 500.71,-153.88"/>
</g>
<!-- Node5 -->
<g id="node5" class="node">
<title>Node5</title>
<g id="a_node5"><a xlink:href="group__grp__force__driver.html#gaec14f81fbdbedafbc4189489ec8ae178" target="_top" xlink:title="Employs Newton method to find , where &#160;and &#160;is defined in dforce() .">
<polygon fill="white" stroke="black" points="265,-202.75 265,-221.75 313,-221.75 313,-202.75 265,-202.75"/>
<text text-anchor="middle" x="289" y="-209.75" font-family="Helvetica,sans-Serif" font-size="10.00">newton</text>
</a>
</g>
</g>
<!-- Node3&#45;&gt;Node5 -->
<g id="edge18" class="edge">
<title>Node3&#45;&gt;Node5</title>
<path fill="none" stroke="midnightblue" d="M493.5,-146.3C445.79,-161.76 355.46,-191.04 313.07,-204.78"/>
<polygon fill="midnightblue" stroke="midnightblue" points="494.84,-149.54 503.28,-143.13 492.68,-142.88 494.84,-149.54"/>
</g>
<!-- Node6 -->
<g id="node6" class="node">
<title>Node6</title>
<g id="a_node6"><a xlink:href="group__grp__force__driver.html#ga8ccd6c7d901872702521d0a0edf95412" target="_top" xlink:title="fcn2">
<polygon fill="white" stroke="black" points="87,-249.75 87,-268.75 122,-268.75 122,-249.75 87,-249.75"/>
<text text-anchor="middle" x="104.5" y="-256.75" font-family="Helvetica,sans-Serif" font-size="10.00">fcn2</text>
</a>
</g>
</g>
<!-- Node3&#45;&gt;Node6 -->
<g id="edge14" class="edge">
<title>Node3&#45;&gt;Node6</title>
<path fill="none" stroke="midnightblue" d="M512.65,-154.26C497.02,-176.38 467.33,-213.19 432,-231.25 325.12,-285.91 172.62,-269.49 122.31,-262.03"/>
<polygon fill="midnightblue" stroke="midnightblue" points="515.69,-156 518.46,-145.77 509.92,-152.05 515.69,-156"/>
</g>
<!-- Node8 -->
<g id="node8" class="node">
<title>Node8</title>
<g id="a_node8"><a xlink:href="xspech_8f90.html#aea782eae089760a491c2c54f9903abcc" target="_top" xlink:title="Main program of SPEC.">
<polygon fill="white" stroke="black" points="81,-88.75 81,-107.75 128,-107.75 128,-88.75 81,-88.75"/>
<text text-anchor="middle" x="104.5" y="-95.75" font-family="Helvetica,sans-Serif" font-size="10.00">xspech</text>
</a>
</g>
</g>
<!-- Node3&#45;&gt;Node8 -->
<g id="edge26" class="edge">
<title>Node3&#45;&gt;Node8</title>
<path fill="none" stroke="midnightblue" d="M493.68,-131.16C484.49,-128.35 475.01,-124 468,-117.25 435.47,-85.93 467.01,-50.76 432,-22.25 390.47,11.57 366.39,-7.49 313,-3.25 291.73,-1.57 285.57,2.41 265,-3.25 203.16,-20.27 141.08,-68.24 116.5,-88.75"/>
<polygon fill="midnightblue" stroke="midnightblue" points="492.85,-134.56 503.41,-133.64 494.58,-127.78 492.85,-134.56"/>
</g>
<!-- Node10 -->
<g id="node10" class="node">
<title>Node10</title>
<g id="a_node10"><a xlink:href="group__grp__diagnostics.html#ga7401b50ec10c6598ee4a8112717a63ec" target="_top" xlink:title="Computes eigenvalues and eigenvectors of derivative matrix, .">
<polygon fill="white" stroke="black" points="174,-126.75 174,-145.75 219,-145.75 219,-126.75 174,-126.75"/>
<text text-anchor="middle" x="196.5" y="-133.75" font-family="Helvetica,sans-Serif" font-size="10.00">hesian</text>
</a>
</g>
</g>
<!-- Node3&#45;&gt;Node10 -->
<g id="edge16" class="edge">
<title>Node3&#45;&gt;Node10</title>
<path fill="none" stroke="midnightblue" d="M492.82,-136.25C426.64,-136.25 275.25,-136.25 219.03,-136.25"/>
<polygon fill="midnightblue" stroke="midnightblue" points="493.04,-139.75 503.04,-136.25 493.04,-132.75 493.04,-139.75"/>
</g>
<!-- Node11 -->
<g id="node11" class="node">
<title>Node11</title>
<g id="a_node11"><a xlink:href="group__grp__conjugate__gradient.html#ga4d8415226e62a9fdb42b0fd0b464251e" target="_top" xlink:title="Returns the energy functional and it&#39;s derivatives with respect to geometry.">
<polygon fill="white" stroke="black" points="366.5,-31.75 366.5,-50.75 414.5,-50.75 414.5,-31.75 366.5,-31.75"/>
<text text-anchor="middle" x="390.5" y="-38.75" font-family="Helvetica,sans-Serif" font-size="10.00">pc00ab</text>
</a>
</g>
</g>
<!-- Node3&#45;&gt;Node11 -->
<g id="edge19" class="edge">
<title>Node3&#45;&gt;Node11</title>
<path fill="none" stroke="midnightblue" d="M493.47,-128.82C484.83,-125.97 475.71,-122.18 468,-117.25 448.39,-104.73 448.49,-95.66 432,-79.25 422.02,-69.32 410.25,-58.36 401.98,-50.77"/>
<polygon fill="midnightblue" stroke="midnightblue" points="492.7,-132.24 503.28,-131.74 494.7,-125.53 492.7,-132.24"/>
</g>
<!-- Node13 -->
<g id="node13" class="node">
<title>Node13</title>
<g id="a_node13"><a xlink:href="namespaceallglobal.html#ad32ae6194892fe7d876622a6455189e2" target="_top" xlink:title="The master node reads the input namelist and sets various internal variables. The relevant quantities...">
<polygon fill="white" stroke="black" points="349,-88.75 349,-107.75 432,-107.75 432,-88.75 349,-88.75"/>
<text text-anchor="middle" x="390.5" y="-95.75" font-family="Helvetica,sans-Serif" font-size="10.00">allglobal::readin</text>
</a>
</g>
</g>
<!-- Node3&#45;&gt;Node13 -->
<g id="edge21" class="edge">
<title>Node3&#45;&gt;Node13</title>
<path fill="none" stroke="midnightblue" d="M493.61,-127.43C473.03,-121.55 445.99,-113.82 424.91,-107.8"/>
<polygon fill="midnightblue" stroke="midnightblue" points="492.85,-130.85 503.43,-130.23 494.77,-124.12 492.85,-130.85"/>
</g>
<!-- Node4&#45;&gt;Node5 -->
<g id="edge4" class="edge">
<title>Node4&#45;&gt;Node5</title>
<path fill="none" stroke="midnightblue" d="M362.65,-206.18C347.25,-205.2 328.09,-205.28 313.31,-206.43"/>
<polygon fill="midnightblue" stroke="midnightblue" points="362.36,-209.67 372.62,-207.04 362.96,-202.7 362.36,-209.67"/>
</g>
<!-- Node5&#45;&gt;Node4 -->
<g id="edge5" class="edge">
<title>Node5&#45;&gt;Node4</title>
<path fill="none" stroke="midnightblue" d="M323.67,-218.68C340.14,-219.36 359.25,-218.96 372.62,-217.47"/>
<polygon fill="midnightblue" stroke="midnightblue" points="323.5,-215.16 313.31,-218.07 323.09,-222.15 323.5,-215.16"/>
</g>
<!-- Node5&#45;&gt;Node6 -->
<g id="edge6" class="edge">
<title>Node5&#45;&gt;Node6</title>
<path fill="none" stroke="midnightblue" d="M255,-214.74C246.57,-217.15 237.49,-219.93 229,-222.25 191.26,-232.59 146.29,-242.09 122.4,-249.94"/>
<polygon fill="midnightblue" stroke="midnightblue" points="256.16,-218.05 264.88,-212.04 254.31,-211.3 256.16,-218.05"/>
</g>
<!-- Node7 -->
<g id="node7" class="node">
<title>Node7</title>
<g id="a_node7"><a xlink:href="group__grp__force__driver.html#ga382822b303cbf8c56d6f54dcb379caf2" target="_top" xlink:title="read or write force&#45;derivative matrix">
<polygon fill="white" stroke="black" points="164,-202.75 164,-221.75 229,-221.75 229,-202.75 164,-202.75"/>
<text text-anchor="middle" x="196.5" y="-209.75" font-family="Helvetica,sans-Serif" font-size="10.00">writereadgf</text>
</a>
</g>
</g>
<!-- Node5&#45;&gt;Node7 -->
<g id="edge8" class="edge">
<title>Node5&#45;&gt;Node7</title>
<path fill="none" stroke="midnightblue" d="M254.6,-205.71C246.31,-205.41 237.46,-205.43 229.25,-205.78"/>
<polygon fill="midnightblue" stroke="midnightblue" points="254.52,-209.21 264.69,-206.26 254.9,-202.22 254.52,-209.21"/>
</g>
<!-- Node5&#45;&gt;Node8 -->
<g id="edge11" class="edge">
<title>Node5&#45;&gt;Node8</title>
<path fill="none" stroke="midnightblue" d="M255.42,-200.81C229.43,-190.88 192.75,-174.99 164,-155.25 143.89,-141.45 124.4,-120.46 113.77,-108.18"/>
<polygon fill="midnightblue" stroke="midnightblue" points="254.23,-204.1 264.82,-204.33 256.68,-197.55 254.23,-204.1"/>
</g>
<!-- Node6&#45;&gt;Node5 -->
<g id="edge7" class="edge">
<title>Node6&#45;&gt;Node5</title>
<path fill="none" stroke="midnightblue" d="M132.63,-260.82C157.76,-257.62 196.12,-249.25 229,-240.25 246.64,-235.42 266.87,-228.63 278.47,-221.97"/>
<polygon fill="midnightblue" stroke="midnightblue" points="131.98,-257.37 122.4,-261.89 132.71,-264.34 131.98,-257.37"/>
</g>
<!-- Node7&#45;&gt;Node5 -->
<g id="edge10" class="edge">
<title>Node7&#45;&gt;Node5</title>
<path fill="none" stroke="midnightblue" d="M239.33,-218.99C248.05,-219.07 256.94,-218.82 264.69,-218.24"/>
<polygon fill="midnightblue" stroke="midnightblue" points="239.34,-215.48 229.25,-218.73 239.16,-222.48 239.34,-215.48"/>
</g>
<!-- Node7&#45;&gt;Node6 -->
<g id="edge9" class="edge">
<title>Node7&#45;&gt;Node6</title>
<path fill="none" stroke="midnightblue" d="M168.41,-226.4C153.36,-234.26 135.12,-243.78 122.17,-250.55"/>
<polygon fill="midnightblue" stroke="midnightblue" points="170.04,-229.5 177.29,-221.76 166.8,-223.29 170.04,-229.5"/>
</g>
<!-- Node9 -->
<g id="node9" class="node">
<title>Node9</title>
<g id="a_node9"><a xlink:href="xspech_8f90.html#a537af4990058c0b0f2cd8b3669af204f" target="_top" xlink:title="todo remark">
<polygon fill="white" stroke="black" points="0,-88.75 0,-107.75 45,-107.75 45,-88.75 0,-88.75"/>
<text text-anchor="middle" x="22.5" y="-95.75" font-family="Helvetica,sans-Serif" font-size="10.00">ending</text>
</a>
</g>
</g>
<!-- Node8&#45;&gt;Node9 -->
<g id="edge12" class="edge">
<title>Node8&#45;&gt;Node9</title>
<path fill="none" stroke="midnightblue" d="M70.65,-91.6C62.06,-91.36 53.01,-91.56 45.17,-92.18"/>
<polygon fill="midnightblue" stroke="midnightblue" points="70.63,-95.1 80.79,-92.1 70.97,-88.11 70.63,-95.1"/>
</g>
<!-- Node9&#45;&gt;Node8 -->
<g id="edge13" class="edge">
<title>Node9&#45;&gt;Node8</title>
<path fill="none" stroke="midnightblue" d="M55.22,-104.87C63.77,-105.14 72.84,-104.99 80.79,-104.41"/>
<polygon fill="midnightblue" stroke="midnightblue" points="55.34,-101.37 45.17,-104.33 54.96,-108.36 55.34,-101.37"/>
</g>
<!-- Node10&#45;&gt;Node8 -->
<g id="edge17" class="edge">
<title>Node10&#45;&gt;Node8</title>
<path fill="none" stroke="midnightblue" d="M164.49,-123.16C152.51,-118.1 139.06,-112.42 128.03,-107.76"/>
<polygon fill="midnightblue" stroke="midnightblue" points="163.14,-126.39 173.71,-127.05 165.86,-119.94 163.14,-126.39"/>
</g>
<!-- Node12 -->
<g id="node12" class="node">
<title>Node12</title>
<g id="a_node12"><a xlink:href="group__grp__conjugate__gradient.html#ga25a3bae2ff2ee0469b045de0d033398b" target="_top" xlink:title="Use preconditioned conjugate gradient method to find minimum of energy functional.">
<polygon fill="white" stroke="black" points="265,-12.75 265,-31.75 313,-31.75 313,-12.75 265,-12.75"/>
<text text-anchor="middle" x="289" y="-19.75" font-family="Helvetica,sans-Serif" font-size="10.00">pc00aa</text>
</a>
</g>
</g>
<!-- Node11&#45;&gt;Node12 -->
<g id="edge20" class="edge">
<title>Node11&#45;&gt;Node12</title>
<path fill="none" stroke="midnightblue" d="M356.55,-34.96C342.39,-32.26 326.18,-29.16 313.3,-26.7"/>
<polygon fill="midnightblue" stroke="midnightblue" points="355.94,-38.41 366.42,-36.85 357.26,-31.53 355.94,-38.41"/>
</g>
<!-- Node13&#45;&gt;Node8 -->
<g id="edge25" class="edge">
<title>Node13&#45;&gt;Node8</title>
<path fill="none" stroke="midnightblue" d="M348.8,-86.2C337.33,-83.33 324.77,-80.69 313,-79.25 246.03,-71.06 166.51,-84.89 128.27,-93"/>
<polygon fill="midnightblue" stroke="midnightblue" points="348,-89.6 358.56,-88.75 349.77,-82.83 348,-89.6"/>
</g>
<!-- Node14 -->
<g id="node14" class="node">
<title>Node14</title>
<g id="a_node14"><a xlink:href="group__grp__initialization.html#ga28628de0fdb3b3497668007d8d0643bd" target="_top" xlink:title="Allocates and initializes internal arrays.">
<polygon fill="white" stroke="black" points="267,-88.75 267,-107.75 311,-107.75 311,-88.75 267,-88.75"/>
<text text-anchor="middle" x="289" y="-95.75" font-family="Helvetica,sans-Serif" font-size="10.00">preset</text>
</a>
</g>
</g>
<!-- Node13&#45;&gt;Node14 -->
<g id="edge22" class="edge">
<title>Node13&#45;&gt;Node14</title>
<path fill="none" stroke="midnightblue" d="M338.68,-98.25C328.98,-98.25 319.33,-98.25 311.22,-98.25"/>
<polygon fill="midnightblue" stroke="midnightblue" points="338.74,-101.75 348.74,-98.25 338.74,-94.75 338.74,-101.75"/>
</g>
<!-- Node14&#45;&gt;Node8 -->
<g id="edge24" class="edge">
<title>Node14&#45;&gt;Node8</title>
<path fill="none" stroke="midnightblue" d="M256.59,-98.25C219.98,-98.25 160.4,-98.25 128.08,-98.25"/>
<polygon fill="midnightblue" stroke="midnightblue" points="256.71,-101.75 266.71,-98.25 256.71,-94.75 256.71,-101.75"/>
</g>
<!-- Node14&#45;&gt;Node10 -->
<g id="edge23" class="edge">
<title>Node14&#45;&gt;Node10</title>
<path fill="none" stroke="midnightblue" d="M256.98,-111.28C244.51,-116.51 230.43,-122.42 219.11,-127.18"/>
<polygon fill="midnightblue" stroke="midnightblue" points="258.69,-114.36 266.55,-107.26 255.98,-107.9 258.69,-114.36"/>
</g>
<!-- Node15&#45;&gt;Node2 -->
<g id="edge28" class="edge">
<title>Node15&#45;&gt;Node2</title>
<path fill="none" stroke="midnightblue" d="M573.12,-70.56C588.95,-72.12 605.92,-73.06 618.92,-72.98"/>
<polygon fill="midnightblue" stroke="midnightblue" points="573.25,-67.06 562.93,-69.45 572.49,-74.01 573.25,-67.06"/>
</g>
<!-- Node16&#45;&gt;Node2 -->
<g id="edge30" class="edge">
<title>Node16&#45;&gt;Node2</title>
<path fill="none" stroke="midnightblue" d="M545.79,-35.98C556.81,-40.57 570.82,-45.29 583,-50.25 595.11,-55.19 608.27,-61.46 618.99,-65.96"/>
<polygon fill="midnightblue" stroke="midnightblue" points="547.19,-32.77 536.64,-31.79 544.28,-39.13 547.19,-32.77"/>
</g>
<!-- Node17&#45;&gt;Node2 -->
<g id="edge33" class="edge">
<title>Node17&#45;&gt;Node2</title>
<path fill="none" stroke="midnightblue" d="M592.99,-88.08C604.08,-85.08 614.69,-81.86 623.11,-78.85"/>
<polygon fill="midnightblue" stroke="midnightblue" points="591.95,-84.74 583.16,-90.65 593.72,-91.51 591.95,-84.74"/>
</g>
</g>
</svg>
