<?xml version="1.0" encoding="UTF-8" standalone="no"?>
<!DOCTYPE svg PUBLIC "-//W3C//DTD SVG 1.1//EN"
 "http://www.w3.org/Graphics/SVG/1.1/DTD/svg11.dtd">
<!-- Generated by graphviz version 2.47.0 (20210316.2052)
 -->
<!-- Title: dfp200 Pages: 1 -->
<svg width="715pt" height="505pt"
 viewBox="0.00 0.00 715.00 505.37" xmlns="http://www.w3.org/2000/svg" xmlns:xlink="http://www.w3.org/1999/xlink">
<g id="graph0" class="graph" transform="scale(1 1) rotate(0) translate(4 501.37)">
<title>dfp200</title>
<polygon fill="white" stroke="transparent" points="-4,4 -4,-501.37 711,-501.37 711,4 -4,4"/>
<!-- Node1 -->
<g id="node1" class="node">
<title>Node1</title>
<g id="a_node1"><a xlink:title="Given the field consistent with the constraints and the geometry, computes local quantites related to...">
<polygon fill="#bfbfbf" stroke="black" points="661,-76.5 661,-95.5 707,-95.5 707,-76.5 661,-76.5"/>
<text text-anchor="middle" x="684" y="-83.5" font-family="Helvetica,sans-Serif" font-size="10.00">dfp200</text>
</a>
</g>
</g>
<!-- Node2 -->
<g id="node2" class="node">
<title>Node2</title>
<g id="a_node2"><a xlink:href="group__grp__global__force.html#ga38c9d3c50bd043707fefa5137c9dbf44" target="_top" xlink:title="Calculates , where &#160;and , and .">
<polygon fill="white" stroke="black" points="545.5,-237.5 545.5,-256.5 589.5,-256.5 589.5,-237.5 545.5,-237.5"/>
<text text-anchor="middle" x="567.5" y="-244.5" font-family="Helvetica,sans-Serif" font-size="10.00">dforce</text>
</a>
</g>
</g>
<!-- Node1&#45;&gt;Node2 -->
<g id="edge1" class="edge">
<title>Node1&#45;&gt;Node2</title>
<path fill="none" stroke="midnightblue" d="M670.11,-104.12C645.85,-138.24 594.13,-210.96 575.43,-237.26"/>
<polygon fill="midnightblue" stroke="midnightblue" points="673.24,-105.77 676.18,-95.59 667.53,-101.71 673.24,-105.77"/>
</g>
<!-- Node9 -->
<g id="node9" class="node">
<title>Node9</title>
<g id="a_node9"><a xlink:href="dfp200_8f90.html#a6aca59cf350d7b1941f8389d50945a43" target="_top" xlink:title="get LU Beltrami matrices">
<polygon fill="white" stroke="black" points="349,-123.5 349,-142.5 474,-142.5 474,-123.5 349,-123.5"/>
<text text-anchor="middle" x="411.5" y="-130.5" font-family="Helvetica,sans-Serif" font-size="10.00">get_lu_beltrami_matrices</text>
</a>
</g>
</g>
<!-- Node1&#45;&gt;Node9 -->
<g id="edge31" class="edge">
<title>Node1&#45;&gt;Node9</title>
<path fill="none" stroke="midnightblue" d="M651.14,-88.92C642.73,-91.35 633.59,-94.04 625,-96 565.13,-109.63 494.16,-117.32 451.27,-123.48"/>
<polygon fill="midnightblue" stroke="midnightblue" points="652.29,-92.23 660.96,-86.15 650.39,-85.5 652.29,-92.23"/>
</g>
<!-- Node15 -->
<g id="node15" class="node">
<title>Node15</title>
<g id="a_node15"><a xlink:href="dfp200_8f90.html#a7b64c7392b45d0042d8bd7379c0761a5" target="_top" xlink:title="Evaluate the derivative of the square of the magnetic field modulus. Add spectral constraint derivati...">
<polygon fill="white" stroke="black" points="530.5,-76.5 530.5,-95.5 604.5,-95.5 604.5,-76.5 530.5,-76.5"/>
<text text-anchor="middle" x="567.5" y="-83.5" font-family="Helvetica,sans-Serif" font-size="10.00">evaluate_dbb</text>
</a>
</g>
</g>
<!-- Node1&#45;&gt;Node15 -->
<g id="edge27" class="edge">
<title>Node1&#45;&gt;Node15</title>
<path fill="none" stroke="midnightblue" d="M650.61,-79.85C636.37,-79.12 619.59,-79.06 604.93,-79.66"/>
<polygon fill="midnightblue" stroke="midnightblue" points="650.71,-83.37 660.92,-80.54 651.18,-76.38 650.71,-83.37"/>
</g>
<!-- Node16 -->
<g id="node16" class="node">
<title>Node16</title>
<g id="a_node16"><a xlink:href="dfp200_8f90.html#a73ddf39ecc5228201fb643779e17cd36" target="_top" xlink:title="Evaluate mu and psip derivatives and store them in dmupfdx.">
<polygon fill="white" stroke="black" points="520,-38.5 520,-57.5 615,-57.5 615,-38.5 520,-38.5"/>
<text text-anchor="middle" x="567.5" y="-45.5" font-family="Helvetica,sans-Serif" font-size="10.00">evaluate_dmupfdx</text>
</a>
</g>
</g>
<!-- Node1&#45;&gt;Node16 -->
<g id="edge29" class="edge">
<title>Node1&#45;&gt;Node16</title>
<path fill="none" stroke="midnightblue" d="M658.66,-72.28C646,-67.11 630.09,-61.5 615.17,-56.84"/>
<polygon fill="midnightblue" stroke="midnightblue" points="657.46,-75.58 668.03,-76.3 660.22,-69.14 657.46,-75.58"/>
</g>
<!-- Node17 -->
<g id="node17" class="node">
<title>Node17</title>
<g id="a_node17"><a xlink:href="dfp200_8f90.html#a5e56f1f4b1e6df11a9cffa6237c37469" target="_top" xlink:title="This routine evaluates the value of the magnetic field once the interface is perturbed using matrix p...">
<polygon fill="white" stroke="black" points="510,-0.5 510,-19.5 625,-19.5 625,-0.5 510,-0.5"/>
<text text-anchor="middle" x="567.5" y="-7.5" font-family="Helvetica,sans-Serif" font-size="10.00">get_perturbed_solution</text>
</a>
</g>
</g>
<!-- Node1&#45;&gt;Node17 -->
<g id="edge32" class="edge">
<title>Node1&#45;&gt;Node17</title>
<path fill="none" stroke="midnightblue" d="M673.87,-67.72C663.35,-52.5 644.93,-32.23 625,-20 624.74,-19.84 624.47,-19.68 624.2,-19.52"/>
<polygon fill="midnightblue" stroke="midnightblue" points="671.06,-69.82 679.34,-76.42 676.98,-66.09 671.06,-69.82"/>
</g>
<!-- Node3 -->
<g id="node3" class="node">
<title>Node3</title>
<g id="a_node3"><a xlink:href="group__grp__force__driver.html#gabbc245b3884ee8d8d3e2a52f25149f78" target="_top" xlink:title="fcn1">
<polygon fill="white" stroke="black" points="394,-360.5 394,-379.5 429,-379.5 429,-360.5 394,-360.5"/>
<text text-anchor="middle" x="411.5" y="-367.5" font-family="Helvetica,sans-Serif" font-size="10.00">fcn1</text>
</a>
</g>
</g>
<!-- Node2&#45;&gt;Node3 -->
<g id="edge2" class="edge">
<title>Node2&#45;&gt;Node3</title>
<path fill="none" stroke="midnightblue" d="M546.5,-262.97C514.05,-288.89 450.9,-339.33 424.53,-360.39"/>
<polygon fill="midnightblue" stroke="midnightblue" points="548.79,-265.63 554.42,-256.65 544.42,-260.16 548.79,-265.63"/>
</g>
<!-- Node4 -->
<g id="node4" class="node">
<title>Node4</title>
<g id="a_node4"><a xlink:href="group__grp__force__driver.html#gaec14f81fbdbedafbc4189489ec8ae178" target="_top" xlink:title="Employs Newton method to find , where &#160;and &#160;is defined in dforce() .">
<polygon fill="white" stroke="black" points="265,-398.5 265,-417.5 313,-417.5 313,-398.5 265,-398.5"/>
<text text-anchor="middle" x="289" y="-405.5" font-family="Helvetica,sans-Serif" font-size="10.00">newton</text>
</a>
</g>
</g>
<!-- Node2&#45;&gt;Node4 -->
<g id="edge18" class="edge">
<title>Node2&#45;&gt;Node4</title>
<path fill="none" stroke="midnightblue" d="M560.17,-266.2C548.63,-297.86 520.93,-360.35 474,-389 423.43,-419.88 350.18,-416.12 313.21,-411.61"/>
<polygon fill="midnightblue" stroke="midnightblue" points="563.48,-267.34 563.47,-256.74 556.88,-265.03 563.48,-267.34"/>
</g>
<!-- Node5 -->
<g id="node5" class="node">
<title>Node5</title>
<g id="a_node5"><a xlink:href="group__grp__force__driver.html#ga8ccd6c7d901872702521d0a0edf95412" target="_top" xlink:title="fcn2">
<polygon fill="white" stroke="black" points="87,-421.5 87,-440.5 122,-440.5 122,-421.5 87,-421.5"/>
<text text-anchor="middle" x="104.5" y="-428.5" font-family="Helvetica,sans-Serif" font-size="10.00">fcn2</text>
</a>
</g>
</g>
<!-- Node2&#45;&gt;Node5 -->
<g id="edge13" class="edge">
<title>Node2&#45;&gt;Node5</title>
<path fill="none" stroke="midnightblue" d="M561.32,-266.87C550.99,-302.36 524.39,-376.54 474,-415 362.51,-500.09 297.27,-517.71 164,-474 144.12,-467.48 125.42,-451.33 114.74,-440.79"/>
<polygon fill="midnightblue" stroke="midnightblue" points="564.81,-267.37 564.11,-256.8 558.06,-265.5 564.81,-267.37"/>
</g>
<!-- Node7 -->
<g id="node7" class="node">
<title>Node7</title>
<g id="a_node7"><a xlink:href="xspech_8f90.html#aea782eae089760a491c2c54f9903abcc" target="_top" xlink:title="Main program of SPEC.">
<polygon fill="white" stroke="black" points="81,-275.5 81,-294.5 128,-294.5 128,-275.5 81,-275.5"/>
<text text-anchor="middle" x="104.5" y="-282.5" font-family="Helvetica,sans-Serif" font-size="10.00">xspech</text>
</a>
</g>
</g>
<!-- Node2&#45;&gt;Node7 -->
<g id="edge26" class="edge">
<title>Node2&#45;&gt;Node7</title>
<path fill="none" stroke="midnightblue" d="M535.49,-237.03C465.93,-216.44 293.44,-175.37 164,-228 140.36,-237.61 121.04,-261.89 111.65,-275.45"/>
<polygon fill="midnightblue" stroke="midnightblue" points="534.78,-240.47 545.36,-240.02 536.81,-233.77 534.78,-240.47"/>
</g>
<!-- Node2&#45;&gt;Node9 -->
<g id="edge14" class="edge">
<title>Node2&#45;&gt;Node9</title>
<path fill="none" stroke="midnightblue" d="M553.68,-229.19C537.44,-207.88 507.5,-172.5 474,-152 467.71,-148.15 460.57,-145.02 453.45,-142.5"/>
<polygon fill="midnightblue" stroke="midnightblue" points="550.99,-231.45 559.77,-237.38 556.61,-227.27 550.99,-231.45"/>
</g>
<!-- Node10 -->
<g id="node10" class="node">
<title>Node10</title>
<g id="a_node10"><a xlink:href="group__grp__diagnostics.html#ga7401b50ec10c6598ee4a8112717a63ec" target="_top" xlink:title="Computes eigenvalues and eigenvectors of derivative matrix, .">
<polygon fill="white" stroke="black" points="174,-237.5 174,-256.5 219,-256.5 219,-237.5 174,-237.5"/>
<text text-anchor="middle" x="196.5" y="-244.5" font-family="Helvetica,sans-Serif" font-size="10.00">hesian</text>
</a>
</g>
</g>
<!-- Node2&#45;&gt;Node10 -->
<g id="edge16" class="edge">
<title>Node2&#45;&gt;Node10</title>
<path fill="none" stroke="midnightblue" d="M534.92,-247C461.58,-247 281.28,-247 219.04,-247"/>
<polygon fill="midnightblue" stroke="midnightblue" points="535.34,-250.5 545.34,-247 535.34,-243.5 535.34,-250.5"/>
</g>
<!-- Node11 -->
<g id="node11" class="node">
<title>Node11</title>
<g id="a_node11"><a xlink:href="group__grp__conjugate__gradient.html#ga4d8415226e62a9fdb42b0fd0b464251e" target="_top" xlink:title="Returns the energy functional and it&#39;s derivatives with respect to geometry.">
<polygon fill="white" stroke="black" points="387.5,-161.5 387.5,-180.5 435.5,-180.5 435.5,-161.5 387.5,-161.5"/>
<text text-anchor="middle" x="411.5" y="-168.5" font-family="Helvetica,sans-Serif" font-size="10.00">pc00ab</text>
</a>
</g>
</g>
<!-- Node2&#45;&gt;Node11 -->
<g id="edge19" class="edge">
<title>Node2&#45;&gt;Node11</title>
<path fill="none" stroke="midnightblue" d="M542.54,-232.3C524.15,-221.33 497.93,-206.33 474,-195 461.57,-189.12 447.28,-183.47 435.6,-179.14"/>
<polygon fill="midnightblue" stroke="midnightblue" points="540.77,-235.32 551.14,-237.48 544.38,-229.33 540.77,-235.32"/>
</g>
<!-- Node13 -->
<g id="node13" class="node">
<title>Node13</title>
<g id="a_node13"><a xlink:href="namespaceallglobal.html#ad32ae6194892fe7d876622a6455189e2" target="_top" xlink:title="The master node reads the input namelist and sets various internal variables. The relevant quantities...">
<polygon fill="white" stroke="black" points="370,-275.5 370,-294.5 453,-294.5 453,-275.5 370,-275.5"/>
<text text-anchor="middle" x="411.5" y="-282.5" font-family="Helvetica,sans-Serif" font-size="10.00">allglobal::readin</text>
</a>
</g>
</g>
<!-- Node2&#45;&gt;Node13 -->
<g id="edge21" class="edge">
<title>Node2&#45;&gt;Node13</title>
<path fill="none" stroke="midnightblue" d="M535.63,-254.62C511.3,-260.62 477.23,-269.03 451.1,-275.48"/>
<polygon fill="midnightblue" stroke="midnightblue" points="536.54,-258 545.41,-252.2 534.86,-251.2 536.54,-258"/>
</g>
<!-- Node3&#45;&gt;Node4 -->
<g id="edge3" class="edge">
<title>Node3&#45;&gt;Node4</title>
<path fill="none" stroke="midnightblue" d="M383.84,-372.69C359.79,-378.62 325.24,-389.85 305.47,-398.42"/>
<polygon fill="midnightblue" stroke="midnightblue" points="384.77,-376.07 393.74,-370.44 383.22,-369.25 384.77,-376.07"/>
</g>
<!-- Node4&#45;&gt;Node3 -->
<g id="edge4" class="edge">
<title>Node4&#45;&gt;Node3</title>
<path fill="none" stroke="midnightblue" d="M323.04,-403.68C346.39,-397.52 376.63,-387.52 394.75,-379.7"/>
<polygon fill="midnightblue" stroke="midnightblue" points="322.05,-400.32 313.19,-406.14 323.74,-407.11 322.05,-400.32"/>
</g>
<!-- Node4&#45;&gt;Node5 -->
<g id="edge5" class="edge">
<title>Node4&#45;&gt;Node5</title>
<path fill="none" stroke="midnightblue" d="M254.78,-406.84C215.66,-409.55 152.21,-417.96 122.22,-424.79"/>
<polygon fill="midnightblue" stroke="midnightblue" points="255.11,-410.32 264.89,-406.24 254.7,-403.34 255.11,-410.32"/>
</g>
<!-- Node6 -->
<g id="node6" class="node">
<title>Node6</title>
<g id="a_node6"><a xlink:href="group__grp__force__driver.html#ga382822b303cbf8c56d6f54dcb379caf2" target="_top" xlink:title="read or write force&#45;derivative matrix">
<polygon fill="white" stroke="black" points="164,-445.5 164,-464.5 229,-464.5 229,-445.5 164,-445.5"/>
<text text-anchor="middle" x="196.5" y="-452.5" font-family="Helvetica,sans-Serif" font-size="10.00">writereadgf</text>
</a>
</g>
</g>
<!-- Node4&#45;&gt;Node6 -->
<g id="edge7" class="edge">
<title>Node4&#45;&gt;Node6</title>
<path fill="none" stroke="midnightblue" d="M255.18,-418.53C238.41,-426.6 219.16,-437.28 207.68,-445.25"/>
<polygon fill="midnightblue" stroke="midnightblue" points="257.09,-421.5 264.69,-414.12 254.15,-415.15 257.09,-421.5"/>
</g>
<!-- Node4&#45;&gt;Node7 -->
<g id="edge10" class="edge">
<title>Node4&#45;&gt;Node7</title>
<path fill="none" stroke="midnightblue" d="M259.1,-393.63C233.29,-380.3 194.9,-359.21 164,-337 145.68,-323.83 126.52,-305.88 115.32,-294.88"/>
<polygon fill="midnightblue" stroke="midnightblue" points="257.84,-396.92 268.34,-398.35 261.02,-390.68 257.84,-396.92"/>
</g>
<!-- Node5&#45;&gt;Node4 -->
<g id="edge6" class="edge">
<title>Node5&#45;&gt;Node4</title>
<path fill="none" stroke="midnightblue" d="M132.41,-432.56C168.26,-430.53 231.07,-422.52 264.89,-415.59"/>
<polygon fill="midnightblue" stroke="midnightblue" points="132.06,-429.07 122.22,-432.99 132.36,-436.07 132.06,-429.07"/>
</g>
<!-- Node6&#45;&gt;Node4 -->
<g id="edge9" class="edge">
<title>Node6&#45;&gt;Node4</title>
<path fill="none" stroke="midnightblue" d="M237.61,-440.88C252.5,-433.37 268.14,-424.49 277.97,-417.64"/>
<polygon fill="midnightblue" stroke="midnightblue" points="235.94,-437.8 228.5,-445.35 239.02,-444.09 235.94,-437.8"/>
</g>
<!-- Node6&#45;&gt;Node5 -->
<g id="edge8" class="edge">
<title>Node6&#45;&gt;Node5</title>
<path fill="none" stroke="midnightblue" d="M153.99,-443.93C142.69,-440.92 131.09,-437.82 122.07,-435.42"/>
<polygon fill="midnightblue" stroke="midnightblue" points="153.21,-447.34 163.77,-446.54 155.01,-440.58 153.21,-447.34"/>
</g>
<!-- Node8 -->
<g id="node8" class="node">
<title>Node8</title>
<g id="a_node8"><a xlink:href="xspech_8f90.html#a537af4990058c0b0f2cd8b3669af204f" target="_top" xlink:title="todo remark">
<polygon fill="white" stroke="black" points="0,-275.5 0,-294.5 45,-294.5 45,-275.5 0,-275.5"/>
<text text-anchor="middle" x="22.5" y="-282.5" font-family="Helvetica,sans-Serif" font-size="10.00">ending</text>
</a>
</g>
</g>
<!-- Node7&#45;&gt;Node8 -->
<g id="edge11" class="edge">
<title>Node7&#45;&gt;Node8</title>
<path fill="none" stroke="midnightblue" d="M70.65,-278.35C62.06,-278.11 53.01,-278.3 45.17,-278.92"/>
<polygon fill="midnightblue" stroke="midnightblue" points="70.63,-281.85 80.79,-278.84 70.97,-274.86 70.63,-281.85"/>
</g>
<!-- Node8&#45;&gt;Node7 -->
<g id="edge12" class="edge">
<title>Node8&#45;&gt;Node7</title>
<path fill="none" stroke="midnightblue" d="M55.22,-291.62C63.77,-291.89 72.84,-291.74 80.79,-291.16"/>
<polygon fill="midnightblue" stroke="midnightblue" points="55.34,-288.12 45.17,-291.08 54.96,-295.11 55.34,-288.12"/>
</g>
<!-- Node9&#45;&gt;Node1 -->
<g id="edge15" class="edge">
<title>Node9&#45;&gt;Node1</title>
<path fill="none" stroke="midnightblue" d="M484.42,-134.76C525.86,-131.51 578.74,-124.53 625,-114 642.98,-109.91 663.31,-102.6 674.49,-95.51"/>
<polygon fill="midnightblue" stroke="midnightblue" points="484.13,-131.28 474.41,-135.49 484.64,-138.26 484.13,-131.28"/>
</g>
<!-- Node10&#45;&gt;Node7 -->
<g id="edge17" class="edge">
<title>Node10&#45;&gt;Node7</title>
<path fill="none" stroke="midnightblue" d="M164.49,-260.09C152.51,-265.15 139.06,-270.83 128.03,-275.49"/>
<polygon fill="midnightblue" stroke="midnightblue" points="165.86,-263.31 173.71,-256.2 163.14,-256.86 165.86,-263.31"/>
</g>
<!-- Node12 -->
<g id="node12" class="node">
<title>Node12</title>
<g id="a_node12"><a xlink:href="group__grp__conjugate__gradient.html#ga25a3bae2ff2ee0469b045de0d033398b" target="_top" xlink:title="Use preconditioned conjugate gradient method to find minimum of energy functional.">
<polygon fill="white" stroke="black" points="265,-161.5 265,-180.5 313,-180.5 313,-161.5 265,-161.5"/>
<text text-anchor="middle" x="289" y="-168.5" font-family="Helvetica,sans-Serif" font-size="10.00">pc00aa</text>
</a>
</g>
</g>
<!-- Node11&#45;&gt;Node12 -->
<g id="edge20" class="edge">
<title>Node11&#45;&gt;Node12</title>
<path fill="none" stroke="midnightblue" d="M377.16,-171C356.81,-171 331.31,-171 313.16,-171"/>
<polygon fill="midnightblue" stroke="midnightblue" points="377.27,-174.5 387.27,-171 377.27,-167.5 377.27,-174.5"/>
</g>
<!-- Node13&#45;&gt;Node7 -->
<g id="edge25" class="edge">
<title>Node13&#45;&gt;Node7</title>
<path fill="none" stroke="midnightblue" d="M361.11,-296.54C345.78,-299.6 328.77,-302.48 313,-304 247.05,-310.37 229.59,-308.39 164,-299 152.01,-297.28 138.87,-294.25 128.09,-291.44"/>
<polygon fill="midnightblue" stroke="midnightblue" points="361.82,-299.96 370.91,-294.51 360.4,-293.11 361.82,-299.96"/>
</g>
<!-- Node14 -->
<g id="node14" class="node">
<title>Node14</title>
<g id="a_node14"><a xlink:href="group__grp__initialization.html#ga28628de0fdb3b3497668007d8d0643bd" target="_top" xlink:title="Allocates and initializes internal arrays.">
<polygon fill="white" stroke="black" points="267,-275.5 267,-294.5 311,-294.5 311,-275.5 267,-275.5"/>
<text text-anchor="middle" x="289" y="-282.5" font-family="Helvetica,sans-Serif" font-size="10.00">preset</text>
</a>
</g>
</g>
<!-- Node13&#45;&gt;Node14 -->
<g id="edge22" class="edge">
<title>Node13&#45;&gt;Node14</title>
<path fill="none" stroke="midnightblue" d="M359.34,-285C342.41,-285 324.5,-285 311.13,-285"/>
<polygon fill="midnightblue" stroke="midnightblue" points="359.7,-288.5 369.7,-285 359.7,-281.5 359.7,-288.5"/>
</g>
<!-- Node14&#45;&gt;Node7 -->
<g id="edge24" class="edge">
<title>Node14&#45;&gt;Node7</title>
<path fill="none" stroke="midnightblue" d="M256.59,-285C219.98,-285 160.4,-285 128.08,-285"/>
<polygon fill="midnightblue" stroke="midnightblue" points="256.71,-288.5 266.71,-285 256.71,-281.5 256.71,-288.5"/>
</g>
<!-- Node14&#45;&gt;Node10 -->
<g id="edge23" class="edge">
<title>Node14&#45;&gt;Node10</title>
<path fill="none" stroke="midnightblue" d="M256.98,-271.97C244.51,-266.74 230.43,-260.83 219.11,-256.07"/>
<polygon fill="midnightblue" stroke="midnightblue" points="255.98,-275.35 266.55,-275.99 258.69,-268.9 255.98,-275.35"/>
</g>
<!-- Node15&#45;&gt;Node1 -->
<g id="edge28" class="edge">
<title>Node15&#45;&gt;Node1</title>
<path fill="none" stroke="midnightblue" d="M615.12,-92.65C630.95,-92.96 647.92,-92.56 660.92,-91.46"/>
<polygon fill="midnightblue" stroke="midnightblue" points="615.03,-89.14 604.93,-92.34 614.81,-96.14 615.03,-89.14"/>
</g>
<!-- Node16&#45;&gt;Node1 -->
<g id="edge30" class="edge">
<title>Node16&#45;&gt;Node1</title>
<path fill="none" stroke="midnightblue" d="M592.66,-61.65C612.83,-69.89 641.35,-79.3 660.92,-84.13"/>
<polygon fill="midnightblue" stroke="midnightblue" points="593.8,-58.33 583.23,-57.59 591.04,-64.76 593.8,-58.33"/>
</g>
<!-- Node17&#45;&gt;Node1 -->
<g id="edge33" class="edge">
<title>Node17&#45;&gt;Node1</title>
<path fill="none" stroke="midnightblue" d="M590.92,-23.14C601.73,-27.06 614.57,-31.6 625,-38 642.33,-48.64 658.51,-65.34 669.36,-76.32"/>
<polygon fill="midnightblue" stroke="midnightblue" points="591.92,-19.78 581.33,-19.53 589.46,-26.33 591.92,-19.78"/>
</g>
</g>
</svg>
