<?xml version="1.0" encoding="UTF-8" standalone="no"?>
<!DOCTYPE svg PUBLIC "-//W3C//DTD SVG 1.1//EN"
 "http://www.w3.org/Graphics/SVG/1.1/DTD/svg11.dtd">
<!-- Generated by graphviz version 2.49.3 (20211027.1534)
 -->
<!-- Title: get_lu_beltrami_matrices Pages: 1 -->
<svg width="855pt" height="362pt"
 viewBox="0.00 0.00 855.00 362.00" xmlns="http://www.w3.org/2000/svg" xmlns:xlink="http://www.w3.org/1999/xlink">
<g id="graph0" class="graph" transform="scale(1 1) rotate(0) translate(4 358)">
<title>get_lu_beltrami_matrices</title>
<polygon fill="white" stroke="transparent" points="-4,4 -4,-358 851,-358 851,4 -4,4"/>
<!-- Node1 -->
<g id="node1" class="node">
<title>Node1</title>
<g id="a_node1"><a xlink:title="get LU Beltrami matrices">
<polygon fill="#bfbfbf" stroke="black" points="722,-98.5 722,-117.5 847,-117.5 847,-98.5 722,-98.5"/>
<text text-anchor="middle" x="784.5" y="-105.5" font-family="Helvetica,sans-Serif" font-size="10.00">get_lu_beltrami_matrices</text>
</a>
</g>
</g>
<!-- Node2 -->
<g id="node2" class="node">
<title>Node2</title>
<g id="a_node2"><a xlink:href="dfp200_8f90.html#a55ea75395f8c71731451e1add3720c7e" target="_top" xlink:title="Given the field consistent with the constraints and the geometry, computes local quantites related to...">
<polygon fill="white" stroke="black" points="640,-98.5 640,-117.5 686,-117.5 686,-98.5 640,-98.5"/>
<text text-anchor="middle" x="663" y="-105.5" font-family="Helvetica,sans-Serif" font-size="10.00">dfp200</text>
</a>
</g>
</g>
<!-- Node1&#45;&gt;Node2 -->
<g id="edge1" class="edge">
<title>Node1&#45;&gt;Node2</title>
<path fill="none" stroke="midnightblue" d="M711.86,-101.37C702.62,-101.56 693.77,-101.97 686.25,-102.61"/>
<polygon fill="midnightblue" stroke="midnightblue" points="712.04,-104.87 722,-101.25 711.96,-97.87 712.04,-104.87"/>
</g>
<!-- Node2&#45;&gt;Node1 -->
<g id="edge43" class="edge">
<title>Node2&#45;&gt;Node1</title>
<path fill="none" stroke="midnightblue" d="M696.23,-114.07C704.24,-114.49 713.09,-114.72 722,-114.75"/>
<polygon fill="midnightblue" stroke="midnightblue" points="696.46,-110.58 686.25,-113.39 695.99,-117.56 696.46,-110.58"/>
</g>
<!-- Node2&#45;&gt;Node2 -->
<g id="edge38" class="edge">
<title>Node2&#45;&gt;Node2</title>
<path fill="none" stroke="midnightblue" d="M684.48,-127.4C683.05,-132.31 675.89,-136 663,-136 642.38,-136 636.42,-126.57 645.12,-117.76"/>
<polygon fill="midnightblue" stroke="midnightblue" points="687.66,-125.9 680.88,-117.76 681.1,-128.35 687.66,-125.9"/>
</g>
<!-- Node3 -->
<g id="node3" class="node">
<title>Node3</title>
<g id="a_node3"><a xlink:href="group__grp__global__force.html#ga38c9d3c50bd043707fefa5137c9dbf44" target="_top" xlink:title="Calculates , where &#160;and , and .">
<polygon fill="white" stroke="black" points="524.5,-169.5 524.5,-188.5 568.5,-188.5 568.5,-169.5 524.5,-169.5"/>
<text text-anchor="middle" x="546.5" y="-176.5" font-family="Helvetica,sans-Serif" font-size="10.00">dforce</text>
</a>
</g>
</g>
<!-- Node2&#45;&gt;Node3 -->
<g id="edge2" class="edge">
<title>Node2&#45;&gt;Node3</title>
<path fill="none" stroke="midnightblue" d="M646.38,-125.26C635.45,-136.48 619.98,-150.68 604,-160 593.09,-166.36 579.75,-170.97 568.77,-174.06"/>
<polygon fill="midnightblue" stroke="midnightblue" points="649.16,-127.42 653.49,-117.74 644.08,-122.61 649.16,-127.42"/>
</g>
<!-- Node17 -->
<g id="node17" class="node">
<title>Node17</title>
<g id="a_node17"><a xlink:href="dfp200_8f90.html#a7b64c7392b45d0042d8bd7379c0761a5" target="_top" xlink:title="Evaluate the derivative of the square of the magnetic field modulus. Add spectral constraint derivati...">
<polygon fill="white" stroke="black" points="509.5,-131.5 509.5,-150.5 583.5,-150.5 583.5,-131.5 509.5,-131.5"/>
<text text-anchor="middle" x="546.5" y="-138.5" font-family="Helvetica,sans-Serif" font-size="10.00">evaluate_dbb</text>
</a>
</g>
</g>
<!-- Node2&#45;&gt;Node17 -->
<g id="edge39" class="edge">
<title>Node2&#45;&gt;Node17</title>
<path fill="none" stroke="midnightblue" d="M629.87,-111.12C608.27,-116.22 580.73,-124.58 563.6,-131.49"/>
<polygon fill="midnightblue" stroke="midnightblue" points="630.91,-114.48 639.92,-108.9 629.4,-107.64 630.91,-114.48"/>
</g>
<!-- Node18 -->
<g id="node18" class="node">
<title>Node18</title>
<g id="a_node18"><a xlink:href="dfp200_8f90.html#a73ddf39ecc5228201fb643779e17cd36" target="_top" xlink:title="Evaluate mu and psip derivatives and store them in dmupfdx.">
<polygon fill="white" stroke="black" points="499,-93.5 499,-112.5 594,-112.5 594,-93.5 499,-93.5"/>
<text text-anchor="middle" x="546.5" y="-100.5" font-family="Helvetica,sans-Serif" font-size="10.00">evaluate_dmupfdx</text>
</a>
</g>
</g>
<!-- Node2&#45;&gt;Node18 -->
<g id="edge41" class="edge">
<title>Node2&#45;&gt;Node18</title>
<path fill="none" stroke="midnightblue" d="M629.86,-100.46C618.78,-99.4 606.15,-98.68 594.15,-98.39"/>
<polygon fill="midnightblue" stroke="midnightblue" points="629.6,-103.95 639.92,-101.58 630.37,-97 629.6,-103.95"/>
</g>
<!-- Node19 -->
<g id="node19" class="node">
<title>Node19</title>
<g id="a_node19"><a xlink:href="dfp200_8f90.html#a5e56f1f4b1e6df11a9cffa6237c37469" target="_top" xlink:title="This routine evaluates the value of the magnetic field once the interface is perturbed using matrix p...">
<polygon fill="white" stroke="black" points="489,-55.5 489,-74.5 604,-74.5 604,-55.5 489,-55.5"/>
<text text-anchor="middle" x="546.5" y="-62.5" font-family="Helvetica,sans-Serif" font-size="10.00">get_perturbed_solution</text>
</a>
</g>
</g>
<!-- Node2&#45;&gt;Node19 -->
<g id="edge44" class="edge">
<title>Node2&#45;&gt;Node19</title>
<path fill="none" stroke="midnightblue" d="M645.24,-93.11C633.72,-86.79 618.03,-80.26 604,-75 603.61,-74.85 603.22,-74.71 602.83,-74.56"/>
<polygon fill="midnightblue" stroke="midnightblue" points="643.45,-96.11 653.81,-98.33 647.09,-90.14 643.45,-96.11"/>
</g>
<!-- Node3&#45;&gt;Node1 -->
<g id="edge28" class="edge">
<title>Node3&#45;&gt;Node1</title>
<path fill="none" stroke="midnightblue" d="M578.93,-172.43C607.2,-166.25 649.73,-156.29 686,-145 711.93,-136.93 740.95,-125.61 760.53,-117.63"/>
<polygon fill="midnightblue" stroke="midnightblue" points="577.88,-169.08 568.84,-174.61 579.35,-175.92 577.88,-169.08"/>
</g>
<!-- Node3&#45;&gt;Node3 -->
<g id="edge14" class="edge">
<title>Node3&#45;&gt;Node3</title>
<path fill="none" stroke="midnightblue" d="M567.98,-198.4C566.55,-203.31 559.39,-207 546.5,-207 525.88,-207 519.92,-197.57 528.62,-188.76"/>
<polygon fill="midnightblue" stroke="midnightblue" points="571.16,-196.9 564.38,-188.76 564.6,-199.35 571.16,-196.9"/>
</g>
<!-- Node4 -->
<g id="node4" class="node">
<title>Node4</title>
<g id="a_node4"><a xlink:href="namespaceallglobal.html#a7824bc37519fe88336534ce90ab2af16" target="_top" xlink:title=" ">
<polygon fill="white" stroke="black" points="339,-282.5 339,-301.5 453,-301.5 453,-282.5 339,-282.5"/>
<text text-anchor="middle" x="396" y="-289.5" font-family="Helvetica,sans-Serif" font-size="10.00">allglobal::check_inputs</text>
</a>
</g>
</g>
<!-- Node3&#45;&gt;Node4 -->
<g id="edge3" class="edge">
<title>Node3&#45;&gt;Node4</title>
<path fill="none" stroke="midnightblue" d="M530.79,-196.55C513.71,-216.06 483.9,-247.51 453,-268 444.36,-273.73 434.13,-278.59 424.79,-282.4"/>
<polygon fill="midnightblue" stroke="midnightblue" points="533.63,-198.61 537.5,-188.75 528.33,-194.05 533.63,-198.61"/>
</g>
<!-- Node7 -->
<g id="node7" class="node">
<title>Node7</title>
<g id="a_node7"><a xlink:href="xspech_8f90.html#a48f45478dc2c9f70ea8aa1c60ad06503" target="_top" xlink:title="This is the main &quot;driver&quot; for the physics part of SPEC.">
<polygon fill="white" stroke="black" points="155.5,-220.5 155.5,-239.5 193.5,-239.5 193.5,-220.5 155.5,-220.5"/>
<text text-anchor="middle" x="174.5" y="-227.5" font-family="Helvetica,sans-Serif" font-size="10.00">spec</text>
</a>
</g>
</g>
<!-- Node3&#45;&gt;Node7 -->
<g id="edge37" class="edge">
<title>Node3&#45;&gt;Node7</title>
<path fill="none" stroke="midnightblue" d="M514.24,-178.58C468.12,-183.37 379.1,-198.17 303,-208 264.16,-213.02 218.46,-217.28 193.69,-222.38"/>
<polygon fill="midnightblue" stroke="midnightblue" points="514.84,-182.04 524.47,-177.63 514.19,-175.07 514.84,-182.04"/>
</g>
<!-- Node10 -->
<g id="node10" class="node">
<title>Node10</title>
<g id="a_node10"><a xlink:href="group__grp__force__driver.html#gabbc245b3884ee8d8d3e2a52f25149f78" target="_top" xlink:title="Objective to be given to the Newton solver, using only function values.">
<polygon fill="white" stroke="black" points="378.5,-94.5 378.5,-113.5 413.5,-113.5 413.5,-94.5 378.5,-94.5"/>
<text text-anchor="middle" x="396" y="-101.5" font-family="Helvetica,sans-Serif" font-size="10.00">fcn1</text>
</a>
</g>
</g>
<!-- Node3&#45;&gt;Node10 -->
<g id="edge15" class="edge">
<title>Node3&#45;&gt;Node10</title>
<path fill="none" stroke="midnightblue" d="M514.8,-170.06C506.3,-167.21 497.16,-163.8 489,-160 459.67,-146.35 427.97,-125.58 410.49,-113.54"/>
<polygon fill="midnightblue" stroke="midnightblue" points="513.82,-173.41 524.41,-173.13 515.95,-166.75 513.82,-173.41"/>
</g>
<!-- Node11 -->
<g id="node11" class="node">
<title>Node11</title>
<g id="a_node11"><a xlink:href="group__grp__force__driver.html#gaec14f81fbdbedafbc4189489ec8ae178" target="_top" xlink:title="Employs Newton method to find , where &#160;and &#160;is defined in dforce() .">
<polygon fill="white" stroke="black" points="255,-104.5 255,-123.5 303,-123.5 303,-104.5 255,-104.5"/>
<text text-anchor="middle" x="279" y="-111.5" font-family="Helvetica,sans-Serif" font-size="10.00">newton</text>
</a>
</g>
</g>
<!-- Node3&#45;&gt;Node11 -->
<g id="edge32" class="edge">
<title>Node3&#45;&gt;Node11</title>
<path fill="none" stroke="midnightblue" d="M514.1,-175.67C473.11,-170.77 399.47,-160.08 339,-141 324.71,-136.49 309.35,-129.38 297.88,-123.59"/>
<polygon fill="midnightblue" stroke="midnightblue" points="513.94,-179.18 524.27,-176.85 514.74,-172.22 513.94,-179.18"/>
</g>
<!-- Node12 -->
<g id="node12" class="node">
<title>Node12</title>
<g id="a_node12"><a xlink:href="group__grp__force__driver.html#ga8ccd6c7d901872702521d0a0edf95412" target="_top" xlink:title="Objective to be given to the Newton solver, using function values and derivatives.">
<polygon fill="white" stroke="black" points="29.5,-118.5 29.5,-137.5 64.5,-137.5 64.5,-118.5 29.5,-118.5"/>
<text text-anchor="middle" x="47" y="-125.5" font-family="Helvetica,sans-Serif" font-size="10.00">fcn2</text>
</a>
</g>
</g>
<!-- Node3&#45;&gt;Node12 -->
<g id="edge27" class="edge">
<title>Node3&#45;&gt;Node12</title>
<path fill="none" stroke="midnightblue" d="M514.51,-173.39C505.49,-170.56 496.15,-166.32 489,-160 461.3,-135.51 484.29,-104.69 453,-85 392.25,-46.77 199.7,-67.83 130,-85 103.93,-91.42 76.98,-107.76 61.39,-118.35"/>
<polygon fill="midnightblue" stroke="midnightblue" points="513.86,-176.83 524.42,-176.02 515.65,-170.07 513.86,-176.83"/>
</g>
<!-- Node14 -->
<g id="node14" class="node">
<title>Node14</title>
<g id="a_node14"><a xlink:href="group__grp__output.html#ga7401b50ec10c6598ee4a8112717a63ec" target="_top" xlink:title="Computes eigenvalues and eigenvectors of derivative matrix, &#160;and saves them to .ext....">
<polygon fill="white" stroke="black" points="256.5,-170.5 256.5,-189.5 301.5,-189.5 301.5,-170.5 256.5,-170.5"/>
<text text-anchor="middle" x="279" y="-177.5" font-family="Helvetica,sans-Serif" font-size="10.00">hesian</text>
</a>
</g>
</g>
<!-- Node3&#45;&gt;Node14 -->
<g id="edge29" class="edge">
<title>Node3&#45;&gt;Node14</title>
<path fill="none" stroke="midnightblue" d="M514.1,-179.12C459.56,-179.32 348.67,-179.74 301.75,-179.92"/>
<polygon fill="midnightblue" stroke="midnightblue" points="514.24,-182.62 524.22,-179.08 514.21,-175.62 514.24,-182.62"/>
</g>
<!-- Node15 -->
<g id="node15" class="node">
<title>Node15</title>
<g id="a_node15"><a xlink:href="group__grp__conjugate__gradient.html#ga4d8415226e62a9fdb42b0fd0b464251e" target="_top" xlink:title="Returns the energy functional and it&#39;s derivatives with respect to geometry.">
<polygon fill="white" stroke="black" points="372,-0.5 372,-19.5 420,-19.5 420,-0.5 372,-0.5"/>
<text text-anchor="middle" x="396" y="-7.5" font-family="Helvetica,sans-Serif" font-size="10.00">pc00ab</text>
</a>
</g>
</g>
<!-- Node3&#45;&gt;Node15 -->
<g id="edge33" class="edge">
<title>Node3&#45;&gt;Node15</title>
<path fill="none" stroke="midnightblue" d="M514.51,-174.08C505.31,-171.28 495.87,-166.89 489,-160 453.27,-124.18 482.58,-93.05 453,-52 443.05,-38.2 427.24,-26.93 414.95,-19.55"/>
<polygon fill="midnightblue" stroke="midnightblue" points="513.71,-177.49 524.27,-176.53 515.42,-170.7 513.71,-177.49"/>
</g>
<!-- Node5 -->
<g id="node5" class="node">
<title>Node5</title>
<g id="a_node5"><a xlink:href="xspech_8f90.html#a9fdc71dffd7c61ee4588a3f80d3ab9ce" target="_top" xlink:title="Main subroutine of SPEC.">
<polygon fill="white" stroke="black" points="255.5,-282.5 255.5,-301.5 302.5,-301.5 302.5,-282.5 255.5,-282.5"/>
<text text-anchor="middle" x="279" y="-289.5" font-family="Helvetica,sans-Serif" font-size="10.00">xspech</text>
</a>
</g>
</g>
<!-- Node4&#45;&gt;Node5 -->
<g id="edge4" class="edge">
<title>Node4&#45;&gt;Node5</title>
<path fill="none" stroke="midnightblue" d="M328.61,-292C319.24,-292 310.2,-292 302.51,-292"/>
<polygon fill="midnightblue" stroke="midnightblue" points="328.85,-295.5 338.85,-292 328.85,-288.5 328.85,-295.5"/>
</g>
<!-- Node5&#45;&gt;Node5 -->
<g id="edge13" class="edge">
<title>Node5&#45;&gt;Node5</title>
<path fill="none" stroke="midnightblue" d="M298.26,-311.4C296.97,-316.31 290.55,-320 279,-320 260.52,-320 255.17,-310.57 262.97,-301.76"/>
<polygon fill="midnightblue" stroke="midnightblue" points="301.52,-310.13 295.03,-301.76 294.89,-312.35 301.52,-310.13"/>
</g>
<!-- Node6 -->
<g id="node6" class="node">
<title>Node6</title>
<g id="a_node6"><a xlink:href="xspech_8f90.html#a1451823a7b97101a797de616250752c1" target="_top" xlink:title="Final diagnostics.">
<polygon fill="white" stroke="black" points="130,-334.5 130,-353.5 219,-353.5 219,-334.5 130,-334.5"/>
<text text-anchor="middle" x="174.5" y="-341.5" font-family="Helvetica,sans-Serif" font-size="10.00">final_diagnostics</text>
</a>
</g>
</g>
<!-- Node5&#45;&gt;Node6 -->
<g id="edge5" class="edge">
<title>Node5&#45;&gt;Node6</title>
<path fill="none" stroke="midnightblue" d="M245.91,-301.97C225.34,-311.42 199.97,-324.96 185.99,-334.39"/>
<polygon fill="midnightblue" stroke="midnightblue" points="247.53,-305.08 255.25,-297.82 244.69,-298.68 247.53,-305.08"/>
</g>
<!-- Node5&#45;&gt;Node7 -->
<g id="edge7" class="edge">
<title>Node5&#45;&gt;Node7</title>
<path fill="none" stroke="midnightblue" d="M265.88,-274.98C254.31,-263.65 236.15,-249.84 219,-240 210.99,-235.41 201.67,-231.2 193.71,-228.67"/>
<polygon fill="midnightblue" stroke="midnightblue" points="263.36,-277.42 272.74,-282.35 268.48,-272.65 263.36,-277.42"/>
</g>
<!-- Node9 -->
<g id="node9" class="node">
<title>Node9</title>
<g id="a_node9"><a xlink:href="xspech_8f90.html#a95271e8805067f801b5d4e524d6901d4" target="_top" xlink:title="Main program of SPEC.">
<polygon fill="white" stroke="black" points="142.5,-258.5 142.5,-277.5 206.5,-277.5 206.5,-258.5 142.5,-258.5"/>
<text text-anchor="middle" x="174.5" y="-265.5" font-family="Helvetica,sans-Serif" font-size="10.00">spec_main</text>
</a>
</g>
</g>
<!-- Node5&#45;&gt;Node9 -->
<g id="edge12" class="edge">
<title>Node5&#45;&gt;Node9</title>
<path fill="none" stroke="midnightblue" d="M245.34,-284.35C232.98,-281.46 218.96,-278.18 206.74,-275.31"/>
<polygon fill="midnightblue" stroke="midnightblue" points="244.72,-287.8 255.25,-286.67 246.31,-280.99 244.72,-287.8"/>
</g>
<!-- Node6&#45;&gt;Node5 -->
<g id="edge6" class="edge">
<title>Node6&#45;&gt;Node5</title>
<path fill="none" stroke="midnightblue" d="M215.88,-330.13C234.56,-321.13 255.25,-309.86 267.42,-301.68"/>
<polygon fill="midnightblue" stroke="midnightblue" points="214.2,-327.05 206.64,-334.47 217.18,-333.39 214.2,-327.05"/>
</g>
<!-- Node7&#45;&gt;Node3 -->
<g id="edge8" class="edge">
<title>Node7&#45;&gt;Node3</title>
<path fill="none" stroke="midnightblue" d="M203.91,-234.59C229.78,-234.2 269.02,-230.39 303,-226 385.2,-215.38 482.48,-198.96 524.47,-187.74"/>
<polygon fill="midnightblue" stroke="midnightblue" points="203.71,-231.08 193.69,-234.53 203.67,-238.08 203.71,-231.08"/>
</g>
<!-- Node7&#45;&gt;Node5 -->
<g id="edge11" class="edge">
<title>Node7&#45;&gt;Node5</title>
<path fill="none" stroke="midnightblue" d="M192.73,-244.66C200.9,-248.85 210.67,-253.22 219,-258 231.86,-265.38 245.29,-274.99 256.08,-282.4"/>
<polygon fill="midnightblue" stroke="midnightblue" points="194.21,-241.47 183.77,-239.63 190.78,-247.58 194.21,-241.47"/>
</g>
<!-- Node8 -->
<g id="node8" class="node">
<title>Node8</title>
<g id="a_node8"><a xlink:href="group__grp__output.html#ga0f962c09cd5d5eba99f1cba043cb3898" target="_top" xlink:title="Initialize the interface to the HDF5 library and open the output file.">
<polygon fill="white" stroke="black" points="0,-258.5 0,-277.5 94,-277.5 94,-258.5 0,-258.5"/>
<text text-anchor="middle" x="47" y="-265.5" font-family="Helvetica,sans-Serif" font-size="10.00">sphdf5::init_outfile</text>
</a>
</g>
</g>
<!-- Node7&#45;&gt;Node8 -->
<g id="edge9" class="edge">
<title>Node7&#45;&gt;Node8</title>
<path fill="none" stroke="midnightblue" d="M145.67,-238.43C126.05,-244.37 99.76,-252.33 79.39,-258.49"/>
<polygon fill="midnightblue" stroke="midnightblue" points="146.69,-241.77 155.25,-235.53 144.67,-235.07 146.69,-241.77"/>
</g>
<!-- Node8&#45;&gt;Node5 -->
<g id="edge10" class="edge">
<title>Node8&#45;&gt;Node5</title>
<path fill="none" stroke="midnightblue" d="M92.33,-279.92C104.46,-282.73 117.66,-285.38 130,-287 174.1,-292.8 226.18,-293.04 255.32,-292.59"/>
<polygon fill="midnightblue" stroke="midnightblue" points="92.98,-276.48 82.44,-277.55 91.34,-283.29 92.98,-276.48"/>
</g>
<!-- Node10&#45;&gt;Node10 -->
<g id="edge16" class="edge">
<title>Node10&#45;&gt;Node10</title>
<path fill="none" stroke="midnightblue" d="M417.61,-122.86C416.56,-128.04 409.35,-132 396,-132 375.16,-132 369.29,-122.36 378.41,-113.47"/>
<polygon fill="midnightblue" stroke="midnightblue" points="420.74,-121.28 413.59,-113.47 414.31,-124.04 420.74,-121.28"/>
</g>
<!-- Node10&#45;&gt;Node11 -->
<g id="edge17" class="edge">
<title>Node10&#45;&gt;Node11</title>
<path fill="none" stroke="midnightblue" d="M367.92,-100.53C348.32,-100.92 322.11,-103.29 303.42,-106.4"/>
<polygon fill="midnightblue" stroke="midnightblue" points="368.03,-104.03 378.03,-100.52 368.03,-97.03 368.03,-104.03"/>
</g>
<!-- Node11&#45;&gt;Node7 -->
<g id="edge23" class="edge">
<title>Node11&#45;&gt;Node7</title>
<path fill="none" stroke="midnightblue" d="M262.55,-131.49C240.6,-156.33 201.15,-200.97 183.93,-220.46"/>
<polygon fill="midnightblue" stroke="midnightblue" points="265.26,-133.7 269.26,-123.89 260.02,-129.07 265.26,-133.7"/>
</g>
<!-- Node11&#45;&gt;Node10 -->
<g id="edge18" class="edge">
<title>Node11&#45;&gt;Node10</title>
<path fill="none" stroke="midnightblue" d="M313.62,-117.28C334.76,-116.47 361.14,-113.76 378.03,-110.43"/>
<polygon fill="midnightblue" stroke="midnightblue" points="313.33,-113.79 303.42,-117.52 313.5,-120.78 313.33,-113.79"/>
</g>
<!-- Node11&#45;&gt;Node11 -->
<g id="edge22" class="edge">
<title>Node11&#45;&gt;Node11</title>
<path fill="none" stroke="midnightblue" d="M298.26,-133.4C296.97,-138.31 290.55,-142 279,-142 260.52,-142 255.17,-132.57 262.97,-123.76"/>
<polygon fill="midnightblue" stroke="midnightblue" points="301.52,-132.13 295.03,-123.76 294.89,-134.35 301.52,-132.13"/>
</g>
<!-- Node11&#45;&gt;Node12 -->
<g id="edge19" class="edge">
<title>Node11&#45;&gt;Node12</title>
<path fill="none" stroke="midnightblue" d="M244.66,-111.1C236.3,-112.07 227.34,-113.24 219,-114 162.5,-119.12 95.12,-119.38 64.55,-122.92"/>
<polygon fill="midnightblue" stroke="midnightblue" points="245.25,-114.55 254.82,-110.02 244.51,-107.59 245.25,-114.55"/>
</g>
<!-- Node13 -->
<g id="node13" class="node">
<title>Node13</title>
<g id="a_node13"><a xlink:href="group__grp__output.html#ga382822b303cbf8c56d6f54dcb379caf2" target="_top" xlink:title="read or write force&#45;derivative matrix .ext.sp.DF">
<polygon fill="white" stroke="black" points="142,-94.5 142,-113.5 207,-113.5 207,-94.5 142,-94.5"/>
<text text-anchor="middle" x="174.5" y="-101.5" font-family="Helvetica,sans-Serif" font-size="10.00">writereadgf</text>
</a>
</g>
</g>
<!-- Node11&#45;&gt;Node13 -->
<g id="edge24" class="edge">
<title>Node11&#45;&gt;Node13</title>
<path fill="none" stroke="midnightblue" d="M244.89,-104.41C232.86,-102.7 219.29,-101.39 207.36,-100.81"/>
<polygon fill="midnightblue" stroke="midnightblue" points="244.57,-107.9 255,-106.02 245.67,-100.99 244.57,-107.9"/>
</g>
<!-- Node12&#45;&gt;Node11 -->
<g id="edge21" class="edge">
<title>Node12&#45;&gt;Node11</title>
<path fill="none" stroke="midnightblue" d="M74.51,-134.48C108.18,-137.28 168.02,-136.62 219,-132 234.89,-130.56 253.01,-127.6 264.93,-123.5"/>
<polygon fill="midnightblue" stroke="midnightblue" points="74.85,-131 64.55,-133.45 74.13,-137.96 74.85,-131"/>
</g>
<!-- Node12&#45;&gt;Node12 -->
<g id="edge20" class="edge">
<title>Node12&#45;&gt;Node12</title>
<path fill="none" stroke="midnightblue" d="M70.55,-144.53C71.46,-150.81 63.61,-156 47,-156 23.38,-156 17.47,-145.5 29.28,-136.31"/>
<polygon fill="midnightblue" stroke="midnightblue" points="73.36,-142.44 64.72,-136.31 67.65,-146.49 73.36,-142.44"/>
</g>
<!-- Node13&#45;&gt;Node11 -->
<g id="edge26" class="edge">
<title>Node13&#45;&gt;Node11</title>
<path fill="none" stroke="midnightblue" d="M217.42,-114.74C230.26,-116.27 243.91,-117.3 255,-117.5"/>
<polygon fill="midnightblue" stroke="midnightblue" points="217.74,-111.25 207.36,-113.41 216.82,-118.19 217.74,-111.25"/>
</g>
<!-- Node13&#45;&gt;Node12 -->
<g id="edge25" class="edge">
<title>Node13&#45;&gt;Node12</title>
<path fill="none" stroke="midnightblue" d="M131.96,-111.94C108.99,-116.34 81.73,-121.55 64.64,-124.82"/>
<polygon fill="midnightblue" stroke="midnightblue" points="132.67,-115.37 141.83,-110.06 131.35,-108.5 132.67,-115.37"/>
</g>
<!-- Node14&#45;&gt;Node7 -->
<g id="edge31" class="edge">
<title>Node14&#45;&gt;Node7</title>
<path fill="none" stroke="midnightblue" d="M248.92,-194.19C231.21,-202.83 209.12,-213.6 193.82,-221.06"/>
<polygon fill="midnightblue" stroke="midnightblue" points="250.78,-197.17 258.24,-189.64 247.71,-190.88 250.78,-197.17"/>
</g>
<!-- Node14&#45;&gt;Node14 -->
<g id="edge30" class="edge">
<title>Node14&#45;&gt;Node14</title>
<path fill="none" stroke="midnightblue" d="M298.26,-199.4C296.97,-204.31 290.55,-208 279,-208 260.52,-208 255.17,-198.57 262.97,-189.76"/>
<polygon fill="midnightblue" stroke="midnightblue" points="301.52,-198.13 295.03,-189.76 294.89,-200.35 301.52,-198.13"/>
</g>
<!-- Node15&#45;&gt;Node15 -->
<g id="edge36" class="edge">
<title>Node15&#45;&gt;Node15</title>
<path fill="none" stroke="midnightblue" d="M417.48,-29.4C416.05,-34.31 408.89,-38 396,-38 375.38,-38 369.42,-28.57 378.12,-19.76"/>
<polygon fill="midnightblue" stroke="midnightblue" points="420.66,-27.9 413.88,-19.76 414.1,-30.35 420.66,-27.9"/>
</g>
<!-- Node16 -->
<g id="node16" class="node">
<title>Node16</title>
<g id="a_node16"><a xlink:href="group__grp__conjugate__gradient.html#ga25a3bae2ff2ee0469b045de0d033398b" target="_top" xlink:title="Use preconditioned conjugate gradient method to find minimum of energy functional.">
<polygon fill="white" stroke="black" points="255,-0.5 255,-19.5 303,-19.5 303,-0.5 255,-0.5"/>
<text text-anchor="middle" x="279" y="-7.5" font-family="Helvetica,sans-Serif" font-size="10.00">pc00aa</text>
</a>
</g>
</g>
<!-- Node15&#45;&gt;Node16 -->
<g id="edge34" class="edge">
<title>Node15&#45;&gt;Node16</title>
<path fill="none" stroke="midnightblue" d="M361.55,-10C342.84,-10 319.99,-10 303.24,-10"/>
<polygon fill="midnightblue" stroke="midnightblue" points="361.73,-13.5 371.73,-10 361.73,-6.5 361.73,-13.5"/>
</g>
<!-- Node16&#45;&gt;Node16 -->
<g id="edge35" class="edge">
<title>Node16&#45;&gt;Node16</title>
<path fill="none" stroke="midnightblue" d="M298.26,-29.4C296.97,-34.31 290.55,-38 279,-38 260.52,-38 255.17,-28.57 262.97,-19.76"/>
<polygon fill="midnightblue" stroke="midnightblue" points="301.52,-28.13 295.03,-19.76 294.89,-30.35 301.52,-28.13"/>
</g>
<!-- Node17&#45;&gt;Node2 -->
<g id="edge40" class="edge">
<title>Node17&#45;&gt;Node2</title>
<path fill="none" stroke="midnightblue" d="M593.45,-134.39C611.9,-129.46 631.97,-123.1 645.59,-117.63"/>
<polygon fill="midnightblue" stroke="midnightblue" points="592.53,-131.01 583.71,-136.89 594.27,-137.79 592.53,-131.01"/>
</g>
<!-- Node18&#45;&gt;Node2 -->
<g id="edge42" class="edge">
<title>Node18&#45;&gt;Node2</title>
<path fill="none" stroke="midnightblue" d="M604.27,-112.23C616.95,-112.79 629.67,-112.92 639.92,-112.49"/>
<polygon fill="midnightblue" stroke="midnightblue" points="604.33,-108.73 594.15,-111.68 603.95,-115.72 604.33,-108.73"/>
</g>
<!-- Node19&#45;&gt;Node2 -->
<g id="edge45" class="edge">
<title>Node19&#45;&gt;Node2</title>
<path fill="none" stroke="midnightblue" d="M566.68,-78.99C577.67,-83.67 591.68,-88.39 604,-93 615.94,-97.47 629.08,-102.87 639.83,-106.55"/>
<polygon fill="midnightblue" stroke="midnightblue" points="568.11,-75.8 557.57,-74.71 565.13,-82.13 568.11,-75.8"/>
</g>
</g>
</svg>
