<?xml version="1.0" encoding="UTF-8" standalone="no"?>
<!DOCTYPE svg PUBLIC "-//W3C//DTD SVG 1.1//EN"
 "http://www.w3.org/Graphics/SVG/1.1/DTD/svg11.dtd">
<!-- Generated by graphviz version 2.47.1 (20210421.1823)
 -->
<!-- Title: get_perturbed_solution Pages: 1 -->
<svg width="846pt" height="468pt"
 viewBox="0.00 0.00 846.00 468.16" xmlns="http://www.w3.org/2000/svg" xmlns:xlink="http://www.w3.org/1999/xlink">
<g id="graph0" class="graph" transform="scale(1 1) rotate(0) translate(4 464.16)">
<title>get_perturbed_solution</title>
<polygon fill="white" stroke="transparent" points="-4,4 -4,-464.16 842,-464.16 842,4 -4,4"/>
<!-- Node1 -->
<g id="node1" class="node">
<title>Node1</title>
<g id="a_node1"><a xlink:title="This routine evaluates the value of the magnetic field once the interface is perturbed using matrix p...">
<polygon fill="#bfbfbf" stroke="black" points="723,-38.5 723,-57.5 838,-57.5 838,-38.5 723,-38.5"/>
<text text-anchor="middle" x="780.5" y="-45.5" font-family="Helvetica,sans-Serif" font-size="10.00">get_perturbed_solution</text>
</a>
</g>
</g>
<!-- Node2 -->
<g id="node2" class="node">
<title>Node2</title>
<g id="a_node2"><a xlink:href="dfp200_8f90.html#a55ea75395f8c71731451e1add3720c7e" target="_top" xlink:title="Given the field consistent with the constraints and the geometry, computes local quantites related to...">
<polygon fill="white" stroke="black" points="641,-38.5 641,-57.5 687,-57.5 687,-38.5 641,-38.5"/>
<text text-anchor="middle" x="664" y="-45.5" font-family="Helvetica,sans-Serif" font-size="10.00">dfp200</text>
</a>
</g>
</g>
<!-- Node1&#45;&gt;Node2 -->
<g id="edge1" class="edge">
<title>Node1&#45;&gt;Node2</title>
<path fill="none" stroke="midnightblue" d="M712.81,-41.33C703.57,-41.49 694.67,-41.9 687.11,-42.54"/>
<polygon fill="midnightblue" stroke="midnightblue" points="712.95,-44.83 722.92,-41.25 712.89,-37.83 712.95,-44.83"/>
</g>
<!-- Node2&#45;&gt;Node1 -->
<g id="edge33" class="edge">
<title>Node2&#45;&gt;Node1</title>
<path fill="none" stroke="midnightblue" d="M697.14,-54.14C705.19,-54.56 714.07,-54.76 722.92,-54.75"/>
<polygon fill="midnightblue" stroke="midnightblue" points="697.32,-50.64 687.11,-53.46 696.85,-57.62 697.32,-50.64"/>
</g>
<!-- Node3 -->
<g id="node3" class="node">
<title>Node3</title>
<g id="a_node3"><a xlink:href="group__grp__global__force.html#ga38c9d3c50bd043707fefa5137c9dbf44" target="_top" xlink:title="Calculates , where &#160;and , and .">
<polygon fill="white" stroke="black" points="535.5,-199.5 535.5,-218.5 579.5,-218.5 579.5,-199.5 535.5,-199.5"/>
<text text-anchor="middle" x="557.5" y="-206.5" font-family="Helvetica,sans-Serif" font-size="10.00">dforce</text>
</a>
</g>
</g>
<!-- Node2&#45;&gt;Node3 -->
<g id="edge2" class="edge">
<title>Node2&#45;&gt;Node3</title>
<path fill="none" stroke="midnightblue" d="M651.24,-66.12C629.09,-100.24 581.89,-172.96 564.82,-199.26"/>
<polygon fill="midnightblue" stroke="midnightblue" points="654.27,-67.88 656.78,-57.59 648.4,-64.07 654.27,-67.88"/>
</g>
<!-- Node10 -->
<g id="node10" class="node">
<title>Node10</title>
<g id="a_node10"><a xlink:href="dfp200_8f90.html#a6aca59cf350d7b1941f8389d50945a43" target="_top" xlink:title="get LU Beltrami matrices">
<polygon fill="white" stroke="black" points="349,-85.5 349,-104.5 474,-104.5 474,-85.5 349,-85.5"/>
<text text-anchor="middle" x="411.5" y="-92.5" font-family="Helvetica,sans-Serif" font-size="10.00">get_lu_beltrami_matrices</text>
</a>
</g>
</g>
<!-- Node2&#45;&gt;Node10 -->
<g id="edge32" class="edge">
<title>Node2&#45;&gt;Node10</title>
<path fill="none" stroke="midnightblue" d="M631.12,-50.84C622.71,-53.28 613.58,-55.99 605,-58 549.76,-70.96 484.12,-78.97 445.52,-85.49"/>
<polygon fill="midnightblue" stroke="midnightblue" points="632.27,-54.15 640.95,-48.08 630.37,-47.42 632.27,-54.15"/>
</g>
<!-- Node16 -->
<g id="node16" class="node">
<title>Node16</title>
<g id="a_node16"><a xlink:href="dfp200_8f90.html#a7b64c7392b45d0042d8bd7379c0761a5" target="_top" xlink:title="Evaluate the derivative of the square of the magnetic field modulus. Add spectral constraint derivati...">
<polygon fill="white" stroke="black" points="520.5,-38.5 520.5,-57.5 594.5,-57.5 594.5,-38.5 520.5,-38.5"/>
<text text-anchor="middle" x="557.5" y="-45.5" font-family="Helvetica,sans-Serif" font-size="10.00">evaluate_dbb</text>
</a>
</g>
</g>
<!-- Node2&#45;&gt;Node16 -->
<g id="edge28" class="edge">
<title>Node2&#45;&gt;Node16</title>
<path fill="none" stroke="midnightblue" d="M630.82,-41.71C619.36,-41.16 606.38,-41.1 594.61,-41.54"/>
<polygon fill="midnightblue" stroke="midnightblue" points="630.63,-45.21 640.84,-42.36 631.09,-38.22 630.63,-45.21"/>
</g>
<!-- Node17 -->
<g id="node17" class="node">
<title>Node17</title>
<g id="a_node17"><a xlink:href="dfp200_8f90.html#a73ddf39ecc5228201fb643779e17cd36" target="_top" xlink:title="Evaluate mu and psip derivatives and store them in dmupfdx.">
<polygon fill="white" stroke="black" points="510,-0.5 510,-19.5 605,-19.5 605,-0.5 510,-0.5"/>
<text text-anchor="middle" x="557.5" y="-7.5" font-family="Helvetica,sans-Serif" font-size="10.00">evaluate_dmupfdx</text>
</a>
</g>
</g>
<!-- Node2&#45;&gt;Node17 -->
<g id="edge30" class="edge">
<title>Node2&#45;&gt;Node17</title>
<path fill="none" stroke="midnightblue" d="M640.21,-34.03C629.42,-29.23 616.13,-24.06 603.43,-19.65"/>
<polygon fill="midnightblue" stroke="midnightblue" points="638.8,-37.23 649.34,-38.3 641.77,-30.89 638.8,-37.23"/>
</g>
<!-- Node4 -->
<g id="node4" class="node">
<title>Node4</title>
<g id="a_node4"><a xlink:href="group__grp__force__driver.html#gabbc245b3884ee8d8d3e2a52f25149f78" target="_top" xlink:title="fcn1">
<polygon fill="white" stroke="black" points="394,-322.5 394,-341.5 429,-341.5 429,-322.5 394,-322.5"/>
<text text-anchor="middle" x="411.5" y="-329.5" font-family="Helvetica,sans-Serif" font-size="10.00">fcn1</text>
</a>
</g>
</g>
<!-- Node3&#45;&gt;Node4 -->
<g id="edge3" class="edge">
<title>Node3&#45;&gt;Node4</title>
<path fill="none" stroke="midnightblue" d="M537.41,-225.31C506.95,-251.32 448.3,-301.42 423.75,-322.39"/>
<polygon fill="midnightblue" stroke="midnightblue" points="539.87,-227.81 545.2,-218.65 535.32,-222.49 539.87,-227.81"/>
</g>
<!-- Node5 -->
<g id="node5" class="node">
<title>Node5</title>
<g id="a_node5"><a xlink:href="group__grp__force__driver.html#gaec14f81fbdbedafbc4189489ec8ae178" target="_top" xlink:title="Employs Newton method to find , where &#160;and &#160;is defined in dforce() .">
<polygon fill="white" stroke="black" points="265,-360.5 265,-379.5 313,-379.5 313,-360.5 265,-360.5"/>
<text text-anchor="middle" x="289" y="-367.5" font-family="Helvetica,sans-Serif" font-size="10.00">newton</text>
</a>
</g>
</g>
<!-- Node3&#45;&gt;Node5 -->
<g id="edge19" class="edge">
<title>Node3&#45;&gt;Node5</title>
<path fill="none" stroke="midnightblue" d="M551.37,-228.56C541.93,-260.26 518.56,-322.21 474,-351 424.1,-383.24 350.23,-378.81 313.09,-373.87"/>
<polygon fill="midnightblue" stroke="midnightblue" points="554.8,-229.28 554.14,-218.71 548.06,-227.39 554.8,-229.28"/>
</g>
<!-- Node6 -->
<g id="node6" class="node">
<title>Node6</title>
<g id="a_node6"><a xlink:href="group__grp__force__driver.html#ga8ccd6c7d901872702521d0a0edf95412" target="_top" xlink:title="fcn2">
<polygon fill="white" stroke="black" points="87,-383.5 87,-402.5 122,-402.5 122,-383.5 87,-383.5"/>
<text text-anchor="middle" x="104.5" y="-390.5" font-family="Helvetica,sans-Serif" font-size="10.00">fcn2</text>
</a>
</g>
</g>
<!-- Node3&#45;&gt;Node6 -->
<g id="edge14" class="edge">
<title>Node3&#45;&gt;Node6</title>
<path fill="none" stroke="midnightblue" d="M552.59,-228.96C544.52,-264.62 522.55,-339.18 474,-378 364.53,-465.54 297.19,-479.68 164,-436 144.12,-429.48 125.42,-413.33 114.74,-402.79"/>
<polygon fill="midnightblue" stroke="midnightblue" points="556.08,-229.35 554.74,-218.84 549.24,-227.9 556.08,-229.35"/>
</g>
<!-- Node8 -->
<g id="node8" class="node">
<title>Node8</title>
<g id="a_node8"><a xlink:href="xspech_8f90.html#aea782eae089760a491c2c54f9903abcc" target="_top" xlink:title="Main program of SPEC.">
<polygon fill="white" stroke="black" points="81,-237.5 81,-256.5 128,-256.5 128,-237.5 81,-237.5"/>
<text text-anchor="middle" x="104.5" y="-244.5" font-family="Helvetica,sans-Serif" font-size="10.00">xspech</text>
</a>
</g>
</g>
<!-- Node3&#45;&gt;Node8 -->
<g id="edge27" class="edge">
<title>Node3&#45;&gt;Node8</title>
<path fill="none" stroke="midnightblue" d="M525.77,-199.07C457.63,-178.82 289.93,-138.79 164,-190 140.36,-199.61 121.04,-223.89 111.65,-237.45"/>
<polygon fill="midnightblue" stroke="midnightblue" points="524.87,-202.46 535.46,-202.02 526.91,-195.76 524.87,-202.46"/>
</g>
<!-- Node3&#45;&gt;Node10 -->
<g id="edge15" class="edge">
<title>Node3&#45;&gt;Node10</title>
<path fill="none" stroke="midnightblue" d="M545.32,-190.85C531.24,-169.46 505.08,-134.26 474,-114 468.1,-110.16 461.38,-107.05 454.6,-104.56"/>
<polygon fill="midnightblue" stroke="midnightblue" points="542.42,-192.81 550.76,-199.35 548.32,-189.04 542.42,-192.81"/>
</g>
<!-- Node11 -->
<g id="node11" class="node">
<title>Node11</title>
<g id="a_node11"><a xlink:href="group__grp__diagnostics.html#ga7401b50ec10c6598ee4a8112717a63ec" target="_top" xlink:title="Computes eigenvalues and eigenvectors of derivative matrix, .">
<polygon fill="white" stroke="black" points="174,-199.5 174,-218.5 219,-218.5 219,-199.5 174,-199.5"/>
<text text-anchor="middle" x="196.5" y="-206.5" font-family="Helvetica,sans-Serif" font-size="10.00">hesian</text>
</a>
</g>
</g>
<!-- Node3&#45;&gt;Node11 -->
<g id="edge17" class="edge">
<title>Node3&#45;&gt;Node11</title>
<path fill="none" stroke="midnightblue" d="M525.23,-209C453.85,-209 280.41,-209 219.27,-209"/>
<polygon fill="midnightblue" stroke="midnightblue" points="525.38,-212.5 535.38,-209 525.38,-205.5 525.38,-212.5"/>
</g>
<!-- Node12 -->
<g id="node12" class="node">
<title>Node12</title>
<g id="a_node12"><a xlink:href="group__grp__conjugate__gradient.html#ga4d8415226e62a9fdb42b0fd0b464251e" target="_top" xlink:title="Returns the energy functional and it&#39;s derivatives with respect to geometry.">
<polygon fill="white" stroke="black" points="387.5,-123.5 387.5,-142.5 435.5,-142.5 435.5,-123.5 387.5,-123.5"/>
<text text-anchor="middle" x="411.5" y="-130.5" font-family="Helvetica,sans-Serif" font-size="10.00">pc00ab</text>
</a>
</g>
</g>
<!-- Node3&#45;&gt;Node12 -->
<g id="edge20" class="edge">
<title>Node3&#45;&gt;Node12</title>
<path fill="none" stroke="midnightblue" d="M534.67,-193.63C518.42,-182.59 495.43,-167.81 474,-157 461.72,-150.81 447.44,-145.14 435.73,-140.88"/>
<polygon fill="midnightblue" stroke="midnightblue" points="532.74,-196.55 542.96,-199.33 536.7,-190.78 532.74,-196.55"/>
</g>
<!-- Node14 -->
<g id="node14" class="node">
<title>Node14</title>
<g id="a_node14"><a xlink:href="namespaceallglobal.html#ad32ae6194892fe7d876622a6455189e2" target="_top" xlink:title="The master node reads the input namelist and sets various internal variables. The relevant quantities...">
<polygon fill="white" stroke="black" points="370,-237.5 370,-256.5 453,-256.5 453,-237.5 370,-237.5"/>
<text text-anchor="middle" x="411.5" y="-244.5" font-family="Helvetica,sans-Serif" font-size="10.00">allglobal::readin</text>
</a>
</g>
</g>
<!-- Node3&#45;&gt;Node14 -->
<g id="edge22" class="edge">
<title>Node3&#45;&gt;Node14</title>
<path fill="none" stroke="midnightblue" d="M525.51,-217.18C502.94,-223.13 472.32,-231.21 448.64,-237.46"/>
<polygon fill="midnightblue" stroke="midnightblue" points="526.48,-220.54 535.25,-214.61 524.69,-213.77 526.48,-220.54"/>
</g>
<!-- Node4&#45;&gt;Node5 -->
<g id="edge4" class="edge">
<title>Node4&#45;&gt;Node5</title>
<path fill="none" stroke="midnightblue" d="M383.84,-334.69C359.79,-340.62 325.24,-351.85 305.47,-360.42"/>
<polygon fill="midnightblue" stroke="midnightblue" points="384.77,-338.07 393.74,-332.44 383.22,-331.25 384.77,-338.07"/>
</g>
<!-- Node5&#45;&gt;Node4 -->
<g id="edge5" class="edge">
<title>Node5&#45;&gt;Node4</title>
<path fill="none" stroke="midnightblue" d="M323.04,-365.68C346.39,-359.52 376.63,-349.52 394.75,-341.7"/>
<polygon fill="midnightblue" stroke="midnightblue" points="322.05,-362.32 313.19,-368.14 323.74,-369.11 322.05,-362.32"/>
</g>
<!-- Node5&#45;&gt;Node6 -->
<g id="edge6" class="edge">
<title>Node5&#45;&gt;Node6</title>
<path fill="none" stroke="midnightblue" d="M254.78,-368.84C215.66,-371.55 152.21,-379.96 122.22,-386.79"/>
<polygon fill="midnightblue" stroke="midnightblue" points="255.11,-372.32 264.89,-368.24 254.7,-365.34 255.11,-372.32"/>
</g>
<!-- Node7 -->
<g id="node7" class="node">
<title>Node7</title>
<g id="a_node7"><a xlink:href="group__grp__force__driver.html#ga382822b303cbf8c56d6f54dcb379caf2" target="_top" xlink:title="read or write force&#45;derivative matrix">
<polygon fill="white" stroke="black" points="164,-407.5 164,-426.5 229,-426.5 229,-407.5 164,-407.5"/>
<text text-anchor="middle" x="196.5" y="-414.5" font-family="Helvetica,sans-Serif" font-size="10.00">writereadgf</text>
</a>
</g>
</g>
<!-- Node5&#45;&gt;Node7 -->
<g id="edge8" class="edge">
<title>Node5&#45;&gt;Node7</title>
<path fill="none" stroke="midnightblue" d="M255.18,-380.53C238.41,-388.6 219.16,-399.28 207.68,-407.25"/>
<polygon fill="midnightblue" stroke="midnightblue" points="257.09,-383.5 264.69,-376.12 254.15,-377.15 257.09,-383.5"/>
</g>
<!-- Node5&#45;&gt;Node8 -->
<g id="edge11" class="edge">
<title>Node5&#45;&gt;Node8</title>
<path fill="none" stroke="midnightblue" d="M259.1,-355.63C233.29,-342.3 194.9,-321.21 164,-299 145.68,-285.83 126.52,-267.88 115.32,-256.88"/>
<polygon fill="midnightblue" stroke="midnightblue" points="257.84,-358.92 268.34,-360.35 261.02,-352.68 257.84,-358.92"/>
</g>
<!-- Node6&#45;&gt;Node5 -->
<g id="edge7" class="edge">
<title>Node6&#45;&gt;Node5</title>
<path fill="none" stroke="midnightblue" d="M132.41,-394.56C168.26,-392.53 231.07,-384.52 264.89,-377.59"/>
<polygon fill="midnightblue" stroke="midnightblue" points="132.06,-391.07 122.22,-394.99 132.36,-398.07 132.06,-391.07"/>
</g>
<!-- Node7&#45;&gt;Node5 -->
<g id="edge10" class="edge">
<title>Node7&#45;&gt;Node5</title>
<path fill="none" stroke="midnightblue" d="M237.61,-402.88C252.5,-395.37 268.14,-386.49 277.97,-379.64"/>
<polygon fill="midnightblue" stroke="midnightblue" points="235.94,-399.8 228.5,-407.35 239.02,-406.09 235.94,-399.8"/>
</g>
<!-- Node7&#45;&gt;Node6 -->
<g id="edge9" class="edge">
<title>Node7&#45;&gt;Node6</title>
<path fill="none" stroke="midnightblue" d="M153.99,-405.93C142.69,-402.92 131.09,-399.82 122.07,-397.42"/>
<polygon fill="midnightblue" stroke="midnightblue" points="153.21,-409.34 163.77,-408.54 155.01,-402.58 153.21,-409.34"/>
</g>
<!-- Node9 -->
<g id="node9" class="node">
<title>Node9</title>
<g id="a_node9"><a xlink:href="xspech_8f90.html#a537af4990058c0b0f2cd8b3669af204f" target="_top" xlink:title="todo remark">
<polygon fill="white" stroke="black" points="0,-237.5 0,-256.5 45,-256.5 45,-237.5 0,-237.5"/>
<text text-anchor="middle" x="22.5" y="-244.5" font-family="Helvetica,sans-Serif" font-size="10.00">ending</text>
</a>
</g>
</g>
<!-- Node8&#45;&gt;Node9 -->
<g id="edge12" class="edge">
<title>Node8&#45;&gt;Node9</title>
<path fill="none" stroke="midnightblue" d="M70.65,-240.35C62.06,-240.11 53.01,-240.3 45.17,-240.92"/>
<polygon fill="midnightblue" stroke="midnightblue" points="70.63,-243.85 80.79,-240.84 70.97,-236.86 70.63,-243.85"/>
</g>
<!-- Node9&#45;&gt;Node8 -->
<g id="edge13" class="edge">
<title>Node9&#45;&gt;Node8</title>
<path fill="none" stroke="midnightblue" d="M55.22,-253.62C63.77,-253.89 72.84,-253.74 80.79,-253.16"/>
<polygon fill="midnightblue" stroke="midnightblue" points="55.34,-250.12 45.17,-253.08 54.96,-257.11 55.34,-250.12"/>
</g>
<!-- Node10&#45;&gt;Node2 -->
<g id="edge16" class="edge">
<title>Node10&#45;&gt;Node2</title>
<path fill="none" stroke="midnightblue" d="M484.18,-95.62C520.63,-92.01 565.48,-85.27 605,-76 622.74,-71.84 642.83,-64.69 654.1,-57.72"/>
<polygon fill="midnightblue" stroke="midnightblue" points="483.76,-92.14 474.13,-96.55 484.41,-99.11 483.76,-92.14"/>
</g>
<!-- Node11&#45;&gt;Node8 -->
<g id="edge18" class="edge">
<title>Node11&#45;&gt;Node8</title>
<path fill="none" stroke="midnightblue" d="M164.49,-222.09C152.51,-227.15 139.06,-232.83 128.03,-237.49"/>
<polygon fill="midnightblue" stroke="midnightblue" points="165.86,-225.31 173.71,-218.2 163.14,-218.86 165.86,-225.31"/>
</g>
<!-- Node13 -->
<g id="node13" class="node">
<title>Node13</title>
<g id="a_node13"><a xlink:href="group__grp__conjugate__gradient.html#ga25a3bae2ff2ee0469b045de0d033398b" target="_top" xlink:title="Use preconditioned conjugate gradient method to find minimum of energy functional.">
<polygon fill="white" stroke="black" points="265,-123.5 265,-142.5 313,-142.5 313,-123.5 265,-123.5"/>
<text text-anchor="middle" x="289" y="-130.5" font-family="Helvetica,sans-Serif" font-size="10.00">pc00aa</text>
</a>
</g>
</g>
<!-- Node12&#45;&gt;Node13 -->
<g id="edge21" class="edge">
<title>Node12&#45;&gt;Node13</title>
<path fill="none" stroke="midnightblue" d="M377.16,-133C356.81,-133 331.31,-133 313.16,-133"/>
<polygon fill="midnightblue" stroke="midnightblue" points="377.27,-136.5 387.27,-133 377.27,-129.5 377.27,-136.5"/>
</g>
<!-- Node14&#45;&gt;Node8 -->
<g id="edge26" class="edge">
<title>Node14&#45;&gt;Node8</title>
<path fill="none" stroke="midnightblue" d="M361.11,-258.54C345.78,-261.6 328.77,-264.48 313,-266 247.05,-272.37 229.59,-270.39 164,-261 152.01,-259.28 138.87,-256.25 128.09,-253.44"/>
<polygon fill="midnightblue" stroke="midnightblue" points="361.82,-261.96 370.91,-256.51 360.4,-255.11 361.82,-261.96"/>
</g>
<!-- Node15 -->
<g id="node15" class="node">
<title>Node15</title>
<g id="a_node15"><a xlink:href="group__grp__initialization.html#ga28628de0fdb3b3497668007d8d0643bd" target="_top" xlink:title="Allocates and initializes internal arrays.">
<polygon fill="white" stroke="black" points="267,-237.5 267,-256.5 311,-256.5 311,-237.5 267,-237.5"/>
<text text-anchor="middle" x="289" y="-244.5" font-family="Helvetica,sans-Serif" font-size="10.00">preset</text>
</a>
</g>
</g>
<!-- Node14&#45;&gt;Node15 -->
<g id="edge23" class="edge">
<title>Node14&#45;&gt;Node15</title>
<path fill="none" stroke="midnightblue" d="M359.34,-247C342.41,-247 324.5,-247 311.13,-247"/>
<polygon fill="midnightblue" stroke="midnightblue" points="359.7,-250.5 369.7,-247 359.7,-243.5 359.7,-250.5"/>
</g>
<!-- Node15&#45;&gt;Node8 -->
<g id="edge25" class="edge">
<title>Node15&#45;&gt;Node8</title>
<path fill="none" stroke="midnightblue" d="M256.59,-247C219.98,-247 160.4,-247 128.08,-247"/>
<polygon fill="midnightblue" stroke="midnightblue" points="256.71,-250.5 266.71,-247 256.71,-243.5 256.71,-250.5"/>
</g>
<!-- Node15&#45;&gt;Node11 -->
<g id="edge24" class="edge">
<title>Node15&#45;&gt;Node11</title>
<path fill="none" stroke="midnightblue" d="M256.98,-233.97C244.51,-228.74 230.43,-222.83 219.11,-218.07"/>
<polygon fill="midnightblue" stroke="midnightblue" points="255.98,-237.35 266.55,-237.99 258.69,-230.9 255.98,-237.35"/>
</g>
<!-- Node16&#45;&gt;Node2 -->
<g id="edge29" class="edge">
<title>Node16&#45;&gt;Node2</title>
<path fill="none" stroke="midnightblue" d="M604.93,-54.71C617.42,-54.87 630.35,-54.51 640.84,-53.64"/>
<polygon fill="midnightblue" stroke="midnightblue" points="604.69,-51.21 594.61,-54.46 604.52,-58.2 604.69,-51.21"/>
</g>
<!-- Node17&#45;&gt;Node2 -->
<g id="edge31" class="edge">
<title>Node17&#45;&gt;Node2</title>
<path fill="none" stroke="midnightblue" d="M581.55,-24.09C599.21,-31.92 623.41,-40.7 640.84,-45.58"/>
<polygon fill="midnightblue" stroke="midnightblue" points="582.55,-20.7 572.01,-19.63 579.59,-27.04 582.55,-20.7"/>
</g>
</g>
</svg>
