<?xml version="1.0" encoding="UTF-8" standalone="no"?>
<!DOCTYPE svg PUBLIC "-//W3C//DTD SVG 1.1//EN"
 "http://www.w3.org/Graphics/SVG/1.1/DTD/svg11.dtd">
<!-- Generated by graphviz version 2.47.1 (20210421.1823)
 -->
<!-- Title: get_perturbed_solution Pages: 1 -->
<svg width="812pt" height="373pt"
 viewBox="0.00 0.00 812.00 372.69" xmlns="http://www.w3.org/2000/svg" xmlns:xlink="http://www.w3.org/1999/xlink">
<g id="graph0" class="graph" transform="scale(1 1) rotate(0) translate(4 368.69)">
<title>get_perturbed_solution</title>
<polygon fill="white" stroke="transparent" points="-4,4 -4,-368.69 808,-368.69 808,4 -4,4"/>
<!-- Node1 -->
<g id="node1" class="node">
<title>Node1</title>
<g id="a_node1"><a xlink:title="This routine evaluates the value of the magnetic field once the interface is perturbed using matrix p...">
<polygon fill="#bfbfbf" stroke="black" points="689,-38.5 689,-57.5 804,-57.5 804,-38.5 689,-38.5"/>
<text text-anchor="middle" x="746.5" y="-45.5" font-family="Helvetica,sans-Serif" font-size="10.00">get_perturbed_solution</text>
</a>
</g>
</g>
<!-- Node2 -->
<g id="node2" class="node">
<title>Node2</title>
<g id="a_node2"><a xlink:href="dfp200_8f90.html#a55ea75395f8c71731451e1add3720c7e" target="_top" xlink:title="Given the field consistent with the constraints and the geometry, computes local quantites related to...">
<polygon fill="white" stroke="black" points="607,-38.5 607,-57.5 653,-57.5 653,-38.5 607,-38.5"/>
<text text-anchor="middle" x="630" y="-45.5" font-family="Helvetica,sans-Serif" font-size="10.00">dfp200</text>
</a>
</g>
</g>
<!-- Node1&#45;&gt;Node2 -->
<g id="edge1" class="edge">
<title>Node1&#45;&gt;Node2</title>
<path fill="none" stroke="midnightblue" d="M678.81,-41.33C669.57,-41.49 660.67,-41.9 653.11,-42.54"/>
<polygon fill="midnightblue" stroke="midnightblue" points="678.95,-44.83 688.92,-41.25 678.89,-37.83 678.95,-44.83"/>
</g>
<!-- Node2&#45;&gt;Node1 -->
<g id="edge31" class="edge">
<title>Node2&#45;&gt;Node1</title>
<path fill="none" stroke="midnightblue" d="M663.14,-54.14C671.19,-54.56 680.07,-54.76 688.92,-54.75"/>
<polygon fill="midnightblue" stroke="midnightblue" points="663.32,-50.64 653.11,-53.46 662.85,-57.62 663.32,-50.64"/>
</g>
<!-- Node3 -->
<g id="node3" class="node">
<title>Node3</title>
<g id="a_node3"><a xlink:href="group__grp__global__force.html#ga38c9d3c50bd043707fefa5137c9dbf44" target="_top" xlink:title="Calculates , where &#160;and , and .">
<polygon fill="white" stroke="black" points="501.5,-199.5 501.5,-218.5 545.5,-218.5 545.5,-199.5 501.5,-199.5"/>
<text text-anchor="middle" x="523.5" y="-206.5" font-family="Helvetica,sans-Serif" font-size="10.00">dforce</text>
</a>
</g>
</g>
<!-- Node2&#45;&gt;Node3 -->
<g id="edge2" class="edge">
<title>Node2&#45;&gt;Node3</title>
<path fill="none" stroke="midnightblue" d="M617.24,-66.12C595.09,-100.24 547.89,-172.96 530.82,-199.26"/>
<polygon fill="midnightblue" stroke="midnightblue" points="620.27,-67.88 622.78,-57.59 614.4,-64.07 620.27,-67.88"/>
</g>
<!-- Node12 -->
<g id="node12" class="node">
<title>Node12</title>
<g id="a_node12"><a xlink:href="dfp200_8f90.html#a6aca59cf350d7b1941f8389d50945a43" target="_top" xlink:title="get LU Beltrami matrices">
<polygon fill="white" stroke="black" points="315,-85.5 315,-104.5 440,-104.5 440,-85.5 315,-85.5"/>
<text text-anchor="middle" x="377.5" y="-92.5" font-family="Helvetica,sans-Serif" font-size="10.00">get_lu_beltrami_matrices</text>
</a>
</g>
</g>
<!-- Node2&#45;&gt;Node12 -->
<g id="edge30" class="edge">
<title>Node2&#45;&gt;Node12</title>
<path fill="none" stroke="midnightblue" d="M597.12,-50.84C588.71,-53.28 579.58,-55.99 571,-58 515.76,-70.96 450.12,-78.97 411.52,-85.49"/>
<polygon fill="midnightblue" stroke="midnightblue" points="598.27,-54.15 606.95,-48.08 596.37,-47.42 598.27,-54.15"/>
</g>
<!-- Node16 -->
<g id="node16" class="node">
<title>Node16</title>
<g id="a_node16"><a xlink:href="dfp200_8f90.html#a7b64c7392b45d0042d8bd7379c0761a5" target="_top" xlink:title="Evaluate the derivative of the square of the magnetic field modulus. Add spectral constraint derivati...">
<polygon fill="white" stroke="black" points="486.5,-38.5 486.5,-57.5 560.5,-57.5 560.5,-38.5 486.5,-38.5"/>
<text text-anchor="middle" x="523.5" y="-45.5" font-family="Helvetica,sans-Serif" font-size="10.00">evaluate_dbb</text>
</a>
</g>
</g>
<!-- Node2&#45;&gt;Node16 -->
<g id="edge26" class="edge">
<title>Node2&#45;&gt;Node16</title>
<path fill="none" stroke="midnightblue" d="M596.82,-41.71C585.36,-41.16 572.38,-41.1 560.61,-41.54"/>
<polygon fill="midnightblue" stroke="midnightblue" points="596.63,-45.21 606.84,-42.36 597.09,-38.22 596.63,-45.21"/>
</g>
<!-- Node17 -->
<g id="node17" class="node">
<title>Node17</title>
<g id="a_node17"><a xlink:href="dfp200_8f90.html#a73ddf39ecc5228201fb643779e17cd36" target="_top" xlink:title="Evaluate mu and psip derivatives and store them in dmupfdx.">
<polygon fill="white" stroke="black" points="476,-0.5 476,-19.5 571,-19.5 571,-0.5 476,-0.5"/>
<text text-anchor="middle" x="523.5" y="-7.5" font-family="Helvetica,sans-Serif" font-size="10.00">evaluate_dmupfdx</text>
</a>
</g>
</g>
<!-- Node2&#45;&gt;Node17 -->
<g id="edge28" class="edge">
<title>Node2&#45;&gt;Node17</title>
<path fill="none" stroke="midnightblue" d="M606.21,-34.03C595.42,-29.23 582.13,-24.06 569.43,-19.65"/>
<polygon fill="midnightblue" stroke="midnightblue" points="604.8,-37.23 615.34,-38.3 607.77,-30.89 604.8,-37.23"/>
</g>
<!-- Node4 -->
<g id="node4" class="node">
<title>Node4</title>
<g id="a_node4"><a xlink:href="namespaceallglobal.html#a7824bc37519fe88336534ce90ab2af16" target="_top" xlink:title=" ">
<polygon fill="white" stroke="black" points="320.5,-313.5 320.5,-332.5 434.5,-332.5 434.5,-313.5 320.5,-313.5"/>
<text text-anchor="middle" x="377.5" y="-320.5" font-family="Helvetica,sans-Serif" font-size="10.00">allglobal::check_inputs</text>
</a>
</g>
</g>
<!-- Node3&#45;&gt;Node4 -->
<g id="edge3" class="edge">
<title>Node3&#45;&gt;Node4</title>
<path fill="none" stroke="midnightblue" d="M509.98,-227C495.26,-246.99 469.12,-279.06 440,-299 431.3,-304.96 420.91,-309.73 411.17,-313.41"/>
<polygon fill="midnightblue" stroke="midnightblue" points="512.91,-228.91 515.91,-218.75 507.23,-224.83 512.91,-228.91"/>
</g>
<!-- Node6 -->
<g id="node6" class="node">
<title>Node6</title>
<g id="a_node6"><a xlink:href="xspech_8f90.html#a48f45478dc2c9f70ea8aa1c60ad06503" target="_top" xlink:title=" ">
<polygon fill="white" stroke="black" points="143.5,-313.5 143.5,-332.5 181.5,-332.5 181.5,-313.5 143.5,-313.5"/>
<text text-anchor="middle" x="162.5" y="-320.5" font-family="Helvetica,sans-Serif" font-size="10.00">spec</text>
</a>
</g>
</g>
<!-- Node3&#45;&gt;Node6 -->
<g id="edge25" class="edge">
<title>Node3&#45;&gt;Node6</title>
<path fill="none" stroke="midnightblue" d="M517.02,-228.69C507.29,-259.39 483.77,-317.64 440,-342 353.81,-389.96 228.35,-348.93 181.79,-330.67"/>
<polygon fill="midnightblue" stroke="midnightblue" points="520.48,-229.33 519.99,-218.75 513.77,-227.33 520.48,-229.33"/>
</g>
<!-- Node8 -->
<g id="node8" class="node">
<title>Node8</title>
<g id="a_node8"><a xlink:href="group__grp__force__driver.html#gabbc245b3884ee8d8d3e2a52f25149f78" target="_top" xlink:title="fcn1">
<polygon fill="white" stroke="black" points="360,-199.5 360,-218.5 395,-218.5 395,-199.5 360,-199.5"/>
<text text-anchor="middle" x="377.5" y="-206.5" font-family="Helvetica,sans-Serif" font-size="10.00">fcn1</text>
</a>
</g>
</g>
<!-- Node3&#45;&gt;Node8 -->
<g id="edge8" class="edge">
<title>Node3&#45;&gt;Node8</title>
<path fill="none" stroke="midnightblue" d="M491.08,-209C461.64,-209 418.77,-209 395.34,-209"/>
<polygon fill="midnightblue" stroke="midnightblue" points="491.25,-212.5 501.25,-209 491.25,-205.5 491.25,-212.5"/>
</g>
<!-- Node9 -->
<g id="node9" class="node">
<title>Node9</title>
<g id="a_node9"><a xlink:href="group__grp__force__driver.html#gaec14f81fbdbedafbc4189489ec8ae178" target="_top" xlink:title="Employs Newton method to find , where &#160;and &#160;is defined in dforce() .">
<polygon fill="white" stroke="black" points="231,-218.5 231,-237.5 279,-237.5 279,-218.5 231,-218.5"/>
<text text-anchor="middle" x="255" y="-225.5" font-family="Helvetica,sans-Serif" font-size="10.00">newton</text>
</a>
</g>
</g>
<!-- Node3&#45;&gt;Node9 -->
<g id="edge22" class="edge">
<title>Node3&#45;&gt;Node9</title>
<path fill="none" stroke="midnightblue" d="M491.38,-217.92C476.05,-221.86 457.21,-226.04 440,-228 382.39,-234.55 313.98,-231.81 279.04,-229.66"/>
<polygon fill="midnightblue" stroke="midnightblue" points="492.6,-221.22 501.36,-215.26 490.8,-214.45 492.6,-221.22"/>
</g>
<!-- Node10 -->
<g id="node10" class="node">
<title>Node10</title>
<g id="a_node10"><a xlink:href="group__grp__force__driver.html#ga8ccd6c7d901872702521d0a0edf95412" target="_top" xlink:title="fcn2">
<polygon fill="white" stroke="black" points="29.5,-223.5 29.5,-242.5 64.5,-242.5 64.5,-223.5 29.5,-223.5"/>
<text text-anchor="middle" x="47" y="-230.5" font-family="Helvetica,sans-Serif" font-size="10.00">fcn2</text>
</a>
</g>
</g>
<!-- Node3&#45;&gt;Node10 -->
<g id="edge17" class="edge">
<title>Node3&#45;&gt;Node10</title>
<path fill="none" stroke="midnightblue" d="M491.38,-200.08C476.05,-196.14 457.21,-191.96 440,-190 303.1,-174.44 263.78,-157.05 130,-190 103.93,-196.42 76.98,-212.76 61.39,-223.35"/>
<polygon fill="midnightblue" stroke="midnightblue" points="490.8,-203.55 501.36,-202.74 492.6,-196.78 490.8,-203.55"/>
</g>
<!-- Node3&#45;&gt;Node12 -->
<g id="edge18" class="edge">
<title>Node3&#45;&gt;Node12</title>
<path fill="none" stroke="midnightblue" d="M511.32,-190.85C497.24,-169.46 471.08,-134.26 440,-114 434.1,-110.16 427.38,-107.05 420.6,-104.56"/>
<polygon fill="midnightblue" stroke="midnightblue" points="508.42,-192.81 516.76,-199.35 514.32,-189.04 508.42,-192.81"/>
</g>
<!-- Node13 -->
<g id="node13" class="node">
<title>Node13</title>
<g id="a_node13"><a xlink:href="group__grp__diagnostics.html#ga7401b50ec10c6598ee4a8112717a63ec" target="_top" xlink:title="Computes eigenvalues and eigenvectors of derivative matrix, .">
<polygon fill="white" stroke="black" points="232.5,-275.5 232.5,-294.5 277.5,-294.5 277.5,-275.5 232.5,-275.5"/>
<text text-anchor="middle" x="255" y="-282.5" font-family="Helvetica,sans-Serif" font-size="10.00">hesian</text>
</a>
</g>
</g>
<!-- Node3&#45;&gt;Node13 -->
<g id="edge20" class="edge">
<title>Node3&#45;&gt;Node13</title>
<path fill="none" stroke="midnightblue" d="M493.74,-222.73C478.11,-229.8 458.28,-238.14 440,-244 382.5,-262.43 312.31,-275.59 277.59,-281.51"/>
<polygon fill="midnightblue" stroke="midnightblue" points="495.26,-225.88 502.88,-218.52 492.33,-219.52 495.26,-225.88"/>
</g>
<!-- Node14 -->
<g id="node14" class="node">
<title>Node14</title>
<g id="a_node14"><a xlink:href="group__grp__conjugate__gradient.html#ga4d8415226e62a9fdb42b0fd0b464251e" target="_top" xlink:title="Returns the energy functional and it&#39;s derivatives with respect to geometry.">
<polygon fill="white" stroke="black" points="353.5,-123.5 353.5,-142.5 401.5,-142.5 401.5,-123.5 353.5,-123.5"/>
<text text-anchor="middle" x="377.5" y="-130.5" font-family="Helvetica,sans-Serif" font-size="10.00">pc00ab</text>
</a>
</g>
</g>
<!-- Node3&#45;&gt;Node14 -->
<g id="edge23" class="edge">
<title>Node3&#45;&gt;Node14</title>
<path fill="none" stroke="midnightblue" d="M500.67,-193.63C484.42,-182.59 461.43,-167.81 440,-157 427.72,-150.81 413.44,-145.14 401.73,-140.88"/>
<polygon fill="midnightblue" stroke="midnightblue" points="498.74,-196.55 508.96,-199.33 502.7,-190.78 498.74,-196.55"/>
</g>
<!-- Node5 -->
<g id="node5" class="node">
<title>Node5</title>
<g id="a_node5"><a xlink:href="xspech_8f90.html#aea782eae089760a491c2c54f9903abcc" target="_top" xlink:title="Main program of SPEC.">
<polygon fill="white" stroke="black" points="231.5,-313.5 231.5,-332.5 278.5,-332.5 278.5,-313.5 231.5,-313.5"/>
<text text-anchor="middle" x="255" y="-320.5" font-family="Helvetica,sans-Serif" font-size="10.00">xspech</text>
</a>
</g>
</g>
<!-- Node4&#45;&gt;Node5 -->
<g id="edge4" class="edge">
<title>Node4&#45;&gt;Node5</title>
<path fill="none" stroke="midnightblue" d="M310.45,-323C299.06,-323 287.95,-323 278.77,-323"/>
<polygon fill="midnightblue" stroke="midnightblue" points="310.48,-326.5 320.48,-323 310.48,-319.5 310.48,-326.5"/>
</g>
<!-- Node5&#45;&gt;Node6 -->
<g id="edge5" class="edge">
<title>Node5&#45;&gt;Node6</title>
<path fill="none" stroke="midnightblue" d="M220.97,-316.47C207.75,-315.98 193.01,-316.31 181.77,-317.46"/>
<polygon fill="midnightblue" stroke="midnightblue" points="220.98,-319.98 231.16,-317.05 221.38,-312.99 220.98,-319.98"/>
</g>
<!-- Node6&#45;&gt;Node5 -->
<g id="edge7" class="edge">
<title>Node6&#45;&gt;Node5</title>
<path fill="none" stroke="midnightblue" d="M191.82,-329.31C204.48,-330 219.22,-329.88 231.16,-328.95"/>
<polygon fill="midnightblue" stroke="midnightblue" points="192.01,-325.82 181.77,-328.54 191.48,-332.8 192.01,-325.82"/>
</g>
<!-- Node7 -->
<g id="node7" class="node">
<title>Node7</title>
<g id="a_node7"><a xlink:href="sphdf5_8f90.html#a0f962c09cd5d5eba99f1cba043cb3898" target="_top" xlink:title="initialize the interface to the HDF5 library and open the output file">
<polygon fill="white" stroke="black" points="0,-313.5 0,-332.5 94,-332.5 94,-313.5 0,-313.5"/>
<text text-anchor="middle" x="47" y="-320.5" font-family="Helvetica,sans-Serif" font-size="10.00">sphdf5::init_outfile</text>
</a>
</g>
</g>
<!-- Node6&#45;&gt;Node7 -->
<g id="edge6" class="edge">
<title>Node6&#45;&gt;Node7</title>
<path fill="none" stroke="midnightblue" d="M133.13,-323C121.33,-323 107.32,-323 94.11,-323"/>
<polygon fill="midnightblue" stroke="midnightblue" points="133.26,-326.5 143.26,-323 133.26,-319.5 133.26,-326.5"/>
</g>
<!-- Node8&#45;&gt;Node9 -->
<g id="edge9" class="edge">
<title>Node8&#45;&gt;Node9</title>
<path fill="none" stroke="midnightblue" d="M349.51,-207.52C328.38,-209.41 299.31,-214.09 279.22,-218.88"/>
<polygon fill="midnightblue" stroke="midnightblue" points="350.02,-210.99 359.74,-206.8 349.52,-204.01 350.02,-210.99"/>
</g>
<!-- Node9&#45;&gt;Node6 -->
<g id="edge13" class="edge">
<title>Node9&#45;&gt;Node6</title>
<path fill="none" stroke="midnightblue" d="M237.52,-245.3C218.49,-265.28 187.86,-297.43 172.66,-313.39"/>
<polygon fill="midnightblue" stroke="midnightblue" points="240.29,-247.46 244.66,-237.81 235.22,-242.64 240.29,-247.46"/>
</g>
<!-- Node9&#45;&gt;Node8 -->
<g id="edge10" class="edge">
<title>Node9&#45;&gt;Node8</title>
<path fill="none" stroke="midnightblue" d="M289.21,-228.87C312.11,-226.43 341.58,-221.36 359.74,-216.49"/>
<polygon fill="midnightblue" stroke="midnightblue" points="288.85,-225.39 279.22,-229.8 289.5,-232.36 288.85,-225.39"/>
</g>
<!-- Node9&#45;&gt;Node10 -->
<g id="edge11" class="edge">
<title>Node9&#45;&gt;Node10</title>
<path fill="none" stroke="midnightblue" d="M220.71,-223.68C176.07,-222.25 98.52,-224.54 64.64,-228.71"/>
<polygon fill="midnightblue" stroke="midnightblue" points="220.63,-227.18 230.77,-224.1 220.92,-220.19 220.63,-227.18"/>
</g>
<!-- Node11 -->
<g id="node11" class="node">
<title>Node11</title>
<g id="a_node11"><a xlink:href="group__grp__force__driver.html#ga382822b303cbf8c56d6f54dcb379caf2" target="_top" xlink:title="read or write force&#45;derivative matrix">
<polygon fill="white" stroke="black" points="130,-199.5 130,-218.5 195,-218.5 195,-199.5 130,-199.5"/>
<text text-anchor="middle" x="162.5" y="-206.5" font-family="Helvetica,sans-Serif" font-size="10.00">writereadgf</text>
</a>
</g>
</g>
<!-- Node9&#45;&gt;Node11 -->
<g id="edge14" class="edge">
<title>Node9&#45;&gt;Node11</title>
<path fill="none" stroke="midnightblue" d="M225.35,-215.66C215.71,-213.12 204.91,-210.81 195.06,-209.16"/>
<polygon fill="midnightblue" stroke="midnightblue" points="224.67,-219.1 235.25,-218.47 226.59,-212.37 224.67,-219.1"/>
</g>
<!-- Node10&#45;&gt;Node9 -->
<g id="edge12" class="edge">
<title>Node10&#45;&gt;Node9</title>
<path fill="none" stroke="midnightblue" d="M74.89,-237.08C115.62,-238.87 192.31,-236.92 230.77,-233.03"/>
<polygon fill="midnightblue" stroke="midnightblue" points="74.83,-233.57 64.64,-236.49 74.43,-240.56 74.83,-233.57"/>
</g>
<!-- Node11&#45;&gt;Node9 -->
<g id="edge16" class="edge">
<title>Node11&#45;&gt;Node9</title>
<path fill="none" stroke="midnightblue" d="M192.06,-221.32C204.51,-224.6 218.91,-227.51 230.69,-229.1"/>
<polygon fill="midnightblue" stroke="midnightblue" points="192.75,-217.88 182.17,-218.5 190.83,-224.61 192.75,-217.88"/>
</g>
<!-- Node11&#45;&gt;Node10 -->
<g id="edge15" class="edge">
<title>Node11&#45;&gt;Node10</title>
<path fill="none" stroke="midnightblue" d="M119.88,-217.8C100.78,-221.84 79.22,-226.4 64.73,-229.46"/>
<polygon fill="midnightblue" stroke="midnightblue" points="120.82,-221.18 129.88,-215.69 119.38,-214.33 120.82,-221.18"/>
</g>
<!-- Node12&#45;&gt;Node2 -->
<g id="edge19" class="edge">
<title>Node12&#45;&gt;Node2</title>
<path fill="none" stroke="midnightblue" d="M450.18,-95.62C486.63,-92.01 531.48,-85.27 571,-76 588.74,-71.84 608.83,-64.69 620.1,-57.72"/>
<polygon fill="midnightblue" stroke="midnightblue" points="449.76,-92.14 440.13,-96.55 450.41,-99.11 449.76,-92.14"/>
</g>
<!-- Node13&#45;&gt;Node6 -->
<g id="edge21" class="edge">
<title>Node13&#45;&gt;Node6</title>
<path fill="none" stroke="midnightblue" d="M222.53,-298.22C208.83,-303.97 193.26,-310.5 181.56,-315.42"/>
<polygon fill="midnightblue" stroke="midnightblue" points="224.23,-301.3 232.09,-294.2 221.52,-294.84 224.23,-301.3"/>
</g>
<!-- Node15 -->
<g id="node15" class="node">
<title>Node15</title>
<g id="a_node15"><a xlink:href="group__grp__conjugate__gradient.html#ga25a3bae2ff2ee0469b045de0d033398b" target="_top" xlink:title="Use preconditioned conjugate gradient method to find minimum of energy functional.">
<polygon fill="white" stroke="black" points="231,-123.5 231,-142.5 279,-142.5 279,-123.5 231,-123.5"/>
<text text-anchor="middle" x="255" y="-130.5" font-family="Helvetica,sans-Serif" font-size="10.00">pc00aa</text>
</a>
</g>
</g>
<!-- Node14&#45;&gt;Node15 -->
<g id="edge24" class="edge">
<title>Node14&#45;&gt;Node15</title>
<path fill="none" stroke="midnightblue" d="M343.16,-133C322.81,-133 297.31,-133 279.16,-133"/>
<polygon fill="midnightblue" stroke="midnightblue" points="343.27,-136.5 353.27,-133 343.27,-129.5 343.27,-136.5"/>
</g>
<!-- Node16&#45;&gt;Node2 -->
<g id="edge27" class="edge">
<title>Node16&#45;&gt;Node2</title>
<path fill="none" stroke="midnightblue" d="M570.93,-54.71C583.42,-54.87 596.35,-54.51 606.84,-53.64"/>
<polygon fill="midnightblue" stroke="midnightblue" points="570.69,-51.21 560.61,-54.46 570.52,-58.2 570.69,-51.21"/>
</g>
<!-- Node17&#45;&gt;Node2 -->
<g id="edge29" class="edge">
<title>Node17&#45;&gt;Node2</title>
<path fill="none" stroke="midnightblue" d="M547.55,-24.09C565.21,-31.92 589.41,-40.7 606.84,-45.58"/>
<polygon fill="midnightblue" stroke="midnightblue" points="548.55,-20.7 538.01,-19.63 545.59,-27.04 548.55,-20.7"/>
</g>
</g>
</svg>
