<?xml version="1.0" encoding="UTF-8" standalone="no"?>
<!DOCTYPE svg PUBLIC "-//W3C//DTD SVG 1.1//EN"
 "http://www.w3.org/Graphics/SVG/1.1/DTD/svg11.dtd">
<!-- Generated by graphviz version 2.47.1 (20210421.1823)
 -->
<!-- Title: dfp200 Pages: 1 -->
<svg width="681pt" height="409pt"
 viewBox="0.00 0.00 681.00 409.46" xmlns="http://www.w3.org/2000/svg" xmlns:xlink="http://www.w3.org/1999/xlink">
<g id="graph0" class="graph" transform="scale(1 1) rotate(0) translate(4 405.46)">
<title>dfp200</title>
<polygon fill="white" stroke="transparent" points="-4,4 -4,-405.46 677,-405.46 677,4 -4,4"/>
<!-- Node1 -->
<g id="node1" class="node">
<title>Node1</title>
<g id="a_node1"><a xlink:title="Given the field consistent with the constraints and the geometry, computes local quantites related to...">
<polygon fill="#bfbfbf" stroke="black" points="627,-76.5 627,-95.5 673,-95.5 673,-76.5 627,-76.5"/>
<text text-anchor="middle" x="650" y="-83.5" font-family="Helvetica,sans-Serif" font-size="10.00">dfp200</text>
</a>
</g>
</g>
<!-- Node2 -->
<g id="node2" class="node">
<title>Node2</title>
<g id="a_node2"><a xlink:href="group__grp__global__force.html#ga38c9d3c50bd043707fefa5137c9dbf44" target="_top" xlink:title="Calculates , where &#160;and , and .">
<polygon fill="white" stroke="black" points="511.5,-237.5 511.5,-256.5 555.5,-256.5 555.5,-237.5 511.5,-237.5"/>
<text text-anchor="middle" x="533.5" y="-244.5" font-family="Helvetica,sans-Serif" font-size="10.00">dforce</text>
</a>
</g>
</g>
<!-- Node1&#45;&gt;Node2 -->
<g id="edge1" class="edge">
<title>Node1&#45;&gt;Node2</title>
<path fill="none" stroke="midnightblue" d="M636.11,-104.12C611.85,-138.24 560.13,-210.96 541.43,-237.26"/>
<polygon fill="midnightblue" stroke="midnightblue" points="639.24,-105.77 642.18,-95.59 633.53,-101.71 639.24,-105.77"/>
</g>
<!-- Node11 -->
<g id="node11" class="node">
<title>Node11</title>
<g id="a_node11"><a xlink:href="dfp200_8f90.html#a6aca59cf350d7b1941f8389d50945a43" target="_top" xlink:title="get LU Beltrami matrices">
<polygon fill="white" stroke="black" points="315,-123.5 315,-142.5 440,-142.5 440,-123.5 315,-123.5"/>
<text text-anchor="middle" x="377.5" y="-130.5" font-family="Helvetica,sans-Serif" font-size="10.00">get_lu_beltrami_matrices</text>
</a>
</g>
</g>
<!-- Node1&#45;&gt;Node11 -->
<g id="edge29" class="edge">
<title>Node1&#45;&gt;Node11</title>
<path fill="none" stroke="midnightblue" d="M617.14,-88.92C608.73,-91.35 599.59,-94.04 591,-96 531.13,-109.63 460.16,-117.32 417.27,-123.48"/>
<polygon fill="midnightblue" stroke="midnightblue" points="618.29,-92.23 626.96,-86.15 616.39,-85.5 618.29,-92.23"/>
</g>
<!-- Node15 -->
<g id="node15" class="node">
<title>Node15</title>
<g id="a_node15"><a xlink:href="dfp200_8f90.html#a7b64c7392b45d0042d8bd7379c0761a5" target="_top" xlink:title="Evaluate the derivative of the square of the magnetic field modulus. Add spectral constraint derivati...">
<polygon fill="white" stroke="black" points="496.5,-76.5 496.5,-95.5 570.5,-95.5 570.5,-76.5 496.5,-76.5"/>
<text text-anchor="middle" x="533.5" y="-83.5" font-family="Helvetica,sans-Serif" font-size="10.00">evaluate_dbb</text>
</a>
</g>
</g>
<!-- Node1&#45;&gt;Node15 -->
<g id="edge25" class="edge">
<title>Node1&#45;&gt;Node15</title>
<path fill="none" stroke="midnightblue" d="M616.61,-79.85C602.37,-79.12 585.59,-79.06 570.93,-79.66"/>
<polygon fill="midnightblue" stroke="midnightblue" points="616.71,-83.37 626.92,-80.54 617.18,-76.38 616.71,-83.37"/>
</g>
<!-- Node16 -->
<g id="node16" class="node">
<title>Node16</title>
<g id="a_node16"><a xlink:href="dfp200_8f90.html#a73ddf39ecc5228201fb643779e17cd36" target="_top" xlink:title="Evaluate mu and psip derivatives and store them in dmupfdx.">
<polygon fill="white" stroke="black" points="486,-38.5 486,-57.5 581,-57.5 581,-38.5 486,-38.5"/>
<text text-anchor="middle" x="533.5" y="-45.5" font-family="Helvetica,sans-Serif" font-size="10.00">evaluate_dmupfdx</text>
</a>
</g>
</g>
<!-- Node1&#45;&gt;Node16 -->
<g id="edge27" class="edge">
<title>Node1&#45;&gt;Node16</title>
<path fill="none" stroke="midnightblue" d="M624.66,-72.28C612,-67.11 596.09,-61.5 581.17,-56.84"/>
<polygon fill="midnightblue" stroke="midnightblue" points="623.46,-75.58 634.03,-76.3 626.22,-69.14 623.46,-75.58"/>
</g>
<!-- Node17 -->
<g id="node17" class="node">
<title>Node17</title>
<g id="a_node17"><a xlink:href="dfp200_8f90.html#a5e56f1f4b1e6df11a9cffa6237c37469" target="_top" xlink:title="This routine evaluates the value of the magnetic field once the interface is perturbed using matrix p...">
<polygon fill="white" stroke="black" points="476,-0.5 476,-19.5 591,-19.5 591,-0.5 476,-0.5"/>
<text text-anchor="middle" x="533.5" y="-7.5" font-family="Helvetica,sans-Serif" font-size="10.00">get_perturbed_solution</text>
</a>
</g>
</g>
<!-- Node1&#45;&gt;Node17 -->
<g id="edge30" class="edge">
<title>Node1&#45;&gt;Node17</title>
<path fill="none" stroke="midnightblue" d="M639.87,-67.72C629.35,-52.5 610.93,-32.23 591,-20 590.74,-19.84 590.47,-19.68 590.2,-19.52"/>
<polygon fill="midnightblue" stroke="midnightblue" points="637.06,-69.82 645.34,-76.42 642.98,-66.09 637.06,-69.82"/>
</g>
<!-- Node3 -->
<g id="node3" class="node">
<title>Node3</title>
<g id="a_node3"><a xlink:href="namespaceallglobal.html#a7824bc37519fe88336534ce90ab2af16" target="_top" xlink:title=" ">
<polygon fill="white" stroke="black" points="320.5,-351.5 320.5,-370.5 434.5,-370.5 434.5,-351.5 320.5,-351.5"/>
<text text-anchor="middle" x="377.5" y="-358.5" font-family="Helvetica,sans-Serif" font-size="10.00">allglobal::check_inputs</text>
</a>
</g>
</g>
<!-- Node2&#45;&gt;Node3 -->
<g id="edge2" class="edge">
<title>Node2&#45;&gt;Node3</title>
<path fill="none" stroke="midnightblue" d="M518.22,-264.64C501.33,-284.52 471.51,-316.72 440,-337 430.84,-342.89 420.01,-347.72 410.01,-351.45"/>
<polygon fill="midnightblue" stroke="midnightblue" points="521.12,-266.62 524.83,-256.7 515.74,-262.14 521.12,-266.62"/>
</g>
<!-- Node5 -->
<g id="node5" class="node">
<title>Node5</title>
<g id="a_node5"><a xlink:href="xspech_8f90.html#a48f45478dc2c9f70ea8aa1c60ad06503" target="_top" xlink:title=" ">
<polygon fill="white" stroke="black" points="143.5,-351.5 143.5,-370.5 181.5,-370.5 181.5,-351.5 143.5,-351.5"/>
<text text-anchor="middle" x="162.5" y="-358.5" font-family="Helvetica,sans-Serif" font-size="10.00">spec</text>
</a>
</g>
</g>
<!-- Node2&#45;&gt;Node5 -->
<g id="edge24" class="edge">
<title>Node2&#45;&gt;Node5</title>
<path fill="none" stroke="midnightblue" d="M525.78,-266.37C513.94,-297.07 486.16,-355.88 440,-380 352.58,-425.69 227.86,-386.02 181.64,-368.4"/>
<polygon fill="midnightblue" stroke="midnightblue" points="529.13,-267.38 529.3,-256.79 522.56,-264.96 529.13,-267.38"/>
</g>
<!-- Node7 -->
<g id="node7" class="node">
<title>Node7</title>
<g id="a_node7"><a xlink:href="group__grp__force__driver.html#gabbc245b3884ee8d8d3e2a52f25149f78" target="_top" xlink:title="fcn1">
<polygon fill="white" stroke="black" points="360,-237.5 360,-256.5 395,-256.5 395,-237.5 360,-237.5"/>
<text text-anchor="middle" x="377.5" y="-244.5" font-family="Helvetica,sans-Serif" font-size="10.00">fcn1</text>
</a>
</g>
</g>
<!-- Node2&#45;&gt;Node7 -->
<g id="edge7" class="edge">
<title>Node2&#45;&gt;Node7</title>
<path fill="none" stroke="midnightblue" d="M501.22,-247C469.12,-247 420.41,-247 395.09,-247"/>
<polygon fill="midnightblue" stroke="midnightblue" points="501.41,-250.5 511.41,-247 501.41,-243.5 501.41,-250.5"/>
</g>
<!-- Node8 -->
<g id="node8" class="node">
<title>Node8</title>
<g id="a_node8"><a xlink:href="group__grp__force__driver.html#gaec14f81fbdbedafbc4189489ec8ae178" target="_top" xlink:title="Employs Newton method to find , where &#160;and &#160;is defined in dforce() .">
<polygon fill="white" stroke="black" points="231,-256.5 231,-275.5 279,-275.5 279,-256.5 231,-256.5"/>
<text text-anchor="middle" x="255" y="-263.5" font-family="Helvetica,sans-Serif" font-size="10.00">newton</text>
</a>
</g>
</g>
<!-- Node2&#45;&gt;Node8 -->
<g id="edge21" class="edge">
<title>Node2&#45;&gt;Node8</title>
<path fill="none" stroke="midnightblue" d="M501.51,-255C483.66,-259.2 460.72,-263.89 440,-266 382.32,-271.86 313.94,-269.41 279.02,-267.49"/>
<polygon fill="midnightblue" stroke="midnightblue" points="502.48,-258.37 511.38,-252.61 500.84,-251.56 502.48,-258.37"/>
</g>
<!-- Node9 -->
<g id="node9" class="node">
<title>Node9</title>
<g id="a_node9"><a xlink:href="group__grp__force__driver.html#ga8ccd6c7d901872702521d0a0edf95412" target="_top" xlink:title="fcn2">
<polygon fill="white" stroke="black" points="29.5,-261.5 29.5,-280.5 64.5,-280.5 64.5,-261.5 29.5,-261.5"/>
<text text-anchor="middle" x="47" y="-268.5" font-family="Helvetica,sans-Serif" font-size="10.00">fcn2</text>
</a>
</g>
</g>
<!-- Node2&#45;&gt;Node9 -->
<g id="edge16" class="edge">
<title>Node2&#45;&gt;Node9</title>
<path fill="none" stroke="midnightblue" d="M500.99,-239.5C432.37,-224.47 264.76,-194.81 130,-228 103.93,-234.42 76.98,-250.76 61.39,-261.35"/>
<polygon fill="midnightblue" stroke="midnightblue" points="500.61,-243 511.14,-241.78 502.14,-236.17 500.61,-243"/>
</g>
<!-- Node2&#45;&gt;Node11 -->
<g id="edge17" class="edge">
<title>Node2&#45;&gt;Node11</title>
<path fill="none" stroke="midnightblue" d="M519.68,-229.19C503.44,-207.88 473.5,-172.5 440,-152 433.71,-148.15 426.57,-145.02 419.45,-142.5"/>
<polygon fill="midnightblue" stroke="midnightblue" points="516.99,-231.45 525.77,-237.38 522.61,-227.27 516.99,-231.45"/>
</g>
<!-- Node12 -->
<g id="node12" class="node">
<title>Node12</title>
<g id="a_node12"><a xlink:href="group__grp__diagnostics.html#ga7401b50ec10c6598ee4a8112717a63ec" target="_top" xlink:title="Computes eigenvalues and eigenvectors of derivative matrix, .">
<polygon fill="white" stroke="black" points="232.5,-313.5 232.5,-332.5 277.5,-332.5 277.5,-313.5 232.5,-313.5"/>
<text text-anchor="middle" x="255" y="-320.5" font-family="Helvetica,sans-Serif" font-size="10.00">hesian</text>
</a>
</g>
</g>
<!-- Node2&#45;&gt;Node12 -->
<g id="edge19" class="edge">
<title>Node2&#45;&gt;Node12</title>
<path fill="none" stroke="midnightblue" d="M502.1,-259.29C484.21,-266.24 461.04,-274.76 440,-281 382.2,-298.14 312.43,-312.34 277.76,-318.97"/>
<polygon fill="midnightblue" stroke="midnightblue" points="503.42,-262.53 511.45,-255.61 500.86,-256.02 503.42,-262.53"/>
</g>
<!-- Node13 -->
<g id="node13" class="node">
<title>Node13</title>
<g id="a_node13"><a xlink:href="group__grp__conjugate__gradient.html#ga4d8415226e62a9fdb42b0fd0b464251e" target="_top" xlink:title="Returns the energy functional and it&#39;s derivatives with respect to geometry.">
<polygon fill="white" stroke="black" points="353.5,-161.5 353.5,-180.5 401.5,-180.5 401.5,-161.5 353.5,-161.5"/>
<text text-anchor="middle" x="377.5" y="-168.5" font-family="Helvetica,sans-Serif" font-size="10.00">pc00ab</text>
</a>
</g>
</g>
<!-- Node2&#45;&gt;Node13 -->
<g id="edge22" class="edge">
<title>Node2&#45;&gt;Node13</title>
<path fill="none" stroke="midnightblue" d="M508.54,-232.3C490.15,-221.33 463.93,-206.33 440,-195 427.57,-189.12 413.28,-183.47 401.6,-179.14"/>
<polygon fill="midnightblue" stroke="midnightblue" points="506.77,-235.32 517.14,-237.48 510.38,-229.33 506.77,-235.32"/>
</g>
<!-- Node4 -->
<g id="node4" class="node">
<title>Node4</title>
<g id="a_node4"><a xlink:href="xspech_8f90.html#aea782eae089760a491c2c54f9903abcc" target="_top" xlink:title="Main program of SPEC.">
<polygon fill="white" stroke="black" points="231.5,-351.5 231.5,-370.5 278.5,-370.5 278.5,-351.5 231.5,-351.5"/>
<text text-anchor="middle" x="255" y="-358.5" font-family="Helvetica,sans-Serif" font-size="10.00">xspech</text>
</a>
</g>
</g>
<!-- Node3&#45;&gt;Node4 -->
<g id="edge3" class="edge">
<title>Node3&#45;&gt;Node4</title>
<path fill="none" stroke="midnightblue" d="M310.45,-361C299.06,-361 287.95,-361 278.77,-361"/>
<polygon fill="midnightblue" stroke="midnightblue" points="310.48,-364.5 320.48,-361 310.48,-357.5 310.48,-364.5"/>
</g>
<!-- Node4&#45;&gt;Node5 -->
<g id="edge4" class="edge">
<title>Node4&#45;&gt;Node5</title>
<path fill="none" stroke="midnightblue" d="M220.97,-354.47C207.75,-353.98 193.01,-354.31 181.77,-355.46"/>
<polygon fill="midnightblue" stroke="midnightblue" points="220.98,-357.98 231.16,-355.05 221.38,-350.99 220.98,-357.98"/>
</g>
<!-- Node5&#45;&gt;Node4 -->
<g id="edge6" class="edge">
<title>Node5&#45;&gt;Node4</title>
<path fill="none" stroke="midnightblue" d="M191.82,-367.31C204.48,-368 219.22,-367.88 231.16,-366.95"/>
<polygon fill="midnightblue" stroke="midnightblue" points="192.01,-363.82 181.77,-366.54 191.48,-370.8 192.01,-363.82"/>
</g>
<!-- Node6 -->
<g id="node6" class="node">
<title>Node6</title>
<g id="a_node6"><a xlink:href="sphdf5_8f90.html#a0f962c09cd5d5eba99f1cba043cb3898" target="_top" xlink:title="initialize the interface to the HDF5 library and open the output file">
<polygon fill="white" stroke="black" points="0,-351.5 0,-370.5 94,-370.5 94,-351.5 0,-351.5"/>
<text text-anchor="middle" x="47" y="-358.5" font-family="Helvetica,sans-Serif" font-size="10.00">sphdf5::init_outfile</text>
</a>
</g>
</g>
<!-- Node5&#45;&gt;Node6 -->
<g id="edge5" class="edge">
<title>Node5&#45;&gt;Node6</title>
<path fill="none" stroke="midnightblue" d="M133.13,-361C121.33,-361 107.32,-361 94.11,-361"/>
<polygon fill="midnightblue" stroke="midnightblue" points="133.26,-364.5 143.26,-361 133.26,-357.5 133.26,-364.5"/>
</g>
<!-- Node7&#45;&gt;Node8 -->
<g id="edge8" class="edge">
<title>Node7&#45;&gt;Node8</title>
<path fill="none" stroke="midnightblue" d="M349.51,-245.52C328.38,-247.41 299.31,-252.09 279.22,-256.88"/>
<polygon fill="midnightblue" stroke="midnightblue" points="350.02,-248.99 359.74,-244.8 349.52,-242.01 350.02,-248.99"/>
</g>
<!-- Node8&#45;&gt;Node5 -->
<g id="edge12" class="edge">
<title>Node8&#45;&gt;Node5</title>
<path fill="none" stroke="midnightblue" d="M237.52,-283.3C218.49,-303.28 187.86,-335.43 172.66,-351.39"/>
<polygon fill="midnightblue" stroke="midnightblue" points="240.29,-285.46 244.66,-275.81 235.22,-280.64 240.29,-285.46"/>
</g>
<!-- Node8&#45;&gt;Node7 -->
<g id="edge9" class="edge">
<title>Node8&#45;&gt;Node7</title>
<path fill="none" stroke="midnightblue" d="M289.21,-266.87C312.11,-264.43 341.58,-259.36 359.74,-254.49"/>
<polygon fill="midnightblue" stroke="midnightblue" points="288.85,-263.39 279.22,-267.8 289.5,-270.36 288.85,-263.39"/>
</g>
<!-- Node8&#45;&gt;Node9 -->
<g id="edge10" class="edge">
<title>Node8&#45;&gt;Node9</title>
<path fill="none" stroke="midnightblue" d="M220.71,-261.68C176.07,-260.25 98.52,-262.54 64.64,-266.71"/>
<polygon fill="midnightblue" stroke="midnightblue" points="220.63,-265.18 230.77,-262.1 220.92,-258.19 220.63,-265.18"/>
</g>
<!-- Node10 -->
<g id="node10" class="node">
<title>Node10</title>
<g id="a_node10"><a xlink:href="group__grp__force__driver.html#ga382822b303cbf8c56d6f54dcb379caf2" target="_top" xlink:title="read or write force&#45;derivative matrix">
<polygon fill="white" stroke="black" points="130,-237.5 130,-256.5 195,-256.5 195,-237.5 130,-237.5"/>
<text text-anchor="middle" x="162.5" y="-244.5" font-family="Helvetica,sans-Serif" font-size="10.00">writereadgf</text>
</a>
</g>
</g>
<!-- Node8&#45;&gt;Node10 -->
<g id="edge13" class="edge">
<title>Node8&#45;&gt;Node10</title>
<path fill="none" stroke="midnightblue" d="M225.35,-253.66C215.71,-251.12 204.91,-248.81 195.06,-247.16"/>
<polygon fill="midnightblue" stroke="midnightblue" points="224.67,-257.1 235.25,-256.47 226.59,-250.37 224.67,-257.1"/>
</g>
<!-- Node9&#45;&gt;Node8 -->
<g id="edge11" class="edge">
<title>Node9&#45;&gt;Node8</title>
<path fill="none" stroke="midnightblue" d="M74.89,-275.08C115.62,-276.87 192.31,-274.92 230.77,-271.03"/>
<polygon fill="midnightblue" stroke="midnightblue" points="74.83,-271.57 64.64,-274.49 74.43,-278.56 74.83,-271.57"/>
</g>
<!-- Node10&#45;&gt;Node8 -->
<g id="edge15" class="edge">
<title>Node10&#45;&gt;Node8</title>
<path fill="none" stroke="midnightblue" d="M192.06,-259.32C204.51,-262.6 218.91,-265.51 230.69,-267.1"/>
<polygon fill="midnightblue" stroke="midnightblue" points="192.75,-255.88 182.17,-256.5 190.83,-262.61 192.75,-255.88"/>
</g>
<!-- Node10&#45;&gt;Node9 -->
<g id="edge14" class="edge">
<title>Node10&#45;&gt;Node9</title>
<path fill="none" stroke="midnightblue" d="M119.88,-255.8C100.78,-259.84 79.22,-264.4 64.73,-267.46"/>
<polygon fill="midnightblue" stroke="midnightblue" points="120.82,-259.18 129.88,-253.69 119.38,-252.33 120.82,-259.18"/>
</g>
<!-- Node11&#45;&gt;Node1 -->
<g id="edge18" class="edge">
<title>Node11&#45;&gt;Node1</title>
<path fill="none" stroke="midnightblue" d="M450.42,-134.76C491.86,-131.51 544.74,-124.53 591,-114 608.98,-109.91 629.31,-102.6 640.49,-95.51"/>
<polygon fill="midnightblue" stroke="midnightblue" points="450.13,-131.28 440.41,-135.49 450.64,-138.26 450.13,-131.28"/>
</g>
<!-- Node12&#45;&gt;Node5 -->
<g id="edge20" class="edge">
<title>Node12&#45;&gt;Node5</title>
<path fill="none" stroke="midnightblue" d="M222.53,-336.22C208.83,-341.97 193.26,-348.5 181.56,-353.42"/>
<polygon fill="midnightblue" stroke="midnightblue" points="224.23,-339.3 232.09,-332.2 221.52,-332.84 224.23,-339.3"/>
</g>
<!-- Node14 -->
<g id="node14" class="node">
<title>Node14</title>
<g id="a_node14"><a xlink:href="group__grp__conjugate__gradient.html#ga25a3bae2ff2ee0469b045de0d033398b" target="_top" xlink:title="Use preconditioned conjugate gradient method to find minimum of energy functional.">
<polygon fill="white" stroke="black" points="231,-161.5 231,-180.5 279,-180.5 279,-161.5 231,-161.5"/>
<text text-anchor="middle" x="255" y="-168.5" font-family="Helvetica,sans-Serif" font-size="10.00">pc00aa</text>
</a>
</g>
</g>
<!-- Node13&#45;&gt;Node14 -->
<g id="edge23" class="edge">
<title>Node13&#45;&gt;Node14</title>
<path fill="none" stroke="midnightblue" d="M343.16,-171C322.81,-171 297.31,-171 279.16,-171"/>
<polygon fill="midnightblue" stroke="midnightblue" points="343.27,-174.5 353.27,-171 343.27,-167.5 343.27,-174.5"/>
</g>
<!-- Node15&#45;&gt;Node1 -->
<g id="edge26" class="edge">
<title>Node15&#45;&gt;Node1</title>
<path fill="none" stroke="midnightblue" d="M581.12,-92.65C596.95,-92.96 613.92,-92.56 626.92,-91.46"/>
<polygon fill="midnightblue" stroke="midnightblue" points="581.03,-89.14 570.93,-92.34 580.81,-96.14 581.03,-89.14"/>
</g>
<!-- Node16&#45;&gt;Node1 -->
<g id="edge28" class="edge">
<title>Node16&#45;&gt;Node1</title>
<path fill="none" stroke="midnightblue" d="M558.66,-61.65C578.83,-69.89 607.35,-79.3 626.92,-84.13"/>
<polygon fill="midnightblue" stroke="midnightblue" points="559.8,-58.33 549.23,-57.59 557.04,-64.76 559.8,-58.33"/>
</g>
<!-- Node17&#45;&gt;Node1 -->
<g id="edge31" class="edge">
<title>Node17&#45;&gt;Node1</title>
<path fill="none" stroke="midnightblue" d="M556.92,-23.14C567.73,-27.06 580.57,-31.6 591,-38 608.33,-48.64 624.51,-65.34 635.36,-76.32"/>
<polygon fill="midnightblue" stroke="midnightblue" points="557.92,-19.78 547.33,-19.53 555.46,-26.33 557.92,-19.78"/>
</g>
</g>
</svg>
