<?xml version="1.0" encoding="UTF-8" standalone="no"?>
<!DOCTYPE svg PUBLIC "-//W3C//DTD SVG 1.1//EN"
 "http://www.w3.org/Graphics/SVG/1.1/DTD/svg11.dtd">
<!-- Generated by graphviz version 2.44.0 ()
 -->
<!-- Title: mp00ac Pages: 1 -->
<svg width="309pt" height="170pt"
 viewBox="0.00 0.00 309.00 170.00" xmlns="http://www.w3.org/2000/svg" xmlns:xlink="http://www.w3.org/1999/xlink">
<g id="graph0" class="graph" transform="scale(1 1) rotate(0) translate(4 166)">
<title>mp00ac</title>
<polygon fill="white" stroke="transparent" points="-4,4 -4,-166 305,-166 305,4 -4,4"/>
<!-- Node1 -->
<g id="node1" class="node">
<title>Node1</title>
<g id="a_node1"><a xlink:title="Solves Beltrami/vacuum (linear) system, given matrices.unpacking fluxes, helicity multiplier">
<polygon fill="#bfbfbf" stroke="black" points="0,-38.5 0,-57.5 51,-57.5 51,-38.5 0,-38.5"/>
<text text-anchor="middle" x="25.5" y="-45.5" font-family="Helvetica,sans-Serif" font-size="10.00">mp00ac</text>
</a>
</g>
</g>
<!-- Node2 -->
<g id="node2" class="node">
<title>Node2</title>
<g id="a_node2"><a xlink:href="group__grp__currents.html#gacaf4411e0ba378631dcd2ccb3752e452" target="_top" xlink:title="Computes the plasma current, , and the &quot;linking&quot; current, .">
<polygon fill="white" stroke="black" points="89,-85.5 89,-104.5 133,-104.5 133,-85.5 89,-85.5"/>
<text text-anchor="middle" x="111" y="-92.5" font-family="Helvetica,sans-Serif" font-size="10.00">curent</text>
</a>
</g>
</g>
<!-- Node1&#45;&gt;Node2 -->
<g id="edge1" class="edge">
<title>Node1&#45;&gt;Node2</title>
<path fill="none" stroke="midnightblue" d="M43.4,-57.51C54.98,-64.03 70.57,-72.81 83.76,-80.23"/>
<polygon fill="midnightblue" stroke="midnightblue" points="82.41,-83.49 92.84,-85.34 85.84,-77.39 82.41,-83.49"/>
</g>
<!-- Node7 -->
<g id="node7" class="node">
<title>Node7</title>
<g id="a_node7"><a xlink:href="group__grp__packing.html#gaee2357e570aebf8559e169def6b619dd" target="_top" xlink:title="Packs and unpacks Beltrami field solution vector.">
<polygon fill="white" stroke="black" points="87,-0.5 87,-19.5 135,-19.5 135,-0.5 87,-0.5"/>
<text text-anchor="middle" x="111" y="-7.5" font-family="Helvetica,sans-Serif" font-size="10.00">packab</text>
</a>
</g>
</g>
<!-- Node1&#45;&gt;Node7 -->
<g id="edge8" class="edge">
<title>Node1&#45;&gt;Node7</title>
<path fill="none" stroke="midnightblue" d="M47.57,-38.41C57.26,-34 68.94,-28.69 79.56,-23.85"/>
<polygon fill="midnightblue" stroke="midnightblue" points="81.28,-26.91 88.94,-19.59 78.38,-20.54 81.28,-26.91"/>
</g>
<!-- Node8 -->
<g id="node8" class="node">
<title>Node8</title>
<g id="a_node8"><a xlink:href="group__grp__transform.html#ga0e0447653b8da82f06748dd8831bc337" target="_top" xlink:title="Calculates rotational transform given an arbitrary tangential field.">
<polygon fill="white" stroke="black" points="172,-28.5 172,-47.5 216,-47.5 216,-28.5 172,-28.5"/>
<text text-anchor="middle" x="194" y="-35.5" font-family="Helvetica,sans-Serif" font-size="10.00">tr00ab</text>
</a>
</g>
</g>
<!-- Node1&#45;&gt;Node8 -->
<g id="edge9" class="edge">
<title>Node1&#45;&gt;Node8</title>
<path fill="none" stroke="midnightblue" d="M51.07,-46.52C80.41,-44.76 129.53,-41.81 161.6,-39.89"/>
<polygon fill="midnightblue" stroke="midnightblue" points="162,-43.37 171.77,-39.28 161.58,-36.38 162,-43.37"/>
</g>
<!-- Node3 -->
<g id="node3" class="node">
<title>Node3</title>
<g id="a_node3"><a xlink:href="group__grp__geometry.html#gaaca20aa60eaf39055f3c9d5c02a24ac2" target="_top" xlink:title="Calculates coordinates, , and metrics, using FFTs.">
<polygon fill="white" stroke="black" points="171,-142.5 171,-161.5 217,-161.5 217,-142.5 171,-142.5"/>
<text text-anchor="middle" x="194" y="-149.5" font-family="Helvetica,sans-Serif" font-size="10.00">coords</text>
</a>
</g>
</g>
<!-- Node2&#45;&gt;Node3 -->
<g id="edge2" class="edge">
<title>Node2&#45;&gt;Node3</title>
<path fill="none" stroke="midnightblue" d="M125.74,-104.67C138.15,-113.4 156.63,-126.4 171.08,-136.57"/>
<polygon fill="midnightblue" stroke="midnightblue" points="169.27,-139.58 179.46,-142.47 173.3,-133.86 169.27,-139.58"/>
</g>
<!-- Node4 -->
<g id="node4" class="node">
<title>Node4</title>
<g id="a_node4"><a xlink:href="group__grp__numerics.html#ga1fd52accb0646f535f9bcc46cf5a68f3" target="_top" xlink:title="Inverse Fourier transform (fftw wrapper)">
<polygon fill="white" stroke="black" points="258,-66.5 258,-85.5 296,-85.5 296,-66.5 258,-66.5"/>
<text text-anchor="middle" x="277" y="-73.5" font-family="Helvetica,sans-Serif" font-size="10.00">invfft</text>
</a>
</g>
</g>
<!-- Node2&#45;&gt;Node4 -->
<g id="edge6" class="edge">
<title>Node2&#45;&gt;Node4</title>
<path fill="none" stroke="midnightblue" d="M133.1,-92.55C162.33,-89.17 215.2,-83.04 247.78,-79.27"/>
<polygon fill="midnightblue" stroke="midnightblue" points="248.46,-82.71 257.99,-78.09 247.66,-75.76 248.46,-82.71"/>
</g>
<!-- Node6 -->
<g id="node6" class="node">
<title>Node6</title>
<g id="a_node6"><a xlink:href="group__grp__numerics.html#ga041138109a57e651c57117bb4180409e" target="_top" xlink:title="Forward Fourier transform (fftw wrapper)">
<polygon fill="white" stroke="black" points="179.5,-104.5 179.5,-123.5 208.5,-123.5 208.5,-104.5 179.5,-104.5"/>
<text text-anchor="middle" x="194" y="-111.5" font-family="Helvetica,sans-Serif" font-size="10.00">tfft</text>
</a>
</g>
</g>
<!-- Node2&#45;&gt;Node6 -->
<g id="edge7" class="edge">
<title>Node2&#45;&gt;Node6</title>
<path fill="none" stroke="midnightblue" d="M133.28,-99.99C144.48,-102.62 158.23,-105.84 169.71,-108.54"/>
<polygon fill="midnightblue" stroke="midnightblue" points="168.94,-111.95 179.48,-110.83 170.54,-105.14 168.94,-111.95"/>
</g>
<!-- Node3&#45;&gt;Node4 -->
<g id="edge3" class="edge">
<title>Node3&#45;&gt;Node4</title>
<path fill="none" stroke="midnightblue" d="M206.3,-142.45C209.77,-139.47 213.57,-136.13 217,-133 231.35,-119.89 247.17,-104.55 258.82,-93.09"/>
<polygon fill="midnightblue" stroke="midnightblue" points="261.49,-95.37 266.14,-85.85 256.57,-90.4 261.49,-95.37"/>
</g>
<!-- Node5 -->
<g id="node5" class="node">
<title>Node5</title>
<g id="a_node5"><a xlink:href="group__grp__volume.html#gae4c62d20b8fef07f4471b5b0889ab005" target="_top" xlink:title="Computes volume of each region; and, if required, the derivatives of the volume with respect to the i...">
<polygon fill="white" stroke="black" points="253,-142.5 253,-161.5 301,-161.5 301,-142.5 253,-142.5"/>
<text text-anchor="middle" x="277" y="-149.5" font-family="Helvetica,sans-Serif" font-size="10.00">volume</text>
</a>
</g>
</g>
<!-- Node3&#45;&gt;Node5 -->
<g id="edge4" class="edge">
<title>Node3&#45;&gt;Node5</title>
<path fill="none" stroke="midnightblue" d="M217.13,-145.91C224.99,-145.3 234.02,-145.12 242.61,-145.34"/>
<polygon fill="midnightblue" stroke="midnightblue" points="242.61,-148.85 252.76,-145.83 242.94,-141.85 242.61,-148.85"/>
</g>
<!-- Node5&#45;&gt;Node3 -->
<g id="edge5" class="edge">
<title>Node5&#45;&gt;Node3</title>
<path fill="none" stroke="midnightblue" d="M252.76,-158.17C244.8,-158.74 235.74,-158.89 227.19,-158.62"/>
<polygon fill="midnightblue" stroke="midnightblue" points="227.3,-155.12 217.13,-158.09 226.94,-162.11 227.3,-155.12"/>
</g>
<!-- Node8&#45;&gt;Node4 -->
<g id="edge10" class="edge">
<title>Node8&#45;&gt;Node4</title>
<path fill="none" stroke="midnightblue" d="M215.44,-47.59C225.52,-52.32 237.81,-58.08 248.68,-63.18"/>
<polygon fill="midnightblue" stroke="midnightblue" points="247.24,-66.37 257.78,-67.45 250.21,-60.04 247.24,-66.37"/>
</g>
</g>
</svg>
