<?xml version="1.0" encoding="UTF-8" standalone="no"?>
<!DOCTYPE svg PUBLIC "-//W3C//DTD SVG 1.1//EN"
 "http://www.w3.org/Graphics/SVG/1.1/DTD/svg11.dtd">
<!-- Generated by graphviz version 2.44.1 (0)
 -->
<!-- Title: ma02aa Pages: 1 -->
<svg width="417pt" height="142pt"
 viewBox="0.00 0.00 417.00 142.00" xmlns="http://www.w3.org/2000/svg" xmlns:xlink="http://www.w3.org/1999/xlink">
<g id="graph0" class="graph" transform="scale(1 1) rotate(0) translate(4 138)">
<title>ma02aa</title>
<polygon fill="white" stroke="transparent" points="-4,4 -4,-138 413,-138 413,4 -4,4"/>
<!-- Node1 -->
<g id="node1" class="node">
<title>Node1</title>
<g id="a_node1"><a xlink:title="Constructs Beltrami field in given volume consistent with flux, helicity, rotational&#45;transform and/or...">
<polygon fill="#bfbfbf" stroke="black" points="0,-57.5 0,-76.5 56,-76.5 56,-57.5 0,-57.5"/>
<text text-anchor="middle" x="28" y="-64.5" font-family="Helvetica,sans-Serif" font-size="10.00">ma02aa</text>
</a>
</g>
</g>
<!-- Node2 -->
<g id="node2" class="node">
<title>Node2</title>
<g id="a_node2"><a xlink:href="group__grp__integrals.html#ga6d086e8d1af527def50b653b86e8373a" target="_top" xlink:title="Evaluates volume integrals, and their derivatives w.r.t. interface geometry, using &quot;packed&quot; format.">
<polygon fill="white" stroke="black" points="95,-95.5 95,-114.5 145,-114.5 145,-95.5 95,-95.5"/>
<text text-anchor="middle" x="120" y="-102.5" font-family="Helvetica,sans-Serif" font-size="10.00">df00ab</text>
</a>
</g>
</g>
<!-- Node1&#45;&gt;Node2 -->
<g id="edge1" class="edge">
<title>Node1&#45;&gt;Node2</title>
<path fill="none" stroke="midnightblue" d="M51.71,-76.59C62.37,-81.09 75.26,-86.53 86.9,-91.44"/>
<polygon fill="midnightblue" stroke="midnightblue" points="85.72,-94.75 96.3,-95.41 88.45,-88.3 85.72,-94.75"/>
</g>
<!-- Node3 -->
<g id="node3" class="node">
<title>Node3</title>
<g id="a_node3"><a xlink:href="group__grp__solver.html#ga6626839aff500f060beb5bce2b90c447" target="_top" xlink:title="Solves Beltrami/vacuum (linear) system, given matrices.unpacking fluxes, helicity multiplier">
<polygon fill="white" stroke="black" points="92,-57.5 92,-76.5 148,-76.5 148,-57.5 92,-57.5"/>
<text text-anchor="middle" x="120" y="-64.5" font-family="Helvetica,sans-Serif" font-size="10.00">mp00ac</text>
</a>
</g>
</g>
<!-- Node1&#45;&gt;Node3 -->
<g id="edge2" class="edge">
<title>Node1&#45;&gt;Node3</title>
<path fill="none" stroke="midnightblue" d="M56,-67C64.03,-67 72.97,-67 81.53,-67"/>
<polygon fill="midnightblue" stroke="midnightblue" points="81.71,-70.5 91.71,-67 81.7,-63.5 81.71,-70.5"/>
</g>
<!-- Node9 -->
<g id="node9" class="node">
<title>Node9</title>
<g id="a_node9"><a xlink:href="group__grp__packing.html#gaee2357e570aebf8559e169def6b619dd" target="_top" xlink:title="Packs and unpacks Beltrami field solution vector.">
<polygon fill="white" stroke="black" points="184,-19.5 184,-38.5 235,-38.5 235,-19.5 184,-19.5"/>
<text text-anchor="middle" x="209.5" y="-26.5" font-family="Helvetica,sans-Serif" font-size="10.00">packab</text>
</a>
</g>
</g>
<!-- Node1&#45;&gt;Node9 -->
<g id="edge13" class="edge">
<title>Node1&#45;&gt;Node9</title>
<path fill="none" stroke="midnightblue" d="M56.08,-57.98C67.13,-54.53 80.09,-50.75 92,-48 119.18,-41.71 150.4,-36.74 173.68,-33.46"/>
<polygon fill="midnightblue" stroke="midnightblue" points="174.34,-36.9 183.77,-32.07 173.39,-29.97 174.34,-36.9"/>
</g>
<!-- Node4 -->
<g id="node4" class="node">
<title>Node4</title>
<g id="a_node4"><a xlink:href="group__grp__currents.html#gacaf4411e0ba378631dcd2ccb3752e452" target="_top" xlink:title="Computes the plasma current, , and the &quot;linking&quot; current, .">
<polygon fill="white" stroke="black" points="186,-57.5 186,-76.5 233,-76.5 233,-57.5 186,-57.5"/>
<text text-anchor="middle" x="209.5" y="-64.5" font-family="Helvetica,sans-Serif" font-size="10.00">curent</text>
</a>
</g>
</g>
<!-- Node3&#45;&gt;Node4 -->
<g id="edge3" class="edge">
<title>Node3&#45;&gt;Node4</title>
<path fill="none" stroke="midnightblue" d="M148.21,-67C156.86,-67 166.53,-67 175.54,-67"/>
<polygon fill="midnightblue" stroke="midnightblue" points="175.72,-70.5 185.72,-67 175.72,-63.5 175.72,-70.5"/>
</g>
<!-- Node3&#45;&gt;Node9 -->
<g id="edge10" class="edge">
<title>Node3&#45;&gt;Node9</title>
<path fill="none" stroke="midnightblue" d="M143.08,-57.41C153.34,-52.96 165.73,-47.58 176.95,-42.7"/>
<polygon fill="midnightblue" stroke="midnightblue" points="178.65,-45.78 186.43,-38.59 175.86,-39.36 178.65,-45.78"/>
</g>
<!-- Node10 -->
<g id="node10" class="node">
<title>Node10</title>
<g id="a_node10"><a xlink:href="group__grp__transform.html#ga0e0447653b8da82f06748dd8831bc337" target="_top" xlink:title="Calculates rotational transform given an arbitrary tangential field.">
<polygon fill="white" stroke="black" points="271.5,-114.5 271.5,-133.5 319.5,-133.5 319.5,-114.5 271.5,-114.5"/>
<text text-anchor="middle" x="295.5" y="-121.5" font-family="Helvetica,sans-Serif" font-size="10.00">tr00ab</text>
</a>
</g>
</g>
<!-- Node3&#45;&gt;Node10 -->
<g id="edge11" class="edge">
<title>Node3&#45;&gt;Node10</title>
<path fill="none" stroke="midnightblue" d="M148.11,-75.91C178.86,-86.01 228.98,-102.48 261.85,-113.27"/>
<polygon fill="midnightblue" stroke="midnightblue" points="260.87,-116.63 271.46,-116.43 263.05,-109.98 260.87,-116.63"/>
</g>
<!-- Node5 -->
<g id="node5" class="node">
<title>Node5</title>
<g id="a_node5"><a xlink:href="group__grp__geometry.html#gaaca20aa60eaf39055f3c9d5c02a24ac2" target="_top" xlink:title="Calculates coordinates, , and metrics, using FFTs.">
<polygon fill="white" stroke="black" points="271,-38.5 271,-57.5 320,-57.5 320,-38.5 271,-38.5"/>
<text text-anchor="middle" x="295.5" y="-45.5" font-family="Helvetica,sans-Serif" font-size="10.00">coords</text>
</a>
</g>
</g>
<!-- Node4&#45;&gt;Node5 -->
<g id="edge4" class="edge">
<title>Node4&#45;&gt;Node5</title>
<path fill="none" stroke="midnightblue" d="M233.01,-61.91C241.58,-59.97 251.53,-57.72 260.9,-55.6"/>
<polygon fill="midnightblue" stroke="midnightblue" points="261.77,-58.99 270.75,-53.37 260.23,-52.16 261.77,-58.99"/>
</g>
<!-- Node6 -->
<g id="node6" class="node">
<title>Node6</title>
<g id="a_node6"><a xlink:href="group__grp__numerics.html#ga1fd52accb0646f535f9bcc46cf5a68f3" target="_top" xlink:title="Inverse Fourier transform (fftw wrapper)">
<polygon fill="white" stroke="black" points="361.5,-76.5 361.5,-95.5 403.5,-95.5 403.5,-76.5 361.5,-76.5"/>
<text text-anchor="middle" x="382.5" y="-83.5" font-family="Helvetica,sans-Serif" font-size="10.00">invfft</text>
</a>
</g>
</g>
<!-- Node4&#45;&gt;Node6 -->
<g id="edge8" class="edge">
<title>Node4&#45;&gt;Node6</title>
<path fill="none" stroke="midnightblue" d="M233.21,-69.52C263.54,-72.89 317.37,-78.87 351.15,-82.63"/>
<polygon fill="midnightblue" stroke="midnightblue" points="351.04,-86.14 361.36,-83.76 351.81,-79.18 351.04,-86.14"/>
</g>
<!-- Node8 -->
<g id="node8" class="node">
<title>Node8</title>
<g id="a_node8"><a xlink:href="group__grp__numerics.html#ga041138109a57e651c57117bb4180409e" target="_top" xlink:title="Forward Fourier transform (fftw wrapper)">
<polygon fill="white" stroke="black" points="280,-0.5 280,-19.5 311,-19.5 311,-0.5 280,-0.5"/>
<text text-anchor="middle" x="295.5" y="-7.5" font-family="Helvetica,sans-Serif" font-size="10.00">tfft</text>
</a>
</g>
</g>
<!-- Node4&#45;&gt;Node8 -->
<g id="edge9" class="edge">
<title>Node4&#45;&gt;Node8</title>
<path fill="none" stroke="midnightblue" d="M224.75,-57.33C237.62,-48.6 256.78,-35.6 271.76,-25.43"/>
<polygon fill="midnightblue" stroke="midnightblue" points="274.15,-28.04 280.46,-19.53 270.22,-22.25 274.15,-28.04"/>
</g>
<!-- Node5&#45;&gt;Node6 -->
<g id="edge5" class="edge">
<title>Node5&#45;&gt;Node6</title>
<path fill="none" stroke="midnightblue" d="M317.95,-57.59C328.22,-62.18 340.68,-67.75 351.84,-72.74"/>
<polygon fill="midnightblue" stroke="midnightblue" points="350.67,-76.05 361.23,-76.94 353.53,-69.66 350.67,-76.05"/>
</g>
<!-- Node7 -->
<g id="node7" class="node">
<title>Node7</title>
<g id="a_node7"><a xlink:href="group__grp__volume.html#gae4c62d20b8fef07f4471b5b0889ab005" target="_top" xlink:title="Computes volume of each region; and, if required, the derivatives of the volume with respect to the i...">
<polygon fill="white" stroke="black" points="356,-38.5 356,-57.5 409,-57.5 409,-38.5 356,-38.5"/>
<text text-anchor="middle" x="382.5" y="-45.5" font-family="Helvetica,sans-Serif" font-size="10.00">volume</text>
</a>
</g>
</g>
<!-- Node5&#45;&gt;Node7 -->
<g id="edge6" class="edge">
<title>Node5&#45;&gt;Node7</title>
<path fill="none" stroke="midnightblue" d="M320.18,-41.88C328.07,-41.32 337.05,-41.13 345.65,-41.32"/>
<polygon fill="midnightblue" stroke="midnightblue" points="345.73,-44.83 355.87,-41.75 346.02,-37.84 345.73,-44.83"/>
</g>
<!-- Node7&#45;&gt;Node5 -->
<g id="edge7" class="edge">
<title>Node7&#45;&gt;Node5</title>
<path fill="none" stroke="midnightblue" d="M355.87,-54.25C347.81,-54.75 338.78,-54.88 330.24,-54.62"/>
<polygon fill="midnightblue" stroke="midnightblue" points="330.34,-51.12 320.18,-54.12 329.99,-58.11 330.34,-51.12"/>
</g>
<!-- Node10&#45;&gt;Node6 -->
<g id="edge12" class="edge">
<title>Node10&#45;&gt;Node6</title>
<path fill="none" stroke="midnightblue" d="M317.95,-114.41C328.22,-109.82 340.68,-104.25 351.84,-99.26"/>
<polygon fill="midnightblue" stroke="midnightblue" points="353.53,-102.34 361.23,-95.06 350.67,-95.95 353.53,-102.34"/>
</g>
</g>
</svg>
