<?xml version="1.0" encoding="UTF-8" standalone="no"?>
<!DOCTYPE svg PUBLIC "-//W3C//DTD SVG 1.1//EN"
 "http://www.w3.org/Graphics/SVG/1.1/DTD/svg11.dtd">
<!-- Generated by graphviz version 2.44.0 ()
 -->
<!-- Title: ma00aa Pages: 1 -->
<svg width="747pt" height="446pt"
 viewBox="0.00 0.00 747.00 446.00" xmlns="http://www.w3.org/2000/svg" xmlns:xlink="http://www.w3.org/1999/xlink">
<g id="graph0" class="graph" transform="scale(1 1) rotate(0) translate(4 442)">
<title>ma00aa</title>
<polygon fill="white" stroke="transparent" points="-4,4 -4,-442 743,-442 743,4 -4,4"/>
<!-- Node1 -->
<g id="node1" class="node">
<title>Node1</title>
<g id="a_node1"><a xlink:title="Calculates volume integrals of Chebyshev polynomials and metric element products.">
<polygon fill="#bfbfbf" stroke="black" points="688,-57.5 688,-76.5 739,-76.5 739,-57.5 688,-57.5"/>
<text text-anchor="middle" x="713.5" y="-64.5" font-family="Helvetica,sans-Serif" font-size="10.00">ma00aa</text>
</a>
</g>
</g>
<!-- Node2 -->
<g id="node2" class="node">
<title>Node2</title>
<g id="a_node2"><a xlink:href="dfp100_8f90.html#a17a3ac15cc83994394f7b4cc05e5898e" target="_top" xlink:title="Split the work between MPI nodes and evaluate the global constraint.">
<polygon fill="white" stroke="black" points="606,-76.5 606,-95.5 652,-95.5 652,-76.5 606,-76.5"/>
<text text-anchor="middle" x="629" y="-83.5" font-family="Helvetica,sans-Serif" font-size="10.00">dfp100</text>
</a>
</g>
</g>
<!-- Node1&#45;&gt;Node2 -->
<g id="edge1" class="edge">
<title>Node1&#45;&gt;Node2</title>
<path fill="none" stroke="midnightblue" d="M677.84,-74.98C669.17,-76.98 660.09,-79.07 652.21,-80.89"/>
<polygon fill="midnightblue" stroke="midnightblue" points="678.79,-78.36 687.75,-72.7 677.22,-71.53 678.79,-78.36"/>
</g>
<!-- Node14 -->
<g id="node14" class="node">
<title>Node14</title>
<g id="a_node14"><a xlink:href="dfp200_8f90.html#a6aca59cf350d7b1941f8389d50945a43" target="_top" xlink:title="get LU Beltrami matrices">
<polygon fill="white" stroke="black" points="365,-38.5 365,-57.5 490,-57.5 490,-38.5 365,-38.5"/>
<text text-anchor="middle" x="427.5" y="-45.5" font-family="Helvetica,sans-Serif" font-size="10.00">get_lu_beltrami_matrices</text>
</a>
</g>
</g>
<!-- Node1&#45;&gt;Node14 -->
<g id="edge39" class="edge">
<title>Node1&#45;&gt;Node14</title>
<path fill="none" stroke="midnightblue" d="M677.58,-64.66C630.9,-61.54 547.38,-55.95 490.02,-52.12"/>
<polygon fill="midnightblue" stroke="midnightblue" points="677.58,-68.17 687.79,-65.35 678.05,-61.19 677.58,-68.17"/>
</g>
<!-- Node3 -->
<g id="node3" class="node">
<title>Node3</title>
<g id="a_node3"><a xlink:href="group__grp__global__force.html#ga38c9d3c50bd043707fefa5137c9dbf44" target="_top" xlink:title="Calculates , where &#160;and , and .">
<polygon fill="white" stroke="black" points="526,-209.5 526,-228.5 570,-228.5 570,-209.5 526,-209.5"/>
<text text-anchor="middle" x="548" y="-216.5" font-family="Helvetica,sans-Serif" font-size="10.00">dforce</text>
</a>
</g>
</g>
<!-- Node2&#45;&gt;Node3 -->
<g id="edge2" class="edge">
<title>Node2&#45;&gt;Node3</title>
<path fill="none" stroke="midnightblue" d="M616.99,-104.53C600,-133.14 567.98,-187.05 554.84,-209.16"/>
<polygon fill="midnightblue" stroke="midnightblue" points="620.22,-105.95 622.32,-95.57 614.2,-102.38 620.22,-105.95"/>
</g>
<!-- Node17 -->
<g id="node17" class="node">
<title>Node17</title>
<g id="a_node17"><a xlink:href="dfp200_8f90.html#a73ddf39ecc5228201fb643779e17cd36" target="_top" xlink:title="Evaluate mu and psip derivatives and store them in dmupfdx.">
<polygon fill="white" stroke="black" points="140,-76.5 140,-95.5 235,-95.5 235,-76.5 140,-76.5"/>
<text text-anchor="middle" x="187.5" y="-83.5" font-family="Helvetica,sans-Serif" font-size="10.00">evaluate_dmupfdx</text>
</a>
</g>
</g>
<!-- Node2&#45;&gt;Node17 -->
<g id="edge38" class="edge">
<title>Node2&#45;&gt;Node17</title>
<path fill="none" stroke="midnightblue" d="M595.88,-86C519.17,-86 325.02,-86 235.29,-86"/>
<polygon fill="midnightblue" stroke="midnightblue" points="595.9,-89.5 605.9,-86 595.9,-82.5 595.9,-89.5"/>
</g>
<!-- Node4 -->
<g id="node4" class="node">
<title>Node4</title>
<g id="a_node4"><a xlink:href="namespaceallglobal.html#a7824bc37519fe88336534ce90ab2af16" target="_top" xlink:title=" ">
<polygon fill="white" stroke="black" points="370.5,-380.5 370.5,-399.5 484.5,-399.5 484.5,-380.5 370.5,-380.5"/>
<text text-anchor="middle" x="427.5" y="-387.5" font-family="Helvetica,sans-Serif" font-size="10.00">allglobal::check_inputs</text>
</a>
</g>
</g>
<!-- Node3&#45;&gt;Node4 -->
<g id="edge3" class="edge">
<title>Node3&#45;&gt;Node4</title>
<path fill="none" stroke="midnightblue" d="M545.11,-238.78C540.96,-271.05 528.16,-335.03 490,-371 485.85,-374.91 480.92,-378.01 475.67,-380.48"/>
<polygon fill="midnightblue" stroke="midnightblue" points="548.59,-239.12 546.24,-228.79 541.63,-238.33 548.59,-239.12"/>
</g>
<!-- Node7 -->
<g id="node7" class="node">
<title>Node7</title>
<g id="a_node7"><a xlink:href="xspech_8f90.html#a48f45478dc2c9f70ea8aa1c60ad06503" target="_top" xlink:title="This is the main &quot;driver&quot; for the physics part of SPEC.">
<polygon fill="white" stroke="black" points="168.5,-304.5 168.5,-323.5 206.5,-323.5 206.5,-304.5 168.5,-304.5"/>
<text text-anchor="middle" x="187.5" y="-311.5" font-family="Helvetica,sans-Serif" font-size="10.00">spec</text>
</a>
</g>
</g>
<!-- Node3&#45;&gt;Node7 -->
<g id="edge37" class="edge">
<title>Node3&#45;&gt;Node7</title>
<path fill="none" stroke="midnightblue" d="M534.34,-236.92C524.01,-250.06 508.18,-267.1 490,-276 391.92,-324.03 255.33,-319.23 206.63,-315.64"/>
<polygon fill="midnightblue" stroke="midnightblue" points="537.39,-238.7 540.58,-228.6 531.78,-234.5 537.39,-238.7"/>
</g>
<!-- Node10 -->
<g id="node10" class="node">
<title>Node10</title>
<g id="a_node10"><a xlink:href="group__grp__force__driver.html#gabbc245b3884ee8d8d3e2a52f25149f78" target="_top" xlink:title="fcn1">
<polygon fill="white" stroke="black" points="410,-190.5 410,-209.5 445,-209.5 445,-190.5 410,-190.5"/>
<text text-anchor="middle" x="427.5" y="-197.5" font-family="Helvetica,sans-Serif" font-size="10.00">fcn1</text>
</a>
</g>
</g>
<!-- Node3&#45;&gt;Node10 -->
<g id="edge12" class="edge">
<title>Node3&#45;&gt;Node10</title>
<path fill="none" stroke="midnightblue" d="M515.69,-213.98C493.13,-210.36 463.55,-205.62 445.29,-202.69"/>
<polygon fill="midnightblue" stroke="midnightblue" points="515.39,-217.48 525.81,-215.6 516.49,-210.56 515.39,-217.48"/>
</g>
<!-- Node11 -->
<g id="node11" class="node">
<title>Node11</title>
<g id="a_node11"><a xlink:href="group__grp__force__driver.html#gaec14f81fbdbedafbc4189489ec8ae178" target="_top" xlink:title="Employs Newton method to find , where &#160;and &#160;is defined in dforce() .">
<polygon fill="white" stroke="black" points="281,-190.5 281,-209.5 329,-209.5 329,-190.5 281,-190.5"/>
<text text-anchor="middle" x="305" y="-197.5" font-family="Helvetica,sans-Serif" font-size="10.00">newton</text>
</a>
</g>
</g>
<!-- Node3&#45;&gt;Node11 -->
<g id="edge34" class="edge">
<title>Node3&#45;&gt;Node11</title>
<path fill="none" stroke="midnightblue" d="M528.68,-202.72C518.15,-194.47 504.23,-185.31 490,-181 436.83,-164.9 419.88,-172.38 365,-181 352.88,-182.9 339.86,-186.88 329.13,-190.7"/>
<polygon fill="midnightblue" stroke="midnightblue" points="526.71,-205.63 536.65,-209.3 531.17,-200.24 526.71,-205.63"/>
</g>
<!-- Node12 -->
<g id="node12" class="node">
<title>Node12</title>
<g id="a_node12"><a xlink:href="group__grp__force__driver.html#ga8ccd6c7d901872702521d0a0edf95412" target="_top" xlink:title="fcn2">
<polygon fill="white" stroke="black" points="29.5,-167.5 29.5,-186.5 64.5,-186.5 64.5,-167.5 29.5,-167.5"/>
<text text-anchor="middle" x="47" y="-174.5" font-family="Helvetica,sans-Serif" font-size="10.00">fcn2</text>
</a>
</g>
</g>
<!-- Node3&#45;&gt;Node12 -->
<g id="edge21" class="edge">
<title>Node3&#45;&gt;Node12</title>
<path fill="none" stroke="midnightblue" d="M515.81,-223.91C445.65,-233.9 270.58,-252.91 130,-219 104.19,-212.77 77.37,-196.96 61.71,-186.61"/>
<polygon fill="midnightblue" stroke="midnightblue" points="516.38,-227.37 525.76,-222.45 515.36,-220.44 516.38,-227.37"/>
</g>
<!-- Node3&#45;&gt;Node14 -->
<g id="edge22" class="edge">
<title>Node3&#45;&gt;Node14</title>
<path fill="none" stroke="midnightblue" d="M539.14,-199.96C529.37,-177.39 511.33,-139.16 490,-110 474.96,-89.44 453.18,-69.17 439.97,-57.65"/>
<polygon fill="midnightblue" stroke="midnightblue" points="536.02,-201.57 543.15,-209.41 542.47,-198.84 536.02,-201.57"/>
</g>
<!-- Node19 -->
<g id="node19" class="node">
<title>Node19</title>
<g id="a_node19"><a xlink:href="group__grp__diagnostics.html#ga7401b50ec10c6598ee4a8112717a63ec" target="_top" xlink:title="Computes eigenvalues and eigenvectors of derivative matrix, .">
<polygon fill="white" stroke="black" points="282.5,-266.5 282.5,-285.5 327.5,-285.5 327.5,-266.5 282.5,-266.5"/>
<text text-anchor="middle" x="305" y="-273.5" font-family="Helvetica,sans-Serif" font-size="10.00">hesian</text>
</a>
</g>
</g>
<!-- Node3&#45;&gt;Node19 -->
<g id="edge32" class="edge">
<title>Node3&#45;&gt;Node19</title>
<path fill="none" stroke="midnightblue" d="M525.05,-234.45C514.84,-240.89 502.27,-247.84 490,-252 433.57,-271.16 362.61,-275.16 327.59,-275.91"/>
<polygon fill="midnightblue" stroke="midnightblue" points="527.26,-237.18 533.68,-228.76 523.41,-231.34 527.26,-237.18"/>
</g>
<!-- Node20 -->
<g id="node20" class="node">
<title>Node20</title>
<g id="a_node20"><a xlink:href="group__grp__conjugate__gradient.html#ga4d8415226e62a9fdb42b0fd0b464251e" target="_top" xlink:title="Returns the energy functional and it&#39;s derivatives with respect to geometry.">
<polygon fill="white" stroke="black" points="403.5,-342.5 403.5,-361.5 451.5,-361.5 451.5,-342.5 403.5,-342.5"/>
<text text-anchor="middle" x="427.5" y="-349.5" font-family="Helvetica,sans-Serif" font-size="10.00">pc00ab</text>
</a>
</g>
</g>
<!-- Node3&#45;&gt;Node20 -->
<g id="edge35" class="edge">
<title>Node3&#45;&gt;Node20</title>
<path fill="none" stroke="midnightblue" d="M541.53,-238.35C533.79,-262.44 517.45,-303.41 490,-328 479.24,-337.64 464.18,-343.6 451.65,-347.17"/>
<polygon fill="midnightblue" stroke="midnightblue" points="544.94,-239.17 544.49,-228.59 538.24,-237.14 544.94,-239.17"/>
</g>
<!-- Node5 -->
<g id="node5" class="node">
<title>Node5</title>
<g id="a_node5"><a xlink:href="xspech_8f90.html#a9fdc71dffd7c61ee4588a3f80d3ab9ce" target="_top" xlink:title="Main subroutine of SPEC.">
<polygon fill="white" stroke="black" points="281.5,-380.5 281.5,-399.5 328.5,-399.5 328.5,-380.5 281.5,-380.5"/>
<text text-anchor="middle" x="305" y="-387.5" font-family="Helvetica,sans-Serif" font-size="10.00">xspech</text>
</a>
</g>
</g>
<!-- Node4&#45;&gt;Node5 -->
<g id="edge4" class="edge">
<title>Node4&#45;&gt;Node5</title>
<path fill="none" stroke="midnightblue" d="M360.45,-390C349.06,-390 337.95,-390 328.77,-390"/>
<polygon fill="midnightblue" stroke="midnightblue" points="360.48,-393.5 370.48,-390 360.48,-386.5 360.48,-393.5"/>
</g>
<!-- Node6 -->
<g id="node6" class="node">
<title>Node6</title>
<g id="a_node6"><a xlink:href="xspech_8f90.html#a1451823a7b97101a797de616250752c1" target="_top" xlink:title="Final diagnostics.">
<polygon fill="white" stroke="black" points="143,-380.5 143,-399.5 232,-399.5 232,-380.5 143,-380.5"/>
<text text-anchor="middle" x="187.5" y="-387.5" font-family="Helvetica,sans-Serif" font-size="10.00">final_diagnostics</text>
</a>
</g>
</g>
<!-- Node5&#45;&gt;Node6 -->
<g id="edge5" class="edge">
<title>Node5&#45;&gt;Node6</title>
<path fill="none" stroke="midnightblue" d="M271.29,-383.85C259.09,-383.23 245.05,-383.09 232.04,-383.44"/>
<polygon fill="midnightblue" stroke="midnightblue" points="271.25,-387.35 281.46,-384.52 271.71,-380.37 271.25,-387.35"/>
</g>
<!-- Node5&#45;&gt;Node7 -->
<g id="edge7" class="edge">
<title>Node5&#45;&gt;Node7</title>
<path fill="none" stroke="midnightblue" d="M293.11,-372.73C289.25,-369.03 284.9,-365.39 281,-362 264.63,-347.75 263.25,-340.75 245,-329 232.99,-321.27 218.07,-315.06 206.58,-312.18"/>
<polygon fill="midnightblue" stroke="midnightblue" points="290.73,-375.32 300.04,-380.38 295.92,-370.62 290.73,-375.32"/>
</g>
<!-- Node9 -->
<g id="node9" class="node">
<title>Node9</title>
<g id="a_node9"><a xlink:href="xspech_8f90.html#a95271e8805067f801b5d4e524d6901d4" target="_top" xlink:title="Main program of SPEC.">
<polygon fill="white" stroke="black" points="155.5,-418.5 155.5,-437.5 219.5,-437.5 219.5,-418.5 155.5,-418.5"/>
<text text-anchor="middle" x="187.5" y="-425.5" font-family="Helvetica,sans-Serif" font-size="10.00">spec_main</text>
</a>
</g>
</g>
<!-- Node5&#45;&gt;Node9 -->
<g id="edge11" class="edge">
<title>Node5&#45;&gt;Node9</title>
<path fill="none" stroke="midnightblue" d="M271.92,-400.55C254.89,-406.16 234.12,-412.99 217.57,-418.44"/>
<polygon fill="midnightblue" stroke="midnightblue" points="273.05,-403.87 281.46,-397.42 270.86,-397.22 273.05,-403.87"/>
</g>
<!-- Node6&#45;&gt;Node5 -->
<g id="edge6" class="edge">
<title>Node6&#45;&gt;Node5</title>
<path fill="none" stroke="midnightblue" d="M242.05,-396.73C255.94,-396.84 270.15,-396.42 281.46,-395.48"/>
<polygon fill="midnightblue" stroke="midnightblue" points="242.09,-393.23 232.04,-396.56 241.98,-400.23 242.09,-393.23"/>
</g>
<!-- Node7&#45;&gt;Node5 -->
<g id="edge10" class="edge">
<title>Node7&#45;&gt;Node5</title>
<path fill="none" stroke="midnightblue" d="M207.64,-328.1C218.98,-333.44 233.36,-339.51 245,-347 263.25,-358.75 264.63,-365.75 281,-380 281.16,-380.14 281.31,-380.27 281.47,-380.41"/>
<polygon fill="midnightblue" stroke="midnightblue" points="209.11,-324.92 198.6,-323.58 205.98,-331.18 209.11,-324.92"/>
</g>
<!-- Node8 -->
<g id="node8" class="node">
<title>Node8</title>
<g id="a_node8"><a xlink:href="group__grp__output.html#ga0f962c09cd5d5eba99f1cba043cb3898" target="_top" xlink:title="Initialize the interface to the HDF5 library and open the output file.">
<polygon fill="white" stroke="black" points="0,-323.5 0,-342.5 94,-342.5 94,-323.5 0,-323.5"/>
<text text-anchor="middle" x="47" y="-330.5" font-family="Helvetica,sans-Serif" font-size="10.00">sphdf5::init_outfile</text>
</a>
</g>
</g>
<!-- Node7&#45;&gt;Node8 -->
<g id="edge8" class="edge">
<title>Node7&#45;&gt;Node8</title>
<path fill="none" stroke="midnightblue" d="M158.31,-317.87C139.87,-320.4 115.36,-323.76 94.12,-326.67"/>
<polygon fill="midnightblue" stroke="midnightblue" points="158.96,-321.31 168.39,-316.48 158.01,-314.38 158.96,-321.31"/>
</g>
<!-- Node8&#45;&gt;Node5 -->
<g id="edge9" class="edge">
<title>Node8&#45;&gt;Node5</title>
<path fill="none" stroke="midnightblue" d="M104.13,-341.97C143.77,-348.75 197.98,-358.94 245,-371 257.2,-374.13 270.57,-378.37 281.49,-382.04"/>
<polygon fill="midnightblue" stroke="midnightblue" points="104.57,-338.49 94.13,-340.27 103.4,-345.39 104.57,-338.49"/>
</g>
<!-- Node10&#45;&gt;Node11 -->
<g id="edge13" class="edge">
<title>Node10&#45;&gt;Node11</title>
<path fill="none" stroke="midnightblue" d="M399.51,-194.26C378.38,-192.82 349.31,-192.92 329.22,-194.54"/>
<polygon fill="midnightblue" stroke="midnightblue" points="399.48,-197.77 409.74,-195.16 400.09,-190.8 399.48,-197.77"/>
</g>
<!-- Node11&#45;&gt;Node7 -->
<g id="edge17" class="edge">
<title>Node11&#45;&gt;Node7</title>
<path fill="none" stroke="midnightblue" d="M286.95,-216.83C262.42,-241.04 217.99,-284.89 198.32,-304.31"/>
<polygon fill="midnightblue" stroke="midnightblue" points="289.49,-219.24 294.15,-209.72 284.58,-214.25 289.49,-219.24"/>
</g>
<!-- Node11&#45;&gt;Node10 -->
<g id="edge14" class="edge">
<title>Node11&#45;&gt;Node10</title>
<path fill="none" stroke="midnightblue" d="M339.21,-206.11C362.11,-207.27 391.58,-206.85 409.74,-204.84"/>
<polygon fill="midnightblue" stroke="midnightblue" points="339.42,-202.61 329.22,-205.46 338.97,-209.6 339.42,-202.61"/>
</g>
<!-- Node11&#45;&gt;Node12 -->
<g id="edge15" class="edge">
<title>Node11&#45;&gt;Node12</title>
<path fill="none" stroke="midnightblue" d="M286.81,-185.35C275.21,-179.64 259.45,-174.42 245,-172 179.04,-160.95 98.93,-164.45 64.76,-170.72"/>
<polygon fill="midnightblue" stroke="midnightblue" points="285.36,-188.55 295.79,-190.43 288.81,-182.46 285.36,-188.55"/>
</g>
<!-- Node13 -->
<g id="node13" class="node">
<title>Node13</title>
<g id="a_node13"><a xlink:href="group__grp__force__driver.html#ga382822b303cbf8c56d6f54dcb379caf2" target="_top" xlink:title="read or write force&#45;derivative matrix">
<polygon fill="white" stroke="black" points="155,-190.5 155,-209.5 220,-209.5 220,-190.5 155,-190.5"/>
<text text-anchor="middle" x="187.5" y="-197.5" font-family="Helvetica,sans-Serif" font-size="10.00">writereadgf</text>
</a>
</g>
</g>
<!-- Node11&#45;&gt;Node13 -->
<g id="edge18" class="edge">
<title>Node11&#45;&gt;Node13</title>
<path fill="none" stroke="midnightblue" d="M270.5,-193.81C254.69,-193.04 235.9,-193.06 220.3,-193.9"/>
<polygon fill="midnightblue" stroke="midnightblue" points="270.7,-197.33 280.9,-194.47 271.15,-190.34 270.7,-197.33"/>
</g>
<!-- Node12&#45;&gt;Node11 -->
<g id="edge16" class="edge">
<title>Node12&#45;&gt;Node11</title>
<path fill="none" stroke="midnightblue" d="M75.04,-181.06C113.21,-181.94 184.97,-179.95 245,-190 257.1,-192.03 270.12,-196.02 280.85,-199.02"/>
<polygon fill="midnightblue" stroke="midnightblue" points="74.87,-177.55 64.76,-180.71 74.63,-184.55 74.87,-177.55"/>
</g>
<!-- Node13&#45;&gt;Node11 -->
<g id="edge20" class="edge">
<title>Node13&#45;&gt;Node11</title>
<path fill="none" stroke="midnightblue" d="M230.57,-206.52C247.56,-207.03 266.51,-206.69 280.9,-205.53"/>
<polygon fill="midnightblue" stroke="midnightblue" points="230.44,-203.02 220.3,-206.1 230.15,-210.01 230.44,-203.02"/>
</g>
<!-- Node13&#45;&gt;Node12 -->
<g id="edge19" class="edge">
<title>Node13&#45;&gt;Node12</title>
<path fill="none" stroke="midnightblue" d="M144.76,-193.07C117.8,-188.59 84.2,-183.01 64.52,-179.74"/>
<polygon fill="midnightblue" stroke="midnightblue" points="144.29,-196.54 154.73,-194.72 145.43,-189.63 144.29,-196.54"/>
</g>
<!-- Node15 -->
<g id="node15" class="node">
<title>Node15</title>
<g id="a_node15"><a xlink:href="dfp200_8f90.html#a55ea75395f8c71731451e1add3720c7e" target="_top" xlink:title="Given the field consistent with the constraints and the geometry, computes local quantites related to...">
<polygon fill="white" stroke="black" points="282,-38.5 282,-57.5 328,-57.5 328,-38.5 282,-38.5"/>
<text text-anchor="middle" x="305" y="-45.5" font-family="Helvetica,sans-Serif" font-size="10.00">dfp200</text>
</a>
</g>
</g>
<!-- Node14&#45;&gt;Node15 -->
<g id="edge23" class="edge">
<title>Node14&#45;&gt;Node15</title>
<path fill="none" stroke="midnightblue" d="M354.69,-41.36C345.05,-41.55 335.82,-41.98 328.04,-42.64"/>
<polygon fill="midnightblue" stroke="midnightblue" points="354.88,-44.86 364.84,-41.25 354.8,-37.86 354.88,-44.86"/>
</g>
<!-- Node15&#45;&gt;Node3 -->
<g id="edge24" class="edge">
<title>Node15&#45;&gt;Node3</title>
<path fill="none" stroke="midnightblue" d="M331.5,-62.93C367.79,-84.57 435.95,-126.58 490,-168 507.5,-181.41 526.27,-198.87 537.31,-209.49"/>
<polygon fill="midnightblue" stroke="midnightblue" points="332.95,-59.73 322.56,-57.64 329.38,-65.75 332.95,-59.73"/>
</g>
<!-- Node15&#45;&gt;Node14 -->
<g id="edge29" class="edge">
<title>Node15&#45;&gt;Node14</title>
<path fill="none" stroke="midnightblue" d="M338.28,-54.06C346.52,-54.5 355.66,-54.73 364.84,-54.75"/>
<polygon fill="midnightblue" stroke="midnightblue" points="338.26,-50.55 328.04,-53.36 337.78,-57.53 338.26,-50.55"/>
</g>
<!-- Node16 -->
<g id="node16" class="node">
<title>Node16</title>
<g id="a_node16"><a xlink:href="dfp200_8f90.html#a7b64c7392b45d0042d8bd7379c0761a5" target="_top" xlink:title="Evaluate the derivative of the square of the magnetic field modulus. Add spectral constraint derivati...">
<polygon fill="white" stroke="black" points="150.5,-0.5 150.5,-19.5 224.5,-19.5 224.5,-0.5 150.5,-0.5"/>
<text text-anchor="middle" x="187.5" y="-7.5" font-family="Helvetica,sans-Serif" font-size="10.00">evaluate_dbb</text>
</a>
</g>
</g>
<!-- Node15&#45;&gt;Node16 -->
<g id="edge25" class="edge">
<title>Node15&#45;&gt;Node16</title>
<path fill="none" stroke="midnightblue" d="M279.31,-34.23C263.49,-27.83 242.69,-20.76 224.99,-15.68"/>
<polygon fill="midnightblue" stroke="midnightblue" points="278.33,-37.61 288.9,-38.3 281.07,-31.17 278.33,-37.61"/>
</g>
<!-- Node15&#45;&gt;Node17 -->
<g id="edge27" class="edge">
<title>Node15&#45;&gt;Node17</title>
<path fill="none" stroke="midnightblue" d="M271.95,-52.43C249.52,-58.63 220.6,-68.61 203.36,-76.41"/>
<polygon fill="midnightblue" stroke="midnightblue" points="272.94,-55.79 281.73,-49.87 271.17,-49.01 272.94,-55.79"/>
</g>
<!-- Node18 -->
<g id="node18" class="node">
<title>Node18</title>
<g id="a_node18"><a xlink:href="dfp200_8f90.html#a5e56f1f4b1e6df11a9cffa6237c37469" target="_top" xlink:title="This routine evaluates the value of the magnetic field once the interface is perturbed using matrix p...">
<polygon fill="white" stroke="black" points="130,-38.5 130,-57.5 245,-57.5 245,-38.5 130,-38.5"/>
<text text-anchor="middle" x="187.5" y="-45.5" font-family="Helvetica,sans-Serif" font-size="10.00">get_perturbed_solution</text>
</a>
</g>
</g>
<!-- Node15&#45;&gt;Node18 -->
<g id="edge30" class="edge">
<title>Node15&#45;&gt;Node18</title>
<path fill="none" stroke="midnightblue" d="M271.51,-41.86C263.3,-41.44 254.25,-41.23 245.23,-41.25"/>
<polygon fill="midnightblue" stroke="midnightblue" points="271.52,-45.37 281.73,-42.54 271.99,-38.38 271.52,-45.37"/>
</g>
<!-- Node16&#45;&gt;Node15 -->
<g id="edge26" class="edge">
<title>Node16&#45;&gt;Node15</title>
<path fill="none" stroke="midnightblue" d="M212.59,-23.53C232.96,-31.81 261.9,-41.28 281.73,-46.13"/>
<polygon fill="midnightblue" stroke="midnightblue" points="213.93,-20.3 203.36,-19.59 211.19,-26.74 213.93,-20.3"/>
</g>
<!-- Node17&#45;&gt;Node15 -->
<g id="edge28" class="edge">
<title>Node17&#45;&gt;Node15</title>
<path fill="none" stroke="midnightblue" d="M244.62,-74.28C260.95,-68.96 277.45,-62.86 288.9,-57.7"/>
<polygon fill="midnightblue" stroke="midnightblue" points="243.54,-70.96 235.06,-77.32 245.65,-77.63 243.54,-70.96"/>
</g>
<!-- Node18&#45;&gt;Node15 -->
<g id="edge31" class="edge">
<title>Node18&#45;&gt;Node15</title>
<path fill="none" stroke="midnightblue" d="M255.23,-54.68C264.76,-54.52 273.95,-54.11 281.73,-53.46"/>
<polygon fill="midnightblue" stroke="midnightblue" points="255.21,-51.18 245.23,-54.75 255.26,-58.18 255.21,-51.18"/>
</g>
<!-- Node19&#45;&gt;Node7 -->
<g id="edge33" class="edge">
<title>Node19&#45;&gt;Node7</title>
<path fill="none" stroke="midnightblue" d="M272.74,-286.28C251.59,-293.24 224.39,-302.19 206.71,-308.01"/>
<polygon fill="midnightblue" stroke="midnightblue" points="273.87,-289.6 282.28,-283.15 271.68,-282.95 273.87,-289.6"/>
</g>
<!-- Node21 -->
<g id="node21" class="node">
<title>Node21</title>
<g id="a_node21"><a xlink:href="group__grp__conjugate__gradient.html#ga25a3bae2ff2ee0469b045de0d033398b" target="_top" xlink:title="Use preconditioned conjugate gradient method to find minimum of energy functional.">
<polygon fill="white" stroke="black" points="281,-342.5 281,-361.5 329,-361.5 329,-342.5 281,-342.5"/>
<text text-anchor="middle" x="305" y="-349.5" font-family="Helvetica,sans-Serif" font-size="10.00">pc00aa</text>
</a>
</g>
</g>
<!-- Node20&#45;&gt;Node21 -->
<g id="edge36" class="edge">
<title>Node20&#45;&gt;Node21</title>
<path fill="none" stroke="midnightblue" d="M393.16,-352C372.81,-352 347.31,-352 329.16,-352"/>
<polygon fill="midnightblue" stroke="midnightblue" points="393.27,-355.5 403.27,-352 393.27,-348.5 393.27,-355.5"/>
</g>
</g>
</svg>
