<?xml version="1.0" encoding="UTF-8" standalone="no"?>
<!DOCTYPE svg PUBLIC "-//W3C//DTD SVG 1.1//EN"
 "http://www.w3.org/Graphics/SVG/1.1/DTD/svg11.dtd">
<!-- Generated by graphviz version 2.50.0 (20220203.2022)
 -->
<!-- Title: Input namelists and global variables Pages: 1 -->
<svg width="224pt" height="212pt"
 viewBox="0.00 0.00 224.00 212.00" xmlns="http://www.w3.org/2000/svg" xmlns:xlink="http://www.w3.org/1999/xlink">
<g id="graph0" class="graph" transform="scale(1 1) rotate(0) translate(4 208)">
<title>Input namelists and global variables</title>
<polygon fill="white" stroke="transparent" points="-4,4 -4,-208 220,-208 220,4 -4,4"/>
<!-- Node1 -->
<g id="node1" class="node">
<title>Node1</title>
<g id="a_node1"><a xlink:title="\definecolor{Orange}{rgb}{1.0,0.5,0.0} &#160;\definecolor{Cerulean}{rgb}{0.0,0.5,1.0}">
<polygon fill="#bfbfbf" stroke="black" points="101,-116.5 0,-116.5 0,-86.5 101,-86.5 101,-116.5"/>
<text text-anchor="start" x="8" y="-104.5" font-family="Helvetica,sans-Serif" font-size="10.00">Input namelists and</text>
<text text-anchor="middle" x="50.5" y="-93.5" font-family="Helvetica,sans-Serif" font-size="10.00"> global variables</text>
</a>
</g>
</g>
<!-- Node6 -->
<g id="node2" class="node">
<title>Node6</title>
<g id="a_node2"><a xlink:href="group__grp__global__diagnostics.html" target="_top" xlink:title="The namelist diagnosticslist controls post&#45;processor diagnostics, such as Poincaré plot resolution,...">
<polygon fill="white" stroke="black" points="216,-204 137,-204 137,-185 216,-185 216,-204"/>
<text text-anchor="middle" x="176.5" y="-192" font-family="Helvetica,sans-Serif" font-size="10.00">diagnosticslist</text>
</a>
</g>
</g>
<!-- Node1&#45;&gt;Node6 -->
<g id="edge5" class="edge">
<title>Node1&#45;&gt;Node6</title>
<path fill="none" stroke="black" d="M73.67,-124.11C90.14,-140.09 113.7,-161.28 137,-176.5 141.69,-179.57 146.99,-182.4 152.13,-184.87"/>
<polygon fill="black" stroke="black" points="75.77,-121.26 66.19,-116.73 70.85,-126.25 75.77,-121.26"/>
</g>
<!-- Node5 -->
<g id="node3" class="node">
<title>Node5</title>
<g id="a_node3"><a xlink:href="group__grp__global__global.html" target="_top" xlink:title="The namelist globallist controls the search for global force&#45;balance.">
<polygon fill="white" stroke="black" points="204,-167 149,-167 149,-148 204,-148 204,-167"/>
<text text-anchor="middle" x="176.5" y="-155" font-family="Helvetica,sans-Serif" font-size="10.00">globallist</text>
</a>
</g>
</g>
<!-- Node1&#45;&gt;Node5 -->
<g id="edge4" class="edge">
<title>Node1&#45;&gt;Node5</title>
<path fill="none" stroke="black" d="M94.1,-120.74C114.41,-129.91 137.79,-140.47 154.28,-147.92"/>
<polygon fill="black" stroke="black" points="95.28,-117.43 84.73,-116.51 92.4,-123.81 95.28,-117.43"/>
</g>
<!-- Node4 -->
<g id="node4" class="node">
<title>Node4</title>
<g id="a_node4"><a xlink:href="group__grp__global__local.html" target="_top" xlink:title="The namelist locallist controls the construction of the Beltrami fields in each volume.">
<polygon fill="white" stroke="black" points="201.5,-130 151.5,-130 151.5,-111 201.5,-111 201.5,-130"/>
<text text-anchor="middle" x="176.5" y="-118" font-family="Helvetica,sans-Serif" font-size="10.00">locallist</text>
</a>
</g>
</g>
<!-- Node1&#45;&gt;Node4 -->
<g id="edge3" class="edge">
<title>Node1&#45;&gt;Node4</title>
<path fill="none" stroke="black" d="M111.44,-110.68C125.56,-112.85 139.82,-115.03 151.3,-116.79"/>
<polygon fill="black" stroke="black" points="111.64,-107.17 101.22,-109.12 110.58,-114.09 111.64,-107.17"/>
</g>
<!-- Node3 -->
<g id="node5" class="node">
<title>Node3</title>
<g id="a_node5"><a xlink:href="group__grp__global__numerics.html" target="_top" xlink:title="The namelist numericlist controls internal resolution parameters that the user rarely needs to consid...">
<polygon fill="white" stroke="black" points="208.5,-93 144.5,-93 144.5,-74 208.5,-74 208.5,-93"/>
<text text-anchor="middle" x="176.5" y="-81" font-family="Helvetica,sans-Serif" font-size="10.00">numericlist</text>
</a>
</g>
</g>
<!-- Node1&#45;&gt;Node3 -->
<g id="edge2" class="edge">
<title>Node1&#45;&gt;Node3</title>
<path fill="none" stroke="black" d="M111.22,-92.83C122.67,-91.17 134.23,-89.49 144.32,-88.03"/>
<polygon fill="black" stroke="black" points="110.61,-89.38 101.22,-94.28 111.62,-96.31 110.61,-89.38"/>
</g>
<!-- Node2 -->
<g id="node6" class="node">
<title>Node2</title>
<g id="a_node6"><a xlink:href="group__grp__global__physicslist.html" target="_top" xlink:title="The namelist physicslist controls the geometry, profiles, and numerical resolution.">
<polygon fill="white" stroke="black" points="207.5,-56 145.5,-56 145.5,-37 207.5,-37 207.5,-56"/>
<text text-anchor="middle" x="176.5" y="-44" font-family="Helvetica,sans-Serif" font-size="10.00">physicslist</text>
</a>
</g>
</g>
<!-- Node1&#45;&gt;Node2 -->
<g id="edge1" class="edge">
<title>Node1&#45;&gt;Node2</title>
<path fill="none" stroke="black" d="M94.62,-82.38C114.59,-73.52 137.45,-63.38 153.76,-56.14"/>
<polygon fill="black" stroke="black" points="93.11,-79.22 85.38,-86.47 95.94,-85.62 93.11,-79.22"/>
</g>
<!-- Node7 -->
<g id="node7" class="node">
<title>Node7</title>
<g id="a_node7"><a xlink:href="group__grp__global__screenlist.html" target="_top" xlink:title="The namelist screenlist controls screen output. Every subroutine, e.g. xy00aa.h, has its own write fl...">
<polygon fill="white" stroke="black" points="206,-19 147,-19 147,0 206,0 206,-19"/>
<text text-anchor="middle" x="176.5" y="-7" font-family="Helvetica,sans-Serif" font-size="10.00">screenlist</text>
</a>
</g>
</g>
<!-- Node1&#45;&gt;Node7 -->
<g id="edge6" class="edge">
<title>Node1&#45;&gt;Node7</title>
<path fill="none" stroke="black" d="M74.48,-79.12C91.01,-63.73 114.31,-43.45 137,-28.5 142.23,-25.06 148.17,-21.83 153.8,-19.04"/>
<polygon fill="black" stroke="black" points="71.81,-76.83 66.94,-86.24 76.61,-81.92 71.81,-76.83"/>
</g>
</g>
</svg>
