<?xml version="1.0" encoding="UTF-8" standalone="no"?>
<!DOCTYPE svg PUBLIC "-//W3C//DTD SVG 1.1//EN"
 "http://www.w3.org/Graphics/SVG/1.1/DTD/svg11.dtd">
<!-- Generated by graphviz version 2.49.3 (20211027.1534)
 -->
<!-- Title: tr00ab Pages: 1 -->
<svg width="1172pt" height="381pt"
 viewBox="0.00 0.00 1172.00 381.48" xmlns="http://www.w3.org/2000/svg" xmlns:xlink="http://www.w3.org/1999/xlink">
<g id="graph0" class="graph" transform="scale(1 1) rotate(0) translate(4 377.48)">
<title>tr00ab</title>
<polygon fill="white" stroke="transparent" points="-4,4 -4,-377.48 1168,-377.48 1168,4 -4,4"/>
<!-- Node1 -->
<g id="node1" class="node">
<title>Node1</title>
<g id="a_node1"><a xlink:title="Calculates rotational transform given an arbitrary tangential field.">
<polygon fill="#bfbfbf" stroke="black" points="1120,-306.98 1120,-325.98 1164,-325.98 1164,-306.98 1120,-306.98"/>
<text text-anchor="middle" x="1142" y="-313.98" font-family="Helvetica,sans-Serif" font-size="10.00">tr00ab</text>
</a>
</g>
</g>
<!-- Node1&#45;&gt;Node1 -->
<g id="edge55" class="edge">
<title>Node1&#45;&gt;Node1</title>
<path fill="none" stroke="midnightblue" d="M1157.1,-336.24C1155.91,-340.97 1150.88,-344.48 1142,-344.48 1127.43,-344.48 1123.21,-335.04 1129.36,-326.23"/>
<polygon fill="midnightblue" stroke="midnightblue" points="1160.43,-335.11 1154.64,-326.23 1153.63,-336.78 1160.43,-335.11"/>
</g>
<!-- Node2 -->
<g id="node2" class="node">
<title>Node2</title>
<g id="a_node2"><a xlink:href="dfp200_8f90.html#a73ddf39ecc5228201fb643779e17cd36" target="_top" xlink:title="Evaluate mu and psip derivatives and store them in dmupfdx.">
<polygon fill="white" stroke="black" points="733,-287.98 733,-306.98 828,-306.98 828,-287.98 733,-287.98"/>
<text text-anchor="middle" x="780.5" y="-294.98" font-family="Helvetica,sans-Serif" font-size="10.00">evaluate_dmupfdx</text>
</a>
</g>
</g>
<!-- Node1&#45;&gt;Node2 -->
<g id="edge1" class="edge">
<title>Node1&#45;&gt;Node2</title>
<path fill="none" stroke="midnightblue" d="M1109.69,-314.82C1046.32,-311.47 902.59,-303.88 828.14,-299.94"/>
<polygon fill="midnightblue" stroke="midnightblue" points="1109.68,-318.33 1119.85,-315.36 1110.05,-311.34 1109.68,-318.33"/>
</g>
<!-- Node7 -->
<g id="node7" class="node">
<title>Node7</title>
<g id="a_node7"><a xlink:href="xspech_8f90.html#a1451823a7b97101a797de616250752c1" target="_top" xlink:title="Final diagnostics.">
<polygon fill="white" stroke="black" points="130,-270.98 130,-289.98 219,-289.98 219,-270.98 130,-270.98"/>
<text text-anchor="middle" x="174.5" y="-277.98" font-family="Helvetica,sans-Serif" font-size="10.00">final_diagnostics</text>
</a>
</g>
</g>
<!-- Node1&#45;&gt;Node7 -->
<g id="edge46" class="edge">
<title>Node1&#45;&gt;Node7</title>
<path fill="none" stroke="midnightblue" d="M1115.23,-331.07C1082.94,-347.96 1025.39,-373.48 972.5,-373.48 972.5,-373.48 972.5,-373.48 400.5,-373.48 313.85,-373.48 221.69,-313.84 188.41,-290.08"/>
<polygon fill="midnightblue" stroke="midnightblue" points="1117.25,-333.96 1124.41,-326.15 1113.94,-327.79 1117.25,-333.96"/>
</g>
<!-- Node21 -->
<g id="node21" class="node">
<title>Node21</title>
<g id="a_node21"><a xlink:href="group__grp__solver.html#ga6626839aff500f060beb5bce2b90c447" target="_top" xlink:title="Solves Beltrami/vacuum (linear) system, given matrices.unpacking fluxes, helicity multiplier">
<polygon fill="white" stroke="black" points="1033,-250.98 1033,-269.98 1084,-269.98 1084,-250.98 1033,-250.98"/>
<text text-anchor="middle" x="1058.5" y="-257.98" font-family="Helvetica,sans-Serif" font-size="10.00">mp00ac</text>
</a>
</g>
</g>
<!-- Node1&#45;&gt;Node21 -->
<g id="edge47" class="edge">
<title>Node1&#45;&gt;Node21</title>
<path fill="none" stroke="midnightblue" d="M1118.43,-300.97C1104.05,-291.09 1085.87,-278.6 1073.53,-270.12"/>
<polygon fill="midnightblue" stroke="midnightblue" points="1116.58,-303.94 1126.8,-306.72 1120.54,-298.18 1116.58,-303.94"/>
</g>
<!-- Node3 -->
<g id="node3" class="node">
<title>Node3</title>
<g id="a_node3"><a xlink:href="dfp200_8f90.html#a55ea75395f8c71731451e1add3720c7e" target="_top" xlink:title="Given the field consistent with the constraints and the geometry, computes local quantites related to...">
<polygon fill="white" stroke="black" points="651,-287.98 651,-306.98 697,-306.98 697,-287.98 651,-287.98"/>
<text text-anchor="middle" x="674" y="-294.98" font-family="Helvetica,sans-Serif" font-size="10.00">dfp200</text>
</a>
</g>
</g>
<!-- Node2&#45;&gt;Node3 -->
<g id="edge2" class="edge">
<title>Node2&#45;&gt;Node3</title>
<path fill="none" stroke="midnightblue" d="M722.55,-290.75C713.54,-290.85 704.71,-291.21 697.16,-291.84"/>
<polygon fill="midnightblue" stroke="midnightblue" points="722.75,-294.25 732.75,-290.76 722.75,-287.25 722.75,-294.25"/>
</g>
<!-- Node3&#45;&gt;Node2 -->
<g id="edge42" class="edge">
<title>Node3&#45;&gt;Node2</title>
<path fill="none" stroke="midnightblue" d="M707.25,-303.77C715.32,-304.16 724.14,-304.3 732.75,-304.19"/>
<polygon fill="midnightblue" stroke="midnightblue" points="707.36,-300.27 697.16,-303.11 706.91,-307.25 707.36,-300.27"/>
</g>
<!-- Node3&#45;&gt;Node3 -->
<g id="edge39" class="edge">
<title>Node3&#45;&gt;Node3</title>
<path fill="none" stroke="midnightblue" d="M693.63,-316.88C692.32,-321.79 685.77,-325.48 674,-325.48 655.16,-325.48 649.71,-316.04 657.66,-307.23"/>
<polygon fill="midnightblue" stroke="midnightblue" points="696.88,-315.57 690.34,-307.23 690.26,-317.83 696.88,-315.57"/>
</g>
<!-- Node4 -->
<g id="node4" class="node">
<title>Node4</title>
<g id="a_node4"><a xlink:href="group__grp__global__force.html#ga38c9d3c50bd043707fefa5137c9dbf44" target="_top" xlink:title="Calculates , where &#160;and , and .">
<polygon fill="white" stroke="black" points="535.5,-175.98 535.5,-194.98 579.5,-194.98 579.5,-175.98 535.5,-175.98"/>
<text text-anchor="middle" x="557.5" y="-182.98" font-family="Helvetica,sans-Serif" font-size="10.00">dforce</text>
</a>
</g>
</g>
<!-- Node3&#45;&gt;Node4 -->
<g id="edge3" class="edge">
<title>Node3&#45;&gt;Node4</title>
<path fill="none" stroke="midnightblue" d="M660.03,-279.51C648.92,-264.74 632.07,-243.67 615,-227.48 602.05,-215.2 585.5,-203.26 573.66,-195.27"/>
<polygon fill="midnightblue" stroke="midnightblue" points="657.39,-281.84 666.15,-287.8 663.02,-277.68 657.39,-281.84"/>
</g>
<!-- Node15 -->
<g id="node15" class="node">
<title>Node15</title>
<g id="a_node15"><a xlink:href="dfp200_8f90.html#a6aca59cf350d7b1941f8389d50945a43" target="_top" xlink:title="get LU Beltrami matrices">
<polygon fill="white" stroke="black" points="339,-307.98 339,-326.98 464,-326.98 464,-307.98 339,-307.98"/>
<text text-anchor="middle" x="401.5" y="-314.98" font-family="Helvetica,sans-Serif" font-size="10.00">get_lu_beltrami_matrices</text>
</a>
</g>
</g>
<!-- Node3&#45;&gt;Node15 -->
<g id="edge43" class="edge">
<title>Node3&#45;&gt;Node15</title>
<path fill="none" stroke="midnightblue" d="M656.13,-282.73C644.74,-276.98 629.24,-271.75 615,-269.48 564.53,-261.42 549.48,-256.66 500,-269.48 482.28,-274.07 480.83,-282.29 464,-289.48 447.35,-296.58 427.14,-302.3 414.55,-307.83"/>
<polygon fill="midnightblue" stroke="midnightblue" points="654.54,-285.86 664.94,-287.86 658.06,-279.8 654.54,-285.86"/>
</g>
<!-- Node19 -->
<g id="node19" class="node">
<title>Node19</title>
<g id="a_node19"><a xlink:href="dfp200_8f90.html#a7b64c7392b45d0042d8bd7379c0761a5" target="_top" xlink:title="Evaluate the derivative of the square of the magnetic field modulus. Add spectral constraint derivati...">
<polygon fill="white" stroke="black" points="520.5,-325.98 520.5,-344.98 594.5,-344.98 594.5,-325.98 520.5,-325.98"/>
<text text-anchor="middle" x="557.5" y="-332.98" font-family="Helvetica,sans-Serif" font-size="10.00">evaluate_dbb</text>
</a>
</g>
</g>
<!-- Node3&#45;&gt;Node19 -->
<g id="edge40" class="edge">
<title>Node3&#45;&gt;Node19</title>
<path fill="none" stroke="midnightblue" d="M641.23,-301.91C618.99,-308.1 590.32,-318.09 573.23,-325.89"/>
<polygon fill="midnightblue" stroke="midnightblue" points="642.15,-305.28 650.92,-299.35 640.36,-298.51 642.15,-305.28"/>
</g>
<!-- Node20 -->
<g id="node20" class="node">
<title>Node20</title>
<g id="a_node20"><a xlink:href="dfp200_8f90.html#a5e56f1f4b1e6df11a9cffa6237c37469" target="_top" xlink:title="This routine evaluates the value of the magnetic field once the interface is perturbed using matrix p...">
<polygon fill="white" stroke="black" points="500,-287.98 500,-306.98 615,-306.98 615,-287.98 500,-287.98"/>
<text text-anchor="middle" x="557.5" y="-294.98" font-family="Helvetica,sans-Serif" font-size="10.00">get_perturbed_solution</text>
</a>
</g>
</g>
<!-- Node3&#45;&gt;Node20 -->
<g id="edge44" class="edge">
<title>Node3&#45;&gt;Node20</title>
<path fill="none" stroke="midnightblue" d="M640.92,-291.34C632.9,-290.93 624.05,-290.72 615.23,-290.73"/>
<polygon fill="midnightblue" stroke="midnightblue" points="640.71,-294.84 650.92,-292.02 641.18,-287.85 640.71,-294.84"/>
</g>
<!-- Node4&#45;&gt;Node4 -->
<g id="edge14" class="edge">
<title>Node4&#45;&gt;Node4</title>
<path fill="none" stroke="midnightblue" d="M578.98,-204.88C577.55,-209.79 570.39,-213.48 557.5,-213.48 536.88,-213.48 530.92,-204.04 539.62,-195.23"/>
<polygon fill="midnightblue" stroke="midnightblue" points="582.16,-203.38 575.38,-195.23 575.6,-205.83 582.16,-203.38"/>
</g>
<!-- Node5 -->
<g id="node5" class="node">
<title>Node5</title>
<g id="a_node5"><a xlink:href="namespaceallglobal.html#a7824bc37519fe88336534ce90ab2af16" target="_top" xlink:title=" ">
<polygon fill="white" stroke="black" points="344.5,-213.98 344.5,-232.98 458.5,-232.98 458.5,-213.98 344.5,-213.98"/>
<text text-anchor="middle" x="401.5" y="-220.98" font-family="Helvetica,sans-Serif" font-size="10.00">allglobal::check_inputs</text>
</a>
</g>
</g>
<!-- Node4&#45;&gt;Node5 -->
<g id="edge4" class="edge">
<title>Node4&#45;&gt;Node5</title>
<path fill="none" stroke="midnightblue" d="M525.63,-193.1C501.3,-199.1 467.23,-207.51 441.1,-213.95"/>
<polygon fill="midnightblue" stroke="midnightblue" points="526.54,-196.48 535.41,-190.68 524.86,-189.68 526.54,-196.48"/>
</g>
<!-- Node8 -->
<g id="node8" class="node">
<title>Node8</title>
<g id="a_node8"><a xlink:href="xspech_8f90.html#a48f45478dc2c9f70ea8aa1c60ad06503" target="_top" xlink:title="This is the main &quot;driver&quot; for the physics part of SPEC.">
<polygon fill="white" stroke="black" points="155.5,-156.98 155.5,-175.98 193.5,-175.98 193.5,-156.98 155.5,-156.98"/>
<text text-anchor="middle" x="174.5" y="-163.98" font-family="Helvetica,sans-Serif" font-size="10.00">spec</text>
</a>
</g>
</g>
<!-- Node4&#45;&gt;Node8 -->
<g id="edge38" class="edge">
<title>Node4&#45;&gt;Node8</title>
<path fill="none" stroke="midnightblue" d="M525.06,-183.91C448.49,-180.09 254.2,-170.4 193.74,-167.39"/>
<polygon fill="midnightblue" stroke="midnightblue" points="525.31,-187.43 535.47,-184.43 525.66,-180.44 525.31,-187.43"/>
</g>
<!-- Node11 -->
<g id="node11" class="node">
<title>Node11</title>
<g id="a_node11"><a xlink:href="group__grp__force__driver.html#gabbc245b3884ee8d8d3e2a52f25149f78" target="_top" xlink:title="fcn1">
<polygon fill="white" stroke="black" points="384,-43.98 384,-62.98 419,-62.98 419,-43.98 384,-43.98"/>
<text text-anchor="middle" x="401.5" y="-50.98" font-family="Helvetica,sans-Serif" font-size="10.00">fcn1</text>
</a>
</g>
</g>
<!-- Node4&#45;&gt;Node11 -->
<g id="edge15" class="edge">
<title>Node4&#45;&gt;Node11</title>
<path fill="none" stroke="midnightblue" d="M540.48,-168.19C522.64,-149.37 492.56,-118.83 464,-95.48 449.19,-83.36 430.95,-71.22 418.19,-63.13"/>
<polygon fill="midnightblue" stroke="midnightblue" points="538.15,-170.83 547.55,-175.72 543.25,-166.03 538.15,-170.83"/>
</g>
<!-- Node12 -->
<g id="node12" class="node">
<title>Node12</title>
<g id="a_node12"><a xlink:href="group__grp__force__driver.html#gaec14f81fbdbedafbc4189489ec8ae178" target="_top" xlink:title="Employs Newton method to find , where &#160;and &#160;is defined in dforce() .">
<polygon fill="white" stroke="black" points="255,-58.98 255,-77.98 303,-77.98 303,-58.98 255,-58.98"/>
<text text-anchor="middle" x="279" y="-65.98" font-family="Helvetica,sans-Serif" font-size="10.00">newton</text>
</a>
</g>
</g>
<!-- Node4&#45;&gt;Node12 -->
<g id="edge33" class="edge">
<title>Node4&#45;&gt;Node12</title>
<path fill="none" stroke="midnightblue" d="M530.13,-171.13C511.82,-161.4 486.72,-148.54 464,-138.48 448.69,-131.7 348.96,-94.27 303.06,-77.09"/>
<polygon fill="midnightblue" stroke="midnightblue" points="528.57,-174.27 539.04,-175.9 531.87,-168.09 528.57,-174.27"/>
</g>
<!-- Node13 -->
<g id="node13" class="node">
<title>Node13</title>
<g id="a_node13"><a xlink:href="group__grp__force__driver.html#ga8ccd6c7d901872702521d0a0edf95412" target="_top" xlink:title="fcn2">
<polygon fill="white" stroke="black" points="29.5,-52.98 29.5,-71.98 64.5,-71.98 64.5,-52.98 29.5,-52.98"/>
<text text-anchor="middle" x="47" y="-59.98" font-family="Helvetica,sans-Serif" font-size="10.00">fcn2</text>
</a>
</g>
</g>
<!-- Node4&#45;&gt;Node13 -->
<g id="edge27" class="edge">
<title>Node4&#45;&gt;Node13</title>
<path fill="none" stroke="midnightblue" d="M551.31,-165.96C541.09,-132 514.83,-62.95 464,-34.48 327.27,42.11 124.28,-30.87 64.89,-55.21"/>
<polygon fill="midnightblue" stroke="midnightblue" points="547.96,-167 554.07,-175.66 554.69,-165.08 547.96,-167"/>
</g>
<!-- Node4&#45;&gt;Node15 -->
<g id="edge28" class="edge">
<title>Node4&#45;&gt;Node15</title>
<path fill="none" stroke="midnightblue" d="M531.28,-200.51C520.68,-207.71 508.8,-217.04 500,-227.48 477.2,-254.53 491.05,-275.67 464,-298.48 459.39,-302.37 453.98,-305.46 448.33,-307.92"/>
<polygon fill="midnightblue" stroke="midnightblue" points="533.3,-203.37 539.78,-194.99 529.48,-197.5 533.3,-203.37"/>
</g>
<!-- Node16 -->
<g id="node16" class="node">
<title>Node16</title>
<g id="a_node16"><a xlink:href="group__grp__diagnostics.html#ga7401b50ec10c6598ee4a8112717a63ec" target="_top" xlink:title="Computes eigenvalues and eigenvectors of derivative matrix, .">
<polygon fill="white" stroke="black" points="256.5,-119.98 256.5,-138.98 301.5,-138.98 301.5,-119.98 256.5,-119.98"/>
<text text-anchor="middle" x="279" y="-126.98" font-family="Helvetica,sans-Serif" font-size="10.00">hesian</text>
</a>
</g>
</g>
<!-- Node4&#45;&gt;Node16 -->
<g id="edge30" class="edge">
<title>Node4&#45;&gt;Node16</title>
<path fill="none" stroke="midnightblue" d="M525.45,-179.19C468.91,-167.74 350.46,-143.75 301.69,-133.87"/>
<polygon fill="midnightblue" stroke="midnightblue" points="524.77,-182.62 535.26,-181.18 526.16,-175.76 524.77,-182.62"/>
</g>
<!-- Node17 -->
<g id="node17" class="node">
<title>Node17</title>
<g id="a_node17"><a xlink:href="group__grp__conjugate__gradient.html#ga4d8415226e62a9fdb42b0fd0b464251e" target="_top" xlink:title="Returns the energy functional and it&#39;s derivatives with respect to geometry.">
<polygon fill="white" stroke="black" points="377.5,-251.98 377.5,-270.98 425.5,-270.98 425.5,-251.98 377.5,-251.98"/>
<text text-anchor="middle" x="401.5" y="-258.98" font-family="Helvetica,sans-Serif" font-size="10.00">pc00ab</text>
</a>
</g>
</g>
<!-- Node4&#45;&gt;Node17 -->
<g id="edge34" class="edge">
<title>Node4&#45;&gt;Node17</title>
<path fill="none" stroke="midnightblue" d="M534.64,-201.15C516.43,-213.65 489.45,-230.93 464,-242.48 451.79,-248.02 437.51,-252.54 425.79,-255.78"/>
<polygon fill="midnightblue" stroke="midnightblue" points="537.11,-203.69 543.31,-195.1 533.1,-197.95 537.11,-203.69"/>
</g>
<!-- Node6 -->
<g id="node6" class="node">
<title>Node6</title>
<g id="a_node6"><a xlink:href="xspech_8f90.html#a9fdc71dffd7c61ee4588a3f80d3ab9ce" target="_top" xlink:title="Main subroutine of SPEC.">
<polygon fill="white" stroke="black" points="255.5,-213.98 255.5,-232.98 302.5,-232.98 302.5,-213.98 255.5,-213.98"/>
<text text-anchor="middle" x="279" y="-220.98" font-family="Helvetica,sans-Serif" font-size="10.00">xspech</text>
</a>
</g>
</g>
<!-- Node5&#45;&gt;Node6 -->
<g id="edge5" class="edge">
<title>Node5&#45;&gt;Node6</title>
<path fill="none" stroke="midnightblue" d="M334.45,-223.48C323.06,-223.48 311.95,-223.48 302.77,-223.48"/>
<polygon fill="midnightblue" stroke="midnightblue" points="334.48,-226.98 344.48,-223.48 334.48,-219.98 334.48,-226.98"/>
</g>
<!-- Node6&#45;&gt;Node6 -->
<g id="edge13" class="edge">
<title>Node6&#45;&gt;Node6</title>
<path fill="none" stroke="midnightblue" d="M298.26,-242.88C296.97,-247.79 290.55,-251.48 279,-251.48 260.52,-251.48 255.17,-242.04 262.97,-233.23"/>
<polygon fill="midnightblue" stroke="midnightblue" points="301.52,-241.61 295.03,-233.23 294.89,-243.83 301.52,-241.61"/>
</g>
<!-- Node6&#45;&gt;Node7 -->
<g id="edge6" class="edge">
<title>Node6&#45;&gt;Node7</title>
<path fill="none" stroke="midnightblue" d="M246.52,-236.41C237.78,-241.7 228.17,-247.57 219,-252.48 206.94,-258.94 192.23,-265.01 183.38,-270.93"/>
<polygon fill="midnightblue" stroke="midnightblue" points="248.49,-239.31 255.26,-231.15 244.89,-233.31 248.49,-239.31"/>
</g>
<!-- Node6&#45;&gt;Node8 -->
<g id="edge8" class="edge">
<title>Node6&#45;&gt;Node8</title>
<path fill="none" stroke="midnightblue" d="M263.13,-207.82C251.21,-199.44 234.04,-189.83 219,-181.48 210.71,-176.87 201.51,-171.79 193.71,-168.21"/>
<polygon fill="midnightblue" stroke="midnightblue" points="261.04,-210.63 271.1,-213.95 265.31,-205.08 261.04,-210.63"/>
</g>
<!-- Node10 -->
<g id="node10" class="node">
<title>Node10</title>
<g id="a_node10"><a xlink:href="xspech_8f90.html#a95271e8805067f801b5d4e524d6901d4" target="_top" xlink:title="Main program of SPEC.">
<polygon fill="white" stroke="black" points="142.5,-232.98 142.5,-251.98 206.5,-251.98 206.5,-232.98 142.5,-232.98"/>
<text text-anchor="middle" x="174.5" y="-239.98" font-family="Helvetica,sans-Serif" font-size="10.00">spec_main</text>
</a>
</g>
</g>
<!-- Node6&#45;&gt;Node10 -->
<g id="edge12" class="edge">
<title>Node6&#45;&gt;Node10</title>
<path fill="none" stroke="midnightblue" d="M245.34,-229.53C232.98,-231.82 218.96,-234.42 206.74,-236.69"/>
<polygon fill="midnightblue" stroke="midnightblue" points="246.06,-232.96 255.25,-227.69 244.78,-226.08 246.06,-232.96"/>
</g>
<!-- Node7&#45;&gt;Node6 -->
<g id="edge7" class="edge">
<title>Node7&#45;&gt;Node6</title>
<path fill="none" stroke="midnightblue" d="M227.05,-265.96C245.24,-255.41 263.01,-242.69 272,-233.24"/>
<polygon fill="midnightblue" stroke="midnightblue" points="225.15,-263.01 218.12,-270.94 228.56,-269.13 225.15,-263.01"/>
</g>
<!-- Node8&#45;&gt;Node6 -->
<g id="edge11" class="edge">
<title>Node8&#45;&gt;Node6</title>
<path fill="none" stroke="midnightblue" d="M190.06,-182.36C198.51,-188.14 209.37,-194.13 219,-199.48 231,-206.15 244.36,-213.61 255.32,-218.89"/>
<polygon fill="midnightblue" stroke="midnightblue" points="192.07,-179.49 181.99,-176.22 187.83,-185.06 192.07,-179.49"/>
</g>
<!-- Node9 -->
<g id="node9" class="node">
<title>Node9</title>
<g id="a_node9"><a xlink:href="group__grp__output.html#ga0f962c09cd5d5eba99f1cba043cb3898" target="_top" xlink:title="Initialize the interface to the HDF5 library and open the output file.">
<polygon fill="white" stroke="black" points="0,-175.98 0,-194.98 94,-194.98 94,-175.98 0,-175.98"/>
<text text-anchor="middle" x="47" y="-182.98" font-family="Helvetica,sans-Serif" font-size="10.00">sphdf5::init_outfile</text>
</a>
</g>
</g>
<!-- Node8&#45;&gt;Node9 -->
<g id="edge9" class="edge">
<title>Node8&#45;&gt;Node9</title>
<path fill="none" stroke="midnightblue" d="M145.06,-170.78C130.04,-173.06 111.23,-175.9 94.18,-178.49"/>
<polygon fill="midnightblue" stroke="midnightblue" points="145.89,-174.2 155.25,-169.24 144.84,-167.28 145.89,-174.2"/>
</g>
<!-- Node9&#45;&gt;Node6 -->
<g id="edge10" class="edge">
<title>Node9&#45;&gt;Node6</title>
<path fill="none" stroke="midnightblue" d="M104.17,-194.76C152.64,-202.77 220.21,-213.93 255.11,-219.7"/>
<polygon fill="midnightblue" stroke="midnightblue" points="104.57,-191.28 94.13,-193.1 103.43,-198.18 104.57,-191.28"/>
</g>
<!-- Node11&#45;&gt;Node11 -->
<g id="edge16" class="edge">
<title>Node11&#45;&gt;Node11</title>
<path fill="none" stroke="midnightblue" d="M424.37,-70.62C424.68,-76.62 417.06,-81.48 401.5,-81.48 378.86,-81.48 373.03,-71.2 383.99,-62.08"/>
<polygon fill="midnightblue" stroke="midnightblue" points="427.29,-68.69 419.01,-62.08 421.36,-72.41 427.29,-68.69"/>
</g>
<!-- Node11&#45;&gt;Node12 -->
<g id="edge17" class="edge">
<title>Node11&#45;&gt;Node12</title>
<path fill="none" stroke="midnightblue" d="M373.51,-51.1C352.38,-52.29 323.31,-56 303.22,-60.13"/>
<polygon fill="midnightblue" stroke="midnightblue" points="373.88,-54.59 383.74,-50.72 373.62,-47.59 373.88,-54.59"/>
</g>
<!-- Node12&#45;&gt;Node8 -->
<g id="edge23" class="edge">
<title>Node12&#45;&gt;Node8</title>
<path fill="none" stroke="midnightblue" d="M262.08,-85.34C250.39,-97.56 234,-114.34 219,-128.48 208.49,-138.38 196.04,-149.17 187.16,-156.71"/>
<polygon fill="midnightblue" stroke="midnightblue" points="264.66,-87.71 269.02,-78.05 259.59,-82.88 264.66,-87.71"/>
</g>
<!-- Node12&#45;&gt;Node11 -->
<g id="edge18" class="edge">
<title>Node12&#45;&gt;Node11</title>
<path fill="none" stroke="midnightblue" d="M313.21,-70.45C336.11,-68.77 365.58,-64.68 383.74,-60.41"/>
<polygon fill="midnightblue" stroke="midnightblue" points="312.99,-66.96 303.22,-71.04 313.41,-73.94 312.99,-66.96"/>
</g>
<!-- Node12&#45;&gt;Node12 -->
<g id="edge22" class="edge">
<title>Node12&#45;&gt;Node12</title>
<path fill="none" stroke="midnightblue" d="M298.26,-87.88C296.97,-92.79 290.55,-96.48 279,-96.48 260.52,-96.48 255.17,-87.04 262.97,-78.23"/>
<polygon fill="midnightblue" stroke="midnightblue" points="301.52,-86.61 295.03,-78.23 294.89,-88.83 301.52,-86.61"/>
</g>
<!-- Node12&#45;&gt;Node13 -->
<g id="edge19" class="edge">
<title>Node12&#45;&gt;Node13</title>
<path fill="none" stroke="midnightblue" d="M244.71,-62.69C194.77,-58.59 102.33,-56.59 64.65,-59.2"/>
<polygon fill="midnightblue" stroke="midnightblue" points="244.41,-66.18 254.68,-63.59 245.04,-59.21 244.41,-66.18"/>
</g>
<!-- Node14 -->
<g id="node14" class="node">
<title>Node14</title>
<g id="a_node14"><a xlink:href="group__grp__force__driver.html#ga382822b303cbf8c56d6f54dcb379caf2" target="_top" xlink:title="read or write force&#45;derivative matrix">
<polygon fill="white" stroke="black" points="142,-99.98 142,-118.98 207,-118.98 207,-99.98 142,-99.98"/>
<text text-anchor="middle" x="174.5" y="-106.98" font-family="Helvetica,sans-Serif" font-size="10.00">writereadgf</text>
</a>
</g>
</g>
<!-- Node12&#45;&gt;Node14 -->
<g id="edge24" class="edge">
<title>Node12&#45;&gt;Node14</title>
<path fill="none" stroke="midnightblue" d="M245.49,-75.15C225.89,-82.08 202.04,-92.2 187.85,-99.95"/>
<polygon fill="midnightblue" stroke="midnightblue" points="246.64,-78.45 255,-71.94 244.4,-71.82 246.64,-78.45"/>
</g>
<!-- Node13&#45;&gt;Node12 -->
<g id="edge21" class="edge">
<title>Node13&#45;&gt;Node12</title>
<path fill="none" stroke="midnightblue" d="M74.62,-67.68C120.02,-71.93 211.65,-74.24 254.68,-72.14"/>
<polygon fill="midnightblue" stroke="midnightblue" points="74.96,-64.2 64.65,-66.63 74.22,-71.16 74.96,-64.2"/>
</g>
<!-- Node13&#45;&gt;Node13 -->
<g id="edge20" class="edge">
<title>Node13&#45;&gt;Node13</title>
<path fill="none" stroke="midnightblue" d="M70.55,-79.01C71.46,-85.29 63.61,-90.48 47,-90.48 23.38,-90.48 17.47,-79.98 29.28,-70.79"/>
<polygon fill="midnightblue" stroke="midnightblue" points="73.36,-76.92 64.72,-70.79 67.65,-80.97 73.36,-76.92"/>
</g>
<!-- Node14&#45;&gt;Node12 -->
<g id="edge26" class="edge">
<title>Node14&#45;&gt;Node12</title>
<path fill="none" stroke="midnightblue" d="M216.61,-99.67C234.11,-93.08 253.25,-84.75 265.43,-78.12"/>
<polygon fill="midnightblue" stroke="midnightblue" points="215.31,-96.41 207.11,-103.12 217.7,-102.99 215.31,-96.41"/>
</g>
<!-- Node14&#45;&gt;Node13 -->
<g id="edge25" class="edge">
<title>Node14&#45;&gt;Node13</title>
<path fill="none" stroke="midnightblue" d="M138.55,-96.39C114.38,-87.34 83.31,-75.7 64.56,-68.68"/>
<polygon fill="midnightblue" stroke="midnightblue" points="137.51,-99.74 148.1,-99.97 139.97,-93.18 137.51,-99.74"/>
</g>
<!-- Node15&#45;&gt;Node3 -->
<g id="edge29" class="edge">
<title>Node15&#45;&gt;Node3</title>
<path fill="none" stroke="midnightblue" d="M472.15,-303.21C482.09,-297.1 485.88,-291.14 500,-287.48 549.48,-274.66 564.53,-279.42 615,-287.48 627.14,-289.42 640.18,-293.5 650.82,-296.55"/>
<polygon fill="midnightblue" stroke="midnightblue" points="470.37,-300.19 463.07,-307.87 473.57,-306.42 470.37,-300.19"/>
</g>
<!-- Node16&#45;&gt;Node8 -->
<g id="edge32" class="edge">
<title>Node16&#45;&gt;Node8</title>
<path fill="none" stroke="midnightblue" d="M246.56,-140.83C229.27,-147.07 208.41,-154.6 193.78,-159.88"/>
<polygon fill="midnightblue" stroke="midnightblue" points="248.04,-144.01 256.26,-137.32 245.67,-137.43 248.04,-144.01"/>
</g>
<!-- Node16&#45;&gt;Node16 -->
<g id="edge31" class="edge">
<title>Node16&#45;&gt;Node16</title>
<path fill="none" stroke="midnightblue" d="M298.26,-148.88C296.97,-153.79 290.55,-157.48 279,-157.48 260.52,-157.48 255.17,-148.04 262.97,-139.23"/>
<polygon fill="midnightblue" stroke="midnightblue" points="301.52,-147.61 295.03,-139.23 294.89,-149.83 301.52,-147.61"/>
</g>
<!-- Node17&#45;&gt;Node17 -->
<g id="edge37" class="edge">
<title>Node17&#45;&gt;Node17</title>
<path fill="none" stroke="midnightblue" d="M424.19,-280.51C422.96,-285.61 415.39,-289.48 401.5,-289.48 379.82,-289.48 373.55,-280.04 382.7,-271.23"/>
<polygon fill="midnightblue" stroke="midnightblue" points="427.4,-279.1 420.3,-271.23 420.94,-281.81 427.4,-279.1"/>
</g>
<!-- Node18 -->
<g id="node18" class="node">
<title>Node18</title>
<g id="a_node18"><a xlink:href="group__grp__conjugate__gradient.html#ga25a3bae2ff2ee0469b045de0d033398b" target="_top" xlink:title="Use preconditioned conjugate gradient method to find minimum of energy functional.">
<polygon fill="white" stroke="black" points="255,-269.98 255,-288.98 303,-288.98 303,-269.98 255,-269.98"/>
<text text-anchor="middle" x="279" y="-276.98" font-family="Helvetica,sans-Serif" font-size="10.00">pc00aa</text>
</a>
</g>
</g>
<!-- Node17&#45;&gt;Node18 -->
<g id="edge35" class="edge">
<title>Node17&#45;&gt;Node18</title>
<path fill="none" stroke="midnightblue" d="M367.16,-266.46C346.81,-269.5 321.31,-273.31 303.16,-276.02"/>
<polygon fill="midnightblue" stroke="midnightblue" points="367.89,-269.89 377.27,-264.95 366.86,-262.96 367.89,-269.89"/>
</g>
<!-- Node18&#45;&gt;Node18 -->
<g id="edge36" class="edge">
<title>Node18&#45;&gt;Node18</title>
<path fill="none" stroke="midnightblue" d="M298.26,-298.88C296.97,-303.79 290.55,-307.48 279,-307.48 260.52,-307.48 255.17,-298.04 262.97,-289.23"/>
<polygon fill="midnightblue" stroke="midnightblue" points="301.52,-297.61 295.03,-289.23 294.89,-299.83 301.52,-297.61"/>
</g>
<!-- Node19&#45;&gt;Node3 -->
<g id="edge41" class="edge">
<title>Node19&#45;&gt;Node3</title>
<path fill="none" stroke="midnightblue" d="M604.45,-326.86C623.55,-320.92 644.4,-313.37 658.03,-307.18"/>
<polygon fill="midnightblue" stroke="midnightblue" points="603.24,-323.57 594.67,-329.8 605.25,-330.27 603.24,-323.57"/>
</g>
<!-- Node20&#45;&gt;Node3 -->
<g id="edge45" class="edge">
<title>Node20&#45;&gt;Node3</title>
<path fill="none" stroke="midnightblue" d="M625.3,-304.14C634.51,-303.98 643.38,-303.58 650.92,-302.94"/>
<polygon fill="midnightblue" stroke="midnightblue" points="625.2,-300.64 615.23,-304.23 625.25,-307.64 625.2,-300.64"/>
</g>
<!-- Node21&#45;&gt;Node21 -->
<g id="edge54" class="edge">
<title>Node21&#45;&gt;Node21</title>
<path fill="none" stroke="midnightblue" d="M1073.6,-280.24C1072.41,-284.97 1067.38,-288.48 1058.5,-288.48 1043.93,-288.48 1039.71,-279.04 1045.86,-270.23"/>
<polygon fill="midnightblue" stroke="midnightblue" points="1076.93,-279.11 1071.14,-270.23 1070.13,-280.78 1076.93,-279.11"/>
</g>
<!-- Node22 -->
<g id="node22" class="node">
<title>Node22</title>
<g id="a_node22"><a xlink:href="group__grp__solver__driver.html#gacad623d4c5c006e9ad10116372f92ad3" target="_top" xlink:title="Constructs Beltrami field in given volume consistent with flux, helicity, rotational&#45;transform and/or...">
<polygon fill="white" stroke="black" points="946,-250.98 946,-269.98 997,-269.98 997,-250.98 946,-250.98"/>
<text text-anchor="middle" x="971.5" y="-257.98" font-family="Helvetica,sans-Serif" font-size="10.00">ma02aa</text>
</a>
</g>
</g>
<!-- Node21&#45;&gt;Node22 -->
<g id="edge48" class="edge">
<title>Node21&#45;&gt;Node22</title>
<path fill="none" stroke="midnightblue" d="M1022.72,-260.48C1014.1,-260.48 1005.04,-260.48 997.03,-260.48"/>
<polygon fill="midnightblue" stroke="midnightblue" points="1022.91,-263.98 1032.91,-260.48 1022.91,-256.98 1022.91,-263.98"/>
</g>
<!-- Node22&#45;&gt;Node22 -->
<g id="edge53" class="edge">
<title>Node22&#45;&gt;Node22</title>
<path fill="none" stroke="midnightblue" d="M986.97,-280.24C985.75,-284.97 980.6,-288.48 971.5,-288.48 956.57,-288.48 952.25,-279.04 958.55,-270.23"/>
<polygon fill="midnightblue" stroke="midnightblue" points="990.28,-279.08 984.45,-270.23 983.5,-280.79 990.28,-279.08"/>
</g>
<!-- Node23 -->
<g id="node23" class="node">
<title>Node23</title>
<g id="a_node23"><a xlink:href="dfp100_8f90.html#a17a3ac15cc83994394f7b4cc05e5898e" target="_top" xlink:title="Split the work between MPI nodes and evaluate the global constraint.">
<polygon fill="white" stroke="black" points="864,-250.98 864,-269.98 910,-269.98 910,-250.98 864,-250.98"/>
<text text-anchor="middle" x="887" y="-257.98" font-family="Helvetica,sans-Serif" font-size="10.00">dfp100</text>
</a>
</g>
</g>
<!-- Node22&#45;&gt;Node23 -->
<g id="edge49" class="edge">
<title>Node22&#45;&gt;Node23</title>
<path fill="none" stroke="midnightblue" d="M935.56,-260.48C926.97,-260.48 918.01,-260.48 910.21,-260.48"/>
<polygon fill="midnightblue" stroke="midnightblue" points="935.75,-263.98 945.75,-260.48 935.75,-256.98 935.75,-263.98"/>
</g>
<!-- Node23&#45;&gt;Node2 -->
<g id="edge52" class="edge">
<title>Node23&#45;&gt;Node2</title>
<path fill="none" stroke="midnightblue" d="M854.19,-271.74C839.58,-276.91 822.42,-282.99 808.45,-287.93"/>
<polygon fill="midnightblue" stroke="midnightblue" points="855.58,-274.96 863.84,-268.32 853.24,-268.36 855.58,-274.96"/>
</g>
<!-- Node23&#45;&gt;Node4 -->
<g id="edge50" class="edge">
<title>Node23&#45;&gt;Node4</title>
<path fill="none" stroke="midnightblue" d="M853.79,-253.1C787.05,-237.82 635.22,-203.05 579.5,-190.29"/>
<polygon fill="midnightblue" stroke="midnightblue" points="853.22,-256.56 863.75,-255.38 854.78,-249.74 853.22,-256.56"/>
</g>
<!-- Node23&#45;&gt;Node23 -->
<g id="edge51" class="edge">
<title>Node23&#45;&gt;Node23</title>
<path fill="none" stroke="midnightblue" d="M902.47,-280.24C901.25,-284.97 896.1,-288.48 887,-288.48 872.07,-288.48 867.75,-279.04 874.05,-270.23"/>
<polygon fill="midnightblue" stroke="midnightblue" points="905.78,-279.08 899.95,-270.23 899,-280.79 905.78,-279.08"/>
</g>
</g>
</svg>
