<?xml version="1.0" encoding="UTF-8" standalone="no"?>
<!DOCTYPE svg PUBLIC "-//W3C//DTD SVG 1.1//EN"
 "http://www.w3.org/Graphics/SVG/1.1/DTD/svg11.dtd">
<!-- Generated by graphviz version 2.44.0 ()
 -->
<!-- Title: ma02aa Pages: 1 -->
<svg width="396pt" height="142pt"
 viewBox="0.00 0.00 396.00 142.00" xmlns="http://www.w3.org/2000/svg" xmlns:xlink="http://www.w3.org/1999/xlink">
<g id="graph0" class="graph" transform="scale(1 1) rotate(0) translate(4 138)">
<title>ma02aa</title>
<polygon fill="white" stroke="transparent" points="-4,4 -4,-138 392,-138 392,4 -4,4"/>
<!-- Node1 -->
<g id="node1" class="node">
<title>Node1</title>
<g id="a_node1"><a xlink:title="Constructs Beltrami field in given volume consistent with flux, helicity, rotational&#45;transform and/or...">
<polygon fill="#bfbfbf" stroke="black" points="0,-57.5 0,-76.5 51,-76.5 51,-57.5 0,-57.5"/>
<text text-anchor="middle" x="25.5" y="-64.5" font-family="Helvetica,sans-Serif" font-size="10.00">ma02aa</text>
</a>
</g>
</g>
<!-- Node2 -->
<g id="node2" class="node">
<title>Node2</title>
<g id="a_node2"><a xlink:href="group__grp__integrals.html#ga6d086e8d1af527def50b653b86e8373a" target="_top" xlink:title="Evaluates volume integrals, and their derivatives w.r.t. interface geometry, using &quot;packed&quot; format.">
<polygon fill="white" stroke="black" points="89.5,-95.5 89.5,-114.5 135.5,-114.5 135.5,-95.5 89.5,-95.5"/>
<text text-anchor="middle" x="112.5" y="-102.5" font-family="Helvetica,sans-Serif" font-size="10.00">df00ab</text>
</a>
</g>
</g>
<!-- Node1&#45;&gt;Node2 -->
<g id="edge1" class="edge">
<title>Node1&#45;&gt;Node2</title>
<path fill="none" stroke="midnightblue" d="M47.95,-76.59C57.92,-81.04 69.95,-86.42 80.85,-91.3"/>
<polygon fill="midnightblue" stroke="midnightblue" points="79.5,-94.53 90.06,-95.41 82.36,-88.14 79.5,-94.53"/>
</g>
<!-- Node3 -->
<g id="node3" class="node">
<title>Node3</title>
<g id="a_node3"><a xlink:href="group__grp__solver.html#ga6626839aff500f060beb5bce2b90c447" target="_top" xlink:title="Solves Beltrami/vacuum (linear) system, given matrices.unpacking fluxes, helicity multiplier">
<polygon fill="white" stroke="black" points="87,-57.5 87,-76.5 138,-76.5 138,-57.5 87,-57.5"/>
<text text-anchor="middle" x="112.5" y="-64.5" font-family="Helvetica,sans-Serif" font-size="10.00">mp00ac</text>
</a>
</g>
</g>
<!-- Node1&#45;&gt;Node3 -->
<g id="edge2" class="edge">
<title>Node1&#45;&gt;Node3</title>
<path fill="none" stroke="midnightblue" d="M51.09,-67C59.1,-67 68.16,-67 76.78,-67"/>
<polygon fill="midnightblue" stroke="midnightblue" points="76.97,-70.5 86.97,-67 76.97,-63.5 76.97,-70.5"/>
</g>
<!-- Node9 -->
<g id="node9" class="node">
<title>Node9</title>
<g id="a_node9"><a xlink:href="group__grp__packing.html#gaee2357e570aebf8559e169def6b619dd" target="_top" xlink:title="Packs and unpacks Beltrami field solution vector.">
<polygon fill="white" stroke="black" points="174,-19.5 174,-38.5 222,-38.5 222,-19.5 174,-19.5"/>
<text text-anchor="middle" x="198" y="-26.5" font-family="Helvetica,sans-Serif" font-size="10.00">packab</text>
</a>
</g>
</g>
<!-- Node1&#45;&gt;Node9 -->
<g id="edge13" class="edge">
<title>Node1&#45;&gt;Node9</title>
<path fill="none" stroke="midnightblue" d="M51.02,-58.48C61.94,-54.9 75.02,-50.9 87,-48 112.41,-41.84 141.59,-36.9 163.51,-33.6"/>
<polygon fill="midnightblue" stroke="midnightblue" points="164.25,-37.03 173.64,-32.11 163.24,-30.1 164.25,-37.03"/>
</g>
<!-- Node4 -->
<g id="node4" class="node">
<title>Node4</title>
<g id="a_node4"><a xlink:href="group__grp__currents.html#gacaf4411e0ba378631dcd2ccb3752e452" target="_top" xlink:title="Computes the plasma current, , and the &quot;linking&quot; current, .">
<polygon fill="white" stroke="black" points="176,-57.5 176,-76.5 220,-76.5 220,-57.5 176,-57.5"/>
<text text-anchor="middle" x="198" y="-64.5" font-family="Helvetica,sans-Serif" font-size="10.00">curent</text>
</a>
</g>
</g>
<!-- Node3&#45;&gt;Node4 -->
<g id="edge3" class="edge">
<title>Node3&#45;&gt;Node4</title>
<path fill="none" stroke="midnightblue" d="M138.1,-67C146.75,-67 156.58,-67 165.7,-67"/>
<polygon fill="midnightblue" stroke="midnightblue" points="165.96,-70.5 175.96,-67 165.96,-63.5 165.96,-70.5"/>
</g>
<!-- Node3&#45;&gt;Node9 -->
<g id="edge10" class="edge">
<title>Node3&#45;&gt;Node9</title>
<path fill="none" stroke="midnightblue" d="M134.57,-57.41C144.26,-53 155.94,-47.69 166.56,-42.85"/>
<polygon fill="midnightblue" stroke="midnightblue" points="168.28,-45.91 175.94,-38.59 165.38,-39.54 168.28,-45.91"/>
</g>
<!-- Node10 -->
<g id="node10" class="node">
<title>Node10</title>
<g id="a_node10"><a xlink:href="group__grp__transform.html#ga0e0447653b8da82f06748dd8831bc337" target="_top" xlink:title="Calculates rotational transform given an arbitrary tangential field.">
<polygon fill="white" stroke="black" points="259,-114.5 259,-133.5 303,-133.5 303,-114.5 259,-114.5"/>
<text text-anchor="middle" x="281" y="-121.5" font-family="Helvetica,sans-Serif" font-size="10.00">tr00ab</text>
</a>
</g>
</g>
<!-- Node3&#45;&gt;Node10 -->
<g id="edge11" class="edge">
<title>Node3&#45;&gt;Node10</title>
<path fill="none" stroke="midnightblue" d="M138.07,-75.41C167.53,-85.5 216.96,-102.42 249.02,-113.39"/>
<polygon fill="midnightblue" stroke="midnightblue" points="248.17,-116.8 258.77,-116.73 250.44,-110.18 248.17,-116.8"/>
</g>
<!-- Node5 -->
<g id="node5" class="node">
<title>Node5</title>
<g id="a_node5"><a xlink:href="group__grp__geometry.html#gaaca20aa60eaf39055f3c9d5c02a24ac2" target="_top" xlink:title="Calculates coordinates, , and metrics, using FFTs.">
<polygon fill="white" stroke="black" points="258,-38.5 258,-57.5 304,-57.5 304,-38.5 258,-38.5"/>
<text text-anchor="middle" x="281" y="-45.5" font-family="Helvetica,sans-Serif" font-size="10.00">coords</text>
</a>
</g>
</g>
<!-- Node4&#45;&gt;Node5 -->
<g id="edge4" class="edge">
<title>Node4&#45;&gt;Node5</title>
<path fill="none" stroke="midnightblue" d="M220.28,-62.01C228.75,-60.02 238.68,-57.69 247.98,-55.51"/>
<polygon fill="midnightblue" stroke="midnightblue" points="248.79,-58.92 257.73,-53.22 247.19,-52.1 248.79,-58.92"/>
</g>
<!-- Node6 -->
<g id="node6" class="node">
<title>Node6</title>
<g id="a_node6"><a xlink:href="group__grp__numerics.html#ga1fd52accb0646f535f9bcc46cf5a68f3" target="_top" xlink:title="Inverse Fourier transform (fftw wrapper)">
<polygon fill="white" stroke="black" points="345,-76.5 345,-95.5 383,-95.5 383,-76.5 345,-76.5"/>
<text text-anchor="middle" x="364" y="-83.5" font-family="Helvetica,sans-Serif" font-size="10.00">invfft</text>
</a>
</g>
</g>
<!-- Node4&#45;&gt;Node6 -->
<g id="edge8" class="edge">
<title>Node4&#45;&gt;Node6</title>
<path fill="none" stroke="midnightblue" d="M220.1,-69.45C249.33,-72.83 302.2,-78.96 334.78,-82.73"/>
<polygon fill="midnightblue" stroke="midnightblue" points="334.66,-86.24 344.99,-83.91 335.46,-79.29 334.66,-86.24"/>
</g>
<!-- Node8 -->
<g id="node8" class="node">
<title>Node8</title>
<g id="a_node8"><a xlink:href="group__grp__numerics.html#ga041138109a57e651c57117bb4180409e" target="_top" xlink:title="Forward Fourier transform (fftw wrapper)">
<polygon fill="white" stroke="black" points="266.5,-0.5 266.5,-19.5 295.5,-19.5 295.5,-0.5 266.5,-0.5"/>
<text text-anchor="middle" x="281" y="-7.5" font-family="Helvetica,sans-Serif" font-size="10.00">tfft</text>
</a>
</g>
</g>
<!-- Node4&#45;&gt;Node8 -->
<g id="edge9" class="edge">
<title>Node4&#45;&gt;Node8</title>
<path fill="none" stroke="midnightblue" d="M212.74,-57.33C225.15,-48.6 243.63,-35.6 258.08,-25.43"/>
<polygon fill="midnightblue" stroke="midnightblue" points="260.3,-28.14 266.46,-19.53 256.27,-22.42 260.3,-28.14"/>
</g>
<!-- Node5&#45;&gt;Node6 -->
<g id="edge5" class="edge">
<title>Node5&#45;&gt;Node6</title>
<path fill="none" stroke="midnightblue" d="M302.44,-57.59C312.52,-62.32 324.81,-68.08 335.68,-73.18"/>
<polygon fill="midnightblue" stroke="midnightblue" points="334.24,-76.37 344.78,-77.45 337.21,-70.04 334.24,-76.37"/>
</g>
<!-- Node7 -->
<g id="node7" class="node">
<title>Node7</title>
<g id="a_node7"><a xlink:href="group__grp__volume.html#gae4c62d20b8fef07f4471b5b0889ab005" target="_top" xlink:title="Computes volume of each region; and, if required, the derivatives of the volume with respect to the i...">
<polygon fill="white" stroke="black" points="340,-38.5 340,-57.5 388,-57.5 388,-38.5 340,-38.5"/>
<text text-anchor="middle" x="364" y="-45.5" font-family="Helvetica,sans-Serif" font-size="10.00">volume</text>
</a>
</g>
</g>
<!-- Node5&#45;&gt;Node7 -->
<g id="edge6" class="edge">
<title>Node5&#45;&gt;Node7</title>
<path fill="none" stroke="midnightblue" d="M304.13,-41.91C311.99,-41.3 321.02,-41.12 329.61,-41.34"/>
<polygon fill="midnightblue" stroke="midnightblue" points="329.61,-44.85 339.76,-41.83 329.94,-37.85 329.61,-44.85"/>
</g>
<!-- Node7&#45;&gt;Node5 -->
<g id="edge7" class="edge">
<title>Node7&#45;&gt;Node5</title>
<path fill="none" stroke="midnightblue" d="M339.76,-54.17C331.8,-54.74 322.74,-54.89 314.19,-54.62"/>
<polygon fill="midnightblue" stroke="midnightblue" points="314.3,-51.12 304.13,-54.09 313.94,-58.11 314.3,-51.12"/>
</g>
<!-- Node10&#45;&gt;Node6 -->
<g id="edge12" class="edge">
<title>Node10&#45;&gt;Node6</title>
<path fill="none" stroke="midnightblue" d="M302.44,-114.41C312.52,-109.68 324.81,-103.92 335.68,-98.82"/>
<polygon fill="midnightblue" stroke="midnightblue" points="337.21,-101.96 344.78,-94.55 334.24,-95.63 337.21,-101.96"/>
</g>
</g>
</svg>
