<?xml version="1.0" encoding="UTF-8" standalone="no"?>
<!DOCTYPE svg PUBLIC "-//W3C//DTD SVG 1.1//EN"
 "http://www.w3.org/Graphics/SVG/1.1/DTD/svg11.dtd">
<!-- Generated by graphviz version 2.49.3 (20211027.1534)
 -->
<!-- Title: lforce Pages: 1 -->
<svg width="278pt" height="114pt"
 viewBox="0.00 0.00 278.36 113.50" xmlns="http://www.w3.org/2000/svg" xmlns:xlink="http://www.w3.org/1999/xlink">
<g id="graph0" class="graph" transform="scale(1 1) rotate(0) translate(4 109.5)">
<title>lforce</title>
<polygon fill="white" stroke="transparent" points="-4,4 -4,-109.5 274.36,-109.5 274.36,4 -4,4"/>
<!-- Node1 -->
<g id="node1" class="node">
<title>Node1</title>
<g id="a_node1"><a xlink:title="Computes , and the spectral condensation constraints if required, on the interfaces,...">
<polygon fill="#bfbfbf" stroke="black" points="0.36,-31.5 0.36,-50.5 41.36,-50.5 41.36,-31.5 0.36,-31.5"/>
<text text-anchor="middle" x="20.86" y="-38.5" font-family="Helvetica,sans-Serif" font-size="10.00">lforce</text>
</a>
</g>
</g>
<!-- Node1&#45;&gt;Node1 -->
<g id="edge8" class="edge">
<title>Node1&#45;&gt;Node1</title>
<path fill="none" stroke="midnightblue" d="M3.9,-50.76C-4.34,-59.57 1.31,-69 20.86,-69 33.08,-69 39.87,-65.31 41.23,-60.4"/>
<polygon fill="midnightblue" stroke="midnightblue" points="44.45,-59.01 37.81,-50.76 37.85,-61.35 44.45,-59.01"/>
</g>
<!-- Node2 -->
<g id="node2" class="node">
<title>Node2</title>
<g id="a_node2"><a xlink:href="namespaceallglobal.html#af3f23b45db519a643eea14b410e6d428" target="_top" xlink:title=" ">
<polygon fill="white" stroke="black" points="77.36,-57 77.36,-87 186.36,-87 186.36,-57 77.36,-57"/>
<text text-anchor="start" x="85.36" y="-75" font-family="Helvetica,sans-Serif" font-size="10.00">allglobal::build_vector</text>
<text text-anchor="middle" x="131.86" y="-64" font-family="Helvetica,sans-Serif" font-size="10.00">_potential</text>
</a>
</g>
</g>
<!-- Node1&#45;&gt;Node2 -->
<g id="edge1" class="edge">
<title>Node1&#45;&gt;Node2</title>
<path fill="none" stroke="midnightblue" d="M41.6,-46.61C49.33,-48.81 58.66,-51.47 68.34,-54.22"/>
<polygon fill="midnightblue" stroke="midnightblue" points="67.5,-57.62 78.08,-56.99 69.42,-50.89 67.5,-57.62"/>
</g>
<!-- Node3 -->
<g id="node3" class="node">
<title>Node3</title>
<g id="a_node3"><a xlink:href="group__grp__geometry.html#gaaca20aa60eaf39055f3c9d5c02a24ac2" target="_top" xlink:title="Calculates coordinates, , and metrics, using FFTs.">
<polygon fill="white" stroke="black" points="108.86,-0.5 108.86,-19.5 154.86,-19.5 154.86,-0.5 108.86,-0.5"/>
<text text-anchor="middle" x="131.86" y="-7.5" font-family="Helvetica,sans-Serif" font-size="10.00">coords</text>
</a>
</g>
</g>
<!-- Node1&#45;&gt;Node3 -->
<g id="edge3" class="edge">
<title>Node1&#45;&gt;Node3</title>
<path fill="none" stroke="midnightblue" d="M41.6,-35.39C57.54,-30.85 80.3,-24.38 98.84,-19.11"/>
<polygon fill="midnightblue" stroke="midnightblue" points="99.98,-22.42 108.64,-16.32 98.06,-15.69 99.98,-22.42"/>
</g>
<!-- Node2&#45;&gt;Node2 -->
<g id="edge2" class="edge">
<title>Node2&#45;&gt;Node2</title>
<path fill="none" stroke="midnightblue" d="M112.69,-87.16C108.07,-96.56 114.46,-105.5 131.86,-105.5 142.46,-105.5 148.98,-102.18 151.4,-97.46"/>
<polygon fill="midnightblue" stroke="midnightblue" points="154.89,-97.02 151.03,-87.16 147.9,-97.28 154.89,-97.02"/>
</g>
<!-- Node3&#45;&gt;Node3 -->
<g id="edge4" class="edge">
<title>Node3&#45;&gt;Node3</title>
<path fill="none" stroke="midnightblue" d="M114.9,-19.76C106.66,-28.57 112.31,-38 131.86,-38 144.08,-38 150.87,-34.31 152.23,-29.4"/>
<polygon fill="midnightblue" stroke="midnightblue" points="155.45,-28.01 148.81,-19.76 148.85,-30.35 155.45,-28.01"/>
</g>
<!-- Node4 -->
<g id="node4" class="node">
<title>Node4</title>
<g id="a_node4"><a xlink:href="group__grp__volume.html#gae4c62d20b8fef07f4471b5b0889ab005" target="_top" xlink:title="Computes volume of each region; and, if required, the derivatives of the volume with respect to the i...">
<polygon fill="white" stroke="black" points="222.36,-0.5 222.36,-19.5 270.36,-19.5 270.36,-0.5 222.36,-0.5"/>
<text text-anchor="middle" x="246.36" y="-7.5" font-family="Helvetica,sans-Serif" font-size="10.00">volume</text>
</a>
</g>
</g>
<!-- Node3&#45;&gt;Node4 -->
<g id="edge5" class="edge">
<title>Node3&#45;&gt;Node4</title>
<path fill="none" stroke="midnightblue" d="M155.09,-4.5C171.33,-3.13 193.63,-2.89 212,-3.77"/>
<polygon fill="midnightblue" stroke="midnightblue" points="211.82,-7.27 222.02,-4.4 212.26,-0.28 211.82,-7.27"/>
</g>
<!-- Node4&#45;&gt;Node3 -->
<g id="edge6" class="edge">
<title>Node4&#45;&gt;Node3</title>
<path fill="none" stroke="midnightblue" d="M222.02,-15.6C205.58,-16.91 183.37,-17.1 165.22,-16.18"/>
<polygon fill="midnightblue" stroke="midnightblue" points="165.3,-12.67 155.09,-15.5 164.83,-19.66 165.3,-12.67"/>
</g>
<!-- Node4&#45;&gt;Node4 -->
<g id="edge7" class="edge">
<title>Node4&#45;&gt;Node4</title>
<path fill="none" stroke="midnightblue" d="M228.79,-19.76C220.24,-28.57 226.1,-38 246.36,-38 259.02,-38 266.06,-34.31 267.47,-29.4"/>
<polygon fill="midnightblue" stroke="midnightblue" points="270.66,-27.94 263.93,-19.76 264.09,-30.35 270.66,-27.94"/>
</g>
</g>
</svg>
