<?xml version="1.0" encoding="UTF-8" standalone="no"?>
<!DOCTYPE svg PUBLIC "-//W3C//DTD SVG 1.1//EN"
 "http://www.w3.org/Graphics/SVG/1.1/DTD/svg11.dtd">
<!-- Generated by graphviz version 2.49.3 (20211027.1534)
 -->
<!-- Title: surfacecurrent Pages: 1 -->
<svg width="1171pt" height="509pt"
 viewBox="0.00 0.00 1171.36 509.00" xmlns="http://www.w3.org/2000/svg" xmlns:xlink="http://www.w3.org/1999/xlink">
<g id="graph0" class="graph" transform="scale(1 1) rotate(0) translate(4 505)">
<title>surfacecurrent</title>
<polygon fill="white" stroke="transparent" points="-4,4 -4,-505 1167.36,-505 1167.36,4 -4,4"/>
<!-- Node1 -->
<g id="node1" class="node">
<title>Node1</title>
<g id="a_node1"><a xlink:title="Compute the position and surface current on the plasma boundary for the virtual casingCalculation of ...">
<polygon fill="#bfbfbf" stroke="black" points="1084.36,-425.5 1084.36,-444.5 1163.36,-444.5 1163.36,-425.5 1084.36,-425.5"/>
<text text-anchor="middle" x="1123.86" y="-432.5" font-family="Helvetica,sans-Serif" font-size="10.00">surfacecurrent</text>
</a>
</g>
</g>
<!-- Node2 -->
<g id="node2" class="node">
<title>Node2</title>
<g id="a_node2"><a xlink:href="group__grp__free-boundary.html#gac0a2cc2241947b27241bb8ef75c5e0ed" target="_top" xlink:title="Computes &#160;on the computational boundary, .">
<polygon fill="white" stroke="black" points="835.36,-463.5 835.36,-482.5 881.36,-482.5 881.36,-463.5 835.36,-463.5"/>
<text text-anchor="middle" x="858.36" y="-470.5" font-family="Helvetica,sans-Serif" font-size="10.00">bnorml</text>
</a>
</g>
</g>
<!-- Node1&#45;&gt;Node2 -->
<g id="edge1" class="edge">
<title>Node1&#45;&gt;Node2</title>
<path fill="none" stroke="midnightblue" d="M1079.76,-447.12C1069.53,-449.69 1058.61,-452.17 1048.36,-454 988.63,-464.68 917.12,-469.83 881.63,-471.87"/>
<polygon fill="midnightblue" stroke="midnightblue" points="1080.9,-450.44 1089.71,-444.56 1079.15,-443.67 1080.9,-450.44"/>
</g>
<!-- Node23 -->
<g id="node23" class="node">
<title>Node23</title>
<g id="a_node23"><a xlink:href="group__grp__free-boundary.html#ga281c12a5de84fddd3db4383b0df8627f" target="_top" xlink:title="Differential virtual casing integrand.">
<polygon fill="white" stroke="black" points="998.36,-425.5 998.36,-444.5 1048.36,-444.5 1048.36,-425.5 998.36,-425.5"/>
<text text-anchor="middle" x="1023.36" y="-432.5" font-family="Helvetica,sans-Serif" font-size="10.00">dvcfield</text>
</a>
</g>
</g>
<!-- Node1&#45;&gt;Node23 -->
<g id="edge53" class="edge">
<title>Node1&#45;&gt;Node23</title>
<path fill="none" stroke="midnightblue" d="M1074.17,-435C1065.21,-435 1056.23,-435 1048.41,-435"/>
<polygon fill="midnightblue" stroke="midnightblue" points="1074.21,-438.5 1084.21,-435 1074.21,-431.5 1074.21,-438.5"/>
</g>
<!-- Node2&#45;&gt;Node2 -->
<g id="edge2" class="edge">
<title>Node2&#45;&gt;Node2</title>
<path fill="none" stroke="midnightblue" d="M873.09,-492.77C871.93,-497.5 867.02,-501 858.36,-501 844.14,-501 840.03,-491.57 846.03,-482.76"/>
<polygon fill="midnightblue" stroke="midnightblue" points="876.43,-491.66 870.69,-482.76 869.62,-493.3 876.43,-491.66"/>
</g>
<!-- Node3 -->
<g id="node3" class="node">
<title>Node3</title>
<g id="a_node3"><a xlink:href="group__grp__initialization.html#ga28628de0fdb3b3497668007d8d0643bd" target="_top" xlink:title="Allocates and initializes internal arrays.">
<polygon fill="white" stroke="black" points="755.36,-416.5 755.36,-435.5 799.36,-435.5 799.36,-416.5 755.36,-416.5"/>
<text text-anchor="middle" x="777.36" y="-423.5" font-family="Helvetica,sans-Serif" font-size="10.00">preset</text>
</a>
</g>
</g>
<!-- Node2&#45;&gt;Node3 -->
<g id="edge3" class="edge">
<title>Node2&#45;&gt;Node3</title>
<path fill="none" stroke="midnightblue" d="M832.45,-458.18C820.08,-450.82 805.5,-442.15 794.59,-435.66"/>
<polygon fill="midnightblue" stroke="midnightblue" points="830.99,-461.38 841.37,-463.49 834.57,-455.37 830.99,-461.38"/>
</g>
<!-- Node5 -->
<g id="node5" class="node">
<title>Node5</title>
<g id="a_node5"><a xlink:href="xspech_8f90.html#a48f45478dc2c9f70ea8aa1c60ad06503" target="_top" xlink:title="This is the main &quot;driver&quot; for the physics part of SPEC.">
<polygon fill="white" stroke="black" points="600.36,-349.5 600.36,-368.5 638.36,-368.5 638.36,-349.5 600.36,-349.5"/>
<text text-anchor="middle" x="619.36" y="-356.5" font-family="Helvetica,sans-Serif" font-size="10.00">spec</text>
</a>
</g>
</g>
<!-- Node2&#45;&gt;Node5 -->
<g id="edge52" class="edge">
<title>Node2&#45;&gt;Node5</title>
<path fill="none" stroke="midnightblue" d="M824.91,-474.33C804.31,-474.1 777.48,-471.76 755.36,-463 700.34,-441.21 648.89,-389.99 629.01,-368.62"/>
<polygon fill="midnightblue" stroke="midnightblue" points="825.06,-477.83 835.05,-474.28 825.03,-470.83 825.06,-477.83"/>
</g>
<!-- Node3&#45;&gt;Node3 -->
<g id="edge50" class="edge">
<title>Node3&#45;&gt;Node3</title>
<path fill="none" stroke="midnightblue" d="M792.09,-445.77C790.93,-450.5 786.02,-454 777.36,-454 763.14,-454 759.03,-444.57 765.03,-435.76"/>
<polygon fill="midnightblue" stroke="midnightblue" points="795.43,-444.66 789.69,-435.76 788.62,-446.3 795.43,-444.66"/>
</g>
<!-- Node4 -->
<g id="node4" class="node">
<title>Node4</title>
<g id="a_node4"><a xlink:href="group__grp__output.html#ga7401b50ec10c6598ee4a8112717a63ec" target="_top" xlink:title="Computes eigenvalues and eigenvectors of derivative matrix, .">
<polygon fill="white" stroke="black" points="674.36,-349.5 674.36,-368.5 719.36,-368.5 719.36,-349.5 674.36,-349.5"/>
<text text-anchor="middle" x="696.86" y="-356.5" font-family="Helvetica,sans-Serif" font-size="10.00">hesian</text>
</a>
</g>
</g>
<!-- Node3&#45;&gt;Node4 -->
<g id="edge4" class="edge">
<title>Node3&#45;&gt;Node4</title>
<path fill="none" stroke="midnightblue" d="M757.38,-409.8C742.28,-396.91 721.67,-379.32 709.08,-368.58"/>
<polygon fill="midnightblue" stroke="midnightblue" points="755.23,-412.57 765.11,-416.4 759.78,-407.25 755.23,-412.57"/>
</g>
<!-- Node8 -->
<g id="node8" class="node">
<title>Node8</title>
<g id="a_node8"><a xlink:href="xspech_8f90.html#a9fdc71dffd7c61ee4588a3f80d3ab9ce" target="_top" xlink:title="Main subroutine of SPEC.">
<polygon fill="white" stroke="black" points="225.86,-349.5 225.86,-368.5 272.86,-368.5 272.86,-349.5 225.86,-349.5"/>
<text text-anchor="middle" x="249.36" y="-356.5" font-family="Helvetica,sans-Serif" font-size="10.00">xspech</text>
</a>
</g>
</g>
<!-- Node3&#45;&gt;Node8 -->
<g id="edge51" class="edge">
<title>Node3&#45;&gt;Node8</title>
<path fill="none" stroke="midnightblue" d="M745.36,-431.7C713.96,-436.98 663.96,-444 620.36,-444 620.36,-444 620.36,-444 516.36,-444 422.82,-444 394.49,-444.75 309.36,-406 289.33,-396.89 270.18,-379.49 259.38,-368.61"/>
<polygon fill="midnightblue" stroke="midnightblue" points="745.99,-435.14 755.25,-429.99 744.8,-428.25 745.99,-435.14"/>
</g>
<!-- Node4&#45;&gt;Node4 -->
<g id="edge5" class="edge">
<title>Node4&#45;&gt;Node4</title>
<path fill="none" stroke="midnightblue" d="M710.85,-378.77C709.76,-383.5 705.09,-387 696.86,-387 683.35,-387 679.45,-377.57 685.14,-368.76"/>
<polygon fill="midnightblue" stroke="midnightblue" points="714.21,-377.73 708.57,-368.76 707.38,-379.28 714.21,-377.73"/>
</g>
<!-- Node4&#45;&gt;Node5 -->
<g id="edge6" class="edge">
<title>Node4&#45;&gt;Node5</title>
<path fill="none" stroke="midnightblue" d="M663.91,-359C655.35,-359 646.38,-359 638.83,-359"/>
<polygon fill="midnightblue" stroke="midnightblue" points="664.02,-362.5 674.02,-359 664.02,-355.5 664.02,-362.5"/>
</g>
<!-- Node6 -->
<g id="node6" class="node">
<title>Node6</title>
<g id="a_node6"><a xlink:href="group__grp__global__force.html#ga38c9d3c50bd043707fefa5137c9dbf44" target="_top" xlink:title="Calculates , where &#160;and , and .">
<polygon fill="white" stroke="black" points="495.36,-170.5 495.36,-189.5 539.36,-189.5 539.36,-170.5 495.36,-170.5"/>
<text text-anchor="middle" x="517.36" y="-177.5" font-family="Helvetica,sans-Serif" font-size="10.00">dforce</text>
</a>
</g>
</g>
<!-- Node5&#45;&gt;Node6 -->
<g id="edge7" class="edge">
<title>Node5&#45;&gt;Node6</title>
<path fill="none" stroke="midnightblue" d="M615,-339.34C608.42,-309.47 592.01,-253.14 564.36,-213 557.61,-203.2 548.17,-194.07 539.59,-187.56"/>
<polygon fill="midnightblue" stroke="midnightblue" points="611.63,-340.29 617.05,-349.4 618.49,-338.9 611.63,-340.29"/>
</g>
<!-- Node5&#45;&gt;Node8 -->
<g id="edge49" class="edge">
<title>Node5&#45;&gt;Node8</title>
<path fill="none" stroke="midnightblue" d="M589.76,-355.17C519.14,-351.16 337.56,-351.28 273.31,-355.52"/>
<polygon fill="midnightblue" stroke="midnightblue" points="589.9,-358.69 600.11,-355.85 590.36,-351.7 589.9,-358.69"/>
</g>
<!-- Node22 -->
<g id="node22" class="node">
<title>Node22</title>
<g id="a_node22"><a xlink:href="group__grp__output.html#ga0f962c09cd5d5eba99f1cba043cb3898" target="_top" xlink:title="Initialize the interface to the HDF5 library and open the output file.">
<polygon fill="white" stroke="black" points="470.36,-396.5 470.36,-415.5 564.36,-415.5 564.36,-396.5 470.36,-396.5"/>
<text text-anchor="middle" x="517.36" y="-403.5" font-family="Helvetica,sans-Serif" font-size="10.00">sphdf5::init_outfile</text>
</a>
</g>
</g>
<!-- Node5&#45;&gt;Node22 -->
<g id="edge47" class="edge">
<title>Node5&#45;&gt;Node22</title>
<path fill="none" stroke="midnightblue" d="M590.84,-371.93C574.33,-379.69 553.68,-389.4 538.65,-396.46"/>
<polygon fill="midnightblue" stroke="midnightblue" points="592.46,-375.04 600.02,-367.62 589.48,-368.71 592.46,-375.04"/>
</g>
<!-- Node6&#45;&gt;Node4 -->
<g id="edge40" class="edge">
<title>Node6&#45;&gt;Node4</title>
<path fill="none" stroke="midnightblue" d="M537.04,-196.55C545.5,-204.18 555.56,-213.42 564.36,-222 612.03,-268.5 666.35,-326.92 687.14,-349.49"/>
<polygon fill="midnightblue" stroke="midnightblue" points="539.3,-193.87 529.51,-189.81 534.63,-199.09 539.3,-193.87"/>
</g>
<!-- Node6&#45;&gt;Node5 -->
<g id="edge46" class="edge">
<title>Node6&#45;&gt;Node5</title>
<path fill="none" stroke="midnightblue" d="M531.42,-196.58C541.56,-206.04 555.36,-217.93 564.36,-231 591.77,-270.79 608.14,-326.5 614.83,-349.32"/>
<polygon fill="midnightblue" stroke="midnightblue" points="533.83,-194.04 524.24,-189.54 528.93,-199.04 533.83,-194.04"/>
</g>
<!-- Node6&#45;&gt;Node6 -->
<g id="edge15" class="edge">
<title>Node6&#45;&gt;Node6</title>
<path fill="none" stroke="midnightblue" d="M536.25,-199.4C534.99,-204.31 528.69,-208 517.36,-208 499.23,-208 493.99,-198.57 501.64,-189.76"/>
<polygon fill="midnightblue" stroke="midnightblue" points="539.53,-198.17 533.08,-189.76 532.87,-200.35 539.53,-198.17"/>
</g>
<!-- Node7 -->
<g id="node7" class="node">
<title>Node7</title>
<g id="a_node7"><a xlink:href="namespaceallglobal.html#a7824bc37519fe88336534ce90ab2af16" target="_top" xlink:title=" ">
<polygon fill="white" stroke="black" points="314.86,-302.5 314.86,-321.5 428.86,-321.5 428.86,-302.5 314.86,-302.5"/>
<text text-anchor="middle" x="371.86" y="-309.5" font-family="Helvetica,sans-Serif" font-size="10.00">allglobal::check_inputs</text>
</a>
</g>
</g>
<!-- Node6&#45;&gt;Node7 -->
<g id="edge8" class="edge">
<title>Node6&#45;&gt;Node7</title>
<path fill="none" stroke="midnightblue" d="M506.4,-198.85C492.96,-222.65 466.91,-263.42 434.36,-288 426.31,-294.08 416.53,-298.81 407.15,-302.41"/>
<polygon fill="midnightblue" stroke="midnightblue" points="509.63,-200.24 511.37,-189.79 503.49,-196.88 509.63,-200.24"/>
</g>
<!-- Node11 -->
<g id="node11" class="node">
<title>Node11</title>
<g id="a_node11"><a xlink:href="group__grp__force__driver.html#gabbc245b3884ee8d8d3e2a52f25149f78" target="_top" xlink:title="Objective to be given to the Newton solver, using only function values.">
<polygon fill="white" stroke="black" points="354.36,-132.5 354.36,-151.5 389.36,-151.5 389.36,-132.5 354.36,-132.5"/>
<text text-anchor="middle" x="371.86" y="-139.5" font-family="Helvetica,sans-Serif" font-size="10.00">fcn1</text>
</a>
</g>
</g>
<!-- Node6&#45;&gt;Node11 -->
<g id="edge16" class="edge">
<title>Node6&#45;&gt;Node11</title>
<path fill="none" stroke="midnightblue" d="M485.43,-171.81C456.08,-164.04 413.09,-152.65 389.64,-146.44"/>
<polygon fill="midnightblue" stroke="midnightblue" points="484.62,-175.22 495.18,-174.39 486.41,-168.45 484.62,-175.22"/>
</g>
<!-- Node12 -->
<g id="node12" class="node">
<title>Node12</title>
<g id="a_node12"><a xlink:href="group__grp__force__driver.html#gaec14f81fbdbedafbc4189489ec8ae178" target="_top" xlink:title="Employs Newton method to find , where &#160;and &#160;is defined in dforce() .">
<polygon fill="white" stroke="black" points="225.36,-179.5 225.36,-198.5 273.36,-198.5 273.36,-179.5 225.36,-179.5"/>
<text text-anchor="middle" x="249.36" y="-186.5" font-family="Helvetica,sans-Serif" font-size="10.00">newton</text>
</a>
</g>
</g>
<!-- Node6&#45;&gt;Node12 -->
<g id="edge41" class="edge">
<title>Node6&#45;&gt;Node12</title>
<path fill="none" stroke="midnightblue" d="M485.01,-181.06C430.98,-182.89 321.54,-186.59 273.66,-188.21"/>
<polygon fill="midnightblue" stroke="midnightblue" points="485.16,-184.56 495.04,-180.72 484.93,-177.56 485.16,-184.56"/>
</g>
<!-- Node13 -->
<g id="node13" class="node">
<title>Node13</title>
<g id="a_node13"><a xlink:href="group__grp__force__driver.html#ga8ccd6c7d901872702521d0a0edf95412" target="_top" xlink:title="Objective to be given to the Newton solver, using function values and derivatives.">
<polygon fill="white" stroke="black" points="3.36,-217.5 3.36,-236.5 38.36,-236.5 38.36,-217.5 3.36,-217.5"/>
<text text-anchor="middle" x="20.86" y="-224.5" font-family="Helvetica,sans-Serif" font-size="10.00">fcn2</text>
</a>
</g>
</g>
<!-- Node6&#45;&gt;Node13 -->
<g id="edge28" class="edge">
<title>Node6&#45;&gt;Node13</title>
<path fill="none" stroke="midnightblue" d="M485.23,-187.69C469.95,-191.34 451.24,-195.63 434.36,-199 276.79,-230.44 234.85,-239.63 74.36,-232 62.29,-231.43 48.71,-230.12 38.38,-228.98"/>
<polygon fill="midnightblue" stroke="midnightblue" points="486.3,-191.03 495.2,-185.28 484.66,-184.23 486.3,-191.03"/>
</g>
<!-- Node15 -->
<g id="node15" class="node">
<title>Node15</title>
<g id="a_node15"><a xlink:href="dfp200_8f90.html#a6aca59cf350d7b1941f8389d50945a43" target="_top" xlink:title="get LU Beltrami matrices">
<polygon fill="white" stroke="black" points="309.36,-94.5 309.36,-113.5 434.36,-113.5 434.36,-94.5 309.36,-94.5"/>
<text text-anchor="middle" x="371.86" y="-101.5" font-family="Helvetica,sans-Serif" font-size="10.00">get_lu_beltrami_matrices</text>
</a>
</g>
</g>
<!-- Node6&#45;&gt;Node15 -->
<g id="edge29" class="edge">
<title>Node6&#45;&gt;Node15</title>
<path fill="none" stroke="midnightblue" d="M497.09,-164.04C481.12,-151.46 457.37,-134.22 434.36,-123 426.82,-119.33 418.43,-116.18 410.32,-113.56"/>
<polygon fill="midnightblue" stroke="midnightblue" points="495.13,-166.95 505.12,-170.48 499.51,-161.49 495.13,-166.95"/>
</g>
<!-- Node20 -->
<g id="node20" class="node">
<title>Node20</title>
<g id="a_node20"><a xlink:href="group__grp__conjugate__gradient.html#ga4d8415226e62a9fdb42b0fd0b464251e" target="_top" xlink:title="Returns the energy functional and it&#39;s derivatives with respect to geometry.">
<polygon fill="white" stroke="black" points="347.86,-0.5 347.86,-19.5 395.86,-19.5 395.86,-0.5 347.86,-0.5"/>
<text text-anchor="middle" x="371.86" y="-7.5" font-family="Helvetica,sans-Serif" font-size="10.00">pc00ab</text>
</a>
</g>
</g>
<!-- Node6&#45;&gt;Node20 -->
<g id="edge42" class="edge">
<title>Node6&#45;&gt;Node20</title>
<path fill="none" stroke="midnightblue" d="M507.35,-161.13C494.04,-134.6 467.14,-85.76 434.36,-52 421.48,-38.74 403.8,-27.18 390.7,-19.57"/>
<polygon fill="midnightblue" stroke="midnightblue" points="504.36,-162.99 511.91,-170.42 510.65,-159.9 504.36,-162.99"/>
</g>
<!-- Node7&#45;&gt;Node8 -->
<g id="edge9" class="edge">
<title>Node7&#45;&gt;Node8</title>
<path fill="none" stroke="midnightblue" d="M336.91,-325.24C316.5,-333.2 291.07,-343.12 273.08,-350.14"/>
<polygon fill="midnightblue" stroke="midnightblue" points="338.43,-328.41 346.47,-321.51 335.89,-321.88 338.43,-328.41"/>
</g>
<!-- Node8&#45;&gt;Node5 -->
<g id="edge12" class="edge">
<title>Node8&#45;&gt;Node5</title>
<path fill="none" stroke="midnightblue" d="M283.66,-363.08C359.25,-366.93 541.78,-366.62 600.11,-362.15"/>
<polygon fill="midnightblue" stroke="midnightblue" points="283.49,-359.56 273.31,-362.48 283.09,-366.55 283.49,-359.56"/>
</g>
<!-- Node8&#45;&gt;Node8 -->
<g id="edge14" class="edge">
<title>Node8&#45;&gt;Node8</title>
<path fill="none" stroke="midnightblue" d="M270.84,-378.4C269.4,-383.31 262.24,-387 249.36,-387 228.74,-387 222.78,-377.57 231.48,-368.76"/>
<polygon fill="midnightblue" stroke="midnightblue" points="274.02,-376.9 267.24,-368.76 267.46,-379.35 274.02,-376.9"/>
</g>
<!-- Node9 -->
<g id="node9" class="node">
<title>Node9</title>
<g id="a_node9"><a xlink:href="xspech_8f90.html#a1451823a7b97101a797de616250752c1" target="_top" xlink:title="Final diagnostics.">
<polygon fill="white" stroke="black" points="87.36,-349.5 87.36,-368.5 176.36,-368.5 176.36,-349.5 87.36,-349.5"/>
<text text-anchor="middle" x="131.86" y="-356.5" font-family="Helvetica,sans-Serif" font-size="10.00">final_diagnostics</text>
</a>
</g>
</g>
<!-- Node8&#45;&gt;Node9 -->
<g id="edge10" class="edge">
<title>Node8&#45;&gt;Node9</title>
<path fill="none" stroke="midnightblue" d="M215.65,-352.85C203.45,-352.23 189.41,-352.09 176.39,-352.44"/>
<polygon fill="midnightblue" stroke="midnightblue" points="215.61,-356.35 225.81,-353.52 216.07,-349.37 215.61,-356.35"/>
</g>
<!-- Node10 -->
<g id="node10" class="node">
<title>Node10</title>
<g id="a_node10"><a xlink:href="xspech_8f90.html#a95271e8805067f801b5d4e524d6901d4" target="_top" xlink:title="Main program of SPEC.">
<polygon fill="white" stroke="black" points="99.86,-311.5 99.86,-330.5 163.86,-330.5 163.86,-311.5 99.86,-311.5"/>
<text text-anchor="middle" x="131.86" y="-318.5" font-family="Helvetica,sans-Serif" font-size="10.00">spec_main</text>
</a>
</g>
</g>
<!-- Node8&#45;&gt;Node10 -->
<g id="edge13" class="edge">
<title>Node8&#45;&gt;Node10</title>
<path fill="none" stroke="midnightblue" d="M216.28,-348.45C199.25,-342.84 178.48,-336.01 161.92,-330.56"/>
<polygon fill="midnightblue" stroke="midnightblue" points="215.22,-351.78 225.81,-351.58 217.41,-345.13 215.22,-351.78"/>
</g>
<!-- Node9&#45;&gt;Node8 -->
<g id="edge11" class="edge">
<title>Node9&#45;&gt;Node8</title>
<path fill="none" stroke="midnightblue" d="M186.4,-365.73C200.29,-365.84 214.51,-365.42 225.81,-364.48"/>
<polygon fill="midnightblue" stroke="midnightblue" points="186.45,-362.23 176.39,-365.56 186.33,-369.23 186.45,-362.23"/>
</g>
<!-- Node11&#45;&gt;Node11 -->
<g id="edge17" class="edge">
<title>Node11&#45;&gt;Node11</title>
<path fill="none" stroke="midnightblue" d="M394.72,-159.14C395.04,-165.14 387.42,-170 371.86,-170 349.22,-170 343.39,-159.72 354.35,-150.6"/>
<polygon fill="midnightblue" stroke="midnightblue" points="397.65,-157.21 389.37,-150.6 391.72,-160.93 397.65,-157.21"/>
</g>
<!-- Node11&#45;&gt;Node12 -->
<g id="edge18" class="edge">
<title>Node11&#45;&gt;Node12</title>
<path fill="none" stroke="midnightblue" d="M344.51,-146.58C319.54,-154.57 283.04,-169.23 263.64,-179.4"/>
<polygon fill="midnightblue" stroke="midnightblue" points="345.54,-149.93 354.1,-143.69 343.52,-143.23 345.54,-149.93"/>
</g>
<!-- Node12&#45;&gt;Node5 -->
<g id="edge24" class="edge">
<title>Node12&#45;&gt;Node5</title>
<path fill="none" stroke="midnightblue" d="M280.11,-202.74C353.38,-236.59 540.84,-323.19 600.11,-350.57"/>
<polygon fill="midnightblue" stroke="midnightblue" points="281.5,-199.53 270.96,-198.52 278.57,-205.89 281.5,-199.53"/>
</g>
<!-- Node12&#45;&gt;Node11 -->
<g id="edge19" class="edge">
<title>Node12&#45;&gt;Node11</title>
<path fill="none" stroke="midnightblue" d="M283.29,-182.25C307.71,-173.98 339.73,-160.94 357.5,-151.64"/>
<polygon fill="midnightblue" stroke="midnightblue" points="282.11,-178.95 273.68,-185.37 284.28,-185.61 282.11,-178.95"/>
</g>
<!-- Node12&#45;&gt;Node12 -->
<g id="edge23" class="edge">
<title>Node12&#45;&gt;Node12</title>
<path fill="none" stroke="midnightblue" d="M270.84,-208.4C269.4,-213.31 262.24,-217 249.36,-217 228.74,-217 222.78,-207.57 231.48,-198.76"/>
<polygon fill="midnightblue" stroke="midnightblue" points="274.02,-206.9 267.24,-198.76 267.46,-209.35 274.02,-206.9"/>
</g>
<!-- Node12&#45;&gt;Node13 -->
<g id="edge20" class="edge">
<title>Node12&#45;&gt;Node13</title>
<path fill="none" stroke="midnightblue" d="M214.93,-185.96C206.58,-187.09 197.64,-188.61 189.36,-190 134.12,-199.3 68.61,-210.22 38.5,-218.91"/>
<polygon fill="midnightblue" stroke="midnightblue" points="215.58,-189.41 225.1,-184.77 214.76,-182.46 215.58,-189.41"/>
</g>
<!-- Node14 -->
<g id="node14" class="node">
<title>Node14</title>
<g id="a_node14"><a xlink:href="group__grp__output.html#ga382822b303cbf8c56d6f54dcb379caf2" target="_top" xlink:title="read or write force&#45;derivative matrix .ext.sp.DF">
<polygon fill="white" stroke="black" points="99.36,-170.5 99.36,-189.5 164.36,-189.5 164.36,-170.5 99.36,-170.5"/>
<text text-anchor="middle" x="131.86" y="-177.5" font-family="Helvetica,sans-Serif" font-size="10.00">writereadgf</text>
</a>
</g>
</g>
<!-- Node12&#45;&gt;Node14 -->
<g id="edge25" class="edge">
<title>Node12&#45;&gt;Node14</title>
<path fill="none" stroke="midnightblue" d="M215.32,-180.26C199.41,-178.22 180.41,-176.76 164.66,-176.37"/>
<polygon fill="midnightblue" stroke="midnightblue" points="214.87,-183.73 225.26,-181.67 215.86,-176.8 214.87,-183.73"/>
</g>
<!-- Node13&#45;&gt;Node12 -->
<g id="edge22" class="edge">
<title>Node13&#45;&gt;Node12</title>
<path fill="none" stroke="midnightblue" d="M48.72,-228.86C81.81,-226.02 139.73,-216.35 189.36,-208 204.73,-205.41 222.34,-202.42 234.29,-198.58"/>
<polygon fill="midnightblue" stroke="midnightblue" points="48.24,-225.38 38.5,-229.55 48.72,-232.37 48.24,-225.38"/>
</g>
<!-- Node13&#45;&gt;Node13 -->
<g id="edge21" class="edge">
<title>Node13&#45;&gt;Node13</title>
<path fill="none" stroke="midnightblue" d="M41.23,-246.4C39.87,-251.31 33.08,-255 20.86,-255 1.31,-255 -4.34,-245.57 3.9,-236.76"/>
<polygon fill="midnightblue" stroke="midnightblue" points="44.45,-245.01 37.81,-236.76 37.85,-247.35 44.45,-245.01"/>
</g>
<!-- Node14&#45;&gt;Node12 -->
<g id="edge27" class="edge">
<title>Node14&#45;&gt;Node12</title>
<path fill="none" stroke="midnightblue" d="M174.93,-189.8C191.92,-191.63 210.87,-192.77 225.26,-192.73"/>
<polygon fill="midnightblue" stroke="midnightblue" points="175.01,-186.29 164.66,-188.58 174.18,-193.24 175.01,-186.29"/>
</g>
<!-- Node14&#45;&gt;Node13 -->
<g id="edge26" class="edge">
<title>Node14&#45;&gt;Node13</title>
<path fill="none" stroke="midnightblue" d="M98.87,-193.51C90.86,-196.92 82.29,-200.58 74.36,-204 62.3,-209.2 48.72,-215.16 38.39,-219.7"/>
<polygon fill="midnightblue" stroke="midnightblue" points="100.45,-196.65 108.29,-189.52 97.72,-190.2 100.45,-196.65"/>
</g>
<!-- Node16 -->
<g id="node16" class="node">
<title>Node16</title>
<g id="a_node16"><a xlink:href="dfp200_8f90.html#a55ea75395f8c71731451e1add3720c7e" target="_top" xlink:title="Given the field consistent with the constraints and the geometry, computes local quantites related to...">
<polygon fill="white" stroke="black" points="226.36,-94.5 226.36,-113.5 272.36,-113.5 272.36,-94.5 226.36,-94.5"/>
<text text-anchor="middle" x="249.36" y="-101.5" font-family="Helvetica,sans-Serif" font-size="10.00">dfp200</text>
</a>
</g>
</g>
<!-- Node15&#45;&gt;Node16 -->
<g id="edge30" class="edge">
<title>Node15&#45;&gt;Node16</title>
<path fill="none" stroke="midnightblue" d="M299.05,-97.36C289.41,-97.55 280.18,-97.98 272.4,-98.64"/>
<polygon fill="midnightblue" stroke="midnightblue" points="299.24,-100.86 309.2,-97.25 299.16,-93.86 299.24,-100.86"/>
</g>
<!-- Node16&#45;&gt;Node6 -->
<g id="edge31" class="edge">
<title>Node16&#45;&gt;Node6</title>
<path fill="none" stroke="midnightblue" d="M282.01,-91.27C320,-78.08 384.77,-62.3 434.36,-85 473.58,-102.96 501.18,-149.97 511.68,-170.35"/>
<polygon fill="midnightblue" stroke="midnightblue" points="280.71,-88.02 272.5,-94.72 283.1,-94.6 280.71,-88.02"/>
</g>
<!-- Node16&#45;&gt;Node15 -->
<g id="edge37" class="edge">
<title>Node16&#45;&gt;Node15</title>
<path fill="none" stroke="midnightblue" d="M282.64,-110.06C290.88,-110.5 300.02,-110.73 309.2,-110.75"/>
<polygon fill="midnightblue" stroke="midnightblue" points="282.61,-106.55 272.4,-109.36 282.14,-113.53 282.61,-106.55"/>
</g>
<!-- Node16&#45;&gt;Node16 -->
<g id="edge32" class="edge">
<title>Node16&#45;&gt;Node16</title>
<path fill="none" stroke="midnightblue" d="M270.84,-123.4C269.4,-128.31 262.24,-132 249.36,-132 228.74,-132 222.78,-122.57 231.48,-113.76"/>
<polygon fill="midnightblue" stroke="midnightblue" points="274.02,-121.9 267.24,-113.76 267.46,-124.35 274.02,-121.9"/>
</g>
<!-- Node17 -->
<g id="node17" class="node">
<title>Node17</title>
<g id="a_node17"><a xlink:href="dfp200_8f90.html#a7b64c7392b45d0042d8bd7379c0761a5" target="_top" xlink:title="Evaluate the derivative of the square of the magnetic field modulus. Add spectral constraint derivati...">
<polygon fill="white" stroke="black" points="94.86,-56.5 94.86,-75.5 168.86,-75.5 168.86,-56.5 94.86,-56.5"/>
<text text-anchor="middle" x="131.86" y="-63.5" font-family="Helvetica,sans-Serif" font-size="10.00">evaluate_dbb</text>
</a>
</g>
</g>
<!-- Node16&#45;&gt;Node17 -->
<g id="edge33" class="edge">
<title>Node16&#45;&gt;Node17</title>
<path fill="none" stroke="midnightblue" d="M223.67,-90.23C207.85,-83.83 187.05,-76.76 169.34,-71.68"/>
<polygon fill="midnightblue" stroke="midnightblue" points="222.69,-93.61 233.26,-94.3 225.42,-87.17 222.69,-93.61"/>
</g>
<!-- Node18 -->
<g id="node18" class="node">
<title>Node18</title>
<g id="a_node18"><a xlink:href="dfp200_8f90.html#a73ddf39ecc5228201fb643779e17cd36" target="_top" xlink:title="Evaluate mu and psip derivatives and store them in dmupfdx.">
<polygon fill="white" stroke="black" points="84.36,-132.5 84.36,-151.5 179.36,-151.5 179.36,-132.5 84.36,-132.5"/>
<text text-anchor="middle" x="131.86" y="-139.5" font-family="Helvetica,sans-Serif" font-size="10.00">evaluate_dmupfdx</text>
</a>
</g>
</g>
<!-- Node16&#45;&gt;Node18 -->
<g id="edge35" class="edge">
<title>Node16&#45;&gt;Node18</title>
<path fill="none" stroke="midnightblue" d="M216.31,-108.43C193.88,-114.63 164.96,-124.61 147.72,-132.41"/>
<polygon fill="midnightblue" stroke="midnightblue" points="217.3,-111.79 226.09,-105.87 215.53,-105.01 217.3,-111.79"/>
</g>
<!-- Node19 -->
<g id="node19" class="node">
<title>Node19</title>
<g id="a_node19"><a xlink:href="dfp200_8f90.html#a5e56f1f4b1e6df11a9cffa6237c37469" target="_top" xlink:title="This routine evaluates the value of the magnetic field once the interface is perturbed using matrix p...">
<polygon fill="white" stroke="black" points="74.36,-94.5 74.36,-113.5 189.36,-113.5 189.36,-94.5 74.36,-94.5"/>
<text text-anchor="middle" x="131.86" y="-101.5" font-family="Helvetica,sans-Serif" font-size="10.00">get_perturbed_solution</text>
</a>
</g>
</g>
<!-- Node16&#45;&gt;Node19 -->
<g id="edge38" class="edge">
<title>Node16&#45;&gt;Node19</title>
<path fill="none" stroke="midnightblue" d="M215.87,-97.86C207.66,-97.44 198.61,-97.23 189.59,-97.25"/>
<polygon fill="midnightblue" stroke="midnightblue" points="215.88,-101.37 226.09,-98.54 216.34,-94.38 215.88,-101.37"/>
</g>
<!-- Node17&#45;&gt;Node16 -->
<g id="edge34" class="edge">
<title>Node17&#45;&gt;Node16</title>
<path fill="none" stroke="midnightblue" d="M156.95,-79.53C177.32,-87.81 206.26,-97.28 226.09,-102.13"/>
<polygon fill="midnightblue" stroke="midnightblue" points="158.29,-76.3 147.72,-75.59 155.55,-82.74 158.29,-76.3"/>
</g>
<!-- Node18&#45;&gt;Node16 -->
<g id="edge36" class="edge">
<title>Node18&#45;&gt;Node16</title>
<path fill="none" stroke="midnightblue" d="M188.98,-130.28C205.31,-124.96 221.81,-118.86 233.26,-113.7"/>
<polygon fill="midnightblue" stroke="midnightblue" points="187.89,-126.96 179.42,-133.32 190.01,-133.63 187.89,-126.96"/>
</g>
<!-- Node19&#45;&gt;Node16 -->
<g id="edge39" class="edge">
<title>Node19&#45;&gt;Node16</title>
<path fill="none" stroke="midnightblue" d="M199.59,-110.68C209.12,-110.52 218.3,-110.11 226.09,-109.46"/>
<polygon fill="midnightblue" stroke="midnightblue" points="199.57,-107.18 189.59,-110.75 199.62,-114.18 199.57,-107.18"/>
</g>
<!-- Node20&#45;&gt;Node20 -->
<g id="edge45" class="edge">
<title>Node20&#45;&gt;Node20</title>
<path fill="none" stroke="midnightblue" d="M394.55,-29.03C393.31,-34.13 385.75,-38 371.86,-38 350.18,-38 343.91,-28.57 353.05,-19.76"/>
<polygon fill="midnightblue" stroke="midnightblue" points="397.76,-27.62 390.66,-19.76 391.3,-30.33 397.76,-27.62"/>
</g>
<!-- Node21 -->
<g id="node21" class="node">
<title>Node21</title>
<g id="a_node21"><a xlink:href="group__grp__conjugate__gradient.html#ga25a3bae2ff2ee0469b045de0d033398b" target="_top" xlink:title="Use preconditioned conjugate gradient method to find minimum of energy functional.">
<polygon fill="white" stroke="black" points="225.36,-0.5 225.36,-19.5 273.36,-19.5 273.36,-0.5 225.36,-0.5"/>
<text text-anchor="middle" x="249.36" y="-7.5" font-family="Helvetica,sans-Serif" font-size="10.00">pc00aa</text>
</a>
</g>
</g>
<!-- Node20&#45;&gt;Node21 -->
<g id="edge43" class="edge">
<title>Node20&#45;&gt;Node21</title>
<path fill="none" stroke="midnightblue" d="M337.52,-10C317.17,-10 291.67,-10 273.52,-10"/>
<polygon fill="midnightblue" stroke="midnightblue" points="337.63,-13.5 347.63,-10 337.62,-6.5 337.63,-13.5"/>
</g>
<!-- Node21&#45;&gt;Node21 -->
<g id="edge44" class="edge">
<title>Node21&#45;&gt;Node21</title>
<path fill="none" stroke="midnightblue" d="M270.84,-29.4C269.4,-34.31 262.24,-38 249.36,-38 228.74,-38 222.78,-28.57 231.48,-19.76"/>
<polygon fill="midnightblue" stroke="midnightblue" points="274.02,-27.9 267.24,-19.76 267.46,-30.35 274.02,-27.9"/>
</g>
<!-- Node22&#45;&gt;Node8 -->
<g id="edge48" class="edge">
<title>Node22&#45;&gt;Node8</title>
<path fill="none" stroke="midnightblue" d="M460.08,-403.38C418.05,-400.48 359.47,-394.45 309.36,-382 296.24,-378.74 282.1,-373.3 270.96,-368.53"/>
<polygon fill="midnightblue" stroke="midnightblue" points="459.92,-406.87 470.12,-404.03 460.37,-399.89 459.92,-406.87"/>
</g>
<!-- Node24 -->
<g id="node24" class="node">
<title>Node24</title>
<g id="a_node24"><a xlink:href="group__grp__free-boundary.html#ga180576a10002ebf3840fce98d56316bb" target="_top" xlink:title="Constructs the field created by the plasma currents, at an arbitrary, external location using virtual...">
<polygon fill="white" stroke="black" points="917.36,-416.5 917.36,-435.5 962.36,-435.5 962.36,-416.5 917.36,-416.5"/>
<text text-anchor="middle" x="939.86" y="-423.5" font-family="Helvetica,sans-Serif" font-size="10.00">casing</text>
</a>
</g>
</g>
<!-- Node23&#45;&gt;Node24 -->
<g id="edge54" class="edge">
<title>Node23&#45;&gt;Node24</title>
<path fill="none" stroke="midnightblue" d="M988.36,-424.58C979.6,-423.39 970.41,-422.59 962.48,-422.35"/>
<polygon fill="midnightblue" stroke="midnightblue" points="987.93,-428.05 998.35,-426.13 989,-421.14 987.93,-428.05"/>
</g>
<!-- Node24&#45;&gt;Node1 -->
<g id="edge59" class="edge">
<title>Node24&#45;&gt;Node1</title>
<path fill="none" stroke="midnightblue" d="M972.68,-419.46C981,-418.03 989.98,-416.72 998.36,-416 1020.5,-414.09 1026.31,-413.23 1048.36,-416 1063.19,-417.86 1079.31,-421.73 1092.74,-425.5"/>
<polygon fill="midnightblue" stroke="midnightblue" points="971.79,-416.06 962.59,-421.31 973.05,-422.95 971.79,-416.06"/>
</g>
<!-- Node24&#45;&gt;Node2 -->
<g id="edge55" class="edge">
<title>Node24&#45;&gt;Node2</title>
<path fill="none" stroke="midnightblue" d="M914.15,-440.61C901.63,-448.01 886.78,-456.79 875.7,-463.34"/>
<polygon fill="midnightblue" stroke="midnightblue" points="915.94,-443.61 922.77,-435.51 912.38,-437.59 915.94,-443.61"/>
</g>
<!-- Node24&#45;&gt;Node3 -->
<g id="edge58" class="edge">
<title>Node24&#45;&gt;Node3</title>
<path fill="none" stroke="midnightblue" d="M907.07,-426C875.14,-426 826.86,-426 799.41,-426"/>
<polygon fill="midnightblue" stroke="midnightblue" points="907.21,-429.5 917.21,-426 907.21,-422.5 907.21,-429.5"/>
</g>
<!-- Node24&#45;&gt;Node23 -->
<g id="edge57" class="edge">
<title>Node24&#45;&gt;Node23</title>
<path fill="none" stroke="midnightblue" d="M972.55,-436.1C981.13,-437.34 990.27,-438.22 998.35,-438.56"/>
<polygon fill="midnightblue" stroke="midnightblue" points="972.92,-432.61 962.48,-434.43 971.77,-439.52 972.92,-432.61"/>
</g>
<!-- Node24&#45;&gt;Node24 -->
<g id="edge56" class="edge">
<title>Node24&#45;&gt;Node24</title>
<path fill="none" stroke="midnightblue" d="M954.59,-445.77C953.43,-450.5 948.52,-454 939.86,-454 925.64,-454 921.53,-444.57 927.53,-435.76"/>
<polygon fill="midnightblue" stroke="midnightblue" points="957.93,-444.66 952.19,-435.76 951.12,-446.3 957.93,-444.66"/>
</g>
</g>
</svg>
