<?xml version="1.0" encoding="UTF-8" standalone="no"?>
<!DOCTYPE svg PUBLIC "-//W3C//DTD SVG 1.1//EN"
 "http://www.w3.org/Graphics/SVG/1.1/DTD/svg11.dtd">
<!-- Generated by graphviz version 2.47.1 (20210421.1823)
 -->
<!-- Title: fcn2 Pages: 1 -->
<svg width="309pt" height="104pt"
 viewBox="0.00 0.00 309.00 104.00" xmlns="http://www.w3.org/2000/svg" xmlns:xlink="http://www.w3.org/1999/xlink">
<g id="graph0" class="graph" transform="scale(1 1) rotate(0) translate(4 100)">
<title>fcn2</title>
<polygon fill="white" stroke="transparent" points="-4,4 -4,-100 305,-100 305,4 -4,4"/>
<!-- Node1 -->
<g id="node1" class="node">
<title>Node1</title>
<g id="a_node1"><a xlink:title="fcn2">
<polygon fill="#bfbfbf" stroke="black" points="266,-38.5 266,-57.5 301,-57.5 301,-38.5 266,-38.5"/>
<text text-anchor="middle" x="283.5" y="-45.5" font-family="Helvetica,sans-Serif" font-size="10.00">fcn2</text>
</a>
</g>
</g>
<!-- Node2 -->
<g id="node2" class="node">
<title>Node2</title>
<g id="a_node2"><a xlink:href="group__grp__force__driver.html#gaec14f81fbdbedafbc4189489ec8ae178" target="_top" xlink:title="Employs Newton method to find , where &#160;and &#160;is defined in dforce() .">
<polygon fill="white" stroke="black" points="182,-38.5 182,-57.5 230,-57.5 230,-38.5 182,-38.5"/>
<text text-anchor="middle" x="206" y="-45.5" font-family="Helvetica,sans-Serif" font-size="10.00">newton</text>
</a>
</g>
</g>
<!-- Node1&#45;&gt;Node2 -->
<g id="edge1" class="edge">
<title>Node1&#45;&gt;Node2</title>
<path fill="none" stroke="midnightblue" d="M255.68,-41.51C247.29,-41.1 238.11,-41.18 230.01,-41.73"/>
<polygon fill="midnightblue" stroke="midnightblue" points="255.51,-45 265.74,-42.28 256.04,-38.03 255.51,-45"/>
</g>
<!-- Node2&#45;&gt;Node1 -->
<g id="edge4" class="edge">
<title>Node2&#45;&gt;Node1</title>
<path fill="none" stroke="midnightblue" d="M240.13,-54.7C248.99,-54.88 258.19,-54.55 265.74,-53.72"/>
<polygon fill="midnightblue" stroke="midnightblue" points="240.15,-51.2 230.01,-54.27 239.85,-58.2 240.15,-51.2"/>
</g>
<!-- Node3 -->
<g id="node3" class="node">
<title>Node3</title>
<g id="a_node3"><a xlink:href="group__grp__force__driver.html#gabbc245b3884ee8d8d3e2a52f25149f78" target="_top" xlink:title="fcn1">
<polygon fill="white" stroke="black" points="96,-76.5 96,-95.5 131,-95.5 131,-76.5 96,-76.5"/>
<text text-anchor="middle" x="113.5" y="-83.5" font-family="Helvetica,sans-Serif" font-size="10.00">fcn1</text>
</a>
</g>
</g>
<!-- Node2&#45;&gt;Node3 -->
<g id="edge2" class="edge">
<title>Node2&#45;&gt;Node3</title>
<path fill="none" stroke="midnightblue" d="M172.06,-55.31C156,-61.45 137.7,-69.74 126.13,-76.42"/>
<polygon fill="midnightblue" stroke="midnightblue" points="173.5,-58.51 181.69,-51.8 171.1,-51.93 173.5,-58.51"/>
</g>
<!-- Node4 -->
<g id="node4" class="node">
<title>Node4</title>
<g id="a_node4"><a xlink:href="group__grp__force__driver.html#ga382822b303cbf8c56d6f54dcb379caf2" target="_top" xlink:title="read or write force&#45;derivative matrix">
<polygon fill="white" stroke="black" points="81,-0.5 81,-19.5 146,-19.5 146,-0.5 81,-0.5"/>
<text text-anchor="middle" x="113.5" y="-7.5" font-family="Helvetica,sans-Serif" font-size="10.00">writereadgf</text>
</a>
</g>
</g>
<!-- Node2&#45;&gt;Node4 -->
<g id="edge5" class="edge">
<title>Node2&#45;&gt;Node4</title>
<path fill="none" stroke="midnightblue" d="M184.13,-33.45C172.89,-27.74 158.77,-21.59 146.2,-16.84"/>
<polygon fill="midnightblue" stroke="midnightblue" points="182.7,-36.65 193.17,-38.3 186.01,-30.49 182.7,-36.65"/>
</g>
<!-- Node5 -->
<g id="node5" class="node">
<title>Node5</title>
<g id="a_node5"><a xlink:href="xspech_8f90.html#aea782eae089760a491c2c54f9903abcc" target="_top" xlink:title="Main program of SPEC.">
<polygon fill="white" stroke="black" points="90,-38.5 90,-57.5 137,-57.5 137,-38.5 90,-38.5"/>
<text text-anchor="middle" x="113.5" y="-45.5" font-family="Helvetica,sans-Serif" font-size="10.00">xspech</text>
</a>
</g>
</g>
<!-- Node2&#45;&gt;Node5 -->
<g id="edge8" class="edge">
<title>Node2&#45;&gt;Node5</title>
<path fill="none" stroke="midnightblue" d="M171.55,-48C160.08,-48 147.51,-48 137.1,-48"/>
<polygon fill="midnightblue" stroke="midnightblue" points="171.69,-51.5 181.69,-48 171.69,-44.5 171.69,-51.5"/>
</g>
<!-- Node3&#45;&gt;Node2 -->
<g id="edge3" class="edge">
<title>Node3&#45;&gt;Node2</title>
<path fill="none" stroke="midnightblue" d="M140.83,-81.14C158.14,-74.95 179.95,-65.3 193.17,-57.7"/>
<polygon fill="midnightblue" stroke="midnightblue" points="139.63,-77.85 131.26,-84.34 141.85,-84.49 139.63,-77.85"/>
</g>
<!-- Node4&#45;&gt;Node1 -->
<g id="edge6" class="edge">
<title>Node4&#45;&gt;Node1</title>
<path fill="none" stroke="midnightblue" d="M156.27,-14.98C178.39,-18.09 205.9,-22.71 230,-29 242.19,-32.18 255.54,-37.03 265.73,-41.03"/>
<polygon fill="midnightblue" stroke="midnightblue" points="156.58,-11.49 146.2,-13.61 155.64,-18.43 156.58,-11.49"/>
</g>
<!-- Node4&#45;&gt;Node2 -->
<g id="edge7" class="edge">
<title>Node4&#45;&gt;Node2</title>
<path fill="none" stroke="midnightblue" d="M135.32,-24.53C149.16,-31.55 167.37,-39.27 181.69,-44.2"/>
<polygon fill="midnightblue" stroke="midnightblue" points="136.59,-21.24 126.13,-19.58 133.27,-27.4 136.59,-21.24"/>
</g>
<!-- Node6 -->
<g id="node6" class="node">
<title>Node6</title>
<g id="a_node6"><a xlink:href="xspech_8f90.html#a537af4990058c0b0f2cd8b3669af204f" target="_top" xlink:title="todo remark">
<polygon fill="white" stroke="black" points="0,-38.5 0,-57.5 45,-57.5 45,-38.5 0,-38.5"/>
<text text-anchor="middle" x="22.5" y="-45.5" font-family="Helvetica,sans-Serif" font-size="10.00">ending</text>
</a>
</g>
</g>
<!-- Node5&#45;&gt;Node6 -->
<g id="edge9" class="edge">
<title>Node5&#45;&gt;Node6</title>
<path fill="none" stroke="midnightblue" d="M79.45,-41.45C67.98,-41.04 55.42,-41.26 45.12,-42.12"/>
<polygon fill="midnightblue" stroke="midnightblue" points="79.4,-44.96 89.58,-42.01 79.79,-37.97 79.4,-44.96"/>
</g>
<!-- Node6&#45;&gt;Node5 -->
<g id="edge10" class="edge">
<title>Node6&#45;&gt;Node5</title>
<path fill="none" stroke="midnightblue" d="M55.12,-54.49C66.49,-54.96 79.09,-54.79 89.58,-53.99"/>
<polygon fill="midnightblue" stroke="midnightblue" points="55.31,-51 45.12,-53.88 54.89,-57.98 55.31,-51"/>
</g>
</g>
</svg>
