<?xml version="1.0" encoding="UTF-8" standalone="no"?>
<!DOCTYPE svg PUBLIC "-//W3C//DTD SVG 1.1//EN"
 "http://www.w3.org/Graphics/SVG/1.1/DTD/svg11.dtd">
<!-- Generated by graphviz version 2.47.0 (20210407.0042)
 -->
<!-- Title: tfft Pages: 1 -->
<svg width="1293pt" height="1024pt"
 viewBox="0.00 0.00 1293.00 1024.00" xmlns="http://www.w3.org/2000/svg" xmlns:xlink="http://www.w3.org/1999/xlink">
<g id="graph0" class="graph" transform="scale(1 1) rotate(0) translate(4 1020)">
<title>tfft</title>
<polygon fill="white" stroke="transparent" points="-4,4 -4,-1020 1289,-1020 1289,4 -4,4"/>
<!-- Node1 -->
<g id="node1" class="node">
<title>Node1</title>
<g id="a_node1"><a xlink:title="Forward Fourier transform (fftw wrapper)">
<polygon fill="#bfbfbf" stroke="black" points="1256,-607.5 1256,-626.5 1285,-626.5 1285,-607.5 1256,-607.5"/>
<text text-anchor="middle" x="1270.5" y="-614.5" font-family="Helvetica,sans-Serif" font-size="10.00">tfft</text>
</a>
</g>
</g>
<!-- Node2 -->
<g id="node2" class="node">
<title>Node2</title>
<g id="a_node2"><a xlink:href="group__grp__free-boundary.html#gac0a2cc2241947b27241bb8ef75c5e0ed" target="_top" xlink:title="Computes &#160;on the computational boundary, .">
<polygon fill="white" stroke="black" points="438.5,-38.5 438.5,-57.5 484.5,-57.5 484.5,-38.5 438.5,-38.5"/>
<text text-anchor="middle" x="461.5" y="-45.5" font-family="Helvetica,sans-Serif" font-size="10.00">bnorml</text>
</a>
</g>
</g>
<!-- Node1&#45;&gt;Node2 -->
<g id="edge1" class="edge">
<title>Node1&#45;&gt;Node2</title>
<path fill="none" stroke="midnightblue" d="M1269.08,-597.16C1266.9,-503.9 1255.68,-111.9 1220,-72 1184.62,-32.43 1156.08,-48 1103,-48 1103,-48 1103,-48 662,-48 597.58,-48 521.45,-48 484.64,-48"/>
<polygon fill="midnightblue" stroke="midnightblue" points="1265.58,-597.52 1269.31,-607.44 1272.58,-597.36 1265.58,-597.52"/>
</g>
<!-- Node3 -->
<g id="node3" class="node">
<title>Node3</title>
<g id="a_node3"><a xlink:href="group__grp__initialization.html#ga28628de0fdb3b3497668007d8d0643bd" target="_top" xlink:title="Allocates and initializes internal arrays.">
<polygon fill="white" stroke="black" points="317,-114.5 317,-133.5 361,-133.5 361,-114.5 317,-114.5"/>
<text text-anchor="middle" x="339" y="-121.5" font-family="Helvetica,sans-Serif" font-size="10.00">preset</text>
</a>
</g>
</g>
<!-- Node1&#45;&gt;Node3 -->
<g id="edge71" class="edge">
<title>Node1&#45;&gt;Node3</title>
<path fill="none" stroke="midnightblue" d="M1267.71,-597.22C1258.47,-500.94 1212.32,-86 1103,-86 1103,-86 1103,-86 581,-86 498.83,-86 402.8,-107.82 361.1,-118.39"/>
<polygon fill="midnightblue" stroke="midnightblue" points="1264.24,-597.7 1268.66,-607.33 1271.21,-597.05 1264.24,-597.7"/>
</g>
<!-- Node7 -->
<g id="node7" class="node">
<title>Node7</title>
<g id="a_node7"><a xlink:href="group__grp__currents.html#gacaf4411e0ba378631dcd2ccb3752e452" target="_top" xlink:title="Computes the plasma current, , and the &quot;linking&quot; current, .">
<polygon fill="white" stroke="black" points="983.5,-778.5 983.5,-797.5 1027.5,-797.5 1027.5,-778.5 983.5,-778.5"/>
<text text-anchor="middle" x="1005.5" y="-785.5" font-family="Helvetica,sans-Serif" font-size="10.00">curent</text>
</a>
</g>
</g>
<!-- Node1&#45;&gt;Node7 -->
<g id="edge9" class="edge">
<title>Node1&#45;&gt;Node7</title>
<path fill="none" stroke="midnightblue" d="M1266.37,-636.58C1261.25,-662.09 1248.62,-706.35 1220,-731 1163.46,-779.7 1069.59,-787.3 1027.76,-788.14"/>
<polygon fill="midnightblue" stroke="midnightblue" points="1269.84,-637.07 1268.18,-626.61 1262.95,-635.82 1269.84,-637.07"/>
</g>
<!-- Node16 -->
<g id="node16" class="node">
<title>Node16</title>
<g id="a_node16"><a xlink:href="dfp200_8f90.html#a7b64c7392b45d0042d8bd7379c0761a5" target="_top" xlink:title="Evaluate the derivative of the square of the magnetic field modulus. Add spectral constraint derivati...">
<polygon fill="white" stroke="black" points="184.5,-664.5 184.5,-683.5 258.5,-683.5 258.5,-664.5 184.5,-664.5"/>
<text text-anchor="middle" x="221.5" y="-671.5" font-family="Helvetica,sans-Serif" font-size="10.00">evaluate_dbb</text>
</a>
</g>
</g>
<!-- Node1&#45;&gt;Node16 -->
<g id="edge45" class="edge">
<title>Node1&#45;&gt;Node16</title>
<path fill="none" stroke="midnightblue" d="M1245.51,-612.53C1213.25,-606.91 1154.01,-598 1103,-598 1103,-598 1103,-598 662,-598 507.71,-598 327.35,-644.04 254.97,-664.45"/>
<polygon fill="midnightblue" stroke="midnightblue" points="1245.29,-616.04 1255.75,-614.36 1246.52,-609.15 1245.29,-616.04"/>
</g>
<!-- Node24 -->
<g id="node24" class="node">
<title>Node24</title>
<g id="a_node24"><a xlink:href="intghs_8f90.html#a21d3b7106371783302e68297f7797e9f" target="_top" xlink:title="Calculates volume integrals of Chebyshev polynomials and covariant field products.">
<polygon fill="white" stroke="black" points="1173.5,-873.5 1173.5,-892.5 1216.5,-892.5 1216.5,-873.5 1173.5,-873.5"/>
<text text-anchor="middle" x="1195" y="-880.5" font-family="Helvetica,sans-Serif" font-size="10.00">intghs</text>
</a>
</g>
</g>
<!-- Node1&#45;&gt;Node24 -->
<g id="edge46" class="edge">
<title>Node1&#45;&gt;Node24</title>
<path fill="none" stroke="midnightblue" d="M1264.07,-636.65C1249.4,-689.75 1209.34,-834.73 1198.65,-873.41"/>
<polygon fill="midnightblue" stroke="midnightblue" points="1267.51,-637.35 1266.8,-626.78 1260.76,-635.49 1267.51,-637.35"/>
</g>
<!-- Node29 -->
<g id="node29" class="node">
<title>Node29</title>
<g id="a_node29"><a xlink:href="lbpol_8f90.html#a29ae6196c664f390d0e60ab7916c806b" target="_top" xlink:title=" ">
<polygon fill="white" stroke="black" points="769.5,-664.5 769.5,-683.5 806.5,-683.5 806.5,-664.5 769.5,-664.5"/>
<text text-anchor="middle" x="788" y="-671.5" font-family="Helvetica,sans-Serif" font-size="10.00">lbpol</text>
</a>
</g>
</g>
<!-- Node1&#45;&gt;Node29 -->
<g id="edge60" class="edge">
<title>Node1&#45;&gt;Node29</title>
<path fill="none" stroke="midnightblue" d="M1250.03,-632.52C1241.29,-638.8 1230.58,-645.59 1220,-650 1171.01,-670.43 1156.08,-674 1103,-674 1103,-674 1103,-674 1004.5,-674 930.98,-674 843.36,-674 806.6,-674"/>
<polygon fill="midnightblue" stroke="midnightblue" points="1252.13,-635.32 1258.04,-626.52 1247.93,-629.72 1252.13,-635.32"/>
</g>
<!-- Node30 -->
<g id="node30" class="node">
<title>Node30</title>
<g id="a_node30"><a xlink:href="group__grp__local__force.html#ga7a5316b9e5eeb42811aa6bccd29a132f" target="_top" xlink:title="Computes , and the spectral condensation constraints if required, on the interfaces,...">
<polygon fill="white" stroke="black" points="441,-664.5 441,-683.5 482,-683.5 482,-664.5 441,-664.5"/>
<text text-anchor="middle" x="461.5" y="-671.5" font-family="Helvetica,sans-Serif" font-size="10.00">lforce</text>
</a>
</g>
</g>
<!-- Node1&#45;&gt;Node30 -->
<g id="edge64" class="edge">
<title>Node1&#45;&gt;Node30</title>
<path fill="none" stroke="midnightblue" d="M1245.51,-621.47C1213.25,-627.09 1154.01,-636 1103,-636 1103,-636 1103,-636 787,-636 670.72,-636 532.58,-660.37 482.16,-670.08"/>
<polygon fill="midnightblue" stroke="midnightblue" points="1246.52,-624.85 1255.75,-619.64 1245.29,-617.96 1246.52,-624.85"/>
</g>
<!-- Node31 -->
<g id="node31" class="node">
<title>Node31</title>
<g id="a_node31"><a xlink:href="group__grp__metrics.html#ga254ce8e645c4110d77e3b3dbc3a89885" target="_top" xlink:title="Calculates the metric quantities, , which are required for the energy and helicity integrals.">
<polygon fill="white" stroke="black" points="1173.5,-702.5 1173.5,-721.5 1216.5,-721.5 1216.5,-702.5 1173.5,-702.5"/>
<text text-anchor="middle" x="1195" y="-709.5" font-family="Helvetica,sans-Serif" font-size="10.00">metrix</text>
</a>
</g>
</g>
<!-- Node1&#45;&gt;Node31 -->
<g id="edge67" class="edge">
<title>Node1&#45;&gt;Node31</title>
<path fill="none" stroke="midnightblue" d="M1258.06,-635.25C1248.52,-649.98 1234.24,-670.99 1220,-688 1215.91,-692.88 1211,-697.91 1206.69,-702.1"/>
<polygon fill="midnightblue" stroke="midnightblue" points="1261.17,-636.89 1263.59,-626.57 1255.26,-633.12 1261.17,-636.89"/>
</g>
<!-- Node33 -->
<g id="node33" class="node">
<title>Node33</title>
<g id="a_node33"><a xlink:href="group__grp__coord__axis.html#ga564281be4d9806d0688a717314ad748f" target="_top" xlink:title="The coordinate axis is assigned via a poloidal average over an arbitrary surface.">
<polygon fill="white" stroke="black" points="767.5,-322.5 767.5,-341.5 808.5,-341.5 808.5,-322.5 767.5,-322.5"/>
<text text-anchor="middle" x="788" y="-329.5" font-family="Helvetica,sans-Serif" font-size="10.00">rzaxis</text>
</a>
</g>
</g>
<!-- Node1&#45;&gt;Node33 -->
<g id="edge72" class="edge">
<title>Node1&#45;&gt;Node33</title>
<path fill="none" stroke="midnightblue" d="M1261.79,-597.88C1242.39,-553.26 1187.01,-446 1103,-446 1103,-446 1103,-446 1004.5,-446 915.62,-446 827.54,-369.29 798.76,-341.72"/>
<polygon fill="midnightblue" stroke="midnightblue" points="1258.65,-599.46 1265.76,-607.32 1265.11,-596.74 1258.65,-599.46"/>
</g>
<!-- Node35 -->
<g id="node35" class="node">
<title>Node35</title>
<g id="a_node35"><a xlink:href="group__grp__smooth__boundary.html#ga5d58e428e5062d645244ff572b06e117" target="_top" xlink:title="Constructs smooth approximation to wall.">
<polygon fill="white" stroke="black" points="1170,-0.5 1170,-19.5 1220,-19.5 1220,-0.5 1170,-0.5"/>
<text text-anchor="middle" x="1195" y="-7.5" font-family="Helvetica,sans-Serif" font-size="10.00">wa00aa</text>
</a>
</g>
</g>
<!-- Node1&#45;&gt;Node35 -->
<g id="edge80" class="edge">
<title>Node1&#45;&gt;Node35</title>
<path fill="none" stroke="midnightblue" d="M1269.62,-597C1269.89,-506.73 1267.99,-137.25 1220,-34 1217.47,-28.55 1213.14,-23.63 1208.86,-19.69"/>
<polygon fill="midnightblue" stroke="midnightblue" points="1266.12,-597.2 1269.58,-607.21 1273.12,-597.23 1266.12,-597.2"/>
</g>
<!-- Node2&#45;&gt;Node3 -->
<g id="edge2" class="edge">
<title>Node2&#45;&gt;Node3</title>
<path fill="none" stroke="midnightblue" d="M428.76,-57.96C418.88,-61.69 408.18,-66.41 399,-72 379.18,-84.08 359.66,-103.05 348.79,-114.43"/>
<polygon fill="midnightblue" stroke="midnightblue" points="430.04,-61.22 438.28,-54.57 427.69,-54.63 430.04,-61.22"/>
</g>
<!-- Node5 -->
<g id="node5" class="node">
<title>Node5</title>
<g id="a_node5"><a xlink:href="xspech_8f90.html#aea782eae089760a491c2c54f9903abcc" target="_top" xlink:title="Main program of SPEC.">
<polygon fill="white" stroke="black" points="81,-247.5 81,-266.5 128,-266.5 128,-247.5 81,-247.5"/>
<text text-anchor="middle" x="104.5" y="-254.5" font-family="Helvetica,sans-Serif" font-size="10.00">xspech</text>
</a>
</g>
</g>
<!-- Node2&#45;&gt;Node5 -->
<g id="edge8" class="edge">
<title>Node2&#45;&gt;Node5</title>
<path fill="none" stroke="midnightblue" d="M427.9,-47.07C368.42,-47.11 241.29,-55.5 164,-121 123.61,-155.23 110.34,-222.43 106.7,-247.38"/>
<polygon fill="midnightblue" stroke="midnightblue" points="428.17,-50.57 438.19,-47.14 428.22,-43.57 428.17,-50.57"/>
</g>
<!-- Node4 -->
<g id="node4" class="node">
<title>Node4</title>
<g id="a_node4"><a xlink:href="group__grp__diagnostics.html#ga7401b50ec10c6598ee4a8112717a63ec" target="_top" xlink:title="Computes eigenvalues and eigenvectors of derivative matrix, .">
<polygon fill="white" stroke="black" points="199,-171.5 199,-190.5 244,-190.5 244,-171.5 199,-171.5"/>
<text text-anchor="middle" x="221.5" y="-178.5" font-family="Helvetica,sans-Serif" font-size="10.00">hesian</text>
</a>
</g>
</g>
<!-- Node3&#45;&gt;Node4 -->
<g id="edge3" class="edge">
<title>Node3&#45;&gt;Node4</title>
<path fill="none" stroke="midnightblue" d="M309.56,-138.04C288.51,-148.42 260.41,-162.29 241.9,-171.43"/>
<polygon fill="midnightblue" stroke="midnightblue" points="311.25,-141.1 318.67,-133.54 308.15,-134.83 311.25,-141.1"/>
</g>
<!-- Node3&#45;&gt;Node5 -->
<g id="edge7" class="edge">
<title>Node3&#45;&gt;Node5</title>
<path fill="none" stroke="midnightblue" d="M306.63,-123.69C269.35,-124.83 206.81,-131.64 164,-162 133.03,-183.96 115.19,-227.98 108.53,-247.41"/>
<polygon fill="midnightblue" stroke="midnightblue" points="306.96,-127.19 316.89,-123.5 306.83,-120.19 306.96,-127.19"/>
</g>
<!-- Node4&#45;&gt;Node5 -->
<g id="edge4" class="edge">
<title>Node4&#45;&gt;Node5</title>
<path fill="none" stroke="midnightblue" d="M197.41,-196.26C174.28,-211.54 139.41,-234.59 119.95,-247.45"/>
<polygon fill="midnightblue" stroke="midnightblue" points="199.52,-199.06 205.94,-190.63 195.66,-193.22 199.52,-199.06"/>
</g>
<!-- Node6 -->
<g id="node6" class="node">
<title>Node6</title>
<g id="a_node6"><a xlink:href="xspech_8f90.html#a537af4990058c0b0f2cd8b3669af204f" target="_top" xlink:title="todo remark">
<polygon fill="white" stroke="black" points="0,-247.5 0,-266.5 45,-266.5 45,-247.5 0,-247.5"/>
<text text-anchor="middle" x="22.5" y="-254.5" font-family="Helvetica,sans-Serif" font-size="10.00">ending</text>
</a>
</g>
</g>
<!-- Node5&#45;&gt;Node6 -->
<g id="edge5" class="edge">
<title>Node5&#45;&gt;Node6</title>
<path fill="none" stroke="midnightblue" d="M70.65,-250.35C62.06,-250.11 53.01,-250.3 45.17,-250.92"/>
<polygon fill="midnightblue" stroke="midnightblue" points="70.63,-253.85 80.79,-250.84 70.97,-246.86 70.63,-253.85"/>
</g>
<!-- Node6&#45;&gt;Node5 -->
<g id="edge6" class="edge">
<title>Node6&#45;&gt;Node5</title>
<path fill="none" stroke="midnightblue" d="M55.22,-263.62C63.77,-263.89 72.84,-263.74 80.79,-263.16"/>
<polygon fill="midnightblue" stroke="midnightblue" points="55.34,-260.12 45.17,-263.08 54.96,-267.11 55.34,-260.12"/>
</g>
<!-- Node8 -->
<g id="node8" class="node">
<title>Node8</title>
<g id="a_node8"><a xlink:href="dfp100_8f90.html#a17a3ac15cc83994394f7b4cc05e5898e" target="_top" xlink:title="Split the work between MPI nodes and evaluate the global constraint.">
<polygon fill="white" stroke="black" points="640,-778.5 640,-797.5 686,-797.5 686,-778.5 640,-778.5"/>
<text text-anchor="middle" x="663" y="-785.5" font-family="Helvetica,sans-Serif" font-size="10.00">dfp100</text>
</a>
</g>
</g>
<!-- Node7&#45;&gt;Node8 -->
<g id="edge10" class="edge">
<title>Node7&#45;&gt;Node8</title>
<path fill="none" stroke="midnightblue" d="M973.37,-788C905.41,-788 745.13,-788 686.22,-788"/>
<polygon fill="midnightblue" stroke="midnightblue" points="973.46,-791.5 983.46,-788 973.46,-784.5 973.46,-791.5"/>
</g>
<!-- Node17 -->
<g id="node17" class="node">
<title>Node17</title>
<g id="a_node17"><a xlink:href="dfp200_8f90.html#a73ddf39ecc5228201fb643779e17cd36" target="_top" xlink:title="Evaluate mu and psip derivatives and store them in dmupfdx.">
<polygon fill="white" stroke="black" points="174,-854.5 174,-873.5 269,-873.5 269,-854.5 174,-854.5"/>
<text text-anchor="middle" x="221.5" y="-861.5" font-family="Helvetica,sans-Serif" font-size="10.00">evaluate_dmupfdx</text>
</a>
</g>
</g>
<!-- Node7&#45;&gt;Node17 -->
<g id="edge41" class="edge">
<title>Node7&#45;&gt;Node17</title>
<path fill="none" stroke="midnightblue" d="M973.64,-795.59C963.31,-797.92 951.7,-800.31 941,-802 686.07,-842.3 620.47,-840.04 363,-858 331.7,-860.18 296.43,-861.69 269.05,-862.64"/>
<polygon fill="midnightblue" stroke="midnightblue" points="974.51,-798.98 983.45,-793.31 972.92,-792.16 974.51,-798.98"/>
</g>
<!-- Node22 -->
<g id="node22" class="node">
<title>Node22</title>
<g id="a_node22"><a xlink:href="group__grp__solver.html#ga6626839aff500f060beb5bce2b90c447" target="_top" xlink:title="Solves Beltrami/vacuum (linear) system, given matrices.unpacking fluxes, helicity multiplier">
<polygon fill="white" stroke="black" points="890,-854.5 890,-873.5 941,-873.5 941,-854.5 890,-854.5"/>
<text text-anchor="middle" x="915.5" y="-861.5" font-family="Helvetica,sans-Serif" font-size="10.00">mp00ac</text>
</a>
</g>
</g>
<!-- Node7&#45;&gt;Node22 -->
<g id="edge42" class="edge">
<title>Node7&#45;&gt;Node22</title>
<path fill="none" stroke="midnightblue" d="M985.4,-804.49C967.73,-819.76 942.06,-841.93 927.55,-854.45"/>
<polygon fill="midnightblue" stroke="midnightblue" points="988.07,-806.81 993.35,-797.63 983.5,-801.51 988.07,-806.81"/>
</g>
<!-- Node9 -->
<g id="node9" class="node">
<title>Node9</title>
<g id="a_node9"><a xlink:href="group__grp__global__force.html#ga38c9d3c50bd043707fefa5137c9dbf44" target="_top" xlink:title="Calculates , where &#160;and , and .">
<polygon fill="white" stroke="black" points="560,-436.5 560,-455.5 604,-455.5 604,-436.5 560,-436.5"/>
<text text-anchor="middle" x="582" y="-443.5" font-family="Helvetica,sans-Serif" font-size="10.00">dforce</text>
</a>
</g>
</g>
<!-- Node8&#45;&gt;Node9 -->
<g id="edge11" class="edge">
<title>Node8&#45;&gt;Node9</title>
<path fill="none" stroke="midnightblue" d="M657.5,-768.53C642.72,-704.55 595.98,-502.19 585.22,-455.62"/>
<polygon fill="midnightblue" stroke="midnightblue" points="654.14,-769.54 659.8,-778.5 660.96,-767.96 654.14,-769.54"/>
</g>
<!-- Node8&#45;&gt;Node17 -->
<g id="edge40" class="edge">
<title>Node8&#45;&gt;Node17</title>
<path fill="none" stroke="midnightblue" d="M629.88,-793.55C553.17,-806.82 359.02,-840.39 269.29,-855.91"/>
<polygon fill="midnightblue" stroke="midnightblue" points="630.65,-796.97 639.9,-791.82 629.45,-790.08 630.65,-796.97"/>
</g>
<!-- Node9&#45;&gt;Node4 -->
<g id="edge32" class="edge">
<title>Node9&#45;&gt;Node4</title>
<path fill="none" stroke="midnightblue" d="M581.05,-426.16C580.02,-387.73 572.07,-302.91 524,-257 443.97,-180.57 298.78,-177.81 244.1,-179.75"/>
<polygon fill="midnightblue" stroke="midnightblue" points="577.55,-426.54 581.18,-436.5 584.55,-426.45 577.55,-426.54"/>
</g>
<!-- Node9&#45;&gt;Node5 -->
<g id="edge39" class="edge">
<title>Node9&#45;&gt;Node5</title>
<path fill="none" stroke="midnightblue" d="M567.14,-428.1C556.55,-415.55 540.93,-399.23 524,-389 380.58,-302.35 323.29,-329 164,-277 152.16,-273.14 139.04,-268.67 128.23,-264.94"/>
<polygon fill="midnightblue" stroke="midnightblue" points="564.59,-430.53 573.62,-436.08 570.03,-426.11 564.59,-430.53"/>
</g>
<!-- Node10 -->
<g id="node10" class="node">
<title>Node10</title>
<g id="a_node10"><a xlink:href="group__grp__force__driver.html#gabbc245b3884ee8d8d3e2a52f25149f78" target="_top" xlink:title="fcn1">
<polygon fill="white" stroke="black" points="444,-398.5 444,-417.5 479,-417.5 479,-398.5 444,-398.5"/>
<text text-anchor="middle" x="461.5" y="-405.5" font-family="Helvetica,sans-Serif" font-size="10.00">fcn1</text>
</a>
</g>
</g>
<!-- Node9&#45;&gt;Node10 -->
<g id="edge12" class="edge">
<title>Node9&#45;&gt;Node10</title>
<path fill="none" stroke="midnightblue" d="M550,-436.06C527.39,-428.81 497.63,-419.26 479.29,-413.38"/>
<polygon fill="midnightblue" stroke="midnightblue" points="549.22,-439.49 559.81,-439.21 551.36,-432.82 549.22,-439.49"/>
</g>
<!-- Node11 -->
<g id="node11" class="node">
<title>Node11</title>
<g id="a_node11"><a xlink:href="group__grp__force__driver.html#gaec14f81fbdbedafbc4189489ec8ae178" target="_top" xlink:title="Employs Newton method to find , where &#160;and &#160;is defined in dforce() .">
<polygon fill="white" stroke="black" points="315,-427.5 315,-446.5 363,-446.5 363,-427.5 315,-427.5"/>
<text text-anchor="middle" x="339" y="-434.5" font-family="Helvetica,sans-Serif" font-size="10.00">newton</text>
</a>
</g>
</g>
<!-- Node9&#45;&gt;Node11 -->
<g id="edge33" class="edge">
<title>Node9&#45;&gt;Node11</title>
<path fill="none" stroke="midnightblue" d="M549.55,-444.83C500.41,-442.99 406.53,-439.48 363.09,-437.86"/>
<polygon fill="midnightblue" stroke="midnightblue" points="549.49,-448.33 559.61,-445.2 549.75,-441.33 549.49,-448.33"/>
</g>
<!-- Node12 -->
<g id="node12" class="node">
<title>Node12</title>
<g id="a_node12"><a xlink:href="group__grp__force__driver.html#ga8ccd6c7d901872702521d0a0edf95412" target="_top" xlink:title="fcn2">
<polygon fill="white" stroke="black" points="87,-427.5 87,-446.5 122,-446.5 122,-427.5 87,-427.5"/>
<text text-anchor="middle" x="104.5" y="-434.5" font-family="Helvetica,sans-Serif" font-size="10.00">fcn2</text>
</a>
</g>
</g>
<!-- Node9&#45;&gt;Node12 -->
<g id="edge21" class="edge">
<title>Node9&#45;&gt;Node12</title>
<path fill="none" stroke="midnightblue" d="M569.27,-463.74C559.12,-477.34 543.09,-495.09 524,-503 376.18,-564.23 309.91,-568.65 164,-503 138.31,-491.44 119.33,-462.4 110.68,-446.98"/>
<polygon fill="midnightblue" stroke="midnightblue" points="572.15,-465.73 575.07,-455.54 566.44,-461.69 572.15,-465.73"/>
</g>
<!-- Node14 -->
<g id="node14" class="node">
<title>Node14</title>
<g id="a_node14"><a xlink:href="dfp200_8f90.html#a6aca59cf350d7b1941f8389d50945a43" target="_top" xlink:title="get LU Beltrami matrices">
<polygon fill="white" stroke="black" points="399,-702.5 399,-721.5 524,-721.5 524,-702.5 399,-702.5"/>
<text text-anchor="middle" x="461.5" y="-709.5" font-family="Helvetica,sans-Serif" font-size="10.00">get_lu_beltrami_matrices</text>
</a>
</g>
</g>
<!-- Node9&#45;&gt;Node14 -->
<g id="edge22" class="edge">
<title>Node9&#45;&gt;Node14</title>
<path fill="none" stroke="midnightblue" d="M578.97,-465.8C573.19,-518.34 555.06,-659.59 524,-693 520.42,-696.85 516.09,-699.92 511.39,-702.38"/>
<polygon fill="midnightblue" stroke="midnightblue" points="582.46,-466.05 580.04,-455.74 575.5,-465.31 582.46,-466.05"/>
</g>
<!-- Node19 -->
<g id="node19" class="node">
<title>Node19</title>
<g id="a_node19"><a xlink:href="group__grp__conjugate__gradient.html#ga4d8415226e62a9fdb42b0fd0b464251e" target="_top" xlink:title="Returns the energy functional and it&#39;s derivatives with respect to geometry.">
<polygon fill="white" stroke="black" points="437.5,-474.5 437.5,-493.5 485.5,-493.5 485.5,-474.5 437.5,-474.5"/>
<text text-anchor="middle" x="461.5" y="-481.5" font-family="Helvetica,sans-Serif" font-size="10.00">pc00ab</text>
</a>
</g>
</g>
<!-- Node9&#45;&gt;Node19 -->
<g id="edge34" class="edge">
<title>Node9&#45;&gt;Node19</title>
<path fill="none" stroke="midnightblue" d="M550.13,-455.9C529.92,-462.38 503.94,-470.71 485.53,-476.62"/>
<polygon fill="midnightblue" stroke="midnightblue" points="551.36,-459.18 559.81,-452.79 549.22,-452.51 551.36,-459.18"/>
</g>
<!-- Node21 -->
<g id="node21" class="node">
<title>Node21</title>
<g id="a_node21"><a xlink:href="namespaceallglobal.html#ad32ae6194892fe7d876622a6455189e2" target="_top" xlink:title="The master node reads the input namelist and sets various internal variables. The relevant quantities...">
<polygon fill="white" stroke="black" points="420,-266.5 420,-285.5 503,-285.5 503,-266.5 420,-266.5"/>
<text text-anchor="middle" x="461.5" y="-273.5" font-family="Helvetica,sans-Serif" font-size="10.00">allglobal::readin</text>
</a>
</g>
</g>
<!-- Node9&#45;&gt;Node21 -->
<g id="edge36" class="edge">
<title>Node9&#45;&gt;Node21</title>
<path fill="none" stroke="midnightblue" d="M569.98,-427.53C558.84,-409.11 540.88,-380.16 524,-356 505.74,-329.87 482.36,-300.46 470.37,-285.64"/>
<polygon fill="midnightblue" stroke="midnightblue" points="567.13,-429.59 575.29,-436.36 573.13,-425.98 567.13,-429.59"/>
</g>
<!-- Node10&#45;&gt;Node11 -->
<g id="edge13" class="edge">
<title>Node10&#45;&gt;Node11</title>
<path fill="none" stroke="midnightblue" d="M433.69,-408.73C410.87,-412.65 378.68,-420.63 358.59,-427.49"/>
<polygon fill="midnightblue" stroke="midnightblue" points="434.39,-412.16 443.74,-407.19 433.33,-405.24 434.39,-412.16"/>
</g>
<!-- Node11&#45;&gt;Node5 -->
<g id="edge20" class="edge">
<title>Node11&#45;&gt;Node5</title>
<path fill="none" stroke="midnightblue" d="M309.34,-422.75C273.2,-403.99 210.22,-368.59 164,-328 142.16,-308.82 121.81,-281.03 111.86,-266.56"/>
<polygon fill="midnightblue" stroke="midnightblue" points="307.85,-425.92 318.35,-427.37 311.05,-419.7 307.85,-425.92"/>
</g>
<!-- Node11&#45;&gt;Node10 -->
<g id="edge14" class="edge">
<title>Node11&#45;&gt;Node10</title>
<path fill="none" stroke="midnightblue" d="M373.21,-435.11C396.11,-430.77 425.58,-423.26 443.74,-416.88"/>
<polygon fill="midnightblue" stroke="midnightblue" points="372.46,-431.69 363.22,-436.87 373.67,-438.59 372.46,-431.69"/>
</g>
<!-- Node11&#45;&gt;Node12 -->
<g id="edge15" class="edge">
<title>Node11&#45;&gt;Node12</title>
<path fill="none" stroke="midnightblue" d="M304.79,-432.1C254.32,-429.28 160.17,-429.68 122.1,-433.31"/>
<polygon fill="midnightblue" stroke="midnightblue" points="304.65,-435.6 314.86,-432.76 305.1,-428.62 304.65,-435.6"/>
</g>
<!-- Node13 -->
<g id="node13" class="node">
<title>Node13</title>
<g id="a_node13"><a xlink:href="group__grp__force__driver.html#ga382822b303cbf8c56d6f54dcb379caf2" target="_top" xlink:title="read or write force&#45;derivative matrix">
<polygon fill="white" stroke="black" points="189,-474.5 189,-493.5 254,-493.5 254,-474.5 189,-474.5"/>
<text text-anchor="middle" x="221.5" y="-481.5" font-family="Helvetica,sans-Serif" font-size="10.00">writereadgf</text>
</a>
</g>
</g>
<!-- Node11&#45;&gt;Node13 -->
<g id="edge17" class="edge">
<title>Node11&#45;&gt;Node13</title>
<path fill="none" stroke="midnightblue" d="M305.39,-444.13C282.07,-452.42 251.95,-465.25 235.19,-474.42"/>
<polygon fill="midnightblue" stroke="midnightblue" points="306.57,-447.42 314.9,-440.87 304.31,-440.79 306.57,-447.42"/>
</g>
<!-- Node12&#45;&gt;Node11 -->
<g id="edge16" class="edge">
<title>Node12&#45;&gt;Node11</title>
<path fill="none" stroke="midnightblue" d="M132.2,-441.5C178.16,-444.58 271.47,-444.5 314.86,-441.24"/>
<polygon fill="midnightblue" stroke="midnightblue" points="132.35,-438 122.1,-440.69 131.79,-444.97 132.35,-438"/>
</g>
<!-- Node13&#45;&gt;Node11 -->
<g id="edge19" class="edge">
<title>Node13&#45;&gt;Node11</title>
<path fill="none" stroke="midnightblue" d="M263.74,-473.72C285.39,-465.58 310.43,-454.71 325.2,-446.64"/>
<polygon fill="midnightblue" stroke="midnightblue" points="262.27,-470.53 254.07,-477.24 264.67,-477.1 262.27,-470.53"/>
</g>
<!-- Node13&#45;&gt;Node12 -->
<g id="edge18" class="edge">
<title>Node13&#45;&gt;Node12</title>
<path fill="none" stroke="midnightblue" d="M187.82,-470.64C166.35,-461.87 139.16,-450.76 122.05,-443.76"/>
<polygon fill="midnightblue" stroke="midnightblue" points="186.65,-473.95 197.23,-474.49 189.3,-467.47 186.65,-473.95"/>
</g>
<!-- Node15 -->
<g id="node15" class="node">
<title>Node15</title>
<g id="a_node15"><a xlink:href="dfp200_8f90.html#a55ea75395f8c71731451e1add3720c7e" target="_top" xlink:title="Given the field consistent with the constraints and the geometry, computes local quantites related to...">
<polygon fill="white" stroke="black" points="316,-702.5 316,-721.5 362,-721.5 362,-702.5 316,-702.5"/>
<text text-anchor="middle" x="339" y="-709.5" font-family="Helvetica,sans-Serif" font-size="10.00">dfp200</text>
</a>
</g>
</g>
<!-- Node14&#45;&gt;Node15 -->
<g id="edge23" class="edge">
<title>Node14&#45;&gt;Node15</title>
<path fill="none" stroke="midnightblue" d="M388.69,-705.36C379.05,-705.55 369.82,-705.98 362.04,-706.64"/>
<polygon fill="midnightblue" stroke="midnightblue" points="388.88,-708.86 398.84,-705.25 388.8,-701.86 388.88,-708.86"/>
</g>
<!-- Node15&#45;&gt;Node9 -->
<g id="edge24" class="edge">
<title>Node15&#45;&gt;Node9</title>
<path fill="none" stroke="midnightblue" d="M357.39,-695.13C369.13,-683.77 384.97,-668.46 399,-655 454.36,-601.91 475.34,-595.29 524,-536 546.18,-508.98 566.68,-472.8 575.89,-455.71"/>
<polygon fill="midnightblue" stroke="midnightblue" points="354.75,-692.82 350,-702.3 359.62,-697.85 354.75,-692.82"/>
</g>
<!-- Node15&#45;&gt;Node14 -->
<g id="edge29" class="edge">
<title>Node15&#45;&gt;Node14</title>
<path fill="none" stroke="midnightblue" d="M372.28,-718.06C380.52,-718.5 389.66,-718.73 398.84,-718.75"/>
<polygon fill="midnightblue" stroke="midnightblue" points="372.26,-714.55 362.04,-717.36 371.78,-721.53 372.26,-714.55"/>
</g>
<!-- Node15&#45;&gt;Node16 -->
<g id="edge25" class="edge">
<title>Node15&#45;&gt;Node16</title>
<path fill="none" stroke="midnightblue" d="M313.31,-698.23C297.49,-691.83 276.69,-684.76 258.99,-679.68"/>
<polygon fill="midnightblue" stroke="midnightblue" points="312.33,-701.61 322.9,-702.3 315.07,-695.17 312.33,-701.61"/>
</g>
<!-- Node15&#45;&gt;Node17 -->
<g id="edge27" class="edge">
<title>Node15&#45;&gt;Node17</title>
<path fill="none" stroke="midnightblue" d="M320.76,-729.71C293.96,-762.07 243.72,-828.85 227.61,-854.28"/>
<polygon fill="midnightblue" stroke="midnightblue" points="323.57,-731.81 327.34,-721.91 318.22,-727.3 323.57,-731.81"/>
</g>
<!-- Node18 -->
<g id="node18" class="node">
<title>Node18</title>
<g id="a_node18"><a xlink:href="dfp200_8f90.html#a5e56f1f4b1e6df11a9cffa6237c37469" target="_top" xlink:title="This routine evaluates the value of the magnetic field once the interface is perturbed using matrix p...">
<polygon fill="white" stroke="black" points="164,-702.5 164,-721.5 279,-721.5 279,-702.5 164,-702.5"/>
<text text-anchor="middle" x="221.5" y="-709.5" font-family="Helvetica,sans-Serif" font-size="10.00">get_perturbed_solution</text>
</a>
</g>
</g>
<!-- Node15&#45;&gt;Node18 -->
<g id="edge30" class="edge">
<title>Node15&#45;&gt;Node18</title>
<path fill="none" stroke="midnightblue" d="M305.51,-705.86C297.3,-705.44 288.25,-705.23 279.23,-705.25"/>
<polygon fill="midnightblue" stroke="midnightblue" points="305.52,-709.37 315.73,-706.54 305.99,-702.38 305.52,-709.37"/>
</g>
<!-- Node16&#45;&gt;Node15 -->
<g id="edge26" class="edge">
<title>Node16&#45;&gt;Node15</title>
<path fill="none" stroke="midnightblue" d="M246.59,-687.53C266.96,-695.81 295.9,-705.28 315.73,-710.13"/>
<polygon fill="midnightblue" stroke="midnightblue" points="247.93,-684.3 237.36,-683.59 245.19,-690.74 247.93,-684.3"/>
</g>
<!-- Node17&#45;&gt;Node15 -->
<g id="edge28" class="edge">
<title>Node17&#45;&gt;Node15</title>
<path fill="none" stroke="midnightblue" d="M239.68,-846.36C266.38,-814.13 316.45,-747.58 332.74,-721.96"/>
<polygon fill="midnightblue" stroke="midnightblue" points="236.9,-844.23 233.12,-854.13 242.25,-848.75 236.9,-844.23"/>
</g>
<!-- Node18&#45;&gt;Node15 -->
<g id="edge31" class="edge">
<title>Node18&#45;&gt;Node15</title>
<path fill="none" stroke="midnightblue" d="M289.23,-718.68C298.76,-718.52 307.95,-718.11 315.73,-717.46"/>
<polygon fill="midnightblue" stroke="midnightblue" points="289.21,-715.18 279.23,-718.75 289.26,-722.18 289.21,-715.18"/>
</g>
<!-- Node20 -->
<g id="node20" class="node">
<title>Node20</title>
<g id="a_node20"><a xlink:href="group__grp__conjugate__gradient.html#ga25a3bae2ff2ee0469b045de0d033398b" target="_top" xlink:title="Use preconditioned conjugate gradient method to find minimum of energy functional.">
<polygon fill="white" stroke="black" points="315,-474.5 315,-493.5 363,-493.5 363,-474.5 315,-474.5"/>
<text text-anchor="middle" x="339" y="-481.5" font-family="Helvetica,sans-Serif" font-size="10.00">pc00aa</text>
</a>
</g>
</g>
<!-- Node19&#45;&gt;Node20 -->
<g id="edge35" class="edge">
<title>Node19&#45;&gt;Node20</title>
<path fill="none" stroke="midnightblue" d="M427.16,-484C406.81,-484 381.31,-484 363.16,-484"/>
<polygon fill="midnightblue" stroke="midnightblue" points="427.27,-487.5 437.27,-484 427.27,-480.5 427.27,-487.5"/>
</g>
<!-- Node21&#45;&gt;Node3 -->
<g id="edge37" class="edge">
<title>Node21&#45;&gt;Node3</title>
<path fill="none" stroke="midnightblue" d="M446.54,-258.39C420.94,-226.1 367.31,-158.45 347.53,-133.5"/>
<polygon fill="midnightblue" stroke="midnightblue" points="444.01,-260.83 452.96,-266.49 449.49,-256.48 444.01,-260.83"/>
</g>
<!-- Node21&#45;&gt;Node5 -->
<g id="edge38" class="edge">
<title>Node21&#45;&gt;Node5</title>
<path fill="none" stroke="midnightblue" d="M409.66,-273.28C331.37,-269.09 184.44,-261.22 128.2,-258.21"/>
<polygon fill="midnightblue" stroke="midnightblue" points="409.6,-276.78 419.78,-273.82 409.98,-269.79 409.6,-276.78"/>
</g>
<!-- Node23 -->
<g id="node23" class="node">
<title>Node23</title>
<g id="a_node23"><a xlink:href="group__grp__solver__driver.html#gacad623d4c5c006e9ad10116372f92ad3" target="_top" xlink:title="Constructs Beltrami field in given volume consistent with flux, helicity, rotational&#45;transform and/or...">
<polygon fill="white" stroke="black" points="762.5,-854.5 762.5,-873.5 813.5,-873.5 813.5,-854.5 762.5,-854.5"/>
<text text-anchor="middle" x="788" y="-861.5" font-family="Helvetica,sans-Serif" font-size="10.00">ma02aa</text>
</a>
</g>
</g>
<!-- Node22&#45;&gt;Node23 -->
<g id="edge43" class="edge">
<title>Node22&#45;&gt;Node23</title>
<path fill="none" stroke="midnightblue" d="M879.6,-864C858.67,-864 832.55,-864 813.74,-864"/>
<polygon fill="midnightblue" stroke="midnightblue" points="879.71,-867.5 889.71,-864 879.71,-860.5 879.71,-867.5"/>
</g>
<!-- Node23&#45;&gt;Node8 -->
<g id="edge44" class="edge">
<title>Node23&#45;&gt;Node8</title>
<path fill="none" stroke="midnightblue" d="M762.63,-848.94C737.9,-833.66 700.36,-810.47 679.45,-797.55"/>
<polygon fill="midnightblue" stroke="midnightblue" points="761.08,-852.1 771.42,-854.37 764.75,-846.14 761.08,-852.1"/>
</g>
<!-- Node24&#45;&gt;Node18 -->
<g id="edge47" class="edge">
<title>Node24&#45;&gt;Node18</title>
<path fill="none" stroke="midnightblue" d="M1175.95,-899.47C1144.2,-926.67 1075.17,-978 1006.5,-978 1006.5,-978 1006.5,-978 662,-978 459.99,-978 271.4,-769.77 230.62,-721.78"/>
<polygon fill="midnightblue" stroke="midnightblue" points="1178.34,-902.03 1183.55,-892.81 1173.72,-896.77 1178.34,-902.03"/>
</g>
<!-- Node24&#45;&gt;Node22 -->
<g id="edge59" class="edge">
<title>Node24&#45;&gt;Node22</title>
<path fill="none" stroke="midnightblue" d="M1174.91,-866.95C1163.75,-858.64 1148.95,-849.34 1134,-845 1066.98,-825.56 1045.97,-834.42 977,-845 964.92,-846.85 951.94,-850.67 941.12,-854.4"/>
<polygon fill="midnightblue" stroke="midnightblue" points="1172.98,-869.89 1183.01,-873.29 1177.29,-864.37 1172.98,-869.89"/>
</g>
<!-- Node25 -->
<g id="node25" class="node">
<title>Node25</title>
<g id="a_node25"><a xlink:href="intghs_8f90.html#ae10091a51178071d12004da4952104d4" target="_top" xlink:title="free workspace">
<polygon fill="white" stroke="black" points="722,-892.5 722,-911.5 854,-911.5 854,-892.5 722,-892.5"/>
<text text-anchor="middle" x="788" y="-899.5" font-family="Helvetica,sans-Serif" font-size="10.00">intghs_workspace_destroy</text>
</a>
</g>
</g>
<!-- Node24&#45;&gt;Node25 -->
<g id="edge48" class="edge">
<title>Node24&#45;&gt;Node25</title>
<path fill="none" stroke="midnightblue" d="M1163.26,-884.44C1097.62,-887.52 942.56,-894.8 854,-898.95"/>
<polygon fill="midnightblue" stroke="midnightblue" points="1163.53,-887.93 1173.36,-883.97 1163.21,-880.94 1163.53,-887.93"/>
</g>
<!-- Node26 -->
<g id="node26" class="node">
<title>Node26</title>
<g id="a_node26"><a xlink:href="intghs_8f90.html#ae8299d4625cabd90eb1398fd2cd38089" target="_top" xlink:title="init workspace">
<polygon fill="white" stroke="black" points="731.5,-930.5 731.5,-949.5 844.5,-949.5 844.5,-930.5 731.5,-930.5"/>
<text text-anchor="middle" x="788" y="-937.5" font-family="Helvetica,sans-Serif" font-size="10.00">intghs_workspace_init</text>
</a>
</g>
</g>
<!-- Node24&#45;&gt;Node26 -->
<g id="edge52" class="edge">
<title>Node24&#45;&gt;Node26</title>
<path fill="none" stroke="midnightblue" d="M1163.68,-893.24C1154.26,-896.12 1143.78,-899 1134,-901 1033.17,-921.65 913.36,-932.1 844.75,-936.78"/>
<polygon fill="midnightblue" stroke="midnightblue" points="1164.93,-896.52 1173.41,-890.17 1162.82,-889.85 1164.93,-896.52"/>
</g>
<!-- Node27 -->
<g id="node27" class="node">
<title>Node27</title>
<g id="a_node27"><a xlink:href="mp00ac_8f90.html#ae9fe335bb4916face9f9d19ce8c0f5d7" target="_top" xlink:title="compute a.x by either by coumputing it directly, or using a matrix free method">
<polygon fill="white" stroke="black" points="1077.5,-854.5 1077.5,-873.5 1126.5,-873.5 1126.5,-854.5 1077.5,-854.5"/>
<text text-anchor="middle" x="1102" y="-861.5" font-family="Helvetica,sans-Serif" font-size="10.00">matvec</text>
</a>
</g>
</g>
<!-- Node24&#45;&gt;Node27 -->
<g id="edge56" class="edge">
<title>Node24&#45;&gt;Node27</title>
<path fill="none" stroke="midnightblue" d="M1163.36,-876.6C1151.42,-874.11 1137.96,-871.3 1126.78,-868.97"/>
<polygon fill="midnightblue" stroke="midnightblue" points="1162.85,-880.07 1173.35,-878.69 1164.28,-873.22 1162.85,-880.07"/>
</g>
<!-- Node25&#45;&gt;Node8 -->
<g id="edge49" class="edge">
<title>Node25&#45;&gt;Node8</title>
<path fill="none" stroke="midnightblue" d="M728.57,-887.68C726.26,-886.26 724.06,-884.71 722,-883 694.78,-860.4 706.14,-841.09 686,-812 682.52,-806.98 678.07,-801.93 674.07,-797.76"/>
<polygon fill="midnightblue" stroke="midnightblue" points="727.42,-891.02 737.92,-892.47 730.62,-884.79 727.42,-891.02"/>
</g>
<!-- Node25&#45;&gt;Node15 -->
<g id="edge50" class="edge">
<title>Node25&#45;&gt;Node15</title>
<path fill="none" stroke="midnightblue" d="M740.98,-889.4C734.56,-887.39 728.08,-885.24 722,-883 579.14,-830.43 414.27,-749.38 359.09,-721.67"/>
<polygon fill="midnightblue" stroke="midnightblue" points="740.37,-892.87 750.95,-892.41 742.39,-886.17 740.37,-892.87"/>
</g>
<!-- Node25&#45;&gt;Node17 -->
<g id="edge51" class="edge">
<title>Node25&#45;&gt;Node17</title>
<path fill="none" stroke="midnightblue" d="M732.59,-913.4C643.57,-929.9 462,-954.49 315,-916 283.63,-907.79 251.68,-886.29 234.76,-873.65"/>
<polygon fill="midnightblue" stroke="midnightblue" points="733.29,-916.83 742.46,-911.53 731.99,-909.95 733.29,-916.83"/>
</g>
<!-- Node26&#45;&gt;Node8 -->
<g id="edge53" class="edge">
<title>Node26&#45;&gt;Node8</title>
<path fill="none" stroke="midnightblue" d="M728.19,-925.66C726.01,-924.25 723.93,-922.7 722,-921 683.24,-886.87 669.37,-822.12 665.37,-797.67"/>
<polygon fill="midnightblue" stroke="midnightblue" points="726.58,-928.77 737.04,-930.44 729.9,-922.61 726.58,-928.77"/>
</g>
<!-- Node26&#45;&gt;Node15 -->
<g id="edge54" class="edge">
<title>Node26&#45;&gt;Node15</title>
<path fill="none" stroke="midnightblue" d="M733.32,-928.13C654.06,-908.61 503.8,-863.81 399,-785 375.04,-766.98 355.04,-737.15 345.69,-721.8"/>
<polygon fill="midnightblue" stroke="midnightblue" points="732.55,-931.54 743.09,-930.49 734.2,-924.74 732.55,-931.54"/>
</g>
<!-- Node26&#45;&gt;Node17 -->
<g id="edge55" class="edge">
<title>Node26&#45;&gt;Node17</title>
<path fill="none" stroke="midnightblue" d="M763.37,-955.13C726.43,-977.3 652.04,-1016 583,-1016 583,-1016 583,-1016 460.5,-1016 354.11,-1016 257.08,-906.78 229.98,-873.51"/>
<polygon fill="midnightblue" stroke="midnightblue" points="765.66,-957.84 772.35,-949.63 762,-951.87 765.66,-957.84"/>
</g>
<!-- Node28 -->
<g id="node28" class="node">
<title>Node28</title>
<g id="a_node28"><a xlink:href="mp00ac_8f90.html#a304edac43f63d39dda4419b4d044eac5" target="_top" xlink:title="run GMRES">
<polygon fill="white" stroke="black" points="977,-854.5 977,-873.5 1034,-873.5 1034,-854.5 977,-854.5"/>
<text text-anchor="middle" x="1005.5" y="-861.5" font-family="Helvetica,sans-Serif" font-size="10.00">rungmres</text>
</a>
</g>
</g>
<!-- Node27&#45;&gt;Node28 -->
<g id="edge57" class="edge">
<title>Node27&#45;&gt;Node28</title>
<path fill="none" stroke="midnightblue" d="M1067.14,-864C1056.27,-864 1044.38,-864 1034.02,-864"/>
<polygon fill="midnightblue" stroke="midnightblue" points="1067.15,-867.5 1077.15,-864 1067.15,-860.5 1067.15,-867.5"/>
</g>
<!-- Node28&#45;&gt;Node22 -->
<g id="edge58" class="edge">
<title>Node28&#45;&gt;Node22</title>
<path fill="none" stroke="midnightblue" d="M966.46,-864C957.9,-864 949.03,-864 941.19,-864"/>
<polygon fill="midnightblue" stroke="midnightblue" points="966.66,-867.5 976.66,-864 966.66,-860.5 966.66,-867.5"/>
</g>
<!-- Node29&#45;&gt;Node5 -->
<g id="edge63" class="edge">
<title>Node29&#45;&gt;Node5</title>
<path fill="none" stroke="midnightblue" d="M759.23,-670.16C649.77,-654.49 249.89,-591.9 164,-503 130.07,-467.88 110.93,-307.98 106.5,-266.73"/>
<polygon fill="midnightblue" stroke="midnightblue" points="759.07,-673.67 769.46,-671.61 760.05,-666.74 759.07,-673.67"/>
</g>
<!-- Node29&#45;&gt;Node8 -->
<g id="edge61" class="edge">
<title>Node29&#45;&gt;Node8</title>
<path fill="none" stroke="midnightblue" d="M759.49,-676.99C746.92,-679.54 732.53,-684.26 722,-693 694.78,-715.6 706.14,-734.91 686,-764 682.52,-769.02 678.07,-774.07 674.07,-778.24"/>
<polygon fill="midnightblue" stroke="midnightblue" points="760.2,-680.42 769.49,-675.32 759.05,-673.51 760.2,-680.42"/>
</g>
<!-- Node29&#45;&gt;Node17 -->
<g id="edge62" class="edge">
<title>Node29&#45;&gt;Node17</title>
<path fill="none" stroke="midnightblue" d="M759.31,-681.79C747.74,-685.13 734.18,-689.14 722,-693 539.83,-750.77 323.06,-827.87 248.89,-854.49"/>
<polygon fill="midnightblue" stroke="midnightblue" points="760.62,-685.06 769.28,-678.95 758.7,-678.33 760.62,-685.06"/>
</g>
<!-- Node30&#45;&gt;Node15 -->
<g id="edge65" class="edge">
<title>Node30&#45;&gt;Node15</title>
<path fill="none" stroke="midnightblue" d="M431.15,-682.99C420.96,-686.13 409.47,-689.7 399,-693 386.79,-696.85 373.18,-701.23 362.11,-704.81"/>
<polygon fill="midnightblue" stroke="midnightblue" points="432.29,-686.3 440.82,-680.02 430.23,-679.61 432.29,-686.3"/>
</g>
<!-- Node30&#45;&gt;Node16 -->
<g id="edge66" class="edge">
<title>Node30&#45;&gt;Node16</title>
<path fill="none" stroke="midnightblue" d="M430.61,-674C386.87,-674 305.54,-674 258.55,-674"/>
<polygon fill="midnightblue" stroke="midnightblue" points="430.62,-677.5 440.62,-674 430.62,-670.5 430.62,-677.5"/>
</g>
<!-- Node32 -->
<g id="node32" class="node">
<title>Node32</title>
<g id="a_node32"><a xlink:href="group__grp__integrals.html#ga400af9e33dd5465ff9a4bba9fbf91108" target="_top" xlink:title="Calculates volume integrals of Chebyshev polynomials and metric element products.">
<polygon fill="white" stroke="black" points="762.5,-702.5 762.5,-721.5 813.5,-721.5 813.5,-702.5 762.5,-702.5"/>
<text text-anchor="middle" x="788" y="-709.5" font-family="Helvetica,sans-Serif" font-size="10.00">ma00aa</text>
</a>
</g>
</g>
<!-- Node31&#45;&gt;Node32 -->
<g id="edge68" class="edge">
<title>Node31&#45;&gt;Node32</title>
<path fill="none" stroke="midnightblue" d="M1163.29,-712C1085.89,-712 884,-712 813.62,-712"/>
<polygon fill="midnightblue" stroke="midnightblue" points="1163.36,-715.5 1173.36,-712 1163.36,-708.5 1163.36,-715.5"/>
</g>
<!-- Node32&#45;&gt;Node8 -->
<g id="edge69" class="edge">
<title>Node32&#45;&gt;Node8</title>
<path fill="none" stroke="midnightblue" d="M762.63,-727.06C737.9,-742.34 700.36,-765.53 679.45,-778.45"/>
<polygon fill="midnightblue" stroke="midnightblue" points="764.75,-729.86 771.42,-721.63 761.08,-723.9 764.75,-729.86"/>
</g>
<!-- Node32&#45;&gt;Node14 -->
<g id="edge70" class="edge">
<title>Node32&#45;&gt;Node14</title>
<path fill="none" stroke="midnightblue" d="M752.17,-712C697.76,-712 591.83,-712 524.25,-712"/>
<polygon fill="midnightblue" stroke="midnightblue" points="752.34,-715.5 762.34,-712 752.34,-708.5 752.34,-715.5"/>
</g>
<!-- Node33&#45;&gt;Node3 -->
<g id="edge79" class="edge">
<title>Node33&#45;&gt;Node3</title>
<path fill="none" stroke="midnightblue" d="M769.28,-315.41C738.12,-287.05 670.49,-229.01 604,-195 520.12,-152.1 407.6,-133.04 361.28,-126.64"/>
<polygon fill="midnightblue" stroke="midnightblue" points="767,-318.07 776.73,-322.27 771.74,-312.92 767,-318.07"/>
</g>
<!-- Node34 -->
<g id="node34" class="node">
<title>Node34</title>
<g id="a_node34"><a xlink:href="group__grp__packing.html#ga094e630c02686dd178749eb1efbf13fb" target="_top" xlink:title="Packs, and unpacks, geometrical degrees of freedom; and sets coordinate axis.">
<polygon fill="white" stroke="black" points="641,-322.5 641,-341.5 685,-341.5 685,-322.5 641,-322.5"/>
<text text-anchor="middle" x="663" y="-329.5" font-family="Helvetica,sans-Serif" font-size="10.00">packxi</text>
</a>
</g>
</g>
<!-- Node33&#45;&gt;Node34 -->
<g id="edge73" class="edge">
<title>Node33&#45;&gt;Node34</title>
<path fill="none" stroke="midnightblue" d="M757.03,-332C734.85,-332 705.18,-332 685.37,-332"/>
<polygon fill="midnightblue" stroke="midnightblue" points="757.24,-335.5 767.24,-332 757.24,-328.5 757.24,-335.5"/>
</g>
<!-- Node34&#45;&gt;Node4 -->
<g id="edge77" class="edge">
<title>Node34&#45;&gt;Node4</title>
<path fill="none" stroke="midnightblue" d="M656.1,-312.55C647.95,-288.72 631.12,-248.49 604,-224 575.46,-198.22 561.37,-200.1 524,-191 421.72,-166.08 294.19,-174.13 244.11,-178.74"/>
<polygon fill="midnightblue" stroke="midnightblue" points="652.82,-313.8 659.23,-322.23 659.48,-311.64 652.82,-313.8"/>
</g>
<!-- Node34&#45;&gt;Node5 -->
<g id="edge78" class="edge">
<title>Node34&#45;&gt;Node5</title>
<path fill="none" stroke="midnightblue" d="M642.59,-315.71C608.48,-288.79 534.55,-238 462.5,-238 462.5,-238 462.5,-238 338,-238 260.85,-238 169.77,-248.52 128.22,-253.91"/>
<polygon fill="midnightblue" stroke="midnightblue" points="640.77,-318.74 650.75,-322.29 645.16,-313.29 640.77,-318.74"/>
</g>
<!-- Node34&#45;&gt;Node9 -->
<g id="edge74" class="edge">
<title>Node34&#45;&gt;Node9</title>
<path fill="none" stroke="midnightblue" d="M649.45,-350.11C632.52,-374.55 602.94,-417.23 589.72,-436.31"/>
<polygon fill="midnightblue" stroke="midnightblue" points="652.45,-351.93 655.26,-341.72 646.69,-347.95 652.45,-351.93"/>
</g>
<!-- Node34&#45;&gt;Node10 -->
<g id="edge75" class="edge">
<title>Node34&#45;&gt;Node10</title>
<path fill="none" stroke="midnightblue" d="M631.3,-343.7C588.55,-359.98 512.58,-388.92 479.11,-401.67"/>
<polygon fill="midnightblue" stroke="midnightblue" points="632.55,-346.96 640.65,-340.13 630.06,-340.42 632.55,-346.96"/>
</g>
<!-- Node34&#45;&gt;Node12 -->
<g id="edge76" class="edge">
<title>Node34&#45;&gt;Node12</title>
<path fill="none" stroke="midnightblue" d="M630.98,-337.35C610.75,-340.88 583.79,-345.62 560,-350 388.94,-381.46 182.15,-421.93 122.4,-433.67"/>
<polygon fill="midnightblue" stroke="midnightblue" points="631.63,-340.79 640.89,-335.63 630.43,-333.9 631.63,-340.79"/>
</g>
<!-- Node36 -->
<g id="node36" class="node">
<title>Node36</title>
<g id="a_node36"><a xlink:href="group__grp__smooth__boundary.html#gaea7690bb953a85a409946f2c6ad6a640" target="_top" xlink:title="Compute vacuum magnetic scalar potential (?)">
<polygon fill="white" stroke="black" points="1070,-0.5 1070,-19.5 1134,-19.5 1134,-0.5 1070,-0.5"/>
<text text-anchor="middle" x="1102" y="-7.5" font-family="Helvetica,sans-Serif" font-size="10.00">vacuumphi</text>
</a>
</g>
</g>
<!-- Node35&#45;&gt;Node36 -->
<g id="edge81" class="edge">
<title>Node35&#45;&gt;Node36</title>
<path fill="none" stroke="midnightblue" d="M1159.5,-3.43C1151.23,-3.16 1142.44,-3.2 1134.32,-3.55"/>
<polygon fill="midnightblue" stroke="midnightblue" points="1159.45,-6.93 1169.61,-3.94 1159.8,0.06 1159.45,-6.93"/>
</g>
<!-- Node36&#45;&gt;Node35 -->
<g id="edge82" class="edge">
<title>Node36&#45;&gt;Node35</title>
<path fill="none" stroke="midnightblue" d="M1144.59,-16.73C1153.15,-16.83 1161.9,-16.6 1169.61,-16.06"/>
<polygon fill="midnightblue" stroke="midnightblue" points="1144.41,-13.22 1134.32,-16.45 1144.22,-20.22 1144.41,-13.22"/>
</g>
</g>
</svg>
