<?xml version="1.0" encoding="UTF-8" standalone="no"?>
<!DOCTYPE svg PUBLIC "-//W3C//DTD SVG 1.1//EN"
 "http://www.w3.org/Graphics/SVG/1.1/DTD/svg11.dtd">
<!-- Generated by graphviz version 2.47.0 (20210407.0042)
 -->
<!-- Title: Internal Variables Pages: 1 -->
<svg width="419pt" height="740pt"
 viewBox="0.00 0.00 419.00 739.50" xmlns="http://www.w3.org/2000/svg" xmlns:xlink="http://www.w3.org/1999/xlink">
<g id="graph0" class="graph" transform="scale(1 1) rotate(0) translate(4 735.5)">
<title>Internal Variables</title>
<polygon fill="white" stroke="transparent" points="-4,4 -4,-735.5 415,-735.5 415,4 -4,4"/>
<!-- Node10 -->
<g id="node1" class="node">
<title>Node10</title>
<g id="a_node1"><a xlink:href="group__grp__covar__field__ifaces.html" target="_top" xlink:title="The covariant field.">
<polygon fill="white" stroke="black" points="397,-731.5 279,-731.5 279,-690.5 397,-690.5 397,-731.5"/>
<text text-anchor="start" x="287" y="-719.5" font-family="Helvetica,sans-Serif" font-size="10.00">Covariant field on</text>
<text text-anchor="start" x="287" y="-708.5" font-family="Helvetica,sans-Serif" font-size="10.00"> interfaces: Btemn,</text>
<text text-anchor="middle" x="338" y="-697.5" font-family="Helvetica,sans-Serif" font-size="10.00"> Bzemn, Btomn, Bzomn</text>
</a>
</g>
</g>
<!-- Node18 -->
<g id="node2" class="node">
<title>Node18</title>
<g id="a_node2"><a xlink:href="group__grp__misc.html" target="_top" xlink:title="The following are miscellaneous flags required for the virtual casing field, external (vacuum) field ...">
<polygon fill="white" stroke="black" points="377.5,-672.5 298.5,-672.5 298.5,-653.5 377.5,-653.5 377.5,-672.5"/>
<text text-anchor="middle" x="338" y="-660.5" font-family="Helvetica,sans-Serif" font-size="10.00">Miscellaneous</text>
</a>
</g>
</g>
<!-- Node16 -->
<g id="node3" class="node">
<title>Node16</title>
<g id="a_node3"><a xlink:href="group__grp__volints.html" target="_top" xlink:title=" ">
<polygon fill="white" stroke="black" points="409.5,-635 266.5,-635 266.5,-605 409.5,-605 409.5,-635"/>
<text text-anchor="start" x="274.5" y="-623" font-family="Helvetica,sans-Serif" font-size="10.00">Volume integrals: lBBintegral,</text>
<text text-anchor="middle" x="338" y="-612" font-family="Helvetica,sans-Serif" font-size="10.00"> lABintegral</text>
</a>
</g>
</g>
<!-- Node8 -->
<g id="node4" class="node">
<title>Node8</title>
<g id="a_node4"><a xlink:href="group__grp__field__matrices.html" target="_top" xlink:title=" ">
<polygon fill="white" stroke="black" points="408,-587 268,-587 268,-557 408,-557 408,-587"/>
<text text-anchor="start" x="276" y="-575" font-family="Helvetica,sans-Serif" font-size="10.00">Field matrices: dMA,</text>
<text text-anchor="middle" x="338" y="-564" font-family="Helvetica,sans-Serif" font-size="10.00"> dMB, dMC, dMD, dME, dMF</text>
</a>
</g>
</g>
<!-- Node15 -->
<g id="node5" class="node">
<title>Node15</title>
<g id="a_node5"><a xlink:href="group__grp__trig.html" target="_top" xlink:title=" ">
<polygon fill="white" stroke="black" points="392,-538.5 284,-538.5 284,-519.5 392,-519.5 392,-538.5"/>
<text text-anchor="middle" x="338" y="-526.5" font-family="Helvetica,sans-Serif" font-size="10.00">Trigonometric factors</text>
</a>
</g>
</g>
<!-- Node3 -->
<g id="node6" class="node">
<title>Node3</title>
<g id="a_node6"><a xlink:href="group__grp__fourier__repr.html" target="_top" xlink:title=" ">
<polygon fill="white" stroke="black" points="393,-501.5 283,-501.5 283,-482.5 393,-482.5 393,-501.5"/>
<text text-anchor="middle" x="338" y="-489.5" font-family="Helvetica,sans-Serif" font-size="10.00">Fourier representation</text>
</a>
</g>
</g>
<!-- Node6 -->
<g id="node7" class="node">
<title>Node6</title>
<g id="a_node7"><a xlink:href="group__grp__chebychev__metric.html" target="_top" xlink:title="These are allocated in dforce(), defined in ma00aa(), and are used in matrix() to construct the matri...">
<polygon fill="white" stroke="black" points="411,-464 265,-464 265,-434 411,-434 411,-464"/>
<text text-anchor="start" x="273" y="-452" font-family="Helvetica,sans-Serif" font-size="10.00">Volume&#45;integrated Chebyshev</text>
<text text-anchor="middle" x="338" y="-441" font-family="Helvetica,sans-Serif" font-size="10.00">&#45;metrics</text>
</a>
</g>
</g>
<!-- Node17 -->
<g id="node8" class="node">
<title>Node17</title>
<g id="a_node8"><a xlink:href="group__grp__int__global.html" target="_top" xlink:title="internal global variables; internal logical variables; default values are provided here; these may be...">
<polygon fill="white" stroke="black" points="397,-415.5 279,-415.5 279,-396.5 397,-396.5 397,-415.5"/>
<text text-anchor="middle" x="338" y="-403.5" font-family="Helvetica,sans-Serif" font-size="10.00">Internal global variables</text>
</a>
</g>
</g>
<!-- Node5 -->
<g id="node9" class="node">
<title>Node5</title>
<g id="a_node9"><a xlink:href="group__grp__fourier__transform.html" target="_top" xlink:title="The coordinate geometry and fields are mapped to/from Fourier space and real space using FFTW3....">
<polygon fill="white" stroke="black" points="387,-378.5 289,-378.5 289,-359.5 387,-359.5 387,-378.5"/>
<text text-anchor="middle" x="338" y="-366.5" font-family="Helvetica,sans-Serif" font-size="10.00">Fourier Transforms</text>
</a>
</g>
</g>
<!-- Node1 -->
<g id="node10" class="node">
<title>Node1</title>
<g id="a_node10"><a xlink:title=" ">
<polygon fill="#bfbfbf" stroke="black" points="229,-396.5 137,-396.5 137,-377.5 229,-377.5 229,-396.5"/>
<text text-anchor="middle" x="183" y="-384.5" font-family="Helvetica,sans-Serif" font-size="10.00">Internal Variables</text>
</a>
</g>
</g>
<!-- Node1&#45;&gt;Node10 -->
<g id="edge9" class="edge">
<title>Node1&#45;&gt;Node10</title>
<path fill="none" stroke="black" d="M183.73,-406.72C184.09,-458.54 192.07,-600.17 265,-682 268.94,-686.43 273.66,-690.19 278.77,-693.38"/>
<polygon fill="black" stroke="black" points="187.23,-406.58 183.76,-396.57 180.23,-406.56 187.23,-406.58"/>
</g>
<!-- Node1&#45;&gt;Node18 -->
<g id="edge17" class="edge">
<title>Node1&#45;&gt;Node18</title>
<path fill="none" stroke="black" d="M184.14,-406.89C185.59,-454.97 196.2,-578.38 265,-644 273.98,-652.57 286.35,-657.38 298.31,-660.05"/>
<polygon fill="black" stroke="black" points="187.63,-406.53 183.94,-396.6 180.63,-406.67 187.63,-406.53"/>
</g>
<!-- Node1&#45;&gt;Node16 -->
<g id="edge15" class="edge">
<title>Node1&#45;&gt;Node16</title>
<path fill="none" stroke="black" d="M186.12,-407.06C191.54,-448.32 209.64,-543.24 265,-596 268.62,-599.45 272.76,-602.41 277.17,-604.94"/>
<polygon fill="black" stroke="black" points="189.57,-406.44 184.91,-396.92 182.62,-407.27 189.57,-406.44"/>
</g>
<!-- Node1&#45;&gt;Node8 -->
<g id="edge7" class="edge">
<title>Node1&#45;&gt;Node8</title>
<path fill="none" stroke="black" d="M188.6,-406.54C197.52,-440.23 220.35,-509.38 265,-548 268.99,-551.45 273.48,-554.4 278.24,-556.94"/>
<polygon fill="black" stroke="black" points="191.92,-405.41 186.09,-396.56 185.13,-407.11 191.92,-405.41"/>
</g>
<!-- Node1&#45;&gt;Node15 -->
<g id="edge14" class="edge">
<title>Node1&#45;&gt;Node15</title>
<path fill="none" stroke="black" d="M191.19,-406.16C202.54,-433.71 227.27,-484.15 265,-511 270.67,-515.03 277.15,-518.17 283.85,-520.6"/>
<polygon fill="black" stroke="black" points="194.31,-404.52 187.38,-396.51 187.8,-407.09 194.31,-404.52"/>
</g>
<!-- Node1&#45;&gt;Node3 -->
<g id="edge2" class="edge">
<title>Node1&#45;&gt;Node3</title>
<path fill="none" stroke="black" d="M196.21,-405.05C210.44,-424.69 235.78,-455.62 265,-473 271.56,-476.9 278.91,-480.01 286.36,-482.49"/>
<polygon fill="black" stroke="black" points="198.93,-402.83 190.31,-396.66 193.2,-406.86 198.93,-402.83"/>
</g>
<!-- Node1&#45;&gt;Node6 -->
<g id="edge5" class="edge">
<title>Node1&#45;&gt;Node6</title>
<path fill="none" stroke="black" d="M211.74,-401C227.22,-408.56 246.96,-417.79 265,-425 272.71,-428.08 280.98,-431.1 289.08,-433.9"/>
<polygon fill="black" stroke="black" points="213.23,-397.83 202.71,-396.54 210.13,-404.11 213.23,-397.83"/>
</g>
<!-- Node1&#45;&gt;Node17 -->
<g id="edge16" class="edge">
<title>Node1&#45;&gt;Node17</title>
<path fill="none" stroke="black" d="M239.2,-393.86C252.1,-395.46 265.87,-397.17 278.89,-398.78"/>
<polygon fill="black" stroke="black" points="239.43,-390.36 229.08,-392.6 238.57,-397.3 239.43,-390.36"/>
</g>
<!-- Node1&#45;&gt;Node5 -->
<g id="edge4" class="edge">
<title>Node1&#45;&gt;Node5</title>
<path fill="none" stroke="black" d="M239.46,-380.48C255.61,-378.58 273.12,-376.52 288.78,-374.67"/>
<polygon fill="black" stroke="black" points="238.6,-377.05 229.08,-381.7 239.42,-384 238.6,-377.05"/>
</g>
<!-- Node14 -->
<g id="node11" class="node">
<title>Node14</title>
<g id="a_node11"><a xlink:href="group__grp__deriv__mul__polflux.html" target="_top" xlink:title=" ">
<polygon fill="white" stroke="black" points="410.5,-341.5 265.5,-341.5 265.5,-300.5 410.5,-300.5 410.5,-341.5"/>
<text text-anchor="start" x="273.5" y="-329.5" font-family="Helvetica,sans-Serif" font-size="10.00">Derivatives of multiplier</text>
<text text-anchor="start" x="273.5" y="-318.5" font-family="Helvetica,sans-Serif" font-size="10.00"> and poloidal flux with</text>
<text text-anchor="middle" x="338" y="-307.5" font-family="Helvetica,sans-Serif" font-size="10.00"> respect to geometry: dmupfdx</text>
</a>
</g>
</g>
<!-- Node1&#45;&gt;Node14 -->
<g id="edge13" class="edge">
<title>Node1&#45;&gt;Node14</title>
<path fill="none" stroke="black" d="M213.64,-373.07C228.91,-365.99 247.87,-357.36 265,-350 271.44,-347.23 278.23,-344.4 284.97,-341.63"/>
<polygon fill="black" stroke="black" points="211.78,-370.07 204.19,-377.47 214.73,-376.42 211.78,-370.07"/>
</g>
<!-- Node11 -->
<g id="node12" class="node">
<title>Node11</title>
<g id="a_node12"><a xlink:href="group__grp__covar__field__hessian.html" target="_top" xlink:title=" ">
<polygon fill="white" stroke="black" points="400,-282.5 276,-282.5 276,-241.5 400,-241.5 400,-282.5"/>
<text text-anchor="start" x="284" y="-270.5" font-family="Helvetica,sans-Serif" font-size="10.00">covariant field for</text>
<text text-anchor="start" x="284" y="-259.5" font-family="Helvetica,sans-Serif" font-size="10.00"> Hessian computation</text>
<text text-anchor="middle" x="338" y="-248.5" font-family="Helvetica,sans-Serif" font-size="10.00">: Bloweremn, Bloweromn</text>
</a>
</g>
</g>
<!-- Node1&#45;&gt;Node11 -->
<g id="edge10" class="edge">
<title>Node1&#45;&gt;Node11</title>
<path fill="none" stroke="black" d="M195.34,-368.8C209.38,-347.56 235.13,-312.62 265,-291 269.26,-287.92 273.89,-285.1 278.68,-282.54"/>
<polygon fill="black" stroke="black" points="192.21,-367.19 189.74,-377.49 198.09,-370.98 192.21,-367.19"/>
</g>
<!-- Node9 -->
<g id="node13" class="node">
<title>Node9</title>
<g id="a_node13"><a xlink:href="group__grp__force__constr.html" target="_top" xlink:title="The force vector is comprised of Bomn and Iomn.">
<polygon fill="white" stroke="black" points="394,-223.5 282,-223.5 282,-204.5 394,-204.5 394,-223.5"/>
<text text-anchor="middle" x="338" y="-211.5" font-family="Helvetica,sans-Serif" font-size="10.00">Construction of &quot;force&quot;</text>
</a>
</g>
</g>
<!-- Node1&#45;&gt;Node9 -->
<g id="edge8" class="edge">
<title>Node1&#45;&gt;Node9</title>
<path fill="none" stroke="black" d="M188.65,-367.36C197.55,-334.19 220.21,-267.28 265,-232 270.06,-228.01 275.89,-224.9 282,-222.47"/>
<polygon fill="black" stroke="black" points="185.21,-366.66 186.15,-377.22 192,-368.38 185.21,-366.66"/>
</g>
<!-- Node4 -->
<g id="node15" class="node">
<title>Node4</title>
<g id="a_node15"><a xlink:href="group__grp__iface__geom.html" target="_top" xlink:title="The Fourier harmonics of the interfaces are contained in iRbc(1:mn,0:Mvol) and iZbs(1:mn,...">
<polygon fill="white" stroke="black" points="386.5,-186 289.5,-186 289.5,-156 386.5,-156 386.5,-186"/>
<text text-anchor="start" x="297.5" y="-174" font-family="Helvetica,sans-Serif" font-size="10.00">Interface geometry</text>
<text text-anchor="middle" x="338" y="-163" font-family="Helvetica,sans-Serif" font-size="10.00">: iRbc, iZbs etc.</text>
</a>
</g>
</g>
<!-- Node1&#45;&gt;Node4 -->
<g id="edge3" class="edge">
<title>Node1&#45;&gt;Node4</title>
<path fill="none" stroke="black" d="M186.81,-367.52C193.37,-329.04 213.28,-242.86 265,-195 271.87,-188.65 280.46,-183.97 289.3,-180.53"/>
<polygon fill="black" stroke="black" points="183.34,-367.01 185.24,-377.44 190.26,-368.11 183.34,-367.01"/>
</g>
<!-- Node7 -->
<g id="node16" class="node">
<title>Node7</title>
<g id="a_node16"><a xlink:href="group__grp__vecpot.html" target="_top" xlink:title=" ">
<polygon fill="white" stroke="black" points="389,-137.5 287,-137.5 287,-96.5 389,-96.5 389,-137.5"/>
<text text-anchor="start" x="295" y="-125.5" font-family="Helvetica,sans-Serif" font-size="10.00">Vector potential and</text>
<text text-anchor="start" x="295" y="-114.5" font-family="Helvetica,sans-Serif" font-size="10.00"> the Beltrami linear</text>
<text text-anchor="middle" x="338" y="-103.5" font-family="Helvetica,sans-Serif" font-size="10.00"> system</text>
</a>
</g>
</g>
<!-- Node1&#45;&gt;Node7 -->
<g id="edge6" class="edge">
<title>Node1&#45;&gt;Node7</title>
<path fill="none" stroke="black" d="M185.29,-367.17C189.23,-322.22 204.84,-211.48 265,-147 271.1,-140.47 278.84,-135.31 286.96,-131.25"/>
<polygon fill="black" stroke="black" points="181.78,-367.1 184.5,-377.34 188.76,-367.64 181.78,-367.1"/>
</g>
<!-- Node12 -->
<g id="node17" class="node">
<title>Node12</title>
<g id="a_node17"><a xlink:href="group__grp__geomdof.html" target="_top" xlink:title="The geometrical degrees&#45;of&#45;freedom.">
<polygon fill="white" stroke="black" points="403.5,-78 272.5,-78 272.5,-48 403.5,-48 403.5,-78"/>
<text text-anchor="start" x="280.5" y="-66" font-family="Helvetica,sans-Serif" font-size="10.00">Geometrical degrees</text>
<text text-anchor="middle" x="338" y="-55" font-family="Helvetica,sans-Serif" font-size="10.00">&#45;of&#45;freedom: LGdof, NGdof</text>
</a>
</g>
</g>
<!-- Node1&#45;&gt;Node12 -->
<g id="edge11" class="edge">
<title>Node1&#45;&gt;Node12</title>
<path fill="none" stroke="black" d="M183.35,-367.38C182.69,-314.65 188.25,-168.34 265,-87 268.26,-83.55 272.02,-80.6 276.08,-78.07"/>
<polygon fill="black" stroke="black" points="179.85,-367.5 183.57,-377.42 186.85,-367.34 179.85,-367.5"/>
</g>
<!-- Node13 -->
<g id="node18" class="node">
<title>Node13</title>
<g id="a_node18"><a xlink:href="group__grp__par__deriv__mat.html" target="_top" xlink:title=" ">
<polygon fill="white" stroke="black" points="390,-30 286,-30 286,0 390,0 390,-30"/>
<text text-anchor="start" x="294" y="-18" font-family="Helvetica,sans-Serif" font-size="10.00">Parallel construction</text>
<text text-anchor="middle" x="338" y="-7" font-family="Helvetica,sans-Serif" font-size="10.00"> of derivative matrix</text>
</a>
</g>
</g>
<!-- Node1&#45;&gt;Node13 -->
<g id="edge12" class="edge">
<title>Node1&#45;&gt;Node13</title>
<path fill="none" stroke="black" d="M186.1,-366.95C193.46,-300.42 220.07,-88.31 265,-39 270.68,-32.77 278.02,-28.15 285.83,-24.73"/>
<polygon fill="black" stroke="black" points="182.58,-366.98 184.99,-377.3 189.54,-367.73 182.58,-366.98"/>
</g>
<!-- Node2 -->
<g id="node14" class="node">
<title>Node2</title>
<g id="a_node14"><a xlink:href="group__grp__global.html" target="_top" xlink:title="\definecolor{Orange}{rgb}{1.0,0.5,0.0} &#160;\definecolor{Cerulean}{rgb}{0.0,0.5,1.0}">
<polygon fill="white" stroke="black" points="101,-402 0,-402 0,-372 101,-372 101,-402"/>
<text text-anchor="start" x="8" y="-390" font-family="Helvetica,sans-Serif" font-size="10.00">Input namelists and</text>
<text text-anchor="middle" x="50.5" y="-379" font-family="Helvetica,sans-Serif" font-size="10.00"> global variables</text>
</a>
</g>
</g>
<!-- Node2&#45;&gt;Node1 -->
<g id="edge1" class="edge">
<title>Node2&#45;&gt;Node1</title>
<path fill="none" stroke="black" d="M111.47,-387C119.95,-387 128.56,-387 136.71,-387"/>
<polygon fill="black" stroke="black" points="111.21,-383.5 101.21,-387 111.21,-390.5 111.21,-383.5"/>
</g>
</g>
</svg>
