<?xml version="1.0" encoding="UTF-8" standalone="no"?>
<!DOCTYPE svg PUBLIC "-//W3C//DTD SVG 1.1//EN"
 "http://www.w3.org/Graphics/SVG/1.1/DTD/svg11.dtd">
<!-- Generated by graphviz version 2.50.0 (20220203.2022)
 -->
<!-- Title: ra00aa Pages: 1 -->
<svg width="194pt" height="52pt"
 viewBox="0.00 0.00 194.00 51.50" xmlns="http://www.w3.org/2000/svg" xmlns:xlink="http://www.w3.org/1999/xlink">
<g id="graph0" class="graph" transform="scale(1 1) rotate(0) translate(4 47.5)">
<title>ra00aa</title>
<polygon fill="white" stroke="transparent" points="-4,4 -4,-47.5 190,-47.5 190,4 -4,4"/>
<!-- Node1 -->
<g id="node1" class="node">
<title>Node1</title>
<g id="a_node1"><a xlink:title="Writes vector potential to .ext.sp.A .">
<polygon fill="#bfbfbf" stroke="black" points="0,-6 0,-25 46,-25 46,-6 0,-6"/>
<text text-anchor="middle" x="23" y="-13" font-family="Helvetica,sans-Serif" font-size="10.00">ra00aa</text>
</a>
</g>
</g>
<!-- Node1&#45;&gt;Node1 -->
<g id="edge1" class="edge">
<title>Node1&#45;&gt;Node1</title>
<path fill="none" stroke="midnightblue" d="M6.05,-25.26C-2.2,-34.07 3.45,-43.5 23,-43.5 35.22,-43.5 42.01,-39.81 43.37,-34.9"/>
<polygon fill="midnightblue" stroke="midnightblue" points="46.59,-33.51 39.95,-25.26 39.99,-35.85 46.59,-33.51"/>
</g>
<!-- Node2 -->
<g id="node2" class="node">
<title>Node2</title>
<g id="a_node2"><a xlink:href="group__grp__output.html#ga2f9e9c50084175e5174b1e1070e24d73" target="_top" xlink:title="Write the magnetic vector potential Fourier harmonics to the output file group /vector_potential .">
<polygon fill="white" stroke="black" points="82,-0.5 82,-30.5 186,-30.5 186,-0.5 82,-0.5"/>
<text text-anchor="start" x="90" y="-18.5" font-family="Helvetica,sans-Serif" font-size="10.00">sphdf5::write_vector</text>
<text text-anchor="middle" x="134" y="-7.5" font-family="Helvetica,sans-Serif" font-size="10.00">_potential</text>
</a>
</g>
</g>
<!-- Node1&#45;&gt;Node2 -->
<g id="edge2" class="edge">
<title>Node1&#45;&gt;Node2</title>
<path fill="none" stroke="midnightblue" d="M46.06,-15.5C53.56,-15.5 62.35,-15.5 71.41,-15.5"/>
<polygon fill="midnightblue" stroke="midnightblue" points="71.7,-19 81.7,-15.5 71.7,-12 71.7,-19"/>
</g>
</g>
</svg>
