<?xml version="1.0" encoding="UTF-8" standalone="no"?>
<!DOCTYPE svg PUBLIC "-//W3C//DTD SVG 1.1//EN"
 "http://www.w3.org/Graphics/SVG/1.1/DTD/svg11.dtd">
<!-- Generated by graphviz version 2.44.0 ()
 -->
<!-- Title: metrix Pages: 1 -->
<svg width="860pt" height="430pt"
 viewBox="0.00 0.00 860.00 429.51" xmlns="http://www.w3.org/2000/svg" xmlns:xlink="http://www.w3.org/1999/xlink">
<g id="graph0" class="graph" transform="scale(1 1) rotate(0) translate(4 425.51)">
<title>metrix</title>
<polygon fill="white" stroke="transparent" points="-4,4 -4,-425.51 856,-425.51 856,4 -4,4"/>
<!-- Node1 -->
<g id="node1" class="node">
<title>Node1</title>
<g id="a_node1"><a xlink:title="Calculates the metric quantities, , which are required for the energy and helicity integrals.">
<polygon fill="#bfbfbf" stroke="black" points="809,-19.5 809,-38.5 852,-38.5 852,-19.5 809,-19.5"/>
<text text-anchor="middle" x="830.5" y="-26.5" font-family="Helvetica,sans-Serif" font-size="10.00">metrix</text>
</a>
</g>
</g>
<!-- Node2 -->
<g id="node2" class="node">
<title>Node2</title>
<g id="a_node2"><a xlink:href="group__grp__integrals.html#ga400af9e33dd5465ff9a4bba9fbf91108" target="_top" xlink:title="Calculates volume integrals of Chebyshev polynomials and metric element products.">
<polygon fill="white" stroke="black" points="722,-19.5 722,-38.5 773,-38.5 773,-19.5 722,-19.5"/>
<text text-anchor="middle" x="747.5" y="-26.5" font-family="Helvetica,sans-Serif" font-size="10.00">ma00aa</text>
</a>
</g>
</g>
<!-- Node1&#45;&gt;Node2 -->
<g id="edge1" class="edge">
<title>Node1&#45;&gt;Node2</title>
<path fill="none" stroke="midnightblue" d="M798.41,-29C790,-29 781.02,-29 773.03,-29"/>
<polygon fill="midnightblue" stroke="midnightblue" points="798.64,-32.5 808.64,-29 798.64,-25.5 798.64,-32.5"/>
</g>
<!-- Node3 -->
<g id="node3" class="node">
<title>Node3</title>
<g id="a_node3"><a xlink:href="dfp100_8f90.html#a17a3ac15cc83994394f7b4cc05e5898e" target="_top" xlink:title="Split the work between MPI nodes and evaluate the global constraint.">
<polygon fill="white" stroke="black" points="640,-0.5 640,-19.5 686,-19.5 686,-0.5 640,-0.5"/>
<text text-anchor="middle" x="663" y="-7.5" font-family="Helvetica,sans-Serif" font-size="10.00">dfp100</text>
</a>
</g>
</g>
<!-- Node2&#45;&gt;Node3 -->
<g id="edge2" class="edge">
<title>Node2&#45;&gt;Node3</title>
<path fill="none" stroke="midnightblue" d="M711.84,-21.02C703.17,-19.02 694.09,-16.93 686.21,-15.11"/>
<polygon fill="midnightblue" stroke="midnightblue" points="711.22,-24.47 721.75,-23.3 712.79,-17.64 711.22,-24.47"/>
</g>
<!-- Node11 -->
<g id="node11" class="node">
<title>Node11</title>
<g id="a_node11"><a xlink:href="dfp200_8f90.html#a6aca59cf350d7b1941f8389d50945a43" target="_top" xlink:title="get LU Beltrami matrices">
<polygon fill="white" stroke="black" points="399,-38.5 399,-57.5 524,-57.5 524,-38.5 399,-38.5"/>
<text text-anchor="middle" x="461.5" y="-45.5" font-family="Helvetica,sans-Serif" font-size="10.00">get_lu_beltrami_matrices</text>
</a>
</g>
</g>
<!-- Node2&#45;&gt;Node11 -->
<g id="edge38" class="edge">
<title>Node2&#45;&gt;Node11</title>
<path fill="none" stroke="midnightblue" d="M711.58,-31.34C664.9,-34.46 581.38,-40.05 524.02,-43.88"/>
<polygon fill="midnightblue" stroke="midnightblue" points="712.05,-34.81 721.79,-30.65 711.58,-27.83 712.05,-34.81"/>
</g>
<!-- Node4 -->
<g id="node4" class="node">
<title>Node4</title>
<g id="a_node4"><a xlink:href="group__grp__global__force.html#ga38c9d3c50bd043707fefa5137c9dbf44" target="_top" xlink:title="Calculates , where &#160;and , and .">
<polygon fill="white" stroke="black" points="560,-171.5 560,-190.5 604,-190.5 604,-171.5 560,-171.5"/>
<text text-anchor="middle" x="582" y="-178.5" font-family="Helvetica,sans-Serif" font-size="10.00">dforce</text>
</a>
</g>
</g>
<!-- Node3&#45;&gt;Node4 -->
<g id="edge3" class="edge">
<title>Node3&#45;&gt;Node4</title>
<path fill="none" stroke="midnightblue" d="M653.13,-29.2C636.24,-65.76 600.02,-144.16 587.42,-171.42"/>
<polygon fill="midnightblue" stroke="midnightblue" points="656.51,-30.23 657.53,-19.68 650.15,-27.29 656.51,-30.23"/>
</g>
<!-- Node14 -->
<g id="node14" class="node">
<title>Node14</title>
<g id="a_node14"><a xlink:href="dfp200_8f90.html#a73ddf39ecc5228201fb643779e17cd36" target="_top" xlink:title="Evaluate mu and psip derivatives and store them in dmupfdx.">
<polygon fill="white" stroke="black" points="174,-0.5 174,-19.5 269,-19.5 269,-0.5 174,-0.5"/>
<text text-anchor="middle" x="221.5" y="-7.5" font-family="Helvetica,sans-Serif" font-size="10.00">evaluate_dmupfdx</text>
</a>
</g>
</g>
<!-- Node3&#45;&gt;Node14 -->
<g id="edge37" class="edge">
<title>Node3&#45;&gt;Node14</title>
<path fill="none" stroke="midnightblue" d="M629.88,-10C553.17,-10 359.02,-10 269.29,-10"/>
<polygon fill="midnightblue" stroke="midnightblue" points="629.9,-13.5 639.9,-10 629.9,-6.5 629.9,-13.5"/>
</g>
<!-- Node5 -->
<g id="node5" class="node">
<title>Node5</title>
<g id="a_node5"><a xlink:href="group__grp__force__driver.html#gabbc245b3884ee8d8d3e2a52f25149f78" target="_top" xlink:title="fcn1">
<polygon fill="white" stroke="black" points="444,-275.5 444,-294.5 479,-294.5 479,-275.5 444,-275.5"/>
<text text-anchor="middle" x="461.5" y="-282.5" font-family="Helvetica,sans-Serif" font-size="10.00">fcn1</text>
</a>
</g>
</g>
<!-- Node4&#45;&gt;Node5 -->
<g id="edge4" class="edge">
<title>Node4&#45;&gt;Node5</title>
<path fill="none" stroke="midnightblue" d="M569.3,-199.42C558.83,-214.86 542.32,-236.77 524,-252 510.3,-263.38 492.06,-272.58 479,-278.34"/>
<polygon fill="midnightblue" stroke="midnightblue" points="572.43,-201.03 575.01,-190.76 566.59,-197.18 572.43,-201.03"/>
</g>
<!-- Node6 -->
<g id="node6" class="node">
<title>Node6</title>
<g id="a_node6"><a xlink:href="group__grp__force__driver.html#gaec14f81fbdbedafbc4189489ec8ae178" target="_top" xlink:title="Employs Newton method to find , where &#160;and &#160;is defined in dforce() .">
<polygon fill="white" stroke="black" points="315,-313.5 315,-332.5 363,-332.5 363,-313.5 315,-313.5"/>
<text text-anchor="middle" x="339" y="-320.5" font-family="Helvetica,sans-Serif" font-size="10.00">newton</text>
</a>
</g>
</g>
<!-- Node4&#45;&gt;Node6 -->
<g id="edge28" class="edge">
<title>Node4&#45;&gt;Node6</title>
<path fill="none" stroke="midnightblue" d="M577.97,-200.91C572.54,-228.97 558.35,-279.49 524,-304 475.51,-338.61 400.68,-333.04 363.15,-327.34"/>
<polygon fill="midnightblue" stroke="midnightblue" points="581.47,-201.16 579.74,-190.71 574.58,-199.96 581.47,-201.16"/>
</g>
<!-- Node7 -->
<g id="node7" class="node">
<title>Node7</title>
<g id="a_node7"><a xlink:href="group__grp__force__driver.html#ga8ccd6c7d901872702521d0a0edf95412" target="_top" xlink:title="fcn2">
<polygon fill="white" stroke="black" points="87,-336.5 87,-355.5 122,-355.5 122,-336.5 87,-336.5"/>
<text text-anchor="middle" x="104.5" y="-343.5" font-family="Helvetica,sans-Serif" font-size="10.00">fcn2</text>
</a>
</g>
</g>
<!-- Node4&#45;&gt;Node7 -->
<g id="edge15" class="edge">
<title>Node4&#45;&gt;Node7</title>
<path fill="none" stroke="midnightblue" d="M579.29,-200.82C575.4,-233.09 562.97,-296.82 524,-331 402.17,-437.87 317.99,-439.51 164,-389 144.12,-382.48 125.42,-366.33 114.74,-355.79"/>
<polygon fill="midnightblue" stroke="midnightblue" points="582.77,-201.12 580.33,-190.81 575.81,-200.39 582.77,-201.12"/>
</g>
<!-- Node9 -->
<g id="node9" class="node">
<title>Node9</title>
<g id="a_node9"><a xlink:href="xspech_8f90.html#aea782eae089760a491c2c54f9903abcc" target="_top" xlink:title="Main program of SPEC.">
<polygon fill="white" stroke="black" points="81,-190.5 81,-209.5 128,-209.5 128,-190.5 81,-190.5"/>
<text text-anchor="middle" x="104.5" y="-197.5" font-family="Helvetica,sans-Serif" font-size="10.00">xspech</text>
</a>
</g>
</g>
<!-- Node4&#45;&gt;Node9 -->
<g id="edge36" class="edge">
<title>Node4&#45;&gt;Node9</title>
<path fill="none" stroke="midnightblue" d="M550.52,-193.36C542.06,-196.33 532.78,-199.17 524,-201 367.17,-233.67 322.23,-244.05 164,-219 151.87,-217.08 138.83,-213.05 128.15,-209.19"/>
<polygon fill="midnightblue" stroke="midnightblue" points="551.82,-196.61 560,-189.87 549.4,-190.04 551.82,-196.61"/>
</g>
<!-- Node4&#45;&gt;Node11 -->
<g id="edge16" class="edge">
<title>Node4&#45;&gt;Node11</title>
<path fill="none" stroke="midnightblue" d="M575.53,-161.65C567.79,-137.56 551.45,-96.59 524,-72 517.09,-65.81 508.39,-61.13 499.73,-57.63"/>
<polygon fill="midnightblue" stroke="midnightblue" points="572.24,-162.86 578.49,-171.41 578.94,-160.83 572.24,-162.86"/>
</g>
<!-- Node16 -->
<g id="node16" class="node">
<title>Node16</title>
<g id="a_node16"><a xlink:href="group__grp__diagnostics.html#ga7401b50ec10c6598ee4a8112717a63ec" target="_top" xlink:title="Computes eigenvalues and eigenvectors of derivative matrix, .">
<polygon fill="white" stroke="black" points="199,-190.5 199,-209.5 244,-209.5 244,-190.5 199,-190.5"/>
<text text-anchor="middle" x="221.5" y="-197.5" font-family="Helvetica,sans-Serif" font-size="10.00">hesian</text>
</a>
</g>
</g>
<!-- Node4&#45;&gt;Node16 -->
<g id="edge26" class="edge">
<title>Node4&#45;&gt;Node16</title>
<path fill="none" stroke="midnightblue" d="M549.77,-182.66C478.5,-186.43 305.29,-195.61 244.24,-198.85"/>
<polygon fill="midnightblue" stroke="midnightblue" points="550.11,-186.14 559.91,-182.12 549.74,-179.15 550.11,-186.14"/>
</g>
<!-- Node17 -->
<g id="node17" class="node">
<title>Node17</title>
<g id="a_node17"><a xlink:href="group__grp__conjugate__gradient.html#ga4d8415226e62a9fdb42b0fd0b464251e" target="_top" xlink:title="Returns the energy functional and it&#39;s derivatives with respect to geometry.">
<polygon fill="white" stroke="black" points="437.5,-114.5 437.5,-133.5 485.5,-133.5 485.5,-114.5 437.5,-114.5"/>
<text text-anchor="middle" x="461.5" y="-121.5" font-family="Helvetica,sans-Serif" font-size="10.00">pc00ab</text>
</a>
</g>
</g>
<!-- Node4&#45;&gt;Node17 -->
<g id="edge29" class="edge">
<title>Node4&#45;&gt;Node17</title>
<path fill="none" stroke="midnightblue" d="M560.83,-165.47C550.29,-157.91 536.92,-149.14 524,-143 511.79,-137.19 497.38,-132.63 485.58,-129.43"/>
<polygon fill="midnightblue" stroke="midnightblue" points="558.82,-168.34 568.94,-171.46 562.97,-162.7 558.82,-168.34"/>
</g>
<!-- Node19 -->
<g id="node19" class="node">
<title>Node19</title>
<g id="a_node19"><a xlink:href="namespaceallglobal.html#ad32ae6194892fe7d876622a6455189e2" target="_top" xlink:title="The master node reads the input namelist and sets various internal variables. The relevant quantities...">
<polygon fill="white" stroke="black" points="420,-152.5 420,-171.5 503,-171.5 503,-152.5 420,-152.5"/>
<text text-anchor="middle" x="461.5" y="-159.5" font-family="Helvetica,sans-Serif" font-size="10.00">allglobal::readin</text>
</a>
</g>
</g>
<!-- Node4&#45;&gt;Node19 -->
<g id="edge31" class="edge">
<title>Node4&#45;&gt;Node19</title>
<path fill="none" stroke="midnightblue" d="M549.55,-175.96C535.32,-173.68 518.33,-170.95 503.15,-168.52"/>
<polygon fill="midnightblue" stroke="midnightblue" points="549.39,-179.48 559.81,-177.6 550.49,-172.56 549.39,-179.48"/>
</g>
<!-- Node5&#45;&gt;Node6 -->
<g id="edge5" class="edge">
<title>Node5&#45;&gt;Node6</title>
<path fill="none" stroke="midnightblue" d="M433.84,-287.69C409.79,-293.62 375.24,-304.85 355.47,-313.42"/>
<polygon fill="midnightblue" stroke="midnightblue" points="434.77,-291.07 443.74,-285.44 433.22,-284.25 434.77,-291.07"/>
</g>
<!-- Node6&#45;&gt;Node5 -->
<g id="edge6" class="edge">
<title>Node6&#45;&gt;Node5</title>
<path fill="none" stroke="midnightblue" d="M373.04,-318.68C396.39,-312.52 426.63,-302.52 444.75,-294.7"/>
<polygon fill="midnightblue" stroke="midnightblue" points="372.05,-315.32 363.19,-321.14 373.74,-322.11 372.05,-315.32"/>
</g>
<!-- Node6&#45;&gt;Node7 -->
<g id="edge7" class="edge">
<title>Node6&#45;&gt;Node7</title>
<path fill="none" stroke="midnightblue" d="M304.79,-321.39C254.32,-323.56 160.17,-333.27 122.1,-340.67"/>
<polygon fill="midnightblue" stroke="midnightblue" points="304.98,-324.89 314.86,-321.05 304.74,-317.89 304.98,-324.89"/>
</g>
<!-- Node8 -->
<g id="node8" class="node">
<title>Node8</title>
<g id="a_node8"><a xlink:href="group__grp__force__driver.html#ga382822b303cbf8c56d6f54dcb379caf2" target="_top" xlink:title="read or write force&#45;derivative matrix">
<polygon fill="white" stroke="black" points="189,-360.5 189,-379.5 254,-379.5 254,-360.5 189,-360.5"/>
<text text-anchor="middle" x="221.5" y="-367.5" font-family="Helvetica,sans-Serif" font-size="10.00">writereadgf</text>
</a>
</g>
</g>
<!-- Node6&#45;&gt;Node8 -->
<g id="edge9" class="edge">
<title>Node6&#45;&gt;Node8</title>
<path fill="none" stroke="midnightblue" d="M305.39,-330.13C282.07,-338.42 251.95,-351.25 235.19,-360.42"/>
<polygon fill="midnightblue" stroke="midnightblue" points="306.57,-333.42 314.9,-326.87 304.31,-326.79 306.57,-333.42"/>
</g>
<!-- Node6&#45;&gt;Node9 -->
<g id="edge12" class="edge">
<title>Node6&#45;&gt;Node9</title>
<path fill="none" stroke="midnightblue" d="M305.29,-313.35C269.09,-301.84 209.82,-280.54 164,-252 144.39,-239.79 125.03,-220.86 114.23,-209.53"/>
<polygon fill="midnightblue" stroke="midnightblue" points="304.27,-316.69 314.85,-316.33 306.35,-310.01 304.27,-316.69"/>
</g>
<!-- Node7&#45;&gt;Node6 -->
<g id="edge8" class="edge">
<title>Node7&#45;&gt;Node6</title>
<path fill="none" stroke="midnightblue" d="M132.2,-347.85C178.16,-346.4 271.47,-337.08 314.86,-329.53"/>
<polygon fill="midnightblue" stroke="midnightblue" points="132.03,-344.36 122.1,-348.05 132.17,-351.36 132.03,-344.36"/>
</g>
<!-- Node8&#45;&gt;Node6 -->
<g id="edge11" class="edge">
<title>Node8&#45;&gt;Node6</title>
<path fill="none" stroke="midnightblue" d="M263.74,-359.72C285.39,-351.58 310.43,-340.71 325.2,-332.64"/>
<polygon fill="midnightblue" stroke="midnightblue" points="262.27,-356.53 254.07,-363.24 264.67,-363.1 262.27,-356.53"/>
</g>
<!-- Node8&#45;&gt;Node7 -->
<g id="edge10" class="edge">
<title>Node8&#45;&gt;Node7</title>
<path fill="none" stroke="midnightblue" d="M178.83,-361.3C159.26,-357.22 137.03,-352.58 122.22,-349.49"/>
<polygon fill="midnightblue" stroke="midnightblue" points="178.27,-364.76 188.77,-363.38 179.7,-357.91 178.27,-364.76"/>
</g>
<!-- Node10 -->
<g id="node10" class="node">
<title>Node10</title>
<g id="a_node10"><a xlink:href="xspech_8f90.html#a537af4990058c0b0f2cd8b3669af204f" target="_top" xlink:title="todo remark">
<polygon fill="white" stroke="black" points="0,-190.5 0,-209.5 45,-209.5 45,-190.5 0,-190.5"/>
<text text-anchor="middle" x="22.5" y="-197.5" font-family="Helvetica,sans-Serif" font-size="10.00">ending</text>
</a>
</g>
</g>
<!-- Node9&#45;&gt;Node10 -->
<g id="edge13" class="edge">
<title>Node9&#45;&gt;Node10</title>
<path fill="none" stroke="midnightblue" d="M70.65,-193.35C62.06,-193.11 53.01,-193.3 45.17,-193.92"/>
<polygon fill="midnightblue" stroke="midnightblue" points="70.63,-196.85 80.79,-193.84 70.97,-189.86 70.63,-196.85"/>
</g>
<!-- Node10&#45;&gt;Node9 -->
<g id="edge14" class="edge">
<title>Node10&#45;&gt;Node9</title>
<path fill="none" stroke="midnightblue" d="M55.22,-206.62C63.77,-206.89 72.84,-206.74 80.79,-206.16"/>
<polygon fill="midnightblue" stroke="midnightblue" points="55.34,-203.12 45.17,-206.08 54.96,-210.11 55.34,-203.12"/>
</g>
<!-- Node12 -->
<g id="node12" class="node">
<title>Node12</title>
<g id="a_node12"><a xlink:href="dfp200_8f90.html#a55ea75395f8c71731451e1add3720c7e" target="_top" xlink:title="Given the field consistent with the constraints and the geometry, computes local quantites related to...">
<polygon fill="white" stroke="black" points="316,-38.5 316,-57.5 362,-57.5 362,-38.5 316,-38.5"/>
<text text-anchor="middle" x="339" y="-45.5" font-family="Helvetica,sans-Serif" font-size="10.00">dfp200</text>
</a>
</g>
</g>
<!-- Node11&#45;&gt;Node12 -->
<g id="edge17" class="edge">
<title>Node11&#45;&gt;Node12</title>
<path fill="none" stroke="midnightblue" d="M388.69,-41.36C379.05,-41.55 369.82,-41.98 362.04,-42.64"/>
<polygon fill="midnightblue" stroke="midnightblue" points="388.88,-44.86 398.84,-41.25 388.8,-37.86 388.88,-44.86"/>
</g>
<!-- Node12&#45;&gt;Node4 -->
<g id="edge18" class="edge">
<title>Node12&#45;&gt;Node4</title>
<path fill="none" stroke="midnightblue" d="M371.67,-58.31C380.51,-61.15 390.12,-64.22 399,-67 454.41,-84.34 476.45,-71.68 524,-105 549.26,-122.7 568.03,-155.09 576.31,-171.27"/>
<polygon fill="midnightblue" stroke="midnightblue" points="372.7,-54.96 362.11,-55.21 370.55,-61.62 372.7,-54.96"/>
</g>
<!-- Node12&#45;&gt;Node11 -->
<g id="edge23" class="edge">
<title>Node12&#45;&gt;Node11</title>
<path fill="none" stroke="midnightblue" d="M372.28,-54.06C380.52,-54.5 389.66,-54.73 398.84,-54.75"/>
<polygon fill="midnightblue" stroke="midnightblue" points="372.26,-50.55 362.04,-53.36 371.78,-57.53 372.26,-50.55"/>
</g>
<!-- Node13 -->
<g id="node13" class="node">
<title>Node13</title>
<g id="a_node13"><a xlink:href="dfp200_8f90.html#a9838f042d6611c01771ed68beb77fc6b" target="_top" xlink:title="Evaluate the derivative of the square of the magnetic field modulus. Add spectral constraint derivati...">
<polygon fill="white" stroke="black" points="184.5,-38.5 184.5,-57.5 258.5,-57.5 258.5,-38.5 184.5,-38.5"/>
<text text-anchor="middle" x="221.5" y="-45.5" font-family="Helvetica,sans-Serif" font-size="10.00">evaluate_dbb</text>
</a>
</g>
</g>
<!-- Node12&#45;&gt;Node13 -->
<g id="edge19" class="edge">
<title>Node12&#45;&gt;Node13</title>
<path fill="none" stroke="midnightblue" d="M305.66,-41.87C291.08,-41.11 273.81,-41.05 258.79,-41.68"/>
<polygon fill="midnightblue" stroke="midnightblue" points="305.52,-45.37 315.73,-42.54 305.99,-38.38 305.52,-45.37"/>
</g>
<!-- Node12&#45;&gt;Node14 -->
<g id="edge21" class="edge">
<title>Node12&#45;&gt;Node14</title>
<path fill="none" stroke="midnightblue" d="M313.35,-34.24C300.45,-29.03 284.22,-23.36 269.06,-18.68"/>
<polygon fill="midnightblue" stroke="midnightblue" points="312.33,-37.61 322.9,-38.3 315.07,-31.17 312.33,-37.61"/>
</g>
<!-- Node15 -->
<g id="node15" class="node">
<title>Node15</title>
<g id="a_node15"><a xlink:href="dfp200_8f90.html#a5e56f1f4b1e6df11a9cffa6237c37469" target="_top" xlink:title="This routine evaluates the value of the magnetic field once the interface is perturbed using matrix p...">
<polygon fill="white" stroke="black" points="164,-76.5 164,-95.5 279,-95.5 279,-76.5 164,-76.5"/>
<text text-anchor="middle" x="221.5" y="-83.5" font-family="Helvetica,sans-Serif" font-size="10.00">get_perturbed_solution</text>
</a>
</g>
</g>
<!-- Node12&#45;&gt;Node15 -->
<g id="edge24" class="edge">
<title>Node12&#45;&gt;Node15</title>
<path fill="none" stroke="midnightblue" d="M305.95,-52.43C283.52,-58.63 254.6,-68.61 237.36,-76.41"/>
<polygon fill="midnightblue" stroke="midnightblue" points="306.94,-55.79 315.73,-49.87 305.17,-49.01 306.94,-55.79"/>
</g>
<!-- Node13&#45;&gt;Node12 -->
<g id="edge20" class="edge">
<title>Node13&#45;&gt;Node12</title>
<path fill="none" stroke="midnightblue" d="M269.13,-54.64C285.22,-54.97 302.5,-54.57 315.73,-53.46"/>
<polygon fill="midnightblue" stroke="midnightblue" points="268.89,-51.13 258.79,-54.32 268.67,-58.13 268.89,-51.13"/>
</g>
<!-- Node14&#45;&gt;Node12 -->
<g id="edge22" class="edge">
<title>Node14&#45;&gt;Node12</title>
<path fill="none" stroke="midnightblue" d="M246.59,-23.53C266.96,-31.81 295.9,-41.28 315.73,-46.13"/>
<polygon fill="midnightblue" stroke="midnightblue" points="247.93,-20.3 237.36,-19.59 245.19,-26.74 247.93,-20.3"/>
</g>
<!-- Node15&#45;&gt;Node12 -->
<g id="edge25" class="edge">
<title>Node15&#45;&gt;Node12</title>
<path fill="none" stroke="midnightblue" d="M281.46,-73.35C296.84,-68.26 312.11,-62.56 322.9,-57.7"/>
<polygon fill="midnightblue" stroke="midnightblue" points="280.35,-70.03 271.9,-76.43 282.5,-76.69 280.35,-70.03"/>
</g>
<!-- Node16&#45;&gt;Node9 -->
<g id="edge27" class="edge">
<title>Node16&#45;&gt;Node9</title>
<path fill="none" stroke="midnightblue" d="M188.77,-200C169.56,-200 145.52,-200 128.21,-200"/>
<polygon fill="midnightblue" stroke="midnightblue" points="188.87,-203.5 198.87,-200 188.87,-196.5 188.87,-203.5"/>
</g>
<!-- Node18 -->
<g id="node18" class="node">
<title>Node18</title>
<g id="a_node18"><a xlink:href="group__grp__conjugate__gradient.html#ga25a3bae2ff2ee0469b045de0d033398b" target="_top" xlink:title="Use preconditioned conjugate gradient method to find minimum of energy functional.">
<polygon fill="white" stroke="black" points="315,-76.5 315,-95.5 363,-95.5 363,-76.5 315,-76.5"/>
<text text-anchor="middle" x="339" y="-83.5" font-family="Helvetica,sans-Serif" font-size="10.00">pc00aa</text>
</a>
</g>
</g>
<!-- Node17&#45;&gt;Node18 -->
<g id="edge30" class="edge">
<title>Node17&#45;&gt;Node18</title>
<path fill="none" stroke="midnightblue" d="M427.72,-113.66C407.28,-107.22 381.48,-99.08 363.16,-93.3"/>
<polygon fill="midnightblue" stroke="midnightblue" points="426.68,-117 437.27,-116.67 428.78,-110.33 426.68,-117"/>
</g>
<!-- Node19&#45;&gt;Node9 -->
<g id="edge35" class="edge">
<title>Node19&#45;&gt;Node9</title>
<path fill="none" stroke="midnightblue" d="M411.11,-150.46C395.78,-147.4 378.77,-144.52 363,-143 274.61,-134.47 247.32,-130.27 164,-161 145.91,-167.67 127.86,-180.97 116.7,-190.16"/>
<polygon fill="midnightblue" stroke="midnightblue" points="410.4,-153.89 420.91,-152.49 411.82,-147.04 410.4,-153.89"/>
</g>
<!-- Node20 -->
<g id="node20" class="node">
<title>Node20</title>
<g id="a_node20"><a xlink:href="group__grp__initialization.html#ga28628de0fdb3b3497668007d8d0643bd" target="_top" xlink:title="Allocates and initializes internal arrays.">
<polygon fill="white" stroke="black" points="317,-152.5 317,-171.5 361,-171.5 361,-152.5 317,-152.5"/>
<text text-anchor="middle" x="339" y="-159.5" font-family="Helvetica,sans-Serif" font-size="10.00">preset</text>
</a>
</g>
</g>
<!-- Node19&#45;&gt;Node20 -->
<g id="edge32" class="edge">
<title>Node19&#45;&gt;Node20</title>
<path fill="none" stroke="midnightblue" d="M409.34,-162C392.41,-162 374.5,-162 361.13,-162"/>
<polygon fill="midnightblue" stroke="midnightblue" points="409.7,-165.5 419.7,-162 409.7,-158.5 409.7,-165.5"/>
</g>
<!-- Node20&#45;&gt;Node9 -->
<g id="edge34" class="edge">
<title>Node20&#45;&gt;Node9</title>
<path fill="none" stroke="midnightblue" d="M306.79,-163.48C271.73,-165.58 213.27,-170.43 164,-181 151.99,-183.58 138.97,-187.67 128.26,-191.4"/>
<polygon fill="midnightblue" stroke="midnightblue" points="307.1,-166.96 316.89,-162.91 306.71,-159.97 307.1,-166.96"/>
</g>
<!-- Node20&#45;&gt;Node16 -->
<g id="edge33" class="edge">
<title>Node20&#45;&gt;Node16</title>
<path fill="none" stroke="midnightblue" d="M307.3,-172.1C287.46,-178.63 262.13,-186.96 244.33,-192.82"/>
<polygon fill="midnightblue" stroke="midnightblue" points="308.41,-175.42 316.82,-168.97 306.22,-168.77 308.41,-175.42"/>
</g>
</g>
</svg>
