<?xml version="1.0" encoding="UTF-8" standalone="no"?>
<!DOCTYPE svg PUBLIC "-//W3C//DTD SVG 1.1//EN"
 "http://www.w3.org/Graphics/SVG/1.1/DTD/svg11.dtd">
<!-- Generated by graphviz version 2.49.3 (20211027.1534)
 -->
<!-- Title: ma02aa Pages: 1 -->
<svg width="747pt" height="442pt"
 viewBox="0.00 0.00 747.00 442.00" xmlns="http://www.w3.org/2000/svg" xmlns:xlink="http://www.w3.org/1999/xlink">
<g id="graph0" class="graph" transform="scale(1 1) rotate(0) translate(4 438)">
<title>ma02aa</title>
<polygon fill="white" stroke="transparent" points="-4,4 -4,-438 743,-438 743,4 -4,4"/>
<!-- Node1 -->
<g id="node1" class="node">
<title>Node1</title>
<g id="a_node1"><a xlink:title="Constructs Beltrami field in given volume consistent with flux, helicity, rotational&#45;transform and/or...">
<polygon fill="#bfbfbf" stroke="black" points="688,-104.5 688,-123.5 739,-123.5 739,-104.5 688,-104.5"/>
<text text-anchor="middle" x="713.5" y="-111.5" font-family="Helvetica,sans-Serif" font-size="10.00">ma02aa</text>
</a>
</g>
</g>
<!-- Node1&#45;&gt;Node1 -->
<g id="edge50" class="edge">
<title>Node1&#45;&gt;Node1</title>
<path fill="none" stroke="midnightblue" d="M728.97,-133.77C727.75,-138.5 722.6,-142 713.5,-142 698.57,-142 694.25,-132.57 700.55,-123.76"/>
<polygon fill="midnightblue" stroke="midnightblue" points="732.28,-132.6 726.45,-123.76 725.5,-134.31 732.28,-132.6"/>
</g>
<!-- Node2 -->
<g id="node2" class="node">
<title>Node2</title>
<g id="a_node2"><a xlink:href="dfp100_8f90.html#a17a3ac15cc83994394f7b4cc05e5898e" target="_top" xlink:title="Split the work between MPI nodes and evaluate the global constraint.">
<polygon fill="white" stroke="black" points="606,-104.5 606,-123.5 652,-123.5 652,-104.5 606,-104.5"/>
<text text-anchor="middle" x="629" y="-111.5" font-family="Helvetica,sans-Serif" font-size="10.00">dfp100</text>
</a>
</g>
</g>
<!-- Node1&#45;&gt;Node2 -->
<g id="edge1" class="edge">
<title>Node1&#45;&gt;Node2</title>
<path fill="none" stroke="midnightblue" d="M677.56,-114C668.97,-114 660.01,-114 652.21,-114"/>
<polygon fill="midnightblue" stroke="midnightblue" points="677.75,-117.5 687.75,-114 677.75,-110.5 677.75,-117.5"/>
</g>
<!-- Node2&#45;&gt;Node2 -->
<g id="edge48" class="edge">
<title>Node2&#45;&gt;Node2</title>
<path fill="none" stroke="midnightblue" d="M643.73,-133.77C642.58,-138.5 637.66,-142 629,-142 614.78,-142 610.67,-132.57 616.67,-123.76"/>
<polygon fill="midnightblue" stroke="midnightblue" points="647.07,-132.66 641.33,-123.76 640.26,-134.3 647.07,-132.66"/>
</g>
<!-- Node3 -->
<g id="node3" class="node">
<title>Node3</title>
<g id="a_node3"><a xlink:href="group__grp__global__force.html#ga38c9d3c50bd043707fefa5137c9dbf44" target="_top" xlink:title="Calculates , where &#160;and , and .">
<polygon fill="white" stroke="black" points="526,-208.5 526,-227.5 570,-227.5 570,-208.5 526,-208.5"/>
<text text-anchor="middle" x="548" y="-215.5" font-family="Helvetica,sans-Serif" font-size="10.00">dforce</text>
</a>
</g>
</g>
<!-- Node2&#45;&gt;Node3 -->
<g id="edge2" class="edge">
<title>Node2&#45;&gt;Node3</title>
<path fill="none" stroke="midnightblue" d="M614.46,-131.82C597.62,-153.99 569.49,-191.03 556.27,-208.43"/>
<polygon fill="midnightblue" stroke="midnightblue" points="617.45,-133.68 620.71,-123.6 611.87,-129.44 617.45,-133.68"/>
</g>
<!-- Node17 -->
<g id="node17" class="node">
<title>Node17</title>
<g id="a_node17"><a xlink:href="dfp200_8f90.html#a73ddf39ecc5228201fb643779e17cd36" target="_top" xlink:title="Evaluate mu and psip derivatives and store them in dmupfdx.">
<polygon fill="white" stroke="black" points="140,-0.5 140,-19.5 235,-19.5 235,-0.5 140,-0.5"/>
<text text-anchor="middle" x="187.5" y="-7.5" font-family="Helvetica,sans-Serif" font-size="10.00">evaluate_dmupfdx</text>
</a>
</g>
</g>
<!-- Node2&#45;&gt;Node17 -->
<g id="edge49" class="edge">
<title>Node2&#45;&gt;Node17</title>
<path fill="none" stroke="midnightblue" d="M607.31,-98.24C581.43,-79.5 535.04,-49 490,-35 402.98,-7.95 295.43,-6.09 235.14,-7.69"/>
<polygon fill="midnightblue" stroke="midnightblue" points="605.44,-101.22 615.57,-104.33 609.6,-95.58 605.44,-101.22"/>
</g>
<!-- Node3&#45;&gt;Node3 -->
<g id="edge14" class="edge">
<title>Node3&#45;&gt;Node3</title>
<path fill="none" stroke="midnightblue" d="M562.73,-237.77C561.58,-242.5 556.66,-246 548,-246 533.78,-246 529.67,-236.57 535.67,-227.76"/>
<polygon fill="midnightblue" stroke="midnightblue" points="566.07,-236.66 560.33,-227.76 559.26,-238.3 566.07,-236.66"/>
</g>
<!-- Node4 -->
<g id="node4" class="node">
<title>Node4</title>
<g id="a_node4"><a xlink:href="namespaceallglobal.html#a7824bc37519fe88336534ce90ab2af16" target="_top" xlink:title=" ">
<polygon fill="white" stroke="black" points="370.5,-340.5 370.5,-359.5 484.5,-359.5 484.5,-340.5 370.5,-340.5"/>
<text text-anchor="middle" x="427.5" y="-347.5" font-family="Helvetica,sans-Serif" font-size="10.00">allglobal::check_inputs</text>
</a>
</g>
</g>
<!-- Node3&#45;&gt;Node4 -->
<g id="edge3" class="edge">
<title>Node3&#45;&gt;Node4</title>
<path fill="none" stroke="midnightblue" d="M541.48,-237.17C533.69,-261.04 517.3,-301.64 490,-326 482.99,-332.26 474.16,-336.97 465.39,-340.48"/>
<polygon fill="midnightblue" stroke="midnightblue" points="544.86,-238.09 544.46,-227.5 538.17,-236.03 544.86,-238.09"/>
</g>
<!-- Node7 -->
<g id="node7" class="node">
<title>Node7</title>
<g id="a_node7"><a xlink:href="xspech_8f90.html#a48f45478dc2c9f70ea8aa1c60ad06503" target="_top" xlink:title="This is the main &quot;driver&quot; for the physics part of SPEC.">
<polygon fill="white" stroke="black" points="168.5,-278.5 168.5,-297.5 206.5,-297.5 206.5,-278.5 168.5,-278.5"/>
<text text-anchor="middle" x="187.5" y="-285.5" font-family="Helvetica,sans-Serif" font-size="10.00">spec</text>
</a>
</g>
</g>
<!-- Node3&#45;&gt;Node7 -->
<g id="edge47" class="edge">
<title>Node3&#45;&gt;Node7</title>
<path fill="none" stroke="midnightblue" d="M516.81,-228.2C508.39,-232.45 499.06,-236.91 490,-240 387.11,-275.14 254.58,-278.98 206.74,-283.83"/>
<polygon fill="midnightblue" stroke="midnightblue" points="518.55,-231.25 525.87,-223.58 515.37,-225.01 518.55,-231.25"/>
</g>
<!-- Node10 -->
<g id="node10" class="node">
<title>Node10</title>
<g id="a_node10"><a xlink:href="group__grp__force__driver.html#gabbc245b3884ee8d8d3e2a52f25149f78" target="_top" xlink:title="Objective to be given to the Newton solver, using only function values.">
<polygon fill="white" stroke="black" points="410,-152.5 410,-171.5 445,-171.5 445,-152.5 410,-152.5"/>
<text text-anchor="middle" x="427.5" y="-159.5" font-family="Helvetica,sans-Serif" font-size="10.00">fcn1</text>
</a>
</g>
</g>
<!-- Node3&#45;&gt;Node10 -->
<g id="edge15" class="edge">
<title>Node3&#45;&gt;Node10</title>
<path fill="none" stroke="midnightblue" d="M517.39,-204.01C494.58,-193.23 463.87,-178.72 445.17,-169.88"/>
<polygon fill="midnightblue" stroke="midnightblue" points="516.09,-207.26 526.63,-208.37 519.08,-200.94 516.09,-207.26"/>
</g>
<!-- Node11 -->
<g id="node11" class="node">
<title>Node11</title>
<g id="a_node11"><a xlink:href="group__grp__force__driver.html#gaec14f81fbdbedafbc4189489ec8ae178" target="_top" xlink:title="Employs Newton method to find , where &#160;and &#160;is defined in dforce() .">
<polygon fill="white" stroke="black" points="281,-162.5 281,-181.5 329,-181.5 329,-162.5 281,-162.5"/>
<text text-anchor="middle" x="305" y="-169.5" font-family="Helvetica,sans-Serif" font-size="10.00">newton</text>
</a>
</g>
</g>
<!-- Node3&#45;&gt;Node11 -->
<g id="edge42" class="edge">
<title>Node3&#45;&gt;Node11</title>
<path fill="none" stroke="midnightblue" d="M515.77,-217.8C479.06,-216.87 416.6,-213.09 365,-199 350.22,-194.96 334.49,-187.6 323,-181.58"/>
<polygon fill="midnightblue" stroke="midnightblue" points="515.78,-221.3 525.85,-218 515.92,-214.3 515.78,-221.3"/>
</g>
<!-- Node12 -->
<g id="node12" class="node">
<title>Node12</title>
<g id="a_node12"><a xlink:href="group__grp__force__driver.html#ga8ccd6c7d901872702521d0a0edf95412" target="_top" xlink:title="Objective to be given to the Newton solver, using function values and derivatives.">
<polygon fill="white" stroke="black" points="29.5,-176.5 29.5,-195.5 64.5,-195.5 64.5,-176.5 29.5,-176.5"/>
<text text-anchor="middle" x="47" y="-183.5" font-family="Helvetica,sans-Serif" font-size="10.00">fcn2</text>
</a>
</g>
</g>
<!-- Node3&#45;&gt;Node12 -->
<g id="edge27" class="edge">
<title>Node3&#45;&gt;Node12</title>
<path fill="none" stroke="midnightblue" d="M538.91,-199.28C529.91,-181.12 513.49,-154.65 490,-143 418.33,-107.45 207.68,-123.87 130,-143 103.93,-149.42 76.98,-165.76 61.39,-176.35"/>
<polygon fill="midnightblue" stroke="midnightblue" points="535.74,-200.78 543.14,-208.37 542.09,-197.83 535.74,-200.78"/>
</g>
<!-- Node14 -->
<g id="node14" class="node">
<title>Node14</title>
<g id="a_node14"><a xlink:href="dfp200_8f90.html#a6aca59cf350d7b1941f8389d50945a43" target="_top" xlink:title="get LU Beltrami matrices">
<polygon fill="white" stroke="black" points="365,-76.5 365,-95.5 490,-95.5 490,-76.5 365,-76.5"/>
<text text-anchor="middle" x="427.5" y="-83.5" font-family="Helvetica,sans-Serif" font-size="10.00">get_lu_beltrami_matrices</text>
</a>
</g>
</g>
<!-- Node3&#45;&gt;Node14 -->
<g id="edge28" class="edge">
<title>Node3&#45;&gt;Node14</title>
<path fill="none" stroke="midnightblue" d="M541.48,-198.83C533.69,-174.96 517.3,-134.36 490,-110 482.99,-103.74 474.16,-99.03 465.39,-95.52"/>
<polygon fill="midnightblue" stroke="midnightblue" points="538.17,-199.97 544.46,-208.5 544.86,-197.91 538.17,-199.97"/>
</g>
<!-- Node19 -->
<g id="node19" class="node">
<title>Node19</title>
<g id="a_node19"><a xlink:href="group__grp__output.html#ga7401b50ec10c6598ee4a8112717a63ec" target="_top" xlink:title="Computes eigenvalues and eigenvectors of derivative matrix, &#160;and saves them to .ext....">
<polygon fill="white" stroke="black" points="282.5,-228.5 282.5,-247.5 327.5,-247.5 327.5,-228.5 282.5,-228.5"/>
<text text-anchor="middle" x="305" y="-235.5" font-family="Helvetica,sans-Serif" font-size="10.00">hesian</text>
</a>
</g>
</g>
<!-- Node3&#45;&gt;Node19 -->
<g id="edge39" class="edge">
<title>Node3&#45;&gt;Node19</title>
<path fill="none" stroke="midnightblue" d="M516.05,-226.84C507.66,-228.9 498.54,-230.83 490,-232 431.74,-240.02 362.17,-239.61 327.65,-238.75"/>
<polygon fill="midnightblue" stroke="midnightblue" points="517.01,-230.21 525.82,-224.32 515.26,-223.43 517.01,-230.21"/>
</g>
<!-- Node20 -->
<g id="node20" class="node">
<title>Node20</title>
<g id="a_node20"><a xlink:href="group__grp__conjugate__gradient.html#ga4d8415226e62a9fdb42b0fd0b464251e" target="_top" xlink:title="Returns the energy functional and it&#39;s derivatives with respect to geometry.">
<polygon fill="white" stroke="black" points="403.5,-387.5 403.5,-406.5 451.5,-406.5 451.5,-387.5 403.5,-387.5"/>
<text text-anchor="middle" x="427.5" y="-394.5" font-family="Helvetica,sans-Serif" font-size="10.00">pc00ab</text>
</a>
</g>
</g>
<!-- Node3&#45;&gt;Node20 -->
<g id="edge43" class="edge">
<title>Node3&#45;&gt;Node20</title>
<path fill="none" stroke="midnightblue" d="M544.4,-238C539.32,-269.58 525.3,-331.28 490,-369 479.74,-379.96 464.36,-386.96 451.55,-391.22"/>
<polygon fill="midnightblue" stroke="midnightblue" points="547.9,-238.23 545.89,-227.82 540.98,-237.21 547.9,-238.23"/>
</g>
<!-- Node5 -->
<g id="node5" class="node">
<title>Node5</title>
<g id="a_node5"><a xlink:href="xspech_8f90.html#a9fdc71dffd7c61ee4588a3f80d3ab9ce" target="_top" xlink:title="Main subroutine of SPEC.">
<polygon fill="white" stroke="black" points="281.5,-340.5 281.5,-359.5 328.5,-359.5 328.5,-340.5 281.5,-340.5"/>
<text text-anchor="middle" x="305" y="-347.5" font-family="Helvetica,sans-Serif" font-size="10.00">xspech</text>
</a>
</g>
</g>
<!-- Node4&#45;&gt;Node5 -->
<g id="edge4" class="edge">
<title>Node4&#45;&gt;Node5</title>
<path fill="none" stroke="midnightblue" d="M360.45,-350C349.06,-350 337.95,-350 328.77,-350"/>
<polygon fill="midnightblue" stroke="midnightblue" points="360.48,-353.5 370.48,-350 360.48,-346.5 360.48,-353.5"/>
</g>
<!-- Node5&#45;&gt;Node5 -->
<g id="edge13" class="edge">
<title>Node5&#45;&gt;Node5</title>
<path fill="none" stroke="midnightblue" d="M326.48,-369.4C325.05,-374.31 317.89,-378 305,-378 284.38,-378 278.42,-368.57 287.12,-359.76"/>
<polygon fill="midnightblue" stroke="midnightblue" points="329.66,-367.9 322.88,-359.76 323.1,-370.35 329.66,-367.9"/>
</g>
<!-- Node6 -->
<g id="node6" class="node">
<title>Node6</title>
<g id="a_node6"><a xlink:href="xspech_8f90.html#a1451823a7b97101a797de616250752c1" target="_top" xlink:title="Final diagnostics.">
<polygon fill="white" stroke="black" points="143,-354.5 143,-373.5 232,-373.5 232,-354.5 143,-354.5"/>
<text text-anchor="middle" x="187.5" y="-361.5" font-family="Helvetica,sans-Serif" font-size="10.00">final_diagnostics</text>
</a>
</g>
</g>
<!-- Node5&#45;&gt;Node6 -->
<g id="edge5" class="edge">
<title>Node5&#45;&gt;Node6</title>
<path fill="none" stroke="midnightblue" d="M271.04,-347.83C254.33,-349.02 234.19,-351.52 217.99,-354.45"/>
<polygon fill="midnightblue" stroke="midnightblue" points="271.67,-351.3 281.46,-347.25 271.28,-344.31 271.67,-351.3"/>
</g>
<!-- Node5&#45;&gt;Node7 -->
<g id="edge7" class="edge">
<title>Node5&#45;&gt;Node7</title>
<path fill="none" stroke="midnightblue" d="M290.64,-333.31C278.93,-323.33 261.29,-311.62 245,-303 232.57,-296.42 217.93,-290.24 206.68,-287.04"/>
<polygon fill="midnightblue" stroke="midnightblue" points="288.32,-335.93 298.01,-340.21 293.1,-330.82 288.32,-335.93"/>
</g>
<!-- Node9 -->
<g id="node9" class="node">
<title>Node9</title>
<g id="a_node9"><a xlink:href="xspech_8f90.html#a95271e8805067f801b5d4e524d6901d4" target="_top" xlink:title="Main program of SPEC.">
<polygon fill="white" stroke="black" points="155.5,-392.5 155.5,-411.5 219.5,-411.5 219.5,-392.5 155.5,-392.5"/>
<text text-anchor="middle" x="187.5" y="-399.5" font-family="Helvetica,sans-Serif" font-size="10.00">spec_main</text>
</a>
</g>
</g>
<!-- Node5&#45;&gt;Node9 -->
<g id="edge12" class="edge">
<title>Node5&#45;&gt;Node9</title>
<path fill="none" stroke="midnightblue" d="M279.47,-365.07C269.06,-371.1 256.67,-377.83 245,-383 236.96,-386.56 228.03,-389.86 219.69,-392.66"/>
<polygon fill="midnightblue" stroke="midnightblue" points="281.56,-367.89 288.38,-359.79 278,-361.87 281.56,-367.89"/>
</g>
<!-- Node6&#45;&gt;Node5 -->
<g id="edge6" class="edge">
<title>Node6&#45;&gt;Node5</title>
<path fill="none" stroke="midnightblue" d="M242.05,-364.24C255.94,-362.67 270.15,-360.52 281.46,-358.21"/>
<polygon fill="midnightblue" stroke="midnightblue" points="241.62,-360.77 232.04,-365.29 242.34,-367.73 241.62,-360.77"/>
</g>
<!-- Node7&#45;&gt;Node3 -->
<g id="edge8" class="edge">
<title>Node7&#45;&gt;Node3</title>
<path fill="none" stroke="midnightblue" d="M217.01,-293.22C271.54,-296.36 393.74,-290.88 490,-258 509.83,-251.23 530.93,-237.93 540.99,-227.71"/>
<polygon fill="midnightblue" stroke="midnightblue" points="216.97,-289.7 206.74,-292.45 216.45,-296.68 216.97,-289.7"/>
</g>
<!-- Node7&#45;&gt;Node5 -->
<g id="edge11" class="edge">
<title>Node7&#45;&gt;Node5</title>
<path fill="none" stroke="midnightblue" d="M206.41,-302.44C217.71,-308.15 232.47,-314.37 245,-321 257.38,-327.56 270.55,-335.89 281.29,-342.27"/>
<polygon fill="midnightblue" stroke="midnightblue" points="207.97,-299.3 197.52,-297.56 204.6,-305.44 207.97,-299.3"/>
</g>
<!-- Node8 -->
<g id="node8" class="node">
<title>Node8</title>
<g id="a_node8"><a xlink:href="group__grp__output.html#ga0f962c09cd5d5eba99f1cba043cb3898" target="_top" xlink:title="Initialize the interface to the HDF5 library and open the output file.">
<polygon fill="white" stroke="black" points="0,-297.5 0,-316.5 94,-316.5 94,-297.5 0,-297.5"/>
<text text-anchor="middle" x="47" y="-304.5" font-family="Helvetica,sans-Serif" font-size="10.00">sphdf5::init_outfile</text>
</a>
</g>
</g>
<!-- Node7&#45;&gt;Node8 -->
<g id="edge9" class="edge">
<title>Node7&#45;&gt;Node8</title>
<path fill="none" stroke="midnightblue" d="M158.31,-291.87C139.87,-294.4 115.36,-297.76 94.12,-300.67"/>
<polygon fill="midnightblue" stroke="midnightblue" points="158.96,-295.31 168.39,-290.48 158.01,-288.38 158.96,-295.31"/>
</g>
<!-- Node8&#45;&gt;Node5 -->
<g id="edge10" class="edge">
<title>Node8&#45;&gt;Node5</title>
<path fill="none" stroke="midnightblue" d="M104.27,-316.45C159.79,-325.78 241.88,-339.57 281.28,-346.18"/>
<polygon fill="midnightblue" stroke="midnightblue" points="104.68,-312.97 94.23,-314.77 103.52,-319.87 104.68,-312.97"/>
</g>
<!-- Node10&#45;&gt;Node10 -->
<g id="edge16" class="edge">
<title>Node10&#45;&gt;Node10</title>
<path fill="none" stroke="midnightblue" d="M450,-179.73C449.8,-185.46 442.3,-190 427.5,-190 405.47,-190 399.62,-179.93 409.94,-170.89"/>
<polygon fill="midnightblue" stroke="midnightblue" points="452.99,-177.91 445.06,-170.89 446.88,-181.33 452.99,-177.91"/>
</g>
<!-- Node10&#45;&gt;Node11 -->
<g id="edge17" class="edge">
<title>Node10&#45;&gt;Node11</title>
<path fill="none" stroke="midnightblue" d="M399.51,-158.5C378.38,-158.82 349.31,-161.32 329.22,-164.62"/>
<polygon fill="midnightblue" stroke="midnightblue" points="399.73,-162 409.74,-158.55 399.76,-155 399.73,-162"/>
</g>
<!-- Node11&#45;&gt;Node7 -->
<g id="edge23" class="edge">
<title>Node11&#45;&gt;Node7</title>
<path fill="none" stroke="midnightblue" d="M287.39,-189.01C275.6,-201.05 259.38,-217.57 245,-232 228.82,-248.24 209.87,-266.97 198.54,-278.13"/>
<polygon fill="midnightblue" stroke="midnightblue" points="289.94,-191.4 294.43,-181.81 284.94,-186.51 289.94,-191.4"/>
</g>
<!-- Node11&#45;&gt;Node10 -->
<g id="edge18" class="edge">
<title>Node11&#45;&gt;Node10</title>
<path fill="none" stroke="midnightblue" d="M339.52,-175.34C362.37,-174.59 391.66,-171.74 409.74,-168.24"/>
<polygon fill="midnightblue" stroke="midnightblue" points="339.15,-171.85 329.22,-175.53 339.28,-178.84 339.15,-171.85"/>
</g>
<!-- Node11&#45;&gt;Node11 -->
<g id="edge22" class="edge">
<title>Node11&#45;&gt;Node11</title>
<path fill="none" stroke="midnightblue" d="M326.48,-191.4C325.05,-196.31 317.89,-200 305,-200 284.38,-200 278.42,-190.57 287.12,-181.76"/>
<polygon fill="midnightblue" stroke="midnightblue" points="329.66,-189.9 322.88,-181.76 323.1,-192.35 329.66,-189.9"/>
</g>
<!-- Node11&#45;&gt;Node12 -->
<g id="edge19" class="edge">
<title>Node11&#45;&gt;Node12</title>
<path fill="none" stroke="midnightblue" d="M270.66,-169.12C262.31,-170.09 253.35,-171.26 245,-172 178.38,-177.9 98.62,-177.71 64.64,-181.29"/>
<polygon fill="midnightblue" stroke="midnightblue" points="271.25,-172.58 280.82,-168.04 270.51,-165.62 271.25,-172.58"/>
</g>
<!-- Node13 -->
<g id="node13" class="node">
<title>Node13</title>
<g id="a_node13"><a xlink:href="group__grp__output.html#ga382822b303cbf8c56d6f54dcb379caf2" target="_top" xlink:title="read or write force&#45;derivative matrix .ext.sp.DF">
<polygon fill="white" stroke="black" points="155,-152.5 155,-171.5 220,-171.5 220,-152.5 155,-152.5"/>
<text text-anchor="middle" x="187.5" y="-159.5" font-family="Helvetica,sans-Serif" font-size="10.00">writereadgf</text>
</a>
</g>
</g>
<!-- Node11&#45;&gt;Node13 -->
<g id="edge24" class="edge">
<title>Node11&#45;&gt;Node13</title>
<path fill="none" stroke="midnightblue" d="M270.96,-162.97C255.05,-160.8 236.05,-159.17 220.3,-158.65"/>
<polygon fill="midnightblue" stroke="midnightblue" points="270.49,-166.44 280.9,-164.47 271.54,-159.52 270.49,-166.44"/>
</g>
<!-- Node12&#45;&gt;Node11 -->
<g id="edge21" class="edge">
<title>Node12&#45;&gt;Node11</title>
<path fill="none" stroke="midnightblue" d="M74.87,-192.37C112.85,-195.69 184.36,-195.37 245,-190 260.89,-188.59 279.02,-185.62 290.93,-181.52"/>
<polygon fill="midnightblue" stroke="midnightblue" points="74.96,-188.86 64.64,-191.28 74.22,-195.82 74.96,-188.86"/>
</g>
<!-- Node12&#45;&gt;Node12 -->
<g id="edge20" class="edge">
<title>Node12&#45;&gt;Node12</title>
<path fill="none" stroke="midnightblue" d="M72.47,-200.41C76,-207.59 67.51,-214 47,-214 19.66,-214 13.67,-202.61 29.06,-193.17"/>
<polygon fill="midnightblue" stroke="midnightblue" points="74.58,-197.58 64.94,-193.17 69.73,-202.62 74.58,-197.58"/>
</g>
<!-- Node13&#45;&gt;Node11 -->
<g id="edge26" class="edge">
<title>Node13&#45;&gt;Node11</title>
<path fill="none" stroke="midnightblue" d="M230.57,-172.17C247.56,-174.14 266.51,-175.45 280.9,-175.53"/>
<polygon fill="midnightblue" stroke="midnightblue" points="230.67,-168.65 220.3,-170.86 229.78,-175.59 230.67,-168.65"/>
</g>
<!-- Node13&#45;&gt;Node12 -->
<g id="edge25" class="edge">
<title>Node13&#45;&gt;Node12</title>
<path fill="none" stroke="midnightblue" d="M144.76,-169.23C117.8,-173.9 84.2,-179.73 64.52,-183.14"/>
<polygon fill="midnightblue" stroke="midnightblue" points="145.47,-172.66 154.73,-167.51 144.27,-165.76 145.47,-172.66"/>
</g>
<!-- Node15 -->
<g id="node15" class="node">
<title>Node15</title>
<g id="a_node15"><a xlink:href="dfp200_8f90.html#a55ea75395f8c71731451e1add3720c7e" target="_top" xlink:title="Given the field consistent with the constraints and the geometry, computes local quantites related to...">
<polygon fill="white" stroke="black" points="282,-38.5 282,-57.5 328,-57.5 328,-38.5 282,-38.5"/>
<text text-anchor="middle" x="305" y="-45.5" font-family="Helvetica,sans-Serif" font-size="10.00">dfp200</text>
</a>
</g>
</g>
<!-- Node14&#45;&gt;Node15 -->
<g id="edge29" class="edge">
<title>Node14&#45;&gt;Node15</title>
<path fill="none" stroke="midnightblue" d="M401.27,-72.43C379.71,-64.04 348.99,-54.43 328.32,-49.66"/>
<polygon fill="midnightblue" stroke="midnightblue" points="400.17,-75.76 410.75,-76.3 402.81,-69.28 400.17,-75.76"/>
</g>
<!-- Node15&#45;&gt;Node3 -->
<g id="edge30" class="edge">
<title>Node15&#45;&gt;Node3</title>
<path fill="none" stroke="midnightblue" d="M338.21,-41.92C378.13,-36.31 446.21,-33.27 490,-67 536.39,-102.74 545.03,-180.77 546.63,-208.21"/>
<polygon fill="midnightblue" stroke="midnightblue" points="337.57,-38.48 328.23,-43.46 338.64,-45.39 337.57,-38.48"/>
</g>
<!-- Node15&#45;&gt;Node14 -->
<g id="edge36" class="edge">
<title>Node15&#45;&gt;Node14</title>
<path fill="none" stroke="midnightblue" d="M330.78,-61.39C343.58,-66.39 359.7,-71.85 375.05,-76.46"/>
<polygon fill="midnightblue" stroke="midnightblue" points="331.88,-58.06 321.3,-57.5 329.22,-64.54 331.88,-58.06"/>
</g>
<!-- Node15&#45;&gt;Node15 -->
<g id="edge31" class="edge">
<title>Node15&#45;&gt;Node15</title>
<path fill="none" stroke="midnightblue" d="M326.48,-67.4C325.05,-72.31 317.89,-76 305,-76 284.38,-76 278.42,-66.57 287.12,-57.76"/>
<polygon fill="midnightblue" stroke="midnightblue" points="329.66,-65.9 322.88,-57.76 323.1,-68.35 329.66,-65.9"/>
</g>
<!-- Node16 -->
<g id="node16" class="node">
<title>Node16</title>
<g id="a_node16"><a xlink:href="dfp200_8f90.html#a7b64c7392b45d0042d8bd7379c0761a5" target="_top" xlink:title="Evaluate the derivative of the square of the magnetic field modulus. Add spectral constraint derivati...">
<polygon fill="white" stroke="black" points="150.5,-76.5 150.5,-95.5 224.5,-95.5 224.5,-76.5 150.5,-76.5"/>
<text text-anchor="middle" x="187.5" y="-83.5" font-family="Helvetica,sans-Serif" font-size="10.00">evaluate_dbb</text>
</a>
</g>
</g>
<!-- Node15&#45;&gt;Node16 -->
<g id="edge32" class="edge">
<title>Node15&#45;&gt;Node16</title>
<path fill="none" stroke="midnightblue" d="M271.95,-52.43C249.52,-58.63 220.6,-68.61 203.36,-76.41"/>
<polygon fill="midnightblue" stroke="midnightblue" points="272.94,-55.79 281.73,-49.87 271.17,-49.01 272.94,-55.79"/>
</g>
<!-- Node15&#45;&gt;Node17 -->
<g id="edge34" class="edge">
<title>Node15&#45;&gt;Node17</title>
<path fill="none" stroke="midnightblue" d="M279.35,-34.24C266.45,-29.03 250.22,-23.36 235.06,-18.68"/>
<polygon fill="midnightblue" stroke="midnightblue" points="278.33,-37.61 288.9,-38.3 281.07,-31.17 278.33,-37.61"/>
</g>
<!-- Node18 -->
<g id="node18" class="node">
<title>Node18</title>
<g id="a_node18"><a xlink:href="dfp200_8f90.html#a5e56f1f4b1e6df11a9cffa6237c37469" target="_top" xlink:title="This routine evaluates the value of the magnetic field once the interface is perturbed using matrix p...">
<polygon fill="white" stroke="black" points="130,-38.5 130,-57.5 245,-57.5 245,-38.5 130,-38.5"/>
<text text-anchor="middle" x="187.5" y="-45.5" font-family="Helvetica,sans-Serif" font-size="10.00">get_perturbed_solution</text>
</a>
</g>
</g>
<!-- Node15&#45;&gt;Node18 -->
<g id="edge37" class="edge">
<title>Node15&#45;&gt;Node18</title>
<path fill="none" stroke="midnightblue" d="M271.51,-41.86C263.3,-41.44 254.25,-41.23 245.23,-41.25"/>
<polygon fill="midnightblue" stroke="midnightblue" points="271.52,-45.37 281.73,-42.54 271.99,-38.38 271.52,-45.37"/>
</g>
<!-- Node16&#45;&gt;Node15 -->
<g id="edge33" class="edge">
<title>Node16&#45;&gt;Node15</title>
<path fill="none" stroke="midnightblue" d="M234.59,-77.46C253.93,-71.52 275.09,-63.92 288.9,-57.7"/>
<polygon fill="midnightblue" stroke="midnightblue" points="233.57,-74.11 224.99,-80.32 235.57,-80.82 233.57,-74.11"/>
</g>
<!-- Node17&#45;&gt;Node15 -->
<g id="edge35" class="edge">
<title>Node17&#45;&gt;Node15</title>
<path fill="none" stroke="midnightblue" d="M212.59,-23.53C232.96,-31.81 261.9,-41.28 281.73,-46.13"/>
<polygon fill="midnightblue" stroke="midnightblue" points="213.93,-20.3 203.36,-19.59 211.19,-26.74 213.93,-20.3"/>
</g>
<!-- Node18&#45;&gt;Node15 -->
<g id="edge38" class="edge">
<title>Node18&#45;&gt;Node15</title>
<path fill="none" stroke="midnightblue" d="M255.23,-54.68C264.76,-54.52 273.95,-54.11 281.73,-53.46"/>
<polygon fill="midnightblue" stroke="midnightblue" points="255.21,-51.18 245.23,-54.75 255.26,-58.18 255.21,-51.18"/>
</g>
<!-- Node19&#45;&gt;Node7 -->
<g id="edge41" class="edge">
<title>Node19&#45;&gt;Node7</title>
<path fill="none" stroke="midnightblue" d="M273.03,-251.41C251.84,-260.58 224.47,-272.43 206.71,-280.12"/>
<polygon fill="midnightblue" stroke="midnightblue" points="274.49,-254.59 282.28,-247.4 271.71,-248.17 274.49,-254.59"/>
</g>
<!-- Node19&#45;&gt;Node19 -->
<g id="edge40" class="edge">
<title>Node19&#45;&gt;Node19</title>
<path fill="none" stroke="midnightblue" d="M326.48,-257.4C325.05,-262.31 317.89,-266 305,-266 284.38,-266 278.42,-256.57 287.12,-247.76"/>
<polygon fill="midnightblue" stroke="midnightblue" points="329.66,-255.9 322.88,-247.76 323.1,-258.35 329.66,-255.9"/>
</g>
<!-- Node20&#45;&gt;Node20 -->
<g id="edge46" class="edge">
<title>Node20&#45;&gt;Node20</title>
<path fill="none" stroke="midnightblue" d="M449.82,-416.03C448.6,-421.13 441.16,-425 427.5,-425 406.17,-425 400.01,-415.57 409,-406.76"/>
<polygon fill="midnightblue" stroke="midnightblue" points="453.05,-414.67 446,-406.76 446.57,-417.34 453.05,-414.67"/>
</g>
<!-- Node21 -->
<g id="node21" class="node">
<title>Node21</title>
<g id="a_node21"><a xlink:href="group__grp__conjugate__gradient.html#ga25a3bae2ff2ee0469b045de0d033398b" target="_top" xlink:title="Use preconditioned conjugate gradient method to find minimum of energy functional.">
<polygon fill="white" stroke="black" points="281,-396.5 281,-415.5 329,-415.5 329,-396.5 281,-396.5"/>
<text text-anchor="middle" x="305" y="-403.5" font-family="Helvetica,sans-Serif" font-size="10.00">pc00aa</text>
</a>
</g>
</g>
<!-- Node20&#45;&gt;Node21 -->
<g id="edge44" class="edge">
<title>Node20&#45;&gt;Node21</title>
<path fill="none" stroke="midnightblue" d="M393.16,-399.49C372.81,-401.01 347.31,-402.91 329.16,-404.27"/>
<polygon fill="midnightblue" stroke="midnightblue" points="393.55,-402.97 403.27,-398.74 393.03,-395.99 393.55,-402.97"/>
</g>
<!-- Node21&#45;&gt;Node21 -->
<g id="edge45" class="edge">
<title>Node21&#45;&gt;Node21</title>
<path fill="none" stroke="midnightblue" d="M326.48,-425.4C325.05,-430.31 317.89,-434 305,-434 284.38,-434 278.42,-424.57 287.12,-415.76"/>
<polygon fill="midnightblue" stroke="midnightblue" points="329.66,-423.9 322.88,-415.76 323.1,-426.35 329.66,-423.9"/>
</g>
</g>
</svg>
