<?xml version="1.0" encoding="UTF-8" standalone="no"?>
<!DOCTYPE svg PUBLIC "-//W3C//DTD SVG 1.1//EN"
 "http://www.w3.org/Graphics/SVG/1.1/DTD/svg11.dtd">
<!-- Generated by graphviz version 2.47.2 (0)
 -->
<!-- Title: ra00aa Pages: 1 -->
<svg width="627pt" height="118pt"
 viewBox="0.00 0.00 627.00 118.15" xmlns="http://www.w3.org/2000/svg" xmlns:xlink="http://www.w3.org/1999/xlink">
<g id="graph0" class="graph" transform="scale(1 1) rotate(0) translate(4 114.15)">
<title>ra00aa</title>
<polygon fill="white" stroke="transparent" points="-4,4 -4,-114.15 623,-114.15 623,4 -4,4"/>
<!-- Node1 -->
<g id="node1" class="node">
<title>Node1</title>
<g id="a_node1"><a xlink:title="Writes vector potential to .ext.sp.A .">
<polygon fill="#bfbfbf" stroke="black" points="573,-39.5 573,-58.5 619,-58.5 619,-39.5 573,-39.5"/>
<text text-anchor="middle" x="596" y="-46.5" font-family="Helvetica,sans-Serif" font-size="10.00">ra00aa</text>
</a>
</g>
</g>
<!-- Node2 -->
<g id="node2" class="node">
<title>Node2</title>
<g id="a_node2"><a xlink:href="group__grp__initialization.html#ga28628de0fdb3b3497668007d8d0643bd" target="_top" xlink:title="Allocates and initializes internal arrays.">
<polygon fill="white" stroke="black" points="493,-58.5 493,-77.5 537,-77.5 537,-58.5 493,-58.5"/>
<text text-anchor="middle" x="515" y="-65.5" font-family="Helvetica,sans-Serif" font-size="10.00">preset</text>
</a>
</g>
</g>
<!-- Node1&#45;&gt;Node2 -->
<g id="edge1" class="edge">
<title>Node1&#45;&gt;Node2</title>
<path fill="none" stroke="midnightblue" d="M563.06,-56.68C554.31,-58.79 545.05,-61.01 537.07,-62.93"/>
<polygon fill="midnightblue" stroke="midnightblue" points="564.09,-60.03 572.99,-54.29 562.45,-53.23 564.09,-60.03"/>
</g>
<!-- Node4 -->
<g id="node4" class="node">
<title>Node4</title>
<g id="a_node4"><a xlink:href="xspech_8f90.html#a48f45478dc2c9f70ea8aa1c60ad06503" target="_top" xlink:title="This is the main &quot;driver&quot; for the physics part of SPEC.">
<polygon fill="white" stroke="black" points="338,-20.5 338,-39.5 376,-39.5 376,-20.5 338,-20.5"/>
<text text-anchor="middle" x="357" y="-27.5" font-family="Helvetica,sans-Serif" font-size="10.00">spec</text>
</a>
</g>
</g>
<!-- Node1&#45;&gt;Node4 -->
<g id="edge12" class="edge">
<title>Node1&#45;&gt;Node4</title>
<path fill="none" stroke="midnightblue" d="M562.64,-46.41C512.08,-42.35 416.02,-34.65 376.1,-31.45"/>
<polygon fill="midnightblue" stroke="midnightblue" points="562.46,-49.9 572.7,-47.21 563.02,-42.92 562.46,-49.9"/>
</g>
<!-- Node3 -->
<g id="node3" class="node">
<title>Node3</title>
<g id="a_node3"><a xlink:href="group__grp__diagnostics.html#ga7401b50ec10c6598ee4a8112717a63ec" target="_top" xlink:title="Computes eigenvalues and eigenvectors of derivative matrix, .">
<polygon fill="white" stroke="black" points="412,-58.5 412,-77.5 457,-77.5 457,-58.5 412,-58.5"/>
<text text-anchor="middle" x="434.5" y="-65.5" font-family="Helvetica,sans-Serif" font-size="10.00">hesian</text>
</a>
</g>
</g>
<!-- Node2&#45;&gt;Node3 -->
<g id="edge2" class="edge">
<title>Node2&#45;&gt;Node3</title>
<path fill="none" stroke="midnightblue" d="M482.85,-68C474.24,-68 465.08,-68 457.14,-68"/>
<polygon fill="midnightblue" stroke="midnightblue" points="482.96,-71.5 492.96,-68 482.96,-64.5 482.96,-71.5"/>
</g>
<!-- Node6 -->
<g id="node6" class="node">
<title>Node6</title>
<g id="a_node6"><a xlink:href="xspech_8f90.html#a9fdc71dffd7c61ee4588a3f80d3ab9ce" target="_top" xlink:title="Main subroutine of SPEC.">
<polygon fill="white" stroke="black" points="125,-38.5 125,-57.5 172,-57.5 172,-38.5 125,-38.5"/>
<text text-anchor="middle" x="148.5" y="-45.5" font-family="Helvetica,sans-Serif" font-size="10.00">xspech</text>
</a>
</g>
</g>
<!-- Node2&#45;&gt;Node6 -->
<g id="edge11" class="edge">
<title>Node2&#45;&gt;Node6</title>
<path fill="none" stroke="midnightblue" d="M483.04,-80.16C474.71,-82.93 465.62,-85.49 457,-87 347.99,-106.14 313.17,-125.49 208,-91 188.12,-84.48 169.42,-68.33 158.74,-57.79"/>
<polygon fill="midnightblue" stroke="midnightblue" points="484.46,-83.37 492.74,-76.76 482.14,-76.77 484.46,-83.37"/>
</g>
<!-- Node3&#45;&gt;Node4 -->
<g id="edge3" class="edge">
<title>Node3&#45;&gt;Node4</title>
<path fill="none" stroke="midnightblue" d="M405.4,-53.86C395.57,-48.91 384.79,-43.49 376.01,-39.06"/>
<polygon fill="midnightblue" stroke="midnightblue" points="403.94,-57.04 414.45,-58.41 407.09,-50.79 403.94,-57.04"/>
</g>
<!-- Node5 -->
<g id="node5" class="node">
<title>Node5</title>
<g id="a_node5"><a xlink:href="group__grp__output.html#ga0f962c09cd5d5eba99f1cba043cb3898" target="_top" xlink:title="Initialize the interface to the HDF5 library and open the output file.">
<polygon fill="white" stroke="black" points="208,-62.5 208,-81.5 302,-81.5 302,-62.5 208,-62.5"/>
<text text-anchor="middle" x="255" y="-69.5" font-family="Helvetica,sans-Serif" font-size="10.00">sphdf5::init_outfile</text>
</a>
</g>
</g>
<!-- Node4&#45;&gt;Node5 -->
<g id="edge4" class="edge">
<title>Node4&#45;&gt;Node5</title>
<path fill="none" stroke="midnightblue" d="M328.04,-41.74C312.5,-48.27 293.41,-56.29 278.79,-62.43"/>
<polygon fill="midnightblue" stroke="midnightblue" points="329.79,-44.8 337.66,-37.7 327.08,-38.35 329.79,-44.8"/>
</g>
<!-- Node4&#45;&gt;Node6 -->
<g id="edge10" class="edge">
<title>Node4&#45;&gt;Node6</title>
<path fill="none" stroke="midnightblue" d="M327.44,-27.65C285.98,-28.58 209.95,-35.35 172.12,-41.62"/>
<polygon fill="midnightblue" stroke="midnightblue" points="327.71,-31.15 337.67,-27.55 327.64,-24.15 327.71,-31.15"/>
</g>
<!-- Node5&#45;&gt;Node6 -->
<g id="edge5" class="edge">
<title>Node5&#45;&gt;Node6</title>
<path fill="none" stroke="midnightblue" d="M202.6,-60.19C191.85,-57.73 181.06,-55.25 172.04,-53.18"/>
<polygon fill="midnightblue" stroke="midnightblue" points="201.87,-63.62 212.4,-62.45 203.44,-56.8 201.87,-63.62"/>
</g>
<!-- Node6&#45;&gt;Node4 -->
<g id="edge8" class="edge">
<title>Node6&#45;&gt;Node4</title>
<path fill="none" stroke="midnightblue" d="M182.28,-50.23C226.23,-48.92 302.75,-41.9 337.67,-35.64"/>
<polygon fill="midnightblue" stroke="midnightblue" points="182.04,-46.74 172.12,-50.44 182.19,-53.74 182.04,-46.74"/>
</g>
<!-- Node7 -->
<g id="node7" class="node">
<title>Node7</title>
<g id="a_node7"><a xlink:href="xspech_8f90.html#a1451823a7b97101a797de616250752c1" target="_top" xlink:title="Final diagnostics.">
<polygon fill="white" stroke="black" points="0,-38.5 0,-57.5 89,-57.5 89,-38.5 0,-38.5"/>
<text text-anchor="middle" x="44.5" y="-45.5" font-family="Helvetica,sans-Serif" font-size="10.00">final_diagnostics</text>
</a>
</g>
</g>
<!-- Node6&#45;&gt;Node7 -->
<g id="edge6" class="edge">
<title>Node6&#45;&gt;Node7</title>
<path fill="none" stroke="midnightblue" d="M114.63,-41.64C106.47,-41.27 97.59,-41.16 89.01,-41.32"/>
<polygon fill="midnightblue" stroke="midnightblue" points="114.67,-45.15 124.86,-42.28 115.1,-38.17 114.67,-45.15"/>
</g>
<!-- Node8 -->
<g id="node8" class="node">
<title>Node8</title>
<g id="a_node8"><a xlink:href="xspech_8f90.html#a95271e8805067f801b5d4e524d6901d4" target="_top" xlink:title="Main program of SPEC.">
<polygon fill="white" stroke="black" points="12.5,-0.5 12.5,-19.5 76.5,-19.5 76.5,-0.5 12.5,-0.5"/>
<text text-anchor="middle" x="44.5" y="-7.5" font-family="Helvetica,sans-Serif" font-size="10.00">spec_main</text>
</a>
</g>
</g>
<!-- Node6&#45;&gt;Node8 -->
<g id="edge9" class="edge">
<title>Node6&#45;&gt;Node8</title>
<path fill="none" stroke="midnightblue" d="M115.45,-36.06C101.23,-30.76 84.72,-24.61 71.31,-19.62"/>
<polygon fill="midnightblue" stroke="midnightblue" points="114.27,-39.36 124.86,-39.57 116.71,-32.8 114.27,-39.36"/>
</g>
<!-- Node7&#45;&gt;Node6 -->
<g id="edge7" class="edge">
<title>Node7&#45;&gt;Node6</title>
<path fill="none" stroke="midnightblue" d="M99.21,-54.74C108.25,-54.68 117.19,-54.34 124.86,-53.72"/>
<polygon fill="midnightblue" stroke="midnightblue" points="99.03,-51.24 89.01,-54.68 98.99,-58.24 99.03,-51.24"/>
</g>
</g>
</svg>
