<?xml version="1.0" encoding="UTF-8" standalone="no"?>
<!DOCTYPE svg PUBLIC "-//W3C//DTD SVG 1.1//EN"
 "http://www.w3.org/Graphics/SVG/1.1/DTD/svg11.dtd">
<!-- Generated by graphviz version 2.47.1 (0)
 -->
<!-- Title: rzaxis Pages: 1 -->
<svg width="735pt" height="449pt"
 viewBox="0.00 0.00 735.00 449.48" xmlns="http://www.w3.org/2000/svg" xmlns:xlink="http://www.w3.org/1999/xlink">
<g id="graph0" class="graph" transform="scale(1 1) rotate(0) translate(4 445.48)">
<title>rzaxis</title>
<polygon fill="white" stroke="transparent" points="-4,4 -4,-445.48 731,-445.48 731,4 -4,4"/>
<!-- Node1 -->
<g id="node1" class="node">
<title>Node1</title>
<g id="a_node1"><a xlink:title="The coordinate axis is assigned via a poloidal average over an arbitrary surface.">
<polygon fill="#bfbfbf" stroke="black" points="686,-307.98 686,-326.98 727,-326.98 727,-307.98 686,-307.98"/>
<text text-anchor="middle" x="706.5" y="-314.98" font-family="Helvetica,sans-Serif" font-size="10.00">rzaxis</text>
</a>
</g>
</g>
<!-- Node2 -->
<g id="node2" class="node">
<title>Node2</title>
<g id="a_node2"><a xlink:href="group__grp__packing.html#ga094e630c02686dd178749eb1efbf13fb" target="_top" xlink:title="Packs, and unpacks, geometrical degrees of freedom; and sets coordinate axis.">
<polygon fill="white" stroke="black" points="606,-288.98 606,-307.98 650,-307.98 650,-288.98 606,-288.98"/>
<text text-anchor="middle" x="628" y="-295.98" font-family="Helvetica,sans-Serif" font-size="10.00">packxi</text>
</a>
</g>
</g>
<!-- Node1&#45;&gt;Node2 -->
<g id="edge1" class="edge">
<title>Node1&#45;&gt;Node2</title>
<path fill="none" stroke="midnightblue" d="M675.81,-310.11C667.28,-307.99 658.15,-305.72 650.24,-303.76"/>
<polygon fill="midnightblue" stroke="midnightblue" points="675.25,-313.57 685.8,-312.59 676.94,-306.78 675.25,-313.57"/>
</g>
<!-- Node20 -->
<g id="node20" class="node">
<title>Node20</title>
<g id="a_node20"><a xlink:href="group__grp__initialization.html#ga28628de0fdb3b3497668007d8d0643bd" target="_top" xlink:title="Allocates and initializes internal arrays.">
<polygon fill="white" stroke="black" points="526,-421.98 526,-440.98 570,-440.98 570,-421.98 526,-421.98"/>
<text text-anchor="middle" x="548" y="-428.98" font-family="Helvetica,sans-Serif" font-size="10.00">preset</text>
</a>
</g>
</g>
<!-- Node1&#45;&gt;Node20 -->
<g id="edge39" class="edge">
<title>Node1&#45;&gt;Node20</title>
<path fill="none" stroke="midnightblue" d="M683.98,-333.15C651.14,-357.08 589.48,-401.99 562.37,-421.74"/>
<polygon fill="midnightblue" stroke="midnightblue" points="686.4,-335.72 692.43,-327 682.28,-330.06 686.4,-335.72"/>
</g>
<!-- Node3 -->
<g id="node3" class="node">
<title>Node3</title>
<g id="a_node3"><a xlink:href="group__grp__global__force.html#ga38c9d3c50bd043707fefa5137c9dbf44" target="_top" xlink:title="Calculates , where &#160;and , and .">
<polygon fill="white" stroke="black" points="526,-212.98 526,-231.98 570,-231.98 570,-212.98 526,-212.98"/>
<text text-anchor="middle" x="548" y="-219.98" font-family="Helvetica,sans-Serif" font-size="10.00">dforce</text>
</a>
</g>
</g>
<!-- Node2&#45;&gt;Node3 -->
<g id="edge2" class="edge">
<title>Node2&#45;&gt;Node3</title>
<path fill="none" stroke="midnightblue" d="M609.69,-281.61C594.14,-266.46 571.83,-244.73 559.04,-232.27"/>
<polygon fill="midnightblue" stroke="midnightblue" points="607.52,-284.38 617.12,-288.85 612.4,-279.37 607.52,-284.38"/>
</g>
<!-- Node6 -->
<g id="node6" class="node">
<title>Node6</title>
<g id="a_node6"><a xlink:href="xspech_8f90.html#a48f45478dc2c9f70ea8aa1c60ad06503" target="_top" xlink:title=" ">
<polygon fill="white" stroke="black" points="168.5,-383.98 168.5,-402.98 206.5,-402.98 206.5,-383.98 168.5,-383.98"/>
<text text-anchor="middle" x="187.5" y="-390.98" font-family="Helvetica,sans-Serif" font-size="10.00">spec</text>
</a>
</g>
</g>
<!-- Node2&#45;&gt;Node6 -->
<g id="edge38" class="edge">
<title>Node2&#45;&gt;Node6</title>
<path fill="none" stroke="midnightblue" d="M595.91,-307.9C568.27,-316.09 526.66,-327.94 490,-336.48 383.38,-361.3 253.65,-383 206.62,-390.6"/>
<polygon fill="midnightblue" stroke="midnightblue" points="597.2,-311.17 605.78,-304.96 595.2,-304.46 597.2,-311.17"/>
</g>
<!-- Node8 -->
<g id="node8" class="node">
<title>Node8</title>
<g id="a_node8"><a xlink:href="group__grp__force__driver.html#gabbc245b3884ee8d8d3e2a52f25149f78" target="_top" xlink:title="fcn1">
<polygon fill="white" stroke="black" points="410,-155.98 410,-174.98 445,-174.98 445,-155.98 410,-155.98"/>
<text text-anchor="middle" x="427.5" y="-162.98" font-family="Helvetica,sans-Serif" font-size="10.00">fcn1</text>
</a>
</g>
</g>
<!-- Node2&#45;&gt;Node8 -->
<g id="edge35" class="edge">
<title>Node2&#45;&gt;Node8</title>
<path fill="none" stroke="midnightblue" d="M620.51,-279.26C612.2,-257.6 595.73,-222.89 570,-203.48 531.83,-174.68 473.41,-167.68 445.07,-166"/>
<polygon fill="midnightblue" stroke="midnightblue" points="617.24,-280.51 623.93,-288.72 623.82,-278.12 617.24,-280.51"/>
</g>
<!-- Node10 -->
<g id="node10" class="node">
<title>Node10</title>
<g id="a_node10"><a xlink:href="group__grp__force__driver.html#ga8ccd6c7d901872702521d0a0edf95412" target="_top" xlink:title="fcn2">
<polygon fill="white" stroke="black" points="29.5,-193.98 29.5,-212.98 64.5,-212.98 64.5,-193.98 29.5,-193.98"/>
<text text-anchor="middle" x="47" y="-200.98" font-family="Helvetica,sans-Serif" font-size="10.00">fcn2</text>
</a>
</g>
</g>
<!-- Node2&#45;&gt;Node10 -->
<g id="edge36" class="edge">
<title>Node2&#45;&gt;Node10</title>
<path fill="none" stroke="midnightblue" d="M623.64,-278.76C611.17,-212.87 561.24,-4.48 428.5,-4.48 428.5,-4.48 428.5,-4.48 304,-4.48 225.74,-4.48 192.77,15.25 130,-31.48 73.74,-73.36 54.43,-163.83 49.45,-193.69"/>
<polygon fill="midnightblue" stroke="midnightblue" points="620.21,-279.48 625.43,-288.7 627.1,-278.23 620.21,-279.48"/>
</g>
<!-- Node17 -->
<g id="node17" class="node">
<title>Node17</title>
<g id="a_node17"><a xlink:href="group__grp__diagnostics.html#ga7401b50ec10c6598ee4a8112717a63ec" target="_top" xlink:title="Computes eigenvalues and eigenvectors of derivative matrix, .">
<polygon fill="white" stroke="black" points="405,-383.98 405,-402.98 450,-402.98 450,-383.98 405,-383.98"/>
<text text-anchor="middle" x="427.5" y="-390.98" font-family="Helvetica,sans-Serif" font-size="10.00">hesian</text>
</a>
</g>
</g>
<!-- Node2&#45;&gt;Node17 -->
<g id="edge37" class="edge">
<title>Node2&#45;&gt;Node17</title>
<path fill="none" stroke="midnightblue" d="M617.34,-316.96C607.67,-333.51 591.19,-357.03 570,-369.48 532.19,-391.69 479.49,-394.71 450.24,-394.42"/>
<polygon fill="midnightblue" stroke="midnightblue" points="620.43,-318.6 622.23,-308.16 614.31,-315.2 620.43,-318.6"/>
</g>
<!-- Node4 -->
<g id="node4" class="node">
<title>Node4</title>
<g id="a_node4"><a xlink:href="namespaceallglobal.html#a7824bc37519fe88336534ce90ab2af16" target="_top" xlink:title=" ">
<polygon fill="white" stroke="black" points="370.5,-307.98 370.5,-326.98 484.5,-326.98 484.5,-307.98 370.5,-307.98"/>
<text text-anchor="middle" x="427.5" y="-314.98" font-family="Helvetica,sans-Serif" font-size="10.00">allglobal::check_inputs</text>
</a>
</g>
</g>
<!-- Node3&#45;&gt;Node4 -->
<g id="edge3" class="edge">
<title>Node3&#45;&gt;Node4</title>
<path fill="none" stroke="midnightblue" d="M536.09,-240.95C525.91,-256.79 509.42,-279.23 490,-293.48 481.78,-299.51 471.84,-304.25 462.37,-307.87"/>
<polygon fill="midnightblue" stroke="midnightblue" points="539.29,-242.43 541.57,-232.08 533.34,-238.75 539.29,-242.43"/>
</g>
<!-- Node3&#45;&gt;Node6 -->
<g id="edge34" class="edge">
<title>Node3&#45;&gt;Node6</title>
<path fill="none" stroke="midnightblue" d="M526.84,-238.03C516.3,-245.6 502.94,-254.36 490,-260.48 437.5,-285.29 418.83,-276.72 365,-298.48 326.12,-314.2 317.95,-321.64 281,-341.48 254.22,-355.85 223.53,-373.3 205.1,-383.89"/>
<polygon fill="midnightblue" stroke="midnightblue" points="528.99,-240.8 534.95,-232.04 524.83,-235.17 528.99,-240.8"/>
</g>
<!-- Node3&#45;&gt;Node8 -->
<g id="edge9" class="edge">
<title>Node3&#45;&gt;Node8</title>
<path fill="none" stroke="midnightblue" d="M523.23,-207.63C513.17,-201.63 501.2,-194.87 490,-189.48 475.23,-182.37 457.77,-175.72 445.24,-171.23"/>
<polygon fill="midnightblue" stroke="midnightblue" points="521.5,-210.67 531.86,-212.86 525.13,-204.69 521.5,-210.67"/>
</g>
<!-- Node9 -->
<g id="node9" class="node">
<title>Node9</title>
<g id="a_node9"><a xlink:href="group__grp__force__driver.html#gaec14f81fbdbedafbc4189489ec8ae178" target="_top" xlink:title="Employs Newton method to find , where &#160;and &#160;is defined in dforce() .">
<polygon fill="white" stroke="black" points="281,-193.98 281,-212.98 329,-212.98 329,-193.98 281,-193.98"/>
<text text-anchor="middle" x="305" y="-200.98" font-family="Helvetica,sans-Serif" font-size="10.00">newton</text>
</a>
</g>
</g>
<!-- Node3&#45;&gt;Node9 -->
<g id="edge31" class="edge">
<title>Node3&#45;&gt;Node9</title>
<path fill="none" stroke="midnightblue" d="M515.55,-220C466.41,-216.12 372.53,-208.72 329.09,-205.3"/>
<polygon fill="midnightblue" stroke="midnightblue" points="515.37,-223.5 525.61,-220.79 515.92,-216.52 515.37,-223.5"/>
</g>
<!-- Node3&#45;&gt;Node10 -->
<g id="edge18" class="edge">
<title>Node3&#45;&gt;Node10</title>
<path fill="none" stroke="midnightblue" d="M546.16,-202.48C543.56,-168.8 532.95,-101.43 490,-70.48 425.07,-23.7 199.31,-21.47 130,-61.48 78.47,-91.23 56.42,-167.05 50.07,-193.89"/>
<polygon fill="midnightblue" stroke="midnightblue" points="542.7,-203.1 546.79,-212.87 549.68,-202.68 542.7,-203.1"/>
</g>
<!-- Node12 -->
<g id="node12" class="node">
<title>Node12</title>
<g id="a_node12"><a xlink:href="dfp200_8f90.html#a6aca59cf350d7b1941f8389d50945a43" target="_top" xlink:title="get LU Beltrami matrices">
<polygon fill="white" stroke="black" points="365,-79.98 365,-98.98 490,-98.98 490,-79.98 365,-79.98"/>
<text text-anchor="middle" x="427.5" y="-86.98" font-family="Helvetica,sans-Serif" font-size="10.00">get_lu_beltrami_matrices</text>
</a>
</g>
</g>
<!-- Node3&#45;&gt;Node12 -->
<g id="edge19" class="edge">
<title>Node3&#45;&gt;Node12</title>
<path fill="none" stroke="midnightblue" d="M541.53,-203.13C533.79,-179.04 517.45,-138.07 490,-113.48 483.09,-107.28 474.39,-102.61 465.73,-99.11"/>
<polygon fill="midnightblue" stroke="midnightblue" points="538.24,-204.34 544.49,-212.89 544.94,-202.31 538.24,-204.34"/>
</g>
<!-- Node3&#45;&gt;Node17 -->
<g id="edge29" class="edge">
<title>Node3&#45;&gt;Node17</title>
<path fill="none" stroke="midnightblue" d="M539.94,-241.53C530.65,-265.18 512.8,-306.08 490,-336.48 475.85,-355.35 454.98,-373.16 441.56,-383.7"/>
<polygon fill="midnightblue" stroke="midnightblue" points="543.29,-242.58 543.6,-231.98 536.75,-240.07 543.29,-242.58"/>
</g>
<!-- Node18 -->
<g id="node18" class="node">
<title>Node18</title>
<g id="a_node18"><a xlink:href="group__grp__conjugate__gradient.html#ga4d8415226e62a9fdb42b0fd0b464251e" target="_top" xlink:title="Returns the energy functional and it&#39;s derivatives with respect to geometry.">
<polygon fill="white" stroke="black" points="403.5,-231.98 403.5,-250.98 451.5,-250.98 451.5,-231.98 403.5,-231.98"/>
<text text-anchor="middle" x="427.5" y="-238.98" font-family="Helvetica,sans-Serif" font-size="10.00">pc00ab</text>
</a>
</g>
</g>
<!-- Node3&#45;&gt;Node18 -->
<g id="edge32" class="edge">
<title>Node3&#45;&gt;Node18</title>
<path fill="none" stroke="midnightblue" d="M515.85,-227.47C495.68,-230.71 469.85,-234.85 451.53,-237.79"/>
<polygon fill="midnightblue" stroke="midnightblue" points="516.49,-230.91 525.81,-225.88 515.39,-224 516.49,-230.91"/>
</g>
<!-- Node5 -->
<g id="node5" class="node">
<title>Node5</title>
<g id="a_node5"><a xlink:href="xspech_8f90.html#aea782eae089760a491c2c54f9903abcc" target="_top" xlink:title="Main program of SPEC.">
<polygon fill="white" stroke="black" points="281.5,-421.98 281.5,-440.98 328.5,-440.98 328.5,-421.98 281.5,-421.98"/>
<text text-anchor="middle" x="305" y="-428.98" font-family="Helvetica,sans-Serif" font-size="10.00">xspech</text>
</a>
</g>
</g>
<!-- Node4&#45;&gt;Node5 -->
<g id="edge4" class="edge">
<title>Node4&#45;&gt;Node5</title>
<path fill="none" stroke="midnightblue" d="M408.6,-333.89C396.28,-345.23 379.57,-360.69 365,-374.48 347.62,-390.92 327.64,-410.33 315.96,-421.73"/>
<polygon fill="midnightblue" stroke="midnightblue" points="411,-336.44 415.99,-327.1 406.26,-331.28 411,-336.44"/>
</g>
<!-- Node5&#45;&gt;Node6 -->
<g id="edge5" class="edge">
<title>Node5&#45;&gt;Node6</title>
<path fill="none" stroke="midnightblue" d="M279.63,-417.84C257.82,-408.99 226.32,-398.81 206.65,-394.38"/>
<polygon fill="midnightblue" stroke="midnightblue" points="278.33,-421.08 288.9,-421.78 281.07,-414.64 278.33,-421.08"/>
</g>
<!-- Node6&#45;&gt;Node5 -->
<g id="edge8" class="edge">
<title>Node6&#45;&gt;Node5</title>
<path fill="none" stroke="midnightblue" d="M212.76,-407.08C233.02,-415.3 261.69,-424.68 281.46,-429.54"/>
<polygon fill="midnightblue" stroke="midnightblue" points="213.86,-403.74 203.29,-403.04 211.11,-410.18 213.86,-403.74"/>
</g>
<!-- Node7 -->
<g id="node7" class="node">
<title>Node7</title>
<g id="a_node7"><a xlink:href="namespacesphdf5.html#a0f962c09cd5d5eba99f1cba043cb3898" target="_top" xlink:title="initialize the interface to the HDF5 library and open the output file">
<polygon fill="white" stroke="black" points="0,-402.98 0,-421.98 94,-421.98 94,-402.98 0,-402.98"/>
<text text-anchor="middle" x="47" y="-409.98" font-family="Helvetica,sans-Serif" font-size="10.00">sphdf5::init_outfile</text>
</a>
</g>
</g>
<!-- Node6&#45;&gt;Node7 -->
<g id="edge6" class="edge">
<title>Node6&#45;&gt;Node7</title>
<path fill="none" stroke="midnightblue" d="M158.31,-397.35C139.87,-399.88 115.36,-403.24 94.12,-406.15"/>
<polygon fill="midnightblue" stroke="midnightblue" points="158.96,-400.79 168.39,-395.96 158.01,-393.85 158.96,-400.79"/>
</g>
<!-- Node7&#45;&gt;Node5 -->
<g id="edge7" class="edge">
<title>Node7&#45;&gt;Node5</title>
<path fill="none" stroke="midnightblue" d="M104.27,-416.66C159.79,-420.78 241.88,-426.87 281.28,-429.79"/>
<polygon fill="midnightblue" stroke="midnightblue" points="104.47,-413.16 94.23,-415.91 103.95,-420.14 104.47,-413.16"/>
</g>
<!-- Node8&#45;&gt;Node9 -->
<g id="edge10" class="edge">
<title>Node8&#45;&gt;Node9</title>
<path fill="none" stroke="midnightblue" d="M399.84,-168.17C375.79,-174.09 341.24,-185.33 321.47,-193.9"/>
<polygon fill="midnightblue" stroke="midnightblue" points="400.77,-171.55 409.74,-165.92 399.22,-164.72 400.77,-171.55"/>
</g>
<!-- Node9&#45;&gt;Node6 -->
<g id="edge14" class="edge">
<title>Node9&#45;&gt;Node6</title>
<path fill="none" stroke="midnightblue" d="M283.19,-219.99C282.42,-220.81 281.69,-221.64 281,-222.48 236.2,-276.97 202.9,-356.46 192.18,-383.81"/>
<polygon fill="midnightblue" stroke="midnightblue" points="285.62,-222.51 290.55,-213.13 280.84,-217.39 285.62,-222.51"/>
</g>
<!-- Node9&#45;&gt;Node8 -->
<g id="edge11" class="edge">
<title>Node9&#45;&gt;Node8</title>
<path fill="none" stroke="midnightblue" d="M339.04,-199.16C362.39,-192.99 392.63,-183 410.75,-175.18"/>
<polygon fill="midnightblue" stroke="midnightblue" points="338.05,-195.8 329.19,-201.62 339.74,-202.59 338.05,-195.8"/>
</g>
<!-- Node9&#45;&gt;Node10 -->
<g id="edge12" class="edge">
<title>Node9&#45;&gt;Node10</title>
<path fill="none" stroke="midnightblue" d="M270.84,-198.76C215.53,-195.71 106.41,-196.09 64.72,-199.93"/>
<polygon fill="midnightblue" stroke="midnightblue" points="270.63,-202.26 280.83,-199.4 271.07,-195.27 270.63,-202.26"/>
</g>
<!-- Node11 -->
<g id="node11" class="node">
<title>Node11</title>
<g id="a_node11"><a xlink:href="group__grp__force__driver.html#ga382822b303cbf8c56d6f54dcb379caf2" target="_top" xlink:title="read or write force&#45;derivative matrix">
<polygon fill="white" stroke="black" points="155,-240.98 155,-259.98 220,-259.98 220,-240.98 155,-240.98"/>
<text text-anchor="middle" x="187.5" y="-247.98" font-family="Helvetica,sans-Serif" font-size="10.00">writereadgf</text>
</a>
</g>
</g>
<!-- Node9&#45;&gt;Node11 -->
<g id="edge15" class="edge">
<title>Node9&#45;&gt;Node11</title>
<path fill="none" stroke="midnightblue" d="M271.39,-210.6C248.07,-218.9 217.95,-231.73 201.19,-240.9"/>
<polygon fill="midnightblue" stroke="midnightblue" points="272.57,-213.9 280.9,-207.35 270.31,-207.27 272.57,-213.9"/>
</g>
<!-- Node10&#45;&gt;Node9 -->
<g id="edge13" class="edge">
<title>Node10&#45;&gt;Node9</title>
<path fill="none" stroke="midnightblue" d="M74.85,-207.81C125.28,-211.12 233.36,-211.03 280.83,-207.56"/>
<polygon fill="midnightblue" stroke="midnightblue" points="74.96,-204.31 64.72,-207.03 74.43,-211.29 74.96,-204.31"/>
</g>
<!-- Node11&#45;&gt;Node9 -->
<g id="edge17" class="edge">
<title>Node11&#45;&gt;Node9</title>
<path fill="none" stroke="midnightblue" d="M229.74,-240.2C251.39,-232.06 276.43,-221.19 291.2,-213.12"/>
<polygon fill="midnightblue" stroke="midnightblue" points="228.27,-237.01 220.07,-243.72 230.67,-243.58 228.27,-237.01"/>
</g>
<!-- Node11&#45;&gt;Node10 -->
<g id="edge16" class="edge">
<title>Node11&#45;&gt;Node10</title>
<path fill="none" stroke="midnightblue" d="M148.77,-237.68C121.28,-228.35 85.37,-216.16 64.68,-209.14"/>
<polygon fill="midnightblue" stroke="midnightblue" points="147.88,-241.07 158.47,-240.97 150.13,-234.44 147.88,-241.07"/>
</g>
<!-- Node13 -->
<g id="node13" class="node">
<title>Node13</title>
<g id="a_node13"><a xlink:href="dfp200_8f90.html#a55ea75395f8c71731451e1add3720c7e" target="_top" xlink:title="Given the field consistent with the constraints and the geometry, computes local quantites related to...">
<polygon fill="white" stroke="black" points="282,-108.98 282,-127.98 328,-127.98 328,-108.98 282,-108.98"/>
<text text-anchor="middle" x="305" y="-115.98" font-family="Helvetica,sans-Serif" font-size="10.00">dfp200</text>
</a>
</g>
</g>
<!-- Node12&#45;&gt;Node13 -->
<g id="edge20" class="edge">
<title>Node12&#45;&gt;Node13</title>
<path fill="none" stroke="midnightblue" d="M354.9,-100.07C343.7,-102.98 333.05,-106.08 324.56,-108.98"/>
<polygon fill="midnightblue" stroke="midnightblue" points="355.99,-103.4 364.84,-97.57 354.29,-96.61 355.99,-103.4"/>
</g>
<!-- Node13&#45;&gt;Node3 -->
<g id="edge21" class="edge">
<title>Node13&#45;&gt;Node3</title>
<path fill="none" stroke="midnightblue" d="M338.37,-116.29C377.18,-115.18 442.86,-118.27 490,-146.48 516.75,-162.48 535.07,-196.28 542.83,-212.87"/>
<polygon fill="midnightblue" stroke="midnightblue" points="338.03,-112.8 328.18,-116.69 338.31,-119.79 338.03,-112.8"/>
</g>
<!-- Node13&#45;&gt;Node12 -->
<g id="edge26" class="edge">
<title>Node13&#45;&gt;Node12</title>
<path fill="none" stroke="midnightblue" d="M338.09,-116.8C360.4,-112.63 389.36,-105.33 407.94,-98.98"/>
<polygon fill="midnightblue" stroke="midnightblue" points="337.32,-113.38 328.06,-118.53 338.51,-120.28 337.32,-113.38"/>
</g>
<!-- Node14 -->
<g id="node14" class="node">
<title>Node14</title>
<g id="a_node14"><a xlink:href="dfp200_8f90.html#a7b64c7392b45d0042d8bd7379c0761a5" target="_top" xlink:title="Evaluate the derivative of the square of the magnetic field modulus. Add spectral constraint derivati...">
<polygon fill="white" stroke="black" points="150.5,-146.98 150.5,-165.98 224.5,-165.98 224.5,-146.98 150.5,-146.98"/>
<text text-anchor="middle" x="187.5" y="-153.98" font-family="Helvetica,sans-Serif" font-size="10.00">evaluate_dbb</text>
</a>
</g>
</g>
<!-- Node13&#45;&gt;Node14 -->
<g id="edge22" class="edge">
<title>Node13&#45;&gt;Node14</title>
<path fill="none" stroke="midnightblue" d="M271.95,-122.91C249.52,-129.1 220.6,-139.09 203.36,-146.89"/>
<polygon fill="midnightblue" stroke="midnightblue" points="272.94,-126.26 281.73,-120.35 271.17,-119.49 272.94,-126.26"/>
</g>
<!-- Node15 -->
<g id="node15" class="node">
<title>Node15</title>
<g id="a_node15"><a xlink:href="dfp200_8f90.html#a73ddf39ecc5228201fb643779e17cd36" target="_top" xlink:title="Evaluate mu and psip derivatives and store them in dmupfdx.">
<polygon fill="white" stroke="black" points="140,-108.98 140,-127.98 235,-127.98 235,-108.98 140,-108.98"/>
<text text-anchor="middle" x="187.5" y="-115.98" font-family="Helvetica,sans-Serif" font-size="10.00">evaluate_dmupfdx</text>
</a>
</g>
</g>
<!-- Node13&#45;&gt;Node15 -->
<g id="edge24" class="edge">
<title>Node13&#45;&gt;Node15</title>
<path fill="none" stroke="midnightblue" d="M271.47,-112.34C260.18,-111.76 247.28,-111.59 235.08,-111.84"/>
<polygon fill="midnightblue" stroke="midnightblue" points="271.52,-115.85 281.73,-113.02 271.99,-108.86 271.52,-115.85"/>
</g>
<!-- Node16 -->
<g id="node16" class="node">
<title>Node16</title>
<g id="a_node16"><a xlink:href="dfp200_8f90.html#a5e56f1f4b1e6df11a9cffa6237c37469" target="_top" xlink:title="This routine evaluates the value of the magnetic field once the interface is perturbed using matrix p...">
<polygon fill="white" stroke="black" points="130,-70.98 130,-89.98 245,-89.98 245,-70.98 130,-70.98"/>
<text text-anchor="middle" x="187.5" y="-77.98" font-family="Helvetica,sans-Serif" font-size="10.00">get_perturbed_solution</text>
</a>
</g>
</g>
<!-- Node13&#45;&gt;Node16 -->
<g id="edge27" class="edge">
<title>Node13&#45;&gt;Node16</title>
<path fill="none" stroke="midnightblue" d="M279.49,-104.78C267.37,-99.87 252.29,-94.56 237.9,-90.05"/>
<polygon fill="midnightblue" stroke="midnightblue" points="278.33,-108.09 288.9,-108.78 281.07,-101.65 278.33,-108.09"/>
</g>
<!-- Node14&#45;&gt;Node13 -->
<g id="edge23" class="edge">
<title>Node14&#45;&gt;Node13</title>
<path fill="none" stroke="midnightblue" d="M234.59,-147.94C253.93,-141.99 275.09,-134.4 288.9,-128.18"/>
<polygon fill="midnightblue" stroke="midnightblue" points="233.57,-144.59 224.99,-150.8 235.57,-151.3 233.57,-144.59"/>
</g>
<!-- Node15&#45;&gt;Node13 -->
<g id="edge25" class="edge">
<title>Node15&#45;&gt;Node13</title>
<path fill="none" stroke="midnightblue" d="M245.38,-125.23C258.3,-125.25 271.28,-124.82 281.73,-123.94"/>
<polygon fill="midnightblue" stroke="midnightblue" points="245.12,-121.73 235.08,-125.12 245.04,-128.72 245.12,-121.73"/>
</g>
<!-- Node16&#45;&gt;Node13 -->
<g id="edge28" class="edge">
<title>Node16&#45;&gt;Node13</title>
<path fill="none" stroke="midnightblue" d="M212.59,-94.01C232.96,-102.28 261.9,-111.76 281.73,-116.61"/>
<polygon fill="midnightblue" stroke="midnightblue" points="213.93,-90.78 203.36,-90.07 211.19,-97.22 213.93,-90.78"/>
</g>
<!-- Node17&#45;&gt;Node6 -->
<g id="edge30" class="edge">
<title>Node17&#45;&gt;Node6</title>
<path fill="none" stroke="midnightblue" d="M394.92,-393.48C344.33,-393.48 246.75,-393.48 206.52,-393.48"/>
<polygon fill="midnightblue" stroke="midnightblue" points="394.96,-396.98 404.96,-393.48 394.96,-389.98 394.96,-396.98"/>
</g>
<!-- Node19 -->
<g id="node19" class="node">
<title>Node19</title>
<g id="a_node19"><a xlink:href="group__grp__conjugate__gradient.html#ga25a3bae2ff2ee0469b045de0d033398b" target="_top" xlink:title="Use preconditioned conjugate gradient method to find minimum of energy functional.">
<polygon fill="white" stroke="black" points="281,-231.98 281,-250.98 329,-250.98 329,-231.98 281,-231.98"/>
<text text-anchor="middle" x="305" y="-238.98" font-family="Helvetica,sans-Serif" font-size="10.00">pc00aa</text>
</a>
</g>
</g>
<!-- Node18&#45;&gt;Node19 -->
<g id="edge33" class="edge">
<title>Node18&#45;&gt;Node19</title>
<path fill="none" stroke="midnightblue" d="M393.16,-241.48C372.81,-241.48 347.31,-241.48 329.16,-241.48"/>
<polygon fill="midnightblue" stroke="midnightblue" points="393.27,-244.98 403.27,-241.48 393.27,-237.98 393.27,-244.98"/>
</g>
<!-- Node20&#45;&gt;Node5 -->
<g id="edge41" class="edge">
<title>Node20&#45;&gt;Node5</title>
<path fill="none" stroke="midnightblue" d="M515.53,-431.48C466.24,-431.48 372,-431.48 328.74,-431.48"/>
<polygon fill="midnightblue" stroke="midnightblue" points="515.61,-434.98 525.61,-431.48 515.61,-427.98 515.61,-434.98"/>
</g>
<!-- Node20&#45;&gt;Node17 -->
<g id="edge40" class="edge">
<title>Node20&#45;&gt;Node17</title>
<path fill="none" stroke="midnightblue" d="M516.21,-421.61C495.54,-414.98 468.8,-406.4 450.3,-400.47"/>
<polygon fill="midnightblue" stroke="midnightblue" points="515.22,-424.96 525.81,-424.69 517.36,-418.3 515.22,-424.96"/>
</g>
</g>
</svg>
