<?xml version="1.0" encoding="UTF-8" standalone="no"?>
<!DOCTYPE svg PUBLIC "-//W3C//DTD SVG 1.1//EN"
 "http://www.w3.org/Graphics/SVG/1.1/DTD/svg11.dtd">
<!-- Generated by graphviz version 2.49.0 (0)
 -->
<!-- Title: tr00ab Pages: 1 -->
<svg width="1172pt" height="371pt"
 viewBox="0.00 0.00 1172.00 371.00" xmlns="http://www.w3.org/2000/svg" xmlns:xlink="http://www.w3.org/1999/xlink">
<g id="graph0" class="graph" transform="scale(1 1) rotate(0) translate(4 367)">
<title>tr00ab</title>
<polygon fill="white" stroke="transparent" points="-4,4 -4,-367 1168,-367 1168,4 -4,4"/>
<!-- Node1 -->
<g id="node1" class="node">
<title>Node1</title>
<g id="a_node1"><a xlink:title="Calculates rotational transform given an arbitrary tangential field.">
<polygon fill="#bfbfbf" stroke="black" points="1120,-225.5 1120,-244.5 1164,-244.5 1164,-225.5 1120,-225.5"/>
<text text-anchor="middle" x="1142" y="-232.5" font-family="Helvetica,sans-Serif" font-size="10.00">tr00ab</text>
</a>
</g>
</g>
<!-- Node1&#45;&gt;Node1 -->
<g id="edge54" class="edge">
<title>Node1&#45;&gt;Node1</title>
<path fill="none" stroke="midnightblue" d="M1157.1,-254.77C1155.91,-259.5 1150.88,-263 1142,-263 1127.43,-263 1123.21,-253.57 1129.36,-244.76"/>
<polygon fill="midnightblue" stroke="midnightblue" points="1160.43,-253.63 1154.64,-244.76 1153.63,-255.3 1160.43,-253.63"/>
</g>
<!-- Node2 -->
<g id="node2" class="node">
<title>Node2</title>
<g id="a_node2"><a xlink:href="dfp200_8f90.html#a73ddf39ecc5228201fb643779e17cd36" target="_top" xlink:title="Evaluate mu and psip derivatives and store them in dmupfdx.">
<polygon fill="white" stroke="black" points="733,-253.5 733,-272.5 828,-272.5 828,-253.5 733,-253.5"/>
<text text-anchor="middle" x="780.5" y="-260.5" font-family="Helvetica,sans-Serif" font-size="10.00">evaluate_dmupfdx</text>
</a>
</g>
</g>
<!-- Node1&#45;&gt;Node2 -->
<g id="edge1" class="edge">
<title>Node1&#45;&gt;Node2</title>
<path fill="none" stroke="midnightblue" d="M1109.82,-240.46C1101.46,-241.78 1092.4,-243.07 1084,-244 993.77,-253.93 887.79,-259.11 828.26,-261.43"/>
<polygon fill="midnightblue" stroke="midnightblue" points="1110.65,-243.88 1119.95,-238.81 1109.52,-236.97 1110.65,-243.88"/>
</g>
<!-- Node21 -->
<g id="node21" class="node">
<title>Node21</title>
<g id="a_node21"><a xlink:href="group__grp__solver.html#ga6626839aff500f060beb5bce2b90c447" target="_top" xlink:title="Solves Beltrami/vacuum (linear) system, given matrices.unpacking fluxes, helicity multiplier">
<polygon fill="white" stroke="black" points="1033,-197.5 1033,-216.5 1084,-216.5 1084,-197.5 1033,-197.5"/>
<text text-anchor="middle" x="1058.5" y="-204.5" font-family="Helvetica,sans-Serif" font-size="10.00">mp00ac</text>
</a>
</g>
</g>
<!-- Node1&#45;&gt;Node21 -->
<g id="edge46" class="edge">
<title>Node1&#45;&gt;Node21</title>
<path fill="none" stroke="midnightblue" d="M1109.97,-224.34C1101.45,-221.41 1092.34,-218.28 1084.23,-215.5"/>
<polygon fill="midnightblue" stroke="midnightblue" points="1108.99,-227.7 1119.59,-227.64 1111.27,-221.08 1108.99,-227.7"/>
</g>
<!-- Node3 -->
<g id="node3" class="node">
<title>Node3</title>
<g id="a_node3"><a xlink:href="dfp200_8f90.html#a55ea75395f8c71731451e1add3720c7e" target="_top" xlink:title="Given the field consistent with the constraints and the geometry, computes local quantites related to...">
<polygon fill="white" stroke="black" points="651,-253.5 651,-272.5 697,-272.5 697,-253.5 651,-253.5"/>
<text text-anchor="middle" x="674" y="-260.5" font-family="Helvetica,sans-Serif" font-size="10.00">dfp200</text>
</a>
</g>
</g>
<!-- Node2&#45;&gt;Node3 -->
<g id="edge2" class="edge">
<title>Node2&#45;&gt;Node3</title>
<path fill="none" stroke="midnightblue" d="M722.55,-256.27C713.54,-256.37 704.71,-256.73 697.16,-257.36"/>
<polygon fill="midnightblue" stroke="midnightblue" points="722.75,-259.77 732.75,-256.28 722.75,-252.77 722.75,-259.77"/>
</g>
<!-- Node3&#45;&gt;Node2 -->
<g id="edge42" class="edge">
<title>Node3&#45;&gt;Node2</title>
<path fill="none" stroke="midnightblue" d="M707.25,-269.29C715.32,-269.68 724.14,-269.82 732.75,-269.72"/>
<polygon fill="midnightblue" stroke="midnightblue" points="707.36,-265.79 697.16,-268.64 706.91,-272.78 707.36,-265.79"/>
</g>
<!-- Node3&#45;&gt;Node3 -->
<g id="edge39" class="edge">
<title>Node3&#45;&gt;Node3</title>
<path fill="none" stroke="midnightblue" d="M693.63,-282.4C692.32,-287.31 685.77,-291 674,-291 655.16,-291 649.71,-281.57 657.66,-272.76"/>
<polygon fill="midnightblue" stroke="midnightblue" points="696.88,-281.09 690.34,-272.76 690.26,-283.35 696.88,-281.09"/>
</g>
<!-- Node4 -->
<g id="node4" class="node">
<title>Node4</title>
<g id="a_node4"><a xlink:href="group__grp__global__force.html#ga38c9d3c50bd043707fefa5137c9dbf44" target="_top" xlink:title="Calculates , where &#160;and , and .">
<polygon fill="white" stroke="black" points="535.5,-189.5 535.5,-208.5 579.5,-208.5 579.5,-189.5 535.5,-189.5"/>
<text text-anchor="middle" x="557.5" y="-196.5" font-family="Helvetica,sans-Serif" font-size="10.00">dforce</text>
</a>
</g>
</g>
<!-- Node3&#45;&gt;Node4 -->
<g id="edge3" class="edge">
<title>Node3&#45;&gt;Node4</title>
<path fill="none" stroke="midnightblue" d="M646.84,-248.38C625.02,-236.18 594.53,-219.14 575.68,-208.6"/>
<polygon fill="midnightblue" stroke="midnightblue" points="645.17,-251.46 655.61,-253.28 648.59,-245.35 645.17,-251.46"/>
</g>
<!-- Node15 -->
<g id="node15" class="node">
<title>Node15</title>
<g id="a_node15"><a xlink:href="dfp200_8f90.html#a6aca59cf350d7b1941f8389d50945a43" target="_top" xlink:title="get LU Beltrami matrices">
<polygon fill="white" stroke="black" points="339,-302.5 339,-321.5 464,-321.5 464,-302.5 339,-302.5"/>
<text text-anchor="middle" x="401.5" y="-309.5" font-family="Helvetica,sans-Serif" font-size="10.00">get_lu_beltrami_matrices</text>
</a>
</g>
</g>
<!-- Node3&#45;&gt;Node15 -->
<g id="edge43" class="edge">
<title>Node3&#45;&gt;Node15</title>
<path fill="none" stroke="midnightblue" d="M640.97,-263.17C632.56,-265.03 623.47,-267.23 615,-269 549.35,-282.71 471.29,-293.91 430.5,-302.48"/>
<polygon fill="midnightblue" stroke="midnightblue" points="641.73,-266.59 650.81,-261.12 640.3,-259.73 641.73,-266.59"/>
</g>
<!-- Node19 -->
<g id="node19" class="node">
<title>Node19</title>
<g id="a_node19"><a xlink:href="dfp200_8f90.html#a7b64c7392b45d0042d8bd7379c0761a5" target="_top" xlink:title="Evaluate the derivative of the square of the magnetic field modulus. Add spectral constraint derivati...">
<polygon fill="white" stroke="black" points="520.5,-249.5 520.5,-268.5 594.5,-268.5 594.5,-249.5 520.5,-249.5"/>
<text text-anchor="middle" x="557.5" y="-256.5" font-family="Helvetica,sans-Serif" font-size="10.00">evaluate_dbb</text>
</a>
</g>
</g>
<!-- Node3&#45;&gt;Node19 -->
<g id="edge40" class="edge">
<title>Node3&#45;&gt;Node19</title>
<path fill="none" stroke="midnightblue" d="M640.61,-255.72C626.37,-254.49 609.59,-253.84 594.93,-253.94"/>
<polygon fill="midnightblue" stroke="midnightblue" points="640.62,-259.24 650.92,-256.77 641.33,-252.27 640.62,-259.24"/>
</g>
<!-- Node20 -->
<g id="node20" class="node">
<title>Node20</title>
<g id="a_node20"><a xlink:href="dfp200_8f90.html#a5e56f1f4b1e6df11a9cffa6237c37469" target="_top" xlink:title="This routine evaluates the value of the magnetic field once the interface is perturbed using matrix p...">
<polygon fill="white" stroke="black" points="500,-343.5 500,-362.5 615,-362.5 615,-343.5 500,-343.5"/>
<text text-anchor="middle" x="557.5" y="-350.5" font-family="Helvetica,sans-Serif" font-size="10.00">get_perturbed_solution</text>
</a>
</g>
</g>
<!-- Node3&#45;&gt;Node20 -->
<g id="edge44" class="edge">
<title>Node3&#45;&gt;Node20</title>
<path fill="none" stroke="midnightblue" d="M654.74,-280.88C644.3,-293.22 630.27,-308.97 615,-320 600.66,-330.36 581.16,-337.38 569.22,-343.48"/>
<polygon fill="midnightblue" stroke="midnightblue" points="657.62,-282.9 661.37,-272.99 652.26,-278.4 657.62,-282.9"/>
</g>
<!-- Node4&#45;&gt;Node4 -->
<g id="edge14" class="edge">
<title>Node4&#45;&gt;Node4</title>
<path fill="none" stroke="midnightblue" d="M578.98,-218.4C577.55,-223.31 570.39,-227 557.5,-227 536.88,-227 530.92,-217.57 539.62,-208.76"/>
<polygon fill="midnightblue" stroke="midnightblue" points="582.16,-216.9 575.38,-208.76 575.6,-219.35 582.16,-216.9"/>
</g>
<!-- Node5 -->
<g id="node5" class="node">
<title>Node5</title>
<g id="a_node5"><a xlink:href="namespaceallglobal.html#a7824bc37519fe88336534ce90ab2af16" target="_top" xlink:title=" ">
<polygon fill="white" stroke="black" points="344.5,-264.5 344.5,-283.5 458.5,-283.5 458.5,-264.5 344.5,-264.5"/>
<text text-anchor="middle" x="401.5" y="-271.5" font-family="Helvetica,sans-Serif" font-size="10.00">allglobal::check_inputs</text>
</a>
</g>
</g>
<!-- Node4&#45;&gt;Node5 -->
<g id="edge4" class="edge">
<title>Node4&#45;&gt;Node5</title>
<path fill="none" stroke="midnightblue" d="M531.84,-213.76C513.47,-224.47 487.58,-238.96 464,-250 452.79,-255.25 440.09,-260.34 429.16,-264.47"/>
<polygon fill="midnightblue" stroke="midnightblue" points="533.62,-216.78 540.46,-208.69 530.07,-210.74 533.62,-216.78"/>
</g>
<!-- Node8 -->
<g id="node8" class="node">
<title>Node8</title>
<g id="a_node8"><a xlink:href="xspech_8f90.html#a48f45478dc2c9f70ea8aa1c60ad06503" target="_top" xlink:title="This is the main &quot;driver&quot; for the physics part of SPEC.">
<polygon fill="white" stroke="black" points="155.5,-188.5 155.5,-207.5 193.5,-207.5 193.5,-188.5 155.5,-188.5"/>
<text text-anchor="middle" x="174.5" y="-195.5" font-family="Helvetica,sans-Serif" font-size="10.00">spec</text>
</a>
</g>
</g>
<!-- Node4&#45;&gt;Node8 -->
<g id="edge38" class="edge">
<title>Node4&#45;&gt;Node8</title>
<path fill="none" stroke="midnightblue" d="M525.09,-204.52C470.16,-213.35 353.13,-228.56 255,-217 233.58,-214.48 209.57,-208.25 193.6,-203.61"/>
<polygon fill="midnightblue" stroke="midnightblue" points="525.93,-207.92 535.22,-202.84 524.79,-201.02 525.93,-207.92"/>
</g>
<!-- Node11 -->
<g id="node11" class="node">
<title>Node11</title>
<g id="a_node11"><a xlink:href="group__grp__force__driver.html#gabbc245b3884ee8d8d3e2a52f25149f78" target="_top" xlink:title="fcn1">
<polygon fill="white" stroke="black" points="384,-94.5 384,-113.5 419,-113.5 419,-94.5 384,-94.5"/>
<text text-anchor="middle" x="401.5" y="-101.5" font-family="Helvetica,sans-Serif" font-size="10.00">fcn1</text>
</a>
</g>
</g>
<!-- Node4&#45;&gt;Node11 -->
<g id="edge15" class="edge">
<title>Node4&#45;&gt;Node11</title>
<path fill="none" stroke="midnightblue" d="M532.15,-183.98C500.21,-164.27 445.05,-130.25 418.16,-113.66"/>
<polygon fill="midnightblue" stroke="midnightblue" points="530.54,-187.1 540.89,-189.37 534.21,-181.14 530.54,-187.1"/>
</g>
<!-- Node12 -->
<g id="node12" class="node">
<title>Node12</title>
<g id="a_node12"><a xlink:href="group__grp__force__driver.html#gaec14f81fbdbedafbc4189489ec8ae178" target="_top" xlink:title="Employs Newton method to find , where &#160;and &#160;is defined in dforce() .">
<polygon fill="white" stroke="black" points="255,-109.5 255,-128.5 303,-128.5 303,-109.5 255,-109.5"/>
<text text-anchor="middle" x="279" y="-116.5" font-family="Helvetica,sans-Serif" font-size="10.00">newton</text>
</a>
</g>
</g>
<!-- Node4&#45;&gt;Node12 -->
<g id="edge33" class="edge">
<title>Node4&#45;&gt;Node12</title>
<path fill="none" stroke="midnightblue" d="M525.58,-191.75C483.16,-181.58 404.7,-161.95 339,-141 327.02,-137.18 313.9,-132.35 303.08,-128.19"/>
<polygon fill="midnightblue" stroke="midnightblue" points="524.77,-195.15 535.31,-194.07 526.39,-188.35 524.77,-195.15"/>
</g>
<!-- Node13 -->
<g id="node13" class="node">
<title>Node13</title>
<g id="a_node13"><a xlink:href="group__grp__force__driver.html#ga8ccd6c7d901872702521d0a0edf95412" target="_top" xlink:title="fcn2">
<polygon fill="white" stroke="black" points="29.5,-103.5 29.5,-122.5 64.5,-122.5 64.5,-103.5 29.5,-103.5"/>
<text text-anchor="middle" x="47" y="-110.5" font-family="Helvetica,sans-Serif" font-size="10.00">fcn2</text>
</a>
</g>
</g>
<!-- Node4&#45;&gt;Node13 -->
<g id="edge27" class="edge">
<title>Node4&#45;&gt;Node13</title>
<path fill="none" stroke="midnightblue" d="M547.84,-180.04C534.32,-153.08 505.42,-104.73 464,-85 322.52,-17.6 122.81,-84.23 64.55,-106.39"/>
<polygon fill="midnightblue" stroke="midnightblue" points="544.76,-181.73 552.25,-189.23 551.07,-178.7 544.76,-181.73"/>
</g>
<!-- Node4&#45;&gt;Node15 -->
<g id="edge28" class="edge">
<title>Node4&#45;&gt;Node15</title>
<path fill="none" stroke="midnightblue" d="M531.87,-214.13C521.38,-221.23 509.42,-230.28 500,-240 480.18,-260.45 486.89,-276.07 464,-293 458.79,-296.85 452.78,-299.94 446.61,-302.4"/>
<polygon fill="midnightblue" stroke="midnightblue" points="533.8,-217.05 540.24,-208.64 529.96,-211.19 533.8,-217.05"/>
</g>
<!-- Node16 -->
<g id="node16" class="node">
<title>Node16</title>
<g id="a_node16"><a xlink:href="group__grp__diagnostics.html#ga7401b50ec10c6598ee4a8112717a63ec" target="_top" xlink:title="Computes eigenvalues and eigenvectors of derivative matrix, .">
<polygon fill="white" stroke="black" points="256.5,-170.5 256.5,-189.5 301.5,-189.5 301.5,-170.5 256.5,-170.5"/>
<text text-anchor="middle" x="279" y="-177.5" font-family="Helvetica,sans-Serif" font-size="10.00">hesian</text>
</a>
</g>
</g>
<!-- Node4&#45;&gt;Node16 -->
<g id="edge30" class="edge">
<title>Node4&#45;&gt;Node16</title>
<path fill="none" stroke="midnightblue" d="M525.1,-196.84C468.42,-192.95 350.36,-184.83 301.69,-181.49"/>
<polygon fill="midnightblue" stroke="midnightblue" points="525.05,-200.35 535.26,-197.54 525.53,-193.36 525.05,-200.35"/>
</g>
<!-- Node17 -->
<g id="node17" class="node">
<title>Node17</title>
<g id="a_node17"><a xlink:href="group__grp__conjugate__gradient.html#ga4d8415226e62a9fdb42b0fd0b464251e" target="_top" xlink:title="Returns the energy functional and it&#39;s derivatives with respect to geometry.">
<polygon fill="white" stroke="black" points="377.5,-0.5 377.5,-19.5 425.5,-19.5 425.5,-0.5 377.5,-0.5"/>
<text text-anchor="middle" x="401.5" y="-7.5" font-family="Helvetica,sans-Serif" font-size="10.00">pc00ab</text>
</a>
</g>
</g>
<!-- Node4&#45;&gt;Node17 -->
<g id="edge34" class="edge">
<title>Node4&#45;&gt;Node17</title>
<path fill="none" stroke="midnightblue" d="M547.86,-180.27C533.53,-150.59 502.55,-92.02 464,-52 451.17,-38.68 433.49,-27.14 420.37,-19.54"/>
<polygon fill="midnightblue" stroke="midnightblue" points="544.78,-181.95 552.22,-189.49 551.11,-178.95 544.78,-181.95"/>
</g>
<!-- Node6 -->
<g id="node6" class="node">
<title>Node6</title>
<g id="a_node6"><a xlink:href="xspech_8f90.html#a9fdc71dffd7c61ee4588a3f80d3ab9ce" target="_top" xlink:title="Main subroutine of SPEC.">
<polygon fill="white" stroke="black" points="255.5,-264.5 255.5,-283.5 302.5,-283.5 302.5,-264.5 255.5,-264.5"/>
<text text-anchor="middle" x="279" y="-271.5" font-family="Helvetica,sans-Serif" font-size="10.00">xspech</text>
</a>
</g>
</g>
<!-- Node5&#45;&gt;Node6 -->
<g id="edge5" class="edge">
<title>Node5&#45;&gt;Node6</title>
<path fill="none" stroke="midnightblue" d="M334.45,-274C323.06,-274 311.95,-274 302.77,-274"/>
<polygon fill="midnightblue" stroke="midnightblue" points="334.48,-277.5 344.48,-274 334.48,-270.5 334.48,-277.5"/>
</g>
<!-- Node6&#45;&gt;Node6 -->
<g id="edge13" class="edge">
<title>Node6&#45;&gt;Node6</title>
<path fill="none" stroke="midnightblue" d="M298.26,-293.4C296.97,-298.31 290.55,-302 279,-302 260.52,-302 255.17,-292.57 262.97,-283.76"/>
<polygon fill="midnightblue" stroke="midnightblue" points="301.52,-292.13 295.03,-283.76 294.89,-294.35 301.52,-292.13"/>
</g>
<!-- Node7 -->
<g id="node7" class="node">
<title>Node7</title>
<g id="a_node7"><a xlink:href="xspech_8f90.html#a1451823a7b97101a797de616250752c1" target="_top" xlink:title="Final diagnostics.">
<polygon fill="white" stroke="black" points="130,-264.5 130,-283.5 219,-283.5 219,-264.5 130,-264.5"/>
<text text-anchor="middle" x="174.5" y="-271.5" font-family="Helvetica,sans-Serif" font-size="10.00">final_diagnostics</text>
</a>
</g>
</g>
<!-- Node6&#45;&gt;Node7 -->
<g id="edge6" class="edge">
<title>Node6&#45;&gt;Node7</title>
<path fill="none" stroke="midnightblue" d="M245.24,-267.66C236.96,-267.28 227.94,-267.16 219.22,-267.32"/>
<polygon fill="midnightblue" stroke="midnightblue" points="245.05,-271.15 255.25,-268.28 245.49,-264.17 245.05,-271.15"/>
</g>
<!-- Node6&#45;&gt;Node8 -->
<g id="edge8" class="edge">
<title>Node6&#45;&gt;Node8</title>
<path fill="none" stroke="midnightblue" d="M267.04,-256.24C255.63,-242.91 236.95,-225.64 219,-213 211.1,-207.44 201.79,-202.15 193.81,-198.71"/>
<polygon fill="midnightblue" stroke="midnightblue" points="264.47,-258.65 273.4,-264.35 269.98,-254.32 264.47,-258.65"/>
</g>
<!-- Node10 -->
<g id="node10" class="node">
<title>Node10</title>
<g id="a_node10"><a xlink:href="xspech_8f90.html#a95271e8805067f801b5d4e524d6901d4" target="_top" xlink:title="Main program of SPEC.">
<polygon fill="white" stroke="black" points="142.5,-302.5 142.5,-321.5 206.5,-321.5 206.5,-302.5 142.5,-302.5"/>
<text text-anchor="middle" x="174.5" y="-309.5" font-family="Helvetica,sans-Serif" font-size="10.00">spec_main</text>
</a>
</g>
</g>
<!-- Node6&#45;&gt;Node10 -->
<g id="edge12" class="edge">
<title>Node6&#45;&gt;Node10</title>
<path fill="none" stroke="midnightblue" d="M245.79,-285.94C231.5,-291.24 214.91,-297.39 201.44,-302.38"/>
<polygon fill="midnightblue" stroke="midnightblue" points="247.09,-289.19 255.25,-282.43 244.66,-282.63 247.09,-289.19"/>
</g>
<!-- Node7&#45;&gt;Node6 -->
<g id="edge7" class="edge">
<title>Node7&#45;&gt;Node6</title>
<path fill="none" stroke="midnightblue" d="M229.47,-280.74C238.56,-280.68 247.54,-280.34 255.25,-279.72"/>
<polygon fill="midnightblue" stroke="midnightblue" points="229.24,-277.24 219.22,-280.68 229.2,-284.24 229.24,-277.24"/>
</g>
<!-- Node8&#45;&gt;Node6 -->
<g id="edge11" class="edge">
<title>Node8&#45;&gt;Node6</title>
<path fill="none" stroke="midnightblue" d="M190.82,-213.33C199.38,-218.8 210.09,-224.73 219,-231 233.85,-241.45 249.19,-255.08 260.51,-264.5"/>
<polygon fill="midnightblue" stroke="midnightblue" points="192.76,-210.42 182.56,-207.57 188.76,-216.16 192.76,-210.42"/>
</g>
<!-- Node9 -->
<g id="node9" class="node">
<title>Node9</title>
<g id="a_node9"><a xlink:href="group__grp__output.html#ga0f962c09cd5d5eba99f1cba043cb3898" target="_top" xlink:title="Initialize the interface to the HDF5 library and open the output file.">
<polygon fill="white" stroke="black" points="0,-207.5 0,-226.5 94,-226.5 94,-207.5 0,-207.5"/>
<text text-anchor="middle" x="47" y="-214.5" font-family="Helvetica,sans-Serif" font-size="10.00">sphdf5::init_outfile</text>
</a>
</g>
</g>
<!-- Node8&#45;&gt;Node9 -->
<g id="edge9" class="edge">
<title>Node8&#45;&gt;Node9</title>
<path fill="none" stroke="midnightblue" d="M145.06,-202.31C130.04,-204.58 111.23,-207.43 94.18,-210.01"/>
<polygon fill="midnightblue" stroke="midnightblue" points="145.89,-205.72 155.25,-200.76 144.84,-198.8 145.89,-205.72"/>
</g>
<!-- Node9&#45;&gt;Node6 -->
<g id="edge10" class="edge">
<title>Node9&#45;&gt;Node6</title>
<path fill="none" stroke="midnightblue" d="M104.08,-228.09C137.62,-235.06 180.97,-244.67 219,-255 231.15,-258.3 244.52,-262.55 255.45,-266.2"/>
<polygon fill="midnightblue" stroke="midnightblue" points="104.51,-224.61 94.01,-226.02 103.1,-231.46 104.51,-224.61"/>
</g>
<!-- Node11&#45;&gt;Node11 -->
<g id="edge16" class="edge">
<title>Node11&#45;&gt;Node11</title>
<path fill="none" stroke="midnightblue" d="M424.37,-121.14C424.68,-127.14 417.06,-132 401.5,-132 378.86,-132 373.03,-121.72 383.99,-112.6"/>
<polygon fill="midnightblue" stroke="midnightblue" points="427.29,-119.21 419.01,-112.6 421.36,-122.93 427.29,-119.21"/>
</g>
<!-- Node11&#45;&gt;Node12 -->
<g id="edge17" class="edge">
<title>Node11&#45;&gt;Node12</title>
<path fill="none" stroke="midnightblue" d="M373.51,-101.62C352.38,-102.81 323.31,-106.53 303.22,-110.65"/>
<polygon fill="midnightblue" stroke="midnightblue" points="373.88,-105.11 383.74,-101.24 373.62,-98.12 373.88,-105.11"/>
</g>
<!-- Node12&#45;&gt;Node8 -->
<g id="edge23" class="edge">
<title>Node12&#45;&gt;Node8</title>
<path fill="none" stroke="midnightblue" d="M264.04,-136.45C252.92,-149.49 236.37,-167.04 219,-179 211.26,-184.33 201.79,-188.68 193.66,-191.86"/>
<polygon fill="midnightblue" stroke="midnightblue" points="266.83,-138.58 270.52,-128.65 261.44,-134.1 266.83,-138.58"/>
</g>
<!-- Node12&#45;&gt;Node11 -->
<g id="edge18" class="edge">
<title>Node12&#45;&gt;Node11</title>
<path fill="none" stroke="midnightblue" d="M313.21,-120.97C336.11,-119.29 365.58,-115.2 383.74,-110.93"/>
<polygon fill="midnightblue" stroke="midnightblue" points="312.99,-117.48 303.22,-121.57 313.41,-124.47 312.99,-117.48"/>
</g>
<!-- Node12&#45;&gt;Node12 -->
<g id="edge22" class="edge">
<title>Node12&#45;&gt;Node12</title>
<path fill="none" stroke="midnightblue" d="M298.26,-138.4C296.97,-143.31 290.55,-147 279,-147 260.52,-147 255.17,-137.57 262.97,-128.76"/>
<polygon fill="midnightblue" stroke="midnightblue" points="301.52,-137.13 295.03,-128.76 294.89,-139.35 301.52,-137.13"/>
</g>
<!-- Node12&#45;&gt;Node13 -->
<g id="edge19" class="edge">
<title>Node12&#45;&gt;Node13</title>
<path fill="none" stroke="midnightblue" d="M244.71,-113.21C194.77,-109.12 102.33,-107.11 64.65,-109.72"/>
<polygon fill="midnightblue" stroke="midnightblue" points="244.41,-116.7 254.68,-114.12 245.04,-109.73 244.41,-116.7"/>
</g>
<!-- Node14 -->
<g id="node14" class="node">
<title>Node14</title>
<g id="a_node14"><a xlink:href="group__grp__force__driver.html#ga382822b303cbf8c56d6f54dcb379caf2" target="_top" xlink:title="read or write force&#45;derivative matrix">
<polygon fill="white" stroke="black" points="142,-150.5 142,-169.5 207,-169.5 207,-150.5 142,-150.5"/>
<text text-anchor="middle" x="174.5" y="-157.5" font-family="Helvetica,sans-Serif" font-size="10.00">writereadgf</text>
</a>
</g>
</g>
<!-- Node12&#45;&gt;Node14 -->
<g id="edge24" class="edge">
<title>Node12&#45;&gt;Node14</title>
<path fill="none" stroke="midnightblue" d="M245.49,-125.67C225.89,-132.6 202.04,-142.72 187.85,-150.48"/>
<polygon fill="midnightblue" stroke="midnightblue" points="246.64,-128.98 255,-122.46 244.4,-122.35 246.64,-128.98"/>
</g>
<!-- Node13&#45;&gt;Node12 -->
<g id="edge21" class="edge">
<title>Node13&#45;&gt;Node12</title>
<path fill="none" stroke="midnightblue" d="M74.62,-118.2C120.02,-122.45 211.65,-124.76 254.68,-122.67"/>
<polygon fill="midnightblue" stroke="midnightblue" points="74.96,-114.72 64.65,-117.15 74.22,-121.68 74.96,-114.72"/>
</g>
<!-- Node13&#45;&gt;Node13 -->
<g id="edge20" class="edge">
<title>Node13&#45;&gt;Node13</title>
<path fill="none" stroke="midnightblue" d="M70.55,-129.53C71.46,-135.81 63.61,-141 47,-141 23.38,-141 17.47,-130.5 29.28,-121.31"/>
<polygon fill="midnightblue" stroke="midnightblue" points="73.36,-127.44 64.72,-121.31 67.65,-131.49 73.36,-127.44"/>
</g>
<!-- Node14&#45;&gt;Node12 -->
<g id="edge26" class="edge">
<title>Node14&#45;&gt;Node12</title>
<path fill="none" stroke="midnightblue" d="M216.61,-150.19C234.11,-143.6 253.25,-135.27 265.43,-128.64"/>
<polygon fill="midnightblue" stroke="midnightblue" points="215.31,-146.94 207.11,-153.65 217.7,-153.51 215.31,-146.94"/>
</g>
<!-- Node14&#45;&gt;Node13 -->
<g id="edge25" class="edge">
<title>Node14&#45;&gt;Node13</title>
<path fill="none" stroke="midnightblue" d="M138.55,-146.91C114.38,-137.86 83.31,-126.22 64.56,-119.2"/>
<polygon fill="midnightblue" stroke="midnightblue" points="137.51,-150.26 148.1,-150.49 139.97,-143.7 137.51,-150.26"/>
</g>
<!-- Node15&#45;&gt;Node3 -->
<g id="edge29" class="edge">
<title>Node15&#45;&gt;Node3</title>
<path fill="none" stroke="midnightblue" d="M474.14,-310.15C515.49,-305.21 568.37,-296.74 615,-287 631.7,-283.51 650.8,-278.34 662.38,-272.7"/>
<polygon fill="midnightblue" stroke="midnightblue" points="473.69,-306.68 464.15,-311.3 474.49,-313.63 473.69,-306.68"/>
</g>
<!-- Node16&#45;&gt;Node8 -->
<g id="edge32" class="edge">
<title>Node16&#45;&gt;Node8</title>
<path fill="none" stroke="midnightblue" d="M246.08,-185.61C228.88,-188.63 208.27,-192.24 193.78,-194.79"/>
<polygon fill="midnightblue" stroke="midnightblue" points="247.02,-188.99 256.26,-183.82 245.81,-182.1 247.02,-188.99"/>
</g>
<!-- Node16&#45;&gt;Node16 -->
<g id="edge31" class="edge">
<title>Node16&#45;&gt;Node16</title>
<path fill="none" stroke="midnightblue" d="M298.26,-199.4C296.97,-204.31 290.55,-208 279,-208 260.52,-208 255.17,-198.57 262.97,-189.76"/>
<polygon fill="midnightblue" stroke="midnightblue" points="301.52,-198.13 295.03,-189.76 294.89,-200.35 301.52,-198.13"/>
</g>
<!-- Node17&#45;&gt;Node17 -->
<g id="edge37" class="edge">
<title>Node17&#45;&gt;Node17</title>
<path fill="none" stroke="midnightblue" d="M424.19,-29.03C422.96,-34.13 415.39,-38 401.5,-38 379.82,-38 373.55,-28.57 382.7,-19.76"/>
<polygon fill="midnightblue" stroke="midnightblue" points="427.4,-27.62 420.3,-19.76 420.94,-30.33 427.4,-27.62"/>
</g>
<!-- Node18 -->
<g id="node18" class="node">
<title>Node18</title>
<g id="a_node18"><a xlink:href="group__grp__conjugate__gradient.html#ga25a3bae2ff2ee0469b045de0d033398b" target="_top" xlink:title="Use preconditioned conjugate gradient method to find minimum of energy functional.">
<polygon fill="white" stroke="black" points="255,-0.5 255,-19.5 303,-19.5 303,-0.5 255,-0.5"/>
<text text-anchor="middle" x="279" y="-7.5" font-family="Helvetica,sans-Serif" font-size="10.00">pc00aa</text>
</a>
</g>
</g>
<!-- Node17&#45;&gt;Node18 -->
<g id="edge35" class="edge">
<title>Node17&#45;&gt;Node18</title>
<path fill="none" stroke="midnightblue" d="M367.16,-10C346.81,-10 321.31,-10 303.16,-10"/>
<polygon fill="midnightblue" stroke="midnightblue" points="367.27,-13.5 377.27,-10 367.27,-6.5 367.27,-13.5"/>
</g>
<!-- Node18&#45;&gt;Node18 -->
<g id="edge36" class="edge">
<title>Node18&#45;&gt;Node18</title>
<path fill="none" stroke="midnightblue" d="M298.26,-29.4C296.97,-34.31 290.55,-38 279,-38 260.52,-38 255.17,-28.57 262.97,-19.76"/>
<polygon fill="midnightblue" stroke="midnightblue" points="301.52,-28.13 295.03,-19.76 294.89,-30.35 301.52,-28.13"/>
</g>
<!-- Node19&#45;&gt;Node3 -->
<g id="edge41" class="edge">
<title>Node19&#45;&gt;Node3</title>
<path fill="none" stroke="midnightblue" d="M605.12,-267.27C620.95,-268.14 637.92,-268.34 650.92,-267.69"/>
<polygon fill="midnightblue" stroke="midnightblue" points="605.13,-263.77 594.93,-266.61 604.68,-270.75 605.13,-263.77"/>
</g>
<!-- Node20&#45;&gt;Node3 -->
<g id="edge45" class="edge">
<title>Node20&#45;&gt;Node3</title>
<path fill="none" stroke="midnightblue" d="M614.75,-338.18C614.83,-338.12 614.92,-338.06 615,-338 639.97,-319.95 661.65,-289.29 669.68,-272.74"/>
<polygon fill="midnightblue" stroke="midnightblue" points="613.06,-335.11 606.51,-343.44 616.82,-341.01 613.06,-335.11"/>
</g>
<!-- Node21&#45;&gt;Node21 -->
<g id="edge53" class="edge">
<title>Node21&#45;&gt;Node21</title>
<path fill="none" stroke="midnightblue" d="M1073.6,-226.77C1072.41,-231.5 1067.38,-235 1058.5,-235 1043.93,-235 1039.71,-225.57 1045.86,-216.76"/>
<polygon fill="midnightblue" stroke="midnightblue" points="1076.93,-225.63 1071.14,-216.76 1070.13,-227.3 1076.93,-225.63"/>
</g>
<!-- Node22 -->
<g id="node22" class="node">
<title>Node22</title>
<g id="a_node22"><a xlink:href="group__grp__solver__driver.html#gacad623d4c5c006e9ad10116372f92ad3" target="_top" xlink:title="Constructs Beltrami field in given volume consistent with flux, helicity, rotational&#45;transform and/or...">
<polygon fill="white" stroke="black" points="946,-197.5 946,-216.5 997,-216.5 997,-197.5 946,-197.5"/>
<text text-anchor="middle" x="971.5" y="-204.5" font-family="Helvetica,sans-Serif" font-size="10.00">ma02aa</text>
</a>
</g>
</g>
<!-- Node21&#45;&gt;Node22 -->
<g id="edge47" class="edge">
<title>Node21&#45;&gt;Node22</title>
<path fill="none" stroke="midnightblue" d="M1022.72,-207C1014.1,-207 1005.04,-207 997.03,-207"/>
<polygon fill="midnightblue" stroke="midnightblue" points="1022.91,-210.5 1032.91,-207 1022.91,-203.5 1022.91,-210.5"/>
</g>
<!-- Node22&#45;&gt;Node22 -->
<g id="edge52" class="edge">
<title>Node22&#45;&gt;Node22</title>
<path fill="none" stroke="midnightblue" d="M986.97,-226.77C985.75,-231.5 980.6,-235 971.5,-235 956.57,-235 952.25,-225.57 958.55,-216.76"/>
<polygon fill="midnightblue" stroke="midnightblue" points="990.28,-225.6 984.45,-216.76 983.5,-227.31 990.28,-225.6"/>
</g>
<!-- Node23 -->
<g id="node23" class="node">
<title>Node23</title>
<g id="a_node23"><a xlink:href="dfp100_8f90.html#a17a3ac15cc83994394f7b4cc05e5898e" target="_top" xlink:title="Split the work between MPI nodes and evaluate the global constraint.">
<polygon fill="white" stroke="black" points="864,-197.5 864,-216.5 910,-216.5 910,-197.5 864,-197.5"/>
<text text-anchor="middle" x="887" y="-204.5" font-family="Helvetica,sans-Serif" font-size="10.00">dfp100</text>
</a>
</g>
</g>
<!-- Node22&#45;&gt;Node23 -->
<g id="edge48" class="edge">
<title>Node22&#45;&gt;Node23</title>
<path fill="none" stroke="midnightblue" d="M935.56,-207C926.97,-207 918.01,-207 910.21,-207"/>
<polygon fill="midnightblue" stroke="midnightblue" points="935.75,-210.5 945.75,-207 935.75,-203.5 935.75,-210.5"/>
</g>
<!-- Node23&#45;&gt;Node2 -->
<g id="edge51" class="edge">
<title>Node23&#45;&gt;Node2</title>
<path fill="none" stroke="midnightblue" d="M858.87,-221.54C840.17,-231.56 815.83,-244.6 799.49,-253.36"/>
<polygon fill="midnightblue" stroke="midnightblue" points="860.64,-224.56 867.8,-216.75 857.33,-218.39 860.64,-224.56"/>
</g>
<!-- Node23&#45;&gt;Node4 -->
<g id="edge49" class="edge">
<title>Node23&#45;&gt;Node4</title>
<path fill="none" stroke="midnightblue" d="M853.38,-206.2C786.42,-204.57 635.1,-200.87 579.5,-199.51"/>
<polygon fill="midnightblue" stroke="midnightblue" points="853.66,-209.71 863.75,-206.46 853.84,-202.71 853.66,-209.71"/>
</g>
<!-- Node23&#45;&gt;Node23 -->
<g id="edge50" class="edge">
<title>Node23&#45;&gt;Node23</title>
<path fill="none" stroke="midnightblue" d="M902.47,-226.77C901.25,-231.5 896.1,-235 887,-235 872.07,-235 867.75,-225.57 874.05,-216.76"/>
<polygon fill="midnightblue" stroke="midnightblue" points="905.78,-225.6 899.95,-216.76 899,-227.31 905.78,-225.6"/>
</g>
</g>
</svg>
