<?xml version="1.0" encoding="UTF-8" standalone="no"?>
<!DOCTYPE svg PUBLIC "-//W3C//DTD SVG 1.1//EN"
 "http://www.w3.org/Graphics/SVG/1.1/DTD/svg11.dtd">
<!-- Generated by graphviz version 2.50.0 (20220203.2022)
 -->
<!-- Title: ra00aa Pages: 1 -->
<svg width="627pt" height="124pt"
 viewBox="0.00 0.00 627.00 123.81" xmlns="http://www.w3.org/2000/svg" xmlns:xlink="http://www.w3.org/1999/xlink">
<g id="graph0" class="graph" transform="scale(1 1) rotate(0) translate(4 119.81)">
<title>ra00aa</title>
<polygon fill="white" stroke="transparent" points="-4,4 -4,-119.81 623,-119.81 623,4 -4,4"/>
<!-- Node1 -->
<g id="node1" class="node">
<title>Node1</title>
<g id="a_node1"><a xlink:title="Writes vector potential to .ext.sp.A .">
<polygon fill="#bfbfbf" stroke="black" points="573,-25.5 573,-44.5 619,-44.5 619,-25.5 573,-25.5"/>
<text text-anchor="middle" x="596" y="-32.5" font-family="Helvetica,sans-Serif" font-size="10.00">ra00aa</text>
</a>
</g>
</g>
<!-- Node1&#45;&gt;Node1 -->
<g id="edge15" class="edge">
<title>Node1&#45;&gt;Node1</title>
<path fill="none" stroke="midnightblue" d="M610.73,-54.77C609.58,-59.5 604.66,-63 596,-63 581.78,-63 577.67,-53.57 583.67,-44.76"/>
<polygon fill="midnightblue" stroke="midnightblue" points="614.07,-53.66 608.33,-44.76 607.26,-55.3 614.07,-53.66"/>
</g>
<!-- Node2 -->
<g id="node2" class="node">
<title>Node2</title>
<g id="a_node2"><a xlink:href="group__grp__initialization.html#ga28628de0fdb3b3497668007d8d0643bd" target="_top" xlink:title="Allocates and initializes internal arrays.">
<polygon fill="white" stroke="black" points="493,-44.5 493,-63.5 537,-63.5 537,-44.5 493,-44.5"/>
<text text-anchor="middle" x="515" y="-51.5" font-family="Helvetica,sans-Serif" font-size="10.00">preset</text>
</a>
</g>
</g>
<!-- Node1&#45;&gt;Node2 -->
<g id="edge1" class="edge">
<title>Node1&#45;&gt;Node2</title>
<path fill="none" stroke="midnightblue" d="M563.06,-42.68C554.31,-44.79 545.05,-47.01 537.07,-48.93"/>
<polygon fill="midnightblue" stroke="midnightblue" points="564.09,-46.03 572.99,-40.29 562.45,-39.23 564.09,-46.03"/>
</g>
<!-- Node4 -->
<g id="node4" class="node">
<title>Node4</title>
<g id="a_node4"><a xlink:href="xspech_8f90.html#a48f45478dc2c9f70ea8aa1c60ad06503" target="_top" xlink:title="This is the main &quot;driver&quot; for the physics part of SPEC.">
<polygon fill="white" stroke="black" points="338,-15.5 338,-34.5 376,-34.5 376,-15.5 338,-15.5"/>
<text text-anchor="middle" x="357" y="-22.5" font-family="Helvetica,sans-Serif" font-size="10.00">spec</text>
</a>
</g>
</g>
<!-- Node1&#45;&gt;Node4 -->
<g id="edge16" class="edge">
<title>Node1&#45;&gt;Node4</title>
<path fill="none" stroke="midnightblue" d="M562.64,-33.63C512.08,-31.5 416.02,-27.45 376.1,-25.76"/>
<polygon fill="midnightblue" stroke="midnightblue" points="562.56,-37.13 572.7,-34.06 562.86,-30.14 562.56,-37.13"/>
</g>
<!-- Node2&#45;&gt;Node2 -->
<g id="edge13" class="edge">
<title>Node2&#45;&gt;Node2</title>
<path fill="none" stroke="midnightblue" d="M529.73,-73.77C528.58,-78.5 523.66,-82 515,-82 500.78,-82 496.67,-72.57 502.67,-63.76"/>
<polygon fill="midnightblue" stroke="midnightblue" points="533.07,-72.66 527.33,-63.76 526.26,-74.3 533.07,-72.66"/>
</g>
<!-- Node3 -->
<g id="node3" class="node">
<title>Node3</title>
<g id="a_node3"><a xlink:href="group__grp__diagnostics.html#ga7401b50ec10c6598ee4a8112717a63ec" target="_top" xlink:title="Computes eigenvalues and eigenvectors of derivative matrix, .">
<polygon fill="white" stroke="black" points="412,-44.5 412,-63.5 457,-63.5 457,-44.5 412,-44.5"/>
<text text-anchor="middle" x="434.5" y="-51.5" font-family="Helvetica,sans-Serif" font-size="10.00">hesian</text>
</a>
</g>
</g>
<!-- Node2&#45;&gt;Node3 -->
<g id="edge2" class="edge">
<title>Node2&#45;&gt;Node3</title>
<path fill="none" stroke="midnightblue" d="M482.85,-54C474.24,-54 465.08,-54 457.14,-54"/>
<polygon fill="midnightblue" stroke="midnightblue" points="482.96,-57.5 492.96,-54 482.96,-50.5 482.96,-57.5"/>
</g>
<!-- Node6 -->
<g id="node6" class="node">
<title>Node6</title>
<g id="a_node6"><a xlink:href="xspech_8f90.html#a9fdc71dffd7c61ee4588a3f80d3ab9ce" target="_top" xlink:title="Main subroutine of SPEC.">
<polygon fill="white" stroke="black" points="125,-38.5 125,-57.5 172,-57.5 172,-38.5 125,-38.5"/>
<text text-anchor="middle" x="148.5" y="-45.5" font-family="Helvetica,sans-Serif" font-size="10.00">xspech</text>
</a>
</g>
</g>
<!-- Node2&#45;&gt;Node6 -->
<g id="edge14" class="edge">
<title>Node2&#45;&gt;Node6</title>
<path fill="none" stroke="midnightblue" d="M495.21,-70.16C484.71,-78.12 470.96,-86.87 457,-91 350.89,-122.42 313.16,-125.49 208,-91 188.12,-84.48 169.42,-68.33 158.74,-57.79"/>
<polygon fill="midnightblue" stroke="midnightblue" points="497.56,-72.76 503.19,-63.79 493.2,-67.29 497.56,-72.76"/>
</g>
<!-- Node3&#45;&gt;Node3 -->
<g id="edge3" class="edge">
<title>Node3&#45;&gt;Node3</title>
<path fill="none" stroke="midnightblue" d="M448.5,-73.77C447.4,-78.5 442.73,-82 434.5,-82 420.99,-82 417.09,-72.57 422.79,-63.76"/>
<polygon fill="midnightblue" stroke="midnightblue" points="451.85,-72.73 446.21,-63.76 445.02,-74.28 451.85,-72.73"/>
</g>
<!-- Node3&#45;&gt;Node4 -->
<g id="edge4" class="edge">
<title>Node3&#45;&gt;Node4</title>
<path fill="none" stroke="midnightblue" d="M402.11,-41.94C393.39,-38.59 384.19,-35.06 376.47,-32.09"/>
<polygon fill="midnightblue" stroke="midnightblue" points="401.07,-45.29 411.66,-45.61 403.58,-38.76 401.07,-45.29"/>
</g>
<!-- Node5 -->
<g id="node5" class="node">
<title>Node5</title>
<g id="a_node5"><a xlink:href="group__grp__output.html#ga0f962c09cd5d5eba99f1cba043cb3898" target="_top" xlink:title="Initialize the interface to the HDF5 library and open the output file.">
<polygon fill="white" stroke="black" points="208,-62.5 208,-81.5 302,-81.5 302,-62.5 208,-62.5"/>
<text text-anchor="middle" x="255" y="-69.5" font-family="Helvetica,sans-Serif" font-size="10.00">sphdf5::init_outfile</text>
</a>
</g>
</g>
<!-- Node4&#45;&gt;Node5 -->
<g id="edge5" class="edge">
<title>Node4&#45;&gt;Node5</title>
<path fill="none" stroke="midnightblue" d="M328.49,-37.93C311.97,-45.69 291.32,-55.4 276.29,-62.46"/>
<polygon fill="midnightblue" stroke="midnightblue" points="330.1,-41.04 337.66,-33.62 327.12,-34.71 330.1,-41.04"/>
</g>
<!-- Node4&#45;&gt;Node6 -->
<g id="edge12" class="edge">
<title>Node4&#45;&gt;Node6</title>
<path fill="none" stroke="midnightblue" d="M327.44,-23.35C285.98,-25.28 209.95,-33.89 172.12,-41.07"/>
<polygon fill="midnightblue" stroke="midnightblue" points="327.8,-26.84 337.67,-22.99 327.56,-19.84 327.8,-26.84"/>
</g>
<!-- Node5&#45;&gt;Node6 -->
<g id="edge6" class="edge">
<title>Node5&#45;&gt;Node6</title>
<path fill="none" stroke="midnightblue" d="M202.6,-60.19C191.85,-57.73 181.06,-55.25 172.04,-53.18"/>
<polygon fill="midnightblue" stroke="midnightblue" points="201.87,-63.62 212.4,-62.45 203.44,-56.8 201.87,-63.62"/>
</g>
<!-- Node6&#45;&gt;Node4 -->
<g id="edge9" class="edge">
<title>Node6&#45;&gt;Node4</title>
<path fill="none" stroke="midnightblue" d="M182.28,-49.44C226.23,-47.06 302.75,-38.19 337.67,-31.09"/>
<polygon fill="midnightblue" stroke="midnightblue" points="181.95,-45.95 172.12,-49.89 182.26,-52.95 181.95,-45.95"/>
</g>
<!-- Node6&#45;&gt;Node6 -->
<g id="edge11" class="edge">
<title>Node6&#45;&gt;Node6</title>
<path fill="none" stroke="midnightblue" d="M167.76,-67.4C166.47,-72.31 160.05,-76 148.5,-76 130.02,-76 124.67,-66.57 132.47,-57.76"/>
<polygon fill="midnightblue" stroke="midnightblue" points="171.02,-66.13 164.53,-57.76 164.39,-68.35 171.02,-66.13"/>
</g>
<!-- Node7 -->
<g id="node7" class="node">
<title>Node7</title>
<g id="a_node7"><a xlink:href="xspech_8f90.html#a1451823a7b97101a797de616250752c1" target="_top" xlink:title="Final diagnostics.">
<polygon fill="white" stroke="black" points="0,-38.5 0,-57.5 89,-57.5 89,-38.5 0,-38.5"/>
<text text-anchor="middle" x="44.5" y="-45.5" font-family="Helvetica,sans-Serif" font-size="10.00">final_diagnostics</text>
</a>
</g>
</g>
<!-- Node6&#45;&gt;Node7 -->
<g id="edge7" class="edge">
<title>Node6&#45;&gt;Node7</title>
<path fill="none" stroke="midnightblue" d="M114.63,-41.64C106.47,-41.27 97.59,-41.16 89.01,-41.32"/>
<polygon fill="midnightblue" stroke="midnightblue" points="114.67,-45.15 124.86,-42.28 115.1,-38.17 114.67,-45.15"/>
</g>
<!-- Node8 -->
<g id="node8" class="node">
<title>Node8</title>
<g id="a_node8"><a xlink:href="xspech_8f90.html#a95271e8805067f801b5d4e524d6901d4" target="_top" xlink:title="Main program of SPEC.">
<polygon fill="white" stroke="black" points="12.5,-0.5 12.5,-19.5 76.5,-19.5 76.5,-0.5 12.5,-0.5"/>
<text text-anchor="middle" x="44.5" y="-7.5" font-family="Helvetica,sans-Serif" font-size="10.00">spec_main</text>
</a>
</g>
</g>
<!-- Node6&#45;&gt;Node8 -->
<g id="edge10" class="edge">
<title>Node6&#45;&gt;Node8</title>
<path fill="none" stroke="midnightblue" d="M115.45,-36.06C101.23,-30.76 84.72,-24.61 71.31,-19.62"/>
<polygon fill="midnightblue" stroke="midnightblue" points="114.27,-39.36 124.86,-39.57 116.71,-32.8 114.27,-39.36"/>
</g>
<!-- Node7&#45;&gt;Node6 -->
<g id="edge8" class="edge">
<title>Node7&#45;&gt;Node6</title>
<path fill="none" stroke="midnightblue" d="M99.21,-54.74C108.25,-54.68 117.19,-54.34 124.86,-53.72"/>
<polygon fill="midnightblue" stroke="midnightblue" points="99.03,-51.24 89.01,-54.68 98.99,-58.24 99.03,-51.24"/>
</g>
</g>
</svg>
