<?xml version="1.0" encoding="UTF-8" standalone="no"?>
<!DOCTYPE svg PUBLIC "-//W3C//DTD SVG 1.1//EN"
 "http://www.w3.org/Graphics/SVG/1.1/DTD/svg11.dtd">
<!-- Generated by graphviz version 2.49.0 (0)
 -->
<!-- Title: rzaxis Pages: 1 -->
<svg width="735pt" height="508pt"
 viewBox="0.00 0.00 735.00 508.46" xmlns="http://www.w3.org/2000/svg" xmlns:xlink="http://www.w3.org/1999/xlink">
<g id="graph0" class="graph" transform="scale(1 1) rotate(0) translate(4 504.46)">
<title>rzaxis</title>
<polygon fill="white" stroke="transparent" points="-4,4 -4,-504.46 731,-504.46 731,4 -4,4"/>
<!-- Node1 -->
<g id="node1" class="node">
<title>Node1</title>
<g id="a_node1"><a xlink:title="The coordinate axis is assigned via a poloidal average over an arbitrary surface.">
<polygon fill="#bfbfbf" stroke="black" points="686,-335.96 686,-354.96 727,-354.96 727,-335.96 686,-335.96"/>
<text text-anchor="middle" x="706.5" y="-342.96" font-family="Helvetica,sans-Serif" font-size="10.00">rzaxis</text>
</a>
</g>
</g>
<!-- Node1&#45;&gt;Node1 -->
<g id="edge56" class="edge">
<title>Node1&#45;&gt;Node1</title>
<path fill="none" stroke="midnightblue" d="M720.86,-365.23C719.74,-369.96 714.95,-373.46 706.5,-373.46 692.64,-373.46 688.63,-364.03 694.48,-355.22"/>
<polygon fill="midnightblue" stroke="midnightblue" points="724.21,-364.16 718.52,-355.22 717.39,-365.75 724.21,-364.16"/>
</g>
<!-- Node2 -->
<g id="node2" class="node">
<title>Node2</title>
<g id="a_node2"><a xlink:href="group__grp__packing.html#ga094e630c02686dd178749eb1efbf13fb" target="_top" xlink:title="Packs, and unpacks, geometrical degrees of freedom; and sets coordinate axis.">
<polygon fill="white" stroke="black" points="606,-307.96 606,-326.96 650,-326.96 650,-307.96 606,-307.96"/>
<text text-anchor="middle" x="628" y="-314.96" font-family="Helvetica,sans-Serif" font-size="10.00">packxi</text>
</a>
</g>
</g>
<!-- Node1&#45;&gt;Node2 -->
<g id="edge1" class="edge">
<title>Node1&#45;&gt;Node2</title>
<path fill="none" stroke="midnightblue" d="M676.38,-334.8C667.69,-331.62 658.33,-328.2 650.24,-325.24"/>
<polygon fill="midnightblue" stroke="midnightblue" points="675.21,-338.1 685.8,-338.25 677.61,-331.53 675.21,-338.1"/>
</g>
<!-- Node22 -->
<g id="node22" class="node">
<title>Node22</title>
<g id="a_node22"><a xlink:href="group__grp__initialization.html#ga28628de0fdb3b3497668007d8d0643bd" target="_top" xlink:title="Allocates and initializes internal arrays.">
<polygon fill="white" stroke="black" points="526,-462.96 526,-481.96 570,-481.96 570,-462.96 526,-462.96"/>
<text text-anchor="middle" x="548" y="-469.96" font-family="Helvetica,sans-Serif" font-size="10.00">preset</text>
</a>
</g>
</g>
<!-- Node1&#45;&gt;Node22 -->
<g id="edge52" class="edge">
<title>Node1&#45;&gt;Node22</title>
<path fill="none" stroke="midnightblue" d="M685.73,-361.51C652.79,-388.24 587.65,-441.09 560.9,-462.81"/>
<polygon fill="midnightblue" stroke="midnightblue" points="688.18,-364.03 693.74,-355.01 683.77,-358.59 688.18,-364.03"/>
</g>
<!-- Node2&#45;&gt;Node2 -->
<g id="edge50" class="edge">
<title>Node2&#45;&gt;Node2</title>
<path fill="none" stroke="midnightblue" d="M642.36,-337.23C641.24,-341.96 636.45,-345.46 628,-345.46 614.14,-345.46 610.13,-336.03 615.98,-327.22"/>
<polygon fill="midnightblue" stroke="midnightblue" points="645.71,-336.16 640.02,-327.22 638.89,-337.75 645.71,-336.16"/>
</g>
<!-- Node3 -->
<g id="node3" class="node">
<title>Node3</title>
<g id="a_node3"><a xlink:href="group__grp__global__force.html#ga38c9d3c50bd043707fefa5137c9dbf44" target="_top" xlink:title="Calculates , where &#160;and , and .">
<polygon fill="white" stroke="black" points="526,-217.96 526,-236.96 570,-236.96 570,-217.96 526,-217.96"/>
<text text-anchor="middle" x="548" y="-224.96" font-family="Helvetica,sans-Serif" font-size="10.00">dforce</text>
</a>
</g>
</g>
<!-- Node2&#45;&gt;Node3 -->
<g id="edge2" class="edge">
<title>Node2&#45;&gt;Node3</title>
<path fill="none" stroke="midnightblue" d="M612.1,-300.27C595.82,-281.49 570.33,-252.07 557.29,-237.03"/>
<polygon fill="midnightblue" stroke="midnightblue" points="609.46,-302.57 618.65,-307.83 614.75,-297.98 609.46,-302.57"/>
</g>
<!-- Node7 -->
<g id="node7" class="node">
<title>Node7</title>
<g id="a_node7"><a xlink:href="xspech_8f90.html#a48f45478dc2c9f70ea8aa1c60ad06503" target="_top" xlink:title="This is the main &quot;driver&quot; for the physics part of SPEC.">
<polygon fill="white" stroke="black" points="168.5,-386.96 168.5,-405.96 206.5,-405.96 206.5,-386.96 168.5,-386.96"/>
<text text-anchor="middle" x="187.5" y="-393.96" font-family="Helvetica,sans-Serif" font-size="10.00">spec</text>
</a>
</g>
</g>
<!-- Node2&#45;&gt;Node7 -->
<g id="edge51" class="edge">
<title>Node2&#45;&gt;Node7</title>
<path fill="none" stroke="midnightblue" d="M610.72,-334.47C586.85,-358.03 539.78,-399.49 490,-415.46 387.12,-448.47 254.59,-416.05 206.74,-402.13"/>
<polygon fill="midnightblue" stroke="midnightblue" points="613.34,-336.8 617.89,-327.23 608.37,-331.87 613.34,-336.8"/>
</g>
<!-- Node10 -->
<g id="node10" class="node">
<title>Node10</title>
<g id="a_node10"><a xlink:href="group__grp__force__driver.html#gabbc245b3884ee8d8d3e2a52f25149f78" target="_top" xlink:title="fcn1">
<polygon fill="white" stroke="black" points="410,-236.96 410,-255.96 445,-255.96 445,-236.96 410,-236.96"/>
<text text-anchor="middle" x="427.5" y="-243.96" font-family="Helvetica,sans-Serif" font-size="10.00">fcn1</text>
</a>
</g>
</g>
<!-- Node2&#45;&gt;Node10 -->
<g id="edge47" class="edge">
<title>Node2&#45;&gt;Node10</title>
<path fill="none" stroke="midnightblue" d="M596.19,-306.44C553.6,-291.21 478.26,-264.26 445.03,-252.38"/>
<polygon fill="midnightblue" stroke="midnightblue" points="595.16,-309.79 605.76,-309.86 597.52,-303.2 595.16,-309.79"/>
</g>
<!-- Node12 -->
<g id="node12" class="node">
<title>Node12</title>
<g id="a_node12"><a xlink:href="group__grp__force__driver.html#ga8ccd6c7d901872702521d0a0edf95412" target="_top" xlink:title="fcn2">
<polygon fill="white" stroke="black" points="29.5,-184.96 29.5,-203.96 64.5,-203.96 64.5,-184.96 29.5,-184.96"/>
<text text-anchor="middle" x="47" y="-191.96" font-family="Helvetica,sans-Serif" font-size="10.00">fcn2</text>
</a>
</g>
</g>
<!-- Node2&#45;&gt;Node12 -->
<g id="edge48" class="edge">
<title>Node2&#45;&gt;Node12</title>
<path fill="none" stroke="midnightblue" d="M624.38,-297.56C614.03,-228.07 569.36,-0.46 428.5,-0.46 428.5,-0.46 428.5,-0.46 304,-0.46 224.55,-0.46 193,6.94 130,-41.46 80.05,-79.84 57.01,-157.53 50.23,-184.77"/>
<polygon fill="midnightblue" stroke="midnightblue" points="620.94,-298.22 625.8,-307.63 627.87,-297.24 620.94,-298.22"/>
</g>
<!-- Node19 -->
<g id="node19" class="node">
<title>Node19</title>
<g id="a_node19"><a xlink:href="group__grp__diagnostics.html#ga7401b50ec10c6598ee4a8112717a63ec" target="_top" xlink:title="Computes eigenvalues and eigenvectors of derivative matrix, .">
<polygon fill="white" stroke="black" points="405,-368.96 405,-387.96 450,-387.96 450,-368.96 405,-368.96"/>
<text text-anchor="middle" x="427.5" y="-375.96" font-family="Helvetica,sans-Serif" font-size="10.00">hesian</text>
</a>
</g>
</g>
<!-- Node2&#45;&gt;Node19 -->
<g id="edge49" class="edge">
<title>Node2&#45;&gt;Node19</title>
<path fill="none" stroke="midnightblue" d="M596.13,-326.95C555.62,-339.4 485.53,-360.94 450.19,-371.8"/>
<polygon fill="midnightblue" stroke="midnightblue" points="597.23,-330.27 605.76,-323.99 595.17,-323.58 597.23,-330.27"/>
</g>
<!-- Node3&#45;&gt;Node3 -->
<g id="edge13" class="edge">
<title>Node3&#45;&gt;Node3</title>
<path fill="none" stroke="midnightblue" d="M562.73,-247.23C561.58,-251.96 556.66,-255.46 548,-255.46 533.78,-255.46 529.67,-246.03 535.67,-237.22"/>
<polygon fill="midnightblue" stroke="midnightblue" points="566.07,-246.13 560.33,-237.22 559.26,-247.76 566.07,-246.13"/>
</g>
<!-- Node4 -->
<g id="node4" class="node">
<title>Node4</title>
<g id="a_node4"><a xlink:href="namespaceallglobal.html#a7824bc37519fe88336534ce90ab2af16" target="_top" xlink:title=" ">
<polygon fill="white" stroke="black" points="370.5,-330.96 370.5,-349.96 484.5,-349.96 484.5,-330.96 370.5,-330.96"/>
<text text-anchor="middle" x="427.5" y="-337.96" font-family="Helvetica,sans-Serif" font-size="10.00">allglobal::check_inputs</text>
</a>
</g>
</g>
<!-- Node3&#45;&gt;Node4 -->
<g id="edge3" class="edge">
<title>Node3&#45;&gt;Node4</title>
<path fill="none" stroke="midnightblue" d="M539.14,-246.48C530.02,-266.42 513.2,-297.45 490,-316.46 482.47,-322.64 473.15,-327.36 464.08,-330.91"/>
<polygon fill="midnightblue" stroke="midnightblue" points="542.4,-247.75 543.2,-237.18 535.99,-244.94 542.4,-247.75"/>
</g>
<!-- Node3&#45;&gt;Node7 -->
<g id="edge46" class="edge">
<title>Node3&#45;&gt;Node7</title>
<path fill="none" stroke="midnightblue" d="M533.09,-245.07C522.49,-257.42 506.86,-273.45 490,-283.46 440.07,-313.11 419.58,-301.64 365,-321.46 306.17,-342.84 238.56,-373.27 206.79,-387.92"/>
<polygon fill="midnightblue" stroke="midnightblue" points="535.91,-247.16 539.59,-237.23 530.52,-242.69 535.91,-247.16"/>
</g>
<!-- Node3&#45;&gt;Node10 -->
<g id="edge14" class="edge">
<title>Node3&#45;&gt;Node10</title>
<path fill="none" stroke="midnightblue" d="M515.69,-232.48C493.13,-236.1 463.55,-240.84 445.29,-243.77"/>
<polygon fill="midnightblue" stroke="midnightblue" points="516.49,-235.9 525.81,-230.86 515.39,-228.99 516.49,-235.9"/>
</g>
<!-- Node11 -->
<g id="node11" class="node">
<title>Node11</title>
<g id="a_node11"><a xlink:href="group__grp__force__driver.html#gaec14f81fbdbedafbc4189489ec8ae178" target="_top" xlink:title="Employs Newton method to find , where &#160;and &#160;is defined in dforce() .">
<polygon fill="white" stroke="black" points="281,-231.96 281,-250.96 329,-250.96 329,-231.96 281,-231.96"/>
<text text-anchor="middle" x="305" y="-238.96" font-family="Helvetica,sans-Serif" font-size="10.00">newton</text>
</a>
</g>
</g>
<!-- Node3&#45;&gt;Node11 -->
<g id="edge41" class="edge">
<title>Node3&#45;&gt;Node11</title>
<path fill="none" stroke="midnightblue" d="M515.44,-225.25C479.04,-223.2 417.47,-221.32 365,-227.46 352.98,-228.87 339.85,-231.84 329.04,-234.68"/>
<polygon fill="midnightblue" stroke="midnightblue" points="515.7,-228.77 525.89,-225.88 516.12,-221.78 515.7,-228.77"/>
</g>
<!-- Node3&#45;&gt;Node12 -->
<g id="edge26" class="edge">
<title>Node3&#45;&gt;Node12</title>
<path fill="none" stroke="midnightblue" d="M546.1,-207.48C543.4,-173.82 532.66,-106.34 490,-74.46 402.56,-9.13 354.09,-61.24 245,-57.46 193.92,-55.69 174.46,-32.26 130,-57.46 79.84,-85.9 57.06,-158.57 50.28,-184.82"/>
<polygon fill="midnightblue" stroke="midnightblue" points="542.63,-208.11 546.76,-217.87 549.62,-207.67 542.63,-208.11"/>
</g>
<!-- Node14 -->
<g id="node14" class="node">
<title>Node14</title>
<g id="a_node14"><a xlink:href="dfp200_8f90.html#a6aca59cf350d7b1941f8389d50945a43" target="_top" xlink:title="get LU Beltrami matrices">
<polygon fill="white" stroke="black" points="365,-104.96 365,-123.96 490,-123.96 490,-104.96 365,-104.96"/>
<text text-anchor="middle" x="427.5" y="-111.96" font-family="Helvetica,sans-Serif" font-size="10.00">get_lu_beltrami_matrices</text>
</a>
</g>
</g>
<!-- Node3&#45;&gt;Node14 -->
<g id="edge27" class="edge">
<title>Node3&#45;&gt;Node14</title>
<path fill="none" stroke="midnightblue" d="M540.21,-208.32C531.69,-187.02 515.1,-153.05 490,-133.46 485.07,-129.61 479.35,-126.54 473.43,-124.08"/>
<polygon fill="midnightblue" stroke="midnightblue" points="537.02,-209.78 543.83,-217.89 543.56,-207.3 537.02,-209.78"/>
</g>
<!-- Node3&#45;&gt;Node19 -->
<g id="edge38" class="edge">
<title>Node3&#45;&gt;Node19</title>
<path fill="none" stroke="midnightblue" d="M543.85,-247.05C538.19,-275.81 523.62,-329.29 490,-359.46 479.02,-369.32 463.01,-374.06 450.08,-376.34"/>
<polygon fill="midnightblue" stroke="midnightblue" points="547.32,-247.48 545.65,-237.02 540.43,-246.25 547.32,-247.48"/>
</g>
<!-- Node20 -->
<g id="node20" class="node">
<title>Node20</title>
<g id="a_node20"><a xlink:href="group__grp__conjugate__gradient.html#ga4d8415226e62a9fdb42b0fd0b464251e" target="_top" xlink:title="Returns the energy functional and it&#39;s derivatives with respect to geometry.">
<polygon fill="white" stroke="black" points="403.5,-142.96 403.5,-161.96 451.5,-161.96 451.5,-142.96 403.5,-142.96"/>
<text text-anchor="middle" x="427.5" y="-149.96" font-family="Helvetica,sans-Serif" font-size="10.00">pc00ab</text>
</a>
</g>
</g>
<!-- Node3&#45;&gt;Node20 -->
<g id="edge42" class="edge">
<title>Node3&#45;&gt;Node20</title>
<path fill="none" stroke="midnightblue" d="M523.05,-212.3C499.31,-197.28 463.68,-174.73 443.62,-162.03"/>
<polygon fill="midnightblue" stroke="midnightblue" points="521.19,-215.27 531.51,-217.66 524.93,-209.35 521.19,-215.27"/>
</g>
<!-- Node5 -->
<g id="node5" class="node">
<title>Node5</title>
<g id="a_node5"><a xlink:href="xspech_8f90.html#a9fdc71dffd7c61ee4588a3f80d3ab9ce" target="_top" xlink:title="Main subroutine of SPEC.">
<polygon fill="white" stroke="black" points="281.5,-462.96 281.5,-481.96 328.5,-481.96 328.5,-462.96 281.5,-462.96"/>
<text text-anchor="middle" x="305" y="-469.96" font-family="Helvetica,sans-Serif" font-size="10.00">xspech</text>
</a>
</g>
</g>
<!-- Node4&#45;&gt;Node5 -->
<g id="edge4" class="edge">
<title>Node4&#45;&gt;Node5</title>
<path fill="none" stroke="midnightblue" d="M371.49,-354.83C369.21,-356.23 367.03,-357.77 365,-359.46 330.99,-387.79 314.11,-440.83 308.35,-462.67"/>
<polygon fill="midnightblue" stroke="midnightblue" points="373.43,-357.76 380.71,-350.07 370.22,-351.54 373.43,-357.76"/>
</g>
<!-- Node5&#45;&gt;Node5 -->
<g id="edge12" class="edge">
<title>Node5&#45;&gt;Node5</title>
<path fill="none" stroke="midnightblue" d="M326.48,-491.86C325.05,-496.78 317.89,-500.46 305,-500.46 284.38,-500.46 278.42,-491.03 287.12,-482.22"/>
<polygon fill="midnightblue" stroke="midnightblue" points="329.66,-490.36 322.88,-482.22 323.1,-492.81 329.66,-490.36"/>
</g>
<!-- Node6 -->
<g id="node6" class="node">
<title>Node6</title>
<g id="a_node6"><a xlink:href="xspech_8f90.html#a1451823a7b97101a797de616250752c1" target="_top" xlink:title="Final diagnostics.">
<polygon fill="white" stroke="black" points="143,-462.96 143,-481.96 232,-481.96 232,-462.96 143,-462.96"/>
<text text-anchor="middle" x="187.5" y="-469.96" font-family="Helvetica,sans-Serif" font-size="10.00">final_diagnostics</text>
</a>
</g>
</g>
<!-- Node5&#45;&gt;Node6 -->
<g id="edge5" class="edge">
<title>Node5&#45;&gt;Node6</title>
<path fill="none" stroke="midnightblue" d="M271.29,-466.31C259.09,-465.69 245.05,-465.55 232.04,-465.9"/>
<polygon fill="midnightblue" stroke="midnightblue" points="271.25,-469.82 281.46,-466.98 271.71,-462.83 271.25,-469.82"/>
</g>
<!-- Node5&#45;&gt;Node7 -->
<g id="edge7" class="edge">
<title>Node5&#45;&gt;Node7</title>
<path fill="none" stroke="midnightblue" d="M292.58,-454.96C277.01,-436.22 250.43,-409.77 245,-406.46 233.15,-399.26 218.23,-394.39 206.69,-392.68"/>
<polygon fill="midnightblue" stroke="midnightblue" points="289.91,-457.22 298.84,-462.91 295.41,-452.89 289.91,-457.22"/>
</g>
<!-- Node9 -->
<g id="node9" class="node">
<title>Node9</title>
<g id="a_node9"><a xlink:href="xspech_8f90.html#a95271e8805067f801b5d4e524d6901d4" target="_top" xlink:title="Main program of SPEC.">
<polygon fill="white" stroke="black" points="155.5,-424.96 155.5,-443.96 219.5,-443.96 219.5,-424.96 155.5,-424.96"/>
<text text-anchor="middle" x="187.5" y="-431.96" font-family="Helvetica,sans-Serif" font-size="10.00">spec_main</text>
</a>
</g>
</g>
<!-- Node5&#45;&gt;Node9 -->
<g id="edge11" class="edge">
<title>Node5&#45;&gt;Node9</title>
<path fill="none" stroke="midnightblue" d="M271.92,-461.91C254.89,-456.31 234.12,-449.47 217.57,-444.03"/>
<polygon fill="midnightblue" stroke="midnightblue" points="270.86,-465.25 281.46,-465.05 273.05,-458.6 270.86,-465.25"/>
</g>
<!-- Node6&#45;&gt;Node5 -->
<g id="edge6" class="edge">
<title>Node6&#45;&gt;Node5</title>
<path fill="none" stroke="midnightblue" d="M242.05,-479.2C255.94,-479.3 270.15,-478.88 281.46,-477.94"/>
<polygon fill="midnightblue" stroke="midnightblue" points="242.09,-475.7 232.04,-479.03 241.98,-482.7 242.09,-475.7"/>
</g>
<!-- Node7&#45;&gt;Node5 -->
<g id="edge10" class="edge">
<title>Node7&#45;&gt;Node5</title>
<path fill="none" stroke="midnightblue" d="M210.9,-409.64C221.7,-413.57 234.55,-418.11 245,-424.46 249.9,-427.44 271.97,-449.22 287.68,-462.73"/>
<polygon fill="midnightblue" stroke="midnightblue" points="211.91,-406.28 201.31,-406.02 209.43,-412.83 211.91,-406.28"/>
</g>
<!-- Node8 -->
<g id="node8" class="node">
<title>Node8</title>
<g id="a_node8"><a xlink:href="group__grp__output.html#ga0f962c09cd5d5eba99f1cba043cb3898" target="_top" xlink:title="Initialize the interface to the HDF5 library and open the output file.">
<polygon fill="white" stroke="black" points="0,-443.96 0,-462.96 94,-462.96 94,-443.96 0,-443.96"/>
<text text-anchor="middle" x="47" y="-450.96" font-family="Helvetica,sans-Serif" font-size="10.00">sphdf5::init_outfile</text>
</a>
</g>
</g>
<!-- Node7&#45;&gt;Node8 -->
<g id="edge8" class="edge">
<title>Node7&#45;&gt;Node8</title>
<path fill="none" stroke="midnightblue" d="M158.46,-405.22C149.31,-408.26 139.15,-411.82 130,-415.46 107.99,-424.23 83.42,-435.88 66.96,-443.95"/>
<polygon fill="midnightblue" stroke="midnightblue" points="159.82,-408.46 168.25,-402.04 157.66,-401.8 159.82,-408.46"/>
</g>
<!-- Node8&#45;&gt;Node5 -->
<g id="edge9" class="edge">
<title>Node8&#45;&gt;Node5</title>
<path fill="none" stroke="midnightblue" d="M72.37,-468.17C88.18,-476.84 109.57,-486.96 130,-491.46 179.91,-502.47 194.51,-499.39 245,-491.46 257.33,-489.53 270.6,-485.44 281.43,-481.56"/>
<polygon fill="midnightblue" stroke="midnightblue" points="73.73,-464.92 63.3,-463.03 70.27,-471.01 73.73,-464.92"/>
</g>
<!-- Node10&#45;&gt;Node10 -->
<g id="edge15" class="edge">
<title>Node10&#45;&gt;Node10</title>
<path fill="none" stroke="midnightblue" d="M450,-264.19C449.8,-269.92 442.3,-274.46 427.5,-274.46 405.47,-274.46 399.62,-264.4 409.94,-255.35"/>
<polygon fill="midnightblue" stroke="midnightblue" points="452.99,-262.37 445.06,-255.35 446.88,-265.79 452.99,-262.37"/>
</g>
<!-- Node10&#45;&gt;Node11 -->
<g id="edge16" class="edge">
<title>Node10&#45;&gt;Node11</title>
<path fill="none" stroke="midnightblue" d="M399.8,-239.64C378.65,-237.3 349.4,-236.17 329.22,-236.97"/>
<polygon fill="midnightblue" stroke="midnightblue" points="399.38,-243.11 409.74,-240.92 400.28,-236.17 399.38,-243.11"/>
</g>
<!-- Node11&#45;&gt;Node7 -->
<g id="edge22" class="edge">
<title>Node11&#45;&gt;Node7</title>
<path fill="none" stroke="midnightblue" d="M290.62,-259.42C266.08,-292.35 214.68,-361.33 195.72,-386.77"/>
<polygon fill="midnightblue" stroke="midnightblue" points="293.61,-261.27 296.77,-251.16 287.99,-257.09 293.61,-261.27"/>
</g>
<!-- Node11&#45;&gt;Node10 -->
<g id="edge17" class="edge">
<title>Node11&#45;&gt;Node10</title>
<path fill="none" stroke="midnightblue" d="M339.21,-248.95C362.11,-251.06 391.58,-251.87 409.74,-250.61"/>
<polygon fill="midnightblue" stroke="midnightblue" points="339.53,-245.46 329.22,-247.88 338.79,-252.42 339.53,-245.46"/>
</g>
<!-- Node11&#45;&gt;Node11 -->
<g id="edge21" class="edge">
<title>Node11&#45;&gt;Node11</title>
<path fill="none" stroke="midnightblue" d="M326.48,-260.86C325.05,-265.78 317.89,-269.46 305,-269.46 284.38,-269.46 278.42,-260.03 287.12,-251.22"/>
<polygon fill="midnightblue" stroke="midnightblue" points="329.66,-259.36 322.88,-251.22 323.1,-261.81 329.66,-259.36"/>
</g>
<!-- Node11&#45;&gt;Node12 -->
<g id="edge18" class="edge">
<title>Node11&#45;&gt;Node12</title>
<path fill="none" stroke="midnightblue" d="M270.67,-230.08C235.55,-222.7 178.71,-214.01 130,-204.46 107.2,-199.99 81.09,-193.75 64.58,-191.81"/>
<polygon fill="midnightblue" stroke="midnightblue" points="270.31,-233.58 280.83,-232.32 271.82,-226.75 270.31,-233.58"/>
</g>
<!-- Node13 -->
<g id="node13" class="node">
<title>Node13</title>
<g id="a_node13"><a xlink:href="group__grp__force__driver.html#ga382822b303cbf8c56d6f54dcb379caf2" target="_top" xlink:title="read or write force&#45;derivative matrix">
<polygon fill="white" stroke="black" points="155,-184.96 155,-203.96 220,-203.96 220,-184.96 155,-184.96"/>
<text text-anchor="middle" x="187.5" y="-191.96" font-family="Helvetica,sans-Serif" font-size="10.00">writereadgf</text>
</a>
</g>
</g>
<!-- Node11&#45;&gt;Node13 -->
<g id="edge23" class="edge">
<title>Node11&#45;&gt;Node13</title>
<path fill="none" stroke="midnightblue" d="M282.29,-227.22C264.75,-218.56 239.82,-208.19 220.07,-201.22"/>
<polygon fill="midnightblue" stroke="midnightblue" points="280.71,-230.34 291.2,-231.82 283.92,-224.12 280.71,-230.34"/>
</g>
<!-- Node12&#45;&gt;Node11 -->
<g id="edge20" class="edge">
<title>Node12&#45;&gt;Node11</title>
<path fill="none" stroke="midnightblue" d="M70.5,-207.61C86.93,-213.13 109.77,-218.5 130,-222.46 183.75,-233 247.4,-242.49 280.83,-244.17"/>
<polygon fill="midnightblue" stroke="midnightblue" points="71.32,-204.17 60.73,-203.97 68.88,-210.73 71.32,-204.17"/>
</g>
<!-- Node12&#45;&gt;Node12 -->
<g id="edge19" class="edge">
<title>Node12&#45;&gt;Node12</title>
<path fill="none" stroke="midnightblue" d="M72.47,-208.87C76,-216.05 67.51,-222.46 47,-222.46 19.66,-222.46 13.67,-211.07 29.06,-201.63"/>
<polygon fill="midnightblue" stroke="midnightblue" points="74.58,-206.04 64.94,-201.63 69.73,-211.09 74.58,-206.04"/>
</g>
<!-- Node13&#45;&gt;Node11 -->
<g id="edge25" class="edge">
<title>Node13&#45;&gt;Node11</title>
<path fill="none" stroke="midnightblue" d="M210.22,-208.71C230.39,-218.67 260.31,-230.88 280.9,-237.59"/>
<polygon fill="midnightblue" stroke="midnightblue" points="211.68,-205.53 201.19,-204.05 208.47,-211.75 211.68,-205.53"/>
</g>
<!-- Node13&#45;&gt;Node12 -->
<g id="edge24" class="edge">
<title>Node13&#45;&gt;Node12</title>
<path fill="none" stroke="midnightblue" d="M144.4,-194.46C117.5,-194.46 84.11,-194.46 64.52,-194.46"/>
<polygon fill="midnightblue" stroke="midnightblue" points="144.73,-197.96 154.73,-194.46 144.73,-190.96 144.73,-197.96"/>
</g>
<!-- Node15 -->
<g id="node15" class="node">
<title>Node15</title>
<g id="a_node15"><a xlink:href="dfp200_8f90.html#a55ea75395f8c71731451e1add3720c7e" target="_top" xlink:title="Given the field consistent with the constraints and the geometry, computes local quantites related to...">
<polygon fill="white" stroke="black" points="282,-104.96 282,-123.96 328,-123.96 328,-104.96 282,-104.96"/>
<text text-anchor="middle" x="305" y="-111.96" font-family="Helvetica,sans-Serif" font-size="10.00">dfp200</text>
</a>
</g>
</g>
<!-- Node14&#45;&gt;Node15 -->
<g id="edge28" class="edge">
<title>Node14&#45;&gt;Node15</title>
<path fill="none" stroke="midnightblue" d="M354.69,-107.82C345.05,-108.01 335.82,-108.44 328.04,-109.1"/>
<polygon fill="midnightblue" stroke="midnightblue" points="354.88,-111.32 364.84,-107.71 354.8,-104.32 354.88,-111.32"/>
</g>
<!-- Node15&#45;&gt;Node3 -->
<g id="edge29" class="edge">
<title>Node15&#45;&gt;Node3</title>
<path fill="none" stroke="midnightblue" d="M335.28,-100.78C374.04,-84.88 442.95,-64.53 490,-95.46 533.18,-123.85 543.8,-192.63 546.28,-217.93"/>
<polygon fill="midnightblue" stroke="midnightblue" points="333.47,-97.75 325.65,-104.89 336.22,-104.18 333.47,-97.75"/>
</g>
<!-- Node15&#45;&gt;Node14 -->
<g id="edge35" class="edge">
<title>Node15&#45;&gt;Node14</title>
<path fill="none" stroke="midnightblue" d="M338.28,-120.52C346.52,-120.96 355.66,-121.19 364.84,-121.21"/>
<polygon fill="midnightblue" stroke="midnightblue" points="338.26,-117.01 328.04,-119.82 337.78,-123.99 338.26,-117.01"/>
</g>
<!-- Node15&#45;&gt;Node15 -->
<g id="edge30" class="edge">
<title>Node15&#45;&gt;Node15</title>
<path fill="none" stroke="midnightblue" d="M326.48,-133.86C325.05,-138.78 317.89,-142.46 305,-142.46 284.38,-142.46 278.42,-133.03 287.12,-124.22"/>
<polygon fill="midnightblue" stroke="midnightblue" points="329.66,-132.36 322.88,-124.22 323.1,-134.81 329.66,-132.36"/>
</g>
<!-- Node16 -->
<g id="node16" class="node">
<title>Node16</title>
<g id="a_node16"><a xlink:href="dfp200_8f90.html#a7b64c7392b45d0042d8bd7379c0761a5" target="_top" xlink:title="Evaluate the derivative of the square of the magnetic field modulus. Add spectral constraint derivati...">
<polygon fill="white" stroke="black" points="150.5,-142.96 150.5,-161.96 224.5,-161.96 224.5,-142.96 150.5,-142.96"/>
<text text-anchor="middle" x="187.5" y="-149.96" font-family="Helvetica,sans-Serif" font-size="10.00">evaluate_dbb</text>
</a>
</g>
</g>
<!-- Node15&#45;&gt;Node16 -->
<g id="edge31" class="edge">
<title>Node15&#45;&gt;Node16</title>
<path fill="none" stroke="midnightblue" d="M271.95,-118.89C249.52,-125.09 220.6,-135.07 203.36,-142.87"/>
<polygon fill="midnightblue" stroke="midnightblue" points="272.94,-122.25 281.73,-116.33 271.17,-115.48 272.94,-122.25"/>
</g>
<!-- Node17 -->
<g id="node17" class="node">
<title>Node17</title>
<g id="a_node17"><a xlink:href="dfp200_8f90.html#a73ddf39ecc5228201fb643779e17cd36" target="_top" xlink:title="Evaluate mu and psip derivatives and store them in dmupfdx.">
<polygon fill="white" stroke="black" points="140,-104.96 140,-123.96 235,-123.96 235,-104.96 140,-104.96"/>
<text text-anchor="middle" x="187.5" y="-111.96" font-family="Helvetica,sans-Serif" font-size="10.00">evaluate_dmupfdx</text>
</a>
</g>
</g>
<!-- Node15&#45;&gt;Node17 -->
<g id="edge33" class="edge">
<title>Node15&#45;&gt;Node17</title>
<path fill="none" stroke="midnightblue" d="M271.47,-108.32C260.18,-107.74 247.28,-107.58 235.08,-107.83"/>
<polygon fill="midnightblue" stroke="midnightblue" points="271.52,-111.83 281.73,-109 271.99,-104.85 271.52,-111.83"/>
</g>
<!-- Node18 -->
<g id="node18" class="node">
<title>Node18</title>
<g id="a_node18"><a xlink:href="dfp200_8f90.html#a5e56f1f4b1e6df11a9cffa6237c37469" target="_top" xlink:title="This routine evaluates the value of the magnetic field once the interface is perturbed using matrix p...">
<polygon fill="white" stroke="black" points="130,-66.96 130,-85.96 245,-85.96 245,-66.96 130,-66.96"/>
<text text-anchor="middle" x="187.5" y="-73.96" font-family="Helvetica,sans-Serif" font-size="10.00">get_perturbed_solution</text>
</a>
</g>
</g>
<!-- Node15&#45;&gt;Node18 -->
<g id="edge36" class="edge">
<title>Node15&#45;&gt;Node18</title>
<path fill="none" stroke="midnightblue" d="M279.49,-100.76C267.37,-95.86 252.29,-90.54 237.9,-86.03"/>
<polygon fill="midnightblue" stroke="midnightblue" points="278.33,-104.07 288.9,-104.76 281.07,-97.63 278.33,-104.07"/>
</g>
<!-- Node16&#45;&gt;Node15 -->
<g id="edge32" class="edge">
<title>Node16&#45;&gt;Node15</title>
<path fill="none" stroke="midnightblue" d="M234.59,-143.93C253.93,-137.98 275.09,-130.38 288.9,-124.16"/>
<polygon fill="midnightblue" stroke="midnightblue" points="233.57,-140.58 224.99,-146.78 235.57,-147.29 233.57,-140.58"/>
</g>
<!-- Node17&#45;&gt;Node15 -->
<g id="edge34" class="edge">
<title>Node17&#45;&gt;Node15</title>
<path fill="none" stroke="midnightblue" d="M245.38,-121.21C258.3,-121.23 271.28,-120.8 281.73,-119.92"/>
<polygon fill="midnightblue" stroke="midnightblue" points="245.12,-117.71 235.08,-121.1 245.04,-124.71 245.12,-117.71"/>
</g>
<!-- Node18&#45;&gt;Node15 -->
<g id="edge37" class="edge">
<title>Node18&#45;&gt;Node15</title>
<path fill="none" stroke="midnightblue" d="M212.59,-90C232.96,-98.27 261.9,-107.74 281.73,-112.59"/>
<polygon fill="midnightblue" stroke="midnightblue" points="213.93,-86.76 203.36,-86.06 211.19,-93.2 213.93,-86.76"/>
</g>
<!-- Node19&#45;&gt;Node7 -->
<g id="edge40" class="edge">
<title>Node19&#45;&gt;Node7</title>
<path fill="none" stroke="midnightblue" d="M394.92,-380.85C344.33,-384.68 246.75,-392.06 206.52,-395.1"/>
<polygon fill="midnightblue" stroke="midnightblue" points="395.25,-384.34 404.96,-380.09 394.72,-377.36 395.25,-384.34"/>
</g>
<!-- Node19&#45;&gt;Node19 -->
<g id="edge39" class="edge">
<title>Node19&#45;&gt;Node19</title>
<path fill="none" stroke="midnightblue" d="M449.82,-397.49C448.6,-402.59 441.16,-406.46 427.5,-406.46 406.17,-406.46 400.01,-397.03 409,-388.22"/>
<polygon fill="midnightblue" stroke="midnightblue" points="453.05,-396.13 446,-388.22 446.57,-398.8 453.05,-396.13"/>
</g>
<!-- Node20&#45;&gt;Node20 -->
<g id="edge45" class="edge">
<title>Node20&#45;&gt;Node20</title>
<path fill="none" stroke="midnightblue" d="M449.82,-171.49C448.6,-176.59 441.16,-180.46 427.5,-180.46 406.17,-180.46 400.01,-171.03 409,-162.22"/>
<polygon fill="midnightblue" stroke="midnightblue" points="453.05,-170.13 446,-162.22 446.57,-172.8 453.05,-170.13"/>
</g>
<!-- Node21 -->
<g id="node21" class="node">
<title>Node21</title>
<g id="a_node21"><a xlink:href="group__grp__conjugate__gradient.html#ga25a3bae2ff2ee0469b045de0d033398b" target="_top" xlink:title="Use preconditioned conjugate gradient method to find minimum of energy functional.">
<polygon fill="white" stroke="black" points="281,-160.96 281,-179.96 329,-179.96 329,-160.96 281,-160.96"/>
<text text-anchor="middle" x="305" y="-167.96" font-family="Helvetica,sans-Serif" font-size="10.00">pc00aa</text>
</a>
</g>
</g>
<!-- Node20&#45;&gt;Node21 -->
<g id="edge43" class="edge">
<title>Node20&#45;&gt;Node21</title>
<path fill="none" stroke="midnightblue" d="M393.16,-157.44C372.81,-160.48 347.31,-164.29 329.16,-167"/>
<polygon fill="midnightblue" stroke="midnightblue" points="393.89,-160.87 403.27,-155.93 392.86,-153.95 393.89,-160.87"/>
</g>
<!-- Node21&#45;&gt;Node21 -->
<g id="edge44" class="edge">
<title>Node21&#45;&gt;Node21</title>
<path fill="none" stroke="midnightblue" d="M326.48,-189.86C325.05,-194.78 317.89,-198.46 305,-198.46 284.38,-198.46 278.42,-189.03 287.12,-180.22"/>
<polygon fill="midnightblue" stroke="midnightblue" points="329.66,-188.36 322.88,-180.22 323.1,-190.81 329.66,-188.36"/>
</g>
<!-- Node22&#45;&gt;Node5 -->
<g id="edge55" class="edge">
<title>Node22&#45;&gt;Node5</title>
<path fill="none" stroke="midnightblue" d="M515.53,-472.46C466.24,-472.46 372,-472.46 328.74,-472.46"/>
<polygon fill="midnightblue" stroke="midnightblue" points="515.61,-475.96 525.61,-472.46 515.61,-468.96 515.61,-475.96"/>
</g>
<!-- Node22&#45;&gt;Node19 -->
<g id="edge53" class="edge">
<title>Node22&#45;&gt;Node19</title>
<path fill="none" stroke="midnightblue" d="M526.74,-456.39C501.93,-436.71 460.74,-404.04 440.49,-387.98"/>
<polygon fill="midnightblue" stroke="midnightblue" points="524.76,-459.28 534.76,-462.76 529.11,-453.8 524.76,-459.28"/>
</g>
<!-- Node22&#45;&gt;Node22 -->
<g id="edge54" class="edge">
<title>Node22&#45;&gt;Node22</title>
<path fill="none" stroke="midnightblue" d="M562.73,-492.23C561.58,-496.96 556.66,-500.46 548,-500.46 533.78,-500.46 529.67,-491.03 535.67,-482.22"/>
<polygon fill="midnightblue" stroke="midnightblue" points="566.07,-491.13 560.33,-482.22 559.26,-492.76 566.07,-491.13"/>
</g>
</g>
</svg>
