<?xml version="1.0" encoding="UTF-8" standalone="no"?>
<!DOCTYPE svg PUBLIC "-//W3C//DTD SVG 1.1//EN"
 "http://www.w3.org/Graphics/SVG/1.1/DTD/svg11.dtd">
<!-- Generated by graphviz version 2.44.0 ()
 -->
<!-- Title: writereadgf Pages: 1 -->
<svg width="392pt" height="90pt"
 viewBox="0.00 0.00 392.00 90.00" xmlns="http://www.w3.org/2000/svg" xmlns:xlink="http://www.w3.org/1999/xlink">
<g id="graph0" class="graph" transform="scale(1 1) rotate(0) translate(4 86)">
<title>writereadgf</title>
<polygon fill="white" stroke="transparent" points="-4,4 -4,-86 388,-86 388,4 -4,4"/>
<!-- Node1 -->
<g id="node1" class="node">
<title>Node1</title>
<g id="a_node1"><a xlink:title="read or write force&#45;derivative matrix">
<polygon fill="#bfbfbf" stroke="black" points="319,-15.5 319,-34.5 384,-34.5 384,-15.5 319,-15.5"/>
<text text-anchor="middle" x="351.5" y="-22.5" font-family="Helvetica,sans-Serif" font-size="10.00">writereadgf</text>
</a>
</g>
</g>
<!-- Node2 -->
<g id="node2" class="node">
<title>Node2</title>
<g id="a_node2"><a xlink:href="group__grp__force__driver.html#ga8ccd6c7d901872702521d0a0edf95412" target="_top" xlink:title="fcn2">
<polygon fill="white" stroke="black" points="248,-62.5 248,-81.5 283,-81.5 283,-62.5 248,-62.5"/>
<text text-anchor="middle" x="265.5" y="-69.5" font-family="Helvetica,sans-Serif" font-size="10.00">fcn2</text>
</a>
</g>
</g>
<!-- Node1&#45;&gt;Node2 -->
<g id="edge1" class="edge">
<title>Node1&#45;&gt;Node2</title>
<path fill="none" stroke="midnightblue" d="M324.66,-39.46C311.16,-47.01 295.03,-56.04 283.19,-62.66"/>
<polygon fill="midnightblue" stroke="midnightblue" points="326.48,-42.45 333.5,-34.51 323.07,-36.34 326.48,-42.45"/>
</g>
<!-- Node3 -->
<g id="node3" class="node">
<title>Node3</title>
<g id="a_node3"><a xlink:href="group__grp__force__driver.html#gaec14f81fbdbedafbc4189489ec8ae178" target="_top" xlink:title="Employs Newton method to find , where &#160;and &#160;is defined in dforce() .">
<polygon fill="white" stroke="black" points="164,-38.5 164,-57.5 212,-57.5 212,-38.5 164,-38.5"/>
<text text-anchor="middle" x="188" y="-45.5" font-family="Helvetica,sans-Serif" font-size="10.00">newton</text>
</a>
</g>
</g>
<!-- Node1&#45;&gt;Node3 -->
<g id="edge10" class="edge">
<title>Node1&#45;&gt;Node3</title>
<path fill="none" stroke="midnightblue" d="M308.95,-24.93C278.15,-28.02 237.29,-34.2 212.09,-39.82"/>
<polygon fill="midnightblue" stroke="midnightblue" points="309.34,-28.41 318.98,-24.01 308.7,-21.44 309.34,-28.41"/>
</g>
<!-- Node2&#45;&gt;Node3 -->
<g id="edge2" class="edge">
<title>Node2&#45;&gt;Node3</title>
<path fill="none" stroke="midnightblue" d="M241.58,-58.45C232.26,-54.85 221.5,-51.42 212.16,-49.08"/>
<polygon fill="midnightblue" stroke="midnightblue" points="240.43,-61.76 251,-62.39 243.13,-55.3 240.43,-61.76"/>
</g>
<!-- Node3&#45;&gt;Node1 -->
<g id="edge6" class="edge">
<title>Node3&#45;&gt;Node1</title>
<path fill="none" stroke="midnightblue" d="M222.38,-48.83C251.53,-46.31 293.4,-40.26 321.25,-34.51"/>
<polygon fill="midnightblue" stroke="midnightblue" points="221.98,-45.35 212.27,-49.6 222.51,-52.33 221.98,-45.35"/>
</g>
<!-- Node3&#45;&gt;Node2 -->
<g id="edge5" class="edge">
<title>Node3&#45;&gt;Node2</title>
<path fill="none" stroke="midnightblue" d="M212.11,-61.62C223.61,-66.06 237.26,-70.21 247.74,-72.39"/>
<polygon fill="midnightblue" stroke="midnightblue" points="213.26,-58.31 202.68,-57.69 210.57,-64.77 213.26,-58.31"/>
</g>
<!-- Node4 -->
<g id="node4" class="node">
<title>Node4</title>
<g id="a_node4"><a xlink:href="group__grp__force__driver.html#gabbc245b3884ee8d8d3e2a52f25149f78" target="_top" xlink:title="fcn1">
<polygon fill="white" stroke="black" points="87,-38.5 87,-57.5 122,-57.5 122,-38.5 87,-38.5"/>
<text text-anchor="middle" x="104.5" y="-45.5" font-family="Helvetica,sans-Serif" font-size="10.00">fcn1</text>
</a>
</g>
</g>
<!-- Node3&#45;&gt;Node4 -->
<g id="edge3" class="edge">
<title>Node3&#45;&gt;Node4</title>
<path fill="none" stroke="midnightblue" d="M153.78,-41.35C142.92,-41.05 131.32,-41.41 122.22,-42.43"/>
<polygon fill="midnightblue" stroke="midnightblue" points="153.7,-44.85 163.86,-41.84 154.05,-37.86 153.7,-44.85"/>
</g>
<!-- Node5 -->
<g id="node5" class="node">
<title>Node5</title>
<g id="a_node5"><a xlink:href="xspech_8f90.html#aea782eae089760a491c2c54f9903abcc" target="_top" xlink:title="Main program of SPEC.">
<polygon fill="white" stroke="black" points="81,-0.5 81,-19.5 128,-19.5 128,-0.5 81,-0.5"/>
<text text-anchor="middle" x="104.5" y="-7.5" font-family="Helvetica,sans-Serif" font-size="10.00">xspech</text>
</a>
</g>
</g>
<!-- Node3&#45;&gt;Node5 -->
<g id="edge7" class="edge">
<title>Node3&#45;&gt;Node5</title>
<path fill="none" stroke="midnightblue" d="M157.29,-34.15C146.92,-29.31 135.52,-24 126.06,-19.59"/>
<polygon fill="midnightblue" stroke="midnightblue" points="155.89,-37.36 166.43,-38.41 158.85,-31.01 155.89,-37.36"/>
</g>
<!-- Node4&#45;&gt;Node3 -->
<g id="edge4" class="edge">
<title>Node4&#45;&gt;Node3</title>
<path fill="none" stroke="midnightblue" d="M132.25,-54.38C142.46,-54.94 154.01,-54.86 163.86,-54.16"/>
<polygon fill="midnightblue" stroke="midnightblue" points="132.47,-50.89 122.22,-53.57 131.9,-57.87 132.47,-50.89"/>
</g>
<!-- Node6 -->
<g id="node6" class="node">
<title>Node6</title>
<g id="a_node6"><a xlink:href="xspech_8f90.html#a537af4990058c0b0f2cd8b3669af204f" target="_top" xlink:title="todo remark">
<polygon fill="white" stroke="black" points="0,-0.5 0,-19.5 45,-19.5 45,-0.5 0,-0.5"/>
<text text-anchor="middle" x="22.5" y="-7.5" font-family="Helvetica,sans-Serif" font-size="10.00">ending</text>
</a>
</g>
</g>
<!-- Node5&#45;&gt;Node6 -->
<g id="edge8" class="edge">
<title>Node5&#45;&gt;Node6</title>
<path fill="none" stroke="midnightblue" d="M70.65,-3.35C62.06,-3.11 53.01,-3.3 45.17,-3.92"/>
<polygon fill="midnightblue" stroke="midnightblue" points="70.63,-6.85 80.79,-3.84 70.97,0.14 70.63,-6.85"/>
</g>
<!-- Node6&#45;&gt;Node5 -->
<g id="edge9" class="edge">
<title>Node6&#45;&gt;Node5</title>
<path fill="none" stroke="midnightblue" d="M55.22,-16.62C63.77,-16.89 72.84,-16.74 80.79,-16.16"/>
<polygon fill="midnightblue" stroke="midnightblue" points="55.34,-13.12 45.17,-16.08 54.96,-20.11 55.34,-13.12"/>
</g>
</g>
</svg>
