<?xml version="1.0" encoding="UTF-8" standalone="no"?>
<!DOCTYPE svg PUBLIC "-//W3C//DTD SVG 1.1//EN"
 "http://www.w3.org/Graphics/SVG/1.1/DTD/svg11.dtd">
<!-- Generated by graphviz version 2.49.3 (20211027.1534)
 -->
<!-- Title: lforce Pages: 1 -->
<svg width="782pt" height="400pt"
 viewBox="0.00 0.00 782.00 400.00" xmlns="http://www.w3.org/2000/svg" xmlns:xlink="http://www.w3.org/1999/xlink">
<g id="graph0" class="graph" transform="scale(1 1) rotate(0) translate(4 396)">
<title>lforce</title>
<polygon fill="white" stroke="transparent" points="-4,4 -4,-396 778,-396 778,4 -4,4"/>
<!-- Node1 -->
<g id="node1" class="node">
<title>Node1</title>
<g id="a_node1"><a xlink:title="Computes , and the spectral condensation constraints if required, on the interfaces,...">
<polygon fill="#bfbfbf" stroke="black" points="733,-124.5 733,-143.5 774,-143.5 774,-124.5 733,-124.5"/>
<text text-anchor="middle" x="753.5" y="-131.5" font-family="Helvetica,sans-Serif" font-size="10.00">lforce</text>
</a>
</g>
</g>
<!-- Node1&#45;&gt;Node1 -->
<g id="edge48" class="edge">
<title>Node1&#45;&gt;Node1</title>
<path fill="none" stroke="midnightblue" d="M767.86,-153.77C766.74,-158.5 761.95,-162 753.5,-162 739.64,-162 735.63,-152.57 741.48,-143.76"/>
<polygon fill="midnightblue" stroke="midnightblue" points="771.21,-152.7 765.52,-143.76 764.39,-154.29 771.21,-152.7"/>
</g>
<!-- Node2 -->
<g id="node2" class="node">
<title>Node2</title>
<g id="a_node2"><a xlink:href="dfp200_8f90.html#a55ea75395f8c71731451e1add3720c7e" target="_top" xlink:title="Given the field consistent with the constraints and the geometry, computes local quantites related to...">
<polygon fill="white" stroke="black" points="651,-85.5 651,-104.5 697,-104.5 697,-85.5 651,-85.5"/>
<text text-anchor="middle" x="674" y="-92.5" font-family="Helvetica,sans-Serif" font-size="10.00">dfp200</text>
</a>
</g>
</g>
<!-- Node1&#45;&gt;Node2 -->
<g id="edge1" class="edge">
<title>Node1&#45;&gt;Node2</title>
<path fill="none" stroke="midnightblue" d="M724.11,-119.71C714.06,-114.66 703.01,-109.09 693.94,-104.53"/>
<polygon fill="midnightblue" stroke="midnightblue" points="722.84,-122.99 733.34,-124.36 725.98,-116.74 722.84,-122.99"/>
</g>
<!-- Node18 -->
<g id="node18" class="node">
<title>Node18</title>
<g id="a_node18"><a xlink:href="dfp200_8f90.html#a7b64c7392b45d0042d8bd7379c0761a5" target="_top" xlink:title="Evaluate the derivative of the square of the magnetic field modulus. Add spectral constraint derivati...">
<polygon fill="white" stroke="black" points="520.5,-188.5 520.5,-207.5 594.5,-207.5 594.5,-188.5 520.5,-188.5"/>
<text text-anchor="middle" x="557.5" y="-195.5" font-family="Helvetica,sans-Serif" font-size="10.00">evaluate_dbb</text>
</a>
</g>
</g>
<!-- Node1&#45;&gt;Node18 -->
<g id="edge47" class="edge">
<title>Node1&#45;&gt;Node18</title>
<path fill="none" stroke="midnightblue" d="M723.19,-143.67C686.44,-155.79 623.82,-176.45 587.3,-188.5"/>
<polygon fill="midnightblue" stroke="midnightblue" points="724.43,-146.95 732.83,-140.49 722.24,-140.3 724.43,-146.95"/>
</g>
<!-- Node2&#45;&gt;Node2 -->
<g id="edge39" class="edge">
<title>Node2&#45;&gt;Node2</title>
<path fill="none" stroke="midnightblue" d="M688.36,-114.77C687.24,-119.5 682.45,-123 674,-123 660.14,-123 656.13,-113.57 661.98,-104.76"/>
<polygon fill="midnightblue" stroke="midnightblue" points="691.71,-113.7 686.02,-104.76 684.89,-115.29 691.71,-113.7"/>
</g>
<!-- Node3 -->
<g id="node3" class="node">
<title>Node3</title>
<g id="a_node3"><a xlink:href="group__grp__global__force.html#ga38c9d3c50bd043707fefa5137c9dbf44" target="_top" xlink:title="Calculates , where &#160;and , and .">
<polygon fill="white" stroke="black" points="535.5,-132.5 535.5,-151.5 579.5,-151.5 579.5,-132.5 535.5,-132.5"/>
<text text-anchor="middle" x="557.5" y="-139.5" font-family="Helvetica,sans-Serif" font-size="10.00">dforce</text>
</a>
</g>
</g>
<!-- Node2&#45;&gt;Node3 -->
<g id="edge2" class="edge">
<title>Node2&#45;&gt;Node3</title>
<path fill="none" stroke="midnightblue" d="M641.46,-107.95C621.81,-116.01 597.07,-126.17 579.73,-133.28"/>
<polygon fill="midnightblue" stroke="midnightblue" points="643,-111.1 650.92,-104.06 640.34,-104.62 643,-111.1"/>
</g>
<!-- Node14 -->
<g id="node14" class="node">
<title>Node14</title>
<g id="a_node14"><a xlink:href="dfp200_8f90.html#a6aca59cf350d7b1941f8389d50945a43" target="_top" xlink:title="get LU Beltrami matrices">
<polygon fill="white" stroke="black" points="339,-0.5 339,-19.5 464,-19.5 464,-0.5 339,-0.5"/>
<text text-anchor="middle" x="401.5" y="-7.5" font-family="Helvetica,sans-Serif" font-size="10.00">get_lu_beltrami_matrices</text>
</a>
</g>
</g>
<!-- Node2&#45;&gt;Node14 -->
<g id="edge44" class="edge">
<title>Node2&#45;&gt;Node14</title>
<path fill="none" stroke="midnightblue" d="M640.81,-89.29C604.54,-86.41 544.8,-81.69 500,-58 479.43,-47.12 483.76,-32.28 464,-20 463.81,-19.88 463.62,-19.76 463.43,-19.65"/>
<polygon fill="midnightblue" stroke="midnightblue" points="640.58,-92.78 650.83,-90.11 641.15,-85.8 640.58,-92.78"/>
</g>
<!-- Node2&#45;&gt;Node18 -->
<g id="edge40" class="edge">
<title>Node2&#45;&gt;Node18</title>
<path fill="none" stroke="midnightblue" d="M660.72,-113.63C650.77,-130.64 635.12,-154.85 615,-170 602.76,-179.21 585.79,-184.12 573.65,-188.37"/>
<polygon fill="midnightblue" stroke="midnightblue" points="663.98,-114.99 665.91,-104.57 657.9,-111.51 663.98,-114.99"/>
</g>
<!-- Node19 -->
<g id="node19" class="node">
<title>Node19</title>
<g id="a_node19"><a xlink:href="dfp200_8f90.html#a73ddf39ecc5228201fb643779e17cd36" target="_top" xlink:title="Evaluate mu and psip derivatives and store them in dmupfdx.">
<polygon fill="white" stroke="black" points="510,-38.5 510,-57.5 605,-57.5 605,-38.5 510,-38.5"/>
<text text-anchor="middle" x="557.5" y="-45.5" font-family="Helvetica,sans-Serif" font-size="10.00">evaluate_dmupfdx</text>
</a>
</g>
</g>
<!-- Node2&#45;&gt;Node19 -->
<g id="edge42" class="edge">
<title>Node2&#45;&gt;Node19</title>
<path fill="none" stroke="midnightblue" d="M651.22,-80.63C636.06,-73.1 615.42,-64.29 597.46,-57.56"/>
<polygon fill="midnightblue" stroke="midnightblue" points="649.82,-83.85 660.31,-85.36 653.05,-77.64 649.82,-83.85"/>
</g>
<!-- Node20 -->
<g id="node20" class="node">
<title>Node20</title>
<g id="a_node20"><a xlink:href="dfp200_8f90.html#a5e56f1f4b1e6df11a9cffa6237c37469" target="_top" xlink:title="This routine evaluates the value of the magnetic field once the interface is perturbed using matrix p...">
<polygon fill="white" stroke="black" points="500,-0.5 500,-19.5 615,-19.5 615,-0.5 500,-0.5"/>
<text text-anchor="middle" x="557.5" y="-7.5" font-family="Helvetica,sans-Serif" font-size="10.00">get_perturbed_solution</text>
</a>
</g>
</g>
<!-- Node2&#45;&gt;Node20 -->
<g id="edge45" class="edge">
<title>Node2&#45;&gt;Node20</title>
<path fill="none" stroke="midnightblue" d="M664.87,-75.81C654.83,-58.43 636.44,-34.27 615,-20 614.83,-19.89 614.65,-19.77 614.48,-19.66"/>
<polygon fill="midnightblue" stroke="midnightblue" points="662.02,-77.91 669.77,-85.13 668.21,-74.65 662.02,-77.91"/>
</g>
<!-- Node3&#45;&gt;Node3 -->
<g id="edge14" class="edge">
<title>Node3&#45;&gt;Node3</title>
<path fill="none" stroke="midnightblue" d="M578.98,-161.4C577.55,-166.31 570.39,-170 557.5,-170 536.88,-170 530.92,-160.57 539.62,-151.76"/>
<polygon fill="midnightblue" stroke="midnightblue" points="582.16,-159.9 575.38,-151.76 575.6,-162.35 582.16,-159.9"/>
</g>
<!-- Node4 -->
<g id="node4" class="node">
<title>Node4</title>
<g id="a_node4"><a xlink:href="namespaceallglobal.html#a7824bc37519fe88336534ce90ab2af16" target="_top" xlink:title=" ">
<polygon fill="white" stroke="black" points="344.5,-320.5 344.5,-339.5 458.5,-339.5 458.5,-320.5 344.5,-320.5"/>
<text text-anchor="middle" x="401.5" y="-327.5" font-family="Helvetica,sans-Serif" font-size="10.00">allglobal::check_inputs</text>
</a>
</g>
</g>
<!-- Node3&#45;&gt;Node4 -->
<g id="edge3" class="edge">
<title>Node3&#45;&gt;Node4</title>
<path fill="none" stroke="midnightblue" d="M526.72,-156.03C516.99,-161.91 506.91,-169.6 500,-179 465.26,-226.28 503.45,-262.58 464,-306 458.3,-312.28 450.75,-316.93 442.91,-320.38"/>
<polygon fill="midnightblue" stroke="midnightblue" points="528.45,-159.07 535.47,-151.14 525.03,-152.96 528.45,-159.07"/>
</g>
<!-- Node7 -->
<g id="node7" class="node">
<title>Node7</title>
<g id="a_node7"><a xlink:href="xspech_8f90.html#a48f45478dc2c9f70ea8aa1c60ad06503" target="_top" xlink:title="This is the main &quot;driver&quot; for the physics part of SPEC.">
<polygon fill="white" stroke="black" points="155.5,-258.5 155.5,-277.5 193.5,-277.5 193.5,-258.5 155.5,-258.5"/>
<text text-anchor="middle" x="174.5" y="-265.5" font-family="Helvetica,sans-Serif" font-size="10.00">spec</text>
</a>
</g>
</g>
<!-- Node3&#45;&gt;Node7 -->
<g id="edge38" class="edge">
<title>Node3&#45;&gt;Node7</title>
<path fill="none" stroke="midnightblue" d="M526.42,-150.87C517.53,-156.2 508.04,-162.93 500,-170 481.53,-186.23 485.15,-199.46 464,-212 373.86,-265.44 241.42,-263.25 193.58,-265.13"/>
<polygon fill="midnightblue" stroke="midnightblue" points="528.34,-153.81 535.37,-145.87 524.93,-147.69 528.34,-153.81"/>
</g>
<!-- Node10 -->
<g id="node10" class="node">
<title>Node10</title>
<g id="a_node10"><a xlink:href="group__grp__force__driver.html#gabbc245b3884ee8d8d3e2a52f25149f78" target="_top" xlink:title="Objective to be given to the Newton solver, using only function values.">
<polygon fill="white" stroke="black" points="384,-132.5 384,-151.5 419,-151.5 419,-132.5 384,-132.5"/>
<text text-anchor="middle" x="401.5" y="-139.5" font-family="Helvetica,sans-Serif" font-size="10.00">fcn1</text>
</a>
</g>
</g>
<!-- Node3&#45;&gt;Node10 -->
<g id="edge15" class="edge">
<title>Node3&#45;&gt;Node10</title>
<path fill="none" stroke="midnightblue" d="M525.22,-142C493.12,-142 444.41,-142 419.09,-142"/>
<polygon fill="midnightblue" stroke="midnightblue" points="525.41,-145.5 535.41,-142 525.41,-138.5 525.41,-145.5"/>
</g>
<!-- Node11 -->
<g id="node11" class="node">
<title>Node11</title>
<g id="a_node11"><a xlink:href="group__grp__force__driver.html#gaec14f81fbdbedafbc4189489ec8ae178" target="_top" xlink:title="Employs Newton method to find , where &#160;and &#160;is defined in dforce() .">
<polygon fill="white" stroke="black" points="255,-142.5 255,-161.5 303,-161.5 303,-142.5 255,-142.5"/>
<text text-anchor="middle" x="279" y="-149.5" font-family="Helvetica,sans-Serif" font-size="10.00">newton</text>
</a>
</g>
</g>
<!-- Node3&#45;&gt;Node11 -->
<g id="edge33" class="edge">
<title>Node3&#45;&gt;Node11</title>
<path fill="none" stroke="midnightblue" d="M529.07,-156.18C511.09,-164.66 486.79,-174.61 464,-179 409.45,-189.51 393.28,-190.83 339,-179 323.59,-175.64 307.39,-167.88 295.87,-161.54"/>
<polygon fill="midnightblue" stroke="midnightblue" points="530.89,-159.19 538.35,-151.67 527.83,-152.89 530.89,-159.19"/>
</g>
<!-- Node12 -->
<g id="node12" class="node">
<title>Node12</title>
<g id="a_node12"><a xlink:href="group__grp__force__driver.html#ga8ccd6c7d901872702521d0a0edf95412" target="_top" xlink:title="Objective to be given to the Newton solver, using function values and derivatives.">
<polygon fill="white" stroke="black" points="29.5,-156.5 29.5,-175.5 64.5,-175.5 64.5,-156.5 29.5,-156.5"/>
<text text-anchor="middle" x="47" y="-163.5" font-family="Helvetica,sans-Serif" font-size="10.00">fcn2</text>
</a>
</g>
</g>
<!-- Node3&#45;&gt;Node12 -->
<g id="edge27" class="edge">
<title>Node3&#45;&gt;Node12</title>
<path fill="none" stroke="midnightblue" d="M525.1,-134.63C453.68,-119.16 274.1,-87.51 130,-123 103.93,-129.42 76.98,-145.76 61.39,-156.35"/>
<polygon fill="midnightblue" stroke="midnightblue" points="524.71,-138.13 535.23,-136.88 526.22,-131.3 524.71,-138.13"/>
</g>
<!-- Node3&#45;&gt;Node14 -->
<g id="edge28" class="edge">
<title>Node3&#45;&gt;Node14</title>
<path fill="none" stroke="midnightblue" d="M525.69,-133.91C516.51,-130.28 507.02,-125.14 500,-118 470.09,-87.57 495.42,-57.87 464,-29 459.8,-25.14 454.84,-22.07 449.58,-19.62"/>
<polygon fill="midnightblue" stroke="midnightblue" points="524.83,-137.32 535.42,-137.3 527.13,-130.71 524.83,-137.32"/>
</g>
<!-- Node15 -->
<g id="node15" class="node">
<title>Node15</title>
<g id="a_node15"><a xlink:href="group__grp__output.html#ga7401b50ec10c6598ee4a8112717a63ec" target="_top" xlink:title="Computes eigenvalues and eigenvectors of derivative matrix, &#160;and saves them to .ext....">
<polygon fill="white" stroke="black" points="256.5,-208.5 256.5,-227.5 301.5,-227.5 301.5,-208.5 256.5,-208.5"/>
<text text-anchor="middle" x="279" y="-215.5" font-family="Helvetica,sans-Serif" font-size="10.00">hesian</text>
</a>
</g>
</g>
<!-- Node3&#45;&gt;Node15 -->
<g id="edge30" class="edge">
<title>Node3&#45;&gt;Node15</title>
<path fill="none" stroke="midnightblue" d="M533.56,-157.16C511.1,-171.72 478.24,-192.2 464,-197 407.63,-215.99 336.64,-218.5 301.6,-218.43"/>
<polygon fill="midnightblue" stroke="midnightblue" points="535.72,-159.93 542.18,-151.53 531.89,-154.07 535.72,-159.93"/>
</g>
<!-- Node16 -->
<g id="node16" class="node">
<title>Node16</title>
<g id="a_node16"><a xlink:href="group__grp__conjugate__gradient.html#ga4d8415226e62a9fdb42b0fd0b464251e" target="_top" xlink:title="Returns the energy functional and it&#39;s derivatives with respect to geometry.">
<polygon fill="white" stroke="black" points="377.5,-38.5 377.5,-57.5 425.5,-57.5 425.5,-38.5 377.5,-38.5"/>
<text text-anchor="middle" x="401.5" y="-45.5" font-family="Helvetica,sans-Serif" font-size="10.00">pc00ab</text>
</a>
</g>
</g>
<!-- Node3&#45;&gt;Node16 -->
<g id="edge34" class="edge">
<title>Node3&#45;&gt;Node16</title>
<path fill="none" stroke="midnightblue" d="M526.07,-130.78C517.42,-127.14 508.14,-122.79 500,-118 482.53,-107.73 480.38,-101.94 464,-90 448.23,-78.5 429.66,-65.95 417.09,-57.59"/>
<polygon fill="midnightblue" stroke="midnightblue" points="524.9,-134.08 535.48,-134.57 527.51,-127.58 524.9,-134.08"/>
</g>
<!-- Node5 -->
<g id="node5" class="node">
<title>Node5</title>
<g id="a_node5"><a xlink:href="xspech_8f90.html#a9fdc71dffd7c61ee4588a3f80d3ab9ce" target="_top" xlink:title="Main subroutine of SPEC.">
<polygon fill="white" stroke="black" points="255.5,-320.5 255.5,-339.5 302.5,-339.5 302.5,-320.5 255.5,-320.5"/>
<text text-anchor="middle" x="279" y="-327.5" font-family="Helvetica,sans-Serif" font-size="10.00">xspech</text>
</a>
</g>
</g>
<!-- Node4&#45;&gt;Node5 -->
<g id="edge4" class="edge">
<title>Node4&#45;&gt;Node5</title>
<path fill="none" stroke="midnightblue" d="M334.45,-330C323.06,-330 311.95,-330 302.77,-330"/>
<polygon fill="midnightblue" stroke="midnightblue" points="334.48,-333.5 344.48,-330 334.48,-326.5 334.48,-333.5"/>
</g>
<!-- Node5&#45;&gt;Node5 -->
<g id="edge13" class="edge">
<title>Node5&#45;&gt;Node5</title>
<path fill="none" stroke="midnightblue" d="M298.26,-349.4C296.97,-354.31 290.55,-358 279,-358 260.52,-358 255.17,-348.57 262.97,-339.76"/>
<polygon fill="midnightblue" stroke="midnightblue" points="301.52,-348.13 295.03,-339.76 294.89,-350.35 301.52,-348.13"/>
</g>
<!-- Node6 -->
<g id="node6" class="node">
<title>Node6</title>
<g id="a_node6"><a xlink:href="xspech_8f90.html#a1451823a7b97101a797de616250752c1" target="_top" xlink:title="Final diagnostics.">
<polygon fill="white" stroke="black" points="130,-372.5 130,-391.5 219,-391.5 219,-372.5 130,-372.5"/>
<text text-anchor="middle" x="174.5" y="-379.5" font-family="Helvetica,sans-Serif" font-size="10.00">final_diagnostics</text>
</a>
</g>
</g>
<!-- Node5&#45;&gt;Node6 -->
<g id="edge5" class="edge">
<title>Node5&#45;&gt;Node6</title>
<path fill="none" stroke="midnightblue" d="M245.91,-339.97C225.34,-349.42 199.97,-362.96 185.99,-372.39"/>
<polygon fill="midnightblue" stroke="midnightblue" points="247.53,-343.08 255.25,-335.82 244.69,-336.68 247.53,-343.08"/>
</g>
<!-- Node5&#45;&gt;Node7 -->
<g id="edge7" class="edge">
<title>Node5&#45;&gt;Node7</title>
<path fill="none" stroke="midnightblue" d="M265.88,-312.98C254.31,-301.65 236.15,-287.84 219,-278 210.99,-273.41 201.67,-269.2 193.71,-266.67"/>
<polygon fill="midnightblue" stroke="midnightblue" points="263.36,-315.42 272.74,-320.35 268.48,-310.65 263.36,-315.42"/>
</g>
<!-- Node9 -->
<g id="node9" class="node">
<title>Node9</title>
<g id="a_node9"><a xlink:href="xspech_8f90.html#a95271e8805067f801b5d4e524d6901d4" target="_top" xlink:title="Main program of SPEC.">
<polygon fill="white" stroke="black" points="142.5,-296.5 142.5,-315.5 206.5,-315.5 206.5,-296.5 142.5,-296.5"/>
<text text-anchor="middle" x="174.5" y="-303.5" font-family="Helvetica,sans-Serif" font-size="10.00">spec_main</text>
</a>
</g>
</g>
<!-- Node5&#45;&gt;Node9 -->
<g id="edge12" class="edge">
<title>Node5&#45;&gt;Node9</title>
<path fill="none" stroke="midnightblue" d="M245.34,-322.35C232.98,-319.46 218.96,-316.18 206.74,-313.31"/>
<polygon fill="midnightblue" stroke="midnightblue" points="244.72,-325.8 255.25,-324.67 246.31,-318.99 244.72,-325.8"/>
</g>
<!-- Node6&#45;&gt;Node5 -->
<g id="edge6" class="edge">
<title>Node6&#45;&gt;Node5</title>
<path fill="none" stroke="midnightblue" d="M215.88,-368.13C234.56,-359.13 255.25,-347.86 267.42,-339.68"/>
<polygon fill="midnightblue" stroke="midnightblue" points="214.2,-365.05 206.64,-372.47 217.18,-371.39 214.2,-365.05"/>
</g>
<!-- Node7&#45;&gt;Node3 -->
<g id="edge8" class="edge">
<title>Node7&#45;&gt;Node3</title>
<path fill="none" stroke="midnightblue" d="M203.51,-275.02C257.81,-281.3 379.49,-280.1 464,-230 485.15,-217.46 481.53,-204.23 500,-188 516.03,-173.91 537.82,-161.16 549.08,-151.72"/>
<polygon fill="midnightblue" stroke="midnightblue" points="203.96,-271.55 193.58,-273.68 203.02,-278.49 203.96,-271.55"/>
</g>
<!-- Node7&#45;&gt;Node5 -->
<g id="edge11" class="edge">
<title>Node7&#45;&gt;Node5</title>
<path fill="none" stroke="midnightblue" d="M192.73,-282.66C200.9,-286.85 210.67,-291.22 219,-296 231.86,-303.38 245.29,-312.99 256.08,-320.4"/>
<polygon fill="midnightblue" stroke="midnightblue" points="194.21,-279.47 183.77,-277.63 190.78,-285.58 194.21,-279.47"/>
</g>
<!-- Node8 -->
<g id="node8" class="node">
<title>Node8</title>
<g id="a_node8"><a xlink:href="group__grp__output.html#ga0f962c09cd5d5eba99f1cba043cb3898" target="_top" xlink:title="Initialize the interface to the HDF5 library and open the output file.">
<polygon fill="white" stroke="black" points="0,-296.5 0,-315.5 94,-315.5 94,-296.5 0,-296.5"/>
<text text-anchor="middle" x="47" y="-303.5" font-family="Helvetica,sans-Serif" font-size="10.00">sphdf5::init_outfile</text>
</a>
</g>
</g>
<!-- Node7&#45;&gt;Node8 -->
<g id="edge9" class="edge">
<title>Node7&#45;&gt;Node8</title>
<path fill="none" stroke="midnightblue" d="M145.67,-276.43C126.05,-282.37 99.76,-290.33 79.39,-296.49"/>
<polygon fill="midnightblue" stroke="midnightblue" points="146.69,-279.77 155.25,-273.53 144.67,-273.07 146.69,-279.77"/>
</g>
<!-- Node8&#45;&gt;Node5 -->
<g id="edge10" class="edge">
<title>Node8&#45;&gt;Node5</title>
<path fill="none" stroke="midnightblue" d="M92.33,-317.92C104.46,-320.73 117.66,-323.38 130,-325 174.1,-330.8 226.18,-331.04 255.32,-330.59"/>
<polygon fill="midnightblue" stroke="midnightblue" points="92.98,-314.48 82.44,-315.55 91.34,-321.29 92.98,-314.48"/>
</g>
<!-- Node10&#45;&gt;Node10 -->
<g id="edge16" class="edge">
<title>Node10&#45;&gt;Node10</title>
<path fill="none" stroke="midnightblue" d="M424.37,-159.14C424.68,-165.14 417.06,-170 401.5,-170 378.86,-170 373.03,-159.72 383.99,-150.6"/>
<polygon fill="midnightblue" stroke="midnightblue" points="427.29,-157.21 419.01,-150.6 421.36,-160.93 427.29,-157.21"/>
</g>
<!-- Node10&#45;&gt;Node11 -->
<g id="edge17" class="edge">
<title>Node10&#45;&gt;Node11</title>
<path fill="none" stroke="midnightblue" d="M373.51,-138.5C352.38,-138.82 323.31,-141.32 303.22,-144.62"/>
<polygon fill="midnightblue" stroke="midnightblue" points="373.73,-142 383.74,-138.55 373.76,-135 373.73,-142"/>
</g>
<!-- Node11&#45;&gt;Node7 -->
<g id="edge23" class="edge">
<title>Node11&#45;&gt;Node7</title>
<path fill="none" stroke="midnightblue" d="M262.55,-169.49C240.6,-194.33 201.15,-238.97 183.93,-258.46"/>
<polygon fill="midnightblue" stroke="midnightblue" points="265.26,-171.7 269.26,-161.89 260.02,-167.07 265.26,-171.7"/>
</g>
<!-- Node11&#45;&gt;Node10 -->
<g id="edge18" class="edge">
<title>Node11&#45;&gt;Node10</title>
<path fill="none" stroke="midnightblue" d="M313.52,-155.34C336.37,-154.59 365.66,-151.74 383.74,-148.24"/>
<polygon fill="midnightblue" stroke="midnightblue" points="313.15,-151.85 303.22,-155.53 313.28,-158.84 313.15,-151.85"/>
</g>
<!-- Node11&#45;&gt;Node11 -->
<g id="edge22" class="edge">
<title>Node11&#45;&gt;Node11</title>
<path fill="none" stroke="midnightblue" d="M298.26,-171.4C296.97,-176.31 290.55,-180 279,-180 260.52,-180 255.17,-170.57 262.97,-161.76"/>
<polygon fill="midnightblue" stroke="midnightblue" points="301.52,-170.13 295.03,-161.76 294.89,-172.35 301.52,-170.13"/>
</g>
<!-- Node11&#45;&gt;Node12 -->
<g id="edge19" class="edge">
<title>Node11&#45;&gt;Node12</title>
<path fill="none" stroke="midnightblue" d="M244.66,-149.1C236.3,-150.07 227.34,-151.24 219,-152 162.5,-157.12 95.12,-157.38 64.55,-160.92"/>
<polygon fill="midnightblue" stroke="midnightblue" points="245.25,-152.55 254.82,-148.02 244.51,-145.59 245.25,-152.55"/>
</g>
<!-- Node13 -->
<g id="node13" class="node">
<title>Node13</title>
<g id="a_node13"><a xlink:href="group__grp__output.html#ga382822b303cbf8c56d6f54dcb379caf2" target="_top" xlink:title="read or write force&#45;derivative matrix .ext.sp.DF">
<polygon fill="white" stroke="black" points="142,-132.5 142,-151.5 207,-151.5 207,-132.5 142,-132.5"/>
<text text-anchor="middle" x="174.5" y="-139.5" font-family="Helvetica,sans-Serif" font-size="10.00">writereadgf</text>
</a>
</g>
</g>
<!-- Node11&#45;&gt;Node13 -->
<g id="edge24" class="edge">
<title>Node11&#45;&gt;Node13</title>
<path fill="none" stroke="midnightblue" d="M244.89,-142.41C232.86,-140.7 219.29,-139.39 207.36,-138.81"/>
<polygon fill="midnightblue" stroke="midnightblue" points="244.57,-145.9 255,-144.02 245.67,-138.99 244.57,-145.9"/>
</g>
<!-- Node12&#45;&gt;Node11 -->
<g id="edge21" class="edge">
<title>Node12&#45;&gt;Node11</title>
<path fill="none" stroke="midnightblue" d="M74.51,-172.48C108.18,-175.28 168.02,-174.62 219,-170 234.89,-168.56 253.01,-165.6 264.93,-161.5"/>
<polygon fill="midnightblue" stroke="midnightblue" points="74.85,-169 64.55,-171.45 74.13,-175.96 74.85,-169"/>
</g>
<!-- Node12&#45;&gt;Node12 -->
<g id="edge20" class="edge">
<title>Node12&#45;&gt;Node12</title>
<path fill="none" stroke="midnightblue" d="M70.55,-182.53C71.46,-188.81 63.61,-194 47,-194 23.38,-194 17.47,-183.5 29.28,-174.31"/>
<polygon fill="midnightblue" stroke="midnightblue" points="73.36,-180.44 64.72,-174.31 67.65,-184.49 73.36,-180.44"/>
</g>
<!-- Node13&#45;&gt;Node11 -->
<g id="edge26" class="edge">
<title>Node13&#45;&gt;Node11</title>
<path fill="none" stroke="midnightblue" d="M217.42,-152.74C230.26,-154.27 243.91,-155.3 255,-155.5"/>
<polygon fill="midnightblue" stroke="midnightblue" points="217.74,-149.25 207.36,-151.41 216.82,-156.19 217.74,-149.25"/>
</g>
<!-- Node13&#45;&gt;Node12 -->
<g id="edge25" class="edge">
<title>Node13&#45;&gt;Node12</title>
<path fill="none" stroke="midnightblue" d="M131.96,-149.94C108.99,-154.34 81.73,-159.55 64.64,-162.82"/>
<polygon fill="midnightblue" stroke="midnightblue" points="132.67,-153.37 141.83,-148.06 131.35,-146.5 132.67,-153.37"/>
</g>
<!-- Node14&#45;&gt;Node2 -->
<g id="edge29" class="edge">
<title>Node14&#45;&gt;Node2</title>
<path fill="none" stroke="midnightblue" d="M427.21,-22.7C438.96,-26.49 452.84,-31.07 464,-38 483.76,-50.28 479.43,-65.12 500,-76 549.22,-102.03 616.47,-105.15 650.83,-101.53"/>
<polygon fill="midnightblue" stroke="midnightblue" points="428.15,-19.33 417.56,-19.54 425.97,-25.98 428.15,-19.33"/>
</g>
<!-- Node15&#45;&gt;Node7 -->
<g id="edge32" class="edge">
<title>Node15&#45;&gt;Node7</title>
<path fill="none" stroke="midnightblue" d="M248.92,-232.19C231.21,-240.83 209.12,-251.6 193.82,-259.06"/>
<polygon fill="midnightblue" stroke="midnightblue" points="250.78,-235.17 258.24,-227.64 247.71,-228.88 250.78,-235.17"/>
</g>
<!-- Node15&#45;&gt;Node15 -->
<g id="edge31" class="edge">
<title>Node15&#45;&gt;Node15</title>
<path fill="none" stroke="midnightblue" d="M298.26,-237.4C296.97,-242.31 290.55,-246 279,-246 260.52,-246 255.17,-236.57 262.97,-227.76"/>
<polygon fill="midnightblue" stroke="midnightblue" points="301.52,-236.13 295.03,-227.76 294.89,-238.35 301.52,-236.13"/>
</g>
<!-- Node16&#45;&gt;Node16 -->
<g id="edge37" class="edge">
<title>Node16&#45;&gt;Node16</title>
<path fill="none" stroke="midnightblue" d="M424.19,-67.03C422.96,-72.13 415.39,-76 401.5,-76 379.82,-76 373.55,-66.57 382.7,-57.76"/>
<polygon fill="midnightblue" stroke="midnightblue" points="427.4,-65.62 420.3,-57.76 420.94,-68.33 427.4,-65.62"/>
</g>
<!-- Node17 -->
<g id="node17" class="node">
<title>Node17</title>
<g id="a_node17"><a xlink:href="group__grp__conjugate__gradient.html#ga25a3bae2ff2ee0469b045de0d033398b" target="_top" xlink:title="Use preconditioned conjugate gradient method to find minimum of energy functional.">
<polygon fill="white" stroke="black" points="255,-38.5 255,-57.5 303,-57.5 303,-38.5 255,-38.5"/>
<text text-anchor="middle" x="279" y="-45.5" font-family="Helvetica,sans-Serif" font-size="10.00">pc00aa</text>
</a>
</g>
</g>
<!-- Node16&#45;&gt;Node17 -->
<g id="edge35" class="edge">
<title>Node16&#45;&gt;Node17</title>
<path fill="none" stroke="midnightblue" d="M367.16,-48C346.81,-48 321.31,-48 303.16,-48"/>
<polygon fill="midnightblue" stroke="midnightblue" points="367.27,-51.5 377.27,-48 367.27,-44.5 367.27,-51.5"/>
</g>
<!-- Node17&#45;&gt;Node17 -->
<g id="edge36" class="edge">
<title>Node17&#45;&gt;Node17</title>
<path fill="none" stroke="midnightblue" d="M298.26,-67.4C296.97,-72.31 290.55,-76 279,-76 260.52,-76 255.17,-66.57 262.97,-57.76"/>
<polygon fill="midnightblue" stroke="midnightblue" points="301.52,-66.13 295.03,-57.76 294.89,-68.35 301.52,-66.13"/>
</g>
<!-- Node18&#45;&gt;Node2 -->
<g id="edge41" class="edge">
<title>Node18&#45;&gt;Node2</title>
<path fill="none" stroke="midnightblue" d="M603.93,-194.68C607.85,-192.78 611.61,-190.56 615,-188 644.45,-165.83 664.33,-124.23 670.75,-104.59"/>
<polygon fill="midnightblue" stroke="midnightblue" points="602.51,-191.48 594.59,-198.51 605.17,-197.95 602.51,-191.48"/>
</g>
<!-- Node19&#45;&gt;Node2 -->
<g id="edge43" class="edge">
<title>Node19&#45;&gt;Node2</title>
<path fill="none" stroke="midnightblue" d="M580.02,-62.24C600.28,-72.33 630.48,-84.74 650.92,-91.4"/>
<polygon fill="midnightblue" stroke="midnightblue" points="581.44,-59.04 570.96,-57.51 578.2,-65.24 581.44,-59.04"/>
</g>
<!-- Node20&#45;&gt;Node2 -->
<g id="edge46" class="edge">
<title>Node20&#45;&gt;Node2</title>
<path fill="none" stroke="midnightblue" d="M581.97,-23.11C592.64,-26.89 605.08,-31.4 615,-38 634.56,-51.01 651.57,-72.25 662.03,-85.15"/>
<polygon fill="midnightblue" stroke="midnightblue" points="583.01,-19.76 572.41,-19.66 580.63,-26.35 583.01,-19.76"/>
</g>
</g>
</svg>
