<?xml version="1.0" encoding="UTF-8" standalone="no"?>
<!DOCTYPE svg PUBLIC "-//W3C//DTD SVG 1.1//EN"
 "http://www.w3.org/Graphics/SVG/1.1/DTD/svg11.dtd">
<!-- Generated by graphviz version 2.49.0 (0)
 -->
<!-- Title: packxi Pages: 1 -->
<svg width="295pt" height="122pt"
 viewBox="0.00 0.00 295.00 122.00" xmlns="http://www.w3.org/2000/svg" xmlns:xlink="http://www.w3.org/1999/xlink">
<g id="graph0" class="graph" transform="scale(1 1) rotate(0) translate(4 118)">
<title>packxi</title>
<polygon fill="white" stroke="transparent" points="-4,4 -4,-118 291,-118 291,4 -4,4"/>
<!-- Node1 -->
<g id="node1" class="node">
<title>Node1</title>
<g id="a_node1"><a xlink:title="Packs, and unpacks, geometrical degrees of freedom; and sets coordinate axis.">
<polygon fill="#bfbfbf" stroke="black" points="0,-38.5 0,-57.5 44,-57.5 44,-38.5 0,-38.5"/>
<text text-anchor="middle" x="22" y="-45.5" font-family="Helvetica,sans-Serif" font-size="10.00">packxi</text>
</a>
</g>
</g>
<!-- Node1&#45;&gt;Node1 -->
<g id="edge1" class="edge">
<title>Node1&#45;&gt;Node1</title>
<path fill="none" stroke="midnightblue" d="M9.98,-57.76C4.13,-66.57 8.14,-76 22,-76 30.45,-76 35.24,-72.5 36.36,-67.77"/>
<polygon fill="midnightblue" stroke="midnightblue" points="39.71,-66.7 34.02,-57.76 32.89,-68.29 39.71,-66.7"/>
</g>
<!-- Node2 -->
<g id="node2" class="node">
<title>Node2</title>
<g id="a_node2"><a xlink:href="group__grp__coord__axis.html#ga564281be4d9806d0688a717314ad748f" target="_top" xlink:title="The coordinate axis is assigned via a poloidal average over an arbitrary surface.">
<polygon fill="white" stroke="black" points="80,-38.5 80,-57.5 121,-57.5 121,-38.5 80,-38.5"/>
<text text-anchor="middle" x="100.5" y="-45.5" font-family="Helvetica,sans-Serif" font-size="10.00">rzaxis</text>
</a>
</g>
</g>
<!-- Node1&#45;&gt;Node2 -->
<g id="edge2" class="edge">
<title>Node1&#45;&gt;Node2</title>
<path fill="none" stroke="midnightblue" d="M44.31,-48C52.14,-48 61.16,-48 69.61,-48"/>
<polygon fill="midnightblue" stroke="midnightblue" points="69.88,-51.5 79.88,-48 69.88,-44.5 69.88,-51.5"/>
</g>
<!-- Node2&#45;&gt;Node2 -->
<g id="edge10" class="edge">
<title>Node2&#45;&gt;Node2</title>
<path fill="none" stroke="midnightblue" d="M88.48,-57.76C82.63,-66.57 86.64,-76 100.5,-76 108.95,-76 113.74,-72.5 114.86,-67.77"/>
<polygon fill="midnightblue" stroke="midnightblue" points="118.21,-66.7 112.52,-57.76 111.39,-68.29 118.21,-66.7"/>
</g>
<!-- Node3 -->
<g id="node3" class="node">
<title>Node3</title>
<g id="a_node3"><a xlink:href="group__grp__geometry.html#gaaca20aa60eaf39055f3c9d5c02a24ac2" target="_top" xlink:title="Calculates coordinates, , and metrics, using FFTs.">
<polygon fill="white" stroke="black" points="157,-38.5 157,-57.5 203,-57.5 203,-38.5 157,-38.5"/>
<text text-anchor="middle" x="180" y="-45.5" font-family="Helvetica,sans-Serif" font-size="10.00">coords</text>
</a>
</g>
</g>
<!-- Node2&#45;&gt;Node3 -->
<g id="edge3" class="edge">
<title>Node2&#45;&gt;Node3</title>
<path fill="none" stroke="midnightblue" d="M121.06,-48C128.84,-48 137.99,-48 146.71,-48"/>
<polygon fill="midnightblue" stroke="midnightblue" points="146.99,-51.5 156.99,-48 146.99,-44.5 146.99,-51.5"/>
</g>
<!-- Node4 -->
<g id="node4" class="node">
<title>Node4</title>
<g id="a_node4"><a xlink:href="group__grp__numerics.html#ga1fd52accb0646f535f9bcc46cf5a68f3" target="_top" xlink:title="Inverse Fourier transform (fftw wrapper)">
<polygon fill="white" stroke="black" points="244,-94.5 244,-113.5 282,-113.5 282,-94.5 244,-94.5"/>
<text text-anchor="middle" x="263" y="-101.5" font-family="Helvetica,sans-Serif" font-size="10.00">invfft</text>
</a>
</g>
</g>
<!-- Node2&#45;&gt;Node4 -->
<g id="edge9" class="edge">
<title>Node2&#45;&gt;Node4</title>
<path fill="none" stroke="midnightblue" d="M113.03,-57.76C123.74,-66.29 140.46,-78.33 157,-85 181.84,-95.02 212.11,-99.78 233.76,-102.03"/>
<polygon fill="midnightblue" stroke="midnightblue" points="233.64,-105.53 243.92,-102.97 234.28,-98.56 233.64,-105.53"/>
</g>
<!-- Node6 -->
<g id="node6" class="node">
<title>Node6</title>
<g id="a_node6"><a xlink:href="group__grp__numerics.html#ga041138109a57e651c57117bb4180409e" target="_top" xlink:title="Forward Fourier transform (fftw wrapper)">
<polygon fill="white" stroke="black" points="165.5,-0.5 165.5,-19.5 194.5,-19.5 194.5,-0.5 165.5,-0.5"/>
<text text-anchor="middle" x="180" y="-7.5" font-family="Helvetica,sans-Serif" font-size="10.00">tfft</text>
</a>
</g>
</g>
<!-- Node2&#45;&gt;Node6 -->
<g id="edge11" class="edge">
<title>Node2&#45;&gt;Node6</title>
<path fill="none" stroke="midnightblue" d="M121.06,-38.41C131.74,-33.17 145.02,-26.66 156.18,-21.19"/>
<polygon fill="midnightblue" stroke="midnightblue" points="157.87,-24.26 165.31,-16.71 154.79,-17.97 157.87,-24.26"/>
</g>
<!-- Node3&#45;&gt;Node3 -->
<g id="edge4" class="edge">
<title>Node3&#45;&gt;Node3</title>
<path fill="none" stroke="midnightblue" d="M167.98,-57.76C162.13,-66.57 166.14,-76 180,-76 188.45,-76 193.24,-72.5 194.36,-67.77"/>
<polygon fill="midnightblue" stroke="midnightblue" points="197.71,-66.7 192.02,-57.76 190.89,-68.29 197.71,-66.7"/>
</g>
<!-- Node3&#45;&gt;Node4 -->
<g id="edge5" class="edge">
<title>Node3&#45;&gt;Node4</title>
<path fill="none" stroke="midnightblue" d="M195.11,-57.75C207.42,-66.27 225.5,-78.76 239.75,-88.62"/>
<polygon fill="midnightblue" stroke="midnightblue" points="237.84,-91.55 248.05,-94.36 241.82,-85.79 237.84,-91.55"/>
</g>
<!-- Node5 -->
<g id="node5" class="node">
<title>Node5</title>
<g id="a_node5"><a xlink:href="group__grp__volume.html#gae4c62d20b8fef07f4471b5b0889ab005" target="_top" xlink:title="Computes volume of each region; and, if required, the derivatives of the volume with respect to the i...">
<polygon fill="white" stroke="black" points="239,-38.5 239,-57.5 287,-57.5 287,-38.5 239,-38.5"/>
<text text-anchor="middle" x="263" y="-45.5" font-family="Helvetica,sans-Serif" font-size="10.00">volume</text>
</a>
</g>
</g>
<!-- Node3&#45;&gt;Node5 -->
<g id="edge6" class="edge">
<title>Node3&#45;&gt;Node5</title>
<path fill="none" stroke="midnightblue" d="M203.13,-41.91C210.99,-41.3 220.02,-41.12 228.61,-41.34"/>
<polygon fill="midnightblue" stroke="midnightblue" points="228.61,-44.85 238.76,-41.83 228.94,-37.85 228.61,-44.85"/>
</g>
<!-- Node5&#45;&gt;Node3 -->
<g id="edge7" class="edge">
<title>Node5&#45;&gt;Node3</title>
<path fill="none" stroke="midnightblue" d="M238.76,-54.17C230.8,-54.74 221.74,-54.89 213.19,-54.62"/>
<polygon fill="midnightblue" stroke="midnightblue" points="213.3,-51.12 203.13,-54.09 212.94,-58.11 213.3,-51.12"/>
</g>
<!-- Node5&#45;&gt;Node5 -->
<g id="edge8" class="edge">
<title>Node5&#45;&gt;Node5</title>
<path fill="none" stroke="midnightblue" d="M250.36,-57.76C244.21,-66.57 248.43,-76 263,-76 271.88,-76 276.91,-72.5 278.1,-67.77"/>
<polygon fill="midnightblue" stroke="midnightblue" points="281.43,-66.63 275.64,-57.76 274.63,-68.3 281.43,-66.63"/>
</g>
</g>
</svg>
