<?xml version="1.0" encoding="UTF-8" standalone="no"?>
<!DOCTYPE svg PUBLIC "-//W3C//DTD SVG 1.1//EN"
 "http://www.w3.org/Graphics/SVG/1.1/DTD/svg11.dtd">
<!-- Generated by graphviz version 2.44.0 ()
 -->
<!-- Title: preset Pages: 1 -->
<svg width="388pt" height="313pt"
 viewBox="0.00 0.00 388.00 313.00" xmlns="http://www.w3.org/2000/svg" xmlns:xlink="http://www.w3.org/1999/xlink">
<g id="graph0" class="graph" transform="scale(1 1) rotate(0) translate(4 309)">
<title>preset</title>
<polygon fill="white" stroke="transparent" points="-4,4 -4,-309 384,-309 384,4 -4,4"/>
<!-- Node1 -->
<g id="node1" class="node">
<title>Node1</title>
<g id="a_node1"><a xlink:title="Allocates and initializes internal arrays.">
<polygon fill="#bfbfbf" stroke="black" points="0,-152.5 0,-171.5 44,-171.5 44,-152.5 0,-152.5"/>
<text text-anchor="middle" x="22" y="-159.5" font-family="Helvetica,sans-Serif" font-size="10.00">preset</text>
</a>
</g>
</g>
<!-- Node2 -->
<g id="node2" class="node">
<title>Node2</title>
<g id="a_node2"><a xlink:href="group__grp__free-boundary.html#gac0a2cc2241947b27241bb8ef75c5e0ed" target="_top" xlink:title="Computes &#160;on the computational boundary, .">
<polygon fill="white" stroke="black" points="98.5,-285.5 98.5,-304.5 144.5,-304.5 144.5,-285.5 98.5,-285.5"/>
<text text-anchor="middle" x="121.5" y="-292.5" font-family="Helvetica,sans-Serif" font-size="10.00">bnorml</text>
</a>
</g>
</g>
<!-- Node1&#45;&gt;Node2 -->
<g id="edge1" class="edge">
<title>Node1&#45;&gt;Node2</title>
<path fill="none" stroke="midnightblue" d="M25.97,-171.53C32.72,-191.89 50.91,-240.32 80,-271 83.12,-274.29 86.79,-277.28 90.63,-279.95"/>
<polygon fill="midnightblue" stroke="midnightblue" points="88.8,-282.94 99.14,-285.27 92.51,-277 88.8,-282.94"/>
</g>
<!-- Node5 -->
<g id="node5" class="node">
<title>Node5</title>
<g id="a_node5"><a xlink:href="group__grp__numerics.html#ga041138109a57e651c57117bb4180409e" target="_top" xlink:title="Forward Fourier transform (fftw wrapper)">
<polygon fill="white" stroke="black" points="232,-247.5 232,-266.5 261,-266.5 261,-247.5 232,-247.5"/>
<text text-anchor="middle" x="246.5" y="-254.5" font-family="Helvetica,sans-Serif" font-size="10.00">tfft</text>
</a>
</g>
</g>
<!-- Node1&#45;&gt;Node5 -->
<g id="edge17" class="edge">
<title>Node1&#45;&gt;Node5</title>
<path fill="none" stroke="midnightblue" d="M29.43,-171.84C38.84,-185.39 57.68,-209.52 80,-222 125.6,-247.49 187.74,-254.46 221.42,-256.33"/>
<polygon fill="midnightblue" stroke="midnightblue" points="221.53,-259.84 231.68,-256.79 221.85,-252.85 221.53,-259.84"/>
</g>
<!-- Node6 -->
<g id="node6" class="node">
<title>Node6</title>
<g id="a_node6"><a xlink:href="group__grp__geometry.html#gaaca20aa60eaf39055f3c9d5c02a24ac2" target="_top" xlink:title="Calculates coordinates, , and metrics, using FFTs.">
<polygon fill="white" stroke="black" points="98.5,-171.5 98.5,-190.5 144.5,-190.5 144.5,-171.5 98.5,-171.5"/>
<text text-anchor="middle" x="121.5" y="-178.5" font-family="Helvetica,sans-Serif" font-size="10.00">coords</text>
</a>
</g>
</g>
<!-- Node1&#45;&gt;Node6 -->
<g id="edge6" class="edge">
<title>Node1&#45;&gt;Node6</title>
<path fill="none" stroke="midnightblue" d="M44.16,-166.12C57.05,-168.63 73.77,-171.89 88.28,-174.72"/>
<polygon fill="midnightblue" stroke="midnightblue" points="87.89,-178.21 98.37,-176.69 89.22,-171.34 87.89,-178.21"/>
</g>
<!-- Node7 -->
<g id="node7" class="node">
<title>Node7</title>
<g id="a_node7"><a xlink:href="group__grp__numerics.html#ga1fd52accb0646f535f9bcc46cf5a68f3" target="_top" xlink:title="Inverse Fourier transform (fftw wrapper)">
<polygon fill="white" stroke="black" points="227.5,-209.5 227.5,-228.5 265.5,-228.5 265.5,-209.5 227.5,-209.5"/>
<text text-anchor="middle" x="246.5" y="-216.5" font-family="Helvetica,sans-Serif" font-size="10.00">invfft</text>
</a>
</g>
</g>
<!-- Node1&#45;&gt;Node7 -->
<g id="edge11" class="edge">
<title>Node1&#45;&gt;Node7</title>
<path fill="none" stroke="midnightblue" d="M33.91,-171.6C44.78,-180.58 62.36,-193.54 80,-200 126.07,-216.88 183.76,-219.73 217.43,-219.73"/>
<polygon fill="midnightblue" stroke="midnightblue" points="217.51,-223.23 227.48,-219.65 217.45,-216.23 217.51,-223.23"/>
</g>
<!-- Node9 -->
<g id="node9" class="node">
<title>Node9</title>
<g id="a_node9"><a xlink:href="group__grp__numerics.html#ga425e8f1cbf214a3231ab6c874d8fe4be" target="_top" xlink:title="Gauss&#45;Legendre weights and abscissae.">
<polygon fill="white" stroke="black" points="99,-133.5 99,-152.5 144,-152.5 144,-133.5 99,-133.5"/>
<text text-anchor="middle" x="121.5" y="-140.5" font-family="Helvetica,sans-Serif" font-size="10.00">gauleg</text>
</a>
</g>
</g>
<!-- Node1&#45;&gt;Node9 -->
<g id="edge10" class="edge">
<title>Node1&#45;&gt;Node9</title>
<path fill="none" stroke="midnightblue" d="M44.16,-157.88C57.14,-155.35 74.01,-152.06 88.59,-149.22"/>
<polygon fill="midnightblue" stroke="midnightblue" points="89.56,-152.59 98.71,-147.25 88.23,-145.72 89.56,-152.59"/>
</g>
<!-- Node10 -->
<g id="node10" class="node">
<title>Node10</title>
<g id="a_node10"><a xlink:href="group__grp__build__matrices.html#ga1c52bb6dbffdb432550aae12b096080f" target="_top" xlink:title="Constructs energy and helicity matrices that represent the Beltrami linear system....">
<polygon fill="white" stroke="black" points="100,-95.5 100,-114.5 143,-114.5 143,-95.5 100,-95.5"/>
<text text-anchor="middle" x="121.5" y="-102.5" font-family="Helvetica,sans-Serif" font-size="10.00">matrix</text>
</a>
</g>
</g>
<!-- Node1&#45;&gt;Node10 -->
<g id="edge12" class="edge">
<title>Node1&#45;&gt;Node10</title>
<path fill="none" stroke="midnightblue" d="M36.23,-152.36C47.56,-144.3 64.46,-132.76 80,-124 83.31,-122.14 86.83,-120.29 90.36,-118.53"/>
<polygon fill="midnightblue" stroke="midnightblue" points="92.1,-121.57 99.6,-114.08 89.07,-115.26 92.1,-121.57"/>
</g>
<!-- Node11 -->
<g id="node11" class="node">
<title>Node11</title>
<g id="a_node11"><a xlink:href="group__grp__output.html#ga08d6a254dbc3d9d40ff1cf0bdfdf2148" target="_top" xlink:title="Writes vector potential to .ext.sp.A .">
<polygon fill="white" stroke="black" points="98.5,-57.5 98.5,-76.5 144.5,-76.5 144.5,-57.5 98.5,-57.5"/>
<text text-anchor="middle" x="121.5" y="-64.5" font-family="Helvetica,sans-Serif" font-size="10.00">ra00aa</text>
</a>
</g>
</g>
<!-- Node1&#45;&gt;Node11 -->
<g id="edge13" class="edge">
<title>Node1&#45;&gt;Node11</title>
<path fill="none" stroke="midnightblue" d="M28.12,-152.4C36.9,-136.71 56.2,-105.36 80,-86 82.88,-83.66 86.1,-81.53 89.43,-79.61"/>
<polygon fill="midnightblue" stroke="midnightblue" points="91.03,-82.72 98.34,-75.04 87.84,-76.49 91.03,-82.72"/>
</g>
<!-- Node12 -->
<g id="node12" class="node">
<title>Node12</title>
<g id="a_node12"><a xlink:href="namespaceallglobal.html#ad32ae6194892fe7d876622a6455189e2" target="_top" xlink:title="The master node reads the input namelist and sets various internal variables. The relevant quantities...">
<polygon fill="white" stroke="black" points="80,-19.5 80,-38.5 163,-38.5 163,-19.5 80,-19.5"/>
<text text-anchor="middle" x="121.5" y="-26.5" font-family="Helvetica,sans-Serif" font-size="10.00">allglobal::readin</text>
</a>
</g>
</g>
<!-- Node1&#45;&gt;Node12 -->
<g id="edge14" class="edge">
<title>Node1&#45;&gt;Node12</title>
<path fill="none" stroke="midnightblue" d="M25.44,-152.46C31.35,-131.1 48.32,-78.9 80,-48 81.46,-46.58 83.05,-45.25 84.72,-44"/>
<polygon fill="midnightblue" stroke="midnightblue" points="86.93,-46.75 93.59,-38.5 83.25,-40.79 86.93,-46.75"/>
</g>
<!-- Node3 -->
<g id="node3" class="node">
<title>Node3</title>
<g id="a_node3"><a xlink:href="group__grp__free-boundary.html#ga180576a10002ebf3840fce98d56316bb" target="_top" xlink:title="Constructs the field created by the plasma currents, at an arbitrary, external location using virtual...">
<polygon fill="white" stroke="black" points="224,-285.5 224,-304.5 269,-304.5 269,-285.5 224,-285.5"/>
<text text-anchor="middle" x="246.5" y="-292.5" font-family="Helvetica,sans-Serif" font-size="10.00">casing</text>
</a>
</g>
</g>
<!-- Node2&#45;&gt;Node3 -->
<g id="edge2" class="edge">
<title>Node2&#45;&gt;Node3</title>
<path fill="none" stroke="midnightblue" d="M144.77,-295C164.05,-295 192.15,-295 213.78,-295"/>
<polygon fill="midnightblue" stroke="midnightblue" points="213.8,-298.5 223.8,-295 213.8,-291.5 213.8,-298.5"/>
</g>
<!-- Node2&#45;&gt;Node5 -->
<g id="edge5" class="edge">
<title>Node2&#45;&gt;Node5</title>
<path fill="none" stroke="midnightblue" d="M144.77,-288.12C166.65,-281.36 199.88,-271.09 222.13,-264.22"/>
<polygon fill="midnightblue" stroke="midnightblue" points="223.26,-267.53 231.78,-261.24 221.19,-260.85 223.26,-267.53"/>
</g>
<!-- Node4 -->
<g id="node4" class="node">
<title>Node4</title>
<g id="a_node4"><a xlink:href="group__grp__free-boundary.html#ga281c12a5de84fddd3db4383b0df8627f" target="_top" xlink:title="Differential virtual casing integrand.">
<polygon fill="white" stroke="black" points="330,-285.5 330,-304.5 380,-304.5 380,-285.5 330,-285.5"/>
<text text-anchor="middle" x="355" y="-292.5" font-family="Helvetica,sans-Serif" font-size="10.00">dvcfield</text>
</a>
</g>
</g>
<!-- Node3&#45;&gt;Node4 -->
<g id="edge3" class="edge">
<title>Node3&#45;&gt;Node4</title>
<path fill="none" stroke="midnightblue" d="M269.05,-289.45C283.51,-288.2 302.87,-287.92 319.46,-288.63"/>
<polygon fill="midnightblue" stroke="midnightblue" points="319.69,-292.15 329.88,-289.24 320.1,-285.17 319.69,-292.15"/>
</g>
<!-- Node4&#45;&gt;Node3 -->
<g id="edge4" class="edge">
<title>Node4&#45;&gt;Node3</title>
<path fill="none" stroke="midnightblue" d="M329.88,-300.76C314.88,-301.9 295.42,-302.06 279.18,-301.23"/>
<polygon fill="midnightblue" stroke="midnightblue" points="279.26,-297.73 269.05,-300.55 278.79,-304.71 279.26,-297.73"/>
</g>
<!-- Node6&#45;&gt;Node7 -->
<g id="edge7" class="edge">
<title>Node6&#45;&gt;Node7</title>
<path fill="none" stroke="midnightblue" d="M144.77,-187.88C165.21,-194.2 195.57,-203.58 217.62,-210.39"/>
<polygon fill="midnightblue" stroke="midnightblue" points="216.8,-213.8 227.39,-213.41 218.87,-207.11 216.8,-213.8"/>
</g>
<!-- Node8 -->
<g id="node8" class="node">
<title>Node8</title>
<g id="a_node8"><a xlink:href="group__grp__volume.html#gae4c62d20b8fef07f4471b5b0889ab005" target="_top" xlink:title="Computes volume of each region; and, if required, the derivatives of the volume with respect to the i...">
<polygon fill="white" stroke="black" points="222.5,-171.5 222.5,-190.5 270.5,-190.5 270.5,-171.5 222.5,-171.5"/>
<text text-anchor="middle" x="246.5" y="-178.5" font-family="Helvetica,sans-Serif" font-size="10.00">volume</text>
</a>
</g>
</g>
<!-- Node6&#45;&gt;Node8 -->
<g id="edge8" class="edge">
<title>Node6&#45;&gt;Node8</title>
<path fill="none" stroke="midnightblue" d="M144.77,-175.66C163.49,-174.08 190.52,-173.83 211.87,-174.91"/>
<polygon fill="midnightblue" stroke="midnightblue" points="211.93,-178.42 222.14,-175.57 212.38,-171.43 211.93,-178.42"/>
</g>
<!-- Node8&#45;&gt;Node6 -->
<g id="edge9" class="edge">
<title>Node8&#45;&gt;Node6</title>
<path fill="none" stroke="midnightblue" d="M222.14,-186.43C203.11,-187.96 176.03,-188.16 154.9,-187.03"/>
<polygon fill="midnightblue" stroke="midnightblue" points="154.99,-183.53 144.77,-186.34 154.51,-190.51 154.99,-183.53"/>
</g>
<!-- Node13 -->
<g id="node13" class="node">
<title>Node13</title>
<g id="a_node13"><a xlink:href="group__grp__numerics.html#ga02a336a22890e7ae5a5c2d525260666c" target="_top" xlink:title="Assign Fourier mode labels.">
<polygon fill="white" stroke="black" points="224,-38.5 224,-57.5 269,-57.5 269,-38.5 224,-38.5"/>
<text text-anchor="middle" x="246.5" y="-45.5" font-family="Helvetica,sans-Serif" font-size="10.00">gi00ab</text>
</a>
</g>
</g>
<!-- Node12&#45;&gt;Node13 -->
<g id="edge15" class="edge">
<title>Node12&#45;&gt;Node13</title>
<path fill="none" stroke="midnightblue" d="M163.12,-35.27C179.6,-37.82 198.36,-40.72 213.81,-43.11"/>
<polygon fill="midnightblue" stroke="midnightblue" points="213.49,-46.6 223.91,-44.67 214.56,-39.68 213.49,-46.6"/>
</g>
<!-- Node14 -->
<g id="node14" class="node">
<title>Node14</title>
<g id="a_node14"><a xlink:href="namespacenumerical.html#ac9cf42743694682672a82103c8ffedda" target="_top" xlink:title="Duplicates NAG routine X02AJF (machine precision)">
<polygon fill="white" stroke="black" points="199,-0.5 199,-19.5 294,-19.5 294,-0.5 199,-0.5"/>
<text text-anchor="middle" x="246.5" y="-7.5" font-family="Helvetica,sans-Serif" font-size="10.00">numerical::myprec</text>
</a>
</g>
</g>
<!-- Node12&#45;&gt;Node14 -->
<g id="edge16" class="edge">
<title>Node12&#45;&gt;Node14</title>
<path fill="none" stroke="midnightblue" d="M163.12,-22.73C171.36,-21.45 180.18,-20.09 188.87,-18.75"/>
<polygon fill="midnightblue" stroke="midnightblue" points="189.61,-22.17 198.96,-17.19 188.55,-15.26 189.61,-22.17"/>
</g>
</g>
</svg>
