<?xml version="1.0" encoding="UTF-8" standalone="no"?>
<!DOCTYPE svg PUBLIC "-//W3C//DTD SVG 1.1//EN"
 "http://www.w3.org/Graphics/SVG/1.1/DTD/svg11.dtd">
<!-- Generated by graphviz version 2.49.3 (20211027.1534)
 -->
<!-- Title: preset Pages: 1 -->
<svg width="807pt" height="490pt"
 viewBox="0.00 0.00 807.36 490.00" xmlns="http://www.w3.org/2000/svg" xmlns:xlink="http://www.w3.org/1999/xlink">
<g id="graph0" class="graph" transform="scale(1 1) rotate(0) translate(4 486)">
<title>preset</title>
<polygon fill="white" stroke="transparent" points="-4,4 -4,-486 803.36,-486 803.36,4 -4,4"/>
<!-- Node1 -->
<g id="node1" class="node">
<title>Node1</title>
<g id="a_node1"><a xlink:title="Allocates and initializes internal arrays.">
<polygon fill="#bfbfbf" stroke="black" points="755.36,-425.5 755.36,-444.5 799.36,-444.5 799.36,-425.5 755.36,-425.5"/>
<text text-anchor="middle" x="777.36" y="-432.5" font-family="Helvetica,sans-Serif" font-size="10.00">preset</text>
</a>
</g>
</g>
<!-- Node1&#45;&gt;Node1 -->
<g id="edge47" class="edge">
<title>Node1&#45;&gt;Node1</title>
<path fill="none" stroke="midnightblue" d="M792.09,-454.77C790.93,-459.5 786.02,-463 777.36,-463 763.14,-463 759.03,-453.57 765.03,-444.76"/>
<polygon fill="midnightblue" stroke="midnightblue" points="795.43,-453.66 789.69,-444.76 788.62,-455.3 795.43,-453.66"/>
</g>
<!-- Node2 -->
<g id="node2" class="node">
<title>Node2</title>
<g id="a_node2"><a xlink:href="group__grp__output.html#ga7401b50ec10c6598ee4a8112717a63ec" target="_top" xlink:title="Computes eigenvalues and eigenvectors of derivative matrix, &#160;and saves them to .ext....">
<polygon fill="white" stroke="black" points="674.36,-340.5 674.36,-359.5 719.36,-359.5 719.36,-340.5 674.36,-340.5"/>
<text text-anchor="middle" x="696.86" y="-347.5" font-family="Helvetica,sans-Serif" font-size="10.00">hesian</text>
</a>
</g>
</g>
<!-- Node1&#45;&gt;Node2 -->
<g id="edge1" class="edge">
<title>Node1&#45;&gt;Node2</title>
<path fill="none" stroke="midnightblue" d="M760.15,-417.45C743.97,-399.93 719.71,-373.66 706.76,-359.64"/>
<polygon fill="midnightblue" stroke="midnightblue" points="758,-420.28 767.35,-425.25 763.14,-415.53 758,-420.28"/>
</g>
<!-- Node6 -->
<g id="node6" class="node">
<title>Node6</title>
<g id="a_node6"><a xlink:href="xspech_8f90.html#a9fdc71dffd7c61ee4588a3f80d3ab9ce" target="_top" xlink:title="Main subroutine of SPEC.">
<polygon fill="white" stroke="black" points="225.86,-425.5 225.86,-444.5 272.86,-444.5 272.86,-425.5 225.86,-425.5"/>
<text text-anchor="middle" x="249.36" y="-432.5" font-family="Helvetica,sans-Serif" font-size="10.00">xspech</text>
</a>
</g>
</g>
<!-- Node1&#45;&gt;Node6 -->
<g id="edge48" class="edge">
<title>Node1&#45;&gt;Node6</title>
<path fill="none" stroke="midnightblue" d="M748.5,-448.79C717.86,-462.66 666.81,-482 620.36,-482 620.36,-482 620.36,-482 516.36,-482 424.91,-482 318.44,-454.73 272.89,-441.73"/>
<polygon fill="midnightblue" stroke="midnightblue" points="750.1,-451.9 757.69,-444.51 747.15,-445.56 750.1,-451.9"/>
</g>
<!-- Node2&#45;&gt;Node2 -->
<g id="edge2" class="edge">
<title>Node2&#45;&gt;Node2</title>
<path fill="none" stroke="midnightblue" d="M710.85,-369.77C709.76,-374.5 705.09,-378 696.86,-378 683.35,-378 679.45,-368.57 685.14,-359.76"/>
<polygon fill="midnightblue" stroke="midnightblue" points="714.21,-368.73 708.57,-359.76 707.38,-370.28 714.21,-368.73"/>
</g>
<!-- Node3 -->
<g id="node3" class="node">
<title>Node3</title>
<g id="a_node3"><a xlink:href="xspech_8f90.html#a48f45478dc2c9f70ea8aa1c60ad06503" target="_top" xlink:title="This is the main &quot;driver&quot; for the physics part of SPEC.">
<polygon fill="white" stroke="black" points="600.36,-340.5 600.36,-359.5 638.36,-359.5 638.36,-340.5 600.36,-340.5"/>
<text text-anchor="middle" x="619.36" y="-347.5" font-family="Helvetica,sans-Serif" font-size="10.00">spec</text>
</a>
</g>
</g>
<!-- Node2&#45;&gt;Node3 -->
<g id="edge3" class="edge">
<title>Node2&#45;&gt;Node3</title>
<path fill="none" stroke="midnightblue" d="M663.91,-350C655.35,-350 646.38,-350 638.83,-350"/>
<polygon fill="midnightblue" stroke="midnightblue" points="664.02,-353.5 674.02,-350 664.02,-346.5 664.02,-353.5"/>
</g>
<!-- Node4 -->
<g id="node4" class="node">
<title>Node4</title>
<g id="a_node4"><a xlink:href="group__grp__global__force.html#ga38c9d3c50bd043707fefa5137c9dbf44" target="_top" xlink:title="Calculates , where &#160;and , and .">
<polygon fill="white" stroke="black" points="495.36,-227.5 495.36,-246.5 539.36,-246.5 539.36,-227.5 495.36,-227.5"/>
<text text-anchor="middle" x="517.36" y="-234.5" font-family="Helvetica,sans-Serif" font-size="10.00">dforce</text>
</a>
</g>
</g>
<!-- Node3&#45;&gt;Node4 -->
<g id="edge4" class="edge">
<title>Node3&#45;&gt;Node4</title>
<path fill="none" stroke="midnightblue" d="M606.62,-332.2C587.72,-307.94 550.7,-266.06 531.15,-246.77"/>
<polygon fill="midnightblue" stroke="midnightblue" points="603.88,-334.38 612.7,-340.26 609.47,-330.17 603.88,-334.38"/>
</g>
<!-- Node3&#45;&gt;Node6 -->
<g id="edge46" class="edge">
<title>Node3&#45;&gt;Node6</title>
<path fill="none" stroke="midnightblue" d="M591.59,-363.68C583.3,-369.22 573.84,-375.06 564.36,-379 461.81,-421.65 326.16,-426.28 273.05,-430.7"/>
<polygon fill="midnightblue" stroke="midnightblue" points="593.79,-366.42 600.08,-357.89 589.84,-360.64 593.79,-366.42"/>
</g>
<!-- Node20 -->
<g id="node20" class="node">
<title>Node20</title>
<g id="a_node20"><a xlink:href="group__grp__output.html#ga0f962c09cd5d5eba99f1cba043cb3898" target="_top" xlink:title="Initialize the interface to the HDF5 library and open the output file.">
<polygon fill="white" stroke="black" points="470.36,-359.5 470.36,-378.5 564.36,-378.5 564.36,-359.5 470.36,-359.5"/>
<text text-anchor="middle" x="517.36" y="-366.5" font-family="Helvetica,sans-Serif" font-size="10.00">sphdf5::init_outfile</text>
</a>
</g>
</g>
<!-- Node3&#45;&gt;Node20 -->
<g id="edge44" class="edge">
<title>Node3&#45;&gt;Node20</title>
<path fill="none" stroke="midnightblue" d="M590.13,-355.36C582.13,-356.88 573.22,-358.58 564.46,-360.24"/>
<polygon fill="midnightblue" stroke="midnightblue" points="590.85,-358.79 600.02,-353.48 589.54,-351.91 590.85,-358.79"/>
</g>
<!-- Node4&#45;&gt;Node2 -->
<g id="edge37" class="edge">
<title>Node4&#45;&gt;Node2</title>
<path fill="none" stroke="midnightblue" d="M542.12,-252.12C579.21,-275.74 649.81,-320.68 680.73,-340.37"/>
<polygon fill="midnightblue" stroke="midnightblue" points="543.77,-249.03 533.45,-246.61 540.01,-254.93 543.77,-249.03"/>
</g>
<!-- Node4&#45;&gt;Node3 -->
<g id="edge43" class="edge">
<title>Node4&#45;&gt;Node3</title>
<path fill="none" stroke="midnightblue" d="M529.95,-254.61C548.84,-278.89 586.13,-321.07 605.69,-340.36"/>
<polygon fill="midnightblue" stroke="midnightblue" points="532.7,-252.44 523.89,-246.55 527.1,-256.65 532.7,-252.44"/>
</g>
<!-- Node4&#45;&gt;Node4 -->
<g id="edge12" class="edge">
<title>Node4&#45;&gt;Node4</title>
<path fill="none" stroke="midnightblue" d="M536.25,-256.4C534.99,-261.31 528.69,-265 517.36,-265 499.23,-265 493.99,-255.57 501.64,-246.76"/>
<polygon fill="midnightblue" stroke="midnightblue" points="539.53,-255.17 533.08,-246.76 532.87,-257.35 539.53,-255.17"/>
</g>
<!-- Node5 -->
<g id="node5" class="node">
<title>Node5</title>
<g id="a_node5"><a xlink:href="namespaceallglobal.html#a7824bc37519fe88336534ce90ab2af16" target="_top" xlink:title=" ">
<polygon fill="white" stroke="black" points="314.86,-340.5 314.86,-359.5 428.86,-359.5 428.86,-340.5 314.86,-340.5"/>
<text text-anchor="middle" x="371.86" y="-347.5" font-family="Helvetica,sans-Serif" font-size="10.00">allglobal::check_inputs</text>
</a>
</g>
</g>
<!-- Node4&#45;&gt;Node5 -->
<g id="edge5" class="edge">
<title>Node4&#45;&gt;Node5</title>
<path fill="none" stroke="midnightblue" d="M495.96,-253.07C465.66,-276.92 409.71,-320.98 385.06,-340.39"/>
<polygon fill="midnightblue" stroke="midnightblue" points="498.43,-255.57 504.12,-246.63 494.1,-250.07 498.43,-255.57"/>
</g>
<!-- Node9 -->
<g id="node9" class="node">
<title>Node9</title>
<g id="a_node9"><a xlink:href="group__grp__force__driver.html#gabbc245b3884ee8d8d3e2a52f25149f78" target="_top" xlink:title="Objective to be given to the Newton solver, using only function values.">
<polygon fill="white" stroke="black" points="354.36,-246.5 354.36,-265.5 389.36,-265.5 389.36,-246.5 354.36,-246.5"/>
<text text-anchor="middle" x="371.86" y="-253.5" font-family="Helvetica,sans-Serif" font-size="10.00">fcn1</text>
</a>
</g>
</g>
<!-- Node4&#45;&gt;Node9 -->
<g id="edge13" class="edge">
<title>Node4&#45;&gt;Node9</title>
<path fill="none" stroke="midnightblue" d="M485.04,-241.15C455.71,-245.03 412.99,-250.69 389.64,-253.78"/>
<polygon fill="midnightblue" stroke="midnightblue" points="485.73,-244.59 495.18,-239.8 484.81,-237.65 485.73,-244.59"/>
</g>
<!-- Node10 -->
<g id="node10" class="node">
<title>Node10</title>
<g id="a_node10"><a xlink:href="group__grp__force__driver.html#gaec14f81fbdbedafbc4189489ec8ae178" target="_top" xlink:title="Employs Newton method to find , where &#160;and &#160;is defined in dforce() .">
<polygon fill="white" stroke="black" points="225.36,-246.5 225.36,-265.5 273.36,-265.5 273.36,-246.5 225.36,-246.5"/>
<text text-anchor="middle" x="249.36" y="-253.5" font-family="Helvetica,sans-Serif" font-size="10.00">newton</text>
</a>
</g>
</g>
<!-- Node4&#45;&gt;Node10 -->
<g id="edge38" class="edge">
<title>Node4&#45;&gt;Node10</title>
<path fill="none" stroke="midnightblue" d="M485.23,-234.01C444.52,-230.78 371.12,-227.3 309.36,-237 297.24,-238.9 284.21,-242.88 273.49,-246.7"/>
<polygon fill="midnightblue" stroke="midnightblue" points="485.07,-237.51 495.33,-234.86 485.66,-230.53 485.07,-237.51"/>
</g>
<!-- Node11 -->
<g id="node11" class="node">
<title>Node11</title>
<g id="a_node11"><a xlink:href="group__grp__force__driver.html#ga8ccd6c7d901872702521d0a0edf95412" target="_top" xlink:title="Objective to be given to the Newton solver, using function values and derivatives.">
<polygon fill="white" stroke="black" points="3.36,-217.5 3.36,-236.5 38.36,-236.5 38.36,-217.5 3.36,-217.5"/>
<text text-anchor="middle" x="20.86" y="-224.5" font-family="Helvetica,sans-Serif" font-size="10.00">fcn2</text>
</a>
</g>
</g>
<!-- Node4&#45;&gt;Node11 -->
<g id="edge25" class="edge">
<title>Node4&#45;&gt;Node11</title>
<path fill="none" stroke="midnightblue" d="M485.22,-232.3C469.93,-230.22 451.22,-228.02 434.36,-227 280.67,-217.66 94.18,-224.01 38.39,-226.28"/>
<polygon fill="midnightblue" stroke="midnightblue" points="484.8,-235.78 495.19,-233.7 485.77,-228.84 484.8,-235.78"/>
</g>
<!-- Node13 -->
<g id="node13" class="node">
<title>Node13</title>
<g id="a_node13"><a xlink:href="dfp200_8f90.html#a6aca59cf350d7b1941f8389d50945a43" target="_top" xlink:title="get LU Beltrami matrices">
<polygon fill="white" stroke="black" points="309.36,-38.5 309.36,-57.5 434.36,-57.5 434.36,-38.5 309.36,-38.5"/>
<text text-anchor="middle" x="371.86" y="-45.5" font-family="Helvetica,sans-Serif" font-size="10.00">get_lu_beltrami_matrices</text>
</a>
</g>
</g>
<!-- Node4&#45;&gt;Node13 -->
<g id="edge26" class="edge">
<title>Node4&#45;&gt;Node13</title>
<path fill="none" stroke="midnightblue" d="M511.57,-217.22C502.32,-183.05 478.89,-112.73 434.36,-72 427.51,-65.73 418.84,-61.03 410.18,-57.53"/>
<polygon fill="midnightblue" stroke="midnightblue" points="508.29,-218.51 514.17,-227.32 515.07,-216.77 508.29,-218.51"/>
</g>
<!-- Node18 -->
<g id="node18" class="node">
<title>Node18</title>
<g id="a_node18"><a xlink:href="group__grp__conjugate__gradient.html#ga4d8415226e62a9fdb42b0fd0b464251e" target="_top" xlink:title="Returns the energy functional and it&#39;s derivatives with respect to geometry.">
<polygon fill="white" stroke="black" points="347.86,-114.5 347.86,-133.5 395.86,-133.5 395.86,-114.5 347.86,-114.5"/>
<text text-anchor="middle" x="371.86" y="-121.5" font-family="Helvetica,sans-Serif" font-size="10.00">pc00ab</text>
</a>
</g>
</g>
<!-- Node4&#45;&gt;Node18 -->
<g id="edge39" class="edge">
<title>Node4&#45;&gt;Node18</title>
<path fill="none" stroke="midnightblue" d="M498.39,-220.39C482.11,-205.59 457.22,-183.62 434.36,-166 418.99,-154.16 400.52,-141.78 387.86,-133.55"/>
<polygon fill="midnightblue" stroke="midnightblue" points="496.33,-223.24 506.07,-227.41 501.05,-218.08 496.33,-223.24"/>
</g>
<!-- Node5&#45;&gt;Node6 -->
<g id="edge6" class="edge">
<title>Node5&#45;&gt;Node6</title>
<path fill="none" stroke="midnightblue" d="M329.25,-363.4C322.35,-366.41 315.46,-369.94 309.36,-374 287.77,-388.36 267.98,-411.81 257.72,-425.06"/>
<polygon fill="midnightblue" stroke="midnightblue" points="330.65,-366.61 338.6,-359.62 328.02,-360.13 330.65,-366.61"/>
</g>
<!-- Node6&#45;&gt;Node3 -->
<g id="edge9" class="edge">
<title>Node6&#45;&gt;Node3</title>
<path fill="none" stroke="midnightblue" d="M283.21,-440.59C341.94,-443.61 467.82,-437.15 564.36,-397 584.68,-388.55 604.89,-371.4 613.73,-359.56"/>
<polygon fill="midnightblue" stroke="midnightblue" points="283.26,-437.09 273.05,-439.93 282.8,-444.07 283.26,-437.09"/>
</g>
<!-- Node6&#45;&gt;Node6 -->
<g id="edge11" class="edge">
<title>Node6&#45;&gt;Node6</title>
<path fill="none" stroke="midnightblue" d="M270.84,-454.4C269.4,-459.31 262.24,-463 249.36,-463 228.74,-463 222.78,-453.57 231.48,-444.76"/>
<polygon fill="midnightblue" stroke="midnightblue" points="274.02,-452.9 267.24,-444.76 267.46,-455.35 274.02,-452.9"/>
</g>
<!-- Node7 -->
<g id="node7" class="node">
<title>Node7</title>
<g id="a_node7"><a xlink:href="xspech_8f90.html#a1451823a7b97101a797de616250752c1" target="_top" xlink:title="Final diagnostics.">
<polygon fill="white" stroke="black" points="87.36,-425.5 87.36,-444.5 176.36,-444.5 176.36,-425.5 87.36,-425.5"/>
<text text-anchor="middle" x="131.86" y="-432.5" font-family="Helvetica,sans-Serif" font-size="10.00">final_diagnostics</text>
</a>
</g>
</g>
<!-- Node6&#45;&gt;Node7 -->
<g id="edge7" class="edge">
<title>Node6&#45;&gt;Node7</title>
<path fill="none" stroke="midnightblue" d="M215.65,-428.85C203.45,-428.23 189.41,-428.09 176.39,-428.44"/>
<polygon fill="midnightblue" stroke="midnightblue" points="215.61,-432.35 225.81,-429.52 216.07,-425.37 215.61,-432.35"/>
</g>
<!-- Node8 -->
<g id="node8" class="node">
<title>Node8</title>
<g id="a_node8"><a xlink:href="xspech_8f90.html#a95271e8805067f801b5d4e524d6901d4" target="_top" xlink:title="Main program of SPEC.">
<polygon fill="white" stroke="black" points="99.86,-387.5 99.86,-406.5 163.86,-406.5 163.86,-387.5 99.86,-387.5"/>
<text text-anchor="middle" x="131.86" y="-394.5" font-family="Helvetica,sans-Serif" font-size="10.00">spec_main</text>
</a>
</g>
</g>
<!-- Node6&#45;&gt;Node8 -->
<g id="edge10" class="edge">
<title>Node6&#45;&gt;Node8</title>
<path fill="none" stroke="midnightblue" d="M216.28,-424.45C199.25,-418.84 178.48,-412.01 161.92,-406.56"/>
<polygon fill="midnightblue" stroke="midnightblue" points="215.22,-427.78 225.81,-427.58 217.41,-421.13 215.22,-427.78"/>
</g>
<!-- Node7&#45;&gt;Node6 -->
<g id="edge8" class="edge">
<title>Node7&#45;&gt;Node6</title>
<path fill="none" stroke="midnightblue" d="M186.4,-441.73C200.29,-441.84 214.51,-441.42 225.81,-440.48"/>
<polygon fill="midnightblue" stroke="midnightblue" points="186.45,-438.23 176.39,-441.56 186.33,-445.23 186.45,-438.23"/>
</g>
<!-- Node9&#45;&gt;Node9 -->
<g id="edge14" class="edge">
<title>Node9&#45;&gt;Node9</title>
<path fill="none" stroke="midnightblue" d="M394.72,-273.14C395.04,-279.14 387.42,-284 371.86,-284 349.22,-284 343.39,-273.72 354.35,-264.6"/>
<polygon fill="midnightblue" stroke="midnightblue" points="397.65,-271.21 389.37,-264.6 391.72,-274.93 397.65,-271.21"/>
</g>
<!-- Node9&#45;&gt;Node10 -->
<g id="edge15" class="edge">
<title>Node9&#45;&gt;Node10</title>
<path fill="none" stroke="midnightblue" d="M343.87,-250.26C322.74,-248.82 293.67,-248.92 273.57,-250.54"/>
<polygon fill="midnightblue" stroke="midnightblue" points="343.84,-253.77 354.1,-251.16 344.45,-246.8 343.84,-253.77"/>
</g>
<!-- Node10&#45;&gt;Node3 -->
<g id="edge21" class="edge">
<title>Node10&#45;&gt;Node3</title>
<path fill="none" stroke="midnightblue" d="M271.09,-271.72C281.96,-279.23 295.8,-287.72 309.36,-293 414.59,-333.97 551.67,-345.95 600.3,-349.04"/>
<polygon fill="midnightblue" stroke="midnightblue" points="272.9,-268.71 262.73,-265.72 268.82,-274.4 272.9,-268.71"/>
</g>
<!-- Node10&#45;&gt;Node9 -->
<g id="edge16" class="edge">
<title>Node10&#45;&gt;Node9</title>
<path fill="none" stroke="midnightblue" d="M283.57,-262.11C306.46,-263.27 335.93,-262.85 354.1,-260.84"/>
<polygon fill="midnightblue" stroke="midnightblue" points="283.78,-258.61 273.57,-261.46 283.33,-265.6 283.78,-258.61"/>
</g>
<!-- Node10&#45;&gt;Node10 -->
<g id="edge20" class="edge">
<title>Node10&#45;&gt;Node10</title>
<path fill="none" stroke="midnightblue" d="M270.84,-275.4C269.4,-280.31 262.24,-284 249.36,-284 228.74,-284 222.78,-274.57 231.48,-265.76"/>
<polygon fill="midnightblue" stroke="midnightblue" points="274.02,-273.9 267.24,-265.76 267.46,-276.35 274.02,-273.9"/>
</g>
<!-- Node10&#45;&gt;Node11 -->
<g id="edge17" class="edge">
<title>Node10&#45;&gt;Node11</title>
<path fill="none" stroke="midnightblue" d="M215.14,-246.8C165.96,-237.75 75.61,-226.58 38.47,-225.39"/>
<polygon fill="midnightblue" stroke="midnightblue" points="214.49,-250.24 224.97,-248.7 215.82,-243.37 214.49,-250.24"/>
</g>
<!-- Node12 -->
<g id="node12" class="node">
<title>Node12</title>
<g id="a_node12"><a xlink:href="group__grp__output.html#ga382822b303cbf8c56d6f54dcb379caf2" target="_top" xlink:title="read or write force&#45;derivative matrix .ext.sp.DF">
<polygon fill="white" stroke="black" points="99.36,-264.5 99.36,-283.5 164.36,-283.5 164.36,-264.5 99.36,-264.5"/>
<text text-anchor="middle" x="131.86" y="-271.5" font-family="Helvetica,sans-Serif" font-size="10.00">writereadgf</text>
</a>
</g>
</g>
<!-- Node10&#45;&gt;Node12 -->
<g id="edge22" class="edge">
<title>Node10&#45;&gt;Node12</title>
<path fill="none" stroke="midnightblue" d="M215.07,-255.01C196.85,-256.95 174.65,-260.57 157.92,-264.42"/>
<polygon fill="midnightblue" stroke="midnightblue" points="215.62,-258.47 225.26,-254.07 214.99,-251.5 215.62,-258.47"/>
</g>
<!-- Node11&#45;&gt;Node10 -->
<g id="edge19" class="edge">
<title>Node11&#45;&gt;Node10</title>
<path fill="none" stroke="midnightblue" d="M48.29,-234.91C92.92,-243.66 182.49,-255.06 224.97,-257.31"/>
<polygon fill="midnightblue" stroke="midnightblue" points="48.97,-231.48 38.47,-232.86 47.55,-238.33 48.97,-231.48"/>
</g>
<!-- Node11&#45;&gt;Node11 -->
<g id="edge18" class="edge">
<title>Node11&#45;&gt;Node11</title>
<path fill="none" stroke="midnightblue" d="M41.23,-246.4C39.87,-251.31 33.08,-255 20.86,-255 1.31,-255 -4.34,-245.57 3.9,-236.76"/>
<polygon fill="midnightblue" stroke="midnightblue" points="44.45,-245.01 37.81,-236.76 37.85,-247.35 44.45,-245.01"/>
</g>
<!-- Node12&#45;&gt;Node10 -->
<g id="edge24" class="edge">
<title>Node12&#45;&gt;Node10</title>
<path fill="none" stroke="midnightblue" d="M174.93,-273.97C191.92,-271.82 210.87,-268.54 225.26,-265.13"/>
<polygon fill="midnightblue" stroke="midnightblue" points="174.2,-270.53 164.66,-275.15 175,-277.48 174.2,-270.53"/>
</g>
<!-- Node12&#45;&gt;Node11 -->
<g id="edge23" class="edge">
<title>Node12&#45;&gt;Node11</title>
<path fill="none" stroke="midnightblue" d="M98.87,-260.49C90.86,-257.08 82.29,-253.42 74.36,-250 62.3,-244.8 48.72,-238.84 38.39,-234.3"/>
<polygon fill="midnightblue" stroke="midnightblue" points="97.72,-263.8 108.29,-264.48 100.45,-257.35 97.72,-263.8"/>
</g>
<!-- Node14 -->
<g id="node14" class="node">
<title>Node14</title>
<g id="a_node14"><a xlink:href="dfp200_8f90.html#a55ea75395f8c71731451e1add3720c7e" target="_top" xlink:title="Given the field consistent with the constraints and the geometry, computes local quantites related to...">
<polygon fill="white" stroke="black" points="226.36,-38.5 226.36,-57.5 272.36,-57.5 272.36,-38.5 226.36,-38.5"/>
<text text-anchor="middle" x="249.36" y="-45.5" font-family="Helvetica,sans-Serif" font-size="10.00">dfp200</text>
</a>
</g>
</g>
<!-- Node13&#45;&gt;Node14 -->
<g id="edge27" class="edge">
<title>Node13&#45;&gt;Node14</title>
<path fill="none" stroke="midnightblue" d="M299.05,-41.36C289.41,-41.55 280.18,-41.98 272.4,-42.64"/>
<polygon fill="midnightblue" stroke="midnightblue" points="299.24,-44.86 309.2,-41.25 299.16,-37.86 299.24,-44.86"/>
</g>
<!-- Node14&#45;&gt;Node4 -->
<g id="edge28" class="edge">
<title>Node14&#45;&gt;Node4</title>
<path fill="none" stroke="midnightblue" d="M282.03,-58.31C290.87,-61.15 300.48,-64.22 309.36,-67 364.77,-84.34 388.31,-69.63 434.36,-105 478.22,-138.69 504.42,-203.07 513.11,-227.38"/>
<polygon fill="midnightblue" stroke="midnightblue" points="283.06,-54.96 272.46,-55.21 280.9,-61.62 283.06,-54.96"/>
</g>
<!-- Node14&#45;&gt;Node13 -->
<g id="edge34" class="edge">
<title>Node14&#45;&gt;Node13</title>
<path fill="none" stroke="midnightblue" d="M282.64,-54.06C290.88,-54.5 300.02,-54.73 309.2,-54.75"/>
<polygon fill="midnightblue" stroke="midnightblue" points="282.61,-50.55 272.4,-53.36 282.14,-57.53 282.61,-50.55"/>
</g>
<!-- Node14&#45;&gt;Node14 -->
<g id="edge29" class="edge">
<title>Node14&#45;&gt;Node14</title>
<path fill="none" stroke="midnightblue" d="M270.84,-67.4C269.4,-72.31 262.24,-76 249.36,-76 228.74,-76 222.78,-66.57 231.48,-57.76"/>
<polygon fill="midnightblue" stroke="midnightblue" points="274.02,-65.9 267.24,-57.76 267.46,-68.35 274.02,-65.9"/>
</g>
<!-- Node15 -->
<g id="node15" class="node">
<title>Node15</title>
<g id="a_node15"><a xlink:href="dfp200_8f90.html#a7b64c7392b45d0042d8bd7379c0761a5" target="_top" xlink:title="Evaluate the derivative of the square of the magnetic field modulus. Add spectral constraint derivati...">
<polygon fill="white" stroke="black" points="94.86,-0.5 94.86,-19.5 168.86,-19.5 168.86,-0.5 94.86,-0.5"/>
<text text-anchor="middle" x="131.86" y="-7.5" font-family="Helvetica,sans-Serif" font-size="10.00">evaluate_dbb</text>
</a>
</g>
</g>
<!-- Node14&#45;&gt;Node15 -->
<g id="edge30" class="edge">
<title>Node14&#45;&gt;Node15</title>
<path fill="none" stroke="midnightblue" d="M223.67,-34.23C207.85,-27.83 187.05,-20.76 169.34,-15.68"/>
<polygon fill="midnightblue" stroke="midnightblue" points="222.69,-37.61 233.26,-38.3 225.42,-31.17 222.69,-37.61"/>
</g>
<!-- Node16 -->
<g id="node16" class="node">
<title>Node16</title>
<g id="a_node16"><a xlink:href="dfp200_8f90.html#a73ddf39ecc5228201fb643779e17cd36" target="_top" xlink:title="Evaluate mu and psip derivatives and store them in dmupfdx.">
<polygon fill="white" stroke="black" points="84.36,-76.5 84.36,-95.5 179.36,-95.5 179.36,-76.5 84.36,-76.5"/>
<text text-anchor="middle" x="131.86" y="-83.5" font-family="Helvetica,sans-Serif" font-size="10.00">evaluate_dmupfdx</text>
</a>
</g>
</g>
<!-- Node14&#45;&gt;Node16 -->
<g id="edge32" class="edge">
<title>Node14&#45;&gt;Node16</title>
<path fill="none" stroke="midnightblue" d="M216.31,-52.43C193.88,-58.63 164.96,-68.61 147.72,-76.41"/>
<polygon fill="midnightblue" stroke="midnightblue" points="217.3,-55.79 226.09,-49.87 215.53,-49.01 217.3,-55.79"/>
</g>
<!-- Node17 -->
<g id="node17" class="node">
<title>Node17</title>
<g id="a_node17"><a xlink:href="dfp200_8f90.html#a5e56f1f4b1e6df11a9cffa6237c37469" target="_top" xlink:title="This routine evaluates the value of the magnetic field once the interface is perturbed using matrix p...">
<polygon fill="white" stroke="black" points="74.36,-38.5 74.36,-57.5 189.36,-57.5 189.36,-38.5 74.36,-38.5"/>
<text text-anchor="middle" x="131.86" y="-45.5" font-family="Helvetica,sans-Serif" font-size="10.00">get_perturbed_solution</text>
</a>
</g>
</g>
<!-- Node14&#45;&gt;Node17 -->
<g id="edge35" class="edge">
<title>Node14&#45;&gt;Node17</title>
<path fill="none" stroke="midnightblue" d="M215.87,-41.86C207.66,-41.44 198.61,-41.23 189.59,-41.25"/>
<polygon fill="midnightblue" stroke="midnightblue" points="215.88,-45.37 226.09,-42.54 216.34,-38.38 215.88,-45.37"/>
</g>
<!-- Node15&#45;&gt;Node14 -->
<g id="edge31" class="edge">
<title>Node15&#45;&gt;Node14</title>
<path fill="none" stroke="midnightblue" d="M156.95,-23.53C177.32,-31.81 206.26,-41.28 226.09,-46.13"/>
<polygon fill="midnightblue" stroke="midnightblue" points="158.29,-20.3 147.72,-19.59 155.55,-26.74 158.29,-20.3"/>
</g>
<!-- Node16&#45;&gt;Node14 -->
<g id="edge33" class="edge">
<title>Node16&#45;&gt;Node14</title>
<path fill="none" stroke="midnightblue" d="M188.98,-74.28C205.31,-68.96 221.81,-62.86 233.26,-57.7"/>
<polygon fill="midnightblue" stroke="midnightblue" points="187.89,-70.96 179.42,-77.32 190.01,-77.63 187.89,-70.96"/>
</g>
<!-- Node17&#45;&gt;Node14 -->
<g id="edge36" class="edge">
<title>Node17&#45;&gt;Node14</title>
<path fill="none" stroke="midnightblue" d="M199.59,-54.68C209.12,-54.52 218.3,-54.11 226.09,-53.46"/>
<polygon fill="midnightblue" stroke="midnightblue" points="199.57,-51.18 189.59,-54.75 199.62,-58.18 199.57,-51.18"/>
</g>
<!-- Node18&#45;&gt;Node18 -->
<g id="edge42" class="edge">
<title>Node18&#45;&gt;Node18</title>
<path fill="none" stroke="midnightblue" d="M394.55,-143.03C393.31,-148.13 385.75,-152 371.86,-152 350.18,-152 343.91,-142.57 353.05,-133.76"/>
<polygon fill="midnightblue" stroke="midnightblue" points="397.76,-141.62 390.66,-133.76 391.3,-144.33 397.76,-141.62"/>
</g>
<!-- Node19 -->
<g id="node19" class="node">
<title>Node19</title>
<g id="a_node19"><a xlink:href="group__grp__conjugate__gradient.html#ga25a3bae2ff2ee0469b045de0d033398b" target="_top" xlink:title="Use preconditioned conjugate gradient method to find minimum of energy functional.">
<polygon fill="white" stroke="black" points="225.36,-114.5 225.36,-133.5 273.36,-133.5 273.36,-114.5 225.36,-114.5"/>
<text text-anchor="middle" x="249.36" y="-121.5" font-family="Helvetica,sans-Serif" font-size="10.00">pc00aa</text>
</a>
</g>
</g>
<!-- Node18&#45;&gt;Node19 -->
<g id="edge40" class="edge">
<title>Node18&#45;&gt;Node19</title>
<path fill="none" stroke="midnightblue" d="M337.52,-124C317.17,-124 291.67,-124 273.52,-124"/>
<polygon fill="midnightblue" stroke="midnightblue" points="337.63,-127.5 347.63,-124 337.62,-120.5 337.63,-127.5"/>
</g>
<!-- Node19&#45;&gt;Node19 -->
<g id="edge41" class="edge">
<title>Node19&#45;&gt;Node19</title>
<path fill="none" stroke="midnightblue" d="M270.84,-143.4C269.4,-148.31 262.24,-152 249.36,-152 228.74,-152 222.78,-142.57 231.48,-133.76"/>
<polygon fill="midnightblue" stroke="midnightblue" points="274.02,-141.9 267.24,-133.76 267.46,-144.35 274.02,-141.9"/>
</g>
<!-- Node20&#45;&gt;Node6 -->
<g id="edge45" class="edge">
<title>Node20&#45;&gt;Node6</title>
<path fill="none" stroke="midnightblue" d="M460.15,-378.06C418.15,-385.45 359.59,-397.11 309.36,-412 296.82,-415.72 283.19,-420.95 272.19,-425.48"/>
<polygon fill="midnightblue" stroke="midnightblue" points="460.93,-381.47 470.18,-376.32 459.73,-374.58 460.93,-381.47"/>
</g>
</g>
</svg>
