<?xml version="1.0" encoding="UTF-8" standalone="no"?>
<!DOCTYPE svg PUBLIC "-//W3C//DTD SVG 1.1//EN"
 "http://www.w3.org/Graphics/SVG/1.1/DTD/svg11.dtd">
<!-- Generated by graphviz version 2.47.1 (20210421.1823)
 -->
<!-- Title: fcn2 Pages: 1 -->
<svg width="358pt" height="104pt"
 viewBox="0.00 0.00 358.00 104.00" xmlns="http://www.w3.org/2000/svg" xmlns:xlink="http://www.w3.org/1999/xlink">
<g id="graph0" class="graph" transform="scale(1 1) rotate(0) translate(4 100)">
<title>fcn2</title>
<polygon fill="white" stroke="transparent" points="-4,4 -4,-100 354,-100 354,4 -4,4"/>
<!-- Node1 -->
<g id="node1" class="node">
<title>Node1</title>
<g id="a_node1"><a xlink:title="fcn2">
<polygon fill="#bfbfbf" stroke="black" points="315,-38.5 315,-57.5 350,-57.5 350,-38.5 315,-38.5"/>
<text text-anchor="middle" x="332.5" y="-45.5" font-family="Helvetica,sans-Serif" font-size="10.00">fcn2</text>
</a>
</g>
</g>
<!-- Node2 -->
<g id="node2" class="node">
<title>Node2</title>
<g id="a_node2"><a xlink:href="group__grp__force__driver.html#gaec14f81fbdbedafbc4189489ec8ae178" target="_top" xlink:title="Employs Newton method to find , where &#160;and &#160;is defined in dforce() .">
<polygon fill="white" stroke="black" points="231,-38.5 231,-57.5 279,-57.5 279,-38.5 231,-38.5"/>
<text text-anchor="middle" x="255" y="-45.5" font-family="Helvetica,sans-Serif" font-size="10.00">newton</text>
</a>
</g>
</g>
<!-- Node1&#45;&gt;Node2 -->
<g id="edge1" class="edge">
<title>Node1&#45;&gt;Node2</title>
<path fill="none" stroke="midnightblue" d="M304.68,-41.51C296.29,-41.1 287.11,-41.18 279.01,-41.73"/>
<polygon fill="midnightblue" stroke="midnightblue" points="304.51,-45 314.74,-42.28 305.04,-38.03 304.51,-45"/>
</g>
<!-- Node2&#45;&gt;Node1 -->
<g id="edge4" class="edge">
<title>Node2&#45;&gt;Node1</title>
<path fill="none" stroke="midnightblue" d="M289.13,-54.7C297.99,-54.88 307.19,-54.55 314.74,-53.72"/>
<polygon fill="midnightblue" stroke="midnightblue" points="289.15,-51.2 279.01,-54.27 288.85,-58.2 289.15,-51.2"/>
</g>
<!-- Node3 -->
<g id="node3" class="node">
<title>Node3</title>
<g id="a_node3"><a xlink:href="group__grp__force__driver.html#gabbc245b3884ee8d8d3e2a52f25149f78" target="_top" xlink:title="fcn1">
<polygon fill="white" stroke="black" points="145,-76.5 145,-95.5 180,-95.5 180,-76.5 145,-76.5"/>
<text text-anchor="middle" x="162.5" y="-83.5" font-family="Helvetica,sans-Serif" font-size="10.00">fcn1</text>
</a>
</g>
</g>
<!-- Node2&#45;&gt;Node3 -->
<g id="edge2" class="edge">
<title>Node2&#45;&gt;Node3</title>
<path fill="none" stroke="midnightblue" d="M221.06,-55.31C205,-61.45 186.7,-69.74 175.13,-76.42"/>
<polygon fill="midnightblue" stroke="midnightblue" points="222.5,-58.51 230.69,-51.8 220.1,-51.93 222.5,-58.51"/>
</g>
<!-- Node4 -->
<g id="node4" class="node">
<title>Node4</title>
<g id="a_node4"><a xlink:href="xspech_8f90.html#a48f45478dc2c9f70ea8aa1c60ad06503" target="_top" xlink:title=" ">
<polygon fill="white" stroke="black" points="143.5,-38.5 143.5,-57.5 181.5,-57.5 181.5,-38.5 143.5,-38.5"/>
<text text-anchor="middle" x="162.5" y="-45.5" font-family="Helvetica,sans-Serif" font-size="10.00">spec</text>
</a>
</g>
</g>
<!-- Node2&#45;&gt;Node4 -->
<g id="edge5" class="edge">
<title>Node2&#45;&gt;Node4</title>
<path fill="none" stroke="midnightblue" d="M220.52,-48C207.34,-48 192.72,-48 181.59,-48"/>
<polygon fill="midnightblue" stroke="midnightblue" points="220.69,-51.5 230.69,-48 220.69,-44.5 220.69,-51.5"/>
</g>
<!-- Node7 -->
<g id="node7" class="node">
<title>Node7</title>
<g id="a_node7"><a xlink:href="group__grp__force__driver.html#ga382822b303cbf8c56d6f54dcb379caf2" target="_top" xlink:title="read or write force&#45;derivative matrix">
<polygon fill="white" stroke="black" points="130,-0.5 130,-19.5 195,-19.5 195,-0.5 130,-0.5"/>
<text text-anchor="middle" x="162.5" y="-7.5" font-family="Helvetica,sans-Serif" font-size="10.00">writereadgf</text>
</a>
</g>
</g>
<!-- Node2&#45;&gt;Node7 -->
<g id="edge9" class="edge">
<title>Node2&#45;&gt;Node7</title>
<path fill="none" stroke="midnightblue" d="M233.13,-33.45C221.89,-27.74 207.77,-21.59 195.2,-16.84"/>
<polygon fill="midnightblue" stroke="midnightblue" points="231.7,-36.65 242.17,-38.3 235.01,-30.49 231.7,-36.65"/>
</g>
<!-- Node3&#45;&gt;Node2 -->
<g id="edge3" class="edge">
<title>Node3&#45;&gt;Node2</title>
<path fill="none" stroke="midnightblue" d="M189.83,-81.14C207.14,-74.95 228.95,-65.3 242.17,-57.7"/>
<polygon fill="midnightblue" stroke="midnightblue" points="188.63,-77.85 180.26,-84.34 190.85,-84.49 188.63,-77.85"/>
</g>
<!-- Node5 -->
<g id="node5" class="node">
<title>Node5</title>
<g id="a_node5"><a xlink:href="sphdf5_8f90.html#a0f962c09cd5d5eba99f1cba043cb3898" target="_top" xlink:title="initialize the interface to the HDF5 library and open the output file">
<polygon fill="white" stroke="black" points="0,-76.5 0,-95.5 94,-95.5 94,-76.5 0,-76.5"/>
<text text-anchor="middle" x="47" y="-83.5" font-family="Helvetica,sans-Serif" font-size="10.00">sphdf5::init_outfile</text>
</a>
</g>
</g>
<!-- Node4&#45;&gt;Node5 -->
<g id="edge6" class="edge">
<title>Node4&#45;&gt;Node5</title>
<path fill="none" stroke="midnightblue" d="M133.66,-57.32C116.25,-63.15 93.89,-70.63 76.38,-76.5"/>
<polygon fill="midnightblue" stroke="midnightblue" points="134.89,-60.6 143.26,-54.11 132.67,-53.96 134.89,-60.6"/>
</g>
<!-- Node6 -->
<g id="node6" class="node">
<title>Node6</title>
<g id="a_node6"><a xlink:href="xspech_8f90.html#aea782eae089760a491c2c54f9903abcc" target="_top" xlink:title="Main program of SPEC.">
<polygon fill="white" stroke="black" points="23.5,-38.5 23.5,-57.5 70.5,-57.5 70.5,-38.5 23.5,-38.5"/>
<text text-anchor="middle" x="47" y="-45.5" font-family="Helvetica,sans-Serif" font-size="10.00">xspech</text>
</a>
</g>
</g>
<!-- Node4&#45;&gt;Node6 -->
<g id="edge7" class="edge">
<title>Node4&#45;&gt;Node6</title>
<path fill="none" stroke="midnightblue" d="M133.27,-42.07C114.03,-40.86 88.88,-40.99 70.89,-42.46"/>
<polygon fill="midnightblue" stroke="midnightblue" points="133.01,-45.56 143.26,-42.89 133.58,-38.59 133.01,-45.56"/>
</g>
<!-- Node6&#45;&gt;Node4 -->
<g id="edge8" class="edge">
<title>Node6&#45;&gt;Node4</title>
<path fill="none" stroke="midnightblue" d="M80.98,-54.19C101.27,-55.2 126.51,-54.84 143.26,-53.11"/>
<polygon fill="midnightblue" stroke="midnightblue" points="81.1,-50.69 70.89,-53.54 80.65,-57.68 81.1,-50.69"/>
</g>
<!-- Node7&#45;&gt;Node1 -->
<g id="edge10" class="edge">
<title>Node7&#45;&gt;Node1</title>
<path fill="none" stroke="midnightblue" d="M205.27,-14.98C227.39,-18.09 254.9,-22.71 279,-29 291.19,-32.18 304.54,-37.03 314.73,-41.03"/>
<polygon fill="midnightblue" stroke="midnightblue" points="205.58,-11.49 195.2,-13.61 204.64,-18.43 205.58,-11.49"/>
</g>
<!-- Node7&#45;&gt;Node2 -->
<g id="edge11" class="edge">
<title>Node7&#45;&gt;Node2</title>
<path fill="none" stroke="midnightblue" d="M184.32,-24.53C198.16,-31.55 216.37,-39.27 230.69,-44.2"/>
<polygon fill="midnightblue" stroke="midnightblue" points="185.59,-21.24 175.13,-19.58 182.27,-27.4 185.59,-21.24"/>
</g>
</g>
</svg>
