<?xml version="1.0" encoding="UTF-8" standalone="no"?>
<!DOCTYPE svg PUBLIC "-//W3C//DTD SVG 1.1//EN"
 "http://www.w3.org/Graphics/SVG/1.1/DTD/svg11.dtd">
<!-- Generated by graphviz version 2.47.1 (0)
 -->
<!-- Title: curent Pages: 1 -->
<svg width="914pt" height="436pt"
 viewBox="0.00 0.00 914.00 436.00" xmlns="http://www.w3.org/2000/svg" xmlns:xlink="http://www.w3.org/1999/xlink">
<g id="graph0" class="graph" transform="scale(1 1) rotate(0) translate(4 432)">
<title>curent</title>
<polygon fill="white" stroke="transparent" points="-4,4 -4,-432 910,-432 910,4 -4,4"/>
<!-- Node1 -->
<g id="node1" class="node">
<title>Node1</title>
<g id="a_node1"><a xlink:title="Computes the plasma current, , and the &quot;linking&quot; current, .">
<polygon fill="#bfbfbf" stroke="black" points="862,-28.5 862,-47.5 906,-47.5 906,-28.5 862,-28.5"/>
<text text-anchor="middle" x="884" y="-35.5" font-family="Helvetica,sans-Serif" font-size="10.00">curent</text>
</a>
</g>
</g>
<!-- Node2 -->
<g id="node2" class="node">
<title>Node2</title>
<g id="a_node2"><a xlink:href="dfp100_8f90.html#a17a3ac15cc83994394f7b4cc05e5898e" target="_top" xlink:title="Split the work between MPI nodes and evaluate the global constraint.">
<polygon fill="white" stroke="black" points="606,-47.5 606,-66.5 652,-66.5 652,-47.5 606,-47.5"/>
<text text-anchor="middle" x="629" y="-54.5" font-family="Helvetica,sans-Serif" font-size="10.00">dfp100</text>
</a>
</g>
</g>
<!-- Node1&#45;&gt;Node2 -->
<g id="edge1" class="edge">
<title>Node1&#45;&gt;Node2</title>
<path fill="none" stroke="midnightblue" d="M851.61,-40.36C799.76,-44.25 697.5,-51.93 652.34,-55.32"/>
<polygon fill="midnightblue" stroke="midnightblue" points="852.15,-43.83 861.86,-39.59 851.63,-36.85 852.15,-43.83"/>
</g>
<!-- Node17 -->
<g id="node17" class="node">
<title>Node17</title>
<g id="a_node17"><a xlink:href="dfp200_8f90.html#a73ddf39ecc5228201fb643779e17cd36" target="_top" xlink:title="Evaluate mu and psip derivatives and store them in dmupfdx.">
<polygon fill="white" stroke="black" points="140,-10.5 140,-29.5 235,-29.5 235,-10.5 140,-10.5"/>
<text text-anchor="middle" x="187.5" y="-17.5" font-family="Helvetica,sans-Serif" font-size="10.00">evaluate_dmupfdx</text>
</a>
</g>
</g>
<!-- Node1&#45;&gt;Node17 -->
<g id="edge39" class="edge">
<title>Node1&#45;&gt;Node17</title>
<path fill="none" stroke="midnightblue" d="M852.15,-26.72C818.72,-15.52 763.55,0 714.5,0 714.5,0 714.5,0 426.5,0 359.95,0 283.3,-7.86 235.37,-13.73"/>
<polygon fill="midnightblue" stroke="midnightblue" points="851.21,-30.09 861.8,-30.03 853.48,-23.47 851.21,-30.09"/>
</g>
<!-- Node22 -->
<g id="node22" class="node">
<title>Node22</title>
<g id="a_node22"><a xlink:href="group__grp__solver.html#ga6626839aff500f060beb5bce2b90c447" target="_top" xlink:title="Solves Beltrami/vacuum (linear) system, given matrices.unpacking fluxes, helicity multiplier">
<polygon fill="white" stroke="black" points="775,-66.5 775,-85.5 826,-85.5 826,-66.5 775,-66.5"/>
<text text-anchor="middle" x="800.5" y="-73.5" font-family="Helvetica,sans-Serif" font-size="10.00">mp00ac</text>
</a>
</g>
</g>
<!-- Node1&#45;&gt;Node22 -->
<g id="edge40" class="edge">
<title>Node1&#45;&gt;Node22</title>
<path fill="none" stroke="midnightblue" d="M853.29,-51.85C842.92,-56.69 831.52,-62 822.06,-66.41"/>
<polygon fill="midnightblue" stroke="midnightblue" points="854.85,-54.99 862.43,-47.59 851.89,-48.64 854.85,-54.99"/>
</g>
<!-- Node3 -->
<g id="node3" class="node">
<title>Node3</title>
<g id="a_node3"><a xlink:href="group__grp__global__force.html#ga38c9d3c50bd043707fefa5137c9dbf44" target="_top" xlink:title="Calculates , where &#160;and , and .">
<polygon fill="white" stroke="black" points="526,-199.5 526,-218.5 570,-218.5 570,-199.5 526,-199.5"/>
<text text-anchor="middle" x="548" y="-206.5" font-family="Helvetica,sans-Serif" font-size="10.00">dforce</text>
</a>
</g>
</g>
<!-- Node2&#45;&gt;Node3 -->
<g id="edge2" class="edge">
<title>Node2&#45;&gt;Node3</title>
<path fill="none" stroke="midnightblue" d="M618.41,-75.45C601.46,-108.06 566.8,-174.76 553.94,-199.5"/>
<polygon fill="midnightblue" stroke="midnightblue" points="621.55,-77 623.06,-66.51 615.34,-73.77 621.55,-77"/>
</g>
<!-- Node2&#45;&gt;Node17 -->
<g id="edge38" class="edge">
<title>Node2&#45;&gt;Node17</title>
<path fill="none" stroke="midnightblue" d="M595.88,-54.3C519.17,-47.84 325.02,-31.49 235.29,-23.94"/>
<polygon fill="midnightblue" stroke="midnightblue" points="595.65,-57.79 605.9,-55.14 596.23,-50.81 595.65,-57.79"/>
</g>
<!-- Node4 -->
<g id="node4" class="node">
<title>Node4</title>
<g id="a_node4"><a xlink:href="namespaceallglobal.html#a7824bc37519fe88336534ce90ab2af16" target="_top" xlink:title=" ">
<polygon fill="white" stroke="black" points="370.5,-370.5 370.5,-389.5 484.5,-389.5 484.5,-370.5 370.5,-370.5"/>
<text text-anchor="middle" x="427.5" y="-377.5" font-family="Helvetica,sans-Serif" font-size="10.00">allglobal::check_inputs</text>
</a>
</g>
</g>
<!-- Node3&#45;&gt;Node4 -->
<g id="edge3" class="edge">
<title>Node3&#45;&gt;Node4</title>
<path fill="none" stroke="midnightblue" d="M545.11,-228.78C540.96,-261.05 528.16,-325.03 490,-361 485.85,-364.91 480.92,-368.01 475.67,-370.48"/>
<polygon fill="midnightblue" stroke="midnightblue" points="548.59,-229.12 546.24,-218.79 541.63,-228.33 548.59,-229.12"/>
</g>
<!-- Node7 -->
<g id="node7" class="node">
<title>Node7</title>
<g id="a_node7"><a xlink:href="xspech_8f90.html#a48f45478dc2c9f70ea8aa1c60ad06503" target="_top" xlink:title="This is the main &quot;driver&quot; for the physics part of SPEC.">
<polygon fill="white" stroke="black" points="168.5,-294.5 168.5,-313.5 206.5,-313.5 206.5,-294.5 168.5,-294.5"/>
<text text-anchor="middle" x="187.5" y="-301.5" font-family="Helvetica,sans-Serif" font-size="10.00">spec</text>
</a>
</g>
</g>
<!-- Node3&#45;&gt;Node7 -->
<g id="edge37" class="edge">
<title>Node3&#45;&gt;Node7</title>
<path fill="none" stroke="midnightblue" d="M524.49,-224.29C514.33,-230.58 501.95,-237.45 490,-242 489.58,-242.16 272.24,-286.8 206.88,-300.23"/>
<polygon fill="midnightblue" stroke="midnightblue" points="526.59,-227.1 533.11,-218.75 522.81,-221.21 526.59,-227.1"/>
</g>
<!-- Node10 -->
<g id="node10" class="node">
<title>Node10</title>
<g id="a_node10"><a xlink:href="group__grp__force__driver.html#gabbc245b3884ee8d8d3e2a52f25149f78" target="_top" xlink:title="fcn1">
<polygon fill="white" stroke="black" points="410,-142.5 410,-161.5 445,-161.5 445,-142.5 410,-142.5"/>
<text text-anchor="middle" x="427.5" y="-149.5" font-family="Helvetica,sans-Serif" font-size="10.00">fcn1</text>
</a>
</g>
</g>
<!-- Node3&#45;&gt;Node10 -->
<g id="edge12" class="edge">
<title>Node3&#45;&gt;Node10</title>
<path fill="none" stroke="midnightblue" d="M523.23,-194.15C513.17,-188.15 501.2,-181.39 490,-176 475.23,-168.89 457.77,-162.24 445.24,-157.75"/>
<polygon fill="midnightblue" stroke="midnightblue" points="521.5,-197.19 531.86,-199.38 525.13,-191.21 521.5,-197.19"/>
</g>
<!-- Node11 -->
<g id="node11" class="node">
<title>Node11</title>
<g id="a_node11"><a xlink:href="group__grp__force__driver.html#gaec14f81fbdbedafbc4189489ec8ae178" target="_top" xlink:title="Employs Newton method to find , where &#160;and &#160;is defined in dforce() .">
<polygon fill="white" stroke="black" points="281,-156.5 281,-175.5 329,-175.5 329,-156.5 281,-156.5"/>
<text text-anchor="middle" x="305" y="-163.5" font-family="Helvetica,sans-Serif" font-size="10.00">newton</text>
</a>
</g>
</g>
<!-- Node3&#45;&gt;Node11 -->
<g id="edge34" class="edge">
<title>Node3&#45;&gt;Node11</title>
<path fill="none" stroke="midnightblue" d="M515.55,-203.39C466.41,-194.62 372.53,-177.87 329.09,-170.12"/>
<polygon fill="midnightblue" stroke="midnightblue" points="515.15,-206.87 525.61,-205.18 516.38,-199.98 515.15,-206.87"/>
</g>
<!-- Node12 -->
<g id="node12" class="node">
<title>Node12</title>
<g id="a_node12"><a xlink:href="group__grp__force__driver.html#ga8ccd6c7d901872702521d0a0edf95412" target="_top" xlink:title="fcn2">
<polygon fill="white" stroke="black" points="29.5,-171.5 29.5,-190.5 64.5,-190.5 64.5,-171.5 29.5,-171.5"/>
<text text-anchor="middle" x="47" y="-178.5" font-family="Helvetica,sans-Serif" font-size="10.00">fcn2</text>
</a>
</g>
</g>
<!-- Node3&#45;&gt;Node12 -->
<g id="edge21" class="edge">
<title>Node3&#45;&gt;Node12</title>
<path fill="none" stroke="midnightblue" d="M515.37,-209.4C445.6,-209.95 273.31,-209.57 130,-195 107.15,-192.68 81.06,-187.84 64.56,-184.51"/>
<polygon fill="midnightblue" stroke="midnightblue" points="515.7,-212.89 525.67,-209.3 515.64,-205.89 515.7,-212.89"/>
</g>
<!-- Node14 -->
<g id="node14" class="node">
<title>Node14</title>
<g id="a_node14"><a xlink:href="dfp200_8f90.html#a6aca59cf350d7b1941f8389d50945a43" target="_top" xlink:title="get LU Beltrami matrices">
<polygon fill="white" stroke="black" points="365,-104.5 365,-123.5 490,-123.5 490,-104.5 365,-104.5"/>
<text text-anchor="middle" x="427.5" y="-111.5" font-family="Helvetica,sans-Serif" font-size="10.00">get_lu_beltrami_matrices</text>
</a>
</g>
</g>
<!-- Node3&#45;&gt;Node14 -->
<g id="edge22" class="edge">
<title>Node3&#45;&gt;Node14</title>
<path fill="none" stroke="midnightblue" d="M537.39,-190.16C527.67,-172.9 511.08,-147.84 490,-133 484.52,-129.14 478.23,-126.05 471.81,-123.57"/>
<polygon fill="midnightblue" stroke="midnightblue" points="534.48,-192.14 542.31,-199.28 540.65,-188.82 534.48,-192.14"/>
</g>
<!-- Node19 -->
<g id="node19" class="node">
<title>Node19</title>
<g id="a_node19"><a xlink:href="group__grp__diagnostics.html#ga7401b50ec10c6598ee4a8112717a63ec" target="_top" xlink:title="Computes eigenvalues and eigenvectors of derivative matrix, .">
<polygon fill="white" stroke="black" points="282.5,-294.5 282.5,-313.5 327.5,-313.5 327.5,-294.5 282.5,-294.5"/>
<text text-anchor="middle" x="305" y="-301.5" font-family="Helvetica,sans-Serif" font-size="10.00">hesian</text>
</a>
</g>
</g>
<!-- Node3&#45;&gt;Node19 -->
<g id="edge32" class="edge">
<title>Node3&#45;&gt;Node19</title>
<path fill="none" stroke="midnightblue" d="M537.6,-227.4C528.03,-244.1 511.54,-267.89 490,-280 437.62,-309.44 363.91,-308.72 327.74,-306.16"/>
<polygon fill="midnightblue" stroke="midnightblue" points="540.72,-228.99 542.43,-218.54 534.57,-225.65 540.72,-228.99"/>
</g>
<!-- Node20 -->
<g id="node20" class="node">
<title>Node20</title>
<g id="a_node20"><a xlink:href="group__grp__conjugate__gradient.html#ga4d8415226e62a9fdb42b0fd0b464251e" target="_top" xlink:title="Returns the energy functional and it&#39;s derivatives with respect to geometry.">
<polygon fill="white" stroke="black" points="403.5,-332.5 403.5,-351.5 451.5,-351.5 451.5,-332.5 403.5,-332.5"/>
<text text-anchor="middle" x="427.5" y="-339.5" font-family="Helvetica,sans-Serif" font-size="10.00">pc00ab</text>
</a>
</g>
</g>
<!-- Node3&#45;&gt;Node20 -->
<g id="edge35" class="edge">
<title>Node3&#45;&gt;Node20</title>
<path fill="none" stroke="midnightblue" d="M541.53,-228.35C533.79,-252.44 517.45,-293.41 490,-318 479.24,-327.64 464.18,-333.6 451.65,-337.17"/>
<polygon fill="midnightblue" stroke="midnightblue" points="544.94,-229.17 544.49,-218.59 538.24,-227.14 544.94,-229.17"/>
</g>
<!-- Node5 -->
<g id="node5" class="node">
<title>Node5</title>
<g id="a_node5"><a xlink:href="xspech_8f90.html#a9fdc71dffd7c61ee4588a3f80d3ab9ce" target="_top" xlink:title="Main subroutine of SPEC.">
<polygon fill="white" stroke="black" points="281.5,-370.5 281.5,-389.5 328.5,-389.5 328.5,-370.5 281.5,-370.5"/>
<text text-anchor="middle" x="305" y="-377.5" font-family="Helvetica,sans-Serif" font-size="10.00">xspech</text>
</a>
</g>
</g>
<!-- Node4&#45;&gt;Node5 -->
<g id="edge4" class="edge">
<title>Node4&#45;&gt;Node5</title>
<path fill="none" stroke="midnightblue" d="M360.45,-380C349.06,-380 337.95,-380 328.77,-380"/>
<polygon fill="midnightblue" stroke="midnightblue" points="360.48,-383.5 370.48,-380 360.48,-376.5 360.48,-383.5"/>
</g>
<!-- Node6 -->
<g id="node6" class="node">
<title>Node6</title>
<g id="a_node6"><a xlink:href="xspech_8f90.html#a1451823a7b97101a797de616250752c1" target="_top" xlink:title="Final diagnostics.">
<polygon fill="white" stroke="black" points="143,-370.5 143,-389.5 232,-389.5 232,-370.5 143,-370.5"/>
<text text-anchor="middle" x="187.5" y="-377.5" font-family="Helvetica,sans-Serif" font-size="10.00">final_diagnostics</text>
</a>
</g>
</g>
<!-- Node5&#45;&gt;Node6 -->
<g id="edge5" class="edge">
<title>Node5&#45;&gt;Node6</title>
<path fill="none" stroke="midnightblue" d="M271.29,-373.85C259.09,-373.23 245.05,-373.09 232.04,-373.44"/>
<polygon fill="midnightblue" stroke="midnightblue" points="271.25,-377.35 281.46,-374.52 271.71,-370.37 271.25,-377.35"/>
</g>
<!-- Node5&#45;&gt;Node7 -->
<g id="edge7" class="edge">
<title>Node5&#45;&gt;Node7</title>
<path fill="none" stroke="midnightblue" d="M293.11,-362.73C289.25,-359.03 284.9,-355.39 281,-352 264.63,-337.75 263.25,-330.75 245,-319 232.99,-311.27 218.07,-305.06 206.58,-302.18"/>
<polygon fill="midnightblue" stroke="midnightblue" points="290.73,-365.32 300.04,-370.38 295.92,-360.62 290.73,-365.32"/>
</g>
<!-- Node9 -->
<g id="node9" class="node">
<title>Node9</title>
<g id="a_node9"><a xlink:href="xspech_8f90.html#a95271e8805067f801b5d4e524d6901d4" target="_top" xlink:title="Main program of SPEC.">
<polygon fill="white" stroke="black" points="155.5,-408.5 155.5,-427.5 219.5,-427.5 219.5,-408.5 155.5,-408.5"/>
<text text-anchor="middle" x="187.5" y="-415.5" font-family="Helvetica,sans-Serif" font-size="10.00">spec_main</text>
</a>
</g>
</g>
<!-- Node5&#45;&gt;Node9 -->
<g id="edge11" class="edge">
<title>Node5&#45;&gt;Node9</title>
<path fill="none" stroke="midnightblue" d="M271.92,-390.55C254.89,-396.16 234.12,-402.99 217.57,-408.44"/>
<polygon fill="midnightblue" stroke="midnightblue" points="273.05,-393.87 281.46,-387.42 270.86,-387.22 273.05,-393.87"/>
</g>
<!-- Node6&#45;&gt;Node5 -->
<g id="edge6" class="edge">
<title>Node6&#45;&gt;Node5</title>
<path fill="none" stroke="midnightblue" d="M242.05,-386.73C255.94,-386.84 270.15,-386.42 281.46,-385.48"/>
<polygon fill="midnightblue" stroke="midnightblue" points="242.09,-383.23 232.04,-386.56 241.98,-390.23 242.09,-383.23"/>
</g>
<!-- Node7&#45;&gt;Node5 -->
<g id="edge10" class="edge">
<title>Node7&#45;&gt;Node5</title>
<path fill="none" stroke="midnightblue" d="M207.64,-318.1C218.98,-323.44 233.36,-329.51 245,-337 263.25,-348.75 264.63,-355.75 281,-370 281.16,-370.14 281.31,-370.27 281.47,-370.41"/>
<polygon fill="midnightblue" stroke="midnightblue" points="209.11,-314.92 198.6,-313.58 205.98,-321.18 209.11,-314.92"/>
</g>
<!-- Node8 -->
<g id="node8" class="node">
<title>Node8</title>
<g id="a_node8"><a xlink:href="group__grp__output.html#ga0f962c09cd5d5eba99f1cba043cb3898" target="_top" xlink:title="Initialize the interface to the HDF5 library and open the output file.">
<polygon fill="white" stroke="black" points="0,-313.5 0,-332.5 94,-332.5 94,-313.5 0,-313.5"/>
<text text-anchor="middle" x="47" y="-320.5" font-family="Helvetica,sans-Serif" font-size="10.00">sphdf5::init_outfile</text>
</a>
</g>
</g>
<!-- Node7&#45;&gt;Node8 -->
<g id="edge8" class="edge">
<title>Node7&#45;&gt;Node8</title>
<path fill="none" stroke="midnightblue" d="M158.31,-307.87C139.87,-310.4 115.36,-313.76 94.12,-316.67"/>
<polygon fill="midnightblue" stroke="midnightblue" points="158.96,-311.31 168.39,-306.48 158.01,-304.38 158.96,-311.31"/>
</g>
<!-- Node8&#45;&gt;Node5 -->
<g id="edge9" class="edge">
<title>Node8&#45;&gt;Node5</title>
<path fill="none" stroke="midnightblue" d="M104.13,-331.97C143.77,-338.75 197.98,-348.94 245,-361 257.2,-364.13 270.57,-368.37 281.49,-372.04"/>
<polygon fill="midnightblue" stroke="midnightblue" points="104.57,-328.49 94.13,-330.27 103.4,-335.39 104.57,-328.49"/>
</g>
<!-- Node10&#45;&gt;Node11 -->
<g id="edge13" class="edge">
<title>Node10&#45;&gt;Node11</title>
<path fill="none" stroke="midnightblue" d="M399.51,-149.4C378.38,-150.41 349.31,-153.89 329.22,-157.85"/>
<polygon fill="midnightblue" stroke="midnightblue" points="399.85,-152.89 409.74,-149.1 399.65,-145.89 399.85,-152.89"/>
</g>
<!-- Node11&#45;&gt;Node7 -->
<g id="edge17" class="edge">
<title>Node11&#45;&gt;Node7</title>
<path fill="none" stroke="midnightblue" d="M289.15,-183.74C264.53,-213.16 216.05,-271.08 196.73,-294.17"/>
<polygon fill="midnightblue" stroke="midnightblue" points="291.96,-185.84 295.69,-175.92 286.59,-181.35 291.96,-185.84"/>
</g>
<!-- Node11&#45;&gt;Node10 -->
<g id="edge14" class="edge">
<title>Node11&#45;&gt;Node10</title>
<path fill="none" stroke="midnightblue" d="M339.21,-168.25C362.11,-166.76 391.58,-162.91 409.74,-158.79"/>
<polygon fill="midnightblue" stroke="midnightblue" points="339.02,-164.75 329.22,-168.76 339.38,-171.74 339.02,-164.75"/>
</g>
<!-- Node11&#45;&gt;Node12 -->
<g id="edge15" class="edge">
<title>Node11&#45;&gt;Node12</title>
<path fill="none" stroke="midnightblue" d="M270.49,-163.23C215.08,-163.44 106.32,-170.21 64.72,-176.47"/>
<polygon fill="midnightblue" stroke="midnightblue" points="270.81,-166.73 280.83,-163.28 270.85,-159.73 270.81,-166.73"/>
</g>
<!-- Node13 -->
<g id="node13" class="node">
<title>Node13</title>
<g id="a_node13"><a xlink:href="group__grp__force__driver.html#ga382822b303cbf8c56d6f54dcb379caf2" target="_top" xlink:title="read or write force&#45;derivative matrix">
<polygon fill="white" stroke="black" points="155,-124.5 155,-143.5 220,-143.5 220,-124.5 155,-124.5"/>
<text text-anchor="middle" x="187.5" y="-131.5" font-family="Helvetica,sans-Serif" font-size="10.00">writereadgf</text>
</a>
</g>
</g>
<!-- Node11&#45;&gt;Node13 -->
<g id="edge18" class="edge">
<title>Node11&#45;&gt;Node13</title>
<path fill="none" stroke="midnightblue" d="M277.56,-152.9C260.43,-146.97 238.05,-140.66 220,-136.64"/>
<polygon fill="midnightblue" stroke="midnightblue" points="276.36,-156.19 286.96,-156.32 278.76,-149.61 276.36,-156.19"/>
</g>
<!-- Node12&#45;&gt;Node11 -->
<g id="edge16" class="edge">
<title>Node12&#45;&gt;Node11</title>
<path fill="none" stroke="midnightblue" d="M74.85,-183.76C125.28,-184.11 233.36,-177.69 280.83,-171.44"/>
<polygon fill="midnightblue" stroke="midnightblue" points="74.79,-180.26 64.72,-183.57 74.66,-187.26 74.79,-180.26"/>
</g>
<!-- Node13&#45;&gt;Node11 -->
<g id="edge20" class="edge">
<title>Node13&#45;&gt;Node11</title>
<path fill="none" stroke="midnightblue" d="M214.61,-146.99C234.54,-153.91 261.76,-161.37 280.9,-165.13"/>
<polygon fill="midnightblue" stroke="midnightblue" points="215.79,-143.69 205.2,-143.54 213.39,-150.27 215.79,-143.69"/>
</g>
<!-- Node13&#45;&gt;Node12 -->
<g id="edge19" class="edge">
<title>Node13&#45;&gt;Node12</title>
<path fill="none" stroke="midnightblue" d="M148.77,-146.8C121.28,-156.13 85.37,-168.32 64.68,-175.34"/>
<polygon fill="midnightblue" stroke="midnightblue" points="150.13,-150.04 158.47,-143.51 147.88,-143.41 150.13,-150.04"/>
</g>
<!-- Node15 -->
<g id="node15" class="node">
<title>Node15</title>
<g id="a_node15"><a xlink:href="dfp200_8f90.html#a55ea75395f8c71731451e1add3720c7e" target="_top" xlink:title="Given the field consistent with the constraints and the geometry, computes local quantites related to...">
<polygon fill="white" stroke="black" points="282,-66.5 282,-85.5 328,-85.5 328,-66.5 282,-66.5"/>
<text text-anchor="middle" x="305" y="-73.5" font-family="Helvetica,sans-Serif" font-size="10.00">dfp200</text>
</a>
</g>
</g>
<!-- Node14&#45;&gt;Node15 -->
<g id="edge23" class="edge">
<title>Node14&#45;&gt;Node15</title>
<path fill="none" stroke="midnightblue" d="M401.27,-100.43C379.71,-92.04 348.99,-82.43 328.32,-77.66"/>
<polygon fill="midnightblue" stroke="midnightblue" points="400.17,-103.76 410.75,-104.3 402.81,-97.28 400.17,-103.76"/>
</g>
<!-- Node15&#45;&gt;Node3 -->
<g id="edge24" class="edge">
<title>Node15&#45;&gt;Node3</title>
<path fill="none" stroke="midnightblue" d="M338.24,-70.59C377.68,-65.79 444.75,-63.71 490,-95 526.76,-120.42 541,-176.7 545.37,-199.32"/>
<polygon fill="midnightblue" stroke="midnightblue" points="337.57,-67.15 328.13,-71.95 338.51,-74.08 337.57,-67.15"/>
</g>
<!-- Node15&#45;&gt;Node14 -->
<g id="edge29" class="edge">
<title>Node15&#45;&gt;Node14</title>
<path fill="none" stroke="midnightblue" d="M330.78,-89.39C343.58,-94.39 359.7,-99.85 375.05,-104.46"/>
<polygon fill="midnightblue" stroke="midnightblue" points="331.88,-86.06 321.3,-85.5 329.22,-92.54 331.88,-86.06"/>
</g>
<!-- Node16 -->
<g id="node16" class="node">
<title>Node16</title>
<g id="a_node16"><a xlink:href="dfp200_8f90.html#a7b64c7392b45d0042d8bd7379c0761a5" target="_top" xlink:title="Evaluate the derivative of the square of the magnetic field modulus. Add spectral constraint derivati...">
<polygon fill="white" stroke="black" points="150.5,-86.5 150.5,-105.5 224.5,-105.5 224.5,-86.5 150.5,-86.5"/>
<text text-anchor="middle" x="187.5" y="-93.5" font-family="Helvetica,sans-Serif" font-size="10.00">evaluate_dbb</text>
</a>
</g>
</g>
<!-- Node15&#45;&gt;Node16 -->
<g id="edge25" class="edge">
<title>Node15&#45;&gt;Node16</title>
<path fill="none" stroke="midnightblue" d="M271.71,-75.46C252.71,-77.76 229.1,-82.04 211.89,-86.4"/>
<polygon fill="midnightblue" stroke="midnightblue" points="272.16,-78.93 281.73,-74.4 271.42,-71.97 272.16,-78.93"/>
</g>
<!-- Node15&#45;&gt;Node17 -->
<g id="edge27" class="edge">
<title>Node15&#45;&gt;Node17</title>
<path fill="none" stroke="midnightblue" d="M290.76,-59.28C279.13,-49.33 261.53,-37.83 245,-30 241.82,-28.49 238.49,-27.05 235.1,-25.71"/>
<polygon fill="midnightblue" stroke="midnightblue" points="288.4,-61.86 298.07,-66.18 293.2,-56.77 288.4,-61.86"/>
</g>
<!-- Node18 -->
<g id="node18" class="node">
<title>Node18</title>
<g id="a_node18"><a xlink:href="dfp200_8f90.html#a5e56f1f4b1e6df11a9cffa6237c37469" target="_top" xlink:title="This routine evaluates the value of the magnetic field once the interface is perturbed using matrix p...">
<polygon fill="white" stroke="black" points="130,-48.5 130,-67.5 245,-67.5 245,-48.5 130,-48.5"/>
<text text-anchor="middle" x="187.5" y="-55.5" font-family="Helvetica,sans-Serif" font-size="10.00">get_perturbed_solution</text>
</a>
</g>
</g>
<!-- Node15&#45;&gt;Node18 -->
<g id="edge30" class="edge">
<title>Node15&#45;&gt;Node18</title>
<path fill="none" stroke="midnightblue" d="M271.78,-64.85C263.51,-63.13 254.35,-61.5 245.23,-60.09"/>
<polygon fill="midnightblue" stroke="midnightblue" points="271.21,-68.31 281.73,-67.07 272.73,-61.48 271.21,-68.31"/>
</g>
<!-- Node16&#45;&gt;Node15 -->
<g id="edge26" class="edge">
<title>Node16&#45;&gt;Node15</title>
<path fill="none" stroke="midnightblue" d="M235.13,-94.56C251.22,-92.11 268.5,-88.72 281.73,-85.31"/>
<polygon fill="midnightblue" stroke="midnightblue" points="234.2,-91.16 224.79,-96.03 235.18,-98.09 234.2,-91.16"/>
</g>
<!-- Node17&#45;&gt;Node15 -->
<g id="edge28" class="edge">
<title>Node17&#45;&gt;Node15</title>
<path fill="none" stroke="midnightblue" d="M209.15,-33.67C220.05,-37.97 233.52,-42.56 245,-48 257.68,-54 270.98,-62.16 281.74,-68.45"/>
<polygon fill="midnightblue" stroke="midnightblue" points="210.2,-30.31 199.63,-29.62 207.46,-36.76 210.2,-30.31"/>
</g>
<!-- Node18&#45;&gt;Node15 -->
<g id="edge31" class="edge">
<title>Node18&#45;&gt;Node15</title>
<path fill="none" stroke="midnightblue" d="M223.29,-69.67C242.26,-73.5 265.17,-76.8 281.73,-77.99"/>
<polygon fill="midnightblue" stroke="midnightblue" points="224.02,-66.25 213.51,-67.57 222.55,-73.09 224.02,-66.25"/>
</g>
<!-- Node19&#45;&gt;Node7 -->
<g id="edge33" class="edge">
<title>Node19&#45;&gt;Node7</title>
<path fill="none" stroke="midnightblue" d="M272.17,-304C251.1,-304 224.23,-304 206.71,-304"/>
<polygon fill="midnightblue" stroke="midnightblue" points="272.28,-307.5 282.28,-304 272.28,-300.5 272.28,-307.5"/>
</g>
<!-- Node21 -->
<g id="node21" class="node">
<title>Node21</title>
<g id="a_node21"><a xlink:href="group__grp__conjugate__gradient.html#ga25a3bae2ff2ee0469b045de0d033398b" target="_top" xlink:title="Use preconditioned conjugate gradient method to find minimum of energy functional.">
<polygon fill="white" stroke="black" points="281,-332.5 281,-351.5 329,-351.5 329,-332.5 281,-332.5"/>
<text text-anchor="middle" x="305" y="-339.5" font-family="Helvetica,sans-Serif" font-size="10.00">pc00aa</text>
</a>
</g>
</g>
<!-- Node20&#45;&gt;Node21 -->
<g id="edge36" class="edge">
<title>Node20&#45;&gt;Node21</title>
<path fill="none" stroke="midnightblue" d="M393.16,-342C372.81,-342 347.31,-342 329.16,-342"/>
<polygon fill="midnightblue" stroke="midnightblue" points="393.27,-345.5 403.27,-342 393.27,-338.5 393.27,-345.5"/>
</g>
<!-- Node23 -->
<g id="node23" class="node">
<title>Node23</title>
<g id="a_node23"><a xlink:href="group__grp__solver__driver.html#gacad623d4c5c006e9ad10116372f92ad3" target="_top" xlink:title="Constructs Beltrami field in given volume consistent with flux, helicity, rotational&#45;transform and/or...">
<polygon fill="white" stroke="black" points="688,-66.5 688,-85.5 739,-85.5 739,-66.5 688,-66.5"/>
<text text-anchor="middle" x="713.5" y="-73.5" font-family="Helvetica,sans-Serif" font-size="10.00">ma02aa</text>
</a>
</g>
</g>
<!-- Node22&#45;&gt;Node23 -->
<g id="edge41" class="edge">
<title>Node22&#45;&gt;Node23</title>
<path fill="none" stroke="midnightblue" d="M764.72,-76C756.1,-76 747.04,-76 739.03,-76"/>
<polygon fill="midnightblue" stroke="midnightblue" points="764.91,-79.5 774.91,-76 764.91,-72.5 764.91,-79.5"/>
</g>
<!-- Node23&#45;&gt;Node2 -->
<g id="edge42" class="edge">
<title>Node23&#45;&gt;Node2</title>
<path fill="none" stroke="midnightblue" d="M677.84,-68.02C669.17,-66.02 660.09,-63.93 652.21,-62.11"/>
<polygon fill="midnightblue" stroke="midnightblue" points="677.22,-71.47 687.75,-70.3 678.79,-64.64 677.22,-71.47"/>
</g>
</g>
</svg>
