<?xml version="1.0" encoding="UTF-8" standalone="no"?>
<!DOCTYPE svg PUBLIC "-//W3C//DTD SVG 1.1//EN"
 "http://www.w3.org/Graphics/SVG/1.1/DTD/svg11.dtd">
<!-- Generated by graphviz version 2.50.0 (20220203.2022)
 -->
<!-- Title: newton Pages: 1 -->
<svg width="495pt" height="216pt"
 viewBox="0.00 0.00 495.00 216.00" xmlns="http://www.w3.org/2000/svg" xmlns:xlink="http://www.w3.org/1999/xlink">
<g id="graph0" class="graph" transform="scale(1 1) rotate(0) translate(4 212)">
<title>newton</title>
<polygon fill="white" stroke="transparent" points="-4,4 -4,-212 491,-212 491,4 -4,4"/>
<!-- Node1 -->
<g id="node1" class="node">
<title>Node1</title>
<g id="a_node1"><a xlink:title="Employs Newton method to find , where &#160;and &#160;is defined in dforce() .">
<polygon fill="#bfbfbf" stroke="black" points="439,-123.5 439,-142.5 487,-142.5 487,-123.5 439,-123.5"/>
<text text-anchor="middle" x="463" y="-130.5" font-family="Helvetica,sans-Serif" font-size="10.00">newton</text>
</a>
</g>
</g>
<!-- Node1&#45;&gt;Node1 -->
<g id="edge7" class="edge">
<title>Node1&#45;&gt;Node1</title>
<path fill="none" stroke="midnightblue" d="M480.04,-152.4C478.9,-157.31 473.22,-161 463,-161 446.65,-161 441.92,-151.57 448.82,-142.76"/>
<polygon fill="midnightblue" stroke="midnightblue" points="483.38,-151.35 477.18,-142.76 476.66,-153.34 483.38,-151.35"/>
</g>
<!-- Node2 -->
<g id="node2" class="node">
<title>Node2</title>
<g id="a_node2"><a xlink:href="group__grp__force__driver.html#gabbc245b3884ee8d8d3e2a52f25149f78" target="_top" xlink:title="fcn1">
<polygon fill="white" stroke="black" points="353,-170.5 353,-189.5 388,-189.5 388,-170.5 353,-170.5"/>
<text text-anchor="middle" x="370.5" y="-177.5" font-family="Helvetica,sans-Serif" font-size="10.00">fcn1</text>
</a>
</g>
</g>
<!-- Node1&#45;&gt;Node2 -->
<g id="edge1" class="edge">
<title>Node1&#45;&gt;Node2</title>
<path fill="none" stroke="midnightblue" d="M429.18,-143.53C412.41,-151.6 393.16,-162.28 381.68,-170.25"/>
<polygon fill="midnightblue" stroke="midnightblue" points="431.09,-146.5 438.69,-139.12 428.15,-140.15 431.09,-146.5"/>
</g>
<!-- Node3 -->
<g id="node3" class="node">
<title>Node3</title>
<g id="a_node3"><a xlink:href="group__grp__force__driver.html#ga8ccd6c7d901872702521d0a0edf95412" target="_top" xlink:title="fcn2">
<polygon fill="white" stroke="black" points="237.5,-123.5 237.5,-142.5 272.5,-142.5 272.5,-123.5 237.5,-123.5"/>
<text text-anchor="middle" x="255" y="-130.5" font-family="Helvetica,sans-Serif" font-size="10.00">fcn2</text>
</a>
</g>
</g>
<!-- Node1&#45;&gt;Node3 -->
<g id="edge4" class="edge">
<title>Node1&#45;&gt;Node3</title>
<path fill="none" stroke="midnightblue" d="M428.71,-127.87C384.07,-125.35 306.52,-125.77 272.64,-129.11"/>
<polygon fill="midnightblue" stroke="midnightblue" points="428.56,-131.37 438.77,-128.54 429.02,-124.39 428.56,-131.37"/>
</g>
<!-- Node4 -->
<g id="node4" class="node">
<title>Node4</title>
<g id="a_node4"><a xlink:href="xspech_8f90.html#a48f45478dc2c9f70ea8aa1c60ad06503" target="_top" xlink:title="This is the main &quot;driver&quot; for the physics part of SPEC.">
<polygon fill="white" stroke="black" points="351.5,-38.5 351.5,-57.5 389.5,-57.5 389.5,-38.5 351.5,-38.5"/>
<text text-anchor="middle" x="370.5" y="-45.5" font-family="Helvetica,sans-Serif" font-size="10.00">spec</text>
</a>
</g>
</g>
<!-- Node1&#45;&gt;Node4 -->
<g id="edge8" class="edge">
<title>Node1&#45;&gt;Node4</title>
<path fill="none" stroke="midnightblue" d="M448.57,-115.25C437.36,-101.15 420.44,-81.46 403,-67 398.87,-63.58 394.06,-60.35 389.46,-57.57"/>
<polygon fill="midnightblue" stroke="midnightblue" points="445.87,-117.47 454.77,-123.21 451.39,-113.17 445.87,-117.47"/>
</g>
<!-- Node9 -->
<g id="node9" class="node">
<title>Node9</title>
<g id="a_node9"><a xlink:href="group__grp__force__driver.html#ga382822b303cbf8c56d6f54dcb379caf2" target="_top" xlink:title="read or write force&#45;derivative matrix">
<polygon fill="white" stroke="black" points="338,-76.5 338,-95.5 403,-95.5 403,-76.5 338,-76.5"/>
<text text-anchor="middle" x="370.5" y="-83.5" font-family="Helvetica,sans-Serif" font-size="10.00">writereadgf</text>
</a>
</g>
</g>
<!-- Node1&#45;&gt;Node9 -->
<g id="edge17" class="edge">
<title>Node1&#45;&gt;Node9</title>
<path fill="none" stroke="midnightblue" d="M443.43,-117.78C431.65,-110.48 416.12,-102.12 402.5,-95.65"/>
<polygon fill="midnightblue" stroke="midnightblue" points="441.68,-120.82 451.97,-123.36 445.51,-114.96 441.68,-120.82"/>
</g>
<!-- Node2&#45;&gt;Node1 -->
<g id="edge3" class="edge">
<title>Node2&#45;&gt;Node1</title>
<path fill="none" stroke="midnightblue" d="M397.23,-172.8C415.44,-164.52 438.86,-151.78 451.97,-142.64"/>
<polygon fill="midnightblue" stroke="midnightblue" points="395.8,-169.6 388.01,-176.78 398.57,-176.03 395.8,-169.6"/>
</g>
<!-- Node2&#45;&gt;Node2 -->
<g id="edge2" class="edge">
<title>Node2&#45;&gt;Node2</title>
<path fill="none" stroke="midnightblue" d="M387.54,-199.4C386.4,-204.31 380.72,-208 370.5,-208 354.15,-208 349.42,-198.57 356.32,-189.76"/>
<polygon fill="midnightblue" stroke="midnightblue" points="390.88,-198.35 384.68,-189.76 384.16,-200.34 390.88,-198.35"/>
</g>
<!-- Node3&#45;&gt;Node1 -->
<g id="edge6" class="edge">
<title>Node3&#45;&gt;Node1</title>
<path fill="none" stroke="midnightblue" d="M282.62,-137.71C323.3,-140.51 400.23,-140.43 438.77,-137.46"/>
<polygon fill="midnightblue" stroke="midnightblue" points="282.9,-134.22 272.64,-136.89 282.32,-141.2 282.9,-134.22"/>
</g>
<!-- Node3&#45;&gt;Node3 -->
<g id="edge5" class="edge">
<title>Node3&#45;&gt;Node3</title>
<path fill="none" stroke="midnightblue" d="M274.63,-152.4C273.32,-157.31 266.77,-161 255,-161 236.16,-161 230.71,-151.57 238.66,-142.76"/>
<polygon fill="midnightblue" stroke="midnightblue" points="277.88,-151.09 271.34,-142.76 271.26,-153.35 277.88,-151.09"/>
</g>
<!-- Node5 -->
<g id="node5" class="node">
<title>Node5</title>
<g id="a_node5"><a xlink:href="group__grp__output.html#ga0f962c09cd5d5eba99f1cba043cb3898" target="_top" xlink:title="Initialize the interface to the HDF5 library and open the output file.">
<polygon fill="white" stroke="black" points="208,-85.5 208,-104.5 302,-104.5 302,-85.5 208,-85.5"/>
<text text-anchor="middle" x="255" y="-92.5" font-family="Helvetica,sans-Serif" font-size="10.00">sphdf5::init_outfile</text>
</a>
</g>
</g>
<!-- Node4&#45;&gt;Node5 -->
<g id="edge9" class="edge">
<title>Node4&#45;&gt;Node5</title>
<path fill="none" stroke="midnightblue" d="M341.86,-59.44C322.7,-67.38 297.45,-77.84 279.3,-85.35"/>
<polygon fill="midnightblue" stroke="midnightblue" points="343.36,-62.61 351.26,-55.55 340.69,-56.14 343.36,-62.61"/>
</g>
<!-- Node6 -->
<g id="node6" class="node">
<title>Node6</title>
<g id="a_node6"><a xlink:href="xspech_8f90.html#a9fdc71dffd7c61ee4588a3f80d3ab9ce" target="_top" xlink:title="Main subroutine of SPEC.">
<polygon fill="white" stroke="black" points="125,-38.5 125,-57.5 172,-57.5 172,-38.5 125,-38.5"/>
<text text-anchor="middle" x="148.5" y="-45.5" font-family="Helvetica,sans-Serif" font-size="10.00">xspech</text>
</a>
</g>
</g>
<!-- Node4&#45;&gt;Node6 -->
<g id="edge16" class="edge">
<title>Node4&#45;&gt;Node6</title>
<path fill="none" stroke="midnightblue" d="M341.48,-43.32C297.43,-40.44 212.86,-40.57 172.3,-43.69"/>
<polygon fill="midnightblue" stroke="midnightblue" points="341.26,-46.81 351.5,-44.09 341.79,-39.83 341.26,-46.81"/>
</g>
<!-- Node5&#45;&gt;Node6 -->
<g id="edge10" class="edge">
<title>Node5&#45;&gt;Node6</title>
<path fill="none" stroke="midnightblue" d="M223.43,-81.25C206.59,-73.68 186.11,-64.46 170.97,-57.66"/>
<polygon fill="midnightblue" stroke="midnightblue" points="222.3,-84.58 232.85,-85.49 225.17,-78.19 222.3,-84.58"/>
</g>
<!-- Node6&#45;&gt;Node4 -->
<g id="edge13" class="edge">
<title>Node6&#45;&gt;Node4</title>
<path fill="none" stroke="midnightblue" d="M182.29,-52.97C229.36,-55.65 314.48,-55.3 351.5,-51.91"/>
<polygon fill="midnightblue" stroke="midnightblue" points="182.51,-49.48 172.3,-52.31 182.05,-56.47 182.51,-49.48"/>
</g>
<!-- Node6&#45;&gt;Node6 -->
<g id="edge15" class="edge">
<title>Node6&#45;&gt;Node6</title>
<path fill="none" stroke="midnightblue" d="M167.76,-67.4C166.47,-72.31 160.05,-76 148.5,-76 130.02,-76 124.67,-66.57 132.47,-57.76"/>
<polygon fill="midnightblue" stroke="midnightblue" points="171.02,-66.13 164.53,-57.76 164.39,-68.35 171.02,-66.13"/>
</g>
<!-- Node7 -->
<g id="node7" class="node">
<title>Node7</title>
<g id="a_node7"><a xlink:href="xspech_8f90.html#a1451823a7b97101a797de616250752c1" target="_top" xlink:title="Final diagnostics.">
<polygon fill="white" stroke="black" points="0,-38.5 0,-57.5 89,-57.5 89,-38.5 0,-38.5"/>
<text text-anchor="middle" x="44.5" y="-45.5" font-family="Helvetica,sans-Serif" font-size="10.00">final_diagnostics</text>
</a>
</g>
</g>
<!-- Node6&#45;&gt;Node7 -->
<g id="edge11" class="edge">
<title>Node6&#45;&gt;Node7</title>
<path fill="none" stroke="midnightblue" d="M114.63,-41.64C106.47,-41.27 97.59,-41.16 89.01,-41.32"/>
<polygon fill="midnightblue" stroke="midnightblue" points="114.67,-45.15 124.86,-42.28 115.1,-38.17 114.67,-45.15"/>
</g>
<!-- Node8 -->
<g id="node8" class="node">
<title>Node8</title>
<g id="a_node8"><a xlink:href="xspech_8f90.html#a95271e8805067f801b5d4e524d6901d4" target="_top" xlink:title="Main program of SPEC.">
<polygon fill="white" stroke="black" points="12.5,-0.5 12.5,-19.5 76.5,-19.5 76.5,-0.5 12.5,-0.5"/>
<text text-anchor="middle" x="44.5" y="-7.5" font-family="Helvetica,sans-Serif" font-size="10.00">spec_main</text>
</a>
</g>
</g>
<!-- Node6&#45;&gt;Node8 -->
<g id="edge14" class="edge">
<title>Node6&#45;&gt;Node8</title>
<path fill="none" stroke="midnightblue" d="M115.45,-36.06C101.23,-30.76 84.72,-24.61 71.31,-19.62"/>
<polygon fill="midnightblue" stroke="midnightblue" points="114.27,-39.36 124.86,-39.57 116.71,-32.8 114.27,-39.36"/>
</g>
<!-- Node7&#45;&gt;Node6 -->
<g id="edge12" class="edge">
<title>Node7&#45;&gt;Node6</title>
<path fill="none" stroke="midnightblue" d="M99.21,-54.74C108.25,-54.68 117.19,-54.34 124.86,-53.72"/>
<polygon fill="midnightblue" stroke="midnightblue" points="99.03,-51.24 89.01,-54.68 98.99,-58.24 99.03,-51.24"/>
</g>
<!-- Node9&#45;&gt;Node1 -->
<g id="edge19" class="edge">
<title>Node9&#45;&gt;Node1</title>
<path fill="none" stroke="midnightblue" d="M390.06,-101.21C404.13,-109.94 423.57,-120.17 438.69,-126.88"/>
<polygon fill="midnightblue" stroke="midnightblue" points="391.97,-98.28 381.68,-95.75 388.15,-104.14 391.97,-98.28"/>
</g>
<!-- Node9&#45;&gt;Node3 -->
<g id="edge18" class="edge">
<title>Node9&#45;&gt;Node3</title>
<path fill="none" stroke="midnightblue" d="M337.04,-99.48C325.93,-104.09 313.42,-109.27 302,-114 292.26,-118.03 281.36,-122.54 272.61,-126.15"/>
<polygon fill="midnightblue" stroke="midnightblue" points="338.49,-102.66 346.39,-95.6 335.81,-96.2 338.49,-102.66"/>
</g>
</g>
</svg>
