<?xml version="1.0" encoding="UTF-8" standalone="no"?>
<!DOCTYPE svg PUBLIC "-//W3C//DTD SVG 1.1//EN"
 "http://www.w3.org/Graphics/SVG/1.1/DTD/svg11.dtd">
<!-- Generated by graphviz version 2.49.0 (0)
 -->
<!-- Title: jo00aa Pages: 1 -->
<svg width="273pt" height="236pt"
 viewBox="0.00 0.00 273.00 236.00" xmlns="http://www.w3.org/2000/svg" xmlns:xlink="http://www.w3.org/1999/xlink">
<g id="graph0" class="graph" transform="scale(1 1) rotate(0) translate(4 232)">
<title>jo00aa</title>
<polygon fill="white" stroke="transparent" points="-4,4 -4,-232 269,-232 269,4 -4,4"/>
<!-- Node1 -->
<g id="node1" class="node">
<title>Node1</title>
<g id="a_node1"><a xlink:title="Measures error in Beltrami equation, .">
<polygon fill="#bfbfbf" stroke="black" points="0,-76.5 0,-95.5 45,-95.5 45,-76.5 0,-76.5"/>
<text text-anchor="middle" x="22.5" y="-83.5" font-family="Helvetica,sans-Serif" font-size="10.00">jo00aa</text>
</a>
</g>
</g>
<!-- Node1&#45;&gt;Node1 -->
<g id="edge14" class="edge">
<title>Node1&#45;&gt;Node1</title>
<path fill="none" stroke="midnightblue" d="M7.4,-95.76C0.05,-104.57 5.08,-114 22.5,-114 33.39,-114 39.44,-110.31 40.65,-105.4"/>
<polygon fill="midnightblue" stroke="midnightblue" points="43.95,-104.24 37.6,-95.76 37.28,-106.35 43.95,-104.24"/>
</g>
<!-- Node2 -->
<g id="node2" class="node">
<title>Node2</title>
<g id="a_node2"><a xlink:href="group__grp__diagnostics.html#ga20985df1b0df0503ca03ca13f1daf642" target="_top" xlink:title="Compute the magnetic field.">
<polygon fill="white" stroke="black" points="102.5,-170.5 102.5,-189.5 141.5,-189.5 141.5,-170.5 102.5,-170.5"/>
<text text-anchor="middle" x="122" y="-177.5" font-family="Helvetica,sans-Serif" font-size="10.00">bfield</text>
</a>
</g>
</g>
<!-- Node1&#45;&gt;Node2 -->
<g id="edge1" class="edge">
<title>Node1&#45;&gt;Node2</title>
<path fill="none" stroke="midnightblue" d="M30.03,-95.96C39.85,-110.41 59.56,-137.51 81,-156 84.79,-159.27 89.07,-162.35 93.4,-165.16"/>
<polygon fill="midnightblue" stroke="midnightblue" points="91.82,-168.29 102.19,-170.48 95.45,-162.31 91.82,-168.29"/>
</g>
<!-- Node5 -->
<g id="node5" class="node">
<title>Node5</title>
<g id="a_node5"><a xlink:href="group__grp__geometry.html#gaaca20aa60eaf39055f3c9d5c02a24ac2" target="_top" xlink:title="Calculates coordinates, , and metrics, using FFTs.">
<polygon fill="white" stroke="black" points="99,-76.5 99,-95.5 145,-95.5 145,-76.5 99,-76.5"/>
<text text-anchor="middle" x="122" y="-83.5" font-family="Helvetica,sans-Serif" font-size="10.00">coords</text>
</a>
</g>
</g>
<!-- Node1&#45;&gt;Node5 -->
<g id="edge5" class="edge">
<title>Node1&#45;&gt;Node5</title>
<path fill="none" stroke="midnightblue" d="M45.14,-86C57.84,-86 74.13,-86 88.36,-86"/>
<polygon fill="midnightblue" stroke="midnightblue" points="88.75,-89.5 98.75,-86 88.75,-82.5 88.75,-89.5"/>
</g>
<!-- Node6 -->
<g id="node6" class="node">
<title>Node6</title>
<g id="a_node6"><a xlink:href="group__grp__numerics.html#ga1fd52accb0646f535f9bcc46cf5a68f3" target="_top" xlink:title="Inverse Fourier transform (fftw wrapper)">
<polygon fill="white" stroke="black" points="213,-132.5 213,-151.5 251,-151.5 251,-132.5 213,-132.5"/>
<text text-anchor="middle" x="232" y="-139.5" font-family="Helvetica,sans-Serif" font-size="10.00">invfft</text>
</a>
</g>
</g>
<!-- Node1&#45;&gt;Node6 -->
<g id="edge13" class="edge">
<title>Node1&#45;&gt;Node6</title>
<path fill="none" stroke="midnightblue" d="M35,-95.63C46.05,-104.31 63.6,-116.67 81,-123 121.6,-137.77 172,-141.4 202.82,-142.11"/>
<polygon fill="midnightblue" stroke="midnightblue" points="202.8,-145.61 212.85,-142.25 202.9,-138.61 202.8,-145.61"/>
</g>
<!-- Node8 -->
<g id="node8" class="node">
<title>Node8</title>
<g id="a_node8"><a xlink:href="basefn_8f90.html#a8f42498fd0b4c464c8c2d3ce0e94c56a" target="_top" xlink:title="Get the Chebyshev polynomials with zeroth, first and second derivatives The Chebyshev polynomial has ...">
<polygon fill="white" stroke="black" points="83.5,-38.5 83.5,-57.5 160.5,-57.5 160.5,-38.5 83.5,-38.5"/>
<text text-anchor="middle" x="122" y="-45.5" font-family="Helvetica,sans-Serif" font-size="10.00">get_cheby_d2</text>
</a>
</g>
</g>
<!-- Node1&#45;&gt;Node8 -->
<g id="edge11" class="edge">
<title>Node1&#45;&gt;Node8</title>
<path fill="none" stroke="midnightblue" d="M45.14,-77.57C57.33,-72.82 72.83,-66.77 86.64,-61.39"/>
<polygon fill="midnightblue" stroke="midnightblue" points="88.28,-64.51 96.33,-57.62 85.74,-57.99 88.28,-64.51"/>
</g>
<!-- Node9 -->
<g id="node9" class="node">
<title>Node9</title>
<g id="a_node9"><a xlink:href="basefn_8f90.html#a29cbf901a18ead65d0e3a51956a3f045" target="_top" xlink:title="Get the Zernike polynomials &#160;with zeroth, first, second derivatives.">
<polygon fill="white" stroke="black" points="81,-0.5 81,-19.5 163,-19.5 163,-0.5 81,-0.5"/>
<text text-anchor="middle" x="122" y="-7.5" font-family="Helvetica,sans-Serif" font-size="10.00">get_zernike_d2</text>
</a>
</g>
</g>
<!-- Node1&#45;&gt;Node9 -->
<g id="edge12" class="edge">
<title>Node1&#45;&gt;Node9</title>
<path fill="none" stroke="midnightblue" d="M31.62,-76.1C42.06,-63.85 61.21,-42.89 81,-29 83.36,-27.34 85.89,-25.76 88.48,-24.28"/>
<polygon fill="midnightblue" stroke="midnightblue" points="90.19,-27.33 97.41,-19.58 86.93,-21.13 90.19,-27.33"/>
</g>
<!-- Node2&#45;&gt;Node2 -->
<g id="edge2" class="edge">
<title>Node2&#45;&gt;Node2</title>
<path fill="none" stroke="midnightblue" d="M106.9,-189.76C99.55,-198.57 104.58,-208 122,-208 132.89,-208 138.94,-204.31 140.15,-199.4"/>
<polygon fill="midnightblue" stroke="midnightblue" points="143.45,-198.24 137.1,-189.76 136.78,-200.35 143.45,-198.24"/>
</g>
<!-- Node3 -->
<g id="node3" class="node">
<title>Node3</title>
<g id="a_node3"><a xlink:href="basefn_8f90.html#af6a4cad04c70bfb14fd18a3bfbc843a3" target="_top" xlink:title="Get the Chebyshev polynomials with zeroth, first derivatives.">
<polygon fill="white" stroke="black" points="201.5,-208.5 201.5,-227.5 262.5,-227.5 262.5,-208.5 201.5,-208.5"/>
<text text-anchor="middle" x="232" y="-215.5" font-family="Helvetica,sans-Serif" font-size="10.00">get_cheby</text>
</a>
</g>
</g>
<!-- Node2&#45;&gt;Node3 -->
<g id="edge3" class="edge">
<title>Node2&#45;&gt;Node3</title>
<path fill="none" stroke="midnightblue" d="M141.81,-186.62C156.29,-191.71 176.76,-198.91 194.43,-205.13"/>
<polygon fill="midnightblue" stroke="midnightblue" points="193.31,-208.45 203.9,-208.47 195.63,-201.85 193.31,-208.45"/>
</g>
<!-- Node4 -->
<g id="node4" class="node">
<title>Node4</title>
<g id="a_node4"><a xlink:href="basefn_8f90.html#a38dc596fb909186b01dacc1feac03164" target="_top" xlink:title="Get the Zernike polynomials &#160;with zeroth, first derivatives.">
<polygon fill="white" stroke="black" points="199,-170.5 199,-189.5 265,-189.5 265,-170.5 199,-170.5"/>
<text text-anchor="middle" x="232" y="-177.5" font-family="Helvetica,sans-Serif" font-size="10.00">get_zernike</text>
</a>
</g>
</g>
<!-- Node2&#45;&gt;Node4 -->
<g id="edge4" class="edge">
<title>Node2&#45;&gt;Node4</title>
<path fill="none" stroke="midnightblue" d="M141.81,-180C154.7,-180 172.33,-180 188.51,-180"/>
<polygon fill="midnightblue" stroke="midnightblue" points="188.87,-183.5 198.87,-180 188.87,-176.5 188.87,-183.5"/>
</g>
<!-- Node5&#45;&gt;Node5 -->
<g id="edge6" class="edge">
<title>Node5&#45;&gt;Node5</title>
<path fill="none" stroke="midnightblue" d="M106.9,-95.76C99.55,-104.57 104.58,-114 122,-114 132.89,-114 138.94,-110.31 140.15,-105.4"/>
<polygon fill="midnightblue" stroke="midnightblue" points="143.45,-104.24 137.1,-95.76 136.78,-106.35 143.45,-104.24"/>
</g>
<!-- Node5&#45;&gt;Node6 -->
<g id="edge7" class="edge">
<title>Node5&#45;&gt;Node6</title>
<path fill="none" stroke="midnightblue" d="M141.81,-95.75C158.95,-104.64 184.47,-117.87 203.82,-127.91"/>
<polygon fill="midnightblue" stroke="midnightblue" points="202.27,-131.05 212.76,-132.54 205.5,-124.83 202.27,-131.05"/>
</g>
<!-- Node7 -->
<g id="node7" class="node">
<title>Node7</title>
<g id="a_node7"><a xlink:href="group__grp__volume.html#gae4c62d20b8fef07f4471b5b0889ab005" target="_top" xlink:title="Computes volume of each region; and, if required, the derivatives of the volume with respect to the i...">
<polygon fill="white" stroke="black" points="208,-76.5 208,-95.5 256,-95.5 256,-76.5 208,-76.5"/>
<text text-anchor="middle" x="232" y="-83.5" font-family="Helvetica,sans-Serif" font-size="10.00">volume</text>
</a>
</g>
</g>
<!-- Node5&#45;&gt;Node7 -->
<g id="edge8" class="edge">
<title>Node5&#45;&gt;Node7</title>
<path fill="none" stroke="midnightblue" d="M145.12,-80.43C160.24,-79.15 180.57,-78.91 197.65,-79.71"/>
<polygon fill="midnightblue" stroke="midnightblue" points="197.6,-83.21 207.79,-80.34 198.03,-76.23 197.6,-83.21"/>
</g>
<!-- Node7&#45;&gt;Node5 -->
<g id="edge9" class="edge">
<title>Node7&#45;&gt;Node5</title>
<path fill="none" stroke="midnightblue" d="M207.79,-91.66C192.42,-92.89 172.05,-93.08 155.13,-92.23"/>
<polygon fill="midnightblue" stroke="midnightblue" points="155.32,-88.74 145.12,-91.57 154.86,-95.72 155.32,-88.74"/>
</g>
<!-- Node7&#45;&gt;Node7 -->
<g id="edge10" class="edge">
<title>Node7&#45;&gt;Node7</title>
<path fill="none" stroke="midnightblue" d="M215.05,-95.76C206.8,-104.57 212.45,-114 232,-114 244.22,-114 251.01,-110.31 252.37,-105.4"/>
<polygon fill="midnightblue" stroke="midnightblue" points="255.59,-104.01 248.95,-95.76 248.99,-106.35 255.59,-104.01"/>
</g>
</g>
</svg>
