<?xml version="1.0" encoding="UTF-8" standalone="no"?>
<!DOCTYPE svg PUBLIC "-//W3C//DTD SVG 1.1//EN"
 "http://www.w3.org/Graphics/SVG/1.1/DTD/svg11.dtd">
<!-- Generated by graphviz version 2.47.0 (20210407.0042)
 -->
<!-- Title: jo00aa Pages: 1 -->
<svg width="273pt" height="218pt"
 viewBox="0.00 0.00 273.00 218.00" xmlns="http://www.w3.org/2000/svg" xmlns:xlink="http://www.w3.org/1999/xlink">
<g id="graph0" class="graph" transform="scale(1 1) rotate(0) translate(4 214)">
<title>jo00aa</title>
<polygon fill="white" stroke="transparent" points="-4,4 -4,-214 269,-214 269,4 -4,4"/>
<!-- Node1 -->
<g id="node1" class="node">
<title>Node1</title>
<g id="a_node1"><a xlink:title="Measures error in Beltrami equation, .">
<polygon fill="#bfbfbf" stroke="black" points="0,-76.5 0,-95.5 45,-95.5 45,-76.5 0,-76.5"/>
<text text-anchor="middle" x="22.5" y="-83.5" font-family="Helvetica,sans-Serif" font-size="10.00">jo00aa</text>
</a>
</g>
</g>
<!-- Node2 -->
<g id="node2" class="node">
<title>Node2</title>
<g id="a_node2"><a xlink:href="group__grp__diagnostics.html#ga20985df1b0df0503ca03ca13f1daf642" target="_top" xlink:title="Compute the magnetic field.">
<polygon fill="white" stroke="black" points="102.5,-152.5 102.5,-171.5 141.5,-171.5 141.5,-152.5 102.5,-152.5"/>
<text text-anchor="middle" x="122" y="-159.5" font-family="Helvetica,sans-Serif" font-size="10.00">bfield</text>
</a>
</g>
</g>
<!-- Node1&#45;&gt;Node2 -->
<g id="edge1" class="edge">
<title>Node1&#45;&gt;Node2</title>
<path fill="none" stroke="midnightblue" d="M33.17,-95.83C44.2,-106.78 63.05,-124.7 81,-138 85.28,-141.17 90.01,-144.3 94.66,-147.2"/>
<polygon fill="midnightblue" stroke="midnightblue" points="93.02,-150.29 103.4,-152.43 96.62,-144.29 93.02,-150.29"/>
</g>
<!-- Node5 -->
<g id="node5" class="node">
<title>Node5</title>
<g id="a_node5"><a xlink:href="group__grp__geometry.html#gaaca20aa60eaf39055f3c9d5c02a24ac2" target="_top" xlink:title="Calculates coordinates, , and metrics, using FFTs.">
<polygon fill="white" stroke="black" points="99,-76.5 99,-95.5 145,-95.5 145,-76.5 99,-76.5"/>
<text text-anchor="middle" x="122" y="-83.5" font-family="Helvetica,sans-Serif" font-size="10.00">coords</text>
</a>
</g>
</g>
<!-- Node1&#45;&gt;Node5 -->
<g id="edge4" class="edge">
<title>Node1&#45;&gt;Node5</title>
<path fill="none" stroke="midnightblue" d="M45.14,-86C57.84,-86 74.13,-86 88.36,-86"/>
<polygon fill="midnightblue" stroke="midnightblue" points="88.75,-89.5 98.75,-86 88.75,-82.5 88.75,-89.5"/>
</g>
<!-- Node6 -->
<g id="node6" class="node">
<title>Node6</title>
<g id="a_node6"><a xlink:href="group__grp__numerics.html#ga1fd52accb0646f535f9bcc46cf5a68f3" target="_top" xlink:title="Inverse Fourier transform (fftw wrapper)">
<polygon fill="white" stroke="black" points="213,-114.5 213,-133.5 251,-133.5 251,-114.5 213,-114.5"/>
<text text-anchor="middle" x="232" y="-121.5" font-family="Helvetica,sans-Serif" font-size="10.00">invfft</text>
</a>
</g>
</g>
<!-- Node1&#45;&gt;Node6 -->
<g id="edge10" class="edge">
<title>Node1&#45;&gt;Node6</title>
<path fill="none" stroke="midnightblue" d="M45.06,-94.22C55.74,-98.01 68.9,-102.26 81,-105 122.73,-114.44 172.12,-119.56 202.51,-122.04"/>
<polygon fill="midnightblue" stroke="midnightblue" points="202.55,-125.55 212.79,-122.83 203.09,-118.57 202.55,-125.55"/>
</g>
<!-- Node8 -->
<g id="node8" class="node">
<title>Node8</title>
<g id="a_node8"><a xlink:href="basefn_8f90.html#a8f42498fd0b4c464c8c2d3ce0e94c56a" target="_top" xlink:title="Get the Chebyshev polynomials with zeroth, first and second derivatives The Chebyshev polynomial has ...">
<polygon fill="white" stroke="black" points="83.5,-38.5 83.5,-57.5 160.5,-57.5 160.5,-38.5 83.5,-38.5"/>
<text text-anchor="middle" x="122" y="-45.5" font-family="Helvetica,sans-Serif" font-size="10.00">get_cheby_d2</text>
</a>
</g>
</g>
<!-- Node1&#45;&gt;Node8 -->
<g id="edge8" class="edge">
<title>Node1&#45;&gt;Node8</title>
<path fill="none" stroke="midnightblue" d="M45.14,-77.57C57.33,-72.82 72.83,-66.77 86.64,-61.39"/>
<polygon fill="midnightblue" stroke="midnightblue" points="88.28,-64.51 96.33,-57.62 85.74,-57.99 88.28,-64.51"/>
</g>
<!-- Node9 -->
<g id="node9" class="node">
<title>Node9</title>
<g id="a_node9"><a xlink:href="basefn_8f90.html#a29cbf901a18ead65d0e3a51956a3f045" target="_top" xlink:title="Get the Zernike polynomials &#160;with zeroth, first, second derivatives.">
<polygon fill="white" stroke="black" points="81,-0.5 81,-19.5 163,-19.5 163,-0.5 81,-0.5"/>
<text text-anchor="middle" x="122" y="-7.5" font-family="Helvetica,sans-Serif" font-size="10.00">get_zernike_d2</text>
</a>
</g>
</g>
<!-- Node1&#45;&gt;Node9 -->
<g id="edge9" class="edge">
<title>Node1&#45;&gt;Node9</title>
<path fill="none" stroke="midnightblue" d="M31.62,-76.1C42.06,-63.85 61.21,-42.89 81,-29 83.36,-27.34 85.89,-25.76 88.48,-24.28"/>
<polygon fill="midnightblue" stroke="midnightblue" points="90.19,-27.33 97.41,-19.58 86.93,-21.13 90.19,-27.33"/>
</g>
<!-- Node3 -->
<g id="node3" class="node">
<title>Node3</title>
<g id="a_node3"><a xlink:href="basefn_8f90.html#af6a4cad04c70bfb14fd18a3bfbc843a3" target="_top" xlink:title="Get the Chebyshev polynomials with zeroth, first derivatives.">
<polygon fill="white" stroke="black" points="201.5,-190.5 201.5,-209.5 262.5,-209.5 262.5,-190.5 201.5,-190.5"/>
<text text-anchor="middle" x="232" y="-197.5" font-family="Helvetica,sans-Serif" font-size="10.00">get_cheby</text>
</a>
</g>
</g>
<!-- Node2&#45;&gt;Node3 -->
<g id="edge2" class="edge">
<title>Node2&#45;&gt;Node3</title>
<path fill="none" stroke="midnightblue" d="M141.81,-168.62C156.29,-173.71 176.76,-180.91 194.43,-187.13"/>
<polygon fill="midnightblue" stroke="midnightblue" points="193.31,-190.45 203.9,-190.47 195.63,-183.85 193.31,-190.45"/>
</g>
<!-- Node4 -->
<g id="node4" class="node">
<title>Node4</title>
<g id="a_node4"><a xlink:href="basefn_8f90.html#a38dc596fb909186b01dacc1feac03164" target="_top" xlink:title="Get the Zernike polynomials &#160;with zeroth, first derivatives.">
<polygon fill="white" stroke="black" points="199,-152.5 199,-171.5 265,-171.5 265,-152.5 199,-152.5"/>
<text text-anchor="middle" x="232" y="-159.5" font-family="Helvetica,sans-Serif" font-size="10.00">get_zernike</text>
</a>
</g>
</g>
<!-- Node2&#45;&gt;Node4 -->
<g id="edge3" class="edge">
<title>Node2&#45;&gt;Node4</title>
<path fill="none" stroke="midnightblue" d="M141.81,-162C154.7,-162 172.33,-162 188.51,-162"/>
<polygon fill="midnightblue" stroke="midnightblue" points="188.87,-165.5 198.87,-162 188.87,-158.5 188.87,-165.5"/>
</g>
<!-- Node5&#45;&gt;Node6 -->
<g id="edge5" class="edge">
<title>Node5&#45;&gt;Node6</title>
<path fill="none" stroke="midnightblue" d="M145.12,-93.78C161.99,-99.72 185.33,-107.93 203.42,-114.29"/>
<polygon fill="midnightblue" stroke="midnightblue" points="202.26,-117.6 212.85,-117.61 204.58,-110.99 202.26,-117.6"/>
</g>
<!-- Node7 -->
<g id="node7" class="node">
<title>Node7</title>
<g id="a_node7"><a xlink:href="group__grp__volume.html#gae4c62d20b8fef07f4471b5b0889ab005" target="_top" xlink:title="Computes volume of each region; and, if required, the derivatives of the volume with respect to the i...">
<polygon fill="white" stroke="black" points="208,-76.5 208,-95.5 256,-95.5 256,-76.5 208,-76.5"/>
<text text-anchor="middle" x="232" y="-83.5" font-family="Helvetica,sans-Serif" font-size="10.00">volume</text>
</a>
</g>
</g>
<!-- Node5&#45;&gt;Node7 -->
<g id="edge6" class="edge">
<title>Node5&#45;&gt;Node7</title>
<path fill="none" stroke="midnightblue" d="M145.12,-80.43C160.24,-79.15 180.57,-78.91 197.65,-79.71"/>
<polygon fill="midnightblue" stroke="midnightblue" points="197.6,-83.21 207.79,-80.34 198.03,-76.23 197.6,-83.21"/>
</g>
<!-- Node7&#45;&gt;Node5 -->
<g id="edge7" class="edge">
<title>Node7&#45;&gt;Node5</title>
<path fill="none" stroke="midnightblue" d="M207.79,-91.66C192.42,-92.89 172.05,-93.08 155.13,-92.23"/>
<polygon fill="midnightblue" stroke="midnightblue" points="155.32,-88.74 145.12,-91.57 154.86,-95.72 155.32,-88.74"/>
</g>
</g>
</svg>
