<?xml version="1.0" encoding="UTF-8" standalone="no"?>
<!DOCTYPE svg PUBLIC "-//W3C//DTD SVG 1.1//EN"
 "http://www.w3.org/Graphics/SVG/1.1/DTD/svg11.dtd">
<!-- Generated by graphviz version 2.44.1 (0)
 -->
<!-- Title: bfield Pages: 1 -->
<svg width="403pt" height="66pt"
 viewBox="0.00 0.00 403.00 66.00" xmlns="http://www.w3.org/2000/svg" xmlns:xlink="http://www.w3.org/1999/xlink">
<g id="graph0" class="graph" transform="scale(1 1) rotate(0) translate(4 62)">
<title>bfield</title>
<polygon fill="white" stroke="transparent" points="-4,4 -4,-62 399,-62 399,4 -4,4"/>
<!-- Node1 -->
<g id="node1" class="node">
<title>Node1</title>
<g id="a_node1"><a xlink:title="Compute the magnetic field.">
<polygon fill="#bfbfbf" stroke="black" points="351,-19.5 351,-38.5 395,-38.5 395,-19.5 351,-19.5"/>
<text text-anchor="middle" x="373" y="-26.5" font-family="Helvetica,sans-Serif" font-size="10.00">bfield</text>
</a>
</g>
</g>
<!-- Node2 -->
<g id="node2" class="node">
<title>Node2</title>
<g id="a_node2"><a xlink:href="group__grp__diagnostics.html#ga6411205c36a7d50002d7f3fb3133c441" target="_top" xlink:title="Measures error in Beltrami equation, .">
<polygon fill="white" stroke="black" points="174.5,-38.5 174.5,-57.5 224.5,-57.5 224.5,-38.5 174.5,-38.5"/>
<text text-anchor="middle" x="199.5" y="-45.5" font-family="Helvetica,sans-Serif" font-size="10.00">jo00aa</text>
</a>
</g>
</g>
<!-- Node1&#45;&gt;Node2 -->
<g id="edge1" class="edge">
<title>Node1&#45;&gt;Node2</title>
<path fill="none" stroke="midnightblue" d="M340.85,-32.45C307.47,-36.15 255.19,-41.94 224.74,-45.31"/>
<polygon fill="midnightblue" stroke="midnightblue" points="341.42,-35.91 350.97,-31.33 340.65,-28.95 341.42,-35.91"/>
</g>
<!-- Node5 -->
<g id="node5" class="node">
<title>Node5</title>
<g id="a_node5"><a xlink:href="group__grp__diagnostics.html#ga831aed2458140e266ee4d37461dd5350" target="_top" xlink:title="Constructs Poincaré plot and &quot;approximate&quot; rotational&#45;transform (for single field line).">
<polygon fill="white" stroke="black" points="262,-0.5 262,-19.5 315,-19.5 315,-0.5 262,-0.5"/>
<text text-anchor="middle" x="288.5" y="-7.5" font-family="Helvetica,sans-Serif" font-size="10.00">pp00ab</text>
</a>
</g>
</g>
<!-- Node1&#45;&gt;Node5 -->
<g id="edge5" class="edge">
<title>Node1&#45;&gt;Node5</title>
<path fill="none" stroke="midnightblue" d="M340.8,-21.82C332.32,-19.86 323.22,-17.77 315.08,-15.89"/>
<polygon fill="midnightblue" stroke="midnightblue" points="340.22,-25.27 350.75,-24.11 341.79,-18.45 340.22,-25.27"/>
</g>
<!-- Node3 -->
<g id="node3" class="node">
<title>Node3</title>
<g id="a_node3"><a xlink:href="xspech_8f90.html#aea782eae089760a491c2c54f9903abcc" target="_top" xlink:title="Main program of SPEC.">
<polygon fill="white" stroke="black" points="86,-19.5 86,-38.5 137,-38.5 137,-19.5 86,-19.5"/>
<text text-anchor="middle" x="111.5" y="-26.5" font-family="Helvetica,sans-Serif" font-size="10.00">xspech</text>
</a>
</g>
</g>
<!-- Node2&#45;&gt;Node3 -->
<g id="edge2" class="edge">
<title>Node2&#45;&gt;Node3</title>
<path fill="none" stroke="midnightblue" d="M164.23,-40.43C155.22,-38.44 145.68,-36.33 137.27,-34.47"/>
<polygon fill="midnightblue" stroke="midnightblue" points="163.57,-43.87 174.09,-42.61 165.08,-37.03 163.57,-43.87"/>
</g>
<!-- Node4 -->
<g id="node4" class="node">
<title>Node4</title>
<g id="a_node4"><a xlink:href="xspech_8f90.html#a537af4990058c0b0f2cd8b3669af204f" target="_top" xlink:title="todo remark">
<polygon fill="white" stroke="black" points="0,-19.5 0,-38.5 50,-38.5 50,-19.5 0,-19.5"/>
<text text-anchor="middle" x="25" y="-26.5" font-family="Helvetica,sans-Serif" font-size="10.00">ending</text>
</a>
</g>
</g>
<!-- Node3&#45;&gt;Node4 -->
<g id="edge3" class="edge">
<title>Node3&#45;&gt;Node4</title>
<path fill="none" stroke="midnightblue" d="M75.5,-22.34C66.97,-22.13 58.03,-22.29 50.14,-22.83"/>
<polygon fill="midnightblue" stroke="midnightblue" points="75.46,-25.84 85.6,-22.78 75.77,-18.85 75.46,-25.84"/>
</g>
<!-- Node4&#45;&gt;Node3 -->
<g id="edge4" class="edge">
<title>Node4&#45;&gt;Node3</title>
<path fill="none" stroke="midnightblue" d="M60.19,-35.64C68.69,-35.88 77.64,-35.73 85.6,-35.22"/>
<polygon fill="midnightblue" stroke="midnightblue" points="60.29,-32.14 50.14,-35.17 59.96,-39.13 60.29,-32.14"/>
</g>
<!-- Node6 -->
<g id="node6" class="node">
<title>Node6</title>
<g id="a_node6"><a xlink:href="group__grp__diagnostics.html#gad67931244268a09bd077dae8910c7096" target="_top" xlink:title="Constructs Poincaré plot and &quot;approximate&quot; rotational&#45;transform (driver).">
<polygon fill="white" stroke="black" points="173,-0.5 173,-19.5 226,-19.5 226,-0.5 173,-0.5"/>
<text text-anchor="middle" x="199.5" y="-7.5" font-family="Helvetica,sans-Serif" font-size="10.00">pp00aa</text>
</a>
</g>
</g>
<!-- Node5&#45;&gt;Node6 -->
<g id="edge6" class="edge">
<title>Node5&#45;&gt;Node6</title>
<path fill="none" stroke="midnightblue" d="M251.74,-10C243.2,-10 234.24,-10 226.25,-10"/>
<polygon fill="midnightblue" stroke="midnightblue" points="251.87,-13.5 261.87,-10 251.87,-6.5 251.87,-13.5"/>
</g>
<!-- Node6&#45;&gt;Node3 -->
<g id="edge7" class="edge">
<title>Node6&#45;&gt;Node3</title>
<path fill="none" stroke="midnightblue" d="M162.82,-17.88C154.17,-19.79 145.11,-21.8 137.1,-23.56"/>
<polygon fill="midnightblue" stroke="midnightblue" points="163.69,-21.28 172.7,-15.7 162.18,-14.44 163.69,-21.28"/>
</g>
</g>
</svg>
