<?xml version="1.0" encoding="UTF-8" standalone="no"?>
<!DOCTYPE svg PUBLIC "-//W3C//DTD SVG 1.1//EN"
 "http://www.w3.org/Graphics/SVG/1.1/DTD/svg11.dtd">
<!-- Generated by graphviz version 2.44.1 (0)
 -->
<!-- Title: casing Pages: 1 -->
<svg width="488pt" height="123pt"
 viewBox="0.00 0.00 488.00 123.00" xmlns="http://www.w3.org/2000/svg" xmlns:xlink="http://www.w3.org/1999/xlink">
<g id="graph0" class="graph" transform="scale(1 1) rotate(0) translate(4 119)">
<title>casing</title>
<polygon fill="white" stroke="transparent" points="-4,4 -4,-119 484,-119 484,4 -4,4"/>
<!-- Node1 -->
<g id="node1" class="node">
<title>Node1</title>
<g id="a_node1"><a xlink:title="Constructs the field created by the plasma currents, at an arbitrary, external location using virtual...">
<polygon fill="#bfbfbf" stroke="black" points="432,-0.5 432,-19.5 480,-19.5 480,-0.5 432,-0.5"/>
<text text-anchor="middle" x="456" y="-7.5" font-family="Helvetica,sans-Serif" font-size="10.00">casing</text>
</a>
</g>
</g>
<!-- Node2 -->
<g id="node2" class="node">
<title>Node2</title>
<g id="a_node2"><a xlink:href="group__grp__free-boundary.html#gac0a2cc2241947b27241bb8ef75c5e0ed" target="_top" xlink:title="Computes &#160;on the computational boundary, .">
<polygon fill="white" stroke="black" points="343,-38.5 343,-57.5 394,-57.5 394,-38.5 343,-38.5"/>
<text text-anchor="middle" x="368.5" y="-45.5" font-family="Helvetica,sans-Serif" font-size="10.00">bnorml</text>
</a>
</g>
</g>
<!-- Node1&#45;&gt;Node2 -->
<g id="edge1" class="edge">
<title>Node1&#45;&gt;Node2</title>
<path fill="none" stroke="midnightblue" d="M424.16,-23.71C413.19,-28.58 401.09,-33.96 391.07,-38.41"/>
<polygon fill="midnightblue" stroke="midnightblue" points="425.71,-26.85 433.42,-19.59 422.87,-20.45 425.71,-26.85"/>
</g>
<!-- Node7 -->
<g id="node7" class="node">
<title>Node7</title>
<g id="a_node7"><a xlink:href="group__grp__free-boundary.html#ga281c12a5de84fddd3db4383b0df8627f" target="_top" xlink:title="Differential virtual casing integrand.">
<polygon fill="white" stroke="black" points="341,-0.5 341,-19.5 396,-19.5 396,-0.5 341,-0.5"/>
<text text-anchor="middle" x="368.5" y="-7.5" font-family="Helvetica,sans-Serif" font-size="10.00">dvcfield</text>
</a>
</g>
</g>
<!-- Node1&#45;&gt;Node7 -->
<g id="edge9" class="edge">
<title>Node1&#45;&gt;Node7</title>
<path fill="none" stroke="midnightblue" d="M421.39,-3.39C413.02,-3.13 404.15,-3.23 396.16,-3.69"/>
<polygon fill="midnightblue" stroke="midnightblue" points="421.47,-6.9 431.64,-3.91 421.83,0.09 421.47,-6.9"/>
</g>
<!-- Node3 -->
<g id="node3" class="node">
<title>Node3</title>
<g id="a_node3"><a xlink:href="group__grp__initialization.html#ga28628de0fdb3b3497668007d8d0643bd" target="_top" xlink:title="Allocates and initializes internal arrays.">
<polygon fill="white" stroke="black" points="258,-57.5 258,-76.5 305,-76.5 305,-57.5 258,-57.5"/>
<text text-anchor="middle" x="281.5" y="-64.5" font-family="Helvetica,sans-Serif" font-size="10.00">preset</text>
</a>
</g>
</g>
<!-- Node2&#45;&gt;Node3 -->
<g id="edge2" class="edge">
<title>Node2&#45;&gt;Node3</title>
<path fill="none" stroke="midnightblue" d="M333.07,-55.7C323.71,-57.79 313.82,-60 305.28,-61.91"/>
<polygon fill="midnightblue" stroke="midnightblue" points="333.92,-59.09 342.91,-53.5 332.39,-52.26 333.92,-59.09"/>
</g>
<!-- Node5 -->
<g id="node5" class="node">
<title>Node5</title>
<g id="a_node5"><a xlink:href="xspech_8f90.html#aea782eae089760a491c2c54f9903abcc" target="_top" xlink:title="Main program of SPEC.">
<polygon fill="white" stroke="black" points="86,-57.5 86,-76.5 137,-76.5 137,-57.5 86,-57.5"/>
<text text-anchor="middle" x="111.5" y="-64.5" font-family="Helvetica,sans-Serif" font-size="10.00">xspech</text>
</a>
</g>
</g>
<!-- Node2&#45;&gt;Node5 -->
<g id="edge8" class="edge">
<title>Node2&#45;&gt;Node5</title>
<path fill="none" stroke="midnightblue" d="M332.39,-46.84C310.89,-46.42 282.83,-46.39 258,-48 215.29,-50.78 165.98,-58.09 137.12,-62.79"/>
<polygon fill="midnightblue" stroke="midnightblue" points="332.6,-50.35 342.68,-47.08 332.77,-43.35 332.6,-50.35"/>
</g>
<!-- Node4 -->
<g id="node4" class="node">
<title>Node4</title>
<g id="a_node4"><a xlink:href="group__grp__diagnostics.html#ga7401b50ec10c6598ee4a8112717a63ec" target="_top" xlink:title="Computes eigenvalues and eigenvectors of derivative matrix, .">
<polygon fill="white" stroke="black" points="173,-95.5 173,-114.5 222,-114.5 222,-95.5 173,-95.5"/>
<text text-anchor="middle" x="197.5" y="-102.5" font-family="Helvetica,sans-Serif" font-size="10.00">hesian</text>
</a>
</g>
</g>
<!-- Node3&#45;&gt;Node4 -->
<g id="edge3" class="edge">
<title>Node3&#45;&gt;Node4</title>
<path fill="none" stroke="midnightblue" d="M250.6,-80.85C240.17,-85.69 228.7,-91 219.19,-95.41"/>
<polygon fill="midnightblue" stroke="midnightblue" points="252.21,-83.97 259.81,-76.59 249.26,-77.62 252.21,-83.97"/>
</g>
<!-- Node3&#45;&gt;Node5 -->
<g id="edge7" class="edge">
<title>Node3&#45;&gt;Node5</title>
<path fill="none" stroke="midnightblue" d="M247.54,-67C215.15,-67 166.46,-67 137.25,-67"/>
<polygon fill="midnightblue" stroke="midnightblue" points="247.84,-70.5 257.84,-67 247.84,-63.5 247.84,-70.5"/>
</g>
<!-- Node4&#45;&gt;Node5 -->
<g id="edge4" class="edge">
<title>Node4&#45;&gt;Node5</title>
<path fill="none" stroke="midnightblue" d="M165.88,-91.15C155.19,-86.31 143.44,-81 133.69,-76.59"/>
<polygon fill="midnightblue" stroke="midnightblue" points="164.75,-94.48 175.3,-95.41 167.63,-88.1 164.75,-94.48"/>
</g>
<!-- Node6 -->
<g id="node6" class="node">
<title>Node6</title>
<g id="a_node6"><a xlink:href="xspech_8f90.html#a537af4990058c0b0f2cd8b3669af204f" target="_top" xlink:title="todo remark">
<polygon fill="white" stroke="black" points="0,-57.5 0,-76.5 50,-76.5 50,-57.5 0,-57.5"/>
<text text-anchor="middle" x="25" y="-64.5" font-family="Helvetica,sans-Serif" font-size="10.00">ending</text>
</a>
</g>
</g>
<!-- Node5&#45;&gt;Node6 -->
<g id="edge5" class="edge">
<title>Node5&#45;&gt;Node6</title>
<path fill="none" stroke="midnightblue" d="M75.5,-60.34C66.97,-60.13 58.03,-60.29 50.14,-60.83"/>
<polygon fill="midnightblue" stroke="midnightblue" points="75.46,-63.84 85.6,-60.78 75.77,-56.85 75.46,-63.84"/>
</g>
<!-- Node6&#45;&gt;Node5 -->
<g id="edge6" class="edge">
<title>Node6&#45;&gt;Node5</title>
<path fill="none" stroke="midnightblue" d="M60.19,-73.64C68.69,-73.88 77.64,-73.73 85.6,-73.22"/>
<polygon fill="midnightblue" stroke="midnightblue" points="60.29,-70.14 50.14,-73.17 59.96,-77.13 60.29,-70.14"/>
</g>
<!-- Node7&#45;&gt;Node1 -->
<g id="edge10" class="edge">
<title>Node7&#45;&gt;Node1</title>
<path fill="none" stroke="midnightblue" d="M406.36,-16.69C414.94,-16.86 423.83,-16.66 431.64,-16.09"/>
<polygon fill="midnightblue" stroke="midnightblue" points="406.28,-13.19 396.16,-16.31 406.02,-20.18 406.28,-13.19"/>
</g>
</g>
</svg>
