<?xml version="1.0" encoding="UTF-8" standalone="no"?>
<!DOCTYPE svg PUBLIC "-//W3C//DTD SVG 1.1//EN"
 "http://www.w3.org/Graphics/SVG/1.1/DTD/svg11.dtd">
<!-- Generated by graphviz version 2.44.1 (0)
 -->
<!-- Title: newton Pages: 1 -->
<svg width="256pt" height="160pt"
 viewBox="0.00 0.00 256.00 160.00" xmlns="http://www.w3.org/2000/svg" xmlns:xlink="http://www.w3.org/1999/xlink">
<g id="graph0" class="graph" transform="scale(1 1) rotate(0) translate(4 156)">
<title>newton</title>
<polygon fill="white" stroke="transparent" points="-4,4 -4,-156 252,-156 252,4 -4,4"/>
<!-- Node1 -->
<g id="node1" class="node">
<title>Node1</title>
<g id="a_node1"><a xlink:title="Employs Newton method to find , where &#160;and &#160;is defined in dforce() .">
<polygon fill="#bfbfbf" stroke="black" points="195,-85.5 195,-104.5 248,-104.5 248,-85.5 195,-85.5"/>
<text text-anchor="middle" x="221.5" y="-92.5" font-family="Helvetica,sans-Serif" font-size="10.00">newton</text>
</a>
</g>
</g>
<!-- Node2 -->
<g id="node2" class="node">
<title>Node2</title>
<g id="a_node2"><a xlink:href="group__grp__force__driver.xhtml#gabbc245b3884ee8d8d3e2a52f25149f78" target="_top" xlink:title="fcn1">
<polygon fill="white" stroke="black" points="103.5,-132.5 103.5,-151.5 141.5,-151.5 141.5,-132.5 103.5,-132.5"/>
<text text-anchor="middle" x="122.5" y="-139.5" font-family="Helvetica,sans-Serif" font-size="10.00">fcn1</text>
</a>
</g>
</g>
<!-- Node1&#45;&gt;Node2 -->
<g id="edge1" class="edge">
<title>Node1&#45;&gt;Node2</title>
<path fill="none" stroke="midnightblue" d="M185.09,-105.63C167.08,-113.73 146.47,-124.41 134.24,-132.37"/>
<polygon fill="midnightblue" stroke="midnightblue" points="186.98,-108.62 194.76,-101.43 184.19,-102.2 186.98,-108.62"/>
</g>
<!-- Node3 -->
<g id="node3" class="node">
<title>Node3</title>
<g id="a_node3"><a xlink:href="group__grp__force__driver.xhtml#ga8ccd6c7d901872702521d0a0edf95412" target="_top" xlink:title="fcn2">
<polygon fill="white" stroke="black" points="6,-85.5 6,-104.5 44,-104.5 44,-85.5 6,-85.5"/>
<text text-anchor="middle" x="25" y="-92.5" font-family="Helvetica,sans-Serif" font-size="10.00">fcn2</text>
</a>
</g>
</g>
<!-- Node1&#45;&gt;Node3 -->
<g id="edge3" class="edge">
<title>Node1&#45;&gt;Node3</title>
<path fill="none" stroke="midnightblue" d="M184.68,-89.63C143.07,-87.44 76.07,-87.86 44.1,-90.87"/>
<polygon fill="midnightblue" stroke="midnightblue" points="184.48,-93.12 194.67,-90.24 184.9,-86.14 184.48,-93.12"/>
</g>
<!-- Node4 -->
<g id="node4" class="node">
<title>Node4</title>
<g id="a_node4"><a xlink:href="group__grp__force__driver.xhtml#ga382822b303cbf8c56d6f54dcb379caf2" target="_top" xlink:title="read or write force&#45;derivative matrix">
<polygon fill="white" stroke="black" points="86,-38.5 86,-57.5 159,-57.5 159,-38.5 86,-38.5"/>
<text text-anchor="middle" x="122.5" y="-45.5" font-family="Helvetica,sans-Serif" font-size="10.00">writereadgf</text>
</a>
</g>
</g>
<!-- Node1&#45;&gt;Node4 -->
<g id="edge5" class="edge">
<title>Node1&#45;&gt;Node4</title>
<path fill="none" stroke="midnightblue" d="M200.97,-80C188.3,-72.65 171.46,-64.19 156.72,-57.65"/>
<polygon fill="midnightblue" stroke="midnightblue" points="199.39,-83.13 209.75,-85.36 203.04,-77.16 199.39,-83.13"/>
</g>
<!-- Node5 -->
<g id="node5" class="node">
<title>Node5</title>
<g id="a_node5"><a xlink:href="xspech_8f90.xhtml#aea782eae089760a491c2c54f9903abcc" target="_top" xlink:title="Main program of SPEC.">
<polygon fill="white" stroke="black" points="97,-0.5 97,-19.5 148,-19.5 148,-0.5 97,-0.5"/>
<text text-anchor="middle" x="122.5" y="-7.5" font-family="Helvetica,sans-Serif" font-size="10.00">xspech</text>
</a>
</g>
</g>
<!-- Node1&#45;&gt;Node5 -->
<g id="edge8" class="edge">
<title>Node1&#45;&gt;Node5</title>
<path fill="none" stroke="midnightblue" d="M206.56,-77.05C194.91,-62.83 177.29,-43.08 159,-29 154.46,-25.5 149.18,-22.3 144.11,-19.55"/>
<polygon fill="midnightblue" stroke="midnightblue" points="204.02,-79.47 213,-85.09 209.48,-75.1 204.02,-79.47"/>
</g>
<!-- Node2&#45;&gt;Node1 -->
<g id="edge2" class="edge">
<title>Node2&#45;&gt;Node1</title>
<path fill="none" stroke="midnightblue" d="M150.89,-134.88C170.43,-126.6 195.65,-113.8 209.75,-104.64"/>
<polygon fill="midnightblue" stroke="midnightblue" points="149.51,-131.66 141.55,-138.64 152.13,-138.15 149.51,-131.66"/>
</g>
<!-- Node3&#45;&gt;Node1 -->
<g id="edge4" class="edge">
<title>Node3&#45;&gt;Node1</title>
<path fill="none" stroke="midnightblue" d="M54.39,-99.94C92.13,-102.41 158.27,-102.35 194.67,-99.76"/>
<polygon fill="midnightblue" stroke="midnightblue" points="54.34,-96.42 44.1,-99.13 53.8,-103.4 54.34,-96.42"/>
</g>
<!-- Node4&#45;&gt;Node1 -->
<g id="edge7" class="edge">
<title>Node4&#45;&gt;Node1</title>
<path fill="none" stroke="midnightblue" d="M143.09,-63.03C157.96,-71.66 178.55,-81.81 194.76,-88.57"/>
<polygon fill="midnightblue" stroke="midnightblue" points="144.6,-59.86 134.24,-57.63 140.95,-65.83 144.6,-59.86"/>
</g>
<!-- Node4&#45;&gt;Node3 -->
<g id="edge6" class="edge">
<title>Node4&#45;&gt;Node3</title>
<path fill="none" stroke="midnightblue" d="M92.81,-62.12C76.96,-69.92 57.75,-79.37 44,-86.14"/>
<polygon fill="midnightblue" stroke="midnightblue" points="94.75,-65.07 102.17,-57.51 91.66,-58.79 94.75,-65.07"/>
</g>
<!-- Node6 -->
<g id="node6" class="node">
<title>Node6</title>
<g id="a_node6"><a xlink:href="xspech_8f90.xhtml#a537af4990058c0b0f2cd8b3669af204f" target="_top" xlink:title="todo remark">
<polygon fill="white" stroke="black" points="0,-0.5 0,-19.5 50,-19.5 50,-0.5 0,-0.5"/>
<text text-anchor="middle" x="25" y="-7.5" font-family="Helvetica,sans-Serif" font-size="10.00">ending</text>
</a>
</g>
</g>
<!-- Node5&#45;&gt;Node6 -->
<g id="edge9" class="edge">
<title>Node5&#45;&gt;Node6</title>
<path fill="none" stroke="midnightblue" d="M86.66,-3.47C74.55,-3.04 61.24,-3.23 50.18,-4.04"/>
<polygon fill="midnightblue" stroke="midnightblue" points="86.74,-6.98 96.91,-4.01 87.1,0.01 86.74,-6.98"/>
</g>
<!-- Node6&#45;&gt;Node5 -->
<g id="edge10" class="edge">
<title>Node6&#45;&gt;Node5</title>
<path fill="none" stroke="midnightblue" d="M60.39,-16.51C72.47,-16.96 85.79,-16.78 96.91,-15.99"/>
<polygon fill="midnightblue" stroke="midnightblue" points="60.35,-13 50.18,-15.96 59.98,-19.99 60.35,-13"/>
</g>
</g>
</svg>
