<?xml version="1.0" encoding="UTF-8" standalone="no"?>
<!DOCTYPE svg PUBLIC "-//W3C//DTD SVG 1.1//EN"
 "http://www.w3.org/Graphics/SVG/1.1/DTD/svg11.dtd">
<!-- Generated by graphviz version 2.44.0 ()
 -->
<!-- Title: newton Pages: 1 -->
<svg width="405pt" height="142pt"
 viewBox="0.00 0.00 405.00 142.00" xmlns="http://www.w3.org/2000/svg" xmlns:xlink="http://www.w3.org/1999/xlink">
<g id="graph0" class="graph" transform="scale(1 1) rotate(0) translate(4 138)">
<title>newton</title>
<polygon fill="white" stroke="transparent" points="-4,4 -4,-138 401,-138 401,4 -4,4"/>
<!-- Node1 -->
<g id="node1" class="node">
<title>Node1</title>
<g id="a_node1"><a xlink:title="Employs Newton method to find , where &#160;and &#160;is defined in dforce() .">
<polygon fill="#bfbfbf" stroke="black" points="0,-47.5 0,-66.5 48,-66.5 48,-47.5 0,-47.5"/>
<text text-anchor="middle" x="24" y="-54.5" font-family="Helvetica,sans-Serif" font-size="10.00">newton</text>
</a>
</g>
</g>
<!-- Node2 -->
<g id="node2" class="node">
<title>Node2</title>
<g id="a_node2"><a xlink:href="group__grp__force__driver.html#gabbc245b3884ee8d8d3e2a52f25149f78" target="_top" xlink:title="fcn1">
<polygon fill="white" stroke="black" points="84,-85.5 84,-104.5 119,-104.5 119,-85.5 84,-85.5"/>
<text text-anchor="middle" x="101.5" y="-92.5" font-family="Helvetica,sans-Serif" font-size="10.00">fcn1</text>
</a>
</g>
</g>
<!-- Node1&#45;&gt;Node2 -->
<g id="edge1" class="edge">
<title>Node1&#45;&gt;Node2</title>
<path fill="none" stroke="midnightblue" d="M48.06,-62.33C58.95,-67.07 71.78,-73.65 82.01,-79.8"/>
<polygon fill="midnightblue" stroke="midnightblue" points="80.25,-82.82 90.56,-85.25 84.02,-76.92 80.25,-82.82"/>
</g>
<!-- Node5 -->
<g id="node5" class="node">
<title>Node5</title>
<g id="a_node5"><a xlink:href="group__grp__force__driver.html#ga8ccd6c7d901872702521d0a0edf95412" target="_top" xlink:title="fcn2">
<polygon fill="white" stroke="black" points="84,-47.5 84,-66.5 119,-66.5 119,-47.5 84,-47.5"/>
<text text-anchor="middle" x="101.5" y="-54.5" font-family="Helvetica,sans-Serif" font-size="10.00">fcn2</text>
</a>
</g>
</g>
<!-- Node1&#45;&gt;Node5 -->
<g id="edge5" class="edge">
<title>Node1&#45;&gt;Node5</title>
<path fill="none" stroke="midnightblue" d="M48.06,-50.73C56.11,-50.18 65.22,-50.1 73.56,-50.5"/>
<polygon fill="midnightblue" stroke="midnightblue" points="73.33,-54 83.57,-51.26 73.86,-47.02 73.33,-54"/>
</g>
<!-- Node9 -->
<g id="node9" class="node">
<title>Node9</title>
<g id="a_node9"><a xlink:href="group__grp__force__driver.html#ga382822b303cbf8c56d6f54dcb379caf2" target="_top" xlink:title="read or write force&#45;derivative matrix">
<polygon fill="white" stroke="black" points="165.5,-0.5 165.5,-19.5 230.5,-19.5 230.5,-0.5 165.5,-0.5"/>
<text text-anchor="middle" x="198" y="-7.5" font-family="Helvetica,sans-Serif" font-size="10.00">writereadgf</text>
</a>
</g>
</g>
<!-- Node1&#45;&gt;Node9 -->
<g id="edge16" class="edge">
<title>Node1&#45;&gt;Node9</title>
<path fill="none" stroke="midnightblue" d="M34.54,-47.34C46.16,-40.74 66.4,-34.01 84,-29 107.39,-22.34 133.75,-15.76 155.13,-11.59"/>
<polygon fill="midnightblue" stroke="midnightblue" points="155.98,-14.99 165.19,-9.74 154.72,-8.1 155.98,-14.99"/>
</g>
<!-- Node2&#45;&gt;Node1 -->
<g id="edge2" class="edge">
<title>Node2&#45;&gt;Node1</title>
<path fill="none" stroke="midnightblue" d="M83.99,-92.38C72.03,-87.7 55.86,-79.63 43.47,-72.19"/>
<polygon fill="midnightblue" stroke="midnightblue" points="45.18,-69.13 34.87,-66.7 41.41,-75.03 45.18,-69.13"/>
</g>
<!-- Node3 -->
<g id="node3" class="node">
<title>Node3</title>
<g id="a_node3"><a xlink:href="group__grp__packing.html#ga094e630c02686dd178749eb1efbf13fb" target="_top" xlink:title="Packs, and unpacks, geometrical degrees of freedom; and sets coordinate axis.">
<polygon fill="white" stroke="black" points="176,-114.5 176,-133.5 220,-133.5 220,-114.5 176,-114.5"/>
<text text-anchor="middle" x="198" y="-121.5" font-family="Helvetica,sans-Serif" font-size="10.00">packxi</text>
</a>
</g>
</g>
<!-- Node2&#45;&gt;Node3 -->
<g id="edge3" class="edge">
<title>Node2&#45;&gt;Node3</title>
<path fill="none" stroke="midnightblue" d="M119.39,-100.18C132.37,-104.17 150.65,-109.78 166.21,-114.55"/>
<polygon fill="midnightblue" stroke="midnightblue" points="165.37,-117.95 175.95,-117.54 167.42,-111.26 165.37,-117.95"/>
</g>
<!-- Node4 -->
<g id="node4" class="node">
<title>Node4</title>
<g id="a_node4"><a xlink:href="namespaceallglobal.html#a282c297c96abdab5e76b5ace440b09a8" target="_top" xlink:title="The restart file is written.">
<polygon fill="white" stroke="black" points="155,-76.5 155,-95.5 241,-95.5 241,-76.5 155,-76.5"/>
<text text-anchor="middle" x="198" y="-83.5" font-family="Helvetica,sans-Serif" font-size="10.00">allglobal::wrtend</text>
</a>
</g>
</g>
<!-- Node2&#45;&gt;Node4 -->
<g id="edge4" class="edge">
<title>Node2&#45;&gt;Node4</title>
<path fill="none" stroke="midnightblue" d="M119.39,-93.39C126.65,-92.7 135.55,-91.85 144.71,-90.98"/>
<polygon fill="midnightblue" stroke="midnightblue" points="145.07,-94.46 154.69,-90.03 144.4,-87.49 145.07,-94.46"/>
</g>
<!-- Node5&#45;&gt;Node1 -->
<g id="edge6" class="edge">
<title>Node5&#45;&gt;Node1</title>
<path fill="none" stroke="midnightblue" d="M83.57,-62.74C76.04,-63.56 66.91,-63.88 58.11,-63.7"/>
<polygon fill="midnightblue" stroke="midnightblue" points="58.2,-60.21 48.06,-63.27 57.9,-67.2 58.2,-60.21"/>
</g>
<!-- Node5&#45;&gt;Node3 -->
<g id="edge7" class="edge">
<title>Node5&#45;&gt;Node3</title>
<path fill="none" stroke="midnightblue" d="M111.42,-66.82C121.3,-77.29 138.09,-93.85 155,-105 158.61,-107.38 162.56,-109.6 166.56,-111.62"/>
<polygon fill="midnightblue" stroke="midnightblue" points="165.27,-114.88 175.81,-115.97 168.24,-108.55 165.27,-114.88"/>
</g>
<!-- Node5&#45;&gt;Node4 -->
<g id="edge15" class="edge">
<title>Node5&#45;&gt;Node4</title>
<path fill="none" stroke="midnightblue" d="M119.39,-62.18C129.63,-65.33 143.17,-69.48 156.06,-73.44"/>
<polygon fill="midnightblue" stroke="midnightblue" points="155.15,-76.82 165.74,-76.41 157.2,-70.13 155.15,-76.82"/>
</g>
<!-- Node6 -->
<g id="node6" class="node">
<title>Node6</title>
<g id="a_node6"><a xlink:href="group__grp__volume.html#gae4c62d20b8fef07f4471b5b0889ab005" target="_top" xlink:title="Computes volume of each region; and, if required, the derivatives of the volume with respect to the i...">
<polygon fill="white" stroke="black" points="174,-38.5 174,-57.5 222,-57.5 222,-38.5 174,-38.5"/>
<text text-anchor="middle" x="198" y="-45.5" font-family="Helvetica,sans-Serif" font-size="10.00">volume</text>
</a>
</g>
</g>
<!-- Node5&#45;&gt;Node6 -->
<g id="edge8" class="edge">
<title>Node5&#45;&gt;Node6</title>
<path fill="none" stroke="midnightblue" d="M119.39,-55.39C131.73,-54.22 148.86,-52.59 163.88,-51.15"/>
<polygon fill="midnightblue" stroke="midnightblue" points="164.24,-54.64 173.86,-50.2 163.58,-47.67 164.24,-54.64"/>
</g>
<!-- Node5&#45;&gt;Node9 -->
<g id="edge12" class="edge">
<title>Node5&#45;&gt;Node9</title>
<path fill="none" stroke="midnightblue" d="M119.38,-47.64C129.6,-42.06 142.95,-34.93 155,-29 158.53,-27.26 162.26,-25.49 165.98,-23.76"/>
<polygon fill="midnightblue" stroke="midnightblue" points="167.44,-26.94 175.07,-19.59 164.53,-20.57 167.44,-26.94"/>
</g>
<!-- Node7 -->
<g id="node7" class="node">
<title>Node7</title>
<g id="a_node7"><a xlink:href="group__grp__geometry.html#gaaca20aa60eaf39055f3c9d5c02a24ac2" target="_top" xlink:title="Calculates coordinates, , and metrics, using FFTs.">
<polygon fill="white" stroke="black" points="277,-38.5 277,-57.5 323,-57.5 323,-38.5 277,-38.5"/>
<text text-anchor="middle" x="300" y="-45.5" font-family="Helvetica,sans-Serif" font-size="10.00">coords</text>
</a>
</g>
</g>
<!-- Node6&#45;&gt;Node7 -->
<g id="edge9" class="edge">
<title>Node6&#45;&gt;Node7</title>
<path fill="none" stroke="midnightblue" d="M222.19,-42.2C235.47,-41.16 252.33,-40.97 266.87,-41.65"/>
<polygon fill="midnightblue" stroke="midnightblue" points="266.76,-45.15 276.96,-42.29 267.21,-38.16 266.76,-45.15"/>
</g>
<!-- Node7&#45;&gt;Node6 -->
<g id="edge11" class="edge">
<title>Node7&#45;&gt;Node6</title>
<path fill="none" stroke="midnightblue" d="M276.96,-53.71C263.9,-54.8 247.08,-55.03 232.41,-54.41"/>
<polygon fill="midnightblue" stroke="midnightblue" points="232.38,-50.9 222.19,-53.8 231.97,-57.89 232.38,-50.9"/>
</g>
<!-- Node8 -->
<g id="node8" class="node">
<title>Node8</title>
<g id="a_node8"><a xlink:href="group__grp__numerics.html#ga1fd52accb0646f535f9bcc46cf5a68f3" target="_top" xlink:title="Inverse Fourier transform (fftw wrapper)">
<polygon fill="white" stroke="black" points="359,-38.5 359,-57.5 397,-57.5 397,-38.5 359,-38.5"/>
<text text-anchor="middle" x="378" y="-45.5" font-family="Helvetica,sans-Serif" font-size="10.00">invfft</text>
</a>
</g>
</g>
<!-- Node7&#45;&gt;Node8 -->
<g id="edge10" class="edge">
<title>Node7&#45;&gt;Node8</title>
<path fill="none" stroke="midnightblue" d="M323.39,-48C331.27,-48 340.24,-48 348.55,-48"/>
<polygon fill="midnightblue" stroke="midnightblue" points="348.6,-51.5 358.6,-48 348.6,-44.5 348.6,-51.5"/>
</g>
<!-- Node9&#45;&gt;Node1 -->
<g id="edge14" class="edge">
<title>Node9&#45;&gt;Node1</title>
<path fill="none" stroke="midnightblue" d="M181.19,-19.58C159.26,-27.57 118.41,-37.21 84,-47 75.54,-49.41 66.46,-52.22 58.03,-54.63"/>
<polygon fill="midnightblue" stroke="midnightblue" points="56.87,-51.32 48.15,-57.32 58.71,-58.07 56.87,-51.32"/>
</g>
<!-- Node10 -->
<g id="node10" class="node">
<title>Node10</title>
<g id="a_node10"><a xlink:href="group__grp__build__matrices.html#ga1c52bb6dbffdb432550aae12b096080f" target="_top" xlink:title="Constructs energy and helicity matrices that represent the Beltrami linear system....">
<polygon fill="white" stroke="black" points="278.5,-0.5 278.5,-19.5 321.5,-19.5 321.5,-0.5 278.5,-0.5"/>
<text text-anchor="middle" x="300" y="-7.5" font-family="Helvetica,sans-Serif" font-size="10.00">matrix</text>
</a>
</g>
</g>
<!-- Node9&#45;&gt;Node10 -->
<g id="edge13" class="edge">
<title>Node9&#45;&gt;Node10</title>
<path fill="none" stroke="midnightblue" d="M230.64,-10C242.56,-10 256.09,-10 267.95,-10"/>
<polygon fill="midnightblue" stroke="midnightblue" points="268.28,-13.5 278.28,-10 268.28,-6.5 268.28,-13.5"/>
</g>
</g>
</svg>
