<?xml version="1.0" encoding="UTF-8" standalone="no"?>
<!DOCTYPE svg PUBLIC "-//W3C//DTD SVG 1.1//EN"
 "http://www.w3.org/Graphics/SVG/1.1/DTD/svg11.dtd">
<!-- Generated by graphviz version 2.47.1 (20210421.1823)
 -->
<!-- Title: packxi Pages: 1 -->
<svg width="658pt" height="454pt"
 viewBox="0.00 0.00 658.00 454.00" xmlns="http://www.w3.org/2000/svg" xmlns:xlink="http://www.w3.org/1999/xlink">
<g id="graph0" class="graph" transform="scale(1 1) rotate(0) translate(4 450)">
<title>packxi</title>
<polygon fill="white" stroke="transparent" points="-4,4 -4,-450 654,-450 654,4 -4,4"/>
<!-- Node1 -->
<g id="node1" class="node">
<title>Node1</title>
<g id="a_node1"><a xlink:title="Packs, and unpacks, geometrical degrees of freedom; and sets coordinate axis.">
<polygon fill="#bfbfbf" stroke="black" points="606,-66.5 606,-85.5 650,-85.5 650,-66.5 606,-66.5"/>
<text text-anchor="middle" x="628" y="-73.5" font-family="Helvetica,sans-Serif" font-size="10.00">packxi</text>
</a>
</g>
</g>
<!-- Node2 -->
<g id="node2" class="node">
<title>Node2</title>
<g id="a_node2"><a xlink:href="group__grp__global__force.html#ga38c9d3c50bd043707fefa5137c9dbf44" target="_top" xlink:title="Calculates , where &#160;and , and .">
<polygon fill="white" stroke="black" points="526,-199.5 526,-218.5 570,-218.5 570,-199.5 526,-199.5"/>
<text text-anchor="middle" x="548" y="-206.5" font-family="Helvetica,sans-Serif" font-size="10.00">dforce</text>
</a>
</g>
</g>
<!-- Node1&#45;&gt;Node2 -->
<g id="edge1" class="edge">
<title>Node1&#45;&gt;Node2</title>
<path fill="none" stroke="midnightblue" d="M616.13,-94.53C599.35,-123.14 567.73,-177.05 554.77,-199.16"/>
<polygon fill="midnightblue" stroke="midnightblue" points="619.35,-95.96 621.39,-85.57 613.31,-92.42 619.35,-95.96"/>
</g>
<!-- Node5 -->
<g id="node5" class="node">
<title>Node5</title>
<g id="a_node5"><a xlink:href="xspech_8f90.html#a48f45478dc2c9f70ea8aa1c60ad06503" target="_top" xlink:title=" ">
<polygon fill="white" stroke="black" points="168.5,-142.5 168.5,-161.5 206.5,-161.5 206.5,-142.5 168.5,-142.5"/>
<text text-anchor="middle" x="187.5" y="-149.5" font-family="Helvetica,sans-Serif" font-size="10.00">spec</text>
</a>
</g>
</g>
<!-- Node1&#45;&gt;Node5 -->
<g id="edge36" class="edge">
<title>Node1&#45;&gt;Node5</title>
<path fill="none" stroke="midnightblue" d="M595.8,-69.29C546.52,-59.68 447.76,-44.48 365,-57 326.36,-62.84 315.83,-65.28 281,-83 248.32,-99.62 215.09,-127.74 198.8,-142.42"/>
<polygon fill="midnightblue" stroke="midnightblue" points="595.33,-72.76 605.82,-71.3 596.7,-65.9 595.33,-72.76"/>
</g>
<!-- Node7 -->
<g id="node7" class="node">
<title>Node7</title>
<g id="a_node7"><a xlink:href="group__grp__force__driver.html#gabbc245b3884ee8d8d3e2a52f25149f78" target="_top" xlink:title="fcn1">
<polygon fill="white" stroke="black" points="410,-294.5 410,-313.5 445,-313.5 445,-294.5 410,-294.5"/>
<text text-anchor="middle" x="427.5" y="-301.5" font-family="Helvetica,sans-Serif" font-size="10.00">fcn1</text>
</a>
</g>
</g>
<!-- Node1&#45;&gt;Node7 -->
<g id="edge33" class="edge">
<title>Node1&#45;&gt;Node7</title>
<path fill="none" stroke="midnightblue" d="M624.01,-95.74C618.38,-127 603.63,-188.39 570,-228 535.71,-268.39 474.38,-290.69 445.03,-299.5"/>
<polygon fill="midnightblue" stroke="midnightblue" points="627.49,-96.13 625.68,-85.69 620.59,-94.97 627.49,-96.13"/>
</g>
<!-- Node9 -->
<g id="node9" class="node">
<title>Node9</title>
<g id="a_node9"><a xlink:href="group__grp__force__driver.html#ga8ccd6c7d901872702521d0a0edf95412" target="_top" xlink:title="fcn2">
<polygon fill="white" stroke="black" points="29.5,-265.5 29.5,-284.5 64.5,-284.5 64.5,-265.5 29.5,-265.5"/>
<text text-anchor="middle" x="47" y="-272.5" font-family="Helvetica,sans-Serif" font-size="10.00">fcn2</text>
</a>
</g>
</g>
<!-- Node1&#45;&gt;Node9 -->
<g id="edge34" class="edge">
<title>Node1&#45;&gt;Node9</title>
<path fill="none" stroke="midnightblue" d="M604.07,-60.87C568.19,-38.7 495.91,0 428.5,0 428.5,0 428.5,0 304,0 206.66,0 194.25,-59.88 130,-133 91.67,-176.63 62.36,-240.89 52.03,-265.2"/>
<polygon fill="midnightblue" stroke="midnightblue" points="602.46,-63.99 612.78,-66.37 606.2,-58.07 602.46,-63.99"/>
</g>
<!-- Node16 -->
<g id="node16" class="node">
<title>Node16</title>
<g id="a_node16"><a xlink:href="group__grp__diagnostics.html#ga7401b50ec10c6598ee4a8112717a63ec" target="_top" xlink:title="Computes eigenvalues and eigenvectors of derivative matrix, .">
<polygon fill="white" stroke="black" points="405,-66.5 405,-85.5 450,-85.5 450,-66.5 405,-66.5"/>
<text text-anchor="middle" x="427.5" y="-73.5" font-family="Helvetica,sans-Serif" font-size="10.00">hesian</text>
</a>
</g>
</g>
<!-- Node1&#45;&gt;Node16 -->
<g id="edge35" class="edge">
<title>Node1&#45;&gt;Node16</title>
<path fill="none" stroke="midnightblue" d="M595.62,-76C555.03,-76 485.38,-76 450.19,-76"/>
<polygon fill="midnightblue" stroke="midnightblue" points="595.76,-79.5 605.76,-76 595.76,-72.5 595.76,-79.5"/>
</g>
<!-- Node3 -->
<g id="node3" class="node">
<title>Node3</title>
<g id="a_node3"><a xlink:href="namespaceallglobal.html#a7824bc37519fe88336534ce90ab2af16" target="_top" xlink:title=" ">
<polygon fill="white" stroke="black" points="370.5,-180.5 370.5,-199.5 484.5,-199.5 484.5,-180.5 370.5,-180.5"/>
<text text-anchor="middle" x="427.5" y="-187.5" font-family="Helvetica,sans-Serif" font-size="10.00">allglobal::check_inputs</text>
</a>
</g>
</g>
<!-- Node2&#45;&gt;Node3 -->
<g id="edge2" class="edge">
<title>Node2&#45;&gt;Node3</title>
<path fill="none" stroke="midnightblue" d="M515.94,-204.02C506.31,-202.48 495.38,-200.72 484.59,-198.99"/>
<polygon fill="midnightblue" stroke="midnightblue" points="515.39,-207.48 525.81,-205.6 516.49,-200.56 515.39,-207.48"/>
</g>
<!-- Node2&#45;&gt;Node5 -->
<g id="edge32" class="edge">
<title>Node2&#45;&gt;Node5</title>
<path fill="none" stroke="midnightblue" d="M538.97,-190.04C530.03,-171.64 513.65,-144.82 490,-133 392.9,-84.45 255.7,-126.84 206.74,-144.84"/>
<polygon fill="midnightblue" stroke="midnightblue" points="535.84,-191.6 543.18,-199.24 542.21,-188.69 535.84,-191.6"/>
</g>
<!-- Node2&#45;&gt;Node7 -->
<g id="edge7" class="edge">
<title>Node2&#45;&gt;Node7</title>
<path fill="none" stroke="midnightblue" d="M536.09,-227.48C525.91,-243.31 509.42,-265.75 490,-280 476.42,-289.97 458.16,-296.4 445.07,-300.07"/>
<polygon fill="midnightblue" stroke="midnightblue" points="539.29,-228.95 541.57,-218.61 533.34,-225.27 539.29,-228.95"/>
</g>
<!-- Node8 -->
<g id="node8" class="node">
<title>Node8</title>
<g id="a_node8"><a xlink:href="group__grp__force__driver.html#gaec14f81fbdbedafbc4189489ec8ae178" target="_top" xlink:title="Employs Newton method to find , where &#160;and &#160;is defined in dforce() .">
<polygon fill="white" stroke="black" points="281,-280.5 281,-299.5 329,-299.5 329,-280.5 281,-280.5"/>
<text text-anchor="middle" x="305" y="-287.5" font-family="Helvetica,sans-Serif" font-size="10.00">newton</text>
</a>
</g>
</g>
<!-- Node2&#45;&gt;Node8 -->
<g id="edge29" class="edge">
<title>Node2&#45;&gt;Node8</title>
<path fill="none" stroke="midnightblue" d="M524.37,-223.99C514.19,-230.23 501.82,-237.14 490,-242 434.27,-264.91 364.49,-279.55 329.01,-286.07"/>
<polygon fill="midnightblue" stroke="midnightblue" points="526.44,-226.83 533.02,-218.53 522.7,-220.91 526.44,-226.83"/>
</g>
<!-- Node2&#45;&gt;Node9 -->
<g id="edge16" class="edge">
<title>Node2&#45;&gt;Node9</title>
<path fill="none" stroke="midnightblue" d="M515.74,-213.13C420.56,-225.72 136.46,-263.3 64.64,-272.8"/>
<polygon fill="midnightblue" stroke="midnightblue" points="516.42,-216.57 525.88,-211.79 515.5,-209.64 516.42,-216.57"/>
</g>
<!-- Node11 -->
<g id="node11" class="node">
<title>Node11</title>
<g id="a_node11"><a xlink:href="dfp200_8f90.html#a6aca59cf350d7b1941f8389d50945a43" target="_top" xlink:title="get LU Beltrami matrices">
<polygon fill="white" stroke="black" points="365,-341.5 365,-360.5 490,-360.5 490,-341.5 365,-341.5"/>
<text text-anchor="middle" x="427.5" y="-348.5" font-family="Helvetica,sans-Serif" font-size="10.00">get_lu_beltrami_matrices</text>
</a>
</g>
</g>
<!-- Node2&#45;&gt;Node11 -->
<g id="edge17" class="edge">
<title>Node2&#45;&gt;Node11</title>
<path fill="none" stroke="midnightblue" d="M541.76,-228.28C534.13,-253.11 517.75,-296.24 490,-323 481.64,-331.06 470.55,-337.08 460.09,-341.42"/>
<polygon fill="midnightblue" stroke="midnightblue" points="545.15,-229.15 544.58,-218.57 538.43,-227.19 545.15,-229.15"/>
</g>
<!-- Node2&#45;&gt;Node16 -->
<g id="edge27" class="edge">
<title>Node2&#45;&gt;Node16</title>
<path fill="none" stroke="midnightblue" d="M541.53,-189.65C533.79,-165.56 517.45,-124.59 490,-100 478.82,-89.98 462.97,-83.93 450.17,-80.41"/>
<polygon fill="midnightblue" stroke="midnightblue" points="538.24,-190.86 544.49,-199.41 544.94,-188.83 538.24,-190.86"/>
</g>
<!-- Node17 -->
<g id="node17" class="node">
<title>Node17</title>
<g id="a_node17"><a xlink:href="group__grp__conjugate__gradient.html#ga4d8415226e62a9fdb42b0fd0b464251e" target="_top" xlink:title="Returns the energy functional and it&#39;s derivatives with respect to geometry.">
<polygon fill="white" stroke="black" points="403.5,-142.5 403.5,-161.5 451.5,-161.5 451.5,-142.5 403.5,-142.5"/>
<text text-anchor="middle" x="427.5" y="-149.5" font-family="Helvetica,sans-Serif" font-size="10.00">pc00ab</text>
</a>
</g>
</g>
<!-- Node2&#45;&gt;Node17 -->
<g id="edge30" class="edge">
<title>Node2&#45;&gt;Node17</title>
<path fill="none" stroke="midnightblue" d="M526.83,-193.47C516.29,-185.91 502.92,-177.14 490,-171 477.79,-165.19 463.38,-160.63 451.58,-157.43"/>
<polygon fill="midnightblue" stroke="midnightblue" points="524.82,-196.34 534.94,-199.46 528.97,-190.7 524.82,-196.34"/>
</g>
<!-- Node4 -->
<g id="node4" class="node">
<title>Node4</title>
<g id="a_node4"><a xlink:href="xspech_8f90.html#aea782eae089760a491c2c54f9903abcc" target="_top" xlink:title="Main program of SPEC.">
<polygon fill="white" stroke="black" points="281.5,-180.5 281.5,-199.5 328.5,-199.5 328.5,-180.5 281.5,-180.5"/>
<text text-anchor="middle" x="305" y="-187.5" font-family="Helvetica,sans-Serif" font-size="10.00">xspech</text>
</a>
</g>
</g>
<!-- Node3&#45;&gt;Node4 -->
<g id="edge3" class="edge">
<title>Node3&#45;&gt;Node4</title>
<path fill="none" stroke="midnightblue" d="M360.45,-190C349.06,-190 337.95,-190 328.77,-190"/>
<polygon fill="midnightblue" stroke="midnightblue" points="360.48,-193.5 370.48,-190 360.48,-186.5 360.48,-193.5"/>
</g>
<!-- Node4&#45;&gt;Node5 -->
<g id="edge4" class="edge">
<title>Node4&#45;&gt;Node5</title>
<path fill="none" stroke="midnightblue" d="M279.63,-176.36C257.82,-167.52 226.32,-157.34 206.65,-152.9"/>
<polygon fill="midnightblue" stroke="midnightblue" points="278.33,-179.61 288.9,-180.3 281.07,-173.16 278.33,-179.61"/>
</g>
<!-- Node5&#45;&gt;Node4 -->
<g id="edge6" class="edge">
<title>Node5&#45;&gt;Node4</title>
<path fill="none" stroke="midnightblue" d="M212.76,-165.6C233.02,-173.82 261.69,-183.21 281.46,-188.06"/>
<polygon fill="midnightblue" stroke="midnightblue" points="213.86,-162.26 203.29,-161.56 211.11,-168.7 213.86,-162.26"/>
</g>
<!-- Node6 -->
<g id="node6" class="node">
<title>Node6</title>
<g id="a_node6"><a xlink:href="sphdf5_8f90.html#a0f962c09cd5d5eba99f1cba043cb3898" target="_top" xlink:title="initialize the interface to the HDF5 library and open the output file">
<polygon fill="white" stroke="black" points="0,-142.5 0,-161.5 94,-161.5 94,-142.5 0,-142.5"/>
<text text-anchor="middle" x="47" y="-149.5" font-family="Helvetica,sans-Serif" font-size="10.00">sphdf5::init_outfile</text>
</a>
</g>
</g>
<!-- Node5&#45;&gt;Node6 -->
<g id="edge5" class="edge">
<title>Node5&#45;&gt;Node6</title>
<path fill="none" stroke="midnightblue" d="M158.31,-152C139.87,-152 115.36,-152 94.12,-152"/>
<polygon fill="midnightblue" stroke="midnightblue" points="158.39,-155.5 168.39,-152 158.39,-148.5 158.39,-155.5"/>
</g>
<!-- Node7&#45;&gt;Node8 -->
<g id="edge8" class="edge">
<title>Node7&#45;&gt;Node8</title>
<path fill="none" stroke="midnightblue" d="M399.8,-295.18C378.65,-291.26 349.4,-287.95 329.22,-287.24"/>
<polygon fill="midnightblue" stroke="midnightblue" points="399.25,-298.64 409.74,-297.21 400.65,-291.78 399.25,-298.64"/>
</g>
<!-- Node8&#45;&gt;Node5 -->
<g id="edge12" class="edge">
<title>Node8&#45;&gt;Node5</title>
<path fill="none" stroke="midnightblue" d="M289.15,-272.26C264.53,-242.84 216.05,-184.92 196.73,-161.83"/>
<polygon fill="midnightblue" stroke="midnightblue" points="286.59,-274.65 295.69,-280.08 291.96,-270.16 286.59,-274.65"/>
</g>
<!-- Node8&#45;&gt;Node7 -->
<g id="edge9" class="edge">
<title>Node8&#45;&gt;Node7</title>
<path fill="none" stroke="midnightblue" d="M339.21,-299.96C362.11,-303.79 391.58,-306.8 409.74,-306.9"/>
<polygon fill="midnightblue" stroke="midnightblue" points="339.68,-296.49 329.22,-298.15 338.43,-303.38 339.68,-296.49"/>
</g>
<!-- Node8&#45;&gt;Node9 -->
<g id="edge10" class="edge">
<title>Node8&#45;&gt;Node9</title>
<path fill="none" stroke="midnightblue" d="M270.84,-283.34C215.53,-277.04 106.41,-271.04 64.72,-272.43"/>
<polygon fill="midnightblue" stroke="midnightblue" points="270.48,-286.82 280.83,-284.56 271.33,-279.88 270.48,-286.82"/>
</g>
<!-- Node10 -->
<g id="node10" class="node">
<title>Node10</title>
<g id="a_node10"><a xlink:href="group__grp__force__driver.html#ga382822b303cbf8c56d6f54dcb379caf2" target="_top" xlink:title="read or write force&#45;derivative matrix">
<polygon fill="white" stroke="black" points="155,-312.5 155,-331.5 220,-331.5 220,-312.5 155,-312.5"/>
<text text-anchor="middle" x="187.5" y="-319.5" font-family="Helvetica,sans-Serif" font-size="10.00">writereadgf</text>
</a>
</g>
</g>
<!-- Node8&#45;&gt;Node10 -->
<g id="edge13" class="edge">
<title>Node8&#45;&gt;Node10</title>
<path fill="none" stroke="midnightblue" d="M270.88,-293.01C249.39,-297.89 222.32,-305.81 205.2,-312.46"/>
<polygon fill="midnightblue" stroke="midnightblue" points="271.85,-296.38 280.9,-290.87 270.4,-289.53 271.85,-296.38"/>
</g>
<!-- Node9&#45;&gt;Node8 -->
<g id="edge11" class="edge">
<title>Node9&#45;&gt;Node8</title>
<path fill="none" stroke="midnightblue" d="M74.85,-280.91C125.28,-287.17 233.36,-293.41 280.83,-292.72"/>
<polygon fill="midnightblue" stroke="midnightblue" points="75.1,-277.41 64.72,-279.53 74.16,-284.35 75.1,-277.41"/>
</g>
<!-- Node10&#45;&gt;Node8 -->
<g id="edge15" class="edge">
<title>Node10&#45;&gt;Node8</title>
<path fill="none" stroke="midnightblue" d="M229.97,-317.02C249.62,-312.18 272,-305.46 286.96,-299.68"/>
<polygon fill="midnightblue" stroke="midnightblue" points="228.94,-313.66 220,-319.36 230.54,-320.48 228.94,-313.66"/>
</g>
<!-- Node10&#45;&gt;Node9 -->
<g id="edge14" class="edge">
<title>Node10&#45;&gt;Node9</title>
<path fill="none" stroke="midnightblue" d="M148.77,-309.2C121.28,-299.87 85.37,-287.68 64.68,-280.66"/>
<polygon fill="midnightblue" stroke="midnightblue" points="147.88,-312.59 158.47,-312.49 150.13,-305.96 147.88,-312.59"/>
</g>
<!-- Node12 -->
<g id="node12" class="node">
<title>Node12</title>
<g id="a_node12"><a xlink:href="dfp200_8f90.html#a55ea75395f8c71731451e1add3720c7e" target="_top" xlink:title="Given the field consistent with the constraints and the geometry, computes local quantites related to...">
<polygon fill="white" stroke="black" points="282,-379.5 282,-398.5 328,-398.5 328,-379.5 282,-379.5"/>
<text text-anchor="middle" x="305" y="-386.5" font-family="Helvetica,sans-Serif" font-size="10.00">dfp200</text>
</a>
</g>
</g>
<!-- Node11&#45;&gt;Node12 -->
<g id="edge18" class="edge">
<title>Node11&#45;&gt;Node12</title>
<path fill="none" stroke="midnightblue" d="M365.41,-363.51C349,-368.71 332.67,-374.55 321.3,-379.5"/>
<polygon fill="midnightblue" stroke="midnightblue" points="366.53,-366.83 375.05,-360.54 364.46,-360.15 366.53,-366.83"/>
</g>
<!-- Node12&#45;&gt;Node2 -->
<g id="edge19" class="edge">
<title>Node12&#45;&gt;Node2</title>
<path fill="none" stroke="midnightblue" d="M338.01,-395.18C377.99,-400.97 446.45,-404.27 490,-370 539.17,-331.31 546.01,-247.02 546.89,-218.59"/>
<polygon fill="midnightblue" stroke="midnightblue" points="338.43,-391.7 328.01,-393.59 337.34,-398.62 338.43,-391.7"/>
</g>
<!-- Node12&#45;&gt;Node11 -->
<g id="edge24" class="edge">
<title>Node12&#45;&gt;Node11</title>
<path fill="none" stroke="midnightblue" d="M338.19,-384.9C361.64,-378.76 392.41,-368.62 410.75,-360.7"/>
<polygon fill="midnightblue" stroke="midnightblue" points="337.18,-381.54 328.32,-387.34 338.86,-388.34 337.18,-381.54"/>
</g>
<!-- Node13 -->
<g id="node13" class="node">
<title>Node13</title>
<g id="a_node13"><a xlink:href="dfp200_8f90.html#a7b64c7392b45d0042d8bd7379c0761a5" target="_top" xlink:title="Evaluate the derivative of the square of the magnetic field modulus. Add spectral constraint derivati...">
<polygon fill="white" stroke="black" points="150.5,-388.5 150.5,-407.5 224.5,-407.5 224.5,-388.5 150.5,-388.5"/>
<text text-anchor="middle" x="187.5" y="-395.5" font-family="Helvetica,sans-Serif" font-size="10.00">evaluate_dbb</text>
</a>
</g>
</g>
<!-- Node12&#45;&gt;Node13 -->
<g id="edge20" class="edge">
<title>Node12&#45;&gt;Node13</title>
<path fill="none" stroke="midnightblue" d="M271.66,-385.39C257.08,-385.77 239.81,-387.05 224.79,-388.86"/>
<polygon fill="midnightblue" stroke="midnightblue" points="271.77,-388.89 281.73,-385.28 271.69,-381.89 271.77,-388.89"/>
</g>
<!-- Node14 -->
<g id="node14" class="node">
<title>Node14</title>
<g id="a_node14"><a xlink:href="dfp200_8f90.html#a73ddf39ecc5228201fb643779e17cd36" target="_top" xlink:title="Evaluate mu and psip derivatives and store them in dmupfdx.">
<polygon fill="white" stroke="black" points="140,-350.5 140,-369.5 235,-369.5 235,-350.5 140,-350.5"/>
<text text-anchor="middle" x="187.5" y="-357.5" font-family="Helvetica,sans-Serif" font-size="10.00">evaluate_dmupfdx</text>
</a>
</g>
</g>
<!-- Node12&#45;&gt;Node14 -->
<g id="edge22" class="edge">
<title>Node12&#45;&gt;Node14</title>
<path fill="none" stroke="midnightblue" d="M276.3,-376.18C264.02,-372.3 249.23,-368.33 235.31,-365.11"/>
<polygon fill="midnightblue" stroke="midnightblue" points="275.36,-379.56 285.95,-379.41 277.58,-372.92 275.36,-379.56"/>
</g>
<!-- Node15 -->
<g id="node15" class="node">
<title>Node15</title>
<g id="a_node15"><a xlink:href="dfp200_8f90.html#a5e56f1f4b1e6df11a9cffa6237c37469" target="_top" xlink:title="This routine evaluates the value of the magnetic field once the interface is perturbed using matrix p...">
<polygon fill="white" stroke="black" points="130,-426.5 130,-445.5 245,-445.5 245,-426.5 130,-426.5"/>
<text text-anchor="middle" x="187.5" y="-433.5" font-family="Helvetica,sans-Serif" font-size="10.00">get_perturbed_solution</text>
</a>
</g>
</g>
<!-- Node12&#45;&gt;Node15 -->
<g id="edge25" class="edge">
<title>Node12&#45;&gt;Node15</title>
<path fill="none" stroke="midnightblue" d="M272.38,-396.19C263.61,-400.02 254.01,-404.36 245,-408 229.07,-414.43 210.04,-420.51 198.63,-426.44"/>
<polygon fill="midnightblue" stroke="midnightblue" points="274.04,-399.29 281.86,-392.15 271.29,-392.85 274.04,-399.29"/>
</g>
<!-- Node13&#45;&gt;Node12 -->
<g id="edge21" class="edge">
<title>Node13&#45;&gt;Node12</title>
<path fill="none" stroke="midnightblue" d="M235.13,-401C251.22,-400.08 268.5,-398.34 281.73,-396.19"/>
<polygon fill="midnightblue" stroke="midnightblue" points="234.61,-397.52 224.79,-401.49 234.94,-404.52 234.61,-397.52"/>
</g>
<!-- Node14&#45;&gt;Node12 -->
<g id="edge23" class="edge">
<title>Node14&#45;&gt;Node12</title>
<path fill="none" stroke="midnightblue" d="M216.06,-372.77C236.14,-379.13 263,-385.74 281.73,-388.87"/>
<polygon fill="midnightblue" stroke="midnightblue" points="217.12,-369.44 206.53,-369.59 214.91,-376.08 217.12,-369.44"/>
</g>
<!-- Node15&#45;&gt;Node12 -->
<g id="edge26" class="edge">
<title>Node15&#45;&gt;Node12</title>
<path fill="none" stroke="midnightblue" d="M253.31,-422.49C270.38,-415.05 287.14,-406.24 296.49,-398.79"/>
<polygon fill="midnightblue" stroke="midnightblue" points="251.71,-419.37 243.84,-426.46 254.42,-425.82 251.71,-419.37"/>
</g>
<!-- Node16&#45;&gt;Node5 -->
<g id="edge28" class="edge">
<title>Node16&#45;&gt;Node5</title>
<path fill="none" stroke="midnightblue" d="M394.41,-78.07C364.39,-80.76 318.65,-86.78 281,-100 250.93,-110.56 219.26,-130.6 201.88,-142.48"/>
<polygon fill="midnightblue" stroke="midnightblue" points="395.03,-81.53 404.71,-77.23 394.46,-74.56 395.03,-81.53"/>
</g>
<!-- Node18 -->
<g id="node18" class="node">
<title>Node18</title>
<g id="a_node18"><a xlink:href="group__grp__conjugate__gradient.html#ga25a3bae2ff2ee0469b045de0d033398b" target="_top" xlink:title="Use preconditioned conjugate gradient method to find minimum of energy functional.">
<polygon fill="white" stroke="black" points="281,-142.5 281,-161.5 329,-161.5 329,-142.5 281,-142.5"/>
<text text-anchor="middle" x="305" y="-149.5" font-family="Helvetica,sans-Serif" font-size="10.00">pc00aa</text>
</a>
</g>
</g>
<!-- Node17&#45;&gt;Node18 -->
<g id="edge31" class="edge">
<title>Node17&#45;&gt;Node18</title>
<path fill="none" stroke="midnightblue" d="M393.16,-152C372.81,-152 347.31,-152 329.16,-152"/>
<polygon fill="midnightblue" stroke="midnightblue" points="393.27,-155.5 403.27,-152 393.27,-148.5 393.27,-155.5"/>
</g>
</g>
</svg>
