<?xml version="1.0" encoding="UTF-8" standalone="no"?>
<!DOCTYPE svg PUBLIC "-//W3C//DTD SVG 1.1//EN"
 "http://www.w3.org/Graphics/SVG/1.1/DTD/svg11.dtd">
<!-- Generated by graphviz version 2.49.3 (20211027.1534)
 -->
<!-- Title: surfacecurrent Pages: 1 -->
<svg width="254pt" height="65pt"
 viewBox="0.00 0.00 254.00 65.00" xmlns="http://www.w3.org/2000/svg" xmlns:xlink="http://www.w3.org/1999/xlink">
<g id="graph0" class="graph" transform="scale(1 1) rotate(0) translate(4 61)">
<title>surfacecurrent</title>
<polygon fill="white" stroke="transparent" points="-4,4 -4,-61 250,-61 250,4 -4,4"/>
<!-- Node1 -->
<g id="node1" class="node">
<title>Node1</title>
<g id="a_node1"><a xlink:title="Compute the position and surface current on the plasma boundary for the virtual casingCalculation of ...">
<polygon fill="#bfbfbf" stroke="black" points="0,-0.5 0,-19.5 79,-19.5 79,-0.5 0,-0.5"/>
<text text-anchor="middle" x="39.5" y="-7.5" font-family="Helvetica,sans-Serif" font-size="10.00">surfacecurrent</text>
</a>
</g>
</g>
<!-- Node2 -->
<g id="node2" class="node">
<title>Node2</title>
<g id="a_node2"><a xlink:href="group__grp__free-boundary.html#ga180576a10002ebf3840fce98d56316bb" target="_top" xlink:title="Constructs the field created by the plasma currents, at an arbitrary, external location using virtual...">
<polygon fill="white" stroke="black" points="115,-19.5 115,-38.5 160,-38.5 160,-19.5 115,-19.5"/>
<text text-anchor="middle" x="137.5" y="-26.5" font-family="Helvetica,sans-Serif" font-size="10.00">casing</text>
</a>
</g>
</g>
<!-- Node1&#45;&gt;Node2 -->
<g id="edge1" class="edge">
<title>Node1&#45;&gt;Node2</title>
<path fill="none" stroke="midnightblue" d="M79.27,-17.67C87.83,-19.37 96.8,-21.14 105.03,-22.77"/>
<polygon fill="midnightblue" stroke="midnightblue" points="104.49,-26.23 114.98,-24.74 105.85,-19.36 104.49,-26.23"/>
</g>
<!-- Node2&#45;&gt;Node2 -->
<g id="edge2" class="edge">
<title>Node2&#45;&gt;Node2</title>
<path fill="none" stroke="midnightblue" d="M124.86,-38.76C118.71,-47.57 122.93,-57 137.5,-57 146.38,-57 151.41,-53.5 152.6,-48.77"/>
<polygon fill="midnightblue" stroke="midnightblue" points="155.93,-47.63 150.14,-38.76 149.13,-49.3 155.93,-47.63"/>
</g>
<!-- Node3 -->
<g id="node3" class="node">
<title>Node3</title>
<g id="a_node3"><a xlink:href="group__grp__free-boundary.html#ga281c12a5de84fddd3db4383b0df8627f" target="_top" xlink:title="Differential virtual casing integrand.">
<polygon fill="white" stroke="black" points="196,-19.5 196,-38.5 246,-38.5 246,-19.5 196,-19.5"/>
<text text-anchor="middle" x="221" y="-26.5" font-family="Helvetica,sans-Serif" font-size="10.00">dvcfield</text>
</a>
</g>
</g>
<!-- Node2&#45;&gt;Node3 -->
<g id="edge3" class="edge">
<title>Node2&#45;&gt;Node3</title>
<path fill="none" stroke="midnightblue" d="M160.34,-22.94C168.12,-22.33 177.08,-22.12 185.65,-22.32"/>
<polygon fill="midnightblue" stroke="midnightblue" points="185.66,-25.83 195.8,-22.77 185.97,-18.84 185.66,-25.83"/>
</g>
<!-- Node3&#45;&gt;Node1 -->
<g id="edge5" class="edge">
<title>Node3&#45;&gt;Node1</title>
<path fill="none" stroke="midnightblue" d="M195.88,-19.5C185.09,-15.74 172.09,-11.87 160,-10 136.9,-6.43 110.99,-6 89.22,-6.64"/>
<polygon fill="midnightblue" stroke="midnightblue" points="89.07,-3.15 79.21,-7.02 89.33,-10.14 89.07,-3.15"/>
</g>
<!-- Node3&#45;&gt;Node2 -->
<g id="edge4" class="edge">
<title>Node3&#45;&gt;Node2</title>
<path fill="none" stroke="midnightblue" d="M195.8,-35.23C187.89,-35.75 178.98,-35.88 170.59,-35.61"/>
<polygon fill="midnightblue" stroke="midnightblue" points="170.52,-32.1 160.34,-35.06 170.14,-39.09 170.52,-32.1"/>
</g>
</g>
</svg>
