<?xml version="1.0" encoding="UTF-8" standalone="no"?>
<!DOCTYPE svg PUBLIC "-//W3C//DTD SVG 1.1//EN"
 "http://www.w3.org/Graphics/SVG/1.1/DTD/svg11.dtd">
<!-- Generated by graphviz version 2.49.3 (20211027.1534)
 -->
<!-- Title: sphdf5::write_transform Pages: 1 -->
<svg width="1118pt" height="374pt"
 viewBox="0.00 0.00 1118.36 374.09" xmlns="http://www.w3.org/2000/svg" xmlns:xlink="http://www.w3.org/1999/xlink">
<g id="graph0" class="graph" transform="scale(1 1) rotate(0) translate(4 370.09)">
<title>sphdf5::write_transform</title>
<polygon fill="white" stroke="transparent" points="-4,4 -4,-370.09 1114.36,-370.09 1114.36,4 -4,4"/>
<!-- Node1 -->
<g id="node1" class="node">
<title>Node1</title>
<g id="a_node1"><a xlink:title="Write the rotational transform output from field line following.">
<polygon fill="#bfbfbf" stroke="black" points="992.36,-54.59 992.36,-73.59 1110.36,-73.59 1110.36,-54.59 992.36,-54.59"/>
<text text-anchor="middle" x="1051.36" y="-61.59" font-family="Helvetica,sans-Serif" font-size="10.00">sphdf5::write_transform</text>
</a>
</g>
</g>
<!-- Node2 -->
<g id="node2" class="node">
<title>Node2</title>
<g id="a_node2"><a xlink:href="group__grp__diagnostics.html#gad67931244268a09bd077dae8910c7096" target="_top" xlink:title="Constructs Poincaré plot and &quot;approximate&quot; rotational&#45;transform (driver).">
<polygon fill="white" stroke="black" points="908.36,-54.59 908.36,-73.59 956.36,-73.59 956.36,-54.59 908.36,-54.59"/>
<text text-anchor="middle" x="932.36" y="-61.59" font-family="Helvetica,sans-Serif" font-size="10.00">pp00aa</text>
</a>
</g>
</g>
<!-- Node1&#45;&gt;Node2 -->
<g id="edge1" class="edge">
<title>Node1&#45;&gt;Node2</title>
<path fill="none" stroke="midnightblue" d="M982.19,-64.09C973.03,-64.09 964.21,-64.09 956.63,-64.09"/>
<polygon fill="midnightblue" stroke="midnightblue" points="982.2,-67.59 992.2,-64.09 982.2,-60.59 982.2,-67.59"/>
</g>
<!-- Node2&#45;&gt;Node2 -->
<g id="edge48" class="edge">
<title>Node2&#45;&gt;Node2</title>
<path fill="none" stroke="midnightblue" d="M951.62,-83.49C950.33,-88.41 943.91,-92.09 932.36,-92.09 913.87,-92.09 908.53,-82.66 916.33,-73.85"/>
<polygon fill="midnightblue" stroke="midnightblue" points="954.88,-82.22 948.39,-73.85 948.24,-84.44 954.88,-82.22"/>
</g>
<!-- Node3 -->
<g id="node3" class="node">
<title>Node3</title>
<g id="a_node3"><a xlink:href="xspech_8f90.html#a1451823a7b97101a797de616250752c1" target="_top" xlink:title="Final diagnostics.">
<polygon fill="white" stroke="black" points="783.36,-54.59 783.36,-73.59 872.36,-73.59 872.36,-54.59 783.36,-54.59"/>
<text text-anchor="middle" x="827.86" y="-61.59" font-family="Helvetica,sans-Serif" font-size="10.00">final_diagnostics</text>
</a>
</g>
</g>
<!-- Node2&#45;&gt;Node3 -->
<g id="edge2" class="edge">
<title>Node2&#45;&gt;Node3</title>
<path fill="none" stroke="midnightblue" d="M898.35,-64.09C890.08,-64.09 881.08,-64.09 872.39,-64.09"/>
<polygon fill="midnightblue" stroke="midnightblue" points="898.36,-67.59 908.36,-64.09 898.36,-60.59 898.36,-67.59"/>
</g>
<!-- Node4 -->
<g id="node4" class="node">
<title>Node4</title>
<g id="a_node4"><a xlink:href="xspech_8f90.html#a9fdc71dffd7c61ee4588a3f80d3ab9ce" target="_top" xlink:title="Main subroutine of SPEC.">
<polygon fill="white" stroke="black" points="700.36,-54.59 700.36,-73.59 747.36,-73.59 747.36,-54.59 700.36,-54.59"/>
<text text-anchor="middle" x="723.86" y="-61.59" font-family="Helvetica,sans-Serif" font-size="10.00">xspech</text>
</a>
</g>
</g>
<!-- Node3&#45;&gt;Node4 -->
<g id="edge3" class="edge">
<title>Node3&#45;&gt;Node4</title>
<path fill="none" stroke="midnightblue" d="M773.11,-57.35C764.06,-57.41 755.13,-57.75 747.46,-58.37"/>
<polygon fill="midnightblue" stroke="midnightblue" points="773.29,-60.85 783.31,-57.41 773.32,-53.85 773.29,-60.85"/>
</g>
<!-- Node4&#45;&gt;Node3 -->
<g id="edge4" class="edge">
<title>Node4&#45;&gt;Node3</title>
<path fill="none" stroke="midnightblue" d="M757.69,-70.45C765.85,-70.82 774.72,-70.93 783.31,-70.78"/>
<polygon fill="midnightblue" stroke="midnightblue" points="757.66,-66.94 747.46,-69.81 757.23,-73.92 757.66,-66.94"/>
</g>
<!-- Node4&#45;&gt;Node4 -->
<g id="edge47" class="edge">
<title>Node4&#45;&gt;Node4</title>
<path fill="none" stroke="midnightblue" d="M740.52,-83.49C739.41,-88.41 733.86,-92.09 723.86,-92.09 707.86,-92.09 703.24,-82.66 709.99,-73.85"/>
<polygon fill="midnightblue" stroke="midnightblue" points="743.88,-82.48 737.73,-73.85 737.15,-84.43 743.88,-82.48"/>
</g>
<!-- Node5 -->
<g id="node5" class="node">
<title>Node5</title>
<g id="a_node5"><a xlink:href="xspech_8f90.html#a48f45478dc2c9f70ea8aa1c60ad06503" target="_top" xlink:title="This is the main &quot;driver&quot; for the physics part of SPEC.">
<polygon fill="white" stroke="black" points="613.36,-92.59 613.36,-111.59 651.36,-111.59 651.36,-92.59 613.36,-92.59"/>
<text text-anchor="middle" x="632.36" y="-99.59" font-family="Helvetica,sans-Serif" font-size="10.00">spec</text>
</a>
</g>
</g>
<!-- Node4&#45;&gt;Node5 -->
<g id="edge5" class="edge">
<title>Node4&#45;&gt;Node5</title>
<path fill="none" stroke="midnightblue" d="M690.73,-71.23C674.8,-77.36 656.54,-85.71 644.98,-92.44"/>
<polygon fill="midnightblue" stroke="midnightblue" points="692.09,-74.46 700.27,-67.73 689.68,-67.88 692.09,-74.46"/>
</g>
<!-- Node21 -->
<g id="node21" class="node">
<title>Node21</title>
<g id="a_node21"><a xlink:href="xspech_8f90.html#a95271e8805067f801b5d4e524d6901d4" target="_top" xlink:title="Main program of SPEC.">
<polygon fill="white" stroke="black" points="600.36,-54.59 600.36,-73.59 664.36,-73.59 664.36,-54.59 600.36,-54.59"/>
<text text-anchor="middle" x="632.36" y="-61.59" font-family="Helvetica,sans-Serif" font-size="10.00">spec_main</text>
</a>
</g>
</g>
<!-- Node4&#45;&gt;Node21 -->
<g id="edge46" class="edge">
<title>Node4&#45;&gt;Node21</title>
<path fill="none" stroke="midnightblue" d="M690.07,-64.09C681.68,-64.09 672.68,-64.09 664.39,-64.09"/>
<polygon fill="midnightblue" stroke="midnightblue" points="690.27,-67.59 700.27,-64.09 690.27,-60.59 690.27,-67.59"/>
</g>
<!-- Node5&#45;&gt;Node4 -->
<g id="edge45" class="edge">
<title>Node5&#45;&gt;Node4</title>
<path fill="none" stroke="midnightblue" d="M661.44,-96.48C678.2,-90.28 698.6,-81.09 711.16,-73.79"/>
<polygon fill="midnightblue" stroke="midnightblue" points="659.87,-93.32 651.58,-99.92 662.17,-99.94 659.87,-93.32"/>
</g>
<!-- Node6 -->
<g id="node6" class="node">
<title>Node6</title>
<g id="a_node6"><a xlink:href="group__grp__global__force.html#ga38c9d3c50bd043707fefa5137c9dbf44" target="_top" xlink:title="Calculates , where &#160;and , and .">
<polygon fill="white" stroke="black" points="495.36,-130.59 495.36,-149.59 539.36,-149.59 539.36,-130.59 495.36,-130.59"/>
<text text-anchor="middle" x="517.36" y="-137.59" font-family="Helvetica,sans-Serif" font-size="10.00">dforce</text>
</a>
</g>
</g>
<!-- Node5&#45;&gt;Node6 -->
<g id="edge6" class="edge">
<title>Node5&#45;&gt;Node6</title>
<path fill="none" stroke="midnightblue" d="M603.28,-105.61C580.94,-111.71 550.59,-122.32 532.88,-130.51"/>
<polygon fill="midnightblue" stroke="midnightblue" points="604.38,-108.94 613.2,-103.08 602.65,-102.16 604.38,-108.94"/>
</g>
<!-- Node20 -->
<g id="node20" class="node">
<title>Node20</title>
<g id="a_node20"><a xlink:href="group__grp__output.html#ga0f962c09cd5d5eba99f1cba043cb3898" target="_top" xlink:title="Initialize the interface to the HDF5 library and open the output file.">
<polygon fill="white" stroke="black" points="470.36,-16.59 470.36,-35.59 564.36,-35.59 564.36,-16.59 470.36,-16.59"/>
<text text-anchor="middle" x="517.36" y="-23.59" font-family="Helvetica,sans-Serif" font-size="10.00">sphdf5::init_outfile</text>
</a>
</g>
</g>
<!-- Node5&#45;&gt;Node20 -->
<g id="edge43" class="edge">
<title>Node5&#45;&gt;Node20</title>
<path fill="none" stroke="midnightblue" d="M605.44,-86.73C603.69,-85.54 601.98,-84.32 600.36,-83.09 583.03,-70.03 582.13,-62.55 564.36,-50.09 556.69,-44.71 547.66,-39.75 539.64,-35.74"/>
<polygon fill="midnightblue" stroke="midnightblue" points="603.94,-89.93 614.24,-92.41 607.73,-84.04 603.94,-89.93"/>
</g>
<!-- Node6&#45;&gt;Node5 -->
<g id="edge42" class="edge">
<title>Node6&#45;&gt;Node5</title>
<path fill="none" stroke="midnightblue" d="M549.53,-135.72C571.4,-129.55 599.65,-119.59 616.59,-111.79"/>
<polygon fill="midnightblue" stroke="midnightblue" points="548.46,-132.38 539.7,-138.34 550.26,-139.14 548.46,-132.38"/>
</g>
<!-- Node6&#45;&gt;Node6 -->
<g id="edge9" class="edge">
<title>Node6&#45;&gt;Node6</title>
<path fill="none" stroke="midnightblue" d="M538.47,-159.49C537.06,-164.41 530.02,-168.09 517.36,-168.09 497.1,-168.09 491.24,-158.66 499.79,-149.85"/>
<polygon fill="midnightblue" stroke="midnightblue" points="541.66,-158.03 534.93,-149.85 535.09,-160.44 541.66,-158.03"/>
</g>
<!-- Node7 -->
<g id="node7" class="node">
<title>Node7</title>
<g id="a_node7"><a xlink:href="namespaceallglobal.html#a7824bc37519fe88336534ce90ab2af16" target="_top" xlink:title=" ">
<polygon fill="white" stroke="black" points="314.86,-26.59 314.86,-45.59 428.86,-45.59 428.86,-26.59 314.86,-26.59"/>
<text text-anchor="middle" x="371.86" y="-33.59" font-family="Helvetica,sans-Serif" font-size="10.00">allglobal::check_inputs</text>
</a>
</g>
</g>
<!-- Node6&#45;&gt;Node7 -->
<g id="edge7" class="edge">
<title>Node6&#45;&gt;Node7</title>
<path fill="none" stroke="midnightblue" d="M502.14,-122.57C486.95,-104.8 461.37,-77.5 434.36,-60.09 425.21,-54.19 414.38,-49.37 404.38,-45.63"/>
<polygon fill="midnightblue" stroke="midnightblue" points="499.63,-125.02 508.73,-130.44 505,-120.53 499.63,-125.02"/>
</g>
<!-- Node8 -->
<g id="node8" class="node">
<title>Node8</title>
<g id="a_node8"><a xlink:href="group__grp__force__driver.html#gabbc245b3884ee8d8d3e2a52f25149f78" target="_top" xlink:title="Objective to be given to the Newton solver, using only function values.">
<polygon fill="white" stroke="black" points="354.36,-102.59 354.36,-121.59 389.36,-121.59 389.36,-102.59 354.36,-102.59"/>
<text text-anchor="middle" x="371.86" y="-109.59" font-family="Helvetica,sans-Serif" font-size="10.00">fcn1</text>
</a>
</g>
</g>
<!-- Node6&#45;&gt;Node8 -->
<g id="edge10" class="edge">
<title>Node6&#45;&gt;Node8</title>
<path fill="none" stroke="midnightblue" d="M485.04,-133.98C455.71,-128.26 412.99,-119.92 389.64,-115.37"/>
<polygon fill="midnightblue" stroke="midnightblue" points="484.7,-137.48 495.18,-135.96 486.04,-130.61 484.7,-137.48"/>
</g>
<!-- Node9 -->
<g id="node9" class="node">
<title>Node9</title>
<g id="a_node9"><a xlink:href="group__grp__force__driver.html#gaec14f81fbdbedafbc4189489ec8ae178" target="_top" xlink:title="Employs Newton method to find , where &#160;and &#160;is defined in dforce() .">
<polygon fill="white" stroke="black" points="225.36,-92.59 225.36,-111.59 273.36,-111.59 273.36,-92.59 225.36,-92.59"/>
<text text-anchor="middle" x="249.36" y="-99.59" font-family="Helvetica,sans-Serif" font-size="10.00">newton</text>
</a>
</g>
</g>
<!-- Node6&#45;&gt;Node9 -->
<g id="edge37" class="edge">
<title>Node6&#45;&gt;Node9</title>
<path fill="none" stroke="midnightblue" d="M496.05,-124.42C480.21,-113.24 457.16,-99.16 434.36,-93.09 378.11,-78.11 308.84,-88.98 273.49,-96.52"/>
<polygon fill="midnightblue" stroke="midnightblue" points="494.34,-127.5 504.48,-130.58 498.47,-121.85 494.34,-127.5"/>
</g>
<!-- Node10 -->
<g id="node10" class="node">
<title>Node10</title>
<g id="a_node10"><a xlink:href="group__grp__force__driver.html#ga8ccd6c7d901872702521d0a0edf95412" target="_top" xlink:title="Objective to be given to the Newton solver, using function values and derivatives.">
<polygon fill="white" stroke="black" points="3.36,-129.59 3.36,-148.59 38.36,-148.59 38.36,-129.59 3.36,-129.59"/>
<text text-anchor="middle" x="20.86" y="-136.59" font-family="Helvetica,sans-Serif" font-size="10.00">fcn2</text>
</a>
</g>
</g>
<!-- Node6&#45;&gt;Node10 -->
<g id="edge22" class="edge">
<title>Node6&#45;&gt;Node10</title>
<path fill="none" stroke="midnightblue" d="M497.63,-156.46C488.63,-164.98 478.13,-175.93 470.36,-187.09 448.99,-217.76 465.19,-241.96 434.36,-263.09 368.29,-308.38 140.09,-326.87 74.36,-281.09 29.5,-249.85 22.88,-175.63 21.97,-148.9"/>
<polygon fill="midnightblue" stroke="midnightblue" points="500.05,-159 505.06,-149.66 495.32,-153.84 500.05,-159"/>
</g>
<!-- Node12 -->
<g id="node12" class="node">
<title>Node12</title>
<g id="a_node12"><a xlink:href="dfp200_8f90.html#a6aca59cf350d7b1941f8389d50945a43" target="_top" xlink:title="get LU Beltrami matrices">
<polygon fill="white" stroke="black" points="309.36,-214.59 309.36,-233.59 434.36,-233.59 434.36,-214.59 309.36,-214.59"/>
<text text-anchor="middle" x="371.86" y="-221.59" font-family="Helvetica,sans-Serif" font-size="10.00">get_lu_beltrami_matrices</text>
</a>
</g>
</g>
<!-- Node6&#45;&gt;Node12 -->
<g id="edge23" class="edge">
<title>Node6&#45;&gt;Node12</title>
<path fill="none" stroke="midnightblue" d="M499.25,-156.82C483.53,-171.37 458.99,-192.11 434.36,-205.09 427.24,-208.84 419.26,-211.99 411.47,-214.57"/>
<polygon fill="midnightblue" stroke="midnightblue" points="501.76,-159.26 506.62,-149.85 496.95,-154.18 501.76,-159.26"/>
</g>
<!-- Node17 -->
<g id="node17" class="node">
<title>Node17</title>
<g id="a_node17"><a xlink:href="group__grp__output.html#ga7401b50ec10c6598ee4a8112717a63ec" target="_top" xlink:title="Computes eigenvalues and eigenvectors of derivative matrix, &#160;and saves them to .ext....">
<polygon fill="white" stroke="black" points="349.36,-328.59 349.36,-347.59 394.36,-347.59 394.36,-328.59 349.36,-328.59"/>
<text text-anchor="middle" x="371.86" y="-335.59" font-family="Helvetica,sans-Serif" font-size="10.00">hesian</text>
</a>
</g>
</g>
<!-- Node6&#45;&gt;Node17 -->
<g id="edge34" class="edge">
<title>Node6&#45;&gt;Node17</title>
<path fill="none" stroke="midnightblue" d="M508.43,-158.9C490.35,-201.51 446.65,-302.62 434.36,-314.09 423.3,-324.42 407.3,-330.48 394.39,-333.92"/>
<polygon fill="midnightblue" stroke="midnightblue" points="511.68,-160.21 512.35,-149.63 505.23,-157.48 511.68,-160.21"/>
</g>
<!-- Node18 -->
<g id="node18" class="node">
<title>Node18</title>
<g id="a_node18"><a xlink:href="group__grp__conjugate__gradient.html#ga4d8415226e62a9fdb42b0fd0b464251e" target="_top" xlink:title="Returns the energy functional and it&#39;s derivatives with respect to geometry.">
<polygon fill="white" stroke="black" points="347.86,-158.59 347.86,-177.59 395.86,-177.59 395.86,-158.59 347.86,-158.59"/>
<text text-anchor="middle" x="371.86" y="-165.59" font-family="Helvetica,sans-Serif" font-size="10.00">pc00ab</text>
</a>
</g>
</g>
<!-- Node6&#45;&gt;Node18 -->
<g id="edge38" class="edge">
<title>Node6&#45;&gt;Node18</title>
<path fill="none" stroke="midnightblue" d="M485.15,-146.18C458.32,-151.42 420.22,-158.85 396.02,-163.57"/>
<polygon fill="midnightblue" stroke="midnightblue" points="486.04,-149.57 495.18,-144.22 484.7,-142.7 486.04,-149.57"/>
</g>
<!-- Node7&#45;&gt;Node4 -->
<g id="edge8" class="edge">
<title>Node7&#45;&gt;Node4</title>
<path fill="none" stroke="midnightblue" d="M407.35,-23.18C425.76,-16.97 448.98,-10.2 470.36,-7.09 556.28,5.42 583.61,1.81 664.36,-30.09 680.53,-36.48 697.55,-46.85 709.04,-54.45"/>
<polygon fill="midnightblue" stroke="midnightblue" points="405.96,-19.96 397.66,-26.54 408.26,-26.57 405.96,-19.96"/>
</g>
<!-- Node8&#45;&gt;Node8 -->
<g id="edge11" class="edge">
<title>Node8&#45;&gt;Node8</title>
<path fill="none" stroke="midnightblue" d="M394.72,-129.23C395.04,-135.23 387.42,-140.09 371.86,-140.09 349.22,-140.09 343.39,-129.81 354.35,-120.69"/>
<polygon fill="midnightblue" stroke="midnightblue" points="397.65,-127.3 389.37,-120.69 391.72,-131.02 397.65,-127.3"/>
</g>
<!-- Node8&#45;&gt;Node9 -->
<g id="edge12" class="edge">
<title>Node8&#45;&gt;Node9</title>
<path fill="none" stroke="midnightblue" d="M344.16,-104.16C323.01,-100.94 293.76,-98.6 273.57,-98.56"/>
<polygon fill="midnightblue" stroke="midnightblue" points="343.66,-107.62 354.1,-105.86 344.84,-100.72 343.66,-107.62"/>
</g>
<!-- Node9&#45;&gt;Node5 -->
<g id="edge18" class="edge">
<title>Node9&#45;&gt;Node5</title>
<path fill="none" stroke="midnightblue" d="M257.32,-83.07C265.98,-62.54 282.94,-30.91 309.36,-17.09 358.58,8.66 381.81,0.94 434.36,-17.09 453.53,-23.67 452.58,-35.36 470.36,-45.09 519,-71.71 582.49,-89.85 613.18,-97.7"/>
<polygon fill="midnightblue" stroke="midnightblue" points="254.05,-81.81 253.63,-92.39 260.56,-84.38 254.05,-81.81"/>
</g>
<!-- Node9&#45;&gt;Node8 -->
<g id="edge13" class="edge">
<title>Node9&#45;&gt;Node8</title>
<path fill="none" stroke="midnightblue" d="M283.57,-110.95C306.46,-114.02 335.93,-116.05 354.1,-115.55"/>
<polygon fill="midnightblue" stroke="midnightblue" points="283.98,-107.48 273.57,-109.48 282.95,-114.4 283.98,-107.48"/>
</g>
<!-- Node9&#45;&gt;Node9 -->
<g id="edge17" class="edge">
<title>Node9&#45;&gt;Node9</title>
<path fill="none" stroke="midnightblue" d="M270.84,-121.49C269.4,-126.41 262.24,-130.09 249.36,-130.09 228.74,-130.09 222.78,-120.66 231.48,-111.85"/>
<polygon fill="midnightblue" stroke="midnightblue" points="274.02,-119.99 267.24,-111.85 267.46,-122.44 274.02,-119.99"/>
</g>
<!-- Node9&#45;&gt;Node10 -->
<g id="edge14" class="edge">
<title>Node9&#45;&gt;Node10</title>
<path fill="none" stroke="midnightblue" d="M214.83,-102.61C165.58,-107.91 75.53,-123.03 38.47,-132.64"/>
<polygon fill="midnightblue" stroke="midnightblue" points="215.37,-106.07 224.97,-101.6 214.68,-99.11 215.37,-106.07"/>
</g>
<!-- Node11 -->
<g id="node11" class="node">
<title>Node11</title>
<g id="a_node11"><a xlink:href="group__grp__output.html#ga382822b303cbf8c56d6f54dcb379caf2" target="_top" xlink:title="read or write force&#45;derivative matrix .ext.sp.DF">
<polygon fill="white" stroke="black" points="99.36,-82.59 99.36,-101.59 164.36,-101.59 164.36,-82.59 99.36,-82.59"/>
<text text-anchor="middle" x="131.86" y="-89.59" font-family="Helvetica,sans-Serif" font-size="10.00">writereadgf</text>
</a>
</g>
</g>
<!-- Node9&#45;&gt;Node11 -->
<g id="edge19" class="edge">
<title>Node9&#45;&gt;Node11</title>
<path fill="none" stroke="midnightblue" d="M215.32,-93.06C199.41,-90.89 180.41,-89.27 164.66,-88.74"/>
<polygon fill="midnightblue" stroke="midnightblue" points="214.85,-96.53 225.26,-94.57 215.9,-89.61 214.85,-96.53"/>
</g>
<!-- Node10&#45;&gt;Node9 -->
<g id="edge16" class="edge">
<title>Node10&#45;&gt;Node9</title>
<path fill="none" stroke="midnightblue" d="M48.57,-139.27C93.3,-134.98 182.58,-120.32 224.97,-110.22"/>
<polygon fill="midnightblue" stroke="midnightblue" points="48.15,-135.8 38.47,-140.11 48.73,-142.77 48.15,-135.8"/>
</g>
<!-- Node10&#45;&gt;Node10 -->
<g id="edge15" class="edge">
<title>Node10&#45;&gt;Node10</title>
<path fill="none" stroke="midnightblue" d="M41.23,-158.49C39.87,-163.41 33.08,-167.09 20.86,-167.09 1.31,-167.09 -4.34,-157.66 3.9,-148.85"/>
<polygon fill="midnightblue" stroke="midnightblue" points="44.45,-157.11 37.81,-148.85 37.85,-159.44 44.45,-157.11"/>
</g>
<!-- Node11&#45;&gt;Node9 -->
<g id="edge21" class="edge">
<title>Node11&#45;&gt;Node9</title>
<path fill="none" stroke="midnightblue" d="M174.93,-102.26C191.92,-104.23 210.87,-105.54 225.26,-105.62"/>
<polygon fill="midnightblue" stroke="midnightblue" points="175.03,-98.74 164.66,-100.95 174.14,-105.69 175.03,-98.74"/>
</g>
<!-- Node11&#45;&gt;Node10 -->
<g id="edge20" class="edge">
<title>Node11&#45;&gt;Node10</title>
<path fill="none" stroke="midnightblue" d="M98.87,-105.6C90.86,-109.01 82.29,-112.67 74.36,-116.09 62.3,-121.3 48.72,-127.25 38.39,-131.79"/>
<polygon fill="midnightblue" stroke="midnightblue" points="100.45,-108.74 108.29,-101.61 97.72,-102.29 100.45,-108.74"/>
</g>
<!-- Node13 -->
<g id="node13" class="node">
<title>Node13</title>
<g id="a_node13"><a xlink:href="dfp200_8f90.html#a55ea75395f8c71731451e1add3720c7e" target="_top" xlink:title="Given the field consistent with the constraints and the geometry, computes local quantites related to...">
<polygon fill="white" stroke="black" points="226.36,-214.59 226.36,-233.59 272.36,-233.59 272.36,-214.59 226.36,-214.59"/>
<text text-anchor="middle" x="249.36" y="-221.59" font-family="Helvetica,sans-Serif" font-size="10.00">dfp200</text>
</a>
</g>
</g>
<!-- Node12&#45;&gt;Node13 -->
<g id="edge24" class="edge">
<title>Node12&#45;&gt;Node13</title>
<path fill="none" stroke="midnightblue" d="M299.05,-217.45C289.41,-217.64 280.18,-218.07 272.4,-218.73"/>
<polygon fill="midnightblue" stroke="midnightblue" points="299.24,-220.95 309.2,-217.34 299.16,-213.95 299.24,-220.95"/>
</g>
<!-- Node13&#45;&gt;Node6 -->
<g id="edge25" class="edge">
<title>Node13&#45;&gt;Node6</title>
<path fill="none" stroke="midnightblue" d="M282.17,-237.15C320.31,-250.68 385.23,-266.78 434.36,-243.09 475.54,-223.24 502.42,-171.54 512.22,-149.87"/>
<polygon fill="midnightblue" stroke="midnightblue" points="283.21,-233.81 272.62,-233.62 280.78,-240.37 283.21,-233.81"/>
</g>
<!-- Node13&#45;&gt;Node12 -->
<g id="edge31" class="edge">
<title>Node13&#45;&gt;Node12</title>
<path fill="none" stroke="midnightblue" d="M282.64,-230.15C290.88,-230.59 300.02,-230.82 309.2,-230.84"/>
<polygon fill="midnightblue" stroke="midnightblue" points="282.61,-226.64 272.4,-229.45 282.14,-233.62 282.61,-226.64"/>
</g>
<!-- Node13&#45;&gt;Node13 -->
<g id="edge26" class="edge">
<title>Node13&#45;&gt;Node13</title>
<path fill="none" stroke="midnightblue" d="M270.84,-243.49C269.4,-248.41 262.24,-252.09 249.36,-252.09 228.74,-252.09 222.78,-242.66 231.48,-233.85"/>
<polygon fill="midnightblue" stroke="midnightblue" points="274.02,-241.99 267.24,-233.85 267.46,-244.44 274.02,-241.99"/>
</g>
<!-- Node14 -->
<g id="node14" class="node">
<title>Node14</title>
<g id="a_node14"><a xlink:href="dfp200_8f90.html#a7b64c7392b45d0042d8bd7379c0761a5" target="_top" xlink:title="Evaluate the derivative of the square of the magnetic field modulus. Add spectral constraint derivati...">
<polygon fill="white" stroke="black" points="94.86,-252.59 94.86,-271.59 168.86,-271.59 168.86,-252.59 94.86,-252.59"/>
<text text-anchor="middle" x="131.86" y="-259.59" font-family="Helvetica,sans-Serif" font-size="10.00">evaluate_dbb</text>
</a>
</g>
</g>
<!-- Node13&#45;&gt;Node14 -->
<g id="edge27" class="edge">
<title>Node13&#45;&gt;Node14</title>
<path fill="none" stroke="midnightblue" d="M216.31,-228.52C193.88,-234.72 164.96,-244.7 147.72,-252.5"/>
<polygon fill="midnightblue" stroke="midnightblue" points="217.3,-231.88 226.09,-225.96 215.53,-225.11 217.3,-231.88"/>
</g>
<!-- Node15 -->
<g id="node15" class="node">
<title>Node15</title>
<g id="a_node15"><a xlink:href="dfp200_8f90.html#a73ddf39ecc5228201fb643779e17cd36" target="_top" xlink:title="Evaluate mu and psip derivatives and store them in dmupfdx.">
<polygon fill="white" stroke="black" points="84.36,-214.59 84.36,-233.59 179.36,-233.59 179.36,-214.59 84.36,-214.59"/>
<text text-anchor="middle" x="131.86" y="-221.59" font-family="Helvetica,sans-Serif" font-size="10.00">evaluate_dmupfdx</text>
</a>
</g>
</g>
<!-- Node13&#45;&gt;Node15 -->
<g id="edge29" class="edge">
<title>Node13&#45;&gt;Node15</title>
<path fill="none" stroke="midnightblue" d="M215.83,-217.95C204.54,-217.37 191.64,-217.2 179.44,-217.46"/>
<polygon fill="midnightblue" stroke="midnightblue" points="215.88,-221.46 226.09,-218.63 216.34,-214.48 215.88,-221.46"/>
</g>
<!-- Node16 -->
<g id="node16" class="node">
<title>Node16</title>
<g id="a_node16"><a xlink:href="dfp200_8f90.html#a5e56f1f4b1e6df11a9cffa6237c37469" target="_top" xlink:title="This routine evaluates the value of the magnetic field once the interface is perturbed using matrix p...">
<polygon fill="white" stroke="black" points="74.36,-176.59 74.36,-195.59 189.36,-195.59 189.36,-176.59 74.36,-176.59"/>
<text text-anchor="middle" x="131.86" y="-183.59" font-family="Helvetica,sans-Serif" font-size="10.00">get_perturbed_solution</text>
</a>
</g>
</g>
<!-- Node13&#45;&gt;Node16 -->
<g id="edge32" class="edge">
<title>Node13&#45;&gt;Node16</title>
<path fill="none" stroke="midnightblue" d="M223.85,-210.39C211.73,-205.49 196.64,-200.17 182.26,-195.66"/>
<polygon fill="midnightblue" stroke="midnightblue" points="222.69,-213.7 233.26,-214.39 225.43,-207.26 222.69,-213.7"/>
</g>
<!-- Node14&#45;&gt;Node13 -->
<g id="edge28" class="edge">
<title>Node14&#45;&gt;Node13</title>
<path fill="none" stroke="midnightblue" d="M178.95,-253.55C198.29,-247.61 219.45,-240.01 233.26,-233.79"/>
<polygon fill="midnightblue" stroke="midnightblue" points="177.93,-250.21 169.34,-256.41 179.93,-256.91 177.93,-250.21"/>
</g>
<!-- Node15&#45;&gt;Node13 -->
<g id="edge30" class="edge">
<title>Node15&#45;&gt;Node13</title>
<path fill="none" stroke="midnightblue" d="M189.74,-230.84C202.66,-230.86 215.64,-230.43 226.09,-229.55"/>
<polygon fill="midnightblue" stroke="midnightblue" points="189.48,-227.34 179.44,-230.73 189.4,-234.34 189.48,-227.34"/>
</g>
<!-- Node16&#45;&gt;Node13 -->
<g id="edge33" class="edge">
<title>Node16&#45;&gt;Node13</title>
<path fill="none" stroke="midnightblue" d="M156.95,-199.62C177.32,-207.9 206.26,-217.37 226.09,-222.22"/>
<polygon fill="midnightblue" stroke="midnightblue" points="158.29,-196.39 147.72,-195.68 155.55,-202.83 158.29,-196.39"/>
</g>
<!-- Node17&#45;&gt;Node5 -->
<g id="edge36" class="edge">
<title>Node17&#45;&gt;Node5</title>
<path fill="none" stroke="midnightblue" d="M404.2,-328.88C414.3,-325.14 425.23,-320.23 434.36,-314.09 524.01,-253.83 602.03,-145.26 624.72,-112.03"/>
<polygon fill="midnightblue" stroke="midnightblue" points="402.79,-325.66 394.48,-332.23 405.07,-332.28 402.79,-325.66"/>
</g>
<!-- Node17&#45;&gt;Node17 -->
<g id="edge35" class="edge">
<title>Node17&#45;&gt;Node17</title>
<path fill="none" stroke="midnightblue" d="M394.55,-357.12C393.31,-362.22 385.75,-366.09 371.86,-366.09 350.18,-366.09 343.91,-356.66 353.05,-347.85"/>
<polygon fill="midnightblue" stroke="midnightblue" points="397.76,-355.72 390.66,-347.85 391.3,-358.42 397.76,-355.72"/>
</g>
<!-- Node18&#45;&gt;Node18 -->
<g id="edge41" class="edge">
<title>Node18&#45;&gt;Node18</title>
<path fill="none" stroke="midnightblue" d="M394.55,-187.12C393.31,-192.22 385.75,-196.09 371.86,-196.09 350.18,-196.09 343.91,-186.66 353.05,-177.85"/>
<polygon fill="midnightblue" stroke="midnightblue" points="397.76,-185.72 390.66,-177.85 391.3,-188.42 397.76,-185.72"/>
</g>
<!-- Node19 -->
<g id="node19" class="node">
<title>Node19</title>
<g id="a_node19"><a xlink:href="group__grp__conjugate__gradient.html#ga25a3bae2ff2ee0469b045de0d033398b" target="_top" xlink:title="Use preconditioned conjugate gradient method to find minimum of energy functional.">
<polygon fill="white" stroke="black" points="225.36,-158.59 225.36,-177.59 273.36,-177.59 273.36,-158.59 225.36,-158.59"/>
<text text-anchor="middle" x="249.36" y="-165.59" font-family="Helvetica,sans-Serif" font-size="10.00">pc00aa</text>
</a>
</g>
</g>
<!-- Node18&#45;&gt;Node19 -->
<g id="edge39" class="edge">
<title>Node18&#45;&gt;Node19</title>
<path fill="none" stroke="midnightblue" d="M337.52,-168.09C317.17,-168.09 291.67,-168.09 273.52,-168.09"/>
<polygon fill="midnightblue" stroke="midnightblue" points="337.63,-171.59 347.63,-168.09 337.62,-164.59 337.63,-171.59"/>
</g>
<!-- Node19&#45;&gt;Node19 -->
<g id="edge40" class="edge">
<title>Node19&#45;&gt;Node19</title>
<path fill="none" stroke="midnightblue" d="M270.84,-187.49C269.4,-192.41 262.24,-196.09 249.36,-196.09 228.74,-196.09 222.78,-186.66 231.48,-177.85"/>
<polygon fill="midnightblue" stroke="midnightblue" points="274.02,-185.99 267.24,-177.85 267.46,-188.44 274.02,-185.99"/>
</g>
<!-- Node20&#45;&gt;Node4 -->
<g id="edge44" class="edge">
<title>Node20&#45;&gt;Node4</title>
<path fill="none" stroke="midnightblue" d="M574.6,-30.96C601.9,-33.94 635.06,-38.49 664.36,-45.09 676.44,-47.82 689.59,-51.97 700.35,-55.7"/>
<polygon fill="midnightblue" stroke="midnightblue" points="574.75,-27.46 564.44,-29.89 574.02,-34.42 574.75,-27.46"/>
</g>
</g>
</svg>
