<?xml version="1.0" encoding="UTF-8" standalone="no"?>
<!DOCTYPE svg PUBLIC "-//W3C//DTD SVG 1.1//EN"
 "http://www.w3.org/Graphics/SVG/1.1/DTD/svg11.dtd">
<!-- Generated by graphviz version 2.44.0 ()
 -->
<!-- Title: pp00aa Pages: 1 -->
<svg width="396pt" height="192pt"
 viewBox="0.00 0.00 396.00 191.50" xmlns="http://www.w3.org/2000/svg" xmlns:xlink="http://www.w3.org/1999/xlink">
<g id="graph0" class="graph" transform="scale(1 1) rotate(0) translate(4 187.5)">
<title>pp00aa</title>
<polygon fill="white" stroke="transparent" points="-4,4 -4,-187.5 392,-187.5 392,4 -4,4"/>
<!-- Node1 -->
<g id="node1" class="node">
<title>Node1</title>
<g id="a_node1"><a xlink:title="Constructs Poincaré plot and &quot;approximate&quot; rotational&#45;transform (driver).">
<polygon fill="#bfbfbf" stroke="black" points="0,-76.5 0,-95.5 48,-95.5 48,-76.5 0,-76.5"/>
<text text-anchor="middle" x="24" y="-83.5" font-family="Helvetica,sans-Serif" font-size="10.00">pp00aa</text>
</a>
</g>
</g>
<!-- Node2 -->
<g id="node2" class="node">
<title>Node2</title>
<g id="a_node2"><a xlink:href="group__grp__output.html#gacd97a933d4239028dc8114b110655074" target="_top" xlink:title="Finalize Poincare output.">
<polygon fill="white" stroke="black" points="97,-153 97,-183 189,-183 189,-153 97,-153"/>
<text text-anchor="start" x="105" y="-171" font-family="Helvetica,sans-Serif" font-size="10.00">sphdf5::finalize_flt</text>
<text text-anchor="middle" x="143" y="-160" font-family="Helvetica,sans-Serif" font-size="10.00">_output</text>
</a>
</g>
</g>
<!-- Node1&#45;&gt;Node2 -->
<g id="edge1" class="edge">
<title>Node1&#45;&gt;Node2</title>
<path fill="none" stroke="midnightblue" d="M32.93,-95.57C43.53,-107.87 63.37,-129.26 84,-143 86.74,-144.82 89.63,-146.56 92.6,-148.21"/>
<polygon fill="midnightblue" stroke="midnightblue" points="91.2,-151.43 101.69,-152.89 94.4,-145.2 91.2,-151.43"/>
</g>
<!-- Node3 -->
<g id="node3" class="node">
<title>Node3</title>
<g id="a_node3"><a xlink:href="group__grp__output.html#ga47186186c9418cd913ee9c98b5668642" target="_top" xlink:title="Initialize field line tracing output group and create array datasets.">
<polygon fill="white" stroke="black" points="89,-114.5 89,-133.5 197,-133.5 197,-114.5 89,-114.5"/>
<text text-anchor="middle" x="143" y="-121.5" font-family="Helvetica,sans-Serif" font-size="10.00">sphdf5::init_flt_output</text>
</a>
</g>
</g>
<!-- Node1&#45;&gt;Node3 -->
<g id="edge2" class="edge">
<title>Node1&#45;&gt;Node3</title>
<path fill="none" stroke="midnightblue" d="M48.12,-93.51C63.74,-98.58 84.75,-105.41 102.94,-111.31"/>
<polygon fill="midnightblue" stroke="midnightblue" points="102.1,-114.72 112.7,-114.48 104.27,-108.06 102.1,-114.72"/>
</g>
<!-- Node4 -->
<g id="node4" class="node">
<title>Node4</title>
<g id="a_node4"><a xlink:href="group__grp__diagnostics.html#ga831aed2458140e266ee4d37461dd5350" target="_top" xlink:title="Constructs Poincaré plot and &quot;approximate&quot; rotational&#45;transform (for single field line).">
<polygon fill="white" stroke="black" points="119,-76.5 119,-95.5 167,-95.5 167,-76.5 119,-76.5"/>
<text text-anchor="middle" x="143" y="-83.5" font-family="Helvetica,sans-Serif" font-size="10.00">pp00ab</text>
</a>
</g>
</g>
<!-- Node1&#45;&gt;Node4 -->
<g id="edge3" class="edge">
<title>Node1&#45;&gt;Node4</title>
<path fill="none" stroke="midnightblue" d="M48.12,-86C65.42,-86 89.35,-86 108.71,-86"/>
<polygon fill="midnightblue" stroke="midnightblue" points="108.93,-89.5 118.93,-86 108.93,-82.5 108.93,-89.5"/>
</g>
<!-- Node11 -->
<g id="node11" class="node">
<title>Node11</title>
<g id="a_node11"><a xlink:href="group__grp__output.html#ga14195bd206b7f6a7f05d4d6fc4b50f42" target="_top" xlink:title="Write a hyperslab of Poincare data corresponding to the output of one parallel worker.">
<polygon fill="white" stroke="black" points="86.5,-38.5 86.5,-57.5 199.5,-57.5 199.5,-38.5 86.5,-38.5"/>
<text text-anchor="middle" x="143" y="-45.5" font-family="Helvetica,sans-Serif" font-size="10.00">sphdf5::write_poincare</text>
</a>
</g>
</g>
<!-- Node1&#45;&gt;Node11 -->
<g id="edge11" class="edge">
<title>Node1&#45;&gt;Node11</title>
<path fill="none" stroke="midnightblue" d="M48.12,-78.49C63.74,-73.42 84.75,-66.59 102.94,-60.69"/>
<polygon fill="midnightblue" stroke="midnightblue" points="104.27,-63.94 112.7,-57.52 102.1,-57.28 104.27,-63.94"/>
</g>
<!-- Node12 -->
<g id="node12" class="node">
<title>Node12</title>
<g id="a_node12"><a xlink:href="group__grp__output.html#ga8f01c5e4a21c5af2c39620f24e598095" target="_top" xlink:title="Write the rotational transform output from field line following.">
<polygon fill="white" stroke="black" points="84,-0.5 84,-19.5 202,-19.5 202,-0.5 84,-0.5"/>
<text text-anchor="middle" x="143" y="-7.5" font-family="Helvetica,sans-Serif" font-size="10.00">sphdf5::write_transform</text>
</a>
</g>
</g>
<!-- Node1&#45;&gt;Node12 -->
<g id="edge12" class="edge">
<title>Node1&#45;&gt;Node12</title>
<path fill="none" stroke="midnightblue" d="M32.75,-76.14C43.15,-63.53 62.77,-41.79 84,-29 87.42,-26.94 91.1,-25.07 94.88,-23.38"/>
<polygon fill="midnightblue" stroke="midnightblue" points="96.42,-26.54 104.39,-19.56 93.81,-20.04 96.42,-26.54"/>
</g>
<!-- Node5 -->
<g id="node5" class="node">
<title>Node5</title>
<g id="a_node5"><a xlink:href="group__grp__diagnostics.html#ga20985df1b0df0503ca03ca13f1daf642" target="_top" xlink:title="Compute the magnetic field.">
<polygon fill="white" stroke="black" points="242.5,-114.5 242.5,-133.5 281.5,-133.5 281.5,-114.5 242.5,-114.5"/>
<text text-anchor="middle" x="262" y="-121.5" font-family="Helvetica,sans-Serif" font-size="10.00">bfield</text>
</a>
</g>
</g>
<!-- Node4&#45;&gt;Node5 -->
<g id="edge4" class="edge">
<title>Node4&#45;&gt;Node5</title>
<path fill="none" stroke="midnightblue" d="M167.12,-93.51C185.92,-99.61 212.53,-108.26 232.62,-114.78"/>
<polygon fill="midnightblue" stroke="midnightblue" points="231.58,-118.13 242.18,-117.89 233.75,-111.47 231.58,-118.13"/>
</g>
<!-- Node8 -->
<g id="node8" class="node">
<title>Node8</title>
<g id="a_node8"><a xlink:href="group__grp__diagnostics.html#ga08ad6b6635a598c0d0578e42f46b63c5" target="_top" xlink:title="Calculates coordinates, , and metrics, at given .">
<polygon fill="white" stroke="black" points="240.5,-76.5 240.5,-95.5 283.5,-95.5 283.5,-76.5 240.5,-76.5"/>
<text text-anchor="middle" x="262" y="-83.5" font-family="Helvetica,sans-Serif" font-size="10.00">stzxyz</text>
</a>
</g>
</g>
<!-- Node4&#45;&gt;Node8 -->
<g id="edge7" class="edge">
<title>Node4&#45;&gt;Node8</title>
<path fill="none" stroke="midnightblue" d="M167.12,-86C185.18,-86 210.45,-86 230.23,-86"/>
<polygon fill="midnightblue" stroke="midnightblue" points="230.28,-89.5 240.28,-86 230.28,-82.5 230.28,-89.5"/>
</g>
<!-- Node9 -->
<g id="node9" class="node">
<title>Node9</title>
<g id="a_node9"><a xlink:href="group__grp__volume.html#gae4c62d20b8fef07f4471b5b0889ab005" target="_top" xlink:title="Computes volume of each region; and, if required, the derivatives of the volume with respect to the i...">
<polygon fill="white" stroke="black" points="238,-38.5 238,-57.5 286,-57.5 286,-38.5 238,-38.5"/>
<text text-anchor="middle" x="262" y="-45.5" font-family="Helvetica,sans-Serif" font-size="10.00">volume</text>
</a>
</g>
</g>
<!-- Node4&#45;&gt;Node9 -->
<g id="edge8" class="edge">
<title>Node4&#45;&gt;Node9</title>
<path fill="none" stroke="midnightblue" d="M167.12,-78.49C184.58,-72.82 208.79,-64.96 228.25,-58.64"/>
<polygon fill="midnightblue" stroke="midnightblue" points="229.5,-61.91 237.93,-55.49 227.34,-55.25 229.5,-61.91"/>
</g>
<!-- Node6 -->
<g id="node6" class="node">
<title>Node6</title>
<g id="a_node6"><a xlink:href="basefn_8f90.html#af6a4cad04c70bfb14fd18a3bfbc843a3" target="_top" xlink:title="Get the Chebyshev polynomials with zeroth, first derivatives.">
<polygon fill="white" stroke="black" points="324.5,-133.5 324.5,-152.5 385.5,-152.5 385.5,-133.5 324.5,-133.5"/>
<text text-anchor="middle" x="355" y="-140.5" font-family="Helvetica,sans-Serif" font-size="10.00">get_cheby</text>
</a>
</g>
</g>
<!-- Node5&#45;&gt;Node6 -->
<g id="edge5" class="edge">
<title>Node5&#45;&gt;Node6</title>
<path fill="none" stroke="midnightblue" d="M281.86,-127.94C291.36,-129.92 303.25,-132.4 314.63,-134.78"/>
<polygon fill="midnightblue" stroke="midnightblue" points="313.92,-138.21 324.42,-136.82 315.35,-131.35 313.92,-138.21"/>
</g>
<!-- Node7 -->
<g id="node7" class="node">
<title>Node7</title>
<g id="a_node7"><a xlink:href="basefn_8f90.html#a38dc596fb909186b01dacc1feac03164" target="_top" xlink:title="Get the Zernike polynomials &#160;with zeroth, first derivatives.">
<polygon fill="white" stroke="black" points="322,-95.5 322,-114.5 388,-114.5 388,-95.5 322,-95.5"/>
<text text-anchor="middle" x="355" y="-102.5" font-family="Helvetica,sans-Serif" font-size="10.00">get_zernike</text>
</a>
</g>
</g>
<!-- Node5&#45;&gt;Node7 -->
<g id="edge6" class="edge">
<title>Node5&#45;&gt;Node7</title>
<path fill="none" stroke="midnightblue" d="M281.86,-120.06C290.61,-118.23 301.41,-115.98 311.95,-113.78"/>
<polygon fill="midnightblue" stroke="midnightblue" points="312.83,-117.17 321.91,-111.7 311.4,-110.32 312.83,-117.17"/>
</g>
<!-- Node10 -->
<g id="node10" class="node">
<title>Node10</title>
<g id="a_node10"><a xlink:href="group__grp__geometry.html#gaaca20aa60eaf39055f3c9d5c02a24ac2" target="_top" xlink:title="Calculates coordinates, , and metrics, using FFTs.">
<polygon fill="white" stroke="black" points="332,-38.5 332,-57.5 378,-57.5 378,-38.5 332,-38.5"/>
<text text-anchor="middle" x="355" y="-45.5" font-family="Helvetica,sans-Serif" font-size="10.00">coords</text>
</a>
</g>
</g>
<!-- Node9&#45;&gt;Node10 -->
<g id="edge9" class="edge">
<title>Node9&#45;&gt;Node10</title>
<path fill="none" stroke="midnightblue" d="M286.43,-42.01C297.16,-41.21 310.04,-41.04 321.67,-41.51"/>
<polygon fill="midnightblue" stroke="midnightblue" points="321.71,-45.02 331.9,-42.12 322.12,-38.03 321.71,-45.02"/>
</g>
<!-- Node10&#45;&gt;Node9 -->
<g id="edge10" class="edge">
<title>Node10&#45;&gt;Node9</title>
<path fill="none" stroke="midnightblue" d="M331.9,-53.88C321.25,-54.75 308.26,-54.97 296.43,-54.53"/>
<polygon fill="midnightblue" stroke="midnightblue" points="296.61,-51.04 286.43,-53.99 296.23,-58.03 296.61,-51.04"/>
</g>
</g>
</svg>
