<?xml version="1.0" encoding="UTF-8" standalone="no"?>
<!DOCTYPE svg PUBLIC "-//W3C//DTD SVG 1.1//EN"
 "http://www.w3.org/Graphics/SVG/1.1/DTD/svg11.dtd">
<!-- Generated by graphviz version 2.44.0 ()
 -->
<!-- Title: ma02aa Pages: 1 -->
<svg width="726pt" height="256pt"
 viewBox="0.00 0.00 726.00 256.00" xmlns="http://www.w3.org/2000/svg" xmlns:xlink="http://www.w3.org/1999/xlink">
<g id="graph0" class="graph" transform="scale(1 1) rotate(0) translate(4 252)">
<title>ma02aa</title>
<polygon fill="white" stroke="transparent" points="-4,4 -4,-252 722,-252 722,4 -4,4"/>
<!-- Node1 -->
<g id="node1" class="node">
<title>Node1</title>
<g id="a_node1"><a xlink:title="Constructs Beltrami field in given volume consistent with flux, helicity, rotational&#45;transform and/or...">
<polygon fill="#bfbfbf" stroke="black" points="0,-95.5 0,-114.5 51,-114.5 51,-95.5 0,-95.5"/>
<text text-anchor="middle" x="25.5" y="-102.5" font-family="Helvetica,sans-Serif" font-size="10.00">ma02aa</text>
</a>
</g>
</g>
<!-- Node2 -->
<g id="node2" class="node">
<title>Node2</title>
<g id="a_node2"><a xlink:href="group__grp__integrals.html#ga6d086e8d1af527def50b653b86e8373a" target="_top" xlink:title="Evaluates volume integrals, and their derivatives w.r.t. interface geometry, using &quot;packed&quot; format.">
<polygon fill="white" stroke="black" points="89.5,-133.5 89.5,-152.5 135.5,-152.5 135.5,-133.5 89.5,-133.5"/>
<text text-anchor="middle" x="112.5" y="-140.5" font-family="Helvetica,sans-Serif" font-size="10.00">df00ab</text>
</a>
</g>
</g>
<!-- Node1&#45;&gt;Node2 -->
<g id="edge1" class="edge">
<title>Node1&#45;&gt;Node2</title>
<path fill="none" stroke="midnightblue" d="M47.95,-114.59C57.92,-119.04 69.95,-124.42 80.85,-129.3"/>
<polygon fill="midnightblue" stroke="midnightblue" points="79.5,-132.53 90.06,-133.41 82.36,-126.14 79.5,-132.53"/>
</g>
<!-- Node3 -->
<g id="node3" class="node">
<title>Node3</title>
<g id="a_node3"><a xlink:href="group__grp__solver.html#ga6626839aff500f060beb5bce2b90c447" target="_top" xlink:title="Solves Beltrami/vacuum (linear) system, given matrices.unpacking fluxes, helicity multiplier">
<polygon fill="white" stroke="black" points="87,-95.5 87,-114.5 138,-114.5 138,-95.5 87,-95.5"/>
<text text-anchor="middle" x="112.5" y="-102.5" font-family="Helvetica,sans-Serif" font-size="10.00">mp00ac</text>
</a>
</g>
</g>
<!-- Node1&#45;&gt;Node3 -->
<g id="edge2" class="edge">
<title>Node1&#45;&gt;Node3</title>
<path fill="none" stroke="midnightblue" d="M51.09,-105C59.1,-105 68.16,-105 76.78,-105"/>
<polygon fill="midnightblue" stroke="midnightblue" points="76.97,-108.5 86.97,-105 76.97,-101.5 76.97,-108.5"/>
</g>
<!-- Node12 -->
<g id="node12" class="node">
<title>Node12</title>
<g id="a_node12"><a xlink:href="group__grp__packing.html#gaee2357e570aebf8559e169def6b619dd" target="_top" xlink:title="Packs and unpacks Beltrami field solution vector.">
<polygon fill="white" stroke="black" points="367,-0.5 367,-19.5 415,-19.5 415,-0.5 367,-0.5"/>
<text text-anchor="middle" x="391" y="-7.5" font-family="Helvetica,sans-Serif" font-size="10.00">packab</text>
</a>
</g>
</g>
<!-- Node1&#45;&gt;Node12 -->
<g id="edge21" class="edge">
<title>Node1&#45;&gt;Node12</title>
<path fill="none" stroke="midnightblue" d="M44.84,-95.39C84.19,-75.4 180.2,-30.07 267,-16 297.1,-11.12 331.84,-9.82 356.71,-9.62"/>
<polygon fill="midnightblue" stroke="midnightblue" points="356.72,-13.12 366.72,-9.59 356.71,-6.12 356.72,-13.12"/>
</g>
<!-- Node4 -->
<g id="node4" class="node">
<title>Node4</title>
<g id="a_node4"><a xlink:href="group__grp__currents.html#gacaf4411e0ba378631dcd2ccb3752e452" target="_top" xlink:title="Computes the plasma current, , and the &quot;linking&quot; current, .">
<polygon fill="white" stroke="black" points="277,-228.5 277,-247.5 321,-247.5 321,-228.5 277,-228.5"/>
<text text-anchor="middle" x="299" y="-235.5" font-family="Helvetica,sans-Serif" font-size="10.00">curent</text>
</a>
</g>
</g>
<!-- Node3&#45;&gt;Node4 -->
<g id="edge3" class="edge">
<title>Node3&#45;&gt;Node4</title>
<path fill="none" stroke="midnightblue" d="M128.69,-114.68C132.09,-117.38 135.44,-120.54 138,-124 164.84,-160.31 138.9,-190.6 174,-219 199.86,-239.92 239,-242.64 266.37,-241.43"/>
<polygon fill="midnightblue" stroke="midnightblue" points="266.83,-244.91 276.58,-240.78 266.38,-237.93 266.83,-244.91"/>
</g>
<!-- Node7 -->
<g id="node7" class="node">
<title>Node7</title>
<g id="a_node7"><a xlink:href="intghs_8f90.html#a21d3b7106371783302e68297f7797e9f" target="_top" xlink:title="Calculates volume integrals of Chebyshev polynomials and covariant field products.">
<polygon fill="white" stroke="black" points="369.5,-152.5 369.5,-171.5 412.5,-171.5 412.5,-152.5 369.5,-152.5"/>
<text text-anchor="middle" x="391" y="-159.5" font-family="Helvetica,sans-Serif" font-size="10.00">intghs</text>
</a>
</g>
</g>
<!-- Node3&#45;&gt;Node7 -->
<g id="edge7" class="edge">
<title>Node3&#45;&gt;Node7</title>
<path fill="none" stroke="midnightblue" d="M138.06,-113.34C148.99,-116.89 162.06,-120.91 174,-124 239.08,-140.82 317.12,-152.51 359.3,-158.15"/>
<polygon fill="midnightblue" stroke="midnightblue" points="358.85,-161.62 369.22,-159.45 359.76,-154.68 358.85,-161.62"/>
</g>
<!-- Node11 -->
<g id="node11" class="node">
<title>Node11</title>
<g id="a_node11"><a xlink:href="group__grp__build__matrices.html#ga6c22bb4322fbcc29cb17dcc90b56eacd" target="_top" xlink:title="Constructs matrices that represent the Beltrami linear system, matrix&#45;free.">
<polygon fill="white" stroke="black" points="368,-76.5 368,-95.5 414,-95.5 414,-76.5 368,-76.5"/>
<text text-anchor="middle" x="391" y="-83.5" font-family="Helvetica,sans-Serif" font-size="10.00">mtrxhs</text>
</a>
</g>
</g>
<!-- Node3&#45;&gt;Node11 -->
<g id="edge12" class="edge">
<title>Node3&#45;&gt;Node11</title>
<path fill="none" stroke="midnightblue" d="M137.92,-95.43C178.11,-80.88 260.75,-55.97 331,-67 340.11,-68.43 349.74,-71.03 358.51,-73.87"/>
<polygon fill="midnightblue" stroke="midnightblue" points="357.39,-77.18 367.99,-77.11 359.66,-70.56 357.39,-77.18"/>
</g>
<!-- Node3&#45;&gt;Node12 -->
<g id="edge13" class="edge">
<title>Node3&#45;&gt;Node12</title>
<path fill="none" stroke="midnightblue" d="M125.81,-95.38C137.59,-86.6 156.15,-73.83 174,-66 235.79,-38.92 313.46,-22.77 356.82,-15.21"/>
<polygon fill="midnightblue" stroke="midnightblue" points="357.54,-18.64 366.82,-13.51 356.37,-11.73 357.54,-18.64"/>
</g>
<!-- Node13 -->
<g id="node13" class="node">
<title>Node13</title>
<g id="a_node13"><a xlink:href="mp00ac_8f90.html#a304edac43f63d39dda4419b4d044eac5" target="_top" xlink:title="run GMRES">
<polygon fill="white" stroke="black" points="174,-95.5 174,-114.5 231,-114.5 231,-95.5 174,-95.5"/>
<text text-anchor="middle" x="202.5" y="-102.5" font-family="Helvetica,sans-Serif" font-size="10.00">rungmres</text>
</a>
</g>
</g>
<!-- Node3&#45;&gt;Node13 -->
<g id="edge14" class="edge">
<title>Node3&#45;&gt;Node13</title>
<path fill="none" stroke="midnightblue" d="M138.01,-105C145.89,-105 154.82,-105 163.44,-105"/>
<polygon fill="midnightblue" stroke="midnightblue" points="163.71,-108.5 173.71,-105 163.71,-101.5 163.71,-108.5"/>
</g>
<!-- Node16 -->
<g id="node16" class="node">
<title>Node16</title>
<g id="a_node16"><a xlink:href="group__grp__transform.html#ga0e0447653b8da82f06748dd8831bc337" target="_top" xlink:title="Calculates rotational transform given an arbitrary tangential field.">
<polygon fill="white" stroke="black" points="180.5,-190.5 180.5,-209.5 224.5,-209.5 224.5,-190.5 180.5,-190.5"/>
<text text-anchor="middle" x="202.5" y="-197.5" font-family="Helvetica,sans-Serif" font-size="10.00">tr00ab</text>
</a>
</g>
</g>
<!-- Node3&#45;&gt;Node16 -->
<g id="edge20" class="edge">
<title>Node3&#45;&gt;Node16</title>
<path fill="none" stroke="midnightblue" d="M127.35,-114.56C131.01,-117.39 134.82,-120.64 138,-124 157.33,-144.41 155.27,-155.04 174,-176 176.28,-178.55 178.82,-181.09 181.41,-183.52"/>
<polygon fill="midnightblue" stroke="midnightblue" points="179.31,-186.33 189.13,-190.33 183.95,-181.08 179.31,-186.33"/>
</g>
<!-- Node5 -->
<g id="node5" class="node">
<title>Node5</title>
<g id="a_node5"><a xlink:href="group__grp__geometry.html#gaaca20aa60eaf39055f3c9d5c02a24ac2" target="_top" xlink:title="Calculates coordinates, , and metrics, using FFTs.">
<polygon fill="white" stroke="black" points="588,-171.5 588,-190.5 634,-190.5 634,-171.5 588,-171.5"/>
<text text-anchor="middle" x="611" y="-178.5" font-family="Helvetica,sans-Serif" font-size="10.00">coords</text>
</a>
</g>
</g>
<!-- Node4&#45;&gt;Node5 -->
<g id="edge4" class="edge">
<title>Node4&#45;&gt;Node5</title>
<path fill="none" stroke="midnightblue" d="M321.28,-239.89C365.58,-243.09 470.37,-246.74 552,-219 566.07,-214.22 580.06,-205.21 590.77,-197.17"/>
<polygon fill="midnightblue" stroke="midnightblue" points="593.23,-199.69 598.93,-190.75 588.9,-194.18 593.23,-199.69"/>
</g>
<!-- Node6 -->
<g id="node6" class="node">
<title>Node6</title>
<g id="a_node6"><a xlink:href="group__grp__volume.html#gae4c62d20b8fef07f4471b5b0889ab005" target="_top" xlink:title="Computes volume of each region; and, if required, the derivatives of the volume with respect to the i...">
<polygon fill="white" stroke="black" points="670,-171.5 670,-190.5 718,-190.5 718,-171.5 670,-171.5"/>
<text text-anchor="middle" x="694" y="-178.5" font-family="Helvetica,sans-Serif" font-size="10.00">volume</text>
</a>
</g>
</g>
<!-- Node5&#45;&gt;Node6 -->
<g id="edge5" class="edge">
<title>Node5&#45;&gt;Node6</title>
<path fill="none" stroke="midnightblue" d="M634.13,-174.91C641.99,-174.3 651.02,-174.12 659.61,-174.34"/>
<polygon fill="midnightblue" stroke="midnightblue" points="659.61,-177.85 669.76,-174.83 659.94,-170.85 659.61,-177.85"/>
</g>
<!-- Node6&#45;&gt;Node5 -->
<g id="edge6" class="edge">
<title>Node6&#45;&gt;Node5</title>
<path fill="none" stroke="midnightblue" d="M669.76,-187.17C661.8,-187.74 652.74,-187.89 644.19,-187.62"/>
<polygon fill="midnightblue" stroke="midnightblue" points="644.3,-184.12 634.13,-187.09 643.94,-191.11 644.3,-184.12"/>
</g>
<!-- Node8 -->
<g id="node8" class="node">
<title>Node8</title>
<g id="a_node8"><a xlink:href="metrix_8f90.html#a80c802cda076dd9e7031bc5f9098c175" target="_top" xlink:title="compute guvijsave">
<polygon fill="white" stroke="black" points="451,-114.5 451,-133.5 552,-133.5 552,-114.5 451,-114.5"/>
<text text-anchor="middle" x="501.5" y="-121.5" font-family="Helvetica,sans-Serif" font-size="10.00">compute_guvijsave</text>
</a>
</g>
</g>
<!-- Node7&#45;&gt;Node8 -->
<g id="edge8" class="edge">
<title>Node7&#45;&gt;Node8</title>
<path fill="none" stroke="midnightblue" d="M412.66,-154.76C427.05,-149.72 446.64,-142.86 463.67,-136.9"/>
<polygon fill="midnightblue" stroke="midnightblue" points="465.06,-140.12 473.34,-133.51 462.75,-133.51 465.06,-140.12"/>
</g>
<!-- Node9 -->
<g id="node9" class="node">
<title>Node9</title>
<g id="a_node9"><a xlink:href="basefn_8f90.html#af6a4cad04c70bfb14fd18a3bfbc843a3" target="_top" xlink:title="Get the Chebyshev polynomials with zeroth, first derivatives.">
<polygon fill="white" stroke="black" points="471,-190.5 471,-209.5 532,-209.5 532,-190.5 471,-190.5"/>
<text text-anchor="middle" x="501.5" y="-197.5" font-family="Helvetica,sans-Serif" font-size="10.00">get_cheby</text>
</a>
</g>
</g>
<!-- Node7&#45;&gt;Node9 -->
<g id="edge10" class="edge">
<title>Node7&#45;&gt;Node9</title>
<path fill="none" stroke="midnightblue" d="M412.66,-169.24C427.05,-174.28 446.64,-181.14 463.67,-187.1"/>
<polygon fill="midnightblue" stroke="midnightblue" points="462.75,-190.49 473.34,-190.49 465.06,-183.88 462.75,-190.49"/>
</g>
<!-- Node10 -->
<g id="node10" class="node">
<title>Node10</title>
<g id="a_node10"><a xlink:href="basefn_8f90.html#a38dc596fb909186b01dacc1feac03164" target="_top" xlink:title="Get the Zernike polynomials &#160;with zeroth, first derivatives.">
<polygon fill="white" stroke="black" points="468.5,-152.5 468.5,-171.5 534.5,-171.5 534.5,-152.5 468.5,-152.5"/>
<text text-anchor="middle" x="501.5" y="-159.5" font-family="Helvetica,sans-Serif" font-size="10.00">get_zernike</text>
</a>
</g>
</g>
<!-- Node7&#45;&gt;Node10 -->
<g id="edge11" class="edge">
<title>Node7&#45;&gt;Node10</title>
<path fill="none" stroke="midnightblue" d="M412.66,-162C425.58,-162 442.67,-162 458.35,-162"/>
<polygon fill="midnightblue" stroke="midnightblue" points="458.39,-165.5 468.39,-162 458.39,-158.5 458.39,-165.5"/>
</g>
<!-- Node8&#45;&gt;Node5 -->
<g id="edge9" class="edge">
<title>Node8&#45;&gt;Node5</title>
<path fill="none" stroke="midnightblue" d="M530.45,-133.53C537.61,-136.3 545.2,-139.52 552,-143 564.72,-149.52 578.12,-158.16 588.83,-165.56"/>
<polygon fill="midnightblue" stroke="midnightblue" points="586.94,-168.51 597.12,-171.41 590.97,-162.79 586.94,-168.51"/>
</g>
<!-- Node14 -->
<g id="node14" class="node">
<title>Node14</title>
<g id="a_node14"><a xlink:href="mp00ac_8f90.html#ae9fe335bb4916face9f9d19ce8c0f5d7" target="_top" xlink:title="compute a.x by either by coumputing it directly, or using a matrix free method">
<polygon fill="white" stroke="black" points="274.5,-114.5 274.5,-133.5 323.5,-133.5 323.5,-114.5 274.5,-114.5"/>
<text text-anchor="middle" x="299" y="-121.5" font-family="Helvetica,sans-Serif" font-size="10.00">matvec</text>
</a>
</g>
</g>
<!-- Node13&#45;&gt;Node14 -->
<g id="edge15" class="edge">
<title>Node13&#45;&gt;Node14</title>
<path fill="none" stroke="midnightblue" d="M231.09,-110.55C241.49,-112.64 253.44,-115.04 264.34,-117.23"/>
<polygon fill="midnightblue" stroke="midnightblue" points="263.89,-120.71 274.38,-119.25 265.27,-113.85 263.89,-120.71"/>
</g>
<!-- Node15 -->
<g id="node15" class="node">
<title>Node15</title>
<g id="a_node15"><a xlink:href="mp00ac_8f90.html#a76cda97bf815eb7f40cb76ad1719d809" target="_top" xlink:title="apply the preconditioner">
<polygon fill="white" stroke="black" points="267,-76.5 267,-95.5 331,-95.5 331,-76.5 267,-76.5"/>
<text text-anchor="middle" x="299" y="-83.5" font-family="Helvetica,sans-Serif" font-size="10.00">prec_solve</text>
</a>
</g>
</g>
<!-- Node13&#45;&gt;Node15 -->
<g id="edge19" class="edge">
<title>Node13&#45;&gt;Node15</title>
<path fill="none" stroke="midnightblue" d="M231.09,-99.45C239.15,-97.83 248.15,-96.02 256.86,-94.27"/>
<polygon fill="midnightblue" stroke="midnightblue" points="257.78,-97.66 266.89,-92.25 256.4,-90.79 257.78,-97.66"/>
</g>
<!-- Node14&#45;&gt;Node7 -->
<g id="edge16" class="edge">
<title>Node14&#45;&gt;Node7</title>
<path fill="none" stroke="midnightblue" d="M322.71,-133.59C334.05,-138.38 347.92,-144.23 360.11,-149.38"/>
<polygon fill="midnightblue" stroke="midnightblue" points="358.88,-152.66 369.45,-153.32 361.6,-146.21 358.88,-152.66"/>
</g>
<!-- Node14&#45;&gt;Node11 -->
<g id="edge17" class="edge">
<title>Node14&#45;&gt;Node11</title>
<path fill="none" stroke="midnightblue" d="M322.71,-114.41C333.53,-109.84 346.65,-104.3 358.43,-99.33"/>
<polygon fill="midnightblue" stroke="midnightblue" points="360.07,-102.44 367.92,-95.32 357.34,-95.99 360.07,-102.44"/>
</g>
<!-- Node14&#45;&gt;Node12 -->
<g id="edge18" class="edge">
<title>Node14&#45;&gt;Node12</title>
<path fill="none" stroke="midnightblue" d="M318.73,-114.46C323.05,-111.75 327.42,-108.56 331,-105 353.73,-82.4 371.68,-49.44 381.57,-28.88"/>
<polygon fill="midnightblue" stroke="midnightblue" points="384.82,-30.17 385.87,-19.63 378.48,-27.22 384.82,-30.17"/>
</g>
</g>
</svg>
