<?xml version="1.0" encoding="UTF-8" standalone="no"?>
<!DOCTYPE svg PUBLIC "-//W3C//DTD SVG 1.1//EN"
 "http://www.w3.org/Graphics/SVG/1.1/DTD/svg11.dtd">
<!-- Generated by graphviz version 2.50.0 (20220203.2022)
 -->
<!-- Title: coords Pages: 1 -->
<svg width="138pt" height="46pt"
 viewBox="0.00 0.00 138.00 46.00" xmlns="http://www.w3.org/2000/svg" xmlns:xlink="http://www.w3.org/1999/xlink">
<g id="graph0" class="graph" transform="scale(1 1) rotate(0) translate(4 42)">
<title>coords</title>
<polygon fill="white" stroke="transparent" points="-4,4 -4,-42 134,-42 134,4 -4,4"/>
<!-- Node1 -->
<g id="node1" class="node">
<title>Node1</title>
<g id="a_node1"><a xlink:title="Calculates coordinates, , and metrics, using FFTs.">
<polygon fill="#bfbfbf" stroke="black" points="0,-0.5 0,-19.5 46,-19.5 46,-0.5 0,-0.5"/>
<text text-anchor="middle" x="23" y="-7.5" font-family="Helvetica,sans-Serif" font-size="10.00">coords</text>
</a>
</g>
</g>
<!-- Node1&#45;&gt;Node1 -->
<g id="edge1" class="edge">
<title>Node1&#45;&gt;Node1</title>
<path fill="none" stroke="midnightblue" d="M10.36,-19.76C4.21,-28.57 8.43,-38 23,-38 31.88,-38 36.91,-34.5 38.1,-29.77"/>
<polygon fill="midnightblue" stroke="midnightblue" points="41.43,-28.63 35.64,-19.76 34.63,-30.3 41.43,-28.63"/>
</g>
<!-- Node2 -->
<g id="node2" class="node">
<title>Node2</title>
<g id="a_node2"><a xlink:href="group__grp__volume.html#gae4c62d20b8fef07f4471b5b0889ab005" target="_top" xlink:title="Computes volume of each region; and, if required, the derivatives of the volume with respect to the i...">
<polygon fill="white" stroke="black" points="82,-0.5 82,-19.5 130,-19.5 130,-0.5 82,-0.5"/>
<text text-anchor="middle" x="106" y="-7.5" font-family="Helvetica,sans-Serif" font-size="10.00">volume</text>
</a>
</g>
</g>
<!-- Node1&#45;&gt;Node2 -->
<g id="edge2" class="edge">
<title>Node1&#45;&gt;Node2</title>
<path fill="none" stroke="midnightblue" d="M46.13,-3.91C53.99,-3.3 63.02,-3.12 71.61,-3.34"/>
<polygon fill="midnightblue" stroke="midnightblue" points="71.61,-6.85 81.76,-3.83 71.94,0.15 71.61,-6.85"/>
</g>
<!-- Node2&#45;&gt;Node1 -->
<g id="edge3" class="edge">
<title>Node2&#45;&gt;Node1</title>
<path fill="none" stroke="midnightblue" d="M81.76,-16.17C73.8,-16.74 64.74,-16.89 56.19,-16.62"/>
<polygon fill="midnightblue" stroke="midnightblue" points="56.3,-13.12 46.13,-16.09 55.94,-20.11 56.3,-13.12"/>
</g>
<!-- Node2&#45;&gt;Node2 -->
<g id="edge4" class="edge">
<title>Node2&#45;&gt;Node2</title>
<path fill="none" stroke="midnightblue" d="M93.36,-19.76C87.21,-28.57 91.43,-38 106,-38 114.88,-38 119.91,-34.5 121.1,-29.77"/>
<polygon fill="midnightblue" stroke="midnightblue" points="124.43,-28.63 118.64,-19.76 117.63,-30.3 124.43,-28.63"/>
</g>
</g>
</svg>
