<?xml version="1.0" encoding="UTF-8" standalone="no"?>
<!DOCTYPE svg PUBLIC "-//W3C//DTD SVG 1.1//EN"
 "http://www.w3.org/Graphics/SVG/1.1/DTD/svg11.dtd">
<!-- Generated by graphviz version 2.49.3 (20211027.1534)
 -->
<!-- Title: brcast Pages: 1 -->
<svg width="658pt" height="410pt"
 viewBox="0.00 0.00 658.00 410.00" xmlns="http://www.w3.org/2000/svg" xmlns:xlink="http://www.w3.org/1999/xlink">
<g id="graph0" class="graph" transform="scale(1 1) rotate(0) translate(4 406)">
<title>brcast</title>
<polygon fill="white" stroke="transparent" points="-4,4 -4,-406 654,-406 654,4 -4,4"/>
<!-- Node1 -->
<g id="node1" class="node">
<title>Node1</title>
<g id="a_node1"><a xlink:title="Broadcasts Beltrami fields, profiles, . . .">
<polygon fill="#bfbfbf" stroke="black" points="606,-283.5 606,-302.5 650,-302.5 650,-283.5 606,-283.5"/>
<text text-anchor="middle" x="628" y="-290.5" font-family="Helvetica,sans-Serif" font-size="10.00">brcast</text>
</a>
</g>
</g>
<!-- Node1&#45;&gt;Node1 -->
<g id="edge1" class="edge">
<title>Node1&#45;&gt;Node1</title>
<path fill="none" stroke="midnightblue" d="M642.73,-312.77C641.58,-317.5 636.66,-321 628,-321 613.78,-321 609.67,-311.57 615.67,-302.76"/>
<polygon fill="midnightblue" stroke="midnightblue" points="646.07,-311.66 640.33,-302.76 639.26,-313.3 646.07,-311.66"/>
</g>
<!-- Node2 -->
<g id="node2" class="node">
<title>Node2</title>
<g id="a_node2"><a xlink:href="group__grp__global__force.html#ga38c9d3c50bd043707fefa5137c9dbf44" target="_top" xlink:title="Calculates , where &#160;and , and .">
<polygon fill="white" stroke="black" points="526,-198.5 526,-217.5 570,-217.5 570,-198.5 526,-198.5"/>
<text text-anchor="middle" x="548" y="-205.5" font-family="Helvetica,sans-Serif" font-size="10.00">dforce</text>
</a>
</g>
</g>
<!-- Node1&#45;&gt;Node2 -->
<g id="edge2" class="edge">
<title>Node1&#45;&gt;Node2</title>
<path fill="none" stroke="midnightblue" d="M610.89,-275.45C594.82,-257.93 570.71,-231.66 557.84,-217.64"/>
<polygon fill="midnightblue" stroke="midnightblue" points="608.71,-278.25 618.05,-283.25 613.87,-273.52 608.71,-278.25"/>
</g>
<!-- Node5 -->
<g id="node5" class="node">
<title>Node5</title>
<g id="a_node5"><a xlink:href="xspech_8f90.html#a1451823a7b97101a797de616250752c1" target="_top" xlink:title="Final diagnostics.">
<polygon fill="white" stroke="black" points="143,-382.5 143,-401.5 232,-401.5 232,-382.5 143,-382.5"/>
<text text-anchor="middle" x="187.5" y="-389.5" font-family="Helvetica,sans-Serif" font-size="10.00">final_diagnostics</text>
</a>
</g>
</g>
<!-- Node1&#45;&gt;Node5 -->
<g id="edge47" class="edge">
<title>Node1&#45;&gt;Node5</title>
<path fill="none" stroke="midnightblue" d="M605.49,-308.5C579.51,-326.36 533.81,-355.02 490,-369 401.73,-397.17 291.86,-397.43 232.13,-394.87"/>
<polygon fill="midnightblue" stroke="midnightblue" points="607.63,-311.28 613.82,-302.68 603.62,-305.54 607.63,-311.28"/>
</g>
<!-- Node2&#45;&gt;Node2 -->
<g id="edge13" class="edge">
<title>Node2&#45;&gt;Node2</title>
<path fill="none" stroke="midnightblue" d="M562.73,-227.77C561.58,-232.5 556.66,-236 548,-236 533.78,-236 529.67,-226.57 535.67,-217.76"/>
<polygon fill="midnightblue" stroke="midnightblue" points="566.07,-226.66 560.33,-217.76 559.26,-228.3 566.07,-226.66"/>
</g>
<!-- Node3 -->
<g id="node3" class="node">
<title>Node3</title>
<g id="a_node3"><a xlink:href="namespaceallglobal.html#a7824bc37519fe88336534ce90ab2af16" target="_top" xlink:title=" ">
<polygon fill="white" stroke="black" points="370.5,-340.5 370.5,-359.5 484.5,-359.5 484.5,-340.5 370.5,-340.5"/>
<text text-anchor="middle" x="427.5" y="-347.5" font-family="Helvetica,sans-Serif" font-size="10.00">allglobal::check_inputs</text>
</a>
</g>
</g>
<!-- Node2&#45;&gt;Node3 -->
<g id="edge3" class="edge">
<title>Node2&#45;&gt;Node3</title>
<path fill="none" stroke="midnightblue" d="M542.38,-227.46C535.29,-253.3 519.37,-298.83 490,-326 483.27,-332.23 474.74,-336.9 466.19,-340.39"/>
<polygon fill="midnightblue" stroke="midnightblue" points="545.78,-228.26 544.89,-217.7 539.01,-226.51 545.78,-228.26"/>
</g>
<!-- Node6 -->
<g id="node6" class="node">
<title>Node6</title>
<g id="a_node6"><a xlink:href="xspech_8f90.html#a48f45478dc2c9f70ea8aa1c60ad06503" target="_top" xlink:title="This is the main &quot;driver&quot; for the physics part of SPEC.">
<polygon fill="white" stroke="black" points="168.5,-268.5 168.5,-287.5 206.5,-287.5 206.5,-268.5 168.5,-268.5"/>
<text text-anchor="middle" x="187.5" y="-275.5" font-family="Helvetica,sans-Serif" font-size="10.00">spec</text>
</a>
</g>
</g>
<!-- Node2&#45;&gt;Node6 -->
<g id="edge46" class="edge">
<title>Node2&#45;&gt;Node6</title>
<path fill="none" stroke="midnightblue" d="M531.04,-225.07C520.37,-235.49 505.5,-248.27 490,-256 424.31,-288.79 401.95,-284.73 329,-293 285.13,-297.98 233.49,-288.54 206.7,-282.5"/>
<polygon fill="midnightblue" stroke="midnightblue" points="533.8,-227.26 538.32,-217.68 528.81,-222.35 533.8,-227.26"/>
</g>
<!-- Node9 -->
<g id="node9" class="node">
<title>Node9</title>
<g id="a_node9"><a xlink:href="group__grp__force__driver.html#gabbc245b3884ee8d8d3e2a52f25149f78" target="_top" xlink:title="fcn1">
<polygon fill="white" stroke="black" points="410,-170.5 410,-189.5 445,-189.5 445,-170.5 410,-170.5"/>
<text text-anchor="middle" x="427.5" y="-177.5" font-family="Helvetica,sans-Serif" font-size="10.00">fcn1</text>
</a>
</g>
</g>
<!-- Node2&#45;&gt;Node9 -->
<g id="edge14" class="edge">
<title>Node2&#45;&gt;Node9</title>
<path fill="none" stroke="midnightblue" d="M516,-200.67C493.39,-195.33 463.63,-188.3 445.29,-183.97"/>
<polygon fill="midnightblue" stroke="midnightblue" points="515.28,-204.1 525.81,-202.99 516.89,-197.29 515.28,-204.1"/>
</g>
<!-- Node10 -->
<g id="node10" class="node">
<title>Node10</title>
<g id="a_node10"><a xlink:href="group__grp__force__driver.html#gaec14f81fbdbedafbc4189489ec8ae178" target="_top" xlink:title="Employs Newton method to find , where &#160;and &#160;is defined in dforce() .">
<polygon fill="white" stroke="black" points="281,-180.5 281,-199.5 329,-199.5 329,-180.5 281,-180.5"/>
<text text-anchor="middle" x="305" y="-187.5" font-family="Helvetica,sans-Serif" font-size="10.00">newton</text>
</a>
</g>
</g>
<!-- Node2&#45;&gt;Node10 -->
<g id="edge41" class="edge">
<title>Node2&#45;&gt;Node10</title>
<path fill="none" stroke="midnightblue" d="M515.92,-214.43C479.36,-220.87 417.05,-228.34 365,-217 349.59,-213.64 333.39,-205.88 321.87,-199.54"/>
<polygon fill="midnightblue" stroke="midnightblue" points="516.77,-217.83 525.96,-212.57 515.49,-210.95 516.77,-217.83"/>
</g>
<!-- Node11 -->
<g id="node11" class="node">
<title>Node11</title>
<g id="a_node11"><a xlink:href="group__grp__force__driver.html#ga8ccd6c7d901872702521d0a0edf95412" target="_top" xlink:title="fcn2">
<polygon fill="white" stroke="black" points="29.5,-204.5 29.5,-223.5 64.5,-223.5 64.5,-204.5 29.5,-204.5"/>
<text text-anchor="middle" x="47" y="-211.5" font-family="Helvetica,sans-Serif" font-size="10.00">fcn2</text>
</a>
</g>
</g>
<!-- Node2&#45;&gt;Node11 -->
<g id="edge26" class="edge">
<title>Node2&#45;&gt;Node11</title>
<path fill="none" stroke="midnightblue" d="M532.17,-190.78C521.65,-179.94 506.51,-166.93 490,-161 339.42,-106.92 283.46,-115.72 130,-161 101.39,-169.44 73.36,-191.33 58.64,-204.18"/>
<polygon fill="midnightblue" stroke="midnightblue" points="529.62,-193.17 538.97,-198.15 534.77,-188.42 529.62,-193.17"/>
</g>
<!-- Node13 -->
<g id="node13" class="node">
<title>Node13</title>
<g id="a_node13"><a xlink:href="dfp200_8f90.html#a6aca59cf350d7b1941f8389d50945a43" target="_top" xlink:title="get LU Beltrami matrices">
<polygon fill="white" stroke="black" points="365,-94.5 365,-113.5 490,-113.5 490,-94.5 365,-94.5"/>
<text text-anchor="middle" x="427.5" y="-101.5" font-family="Helvetica,sans-Serif" font-size="10.00">get_lu_beltrami_matrices</text>
</a>
</g>
</g>
<!-- Node2&#45;&gt;Node13 -->
<g id="edge27" class="edge">
<title>Node2&#45;&gt;Node13</title>
<path fill="none" stroke="midnightblue" d="M537.95,-189.58C528.3,-171.65 511.45,-144.71 490,-128 482.13,-121.87 472.51,-117.14 463.24,-113.56"/>
<polygon fill="midnightblue" stroke="midnightblue" points="534.86,-191.22 542.56,-198.5 541.07,-188.01 534.86,-191.22"/>
</g>
<!-- Node18 -->
<g id="node18" class="node">
<title>Node18</title>
<g id="a_node18"><a xlink:href="group__grp__diagnostics.html#ga7401b50ec10c6598ee4a8112717a63ec" target="_top" xlink:title="Computes eigenvalues and eigenvectors of derivative matrix, .">
<polygon fill="white" stroke="black" points="282.5,-246.5 282.5,-265.5 327.5,-265.5 327.5,-246.5 282.5,-246.5"/>
<text text-anchor="middle" x="305" y="-253.5" font-family="Helvetica,sans-Serif" font-size="10.00">hesian</text>
</a>
</g>
</g>
<!-- Node2&#45;&gt;Node18 -->
<g id="edge38" class="edge">
<title>Node2&#45;&gt;Node18</title>
<path fill="none" stroke="midnightblue" d="M519.68,-221.89C510.46,-226.06 499.97,-230.25 490,-233 432.74,-248.78 362.44,-253.76 327.64,-255.31"/>
<polygon fill="midnightblue" stroke="midnightblue" points="521.2,-225.05 528.76,-217.62 518.22,-218.71 521.2,-225.05"/>
</g>
<!-- Node19 -->
<g id="node19" class="node">
<title>Node19</title>
<g id="a_node19"><a xlink:href="group__grp__conjugate__gradient.html#ga4d8415226e62a9fdb42b0fd0b464251e" target="_top" xlink:title="Returns the energy functional and it&#39;s derivatives with respect to geometry.">
<polygon fill="white" stroke="black" points="403.5,-0.5 403.5,-19.5 451.5,-19.5 451.5,-0.5 403.5,-0.5"/>
<text text-anchor="middle" x="427.5" y="-7.5" font-family="Helvetica,sans-Serif" font-size="10.00">pc00ab</text>
</a>
</g>
</g>
<!-- Node2&#45;&gt;Node19 -->
<g id="edge42" class="edge">
<title>Node2&#45;&gt;Node19</title>
<path fill="none" stroke="midnightblue" d="M543.77,-188.05C537.83,-156.39 522.63,-93.96 490,-52 479.05,-37.92 462.03,-26.81 448.67,-19.57"/>
<polygon fill="midnightblue" stroke="midnightblue" points="540.38,-188.98 545.56,-198.22 547.28,-187.77 540.38,-188.98"/>
</g>
<!-- Node4 -->
<g id="node4" class="node">
<title>Node4</title>
<g id="a_node4"><a xlink:href="xspech_8f90.html#a9fdc71dffd7c61ee4588a3f80d3ab9ce" target="_top" xlink:title="Main subroutine of SPEC.">
<polygon fill="white" stroke="black" points="281.5,-340.5 281.5,-359.5 328.5,-359.5 328.5,-340.5 281.5,-340.5"/>
<text text-anchor="middle" x="305" y="-347.5" font-family="Helvetica,sans-Serif" font-size="10.00">xspech</text>
</a>
</g>
</g>
<!-- Node3&#45;&gt;Node4 -->
<g id="edge4" class="edge">
<title>Node3&#45;&gt;Node4</title>
<path fill="none" stroke="midnightblue" d="M360.45,-350C349.06,-350 337.95,-350 328.77,-350"/>
<polygon fill="midnightblue" stroke="midnightblue" points="360.48,-353.5 370.48,-350 360.48,-346.5 360.48,-353.5"/>
</g>
<!-- Node4&#45;&gt;Node4 -->
<g id="edge12" class="edge">
<title>Node4&#45;&gt;Node4</title>
<path fill="none" stroke="midnightblue" d="M326.48,-369.4C325.05,-374.31 317.89,-378 305,-378 284.38,-378 278.42,-368.57 287.12,-359.76"/>
<polygon fill="midnightblue" stroke="midnightblue" points="329.66,-367.9 322.88,-359.76 323.1,-370.35 329.66,-367.9"/>
</g>
<!-- Node4&#45;&gt;Node5 -->
<g id="edge5" class="edge">
<title>Node4&#45;&gt;Node5</title>
<path fill="none" stroke="midnightblue" d="M271.8,-355.58C248.93,-362.71 219.35,-373.98 202.29,-382.42"/>
<polygon fill="midnightblue" stroke="midnightblue" points="272.87,-358.92 281.46,-352.72 270.87,-352.21 272.87,-358.92"/>
</g>
<!-- Node4&#45;&gt;Node6 -->
<g id="edge7" class="edge">
<title>Node4&#45;&gt;Node6</title>
<path fill="none" stroke="midnightblue" d="M292.42,-332.29C278.35,-315.84 255.23,-293.97 245,-288 233.02,-281.01 218.1,-276.13 206.6,-274.36"/>
<polygon fill="midnightblue" stroke="midnightblue" points="289.84,-334.67 298.84,-340.28 295.3,-330.29 289.84,-334.67"/>
</g>
<!-- Node8 -->
<g id="node8" class="node">
<title>Node8</title>
<g id="a_node8"><a xlink:href="xspech_8f90.html#a95271e8805067f801b5d4e524d6901d4" target="_top" xlink:title="Main program of SPEC.">
<polygon fill="white" stroke="black" points="155.5,-306.5 155.5,-325.5 219.5,-325.5 219.5,-306.5 155.5,-306.5"/>
<text text-anchor="middle" x="187.5" y="-313.5" font-family="Helvetica,sans-Serif" font-size="10.00">spec_main</text>
</a>
</g>
</g>
<!-- Node4&#45;&gt;Node8 -->
<g id="edge11" class="edge">
<title>Node4&#45;&gt;Node8</title>
<path fill="none" stroke="midnightblue" d="M271.82,-340.53C255.54,-335.74 235.87,-329.94 219.73,-325.19"/>
<polygon fill="midnightblue" stroke="midnightblue" points="270.87,-343.9 281.46,-343.36 272.85,-337.18 270.87,-343.9"/>
</g>
<!-- Node5&#45;&gt;Node4 -->
<g id="edge6" class="edge">
<title>Node5&#45;&gt;Node4</title>
<path fill="none" stroke="midnightblue" d="M241.86,-379.33C259.74,-372.97 278.2,-365.53 290.3,-359.54"/>
<polygon fill="midnightblue" stroke="midnightblue" points="240.32,-376.16 232.02,-382.74 242.62,-382.77 240.32,-376.16"/>
</g>
<!-- Node6&#45;&gt;Node4 -->
<g id="edge10" class="edge">
<title>Node6&#45;&gt;Node4</title>
<path fill="none" stroke="midnightblue" d="M210.8,-291.34C221.58,-295.31 234.43,-299.83 245,-306 253.98,-311.24 272.89,-328.74 286.9,-340.36"/>
<polygon fill="midnightblue" stroke="midnightblue" points="211.84,-287.99 201.25,-287.67 209.32,-294.53 211.84,-287.99"/>
</g>
<!-- Node7 -->
<g id="node7" class="node">
<title>Node7</title>
<g id="a_node7"><a xlink:href="group__grp__output.html#ga0f962c09cd5d5eba99f1cba043cb3898" target="_top" xlink:title="Initialize the interface to the HDF5 library and open the output file.">
<polygon fill="white" stroke="black" points="0,-281.5 0,-300.5 94,-300.5 94,-281.5 0,-281.5"/>
<text text-anchor="middle" x="47" y="-288.5" font-family="Helvetica,sans-Serif" font-size="10.00">sphdf5::init_outfile</text>
</a>
</g>
</g>
<!-- Node6&#45;&gt;Node7 -->
<g id="edge8" class="edge">
<title>Node6&#45;&gt;Node7</title>
<path fill="none" stroke="midnightblue" d="M158.31,-280.65C139.87,-282.38 115.36,-284.68 94.12,-286.67"/>
<polygon fill="midnightblue" stroke="midnightblue" points="158.76,-284.12 168.39,-279.7 158.11,-277.15 158.76,-284.12"/>
</g>
<!-- Node7&#45;&gt;Node4 -->
<g id="edge9" class="edge">
<title>Node7&#45;&gt;Node4</title>
<path fill="none" stroke="midnightblue" d="M70.32,-306.21C86.23,-316.22 108.51,-328.61 130,-335 182.6,-350.65 247.8,-351.67 281.49,-350.92"/>
<polygon fill="midnightblue" stroke="midnightblue" points="72.04,-303.15 61.75,-300.65 68.24,-309.03 72.04,-303.15"/>
</g>
<!-- Node9&#45;&gt;Node9 -->
<g id="edge15" class="edge">
<title>Node9&#45;&gt;Node9</title>
<path fill="none" stroke="midnightblue" d="M450,-197.73C449.8,-203.46 442.3,-208 427.5,-208 405.47,-208 399.62,-197.93 409.94,-188.89"/>
<polygon fill="midnightblue" stroke="midnightblue" points="452.99,-195.91 445.06,-188.89 446.88,-199.33 452.99,-195.91"/>
</g>
<!-- Node9&#45;&gt;Node10 -->
<g id="edge16" class="edge">
<title>Node9&#45;&gt;Node10</title>
<path fill="none" stroke="midnightblue" d="M399.51,-176.5C378.38,-176.82 349.31,-179.32 329.22,-182.62"/>
<polygon fill="midnightblue" stroke="midnightblue" points="399.73,-180 409.74,-176.55 399.76,-173 399.73,-180"/>
</g>
<!-- Node10&#45;&gt;Node6 -->
<g id="edge22" class="edge">
<title>Node10&#45;&gt;Node6</title>
<path fill="none" stroke="midnightblue" d="M289.49,-207.66C278.28,-220.52 261.89,-237.77 245,-250 233.12,-258.61 218.2,-265.87 206.67,-270.85"/>
<polygon fill="midnightblue" stroke="midnightblue" points="292.24,-209.82 296.05,-199.93 286.91,-205.29 292.24,-209.82"/>
</g>
<!-- Node10&#45;&gt;Node9 -->
<g id="edge17" class="edge">
<title>Node10&#45;&gt;Node9</title>
<path fill="none" stroke="midnightblue" d="M339.52,-193.34C362.37,-192.59 391.66,-189.74 409.74,-186.24"/>
<polygon fill="midnightblue" stroke="midnightblue" points="339.15,-189.85 329.22,-193.53 339.28,-196.84 339.15,-189.85"/>
</g>
<!-- Node10&#45;&gt;Node10 -->
<g id="edge21" class="edge">
<title>Node10&#45;&gt;Node10</title>
<path fill="none" stroke="midnightblue" d="M326.48,-209.4C325.05,-214.31 317.89,-218 305,-218 284.38,-218 278.42,-208.57 287.12,-199.76"/>
<polygon fill="midnightblue" stroke="midnightblue" points="329.66,-207.9 322.88,-199.76 323.1,-210.35 329.66,-207.9"/>
</g>
<!-- Node10&#45;&gt;Node11 -->
<g id="edge18" class="edge">
<title>Node10&#45;&gt;Node11</title>
<path fill="none" stroke="midnightblue" d="M270.63,-186.82C262.28,-187.8 253.32,-189.05 245,-190 178.38,-197.61 98.62,-202.34 64.64,-208.17"/>
<polygon fill="midnightblue" stroke="midnightblue" points="271.21,-190.28 280.8,-185.77 270.49,-183.32 271.21,-190.28"/>
</g>
<!-- Node12 -->
<g id="node12" class="node">
<title>Node12</title>
<g id="a_node12"><a xlink:href="group__grp__force__driver.html#ga382822b303cbf8c56d6f54dcb379caf2" target="_top" xlink:title="read or write force&#45;derivative matrix">
<polygon fill="white" stroke="black" points="155,-170.5 155,-189.5 220,-189.5 220,-170.5 155,-170.5"/>
<text text-anchor="middle" x="187.5" y="-177.5" font-family="Helvetica,sans-Serif" font-size="10.00">writereadgf</text>
</a>
</g>
</g>
<!-- Node10&#45;&gt;Node12 -->
<g id="edge23" class="edge">
<title>Node10&#45;&gt;Node12</title>
<path fill="none" stroke="midnightblue" d="M270.96,-180.97C255.05,-178.8 236.05,-177.17 220.3,-176.65"/>
<polygon fill="midnightblue" stroke="midnightblue" points="270.49,-184.44 280.9,-182.47 271.54,-177.52 270.49,-184.44"/>
</g>
<!-- Node11&#45;&gt;Node10 -->
<g id="edge20" class="edge">
<title>Node11&#45;&gt;Node10</title>
<path fill="none" stroke="midnightblue" d="M74.87,-218.58C112.85,-219.47 184.36,-214.92 245,-208 260.44,-206.24 278.04,-203.45 289.97,-199.63"/>
<polygon fill="midnightblue" stroke="midnightblue" points="74.78,-215.07 64.64,-218.15 74.49,-222.06 74.78,-215.07"/>
</g>
<!-- Node11&#45;&gt;Node11 -->
<g id="edge19" class="edge">
<title>Node11&#45;&gt;Node11</title>
<path fill="none" stroke="midnightblue" d="M72.47,-228.41C76,-235.59 67.51,-242 47,-242 19.66,-242 13.67,-230.61 29.06,-221.17"/>
<polygon fill="midnightblue" stroke="midnightblue" points="74.58,-225.58 64.94,-221.17 69.73,-230.62 74.58,-225.58"/>
</g>
<!-- Node12&#45;&gt;Node10 -->
<g id="edge25" class="edge">
<title>Node12&#45;&gt;Node10</title>
<path fill="none" stroke="midnightblue" d="M230.57,-190.17C247.56,-192.14 266.51,-193.45 280.9,-193.53"/>
<polygon fill="midnightblue" stroke="midnightblue" points="230.67,-186.65 220.3,-188.86 229.78,-193.59 230.67,-186.65"/>
</g>
<!-- Node12&#45;&gt;Node11 -->
<g id="edge24" class="edge">
<title>Node12&#45;&gt;Node11</title>
<path fill="none" stroke="midnightblue" d="M144.76,-190.25C117.8,-196.86 84.2,-205.11 64.52,-209.95"/>
<polygon fill="midnightblue" stroke="midnightblue" points="145.85,-193.58 154.73,-187.8 144.18,-186.79 145.85,-193.58"/>
</g>
<!-- Node14 -->
<g id="node14" class="node">
<title>Node14</title>
<g id="a_node14"><a xlink:href="dfp200_8f90.html#a55ea75395f8c71731451e1add3720c7e" target="_top" xlink:title="Given the field consistent with the constraints and the geometry, computes local quantites related to...">
<polygon fill="white" stroke="black" points="282,-56.5 282,-75.5 328,-75.5 328,-56.5 282,-56.5"/>
<text text-anchor="middle" x="305" y="-63.5" font-family="Helvetica,sans-Serif" font-size="10.00">dfp200</text>
</a>
</g>
</g>
<!-- Node13&#45;&gt;Node14 -->
<g id="edge28" class="edge">
<title>Node13&#45;&gt;Node14</title>
<path fill="none" stroke="midnightblue" d="M401.27,-90.43C379.71,-82.04 348.99,-72.43 328.32,-67.66"/>
<polygon fill="midnightblue" stroke="midnightblue" points="400.17,-93.76 410.75,-94.3 402.81,-87.28 400.17,-93.76"/>
</g>
<!-- Node14&#45;&gt;Node2 -->
<g id="edge29" class="edge">
<title>Node14&#45;&gt;Node2</title>
<path fill="none" stroke="midnightblue" d="M338.4,-60.37C377.99,-55.35 445.22,-53.04 490,-85 529.08,-112.89 542.07,-174.44 545.74,-198.29"/>
<polygon fill="midnightblue" stroke="midnightblue" points="337.66,-56.94 328.24,-61.79 338.63,-63.87 337.66,-56.94"/>
</g>
<!-- Node14&#45;&gt;Node13 -->
<g id="edge35" class="edge">
<title>Node14&#45;&gt;Node13</title>
<path fill="none" stroke="midnightblue" d="M330.78,-79.39C343.58,-84.39 359.7,-89.85 375.05,-94.46"/>
<polygon fill="midnightblue" stroke="midnightblue" points="331.88,-76.06 321.3,-75.5 329.22,-82.54 331.88,-76.06"/>
</g>
<!-- Node14&#45;&gt;Node14 -->
<g id="edge30" class="edge">
<title>Node14&#45;&gt;Node14</title>
<path fill="none" stroke="midnightblue" d="M326.48,-85.4C325.05,-90.31 317.89,-94 305,-94 284.38,-94 278.42,-84.57 287.12,-75.76"/>
<polygon fill="midnightblue" stroke="midnightblue" points="329.66,-83.9 322.88,-75.76 323.1,-86.35 329.66,-83.9"/>
</g>
<!-- Node15 -->
<g id="node15" class="node">
<title>Node15</title>
<g id="a_node15"><a xlink:href="dfp200_8f90.html#a7b64c7392b45d0042d8bd7379c0761a5" target="_top" xlink:title="Evaluate the derivative of the square of the magnetic field modulus. Add spectral constraint derivati...">
<polygon fill="white" stroke="black" points="150.5,-94.5 150.5,-113.5 224.5,-113.5 224.5,-94.5 150.5,-94.5"/>
<text text-anchor="middle" x="187.5" y="-101.5" font-family="Helvetica,sans-Serif" font-size="10.00">evaluate_dbb</text>
</a>
</g>
</g>
<!-- Node14&#45;&gt;Node15 -->
<g id="edge31" class="edge">
<title>Node14&#45;&gt;Node15</title>
<path fill="none" stroke="midnightblue" d="M271.95,-70.43C249.52,-76.63 220.6,-86.61 203.36,-94.41"/>
<polygon fill="midnightblue" stroke="midnightblue" points="272.94,-73.79 281.73,-67.87 271.17,-67.01 272.94,-73.79"/>
</g>
<!-- Node16 -->
<g id="node16" class="node">
<title>Node16</title>
<g id="a_node16"><a xlink:href="dfp200_8f90.html#a73ddf39ecc5228201fb643779e17cd36" target="_top" xlink:title="Evaluate mu and psip derivatives and store them in dmupfdx.">
<polygon fill="white" stroke="black" points="140,-56.5 140,-75.5 235,-75.5 235,-56.5 140,-56.5"/>
<text text-anchor="middle" x="187.5" y="-63.5" font-family="Helvetica,sans-Serif" font-size="10.00">evaluate_dmupfdx</text>
</a>
</g>
</g>
<!-- Node14&#45;&gt;Node16 -->
<g id="edge33" class="edge">
<title>Node14&#45;&gt;Node16</title>
<path fill="none" stroke="midnightblue" d="M271.47,-59.86C260.18,-59.28 247.28,-59.11 235.08,-59.36"/>
<polygon fill="midnightblue" stroke="midnightblue" points="271.52,-63.37 281.73,-60.54 271.99,-56.38 271.52,-63.37"/>
</g>
<!-- Node17 -->
<g id="node17" class="node">
<title>Node17</title>
<g id="a_node17"><a xlink:href="dfp200_8f90.html#a5e56f1f4b1e6df11a9cffa6237c37469" target="_top" xlink:title="This routine evaluates the value of the magnetic field once the interface is perturbed using matrix p...">
<polygon fill="white" stroke="black" points="130,-18.5 130,-37.5 245,-37.5 245,-18.5 130,-18.5"/>
<text text-anchor="middle" x="187.5" y="-25.5" font-family="Helvetica,sans-Serif" font-size="10.00">get_perturbed_solution</text>
</a>
</g>
</g>
<!-- Node14&#45;&gt;Node17 -->
<g id="edge36" class="edge">
<title>Node14&#45;&gt;Node17</title>
<path fill="none" stroke="midnightblue" d="M279.49,-52.3C267.37,-47.39 252.29,-42.08 237.9,-37.57"/>
<polygon fill="midnightblue" stroke="midnightblue" points="278.33,-55.61 288.9,-56.3 281.07,-49.17 278.33,-55.61"/>
</g>
<!-- Node15&#45;&gt;Node14 -->
<g id="edge32" class="edge">
<title>Node15&#45;&gt;Node14</title>
<path fill="none" stroke="midnightblue" d="M234.59,-95.46C253.93,-89.52 275.09,-81.92 288.9,-75.7"/>
<polygon fill="midnightblue" stroke="midnightblue" points="233.57,-92.11 224.99,-98.32 235.57,-98.82 233.57,-92.11"/>
</g>
<!-- Node16&#45;&gt;Node14 -->
<g id="edge34" class="edge">
<title>Node16&#45;&gt;Node14</title>
<path fill="none" stroke="midnightblue" d="M245.38,-72.75C258.3,-72.77 271.28,-72.34 281.73,-71.46"/>
<polygon fill="midnightblue" stroke="midnightblue" points="245.12,-69.25 235.08,-72.64 245.04,-76.25 245.12,-69.25"/>
</g>
<!-- Node17&#45;&gt;Node14 -->
<g id="edge37" class="edge">
<title>Node17&#45;&gt;Node14</title>
<path fill="none" stroke="midnightblue" d="M212.59,-41.53C232.96,-49.81 261.9,-59.28 281.73,-64.13"/>
<polygon fill="midnightblue" stroke="midnightblue" points="213.93,-38.3 203.36,-37.59 211.19,-44.74 213.93,-38.3"/>
</g>
<!-- Node18&#45;&gt;Node6 -->
<g id="edge40" class="edge">
<title>Node18&#45;&gt;Node6</title>
<path fill="none" stroke="midnightblue" d="M272.17,-262.06C251.1,-266.08 224.23,-271.19 206.71,-274.53"/>
<polygon fill="midnightblue" stroke="midnightblue" points="273.11,-265.45 282.28,-260.14 271.8,-258.57 273.11,-265.45"/>
</g>
<!-- Node18&#45;&gt;Node18 -->
<g id="edge39" class="edge">
<title>Node18&#45;&gt;Node18</title>
<path fill="none" stroke="midnightblue" d="M326.48,-275.4C325.05,-280.31 317.89,-284 305,-284 284.38,-284 278.42,-274.57 287.12,-265.76"/>
<polygon fill="midnightblue" stroke="midnightblue" points="329.66,-273.9 322.88,-265.76 323.1,-276.35 329.66,-273.9"/>
</g>
<!-- Node19&#45;&gt;Node19 -->
<g id="edge45" class="edge">
<title>Node19&#45;&gt;Node19</title>
<path fill="none" stroke="midnightblue" d="M449.82,-29.03C448.6,-34.13 441.16,-38 427.5,-38 406.17,-38 400.01,-28.57 409,-19.76"/>
<polygon fill="midnightblue" stroke="midnightblue" points="453.05,-27.67 446,-19.76 446.57,-30.34 453.05,-27.67"/>
</g>
<!-- Node20 -->
<g id="node20" class="node">
<title>Node20</title>
<g id="a_node20"><a xlink:href="group__grp__conjugate__gradient.html#ga25a3bae2ff2ee0469b045de0d033398b" target="_top" xlink:title="Use preconditioned conjugate gradient method to find minimum of energy functional.">
<polygon fill="white" stroke="black" points="281,-0.5 281,-19.5 329,-19.5 329,-0.5 281,-0.5"/>
<text text-anchor="middle" x="305" y="-7.5" font-family="Helvetica,sans-Serif" font-size="10.00">pc00aa</text>
</a>
</g>
</g>
<!-- Node19&#45;&gt;Node20 -->
<g id="edge43" class="edge">
<title>Node19&#45;&gt;Node20</title>
<path fill="none" stroke="midnightblue" d="M393.16,-10C372.81,-10 347.31,-10 329.16,-10"/>
<polygon fill="midnightblue" stroke="midnightblue" points="393.27,-13.5 403.27,-10 393.27,-6.5 393.27,-13.5"/>
</g>
<!-- Node20&#45;&gt;Node20 -->
<g id="edge44" class="edge">
<title>Node20&#45;&gt;Node20</title>
<path fill="none" stroke="midnightblue" d="M326.48,-29.4C325.05,-34.31 317.89,-38 305,-38 284.38,-38 278.42,-28.57 287.12,-19.76"/>
<polygon fill="midnightblue" stroke="midnightblue" points="329.66,-27.9 322.88,-19.76 323.1,-30.35 329.66,-27.9"/>
</g>
</g>
</svg>
