<?xml version="1.0" encoding="UTF-8" standalone="no"?>
<!DOCTYPE svg PUBLIC "-//W3C//DTD SVG 1.1//EN"
 "http://www.w3.org/Graphics/SVG/1.1/DTD/svg11.dtd">
<!-- Generated by graphviz version 2.47.2 (0)
 -->
<!-- Title: bfield Pages: 1 -->
<svg width="685pt" height="142pt"
 viewBox="0.00 0.00 685.00 142.00" xmlns="http://www.w3.org/2000/svg" xmlns:xlink="http://www.w3.org/1999/xlink">
<g id="graph0" class="graph" transform="scale(1 1) rotate(0) translate(4 138)">
<title>bfield</title>
<polygon fill="white" stroke="transparent" points="-4,4 -4,-138 681,-138 681,4 -4,4"/>
<!-- Node1 -->
<g id="node1" class="node">
<title>Node1</title>
<g id="a_node1"><a xlink:title="Compute the magnetic field.">
<polygon fill="#bfbfbf" stroke="black" points="638,-57.5 638,-76.5 677,-76.5 677,-57.5 638,-57.5"/>
<text text-anchor="middle" x="657.5" y="-64.5" font-family="Helvetica,sans-Serif" font-size="10.00">bfield</text>
</a>
</g>
</g>
<!-- Node2 -->
<g id="node2" class="node">
<title>Node2</title>
<g id="a_node2"><a xlink:href="bfield_8f90.html#adc615fe98d38488525cbe807d008860a" target="_top" xlink:title="compute the tangential magnetic field">
<polygon fill="white" stroke="black" points="525,-114.5 525,-133.5 602,-133.5 602,-114.5 525,-114.5"/>
<text text-anchor="middle" x="563.5" y="-121.5" font-family="Helvetica,sans-Serif" font-size="10.00">bfield_tangent</text>
</a>
</g>
</g>
<!-- Node1&#45;&gt;Node2 -->
<g id="edge1" class="edge">
<title>Node1&#45;&gt;Node2</title>
<path fill="none" stroke="midnightblue" d="M632.26,-82.02C615.66,-92.3 594.16,-105.62 579.88,-114.47"/>
<polygon fill="midnightblue" stroke="midnightblue" points="634.24,-84.91 640.89,-76.67 630.55,-78.96 634.24,-84.91"/>
</g>
<!-- Node3 -->
<g id="node3" class="node">
<title>Node3</title>
<g id="a_node3"><a xlink:href="group__grp__diagnostics.html#ga6411205c36a7d50002d7f3fb3133c441" target="_top" xlink:title="Measures error in Beltrami equation, .">
<polygon fill="white" stroke="black" points="442.5,-76.5 442.5,-95.5 487.5,-95.5 487.5,-76.5 442.5,-76.5"/>
<text text-anchor="middle" x="465" y="-83.5" font-family="Helvetica,sans-Serif" font-size="10.00">jo00aa</text>
</a>
</g>
</g>
<!-- Node1&#45;&gt;Node3 -->
<g id="edge2" class="edge">
<title>Node1&#45;&gt;Node3</title>
<path fill="none" stroke="midnightblue" d="M627.87,-69.86C589.44,-73.69 522.03,-80.41 487.59,-83.85"/>
<polygon fill="midnightblue" stroke="midnightblue" points="628.28,-73.33 637.89,-68.86 627.59,-66.37 628.28,-73.33"/>
</g>
<!-- Node9 -->
<g id="node9" class="node">
<title>Node9</title>
<g id="a_node9"><a xlink:href="group__grp__diagnostics.html#ga831aed2458140e266ee4d37461dd5350" target="_top" xlink:title="Constructs Poincaré plot and &quot;approximate&quot; rotational&#45;transform (for single field line).">
<polygon fill="white" stroke="black" points="539.5,-38.5 539.5,-57.5 587.5,-57.5 587.5,-38.5 539.5,-38.5"/>
<text text-anchor="middle" x="563.5" y="-45.5" font-family="Helvetica,sans-Serif" font-size="10.00">pp00ab</text>
</a>
</g>
</g>
<!-- Node1&#45;&gt;Node9 -->
<g id="edge11" class="edge">
<title>Node1&#45;&gt;Node9</title>
<path fill="none" stroke="midnightblue" d="M628.05,-61.12C615.08,-58.45 599.92,-55.32 587.66,-52.78"/>
<polygon fill="midnightblue" stroke="midnightblue" points="627.38,-64.56 637.88,-63.16 628.8,-57.7 627.38,-64.56"/>
</g>
<!-- Node11 -->
<g id="node11" class="node">
<title>Node11</title>
<g id="a_node11"><a xlink:href="group__grp__output.html#ga17e65b951634f7098213fd071d905482" target="_top" xlink:title="Write the magnetic field on a grid.">
<polygon fill="white" stroke="black" points="313,-0.5 313,-19.5 405,-19.5 405,-0.5 313,-0.5"/>
<text text-anchor="middle" x="359" y="-7.5" font-family="Helvetica,sans-Serif" font-size="10.00">sphdf5::write_grid</text>
</a>
</g>
</g>
<!-- Node1&#45;&gt;Node11 -->
<g id="edge14" class="edge">
<title>Node1&#45;&gt;Node11</title>
<path fill="none" stroke="midnightblue" d="M638.28,-50.6C628.29,-42.62 615.27,-33.75 602,-29 536.53,-5.57 454.92,-4.45 405.18,-6.62"/>
<polygon fill="midnightblue" stroke="midnightblue" points="636.29,-53.5 646.2,-57.26 640.79,-48.14 636.29,-53.5"/>
</g>
<!-- Node4 -->
<g id="node4" class="node">
<title>Node4</title>
<g id="a_node4"><a xlink:href="xspech_8f90.html#a1451823a7b97101a797de616250752c1" target="_top" xlink:title="Final diagnostics.">
<polygon fill="white" stroke="black" points="314.5,-38.5 314.5,-57.5 403.5,-57.5 403.5,-38.5 314.5,-38.5"/>
<text text-anchor="middle" x="359" y="-45.5" font-family="Helvetica,sans-Serif" font-size="10.00">final_diagnostics</text>
</a>
</g>
</g>
<!-- Node3&#45;&gt;Node4 -->
<g id="edge3" class="edge">
<title>Node3&#45;&gt;Node4</title>
<path fill="none" stroke="midnightblue" d="M432.71,-74.57C417.9,-69.16 400.43,-62.77 386.32,-57.62"/>
<polygon fill="midnightblue" stroke="midnightblue" points="431.86,-77.98 442.45,-78.13 434.26,-71.41 431.86,-77.98"/>
</g>
<!-- Node5 -->
<g id="node5" class="node">
<title>Node5</title>
<g id="a_node5"><a xlink:href="xspech_8f90.html#a9fdc71dffd7c61ee4588a3f80d3ab9ce" target="_top" xlink:title="Main subroutine of SPEC.">
<polygon fill="white" stroke="black" points="230,-38.5 230,-57.5 277,-57.5 277,-38.5 230,-38.5"/>
<text text-anchor="middle" x="253.5" y="-45.5" font-family="Helvetica,sans-Serif" font-size="10.00">xspech</text>
</a>
</g>
</g>
<!-- Node4&#45;&gt;Node5 -->
<g id="edge4" class="edge">
<title>Node4&#45;&gt;Node5</title>
<path fill="none" stroke="midnightblue" d="M304.11,-41.26C294.6,-41.3 285.18,-41.65 277.15,-42.31"/>
<polygon fill="midnightblue" stroke="midnightblue" points="304.38,-44.76 314.41,-41.33 304.43,-37.76 304.38,-44.76"/>
</g>
<!-- Node5&#45;&gt;Node4 -->
<g id="edge5" class="edge">
<title>Node5&#45;&gt;Node4</title>
<path fill="none" stroke="midnightblue" d="M287.2,-54.33C295.84,-54.73 305.29,-54.84 314.41,-54.67"/>
<polygon fill="midnightblue" stroke="midnightblue" points="287.35,-50.83 277.15,-53.69 286.91,-57.81 287.35,-50.83"/>
</g>
<!-- Node6 -->
<g id="node6" class="node">
<title>Node6</title>
<g id="a_node6"><a xlink:href="xspech_8f90.html#a48f45478dc2c9f70ea8aa1c60ad06503" target="_top" xlink:title="This is the main &quot;driver&quot; for the physics part of SPEC.">
<polygon fill="white" stroke="black" points="143,-57.5 143,-76.5 181,-76.5 181,-57.5 143,-57.5"/>
<text text-anchor="middle" x="162" y="-64.5" font-family="Helvetica,sans-Serif" font-size="10.00">spec</text>
</a>
</g>
</g>
<!-- Node5&#45;&gt;Node6 -->
<g id="edge6" class="edge">
<title>Node5&#45;&gt;Node6</title>
<path fill="none" stroke="midnightblue" d="M219.84,-48.41C206.76,-50.69 192.19,-54.11 181.07,-57.62"/>
<polygon fill="midnightblue" stroke="midnightblue" points="220.57,-51.84 229.92,-46.84 219.5,-44.92 220.57,-51.84"/>
</g>
<!-- Node8 -->
<g id="node8" class="node">
<title>Node8</title>
<g id="a_node8"><a xlink:href="xspech_8f90.html#a95271e8805067f801b5d4e524d6901d4" target="_top" xlink:title="Main program of SPEC.">
<polygon fill="white" stroke="black" points="130,-19.5 130,-38.5 194,-38.5 194,-19.5 130,-19.5"/>
<text text-anchor="middle" x="162" y="-26.5" font-family="Helvetica,sans-Serif" font-size="10.00">spec_main</text>
</a>
</g>
</g>
<!-- Node5&#45;&gt;Node8 -->
<g id="edge10" class="edge">
<title>Node5&#45;&gt;Node8</title>
<path fill="none" stroke="midnightblue" d="M219.99,-41.1C211.52,-39.3 202.42,-37.37 194.03,-35.59"/>
<polygon fill="midnightblue" stroke="midnightblue" points="219.41,-44.55 229.92,-43.21 220.86,-37.71 219.41,-44.55"/>
</g>
<!-- Node6&#45;&gt;Node5 -->
<g id="edge9" class="edge">
<title>Node6&#45;&gt;Node5</title>
<path fill="none" stroke="midnightblue" d="M191.28,-67.32C205.22,-65.11 221.63,-61.38 233.96,-57.53"/>
<polygon fill="midnightblue" stroke="midnightblue" points="190.65,-63.88 181.21,-68.69 191.6,-70.81 190.65,-63.88"/>
</g>
<!-- Node7 -->
<g id="node7" class="node">
<title>Node7</title>
<g id="a_node7"><a xlink:href="group__grp__output.html#ga0f962c09cd5d5eba99f1cba043cb3898" target="_top" xlink:title="Initialize the interface to the HDF5 library and open the output file.">
<polygon fill="white" stroke="black" points="0,-19.5 0,-38.5 94,-38.5 94,-19.5 0,-19.5"/>
<text text-anchor="middle" x="47" y="-26.5" font-family="Helvetica,sans-Serif" font-size="10.00">sphdf5::init_outfile</text>
</a>
</g>
</g>
<!-- Node6&#45;&gt;Node7 -->
<g id="edge7" class="edge">
<title>Node6&#45;&gt;Node7</title>
<path fill="none" stroke="midnightblue" d="M133.28,-57.68C115.95,-51.85 93.69,-44.37 76.26,-38.5"/>
<polygon fill="midnightblue" stroke="midnightblue" points="132.25,-61.02 142.84,-60.89 134.48,-54.39 132.25,-61.02"/>
</g>
<!-- Node7&#45;&gt;Node5 -->
<g id="edge8" class="edge">
<title>Node7&#45;&gt;Node5</title>
<path fill="none" stroke="midnightblue" d="M82.9,-16.49C112.88,-7.61 157.01,0.96 194,-10 212.58,-15.5 230.79,-28.97 241.83,-38.3"/>
<polygon fill="midnightblue" stroke="midnightblue" points="81.8,-13.16 73.3,-19.48 83.89,-19.85 81.8,-13.16"/>
</g>
<!-- Node10 -->
<g id="node10" class="node">
<title>Node10</title>
<g id="a_node10"><a xlink:href="group__grp__diagnostics.html#gad67931244268a09bd077dae8910c7096" target="_top" xlink:title="Constructs Poincaré plot and &quot;approximate&quot; rotational&#45;transform (driver).">
<polygon fill="white" stroke="black" points="441,-38.5 441,-57.5 489,-57.5 489,-38.5 441,-38.5"/>
<text text-anchor="middle" x="465" y="-45.5" font-family="Helvetica,sans-Serif" font-size="10.00">pp00aa</text>
</a>
</g>
</g>
<!-- Node9&#45;&gt;Node10 -->
<g id="edge12" class="edge">
<title>Node9&#45;&gt;Node10</title>
<path fill="none" stroke="midnightblue" d="M529.02,-48C515.86,-48 501.08,-48 489.14,-48"/>
<polygon fill="midnightblue" stroke="midnightblue" points="529.14,-51.5 539.14,-48 529.14,-44.5 529.14,-51.5"/>
</g>
<!-- Node10&#45;&gt;Node4 -->
<g id="edge13" class="edge">
<title>Node10&#45;&gt;Node4</title>
<path fill="none" stroke="midnightblue" d="M430.81,-48C422.14,-48 412.65,-48 403.52,-48"/>
<polygon fill="midnightblue" stroke="midnightblue" points="430.92,-51.5 440.92,-48 430.92,-44.5 430.92,-51.5"/>
</g>
<!-- Node11&#45;&gt;Node5 -->
<g id="edge15" class="edge">
<title>Node11&#45;&gt;Node5</title>
<path fill="none" stroke="midnightblue" d="M322.37,-23.08C307.36,-28.59 290.33,-34.84 277.09,-39.7"/>
<polygon fill="midnightblue" stroke="midnightblue" points="323.7,-26.32 331.88,-19.59 321.29,-19.75 323.7,-26.32"/>
</g>
</g>
</svg>
