<?xml version="1.0" encoding="UTF-8" standalone="no"?>
<!DOCTYPE svg PUBLIC "-//W3C//DTD SVG 1.1//EN"
 "http://www.w3.org/Graphics/SVG/1.1/DTD/svg11.dtd">
<!-- Generated by graphviz version 2.49.0 (0)
 -->
<!-- Title: sphdf5::write_grid Pages: 1 -->
<svg width="284pt" height="160pt"
 viewBox="0.00 0.00 284.00 160.00" xmlns="http://www.w3.org/2000/svg" xmlns:xlink="http://www.w3.org/1999/xlink">
<g id="graph0" class="graph" transform="scale(1 1) rotate(0) translate(4 156)">
<title>sphdf5::write_grid</title>
<polygon fill="white" stroke="transparent" points="-4,4 -4,-156 280,-156 280,4 -4,4"/>
<!-- Node1 -->
<g id="node1" class="node">
<title>Node1</title>
<g id="a_node1"><a xlink:title="Write the magnetic field on a grid.">
<polygon fill="#bfbfbf" stroke="black" points="0,-47.5 0,-66.5 92,-66.5 92,-47.5 0,-47.5"/>
<text text-anchor="middle" x="46" y="-54.5" font-family="Helvetica,sans-Serif" font-size="10.00">sphdf5::write_grid</text>
</a>
</g>
</g>
<!-- Node2 -->
<g id="node2" class="node">
<title>Node2</title>
<g id="a_node2"><a xlink:href="group__grp__diagnostics.html#ga20985df1b0df0503ca03ca13f1daf642" target="_top" xlink:title="Compute the magnetic field.">
<polygon fill="white" stroke="black" points="131.5,-94.5 131.5,-113.5 170.5,-113.5 170.5,-94.5 131.5,-94.5"/>
<text text-anchor="middle" x="151" y="-101.5" font-family="Helvetica,sans-Serif" font-size="10.00">bfield</text>
</a>
</g>
</g>
<!-- Node1&#45;&gt;Node2 -->
<g id="edge1" class="edge">
<title>Node1&#45;&gt;Node2</title>
<path fill="none" stroke="midnightblue" d="M67.84,-66.51C83.37,-73.6 104.75,-83.35 121.8,-91.13"/>
<polygon fill="midnightblue" stroke="midnightblue" points="120.71,-94.48 131.27,-95.45 123.62,-88.12 120.71,-94.48"/>
</g>
<!-- Node5 -->
<g id="node5" class="node">
<title>Node5</title>
<g id="a_node5"><a xlink:href="group__grp__geometry.html#gaaca20aa60eaf39055f3c9d5c02a24ac2" target="_top" xlink:title="Calculates coordinates, , and metrics, using FFTs.">
<polygon fill="white" stroke="black" points="128,-19.5 128,-38.5 174,-38.5 174,-19.5 128,-19.5"/>
<text text-anchor="middle" x="151" y="-26.5" font-family="Helvetica,sans-Serif" font-size="10.00">coords</text>
</a>
</g>
</g>
<!-- Node1&#45;&gt;Node5 -->
<g id="edge5" class="edge">
<title>Node1&#45;&gt;Node5</title>
<path fill="none" stroke="midnightblue" d="M82.16,-47.44C93.76,-44.29 106.59,-40.8 117.95,-37.71"/>
<polygon fill="midnightblue" stroke="midnightblue" points="119.15,-41.01 127.89,-35.01 117.32,-34.26 119.15,-41.01"/>
</g>
<!-- Node2&#45;&gt;Node2 -->
<g id="edge2" class="edge">
<title>Node2&#45;&gt;Node2</title>
<path fill="none" stroke="midnightblue" d="M136.82,-113.76C129.92,-122.57 134.65,-132 151,-132 161.22,-132 166.9,-128.31 168.04,-123.4"/>
<polygon fill="midnightblue" stroke="midnightblue" points="171.38,-122.35 165.18,-113.76 164.66,-124.34 171.38,-122.35"/>
</g>
<!-- Node3 -->
<g id="node3" class="node">
<title>Node3</title>
<g id="a_node3"><a xlink:href="basefn_8f90.html#af6a4cad04c70bfb14fd18a3bfbc843a3" target="_top" xlink:title="Get the Chebyshev polynomials with zeroth, first derivatives.">
<polygon fill="white" stroke="black" points="212.5,-132.5 212.5,-151.5 273.5,-151.5 273.5,-132.5 212.5,-132.5"/>
<text text-anchor="middle" x="243" y="-139.5" font-family="Helvetica,sans-Serif" font-size="10.00">get_cheby</text>
</a>
</g>
</g>
<!-- Node2&#45;&gt;Node3 -->
<g id="edge3" class="edge">
<title>Node2&#45;&gt;Node3</title>
<path fill="none" stroke="midnightblue" d="M170.65,-111.87C182,-116.67 196.81,-122.92 209.99,-128.48"/>
<polygon fill="midnightblue" stroke="midnightblue" points="208.65,-131.72 219.23,-132.38 211.37,-125.27 208.65,-131.72"/>
</g>
<!-- Node4 -->
<g id="node4" class="node">
<title>Node4</title>
<g id="a_node4"><a xlink:href="basefn_8f90.html#a38dc596fb909186b01dacc1feac03164" target="_top" xlink:title="Get the Zernike polynomials &#160;with zeroth, first derivatives.">
<polygon fill="white" stroke="black" points="210,-94.5 210,-113.5 276,-113.5 276,-94.5 210,-94.5"/>
<text text-anchor="middle" x="243" y="-101.5" font-family="Helvetica,sans-Serif" font-size="10.00">get_zernike</text>
</a>
</g>
</g>
<!-- Node2&#45;&gt;Node4 -->
<g id="edge4" class="edge">
<title>Node2&#45;&gt;Node4</title>
<path fill="none" stroke="midnightblue" d="M170.65,-104C179.14,-104 189.57,-104 199.81,-104"/>
<polygon fill="midnightblue" stroke="midnightblue" points="199.9,-107.5 209.9,-104 199.9,-100.5 199.9,-107.5"/>
</g>
<!-- Node5&#45;&gt;Node5 -->
<g id="edge6" class="edge">
<title>Node5&#45;&gt;Node5</title>
<path fill="none" stroke="midnightblue" d="M136.82,-38.76C129.92,-47.57 134.65,-57 151,-57 161.22,-57 166.9,-53.31 168.04,-48.4"/>
<polygon fill="midnightblue" stroke="midnightblue" points="171.38,-47.35 165.18,-38.76 164.66,-49.34 171.38,-47.35"/>
</g>
<!-- Node6 -->
<g id="node6" class="node">
<title>Node6</title>
<g id="a_node6"><a xlink:href="group__grp__numerics.html#ga1fd52accb0646f535f9bcc46cf5a68f3" target="_top" xlink:title="Inverse Fourier transform (fftw wrapper)">
<polygon fill="white" stroke="black" points="224,-56.5 224,-75.5 262,-75.5 262,-56.5 224,-56.5"/>
<text text-anchor="middle" x="243" y="-63.5" font-family="Helvetica,sans-Serif" font-size="10.00">invfft</text>
</a>
</g>
</g>
<!-- Node5&#45;&gt;Node6 -->
<g id="edge7" class="edge">
<title>Node5&#45;&gt;Node6</title>
<path fill="none" stroke="midnightblue" d="M174.25,-38.15C186.44,-43.16 201.66,-49.42 214.59,-54.73"/>
<polygon fill="midnightblue" stroke="midnightblue" points="213.35,-58.01 223.93,-58.57 216.02,-51.53 213.35,-58.01"/>
</g>
<!-- Node7 -->
<g id="node7" class="node">
<title>Node7</title>
<g id="a_node7"><a xlink:href="group__grp__volume.html#gae4c62d20b8fef07f4471b5b0889ab005" target="_top" xlink:title="Computes volume of each region; and, if required, the derivatives of the volume with respect to the i...">
<polygon fill="white" stroke="black" points="219,-0.5 219,-19.5 267,-19.5 267,-0.5 219,-0.5"/>
<text text-anchor="middle" x="243" y="-7.5" font-family="Helvetica,sans-Serif" font-size="10.00">volume</text>
</a>
</g>
</g>
<!-- Node5&#45;&gt;Node7 -->
<g id="edge8" class="edge">
<title>Node5&#45;&gt;Node7</title>
<path fill="none" stroke="midnightblue" d="M170.65,-19.47C181.7,-16.03 196.02,-12.7 208.93,-10.45"/>
<polygon fill="midnightblue" stroke="midnightblue" points="209.55,-13.89 218.9,-8.89 208.48,-6.98 209.55,-13.89"/>
</g>
<!-- Node7&#45;&gt;Node5 -->
<g id="edge9" class="edge">
<title>Node7&#45;&gt;Node5</title>
<path fill="none" stroke="midnightblue" d="M223.35,-19.53C212.08,-23.03 197.42,-26.43 184.32,-28.68"/>
<polygon fill="midnightblue" stroke="midnightblue" points="183.61,-25.25 174.25,-30.22 184.66,-32.17 183.61,-25.25"/>
</g>
<!-- Node7&#45;&gt;Node7 -->
<g id="edge10" class="edge">
<title>Node7&#45;&gt;Node7</title>
<path fill="none" stroke="midnightblue" d="M228.82,-19.76C221.92,-28.57 226.65,-38 243,-38 253.22,-38 258.9,-34.31 260.04,-29.4"/>
<polygon fill="midnightblue" stroke="midnightblue" points="263.38,-28.35 257.18,-19.76 256.66,-30.34 263.38,-28.35"/>
</g>
</g>
</svg>
