<?xml version="1.0" encoding="UTF-8" standalone="no"?>
<!DOCTYPE svg PUBLIC "-//W3C//DTD SVG 1.1//EN"
 "http://www.w3.org/Graphics/SVG/1.1/DTD/svg11.dtd">
<!-- Generated by graphviz version 2.47.0 (20210316.2052)
 -->
<!-- Title: Input namelists and global variables Pages: 1 -->
<svg width="237pt" height="249pt"
 viewBox="0.00 0.00 237.00 249.00" xmlns="http://www.w3.org/2000/svg" xmlns:xlink="http://www.w3.org/1999/xlink">
<g id="graph0" class="graph" transform="scale(1 1) rotate(0) translate(4 245)">
<title>Input namelists and global variables</title>
<polygon fill="white" stroke="transparent" points="-4,4 -4,-245 233,-245 233,4 -4,4"/>
<!-- Node7 -->
<g id="node1" class="node">
<title>Node7</title>
<g id="a_node1"><a xlink:href="group__grp__global__screenlist.html" target="_top" xlink:title="The namelist screenlist controls screen output. Every subroutine, e.g. xy00aa.h, has its own write fl...">
<polygon fill="white" stroke="black" points="212.5,-241 153.5,-241 153.5,-222 212.5,-222 212.5,-241"/>
<text text-anchor="middle" x="183" y="-229" font-family="Helvetica,sans-Serif" font-size="10.00">screenlist</text>
</a>
</g>
</g>
<!-- Node3 -->
<g id="node2" class="node">
<title>Node3</title>
<g id="a_node2"><a xlink:href="group__grp__global__numerics.html" target="_top" xlink:title="The namelist numericlist controls internal resolution parameters that the user rarely needs to consid...">
<polygon fill="white" stroke="black" points="215,-204 151,-204 151,-185 215,-185 215,-204"/>
<text text-anchor="middle" x="183" y="-192" font-family="Helvetica,sans-Serif" font-size="10.00">numericlist</text>
</a>
</g>
</g>
<!-- Node4 -->
<g id="node3" class="node">
<title>Node4</title>
<g id="a_node3"><a xlink:href="group__grp__global__local.html" target="_top" xlink:title="The namelist locallist controls the construction of the Beltrami fields in each volume.">
<polygon fill="white" stroke="black" points="208,-167 158,-167 158,-148 208,-148 208,-167"/>
<text text-anchor="middle" x="183" y="-155" font-family="Helvetica,sans-Serif" font-size="10.00">locallist</text>
</a>
</g>
</g>
<!-- Node2 -->
<g id="node4" class="node">
<title>Node2</title>
<g id="a_node4"><a xlink:href="group__grp__global__physicslist.html" target="_top" xlink:title="The namelist physicslist controls the geometry, profiles, and numerical resolution.">
<polygon fill="white" stroke="black" points="214,-130 152,-130 152,-111 214,-111 214,-130"/>
<text text-anchor="middle" x="183" y="-118" font-family="Helvetica,sans-Serif" font-size="10.00">physicslist</text>
</a>
</g>
</g>
<!-- Node5 -->
<g id="node5" class="node">
<title>Node5</title>
<g id="a_node5"><a xlink:href="group__grp__global__global.html" target="_top" xlink:title="The namelist globallist controls the search for global force&#45;balance.">
<polygon fill="white" stroke="black" points="210.5,-93 155.5,-93 155.5,-74 210.5,-74 210.5,-93"/>
<text text-anchor="middle" x="183" y="-81" font-family="Helvetica,sans-Serif" font-size="10.00">globallist</text>
</a>
</g>
</g>
<!-- Node8 -->
<g id="node6" class="node">
<title>Node8</title>
<g id="a_node6"><a xlink:href="group__grp__internal__vars.html" target="_top" xlink:title=" ">
<polygon fill="white" stroke="black" points="229,-56 137,-56 137,-37 229,-37 229,-56"/>
<text text-anchor="middle" x="183" y="-44" font-family="Helvetica,sans-Serif" font-size="10.00">Internal Variables</text>
</a>
</g>
</g>
<!-- Node1 -->
<g id="node7" class="node">
<title>Node1</title>
<g id="a_node7"><a xlink:title="\definecolor{Orange}{rgb}{1.0,0.5,0.0} &#160;\definecolor{Cerulean}{rgb}{0.0,0.5,1.0}">
<polygon fill="#bfbfbf" stroke="black" points="101,-135.5 0,-135.5 0,-105.5 101,-105.5 101,-135.5"/>
<text text-anchor="start" x="8" y="-123.5" font-family="Helvetica,sans-Serif" font-size="10.00">Input namelists and</text>
<text text-anchor="middle" x="50.5" y="-112.5" font-family="Helvetica,sans-Serif" font-size="10.00"> global variables</text>
</a>
</g>
</g>
<!-- Node1&#45;&gt;Node7 -->
<g id="edge6" class="edge">
<title>Node1&#45;&gt;Node7</title>
<path fill="none" stroke="black" d="M68.16,-143.89C83.91,-164.56 109.2,-194.32 137,-213.5 141.99,-216.94 147.73,-219.87 153.4,-222.3"/>
<polygon fill="black" stroke="black" points="70.8,-141.58 62.02,-135.65 65.19,-145.76 70.8,-141.58"/>
</g>
<!-- Node1&#45;&gt;Node3 -->
<g id="edge2" class="edge">
<title>Node1&#45;&gt;Node3</title>
<path fill="none" stroke="black" d="M80.35,-141.47C96.52,-152.69 117.35,-166.26 137,-176.5 142.82,-179.53 149.27,-182.39 155.43,-184.89"/>
<polygon fill="black" stroke="black" points="82.07,-138.4 71.88,-135.51 78.04,-144.13 82.07,-138.4"/>
</g>
<!-- Node1&#45;&gt;Node4 -->
<g id="edge3" class="edge">
<title>Node1&#45;&gt;Node4</title>
<path fill="none" stroke="black" d="M110.91,-137.34C127.53,-142.06 144.67,-146.92 157.95,-150.68"/>
<polygon fill="black" stroke="black" points="111.78,-133.95 101.21,-134.59 109.87,-140.69 111.78,-133.95"/>
</g>
<!-- Node1&#45;&gt;Node2 -->
<g id="edge1" class="edge">
<title>Node1&#45;&gt;Node2</title>
<path fill="none" stroke="black" d="M111.3,-120.5C125.3,-120.5 139.63,-120.5 151.7,-120.5"/>
<polygon fill="black" stroke="black" points="111.21,-117 101.21,-120.5 111.21,-124 111.21,-117"/>
</g>
<!-- Node1&#45;&gt;Node5 -->
<g id="edge4" class="edge">
<title>Node1&#45;&gt;Node5</title>
<path fill="none" stroke="black" d="M110.84,-103.68C126.46,-99.25 142.53,-94.69 155.43,-91.03"/>
<polygon fill="black" stroke="black" points="109.87,-100.31 101.21,-106.41 111.78,-107.05 109.87,-100.31"/>
</g>
<!-- Node1&#45;&gt;Node8 -->
<g id="edge7" class="edge">
<title>Node1&#45;&gt;Node8</title>
<path fill="none" stroke="black" d="M81.13,-99.64C97.25,-88.76 117.77,-75.65 137,-65.5 143.45,-62.1 150.64,-58.84 157.36,-56"/>
<polygon fill="black" stroke="black" points="78.95,-96.89 72.67,-105.42 82.9,-102.67 78.95,-96.89"/>
</g>
<!-- Node6 -->
<g id="node8" class="node">
<title>Node6</title>
<g id="a_node8"><a xlink:href="group__grp__global__diagnostics.html" target="_top" xlink:title="The namelist diagnosticslist controls post&#45;processor diagnostics, such as Poincaré plot resolution,...">
<polygon fill="white" stroke="black" points="222.5,-19 143.5,-19 143.5,0 222.5,0 222.5,-19"/>
<text text-anchor="middle" x="183" y="-7" font-family="Helvetica,sans-Serif" font-size="10.00">diagnosticslist</text>
</a>
</g>
</g>
<!-- Node1&#45;&gt;Node6 -->
<g id="edge5" class="edge">
<title>Node1&#45;&gt;Node6</title>
<path fill="none" stroke="black" d="M68.57,-97.15C84.43,-76.8 109.65,-47.65 137,-28.5 142.14,-24.9 148.07,-21.8 153.9,-19.2"/>
<polygon fill="black" stroke="black" points="65.66,-95.2 62.37,-105.27 71.22,-99.44 65.66,-95.2"/>
</g>
</g>
</svg>
