<?xml version="1.0" encoding="UTF-8" standalone="no"?>
<!DOCTYPE svg PUBLIC "-//W3C//DTD SVG 1.1//EN"
 "http://www.w3.org/Graphics/SVG/1.1/DTD/svg11.dtd">
<!-- Generated by graphviz version 2.47.1 (0)
 -->
<!-- Title: tr00ab Pages: 1 -->
<svg width="1172pt" height="327pt"
 viewBox="0.00 0.00 1172.00 327.00" xmlns="http://www.w3.org/2000/svg" xmlns:xlink="http://www.w3.org/1999/xlink">
<g id="graph0" class="graph" transform="scale(1 1) rotate(0) translate(4 323)">
<title>tr00ab</title>
<polygon fill="white" stroke="transparent" points="-4,4 -4,-323 1168,-323 1168,4 -4,4"/>
<!-- Node1 -->
<g id="node1" class="node">
<title>Node1</title>
<g id="a_node1"><a xlink:title="Calculates rotational transform given an arbitrary tangential field.">
<polygon fill="#bfbfbf" stroke="black" points="1120,-196.5 1120,-215.5 1164,-215.5 1164,-196.5 1120,-196.5"/>
<text text-anchor="middle" x="1142" y="-203.5" font-family="Helvetica,sans-Serif" font-size="10.00">tr00ab</text>
</a>
</g>
</g>
<!-- Node2 -->
<g id="node2" class="node">
<title>Node2</title>
<g id="a_node2"><a xlink:href="dfp200_8f90.html#a73ddf39ecc5228201fb643779e17cd36" target="_top" xlink:title="Evaluate mu and psip derivatives and store them in dmupfdx.">
<polygon fill="white" stroke="black" points="733,-215.5 733,-234.5 828,-234.5 828,-215.5 733,-215.5"/>
<text text-anchor="middle" x="780.5" y="-222.5" font-family="Helvetica,sans-Serif" font-size="10.00">evaluate_dmupfdx</text>
</a>
</g>
</g>
<!-- Node1&#45;&gt;Node2 -->
<g id="edge1" class="edge">
<title>Node1&#45;&gt;Node2</title>
<path fill="none" stroke="midnightblue" d="M1109.69,-207.65C1046.32,-211 902.59,-218.6 828.14,-222.53"/>
<polygon fill="midnightblue" stroke="midnightblue" points="1110.05,-211.14 1119.85,-207.12 1109.68,-204.15 1110.05,-211.14"/>
</g>
<!-- Node21 -->
<g id="node21" class="node">
<title>Node21</title>
<g id="a_node21"><a xlink:href="group__grp__solver.html#ga6626839aff500f060beb5bce2b90c447" target="_top" xlink:title="Solves Beltrami/vacuum (linear) system, given matrices.unpacking fluxes, helicity multiplier">
<polygon fill="white" stroke="black" points="1033,-177.5 1033,-196.5 1084,-196.5 1084,-177.5 1033,-177.5"/>
<text text-anchor="middle" x="1058.5" y="-184.5" font-family="Helvetica,sans-Serif" font-size="10.00">mp00ac</text>
</a>
</g>
</g>
<!-- Node1&#45;&gt;Node21 -->
<g id="edge37" class="edge">
<title>Node1&#45;&gt;Node21</title>
<path fill="none" stroke="midnightblue" d="M1109.69,-198.7C1101.26,-196.73 1092.25,-194.64 1084.23,-192.77"/>
<polygon fill="midnightblue" stroke="midnightblue" points="1109.05,-202.15 1119.59,-201.01 1110.64,-195.33 1109.05,-202.15"/>
</g>
<!-- Node3 -->
<g id="node3" class="node">
<title>Node3</title>
<g id="a_node3"><a xlink:href="dfp200_8f90.html#a55ea75395f8c71731451e1add3720c7e" target="_top" xlink:title="Given the field consistent with the constraints and the geometry, computes local quantites related to...">
<polygon fill="white" stroke="black" points="651,-215.5 651,-234.5 697,-234.5 697,-215.5 651,-215.5"/>
<text text-anchor="middle" x="674" y="-222.5" font-family="Helvetica,sans-Serif" font-size="10.00">dfp200</text>
</a>
</g>
</g>
<!-- Node2&#45;&gt;Node3 -->
<g id="edge2" class="edge">
<title>Node2&#45;&gt;Node3</title>
<path fill="none" stroke="midnightblue" d="M722.55,-218.27C713.54,-218.37 704.71,-218.73 697.16,-219.36"/>
<polygon fill="midnightblue" stroke="midnightblue" points="722.75,-221.77 732.75,-218.28 722.75,-214.77 722.75,-221.77"/>
</g>
<!-- Node3&#45;&gt;Node2 -->
<g id="edge33" class="edge">
<title>Node3&#45;&gt;Node2</title>
<path fill="none" stroke="midnightblue" d="M707.25,-231.29C715.32,-231.68 724.14,-231.82 732.75,-231.72"/>
<polygon fill="midnightblue" stroke="midnightblue" points="707.36,-227.79 697.16,-230.64 706.91,-234.78 707.36,-227.79"/>
</g>
<!-- Node4 -->
<g id="node4" class="node">
<title>Node4</title>
<g id="a_node4"><a xlink:href="group__grp__global__force.html#ga38c9d3c50bd043707fefa5137c9dbf44" target="_top" xlink:title="Calculates , where &#160;and , and .">
<polygon fill="white" stroke="black" points="535.5,-156.5 535.5,-175.5 579.5,-175.5 579.5,-156.5 535.5,-156.5"/>
<text text-anchor="middle" x="557.5" y="-163.5" font-family="Helvetica,sans-Serif" font-size="10.00">dforce</text>
</a>
</g>
</g>
<!-- Node3&#45;&gt;Node4 -->
<g id="edge3" class="edge">
<title>Node3&#45;&gt;Node4</title>
<path fill="none" stroke="midnightblue" d="M645.22,-210.69C624.09,-199.8 595.6,-185.12 577.14,-175.61"/>
<polygon fill="midnightblue" stroke="midnightblue" points="643.86,-213.92 654.35,-215.39 647.06,-207.7 643.86,-213.92"/>
</g>
<!-- Node15 -->
<g id="node15" class="node">
<title>Node15</title>
<g id="a_node15"><a xlink:href="dfp200_8f90.html#a6aca59cf350d7b1941f8389d50945a43" target="_top" xlink:title="get LU Beltrami matrices">
<polygon fill="white" stroke="black" points="339,-266.5 339,-285.5 464,-285.5 464,-266.5 339,-266.5"/>
<text text-anchor="middle" x="401.5" y="-273.5" font-family="Helvetica,sans-Serif" font-size="10.00">get_lu_beltrami_matrices</text>
</a>
</g>
</g>
<!-- Node3&#45;&gt;Node15 -->
<g id="edge34" class="edge">
<title>Node3&#45;&gt;Node15</title>
<path fill="none" stroke="midnightblue" d="M640.91,-226.5C587.48,-233.56 481.15,-253.69 430.53,-266.4"/>
<polygon fill="midnightblue" stroke="midnightblue" points="641.37,-229.97 650.86,-225.26 640.51,-223.02 641.37,-229.97"/>
</g>
<!-- Node19 -->
<g id="node19" class="node">
<title>Node19</title>
<g id="a_node19"><a xlink:href="dfp200_8f90.html#a7b64c7392b45d0042d8bd7379c0761a5" target="_top" xlink:title="Evaluate the derivative of the square of the magnetic field modulus. Add spectral constraint derivati...">
<polygon fill="white" stroke="black" points="520.5,-205.5 520.5,-224.5 594.5,-224.5 594.5,-205.5 520.5,-205.5"/>
<text text-anchor="middle" x="557.5" y="-212.5" font-family="Helvetica,sans-Serif" font-size="10.00">evaluate_dbb</text>
</a>
</g>
</g>
<!-- Node3&#45;&gt;Node19 -->
<g id="edge31" class="edge">
<title>Node3&#45;&gt;Node19</title>
<path fill="none" stroke="midnightblue" d="M641.03,-216.08C626.7,-214.08 609.74,-212.52 594.93,-211.84"/>
<polygon fill="midnightblue" stroke="midnightblue" points="640.51,-219.54 650.92,-217.61 641.58,-212.62 640.51,-219.54"/>
</g>
<!-- Node20 -->
<g id="node20" class="node">
<title>Node20</title>
<g id="a_node20"><a xlink:href="dfp200_8f90.html#a5e56f1f4b1e6df11a9cffa6237c37469" target="_top" xlink:title="This routine evaluates the value of the magnetic field once the interface is perturbed using matrix p...">
<polygon fill="white" stroke="black" points="500,-299.5 500,-318.5 615,-318.5 615,-299.5 500,-299.5"/>
<text text-anchor="middle" x="557.5" y="-306.5" font-family="Helvetica,sans-Serif" font-size="10.00">get_perturbed_solution</text>
</a>
</g>
</g>
<!-- Node3&#45;&gt;Node20 -->
<g id="edge35" class="edge">
<title>Node3&#45;&gt;Node20</title>
<path fill="none" stroke="midnightblue" d="M652.76,-242.09C642.4,-252.93 629.03,-266.36 615,-276 600.42,-286.02 580.99,-293.14 569.13,-299.36"/>
<polygon fill="midnightblue" stroke="midnightblue" points="655.38,-244.41 659.73,-234.75 650.31,-239.59 655.38,-244.41"/>
</g>
<!-- Node5 -->
<g id="node5" class="node">
<title>Node5</title>
<g id="a_node5"><a xlink:href="namespaceallglobal.html#a7824bc37519fe88336534ce90ab2af16" target="_top" xlink:title=" ">
<polygon fill="white" stroke="black" points="344.5,-228.5 344.5,-247.5 458.5,-247.5 458.5,-228.5 344.5,-228.5"/>
<text text-anchor="middle" x="401.5" y="-235.5" font-family="Helvetica,sans-Serif" font-size="10.00">allglobal::check_inputs</text>
</a>
</g>
</g>
<!-- Node4&#45;&gt;Node5 -->
<g id="edge4" class="edge">
<title>Node4&#45;&gt;Node5</title>
<path fill="none" stroke="midnightblue" d="M529.42,-180.46C506.89,-192.42 476.55,-208.32 464,-214 452.62,-219.16 439.78,-224.27 428.79,-228.45"/>
<polygon fill="midnightblue" stroke="midnightblue" points="531.34,-183.41 538.52,-175.62 528.05,-177.22 531.34,-183.41"/>
</g>
<!-- Node8 -->
<g id="node8" class="node">
<title>Node8</title>
<g id="a_node8"><a xlink:href="xspech_8f90.html#a48f45478dc2c9f70ea8aa1c60ad06503" target="_top" xlink:title="This is the main &quot;driver&quot; for the physics part of SPEC.">
<polygon fill="white" stroke="black" points="155.5,-170.5 155.5,-189.5 193.5,-189.5 193.5,-170.5 155.5,-170.5"/>
<text text-anchor="middle" x="174.5" y="-177.5" font-family="Helvetica,sans-Serif" font-size="10.00">spec</text>
</a>
</g>
</g>
<!-- Node4&#45;&gt;Node8 -->
<g id="edge30" class="edge">
<title>Node4&#45;&gt;Node8</title>
<path fill="none" stroke="midnightblue" d="M525.36,-170.91C507.46,-173.52 484.52,-176.48 464,-178 371.35,-184.85 347.9,-181.58 255,-181 234.02,-180.87 209.93,-180.54 193.81,-180.3"/>
<polygon fill="midnightblue" stroke="midnightblue" points="525.89,-174.37 535.26,-169.43 524.85,-167.45 525.89,-174.37"/>
</g>
<!-- Node11 -->
<g id="node11" class="node">
<title>Node11</title>
<g id="a_node11"><a xlink:href="group__grp__force__driver.html#gabbc245b3884ee8d8d3e2a52f25149f78" target="_top" xlink:title="fcn1">
<polygon fill="white" stroke="black" points="384,-76.5 384,-95.5 419,-95.5 419,-76.5 384,-76.5"/>
<text text-anchor="middle" x="401.5" y="-83.5" font-family="Helvetica,sans-Serif" font-size="10.00">fcn1</text>
</a>
</g>
</g>
<!-- Node4&#45;&gt;Node11 -->
<g id="edge13" class="edge">
<title>Node4&#45;&gt;Node11</title>
<path fill="none" stroke="midnightblue" d="M533.99,-150.86C515.63,-138.89 488.77,-122.22 464,-110 449.2,-102.7 431.59,-96.02 419.02,-91.57"/>
<polygon fill="midnightblue" stroke="midnightblue" points="532.24,-153.9 542.51,-156.48 536.09,-148.06 532.24,-153.9"/>
</g>
<!-- Node12 -->
<g id="node12" class="node">
<title>Node12</title>
<g id="a_node12"><a xlink:href="group__grp__force__driver.html#gaec14f81fbdbedafbc4189489ec8ae178" target="_top" xlink:title="Employs Newton method to find , where &#160;and &#160;is defined in dforce() .">
<polygon fill="white" stroke="black" points="255,-100.5 255,-119.5 303,-119.5 303,-100.5 255,-100.5"/>
<text text-anchor="middle" x="279" y="-107.5" font-family="Helvetica,sans-Serif" font-size="10.00">newton</text>
</a>
</g>
</g>
<!-- Node4&#45;&gt;Node12 -->
<g id="edge27" class="edge">
<title>Node4&#45;&gt;Node12</title>
<path fill="none" stroke="midnightblue" d="M525.21,-159.66C469.16,-148.31 352.86,-124.76 303.24,-114.71"/>
<polygon fill="midnightblue" stroke="midnightblue" points="524.77,-163.14 535.26,-161.7 526.16,-156.28 524.77,-163.14"/>
</g>
<!-- Node13 -->
<g id="node13" class="node">
<title>Node13</title>
<g id="a_node13"><a xlink:href="group__grp__force__driver.html#ga8ccd6c7d901872702521d0a0edf95412" target="_top" xlink:title="fcn2">
<polygon fill="white" stroke="black" points="29.5,-85.5 29.5,-104.5 64.5,-104.5 64.5,-85.5 29.5,-85.5"/>
<text text-anchor="middle" x="47" y="-92.5" font-family="Helvetica,sans-Serif" font-size="10.00">fcn2</text>
</a>
</g>
</g>
<!-- Node4&#45;&gt;Node13 -->
<g id="edge22" class="edge">
<title>Node4&#45;&gt;Node13</title>
<path fill="none" stroke="midnightblue" d="M545.89,-147.42C531.09,-123.59 501.74,-83.39 464,-67 320.58,-4.72 123.03,-67.47 64.79,-88.6"/>
<polygon fill="midnightblue" stroke="midnightblue" points="543.03,-149.45 551.17,-156.23 549.04,-145.86 543.03,-149.45"/>
</g>
<!-- Node4&#45;&gt;Node15 -->
<g id="edge23" class="edge">
<title>Node4&#45;&gt;Node15</title>
<path fill="none" stroke="midnightblue" d="M526.18,-178.24C517.07,-182.89 507.51,-188.82 500,-196 477.24,-217.75 488.7,-237.48 464,-257 459.09,-260.88 453.38,-263.97 447.47,-266.43"/>
<polygon fill="midnightblue" stroke="midnightblue" points="527.87,-181.31 535.41,-173.87 524.88,-174.99 527.87,-181.31"/>
</g>
<!-- Node16 -->
<g id="node16" class="node">
<title>Node16</title>
<g id="a_node16"><a xlink:href="group__grp__diagnostics.html#ga7401b50ec10c6598ee4a8112717a63ec" target="_top" xlink:title="Computes eigenvalues and eigenvectors of derivative matrix, .">
<polygon fill="white" stroke="black" points="256.5,-152.5 256.5,-171.5 301.5,-171.5 301.5,-152.5 256.5,-152.5"/>
<text text-anchor="middle" x="279" y="-159.5" font-family="Helvetica,sans-Serif" font-size="10.00">hesian</text>
</a>
</g>
</g>
<!-- Node4&#45;&gt;Node16 -->
<g id="edge25" class="edge">
<title>Node4&#45;&gt;Node16</title>
<path fill="none" stroke="midnightblue" d="M525.1,-165.55C468.42,-164.73 350.36,-163.02 301.69,-162.31"/>
<polygon fill="midnightblue" stroke="midnightblue" points="525.21,-169.05 535.26,-165.69 525.31,-162.05 525.21,-169.05"/>
</g>
<!-- Node17 -->
<g id="node17" class="node">
<title>Node17</title>
<g id="a_node17"><a xlink:href="group__grp__conjugate__gradient.html#ga4d8415226e62a9fdb42b0fd0b464251e" target="_top" xlink:title="Returns the energy functional and it&#39;s derivatives with respect to geometry.">
<polygon fill="white" stroke="black" points="377.5,-0.5 377.5,-19.5 425.5,-19.5 425.5,-0.5 377.5,-0.5"/>
<text text-anchor="middle" x="401.5" y="-7.5" font-family="Helvetica,sans-Serif" font-size="10.00">pc00ab</text>
</a>
</g>
</g>
<!-- Node4&#45;&gt;Node17 -->
<g id="edge28" class="edge">
<title>Node4&#45;&gt;Node17</title>
<path fill="none" stroke="midnightblue" d="M547.75,-147.03C533.8,-118.72 503.98,-65.41 464,-34 452.82,-25.22 438.05,-19.32 425.78,-15.56"/>
<polygon fill="midnightblue" stroke="midnightblue" points="544.68,-148.73 552.16,-156.24 551,-145.71 544.68,-148.73"/>
</g>
<!-- Node6 -->
<g id="node6" class="node">
<title>Node6</title>
<g id="a_node6"><a xlink:href="xspech_8f90.html#a9fdc71dffd7c61ee4588a3f80d3ab9ce" target="_top" xlink:title="Main subroutine of SPEC.">
<polygon fill="white" stroke="black" points="255.5,-228.5 255.5,-247.5 302.5,-247.5 302.5,-228.5 255.5,-228.5"/>
<text text-anchor="middle" x="279" y="-235.5" font-family="Helvetica,sans-Serif" font-size="10.00">xspech</text>
</a>
</g>
</g>
<!-- Node5&#45;&gt;Node6 -->
<g id="edge5" class="edge">
<title>Node5&#45;&gt;Node6</title>
<path fill="none" stroke="midnightblue" d="M334.45,-238C323.06,-238 311.95,-238 302.77,-238"/>
<polygon fill="midnightblue" stroke="midnightblue" points="334.48,-241.5 344.48,-238 334.48,-234.5 334.48,-241.5"/>
</g>
<!-- Node7 -->
<g id="node7" class="node">
<title>Node7</title>
<g id="a_node7"><a xlink:href="xspech_8f90.html#a1451823a7b97101a797de616250752c1" target="_top" xlink:title="Final diagnostics.">
<polygon fill="white" stroke="black" points="130,-246.5 130,-265.5 219,-265.5 219,-246.5 130,-246.5"/>
<text text-anchor="middle" x="174.5" y="-253.5" font-family="Helvetica,sans-Serif" font-size="10.00">final_diagnostics</text>
</a>
</g>
</g>
<!-- Node6&#45;&gt;Node7 -->
<g id="edge6" class="edge">
<title>Node6&#45;&gt;Node7</title>
<path fill="none" stroke="midnightblue" d="M244.98,-237.44C229.44,-239.47 211.32,-242.89 197.48,-246.48"/>
<polygon fill="midnightblue" stroke="midnightblue" points="245.71,-240.88 255.25,-236.27 244.92,-233.93 245.71,-240.88"/>
</g>
<!-- Node6&#45;&gt;Node8 -->
<g id="edge8" class="edge">
<title>Node6&#45;&gt;Node8</title>
<path fill="none" stroke="midnightblue" d="M263.16,-222.04C251.26,-213.43 234.1,-203.51 219,-195 210.74,-190.34 201.54,-185.25 193.74,-181.68"/>
<polygon fill="midnightblue" stroke="midnightblue" points="261.1,-224.87 271.12,-228.32 265.44,-219.38 261.1,-224.87"/>
</g>
<!-- Node10 -->
<g id="node10" class="node">
<title>Node10</title>
<g id="a_node10"><a xlink:href="xspech_8f90.html#a95271e8805067f801b5d4e524d6901d4" target="_top" xlink:title="Main program of SPEC.">
<polygon fill="white" stroke="black" points="142.5,-284.5 142.5,-303.5 206.5,-303.5 206.5,-284.5 142.5,-284.5"/>
<text text-anchor="middle" x="174.5" y="-291.5" font-family="Helvetica,sans-Serif" font-size="10.00">spec_main</text>
</a>
</g>
</g>
<!-- Node6&#45;&gt;Node10 -->
<g id="edge12" class="edge">
<title>Node6&#45;&gt;Node10</title>
<path fill="none" stroke="midnightblue" d="M255.39,-253.28C244.59,-260.29 231.36,-268.47 219,-275 212.73,-278.31 205.77,-281.54 199.28,-284.37"/>
<polygon fill="midnightblue" stroke="midnightblue" points="257.38,-256.16 263.81,-247.74 253.53,-250.32 257.38,-256.16"/>
</g>
<!-- Node7&#45;&gt;Node6 -->
<g id="edge7" class="edge">
<title>Node7&#45;&gt;Node6</title>
<path fill="none" stroke="midnightblue" d="M229.54,-253.25C238.91,-251.55 248.15,-249.56 256.01,-247.52"/>
<polygon fill="midnightblue" stroke="midnightblue" points="228.65,-249.85 219.38,-254.98 229.83,-256.75 228.65,-249.85"/>
</g>
<!-- Node8&#45;&gt;Node6 -->
<g id="edge11" class="edge">
<title>Node8&#45;&gt;Node6</title>
<path fill="none" stroke="midnightblue" d="M190.08,-195.84C198.55,-201.6 209.4,-207.59 219,-213 231.05,-219.79 244.41,-227.48 255.36,-232.96"/>
<polygon fill="midnightblue" stroke="midnightblue" points="192.09,-192.97 182.01,-189.71 187.86,-198.55 192.09,-192.97"/>
</g>
<!-- Node9 -->
<g id="node9" class="node">
<title>Node9</title>
<g id="a_node9"><a xlink:href="group__grp__output.html#ga0f962c09cd5d5eba99f1cba043cb3898" target="_top" xlink:title="Initialize the interface to the HDF5 library and open the output file.">
<polygon fill="white" stroke="black" points="0,-189.5 0,-208.5 94,-208.5 94,-189.5 0,-189.5"/>
<text text-anchor="middle" x="47" y="-196.5" font-family="Helvetica,sans-Serif" font-size="10.00">sphdf5::init_outfile</text>
</a>
</g>
</g>
<!-- Node8&#45;&gt;Node9 -->
<g id="edge9" class="edge">
<title>Node8&#45;&gt;Node9</title>
<path fill="none" stroke="midnightblue" d="M145.06,-184.31C130.04,-186.58 111.23,-189.43 94.18,-192.01"/>
<polygon fill="midnightblue" stroke="midnightblue" points="145.89,-187.72 155.25,-182.76 144.84,-180.8 145.89,-187.72"/>
</g>
<!-- Node9&#45;&gt;Node6 -->
<g id="edge10" class="edge">
<title>Node9&#45;&gt;Node6</title>
<path fill="none" stroke="midnightblue" d="M104.17,-208.52C152.64,-216.74 220.21,-228.2 255.11,-234.12"/>
<polygon fill="midnightblue" stroke="midnightblue" points="104.58,-205.04 94.13,-206.82 103.41,-211.95 104.58,-205.04"/>
</g>
<!-- Node11&#45;&gt;Node12 -->
<g id="edge14" class="edge">
<title>Node11&#45;&gt;Node12</title>
<path fill="none" stroke="midnightblue" d="M373.54,-85.64C351.79,-88.48 321.63,-94.63 301.49,-100.41"/>
<polygon fill="midnightblue" stroke="midnightblue" points="374.2,-89.08 383.74,-84.49 373.42,-82.13 374.2,-89.08"/>
</g>
<!-- Node12&#45;&gt;Node8 -->
<g id="edge18" class="edge">
<title>Node12&#45;&gt;Node8</title>
<path fill="none" stroke="midnightblue" d="M261.33,-126.83C250.07,-137.57 234.49,-151.24 219,-161 211.19,-165.92 201.89,-170.17 193.89,-173.4"/>
<polygon fill="midnightblue" stroke="midnightblue" points="263.99,-129.13 268.7,-119.64 259.1,-124.12 263.99,-129.13"/>
</g>
<!-- Node12&#45;&gt;Node11 -->
<g id="edge15" class="edge">
<title>Node12&#45;&gt;Node11</title>
<path fill="none" stroke="midnightblue" d="M313.21,-109.49C336.11,-106.1 365.58,-99.81 383.74,-94.18"/>
<polygon fill="midnightblue" stroke="midnightblue" points="312.66,-106.03 303.22,-110.83 313.59,-112.97 312.66,-106.03"/>
</g>
<!-- Node12&#45;&gt;Node13 -->
<g id="edge16" class="edge">
<title>Node12&#45;&gt;Node13</title>
<path fill="none" stroke="midnightblue" d="M244.71,-102.91C194.77,-96.86 102.33,-91.23 64.65,-92.37"/>
<polygon fill="midnightblue" stroke="midnightblue" points="244.31,-106.39 254.68,-104.2 245.21,-99.45 244.31,-106.39"/>
</g>
<!-- Node14 -->
<g id="node14" class="node">
<title>Node14</title>
<g id="a_node14"><a xlink:href="group__grp__force__driver.html#ga382822b303cbf8c56d6f54dcb379caf2" target="_top" xlink:title="read or write force&#45;derivative matrix">
<polygon fill="white" stroke="black" points="142,-132.5 142,-151.5 207,-151.5 207,-132.5 142,-132.5"/>
<text text-anchor="middle" x="174.5" y="-139.5" font-family="Helvetica,sans-Serif" font-size="10.00">writereadgf</text>
</a>
</g>
</g>
<!-- Node12&#45;&gt;Node14 -->
<g id="edge19" class="edge">
<title>Node12&#45;&gt;Node14</title>
<path fill="none" stroke="midnightblue" d="M245.23,-113.89C226.85,-118.78 204.81,-126.13 190.5,-132.38"/>
<polygon fill="midnightblue" stroke="midnightblue" points="246.15,-117.27 255,-111.44 244.45,-110.48 246.15,-117.27"/>
</g>
<!-- Node13&#45;&gt;Node12 -->
<g id="edge17" class="edge">
<title>Node13&#45;&gt;Node12</title>
<path fill="none" stroke="midnightblue" d="M74.62,-101.25C120.02,-107.27 211.65,-113.17 254.68,-112.75"/>
<polygon fill="midnightblue" stroke="midnightblue" points="75.05,-97.77 64.65,-99.8 74.04,-104.7 75.05,-97.77"/>
</g>
<!-- Node14&#45;&gt;Node12 -->
<g id="edge21" class="edge">
<title>Node14&#45;&gt;Node12</title>
<path fill="none" stroke="midnightblue" d="M217.07,-135.67C233.26,-130.98 250.79,-124.94 262.88,-119.68"/>
<polygon fill="midnightblue" stroke="midnightblue" points="215.92,-132.35 207.22,-138.39 217.79,-139.1 215.92,-132.35"/>
</g>
<!-- Node14&#45;&gt;Node13 -->
<g id="edge20" class="edge">
<title>Node14&#45;&gt;Node13</title>
<path fill="none" stroke="midnightblue" d="M138.55,-128.91C114.38,-119.86 83.31,-108.22 64.56,-101.2"/>
<polygon fill="midnightblue" stroke="midnightblue" points="137.51,-132.26 148.1,-132.49 139.97,-125.7 137.51,-132.26"/>
</g>
<!-- Node15&#45;&gt;Node3 -->
<g id="edge24" class="edge">
<title>Node15&#45;&gt;Node3</title>
<path fill="none" stroke="midnightblue" d="M474.05,-268.55C532.93,-258.87 612.69,-243.12 650.86,-233.09"/>
<polygon fill="midnightblue" stroke="midnightblue" points="473.36,-265.11 464.05,-270.16 474.48,-272.02 473.36,-265.11"/>
</g>
<!-- Node16&#45;&gt;Node8 -->
<g id="edge26" class="edge">
<title>Node16&#45;&gt;Node8</title>
<path fill="none" stroke="midnightblue" d="M246.08,-167.61C228.88,-170.63 208.27,-174.24 193.78,-176.79"/>
<polygon fill="midnightblue" stroke="midnightblue" points="247.02,-170.99 256.26,-165.82 245.81,-164.1 247.02,-170.99"/>
</g>
<!-- Node18 -->
<g id="node18" class="node">
<title>Node18</title>
<g id="a_node18"><a xlink:href="group__grp__conjugate__gradient.html#ga25a3bae2ff2ee0469b045de0d033398b" target="_top" xlink:title="Use preconditioned conjugate gradient method to find minimum of energy functional.">
<polygon fill="white" stroke="black" points="255,-0.5 255,-19.5 303,-19.5 303,-0.5 255,-0.5"/>
<text text-anchor="middle" x="279" y="-7.5" font-family="Helvetica,sans-Serif" font-size="10.00">pc00aa</text>
</a>
</g>
</g>
<!-- Node17&#45;&gt;Node18 -->
<g id="edge29" class="edge">
<title>Node17&#45;&gt;Node18</title>
<path fill="none" stroke="midnightblue" d="M367.16,-10C346.81,-10 321.31,-10 303.16,-10"/>
<polygon fill="midnightblue" stroke="midnightblue" points="367.27,-13.5 377.27,-10 367.27,-6.5 367.27,-13.5"/>
</g>
<!-- Node19&#45;&gt;Node3 -->
<g id="edge32" class="edge">
<title>Node19&#45;&gt;Node3</title>
<path fill="none" stroke="midnightblue" d="M605.12,-225.72C620.95,-227.41 637.92,-228.5 650.92,-228.53"/>
<polygon fill="midnightblue" stroke="midnightblue" points="605.27,-222.21 594.93,-224.52 604.45,-229.16 605.27,-222.21"/>
</g>
<!-- Node20&#45;&gt;Node3 -->
<g id="edge36" class="edge">
<title>Node20&#45;&gt;Node3</title>
<path fill="none" stroke="midnightblue" d="M614.74,-294.18C614.82,-294.12 614.91,-294.06 615,-294 638.88,-277.59 660.85,-250.2 669.32,-234.71"/>
<polygon fill="midnightblue" stroke="midnightblue" points="612.82,-291.25 606.12,-299.45 616.47,-297.22 612.82,-291.25"/>
</g>
<!-- Node22 -->
<g id="node22" class="node">
<title>Node22</title>
<g id="a_node22"><a xlink:href="group__grp__solver__driver.html#gacad623d4c5c006e9ad10116372f92ad3" target="_top" xlink:title="Constructs Beltrami field in given volume consistent with flux, helicity, rotational&#45;transform and/or...">
<polygon fill="white" stroke="black" points="946,-177.5 946,-196.5 997,-196.5 997,-177.5 946,-177.5"/>
<text text-anchor="middle" x="971.5" y="-184.5" font-family="Helvetica,sans-Serif" font-size="10.00">ma02aa</text>
</a>
</g>
</g>
<!-- Node21&#45;&gt;Node22 -->
<g id="edge38" class="edge">
<title>Node21&#45;&gt;Node22</title>
<path fill="none" stroke="midnightblue" d="M1022.72,-187C1014.1,-187 1005.04,-187 997.03,-187"/>
<polygon fill="midnightblue" stroke="midnightblue" points="1022.91,-190.5 1032.91,-187 1022.91,-183.5 1022.91,-190.5"/>
</g>
<!-- Node23 -->
<g id="node23" class="node">
<title>Node23</title>
<g id="a_node23"><a xlink:href="dfp100_8f90.html#a17a3ac15cc83994394f7b4cc05e5898e" target="_top" xlink:title="Split the work between MPI nodes and evaluate the global constraint.">
<polygon fill="white" stroke="black" points="864,-177.5 864,-196.5 910,-196.5 910,-177.5 864,-177.5"/>
<text text-anchor="middle" x="887" y="-184.5" font-family="Helvetica,sans-Serif" font-size="10.00">dfp100</text>
</a>
</g>
</g>
<!-- Node22&#45;&gt;Node23 -->
<g id="edge39" class="edge">
<title>Node22&#45;&gt;Node23</title>
<path fill="none" stroke="midnightblue" d="M935.56,-187C926.97,-187 918.01,-187 910.21,-187"/>
<polygon fill="midnightblue" stroke="midnightblue" points="935.75,-190.5 945.75,-187 935.75,-183.5 935.75,-190.5"/>
</g>
<!-- Node23&#45;&gt;Node2 -->
<g id="edge41" class="edge">
<title>Node23&#45;&gt;Node2</title>
<path fill="none" stroke="midnightblue" d="M854.04,-198.62C839.19,-204.02 821.75,-210.36 807.69,-215.48"/>
<polygon fill="midnightblue" stroke="midnightblue" points="855.64,-201.77 863.84,-195.06 853.24,-195.19 855.64,-201.77"/>
</g>
<!-- Node23&#45;&gt;Node4 -->
<g id="edge40" class="edge">
<title>Node23&#45;&gt;Node4</title>
<path fill="none" stroke="midnightblue" d="M853.38,-184.91C786.42,-180.61 635.1,-170.91 579.5,-167.35"/>
<polygon fill="midnightblue" stroke="midnightblue" points="853.54,-188.43 863.75,-185.57 853.99,-181.44 853.54,-188.43"/>
</g>
</g>
</svg>
