<?xml version="1.0" encoding="UTF-8" standalone="no"?>
<!DOCTYPE svg PUBLIC "-//W3C//DTD SVG 1.1//EN"
 "http://www.w3.org/Graphics/SVG/1.1/DTD/svg11.dtd">
<!-- Generated by graphviz version 2.49.0 (0)
 -->
<!-- Title: mp00ac Pages: 1 -->
<svg width="639pt" height="312pt"
 viewBox="0.00 0.00 639.00 312.00" xmlns="http://www.w3.org/2000/svg" xmlns:xlink="http://www.w3.org/1999/xlink">
<g id="graph0" class="graph" transform="scale(1 1) rotate(0) translate(4 308)">
<title>mp00ac</title>
<polygon fill="white" stroke="transparent" points="-4,4 -4,-308 635,-308 635,4 -4,4"/>
<!-- Node1 -->
<g id="node1" class="node">
<title>Node1</title>
<g id="a_node1"><a xlink:title="Solves Beltrami/vacuum (linear) system, given matrices.unpacking fluxes, helicity multiplier">
<polygon fill="#bfbfbf" stroke="black" points="0,-147.5 0,-166.5 51,-166.5 51,-147.5 0,-147.5"/>
<text text-anchor="middle" x="25.5" y="-154.5" font-family="Helvetica,sans-Serif" font-size="10.00">mp00ac</text>
</a>
</g>
</g>
<!-- Node1&#45;&gt;Node1 -->
<g id="edge19" class="edge">
<title>Node1&#45;&gt;Node1</title>
<path fill="none" stroke="midnightblue" d="M11.63,-166.76C4.88,-175.57 9.5,-185 25.5,-185 35.5,-185 41.05,-181.31 42.17,-176.4"/>
<polygon fill="midnightblue" stroke="midnightblue" points="45.52,-175.39 39.37,-166.76 38.79,-177.34 45.52,-175.39"/>
</g>
<!-- Node2 -->
<g id="node2" class="node">
<title>Node2</title>
<g id="a_node2"><a xlink:href="group__grp__currents.html#gacaf4411e0ba378631dcd2ccb3752e452" target="_top" xlink:title="Computes the plasma current, , and the &quot;linking&quot; current, .">
<polygon fill="white" stroke="black" points="282,-195.5 282,-214.5 326,-214.5 326,-195.5 282,-195.5"/>
<text text-anchor="middle" x="304" y="-202.5" font-family="Helvetica,sans-Serif" font-size="10.00">curent</text>
</a>
</g>
</g>
<!-- Node1&#45;&gt;Node2 -->
<g id="edge1" class="edge">
<title>Node1&#45;&gt;Node2</title>
<path fill="none" stroke="midnightblue" d="M51.04,-164.69C61.97,-167.9 75.04,-171.47 87,-174 152.13,-187.76 229.61,-197.24 271.8,-201.83"/>
<polygon fill="midnightblue" stroke="midnightblue" points="271.67,-205.33 281.99,-202.91 272.42,-198.37 271.67,-205.33"/>
</g>
<!-- Node7 -->
<g id="node7" class="node">
<title>Node7</title>
<g id="a_node7"><a xlink:href="intghs_8f90.html#a21d3b7106371783302e68297f7797e9f" target="_top" xlink:title="Calculates volume integrals of Chebyshev polynomials and covariant field products.">
<polygon fill="white" stroke="black" points="282.5,-76.5 282.5,-95.5 325.5,-95.5 325.5,-76.5 282.5,-76.5"/>
<text text-anchor="middle" x="304" y="-83.5" font-family="Helvetica,sans-Serif" font-size="10.00">intghs</text>
</a>
</g>
</g>
<!-- Node1&#45;&gt;Node7 -->
<g id="edge11" class="edge">
<title>Node1&#45;&gt;Node7</title>
<path fill="none" stroke="midnightblue" d="M39.58,-147.47C65.04,-129.64 123.68,-92.06 180,-81 211.01,-74.91 247.24,-77.52 272.31,-80.82"/>
<polygon fill="midnightblue" stroke="midnightblue" points="271.92,-84.3 282.32,-82.25 272.91,-77.37 271.92,-84.3"/>
</g>
<!-- Node11 -->
<g id="node11" class="node">
<title>Node11</title>
<g id="a_node11"><a xlink:href="group__grp__build__matrices.html#ga6c22bb4322fbcc29cb17dcc90b56eacd" target="_top" xlink:title="Constructs matrices that represent the Beltrami linear system, matrix&#45;free.">
<polygon fill="white" stroke="black" points="281,-138.5 281,-157.5 327,-157.5 327,-138.5 281,-138.5"/>
<text text-anchor="middle" x="304" y="-145.5" font-family="Helvetica,sans-Serif" font-size="10.00">mtrxhs</text>
</a>
</g>
</g>
<!-- Node1&#45;&gt;Node11 -->
<g id="edge20" class="edge">
<title>Node1&#45;&gt;Node11</title>
<path fill="none" stroke="midnightblue" d="M51.01,-158.21C91.33,-159.92 174.15,-162.3 244,-157 252.74,-156.34 262.15,-155.13 270.83,-153.81"/>
<polygon fill="midnightblue" stroke="midnightblue" points="271.64,-157.22 280.96,-152.17 270.53,-150.31 271.64,-157.22"/>
</g>
<!-- Node12 -->
<g id="node12" class="node">
<title>Node12</title>
<g id="a_node12"><a xlink:href="group__grp__packing.html#gaee2357e570aebf8559e169def6b619dd" target="_top" xlink:title="Packs and unpacks Beltrami field solution vector.">
<polygon fill="white" stroke="black" points="280,-20.5 280,-39.5 328,-39.5 328,-20.5 280,-20.5"/>
<text text-anchor="middle" x="304" y="-27.5" font-family="Helvetica,sans-Serif" font-size="10.00">packab</text>
</a>
</g>
</g>
<!-- Node1&#45;&gt;Node12 -->
<g id="edge22" class="edge">
<title>Node1&#45;&gt;Node12</title>
<path fill="none" stroke="midnightblue" d="M32.62,-147.04C42.29,-132.13 62.56,-104.16 87,-89 145.11,-52.96 225.34,-38.59 269.86,-33.13"/>
<polygon fill="midnightblue" stroke="midnightblue" points="270.31,-36.6 279.85,-31.98 269.51,-29.65 270.31,-36.6"/>
</g>
<!-- Node13 -->
<g id="node13" class="node">
<title>Node13</title>
<g id="a_node13"><a xlink:href="mp00ac_8f90.html#a304edac43f63d39dda4419b4d044eac5" target="_top" xlink:title="run GMRES">
<polygon fill="white" stroke="black" points="87,-128.5 87,-147.5 144,-147.5 144,-128.5 87,-128.5"/>
<text text-anchor="middle" x="115.5" y="-135.5" font-family="Helvetica,sans-Serif" font-size="10.00">rungmres</text>
</a>
</g>
</g>
<!-- Node1&#45;&gt;Node13 -->
<g id="edge24" class="edge">
<title>Node1&#45;&gt;Node13</title>
<path fill="none" stroke="midnightblue" d="M51.01,-151.71C58.98,-149.99 68.02,-148.04 76.72,-146.16"/>
<polygon fill="midnightblue" stroke="midnightblue" points="77.67,-149.53 86.71,-144 76.19,-142.69 77.67,-149.53"/>
</g>
<!-- Node16 -->
<g id="node16" class="node">
<title>Node16</title>
<g id="a_node16"><a xlink:href="group__grp__transform.html#ga0e0447653b8da82f06748dd8831bc337" target="_top" xlink:title="Calculates rotational transform given an arbitrary tangential field.">
<polygon fill="white" stroke="black" points="502,-266.5 502,-285.5 546,-285.5 546,-266.5 502,-266.5"/>
<text text-anchor="middle" x="524" y="-273.5" font-family="Helvetica,sans-Serif" font-size="10.00">tr00ab</text>
</a>
</g>
</g>
<!-- Node1&#45;&gt;Node16 -->
<g id="edge30" class="edge">
<title>Node1&#45;&gt;Node16</title>
<path fill="none" stroke="midnightblue" d="M34.14,-166.74C57.39,-195.16 130.58,-276 211,-276 211,-276 211,-276 305,-276 371.5,-276 449.41,-276 491.74,-276"/>
<polygon fill="midnightblue" stroke="midnightblue" points="491.96,-279.5 501.96,-276 491.96,-272.5 491.96,-279.5"/>
</g>
<!-- Node2&#45;&gt;Node2 -->
<g id="edge8" class="edge">
<title>Node2&#45;&gt;Node2</title>
<path fill="none" stroke="midnightblue" d="M289.82,-214.76C282.92,-223.57 287.65,-233 304,-233 314.22,-233 319.9,-229.31 321.04,-224.4"/>
<polygon fill="midnightblue" stroke="midnightblue" points="324.38,-223.35 318.18,-214.76 317.66,-225.34 324.38,-223.35"/>
</g>
<!-- Node3 -->
<g id="node3" class="node">
<title>Node3</title>
<g id="a_node3"><a xlink:href="group__grp__geometry.html#gaaca20aa60eaf39055f3c9d5c02a24ac2" target="_top" xlink:title="Calculates coordinates, , and metrics, using FFTs.">
<polygon fill="white" stroke="black" points="501,-67.5 501,-86.5 547,-86.5 547,-67.5 501,-67.5"/>
<text text-anchor="middle" x="524" y="-74.5" font-family="Helvetica,sans-Serif" font-size="10.00">coords</text>
</a>
</g>
</g>
<!-- Node2&#45;&gt;Node3 -->
<g id="edge2" class="edge">
<title>Node2&#45;&gt;Node3</title>
<path fill="none" stroke="midnightblue" d="M326.03,-207.37C358.79,-209.95 422.62,-210.34 465,-181 494.33,-160.69 510.48,-120.51 517.88,-96.47"/>
<polygon fill="midnightblue" stroke="midnightblue" points="521.29,-97.27 520.69,-86.69 514.56,-95.34 521.29,-97.27"/>
</g>
<!-- Node4 -->
<g id="node4" class="node">
<title>Node4</title>
<g id="a_node4"><a xlink:href="group__grp__numerics.html#ga1fd52accb0646f535f9bcc46cf5a68f3" target="_top" xlink:title="Inverse Fourier transform (fftw wrapper)">
<polygon fill="white" stroke="black" points="588,-180.5 588,-199.5 626,-199.5 626,-180.5 588,-180.5"/>
<text text-anchor="middle" x="607" y="-187.5" font-family="Helvetica,sans-Serif" font-size="10.00">invfft</text>
</a>
</g>
</g>
<!-- Node2&#45;&gt;Node4 -->
<g id="edge9" class="edge">
<title>Node2&#45;&gt;Node4</title>
<path fill="none" stroke="midnightblue" d="M326.02,-206.33C337.28,-206.97 351.39,-207.68 364,-208 408.87,-209.14 420.2,-210.85 465,-208 504.31,-205.5 549.41,-199.12 577.8,-194.67"/>
<polygon fill="midnightblue" stroke="midnightblue" points="578.5,-198.1 587.82,-193.07 577.39,-191.19 578.5,-198.1"/>
</g>
<!-- Node6 -->
<g id="node6" class="node">
<title>Node6</title>
<g id="a_node6"><a xlink:href="group__grp__numerics.html#ga041138109a57e651c57117bb4180409e" target="_top" xlink:title="Forward Fourier transform (fftw wrapper)">
<polygon fill="white" stroke="black" points="400,-152.5 400,-171.5 429,-171.5 429,-152.5 400,-152.5"/>
<text text-anchor="middle" x="414.5" y="-159.5" font-family="Helvetica,sans-Serif" font-size="10.00">tfft</text>
</a>
</g>
</g>
<!-- Node2&#45;&gt;Node6 -->
<g id="edge10" class="edge">
<title>Node2&#45;&gt;Node6</title>
<path fill="none" stroke="midnightblue" d="M326.18,-196.61C344.68,-189.27 371.49,-178.65 390.51,-171.11"/>
<polygon fill="midnightblue" stroke="midnightblue" points="391.92,-174.32 399.92,-167.38 389.34,-167.81 391.92,-174.32"/>
</g>
<!-- Node3&#45;&gt;Node3 -->
<g id="edge3" class="edge">
<title>Node3&#45;&gt;Node3</title>
<path fill="none" stroke="midnightblue" d="M511.36,-86.76C505.21,-95.57 509.43,-105 524,-105 532.88,-105 537.91,-101.5 539.1,-96.77"/>
<polygon fill="midnightblue" stroke="midnightblue" points="542.43,-95.63 536.64,-86.76 535.63,-97.3 542.43,-95.63"/>
</g>
<!-- Node3&#45;&gt;Node4 -->
<g id="edge4" class="edge">
<title>Node3&#45;&gt;Node4</title>
<path fill="none" stroke="midnightblue" d="M531.91,-86.63C545.48,-105.56 575.8,-147.87 593.16,-172.08"/>
<polygon fill="midnightblue" stroke="midnightblue" points="590.44,-174.3 599.11,-180.39 596.13,-170.22 590.44,-174.3"/>
</g>
<!-- Node5 -->
<g id="node5" class="node">
<title>Node5</title>
<g id="a_node5"><a xlink:href="group__grp__volume.html#gae4c62d20b8fef07f4471b5b0889ab005" target="_top" xlink:title="Computes volume of each region; and, if required, the derivatives of the volume with respect to the i...">
<polygon fill="white" stroke="black" points="583,-67.5 583,-86.5 631,-86.5 631,-67.5 583,-67.5"/>
<text text-anchor="middle" x="607" y="-74.5" font-family="Helvetica,sans-Serif" font-size="10.00">volume</text>
</a>
</g>
</g>
<!-- Node3&#45;&gt;Node5 -->
<g id="edge5" class="edge">
<title>Node3&#45;&gt;Node5</title>
<path fill="none" stroke="midnightblue" d="M547.13,-70.91C554.99,-70.3 564.02,-70.12 572.61,-70.34"/>
<polygon fill="midnightblue" stroke="midnightblue" points="572.61,-73.85 582.76,-70.83 572.94,-66.85 572.61,-73.85"/>
</g>
<!-- Node5&#45;&gt;Node3 -->
<g id="edge6" class="edge">
<title>Node5&#45;&gt;Node3</title>
<path fill="none" stroke="midnightblue" d="M582.76,-83.17C574.8,-83.74 565.74,-83.89 557.19,-83.62"/>
<polygon fill="midnightblue" stroke="midnightblue" points="557.3,-80.12 547.13,-83.09 556.94,-87.11 557.3,-80.12"/>
</g>
<!-- Node5&#45;&gt;Node5 -->
<g id="edge7" class="edge">
<title>Node5&#45;&gt;Node5</title>
<path fill="none" stroke="midnightblue" d="M594.36,-86.76C588.21,-95.57 592.43,-105 607,-105 615.88,-105 620.91,-101.5 622.1,-96.77"/>
<polygon fill="midnightblue" stroke="midnightblue" points="625.43,-95.63 619.64,-86.76 618.63,-97.3 625.43,-95.63"/>
</g>
<!-- Node7&#45;&gt;Node4 -->
<g id="edge17" class="edge">
<title>Node7&#45;&gt;Node4</title>
<path fill="none" stroke="midnightblue" d="M325.69,-93.15C378.55,-111.41 518.59,-159.8 578.35,-180.45"/>
<polygon fill="midnightblue" stroke="midnightblue" points="577.29,-183.78 587.88,-183.74 579.57,-177.17 577.29,-183.78"/>
</g>
<!-- Node7&#45;&gt;Node6 -->
<g id="edge18" class="edge">
<title>Node7&#45;&gt;Node6</title>
<path fill="none" stroke="midnightblue" d="M314.35,-95.71C325.46,-106.87 344.9,-125.3 364,-138 372.32,-143.53 382.11,-148.55 390.77,-152.55"/>
<polygon fill="midnightblue" stroke="midnightblue" points="389.38,-155.77 399.94,-156.61 392.21,-149.36 389.38,-155.77"/>
</g>
<!-- Node7&#45;&gt;Node7 -->
<g id="edge16" class="edge">
<title>Node7&#45;&gt;Node7</title>
<path fill="none" stroke="midnightblue" d="M289.82,-95.76C282.92,-104.57 287.65,-114 304,-114 314.22,-114 319.9,-110.31 321.04,-105.4"/>
<polygon fill="midnightblue" stroke="midnightblue" points="324.38,-104.35 318.18,-95.76 317.66,-106.34 324.38,-104.35"/>
</g>
<!-- Node8 -->
<g id="node8" class="node">
<title>Node8</title>
<g id="a_node8"><a xlink:href="metrix_8f90.html#a80c802cda076dd9e7031bc5f9098c175" target="_top" xlink:title="compute guvijsave">
<polygon fill="white" stroke="black" points="364,-76.5 364,-95.5 465,-95.5 465,-76.5 364,-76.5"/>
<text text-anchor="middle" x="414.5" y="-83.5" font-family="Helvetica,sans-Serif" font-size="10.00">compute_guvijsave</text>
</a>
</g>
</g>
<!-- Node7&#45;&gt;Node8 -->
<g id="edge12" class="edge">
<title>Node7&#45;&gt;Node8</title>
<path fill="none" stroke="midnightblue" d="M325.66,-86C333.78,-86 343.55,-86 353.58,-86"/>
<polygon fill="midnightblue" stroke="midnightblue" points="353.65,-89.5 363.65,-86 353.65,-82.5 353.65,-89.5"/>
</g>
<!-- Node9 -->
<g id="node9" class="node">
<title>Node9</title>
<g id="a_node9"><a xlink:href="basefn_8f90.html#af6a4cad04c70bfb14fd18a3bfbc843a3" target="_top" xlink:title="Get the Chebyshev polynomials with zeroth, first derivatives.">
<polygon fill="white" stroke="black" points="384,-38.5 384,-57.5 445,-57.5 445,-38.5 384,-38.5"/>
<text text-anchor="middle" x="414.5" y="-45.5" font-family="Helvetica,sans-Serif" font-size="10.00">get_cheby</text>
</a>
</g>
</g>
<!-- Node7&#45;&gt;Node9 -->
<g id="edge14" class="edge">
<title>Node7&#45;&gt;Node9</title>
<path fill="none" stroke="midnightblue" d="M325.66,-78.76C340.05,-73.72 359.64,-66.86 376.67,-60.9"/>
<polygon fill="midnightblue" stroke="midnightblue" points="378.06,-64.12 386.34,-57.51 375.75,-57.51 378.06,-64.12"/>
</g>
<!-- Node10 -->
<g id="node10" class="node">
<title>Node10</title>
<g id="a_node10"><a xlink:href="basefn_8f90.html#a38dc596fb909186b01dacc1feac03164" target="_top" xlink:title="Get the Zernike polynomials &#160;with zeroth, first derivatives.">
<polygon fill="white" stroke="black" points="381.5,-0.5 381.5,-19.5 447.5,-19.5 447.5,-0.5 381.5,-0.5"/>
<text text-anchor="middle" x="414.5" y="-7.5" font-family="Helvetica,sans-Serif" font-size="10.00">get_zernike</text>
</a>
</g>
</g>
<!-- Node7&#45;&gt;Node10 -->
<g id="edge15" class="edge">
<title>Node7&#45;&gt;Node10</title>
<path fill="none" stroke="midnightblue" d="M317.41,-76.21C320.91,-73.33 324.67,-70.11 328,-67 345,-51.12 344.66,-41.93 364,-29 366.88,-27.07 369.98,-25.3 373.18,-23.68"/>
<polygon fill="midnightblue" stroke="midnightblue" points="374.69,-26.84 382.34,-19.52 371.79,-20.47 374.69,-26.84"/>
</g>
<!-- Node8&#45;&gt;Node3 -->
<g id="edge13" class="edge">
<title>Node8&#45;&gt;Node3</title>
<path fill="none" stroke="midnightblue" d="M465.16,-81.84C473.88,-81.11 482.75,-80.37 490.83,-79.69"/>
<polygon fill="midnightblue" stroke="midnightblue" points="491.26,-83.17 500.93,-78.85 490.67,-76.19 491.26,-83.17"/>
</g>
<!-- Node11&#45;&gt;Node11 -->
<g id="edge21" class="edge">
<title>Node11&#45;&gt;Node11</title>
<path fill="none" stroke="midnightblue" d="M289.82,-157.76C282.92,-166.57 287.65,-176 304,-176 314.22,-176 319.9,-172.31 321.04,-167.4"/>
<polygon fill="midnightblue" stroke="midnightblue" points="324.38,-166.35 318.18,-157.76 317.66,-168.34 324.38,-166.35"/>
</g>
<!-- Node12&#45;&gt;Node12 -->
<g id="edge23" class="edge">
<title>Node12&#45;&gt;Node12</title>
<path fill="none" stroke="midnightblue" d="M289.82,-39.76C282.92,-48.57 287.65,-58 304,-58 314.22,-58 319.9,-54.31 321.04,-49.4"/>
<polygon fill="midnightblue" stroke="midnightblue" points="324.38,-48.35 318.18,-39.76 317.66,-50.34 324.38,-48.35"/>
</g>
<!-- Node14 -->
<g id="node14" class="node">
<title>Node14</title>
<g id="a_node14"><a xlink:href="mp00ac_8f90.html#ae9fe335bb4916face9f9d19ce8c0f5d7" target="_top" xlink:title="compute a.x by either by coumputing it directly, or using a matrix free method">
<polygon fill="white" stroke="black" points="187.5,-128.5 187.5,-147.5 236.5,-147.5 236.5,-128.5 187.5,-128.5"/>
<text text-anchor="middle" x="212" y="-135.5" font-family="Helvetica,sans-Serif" font-size="10.00">matvec</text>
</a>
</g>
</g>
<!-- Node13&#45;&gt;Node14 -->
<g id="edge25" class="edge">
<title>Node13&#45;&gt;Node14</title>
<path fill="none" stroke="midnightblue" d="M144.09,-138C154.49,-138 166.44,-138 177.34,-138"/>
<polygon fill="midnightblue" stroke="midnightblue" points="177.38,-141.5 187.38,-138 177.38,-134.5 177.38,-141.5"/>
</g>
<!-- Node15 -->
<g id="node15" class="node">
<title>Node15</title>
<g id="a_node15"><a xlink:href="mp00ac_8f90.html#a76cda97bf815eb7f40cb76ad1719d809" target="_top" xlink:title="apply the preconditioner">
<polygon fill="white" stroke="black" points="180,-90.5 180,-109.5 244,-109.5 244,-90.5 180,-90.5"/>
<text text-anchor="middle" x="212" y="-97.5" font-family="Helvetica,sans-Serif" font-size="10.00">prec_solve</text>
</a>
</g>
</g>
<!-- Node13&#45;&gt;Node15 -->
<g id="edge29" class="edge">
<title>Node13&#45;&gt;Node15</title>
<path fill="none" stroke="midnightblue" d="M140.35,-128.41C151.65,-123.87 165.34,-118.36 177.66,-113.41"/>
<polygon fill="midnightblue" stroke="midnightblue" points="179.19,-116.56 187.16,-109.59 176.58,-110.07 179.19,-116.56"/>
</g>
<!-- Node14&#45;&gt;Node7 -->
<g id="edge26" class="edge">
<title>Node14&#45;&gt;Node7</title>
<path fill="none" stroke="midnightblue" d="M229.51,-128.46C242.87,-120.74 261.93,-109.73 277.29,-100.85"/>
<polygon fill="midnightblue" stroke="midnightblue" points="279.38,-103.69 286.29,-95.65 275.88,-97.63 279.38,-103.69"/>
</g>
<!-- Node14&#45;&gt;Node11 -->
<g id="edge27" class="edge">
<title>Node14&#45;&gt;Node11</title>
<path fill="none" stroke="midnightblue" d="M236.65,-140.63C246.99,-141.78 259.29,-143.14 270.47,-144.39"/>
<polygon fill="midnightblue" stroke="midnightblue" points="270.42,-147.9 280.75,-145.53 271.2,-140.94 270.42,-147.9"/>
</g>
<!-- Node14&#45;&gt;Node12 -->
<g id="edge28" class="edge">
<title>Node14&#45;&gt;Node12</title>
<path fill="none" stroke="midnightblue" d="M231.66,-128.38C235.98,-125.68 240.37,-122.51 244,-119 249.92,-113.29 275.98,-72.74 291.41,-48.38"/>
<polygon fill="midnightblue" stroke="midnightblue" points="294.54,-49.99 296.93,-39.66 288.63,-46.25 294.54,-49.99"/>
</g>
<!-- Node16&#45;&gt;Node4 -->
<g id="edge31" class="edge">
<title>Node16&#45;&gt;Node4</title>
<path fill="none" stroke="midnightblue" d="M533.98,-266.47C547.48,-252.13 573.21,-224.81 589.98,-207"/>
<polygon fill="midnightblue" stroke="midnightblue" points="592.67,-209.25 596.98,-199.57 587.58,-204.45 592.67,-209.25"/>
</g>
<!-- Node16&#45;&gt;Node16 -->
<g id="edge32" class="edge">
<title>Node16&#45;&gt;Node16</title>
<path fill="none" stroke="midnightblue" d="M511.36,-285.76C505.21,-294.57 509.43,-304 524,-304 532.88,-304 537.91,-300.5 539.1,-295.77"/>
<polygon fill="midnightblue" stroke="midnightblue" points="542.43,-294.63 536.64,-285.76 535.63,-296.3 542.43,-294.63"/>
</g>
</g>
</svg>
