<?xml version="1.0" encoding="UTF-8" standalone="no"?>
<!DOCTYPE svg PUBLIC "-//W3C//DTD SVG 1.1//EN"
 "http://www.w3.org/Graphics/SVG/1.1/DTD/svg11.dtd">
<!-- Generated by graphviz version 2.47.1 (20210421.1823)
 -->
<!-- Title: matrix Pages: 1 -->
<svg width="739pt" height="424pt"
 viewBox="0.00 0.00 739.00 423.60" xmlns="http://www.w3.org/2000/svg" xmlns:xlink="http://www.w3.org/1999/xlink">
<g id="graph0" class="graph" transform="scale(1 1) rotate(0) translate(4 419.6)">
<title>matrix</title>
<polygon fill="white" stroke="transparent" points="-4,4 -4,-419.6 735,-419.6 735,4 -4,4"/>
<!-- Node1 -->
<g id="node1" class="node">
<title>Node1</title>
<g id="a_node1"><a xlink:title="Constructs energy and helicity matrices that represent the Beltrami linear system....">
<polygon fill="#bfbfbf" stroke="black" points="688,-228.5 688,-247.5 731,-247.5 731,-228.5 688,-228.5"/>
<text text-anchor="middle" x="709.5" y="-235.5" font-family="Helvetica,sans-Serif" font-size="10.00">matrix</text>
</a>
</g>
</g>
<!-- Node2 -->
<g id="node2" class="node">
<title>Node2</title>
<g id="a_node2"><a xlink:href="dfp100_8f90.html#a17a3ac15cc83994394f7b4cc05e5898e" target="_top" xlink:title="Split the work between MPI nodes and evaluate the global constraint.">
<polygon fill="white" stroke="black" points="606,-114.5 606,-133.5 652,-133.5 652,-114.5 606,-114.5"/>
<text text-anchor="middle" x="629" y="-121.5" font-family="Helvetica,sans-Serif" font-size="10.00">dfp100</text>
</a>
</g>
</g>
<!-- Node1&#45;&gt;Node2 -->
<g id="edge1" class="edge">
<title>Node1&#45;&gt;Node2</title>
<path fill="none" stroke="midnightblue" d="M698.21,-219.5C687.54,-200.84 669.92,-171.51 652,-148 648.3,-143.14 643.81,-138.11 639.85,-133.92"/>
<polygon fill="midnightblue" stroke="midnightblue" points="695.29,-221.45 703.26,-228.43 701.39,-218 695.29,-221.45"/>
</g>
<!-- Node11 -->
<g id="node11" class="node">
<title>Node11</title>
<g id="a_node11"><a xlink:href="group__grp__force__driver.html#ga382822b303cbf8c56d6f54dcb379caf2" target="_top" xlink:title="read or write force&#45;derivative matrix">
<polygon fill="white" stroke="black" points="155,-216.5 155,-235.5 220,-235.5 220,-216.5 155,-216.5"/>
<text text-anchor="middle" x="187.5" y="-223.5" font-family="Helvetica,sans-Serif" font-size="10.00">writereadgf</text>
</a>
</g>
</g>
<!-- Node1&#45;&gt;Node11 -->
<g id="edge40" class="edge">
<title>Node1&#45;&gt;Node11</title>
<path fill="none" stroke="midnightblue" d="M689.44,-253.99C660.85,-276.28 604.32,-314 549,-314 549,-314 549,-314 426.5,-314 336.85,-314 239.34,-258.39 203.11,-235.59"/>
<polygon fill="midnightblue" stroke="midnightblue" points="691.76,-256.61 697.38,-247.63 687.39,-251.15 691.76,-256.61"/>
</g>
<!-- Node12 -->
<g id="node12" class="node">
<title>Node12</title>
<g id="a_node12"><a xlink:href="dfp200_8f90.html#a6aca59cf350d7b1941f8389d50945a43" target="_top" xlink:title="get LU Beltrami matrices">
<polygon fill="white" stroke="black" points="365,-38.5 365,-57.5 490,-57.5 490,-38.5 365,-38.5"/>
<text text-anchor="middle" x="427.5" y="-45.5" font-family="Helvetica,sans-Serif" font-size="10.00">get_lu_beltrami_matrices</text>
</a>
</g>
</g>
<!-- Node1&#45;&gt;Node12 -->
<g id="edge36" class="edge">
<title>Node1&#45;&gt;Node12</title>
<path fill="none" stroke="midnightblue" d="M691.71,-220.67C657.16,-186 574.28,-107.78 490,-65 484.27,-62.09 477.98,-59.63 471.68,-57.56"/>
<polygon fill="midnightblue" stroke="midnightblue" points="689.54,-223.46 699.06,-228.13 694.53,-218.55 689.54,-223.46"/>
</g>
<!-- Node20 -->
<g id="node20" class="node">
<title>Node20</title>
<g id="a_node20"><a xlink:href="group__grp__initialization.html#ga28628de0fdb3b3497668007d8d0643bd" target="_top" xlink:title="Allocates and initializes internal arrays.">
<polygon fill="white" stroke="black" points="526,-380.5 526,-399.5 570,-399.5 570,-380.5 526,-380.5"/>
<text text-anchor="middle" x="548" y="-387.5" font-family="Helvetica,sans-Serif" font-size="10.00">preset</text>
</a>
</g>
</g>
<!-- Node1&#45;&gt;Node20 -->
<g id="edge37" class="edge">
<title>Node1&#45;&gt;Node20</title>
<path fill="none" stroke="midnightblue" d="M699.98,-256.79C690.43,-276.34 673.42,-306.98 652,-328 627.72,-351.83 592.6,-370.45 570.29,-380.83"/>
<polygon fill="midnightblue" stroke="midnightblue" points="703.18,-258.22 704.29,-247.69 696.85,-255.23 703.18,-258.22"/>
</g>
<!-- Node3 -->
<g id="node3" class="node">
<title>Node3</title>
<g id="a_node3"><a xlink:href="group__grp__global__force.html#ga38c9d3c50bd043707fefa5137c9dbf44" target="_top" xlink:title="Calculates , where &#160;and , and .">
<polygon fill="white" stroke="black" points="526,-190.5 526,-209.5 570,-209.5 570,-190.5 526,-190.5"/>
<text text-anchor="middle" x="548" y="-197.5" font-family="Helvetica,sans-Serif" font-size="10.00">dforce</text>
</a>
</g>
</g>
<!-- Node2&#45;&gt;Node3 -->
<g id="edge2" class="edge">
<title>Node2&#45;&gt;Node3</title>
<path fill="none" stroke="midnightblue" d="M610.42,-140.91C594.57,-156.16 571.82,-178.04 558.92,-190.45"/>
<polygon fill="midnightblue" stroke="midnightblue" points="613.21,-143.08 617.99,-133.63 608.36,-138.04 613.21,-143.08"/>
</g>
<!-- Node15 -->
<g id="node15" class="node">
<title>Node15</title>
<g id="a_node15"><a xlink:href="dfp200_8f90.html#a73ddf39ecc5228201fb643779e17cd36" target="_top" xlink:title="Evaluate mu and psip derivatives and store them in dmupfdx.">
<polygon fill="white" stroke="black" points="140,-0.5 140,-19.5 235,-19.5 235,-0.5 140,-0.5"/>
<text text-anchor="middle" x="187.5" y="-7.5" font-family="Helvetica,sans-Serif" font-size="10.00">evaluate_dmupfdx</text>
</a>
</g>
</g>
<!-- Node2&#45;&gt;Node15 -->
<g id="edge35" class="edge">
<title>Node2&#45;&gt;Node15</title>
<path fill="none" stroke="midnightblue" d="M610.98,-107.52C586.52,-85.05 538.98,-45.69 490,-29 403.74,0.39 295.69,-1.36 235.16,-5.52"/>
<polygon fill="midnightblue" stroke="midnightblue" points="608.66,-110.15 618.35,-114.44 613.45,-105.05 608.66,-110.15"/>
</g>
<!-- Node4 -->
<g id="node4" class="node">
<title>Node4</title>
<g id="a_node4"><a xlink:href="namespaceallglobal.html#a7824bc37519fe88336534ce90ab2af16" target="_top" xlink:title=" ">
<polygon fill="white" stroke="black" points="370.5,-342.5 370.5,-361.5 484.5,-361.5 484.5,-342.5 370.5,-342.5"/>
<text text-anchor="middle" x="427.5" y="-349.5" font-family="Helvetica,sans-Serif" font-size="10.00">allglobal::check_inputs</text>
</a>
</g>
</g>
<!-- Node3&#45;&gt;Node4 -->
<g id="edge3" class="edge">
<title>Node3&#45;&gt;Node4</title>
<path fill="none" stroke="midnightblue" d="M536.93,-218.38C526.31,-237.14 508.55,-266.72 490,-290 474.12,-309.92 452.6,-330.39 439.68,-342.12"/>
<polygon fill="midnightblue" stroke="midnightblue" points="539.99,-220.09 541.81,-209.65 533.88,-216.68 539.99,-220.09"/>
</g>
<!-- Node6 -->
<g id="node6" class="node">
<title>Node6</title>
<g id="a_node6"><a xlink:href="xspech_8f90.html#a48f45478dc2c9f70ea8aa1c60ad06503" target="_top" xlink:title=" ">
<polygon fill="white" stroke="black" points="168.5,-342.5 168.5,-361.5 206.5,-361.5 206.5,-342.5 168.5,-342.5"/>
<text text-anchor="middle" x="187.5" y="-349.5" font-family="Helvetica,sans-Serif" font-size="10.00">spec</text>
</a>
</g>
</g>
<!-- Node3&#45;&gt;Node6 -->
<g id="edge34" class="edge">
<title>Node3&#45;&gt;Node6</title>
<path fill="none" stroke="midnightblue" d="M533.12,-217.88C522.53,-230.43 506.92,-246.74 490,-257 392.87,-315.93 255.69,-341.67 206.73,-349.37"/>
<polygon fill="midnightblue" stroke="midnightblue" points="536.01,-219.88 539.61,-209.91 530.58,-215.46 536.01,-219.88"/>
</g>
<!-- Node8 -->
<g id="node8" class="node">
<title>Node8</title>
<g id="a_node8"><a xlink:href="group__grp__force__driver.html#gabbc245b3884ee8d8d3e2a52f25149f78" target="_top" xlink:title="fcn1">
<polygon fill="white" stroke="black" points="410,-152.5 410,-171.5 445,-171.5 445,-152.5 410,-152.5"/>
<text text-anchor="middle" x="427.5" y="-159.5" font-family="Helvetica,sans-Serif" font-size="10.00">fcn1</text>
</a>
</g>
</g>
<!-- Node3&#45;&gt;Node8 -->
<g id="edge9" class="edge">
<title>Node3&#45;&gt;Node8</title>
<path fill="none" stroke="midnightblue" d="M516,-190.06C493.39,-182.81 463.63,-173.26 445.29,-167.38"/>
<polygon fill="midnightblue" stroke="midnightblue" points="515.22,-193.49 525.81,-193.21 517.36,-186.82 515.22,-193.49"/>
</g>
<!-- Node9 -->
<g id="node9" class="node">
<title>Node9</title>
<g id="a_node9"><a xlink:href="group__grp__force__driver.html#gaec14f81fbdbedafbc4189489ec8ae178" target="_top" xlink:title="Employs Newton method to find , where &#160;and &#160;is defined in dforce() .">
<polygon fill="white" stroke="black" points="281,-176.5 281,-195.5 329,-195.5 329,-176.5 281,-176.5"/>
<text text-anchor="middle" x="305" y="-183.5" font-family="Helvetica,sans-Serif" font-size="10.00">newton</text>
</a>
</g>
</g>
<!-- Node3&#45;&gt;Node9 -->
<g id="edge31" class="edge">
<title>Node3&#45;&gt;Node9</title>
<path fill="none" stroke="midnightblue" d="M515.55,-198.17C466.41,-195.32 372.53,-189.86 329.09,-187.34"/>
<polygon fill="midnightblue" stroke="midnightblue" points="515.43,-201.67 525.61,-198.76 515.83,-194.68 515.43,-201.67"/>
</g>
<!-- Node10 -->
<g id="node10" class="node">
<title>Node10</title>
<g id="a_node10"><a xlink:href="group__grp__force__driver.html#ga8ccd6c7d901872702521d0a0edf95412" target="_top" xlink:title="fcn2">
<polygon fill="white" stroke="black" points="29.5,-169.5 29.5,-188.5 64.5,-188.5 64.5,-169.5 29.5,-169.5"/>
<text text-anchor="middle" x="47" y="-176.5" font-family="Helvetica,sans-Serif" font-size="10.00">fcn2</text>
</a>
</g>
</g>
<!-- Node3&#45;&gt;Node10 -->
<g id="edge18" class="edge">
<title>Node3&#45;&gt;Node10</title>
<path fill="none" stroke="midnightblue" d="M535.27,-182.26C525.12,-168.66 509.09,-150.91 490,-143 335.65,-79.07 125.38,-149.39 64.9,-172.3"/>
<polygon fill="midnightblue" stroke="midnightblue" points="532.44,-184.31 541.07,-190.46 538.15,-180.27 532.44,-184.31"/>
</g>
<!-- Node3&#45;&gt;Node12 -->
<g id="edge19" class="edge">
<title>Node3&#45;&gt;Node12</title>
<path fill="none" stroke="midnightblue" d="M530.5,-182.66C528.86,-180.51 527.31,-178.26 526,-176 501.44,-133.7 523.91,-107.25 490,-72 483.96,-65.72 476.09,-61.06 468,-57.6"/>
<polygon fill="midnightblue" stroke="midnightblue" points="527.93,-185.04 537.07,-190.4 533.26,-180.51 527.93,-185.04"/>
</g>
<!-- Node17 -->
<g id="node17" class="node">
<title>Node17</title>
<g id="a_node17"><a xlink:href="group__grp__diagnostics.html#ga7401b50ec10c6598ee4a8112717a63ec" target="_top" xlink:title="Computes eigenvalues and eigenvectors of derivative matrix, .">
<polygon fill="white" stroke="black" points="405,-380.5 405,-399.5 450,-399.5 450,-380.5 405,-380.5"/>
<text text-anchor="middle" x="427.5" y="-387.5" font-family="Helvetica,sans-Serif" font-size="10.00">hesian</text>
</a>
</g>
</g>
<!-- Node3&#45;&gt;Node17 -->
<g id="edge29" class="edge">
<title>Node3&#45;&gt;Node17</title>
<path fill="none" stroke="midnightblue" d="M546.08,-219.73C543.36,-255.06 532.59,-329.34 490,-371 479.37,-381.39 463.19,-386.12 450.09,-388.25"/>
<polygon fill="midnightblue" stroke="midnightblue" points="549.58,-219.91 546.71,-209.71 542.59,-219.47 549.58,-219.91"/>
</g>
<!-- Node18 -->
<g id="node18" class="node">
<title>Node18</title>
<g id="a_node18"><a xlink:href="group__grp__conjugate__gradient.html#ga4d8415226e62a9fdb42b0fd0b464251e" target="_top" xlink:title="Returns the energy functional and it&#39;s derivatives with respect to geometry.">
<polygon fill="white" stroke="black" points="403.5,-228.5 403.5,-247.5 451.5,-247.5 451.5,-228.5 403.5,-228.5"/>
<text text-anchor="middle" x="427.5" y="-235.5" font-family="Helvetica,sans-Serif" font-size="10.00">pc00ab</text>
</a>
</g>
</g>
<!-- Node3&#45;&gt;Node18 -->
<g id="edge32" class="edge">
<title>Node3&#45;&gt;Node18</title>
<path fill="none" stroke="midnightblue" d="M516.13,-209.9C495.92,-216.38 469.94,-224.71 451.53,-230.62"/>
<polygon fill="midnightblue" stroke="midnightblue" points="517.36,-213.18 525.81,-206.79 515.22,-206.51 517.36,-213.18"/>
</g>
<!-- Node5 -->
<g id="node5" class="node">
<title>Node5</title>
<g id="a_node5"><a xlink:href="xspech_8f90.html#aea782eae089760a491c2c54f9903abcc" target="_top" xlink:title="Main program of SPEC.">
<polygon fill="white" stroke="black" points="281.5,-380.5 281.5,-399.5 328.5,-399.5 328.5,-380.5 281.5,-380.5"/>
<text text-anchor="middle" x="305" y="-387.5" font-family="Helvetica,sans-Serif" font-size="10.00">xspech</text>
</a>
</g>
</g>
<!-- Node4&#45;&gt;Node5 -->
<g id="edge4" class="edge">
<title>Node4&#45;&gt;Node5</title>
<path fill="none" stroke="midnightblue" d="M385.4,-364.62C378.58,-366.74 371.59,-368.92 365,-371 352.99,-374.79 339.64,-379.08 328.67,-382.63"/>
<polygon fill="midnightblue" stroke="midnightblue" points="386.67,-367.89 395.19,-361.59 384.6,-361.21 386.67,-367.89"/>
</g>
<!-- Node5&#45;&gt;Node6 -->
<g id="edge5" class="edge">
<title>Node5&#45;&gt;Node6</title>
<path fill="none" stroke="midnightblue" d="M279.63,-376.36C257.82,-367.52 226.32,-357.34 206.65,-352.9"/>
<polygon fill="midnightblue" stroke="midnightblue" points="278.33,-379.61 288.9,-380.3 281.07,-373.16 278.33,-379.61"/>
</g>
<!-- Node6&#45;&gt;Node5 -->
<g id="edge8" class="edge">
<title>Node6&#45;&gt;Node5</title>
<path fill="none" stroke="midnightblue" d="M212.76,-365.6C233.02,-373.82 261.69,-383.21 281.46,-388.06"/>
<polygon fill="midnightblue" stroke="midnightblue" points="213.86,-362.26 203.29,-361.56 211.11,-368.7 213.86,-362.26"/>
</g>
<!-- Node7 -->
<g id="node7" class="node">
<title>Node7</title>
<g id="a_node7"><a xlink:href="namespacesphdf5.html#a0f962c09cd5d5eba99f1cba043cb3898" target="_top" xlink:title="initialize the interface to the HDF5 library and open the output file">
<polygon fill="white" stroke="black" points="0,-361.5 0,-380.5 94,-380.5 94,-361.5 0,-361.5"/>
<text text-anchor="middle" x="47" y="-368.5" font-family="Helvetica,sans-Serif" font-size="10.00">sphdf5::init_outfile</text>
</a>
</g>
</g>
<!-- Node6&#45;&gt;Node7 -->
<g id="edge6" class="edge">
<title>Node6&#45;&gt;Node7</title>
<path fill="none" stroke="midnightblue" d="M158.31,-355.87C139.87,-358.4 115.36,-361.76 94.12,-364.67"/>
<polygon fill="midnightblue" stroke="midnightblue" points="158.96,-359.31 168.39,-354.48 158.01,-352.38 158.96,-359.31"/>
</g>
<!-- Node7&#45;&gt;Node5 -->
<g id="edge7" class="edge">
<title>Node7&#45;&gt;Node5</title>
<path fill="none" stroke="midnightblue" d="M104.27,-375.18C159.79,-379.3 241.88,-385.39 281.28,-388.31"/>
<polygon fill="midnightblue" stroke="midnightblue" points="104.47,-371.68 94.23,-374.43 103.95,-378.66 104.47,-371.68"/>
</g>
<!-- Node8&#45;&gt;Node9 -->
<g id="edge10" class="edge">
<title>Node8&#45;&gt;Node9</title>
<path fill="none" stroke="midnightblue" d="M399.54,-161.64C377.79,-164.48 347.63,-170.63 327.49,-176.41"/>
<polygon fill="midnightblue" stroke="midnightblue" points="400.2,-165.08 409.74,-160.49 399.42,-158.13 400.2,-165.08"/>
</g>
<!-- Node9&#45;&gt;Node6 -->
<g id="edge14" class="edge">
<title>Node9&#45;&gt;Node6</title>
<path fill="none" stroke="midnightblue" d="M291.61,-203.77C288.17,-208.7 284.44,-214.06 281,-219 248.86,-265.16 210.48,-320.37 195.23,-342.32"/>
<polygon fill="midnightblue" stroke="midnightblue" points="294.51,-205.73 297.35,-195.53 288.76,-201.73 294.51,-205.73"/>
</g>
<!-- Node9&#45;&gt;Node8 -->
<g id="edge11" class="edge">
<title>Node9&#45;&gt;Node8</title>
<path fill="none" stroke="midnightblue" d="M339.21,-185.49C362.11,-182.1 391.58,-175.81 409.74,-170.18"/>
<polygon fill="midnightblue" stroke="midnightblue" points="338.66,-182.03 329.22,-186.83 339.59,-188.97 338.66,-182.03"/>
</g>
<!-- Node9&#45;&gt;Node10 -->
<g id="edge12" class="edge">
<title>Node9&#45;&gt;Node10</title>
<path fill="none" stroke="midnightblue" d="M270.84,-180.38C215.53,-175.81 106.41,-173.21 64.72,-175.9"/>
<polygon fill="midnightblue" stroke="midnightblue" points="270.55,-183.87 280.83,-181.29 271.19,-176.9 270.55,-183.87"/>
</g>
<!-- Node9&#45;&gt;Node11 -->
<g id="edge15" class="edge">
<title>Node9&#45;&gt;Node11</title>
<path fill="none" stroke="midnightblue" d="M271.05,-191.25C248.51,-197.92 219.75,-208.39 202.81,-216.41"/>
<polygon fill="midnightblue" stroke="midnightblue" points="272.23,-194.55 280.9,-188.47 270.33,-187.81 272.23,-194.55"/>
</g>
<!-- Node10&#45;&gt;Node9 -->
<g id="edge13" class="edge">
<title>Node10&#45;&gt;Node9</title>
<path fill="none" stroke="midnightblue" d="M74.85,-184.07C125.28,-188.75 233.36,-191.62 280.83,-189.45"/>
<polygon fill="midnightblue" stroke="midnightblue" points="75.03,-180.57 64.72,-183.01 74.31,-187.53 75.03,-180.57"/>
</g>
<!-- Node11&#45;&gt;Node9 -->
<g id="edge17" class="edge">
<title>Node11&#45;&gt;Node9</title>
<path fill="none" stroke="midnightblue" d="M229.91,-218.16C250.87,-211.55 274.96,-202.58 289.84,-195.52"/>
<polygon fill="midnightblue" stroke="midnightblue" points="228.78,-214.85 220.23,-221.11 230.82,-221.54 228.78,-214.85"/>
</g>
<!-- Node11&#45;&gt;Node10 -->
<g id="edge16" class="edge">
<title>Node11&#45;&gt;Node10</title>
<path fill="none" stroke="midnightblue" d="M148.77,-213.2C121.28,-203.87 85.37,-191.68 64.68,-184.66"/>
<polygon fill="midnightblue" stroke="midnightblue" points="147.88,-216.59 158.47,-216.49 150.13,-209.96 147.88,-216.59"/>
</g>
<!-- Node13 -->
<g id="node13" class="node">
<title>Node13</title>
<g id="a_node13"><a xlink:href="dfp200_8f90.html#a55ea75395f8c71731451e1add3720c7e" target="_top" xlink:title="Given the field consistent with the constraints and the geometry, computes local quantites related to...">
<polygon fill="white" stroke="black" points="282,-38.5 282,-57.5 328,-57.5 328,-38.5 282,-38.5"/>
<text text-anchor="middle" x="305" y="-45.5" font-family="Helvetica,sans-Serif" font-size="10.00">dfp200</text>
</a>
</g>
</g>
<!-- Node12&#45;&gt;Node13 -->
<g id="edge20" class="edge">
<title>Node12&#45;&gt;Node13</title>
<path fill="none" stroke="midnightblue" d="M354.69,-41.36C345.05,-41.55 335.82,-41.98 328.04,-42.64"/>
<polygon fill="midnightblue" stroke="midnightblue" points="354.88,-44.86 364.84,-41.25 354.8,-37.86 354.88,-44.86"/>
</g>
<!-- Node13&#45;&gt;Node3 -->
<g id="edge21" class="edge">
<title>Node13&#45;&gt;Node3</title>
<path fill="none" stroke="midnightblue" d="M337.82,-58.4C389.68,-75.38 486.97,-107.46 490,-110 515.59,-131.48 506.88,-148.6 526,-176 529.42,-180.9 533.69,-185.94 537.49,-190.13"/>
<polygon fill="midnightblue" stroke="midnightblue" points="338.69,-55 328.1,-55.21 336.51,-61.65 338.69,-55"/>
</g>
<!-- Node13&#45;&gt;Node12 -->
<g id="edge26" class="edge">
<title>Node13&#45;&gt;Node12</title>
<path fill="none" stroke="midnightblue" d="M338.28,-54.06C346.52,-54.5 355.66,-54.73 364.84,-54.75"/>
<polygon fill="midnightblue" stroke="midnightblue" points="338.26,-50.55 328.04,-53.36 337.78,-57.53 338.26,-50.55"/>
</g>
<!-- Node14 -->
<g id="node14" class="node">
<title>Node14</title>
<g id="a_node14"><a xlink:href="dfp200_8f90.html#a7b64c7392b45d0042d8bd7379c0761a5" target="_top" xlink:title="Evaluate the derivative of the square of the magnetic field modulus. Add spectral constraint derivati...">
<polygon fill="white" stroke="black" points="150.5,-38.5 150.5,-57.5 224.5,-57.5 224.5,-38.5 150.5,-38.5"/>
<text text-anchor="middle" x="187.5" y="-45.5" font-family="Helvetica,sans-Serif" font-size="10.00">evaluate_dbb</text>
</a>
</g>
</g>
<!-- Node13&#45;&gt;Node14 -->
<g id="edge22" class="edge">
<title>Node13&#45;&gt;Node14</title>
<path fill="none" stroke="midnightblue" d="M271.66,-41.87C257.08,-41.11 239.81,-41.05 224.79,-41.68"/>
<polygon fill="midnightblue" stroke="midnightblue" points="271.52,-45.37 281.73,-42.54 271.99,-38.38 271.52,-45.37"/>
</g>
<!-- Node13&#45;&gt;Node15 -->
<g id="edge24" class="edge">
<title>Node13&#45;&gt;Node15</title>
<path fill="none" stroke="midnightblue" d="M279.35,-34.24C266.45,-29.03 250.22,-23.36 235.06,-18.68"/>
<polygon fill="midnightblue" stroke="midnightblue" points="278.33,-37.61 288.9,-38.3 281.07,-31.17 278.33,-37.61"/>
</g>
<!-- Node16 -->
<g id="node16" class="node">
<title>Node16</title>
<g id="a_node16"><a xlink:href="dfp200_8f90.html#a5e56f1f4b1e6df11a9cffa6237c37469" target="_top" xlink:title="This routine evaluates the value of the magnetic field once the interface is perturbed using matrix p...">
<polygon fill="white" stroke="black" points="130,-76.5 130,-95.5 245,-95.5 245,-76.5 130,-76.5"/>
<text text-anchor="middle" x="187.5" y="-83.5" font-family="Helvetica,sans-Serif" font-size="10.00">get_perturbed_solution</text>
</a>
</g>
</g>
<!-- Node13&#45;&gt;Node16 -->
<g id="edge27" class="edge">
<title>Node13&#45;&gt;Node16</title>
<path fill="none" stroke="midnightblue" d="M271.95,-52.43C249.52,-58.63 220.6,-68.61 203.36,-76.41"/>
<polygon fill="midnightblue" stroke="midnightblue" points="272.94,-55.79 281.73,-49.87 271.17,-49.01 272.94,-55.79"/>
</g>
<!-- Node14&#45;&gt;Node13 -->
<g id="edge23" class="edge">
<title>Node14&#45;&gt;Node13</title>
<path fill="none" stroke="midnightblue" d="M235.13,-54.64C251.22,-54.97 268.5,-54.57 281.73,-53.46"/>
<polygon fill="midnightblue" stroke="midnightblue" points="234.89,-51.13 224.79,-54.32 234.67,-58.13 234.89,-51.13"/>
</g>
<!-- Node15&#45;&gt;Node13 -->
<g id="edge25" class="edge">
<title>Node15&#45;&gt;Node13</title>
<path fill="none" stroke="midnightblue" d="M212.59,-23.53C232.96,-31.81 261.9,-41.28 281.73,-46.13"/>
<polygon fill="midnightblue" stroke="midnightblue" points="213.93,-20.3 203.36,-19.59 211.19,-26.74 213.93,-20.3"/>
</g>
<!-- Node16&#45;&gt;Node13 -->
<g id="edge28" class="edge">
<title>Node16&#45;&gt;Node13</title>
<path fill="none" stroke="midnightblue" d="M247.46,-73.35C262.84,-68.26 278.11,-62.56 288.9,-57.7"/>
<polygon fill="midnightblue" stroke="midnightblue" points="246.35,-70.03 237.9,-76.43 248.5,-76.69 246.35,-70.03"/>
</g>
<!-- Node17&#45;&gt;Node6 -->
<g id="edge30" class="edge">
<title>Node17&#45;&gt;Node6</title>
<path fill="none" stroke="midnightblue" d="M394.94,-383.37C375.89,-379.49 351.11,-374.65 329,-371 285.28,-363.79 233.58,-357.33 206.74,-354.12"/>
<polygon fill="midnightblue" stroke="midnightblue" points="394.38,-386.83 404.88,-385.41 395.79,-379.97 394.38,-386.83"/>
</g>
<!-- Node19 -->
<g id="node19" class="node">
<title>Node19</title>
<g id="a_node19"><a xlink:href="group__grp__conjugate__gradient.html#ga25a3bae2ff2ee0469b045de0d033398b" target="_top" xlink:title="Use preconditioned conjugate gradient method to find minimum of energy functional.">
<polygon fill="white" stroke="black" points="281,-228.5 281,-247.5 329,-247.5 329,-228.5 281,-228.5"/>
<text text-anchor="middle" x="305" y="-235.5" font-family="Helvetica,sans-Serif" font-size="10.00">pc00aa</text>
</a>
</g>
</g>
<!-- Node18&#45;&gt;Node19 -->
<g id="edge33" class="edge">
<title>Node18&#45;&gt;Node19</title>
<path fill="none" stroke="midnightblue" d="M393.16,-238C372.81,-238 347.31,-238 329.16,-238"/>
<polygon fill="midnightblue" stroke="midnightblue" points="393.27,-241.5 403.27,-238 393.27,-234.5 393.27,-241.5"/>
</g>
<!-- Node20&#45;&gt;Node5 -->
<g id="edge39" class="edge">
<title>Node20&#45;&gt;Node5</title>
<path fill="none" stroke="midnightblue" d="M516.06,-402.32C507.74,-405.07 498.64,-407.6 490,-409 435.16,-417.9 419.88,-417.62 365,-409 352.67,-407.06 339.4,-402.98 328.57,-399.09"/>
<polygon fill="midnightblue" stroke="midnightblue" points="517.49,-405.52 525.76,-398.89 515.16,-398.92 517.49,-405.52"/>
</g>
<!-- Node20&#45;&gt;Node17 -->
<g id="edge38" class="edge">
<title>Node20&#45;&gt;Node17</title>
<path fill="none" stroke="midnightblue" d="M515.65,-390C495.05,-390 468.63,-390 450.3,-390"/>
<polygon fill="midnightblue" stroke="midnightblue" points="515.81,-393.5 525.81,-390 515.81,-386.5 515.81,-393.5"/>
</g>
</g>
</svg>
