<?xml version="1.0" encoding="UTF-8" standalone="no"?>
<!DOCTYPE svg PUBLIC "-//W3C//DTD SVG 1.1//EN"
 "http://www.w3.org/Graphics/SVG/1.1/DTD/svg11.dtd">
<!-- Generated by graphviz version 2.47.1 (0)
 -->
<!-- Title: fcn2 Pages: 1 -->
<svg width="441pt" height="113pt"
 viewBox="0.00 0.00 441.00 113.00" xmlns="http://www.w3.org/2000/svg" xmlns:xlink="http://www.w3.org/1999/xlink">
<g id="graph0" class="graph" transform="scale(1 1) rotate(0) translate(4 109)">
<title>fcn2</title>
<polygon fill="white" stroke="transparent" points="-4,4 -4,-109 437,-109 437,4 -4,4"/>
<!-- Node1 -->
<g id="node1" class="node">
<title>Node1</title>
<g id="a_node1"><a xlink:title="fcn2">
<polygon fill="#bfbfbf" stroke="black" points="398,-38.5 398,-57.5 433,-57.5 433,-38.5 398,-38.5"/>
<text text-anchor="middle" x="415.5" y="-45.5" font-family="Helvetica,sans-Serif" font-size="10.00">fcn2</text>
</a>
</g>
</g>
<!-- Node2 -->
<g id="node2" class="node">
<title>Node2</title>
<g id="a_node2"><a xlink:href="group__grp__force__driver.html#gaec14f81fbdbedafbc4189489ec8ae178" target="_top" xlink:title="Employs Newton method to find , where &#160;and &#160;is defined in dforce() .">
<polygon fill="white" stroke="black" points="314,-38.5 314,-57.5 362,-57.5 362,-38.5 314,-38.5"/>
<text text-anchor="middle" x="338" y="-45.5" font-family="Helvetica,sans-Serif" font-size="10.00">newton</text>
</a>
</g>
</g>
<!-- Node1&#45;&gt;Node2 -->
<g id="edge1" class="edge">
<title>Node1&#45;&gt;Node2</title>
<path fill="none" stroke="midnightblue" d="M387.68,-41.51C379.29,-41.1 370.11,-41.18 362.01,-41.73"/>
<polygon fill="midnightblue" stroke="midnightblue" points="387.51,-45 397.74,-42.28 388.04,-38.03 387.51,-45"/>
</g>
<!-- Node2&#45;&gt;Node1 -->
<g id="edge4" class="edge">
<title>Node2&#45;&gt;Node1</title>
<path fill="none" stroke="midnightblue" d="M372.13,-54.7C380.99,-54.88 390.19,-54.55 397.74,-53.72"/>
<polygon fill="midnightblue" stroke="midnightblue" points="372.15,-51.2 362.01,-54.27 371.85,-58.2 372.15,-51.2"/>
</g>
<!-- Node3 -->
<g id="node3" class="node">
<title>Node3</title>
<g id="a_node3"><a xlink:href="group__grp__force__driver.html#gabbc245b3884ee8d8d3e2a52f25149f78" target="_top" xlink:title="fcn1">
<polygon fill="white" stroke="black" points="228,-76.5 228,-95.5 263,-95.5 263,-76.5 228,-76.5"/>
<text text-anchor="middle" x="245.5" y="-83.5" font-family="Helvetica,sans-Serif" font-size="10.00">fcn1</text>
</a>
</g>
</g>
<!-- Node2&#45;&gt;Node3 -->
<g id="edge2" class="edge">
<title>Node2&#45;&gt;Node3</title>
<path fill="none" stroke="midnightblue" d="M304.06,-55.31C288,-61.45 269.7,-69.74 258.13,-76.42"/>
<polygon fill="midnightblue" stroke="midnightblue" points="305.5,-58.51 313.69,-51.8 303.1,-51.93 305.5,-58.51"/>
</g>
<!-- Node4 -->
<g id="node4" class="node">
<title>Node4</title>
<g id="a_node4"><a xlink:href="xspech_8f90.html#a48f45478dc2c9f70ea8aa1c60ad06503" target="_top" xlink:title=" ">
<polygon fill="white" stroke="black" points="226.5,-38.5 226.5,-57.5 264.5,-57.5 264.5,-38.5 226.5,-38.5"/>
<text text-anchor="middle" x="245.5" y="-45.5" font-family="Helvetica,sans-Serif" font-size="10.00">spec</text>
</a>
</g>
</g>
<!-- Node2&#45;&gt;Node4 -->
<g id="edge5" class="edge">
<title>Node2&#45;&gt;Node4</title>
<path fill="none" stroke="midnightblue" d="M303.52,-48C290.34,-48 275.72,-48 264.59,-48"/>
<polygon fill="midnightblue" stroke="midnightblue" points="303.69,-51.5 313.69,-48 303.69,-44.5 303.69,-51.5"/>
</g>
<!-- Node7 -->
<g id="node7" class="node">
<title>Node7</title>
<g id="a_node7"><a xlink:href="group__grp__force__driver.html#ga382822b303cbf8c56d6f54dcb379caf2" target="_top" xlink:title="read or write force&#45;derivative matrix">
<polygon fill="white" stroke="black" points="213,-0.5 213,-19.5 278,-19.5 278,-0.5 213,-0.5"/>
<text text-anchor="middle" x="245.5" y="-7.5" font-family="Helvetica,sans-Serif" font-size="10.00">writereadgf</text>
</a>
</g>
</g>
<!-- Node2&#45;&gt;Node7 -->
<g id="edge10" class="edge">
<title>Node2&#45;&gt;Node7</title>
<path fill="none" stroke="midnightblue" d="M316.13,-33.45C304.89,-27.74 290.77,-21.59 278.2,-16.84"/>
<polygon fill="midnightblue" stroke="midnightblue" points="314.7,-36.65 325.17,-38.3 318.01,-30.49 314.7,-36.65"/>
</g>
<!-- Node3&#45;&gt;Node2 -->
<g id="edge3" class="edge">
<title>Node3&#45;&gt;Node2</title>
<path fill="none" stroke="midnightblue" d="M272.83,-81.14C290.14,-74.95 311.95,-65.3 325.17,-57.7"/>
<polygon fill="midnightblue" stroke="midnightblue" points="271.63,-77.85 263.26,-84.34 273.85,-84.49 271.63,-77.85"/>
</g>
<!-- Node5 -->
<g id="node5" class="node">
<title>Node5</title>
<g id="a_node5"><a xlink:href="namespacesphdf5.html#a0f962c09cd5d5eba99f1cba043cb3898" target="_top" xlink:title="initialize the interface to the HDF5 library and open the output file">
<polygon fill="white" stroke="black" points="83,-85.5 83,-104.5 177,-104.5 177,-85.5 83,-85.5"/>
<text text-anchor="middle" x="130" y="-92.5" font-family="Helvetica,sans-Serif" font-size="10.00">sphdf5::init_outfile</text>
</a>
</g>
</g>
<!-- Node4&#45;&gt;Node5 -->
<g id="edge6" class="edge">
<title>Node4&#45;&gt;Node5</title>
<path fill="none" stroke="midnightblue" d="M216.86,-59.44C197.7,-67.38 172.45,-77.84 154.3,-85.35"/>
<polygon fill="midnightblue" stroke="midnightblue" points="218.36,-62.61 226.26,-55.55 215.69,-56.14 218.36,-62.61"/>
</g>
<!-- Node6 -->
<g id="node6" class="node">
<title>Node6</title>
<g id="a_node6"><a xlink:href="xspech_8f90.html#aea782eae089760a491c2c54f9903abcc" target="_top" xlink:title="Main program of SPEC.">
<polygon fill="white" stroke="black" points="0,-38.5 0,-57.5 47,-57.5 47,-38.5 0,-38.5"/>
<text text-anchor="middle" x="23.5" y="-45.5" font-family="Helvetica,sans-Serif" font-size="10.00">xspech</text>
</a>
</g>
</g>
<!-- Node4&#45;&gt;Node6 -->
<g id="edge9" class="edge">
<title>Node4&#45;&gt;Node6</title>
<path fill="none" stroke="midnightblue" d="M216.48,-43.32C172.43,-40.44 87.86,-40.57 47.3,-43.69"/>
<polygon fill="midnightblue" stroke="midnightblue" points="216.26,-46.81 226.5,-44.09 216.79,-39.83 216.26,-46.81"/>
</g>
<!-- Node5&#45;&gt;Node6 -->
<g id="edge7" class="edge">
<title>Node5&#45;&gt;Node6</title>
<path fill="none" stroke="midnightblue" d="M98.43,-81.25C81.59,-73.68 61.11,-64.46 45.97,-57.66"/>
<polygon fill="midnightblue" stroke="midnightblue" points="97.3,-84.58 107.85,-85.49 100.17,-78.19 97.3,-84.58"/>
</g>
<!-- Node6&#45;&gt;Node4 -->
<g id="edge8" class="edge">
<title>Node6&#45;&gt;Node4</title>
<path fill="none" stroke="midnightblue" d="M57.29,-52.97C104.36,-55.65 189.48,-55.3 226.5,-51.91"/>
<polygon fill="midnightblue" stroke="midnightblue" points="57.51,-49.48 47.3,-52.31 57.05,-56.47 57.51,-49.48"/>
</g>
<!-- Node7&#45;&gt;Node1 -->
<g id="edge11" class="edge">
<title>Node7&#45;&gt;Node1</title>
<path fill="none" stroke="midnightblue" d="M288.27,-14.98C310.39,-18.09 337.9,-22.71 362,-29 374.19,-32.18 387.54,-37.03 397.73,-41.03"/>
<polygon fill="midnightblue" stroke="midnightblue" points="288.58,-11.49 278.2,-13.61 287.64,-18.43 288.58,-11.49"/>
</g>
<!-- Node7&#45;&gt;Node2 -->
<g id="edge12" class="edge">
<title>Node7&#45;&gt;Node2</title>
<path fill="none" stroke="midnightblue" d="M267.32,-24.53C281.16,-31.55 299.37,-39.27 313.69,-44.2"/>
<polygon fill="midnightblue" stroke="midnightblue" points="268.59,-21.24 258.13,-19.58 265.27,-27.4 268.59,-21.24"/>
</g>
</g>
</svg>
