<?xml version="1.0" encoding="UTF-8" standalone="no"?>
<!DOCTYPE svg PUBLIC "-//W3C//DTD SVG 1.1//EN"
 "http://www.w3.org/Graphics/SVG/1.1/DTD/svg11.dtd">
<!-- Generated by graphviz version 2.49.3 (20211027.1534)
 -->
<!-- Title: rzaxis Pages: 1 -->
<svg width="735pt" height="546pt"
 viewBox="0.00 0.00 735.00 546.11" xmlns="http://www.w3.org/2000/svg" xmlns:xlink="http://www.w3.org/1999/xlink">
<g id="graph0" class="graph" transform="scale(1 1) rotate(0) translate(4 542.11)">
<title>rzaxis</title>
<polygon fill="white" stroke="transparent" points="-4,4 -4,-542.11 731,-542.11 731,4 -4,4"/>
<!-- Node1 -->
<g id="node1" class="node">
<title>Node1</title>
<g id="a_node1"><a xlink:title="The coordinate axis is assigned via a poloidal average over an arbitrary surface.">
<polygon fill="#bfbfbf" stroke="black" points="686,-182.79 686,-201.79 727,-201.79 727,-182.79 686,-182.79"/>
<text text-anchor="middle" x="706.5" y="-189.79" font-family="Helvetica,sans-Serif" font-size="10.00">rzaxis</text>
</a>
</g>
</g>
<!-- Node1&#45;&gt;Node1 -->
<g id="edge57" class="edge">
<title>Node1&#45;&gt;Node1</title>
<path fill="none" stroke="midnightblue" d="M720.86,-212.06C719.74,-216.79 714.95,-220.29 706.5,-220.29 692.64,-220.29 688.63,-210.86 694.48,-202.05"/>
<polygon fill="midnightblue" stroke="midnightblue" points="724.21,-210.99 718.52,-202.05 717.39,-212.58 724.21,-210.99"/>
</g>
<!-- Node2 -->
<g id="node2" class="node">
<title>Node2</title>
<g id="a_node2"><a xlink:href="group__grp__packing.html#ga094e630c02686dd178749eb1efbf13fb" target="_top" xlink:title="Packs, and unpacks, geometrical degrees of freedom; and sets coordinate axis.">
<polygon fill="white" stroke="black" points="606,-229.79 606,-248.79 650,-248.79 650,-229.79 606,-229.79"/>
<text text-anchor="middle" x="628" y="-236.79" font-family="Helvetica,sans-Serif" font-size="10.00">packxi</text>
</a>
</g>
</g>
<!-- Node1&#45;&gt;Node2 -->
<g id="edge1" class="edge">
<title>Node1&#45;&gt;Node2</title>
<path fill="none" stroke="midnightblue" d="M681.38,-207.11C669.4,-214.47 655.28,-223.14 644.72,-229.63"/>
<polygon fill="midnightblue" stroke="midnightblue" points="683.33,-210.02 690.02,-201.8 679.67,-204.06 683.33,-210.02"/>
</g>
<!-- Node22 -->
<g id="node22" class="node">
<title>Node22</title>
<g id="a_node22"><a xlink:href="group__grp__initialization.html#ga28628de0fdb3b3497668007d8d0643bd" target="_top" xlink:title="Allocates and initializes internal arrays.">
<polygon fill="white" stroke="black" points="526,-16.79 526,-35.79 570,-35.79 570,-16.79 526,-16.79"/>
<text text-anchor="middle" x="548" y="-23.79" font-family="Helvetica,sans-Serif" font-size="10.00">preset</text>
</a>
</g>
</g>
<!-- Node1&#45;&gt;Node22 -->
<g id="edge53" class="edge">
<title>Node1&#45;&gt;Node22</title>
<path fill="none" stroke="midnightblue" d="M689.11,-174.9C656.32,-140.12 583.61,-63 558.08,-35.92"/>
<polygon fill="midnightblue" stroke="midnightblue" points="686.77,-177.53 696.18,-182.4 691.87,-172.73 686.77,-177.53"/>
</g>
<!-- Node2&#45;&gt;Node2 -->
<g id="edge51" class="edge">
<title>Node2&#45;&gt;Node2</title>
<path fill="none" stroke="midnightblue" d="M642.36,-259.06C641.24,-263.79 636.45,-267.29 628,-267.29 614.14,-267.29 610.13,-257.86 615.98,-249.05"/>
<polygon fill="midnightblue" stroke="midnightblue" points="645.71,-257.99 640.02,-249.05 638.89,-259.58 645.71,-257.99"/>
</g>
<!-- Node3 -->
<g id="node3" class="node">
<title>Node3</title>
<g id="a_node3"><a xlink:href="group__grp__global__force.html#ga38c9d3c50bd043707fefa5137c9dbf44" target="_top" xlink:title="Calculates , where &#160;and , and .">
<polygon fill="white" stroke="black" points="526,-269.79 526,-288.79 570,-288.79 570,-269.79 526,-269.79"/>
<text text-anchor="middle" x="548" y="-276.79" font-family="Helvetica,sans-Serif" font-size="10.00">dforce</text>
</a>
</g>
</g>
<!-- Node2&#45;&gt;Node3 -->
<g id="edge2" class="edge">
<title>Node2&#45;&gt;Node3</title>
<path fill="none" stroke="midnightblue" d="M598.99,-253.66C588.6,-258.99 577.07,-264.9 567.71,-269.7"/>
<polygon fill="midnightblue" stroke="midnightblue" points="600.82,-256.65 608.12,-248.97 597.62,-250.42 600.82,-256.65"/>
</g>
<!-- Node7 -->
<g id="node7" class="node">
<title>Node7</title>
<g id="a_node7"><a xlink:href="xspech_8f90.html#a48f45478dc2c9f70ea8aa1c60ad06503" target="_top" xlink:title="This is the main &quot;driver&quot; for the physics part of SPEC.">
<polygon fill="white" stroke="black" points="168.5,-101.79 168.5,-120.79 206.5,-120.79 206.5,-101.79 168.5,-101.79"/>
<text text-anchor="middle" x="187.5" y="-108.79" font-family="Helvetica,sans-Serif" font-size="10.00">spec</text>
</a>
</g>
</g>
<!-- Node2&#45;&gt;Node7 -->
<g id="edge52" class="edge">
<title>Node2&#45;&gt;Node7</title>
<path fill="none" stroke="midnightblue" d="M616.1,-220.87C595.97,-188.96 549.54,-124.61 490,-101.29 389.3,-61.86 254.88,-92.55 206.66,-105.89"/>
<polygon fill="midnightblue" stroke="midnightblue" points="613.27,-222.95 621.49,-229.65 619.24,-219.29 613.27,-222.95"/>
</g>
<!-- Node10 -->
<g id="node10" class="node">
<title>Node10</title>
<g id="a_node10"><a xlink:href="group__grp__force__driver.html#gabbc245b3884ee8d8d3e2a52f25149f78" target="_top" xlink:title="Objective to be given to the Newton solver, using only function values.">
<polygon fill="white" stroke="black" points="410,-354.79 410,-373.79 445,-373.79 445,-354.79 410,-354.79"/>
<text text-anchor="middle" x="427.5" y="-361.79" font-family="Helvetica,sans-Serif" font-size="10.00">fcn1</text>
</a>
</g>
</g>
<!-- Node2&#45;&gt;Node10 -->
<g id="edge48" class="edge">
<title>Node2&#45;&gt;Node10</title>
<path fill="none" stroke="midnightblue" d="M617.51,-257.97C607.79,-275.38 591.12,-300.89 570,-316.29 530.81,-344.88 473.37,-357.32 445.26,-361.94"/>
<polygon fill="midnightblue" stroke="midnightblue" points="620.79,-259.27 622.42,-248.8 614.62,-255.97 620.79,-259.27"/>
</g>
<!-- Node12 -->
<g id="node12" class="node">
<title>Node12</title>
<g id="a_node12"><a xlink:href="group__grp__force__driver.html#ga8ccd6c7d901872702521d0a0edf95412" target="_top" xlink:title="Objective to be given to the Newton solver, using function values and derivatives.">
<polygon fill="white" stroke="black" points="29.5,-325.79 29.5,-344.79 64.5,-344.79 64.5,-325.79 29.5,-325.79"/>
<text text-anchor="middle" x="47" y="-332.79" font-family="Helvetica,sans-Serif" font-size="10.00">fcn2</text>
</a>
</g>
</g>
<!-- Node2&#45;&gt;Node12 -->
<g id="edge49" class="edge">
<title>Node2&#45;&gt;Node12</title>
<path fill="none" stroke="midnightblue" d="M623.66,-259.08C611.27,-325.19 561.55,-534.29 428.5,-534.29 428.5,-534.29 428.5,-534.29 304,-534.29 225.6,-534.29 192.73,-552.32 130,-505.29 74.42,-463.62 54.66,-374.38 49.51,-344.94"/>
<polygon fill="midnightblue" stroke="midnightblue" points="627.13,-259.57 625.45,-249.11 620.24,-258.33 627.13,-259.57"/>
</g>
<!-- Node19 -->
<g id="node19" class="node">
<title>Node19</title>
<g id="a_node19"><a xlink:href="group__grp__output.html#ga7401b50ec10c6598ee4a8112717a63ec" target="_top" xlink:title="Computes eigenvalues and eigenvectors of derivative matrix, &#160;and saves them to .ext....">
<polygon fill="white" stroke="black" points="405,-110.79 405,-129.79 450,-129.79 450,-110.79 405,-110.79"/>
<text text-anchor="middle" x="427.5" y="-117.79" font-family="Helvetica,sans-Serif" font-size="10.00">hesian</text>
</a>
</g>
</g>
<!-- Node2&#45;&gt;Node19 -->
<g id="edge50" class="edge">
<title>Node2&#45;&gt;Node19</title>
<path fill="none" stroke="midnightblue" d="M602.47,-224.59C561.23,-199.86 479.11,-150.63 444.48,-129.87"/>
<polygon fill="midnightblue" stroke="midnightblue" points="600.71,-227.61 611.09,-229.75 604.31,-221.61 600.71,-227.61"/>
</g>
<!-- Node3&#45;&gt;Node3 -->
<g id="edge14" class="edge">
<title>Node3&#45;&gt;Node3</title>
<path fill="none" stroke="midnightblue" d="M562.73,-299.06C561.58,-303.79 556.66,-307.29 548,-307.29 533.78,-307.29 529.67,-297.86 535.67,-289.05"/>
<polygon fill="midnightblue" stroke="midnightblue" points="566.07,-297.96 560.33,-289.05 559.26,-299.59 566.07,-297.96"/>
</g>
<!-- Node4 -->
<g id="node4" class="node">
<title>Node4</title>
<g id="a_node4"><a xlink:href="namespaceallglobal.html#a7824bc37519fe88336534ce90ab2af16" target="_top" xlink:title=" ">
<polygon fill="white" stroke="black" points="370.5,-166.79 370.5,-185.79 484.5,-185.79 484.5,-166.79 370.5,-166.79"/>
<text text-anchor="middle" x="427.5" y="-173.79" font-family="Helvetica,sans-Serif" font-size="10.00">allglobal::check_inputs</text>
</a>
</g>
</g>
<!-- Node3&#45;&gt;Node4 -->
<g id="edge3" class="edge">
<title>Node3&#45;&gt;Node4</title>
<path fill="none" stroke="midnightblue" d="M538.85,-260.47C529.66,-241.37 512.94,-212.27 490,-195.29 484.79,-191.44 478.78,-188.35 472.61,-185.89"/>
<polygon fill="midnightblue" stroke="midnightblue" points="535.72,-262.04 543.08,-269.67 542.09,-259.12 535.72,-262.04"/>
</g>
<!-- Node3&#45;&gt;Node7 -->
<g id="edge47" class="edge">
<title>Node3&#45;&gt;Node7</title>
<path fill="none" stroke="midnightblue" d="M515.71,-278.61C463.07,-281.53 355.26,-287.4 281,-242.29 232.2,-212.65 203.9,-146.33 193.32,-120.91"/>
<polygon fill="midnightblue" stroke="midnightblue" points="515.98,-282.11 525.78,-278.07 515.6,-275.12 515.98,-282.11"/>
</g>
<!-- Node3&#45;&gt;Node10 -->
<g id="edge15" class="edge">
<title>Node3&#45;&gt;Node10</title>
<path fill="none" stroke="midnightblue" d="M534.18,-296.82C523.6,-310.24 507.52,-328.42 490,-340.29 476.15,-349.68 458.09,-356.17 445.13,-360.01"/>
<polygon fill="midnightblue" stroke="midnightblue" points="537.01,-298.87 540.3,-288.8 531.45,-294.63 537.01,-298.87"/>
</g>
<!-- Node11 -->
<g id="node11" class="node">
<title>Node11</title>
<g id="a_node11"><a xlink:href="group__grp__force__driver.html#gaec14f81fbdbedafbc4189489ec8ae178" target="_top" xlink:title="Employs Newton method to find , where &#160;and &#160;is defined in dforce() .">
<polygon fill="white" stroke="black" points="281,-320.79 281,-339.79 329,-339.79 329,-320.79 281,-320.79"/>
<text text-anchor="middle" x="305" y="-327.79" font-family="Helvetica,sans-Serif" font-size="10.00">newton</text>
</a>
</g>
</g>
<!-- Node3&#45;&gt;Node11 -->
<g id="edge42" class="edge">
<title>Node3&#45;&gt;Node11</title>
<path fill="none" stroke="midnightblue" d="M517.25,-292.81C508.6,-296.33 499.05,-299.81 490,-302.29 433.28,-317.82 364.21,-325.42 329.02,-328.52"/>
<polygon fill="midnightblue" stroke="midnightblue" points="518.7,-296 526.55,-288.89 515.98,-289.55 518.7,-296"/>
</g>
<!-- Node3&#45;&gt;Node12 -->
<g id="edge27" class="edge">
<title>Node3&#45;&gt;Node12</title>
<path fill="none" stroke="midnightblue" d="M544.3,-299.18C537.65,-344.97 518.85,-455.58 490,-477.29 426.08,-525.4 199.28,-517.29 130,-477.29 78.47,-447.55 56.42,-371.72 50.07,-344.89"/>
<polygon fill="midnightblue" stroke="midnightblue" points="547.8,-299.42 545.73,-289.03 540.87,-298.44 547.8,-299.42"/>
</g>
<!-- Node14 -->
<g id="node14" class="node">
<title>Node14</title>
<g id="a_node14"><a xlink:href="dfp200_8f90.html#a6aca59cf350d7b1941f8389d50945a43" target="_top" xlink:title="get LU Beltrami matrices">
<polygon fill="white" stroke="black" points="365,-448.79 365,-467.79 490,-467.79 490,-448.79 365,-448.79"/>
<text text-anchor="middle" x="427.5" y="-455.79" font-family="Helvetica,sans-Serif" font-size="10.00">get_lu_beltrami_matrices</text>
</a>
</g>
</g>
<!-- Node3&#45;&gt;Node14 -->
<g id="edge28" class="edge">
<title>Node3&#45;&gt;Node14</title>
<path fill="none" stroke="midnightblue" d="M544.92,-299.15C540.52,-331.6 527.35,-396.2 490,-434.29 483.82,-440.59 475.8,-445.28 467.59,-448.74"/>
<polygon fill="midnightblue" stroke="midnightblue" points="548.41,-299.45 546.14,-289.1 541.46,-298.61 548.41,-299.45"/>
</g>
<!-- Node3&#45;&gt;Node19 -->
<g id="edge39" class="edge">
<title>Node3&#45;&gt;Node19</title>
<path fill="none" stroke="midnightblue" d="M541.83,-259.9C534.13,-234 517.52,-187.84 490,-157.29 478.99,-145.07 462.99,-135.61 450.06,-129.32"/>
<polygon fill="midnightblue" stroke="midnightblue" points="538.5,-260.98 544.59,-269.65 545.24,-259.08 538.5,-260.98"/>
</g>
<!-- Node20 -->
<g id="node20" class="node">
<title>Node20</title>
<g id="a_node20"><a xlink:href="group__grp__conjugate__gradient.html#ga4d8415226e62a9fdb42b0fd0b464251e" target="_top" xlink:title="Returns the energy functional and it&#39;s derivatives with respect to geometry.">
<polygon fill="white" stroke="black" points="403.5,-204.79 403.5,-223.79 451.5,-223.79 451.5,-204.79 403.5,-204.79"/>
<text text-anchor="middle" x="427.5" y="-211.79" font-family="Helvetica,sans-Serif" font-size="10.00">pc00ab</text>
</a>
</g>
</g>
<!-- Node3&#45;&gt;Node20 -->
<g id="edge43" class="edge">
<title>Node3&#45;&gt;Node20</title>
<path fill="none" stroke="midnightblue" d="M520.72,-264.88C498,-252.41 465.78,-234.74 446.06,-223.92"/>
<polygon fill="midnightblue" stroke="midnightblue" points="519.06,-267.96 529.51,-269.7 522.43,-261.82 519.06,-267.96"/>
</g>
<!-- Node5 -->
<g id="node5" class="node">
<title>Node5</title>
<g id="a_node5"><a xlink:href="xspech_8f90.html#a9fdc71dffd7c61ee4588a3f80d3ab9ce" target="_top" xlink:title="Main subroutine of SPEC.">
<polygon fill="white" stroke="black" points="281.5,-16.79 281.5,-35.79 328.5,-35.79 328.5,-16.79 281.5,-16.79"/>
<text text-anchor="middle" x="305" y="-23.79" font-family="Helvetica,sans-Serif" font-size="10.00">xspech</text>
</a>
</g>
</g>
<!-- Node4&#45;&gt;Node5 -->
<g id="edge4" class="edge">
<title>Node4&#45;&gt;Node5</title>
<path fill="none" stroke="midnightblue" d="M370.65,-161.61C368.67,-160.29 366.77,-158.85 365,-157.29 326.87,-123.6 312.04,-60.42 307.59,-36.14"/>
<polygon fill="midnightblue" stroke="midnightblue" points="369.43,-164.92 379.88,-166.65 372.79,-158.78 369.43,-164.92"/>
</g>
<!-- Node5&#45;&gt;Node5 -->
<g id="edge13" class="edge">
<title>Node5&#45;&gt;Node5</title>
<path fill="none" stroke="midnightblue" d="M326.48,-45.69C325.05,-50.61 317.89,-54.29 305,-54.29 284.38,-54.29 278.42,-44.86 287.12,-36.05"/>
<polygon fill="midnightblue" stroke="midnightblue" points="329.66,-44.19 322.88,-36.05 323.1,-46.64 329.66,-44.19"/>
</g>
<!-- Node6 -->
<g id="node6" class="node">
<title>Node6</title>
<g id="a_node6"><a xlink:href="xspech_8f90.html#a1451823a7b97101a797de616250752c1" target="_top" xlink:title="Final diagnostics.">
<polygon fill="white" stroke="black" points="143,-54.79 143,-73.79 232,-73.79 232,-54.79 143,-54.79"/>
<text text-anchor="middle" x="187.5" y="-61.79" font-family="Helvetica,sans-Serif" font-size="10.00">final_diagnostics</text>
</a>
</g>
</g>
<!-- Node5&#45;&gt;Node6 -->
<g id="edge5" class="edge">
<title>Node5&#45;&gt;Node6</title>
<path fill="none" stroke="midnightblue" d="M271.67,-30.8C249.25,-37.01 220.45,-46.96 203.29,-54.73"/>
<polygon fill="midnightblue" stroke="midnightblue" points="272.67,-34.15 281.46,-28.23 270.9,-27.38 272.67,-34.15"/>
</g>
<!-- Node5&#45;&gt;Node7 -->
<g id="edge7" class="edge">
<title>Node5&#45;&gt;Node7</title>
<path fill="none" stroke="midnightblue" d="M281.25,-43.25C270.86,-53.13 257.99,-65.14 245,-74.29 229.43,-85.27 208.93,-94.26 197.39,-101.72"/>
<polygon fill="midnightblue" stroke="midnightblue" points="283.84,-45.62 288.67,-36.19 279.02,-40.55 283.84,-45.62"/>
</g>
<!-- Node9 -->
<g id="node9" class="node">
<title>Node9</title>
<g id="a_node9"><a xlink:href="xspech_8f90.html#a95271e8805067f801b5d4e524d6901d4" target="_top" xlink:title="Main program of SPEC.">
<polygon fill="white" stroke="black" points="155.5,-16.79 155.5,-35.79 219.5,-35.79 219.5,-16.79 155.5,-16.79"/>
<text text-anchor="middle" x="187.5" y="-23.79" font-family="Helvetica,sans-Serif" font-size="10.00">spec_main</text>
</a>
</g>
</g>
<!-- Node5&#45;&gt;Node9 -->
<g id="edge12" class="edge">
<title>Node5&#45;&gt;Node9</title>
<path fill="none" stroke="midnightblue" d="M271.36,-26.29C255.17,-26.29 235.72,-26.29 219.73,-26.29"/>
<polygon fill="midnightblue" stroke="midnightblue" points="271.46,-29.79 281.46,-26.29 271.46,-22.79 271.46,-29.79"/>
</g>
<!-- Node6&#45;&gt;Node5 -->
<g id="edge6" class="edge">
<title>Node6&#45;&gt;Node5</title>
<path fill="none" stroke="midnightblue" d="M242.21,-53.36C259.31,-47.85 276.89,-41.4 288.9,-35.99"/>
<polygon fill="midnightblue" stroke="midnightblue" points="240.75,-50.15 232.25,-56.47 242.83,-56.83 240.75,-50.15"/>
</g>
<!-- Node7&#45;&gt;Node3 -->
<g id="edge8" class="edge">
<title>Node7&#45;&gt;Node3</title>
<path fill="none" stroke="midnightblue" d="M193.34,-130.91C203.94,-164.43 232.24,-230.67 281,-260.29 360.37,-308.51 478.08,-298.48 525.78,-287.49"/>
<polygon fill="midnightblue" stroke="midnightblue" points="196.58,-129.51 190.42,-120.89 189.86,-131.47 196.58,-129.51"/>
</g>
<!-- Node7&#45;&gt;Node5 -->
<g id="edge11" class="edge">
<title>Node7&#45;&gt;Node5</title>
<path fill="none" stroke="midnightblue" d="M216.06,-108.2C225.59,-104.19 236.1,-98.57 245,-92.29 268.05,-76.04 290.74,-50.83 299.84,-36.08"/>
<polygon fill="midnightblue" stroke="midnightblue" points="214.73,-104.96 206.6,-111.74 217.19,-111.51 214.73,-104.96"/>
</g>
<!-- Node8 -->
<g id="node8" class="node">
<title>Node8</title>
<g id="a_node8"><a xlink:href="group__grp__output.html#ga0f962c09cd5d5eba99f1cba043cb3898" target="_top" xlink:title="Initialize the interface to the HDF5 library and open the output file.">
<polygon fill="white" stroke="black" points="0,-35.79 0,-54.79 94,-54.79 94,-35.79 0,-35.79"/>
<text text-anchor="middle" x="47" y="-42.79" font-family="Helvetica,sans-Serif" font-size="10.00">sphdf5::init_outfile</text>
</a>
</g>
</g>
<!-- Node7&#45;&gt;Node8 -->
<g id="edge9" class="edge">
<title>Node7&#45;&gt;Node8</title>
<path fill="none" stroke="midnightblue" d="M159.21,-98.29C132.49,-85.56 92.4,-66.45 68.36,-54.99"/>
<polygon fill="midnightblue" stroke="midnightblue" points="157.86,-101.52 168.39,-102.66 160.87,-95.2 157.86,-101.52"/>
</g>
<!-- Node8&#45;&gt;Node5 -->
<g id="edge10" class="edge">
<title>Node8&#45;&gt;Node5</title>
<path fill="none" stroke="midnightblue" d="M72.37,-30.58C88.18,-21.92 109.57,-11.8 130,-7.29 179.91,3.71 194.51,0.64 245,-7.29 257.33,-9.23 270.6,-13.31 281.43,-17.2"/>
<polygon fill="midnightblue" stroke="midnightblue" points="70.27,-27.74 63.3,-35.72 73.73,-33.83 70.27,-27.74"/>
</g>
<!-- Node10&#45;&gt;Node10 -->
<g id="edge16" class="edge">
<title>Node10&#45;&gt;Node10</title>
<path fill="none" stroke="midnightblue" d="M450,-382.02C449.8,-387.75 442.3,-392.29 427.5,-392.29 405.47,-392.29 399.62,-382.22 409.94,-373.18"/>
<polygon fill="midnightblue" stroke="midnightblue" points="452.99,-380.2 445.06,-373.18 446.88,-383.62 452.99,-380.2"/>
</g>
<!-- Node10&#45;&gt;Node11 -->
<g id="edge17" class="edge">
<title>Node10&#45;&gt;Node11</title>
<path fill="none" stroke="midnightblue" d="M400.09,-351.14C378.92,-343.69 349.49,-335.47 329.22,-331.39"/>
<polygon fill="midnightblue" stroke="midnightblue" points="399.15,-354.53 409.74,-354.72 401.58,-347.96 399.15,-354.53"/>
</g>
<!-- Node11&#45;&gt;Node7 -->
<g id="edge23" class="edge">
<title>Node11&#45;&gt;Node7</title>
<path fill="none" stroke="midnightblue" d="M288.58,-312.8C285.91,-309.42 283.26,-305.83 281,-302.29 239.09,-236.81 203.43,-149.52 192.18,-120.85"/>
<polygon fill="midnightblue" stroke="midnightblue" points="286,-315.18 295.09,-320.62 291.38,-310.7 286,-315.18"/>
</g>
<!-- Node11&#45;&gt;Node10 -->
<g id="edge18" class="edge">
<title>Node11&#45;&gt;Node10</title>
<path fill="none" stroke="midnightblue" d="M332,-343.3C355.57,-351.62 389.6,-360.95 409.74,-364.41"/>
<polygon fill="midnightblue" stroke="midnightblue" points="333.21,-340.01 322.61,-339.81 330.77,-346.57 333.21,-340.01"/>
</g>
<!-- Node11&#45;&gt;Node11 -->
<g id="edge22" class="edge">
<title>Node11&#45;&gt;Node11</title>
<path fill="none" stroke="midnightblue" d="M326.48,-349.69C325.05,-354.61 317.89,-358.29 305,-358.29 284.38,-358.29 278.42,-348.86 287.12,-340.05"/>
<polygon fill="midnightblue" stroke="midnightblue" points="329.66,-348.19 322.88,-340.05 323.1,-350.64 329.66,-348.19"/>
</g>
<!-- Node11&#45;&gt;Node12 -->
<g id="edge19" class="edge">
<title>Node11&#45;&gt;Node12</title>
<path fill="none" stroke="midnightblue" d="M270.84,-326.23C215.53,-324.25 106.41,-326.77 64.72,-331.41"/>
<polygon fill="midnightblue" stroke="midnightblue" points="270.69,-329.72 280.83,-326.66 270.99,-322.73 270.69,-329.72"/>
</g>
<!-- Node13 -->
<g id="node13" class="node">
<title>Node13</title>
<g id="a_node13"><a xlink:href="group__grp__output.html#ga382822b303cbf8c56d6f54dcb379caf2" target="_top" xlink:title="read or write force&#45;derivative matrix .ext.sp.DF">
<polygon fill="white" stroke="black" points="155,-278.79 155,-297.79 220,-297.79 220,-278.79 155,-278.79"/>
<text text-anchor="middle" x="187.5" y="-285.79" font-family="Helvetica,sans-Serif" font-size="10.00">writereadgf</text>
</a>
</g>
</g>
<!-- Node11&#45;&gt;Node13 -->
<g id="edge24" class="edge">
<title>Node11&#45;&gt;Node13</title>
<path fill="none" stroke="midnightblue" d="M280.88,-316.36C263.41,-308.59 239.25,-299.62 220.02,-293.67"/>
<polygon fill="midnightblue" stroke="midnightblue" points="279.76,-319.69 290.3,-320.75 282.72,-313.35 279.76,-319.69"/>
</g>
<!-- Node12&#45;&gt;Node11 -->
<g id="edge21" class="edge">
<title>Node12&#45;&gt;Node11</title>
<path fill="none" stroke="midnightblue" d="M74.85,-339.1C125.28,-341.42 233.36,-339.22 280.83,-334.82"/>
<polygon fill="midnightblue" stroke="midnightblue" points="74.91,-335.6 64.72,-338.52 74.51,-342.59 74.91,-335.6"/>
</g>
<!-- Node12&#45;&gt;Node12 -->
<g id="edge20" class="edge">
<title>Node12&#45;&gt;Node12</title>
<path fill="none" stroke="midnightblue" d="M72.47,-349.7C76,-356.88 67.51,-363.29 47,-363.29 19.66,-363.29 13.67,-351.9 29.06,-342.46"/>
<polygon fill="midnightblue" stroke="midnightblue" points="74.58,-346.87 64.94,-342.46 69.73,-351.92 74.58,-346.87"/>
</g>
<!-- Node13&#45;&gt;Node11 -->
<g id="edge26" class="edge">
<title>Node13&#45;&gt;Node11</title>
<path fill="none" stroke="midnightblue" d="M211.23,-302.05C231.37,-311.04 260.65,-321.7 280.9,-327.42"/>
<polygon fill="midnightblue" stroke="midnightblue" points="212.69,-298.87 202.15,-297.8 209.73,-305.21 212.69,-298.87"/>
</g>
<!-- Node13&#45;&gt;Node12 -->
<g id="edge25" class="edge">
<title>Node13&#45;&gt;Node12</title>
<path fill="none" stroke="midnightblue" d="M148.77,-301.1C121.28,-310.42 85.37,-322.61 64.68,-329.63"/>
<polygon fill="midnightblue" stroke="midnightblue" points="150.13,-304.33 158.47,-297.8 147.88,-297.7 150.13,-304.33"/>
</g>
<!-- Node15 -->
<g id="node15" class="node">
<title>Node15</title>
<g id="a_node15"><a xlink:href="dfp200_8f90.html#a55ea75395f8c71731451e1add3720c7e" target="_top" xlink:title="Given the field consistent with the constraints and the geometry, computes local quantites related to...">
<polygon fill="white" stroke="black" points="282,-410.79 282,-429.79 328,-429.79 328,-410.79 282,-410.79"/>
<text text-anchor="middle" x="305" y="-417.79" font-family="Helvetica,sans-Serif" font-size="10.00">dfp200</text>
</a>
</g>
</g>
<!-- Node14&#45;&gt;Node15 -->
<g id="edge29" class="edge">
<title>Node14&#45;&gt;Node15</title>
<path fill="none" stroke="midnightblue" d="M401.27,-444.72C379.71,-436.33 348.99,-426.72 328.32,-421.95"/>
<polygon fill="midnightblue" stroke="midnightblue" points="400.17,-448.05 410.75,-448.59 402.81,-441.57 400.17,-448.05"/>
</g>
<!-- Node15&#45;&gt;Node3 -->
<g id="edge30" class="edge">
<title>Node15&#45;&gt;Node3</title>
<path fill="none" stroke="midnightblue" d="M338.38,-425.9C377.96,-430.9 445.17,-433.18 490,-401.29 528.86,-373.65 541.98,-312.59 545.71,-288.93"/>
<polygon fill="midnightblue" stroke="midnightblue" points="338.62,-422.4 328.23,-424.48 337.65,-429.33 338.62,-422.4"/>
</g>
<!-- Node15&#45;&gt;Node14 -->
<g id="edge36" class="edge">
<title>Node15&#45;&gt;Node14</title>
<path fill="none" stroke="midnightblue" d="M330.78,-433.68C343.58,-438.69 359.7,-444.14 375.05,-448.75"/>
<polygon fill="midnightblue" stroke="midnightblue" points="331.88,-430.35 321.3,-429.79 329.22,-436.83 331.88,-430.35"/>
</g>
<!-- Node15&#45;&gt;Node15 -->
<g id="edge31" class="edge">
<title>Node15&#45;&gt;Node15</title>
<path fill="none" stroke="midnightblue" d="M326.48,-439.69C325.05,-444.61 317.89,-448.29 305,-448.29 284.38,-448.29 278.42,-438.86 287.12,-430.05"/>
<polygon fill="midnightblue" stroke="midnightblue" points="329.66,-438.19 322.88,-430.05 323.1,-440.64 329.66,-438.19"/>
</g>
<!-- Node16 -->
<g id="node16" class="node">
<title>Node16</title>
<g id="a_node16"><a xlink:href="dfp200_8f90.html#a7b64c7392b45d0042d8bd7379c0761a5" target="_top" xlink:title="Evaluate the derivative of the square of the magnetic field modulus. Add spectral constraint derivati...">
<polygon fill="white" stroke="black" points="150.5,-410.79 150.5,-429.79 224.5,-429.79 224.5,-410.79 150.5,-410.79"/>
<text text-anchor="middle" x="187.5" y="-417.79" font-family="Helvetica,sans-Serif" font-size="10.00">evaluate_dbb</text>
</a>
</g>
</g>
<!-- Node15&#45;&gt;Node16 -->
<g id="edge32" class="edge">
<title>Node15&#45;&gt;Node16</title>
<path fill="none" stroke="midnightblue" d="M271.66,-414.16C257.08,-413.4 239.81,-413.34 224.79,-413.97"/>
<polygon fill="midnightblue" stroke="midnightblue" points="271.52,-417.66 281.73,-414.83 271.99,-410.67 271.52,-417.66"/>
</g>
<!-- Node17 -->
<g id="node17" class="node">
<title>Node17</title>
<g id="a_node17"><a xlink:href="dfp200_8f90.html#a73ddf39ecc5228201fb643779e17cd36" target="_top" xlink:title="Evaluate mu and psip derivatives and store them in dmupfdx.">
<polygon fill="white" stroke="black" points="140,-372.79 140,-391.79 235,-391.79 235,-372.79 140,-372.79"/>
<text text-anchor="middle" x="187.5" y="-379.79" font-family="Helvetica,sans-Serif" font-size="10.00">evaluate_dmupfdx</text>
</a>
</g>
</g>
<!-- Node15&#45;&gt;Node17 -->
<g id="edge34" class="edge">
<title>Node15&#45;&gt;Node17</title>
<path fill="none" stroke="midnightblue" d="M279.35,-406.53C266.45,-401.32 250.22,-395.65 235.06,-390.97"/>
<polygon fill="midnightblue" stroke="midnightblue" points="278.33,-409.9 288.9,-410.59 281.07,-403.46 278.33,-409.9"/>
</g>
<!-- Node18 -->
<g id="node18" class="node">
<title>Node18</title>
<g id="a_node18"><a xlink:href="dfp200_8f90.html#a5e56f1f4b1e6df11a9cffa6237c37469" target="_top" xlink:title="This routine evaluates the value of the magnetic field once the interface is perturbed using matrix p...">
<polygon fill="white" stroke="black" points="130,-448.79 130,-467.79 245,-467.79 245,-448.79 130,-448.79"/>
<text text-anchor="middle" x="187.5" y="-455.79" font-family="Helvetica,sans-Serif" font-size="10.00">get_perturbed_solution</text>
</a>
</g>
</g>
<!-- Node15&#45;&gt;Node18 -->
<g id="edge37" class="edge">
<title>Node15&#45;&gt;Node18</title>
<path fill="none" stroke="midnightblue" d="M271.95,-424.72C249.52,-430.92 220.6,-440.9 203.36,-448.7"/>
<polygon fill="midnightblue" stroke="midnightblue" points="272.94,-428.08 281.73,-422.16 271.17,-421.31 272.94,-428.08"/>
</g>
<!-- Node16&#45;&gt;Node15 -->
<g id="edge33" class="edge">
<title>Node16&#45;&gt;Node15</title>
<path fill="none" stroke="midnightblue" d="M235.13,-426.93C251.22,-427.26 268.5,-426.87 281.73,-425.75"/>
<polygon fill="midnightblue" stroke="midnightblue" points="234.89,-423.42 224.79,-426.61 234.67,-430.42 234.89,-423.42"/>
</g>
<!-- Node17&#45;&gt;Node15 -->
<g id="edge35" class="edge">
<title>Node17&#45;&gt;Node15</title>
<path fill="none" stroke="midnightblue" d="M212.59,-395.82C232.96,-404.1 261.9,-413.57 281.73,-418.42"/>
<polygon fill="midnightblue" stroke="midnightblue" points="213.93,-392.59 203.36,-391.88 211.19,-399.03 213.93,-392.59"/>
</g>
<!-- Node18&#45;&gt;Node15 -->
<g id="edge38" class="edge">
<title>Node18&#45;&gt;Node15</title>
<path fill="none" stroke="midnightblue" d="M247.46,-445.64C262.84,-440.55 278.11,-434.85 288.9,-429.99"/>
<polygon fill="midnightblue" stroke="midnightblue" points="246.35,-442.32 237.9,-448.72 248.5,-448.99 246.35,-442.32"/>
</g>
<!-- Node19&#45;&gt;Node7 -->
<g id="edge41" class="edge">
<title>Node19&#45;&gt;Node7</title>
<path fill="none" stroke="midnightblue" d="M394.92,-119.1C344.33,-117.18 246.75,-113.49 206.52,-111.97"/>
<polygon fill="midnightblue" stroke="midnightblue" points="394.83,-122.6 404.96,-119.48 395.1,-115.6 394.83,-122.6"/>
</g>
<!-- Node19&#45;&gt;Node19 -->
<g id="edge40" class="edge">
<title>Node19&#45;&gt;Node19</title>
<path fill="none" stroke="midnightblue" d="M449.82,-139.32C448.6,-144.42 441.16,-148.29 427.5,-148.29 406.17,-148.29 400.01,-138.86 409,-130.05"/>
<polygon fill="midnightblue" stroke="midnightblue" points="453.05,-137.96 446,-130.05 446.57,-140.63 453.05,-137.96"/>
</g>
<!-- Node20&#45;&gt;Node20 -->
<g id="edge46" class="edge">
<title>Node20&#45;&gt;Node20</title>
<path fill="none" stroke="midnightblue" d="M449.82,-233.32C448.6,-238.42 441.16,-242.29 427.5,-242.29 406.17,-242.29 400.01,-232.86 409,-224.05"/>
<polygon fill="midnightblue" stroke="midnightblue" points="453.05,-231.96 446,-224.05 446.57,-234.63 453.05,-231.96"/>
</g>
<!-- Node21 -->
<g id="node21" class="node">
<title>Node21</title>
<g id="a_node21"><a xlink:href="group__grp__conjugate__gradient.html#ga25a3bae2ff2ee0469b045de0d033398b" target="_top" xlink:title="Use preconditioned conjugate gradient method to find minimum of energy functional.">
<polygon fill="white" stroke="black" points="281,-204.79 281,-223.79 329,-223.79 329,-204.79 281,-204.79"/>
<text text-anchor="middle" x="305" y="-211.79" font-family="Helvetica,sans-Serif" font-size="10.00">pc00aa</text>
</a>
</g>
</g>
<!-- Node20&#45;&gt;Node21 -->
<g id="edge44" class="edge">
<title>Node20&#45;&gt;Node21</title>
<path fill="none" stroke="midnightblue" d="M393.16,-214.29C372.81,-214.29 347.31,-214.29 329.16,-214.29"/>
<polygon fill="midnightblue" stroke="midnightblue" points="393.27,-217.79 403.27,-214.29 393.27,-210.79 393.27,-217.79"/>
</g>
<!-- Node21&#45;&gt;Node21 -->
<g id="edge45" class="edge">
<title>Node21&#45;&gt;Node21</title>
<path fill="none" stroke="midnightblue" d="M326.48,-233.69C325.05,-238.61 317.89,-242.29 305,-242.29 284.38,-242.29 278.42,-232.86 287.12,-224.05"/>
<polygon fill="midnightblue" stroke="midnightblue" points="329.66,-232.19 322.88,-224.05 323.1,-234.64 329.66,-232.19"/>
</g>
<!-- Node22&#45;&gt;Node5 -->
<g id="edge56" class="edge">
<title>Node22&#45;&gt;Node5</title>
<path fill="none" stroke="midnightblue" d="M515.53,-26.29C466.24,-26.29 372,-26.29 328.74,-26.29"/>
<polygon fill="midnightblue" stroke="midnightblue" points="515.61,-29.79 525.61,-26.29 515.61,-22.79 515.61,-29.79"/>
</g>
<!-- Node22&#45;&gt;Node19 -->
<g id="edge54" class="edge">
<title>Node22&#45;&gt;Node19</title>
<path fill="none" stroke="midnightblue" d="M526.74,-42.37C501.93,-62.04 460.74,-94.71 440.49,-110.78"/>
<polygon fill="midnightblue" stroke="midnightblue" points="529.11,-44.95 534.76,-36 524.76,-39.47 529.11,-44.95"/>
</g>
<!-- Node22&#45;&gt;Node22 -->
<g id="edge55" class="edge">
<title>Node22&#45;&gt;Node22</title>
<path fill="none" stroke="midnightblue" d="M562.73,-46.06C561.58,-50.79 556.66,-54.29 548,-54.29 533.78,-54.29 529.67,-44.86 535.67,-36.05"/>
<polygon fill="midnightblue" stroke="midnightblue" points="566.07,-44.96 560.33,-36.05 559.26,-46.59 566.07,-44.96"/>
</g>
</g>
</svg>
