<?xml version="1.0" encoding="UTF-8" standalone="no"?>
<!DOCTYPE svg PUBLIC "-//W3C//DTD SVG 1.1//EN"
 "http://www.w3.org/Graphics/SVG/1.1/DTD/svg11.dtd">
<!-- Generated by graphviz version 2.47.1 (20210421.1823)
 -->
<!-- Title: fcn1 Pages: 1 -->
<svg width="441pt" height="113pt"
 viewBox="0.00 0.00 441.00 113.00" xmlns="http://www.w3.org/2000/svg" xmlns:xlink="http://www.w3.org/1999/xlink">
<g id="graph0" class="graph" transform="scale(1 1) rotate(0) translate(4 109)">
<title>fcn1</title>
<polygon fill="white" stroke="transparent" points="-4,4 -4,-109 437,-109 437,4 -4,4"/>
<!-- Node1 -->
<g id="node1" class="node">
<title>Node1</title>
<g id="a_node1"><a xlink:title="fcn1">
<polygon fill="#bfbfbf" stroke="black" points="398,-38.5 398,-57.5 433,-57.5 433,-38.5 398,-38.5"/>
<text text-anchor="middle" x="415.5" y="-45.5" font-family="Helvetica,sans-Serif" font-size="10.00">fcn1</text>
</a>
</g>
</g>
<!-- Node2 -->
<g id="node2" class="node">
<title>Node2</title>
<g id="a_node2"><a xlink:href="group__grp__force__driver.html#gaec14f81fbdbedafbc4189489ec8ae178" target="_top" xlink:title="Employs Newton method to find , where &#160;and &#160;is defined in dforce() .">
<polygon fill="white" stroke="black" points="314,-38.5 314,-57.5 362,-57.5 362,-38.5 314,-38.5"/>
<text text-anchor="middle" x="338" y="-45.5" font-family="Helvetica,sans-Serif" font-size="10.00">newton</text>
</a>
</g>
</g>
<!-- Node1&#45;&gt;Node2 -->
<g id="edge1" class="edge">
<title>Node1&#45;&gt;Node2</title>
<path fill="none" stroke="midnightblue" d="M387.68,-41.51C379.29,-41.1 370.11,-41.18 362.01,-41.73"/>
<polygon fill="midnightblue" stroke="midnightblue" points="387.51,-45 397.74,-42.28 388.04,-38.03 387.51,-45"/>
</g>
<!-- Node2&#45;&gt;Node1 -->
<g id="edge2" class="edge">
<title>Node2&#45;&gt;Node1</title>
<path fill="none" stroke="midnightblue" d="M372.13,-54.7C380.99,-54.88 390.19,-54.55 397.74,-53.72"/>
<polygon fill="midnightblue" stroke="midnightblue" points="372.15,-51.2 362.01,-54.27 371.85,-58.2 372.15,-51.2"/>
</g>
<!-- Node3 -->
<g id="node3" class="node">
<title>Node3</title>
<g id="a_node3"><a xlink:href="group__grp__force__driver.html#ga8ccd6c7d901872702521d0a0edf95412" target="_top" xlink:title="fcn2">
<polygon fill="white" stroke="black" points="112.5,-85.5 112.5,-104.5 147.5,-104.5 147.5,-85.5 112.5,-85.5"/>
<text text-anchor="middle" x="130" y="-92.5" font-family="Helvetica,sans-Serif" font-size="10.00">fcn2</text>
</a>
</g>
</g>
<!-- Node2&#45;&gt;Node3 -->
<g id="edge3" class="edge">
<title>Node2&#45;&gt;Node3</title>
<path fill="none" stroke="midnightblue" d="M304.06,-50.69C295.62,-53.1 286.52,-55.82 278,-58 231.43,-69.89 175.4,-79.22 147.9,-86.87"/>
<polygon fill="midnightblue" stroke="midnightblue" points="305.22,-54 313.93,-47.97 303.36,-47.25 305.22,-54"/>
</g>
<!-- Node4 -->
<g id="node4" class="node">
<title>Node4</title>
<g id="a_node4"><a xlink:href="xspech_8f90.html#a48f45478dc2c9f70ea8aa1c60ad06503" target="_top" xlink:title=" ">
<polygon fill="white" stroke="black" points="226.5,-0.5 226.5,-19.5 264.5,-19.5 264.5,-0.5 226.5,-0.5"/>
<text text-anchor="middle" x="245.5" y="-7.5" font-family="Helvetica,sans-Serif" font-size="10.00">spec</text>
</a>
</g>
</g>
<!-- Node2&#45;&gt;Node4 -->
<g id="edge5" class="edge">
<title>Node2&#45;&gt;Node4</title>
<path fill="none" stroke="midnightblue" d="M304.76,-34.46C291.33,-28.82 276.23,-22.48 264.77,-17.67"/>
<polygon fill="midnightblue" stroke="midnightblue" points="303.59,-37.77 314.16,-38.41 306.3,-31.31 303.59,-37.77"/>
</g>
<!-- Node7 -->
<g id="node7" class="node">
<title>Node7</title>
<g id="a_node7"><a xlink:href="group__grp__force__driver.html#ga382822b303cbf8c56d6f54dcb379caf2" target="_top" xlink:title="read or write force&#45;derivative matrix">
<polygon fill="white" stroke="black" points="213,-38.5 213,-57.5 278,-57.5 278,-38.5 213,-38.5"/>
<text text-anchor="middle" x="245.5" y="-45.5" font-family="Helvetica,sans-Serif" font-size="10.00">writereadgf</text>
</a>
</g>
</g>
<!-- Node2&#45;&gt;Node7 -->
<g id="edge10" class="edge">
<title>Node2&#45;&gt;Node7</title>
<path fill="none" stroke="midnightblue" d="M303.6,-41.46C295.31,-41.16 286.46,-41.18 278.25,-41.52"/>
<polygon fill="midnightblue" stroke="midnightblue" points="303.52,-44.96 313.69,-42.01 303.9,-37.97 303.52,-44.96"/>
</g>
<!-- Node3&#45;&gt;Node2 -->
<g id="edge4" class="edge">
<title>Node3&#45;&gt;Node2</title>
<path fill="none" stroke="midnightblue" d="M157.9,-97.5C187.54,-95.14 236.52,-86.59 278,-76 295.93,-71.42 316.4,-64.42 327.9,-57.59"/>
<polygon fill="midnightblue" stroke="midnightblue" points="157.68,-94.01 147.9,-98.08 158.09,-100.99 157.68,-94.01"/>
</g>
<!-- Node5 -->
<g id="node5" class="node">
<title>Node5</title>
<g id="a_node5"><a xlink:href="namespacesphdf5.html#a0f962c09cd5d5eba99f1cba043cb3898" target="_top" xlink:title="initialize the interface to the HDF5 library and open the output file">
<polygon fill="white" stroke="black" points="83,-47.5 83,-66.5 177,-66.5 177,-47.5 83,-47.5"/>
<text text-anchor="middle" x="130" y="-54.5" font-family="Helvetica,sans-Serif" font-size="10.00">sphdf5::init_outfile</text>
</a>
</g>
</g>
<!-- Node4&#45;&gt;Node5 -->
<g id="edge6" class="edge">
<title>Node4&#45;&gt;Node5</title>
<path fill="none" stroke="midnightblue" d="M216.86,-21.44C197.7,-29.38 172.45,-39.84 154.3,-47.35"/>
<polygon fill="midnightblue" stroke="midnightblue" points="218.36,-24.61 226.26,-17.55 215.69,-18.14 218.36,-24.61"/>
</g>
<!-- Node6 -->
<g id="node6" class="node">
<title>Node6</title>
<g id="a_node6"><a xlink:href="xspech_8f90.html#aea782eae089760a491c2c54f9903abcc" target="_top" xlink:title="Main program of SPEC.">
<polygon fill="white" stroke="black" points="0,-0.5 0,-19.5 47,-19.5 47,-0.5 0,-0.5"/>
<text text-anchor="middle" x="23.5" y="-7.5" font-family="Helvetica,sans-Serif" font-size="10.00">xspech</text>
</a>
</g>
</g>
<!-- Node4&#45;&gt;Node6 -->
<g id="edge9" class="edge">
<title>Node4&#45;&gt;Node6</title>
<path fill="none" stroke="midnightblue" d="M216.48,-5.32C172.43,-2.44 87.86,-2.57 47.3,-5.69"/>
<polygon fill="midnightblue" stroke="midnightblue" points="216.26,-8.81 226.5,-6.09 216.79,-1.83 216.26,-8.81"/>
</g>
<!-- Node5&#45;&gt;Node6 -->
<g id="edge7" class="edge">
<title>Node5&#45;&gt;Node6</title>
<path fill="none" stroke="midnightblue" d="M98.43,-43.25C81.59,-35.68 61.11,-26.46 45.97,-19.66"/>
<polygon fill="midnightblue" stroke="midnightblue" points="97.3,-46.58 107.85,-47.49 100.17,-40.19 97.3,-46.58"/>
</g>
<!-- Node6&#45;&gt;Node4 -->
<g id="edge8" class="edge">
<title>Node6&#45;&gt;Node4</title>
<path fill="none" stroke="midnightblue" d="M57.29,-14.97C104.36,-17.65 189.48,-17.3 226.5,-13.91"/>
<polygon fill="midnightblue" stroke="midnightblue" points="57.51,-11.48 47.3,-14.31 57.05,-18.47 57.51,-11.48"/>
</g>
<!-- Node7&#45;&gt;Node2 -->
<g id="edge12" class="edge">
<title>Node7&#45;&gt;Node2</title>
<path fill="none" stroke="midnightblue" d="M288.33,-54.73C297.05,-54.82 305.94,-54.57 313.69,-53.99"/>
<polygon fill="midnightblue" stroke="midnightblue" points="288.34,-51.23 278.25,-54.48 288.16,-58.23 288.34,-51.23"/>
</g>
<!-- Node7&#45;&gt;Node3 -->
<g id="edge11" class="edge">
<title>Node7&#45;&gt;Node3</title>
<path fill="none" stroke="midnightblue" d="M212.04,-61.48C200.93,-66.09 188.42,-71.27 177,-76 167.26,-80.03 156.36,-84.54 147.61,-88.15"/>
<polygon fill="midnightblue" stroke="midnightblue" points="213.49,-64.66 221.39,-57.6 210.81,-58.2 213.49,-64.66"/>
</g>
</g>
</svg>
