<?xml version="1.0" encoding="UTF-8" standalone="no"?>
<!DOCTYPE svg PUBLIC "-//W3C//DTD SVG 1.1//EN"
 "http://www.w3.org/Graphics/SVG/1.1/DTD/svg11.dtd">
<!-- Generated by graphviz version 2.44.0 ()
 -->
<!-- Title: jo00aa Pages: 1 -->
<svg width="219pt" height="104pt"
 viewBox="0.00 0.00 219.00 104.00" xmlns="http://www.w3.org/2000/svg" xmlns:xlink="http://www.w3.org/1999/xlink">
<g id="graph0" class="graph" transform="scale(1 1) rotate(0) translate(4 100)">
<title>jo00aa</title>
<polygon fill="white" stroke="transparent" points="-4,4 -4,-100 215,-100 215,4 -4,4"/>
<!-- Node1 -->
<g id="node1" class="node">
<title>Node1</title>
<g id="a_node1"><a xlink:title="Measures error in Beltrami equation, .">
<polygon fill="#bfbfbf" stroke="black" points="0,-38.5 0,-57.5 45,-57.5 45,-38.5 0,-38.5"/>
<text text-anchor="middle" x="22.5" y="-45.5" font-family="Helvetica,sans-Serif" font-size="10.00">jo00aa</text>
</a>
</g>
</g>
<!-- Node2 -->
<g id="node2" class="node">
<title>Node2</title>
<g id="a_node2"><a xlink:href="group__grp__diagnostics.html#ga20985df1b0df0503ca03ca13f1daf642" target="_top" xlink:title="Compute the magnetic field.">
<polygon fill="white" stroke="black" points="84.5,-76.5 84.5,-95.5 123.5,-95.5 123.5,-76.5 84.5,-76.5"/>
<text text-anchor="middle" x="104" y="-83.5" font-family="Helvetica,sans-Serif" font-size="10.00">bfield</text>
</a>
</g>
</g>
<!-- Node1&#45;&gt;Node2 -->
<g id="edge1" class="edge">
<title>Node1&#45;&gt;Node2</title>
<path fill="none" stroke="midnightblue" d="M43.56,-57.59C53.14,-62.17 64.76,-67.72 75.18,-72.7"/>
<polygon fill="midnightblue" stroke="midnightblue" points="73.78,-75.91 84.31,-77.07 76.8,-69.6 73.78,-75.91"/>
</g>
<!-- Node3 -->
<g id="node3" class="node">
<title>Node3</title>
<g id="a_node3"><a xlink:href="group__grp__geometry.html#gaaca20aa60eaf39055f3c9d5c02a24ac2" target="_top" xlink:title="Calculates coordinates, , and metrics, using FFTs.">
<polygon fill="white" stroke="black" points="81,-0.5 81,-19.5 127,-19.5 127,-0.5 81,-0.5"/>
<text text-anchor="middle" x="104" y="-7.5" font-family="Helvetica,sans-Serif" font-size="10.00">coords</text>
</a>
</g>
</g>
<!-- Node1&#45;&gt;Node3 -->
<g id="edge2" class="edge">
<title>Node1&#45;&gt;Node3</title>
<path fill="none" stroke="midnightblue" d="M43.56,-38.41C52.69,-34.05 63.68,-28.79 73.71,-24"/>
<polygon fill="midnightblue" stroke="midnightblue" points="75.43,-27.06 82.95,-19.59 72.41,-20.74 75.43,-27.06"/>
</g>
<!-- Node4 -->
<g id="node4" class="node">
<title>Node4</title>
<g id="a_node4"><a xlink:href="group__grp__numerics.html#ga1fd52accb0646f535f9bcc46cf5a68f3" target="_top" xlink:title="Inverse Fourier transform (fftw wrapper)">
<polygon fill="white" stroke="black" points="168,-38.5 168,-57.5 206,-57.5 206,-38.5 168,-38.5"/>
<text text-anchor="middle" x="187" y="-45.5" font-family="Helvetica,sans-Serif" font-size="10.00">invfft</text>
</a>
</g>
</g>
<!-- Node1&#45;&gt;Node4 -->
<g id="edge6" class="edge">
<title>Node1&#45;&gt;Node4</title>
<path fill="none" stroke="midnightblue" d="M45.08,-48C74.09,-48 125.72,-48 157.78,-48"/>
<polygon fill="midnightblue" stroke="midnightblue" points="157.84,-51.5 167.84,-48 157.84,-44.5 157.84,-51.5"/>
</g>
<!-- Node3&#45;&gt;Node4 -->
<g id="edge3" class="edge">
<title>Node3&#45;&gt;Node4</title>
<path fill="none" stroke="midnightblue" d="M125.44,-19.59C135.52,-24.32 147.81,-30.08 158.68,-35.18"/>
<polygon fill="midnightblue" stroke="midnightblue" points="157.24,-38.37 167.78,-39.45 160.21,-32.04 157.24,-38.37"/>
</g>
<!-- Node5 -->
<g id="node5" class="node">
<title>Node5</title>
<g id="a_node5"><a xlink:href="group__grp__volume.html#gae4c62d20b8fef07f4471b5b0889ab005" target="_top" xlink:title="Computes volume of each region; and, if required, the derivatives of the volume with respect to the i...">
<polygon fill="white" stroke="black" points="163,-0.5 163,-19.5 211,-19.5 211,-0.5 163,-0.5"/>
<text text-anchor="middle" x="187" y="-7.5" font-family="Helvetica,sans-Serif" font-size="10.00">volume</text>
</a>
</g>
</g>
<!-- Node3&#45;&gt;Node5 -->
<g id="edge4" class="edge">
<title>Node3&#45;&gt;Node5</title>
<path fill="none" stroke="midnightblue" d="M127.13,-3.91C134.99,-3.3 144.02,-3.12 152.61,-3.34"/>
<polygon fill="midnightblue" stroke="midnightblue" points="152.61,-6.85 162.76,-3.83 152.94,0.15 152.61,-6.85"/>
</g>
<!-- Node5&#45;&gt;Node3 -->
<g id="edge5" class="edge">
<title>Node5&#45;&gt;Node3</title>
<path fill="none" stroke="midnightblue" d="M162.76,-16.17C154.8,-16.74 145.74,-16.89 137.19,-16.62"/>
<polygon fill="midnightblue" stroke="midnightblue" points="137.3,-13.12 127.13,-16.09 136.94,-20.11 137.3,-13.12"/>
</g>
</g>
</svg>
