<?xml version="1.0" encoding="UTF-8" standalone="no"?>
<!DOCTYPE svg PUBLIC "-//W3C//DTD SVG 1.1//EN"
 "http://www.w3.org/Graphics/SVG/1.1/DTD/svg11.dtd">
<!-- Generated by graphviz version 2.49.3 (20211027.1534)
 -->
<!-- Title: curent Pages: 1 -->
<svg width="914pt" height="508pt"
 viewBox="0.00 0.00 914.00 508.00" xmlns="http://www.w3.org/2000/svg" xmlns:xlink="http://www.w3.org/1999/xlink">
<g id="graph0" class="graph" transform="scale(1 1) rotate(0) translate(4 504)">
<title>curent</title>
<polygon fill="white" stroke="transparent" points="-4,4 -4,-504 910,-504 910,4 -4,4"/>
<!-- Node1 -->
<g id="node1" class="node">
<title>Node1</title>
<g id="a_node1"><a xlink:title="Computes the plasma current, , and the &quot;linking&quot; current, .">
<polygon fill="#bfbfbf" stroke="black" points="862,-28.5 862,-47.5 906,-47.5 906,-28.5 862,-28.5"/>
<text text-anchor="middle" x="884" y="-35.5" font-family="Helvetica,sans-Serif" font-size="10.00">curent</text>
</a>
</g>
</g>
<!-- Node1&#45;&gt;Node1 -->
<g id="edge1" class="edge">
<title>Node1&#45;&gt;Node1</title>
<path fill="none" stroke="midnightblue" d="M899.1,-57.77C897.91,-62.5 892.88,-66 884,-66 869.43,-66 865.21,-56.57 871.36,-47.76"/>
<polygon fill="midnightblue" stroke="midnightblue" points="902.43,-56.63 896.64,-47.76 895.63,-58.3 902.43,-56.63"/>
</g>
<!-- Node2 -->
<g id="node2" class="node">
<title>Node2</title>
<g id="a_node2"><a xlink:href="dfp100_8f90.html#a17a3ac15cc83994394f7b4cc05e5898e" target="_top" xlink:title="Split the work between MPI nodes and evaluate the global constraint.">
<polygon fill="white" stroke="black" points="606,-47.5 606,-66.5 652,-66.5 652,-47.5 606,-47.5"/>
<text text-anchor="middle" x="629" y="-54.5" font-family="Helvetica,sans-Serif" font-size="10.00">dfp100</text>
</a>
</g>
</g>
<!-- Node1&#45;&gt;Node2 -->
<g id="edge2" class="edge">
<title>Node1&#45;&gt;Node2</title>
<path fill="none" stroke="midnightblue" d="M851.61,-40.36C799.76,-44.25 697.5,-51.93 652.34,-55.32"/>
<polygon fill="midnightblue" stroke="midnightblue" points="852.15,-43.83 861.86,-39.59 851.63,-36.85 852.15,-43.83"/>
</g>
<!-- Node17 -->
<g id="node17" class="node">
<title>Node17</title>
<g id="a_node17"><a xlink:href="dfp200_8f90.html#a73ddf39ecc5228201fb643779e17cd36" target="_top" xlink:title="Evaluate mu and psip derivatives and store them in dmupfdx.">
<polygon fill="white" stroke="black" points="140,-28.5 140,-47.5 235,-47.5 235,-28.5 140,-28.5"/>
<text text-anchor="middle" x="187.5" y="-35.5" font-family="Helvetica,sans-Serif" font-size="10.00">evaluate_dmupfdx</text>
</a>
</g>
</g>
<!-- Node1&#45;&gt;Node17 -->
<g id="edge51" class="edge">
<title>Node1&#45;&gt;Node17</title>
<path fill="none" stroke="midnightblue" d="M852.15,-26.72C818.72,-15.52 763.55,0 714.5,0 714.5,0 714.5,0 426.5,0 354.53,0 271.83,-17.15 225.31,-28.41"/>
<polygon fill="midnightblue" stroke="midnightblue" points="851.21,-30.09 861.8,-30.03 853.48,-23.47 851.21,-30.09"/>
</g>
<!-- Node22 -->
<g id="node22" class="node">
<title>Node22</title>
<g id="a_node22"><a xlink:href="group__grp__solver.html#ga6626839aff500f060beb5bce2b90c447" target="_top" xlink:title="Solves Beltrami/vacuum (linear) system, given matrices.unpacking fluxes, helicity multiplier">
<polygon fill="white" stroke="black" points="775,-66.5 775,-85.5 826,-85.5 826,-66.5 775,-66.5"/>
<text text-anchor="middle" x="800.5" y="-73.5" font-family="Helvetica,sans-Serif" font-size="10.00">mp00ac</text>
</a>
</g>
</g>
<!-- Node1&#45;&gt;Node22 -->
<g id="edge52" class="edge">
<title>Node1&#45;&gt;Node22</title>
<path fill="none" stroke="midnightblue" d="M853.29,-51.85C842.92,-56.69 831.52,-62 822.06,-66.41"/>
<polygon fill="midnightblue" stroke="midnightblue" points="854.85,-54.99 862.43,-47.59 851.89,-48.64 854.85,-54.99"/>
</g>
<!-- Node2&#45;&gt;Node2 -->
<g id="edge49" class="edge">
<title>Node2&#45;&gt;Node2</title>
<path fill="none" stroke="midnightblue" d="M643.73,-76.77C642.58,-81.5 637.66,-85 629,-85 614.78,-85 610.67,-75.57 616.67,-66.76"/>
<polygon fill="midnightblue" stroke="midnightblue" points="647.07,-75.66 641.33,-66.76 640.26,-77.3 647.07,-75.66"/>
</g>
<!-- Node3 -->
<g id="node3" class="node">
<title>Node3</title>
<g id="a_node3"><a xlink:href="group__grp__global__force.html#ga38c9d3c50bd043707fefa5137c9dbf44" target="_top" xlink:title="Calculates , where &#160;and , and .">
<polygon fill="white" stroke="black" points="526,-236.5 526,-255.5 570,-255.5 570,-236.5 526,-236.5"/>
<text text-anchor="middle" x="548" y="-243.5" font-family="Helvetica,sans-Serif" font-size="10.00">dforce</text>
</a>
</g>
</g>
<!-- Node2&#45;&gt;Node3 -->
<g id="edge3" class="edge">
<title>Node2&#45;&gt;Node3</title>
<path fill="none" stroke="midnightblue" d="M620.07,-75.97C603.49,-115.64 565.64,-206.19 553.11,-236.16"/>
<polygon fill="midnightblue" stroke="midnightblue" points="623.35,-77.21 623.97,-66.63 616.89,-74.51 623.35,-77.21"/>
</g>
<!-- Node2&#45;&gt;Node17 -->
<g id="edge50" class="edge">
<title>Node2&#45;&gt;Node17</title>
<path fill="none" stroke="midnightblue" d="M595.88,-55.61C519.17,-52.3 325.02,-43.9 235.29,-40.02"/>
<polygon fill="midnightblue" stroke="midnightblue" points="595.76,-59.11 605.9,-56.04 596.06,-52.12 595.76,-59.11"/>
</g>
<!-- Node3&#45;&gt;Node3 -->
<g id="edge15" class="edge">
<title>Node3&#45;&gt;Node3</title>
<path fill="none" stroke="midnightblue" d="M562.73,-265.77C561.58,-270.5 556.66,-274 548,-274 533.78,-274 529.67,-264.57 535.67,-255.76"/>
<polygon fill="midnightblue" stroke="midnightblue" points="566.07,-264.66 560.33,-255.76 559.26,-266.3 566.07,-264.66"/>
</g>
<!-- Node4 -->
<g id="node4" class="node">
<title>Node4</title>
<g id="a_node4"><a xlink:href="namespaceallglobal.html#a7824bc37519fe88336534ce90ab2af16" target="_top" xlink:title=" ">
<polygon fill="white" stroke="black" points="370.5,-438.5 370.5,-457.5 484.5,-457.5 484.5,-438.5 370.5,-438.5"/>
<text text-anchor="middle" x="427.5" y="-445.5" font-family="Helvetica,sans-Serif" font-size="10.00">allglobal::check_inputs</text>
</a>
</g>
</g>
<!-- Node3&#45;&gt;Node4 -->
<g id="edge4" class="edge">
<title>Node3&#45;&gt;Node4</title>
<path fill="none" stroke="midnightblue" d="M546.06,-265.7C543.32,-301.74 532.51,-378.76 490,-424 484.11,-430.26 476.4,-434.92 468.43,-438.37"/>
<polygon fill="midnightblue" stroke="midnightblue" points="549.57,-265.72 546.7,-255.52 542.58,-265.29 549.57,-265.72"/>
</g>
<!-- Node7 -->
<g id="node7" class="node">
<title>Node7</title>
<g id="a_node7"><a xlink:href="xspech_8f90.html#a48f45478dc2c9f70ea8aa1c60ad06503" target="_top" xlink:title="This is the main &quot;driver&quot; for the physics part of SPEC.">
<polygon fill="white" stroke="black" points="168.5,-330.5 168.5,-349.5 206.5,-349.5 206.5,-330.5 168.5,-330.5"/>
<text text-anchor="middle" x="187.5" y="-337.5" font-family="Helvetica,sans-Serif" font-size="10.00">spec</text>
</a>
</g>
</g>
<!-- Node3&#45;&gt;Node7 -->
<g id="edge48" class="edge">
<title>Node3&#45;&gt;Node7</title>
<path fill="none" stroke="midnightblue" d="M516.01,-250.12C443.47,-265.23 264.41,-312.45 206.73,-332.04"/>
<polygon fill="midnightblue" stroke="midnightblue" points="516.8,-253.53 525.91,-248.13 515.42,-246.67 516.8,-253.53"/>
</g>
<!-- Node10 -->
<g id="node10" class="node">
<title>Node10</title>
<g id="a_node10"><a xlink:href="group__grp__force__driver.html#gabbc245b3884ee8d8d3e2a52f25149f78" target="_top" xlink:title="Objective to be given to the Newton solver, using only function values.">
<polygon fill="white" stroke="black" points="410,-142.5 410,-161.5 445,-161.5 445,-142.5 410,-142.5"/>
<text text-anchor="middle" x="427.5" y="-149.5" font-family="Helvetica,sans-Serif" font-size="10.00">fcn1</text>
</a>
</g>
</g>
<!-- Node3&#45;&gt;Node10 -->
<g id="edge16" class="edge">
<title>Node3&#45;&gt;Node10</title>
<path fill="none" stroke="midnightblue" d="M529.99,-229.32C518.94,-218.78 504.03,-205.1 490,-194 474.89,-182.05 456.54,-169.78 443.83,-161.61"/>
<polygon fill="midnightblue" stroke="midnightblue" points="527.66,-231.93 537.28,-236.35 532.52,-226.89 527.66,-231.93"/>
</g>
<!-- Node11 -->
<g id="node11" class="node">
<title>Node11</title>
<g id="a_node11"><a xlink:href="group__grp__force__driver.html#gaec14f81fbdbedafbc4189489ec8ae178" target="_top" xlink:title="Employs Newton method to find , where &#160;and &#160;is defined in dforce() .">
<polygon fill="white" stroke="black" points="281,-161.5 281,-180.5 329,-180.5 329,-161.5 281,-161.5"/>
<text text-anchor="middle" x="305" y="-168.5" font-family="Helvetica,sans-Serif" font-size="10.00">newton</text>
</a>
</g>
</g>
<!-- Node3&#45;&gt;Node11 -->
<g id="edge43" class="edge">
<title>Node3&#45;&gt;Node11</title>
<path fill="none" stroke="midnightblue" d="M515.86,-236.31C466.8,-221.04 372.62,-191.73 329.09,-178.19"/>
<polygon fill="midnightblue" stroke="midnightblue" points="515.02,-239.71 525.61,-239.34 517.1,-233.03 515.02,-239.71"/>
</g>
<!-- Node12 -->
<g id="node12" class="node">
<title>Node12</title>
<g id="a_node12"><a xlink:href="group__grp__force__driver.html#ga8ccd6c7d901872702521d0a0edf95412" target="_top" xlink:title="Objective to be given to the Newton solver, using function values and derivatives.">
<polygon fill="white" stroke="black" points="29.5,-189.5 29.5,-208.5 64.5,-208.5 64.5,-189.5 29.5,-189.5"/>
<text text-anchor="middle" x="47" y="-196.5" font-family="Helvetica,sans-Serif" font-size="10.00">fcn2</text>
</a>
</g>
</g>
<!-- Node3&#45;&gt;Node12 -->
<g id="edge28" class="edge">
<title>Node3&#45;&gt;Node12</title>
<path fill="none" stroke="midnightblue" d="M515.74,-243.06C420.56,-234.09 136.46,-207.33 64.64,-200.57"/>
<polygon fill="midnightblue" stroke="midnightblue" points="515.59,-246.56 525.88,-244.01 516.25,-239.59 515.59,-246.56"/>
</g>
<!-- Node14 -->
<g id="node14" class="node">
<title>Node14</title>
<g id="a_node14"><a xlink:href="dfp200_8f90.html#a6aca59cf350d7b1941f8389d50945a43" target="_top" xlink:title="get LU Beltrami matrices">
<polygon fill="white" stroke="black" points="365,-104.5 365,-123.5 490,-123.5 490,-104.5 365,-104.5"/>
<text text-anchor="middle" x="427.5" y="-111.5" font-family="Helvetica,sans-Serif" font-size="10.00">get_lu_beltrami_matrices</text>
</a>
</g>
</g>
<!-- Node3&#45;&gt;Node14 -->
<g id="edge29" class="edge">
<title>Node3&#45;&gt;Node14</title>
<path fill="none" stroke="midnightblue" d="M542.22,-226.34C535.08,-201.12 519.24,-157.71 490,-133 485.39,-129.1 479.99,-126.01 474.34,-123.55"/>
<polygon fill="midnightblue" stroke="midnightblue" points="538.89,-227.44 544.83,-236.22 545.66,-225.65 538.89,-227.44"/>
</g>
<!-- Node19 -->
<g id="node19" class="node">
<title>Node19</title>
<g id="a_node19"><a xlink:href="group__grp__output.html#ga7401b50ec10c6598ee4a8112717a63ec" target="_top" xlink:title="Computes eigenvalues and eigenvectors of derivative matrix, &#160;and saves them to .ext....">
<polygon fill="white" stroke="black" points="282.5,-330.5 282.5,-349.5 327.5,-349.5 327.5,-330.5 282.5,-330.5"/>
<text text-anchor="middle" x="305" y="-337.5" font-family="Helvetica,sans-Serif" font-size="10.00">hesian</text>
</a>
</g>
</g>
<!-- Node3&#45;&gt;Node19 -->
<g id="edge40" class="edge">
<title>Node3&#45;&gt;Node19</title>
<path fill="none" stroke="midnightblue" d="M537.38,-264.41C527.74,-280.86 511.28,-304.13 490,-316 437.52,-345.25 363.85,-344.62 327.72,-342.12"/>
<polygon fill="midnightblue" stroke="midnightblue" points="540.45,-266.1 542.26,-255.66 534.33,-262.69 540.45,-266.1"/>
</g>
<!-- Node20 -->
<g id="node20" class="node">
<title>Node20</title>
<g id="a_node20"><a xlink:href="group__grp__conjugate__gradient.html#ga4d8415226e62a9fdb42b0fd0b464251e" target="_top" xlink:title="Returns the energy functional and it&#39;s derivatives with respect to geometry.">
<polygon fill="white" stroke="black" points="403.5,-377.5 403.5,-396.5 451.5,-396.5 451.5,-377.5 403.5,-377.5"/>
<text text-anchor="middle" x="427.5" y="-384.5" font-family="Helvetica,sans-Serif" font-size="10.00">pc00ab</text>
</a>
</g>
</g>
<!-- Node3&#45;&gt;Node20 -->
<g id="edge44" class="edge">
<title>Node3&#45;&gt;Node20</title>
<path fill="none" stroke="midnightblue" d="M540.87,-265.02C532.54,-288.4 515.65,-328.17 490,-354 479.24,-364.83 464.17,-373 451.65,-378.49"/>
<polygon fill="midnightblue" stroke="midnightblue" points="544.19,-266.13 544.1,-255.53 537.57,-263.87 544.19,-266.13"/>
</g>
<!-- Node5 -->
<g id="node5" class="node">
<title>Node5</title>
<g id="a_node5"><a xlink:href="xspech_8f90.html#a9fdc71dffd7c61ee4588a3f80d3ab9ce" target="_top" xlink:title="Main subroutine of SPEC.">
<polygon fill="white" stroke="black" points="281.5,-442.5 281.5,-461.5 328.5,-461.5 328.5,-442.5 281.5,-442.5"/>
<text text-anchor="middle" x="305" y="-449.5" font-family="Helvetica,sans-Serif" font-size="10.00">xspech</text>
</a>
</g>
</g>
<!-- Node4&#45;&gt;Node5 -->
<g id="edge5" class="edge">
<title>Node4&#45;&gt;Node5</title>
<path fill="none" stroke="midnightblue" d="M360.45,-450.19C349.06,-450.57 337.95,-450.94 328.77,-451.24"/>
<polygon fill="midnightblue" stroke="midnightblue" points="360.6,-453.69 370.48,-449.86 360.37,-446.69 360.6,-453.69"/>
</g>
<!-- Node5&#45;&gt;Node5 -->
<g id="edge14" class="edge">
<title>Node5&#45;&gt;Node5</title>
<path fill="none" stroke="midnightblue" d="M326.48,-471.4C325.05,-476.31 317.89,-480 305,-480 284.38,-480 278.42,-470.57 287.12,-461.76"/>
<polygon fill="midnightblue" stroke="midnightblue" points="329.66,-469.9 322.88,-461.76 323.1,-472.35 329.66,-469.9"/>
</g>
<!-- Node6 -->
<g id="node6" class="node">
<title>Node6</title>
<g id="a_node6"><a xlink:href="xspech_8f90.html#a1451823a7b97101a797de616250752c1" target="_top" xlink:title="Final diagnostics.">
<polygon fill="white" stroke="black" points="143,-442.5 143,-461.5 232,-461.5 232,-442.5 143,-442.5"/>
<text text-anchor="middle" x="187.5" y="-449.5" font-family="Helvetica,sans-Serif" font-size="10.00">final_diagnostics</text>
</a>
</g>
</g>
<!-- Node5&#45;&gt;Node6 -->
<g id="edge6" class="edge">
<title>Node5&#45;&gt;Node6</title>
<path fill="none" stroke="midnightblue" d="M271.29,-445.85C259.09,-445.23 245.05,-445.09 232.04,-445.44"/>
<polygon fill="midnightblue" stroke="midnightblue" points="271.25,-449.35 281.46,-446.52 271.71,-442.37 271.25,-449.35"/>
</g>
<!-- Node5&#45;&gt;Node7 -->
<g id="edge8" class="edge">
<title>Node5&#45;&gt;Node7</title>
<path fill="none" stroke="midnightblue" d="M292.4,-434.91C288.58,-431.33 284.43,-427.7 281,-424 262.14,-403.65 264.38,-392.86 245,-373 233.48,-361.19 218.39,-350.16 206.71,-343.68"/>
<polygon fill="midnightblue" stroke="midnightblue" points="289.98,-437.45 299.46,-442.18 295.01,-432.57 289.98,-437.45"/>
</g>
<!-- Node9 -->
<g id="node9" class="node">
<title>Node9</title>
<g id="a_node9"><a xlink:href="xspech_8f90.html#a95271e8805067f801b5d4e524d6901d4" target="_top" xlink:title="Main program of SPEC.">
<polygon fill="white" stroke="black" points="155.5,-480.5 155.5,-499.5 219.5,-499.5 219.5,-480.5 155.5,-480.5"/>
<text text-anchor="middle" x="187.5" y="-487.5" font-family="Helvetica,sans-Serif" font-size="10.00">spec_main</text>
</a>
</g>
</g>
<!-- Node5&#45;&gt;Node9 -->
<g id="edge13" class="edge">
<title>Node5&#45;&gt;Node9</title>
<path fill="none" stroke="midnightblue" d="M271.92,-462.55C254.89,-468.16 234.12,-474.99 217.57,-480.44"/>
<polygon fill="midnightblue" stroke="midnightblue" points="273.05,-465.87 281.46,-459.42 270.86,-459.22 273.05,-465.87"/>
</g>
<!-- Node6&#45;&gt;Node5 -->
<g id="edge7" class="edge">
<title>Node6&#45;&gt;Node5</title>
<path fill="none" stroke="midnightblue" d="M242.05,-458.73C255.94,-458.84 270.15,-458.42 281.46,-457.48"/>
<polygon fill="midnightblue" stroke="midnightblue" points="242.09,-455.23 232.04,-458.56 241.98,-462.23 242.09,-455.23"/>
</g>
<!-- Node7&#45;&gt;Node3 -->
<g id="edge9" class="edge">
<title>Node7&#45;&gt;Node3</title>
<path fill="none" stroke="midnightblue" d="M216.95,-336.4C286.63,-322.13 464.65,-275.3 525.91,-254.92"/>
<polygon fill="midnightblue" stroke="midnightblue" points="215.87,-333.05 206.73,-338.4 217.21,-339.92 215.87,-333.05"/>
</g>
<!-- Node7&#45;&gt;Node5 -->
<g id="edge12" class="edge">
<title>Node7&#45;&gt;Node5</title>
<path fill="none" stroke="midnightblue" d="M203.03,-356.14C215.07,-365.77 232.22,-377.91 245,-391 264.38,-410.86 262.14,-421.65 281,-442 281.14,-442.15 281.28,-442.3 281.43,-442.46"/>
<polygon fill="midnightblue" stroke="midnightblue" points="205.2,-353.39 195.3,-349.6 200.68,-358.73 205.2,-353.39"/>
</g>
<!-- Node8 -->
<g id="node8" class="node">
<title>Node8</title>
<g id="a_node8"><a xlink:href="group__grp__output.html#ga0f962c09cd5d5eba99f1cba043cb3898" target="_top" xlink:title="Initialize the interface to the HDF5 library and open the output file.">
<polygon fill="white" stroke="black" points="0,-358.5 0,-377.5 94,-377.5 94,-358.5 0,-358.5"/>
<text text-anchor="middle" x="47" y="-365.5" font-family="Helvetica,sans-Serif" font-size="10.00">sphdf5::init_outfile</text>
</a>
</g>
</g>
<!-- Node7&#45;&gt;Node8 -->
<g id="edge10" class="edge">
<title>Node7&#45;&gt;Node8</title>
<path fill="none" stroke="midnightblue" d="M158.57,-345.65C140.1,-349.38 115.46,-354.36 94.12,-358.68"/>
<polygon fill="midnightblue" stroke="midnightblue" points="159.29,-349.07 168.39,-343.66 157.9,-342.21 159.29,-349.07"/>
</g>
<!-- Node8&#45;&gt;Node5 -->
<g id="edge11" class="edge">
<title>Node8&#45;&gt;Node5</title>
<path fill="none" stroke="midnightblue" d="M86.85,-380.75C141.02,-398.52 237.51,-430.18 281.28,-444.55"/>
<polygon fill="midnightblue" stroke="midnightblue" points="87.84,-377.39 77.25,-377.6 85.66,-384.04 87.84,-377.39"/>
</g>
<!-- Node10&#45;&gt;Node10 -->
<g id="edge17" class="edge">
<title>Node10&#45;&gt;Node10</title>
<path fill="none" stroke="midnightblue" d="M450,-169.73C449.8,-175.46 442.3,-180 427.5,-180 405.47,-180 399.62,-169.93 409.94,-160.89"/>
<polygon fill="midnightblue" stroke="midnightblue" points="452.99,-167.91 445.06,-160.89 446.88,-171.33 452.99,-167.91"/>
</g>
<!-- Node10&#45;&gt;Node11 -->
<g id="edge18" class="edge">
<title>Node10&#45;&gt;Node11</title>
<path fill="none" stroke="midnightblue" d="M399.51,-150.52C378.38,-152.41 349.31,-157.09 329.22,-161.88"/>
<polygon fill="midnightblue" stroke="midnightblue" points="400.02,-153.99 409.74,-149.8 399.52,-147.01 400.02,-153.99"/>
</g>
<!-- Node11&#45;&gt;Node7 -->
<g id="edge24" class="edge">
<title>Node11&#45;&gt;Node7</title>
<path fill="none" stroke="midnightblue" d="M291.69,-189.01C267.42,-224.52 214.1,-302.55 195.26,-330.11"/>
<polygon fill="midnightblue" stroke="midnightblue" points="294.71,-190.8 297.46,-180.57 288.93,-186.85 294.71,-190.8"/>
</g>
<!-- Node11&#45;&gt;Node10 -->
<g id="edge19" class="edge">
<title>Node11&#45;&gt;Node10</title>
<path fill="none" stroke="midnightblue" d="M339.21,-171.87C362.11,-169.43 391.58,-164.36 409.74,-159.49"/>
<polygon fill="midnightblue" stroke="midnightblue" points="338.85,-168.39 329.22,-172.8 339.5,-175.36 338.85,-168.39"/>
</g>
<!-- Node11&#45;&gt;Node11 -->
<g id="edge23" class="edge">
<title>Node11&#45;&gt;Node11</title>
<path fill="none" stroke="midnightblue" d="M326.48,-190.4C325.05,-195.31 317.89,-199 305,-199 284.38,-199 278.42,-189.57 287.12,-180.76"/>
<polygon fill="midnightblue" stroke="midnightblue" points="329.66,-188.9 322.88,-180.76 323.1,-191.35 329.66,-188.9"/>
</g>
<!-- Node11&#45;&gt;Node12 -->
<g id="edge20" class="edge">
<title>Node11&#45;&gt;Node12</title>
<path fill="none" stroke="midnightblue" d="M270.84,-169.91C215.53,-172.9 106.41,-185.23 64.72,-193.62"/>
<polygon fill="midnightblue" stroke="midnightblue" points="271,-173.41 280.83,-169.45 270.68,-166.42 271,-173.41"/>
</g>
<!-- Node13 -->
<g id="node13" class="node">
<title>Node13</title>
<g id="a_node13"><a xlink:href="group__grp__output.html#ga382822b303cbf8c56d6f54dcb379caf2" target="_top" xlink:title="read or write force&#45;derivative matrix .ext.sp.DF">
<polygon fill="white" stroke="black" points="155,-142.5 155,-161.5 220,-161.5 220,-142.5 155,-142.5"/>
<text text-anchor="middle" x="187.5" y="-149.5" font-family="Helvetica,sans-Serif" font-size="10.00">writereadgf</text>
</a>
</g>
</g>
<!-- Node11&#45;&gt;Node13 -->
<g id="edge25" class="edge">
<title>Node11&#45;&gt;Node13</title>
<path fill="none" stroke="midnightblue" d="M270.96,-159.4C255.05,-155.98 236.05,-152.88 220.3,-151.13"/>
<polygon fill="midnightblue" stroke="midnightblue" points="270.38,-162.85 280.9,-161.67 271.94,-156.03 270.38,-162.85"/>
</g>
<!-- Node12&#45;&gt;Node11 -->
<g id="edge22" class="edge">
<title>Node12&#45;&gt;Node11</title>
<path fill="none" stroke="midnightblue" d="M74.85,-200.4C125.28,-198.19 233.36,-186.28 280.83,-177.61"/>
<polygon fill="midnightblue" stroke="midnightblue" points="74.61,-196.9 64.72,-200.72 74.83,-203.9 74.61,-196.9"/>
</g>
<!-- Node12&#45;&gt;Node12 -->
<g id="edge21" class="edge">
<title>Node12&#45;&gt;Node12</title>
<path fill="none" stroke="midnightblue" d="M72.47,-213.41C76,-220.59 67.51,-227 47,-227 19.66,-227 13.67,-215.61 29.06,-206.17"/>
<polygon fill="midnightblue" stroke="midnightblue" points="74.58,-210.58 64.94,-206.17 69.73,-215.62 74.58,-210.58"/>
</g>
<!-- Node13&#45;&gt;Node11 -->
<g id="edge27" class="edge">
<title>Node13&#45;&gt;Node11</title>
<path fill="none" stroke="midnightblue" d="M222.33,-163.77C241.16,-167.78 264.13,-171.33 280.9,-172.73"/>
<polygon fill="midnightblue" stroke="midnightblue" points="222.88,-160.31 212.35,-161.51 221.33,-167.13 222.88,-160.31"/>
</g>
<!-- Node13&#45;&gt;Node12 -->
<g id="edge26" class="edge">
<title>Node13&#45;&gt;Node12</title>
<path fill="none" stroke="midnightblue" d="M148.77,-164.8C121.28,-174.13 85.37,-186.32 64.68,-193.34"/>
<polygon fill="midnightblue" stroke="midnightblue" points="150.13,-168.04 158.47,-161.51 147.88,-161.41 150.13,-168.04"/>
</g>
<!-- Node15 -->
<g id="node15" class="node">
<title>Node15</title>
<g id="a_node15"><a xlink:href="dfp200_8f90.html#a55ea75395f8c71731451e1add3720c7e" target="_top" xlink:title="Given the field consistent with the constraints and the geometry, computes local quantites related to...">
<polygon fill="white" stroke="black" points="282,-66.5 282,-85.5 328,-85.5 328,-66.5 282,-66.5"/>
<text text-anchor="middle" x="305" y="-73.5" font-family="Helvetica,sans-Serif" font-size="10.00">dfp200</text>
</a>
</g>
</g>
<!-- Node14&#45;&gt;Node15 -->
<g id="edge30" class="edge">
<title>Node14&#45;&gt;Node15</title>
<path fill="none" stroke="midnightblue" d="M401.27,-100.43C379.71,-92.04 348.99,-82.43 328.32,-77.66"/>
<polygon fill="midnightblue" stroke="midnightblue" points="400.17,-103.76 410.75,-104.3 402.81,-97.28 400.17,-103.76"/>
</g>
<!-- Node15&#45;&gt;Node3 -->
<g id="edge31" class="edge">
<title>Node15&#45;&gt;Node3</title>
<path fill="none" stroke="midnightblue" d="M338.21,-69.92C378.13,-64.31 446.21,-61.27 490,-95 536.39,-130.74 545.03,-208.77 546.63,-236.21"/>
<polygon fill="midnightblue" stroke="midnightblue" points="337.57,-66.48 328.23,-71.46 338.64,-73.39 337.57,-66.48"/>
</g>
<!-- Node15&#45;&gt;Node14 -->
<g id="edge37" class="edge">
<title>Node15&#45;&gt;Node14</title>
<path fill="none" stroke="midnightblue" d="M330.78,-89.39C343.58,-94.39 359.7,-99.85 375.05,-104.46"/>
<polygon fill="midnightblue" stroke="midnightblue" points="331.88,-86.06 321.3,-85.5 329.22,-92.54 331.88,-86.06"/>
</g>
<!-- Node15&#45;&gt;Node15 -->
<g id="edge32" class="edge">
<title>Node15&#45;&gt;Node15</title>
<path fill="none" stroke="midnightblue" d="M326.48,-95.4C325.05,-100.31 317.89,-104 305,-104 284.38,-104 278.42,-94.57 287.12,-85.76"/>
<polygon fill="midnightblue" stroke="midnightblue" points="329.66,-93.9 322.88,-85.76 323.1,-96.35 329.66,-93.9"/>
</g>
<!-- Node16 -->
<g id="node16" class="node">
<title>Node16</title>
<g id="a_node16"><a xlink:href="dfp200_8f90.html#a7b64c7392b45d0042d8bd7379c0761a5" target="_top" xlink:title="Evaluate the derivative of the square of the magnetic field modulus. Add spectral constraint derivati...">
<polygon fill="white" stroke="black" points="150.5,-104.5 150.5,-123.5 224.5,-123.5 224.5,-104.5 150.5,-104.5"/>
<text text-anchor="middle" x="187.5" y="-111.5" font-family="Helvetica,sans-Serif" font-size="10.00">evaluate_dbb</text>
</a>
</g>
</g>
<!-- Node15&#45;&gt;Node16 -->
<g id="edge33" class="edge">
<title>Node15&#45;&gt;Node16</title>
<path fill="none" stroke="midnightblue" d="M271.95,-80.43C249.52,-86.63 220.6,-96.61 203.36,-104.41"/>
<polygon fill="midnightblue" stroke="midnightblue" points="272.94,-83.79 281.73,-77.87 271.17,-77.01 272.94,-83.79"/>
</g>
<!-- Node15&#45;&gt;Node17 -->
<g id="edge35" class="edge">
<title>Node15&#45;&gt;Node17</title>
<path fill="none" stroke="midnightblue" d="M279.35,-62.24C266.45,-57.03 250.22,-51.36 235.06,-46.68"/>
<polygon fill="midnightblue" stroke="midnightblue" points="278.33,-65.61 288.9,-66.3 281.07,-59.17 278.33,-65.61"/>
</g>
<!-- Node18 -->
<g id="node18" class="node">
<title>Node18</title>
<g id="a_node18"><a xlink:href="dfp200_8f90.html#a5e56f1f4b1e6df11a9cffa6237c37469" target="_top" xlink:title="This routine evaluates the value of the magnetic field once the interface is perturbed using matrix p...">
<polygon fill="white" stroke="black" points="130,-66.5 130,-85.5 245,-85.5 245,-66.5 130,-66.5"/>
<text text-anchor="middle" x="187.5" y="-73.5" font-family="Helvetica,sans-Serif" font-size="10.00">get_perturbed_solution</text>
</a>
</g>
</g>
<!-- Node15&#45;&gt;Node18 -->
<g id="edge38" class="edge">
<title>Node15&#45;&gt;Node18</title>
<path fill="none" stroke="midnightblue" d="M271.51,-69.86C263.3,-69.44 254.25,-69.23 245.23,-69.25"/>
<polygon fill="midnightblue" stroke="midnightblue" points="271.52,-73.37 281.73,-70.54 271.99,-66.38 271.52,-73.37"/>
</g>
<!-- Node16&#45;&gt;Node15 -->
<g id="edge34" class="edge">
<title>Node16&#45;&gt;Node15</title>
<path fill="none" stroke="midnightblue" d="M234.59,-105.46C253.93,-99.52 275.09,-91.92 288.9,-85.7"/>
<polygon fill="midnightblue" stroke="midnightblue" points="233.57,-102.11 224.99,-108.32 235.57,-108.82 233.57,-102.11"/>
</g>
<!-- Node17&#45;&gt;Node15 -->
<g id="edge36" class="edge">
<title>Node17&#45;&gt;Node15</title>
<path fill="none" stroke="midnightblue" d="M212.59,-51.53C232.96,-59.81 261.9,-69.28 281.73,-74.13"/>
<polygon fill="midnightblue" stroke="midnightblue" points="213.93,-48.3 203.36,-47.59 211.19,-54.74 213.93,-48.3"/>
</g>
<!-- Node18&#45;&gt;Node15 -->
<g id="edge39" class="edge">
<title>Node18&#45;&gt;Node15</title>
<path fill="none" stroke="midnightblue" d="M255.23,-82.68C264.76,-82.52 273.95,-82.11 281.73,-81.46"/>
<polygon fill="midnightblue" stroke="midnightblue" points="255.21,-79.18 245.23,-82.75 255.26,-86.18 255.21,-79.18"/>
</g>
<!-- Node19&#45;&gt;Node7 -->
<g id="edge42" class="edge">
<title>Node19&#45;&gt;Node7</title>
<path fill="none" stroke="midnightblue" d="M272.17,-340C251.1,-340 224.23,-340 206.71,-340"/>
<polygon fill="midnightblue" stroke="midnightblue" points="272.28,-343.5 282.28,-340 272.28,-336.5 272.28,-343.5"/>
</g>
<!-- Node19&#45;&gt;Node19 -->
<g id="edge41" class="edge">
<title>Node19&#45;&gt;Node19</title>
<path fill="none" stroke="midnightblue" d="M326.48,-359.4C325.05,-364.31 317.89,-368 305,-368 284.38,-368 278.42,-358.57 287.12,-349.76"/>
<polygon fill="midnightblue" stroke="midnightblue" points="329.66,-357.9 322.88,-349.76 323.1,-360.35 329.66,-357.9"/>
</g>
<!-- Node20&#45;&gt;Node20 -->
<g id="edge47" class="edge">
<title>Node20&#45;&gt;Node20</title>
<path fill="none" stroke="midnightblue" d="M449.82,-406.03C448.6,-411.13 441.16,-415 427.5,-415 406.17,-415 400.01,-405.57 409,-396.76"/>
<polygon fill="midnightblue" stroke="midnightblue" points="453.05,-404.67 446,-396.76 446.57,-407.34 453.05,-404.67"/>
</g>
<!-- Node21 -->
<g id="node21" class="node">
<title>Node21</title>
<g id="a_node21"><a xlink:href="group__grp__conjugate__gradient.html#ga25a3bae2ff2ee0469b045de0d033398b" target="_top" xlink:title="Use preconditioned conjugate gradient method to find minimum of energy functional.">
<polygon fill="white" stroke="black" points="281,-386.5 281,-405.5 329,-405.5 329,-386.5 281,-386.5"/>
<text text-anchor="middle" x="305" y="-393.5" font-family="Helvetica,sans-Serif" font-size="10.00">pc00aa</text>
</a>
</g>
</g>
<!-- Node20&#45;&gt;Node21 -->
<g id="edge45" class="edge">
<title>Node20&#45;&gt;Node21</title>
<path fill="none" stroke="midnightblue" d="M393.16,-389.49C372.81,-391.01 347.31,-392.91 329.16,-394.27"/>
<polygon fill="midnightblue" stroke="midnightblue" points="393.55,-392.97 403.27,-388.74 393.03,-385.99 393.55,-392.97"/>
</g>
<!-- Node21&#45;&gt;Node21 -->
<g id="edge46" class="edge">
<title>Node21&#45;&gt;Node21</title>
<path fill="none" stroke="midnightblue" d="M326.48,-415.4C325.05,-420.31 317.89,-424 305,-424 284.38,-424 278.42,-414.57 287.12,-405.76"/>
<polygon fill="midnightblue" stroke="midnightblue" points="329.66,-413.9 322.88,-405.76 323.1,-416.35 329.66,-413.9"/>
</g>
<!-- Node22&#45;&gt;Node22 -->
<g id="edge56" class="edge">
<title>Node22&#45;&gt;Node22</title>
<path fill="none" stroke="midnightblue" d="M815.6,-95.77C814.41,-100.5 809.38,-104 800.5,-104 785.93,-104 781.71,-94.57 787.86,-85.76"/>
<polygon fill="midnightblue" stroke="midnightblue" points="818.93,-94.63 813.14,-85.76 812.13,-96.3 818.93,-94.63"/>
</g>
<!-- Node23 -->
<g id="node23" class="node">
<title>Node23</title>
<g id="a_node23"><a xlink:href="group__grp__solver__driver.html#gacad623d4c5c006e9ad10116372f92ad3" target="_top" xlink:title="Constructs Beltrami field in given volume consistent with flux, helicity, rotational&#45;transform and/or...">
<polygon fill="white" stroke="black" points="688,-66.5 688,-85.5 739,-85.5 739,-66.5 688,-66.5"/>
<text text-anchor="middle" x="713.5" y="-73.5" font-family="Helvetica,sans-Serif" font-size="10.00">ma02aa</text>
</a>
</g>
</g>
<!-- Node22&#45;&gt;Node23 -->
<g id="edge53" class="edge">
<title>Node22&#45;&gt;Node23</title>
<path fill="none" stroke="midnightblue" d="M764.72,-76C756.1,-76 747.04,-76 739.03,-76"/>
<polygon fill="midnightblue" stroke="midnightblue" points="764.91,-79.5 774.91,-76 764.91,-72.5 764.91,-79.5"/>
</g>
<!-- Node23&#45;&gt;Node2 -->
<g id="edge54" class="edge">
<title>Node23&#45;&gt;Node2</title>
<path fill="none" stroke="midnightblue" d="M677.84,-68.02C669.17,-66.02 660.09,-63.93 652.21,-62.11"/>
<polygon fill="midnightblue" stroke="midnightblue" points="677.22,-71.47 687.75,-70.3 678.79,-64.64 677.22,-71.47"/>
</g>
<!-- Node23&#45;&gt;Node23 -->
<g id="edge55" class="edge">
<title>Node23&#45;&gt;Node23</title>
<path fill="none" stroke="midnightblue" d="M728.97,-95.77C727.75,-100.5 722.6,-104 713.5,-104 698.57,-104 694.25,-94.57 700.55,-85.76"/>
<polygon fill="midnightblue" stroke="midnightblue" points="732.28,-94.6 726.45,-85.76 725.5,-96.31 732.28,-94.6"/>
</g>
</g>
</svg>
