<?xml version="1.0" encoding="UTF-8" standalone="no"?>
<!DOCTYPE svg PUBLIC "-//W3C//DTD SVG 1.1//EN"
 "http://www.w3.org/Graphics/SVG/1.1/DTD/svg11.dtd">
<!-- Generated by graphviz version 2.47.1 (20210421.1823)
 -->
<!-- Title: Enhanced resolution for transformation to straight&#45;field line angle Pages: 1 -->
<svg width="279pt" height="49pt"
 viewBox="0.00 0.00 279.00 49.00" xmlns="http://www.w3.org/2000/svg" xmlns:xlink="http://www.w3.org/1999/xlink">
<g id="graph0" class="graph" transform="scale(1 1) rotate(0) translate(4 45)">
<title>Enhanced resolution for transformation to straight&#45;field line angle</title>
<polygon fill="white" stroke="transparent" points="-4,4 -4,-45 275,-45 275,4 -4,4"/>
<!-- Node1 -->
<g id="node1" class="node">
<title>Node1</title>
<g id="a_node1"><a xlink:title="Enhanced resolution is required for the transformation to straight&#45;field line angle on the interfaces...">
<polygon fill="#bfbfbf" stroke="black" points="271,-41 146,-41 146,0 271,0 271,-41"/>
<text text-anchor="start" x="154" y="-29" font-family="Helvetica,sans-Serif" font-size="10.00">Enhanced resolution</text>
<text text-anchor="start" x="154" y="-18" font-family="Helvetica,sans-Serif" font-size="10.00"> for transformation</text>
<text text-anchor="middle" x="208.5" y="-7" font-family="Helvetica,sans-Serif" font-size="10.00"> to straight&#45;field line angle</text>
</a>
</g>
</g>
<!-- Node2 -->
<g id="node2" class="node">
<title>Node2</title>
<g id="a_node2"><a xlink:href="group__grp__fourier__repr.html" target="_top" xlink:title=" ">
<polygon fill="white" stroke="black" points="110,-30 0,-30 0,-11 110,-11 110,-30"/>
<text text-anchor="middle" x="55" y="-18" font-family="Helvetica,sans-Serif" font-size="10.00">Fourier representation</text>
</a>
</g>
</g>
<!-- Node2&#45;&gt;Node1 -->
<g id="edge1" class="edge">
<title>Node2&#45;&gt;Node1</title>
<path fill="none" stroke="black" d="M120.43,-20.5C128.87,-20.5 137.5,-20.5 145.89,-20.5"/>
<polygon fill="black" stroke="black" points="120.27,-17 110.27,-20.5 120.27,-24 120.27,-17"/>
</g>
</g>
</svg>
