<?xml version="1.0" encoding="UTF-8" standalone="no"?>
<!DOCTYPE svg PUBLIC "-//W3C//DTD SVG 1.1//EN"
 "http://www.w3.org/Graphics/SVG/1.1/DTD/svg11.dtd">
<!-- Generated by graphviz version 2.50.0 (20220203.2022)
 -->
<!-- Title: lforce Pages: 1 -->
<svg width="782pt" height="387pt"
 viewBox="0.00 0.00 782.00 387.00" xmlns="http://www.w3.org/2000/svg" xmlns:xlink="http://www.w3.org/1999/xlink">
<g id="graph0" class="graph" transform="scale(1 1) rotate(0) translate(4 383)">
<title>lforce</title>
<polygon fill="white" stroke="transparent" points="-4,4 -4,-383 778,-383 778,4 -4,4"/>
<!-- Node1 -->
<g id="node1" class="node">
<title>Node1</title>
<g id="a_node1"><a xlink:title="Computes , and the spectral condensation constraints if required, on the interfaces,...">
<polygon fill="#bfbfbf" stroke="black" points="733,-124.5 733,-143.5 774,-143.5 774,-124.5 733,-124.5"/>
<text text-anchor="middle" x="753.5" y="-131.5" font-family="Helvetica,sans-Serif" font-size="10.00">lforce</text>
</a>
</g>
</g>
<!-- Node1&#45;&gt;Node1 -->
<g id="edge47" class="edge">
<title>Node1&#45;&gt;Node1</title>
<path fill="none" stroke="midnightblue" d="M767.86,-153.77C766.74,-158.5 761.95,-162 753.5,-162 739.64,-162 735.63,-152.57 741.48,-143.76"/>
<polygon fill="midnightblue" stroke="midnightblue" points="771.21,-152.7 765.52,-143.76 764.39,-154.29 771.21,-152.7"/>
</g>
<!-- Node2 -->
<g id="node2" class="node">
<title>Node2</title>
<g id="a_node2"><a xlink:href="dfp200_8f90.html#a55ea75395f8c71731451e1add3720c7e" target="_top" xlink:title="Given the field consistent with the constraints and the geometry, computes local quantites related to...">
<polygon fill="white" stroke="black" points="651,-85.5 651,-104.5 697,-104.5 697,-85.5 651,-85.5"/>
<text text-anchor="middle" x="674" y="-92.5" font-family="Helvetica,sans-Serif" font-size="10.00">dfp200</text>
</a>
</g>
</g>
<!-- Node1&#45;&gt;Node2 -->
<g id="edge1" class="edge">
<title>Node1&#45;&gt;Node2</title>
<path fill="none" stroke="midnightblue" d="M724.11,-119.71C714.06,-114.66 703.01,-109.09 693.94,-104.53"/>
<polygon fill="midnightblue" stroke="midnightblue" points="722.84,-122.99 733.34,-124.36 725.98,-116.74 722.84,-122.99"/>
</g>
<!-- Node18 -->
<g id="node18" class="node">
<title>Node18</title>
<g id="a_node18"><a xlink:href="dfp200_8f90.html#a7b64c7392b45d0042d8bd7379c0761a5" target="_top" xlink:title="Evaluate the derivative of the square of the magnetic field modulus. Add spectral constraint derivati...">
<polygon fill="white" stroke="black" points="520.5,-188.5 520.5,-207.5 594.5,-207.5 594.5,-188.5 520.5,-188.5"/>
<text text-anchor="middle" x="557.5" y="-195.5" font-family="Helvetica,sans-Serif" font-size="10.00">evaluate_dbb</text>
</a>
</g>
</g>
<!-- Node1&#45;&gt;Node18 -->
<g id="edge46" class="edge">
<title>Node1&#45;&gt;Node18</title>
<path fill="none" stroke="midnightblue" d="M723.19,-143.67C686.44,-155.79 623.82,-176.45 587.3,-188.5"/>
<polygon fill="midnightblue" stroke="midnightblue" points="724.43,-146.95 732.83,-140.49 722.24,-140.3 724.43,-146.95"/>
</g>
<!-- Node2&#45;&gt;Node2 -->
<g id="edge38" class="edge">
<title>Node2&#45;&gt;Node2</title>
<path fill="none" stroke="midnightblue" d="M688.36,-114.77C687.24,-119.5 682.45,-123 674,-123 660.14,-123 656.13,-113.57 661.98,-104.76"/>
<polygon fill="midnightblue" stroke="midnightblue" points="691.71,-113.7 686.02,-104.76 684.89,-115.29 691.71,-113.7"/>
</g>
<!-- Node3 -->
<g id="node3" class="node">
<title>Node3</title>
<g id="a_node3"><a xlink:href="group__grp__global__force.html#ga38c9d3c50bd043707fefa5137c9dbf44" target="_top" xlink:title="Calculates , where &#160;and , and .">
<polygon fill="white" stroke="black" points="535.5,-132.5 535.5,-151.5 579.5,-151.5 579.5,-132.5 535.5,-132.5"/>
<text text-anchor="middle" x="557.5" y="-139.5" font-family="Helvetica,sans-Serif" font-size="10.00">dforce</text>
</a>
</g>
</g>
<!-- Node2&#45;&gt;Node3 -->
<g id="edge2" class="edge">
<title>Node2&#45;&gt;Node3</title>
<path fill="none" stroke="midnightblue" d="M641.46,-107.95C621.81,-116.01 597.07,-126.17 579.73,-133.28"/>
<polygon fill="midnightblue" stroke="midnightblue" points="643,-111.1 650.92,-104.06 640.34,-104.62 643,-111.1"/>
</g>
<!-- Node14 -->
<g id="node14" class="node">
<title>Node14</title>
<g id="a_node14"><a xlink:href="dfp200_8f90.html#a6aca59cf350d7b1941f8389d50945a43" target="_top" xlink:title="get LU Beltrami matrices">
<polygon fill="white" stroke="black" points="339,-19.5 339,-38.5 464,-38.5 464,-19.5 339,-19.5"/>
<text text-anchor="middle" x="401.5" y="-26.5" font-family="Helvetica,sans-Serif" font-size="10.00">get_lu_beltrami_matrices</text>
</a>
</g>
</g>
<!-- Node2&#45;&gt;Node14 -->
<g id="edge43" class="edge">
<title>Node2&#45;&gt;Node14</title>
<path fill="none" stroke="midnightblue" d="M640.68,-86.3C605.35,-80.92 547.46,-73.89 500,-58 482.84,-52.26 480.71,-45.92 464,-39 463.69,-38.87 463.38,-38.74 463.07,-38.62"/>
<polygon fill="midnightblue" stroke="midnightblue" points="640.45,-89.81 650.88,-87.93 641.55,-82.9 640.45,-89.81"/>
</g>
<!-- Node2&#45;&gt;Node18 -->
<g id="edge39" class="edge">
<title>Node2&#45;&gt;Node18</title>
<path fill="none" stroke="midnightblue" d="M660.72,-113.63C650.77,-130.64 635.12,-154.85 615,-170 602.76,-179.21 585.79,-184.12 573.65,-188.37"/>
<polygon fill="midnightblue" stroke="midnightblue" points="663.98,-114.99 665.91,-104.57 657.9,-111.51 663.98,-114.99"/>
</g>
<!-- Node19 -->
<g id="node19" class="node">
<title>Node19</title>
<g id="a_node19"><a xlink:href="dfp200_8f90.html#a73ddf39ecc5228201fb643779e17cd36" target="_top" xlink:title="Evaluate mu and psip derivatives and store them in dmupfdx.">
<polygon fill="white" stroke="black" points="510,-38.5 510,-57.5 605,-57.5 605,-38.5 510,-38.5"/>
<text text-anchor="middle" x="557.5" y="-45.5" font-family="Helvetica,sans-Serif" font-size="10.00">evaluate_dmupfdx</text>
</a>
</g>
</g>
<!-- Node2&#45;&gt;Node19 -->
<g id="edge41" class="edge">
<title>Node2&#45;&gt;Node19</title>
<path fill="none" stroke="midnightblue" d="M651.22,-80.63C636.06,-73.1 615.42,-64.29 597.46,-57.56"/>
<polygon fill="midnightblue" stroke="midnightblue" points="649.82,-83.85 660.31,-85.36 653.05,-77.64 649.82,-83.85"/>
</g>
<!-- Node20 -->
<g id="node20" class="node">
<title>Node20</title>
<g id="a_node20"><a xlink:href="dfp200_8f90.html#a5e56f1f4b1e6df11a9cffa6237c37469" target="_top" xlink:title="This routine evaluates the value of the magnetic field once the interface is perturbed using matrix p...">
<polygon fill="white" stroke="black" points="500,-0.5 500,-19.5 615,-19.5 615,-0.5 500,-0.5"/>
<text text-anchor="middle" x="557.5" y="-7.5" font-family="Helvetica,sans-Serif" font-size="10.00">get_perturbed_solution</text>
</a>
</g>
</g>
<!-- Node2&#45;&gt;Node20 -->
<g id="edge44" class="edge">
<title>Node2&#45;&gt;Node20</title>
<path fill="none" stroke="midnightblue" d="M664.87,-75.81C654.83,-58.43 636.44,-34.27 615,-20 614.83,-19.89 614.65,-19.77 614.48,-19.66"/>
<polygon fill="midnightblue" stroke="midnightblue" points="662.02,-77.91 669.77,-85.13 668.21,-74.65 662.02,-77.91"/>
</g>
<!-- Node3&#45;&gt;Node3 -->
<g id="edge13" class="edge">
<title>Node3&#45;&gt;Node3</title>
<path fill="none" stroke="midnightblue" d="M578.98,-161.4C577.55,-166.31 570.39,-170 557.5,-170 536.88,-170 530.92,-160.57 539.62,-151.76"/>
<polygon fill="midnightblue" stroke="midnightblue" points="582.16,-159.9 575.38,-151.76 575.6,-162.35 582.16,-159.9"/>
</g>
<!-- Node4 -->
<g id="node4" class="node">
<title>Node4</title>
<g id="a_node4"><a xlink:href="namespaceallglobal.html#a7824bc37519fe88336534ce90ab2af16" target="_top" xlink:title=" ">
<polygon fill="white" stroke="black" points="344.5,-321.5 344.5,-340.5 458.5,-340.5 458.5,-321.5 344.5,-321.5"/>
<text text-anchor="middle" x="401.5" y="-328.5" font-family="Helvetica,sans-Serif" font-size="10.00">allglobal::check_inputs</text>
</a>
</g>
</g>
<!-- Node3&#45;&gt;Node4 -->
<g id="edge3" class="edge">
<title>Node3&#45;&gt;Node4</title>
<path fill="none" stroke="midnightblue" d="M526.71,-156.02C516.98,-161.9 506.9,-169.59 500,-179 465.06,-226.66 503.69,-263.22 464,-307 458.3,-313.28 450.76,-317.94 442.92,-321.38"/>
<polygon fill="midnightblue" stroke="midnightblue" points="528.44,-159.07 535.46,-151.13 525.02,-152.96 528.44,-159.07"/>
</g>
<!-- Node7 -->
<g id="node7" class="node">
<title>Node7</title>
<g id="a_node7"><a xlink:href="xspech_8f90.html#a48f45478dc2c9f70ea8aa1c60ad06503" target="_top" xlink:title="This is the main &quot;driver&quot; for the physics part of SPEC.">
<polygon fill="white" stroke="black" points="155.5,-245.5 155.5,-264.5 193.5,-264.5 193.5,-245.5 155.5,-245.5"/>
<text text-anchor="middle" x="174.5" y="-252.5" font-family="Helvetica,sans-Serif" font-size="10.00">spec</text>
</a>
</g>
</g>
<!-- Node3&#45;&gt;Node7 -->
<g id="edge37" class="edge">
<title>Node3&#45;&gt;Node7</title>
<path fill="none" stroke="midnightblue" d="M528.61,-156.63C518.8,-162.67 508.18,-170.31 500,-179 477.9,-202.48 490.17,-223.16 464,-242 387.73,-296.9 348.33,-285 255,-274 233.58,-271.48 209.57,-265.25 193.6,-260.61"/>
<polygon fill="midnightblue" stroke="midnightblue" points="530.44,-159.62 537.31,-151.55 526.91,-153.58 530.44,-159.62"/>
</g>
<!-- Node10 -->
<g id="node10" class="node">
<title>Node10</title>
<g id="a_node10"><a xlink:href="group__grp__force__driver.html#gabbc245b3884ee8d8d3e2a52f25149f78" target="_top" xlink:title="fcn1">
<polygon fill="white" stroke="black" points="384,-151.5 384,-170.5 419,-170.5 419,-151.5 384,-151.5"/>
<text text-anchor="middle" x="401.5" y="-158.5" font-family="Helvetica,sans-Serif" font-size="10.00">fcn1</text>
</a>
</g>
</g>
<!-- Node3&#45;&gt;Node10 -->
<g id="edge14" class="edge">
<title>Node3&#45;&gt;Node10</title>
<path fill="none" stroke="midnightblue" d="M525.22,-145.86C493.12,-149.82 444.41,-155.83 419.09,-158.95"/>
<polygon fill="midnightblue" stroke="midnightblue" points="525.91,-149.3 535.41,-144.6 525.06,-142.35 525.91,-149.3"/>
</g>
<!-- Node11 -->
<g id="node11" class="node">
<title>Node11</title>
<g id="a_node11"><a xlink:href="group__grp__force__driver.html#gaec14f81fbdbedafbc4189489ec8ae178" target="_top" xlink:title="Employs Newton method to find , where &#160;and &#160;is defined in dforce() .">
<polygon fill="white" stroke="black" points="255,-161.5 255,-180.5 303,-180.5 303,-161.5 255,-161.5"/>
<text text-anchor="middle" x="279" y="-168.5" font-family="Helvetica,sans-Serif" font-size="10.00">newton</text>
</a>
</g>
</g>
<!-- Node3&#45;&gt;Node11 -->
<g id="edge32" class="edge">
<title>Node3&#45;&gt;Node11</title>
<path fill="none" stroke="midnightblue" d="M532.87,-157.22C508.02,-173.08 471.49,-195.91 464,-198 410.49,-212.94 393.28,-209.83 339,-198 323.59,-194.64 307.39,-186.88 295.87,-180.54"/>
<polygon fill="midnightblue" stroke="midnightblue" points="534.89,-160.08 541.42,-151.74 531.11,-154.19 534.89,-160.08"/>
</g>
<!-- Node12 -->
<g id="node12" class="node">
<title>Node12</title>
<g id="a_node12"><a xlink:href="group__grp__force__driver.html#ga8ccd6c7d901872702521d0a0edf95412" target="_top" xlink:title="fcn2">
<polygon fill="white" stroke="black" points="29.5,-184.5 29.5,-203.5 64.5,-203.5 64.5,-184.5 29.5,-184.5"/>
<text text-anchor="middle" x="47" y="-191.5" font-family="Helvetica,sans-Serif" font-size="10.00">fcn2</text>
</a>
</g>
</g>
<!-- Node3&#45;&gt;Node12 -->
<g id="edge26" class="edge">
<title>Node3&#45;&gt;Node12</title>
<path fill="none" stroke="midnightblue" d="M524.86,-136.11C452.93,-123.99 272.37,-100.66 130,-142 101.51,-150.27 73.43,-171.75 58.67,-184.36"/>
<polygon fill="midnightblue" stroke="midnightblue" points="524.6,-139.62 535.06,-137.88 525.8,-132.72 524.6,-139.62"/>
</g>
<!-- Node3&#45;&gt;Node14 -->
<g id="edge27" class="edge">
<title>Node3&#45;&gt;Node14</title>
<path fill="none" stroke="midnightblue" d="M525.86,-133.44C516.76,-129.79 507.28,-124.77 500,-118 474.37,-94.19 490.81,-70.48 464,-48 459.38,-44.12 453.97,-41.04 448.31,-38.58"/>
<polygon fill="midnightblue" stroke="midnightblue" points="524.88,-136.8 535.47,-136.88 527.24,-130.21 524.88,-136.8"/>
</g>
<!-- Node15 -->
<g id="node15" class="node">
<title>Node15</title>
<g id="a_node15"><a xlink:href="group__grp__diagnostics.html#ga7401b50ec10c6598ee4a8112717a63ec" target="_top" xlink:title="Computes eigenvalues and eigenvectors of derivative matrix, .">
<polygon fill="white" stroke="black" points="256.5,-227.5 256.5,-246.5 301.5,-246.5 301.5,-227.5 256.5,-227.5"/>
<text text-anchor="middle" x="279" y="-234.5" font-family="Helvetica,sans-Serif" font-size="10.00">hesian</text>
</a>
</g>
</g>
<!-- Node3&#45;&gt;Node15 -->
<g id="edge29" class="edge">
<title>Node3&#45;&gt;Node15</title>
<path fill="none" stroke="midnightblue" d="M530.98,-156.94C520.95,-163.26 509.58,-171 500,-179 482.15,-193.92 484.84,-206.66 464,-217 410.46,-243.55 337.59,-242.08 301.74,-239.29"/>
<polygon fill="midnightblue" stroke="midnightblue" points="533.03,-159.79 539.72,-151.57 529.37,-153.82 533.03,-159.79"/>
</g>
<!-- Node16 -->
<g id="node16" class="node">
<title>Node16</title>
<g id="a_node16"><a xlink:href="group__grp__conjugate__gradient.html#ga4d8415226e62a9fdb42b0fd0b464251e" target="_top" xlink:title="Returns the energy functional and it&#39;s derivatives with respect to geometry.">
<polygon fill="white" stroke="black" points="377.5,-57.5 377.5,-76.5 425.5,-76.5 425.5,-57.5 377.5,-57.5"/>
<text text-anchor="middle" x="401.5" y="-64.5" font-family="Helvetica,sans-Serif" font-size="10.00">pc00ab</text>
</a>
</g>
</g>
<!-- Node3&#45;&gt;Node16 -->
<g id="edge33" class="edge">
<title>Node3&#45;&gt;Node16</title>
<path fill="none" stroke="midnightblue" d="M526.15,-129.64C517.63,-126.02 508.4,-121.97 500,-118 471.51,-104.52 439.24,-87.23 419.9,-76.64"/>
<polygon fill="midnightblue" stroke="midnightblue" points="524.82,-132.87 535.39,-133.51 527.52,-126.42 524.82,-132.87"/>
</g>
<!-- Node5 -->
<g id="node5" class="node">
<title>Node5</title>
<g id="a_node5"><a xlink:href="xspech_8f90.html#a9fdc71dffd7c61ee4588a3f80d3ab9ce" target="_top" xlink:title="Main subroutine of SPEC.">
<polygon fill="white" stroke="black" points="255.5,-321.5 255.5,-340.5 302.5,-340.5 302.5,-321.5 255.5,-321.5"/>
<text text-anchor="middle" x="279" y="-328.5" font-family="Helvetica,sans-Serif" font-size="10.00">xspech</text>
</a>
</g>
</g>
<!-- Node4&#45;&gt;Node5 -->
<g id="edge4" class="edge">
<title>Node4&#45;&gt;Node5</title>
<path fill="none" stroke="midnightblue" d="M334.45,-331C323.06,-331 311.95,-331 302.77,-331"/>
<polygon fill="midnightblue" stroke="midnightblue" points="334.48,-334.5 344.48,-331 334.48,-327.5 334.48,-334.5"/>
</g>
<!-- Node5&#45;&gt;Node5 -->
<g id="edge12" class="edge">
<title>Node5&#45;&gt;Node5</title>
<path fill="none" stroke="midnightblue" d="M298.26,-350.4C296.97,-355.31 290.55,-359 279,-359 260.52,-359 255.17,-349.57 262.97,-340.76"/>
<polygon fill="midnightblue" stroke="midnightblue" points="301.52,-349.13 295.03,-340.76 294.89,-351.35 301.52,-349.13"/>
</g>
<!-- Node6 -->
<g id="node6" class="node">
<title>Node6</title>
<g id="a_node6"><a xlink:href="xspech_8f90.html#a1451823a7b97101a797de616250752c1" target="_top" xlink:title="Final diagnostics.">
<polygon fill="white" stroke="black" points="130,-359.5 130,-378.5 219,-378.5 219,-359.5 130,-359.5"/>
<text text-anchor="middle" x="174.5" y="-366.5" font-family="Helvetica,sans-Serif" font-size="10.00">final_diagnostics</text>
</a>
</g>
</g>
<!-- Node5&#45;&gt;Node6 -->
<g id="edge5" class="edge">
<title>Node5&#45;&gt;Node6</title>
<path fill="none" stroke="midnightblue" d="M245.65,-336.67C226.44,-342.89 203.1,-352.08 188.78,-359.36"/>
<polygon fill="midnightblue" stroke="midnightblue" points="246.72,-340 255.25,-333.71 244.66,-333.31 246.72,-340"/>
</g>
<!-- Node5&#45;&gt;Node7 -->
<g id="edge7" class="edge">
<title>Node5&#45;&gt;Node7</title>
<path fill="none" stroke="midnightblue" d="M266.82,-313.07C252.78,-295.67 229.28,-271.88 219,-265 211.19,-259.77 201.71,-255.43 193.6,-253.02"/>
<polygon fill="midnightblue" stroke="midnightblue" points="264.35,-315.6 273.18,-321.45 269.93,-311.37 264.35,-315.6"/>
</g>
<!-- Node9 -->
<g id="node9" class="node">
<title>Node9</title>
<g id="a_node9"><a xlink:href="xspech_8f90.html#a95271e8805067f801b5d4e524d6901d4" target="_top" xlink:title="Main program of SPEC.">
<polygon fill="white" stroke="black" points="142.5,-283.5 142.5,-302.5 206.5,-302.5 206.5,-283.5 142.5,-283.5"/>
<text text-anchor="middle" x="174.5" y="-290.5" font-family="Helvetica,sans-Serif" font-size="10.00">spec_main</text>
</a>
</g>
</g>
<!-- Node5&#45;&gt;Node9 -->
<g id="edge11" class="edge">
<title>Node5&#45;&gt;Node9</title>
<path fill="none" stroke="midnightblue" d="M245.79,-319.06C231.5,-313.76 214.91,-307.61 201.44,-302.62"/>
<polygon fill="midnightblue" stroke="midnightblue" points="244.66,-322.37 255.25,-322.57 247.09,-315.81 244.66,-322.37"/>
</g>
<!-- Node6&#45;&gt;Node5 -->
<g id="edge6" class="edge">
<title>Node6&#45;&gt;Node5</title>
<path fill="none" stroke="midnightblue" d="M228.8,-355.99C242.12,-350.99 255.26,-345.44 264.6,-340.7"/>
<polygon fill="midnightblue" stroke="midnightblue" points="227.31,-352.8 219.11,-359.51 229.71,-359.38 227.31,-352.8"/>
</g>
<!-- Node7&#45;&gt;Node5 -->
<g id="edge10" class="edge">
<title>Node7&#45;&gt;Node5</title>
<path fill="none" stroke="midnightblue" d="M193.35,-269.31C201.52,-273.34 211.11,-277.72 219,-283 228.23,-289.18 248.12,-308.99 262.25,-321.5"/>
<polygon fill="midnightblue" stroke="midnightblue" points="194.78,-266.11 184.3,-264.52 191.5,-272.29 194.78,-266.11"/>
</g>
<!-- Node8 -->
<g id="node8" class="node">
<title>Node8</title>
<g id="a_node8"><a xlink:href="group__grp__output.html#ga0f962c09cd5d5eba99f1cba043cb3898" target="_top" xlink:title="Initialize the interface to the HDF5 library and open the output file.">
<polygon fill="white" stroke="black" points="0,-259.5 0,-278.5 94,-278.5 94,-259.5 0,-259.5"/>
<text text-anchor="middle" x="47" y="-266.5" font-family="Helvetica,sans-Serif" font-size="10.00">sphdf5::init_outfile</text>
</a>
</g>
</g>
<!-- Node7&#45;&gt;Node8 -->
<g id="edge8" class="edge">
<title>Node7&#45;&gt;Node8</title>
<path fill="none" stroke="midnightblue" d="M145.06,-258.17C130.04,-259.85 111.23,-261.95 94.18,-263.85"/>
<polygon fill="midnightblue" stroke="midnightblue" points="145.7,-261.62 155.25,-257.04 144.92,-254.67 145.7,-261.62"/>
</g>
<!-- Node8&#45;&gt;Node5 -->
<g id="edge9" class="edge">
<title>Node8&#45;&gt;Node5</title>
<path fill="none" stroke="midnightblue" d="M71.03,-283.93C86.96,-293.51 108.98,-305.38 130,-312 172.99,-325.55 225.91,-329.46 255.41,-330.57"/>
<polygon fill="midnightblue" stroke="midnightblue" points="72.76,-280.88 62.42,-278.6 69.08,-286.83 72.76,-280.88"/>
</g>
<!-- Node10&#45;&gt;Node10 -->
<g id="edge15" class="edge">
<title>Node10&#45;&gt;Node10</title>
<path fill="none" stroke="midnightblue" d="M424.37,-178.14C424.68,-184.14 417.06,-189 401.5,-189 378.86,-189 373.03,-178.72 383.99,-169.6"/>
<polygon fill="midnightblue" stroke="midnightblue" points="427.29,-176.21 419.01,-169.6 421.36,-179.93 427.29,-176.21"/>
</g>
<!-- Node10&#45;&gt;Node11 -->
<g id="edge16" class="edge">
<title>Node10&#45;&gt;Node11</title>
<path fill="none" stroke="midnightblue" d="M373.51,-157.5C352.38,-157.82 323.31,-160.32 303.22,-163.62"/>
<polygon fill="midnightblue" stroke="midnightblue" points="373.73,-161 383.74,-157.55 373.76,-154 373.73,-161"/>
</g>
<!-- Node11&#45;&gt;Node7 -->
<g id="edge22" class="edge">
<title>Node11&#45;&gt;Node7</title>
<path fill="none" stroke="midnightblue" d="M263.33,-188.44C252.04,-201.2 235.61,-218.4 219,-231 211.17,-236.94 201.68,-242.35 193.57,-246.52"/>
<polygon fill="midnightblue" stroke="midnightblue" points="266.05,-190.65 269.95,-180.8 260.76,-186.06 266.05,-190.65"/>
</g>
<!-- Node11&#45;&gt;Node10 -->
<g id="edge17" class="edge">
<title>Node11&#45;&gt;Node10</title>
<path fill="none" stroke="midnightblue" d="M313.52,-174.34C336.37,-173.59 365.66,-170.74 383.74,-167.24"/>
<polygon fill="midnightblue" stroke="midnightblue" points="313.15,-170.85 303.22,-174.53 313.28,-177.84 313.15,-170.85"/>
</g>
<!-- Node11&#45;&gt;Node11 -->
<g id="edge21" class="edge">
<title>Node11&#45;&gt;Node11</title>
<path fill="none" stroke="midnightblue" d="M298.26,-190.4C296.97,-195.31 290.55,-199 279,-199 260.52,-199 255.17,-189.57 262.97,-180.76"/>
<polygon fill="midnightblue" stroke="midnightblue" points="301.52,-189.13 295.03,-180.76 294.89,-191.35 301.52,-189.13"/>
</g>
<!-- Node11&#45;&gt;Node12 -->
<g id="edge18" class="edge">
<title>Node11&#45;&gt;Node12</title>
<path fill="none" stroke="midnightblue" d="M244.62,-167.79C236.27,-168.77 227.32,-170.03 219,-171 162.49,-177.61 95.12,-182.15 64.55,-187.77"/>
<polygon fill="midnightblue" stroke="midnightblue" points="245.21,-171.25 254.79,-166.74 244.49,-164.29 245.21,-171.25"/>
</g>
<!-- Node13 -->
<g id="node13" class="node">
<title>Node13</title>
<g id="a_node13"><a xlink:href="group__grp__force__driver.html#ga382822b303cbf8c56d6f54dcb379caf2" target="_top" xlink:title="read or write force&#45;derivative matrix">
<polygon fill="white" stroke="black" points="142,-151.5 142,-170.5 207,-170.5 207,-151.5 142,-151.5"/>
<text text-anchor="middle" x="174.5" y="-158.5" font-family="Helvetica,sans-Serif" font-size="10.00">writereadgf</text>
</a>
</g>
</g>
<!-- Node11&#45;&gt;Node13 -->
<g id="edge23" class="edge">
<title>Node11&#45;&gt;Node13</title>
<path fill="none" stroke="midnightblue" d="M244.89,-161.41C232.86,-159.7 219.29,-158.39 207.36,-157.81"/>
<polygon fill="midnightblue" stroke="midnightblue" points="244.57,-164.9 255,-163.02 245.67,-157.99 244.57,-164.9"/>
</g>
<!-- Node12&#45;&gt;Node11 -->
<g id="edge20" class="edge">
<title>Node12&#45;&gt;Node11</title>
<path fill="none" stroke="midnightblue" d="M74.95,-198.67C108.69,-199.21 168.23,-194.94 219,-189 234.44,-187.19 252.04,-184.41 263.97,-180.61"/>
<polygon fill="midnightblue" stroke="midnightblue" points="74.66,-195.15 64.55,-198.29 74.41,-202.15 74.66,-195.15"/>
</g>
<!-- Node12&#45;&gt;Node12 -->
<g id="edge19" class="edge">
<title>Node12&#45;&gt;Node12</title>
<path fill="none" stroke="midnightblue" d="M70.55,-210.53C71.46,-216.81 63.61,-222 47,-222 23.38,-222 17.47,-211.5 29.28,-202.31"/>
<polygon fill="midnightblue" stroke="midnightblue" points="73.36,-208.44 64.72,-202.31 67.65,-212.49 73.36,-208.44"/>
</g>
<!-- Node13&#45;&gt;Node11 -->
<g id="edge25" class="edge">
<title>Node13&#45;&gt;Node11</title>
<path fill="none" stroke="midnightblue" d="M217.42,-171.74C230.26,-173.27 243.91,-174.3 255,-174.5"/>
<polygon fill="midnightblue" stroke="midnightblue" points="217.74,-168.25 207.36,-170.41 216.82,-175.19 217.74,-168.25"/>
</g>
<!-- Node13&#45;&gt;Node12 -->
<g id="edge24" class="edge">
<title>Node13&#45;&gt;Node12</title>
<path fill="none" stroke="midnightblue" d="M131.96,-171.92C108.99,-177.96 81.73,-185.13 64.64,-189.62"/>
<polygon fill="midnightblue" stroke="midnightblue" points="133.05,-175.26 141.83,-169.33 131.27,-168.49 133.05,-175.26"/>
</g>
<!-- Node14&#45;&gt;Node2 -->
<g id="edge28" class="edge">
<title>Node14&#45;&gt;Node2</title>
<path fill="none" stroke="midnightblue" d="M423.67,-42.39C435.69,-46.86 450.9,-51.58 464,-57 480.71,-63.92 482.84,-70.26 500,-76 552.37,-93.53 617.44,-100.28 650.88,-99.51"/>
<polygon fill="midnightblue" stroke="midnightblue" points="424.64,-39.01 414.06,-38.51 422.02,-45.5 424.64,-39.01"/>
</g>
<!-- Node15&#45;&gt;Node7 -->
<g id="edge31" class="edge">
<title>Node15&#45;&gt;Node7</title>
<path fill="none" stroke="midnightblue" d="M246.08,-242.61C228.88,-245.63 208.27,-249.24 193.78,-251.79"/>
<polygon fill="midnightblue" stroke="midnightblue" points="247.02,-245.99 256.26,-240.82 245.81,-239.1 247.02,-245.99"/>
</g>
<!-- Node15&#45;&gt;Node15 -->
<g id="edge30" class="edge">
<title>Node15&#45;&gt;Node15</title>
<path fill="none" stroke="midnightblue" d="M298.26,-256.4C296.97,-261.31 290.55,-265 279,-265 260.52,-265 255.17,-255.57 262.97,-246.76"/>
<polygon fill="midnightblue" stroke="midnightblue" points="301.52,-255.13 295.03,-246.76 294.89,-257.35 301.52,-255.13"/>
</g>
<!-- Node16&#45;&gt;Node16 -->
<g id="edge36" class="edge">
<title>Node16&#45;&gt;Node16</title>
<path fill="none" stroke="midnightblue" d="M424.19,-86.03C422.96,-91.13 415.39,-95 401.5,-95 379.82,-95 373.55,-85.57 382.7,-76.76"/>
<polygon fill="midnightblue" stroke="midnightblue" points="427.4,-84.62 420.3,-76.76 420.94,-87.33 427.4,-84.62"/>
</g>
<!-- Node17 -->
<g id="node17" class="node">
<title>Node17</title>
<g id="a_node17"><a xlink:href="group__grp__conjugate__gradient.html#ga25a3bae2ff2ee0469b045de0d033398b" target="_top" xlink:title="Use preconditioned conjugate gradient method to find minimum of energy functional.">
<polygon fill="white" stroke="black" points="255,-57.5 255,-76.5 303,-76.5 303,-57.5 255,-57.5"/>
<text text-anchor="middle" x="279" y="-64.5" font-family="Helvetica,sans-Serif" font-size="10.00">pc00aa</text>
</a>
</g>
</g>
<!-- Node16&#45;&gt;Node17 -->
<g id="edge34" class="edge">
<title>Node16&#45;&gt;Node17</title>
<path fill="none" stroke="midnightblue" d="M367.16,-67C346.81,-67 321.31,-67 303.16,-67"/>
<polygon fill="midnightblue" stroke="midnightblue" points="367.27,-70.5 377.27,-67 367.27,-63.5 367.27,-70.5"/>
</g>
<!-- Node17&#45;&gt;Node17 -->
<g id="edge35" class="edge">
<title>Node17&#45;&gt;Node17</title>
<path fill="none" stroke="midnightblue" d="M298.26,-86.4C296.97,-91.31 290.55,-95 279,-95 260.52,-95 255.17,-85.57 262.97,-76.76"/>
<polygon fill="midnightblue" stroke="midnightblue" points="301.52,-85.13 295.03,-76.76 294.89,-87.35 301.52,-85.13"/>
</g>
<!-- Node18&#45;&gt;Node2 -->
<g id="edge40" class="edge">
<title>Node18&#45;&gt;Node2</title>
<path fill="none" stroke="midnightblue" d="M603.93,-194.68C607.85,-192.78 611.61,-190.56 615,-188 644.45,-165.83 664.33,-124.23 670.75,-104.59"/>
<polygon fill="midnightblue" stroke="midnightblue" points="602.51,-191.48 594.59,-198.51 605.17,-197.95 602.51,-191.48"/>
</g>
<!-- Node19&#45;&gt;Node2 -->
<g id="edge42" class="edge">
<title>Node19&#45;&gt;Node2</title>
<path fill="none" stroke="midnightblue" d="M580.02,-62.24C600.28,-72.33 630.48,-84.74 650.92,-91.4"/>
<polygon fill="midnightblue" stroke="midnightblue" points="581.44,-59.04 570.96,-57.51 578.2,-65.24 581.44,-59.04"/>
</g>
<!-- Node20&#45;&gt;Node2 -->
<g id="edge45" class="edge">
<title>Node20&#45;&gt;Node2</title>
<path fill="none" stroke="midnightblue" d="M581.97,-23.11C592.64,-26.89 605.08,-31.4 615,-38 634.56,-51.01 651.57,-72.25 662.03,-85.15"/>
<polygon fill="midnightblue" stroke="midnightblue" points="583.01,-19.76 572.41,-19.66 580.63,-26.35 583.01,-19.76"/>
</g>
</g>
</svg>
