<?xml version="1.0" encoding="UTF-8" standalone="no"?>
<!DOCTYPE svg PUBLIC "-//W3C//DTD SVG 1.1//EN"
 "http://www.w3.org/Graphics/SVG/1.1/DTD/svg11.dtd">
<!-- Generated by graphviz version 2.49.3 (20211027.1534)
 -->
<!-- Title: hesian Pages: 1 -->
<svg width="727pt" height="467pt"
 viewBox="0.00 0.00 727.36 467.00" xmlns="http://www.w3.org/2000/svg" xmlns:xlink="http://www.w3.org/1999/xlink">
<g id="graph0" class="graph" transform="scale(1 1) rotate(0) translate(4 463)">
<title>hesian</title>
<polygon fill="white" stroke="transparent" points="-4,4 -4,-463 723.36,-463 723.36,4 -4,4"/>
<!-- Node1 -->
<g id="node1" class="node">
<title>Node1</title>
<g id="a_node1"><a xlink:title="Computes eigenvalues and eigenvectors of derivative matrix, &#160;and saves them to .ext....">
<polygon fill="#bfbfbf" stroke="black" points="674.36,-127.5 674.36,-146.5 719.36,-146.5 719.36,-127.5 674.36,-127.5"/>
<text text-anchor="middle" x="696.86" y="-134.5" font-family="Helvetica,sans-Serif" font-size="10.00">hesian</text>
</a>
</g>
</g>
<!-- Node1&#45;&gt;Node1 -->
<g id="edge1" class="edge">
<title>Node1&#45;&gt;Node1</title>
<path fill="none" stroke="midnightblue" d="M710.85,-156.77C709.76,-161.5 705.09,-165 696.86,-165 683.35,-165 679.45,-155.57 685.14,-146.76"/>
<polygon fill="midnightblue" stroke="midnightblue" points="714.21,-155.73 708.57,-146.76 707.38,-157.28 714.21,-155.73"/>
</g>
<!-- Node2 -->
<g id="node2" class="node">
<title>Node2</title>
<g id="a_node2"><a xlink:href="xspech_8f90.html#a48f45478dc2c9f70ea8aa1c60ad06503" target="_top" xlink:title="This is the main &quot;driver&quot; for the physics part of SPEC.">
<polygon fill="white" stroke="black" points="600.36,-99.5 600.36,-118.5 638.36,-118.5 638.36,-99.5 600.36,-99.5"/>
<text text-anchor="middle" x="619.36" y="-106.5" font-family="Helvetica,sans-Serif" font-size="10.00">spec</text>
</a>
</g>
</g>
<!-- Node1&#45;&gt;Node2 -->
<g id="edge2" class="edge">
<title>Node1&#45;&gt;Node2</title>
<path fill="none" stroke="midnightblue" d="M664.47,-125.36C655.74,-122.12 646.55,-118.71 638.83,-115.85"/>
<polygon fill="midnightblue" stroke="midnightblue" points="663.43,-128.71 674.02,-128.9 665.86,-122.14 663.43,-128.71"/>
</g>
<!-- Node3 -->
<g id="node3" class="node">
<title>Node3</title>
<g id="a_node3"><a xlink:href="group__grp__global__force.html#ga38c9d3c50bd043707fefa5137c9dbf44" target="_top" xlink:title="Calculates , where &#160;and , and .">
<polygon fill="white" stroke="black" points="495.36,-194.5 495.36,-213.5 539.36,-213.5 539.36,-194.5 495.36,-194.5"/>
<text text-anchor="middle" x="517.36" y="-201.5" font-family="Helvetica,sans-Serif" font-size="10.00">dforce</text>
</a>
</g>
</g>
<!-- Node2&#45;&gt;Node3 -->
<g id="edge3" class="edge">
<title>Node2&#45;&gt;Node3</title>
<path fill="none" stroke="midnightblue" d="M594.84,-125.52C571.98,-145.47 538.74,-177.81 524.84,-194.3"/>
<polygon fill="midnightblue" stroke="midnightblue" points="597.4,-127.93 602.73,-118.78 592.85,-122.61 597.4,-127.93"/>
</g>
<!-- Node5 -->
<g id="node5" class="node">
<title>Node5</title>
<g id="a_node5"><a xlink:href="xspech_8f90.html#a9fdc71dffd7c61ee4588a3f80d3ab9ce" target="_top" xlink:title="Main subroutine of SPEC.">
<polygon fill="white" stroke="black" points="225.86,-38.5 225.86,-57.5 272.86,-57.5 272.86,-38.5 225.86,-38.5"/>
<text text-anchor="middle" x="249.36" y="-45.5" font-family="Helvetica,sans-Serif" font-size="10.00">xspech</text>
</a>
</g>
</g>
<!-- Node2&#45;&gt;Node5 -->
<g id="edge45" class="edge">
<title>Node2&#45;&gt;Node5</title>
<path fill="none" stroke="midnightblue" d="M610.92,-90.02C601.89,-73.69 585.24,-52.17 564.36,-43 462.53,1.73 323.6,-22.29 271.36,-38.45"/>
<polygon fill="midnightblue" stroke="midnightblue" points="607.96,-91.94 615.53,-99.36 614.24,-88.84 607.96,-91.94"/>
</g>
<!-- Node19 -->
<g id="node19" class="node">
<title>Node19</title>
<g id="a_node19"><a xlink:href="group__grp__output.html#ga0f962c09cd5d5eba99f1cba043cb3898" target="_top" xlink:title="Initialize the interface to the HDF5 library and open the output file.">
<polygon fill="white" stroke="black" points="470.36,-61.5 470.36,-80.5 564.36,-80.5 564.36,-61.5 470.36,-61.5"/>
<text text-anchor="middle" x="517.36" y="-68.5" font-family="Helvetica,sans-Serif" font-size="10.00">sphdf5::init_outfile</text>
</a>
</g>
</g>
<!-- Node2&#45;&gt;Node19 -->
<g id="edge43" class="edge">
<title>Node2&#45;&gt;Node19</title>
<path fill="none" stroke="midnightblue" d="M590.39,-98.37C575.63,-92.76 557.66,-85.93 543.36,-80.5"/>
<polygon fill="midnightblue" stroke="midnightblue" points="589.43,-101.75 600.02,-102.03 591.91,-95.21 589.43,-101.75"/>
</g>
<!-- Node3&#45;&gt;Node1 -->
<g id="edge36" class="edge">
<title>Node3&#45;&gt;Node1</title>
<path fill="none" stroke="midnightblue" d="M548.9,-192.47C584.57,-179.01 642.7,-157.07 674.09,-145.22"/>
<polygon fill="midnightblue" stroke="midnightblue" points="547.59,-189.22 539.47,-196.03 550.06,-195.77 547.59,-189.22"/>
</g>
<!-- Node3&#45;&gt;Node2 -->
<g id="edge42" class="edge">
<title>Node3&#45;&gt;Node2</title>
<path fill="none" stroke="midnightblue" d="M541.54,-187.77C564.37,-167.88 597.79,-135.39 611.8,-118.79"/>
<polygon fill="midnightblue" stroke="midnightblue" points="539.01,-185.33 533.67,-194.48 543.55,-190.66 539.01,-185.33"/>
</g>
<!-- Node3&#45;&gt;Node3 -->
<g id="edge11" class="edge">
<title>Node3&#45;&gt;Node3</title>
<path fill="none" stroke="midnightblue" d="M536.25,-223.4C534.99,-228.31 528.69,-232 517.36,-232 499.23,-232 493.99,-222.57 501.64,-213.76"/>
<polygon fill="midnightblue" stroke="midnightblue" points="539.53,-222.17 533.08,-213.76 532.87,-224.35 539.53,-222.17"/>
</g>
<!-- Node4 -->
<g id="node4" class="node">
<title>Node4</title>
<g id="a_node4"><a xlink:href="namespaceallglobal.html#a7824bc37519fe88336534ce90ab2af16" target="_top" xlink:title=" ">
<polygon fill="white" stroke="black" points="314.86,-137.5 314.86,-156.5 428.86,-156.5 428.86,-137.5 314.86,-137.5"/>
<text text-anchor="middle" x="371.86" y="-144.5" font-family="Helvetica,sans-Serif" font-size="10.00">allglobal::check_inputs</text>
</a>
</g>
</g>
<!-- Node3&#45;&gt;Node4 -->
<g id="edge4" class="edge">
<title>Node3&#45;&gt;Node4</title>
<path fill="none" stroke="midnightblue" d="M485.61,-191.53C470.23,-185.33 451.33,-177.73 434.36,-171 422.21,-166.19 408.69,-160.9 397.42,-156.52"/>
<polygon fill="midnightblue" stroke="midnightblue" points="484.56,-194.89 495.15,-195.39 487.19,-188.4 484.56,-194.89"/>
</g>
<!-- Node8 -->
<g id="node8" class="node">
<title>Node8</title>
<g id="a_node8"><a xlink:href="group__grp__force__driver.html#gabbc245b3884ee8d8d3e2a52f25149f78" target="_top" xlink:title="Objective to be given to the Newton solver, using only function values.">
<polygon fill="white" stroke="black" points="354.36,-213.5 354.36,-232.5 389.36,-232.5 389.36,-213.5 354.36,-213.5"/>
<text text-anchor="middle" x="371.86" y="-220.5" font-family="Helvetica,sans-Serif" font-size="10.00">fcn1</text>
</a>
</g>
</g>
<!-- Node3&#45;&gt;Node8 -->
<g id="edge12" class="edge">
<title>Node3&#45;&gt;Node8</title>
<path fill="none" stroke="midnightblue" d="M485.04,-208.15C455.71,-212.03 412.99,-217.69 389.64,-220.78"/>
<polygon fill="midnightblue" stroke="midnightblue" points="485.73,-211.59 495.18,-206.8 484.81,-204.65 485.73,-211.59"/>
</g>
<!-- Node9 -->
<g id="node9" class="node">
<title>Node9</title>
<g id="a_node9"><a xlink:href="group__grp__force__driver.html#gaec14f81fbdbedafbc4189489ec8ae178" target="_top" xlink:title="Employs Newton method to find , where &#160;and &#160;is defined in dforce() .">
<polygon fill="white" stroke="black" points="225.36,-194.5 225.36,-213.5 273.36,-213.5 273.36,-194.5 225.36,-194.5"/>
<text text-anchor="middle" x="249.36" y="-201.5" font-family="Helvetica,sans-Serif" font-size="10.00">newton</text>
</a>
</g>
</g>
<!-- Node3&#45;&gt;Node9 -->
<g id="edge37" class="edge">
<title>Node3&#45;&gt;Node9</title>
<path fill="none" stroke="midnightblue" d="M485.01,-204C430.98,-204 321.54,-204 273.66,-204"/>
<polygon fill="midnightblue" stroke="midnightblue" points="485.04,-207.5 495.04,-204 485.04,-200.5 485.04,-207.5"/>
</g>
<!-- Node10 -->
<g id="node10" class="node">
<title>Node10</title>
<g id="a_node10"><a xlink:href="group__grp__force__driver.html#ga8ccd6c7d901872702521d0a0edf95412" target="_top" xlink:title="Objective to be given to the Newton solver, using function values and derivatives.">
<polygon fill="white" stroke="black" points="3.36,-222.5 3.36,-241.5 38.36,-241.5 38.36,-222.5 3.36,-222.5"/>
<text text-anchor="middle" x="20.86" y="-229.5" font-family="Helvetica,sans-Serif" font-size="10.00">fcn2</text>
</a>
</g>
</g>
<!-- Node3&#45;&gt;Node10 -->
<g id="edge24" class="edge">
<title>Node3&#45;&gt;Node10</title>
<path fill="none" stroke="midnightblue" d="M498.59,-220.88C483.03,-234.41 459.1,-252.36 434.36,-260 286.56,-305.65 95.29,-254.6 38.47,-237.31"/>
<polygon fill="midnightblue" stroke="midnightblue" points="501.24,-223.2 506.33,-213.91 496.55,-218 501.24,-223.2"/>
</g>
<!-- Node12 -->
<g id="node12" class="node">
<title>Node12</title>
<g id="a_node12"><a xlink:href="dfp200_8f90.html#a6aca59cf350d7b1941f8389d50945a43" target="_top" xlink:title="get LU Beltrami matrices">
<polygon fill="white" stroke="black" points="309.36,-401.5 309.36,-420.5 434.36,-420.5 434.36,-401.5 309.36,-401.5"/>
<text text-anchor="middle" x="371.86" y="-408.5" font-family="Helvetica,sans-Serif" font-size="10.00">get_lu_beltrami_matrices</text>
</a>
</g>
</g>
<!-- Node3&#45;&gt;Node12 -->
<g id="edge25" class="edge">
<title>Node3&#45;&gt;Node12</title>
<path fill="none" stroke="midnightblue" d="M512.64,-223.88C504.72,-260.91 482.8,-340.88 434.36,-387 427.8,-393.24 419.43,-397.92 411,-401.4"/>
<polygon fill="midnightblue" stroke="midnightblue" points="516.12,-224.34 514.66,-213.85 509.25,-222.96 516.12,-224.34"/>
</g>
<!-- Node17 -->
<g id="node17" class="node">
<title>Node17</title>
<g id="a_node17"><a xlink:href="group__grp__conjugate__gradient.html#ga4d8415226e62a9fdb42b0fd0b464251e" target="_top" xlink:title="Returns the energy functional and it&#39;s derivatives with respect to geometry.">
<polygon fill="white" stroke="black" points="347.86,-307.5 347.86,-326.5 395.86,-326.5 395.86,-307.5 347.86,-307.5"/>
<text text-anchor="middle" x="371.86" y="-314.5" font-family="Helvetica,sans-Serif" font-size="10.00">pc00ab</text>
</a>
</g>
</g>
<!-- Node3&#45;&gt;Node17 -->
<g id="edge38" class="edge">
<title>Node3&#45;&gt;Node17</title>
<path fill="none" stroke="midnightblue" d="M503.89,-221.79C489.24,-241.56 463.25,-273.27 434.36,-293 422.72,-300.95 408.07,-306.8 395.98,-310.74"/>
<polygon fill="midnightblue" stroke="midnightblue" points="506.76,-223.79 509.79,-213.64 501.09,-219.69 506.76,-223.79"/>
</g>
<!-- Node4&#45;&gt;Node5 -->
<g id="edge5" class="edge">
<title>Node4&#45;&gt;Node5</title>
<path fill="none" stroke="midnightblue" d="M350.99,-130.68C325.62,-109.83 282.52,-74.42 261.95,-57.52"/>
<polygon fill="midnightblue" stroke="midnightblue" points="348.92,-133.5 358.86,-137.15 353.36,-128.09 348.92,-133.5"/>
</g>
<!-- Node5&#45;&gt;Node2 -->
<g id="edge8" class="edge">
<title>Node5&#45;&gt;Node2</title>
<path fill="none" stroke="midnightblue" d="M283.15,-45.7C342.27,-37.35 469.44,-19.3 564.36,-61 583.08,-69.22 598.4,-87.38 607.88,-99.19"/>
<polygon fill="midnightblue" stroke="midnightblue" points="282.34,-42.27 272.92,-47.13 283.31,-49.21 282.34,-42.27"/>
</g>
<!-- Node5&#45;&gt;Node5 -->
<g id="edge10" class="edge">
<title>Node5&#45;&gt;Node5</title>
<path fill="none" stroke="midnightblue" d="M270.84,-67.4C269.4,-72.31 262.24,-76 249.36,-76 228.74,-76 222.78,-66.57 231.48,-57.76"/>
<polygon fill="midnightblue" stroke="midnightblue" points="274.02,-65.9 267.24,-57.76 267.46,-68.35 274.02,-65.9"/>
</g>
<!-- Node6 -->
<g id="node6" class="node">
<title>Node6</title>
<g id="a_node6"><a xlink:href="xspech_8f90.html#a1451823a7b97101a797de616250752c1" target="_top" xlink:title="Final diagnostics.">
<polygon fill="white" stroke="black" points="87.36,-38.5 87.36,-57.5 176.36,-57.5 176.36,-38.5 87.36,-38.5"/>
<text text-anchor="middle" x="131.86" y="-45.5" font-family="Helvetica,sans-Serif" font-size="10.00">final_diagnostics</text>
</a>
</g>
</g>
<!-- Node5&#45;&gt;Node6 -->
<g id="edge6" class="edge">
<title>Node5&#45;&gt;Node6</title>
<path fill="none" stroke="midnightblue" d="M215.65,-41.85C203.45,-41.23 189.41,-41.09 176.39,-41.44"/>
<polygon fill="midnightblue" stroke="midnightblue" points="215.61,-45.35 225.81,-42.52 216.07,-38.37 215.61,-45.35"/>
</g>
<!-- Node7 -->
<g id="node7" class="node">
<title>Node7</title>
<g id="a_node7"><a xlink:href="xspech_8f90.html#a95271e8805067f801b5d4e524d6901d4" target="_top" xlink:title="Main program of SPEC.">
<polygon fill="white" stroke="black" points="99.86,-0.5 99.86,-19.5 163.86,-19.5 163.86,-0.5 99.86,-0.5"/>
<text text-anchor="middle" x="131.86" y="-7.5" font-family="Helvetica,sans-Serif" font-size="10.00">spec_main</text>
</a>
</g>
</g>
<!-- Node5&#45;&gt;Node7 -->
<g id="edge9" class="edge">
<title>Node5&#45;&gt;Node7</title>
<path fill="none" stroke="midnightblue" d="M216.28,-37.45C199.25,-31.84 178.48,-25.01 161.92,-19.56"/>
<polygon fill="midnightblue" stroke="midnightblue" points="215.22,-40.78 225.81,-40.58 217.41,-34.13 215.22,-40.78"/>
</g>
<!-- Node6&#45;&gt;Node5 -->
<g id="edge7" class="edge">
<title>Node6&#45;&gt;Node5</title>
<path fill="none" stroke="midnightblue" d="M186.4,-54.73C200.29,-54.84 214.51,-54.42 225.81,-53.48"/>
<polygon fill="midnightblue" stroke="midnightblue" points="186.45,-51.23 176.39,-54.56 186.33,-58.23 186.45,-51.23"/>
</g>
<!-- Node8&#45;&gt;Node8 -->
<g id="edge13" class="edge">
<title>Node8&#45;&gt;Node8</title>
<path fill="none" stroke="midnightblue" d="M394.72,-240.14C395.04,-246.14 387.42,-251 371.86,-251 349.22,-251 343.39,-240.72 354.35,-231.6"/>
<polygon fill="midnightblue" stroke="midnightblue" points="397.65,-238.21 389.37,-231.6 391.72,-241.93 397.65,-238.21"/>
</g>
<!-- Node8&#45;&gt;Node9 -->
<g id="edge14" class="edge">
<title>Node8&#45;&gt;Node9</title>
<path fill="none" stroke="midnightblue" d="M344.16,-213.07C323.01,-208.28 293.76,-203.75 273.57,-202.2"/>
<polygon fill="midnightblue" stroke="midnightblue" points="343.56,-216.53 354.1,-215.51 345.23,-209.73 343.56,-216.53"/>
</g>
<!-- Node9&#45;&gt;Node2 -->
<g id="edge20" class="edge">
<title>Node9&#45;&gt;Node2</title>
<path fill="none" stroke="midnightblue" d="M259,-185.33C268.52,-167.15 285.68,-140.51 309.36,-128 408.21,-75.78 550.41,-95.87 600.27,-105.25"/>
<polygon fill="midnightblue" stroke="midnightblue" points="255.81,-183.89 254.51,-194.41 262.08,-187 255.81,-183.89"/>
</g>
<!-- Node9&#45;&gt;Node8 -->
<g id="edge15" class="edge">
<title>Node9&#45;&gt;Node8</title>
<path fill="none" stroke="midnightblue" d="M283.57,-215.34C306.46,-220.12 335.93,-224.35 354.1,-225.2"/>
<polygon fill="midnightblue" stroke="midnightblue" points="284.1,-211.87 273.57,-213.12 282.58,-218.71 284.1,-211.87"/>
</g>
<!-- Node9&#45;&gt;Node9 -->
<g id="edge19" class="edge">
<title>Node9&#45;&gt;Node9</title>
<path fill="none" stroke="midnightblue" d="M270.84,-223.4C269.4,-228.31 262.24,-232 249.36,-232 228.74,-232 222.78,-222.57 231.48,-213.76"/>
<polygon fill="midnightblue" stroke="midnightblue" points="274.02,-221.9 267.24,-213.76 267.46,-224.35 274.02,-221.9"/>
</g>
<!-- Node9&#45;&gt;Node10 -->
<g id="edge16" class="edge">
<title>Node9&#45;&gt;Node10</title>
<path fill="none" stroke="midnightblue" d="M214.83,-203.18C165.58,-206.53 75.53,-218.07 38.47,-226.21"/>
<polygon fill="midnightblue" stroke="midnightblue" points="215.2,-206.67 224.97,-202.58 214.78,-199.68 215.2,-206.67"/>
</g>
<!-- Node11 -->
<g id="node11" class="node">
<title>Node11</title>
<g id="a_node11"><a xlink:href="group__grp__output.html#ga382822b303cbf8c56d6f54dcb379caf2" target="_top" xlink:title="read or write force&#45;derivative matrix .ext.sp.DF">
<polygon fill="white" stroke="black" points="99.36,-175.5 99.36,-194.5 164.36,-194.5 164.36,-175.5 99.36,-175.5"/>
<text text-anchor="middle" x="131.86" y="-182.5" font-family="Helvetica,sans-Serif" font-size="10.00">writereadgf</text>
</a>
</g>
</g>
<!-- Node9&#45;&gt;Node11 -->
<g id="edge21" class="edge">
<title>Node9&#45;&gt;Node11</title>
<path fill="none" stroke="midnightblue" d="M215.32,-192.4C199.41,-188.98 180.41,-185.88 164.66,-184.13"/>
<polygon fill="midnightblue" stroke="midnightblue" points="214.73,-195.85 225.26,-194.67 216.3,-189.03 214.73,-195.85"/>
</g>
<!-- Node10&#45;&gt;Node9 -->
<g id="edge18" class="edge">
<title>Node10&#45;&gt;Node9</title>
<path fill="none" stroke="midnightblue" d="M48.57,-233.24C93.3,-230.73 182.58,-219.62 224.97,-211.2"/>
<polygon fill="midnightblue" stroke="midnightblue" points="48.31,-229.75 38.47,-233.68 48.61,-236.74 48.31,-229.75"/>
</g>
<!-- Node10&#45;&gt;Node10 -->
<g id="edge17" class="edge">
<title>Node10&#45;&gt;Node10</title>
<path fill="none" stroke="midnightblue" d="M41.23,-251.4C39.87,-256.31 33.08,-260 20.86,-260 1.31,-260 -4.34,-250.57 3.9,-241.76"/>
<polygon fill="midnightblue" stroke="midnightblue" points="44.45,-250.01 37.81,-241.76 37.85,-252.35 44.45,-250.01"/>
</g>
<!-- Node11&#45;&gt;Node9 -->
<g id="edge23" class="edge">
<title>Node11&#45;&gt;Node9</title>
<path fill="none" stroke="midnightblue" d="M166.68,-196.77C185.52,-200.78 208.49,-204.33 225.26,-205.73"/>
<polygon fill="midnightblue" stroke="midnightblue" points="167.23,-193.31 156.71,-194.51 165.69,-200.13 167.23,-193.31"/>
</g>
<!-- Node11&#45;&gt;Node10 -->
<g id="edge22" class="edge">
<title>Node11&#45;&gt;Node10</title>
<path fill="none" stroke="midnightblue" d="M98.87,-198.51C90.86,-201.92 82.29,-205.58 74.36,-209 62.3,-214.2 48.72,-220.16 38.39,-224.7"/>
<polygon fill="midnightblue" stroke="midnightblue" points="100.45,-201.65 108.29,-194.52 97.72,-195.2 100.45,-201.65"/>
</g>
<!-- Node13 -->
<g id="node13" class="node">
<title>Node13</title>
<g id="a_node13"><a xlink:href="dfp200_8f90.html#a55ea75395f8c71731451e1add3720c7e" target="_top" xlink:title="Given the field consistent with the constraints and the geometry, computes local quantites related to...">
<polygon fill="white" stroke="black" points="226.36,-401.5 226.36,-420.5 272.36,-420.5 272.36,-401.5 226.36,-401.5"/>
<text text-anchor="middle" x="249.36" y="-408.5" font-family="Helvetica,sans-Serif" font-size="10.00">dfp200</text>
</a>
</g>
</g>
<!-- Node12&#45;&gt;Node13 -->
<g id="edge26" class="edge">
<title>Node12&#45;&gt;Node13</title>
<path fill="none" stroke="midnightblue" d="M299.05,-404.36C289.41,-404.55 280.18,-404.98 272.4,-405.64"/>
<polygon fill="midnightblue" stroke="midnightblue" points="299.24,-407.86 309.2,-404.25 299.16,-400.86 299.24,-407.86"/>
</g>
<!-- Node13&#45;&gt;Node3 -->
<g id="edge27" class="edge">
<title>Node13&#45;&gt;Node3</title>
<path fill="none" stroke="midnightblue" d="M282.03,-400.69C290.87,-397.85 300.48,-394.78 309.36,-392 364.77,-374.66 389.31,-390.64 434.36,-354 482.25,-315.05 506.45,-240.37 513.84,-213.73"/>
<polygon fill="midnightblue" stroke="midnightblue" points="280.9,-397.38 272.46,-403.79 283.06,-404.04 280.9,-397.38"/>
</g>
<!-- Node13&#45;&gt;Node12 -->
<g id="edge33" class="edge">
<title>Node13&#45;&gt;Node12</title>
<path fill="none" stroke="midnightblue" d="M282.64,-417.06C290.88,-417.5 300.02,-417.73 309.2,-417.75"/>
<polygon fill="midnightblue" stroke="midnightblue" points="282.61,-413.55 272.4,-416.36 282.14,-420.53 282.61,-413.55"/>
</g>
<!-- Node13&#45;&gt;Node13 -->
<g id="edge28" class="edge">
<title>Node13&#45;&gt;Node13</title>
<path fill="none" stroke="midnightblue" d="M270.84,-430.4C269.4,-435.31 262.24,-439 249.36,-439 228.74,-439 222.78,-429.57 231.48,-420.76"/>
<polygon fill="midnightblue" stroke="midnightblue" points="274.02,-428.9 267.24,-420.76 267.46,-431.35 274.02,-428.9"/>
</g>
<!-- Node14 -->
<g id="node14" class="node">
<title>Node14</title>
<g id="a_node14"><a xlink:href="dfp200_8f90.html#a7b64c7392b45d0042d8bd7379c0761a5" target="_top" xlink:title="Evaluate the derivative of the square of the magnetic field modulus. Add spectral constraint derivati...">
<polygon fill="white" stroke="black" points="94.86,-363.5 94.86,-382.5 168.86,-382.5 168.86,-363.5 94.86,-363.5"/>
<text text-anchor="middle" x="131.86" y="-370.5" font-family="Helvetica,sans-Serif" font-size="10.00">evaluate_dbb</text>
</a>
</g>
</g>
<!-- Node13&#45;&gt;Node14 -->
<g id="edge29" class="edge">
<title>Node13&#45;&gt;Node14</title>
<path fill="none" stroke="midnightblue" d="M223.67,-397.23C207.85,-390.83 187.05,-383.76 169.34,-378.68"/>
<polygon fill="midnightblue" stroke="midnightblue" points="222.69,-400.61 233.26,-401.3 225.42,-394.17 222.69,-400.61"/>
</g>
<!-- Node15 -->
<g id="node15" class="node">
<title>Node15</title>
<g id="a_node15"><a xlink:href="dfp200_8f90.html#a73ddf39ecc5228201fb643779e17cd36" target="_top" xlink:title="Evaluate mu and psip derivatives and store them in dmupfdx.">
<polygon fill="white" stroke="black" points="84.36,-439.5 84.36,-458.5 179.36,-458.5 179.36,-439.5 84.36,-439.5"/>
<text text-anchor="middle" x="131.86" y="-446.5" font-family="Helvetica,sans-Serif" font-size="10.00">evaluate_dmupfdx</text>
</a>
</g>
</g>
<!-- Node13&#45;&gt;Node15 -->
<g id="edge31" class="edge">
<title>Node13&#45;&gt;Node15</title>
<path fill="none" stroke="midnightblue" d="M216.31,-415.43C193.88,-421.63 164.96,-431.61 147.72,-439.41"/>
<polygon fill="midnightblue" stroke="midnightblue" points="217.3,-418.79 226.09,-412.87 215.53,-412.01 217.3,-418.79"/>
</g>
<!-- Node16 -->
<g id="node16" class="node">
<title>Node16</title>
<g id="a_node16"><a xlink:href="dfp200_8f90.html#a5e56f1f4b1e6df11a9cffa6237c37469" target="_top" xlink:title="This routine evaluates the value of the magnetic field once the interface is perturbed using matrix p...">
<polygon fill="white" stroke="black" points="74.36,-401.5 74.36,-420.5 189.36,-420.5 189.36,-401.5 74.36,-401.5"/>
<text text-anchor="middle" x="131.86" y="-408.5" font-family="Helvetica,sans-Serif" font-size="10.00">get_perturbed_solution</text>
</a>
</g>
</g>
<!-- Node13&#45;&gt;Node16 -->
<g id="edge34" class="edge">
<title>Node13&#45;&gt;Node16</title>
<path fill="none" stroke="midnightblue" d="M215.87,-404.86C207.66,-404.44 198.61,-404.23 189.59,-404.25"/>
<polygon fill="midnightblue" stroke="midnightblue" points="215.88,-408.37 226.09,-405.54 216.34,-401.38 215.88,-408.37"/>
</g>
<!-- Node14&#45;&gt;Node13 -->
<g id="edge30" class="edge">
<title>Node14&#45;&gt;Node13</title>
<path fill="none" stroke="midnightblue" d="M156.95,-386.53C177.32,-394.81 206.26,-404.28 226.09,-409.13"/>
<polygon fill="midnightblue" stroke="midnightblue" points="158.29,-383.3 147.72,-382.59 155.55,-389.74 158.29,-383.3"/>
</g>
<!-- Node15&#45;&gt;Node13 -->
<g id="edge32" class="edge">
<title>Node15&#45;&gt;Node13</title>
<path fill="none" stroke="midnightblue" d="M188.98,-437.28C205.31,-431.96 221.81,-425.86 233.26,-420.7"/>
<polygon fill="midnightblue" stroke="midnightblue" points="187.89,-433.96 179.42,-440.32 190.01,-440.63 187.89,-433.96"/>
</g>
<!-- Node16&#45;&gt;Node13 -->
<g id="edge35" class="edge">
<title>Node16&#45;&gt;Node13</title>
<path fill="none" stroke="midnightblue" d="M199.59,-417.68C209.12,-417.52 218.3,-417.11 226.09,-416.46"/>
<polygon fill="midnightblue" stroke="midnightblue" points="199.57,-414.18 189.59,-417.75 199.62,-421.18 199.57,-414.18"/>
</g>
<!-- Node17&#45;&gt;Node17 -->
<g id="edge41" class="edge">
<title>Node17&#45;&gt;Node17</title>
<path fill="none" stroke="midnightblue" d="M394.55,-336.03C393.31,-341.13 385.75,-345 371.86,-345 350.18,-345 343.91,-335.57 353.05,-326.76"/>
<polygon fill="midnightblue" stroke="midnightblue" points="397.76,-334.62 390.66,-326.76 391.3,-337.33 397.76,-334.62"/>
</g>
<!-- Node18 -->
<g id="node18" class="node">
<title>Node18</title>
<g id="a_node18"><a xlink:href="group__grp__conjugate__gradient.html#ga25a3bae2ff2ee0469b045de0d033398b" target="_top" xlink:title="Use preconditioned conjugate gradient method to find minimum of energy functional.">
<polygon fill="white" stroke="black" points="225.36,-307.5 225.36,-326.5 273.36,-326.5 273.36,-307.5 225.36,-307.5"/>
<text text-anchor="middle" x="249.36" y="-314.5" font-family="Helvetica,sans-Serif" font-size="10.00">pc00aa</text>
</a>
</g>
</g>
<!-- Node17&#45;&gt;Node18 -->
<g id="edge39" class="edge">
<title>Node17&#45;&gt;Node18</title>
<path fill="none" stroke="midnightblue" d="M337.52,-317C317.17,-317 291.67,-317 273.52,-317"/>
<polygon fill="midnightblue" stroke="midnightblue" points="337.63,-320.5 347.63,-317 337.62,-313.5 337.63,-320.5"/>
</g>
<!-- Node18&#45;&gt;Node18 -->
<g id="edge40" class="edge">
<title>Node18&#45;&gt;Node18</title>
<path fill="none" stroke="midnightblue" d="M270.84,-336.4C269.4,-341.31 262.24,-345 249.36,-345 228.74,-345 222.78,-335.57 231.48,-326.76"/>
<polygon fill="midnightblue" stroke="midnightblue" points="274.02,-334.9 267.24,-326.76 267.46,-337.35 274.02,-334.9"/>
</g>
<!-- Node19&#45;&gt;Node5 -->
<g id="edge44" class="edge">
<title>Node19&#45;&gt;Node5</title>
<path fill="none" stroke="midnightblue" d="M460.19,-66.14C402.05,-61.12 314.09,-53.51 273,-49.96"/>
<polygon fill="midnightblue" stroke="midnightblue" points="460.06,-69.65 470.33,-67.02 460.67,-62.67 460.06,-69.65"/>
</g>
</g>
</svg>
