<?xml version="1.0" encoding="UTF-8" standalone="no"?>
<!DOCTYPE svg PUBLIC "-//W3C//DTD SVG 1.1//EN"
 "http://www.w3.org/Graphics/SVG/1.1/DTD/svg11.dtd">
<!-- Generated by graphviz version 2.49.0 (0)
 -->
<!-- Title: ma00aa Pages: 1 -->
<svg width="362pt" height="235pt"
 viewBox="0.00 0.00 362.00 235.00" xmlns="http://www.w3.org/2000/svg" xmlns:xlink="http://www.w3.org/1999/xlink">
<g id="graph0" class="graph" transform="scale(1 1) rotate(0) translate(4 231)">
<title>ma00aa</title>
<polygon fill="white" stroke="transparent" points="-4,4 -4,-231 358,-231 358,4 -4,4"/>
<!-- Node1 -->
<g id="node1" class="node">
<title>Node1</title>
<g id="a_node1"><a xlink:title="Calculates volume integrals of Chebyshev polynomials and metric element products.">
<polygon fill="#bfbfbf" stroke="black" points="0,-94.5 0,-113.5 51,-113.5 51,-94.5 0,-94.5"/>
<text text-anchor="middle" x="25.5" y="-101.5" font-family="Helvetica,sans-Serif" font-size="10.00">ma00aa</text>
</a>
</g>
</g>
<!-- Node1&#45;&gt;Node1 -->
<g id="edge10" class="edge">
<title>Node1&#45;&gt;Node1</title>
<path fill="none" stroke="midnightblue" d="M8.24,-113.76C-0.16,-122.57 5.59,-132 25.5,-132 37.94,-132 44.85,-128.31 46.24,-123.4"/>
<polygon fill="midnightblue" stroke="midnightblue" points="49.45,-121.98 42.76,-113.76 42.86,-124.35 49.45,-121.98"/>
</g>
<!-- Node2 -->
<g id="node2" class="node">
<title>Node2</title>
<g id="a_node2"><a xlink:href="metrix_8f90.html#a80c802cda076dd9e7031bc5f9098c175" target="_top" xlink:title="compute guvijsave">
<polygon fill="white" stroke="black" points="87,-170.5 87,-189.5 188,-189.5 188,-170.5 87,-170.5"/>
<text text-anchor="middle" x="137.5" y="-177.5" font-family="Helvetica,sans-Serif" font-size="10.00">compute_guvijsave</text>
</a>
</g>
</g>
<!-- Node1&#45;&gt;Node2 -->
<g id="edge1" class="edge">
<title>Node1&#45;&gt;Node2</title>
<path fill="none" stroke="midnightblue" d="M36.14,-113.68C47.57,-124.83 67.55,-143.23 87,-156 92.45,-159.58 98.51,-162.95 104.47,-165.98"/>
<polygon fill="midnightblue" stroke="midnightblue" points="103.13,-169.22 113.65,-170.43 106.18,-162.92 103.13,-169.22"/>
</g>
<!-- Node5 -->
<g id="node5" class="node">
<title>Node5</title>
<g id="a_node5"><a xlink:href="group__grp__volume.html#gae4c62d20b8fef07f4471b5b0889ab005" target="_top" xlink:title="Computes volume of each region; and, if required, the derivatives of the volume with respect to the i...">
<polygon fill="white" stroke="black" points="306,-151.5 306,-170.5 354,-170.5 354,-151.5 306,-151.5"/>
<text text-anchor="middle" x="330" y="-158.5" font-family="Helvetica,sans-Serif" font-size="10.00">volume</text>
</a>
</g>
</g>
<!-- Node1&#45;&gt;Node5 -->
<g id="edge14" class="edge">
<title>Node1&#45;&gt;Node5</title>
<path fill="none" stroke="midnightblue" d="M51.29,-112.7C62.15,-116.27 75.1,-120.21 87,-123 160.57,-140.23 248.58,-151.84 295.55,-157.34"/>
<polygon fill="midnightblue" stroke="midnightblue" points="295.42,-160.85 305.76,-158.52 296.22,-153.9 295.42,-160.85"/>
</g>
<!-- Node6 -->
<g id="node6" class="node">
<title>Node6</title>
<g id="a_node6"><a xlink:href="basefn_8f90.html#af6a4cad04c70bfb14fd18a3bfbc843a3" target="_top" xlink:title="Get the Chebyshev polynomials with zeroth, first derivatives.">
<polygon fill="white" stroke="black" points="107,-94.5 107,-113.5 168,-113.5 168,-94.5 107,-94.5"/>
<text text-anchor="middle" x="137.5" y="-101.5" font-family="Helvetica,sans-Serif" font-size="10.00">get_cheby</text>
</a>
</g>
</g>
<!-- Node1&#45;&gt;Node6 -->
<g id="edge8" class="edge">
<title>Node1&#45;&gt;Node6</title>
<path fill="none" stroke="midnightblue" d="M51.19,-104C64.57,-104 81.43,-104 96.62,-104"/>
<polygon fill="midnightblue" stroke="midnightblue" points="96.81,-107.5 106.81,-104 96.81,-100.5 96.81,-107.5"/>
</g>
<!-- Node7 -->
<g id="node7" class="node">
<title>Node7</title>
<g id="a_node7"><a xlink:href="basefn_8f90.html#a38dc596fb909186b01dacc1feac03164" target="_top" xlink:title="Get the Zernike polynomials &#160;with zeroth, first derivatives.">
<polygon fill="white" stroke="black" points="104.5,-56.5 104.5,-75.5 170.5,-75.5 170.5,-56.5 104.5,-56.5"/>
<text text-anchor="middle" x="137.5" y="-63.5" font-family="Helvetica,sans-Serif" font-size="10.00">get_zernike</text>
</a>
</g>
</g>
<!-- Node1&#45;&gt;Node7 -->
<g id="edge9" class="edge">
<title>Node1&#45;&gt;Node7</title>
<path fill="none" stroke="midnightblue" d="M51.19,-95.47C65.35,-90.58 83.41,-84.34 99.27,-78.86"/>
<polygon fill="midnightblue" stroke="midnightblue" points="100.49,-82.14 108.8,-75.57 98.21,-75.53 100.49,-82.14"/>
</g>
<!-- Node8 -->
<g id="node8" class="node">
<title>Node8</title>
<g id="a_node8"><a xlink:href="group__grp__metrics.html#ga254ce8e645c4110d77e3b3dbc3a89885" target="_top" xlink:title="Calculates the metric quantities, , which are required for the energy and helicity integrals.">
<polygon fill="white" stroke="black" points="116,-0.5 116,-19.5 159,-19.5 159,-0.5 116,-0.5"/>
<text text-anchor="middle" x="137.5" y="-7.5" font-family="Helvetica,sans-Serif" font-size="10.00">metrix</text>
</a>
</g>
</g>
<!-- Node1&#45;&gt;Node8 -->
<g id="edge11" class="edge">
<title>Node1&#45;&gt;Node8</title>
<path fill="none" stroke="midnightblue" d="M36.04,-94.37C47.7,-82.74 68.22,-62.78 87,-47 95.75,-39.65 105.79,-32.01 114.52,-25.6"/>
<polygon fill="midnightblue" stroke="midnightblue" points="116.69,-28.35 122.73,-19.65 112.58,-22.68 116.69,-28.35"/>
</g>
<!-- Node3 -->
<g id="node3" class="node">
<title>Node3</title>
<g id="a_node3"><a xlink:href="group__grp__geometry.html#gaaca20aa60eaf39055f3c9d5c02a24ac2" target="_top" xlink:title="Calculates coordinates, , and metrics, using FFTs.">
<polygon fill="white" stroke="black" points="224,-170.5 224,-189.5 270,-189.5 270,-170.5 224,-170.5"/>
<text text-anchor="middle" x="247" y="-177.5" font-family="Helvetica,sans-Serif" font-size="10.00">coords</text>
</a>
</g>
</g>
<!-- Node2&#45;&gt;Node3 -->
<g id="edge2" class="edge">
<title>Node2&#45;&gt;Node3</title>
<path fill="none" stroke="midnightblue" d="M188.16,-180C196.88,-180 205.75,-180 213.83,-180"/>
<polygon fill="midnightblue" stroke="midnightblue" points="213.93,-183.5 223.93,-180 213.93,-176.5 213.93,-183.5"/>
</g>
<!-- Node3&#45;&gt;Node3 -->
<g id="edge3" class="edge">
<title>Node3&#45;&gt;Node3</title>
<path fill="none" stroke="midnightblue" d="M234.36,-189.76C228.21,-198.57 232.43,-208 247,-208 255.88,-208 260.91,-204.5 262.1,-199.77"/>
<polygon fill="midnightblue" stroke="midnightblue" points="265.43,-198.63 259.64,-189.76 258.63,-200.3 265.43,-198.63"/>
</g>
<!-- Node4 -->
<g id="node4" class="node">
<title>Node4</title>
<g id="a_node4"><a xlink:href="group__grp__numerics.html#ga1fd52accb0646f535f9bcc46cf5a68f3" target="_top" xlink:title="Inverse Fourier transform (fftw wrapper)">
<polygon fill="white" stroke="black" points="311,-207.5 311,-226.5 349,-226.5 349,-207.5 311,-207.5"/>
<text text-anchor="middle" x="330" y="-214.5" font-family="Helvetica,sans-Serif" font-size="10.00">invfft</text>
</a>
</g>
</g>
<!-- Node3&#45;&gt;Node4 -->
<g id="edge4" class="edge">
<title>Node3&#45;&gt;Node4</title>
<path fill="none" stroke="midnightblue" d="M268.86,-189.53C278.84,-194.09 290.91,-199.6 301.62,-204.49"/>
<polygon fill="midnightblue" stroke="midnightblue" points="300.41,-207.79 310.96,-208.76 303.32,-201.42 300.41,-207.79"/>
</g>
<!-- Node3&#45;&gt;Node5 -->
<g id="edge5" class="edge">
<title>Node3&#45;&gt;Node5</title>
<path fill="none" stroke="midnightblue" d="M264.78,-170.47C273.77,-167.36 285.17,-164.34 295.86,-162.12"/>
<polygon fill="midnightblue" stroke="midnightblue" points="296.6,-165.55 305.79,-160.27 295.32,-158.66 296.6,-165.55"/>
</g>
<!-- Node5&#45;&gt;Node3 -->
<g id="edge6" class="edge">
<title>Node5&#45;&gt;Node3</title>
<path fill="none" stroke="midnightblue" d="M312.29,-170.5C303.05,-173.7 291.24,-176.82 280.28,-179.05"/>
<polygon fill="midnightblue" stroke="midnightblue" points="279.35,-175.67 270.13,-180.9 280.6,-182.55 279.35,-175.67"/>
</g>
<!-- Node5&#45;&gt;Node5 -->
<g id="edge7" class="edge">
<title>Node5&#45;&gt;Node5</title>
<path fill="none" stroke="midnightblue" d="M317.36,-170.76C311.21,-179.57 315.43,-189 330,-189 338.88,-189 343.91,-185.5 345.1,-180.77"/>
<polygon fill="midnightblue" stroke="midnightblue" points="348.43,-179.63 342.64,-170.76 341.63,-181.3 348.43,-179.63"/>
</g>
<!-- Node8&#45;&gt;Node8 -->
<g id="edge12" class="edge">
<title>Node8&#45;&gt;Node8</title>
<path fill="none" stroke="midnightblue" d="M120.85,-19.76C112.76,-28.57 118.3,-38 137.5,-38 149.5,-38 156.16,-34.31 157.5,-29.4"/>
<polygon fill="midnightblue" stroke="midnightblue" points="160.74,-28.05 154.15,-19.76 154.12,-30.35 160.74,-28.05"/>
</g>
<!-- Node9 -->
<g id="node9" class="node">
<title>Node9</title>
<g id="a_node9"><a xlink:href="group__grp__numerics.html#ga041138109a57e651c57117bb4180409e" target="_top" xlink:title="Forward Fourier transform (fftw wrapper)">
<polygon fill="white" stroke="black" points="232.5,-0.5 232.5,-19.5 261.5,-19.5 261.5,-0.5 232.5,-0.5"/>
<text text-anchor="middle" x="247" y="-7.5" font-family="Helvetica,sans-Serif" font-size="10.00">tfft</text>
</a>
</g>
</g>
<!-- Node8&#45;&gt;Node9 -->
<g id="edge13" class="edge">
<title>Node8&#45;&gt;Node9</title>
<path fill="none" stroke="midnightblue" d="M159.23,-10C177.28,-10 203.45,-10 222.33,-10"/>
<polygon fill="midnightblue" stroke="midnightblue" points="222.48,-13.5 232.48,-10 222.48,-6.5 222.48,-13.5"/>
</g>
</g>
</svg>
