<?xml version="1.0" encoding="UTF-8" standalone="no"?>
<!DOCTYPE svg PUBLIC "-//W3C//DTD SVG 1.1//EN"
 "http://www.w3.org/Graphics/SVG/1.1/DTD/svg11.dtd">
<!-- Generated by graphviz version 2.47.1 (20210421.1823)
 -->
<!-- Title: lforce Pages: 1 -->
<svg width="792pt" height="387pt"
 viewBox="0.00 0.00 792.00 387.17" xmlns="http://www.w3.org/2000/svg" xmlns:xlink="http://www.w3.org/1999/xlink">
<g id="graph0" class="graph" transform="scale(1 1) rotate(0) translate(4 383.17)">
<title>lforce</title>
<polygon fill="white" stroke="transparent" points="-4,4 -4,-383.17 788,-383.17 788,4 -4,4"/>
<!-- Node1 -->
<g id="node1" class="node">
<title>Node1</title>
<g id="a_node1"><a xlink:title="Computes , and the spectral condensation constraints if required, on the interfaces,...">
<polygon fill="#bfbfbf" stroke="black" points="743,-132.5 743,-151.5 784,-151.5 784,-132.5 743,-132.5"/>
<text text-anchor="middle" x="763.5" y="-139.5" font-family="Helvetica,sans-Serif" font-size="10.00">lforce</text>
</a>
</g>
</g>
<!-- Node2 -->
<g id="node2" class="node">
<title>Node2</title>
<g id="a_node2"><a xlink:href="dfp200_8f90.html#a55ea75395f8c71731451e1add3720c7e" target="_top" xlink:title="Given the field consistent with the constraints and the geometry, computes local quantites related to...">
<polygon fill="white" stroke="black" points="661,-104.5 661,-123.5 707,-123.5 707,-104.5 661,-104.5"/>
<text text-anchor="middle" x="684" y="-111.5" font-family="Helvetica,sans-Serif" font-size="10.00">dfp200</text>
</a>
</g>
</g>
<!-- Node1&#45;&gt;Node2 -->
<g id="edge1" class="edge">
<title>Node1&#45;&gt;Node2</title>
<path fill="none" stroke="midnightblue" d="M733.46,-131.51C724.7,-128.34 715.24,-124.92 707.01,-121.95"/>
<polygon fill="midnightblue" stroke="midnightblue" points="732.35,-134.83 742.94,-134.93 734.73,-128.24 732.35,-134.83"/>
</g>
<!-- Node16 -->
<g id="node16" class="node">
<title>Node16</title>
<g id="a_node16"><a xlink:href="dfp200_8f90.html#a7b64c7392b45d0042d8bd7379c0761a5" target="_top" xlink:title="Evaluate the derivative of the square of the magnetic field modulus. Add spectral constraint derivati...">
<polygon fill="white" stroke="black" points="530.5,-171.5 530.5,-190.5 604.5,-190.5 604.5,-171.5 530.5,-171.5"/>
<text text-anchor="middle" x="567.5" y="-178.5" font-family="Helvetica,sans-Serif" font-size="10.00">evaluate_dbb</text>
</a>
</g>
</g>
<!-- Node1&#45;&gt;Node16 -->
<g id="edge35" class="edge">
<title>Node1&#45;&gt;Node16</title>
<path fill="none" stroke="midnightblue" d="M732.91,-147.95C698.5,-154.87 641.67,-166.29 604.66,-173.73"/>
<polygon fill="midnightblue" stroke="midnightblue" points="733.72,-151.36 742.83,-145.95 732.34,-144.49 733.72,-151.36"/>
</g>
<!-- Node3 -->
<g id="node3" class="node">
<title>Node3</title>
<g id="a_node3"><a xlink:href="group__grp__global__force.html#ga38c9d3c50bd043707fefa5137c9dbf44" target="_top" xlink:title="Calculates , where &#160;and , and .">
<polygon fill="white" stroke="black" points="545.5,-95.5 545.5,-114.5 589.5,-114.5 589.5,-95.5 545.5,-95.5"/>
<text text-anchor="middle" x="567.5" y="-102.5" font-family="Helvetica,sans-Serif" font-size="10.00">dforce</text>
</a>
</g>
</g>
<!-- Node2&#45;&gt;Node3 -->
<g id="edge2" class="edge">
<title>Node2&#45;&gt;Node3</title>
<path fill="none" stroke="midnightblue" d="M650.92,-111.48C631.36,-109.94 606.91,-108.02 589.73,-106.67"/>
<polygon fill="midnightblue" stroke="midnightblue" points="650.68,-114.97 660.92,-112.26 651.23,-107.99 650.68,-114.97"/>
</g>
<!-- Node10 -->
<g id="node10" class="node">
<title>Node10</title>
<g id="a_node10"><a xlink:href="dfp200_8f90.html#a6aca59cf350d7b1941f8389d50945a43" target="_top" xlink:title="get LU Beltrami matrices">
<polygon fill="white" stroke="black" points="349,-0.5 349,-19.5 474,-19.5 474,-0.5 349,-0.5"/>
<text text-anchor="middle" x="411.5" y="-7.5" font-family="Helvetica,sans-Serif" font-size="10.00">get_lu_beltrami_matrices</text>
</a>
</g>
</g>
<!-- Node2&#45;&gt;Node10 -->
<g id="edge32" class="edge">
<title>Node2&#45;&gt;Node10</title>
<path fill="none" stroke="midnightblue" d="M667.08,-98.33C655.53,-91.04 639.45,-83.2 625,-77 559.08,-48.71 541.86,-43.26 474,-20 473.58,-19.86 473.15,-19.71 472.73,-19.56"/>
<polygon fill="midnightblue" stroke="midnightblue" points="665.39,-101.42 675.59,-104.29 669.4,-95.69 665.39,-101.42"/>
</g>
<!-- Node2&#45;&gt;Node16 -->
<g id="edge28" class="edge">
<title>Node2&#45;&gt;Node16</title>
<path fill="none" stroke="midnightblue" d="M657.52,-130.08C647.89,-137.83 636.48,-146.61 625,-153 610.71,-160.95 592.54,-166.33 580.72,-171.39"/>
<polygon fill="midnightblue" stroke="midnightblue" points="659.92,-132.64 665.47,-123.61 655.5,-127.2 659.92,-132.64"/>
</g>
<!-- Node17 -->
<g id="node17" class="node">
<title>Node17</title>
<g id="a_node17"><a xlink:href="dfp200_8f90.html#a73ddf39ecc5228201fb643779e17cd36" target="_top" xlink:title="Evaluate mu and psip derivatives and store them in dmupfdx.">
<polygon fill="white" stroke="black" points="520,-1.5 520,-20.5 615,-20.5 615,-1.5 520,-1.5"/>
<text text-anchor="middle" x="567.5" y="-8.5" font-family="Helvetica,sans-Serif" font-size="10.00">evaluate_dmupfdx</text>
</a>
</g>
</g>
<!-- Node2&#45;&gt;Node17 -->
<g id="edge30" class="edge">
<title>Node2&#45;&gt;Node17</title>
<path fill="none" stroke="midnightblue" d="M676.33,-94.85C666.97,-74.76 648.4,-44.53 625,-26 621.91,-23.55 618.53,-21.31 615.01,-19.29"/>
<polygon fill="midnightblue" stroke="midnightblue" points="673.23,-96.49 680.37,-104.32 679.67,-93.74 673.23,-96.49"/>
</g>
<!-- Node18 -->
<g id="node18" class="node">
<title>Node18</title>
<g id="a_node18"><a xlink:href="dfp200_8f90.html#a5e56f1f4b1e6df11a9cffa6237c37469" target="_top" xlink:title="This routine evaluates the value of the magnetic field once the interface is perturbed using matrix p...">
<polygon fill="white" stroke="black" points="510,-133.5 510,-152.5 625,-152.5 625,-133.5 510,-133.5"/>
<text text-anchor="middle" x="567.5" y="-140.5" font-family="Helvetica,sans-Serif" font-size="10.00">get_perturbed_solution</text>
</a>
</g>
</g>
<!-- Node2&#45;&gt;Node18 -->
<g id="edge33" class="edge">
<title>Node2&#45;&gt;Node18</title>
<path fill="none" stroke="midnightblue" d="M650.89,-116C630.02,-120.19 603.59,-127.25 586.37,-133.41"/>
<polygon fill="midnightblue" stroke="midnightblue" points="651.73,-119.4 660.92,-114.13 650.45,-112.52 651.73,-119.4"/>
</g>
<!-- Node4 -->
<g id="node4" class="node">
<title>Node4</title>
<g id="a_node4"><a xlink:href="group__grp__force__driver.html#gabbc245b3884ee8d8d3e2a52f25149f78" target="_top" xlink:title="fcn1">
<polygon fill="white" stroke="black" points="394,-237.5 394,-256.5 429,-256.5 429,-237.5 394,-237.5"/>
<text text-anchor="middle" x="411.5" y="-244.5" font-family="Helvetica,sans-Serif" font-size="10.00">fcn1</text>
</a>
</g>
</g>
<!-- Node3&#45;&gt;Node4 -->
<g id="edge3" class="edge">
<title>Node3&#45;&gt;Node4</title>
<path fill="none" stroke="midnightblue" d="M535.52,-111.27C526.65,-114.12 517.39,-118.19 510,-124 486.44,-142.51 492.29,-157.27 474,-181 457.55,-202.34 435.44,-224.79 422.71,-237.24"/>
<polygon fill="midnightblue" stroke="midnightblue" points="536.56,-114.61 545.25,-108.56 534.68,-107.87 536.56,-114.61"/>
</g>
<!-- Node5 -->
<g id="node5" class="node">
<title>Node5</title>
<g id="a_node5"><a xlink:href="group__grp__force__driver.html#gaec14f81fbdbedafbc4189489ec8ae178" target="_top" xlink:title="Employs Newton method to find , where &#160;and &#160;is defined in dforce() .">
<polygon fill="white" stroke="black" points="265,-275.5 265,-294.5 313,-294.5 313,-275.5 265,-275.5"/>
<text text-anchor="middle" x="289" y="-282.5" font-family="Helvetica,sans-Serif" font-size="10.00">newton</text>
</a>
</g>
</g>
<!-- Node3&#45;&gt;Node5 -->
<g id="edge19" class="edge">
<title>Node3&#45;&gt;Node5</title>
<path fill="none" stroke="midnightblue" d="M535.42,-109.56C526.13,-112.34 516.66,-116.81 510,-124 465.75,-171.76 523.26,-223.43 474,-266 428.68,-305.16 351.74,-297.35 313.3,-290.22"/>
<polygon fill="midnightblue" stroke="midnightblue" points="536.39,-112.92 545.28,-107.16 534.74,-106.12 536.39,-112.92"/>
</g>
<!-- Node6 -->
<g id="node6" class="node">
<title>Node6</title>
<g id="a_node6"><a xlink:href="group__grp__force__driver.html#ga8ccd6c7d901872702521d0a0edf95412" target="_top" xlink:title="fcn2">
<polygon fill="white" stroke="black" points="87,-298.5 87,-317.5 122,-317.5 122,-298.5 87,-298.5"/>
<text text-anchor="middle" x="104.5" y="-305.5" font-family="Helvetica,sans-Serif" font-size="10.00">fcn2</text>
</a>
</g>
</g>
<!-- Node3&#45;&gt;Node6 -->
<g id="edge14" class="edge">
<title>Node3&#45;&gt;Node6</title>
<path fill="none" stroke="midnightblue" d="M535.46,-109.33C526.09,-112.1 516.57,-116.62 510,-124 458.38,-182.03 528.44,-239.61 474,-295 375.86,-394.85 297.03,-394.63 164,-351 144.12,-344.48 125.42,-328.33 114.74,-317.79"/>
<polygon fill="midnightblue" stroke="midnightblue" points="536.49,-112.69 545.41,-106.97 534.87,-105.88 536.49,-112.69"/>
</g>
<!-- Node8 -->
<g id="node8" class="node">
<title>Node8</title>
<g id="a_node8"><a xlink:href="xspech_8f90.html#aea782eae089760a491c2c54f9903abcc" target="_top" xlink:title="Main program of SPEC.">
<polygon fill="white" stroke="black" points="81,-152.5 81,-171.5 128,-171.5 128,-152.5 81,-152.5"/>
<text text-anchor="middle" x="104.5" y="-159.5" font-family="Helvetica,sans-Serif" font-size="10.00">xspech</text>
</a>
</g>
</g>
<!-- Node3&#45;&gt;Node8 -->
<g id="edge27" class="edge">
<title>Node3&#45;&gt;Node8</title>
<path fill="none" stroke="midnightblue" d="M535.47,-97.38C465.87,-81.89 293.3,-52.42 164,-105 140.36,-114.61 121.04,-138.89 111.65,-152.45"/>
<polygon fill="midnightblue" stroke="midnightblue" points="534.82,-100.83 545.35,-99.65 536.38,-94 534.82,-100.83"/>
</g>
<!-- Node3&#45;&gt;Node10 -->
<g id="edge15" class="edge">
<title>Node3&#45;&gt;Node10</title>
<path fill="none" stroke="midnightblue" d="M535.95,-95.67C527,-92.01 517.59,-87.18 510,-81 488.2,-63.25 496.67,-45.62 474,-29 468.68,-25.1 462.55,-21.99 456.26,-19.51"/>
<polygon fill="midnightblue" stroke="midnightblue" points="534.78,-98.97 545.37,-99.19 537.23,-92.41 534.78,-98.97"/>
</g>
<!-- Node11 -->
<g id="node11" class="node">
<title>Node11</title>
<g id="a_node11"><a xlink:href="group__grp__diagnostics.html#ga7401b50ec10c6598ee4a8112717a63ec" target="_top" xlink:title="Computes eigenvalues and eigenvectors of derivative matrix, .">
<polygon fill="white" stroke="black" points="174,-114.5 174,-133.5 219,-133.5 219,-114.5 174,-114.5"/>
<text text-anchor="middle" x="196.5" y="-121.5" font-family="Helvetica,sans-Serif" font-size="10.00">hesian</text>
</a>
</g>
</g>
<!-- Node3&#45;&gt;Node11 -->
<g id="edge17" class="edge">
<title>Node3&#45;&gt;Node11</title>
<path fill="none" stroke="midnightblue" d="M534.92,-106.63C461.58,-110.4 281.28,-119.69 219.04,-122.89"/>
<polygon fill="midnightblue" stroke="midnightblue" points="535.53,-110.1 545.34,-106.09 535.17,-103.11 535.53,-110.1"/>
</g>
<!-- Node12 -->
<g id="node12" class="node">
<title>Node12</title>
<g id="a_node12"><a xlink:href="group__grp__conjugate__gradient.html#ga4d8415226e62a9fdb42b0fd0b464251e" target="_top" xlink:title="Returns the energy functional and it&#39;s derivatives with respect to geometry.">
<polygon fill="white" stroke="black" points="387.5,-38.5 387.5,-57.5 435.5,-57.5 435.5,-38.5 387.5,-38.5"/>
<text text-anchor="middle" x="411.5" y="-45.5" font-family="Helvetica,sans-Serif" font-size="10.00">pc00ab</text>
</a>
</g>
</g>
<!-- Node3&#45;&gt;Node12 -->
<g id="edge20" class="edge">
<title>Node3&#45;&gt;Node12</title>
<path fill="none" stroke="midnightblue" d="M536,-93.71C506.46,-82.78 462.33,-66.44 435.59,-56.55"/>
<polygon fill="midnightblue" stroke="midnightblue" points="534.82,-97.01 545.41,-97.19 537.25,-90.44 534.82,-97.01"/>
</g>
<!-- Node14 -->
<g id="node14" class="node">
<title>Node14</title>
<g id="a_node14"><a xlink:href="namespaceallglobal.html#ad32ae6194892fe7d876622a6455189e2" target="_top" xlink:title="The master node reads the input namelist and sets various internal variables. The relevant quantities...">
<polygon fill="white" stroke="black" points="370,-152.5 370,-171.5 453,-171.5 453,-152.5 370,-152.5"/>
<text text-anchor="middle" x="411.5" y="-159.5" font-family="Helvetica,sans-Serif" font-size="10.00">allglobal::readin</text>
</a>
</g>
</g>
<!-- Node3&#45;&gt;Node14 -->
<g id="edge22" class="edge">
<title>Node3&#45;&gt;Node14</title>
<path fill="none" stroke="midnightblue" d="M535.99,-114.97C527.54,-117.81 518.39,-120.96 510,-124 508.17,-124.66 465.29,-141.39 437.01,-152.43"/>
<polygon fill="midnightblue" stroke="midnightblue" points="537.11,-118.28 545.49,-111.8 534.9,-111.64 537.11,-118.28"/>
</g>
<!-- Node4&#45;&gt;Node5 -->
<g id="edge4" class="edge">
<title>Node4&#45;&gt;Node5</title>
<path fill="none" stroke="midnightblue" d="M383.84,-249.69C359.79,-255.62 325.24,-266.85 305.47,-275.42"/>
<polygon fill="midnightblue" stroke="midnightblue" points="384.77,-253.07 393.74,-247.44 383.22,-246.25 384.77,-253.07"/>
</g>
<!-- Node5&#45;&gt;Node4 -->
<g id="edge5" class="edge">
<title>Node5&#45;&gt;Node4</title>
<path fill="none" stroke="midnightblue" d="M323.04,-280.68C346.39,-274.52 376.63,-264.52 394.75,-256.7"/>
<polygon fill="midnightblue" stroke="midnightblue" points="322.05,-277.32 313.19,-283.14 323.74,-284.11 322.05,-277.32"/>
</g>
<!-- Node5&#45;&gt;Node6 -->
<g id="edge6" class="edge">
<title>Node5&#45;&gt;Node6</title>
<path fill="none" stroke="midnightblue" d="M254.78,-283.84C215.66,-286.55 152.21,-294.96 122.22,-301.79"/>
<polygon fill="midnightblue" stroke="midnightblue" points="255.11,-287.32 264.89,-283.24 254.7,-280.34 255.11,-287.32"/>
</g>
<!-- Node7 -->
<g id="node7" class="node">
<title>Node7</title>
<g id="a_node7"><a xlink:href="group__grp__force__driver.html#ga382822b303cbf8c56d6f54dcb379caf2" target="_top" xlink:title="read or write force&#45;derivative matrix">
<polygon fill="white" stroke="black" points="164,-322.5 164,-341.5 229,-341.5 229,-322.5 164,-322.5"/>
<text text-anchor="middle" x="196.5" y="-329.5" font-family="Helvetica,sans-Serif" font-size="10.00">writereadgf</text>
</a>
</g>
</g>
<!-- Node5&#45;&gt;Node7 -->
<g id="edge8" class="edge">
<title>Node5&#45;&gt;Node7</title>
<path fill="none" stroke="midnightblue" d="M255.18,-295.53C238.41,-303.6 219.16,-314.28 207.68,-322.25"/>
<polygon fill="midnightblue" stroke="midnightblue" points="257.09,-298.5 264.69,-291.12 254.15,-292.15 257.09,-298.5"/>
</g>
<!-- Node5&#45;&gt;Node8 -->
<g id="edge11" class="edge">
<title>Node5&#45;&gt;Node8</title>
<path fill="none" stroke="midnightblue" d="M259.1,-270.63C233.29,-257.3 194.9,-236.21 164,-214 145.68,-200.83 126.52,-182.88 115.32,-171.88"/>
<polygon fill="midnightblue" stroke="midnightblue" points="257.84,-273.92 268.34,-275.35 261.02,-267.68 257.84,-273.92"/>
</g>
<!-- Node6&#45;&gt;Node5 -->
<g id="edge7" class="edge">
<title>Node6&#45;&gt;Node5</title>
<path fill="none" stroke="midnightblue" d="M132.41,-309.56C168.26,-307.53 231.07,-299.52 264.89,-292.59"/>
<polygon fill="midnightblue" stroke="midnightblue" points="132.06,-306.07 122.22,-309.99 132.36,-313.07 132.06,-306.07"/>
</g>
<!-- Node7&#45;&gt;Node5 -->
<g id="edge10" class="edge">
<title>Node7&#45;&gt;Node5</title>
<path fill="none" stroke="midnightblue" d="M237.61,-317.88C252.5,-310.37 268.14,-301.49 277.97,-294.64"/>
<polygon fill="midnightblue" stroke="midnightblue" points="235.94,-314.8 228.5,-322.35 239.02,-321.09 235.94,-314.8"/>
</g>
<!-- Node7&#45;&gt;Node6 -->
<g id="edge9" class="edge">
<title>Node7&#45;&gt;Node6</title>
<path fill="none" stroke="midnightblue" d="M153.99,-320.93C142.69,-317.92 131.09,-314.82 122.07,-312.42"/>
<polygon fill="midnightblue" stroke="midnightblue" points="153.21,-324.34 163.77,-323.54 155.01,-317.58 153.21,-324.34"/>
</g>
<!-- Node9 -->
<g id="node9" class="node">
<title>Node9</title>
<g id="a_node9"><a xlink:href="xspech_8f90.html#a537af4990058c0b0f2cd8b3669af204f" target="_top" xlink:title="todo remark">
<polygon fill="white" stroke="black" points="0,-152.5 0,-171.5 45,-171.5 45,-152.5 0,-152.5"/>
<text text-anchor="middle" x="22.5" y="-159.5" font-family="Helvetica,sans-Serif" font-size="10.00">ending</text>
</a>
</g>
</g>
<!-- Node8&#45;&gt;Node9 -->
<g id="edge12" class="edge">
<title>Node8&#45;&gt;Node9</title>
<path fill="none" stroke="midnightblue" d="M70.65,-155.35C62.06,-155.11 53.01,-155.3 45.17,-155.92"/>
<polygon fill="midnightblue" stroke="midnightblue" points="70.63,-158.85 80.79,-155.84 70.97,-151.86 70.63,-158.85"/>
</g>
<!-- Node9&#45;&gt;Node8 -->
<g id="edge13" class="edge">
<title>Node9&#45;&gt;Node8</title>
<path fill="none" stroke="midnightblue" d="M55.22,-168.62C63.77,-168.89 72.84,-168.74 80.79,-168.16"/>
<polygon fill="midnightblue" stroke="midnightblue" points="55.34,-165.12 45.17,-168.08 54.96,-172.11 55.34,-165.12"/>
</g>
<!-- Node10&#45;&gt;Node2 -->
<g id="edge16" class="edge">
<title>Node10&#45;&gt;Node2</title>
<path fill="none" stroke="midnightblue" d="M432.63,-23.71C444.69,-28.49 460.29,-33.3 474,-38 541.86,-61.26 559.08,-66.71 625,-95 637.02,-100.16 650.17,-106.45 660.9,-110.9"/>
<polygon fill="midnightblue" stroke="midnightblue" points="434.02,-20.5 423.45,-19.71 431.22,-26.91 434.02,-20.5"/>
</g>
<!-- Node11&#45;&gt;Node8 -->
<g id="edge18" class="edge">
<title>Node11&#45;&gt;Node8</title>
<path fill="none" stroke="midnightblue" d="M164.49,-137.09C152.51,-142.15 139.06,-147.83 128.03,-152.49"/>
<polygon fill="midnightblue" stroke="midnightblue" points="165.86,-140.31 173.71,-133.2 163.14,-133.86 165.86,-140.31"/>
</g>
<!-- Node13 -->
<g id="node13" class="node">
<title>Node13</title>
<g id="a_node13"><a xlink:href="group__grp__conjugate__gradient.html#ga25a3bae2ff2ee0469b045de0d033398b" target="_top" xlink:title="Use preconditioned conjugate gradient method to find minimum of energy functional.">
<polygon fill="white" stroke="black" points="265,-38.5 265,-57.5 313,-57.5 313,-38.5 265,-38.5"/>
<text text-anchor="middle" x="289" y="-45.5" font-family="Helvetica,sans-Serif" font-size="10.00">pc00aa</text>
</a>
</g>
</g>
<!-- Node12&#45;&gt;Node13 -->
<g id="edge21" class="edge">
<title>Node12&#45;&gt;Node13</title>
<path fill="none" stroke="midnightblue" d="M377.16,-48C356.81,-48 331.31,-48 313.16,-48"/>
<polygon fill="midnightblue" stroke="midnightblue" points="377.27,-51.5 387.27,-48 377.27,-44.5 377.27,-51.5"/>
</g>
<!-- Node14&#45;&gt;Node8 -->
<g id="edge26" class="edge">
<title>Node14&#45;&gt;Node8</title>
<path fill="none" stroke="midnightblue" d="M361.11,-173.54C345.78,-176.6 328.77,-179.48 313,-181 247.05,-187.37 229.59,-185.39 164,-176 152.01,-174.28 138.87,-171.25 128.09,-168.44"/>
<polygon fill="midnightblue" stroke="midnightblue" points="361.82,-176.96 370.91,-171.51 360.4,-170.11 361.82,-176.96"/>
</g>
<!-- Node15 -->
<g id="node15" class="node">
<title>Node15</title>
<g id="a_node15"><a xlink:href="group__grp__initialization.html#ga28628de0fdb3b3497668007d8d0643bd" target="_top" xlink:title="Allocates and initializes internal arrays.">
<polygon fill="white" stroke="black" points="267,-152.5 267,-171.5 311,-171.5 311,-152.5 267,-152.5"/>
<text text-anchor="middle" x="289" y="-159.5" font-family="Helvetica,sans-Serif" font-size="10.00">preset</text>
</a>
</g>
</g>
<!-- Node14&#45;&gt;Node15 -->
<g id="edge23" class="edge">
<title>Node14&#45;&gt;Node15</title>
<path fill="none" stroke="midnightblue" d="M359.34,-162C342.41,-162 324.5,-162 311.13,-162"/>
<polygon fill="midnightblue" stroke="midnightblue" points="359.7,-165.5 369.7,-162 359.7,-158.5 359.7,-165.5"/>
</g>
<!-- Node15&#45;&gt;Node8 -->
<g id="edge25" class="edge">
<title>Node15&#45;&gt;Node8</title>
<path fill="none" stroke="midnightblue" d="M256.59,-162C219.98,-162 160.4,-162 128.08,-162"/>
<polygon fill="midnightblue" stroke="midnightblue" points="256.71,-165.5 266.71,-162 256.71,-158.5 256.71,-165.5"/>
</g>
<!-- Node15&#45;&gt;Node11 -->
<g id="edge24" class="edge">
<title>Node15&#45;&gt;Node11</title>
<path fill="none" stroke="midnightblue" d="M256.98,-148.97C244.51,-143.74 230.43,-137.83 219.11,-133.07"/>
<polygon fill="midnightblue" stroke="midnightblue" points="255.98,-152.35 266.55,-152.99 258.69,-145.9 255.98,-152.35"/>
</g>
<!-- Node16&#45;&gt;Node2 -->
<g id="edge29" class="edge">
<title>Node16&#45;&gt;Node2</title>
<path fill="none" stroke="midnightblue" d="M614.08,-176.3C617.85,-174.7 621.54,-172.93 625,-171 647.38,-158.54 669.49,-137.02 678.62,-123.58"/>
<polygon fill="midnightblue" stroke="midnightblue" points="612.73,-173.07 604.61,-179.88 615.2,-179.61 612.73,-173.07"/>
</g>
<!-- Node17&#45;&gt;Node2 -->
<g id="edge31" class="edge">
<title>Node17&#45;&gt;Node2</title>
<path fill="none" stroke="midnightblue" d="M589.04,-24.66C600.43,-29.64 614.4,-35.61 625,-44 647.01,-61.42 664.74,-89.21 674.57,-104.35"/>
<polygon fill="midnightblue" stroke="midnightblue" points="590.39,-21.43 579.84,-20.5 587.51,-27.81 590.39,-21.43"/>
</g>
<!-- Node18&#45;&gt;Node2 -->
<g id="edge34" class="edge">
<title>Node18&#45;&gt;Node2</title>
<path fill="none" stroke="midnightblue" d="M634.99,-132.83C646.08,-129.83 656.69,-126.61 665.11,-123.59"/>
<polygon fill="midnightblue" stroke="midnightblue" points="633.95,-129.48 625.16,-135.4 635.72,-136.26 633.95,-129.48"/>
</g>
</g>
</svg>
