<?xml version="1.0" encoding="UTF-8" standalone="no"?>
<!DOCTYPE svg PUBLIC "-//W3C//DTD SVG 1.1//EN"
 "http://www.w3.org/Graphics/SVG/1.1/DTD/svg11.dtd">
<!-- Generated by graphviz version 2.48.0 (0)
 -->
<!-- Title: preset Pages: 1 -->
<svg width="397pt" height="490pt"
 viewBox="0.00 0.00 397.00 489.50" xmlns="http://www.w3.org/2000/svg" xmlns:xlink="http://www.w3.org/1999/xlink">
<g id="graph0" class="graph" transform="scale(1 1) rotate(0) translate(4 485.5)">
<title>preset</title>
<polygon fill="white" stroke="transparent" points="-4,4 -4,-485.5 393,-485.5 393,4 -4,4"/>
<!-- Node1 -->
<g id="node1" class="node">
<title>Node1</title>
<g id="a_node1"><a xlink:title="Allocates and initializes internal arrays.">
<polygon fill="#bfbfbf" stroke="black" points="0,-234 0,-253 44,-253 44,-234 0,-234"/>
<text text-anchor="middle" x="22" y="-241" font-family="Helvetica,sans-Serif" font-size="10.00">preset</text>
</a>
</g>
</g>
<!-- Node2 -->
<g id="node2" class="node">
<title>Node2</title>
<g id="a_node2"><a xlink:href="group__grp__free-boundary.html#gac0a2cc2241947b27241bb8ef75c5e0ed" target="_top" xlink:title="Computes &#160;on the computational boundary, .">
<polygon fill="white" stroke="black" points="98.5,-462 98.5,-481 144.5,-481 144.5,-462 98.5,-462"/>
<text text-anchor="middle" x="121.5" y="-469" font-family="Helvetica,sans-Serif" font-size="10.00">bnorml</text>
</a>
</g>
</g>
<!-- Node1&#45;&gt;Node2 -->
<g id="edge1" class="edge">
<title>Node1&#45;&gt;Node2</title>
<path fill="none" stroke="midnightblue" d="M23.23,-253.13C24.46,-284.46 32.12,-385.05 80,-447.5 82.76,-451.1 86.23,-454.27 89.96,-457.02"/>
<polygon fill="midnightblue" stroke="midnightblue" points="88.09,-459.98 98.41,-462.39 91.85,-454.07 88.09,-459.98"/>
</g>
<!-- Node5 -->
<g id="node5" class="node">
<title>Node5</title>
<g id="a_node5"><a xlink:href="group__grp__numerics.html#ga041138109a57e651c57117bb4180409e" target="_top" xlink:title="Forward Fourier transform (fftw wrapper)">
<polygon fill="white" stroke="black" points="236.5,-424 236.5,-443 265.5,-443 265.5,-424 236.5,-424"/>
<text text-anchor="middle" x="251" y="-431" font-family="Helvetica,sans-Serif" font-size="10.00">tfft</text>
</a>
</g>
</g>
<!-- Node1&#45;&gt;Node5 -->
<g id="edge24" class="edge">
<title>Node1&#45;&gt;Node5</title>
<path fill="none" stroke="midnightblue" d="M23.07,-253.29C23.85,-282.34 30.42,-368.57 80,-409.5 121.87,-444.07 190.23,-441.59 226.18,-437.29"/>
<polygon fill="midnightblue" stroke="midnightblue" points="226.79,-440.74 236.23,-435.93 225.85,-433.8 226.79,-440.74"/>
</g>
<!-- Node6 -->
<g id="node6" class="node">
<title>Node6</title>
<g id="a_node6"><a xlink:href="group__grp__geometry.html#gaaca20aa60eaf39055f3c9d5c02a24ac2" target="_top" xlink:title="Calculates coordinates, , and metrics, using FFTs.">
<polygon fill="white" stroke="black" points="228,-310 228,-329 274,-329 274,-310 228,-310"/>
<text text-anchor="middle" x="251" y="-317" font-family="Helvetica,sans-Serif" font-size="10.00">coords</text>
</a>
</g>
</g>
<!-- Node1&#45;&gt;Node6 -->
<g id="edge6" class="edge">
<title>Node1&#45;&gt;Node6</title>
<path fill="none" stroke="midnightblue" d="M29.4,-253.14C38.76,-266.36 57.55,-289.7 80,-300.5 124.14,-321.73 181.97,-323.49 217.53,-322.06"/>
<polygon fill="midnightblue" stroke="midnightblue" points="218,-325.54 227.81,-321.53 217.64,-318.55 218,-325.54"/>
</g>
<!-- Node7 -->
<g id="node7" class="node">
<title>Node7</title>
<g id="a_node7"><a xlink:href="group__grp__numerics.html#ga1fd52accb0646f535f9bcc46cf5a68f3" target="_top" xlink:title="Inverse Fourier transform (fftw wrapper)">
<polygon fill="white" stroke="black" points="345,-348 345,-367 383,-367 383,-348 345,-348"/>
<text text-anchor="middle" x="364" y="-355" font-family="Helvetica,sans-Serif" font-size="10.00">invfft</text>
</a>
</g>
</g>
<!-- Node1&#45;&gt;Node7 -->
<g id="edge16" class="edge">
<title>Node1&#45;&gt;Node7</title>
<path fill="none" stroke="midnightblue" d="M23.69,-253.11C26.11,-278.58 36.59,-347.87 80,-376.5 159.92,-429.2 281.65,-390.9 335.61,-369.42"/>
<polygon fill="midnightblue" stroke="midnightblue" points="336.94,-372.66 344.87,-365.63 334.29,-366.18 336.94,-372.66"/>
</g>
<!-- Node9 -->
<g id="node9" class="node">
<title>Node9</title>
<g id="a_node9"><a xlink:href="group__grp__numerics.html#ga425e8f1cbf214a3231ab6c874d8fe4be" target="_top" xlink:title="Gauss&#45;Legendre weights and abscissae.">
<polygon fill="white" stroke="black" points="99,-272 99,-291 144,-291 144,-272 99,-272"/>
<text text-anchor="middle" x="121.5" y="-279" font-family="Helvetica,sans-Serif" font-size="10.00">gauleg</text>
</a>
</g>
</g>
<!-- Node1&#45;&gt;Node9 -->
<g id="edge10" class="edge">
<title>Node1&#45;&gt;Node9</title>
<path fill="none" stroke="midnightblue" d="M44.16,-251.75C57.26,-256.85 74.33,-263.51 89.01,-269.23"/>
<polygon fill="midnightblue" stroke="midnightblue" points="88.12,-272.64 98.71,-273.01 90.66,-266.12 88.12,-272.64"/>
</g>
<!-- Node10 -->
<g id="node10" class="node">
<title>Node10</title>
<g id="a_node10"><a xlink:href="basefn_8f90.html#af6a4cad04c70bfb14fd18a3bfbc843a3" target="_top" xlink:title="Get the Chebyshev polynomials with zeroth, first derivatives.">
<polygon fill="white" stroke="black" points="91,-234 91,-253 152,-253 152,-234 91,-234"/>
<text text-anchor="middle" x="121.5" y="-241" font-family="Helvetica,sans-Serif" font-size="10.00">get_cheby</text>
</a>
</g>
</g>
<!-- Node1&#45;&gt;Node10 -->
<g id="edge11" class="edge">
<title>Node1&#45;&gt;Node10</title>
<path fill="none" stroke="midnightblue" d="M44.16,-243.5C54.83,-243.5 68.14,-243.5 80.64,-243.5"/>
<polygon fill="midnightblue" stroke="midnightblue" points="80.88,-247 90.88,-243.5 80.88,-240 80.88,-247"/>
</g>
<!-- Node11 -->
<g id="node11" class="node">
<title>Node11</title>
<g id="a_node11"><a xlink:href="basefn_8f90.html#a38dc596fb909186b01dacc1feac03164" target="_top" xlink:title="Get the Zernike polynomials &#160;with zeroth, first derivatives.">
<polygon fill="white" stroke="black" points="88.5,-196 88.5,-215 154.5,-215 154.5,-196 88.5,-196"/>
<text text-anchor="middle" x="121.5" y="-203" font-family="Helvetica,sans-Serif" font-size="10.00">get_zernike</text>
</a>
</g>
</g>
<!-- Node1&#45;&gt;Node11 -->
<g id="edge12" class="edge">
<title>Node1&#45;&gt;Node11</title>
<path fill="none" stroke="midnightblue" d="M44.16,-235.25C56.53,-230.43 72.45,-224.23 86.54,-218.73"/>
<polygon fill="midnightblue" stroke="midnightblue" points="87.9,-221.96 95.94,-215.07 85.36,-215.44 87.9,-221.96"/>
</g>
<!-- Node12 -->
<g id="node12" class="node">
<title>Node12</title>
<g id="a_node12"><a xlink:href="basefn_8f90.html#a6076d695487184d58d30d73de2f6470f" target="_top" xlink:title="Get the Zernike polynomials .">
<polygon fill="white" stroke="black" points="80,-158 80,-177 163,-177 163,-158 80,-158"/>
<text text-anchor="middle" x="121.5" y="-165" font-family="Helvetica,sans-Serif" font-size="10.00">get_zernike_rm</text>
</a>
</g>
</g>
<!-- Node1&#45;&gt;Node12 -->
<g id="edge13" class="edge">
<title>Node1&#45;&gt;Node12</title>
<path fill="none" stroke="midnightblue" d="M31.02,-233.58C41.34,-221.31 60.3,-200.33 80,-186.5 82.38,-184.83 84.94,-183.24 87.56,-181.74"/>
<polygon fill="midnightblue" stroke="midnightblue" points="89.35,-184.75 96.6,-177.03 86.12,-178.55 89.35,-184.75"/>
</g>
<!-- Node13 -->
<g id="node13" class="node">
<title>Node13</title>
<g id="a_node13"><a xlink:href="numrec_8f90.html#ad74184c181acd10cef74a2bd4f1c31a9" target="_top" xlink:title="convert m and n to index">
<polygon fill="white" stroke="black" points="98.5,-120 98.5,-139 144.5,-139 144.5,-120 98.5,-120"/>
<text text-anchor="middle" x="121.5" y="-127" font-family="Helvetica,sans-Serif" font-size="10.00">getimn</text>
</a>
</g>
</g>
<!-- Node1&#45;&gt;Node13 -->
<g id="edge14" class="edge">
<title>Node1&#45;&gt;Node13</title>
<path fill="none" stroke="midnightblue" d="M26.54,-233.88C33.85,-215.17 52.31,-173.51 80,-148.5 82.82,-145.96 86.03,-143.69 89.4,-141.69"/>
<polygon fill="midnightblue" stroke="midnightblue" points="91.18,-144.71 98.46,-137.01 87.97,-138.49 91.18,-144.71"/>
</g>
<!-- Node14 -->
<g id="node14" class="node">
<title>Node14</title>
<g id="a_node14"><a xlink:href="group__grp__numerics.html#ga02a336a22890e7ae5a5c2d525260666c" target="_top" xlink:title="Assign Fourier mode labels.">
<polygon fill="white" stroke="black" points="99,-82 99,-101 144,-101 144,-82 99,-82"/>
<text text-anchor="middle" x="121.5" y="-89" font-family="Helvetica,sans-Serif" font-size="10.00">gi00ab</text>
</a>
</g>
</g>
<!-- Node1&#45;&gt;Node14 -->
<g id="edge15" class="edge">
<title>Node1&#45;&gt;Node14</title>
<path fill="none" stroke="midnightblue" d="M24.69,-233.83C29.33,-209.92 44.38,-147.34 80,-110.5 82.83,-107.57 86.21,-105.04 89.78,-102.87"/>
<polygon fill="midnightblue" stroke="midnightblue" points="91.59,-105.88 98.89,-98.21 88.39,-99.65 91.59,-105.88"/>
</g>
<!-- Node15 -->
<g id="node15" class="node">
<title>Node15</title>
<g id="a_node15"><a xlink:href="group__grp__build__matrices.html#ga1c52bb6dbffdb432550aae12b096080f" target="_top" xlink:title="Constructs energy and helicity matrices that represent the Beltrami linear system....">
<polygon fill="white" stroke="black" points="100,-44 100,-63 143,-63 143,-44 100,-44"/>
<text text-anchor="middle" x="121.5" y="-51" font-family="Helvetica,sans-Serif" font-size="10.00">matrix</text>
</a>
</g>
</g>
<!-- Node1&#45;&gt;Node15 -->
<g id="edge17" class="edge">
<title>Node1&#45;&gt;Node15</title>
<path fill="none" stroke="midnightblue" d="M23.63,-233.68C25.95,-205.21 36.33,-121.6 80,-72.5 83.04,-69.08 86.83,-66.22 90.87,-63.86"/>
<polygon fill="midnightblue" stroke="midnightblue" points="92.45,-66.98 99.88,-59.43 89.36,-60.7 92.45,-66.98"/>
</g>
<!-- Node16 -->
<g id="node16" class="node">
<title>Node16</title>
<g id="a_node16"><a xlink:href="group__grp__output.html#ga08d6a254dbc3d9d40ff1cf0bdfdf2148" target="_top" xlink:title="Writes vector potential to .ext.sp.A .">
<polygon fill="white" stroke="black" points="98.5,-6 98.5,-25 144.5,-25 144.5,-6 98.5,-6"/>
<text text-anchor="middle" x="121.5" y="-13" font-family="Helvetica,sans-Serif" font-size="10.00">ra00aa</text>
</a>
</g>
</g>
<!-- Node1&#45;&gt;Node16 -->
<g id="edge18" class="edge">
<title>Node1&#45;&gt;Node16</title>
<path fill="none" stroke="midnightblue" d="M22.91,-233.9C23.13,-201.74 27.96,-96.39 80,-34.5 82.62,-31.38 85.88,-28.74 89.39,-26.51"/>
<polygon fill="midnightblue" stroke="midnightblue" points="91.18,-29.52 98.44,-21.8 87.95,-23.32 91.18,-29.52"/>
</g>
<!-- Node18 -->
<g id="node18" class="node">
<title>Node18</title>
<g id="a_node18"><a xlink:href="group__grp__coord__axis.html#ga564281be4d9806d0688a717314ad748f" target="_top" xlink:title="The coordinate axis is assigned via a poloidal average over an arbitrary surface.">
<polygon fill="white" stroke="black" points="101,-348 101,-367 142,-367 142,-348 101,-348"/>
<text text-anchor="middle" x="121.5" y="-355" font-family="Helvetica,sans-Serif" font-size="10.00">rzaxis</text>
</a>
</g>
</g>
<!-- Node1&#45;&gt;Node18 -->
<g id="edge20" class="edge">
<title>Node1&#45;&gt;Node18</title>
<path fill="none" stroke="midnightblue" d="M27.26,-253.2C35.4,-270.91 54.65,-308.89 80,-333.5 83.55,-336.95 87.69,-340.11 91.94,-342.92"/>
<polygon fill="midnightblue" stroke="midnightblue" points="90.29,-346.02 100.66,-348.2 93.91,-340.03 90.29,-346.02"/>
</g>
<!-- Node3 -->
<g id="node3" class="node">
<title>Node3</title>
<g id="a_node3"><a xlink:href="group__grp__free-boundary.html#ga180576a10002ebf3840fce98d56316bb" target="_top" xlink:title="Constructs the field created by the plasma currents, at an arbitrary, external location using virtual...">
<polygon fill="white" stroke="black" points="228.5,-462 228.5,-481 273.5,-481 273.5,-462 228.5,-462"/>
<text text-anchor="middle" x="251" y="-469" font-family="Helvetica,sans-Serif" font-size="10.00">casing</text>
</a>
</g>
</g>
<!-- Node2&#45;&gt;Node3 -->
<g id="edge2" class="edge">
<title>Node2&#45;&gt;Node3</title>
<path fill="none" stroke="midnightblue" d="M144.71,-471.5C165.03,-471.5 195.34,-471.5 218.22,-471.5"/>
<polygon fill="midnightblue" stroke="midnightblue" points="218.47,-475 228.47,-471.5 218.47,-468 218.47,-475"/>
</g>
<!-- Node2&#45;&gt;Node5 -->
<g id="edge5" class="edge">
<title>Node2&#45;&gt;Node5</title>
<path fill="none" stroke="midnightblue" d="M144.71,-464.88C167.6,-458.06 203.15,-447.46 226.5,-440.5"/>
<polygon fill="midnightblue" stroke="midnightblue" points="227.7,-443.8 236.29,-437.59 225.7,-437.09 227.7,-443.8"/>
</g>
<!-- Node4 -->
<g id="node4" class="node">
<title>Node4</title>
<g id="a_node4"><a xlink:href="group__grp__free-boundary.html#ga281c12a5de84fddd3db4383b0df8627f" target="_top" xlink:title="Differential virtual casing integrand.">
<polygon fill="white" stroke="black" points="339,-462 339,-481 389,-481 389,-462 339,-462"/>
<text text-anchor="middle" x="364" y="-469" font-family="Helvetica,sans-Serif" font-size="10.00">dvcfield</text>
</a>
</g>
</g>
<!-- Node3&#45;&gt;Node4 -->
<g id="edge3" class="edge">
<title>Node3&#45;&gt;Node4</title>
<path fill="none" stroke="midnightblue" d="M273.67,-466.02C289.28,-464.67 310.66,-464.4 328.6,-465.2"/>
<polygon fill="midnightblue" stroke="midnightblue" points="328.5,-468.7 338.69,-465.8 328.91,-461.72 328.5,-468.7"/>
</g>
<!-- Node4&#45;&gt;Node3 -->
<g id="edge4" class="edge">
<title>Node4&#45;&gt;Node3</title>
<path fill="none" stroke="midnightblue" d="M338.69,-477.2C322.62,-478.42 301.38,-478.58 283.95,-477.68"/>
<polygon fill="midnightblue" stroke="midnightblue" points="283.88,-474.17 273.67,-476.98 283.41,-481.15 283.88,-474.17"/>
</g>
<!-- Node6&#45;&gt;Node7 -->
<g id="edge7" class="edge">
<title>Node6&#45;&gt;Node7</title>
<path fill="none" stroke="midnightblue" d="M274.2,-327.1C291.79,-333.12 316.46,-341.57 335.34,-348.03"/>
<polygon fill="midnightblue" stroke="midnightblue" points="334.28,-351.37 344.88,-351.3 336.55,-344.75 334.28,-351.37"/>
</g>
<!-- Node8 -->
<g id="node8" class="node">
<title>Node8</title>
<g id="a_node8"><a xlink:href="group__grp__volume.html#gae4c62d20b8fef07f4471b5b0889ab005" target="_top" xlink:title="Computes volume of each region; and, if required, the derivatives of the volume with respect to the i...">
<polygon fill="white" stroke="black" points="340,-310 340,-329 388,-329 388,-310 340,-310"/>
<text text-anchor="middle" x="364" y="-317" font-family="Helvetica,sans-Serif" font-size="10.00">volume</text>
</a>
</g>
</g>
<!-- Node6&#45;&gt;Node8 -->
<g id="edge8" class="edge">
<title>Node6&#45;&gt;Node8</title>
<path fill="none" stroke="midnightblue" d="M274.2,-313.97C290.06,-312.64 311.69,-312.39 329.63,-313.25"/>
<polygon fill="midnightblue" stroke="midnightblue" points="329.5,-316.75 339.69,-313.88 329.93,-309.76 329.5,-316.75"/>
</g>
<!-- Node8&#45;&gt;Node6 -->
<g id="edge9" class="edge">
<title>Node8&#45;&gt;Node6</title>
<path fill="none" stroke="midnightblue" d="M339.69,-325.12C323.72,-326.39 302.3,-326.59 284.63,-325.71"/>
<polygon fill="midnightblue" stroke="midnightblue" points="284.4,-322.19 274.2,-325.03 283.94,-329.17 284.4,-322.19"/>
</g>
<!-- Node17 -->
<g id="node17" class="node">
<title>Node17</title>
<g id="a_node17"><a xlink:href="group__grp__output.html#ga2f9e9c50084175e5174b1e1070e24d73" target="_top" xlink:title="Write the magnetic vector potential Fourier harmonics to the output file group /vector_potential .">
<polygon fill="white" stroke="black" points="199,-0.5 199,-30.5 303,-30.5 303,-0.5 199,-0.5"/>
<text text-anchor="start" x="207" y="-18.5" font-family="Helvetica,sans-Serif" font-size="10.00">sphdf5::write_vector</text>
<text text-anchor="middle" x="251" y="-7.5" font-family="Helvetica,sans-Serif" font-size="10.00">_potential</text>
</a>
</g>
</g>
<!-- Node16&#45;&gt;Node17 -->
<g id="edge19" class="edge">
<title>Node16&#45;&gt;Node17</title>
<path fill="none" stroke="midnightblue" d="M144.71,-15.5C157,-15.5 172.94,-15.5 188.68,-15.5"/>
<polygon fill="midnightblue" stroke="midnightblue" points="188.96,-19 198.96,-15.5 188.96,-12 188.96,-19"/>
</g>
<!-- Node18&#45;&gt;Node5 -->
<g id="edge23" class="edge">
<title>Node18&#45;&gt;Node5</title>
<path fill="none" stroke="midnightblue" d="M138.65,-367.13C161.21,-380.57 202.24,-405.03 227.7,-420.21"/>
<polygon fill="midnightblue" stroke="midnightblue" points="225.93,-423.23 236.32,-425.34 229.52,-417.22 225.93,-423.23"/>
</g>
<!-- Node18&#45;&gt;Node6 -->
<g id="edge21" class="edge">
<title>Node18&#45;&gt;Node6</title>
<path fill="none" stroke="midnightblue" d="M142.14,-351.65C162.43,-345.6 194.42,-336.06 218.3,-328.95"/>
<polygon fill="midnightblue" stroke="midnightblue" points="219.4,-332.27 227.98,-326.06 217.4,-325.56 219.4,-332.27"/>
</g>
<!-- Node18&#45;&gt;Node7 -->
<g id="edge22" class="edge">
<title>Node18&#45;&gt;Node7</title>
<path fill="none" stroke="midnightblue" d="M142.18,-357.5C184.63,-357.5 284.94,-357.5 334.41,-357.5"/>
<polygon fill="midnightblue" stroke="midnightblue" points="334.71,-361 344.71,-357.5 334.71,-354 334.71,-361"/>
</g>
</g>
</svg>
