<?xml version="1.0" encoding="UTF-8" standalone="no"?>
<!DOCTYPE svg PUBLIC "-//W3C//DTD SVG 1.1//EN"
 "http://www.w3.org/Graphics/SVG/1.1/DTD/svg11.dtd">
<!-- Generated by graphviz version 2.48.0 (0)
 -->
<!-- Title: wa00aa Pages: 1 -->
<svg width="158pt" height="28pt"
 viewBox="0.00 0.00 158.00 28.00" xmlns="http://www.w3.org/2000/svg" xmlns:xlink="http://www.w3.org/1999/xlink">
<g id="graph0" class="graph" transform="scale(1 1) rotate(0) translate(4 24)">
<title>wa00aa</title>
<polygon fill="white" stroke="transparent" points="-4,4 -4,-24 154,-24 154,4 -4,4"/>
<!-- Node1 -->
<g id="node1" class="node">
<title>Node1</title>
<g id="a_node1"><a xlink:title="Constructs smooth approximation to wall.">
<polygon fill="#bfbfbf" stroke="black" points="100,-0.5 100,-19.5 150,-19.5 150,-0.5 100,-0.5"/>
<text text-anchor="middle" x="125" y="-7.5" font-family="Helvetica,sans-Serif" font-size="10.00">wa00aa</text>
</a>
</g>
</g>
<!-- Node2 -->
<g id="node2" class="node">
<title>Node2</title>
<g id="a_node2"><a xlink:href="group__grp__smooth__boundary.html#gaea7690bb953a85a409946f2c6ad6a640" target="_top" xlink:title="Compute vacuum magnetic scalar potential (?)">
<polygon fill="white" stroke="black" points="0,-0.5 0,-19.5 64,-19.5 64,-0.5 0,-0.5"/>
<text text-anchor="middle" x="32" y="-7.5" font-family="Helvetica,sans-Serif" font-size="10.00">vacuumphi</text>
</a>
</g>
</g>
<!-- Node1&#45;&gt;Node2 -->
<g id="edge1" class="edge">
<title>Node1&#45;&gt;Node2</title>
<path fill="none" stroke="midnightblue" d="M89.5,-3.43C81.23,-3.16 72.44,-3.2 64.32,-3.55"/>
<polygon fill="midnightblue" stroke="midnightblue" points="89.45,-6.93 99.61,-3.94 89.8,0.06 89.45,-6.93"/>
</g>
<!-- Node2&#45;&gt;Node1 -->
<g id="edge2" class="edge">
<title>Node2&#45;&gt;Node1</title>
<path fill="none" stroke="midnightblue" d="M74.59,-16.73C83.15,-16.83 91.9,-16.6 99.61,-16.06"/>
<polygon fill="midnightblue" stroke="midnightblue" points="74.41,-13.22 64.32,-16.45 74.22,-20.22 74.41,-13.22"/>
</g>
</g>
</svg>
