<?xml version="1.0" encoding="UTF-8" standalone="no"?>
<!DOCTYPE svg PUBLIC "-//W3C//DTD SVG 1.1//EN"
 "http://www.w3.org/Graphics/SVG/1.1/DTD/svg11.dtd">
<!-- Generated by graphviz version 2.50.0 (20220203.2022)
 -->
<!-- Title: pp00ab Pages: 1 -->
<svg width="578pt" height="80pt"
 viewBox="0.00 0.00 578.00 80.46" xmlns="http://www.w3.org/2000/svg" xmlns:xlink="http://www.w3.org/1999/xlink">
<g id="graph0" class="graph" transform="scale(1 1) rotate(0) translate(4 76.46)">
<title>pp00ab</title>
<polygon fill="white" stroke="transparent" points="-4,4 -4,-76.46 574,-76.46 574,4 -4,4"/>
<!-- Node1 -->
<g id="node1" class="node">
<title>Node1</title>
<g id="a_node1"><a xlink:title="Constructs Poincaré plot and &quot;approximate&quot; rotational&#45;transform (for single field line).">
<polygon fill="#bfbfbf" stroke="black" points="522,-33.96 522,-52.96 570,-52.96 570,-33.96 522,-33.96"/>
<text text-anchor="middle" x="546" y="-40.96" font-family="Helvetica,sans-Serif" font-size="10.00">pp00ab</text>
</a>
</g>
</g>
<!-- Node1&#45;&gt;Node1 -->
<g id="edge12" class="edge">
<title>Node1&#45;&gt;Node1</title>
<path fill="none" stroke="midnightblue" d="M561.47,-63.22C560.25,-67.95 555.1,-71.46 546,-71.46 531.07,-71.46 526.75,-62.02 533.05,-53.21"/>
<polygon fill="midnightblue" stroke="midnightblue" points="564.78,-62.06 558.95,-53.21 558,-63.77 564.78,-62.06"/>
</g>
<!-- Node2 -->
<g id="node2" class="node">
<title>Node2</title>
<g id="a_node2"><a xlink:href="group__grp__diagnostics.html#gad67931244268a09bd077dae8910c7096" target="_top" xlink:title="Constructs Poincaré plot and &quot;approximate&quot; rotational&#45;transform (driver).">
<polygon fill="white" stroke="black" points="438,-33.96 438,-52.96 486,-52.96 486,-33.96 438,-33.96"/>
<text text-anchor="middle" x="462" y="-40.96" font-family="Helvetica,sans-Serif" font-size="10.00">pp00aa</text>
</a>
</g>
</g>
<!-- Node1&#45;&gt;Node2 -->
<g id="edge1" class="edge">
<title>Node1&#45;&gt;Node2</title>
<path fill="none" stroke="midnightblue" d="M511.59,-43.46C503.01,-43.46 493.98,-43.46 486.05,-43.46"/>
<polygon fill="midnightblue" stroke="midnightblue" points="511.72,-46.96 521.72,-43.46 511.72,-39.96 511.72,-46.96"/>
</g>
<!-- Node2&#45;&gt;Node2 -->
<g id="edge11" class="edge">
<title>Node2&#45;&gt;Node2</title>
<path fill="none" stroke="midnightblue" d="M477.47,-63.22C476.25,-67.95 471.1,-71.46 462,-71.46 447.07,-71.46 442.75,-62.02 449.05,-53.21"/>
<polygon fill="midnightblue" stroke="midnightblue" points="480.78,-62.06 474.95,-53.21 474,-63.77 480.78,-62.06"/>
</g>
<!-- Node3 -->
<g id="node3" class="node">
<title>Node3</title>
<g id="a_node3"><a xlink:href="xspech_8f90.html#a1451823a7b97101a797de616250752c1" target="_top" xlink:title="Final diagnostics.">
<polygon fill="white" stroke="black" points="313,-33.96 313,-52.96 402,-52.96 402,-33.96 313,-33.96"/>
<text text-anchor="middle" x="357.5" y="-40.96" font-family="Helvetica,sans-Serif" font-size="10.00">final_diagnostics</text>
</a>
</g>
</g>
<!-- Node2&#45;&gt;Node3 -->
<g id="edge2" class="edge">
<title>Node2&#45;&gt;Node3</title>
<path fill="none" stroke="midnightblue" d="M427.99,-43.46C419.72,-43.46 410.72,-43.46 402.03,-43.46"/>
<polygon fill="midnightblue" stroke="midnightblue" points="428,-46.96 438,-43.46 428,-39.96 428,-46.96"/>
</g>
<!-- Node4 -->
<g id="node4" class="node">
<title>Node4</title>
<g id="a_node4"><a xlink:href="xspech_8f90.html#a9fdc71dffd7c61ee4588a3f80d3ab9ce" target="_top" xlink:title="Main subroutine of SPEC.">
<polygon fill="white" stroke="black" points="230,-33.96 230,-52.96 277,-52.96 277,-33.96 230,-33.96"/>
<text text-anchor="middle" x="253.5" y="-40.96" font-family="Helvetica,sans-Serif" font-size="10.00">xspech</text>
</a>
</g>
</g>
<!-- Node3&#45;&gt;Node4 -->
<g id="edge3" class="edge">
<title>Node3&#45;&gt;Node4</title>
<path fill="none" stroke="midnightblue" d="M302.75,-36.72C293.7,-36.77 284.77,-37.12 277.1,-37.74"/>
<polygon fill="midnightblue" stroke="midnightblue" points="302.93,-40.22 312.95,-36.77 302.97,-33.22 302.93,-40.22"/>
</g>
<!-- Node4&#45;&gt;Node3 -->
<g id="edge4" class="edge">
<title>Node4&#45;&gt;Node3</title>
<path fill="none" stroke="midnightblue" d="M287.33,-49.81C295.49,-50.18 304.36,-50.29 312.95,-50.14"/>
<polygon fill="midnightblue" stroke="midnightblue" points="287.3,-46.3 277.1,-49.17 286.87,-53.29 287.3,-46.3"/>
</g>
<!-- Node4&#45;&gt;Node4 -->
<g id="edge10" class="edge">
<title>Node4&#45;&gt;Node4</title>
<path fill="none" stroke="midnightblue" d="M270.17,-62.86C269.05,-67.77 263.5,-71.46 253.5,-71.46 237.5,-71.46 232.88,-62.02 239.63,-53.21"/>
<polygon fill="midnightblue" stroke="midnightblue" points="273.52,-61.85 267.37,-53.21 266.79,-63.79 273.52,-61.85"/>
</g>
<!-- Node5 -->
<g id="node5" class="node">
<title>Node5</title>
<g id="a_node5"><a xlink:href="xspech_8f90.html#a48f45478dc2c9f70ea8aa1c60ad06503" target="_top" xlink:title="This is the main &quot;driver&quot; for the physics part of SPEC.">
<polygon fill="white" stroke="black" points="143,-52.96 143,-71.96 181,-71.96 181,-52.96 143,-52.96"/>
<text text-anchor="middle" x="162" y="-59.96" font-family="Helvetica,sans-Serif" font-size="10.00">spec</text>
</a>
</g>
</g>
<!-- Node4&#45;&gt;Node5 -->
<g id="edge5" class="edge">
<title>Node4&#45;&gt;Node5</title>
<path fill="none" stroke="midnightblue" d="M219.84,-43.87C206.76,-46.15 192.19,-49.57 181.07,-53.08"/>
<polygon fill="midnightblue" stroke="midnightblue" points="220.57,-47.29 229.92,-42.3 219.5,-40.38 220.57,-47.29"/>
</g>
<!-- Node7 -->
<g id="node7" class="node">
<title>Node7</title>
<g id="a_node7"><a xlink:href="xspech_8f90.html#a95271e8805067f801b5d4e524d6901d4" target="_top" xlink:title="Main program of SPEC.">
<polygon fill="white" stroke="black" points="130,-14.96 130,-33.96 194,-33.96 194,-14.96 130,-14.96"/>
<text text-anchor="middle" x="162" y="-21.96" font-family="Helvetica,sans-Serif" font-size="10.00">spec_main</text>
</a>
</g>
</g>
<!-- Node4&#45;&gt;Node7 -->
<g id="edge9" class="edge">
<title>Node4&#45;&gt;Node7</title>
<path fill="none" stroke="midnightblue" d="M219.99,-36.56C211.52,-34.76 202.42,-32.83 194.03,-31.04"/>
<polygon fill="midnightblue" stroke="midnightblue" points="219.41,-40.01 229.92,-38.66 220.86,-33.16 219.41,-40.01"/>
</g>
<!-- Node5&#45;&gt;Node4 -->
<g id="edge8" class="edge">
<title>Node5&#45;&gt;Node4</title>
<path fill="none" stroke="midnightblue" d="M191.28,-62.78C205.22,-60.57 221.63,-56.84 233.96,-52.99"/>
<polygon fill="midnightblue" stroke="midnightblue" points="190.65,-59.33 181.21,-64.15 191.6,-66.27 190.65,-59.33"/>
</g>
<!-- Node6 -->
<g id="node6" class="node">
<title>Node6</title>
<g id="a_node6"><a xlink:href="group__grp__output.html#ga0f962c09cd5d5eba99f1cba043cb3898" target="_top" xlink:title="Initialize the interface to the HDF5 library and open the output file.">
<polygon fill="white" stroke="black" points="0,-14.96 0,-33.96 94,-33.96 94,-14.96 0,-14.96"/>
<text text-anchor="middle" x="47" y="-21.96" font-family="Helvetica,sans-Serif" font-size="10.00">sphdf5::init_outfile</text>
</a>
</g>
</g>
<!-- Node5&#45;&gt;Node6 -->
<g id="edge6" class="edge">
<title>Node5&#45;&gt;Node6</title>
<path fill="none" stroke="midnightblue" d="M133.28,-53.14C115.95,-47.31 93.69,-39.82 76.26,-33.96"/>
<polygon fill="midnightblue" stroke="midnightblue" points="132.25,-56.48 142.84,-56.35 134.48,-49.85 132.25,-56.48"/>
</g>
<!-- Node6&#45;&gt;Node4 -->
<g id="edge7" class="edge">
<title>Node6&#45;&gt;Node4</title>
<path fill="none" stroke="midnightblue" d="M82.9,-11.95C112.88,-3.07 157.01,5.5 194,-5.46 212.58,-10.96 230.79,-24.43 241.83,-33.76"/>
<polygon fill="midnightblue" stroke="midnightblue" points="81.8,-8.62 73.3,-14.94 83.89,-15.3 81.8,-8.62"/>
</g>
</g>
</svg>
