<?xml version="1.0" encoding="UTF-8" standalone="no"?>
<!DOCTYPE svg PUBLIC "-//W3C//DTD SVG 1.1//EN"
 "http://www.w3.org/Graphics/SVG/1.1/DTD/svg11.dtd">
<!-- Generated by graphviz version 3.0.0 (20220413.0106)
 -->
<!-- Title: fcn2 Pages: 1 -->
<svg width="566pt" height="122pt"
 viewBox="0.00 0.00 566.00 122.00" xmlns="http://www.w3.org/2000/svg" xmlns:xlink="http://www.w3.org/1999/xlink">
<g id="graph0" class="graph" transform="scale(1 1) rotate(0) translate(4 118)">
<title>fcn2</title>
<polygon fill="white" stroke="transparent" points="-4,4 -4,-118 562,-118 562,4 -4,4"/>
<!-- Node1 -->
<g id="node1" class="node">
<title>Node1</title>
<g id="a_node1"><a xlink:title="fcn2">
<polygon fill="#bfbfbf" stroke="black" points="523,-38.5 523,-57.5 558,-57.5 558,-38.5 523,-38.5"/>
<text text-anchor="middle" x="540.5" y="-45.5" font-family="Helvetica,sans-Serif" font-size="10.00">fcn2</text>
</a>
</g>
</g>
<!-- Node1&#45;&gt;Node1 -->
<g id="edge1" class="edge">
<title>Node1&#45;&gt;Node1</title>
<path fill="none" stroke="midnightblue" d="M554.5,-67.77C553.4,-72.5 548.73,-76 540.5,-76 526.99,-76 523.09,-66.57 528.79,-57.76"/>
<polygon fill="midnightblue" stroke="midnightblue" points="557.85,-66.73 552.21,-57.76 551.02,-68.28 557.85,-66.73"/>
</g>
<!-- Node2 -->
<g id="node2" class="node">
<title>Node2</title>
<g id="a_node2"><a xlink:href="group__grp__force__driver.html#gaec14f81fbdbedafbc4189489ec8ae178" target="_top" xlink:title="Employs Newton method to find , where &#160;and &#160;is defined in dforce() .">
<polygon fill="white" stroke="black" points="439,-38.5 439,-57.5 487,-57.5 487,-38.5 439,-38.5"/>
<text text-anchor="middle" x="463" y="-45.5" font-family="Helvetica,sans-Serif" font-size="10.00">newton</text>
</a>
</g>
</g>
<!-- Node1&#45;&gt;Node2 -->
<g id="edge2" class="edge">
<title>Node1&#45;&gt;Node2</title>
<path fill="none" stroke="midnightblue" d="M512.68,-41.51C504.29,-41.1 495.11,-41.18 487.01,-41.73"/>
<polygon fill="midnightblue" stroke="midnightblue" points="512.51,-45 522.74,-42.28 513.04,-38.03 512.51,-45"/>
</g>
<!-- Node2&#45;&gt;Node1 -->
<g id="edge6" class="edge">
<title>Node2&#45;&gt;Node1</title>
<path fill="none" stroke="midnightblue" d="M497.13,-54.7C505.99,-54.88 515.19,-54.55 522.74,-53.72"/>
<polygon fill="midnightblue" stroke="midnightblue" points="497.15,-51.2 487.01,-54.27 496.85,-58.2 497.15,-51.2"/>
</g>
<!-- Node2&#45;&gt;Node2 -->
<g id="edge7" class="edge">
<title>Node2&#45;&gt;Node2</title>
<path fill="none" stroke="midnightblue" d="M477,-67.77C475.9,-72.5 471.23,-76 463,-76 449.49,-76 445.59,-66.57 451.29,-57.76"/>
<polygon fill="midnightblue" stroke="midnightblue" points="480.35,-66.73 474.71,-57.76 473.52,-68.28 480.35,-66.73"/>
</g>
<!-- Node3 -->
<g id="node3" class="node">
<title>Node3</title>
<g id="a_node3"><a xlink:href="group__grp__force__driver.html#gabbc245b3884ee8d8d3e2a52f25149f78" target="_top" xlink:title="fcn1">
<polygon fill="white" stroke="black" points="353,-76.5 353,-95.5 388,-95.5 388,-76.5 353,-76.5"/>
<text text-anchor="middle" x="370.5" y="-83.5" font-family="Helvetica,sans-Serif" font-size="10.00">fcn1</text>
</a>
</g>
</g>
<!-- Node2&#45;&gt;Node3 -->
<g id="edge3" class="edge">
<title>Node2&#45;&gt;Node3</title>
<path fill="none" stroke="midnightblue" d="M429.06,-55.31C413,-61.45 394.7,-69.74 383.13,-76.42"/>
<polygon fill="midnightblue" stroke="midnightblue" points="430.5,-58.51 438.69,-51.8 428.1,-51.93 430.5,-58.51"/>
</g>
<!-- Node4 -->
<g id="node4" class="node">
<title>Node4</title>
<g id="a_node4"><a xlink:href="xspech_8f90.html#a48f45478dc2c9f70ea8aa1c60ad06503" target="_top" xlink:title="This is the main &quot;driver&quot; for the physics part of SPEC.">
<polygon fill="white" stroke="black" points="351.5,-38.5 351.5,-57.5 389.5,-57.5 389.5,-38.5 351.5,-38.5"/>
<text text-anchor="middle" x="370.5" y="-45.5" font-family="Helvetica,sans-Serif" font-size="10.00">spec</text>
</a>
</g>
</g>
<!-- Node2&#45;&gt;Node4 -->
<g id="edge8" class="edge">
<title>Node2&#45;&gt;Node4</title>
<path fill="none" stroke="midnightblue" d="M428.52,-48C415.34,-48 400.72,-48 389.59,-48"/>
<polygon fill="midnightblue" stroke="midnightblue" points="428.69,-51.5 438.69,-48 428.69,-44.5 428.69,-51.5"/>
</g>
<!-- Node9 -->
<g id="node9" class="node">
<title>Node9</title>
<g id="a_node9"><a xlink:href="group__grp__force__driver.html#ga382822b303cbf8c56d6f54dcb379caf2" target="_top" xlink:title="read or write force&#45;derivative matrix">
<polygon fill="white" stroke="black" points="338,-0.5 338,-19.5 403,-19.5 403,-0.5 338,-0.5"/>
<text text-anchor="middle" x="370.5" y="-7.5" font-family="Helvetica,sans-Serif" font-size="10.00">writereadgf</text>
</a>
</g>
</g>
<!-- Node2&#45;&gt;Node9 -->
<g id="edge17" class="edge">
<title>Node2&#45;&gt;Node9</title>
<path fill="none" stroke="midnightblue" d="M441.13,-33.45C429.89,-27.74 415.77,-21.59 403.2,-16.84"/>
<polygon fill="midnightblue" stroke="midnightblue" points="439.7,-36.65 450.17,-38.3 443.01,-30.49 439.7,-36.65"/>
</g>
<!-- Node3&#45;&gt;Node2 -->
<g id="edge5" class="edge">
<title>Node3&#45;&gt;Node2</title>
<path fill="none" stroke="midnightblue" d="M397.83,-81.14C415.14,-74.95 436.95,-65.3 450.17,-57.7"/>
<polygon fill="midnightblue" stroke="midnightblue" points="396.63,-77.85 388.26,-84.34 398.85,-84.49 396.63,-77.85"/>
</g>
<!-- Node3&#45;&gt;Node3 -->
<g id="edge4" class="edge">
<title>Node3&#45;&gt;Node3</title>
<path fill="none" stroke="midnightblue" d="M387.54,-105.4C386.4,-110.31 380.72,-114 370.5,-114 354.15,-114 349.42,-104.57 356.32,-95.76"/>
<polygon fill="midnightblue" stroke="midnightblue" points="390.88,-104.35 384.68,-95.76 384.16,-106.34 390.88,-104.35"/>
</g>
<!-- Node5 -->
<g id="node5" class="node">
<title>Node5</title>
<g id="a_node5"><a xlink:href="group__grp__output.html#ga0f962c09cd5d5eba99f1cba043cb3898" target="_top" xlink:title="Initialize the interface to the HDF5 library and open the output file.">
<polygon fill="white" stroke="black" points="208,-85.5 208,-104.5 302,-104.5 302,-85.5 208,-85.5"/>
<text text-anchor="middle" x="255" y="-92.5" font-family="Helvetica,sans-Serif" font-size="10.00">sphdf5::init_outfile</text>
</a>
</g>
</g>
<!-- Node4&#45;&gt;Node5 -->
<g id="edge9" class="edge">
<title>Node4&#45;&gt;Node5</title>
<path fill="none" stroke="midnightblue" d="M341.86,-59.44C322.7,-67.38 297.45,-77.84 279.3,-85.35"/>
<polygon fill="midnightblue" stroke="midnightblue" points="343.36,-62.61 351.26,-55.55 340.69,-56.14 343.36,-62.61"/>
</g>
<!-- Node6 -->
<g id="node6" class="node">
<title>Node6</title>
<g id="a_node6"><a xlink:href="xspech_8f90.html#a9fdc71dffd7c61ee4588a3f80d3ab9ce" target="_top" xlink:title="Main subroutine of SPEC.">
<polygon fill="white" stroke="black" points="125,-38.5 125,-57.5 172,-57.5 172,-38.5 125,-38.5"/>
<text text-anchor="middle" x="148.5" y="-45.5" font-family="Helvetica,sans-Serif" font-size="10.00">xspech</text>
</a>
</g>
</g>
<!-- Node4&#45;&gt;Node6 -->
<g id="edge16" class="edge">
<title>Node4&#45;&gt;Node6</title>
<path fill="none" stroke="midnightblue" d="M341.48,-43.32C297.43,-40.44 212.86,-40.57 172.3,-43.69"/>
<polygon fill="midnightblue" stroke="midnightblue" points="341.26,-46.81 351.5,-44.09 341.79,-39.83 341.26,-46.81"/>
</g>
<!-- Node5&#45;&gt;Node6 -->
<g id="edge10" class="edge">
<title>Node5&#45;&gt;Node6</title>
<path fill="none" stroke="midnightblue" d="M223.43,-81.25C206.59,-73.68 186.11,-64.46 170.97,-57.66"/>
<polygon fill="midnightblue" stroke="midnightblue" points="222.3,-84.58 232.85,-85.49 225.17,-78.19 222.3,-84.58"/>
</g>
<!-- Node6&#45;&gt;Node4 -->
<g id="edge13" class="edge">
<title>Node6&#45;&gt;Node4</title>
<path fill="none" stroke="midnightblue" d="M182.29,-52.97C229.36,-55.65 314.48,-55.3 351.5,-51.91"/>
<polygon fill="midnightblue" stroke="midnightblue" points="182.51,-49.48 172.3,-52.31 182.05,-56.47 182.51,-49.48"/>
</g>
<!-- Node6&#45;&gt;Node6 -->
<g id="edge15" class="edge">
<title>Node6&#45;&gt;Node6</title>
<path fill="none" stroke="midnightblue" d="M167.76,-67.4C166.47,-72.31 160.05,-76 148.5,-76 130.02,-76 124.67,-66.57 132.47,-57.76"/>
<polygon fill="midnightblue" stroke="midnightblue" points="171.02,-66.13 164.53,-57.76 164.39,-68.35 171.02,-66.13"/>
</g>
<!-- Node7 -->
<g id="node7" class="node">
<title>Node7</title>
<g id="a_node7"><a xlink:href="xspech_8f90.html#a1451823a7b97101a797de616250752c1" target="_top" xlink:title="Final diagnostics.">
<polygon fill="white" stroke="black" points="0,-38.5 0,-57.5 89,-57.5 89,-38.5 0,-38.5"/>
<text text-anchor="middle" x="44.5" y="-45.5" font-family="Helvetica,sans-Serif" font-size="10.00">final_diagnostics</text>
</a>
</g>
</g>
<!-- Node6&#45;&gt;Node7 -->
<g id="edge11" class="edge">
<title>Node6&#45;&gt;Node7</title>
<path fill="none" stroke="midnightblue" d="M114.63,-41.64C106.47,-41.27 97.59,-41.16 89.01,-41.32"/>
<polygon fill="midnightblue" stroke="midnightblue" points="114.67,-45.15 124.86,-42.28 115.1,-38.17 114.67,-45.15"/>
</g>
<!-- Node8 -->
<g id="node8" class="node">
<title>Node8</title>
<g id="a_node8"><a xlink:href="xspech_8f90.html#a95271e8805067f801b5d4e524d6901d4" target="_top" xlink:title="Main program of SPEC.">
<polygon fill="white" stroke="black" points="12.5,-0.5 12.5,-19.5 76.5,-19.5 76.5,-0.5 12.5,-0.5"/>
<text text-anchor="middle" x="44.5" y="-7.5" font-family="Helvetica,sans-Serif" font-size="10.00">spec_main</text>
</a>
</g>
</g>
<!-- Node6&#45;&gt;Node8 -->
<g id="edge14" class="edge">
<title>Node6&#45;&gt;Node8</title>
<path fill="none" stroke="midnightblue" d="M115.45,-36.06C101.23,-30.76 84.72,-24.61 71.31,-19.62"/>
<polygon fill="midnightblue" stroke="midnightblue" points="114.27,-39.36 124.86,-39.57 116.71,-32.8 114.27,-39.36"/>
</g>
<!-- Node7&#45;&gt;Node6 -->
<g id="edge12" class="edge">
<title>Node7&#45;&gt;Node6</title>
<path fill="none" stroke="midnightblue" d="M99.21,-54.74C108.25,-54.68 117.19,-54.34 124.86,-53.72"/>
<polygon fill="midnightblue" stroke="midnightblue" points="99.03,-51.24 89.01,-54.68 98.99,-58.24 99.03,-51.24"/>
</g>
<!-- Node9&#45;&gt;Node1 -->
<g id="edge18" class="edge">
<title>Node9&#45;&gt;Node1</title>
<path fill="none" stroke="midnightblue" d="M413.27,-14.98C435.39,-18.09 462.9,-22.71 487,-29 499.19,-32.18 512.54,-37.03 522.73,-41.03"/>
<polygon fill="midnightblue" stroke="midnightblue" points="413.58,-11.49 403.2,-13.61 412.64,-18.43 413.58,-11.49"/>
</g>
<!-- Node9&#45;&gt;Node2 -->
<g id="edge19" class="edge">
<title>Node9&#45;&gt;Node2</title>
<path fill="none" stroke="midnightblue" d="M392.32,-24.53C406.16,-31.55 424.37,-39.27 438.69,-44.2"/>
<polygon fill="midnightblue" stroke="midnightblue" points="393.59,-21.24 383.13,-19.58 390.27,-27.4 393.59,-21.24"/>
</g>
</g>
</svg>
