<?xml version="1.0" encoding="UTF-8" standalone="no"?>
<!DOCTYPE svg PUBLIC "-//W3C//DTD SVG 1.1//EN"
 "http://www.w3.org/Graphics/SVG/1.1/DTD/svg11.dtd">
<!-- Generated by graphviz version 2.47.0 (20210407.0042)
 -->
<!-- Title: matrix Pages: 1 -->
<svg width="773pt" height="463pt"
 viewBox="0.00 0.00 773.00 463.17" xmlns="http://www.w3.org/2000/svg" xmlns:xlink="http://www.w3.org/1999/xlink">
<g id="graph0" class="graph" transform="scale(1 1) rotate(0) translate(4 459.17)">
<title>matrix</title>
<polygon fill="white" stroke="transparent" points="-4,4 -4,-459.17 769,-459.17 769,4 -4,4"/>
<!-- Node1 -->
<g id="node1" class="node">
<title>Node1</title>
<g id="a_node1"><a xlink:title="Constructs energy and helicity matrices that represent the Beltrami linear system....">
<polygon fill="#bfbfbf" stroke="black" points="722,-134.98 722,-153.98 765,-153.98 765,-134.98 722,-134.98"/>
<text text-anchor="middle" x="743.5" y="-141.98" font-family="Helvetica,sans-Serif" font-size="10.00">matrix</text>
</a>
</g>
</g>
<!-- Node2 -->
<g id="node2" class="node">
<title>Node2</title>
<g id="a_node2"><a xlink:href="dfp100_8f90.html#a17a3ac15cc83994394f7b4cc05e5898e" target="_top" xlink:title="Split the work between MPI nodes and evaluate the global constraint.">
<polygon fill="white" stroke="black" points="640,-153.98 640,-172.98 686,-172.98 686,-153.98 640,-153.98"/>
<text text-anchor="middle" x="663" y="-160.98" font-family="Helvetica,sans-Serif" font-size="10.00">dfp100</text>
</a>
</g>
</g>
<!-- Node1&#45;&gt;Node2 -->
<g id="edge1" class="edge">
<title>Node1&#45;&gt;Node2</title>
<path fill="none" stroke="midnightblue" d="M712.11,-151.84C703.45,-153.93 694.2,-156.17 686.14,-158.12"/>
<polygon fill="midnightblue" stroke="midnightblue" points="712.98,-155.23 721.88,-149.47 711.33,-148.43 712.98,-155.23"/>
</g>
<!-- Node7 -->
<g id="node7" class="node">
<title>Node7</title>
<g id="a_node7"><a xlink:href="group__grp__force__driver.html#ga382822b303cbf8c56d6f54dcb379caf2" target="_top" xlink:title="read or write force&#45;derivative matrix">
<polygon fill="white" stroke="black" points="189,-390.98 189,-409.98 254,-409.98 254,-390.98 189,-390.98"/>
<text text-anchor="middle" x="221.5" y="-397.98" font-family="Helvetica,sans-Serif" font-size="10.00">writereadgf</text>
</a>
</g>
</g>
<!-- Node1&#45;&gt;Node7 -->
<g id="edge39" class="edge">
<title>Node1&#45;&gt;Node7</title>
<path fill="none" stroke="midnightblue" d="M731.6,-162.85C703.69,-207.92 624.74,-323.86 524,-372.48 434.05,-415.89 311.54,-410.29 254.35,-404.52"/>
<polygon fill="midnightblue" stroke="midnightblue" points="734.7,-164.49 736.9,-154.12 728.72,-160.85 734.7,-164.49"/>
</g>
<!-- Node10 -->
<g id="node10" class="node">
<title>Node10</title>
<g id="a_node10"><a xlink:href="dfp200_8f90.html#a6aca59cf350d7b1941f8389d50945a43" target="_top" xlink:title="get LU Beltrami matrices">
<polygon fill="white" stroke="black" points="399,-39.98 399,-58.98 524,-58.98 524,-39.98 399,-39.98"/>
<text text-anchor="middle" x="461.5" y="-46.98" font-family="Helvetica,sans-Serif" font-size="10.00">get_lu_beltrami_matrices</text>
</a>
</g>
</g>
<!-- Node1&#45;&gt;Node10 -->
<g id="edge37" class="edge">
<title>Node1&#45;&gt;Node10</title>
<path fill="none" stroke="midnightblue" d="M719.63,-129.31C709.62,-123.15 697.54,-116.36 686,-111.48 627.58,-86.81 556.44,-69.03 510.35,-59"/>
<polygon fill="midnightblue" stroke="midnightblue" points="717.85,-132.33 728.17,-134.71 721.59,-126.41 717.85,-132.33"/>
</g>
<!-- Node19 -->
<g id="node19" class="node">
<title>Node19</title>
<g id="a_node19"><a xlink:href="group__grp__initialization.html#ga28628de0fdb3b3497668007d8d0643bd" target="_top" xlink:title="Allocates and initializes internal arrays.">
<polygon fill="white" stroke="black" points="317,-115.98 317,-134.98 361,-134.98 361,-115.98 317,-115.98"/>
<text text-anchor="middle" x="339" y="-122.98" font-family="Helvetica,sans-Serif" font-size="10.00">preset</text>
</a>
</g>
</g>
<!-- Node1&#45;&gt;Node19 -->
<g id="edge38" class="edge">
<title>Node1&#45;&gt;Node19</title>
<path fill="none" stroke="midnightblue" d="M711.83,-143.03C633.65,-139.34 428.38,-129.65 361.44,-126.49"/>
<polygon fill="midnightblue" stroke="midnightblue" points="711.83,-146.54 721.99,-143.51 712.16,-139.55 711.83,-146.54"/>
</g>
<!-- Node3 -->
<g id="node3" class="node">
<title>Node3</title>
<g id="a_node3"><a xlink:href="group__grp__global__force.html#ga38c9d3c50bd043707fefa5137c9dbf44" target="_top" xlink:title="Calculates , where &#160;and , and .">
<polygon fill="white" stroke="black" points="560,-210.98 560,-229.98 604,-229.98 604,-210.98 560,-210.98"/>
<text text-anchor="middle" x="582" y="-217.98" font-family="Helvetica,sans-Serif" font-size="10.00">dforce</text>
</a>
</g>
</g>
<!-- Node2&#45;&gt;Node3 -->
<g id="edge2" class="edge">
<title>Node2&#45;&gt;Node3</title>
<path fill="none" stroke="midnightblue" d="M640.39,-179.08C626.25,-189.28 608.24,-202.27 596.2,-210.96"/>
<polygon fill="midnightblue" stroke="midnightblue" points="642.54,-181.84 648.6,-173.15 638.44,-176.16 642.54,-181.84"/>
</g>
<!-- Node13 -->
<g id="node13" class="node">
<title>Node13</title>
<g id="a_node13"><a xlink:href="dfp200_8f90.html#a73ddf39ecc5228201fb643779e17cd36" target="_top" xlink:title="Evaluate mu and psip derivatives and store them in dmupfdx.">
<polygon fill="white" stroke="black" points="174,-1.98 174,-20.98 269,-20.98 269,-1.98 174,-1.98"/>
<text text-anchor="middle" x="221.5" y="-8.98" font-family="Helvetica,sans-Serif" font-size="10.00">evaluate_dmupfdx</text>
</a>
</g>
</g>
<!-- Node2&#45;&gt;Node13 -->
<g id="edge36" class="edge">
<title>Node2&#45;&gt;Node13</title>
<path fill="none" stroke="midnightblue" d="M649.94,-145.46C628.63,-115.35 581.12,-55.65 524,-30.48 440.25,6.41 330.58,1.84 269.25,-4.82"/>
<polygon fill="midnightblue" stroke="midnightblue" points="647.13,-147.55 655.7,-153.78 652.89,-143.57 647.13,-147.55"/>
</g>
<!-- Node4 -->
<g id="node4" class="node">
<title>Node4</title>
<g id="a_node4"><a xlink:href="group__grp__force__driver.html#gabbc245b3884ee8d8d3e2a52f25149f78" target="_top" xlink:title="fcn1">
<polygon fill="white" stroke="black" points="444,-343.98 444,-362.98 479,-362.98 479,-343.98 444,-343.98"/>
<text text-anchor="middle" x="461.5" y="-350.98" font-family="Helvetica,sans-Serif" font-size="10.00">fcn1</text>
</a>
</g>
</g>
<!-- Node3&#45;&gt;Node4 -->
<g id="edge3" class="edge">
<title>Node3&#45;&gt;Node4</title>
<path fill="none" stroke="midnightblue" d="M575.53,-239.83C567.79,-263.92 551.45,-304.89 524,-329.48 511.28,-340.88 492.53,-347.14 479.08,-350.38"/>
<polygon fill="midnightblue" stroke="midnightblue" points="578.94,-240.66 578.49,-230.07 572.24,-238.63 578.94,-240.66"/>
</g>
<!-- Node5 -->
<g id="node5" class="node">
<title>Node5</title>
<g id="a_node5"><a xlink:href="group__grp__force__driver.html#gaec14f81fbdbedafbc4189489ec8ae178" target="_top" xlink:title="Employs Newton method to find , where &#160;and &#160;is defined in dforce() .">
<polygon fill="white" stroke="black" points="315,-343.98 315,-362.98 363,-362.98 363,-343.98 315,-343.98"/>
<text text-anchor="middle" x="339" y="-350.98" font-family="Helvetica,sans-Serif" font-size="10.00">newton</text>
</a>
</g>
</g>
<!-- Node3&#45;&gt;Node5 -->
<g id="edge27" class="edge">
<title>Node3&#45;&gt;Node5</title>
<path fill="none" stroke="midnightblue" d="M570.25,-239.19C560.18,-255.16 543.75,-277.69 524,-291.48 517.16,-296.26 410.83,-330.74 363,-346.11"/>
<polygon fill="midnightblue" stroke="midnightblue" points="573.49,-240.59 575.67,-230.22 567.5,-236.97 573.49,-240.59"/>
</g>
<!-- Node6 -->
<g id="node6" class="node">
<title>Node6</title>
<g id="a_node6"><a xlink:href="group__grp__force__driver.html#ga8ccd6c7d901872702521d0a0edf95412" target="_top" xlink:title="fcn2">
<polygon fill="white" stroke="black" points="87,-366.98 87,-385.98 122,-385.98 122,-366.98 87,-366.98"/>
<text text-anchor="middle" x="104.5" y="-373.98" font-family="Helvetica,sans-Serif" font-size="10.00">fcn2</text>
</a>
</g>
</g>
<!-- Node3&#45;&gt;Node6 -->
<g id="edge14" class="edge">
<title>Node3&#45;&gt;Node6</title>
<path fill="none" stroke="midnightblue" d="M579.59,-240.27C576.12,-273.09 564.27,-338.51 524,-372.48 400.67,-476.53 317.32,-469.77 164,-419.48 144.12,-412.96 125.42,-396.82 114.74,-386.27"/>
<polygon fill="midnightblue" stroke="midnightblue" points="583.09,-240.4 580.49,-230.13 576.12,-239.78 583.09,-240.4"/>
</g>
<!-- Node8 -->
<g id="node8" class="node">
<title>Node8</title>
<g id="a_node8"><a xlink:href="xspech_8f90.html#aea782eae089760a491c2c54f9903abcc" target="_top" xlink:title="Main program of SPEC.">
<polygon fill="white" stroke="black" points="81,-191.98 81,-210.98 128,-210.98 128,-191.98 81,-191.98"/>
<text text-anchor="middle" x="104.5" y="-198.98" font-family="Helvetica,sans-Serif" font-size="10.00">xspech</text>
</a>
</g>
</g>
<!-- Node3&#45;&gt;Node8 -->
<g id="edge35" class="edge">
<title>Node3&#45;&gt;Node8</title>
<path fill="none" stroke="midnightblue" d="M562.68,-236.77C552.15,-245.01 538.23,-254.17 524,-258.48 435.1,-285.4 407.07,-270.78 315,-258.48 245.32,-249.17 165.98,-223.18 128.03,-209.75"/>
<polygon fill="midnightblue" stroke="midnightblue" points="565.17,-239.25 570.65,-230.18 560.71,-233.85 565.17,-239.25"/>
</g>
<!-- Node3&#45;&gt;Node10 -->
<g id="edge15" class="edge">
<title>Node3&#45;&gt;Node10</title>
<path fill="none" stroke="midnightblue" d="M571.14,-201.55C567.44,-194.14 563.33,-185.5 560,-177.48 541.23,-132.31 557.91,-108.73 524,-73.48 517.96,-67.2 510.09,-62.54 502,-59.08"/>
<polygon fill="midnightblue" stroke="midnightblue" points="568.16,-203.41 575.82,-210.73 574.4,-200.23 568.16,-203.41"/>
</g>
<!-- Node15 -->
<g id="node15" class="node">
<title>Node15</title>
<g id="a_node15"><a xlink:href="group__grp__diagnostics.html#ga7401b50ec10c6598ee4a8112717a63ec" target="_top" xlink:title="Computes eigenvalues and eigenvectors of derivative matrix, .">
<polygon fill="white" stroke="black" points="199,-153.98 199,-172.98 244,-172.98 244,-153.98 199,-153.98"/>
<text text-anchor="middle" x="221.5" y="-160.98" font-family="Helvetica,sans-Serif" font-size="10.00">hesian</text>
</a>
</g>
</g>
<!-- Node3&#45;&gt;Node15 -->
<g id="edge25" class="edge">
<title>Node3&#45;&gt;Node15</title>
<path fill="none" stroke="midnightblue" d="M562.17,-204.24C551.66,-196.18 537.91,-187.18 524,-182.48 423.87,-148.69 294.57,-156.32 244.06,-161.1"/>
<polygon fill="midnightblue" stroke="midnightblue" points="560.18,-207.14 570.16,-210.68 564.57,-201.68 560.18,-207.14"/>
</g>
<!-- Node16 -->
<g id="node16" class="node">
<title>Node16</title>
<g id="a_node16"><a xlink:href="group__grp__conjugate__gradient.html#ga4d8415226e62a9fdb42b0fd0b464251e" target="_top" xlink:title="Returns the energy functional and it&#39;s derivatives with respect to geometry.">
<polygon fill="white" stroke="black" points="437.5,-229.98 437.5,-248.98 485.5,-248.98 485.5,-229.98 437.5,-229.98"/>
<text text-anchor="middle" x="461.5" y="-236.98" font-family="Helvetica,sans-Serif" font-size="10.00">pc00ab</text>
</a>
</g>
</g>
<!-- Node3&#45;&gt;Node16 -->
<g id="edge28" class="edge">
<title>Node3&#45;&gt;Node16</title>
<path fill="none" stroke="midnightblue" d="M549.85,-225.48C529.68,-228.71 503.85,-232.85 485.53,-235.79"/>
<polygon fill="midnightblue" stroke="midnightblue" points="550.49,-228.92 559.81,-223.88 549.39,-222.01 550.49,-228.92"/>
</g>
<!-- Node18 -->
<g id="node18" class="node">
<title>Node18</title>
<g id="a_node18"><a xlink:href="namespaceallglobal.html#ad32ae6194892fe7d876622a6455189e2" target="_top" xlink:title="The master node reads the input namelist and sets various internal variables. The relevant quantities...">
<polygon fill="white" stroke="black" points="420,-191.98 420,-210.98 503,-210.98 503,-191.98 420,-191.98"/>
<text text-anchor="middle" x="461.5" y="-198.98" font-family="Helvetica,sans-Serif" font-size="10.00">allglobal::readin</text>
</a>
</g>
</g>
<!-- Node3&#45;&gt;Node18 -->
<g id="edge30" class="edge">
<title>Node3&#45;&gt;Node18</title>
<path fill="none" stroke="midnightblue" d="M549.55,-215.44C535.32,-213.16 518.33,-210.43 503.15,-208"/>
<polygon fill="midnightblue" stroke="midnightblue" points="549.39,-218.96 559.81,-217.09 550.49,-212.05 549.39,-218.96"/>
</g>
<!-- Node4&#45;&gt;Node5 -->
<g id="edge4" class="edge">
<title>Node4&#45;&gt;Node5</title>
<path fill="none" stroke="midnightblue" d="M433.51,-347.75C412.38,-346.31 383.31,-346.4 363.22,-348.03"/>
<polygon fill="midnightblue" stroke="midnightblue" points="433.48,-351.26 443.74,-348.64 434.09,-344.28 433.48,-351.26"/>
</g>
<!-- Node5&#45;&gt;Node4 -->
<g id="edge5" class="edge">
<title>Node5&#45;&gt;Node4</title>
<path fill="none" stroke="midnightblue" d="M373.21,-359.59C396.11,-360.76 425.58,-360.34 443.74,-358.33"/>
<polygon fill="midnightblue" stroke="midnightblue" points="373.42,-356.09 363.22,-358.94 372.97,-363.08 373.42,-356.09"/>
</g>
<!-- Node5&#45;&gt;Node6 -->
<g id="edge6" class="edge">
<title>Node5&#45;&gt;Node6</title>
<path fill="none" stroke="midnightblue" d="M304.79,-351.87C254.32,-354.04 160.17,-363.76 122.1,-371.15"/>
<polygon fill="midnightblue" stroke="midnightblue" points="304.98,-355.37 314.86,-351.53 304.74,-348.37 304.98,-355.37"/>
</g>
<!-- Node5&#45;&gt;Node7 -->
<g id="edge8" class="edge">
<title>Node5&#45;&gt;Node7</title>
<path fill="none" stroke="midnightblue" d="M305.39,-360.61C282.07,-368.9 251.95,-381.73 235.19,-390.9"/>
<polygon fill="midnightblue" stroke="midnightblue" points="306.57,-363.9 314.9,-357.35 304.31,-357.28 306.57,-363.9"/>
</g>
<!-- Node5&#45;&gt;Node8 -->
<g id="edge11" class="edge">
<title>Node5&#45;&gt;Node8</title>
<path fill="none" stroke="midnightblue" d="M304.94,-345.88C267.69,-336.07 206.78,-316.13 164,-282.48 138.23,-262.22 118.62,-227.73 110.13,-211.06"/>
<polygon fill="midnightblue" stroke="midnightblue" points="304.23,-349.32 314.78,-348.39 305.95,-342.53 304.23,-349.32"/>
</g>
<!-- Node6&#45;&gt;Node5 -->
<g id="edge7" class="edge">
<title>Node6&#45;&gt;Node5</title>
<path fill="none" stroke="midnightblue" d="M132.2,-378.34C178.16,-376.88 271.47,-367.56 314.86,-360.02"/>
<polygon fill="midnightblue" stroke="midnightblue" points="132.03,-374.84 122.1,-378.53 132.17,-381.84 132.03,-374.84"/>
</g>
<!-- Node7&#45;&gt;Node5 -->
<g id="edge10" class="edge">
<title>Node7&#45;&gt;Node5</title>
<path fill="none" stroke="midnightblue" d="M263.74,-390.2C285.39,-382.07 310.43,-371.19 325.2,-363.12"/>
<polygon fill="midnightblue" stroke="midnightblue" points="262.27,-387.01 254.07,-393.73 264.67,-393.59 262.27,-387.01"/>
</g>
<!-- Node7&#45;&gt;Node6 -->
<g id="edge9" class="edge">
<title>Node7&#45;&gt;Node6</title>
<path fill="none" stroke="midnightblue" d="M178.83,-391.79C159.26,-387.7 137.03,-383.06 122.22,-379.97"/>
<polygon fill="midnightblue" stroke="midnightblue" points="178.27,-395.24 188.77,-393.86 179.7,-388.39 178.27,-395.24"/>
</g>
<!-- Node9 -->
<g id="node9" class="node">
<title>Node9</title>
<g id="a_node9"><a xlink:href="xspech_8f90.html#a537af4990058c0b0f2cd8b3669af204f" target="_top" xlink:title="todo remark">
<polygon fill="white" stroke="black" points="0,-191.98 0,-210.98 45,-210.98 45,-191.98 0,-191.98"/>
<text text-anchor="middle" x="22.5" y="-198.98" font-family="Helvetica,sans-Serif" font-size="10.00">ending</text>
</a>
</g>
</g>
<!-- Node8&#45;&gt;Node9 -->
<g id="edge12" class="edge">
<title>Node8&#45;&gt;Node9</title>
<path fill="none" stroke="midnightblue" d="M70.65,-194.83C62.06,-194.59 53.01,-194.79 45.17,-195.41"/>
<polygon fill="midnightblue" stroke="midnightblue" points="70.63,-198.33 80.79,-195.33 70.97,-191.34 70.63,-198.33"/>
</g>
<!-- Node9&#45;&gt;Node8 -->
<g id="edge13" class="edge">
<title>Node9&#45;&gt;Node8</title>
<path fill="none" stroke="midnightblue" d="M55.22,-208.1C63.77,-208.37 72.84,-208.22 80.79,-207.64"/>
<polygon fill="midnightblue" stroke="midnightblue" points="55.34,-204.6 45.17,-207.56 54.96,-211.59 55.34,-204.6"/>
</g>
<!-- Node11 -->
<g id="node11" class="node">
<title>Node11</title>
<g id="a_node11"><a xlink:href="dfp200_8f90.html#a55ea75395f8c71731451e1add3720c7e" target="_top" xlink:title="Given the field consistent with the constraints and the geometry, computes local quantites related to...">
<polygon fill="white" stroke="black" points="316,-39.98 316,-58.98 362,-58.98 362,-39.98 316,-39.98"/>
<text text-anchor="middle" x="339" y="-46.98" font-family="Helvetica,sans-Serif" font-size="10.00">dfp200</text>
</a>
</g>
</g>
<!-- Node10&#45;&gt;Node11 -->
<g id="edge16" class="edge">
<title>Node10&#45;&gt;Node11</title>
<path fill="none" stroke="midnightblue" d="M388.69,-42.84C379.05,-43.03 369.82,-43.46 362.04,-44.12"/>
<polygon fill="midnightblue" stroke="midnightblue" points="388.88,-46.34 398.84,-42.73 388.8,-39.34 388.88,-46.34"/>
</g>
<!-- Node11&#45;&gt;Node3 -->
<g id="edge17" class="edge">
<title>Node11&#45;&gt;Node3</title>
<path fill="none" stroke="midnightblue" d="M371.78,-62.12C410.42,-78.49 476.36,-109.68 524,-149.48 546.08,-167.93 565.57,-196.03 575,-210.74"/>
<polygon fill="midnightblue" stroke="midnightblue" points="372.69,-58.71 362.11,-58.1 370,-65.17 372.69,-58.71"/>
</g>
<!-- Node11&#45;&gt;Node10 -->
<g id="edge22" class="edge">
<title>Node11&#45;&gt;Node10</title>
<path fill="none" stroke="midnightblue" d="M372.28,-55.54C380.52,-55.98 389.66,-56.21 398.84,-56.23"/>
<polygon fill="midnightblue" stroke="midnightblue" points="372.26,-52.03 362.04,-54.84 371.78,-59.01 372.26,-52.03"/>
</g>
<!-- Node12 -->
<g id="node12" class="node">
<title>Node12</title>
<g id="a_node12"><a xlink:href="dfp200_8f90.html#a7b64c7392b45d0042d8bd7379c0761a5" target="_top" xlink:title="Evaluate the derivative of the square of the magnetic field modulus. Add spectral constraint derivati...">
<polygon fill="white" stroke="black" points="184.5,-77.98 184.5,-96.98 258.5,-96.98 258.5,-77.98 184.5,-77.98"/>
<text text-anchor="middle" x="221.5" y="-84.98" font-family="Helvetica,sans-Serif" font-size="10.00">evaluate_dbb</text>
</a>
</g>
</g>
<!-- Node11&#45;&gt;Node12 -->
<g id="edge18" class="edge">
<title>Node11&#45;&gt;Node12</title>
<path fill="none" stroke="midnightblue" d="M305.95,-53.91C283.52,-60.11 254.6,-70.09 237.36,-77.89"/>
<polygon fill="midnightblue" stroke="midnightblue" points="306.94,-57.27 315.73,-51.35 305.17,-50.5 306.94,-57.27"/>
</g>
<!-- Node11&#45;&gt;Node13 -->
<g id="edge20" class="edge">
<title>Node11&#45;&gt;Node13</title>
<path fill="none" stroke="midnightblue" d="M313.35,-35.73C300.45,-30.51 284.22,-24.84 269.06,-20.17"/>
<polygon fill="midnightblue" stroke="midnightblue" points="312.33,-39.09 322.9,-39.78 315.07,-32.65 312.33,-39.09"/>
</g>
<!-- Node14 -->
<g id="node14" class="node">
<title>Node14</title>
<g id="a_node14"><a xlink:href="dfp200_8f90.html#a5e56f1f4b1e6df11a9cffa6237c37469" target="_top" xlink:title="This routine evaluates the value of the magnetic field once the interface is perturbed using matrix p...">
<polygon fill="white" stroke="black" points="164,-39.98 164,-58.98 279,-58.98 279,-39.98 164,-39.98"/>
<text text-anchor="middle" x="221.5" y="-46.98" font-family="Helvetica,sans-Serif" font-size="10.00">get_perturbed_solution</text>
</a>
</g>
</g>
<!-- Node11&#45;&gt;Node14 -->
<g id="edge23" class="edge">
<title>Node11&#45;&gt;Node14</title>
<path fill="none" stroke="midnightblue" d="M305.51,-43.34C297.3,-42.92 288.25,-42.72 279.23,-42.73"/>
<polygon fill="midnightblue" stroke="midnightblue" points="305.52,-46.85 315.73,-44.02 305.99,-39.87 305.52,-46.85"/>
</g>
<!-- Node12&#45;&gt;Node11 -->
<g id="edge19" class="edge">
<title>Node12&#45;&gt;Node11</title>
<path fill="none" stroke="midnightblue" d="M268.59,-78.95C287.93,-73 309.09,-65.4 322.9,-59.18"/>
<polygon fill="midnightblue" stroke="midnightblue" points="267.57,-75.6 258.99,-81.8 269.57,-82.31 267.57,-75.6"/>
</g>
<!-- Node13&#45;&gt;Node11 -->
<g id="edge21" class="edge">
<title>Node13&#45;&gt;Node11</title>
<path fill="none" stroke="midnightblue" d="M246.59,-25.01C266.96,-33.29 295.9,-42.76 315.73,-47.61"/>
<polygon fill="midnightblue" stroke="midnightblue" points="247.93,-21.78 237.36,-21.07 245.19,-28.22 247.93,-21.78"/>
</g>
<!-- Node14&#45;&gt;Node11 -->
<g id="edge24" class="edge">
<title>Node14&#45;&gt;Node11</title>
<path fill="none" stroke="midnightblue" d="M289.23,-56.16C298.76,-56 307.95,-55.6 315.73,-54.94"/>
<polygon fill="midnightblue" stroke="midnightblue" points="289.21,-52.66 279.23,-56.23 289.26,-59.66 289.21,-52.66"/>
</g>
<!-- Node15&#45;&gt;Node8 -->
<g id="edge26" class="edge">
<title>Node15&#45;&gt;Node8</title>
<path fill="none" stroke="midnightblue" d="M189.3,-173.79C170.01,-180.17 145.68,-188.21 128.21,-193.98"/>
<polygon fill="midnightblue" stroke="midnightblue" points="190.47,-177.09 198.87,-170.63 188.28,-170.44 190.47,-177.09"/>
</g>
<!-- Node17 -->
<g id="node17" class="node">
<title>Node17</title>
<g id="a_node17"><a xlink:href="group__grp__conjugate__gradient.html#ga25a3bae2ff2ee0469b045de0d033398b" target="_top" xlink:title="Use preconditioned conjugate gradient method to find minimum of energy functional.">
<polygon fill="white" stroke="black" points="315,-229.98 315,-248.98 363,-248.98 363,-229.98 315,-229.98"/>
<text text-anchor="middle" x="339" y="-236.98" font-family="Helvetica,sans-Serif" font-size="10.00">pc00aa</text>
</a>
</g>
</g>
<!-- Node16&#45;&gt;Node17 -->
<g id="edge29" class="edge">
<title>Node16&#45;&gt;Node17</title>
<path fill="none" stroke="midnightblue" d="M427.16,-239.48C406.81,-239.48 381.31,-239.48 363.16,-239.48"/>
<polygon fill="midnightblue" stroke="midnightblue" points="427.27,-242.98 437.27,-239.48 427.27,-235.98 427.27,-242.98"/>
</g>
<!-- Node18&#45;&gt;Node8 -->
<g id="edge34" class="edge">
<title>Node18&#45;&gt;Node8</title>
<path fill="none" stroke="midnightblue" d="M409.66,-201.48C331.37,-201.48 184.44,-201.48 128.2,-201.48"/>
<polygon fill="midnightblue" stroke="midnightblue" points="409.78,-204.98 419.78,-201.48 409.78,-197.98 409.78,-204.98"/>
</g>
<!-- Node18&#45;&gt;Node19 -->
<g id="edge31" class="edge">
<title>Node18&#45;&gt;Node19</title>
<path fill="none" stroke="midnightblue" d="M436.63,-186.43C412.4,-171.14 375.63,-147.95 355.14,-135.03"/>
<polygon fill="midnightblue" stroke="midnightblue" points="434.91,-189.48 445.24,-191.86 438.65,-183.56 434.91,-189.48"/>
</g>
<!-- Node19&#45;&gt;Node8 -->
<g id="edge33" class="edge">
<title>Node19&#45;&gt;Node8</title>
<path fill="none" stroke="midnightblue" d="M306.31,-122.93C270.11,-121.35 209.96,-122.81 164,-144.48 141.17,-155.25 121.81,-178.6 112.12,-191.83"/>
<polygon fill="midnightblue" stroke="midnightblue" points="306.55,-126.45 316.73,-123.51 306.94,-119.46 306.55,-126.45"/>
</g>
<!-- Node19&#45;&gt;Node15 -->
<g id="edge32" class="edge">
<title>Node19&#45;&gt;Node15</title>
<path fill="none" stroke="midnightblue" d="M307.3,-135.58C287.46,-142.11 262.13,-150.45 244.33,-156.3"/>
<polygon fill="midnightblue" stroke="midnightblue" points="308.41,-138.9 316.82,-132.45 306.22,-132.25 308.41,-138.9"/>
</g>
</g>
</svg>
