<?xml version="1.0" encoding="UTF-8" standalone="no"?>
<!DOCTYPE svg PUBLIC "-//W3C//DTD SVG 1.1//EN"
 "http://www.w3.org/Graphics/SVG/1.1/DTD/svg11.dtd">
<!-- Generated by graphviz version 2.47.2 (0)
 -->
<!-- Title: vacuumphi Pages: 1 -->
<svg width="223pt" height="28pt"
 viewBox="0.00 0.00 223.00 28.00" xmlns="http://www.w3.org/2000/svg" xmlns:xlink="http://www.w3.org/1999/xlink">
<g id="graph0" class="graph" transform="scale(1 1) rotate(0) translate(4 24)">
<title>vacuumphi</title>
<polygon fill="white" stroke="transparent" points="-4,4 -4,-24 219,-24 219,4 -4,4"/>
<!-- Node1 -->
<g id="node1" class="node">
<title>Node1</title>
<g id="a_node1"><a xlink:title="Compute vacuum magnetic scalar potential (?)">
<polygon fill="#bfbfbf" stroke="black" points="0,-0.5 0,-19.5 64,-19.5 64,-0.5 0,-0.5"/>
<text text-anchor="middle" x="32" y="-7.5" font-family="Helvetica,sans-Serif" font-size="10.00">vacuumphi</text>
</a>
</g>
</g>
<!-- Node2 -->
<g id="node2" class="node">
<title>Node2</title>
<g id="a_node2"><a xlink:href="group__grp__smooth__boundary.html#ga5d58e428e5062d645244ff572b06e117" target="_top" xlink:title="Constructs smooth approximation to wall.">
<polygon fill="white" stroke="black" points="100,-0.5 100,-19.5 150,-19.5 150,-0.5 100,-0.5"/>
<text text-anchor="middle" x="125" y="-7.5" font-family="Helvetica,sans-Serif" font-size="10.00">wa00aa</text>
</a>
</g>
</g>
<!-- Node1&#45;&gt;Node2 -->
<g id="edge1" class="edge">
<title>Node1&#45;&gt;Node2</title>
<path fill="none" stroke="midnightblue" d="M64.06,-3.56C72.41,-3.19 81.48,-3.15 89.98,-3.44"/>
<polygon fill="midnightblue" stroke="midnightblue" points="89.8,-6.94 99.97,-3.97 90.17,0.05 89.8,-6.94"/>
</g>
<!-- Node2&#45;&gt;Node1 -->
<g id="edge3" class="edge">
<title>Node2&#45;&gt;Node1</title>
<path fill="none" stroke="midnightblue" d="M99.97,-16.03C92.06,-16.6 83.04,-16.83 74.23,-16.72"/>
<polygon fill="midnightblue" stroke="midnightblue" points="74.16,-13.22 64.06,-16.44 73.96,-20.22 74.16,-13.22"/>
</g>
<!-- Node3 -->
<g id="node3" class="node">
<title>Node3</title>
<g id="a_node3"><a xlink:href="group__grp__numerics.html#ga041138109a57e651c57117bb4180409e" target="_top" xlink:title="Forward Fourier transform (fftw wrapper)">
<polygon fill="white" stroke="black" points="186,-0.5 186,-19.5 215,-19.5 215,-0.5 186,-0.5"/>
<text text-anchor="middle" x="200.5" y="-7.5" font-family="Helvetica,sans-Serif" font-size="10.00">tfft</text>
</a>
</g>
</g>
<!-- Node2&#45;&gt;Node3 -->
<g id="edge2" class="edge">
<title>Node2&#45;&gt;Node3</title>
<path fill="none" stroke="midnightblue" d="M150.07,-10C158.33,-10 167.58,-10 175.81,-10"/>
<polygon fill="midnightblue" stroke="midnightblue" points="175.9,-13.5 185.9,-10 175.9,-6.5 175.9,-13.5"/>
</g>
</g>
</svg>
