<?xml version="1.0" encoding="UTF-8" standalone="no"?>
<!DOCTYPE svg PUBLIC "-//W3C//DTD SVG 1.1//EN"
 "http://www.w3.org/Graphics/SVG/1.1/DTD/svg11.dtd">
<!-- Generated by graphviz version 2.44.0 ()
 -->
<!-- Title: jo00aa Pages: 1 -->
<svg width="273pt" height="180pt"
 viewBox="0.00 0.00 273.00 180.00" xmlns="http://www.w3.org/2000/svg" xmlns:xlink="http://www.w3.org/1999/xlink">
<g id="graph0" class="graph" transform="scale(1 1) rotate(0) translate(4 176)">
<title>jo00aa</title>
<polygon fill="white" stroke="transparent" points="-4,4 -4,-176 269,-176 269,4 -4,4"/>
<!-- Node1 -->
<g id="node1" class="node">
<title>Node1</title>
<g id="a_node1"><a xlink:title="Measures error in Beltrami equation, .">
<polygon fill="#bfbfbf" stroke="black" points="0,-57.5 0,-76.5 45,-76.5 45,-57.5 0,-57.5"/>
<text text-anchor="middle" x="22.5" y="-64.5" font-family="Helvetica,sans-Serif" font-size="10.00">jo00aa</text>
</a>
</g>
</g>
<!-- Node2 -->
<g id="node2" class="node">
<title>Node2</title>
<g id="a_node2"><a xlink:href="group__grp__diagnostics.html#ga20985df1b0df0503ca03ca13f1daf642" target="_top" xlink:title="Compute the magnetic field.">
<polygon fill="white" stroke="black" points="102.5,-114.5 102.5,-133.5 141.5,-133.5 141.5,-114.5 102.5,-114.5"/>
<text text-anchor="middle" x="122" y="-121.5" font-family="Helvetica,sans-Serif" font-size="10.00">bfield</text>
</a>
</g>
</g>
<!-- Node1&#45;&gt;Node2 -->
<g id="edge1" class="edge">
<title>Node1&#45;&gt;Node2</title>
<path fill="none" stroke="midnightblue" d="M36.87,-76.61C48.31,-84.65 65.37,-96.18 81,-105 84.84,-107.17 88.97,-109.32 93.06,-111.35"/>
<polygon fill="midnightblue" stroke="midnightblue" points="91.87,-114.66 102.4,-115.83 94.9,-108.35 91.87,-114.66"/>
</g>
<!-- Node5 -->
<g id="node5" class="node">
<title>Node5</title>
<g id="a_node5"><a xlink:href="group__grp__geometry.html#gaaca20aa60eaf39055f3c9d5c02a24ac2" target="_top" xlink:title="Calculates coordinates, , and metrics, using FFTs.">
<polygon fill="white" stroke="black" points="99,-76.5 99,-95.5 145,-95.5 145,-76.5 99,-76.5"/>
<text text-anchor="middle" x="122" y="-83.5" font-family="Helvetica,sans-Serif" font-size="10.00">coords</text>
</a>
</g>
</g>
<!-- Node1&#45;&gt;Node5 -->
<g id="edge4" class="edge">
<title>Node1&#45;&gt;Node5</title>
<path fill="none" stroke="midnightblue" d="M45.14,-71.22C57.96,-73.72 74.45,-76.93 88.78,-79.72"/>
<polygon fill="midnightblue" stroke="midnightblue" points="88.26,-83.19 98.75,-81.66 89.6,-76.32 88.26,-83.19"/>
</g>
<!-- Node7 -->
<g id="node7" class="node">
<title>Node7</title>
<g id="a_node7"><a xlink:href="basefn_8f90.html#a8f42498fd0b4c464c8c2d3ce0e94c56a" target="_top" xlink:title="Get the Chebyshev polynomials with zeroth, first and second derivatives The Chebyshev polynomial has ...">
<polygon fill="white" stroke="black" points="83.5,-38.5 83.5,-57.5 160.5,-57.5 160.5,-38.5 83.5,-38.5"/>
<text text-anchor="middle" x="122" y="-45.5" font-family="Helvetica,sans-Serif" font-size="10.00">get_cheby_d2</text>
</a>
</g>
</g>
<!-- Node1&#45;&gt;Node7 -->
<g id="edge7" class="edge">
<title>Node1&#45;&gt;Node7</title>
<path fill="none" stroke="midnightblue" d="M45.14,-62.78C53.55,-61.14 63.55,-59.2 73.48,-57.26"/>
<polygon fill="midnightblue" stroke="midnightblue" points="74.18,-60.69 83.32,-55.34 72.84,-53.82 74.18,-60.69"/>
</g>
<!-- Node8 -->
<g id="node8" class="node">
<title>Node8</title>
<g id="a_node8"><a xlink:href="basefn_8f90.html#a29cbf901a18ead65d0e3a51956a3f045" target="_top" xlink:title="Get the Zernike polynomials &#160;with zeroth, first, second derivatives.">
<polygon fill="white" stroke="black" points="81,-0.5 81,-19.5 163,-19.5 163,-0.5 81,-0.5"/>
<text text-anchor="middle" x="122" y="-7.5" font-family="Helvetica,sans-Serif" font-size="10.00">get_zernike_d2</text>
</a>
</g>
</g>
<!-- Node1&#45;&gt;Node8 -->
<g id="edge8" class="edge">
<title>Node1&#45;&gt;Node8</title>
<path fill="none" stroke="midnightblue" d="M36.87,-57.39C48.31,-49.35 65.37,-37.82 81,-29 84.04,-27.29 87.26,-25.58 90.49,-23.94"/>
<polygon fill="midnightblue" stroke="midnightblue" points="92.1,-27.05 99.54,-19.51 89.02,-20.76 92.1,-27.05"/>
</g>
<!-- Node3 -->
<g id="node3" class="node">
<title>Node3</title>
<g id="a_node3"><a xlink:href="basefn_8f90.html#af6a4cad04c70bfb14fd18a3bfbc843a3" target="_top" xlink:title="Get the Chebyshev polynomials with zeroth, first derivatives.">
<polygon fill="white" stroke="black" points="201.5,-152.5 201.5,-171.5 262.5,-171.5 262.5,-152.5 201.5,-152.5"/>
<text text-anchor="middle" x="232" y="-159.5" font-family="Helvetica,sans-Serif" font-size="10.00">get_cheby</text>
</a>
</g>
</g>
<!-- Node2&#45;&gt;Node3 -->
<g id="edge2" class="edge">
<title>Node2&#45;&gt;Node3</title>
<path fill="none" stroke="midnightblue" d="M141.81,-130.62C156.29,-135.71 176.76,-142.91 194.43,-149.13"/>
<polygon fill="midnightblue" stroke="midnightblue" points="193.31,-152.45 203.9,-152.47 195.63,-145.85 193.31,-152.45"/>
</g>
<!-- Node4 -->
<g id="node4" class="node">
<title>Node4</title>
<g id="a_node4"><a xlink:href="basefn_8f90.html#a38dc596fb909186b01dacc1feac03164" target="_top" xlink:title="Get the Zernike polynomials &#160;with zeroth, first derivatives.">
<polygon fill="white" stroke="black" points="199,-114.5 199,-133.5 265,-133.5 265,-114.5 199,-114.5"/>
<text text-anchor="middle" x="232" y="-121.5" font-family="Helvetica,sans-Serif" font-size="10.00">get_zernike</text>
</a>
</g>
</g>
<!-- Node2&#45;&gt;Node4 -->
<g id="edge3" class="edge">
<title>Node2&#45;&gt;Node4</title>
<path fill="none" stroke="midnightblue" d="M141.81,-124C154.7,-124 172.33,-124 188.51,-124"/>
<polygon fill="midnightblue" stroke="midnightblue" points="188.87,-127.5 198.87,-124 188.87,-120.5 188.87,-127.5"/>
</g>
<!-- Node6 -->
<g id="node6" class="node">
<title>Node6</title>
<g id="a_node6"><a xlink:href="group__grp__volume.html#gae4c62d20b8fef07f4471b5b0889ab005" target="_top" xlink:title="Computes volume of each region; and, if required, the derivatives of the volume with respect to the i...">
<polygon fill="white" stroke="black" points="208,-76.5 208,-95.5 256,-95.5 256,-76.5 208,-76.5"/>
<text text-anchor="middle" x="232" y="-83.5" font-family="Helvetica,sans-Serif" font-size="10.00">volume</text>
</a>
</g>
</g>
<!-- Node5&#45;&gt;Node6 -->
<g id="edge5" class="edge">
<title>Node5&#45;&gt;Node6</title>
<path fill="none" stroke="midnightblue" d="M145.12,-80.43C160.24,-79.15 180.57,-78.91 197.65,-79.71"/>
<polygon fill="midnightblue" stroke="midnightblue" points="197.6,-83.21 207.79,-80.34 198.03,-76.23 197.6,-83.21"/>
</g>
<!-- Node6&#45;&gt;Node5 -->
<g id="edge6" class="edge">
<title>Node6&#45;&gt;Node5</title>
<path fill="none" stroke="midnightblue" d="M207.79,-91.66C192.42,-92.89 172.05,-93.08 155.13,-92.23"/>
<polygon fill="midnightblue" stroke="midnightblue" points="155.32,-88.74 145.12,-91.57 154.86,-95.72 155.32,-88.74"/>
</g>
</g>
</svg>
