<?xml version="1.0" encoding="UTF-8" standalone="no"?>
<!DOCTYPE svg PUBLIC "-//W3C//DTD SVG 1.1//EN"
 "http://www.w3.org/Graphics/SVG/1.1/DTD/svg11.dtd">
<!-- Generated by graphviz version 2.44.0 ()
 -->
<!-- Title: mtrxhs Pages: 1 -->
<svg width="1183pt" height="306pt"
 viewBox="0.00 0.00 1183.00 305.94" xmlns="http://www.w3.org/2000/svg" xmlns:xlink="http://www.w3.org/1999/xlink">
<g id="graph0" class="graph" transform="scale(1 1) rotate(0) translate(4 301.94)">
<title>mtrxhs</title>
<polygon fill="white" stroke="transparent" points="-4,4 -4,-301.94 1179,-301.94 1179,4 -4,4"/>
<!-- Node1 -->
<g id="node1" class="node">
<title>Node1</title>
<g id="a_node1"><a xlink:title="Constructs matrices that represent the Beltrami linear system, matrix&#45;free.">
<polygon fill="#bfbfbf" stroke="black" points="1129,-193.44 1129,-212.44 1175,-212.44 1175,-193.44 1129,-193.44"/>
<text text-anchor="middle" x="1152" y="-200.44" font-family="Helvetica,sans-Serif" font-size="10.00">mtrxhs</text>
</a>
</g>
</g>
<!-- Node2 -->
<g id="node2" class="node">
<title>Node2</title>
<g id="a_node2"><a xlink:href="dfp200_8f90.html#a5e56f1f4b1e6df11a9cffa6237c37469" target="_top" xlink:title="This routine evaluates the value of the magnetic field once the interface is perturbed using matrix p...">
<polygon fill="white" stroke="black" points="713,-231.44 713,-250.44 828,-250.44 828,-231.44 713,-231.44"/>
<text text-anchor="middle" x="770.5" y="-238.44" font-family="Helvetica,sans-Serif" font-size="10.00">get_perturbed_solution</text>
</a>
</g>
</g>
<!-- Node1&#45;&gt;Node2 -->
<g id="edge1" class="edge">
<title>Node1&#45;&gt;Node2</title>
<path fill="none" stroke="midnightblue" d="M1118.62,-208.34C1110.28,-209.63 1101.32,-210.92 1093,-211.94 1000.52,-223.27 892.57,-232.12 828.24,-236.93"/>
<polygon fill="midnightblue" stroke="midnightblue" points="1119.41,-211.76 1128.74,-206.74 1118.31,-204.84 1119.41,-211.76"/>
</g>
<!-- Node21 -->
<g id="node21" class="node">
<title>Node21</title>
<g id="a_node21"><a xlink:href="mp00ac_8f90.html#ae9fe335bb4916face9f9d19ce8c0f5d7" target="_top" xlink:title="compute a.x by either by coumputing it directly, or using a matrix free method">
<polygon fill="white" stroke="black" points="1044,-155.44 1044,-174.44 1093,-174.44 1093,-155.44 1044,-155.44"/>
<text text-anchor="middle" x="1068.5" y="-162.44" font-family="Helvetica,sans-Serif" font-size="10.00">matvec</text>
</a>
</g>
</g>
<!-- Node1&#45;&gt;Node21 -->
<g id="edge37" class="edge">
<title>Node1&#45;&gt;Node21</title>
<path fill="none" stroke="midnightblue" d="M1121.29,-189.09C1110.92,-184.25 1099.52,-178.94 1090.06,-174.53"/>
<polygon fill="midnightblue" stroke="midnightblue" points="1119.89,-192.3 1130.43,-193.35 1122.85,-185.95 1119.89,-192.3"/>
</g>
<!-- Node23 -->
<g id="node23" class="node">
<title>Node23</title>
<g id="a_node23"><a xlink:href="group__grp__solver.html#ga6626839aff500f060beb5bce2b90c447" target="_top" xlink:title="Solves Beltrami/vacuum (linear) system, given matrices.unpacking fluxes, helicity multiplier">
<polygon fill="white" stroke="black" points="864,-155.44 864,-174.44 915,-174.44 915,-155.44 864,-155.44"/>
<text text-anchor="middle" x="889.5" y="-162.44" font-family="Helvetica,sans-Serif" font-size="10.00">mp00ac</text>
</a>
</g>
</g>
<!-- Node1&#45;&gt;Node23 -->
<g id="edge44" class="edge">
<title>Node1&#45;&gt;Node23</title>
<path fill="none" stroke="midnightblue" d="M1118.72,-201.95C1078.92,-200.26 1009.4,-195.75 951,-183.94 939.02,-181.52 926.06,-177.62 915.21,-173.99"/>
<polygon fill="midnightblue" stroke="midnightblue" points="1118.75,-205.46 1128.88,-202.35 1119.02,-198.46 1118.75,-205.46"/>
</g>
<!-- Node3 -->
<g id="node3" class="node">
<title>Node3</title>
<g id="a_node3"><a xlink:href="dfp200_8f90.html#a55ea75395f8c71731451e1add3720c7e" target="_top" xlink:title="Given the field consistent with the constraints and the geometry, computes local quantites related to...">
<polygon fill="white" stroke="black" points="631,-231.44 631,-250.44 677,-250.44 677,-231.44 631,-231.44"/>
<text text-anchor="middle" x="654" y="-238.44" font-family="Helvetica,sans-Serif" font-size="10.00">dfp200</text>
</a>
</g>
</g>
<!-- Node2&#45;&gt;Node3 -->
<g id="edge2" class="edge">
<title>Node2&#45;&gt;Node3</title>
<path fill="none" stroke="midnightblue" d="M702.81,-234.27C693.57,-234.43 684.67,-234.84 677.11,-235.48"/>
<polygon fill="midnightblue" stroke="midnightblue" points="702.95,-237.77 712.92,-234.19 702.89,-230.77 702.95,-237.77"/>
</g>
<!-- Node3&#45;&gt;Node2 -->
<g id="edge36" class="edge">
<title>Node3&#45;&gt;Node2</title>
<path fill="none" stroke="midnightblue" d="M687.14,-247.08C695.19,-247.5 704.07,-247.7 712.92,-247.69"/>
<polygon fill="midnightblue" stroke="midnightblue" points="687.32,-243.58 677.11,-246.4 686.85,-250.56 687.32,-243.58"/>
</g>
<!-- Node4 -->
<g id="node4" class="node">
<title>Node4</title>
<g id="a_node4"><a xlink:href="group__grp__global__force.html#ga38c9d3c50bd043707fefa5137c9dbf44" target="_top" xlink:title="Calculates , where &#160;and , and .">
<polygon fill="white" stroke="black" points="525.5,-155.44 525.5,-174.44 569.5,-174.44 569.5,-155.44 525.5,-155.44"/>
<text text-anchor="middle" x="547.5" y="-162.44" font-family="Helvetica,sans-Serif" font-size="10.00">dforce</text>
</a>
</g>
</g>
<!-- Node3&#45;&gt;Node4 -->
<g id="edge3" class="edge">
<title>Node3&#45;&gt;Node4</title>
<path fill="none" stroke="midnightblue" d="M638.56,-223.49C627.62,-211.15 611.67,-194.92 595,-183.94 587.28,-178.86 577.98,-174.72 569.73,-171.63"/>
<polygon fill="midnightblue" stroke="midnightblue" points="636.1,-226 645.27,-231.3 641.4,-221.44 636.1,-226"/>
</g>
<!-- Node15 -->
<g id="node15" class="node">
<title>Node15</title>
<g id="a_node15"><a xlink:href="dfp200_8f90.html#a6aca59cf350d7b1941f8389d50945a43" target="_top" xlink:title="get LU Beltrami matrices">
<polygon fill="white" stroke="black" points="339,-278.44 339,-297.44 464,-297.44 464,-278.44 339,-278.44"/>
<text text-anchor="middle" x="401.5" y="-285.44" font-family="Helvetica,sans-Serif" font-size="10.00">get_lu_beltrami_matrices</text>
</a>
</g>
</g>
<!-- Node3&#45;&gt;Node15 -->
<g id="edge35" class="edge">
<title>Node3&#45;&gt;Node15</title>
<path fill="none" stroke="midnightblue" d="M621.12,-243.78C612.71,-246.22 603.58,-248.93 595,-250.94 539.76,-263.9 474.12,-271.91 435.52,-278.43"/>
<polygon fill="midnightblue" stroke="midnightblue" points="622.27,-247.09 630.95,-241.02 620.37,-240.36 622.27,-247.09"/>
</g>
<!-- Node19 -->
<g id="node19" class="node">
<title>Node19</title>
<g id="a_node19"><a xlink:href="dfp200_8f90.html#a7b64c7392b45d0042d8bd7379c0761a5" target="_top" xlink:title="Evaluate the derivative of the square of the magnetic field modulus. Add spectral constraint derivati...">
<polygon fill="white" stroke="black" points="510.5,-231.44 510.5,-250.44 584.5,-250.44 584.5,-231.44 510.5,-231.44"/>
<text text-anchor="middle" x="547.5" y="-238.44" font-family="Helvetica,sans-Serif" font-size="10.00">evaluate_dbb</text>
</a>
</g>
</g>
<!-- Node3&#45;&gt;Node19 -->
<g id="edge31" class="edge">
<title>Node3&#45;&gt;Node19</title>
<path fill="none" stroke="midnightblue" d="M620.82,-234.65C609.36,-234.1 596.38,-234.04 584.61,-234.48"/>
<polygon fill="midnightblue" stroke="midnightblue" points="620.63,-238.15 630.84,-235.3 621.09,-231.16 620.63,-238.15"/>
</g>
<!-- Node20 -->
<g id="node20" class="node">
<title>Node20</title>
<g id="a_node20"><a xlink:href="dfp200_8f90.html#a73ddf39ecc5228201fb643779e17cd36" target="_top" xlink:title="Evaluate mu and psip derivatives and store them in dmupfdx.">
<polygon fill="white" stroke="black" points="500,-193.44 500,-212.44 595,-212.44 595,-193.44 500,-193.44"/>
<text text-anchor="middle" x="547.5" y="-200.44" font-family="Helvetica,sans-Serif" font-size="10.00">evaluate_dmupfdx</text>
</a>
</g>
</g>
<!-- Node3&#45;&gt;Node20 -->
<g id="edge33" class="edge">
<title>Node3&#45;&gt;Node20</title>
<path fill="none" stroke="midnightblue" d="M630.21,-226.97C619.42,-222.17 606.13,-217 593.43,-212.59"/>
<polygon fill="midnightblue" stroke="midnightblue" points="628.8,-230.17 639.34,-231.24 631.77,-223.83 628.8,-230.17"/>
</g>
<!-- Node5 -->
<g id="node5" class="node">
<title>Node5</title>
<g id="a_node5"><a xlink:href="namespaceallglobal.html#a7824bc37519fe88336534ce90ab2af16" target="_top" xlink:title=" ">
<polygon fill="white" stroke="black" points="344.5,-202.44 344.5,-221.44 458.5,-221.44 458.5,-202.44 344.5,-202.44"/>
<text text-anchor="middle" x="401.5" y="-209.44" font-family="Helvetica,sans-Serif" font-size="10.00">allglobal::check_inputs</text>
</a>
</g>
</g>
<!-- Node4&#45;&gt;Node5 -->
<g id="edge4" class="edge">
<title>Node4&#45;&gt;Node5</title>
<path fill="none" stroke="midnightblue" d="M515.61,-175.02C490.8,-183.12 456.21,-194.41 431.82,-202.37"/>
<polygon fill="midnightblue" stroke="midnightblue" points="516.83,-178.3 525.25,-171.87 514.66,-171.65 516.83,-178.3"/>
</g>
<!-- Node8 -->
<g id="node8" class="node">
<title>Node8</title>
<g id="a_node8"><a xlink:href="xspech_8f90.html#a48f45478dc2c9f70ea8aa1c60ad06503" target="_top" xlink:title="This is the main &quot;driver&quot; for the physics part of SPEC.">
<polygon fill="white" stroke="black" points="155.5,-164.44 155.5,-183.44 193.5,-183.44 193.5,-164.44 155.5,-164.44"/>
<text text-anchor="middle" x="174.5" y="-171.44" font-family="Helvetica,sans-Serif" font-size="10.00">spec</text>
</a>
</g>
</g>
<!-- Node4&#45;&gt;Node8 -->
<g id="edge30" class="edge">
<title>Node4&#45;&gt;Node8</title>
<path fill="none" stroke="midnightblue" d="M515.3,-165.7C440.49,-167.51 252.73,-172.07 193.61,-173.5"/>
<polygon fill="midnightblue" stroke="midnightblue" points="515.58,-169.19 525.49,-165.45 515.41,-162.19 515.58,-169.19"/>
</g>
<!-- Node11 -->
<g id="node11" class="node">
<title>Node11</title>
<g id="a_node11"><a xlink:href="group__grp__force__driver.html#gabbc245b3884ee8d8d3e2a52f25149f78" target="_top" xlink:title="fcn1">
<polygon fill="white" stroke="black" points="384,-50.44 384,-69.44 419,-69.44 419,-50.44 384,-50.44"/>
<text text-anchor="middle" x="401.5" y="-57.44" font-family="Helvetica,sans-Serif" font-size="10.00">fcn1</text>
</a>
</g>
</g>
<!-- Node4&#45;&gt;Node11 -->
<g id="edge13" class="edge">
<title>Node4&#45;&gt;Node11</title>
<path fill="none" stroke="midnightblue" d="M532.46,-147.48C517.22,-129.49 491.37,-101.65 464,-83.94 449.95,-74.85 431.92,-68.32 419.02,-64.39"/>
<polygon fill="midnightblue" stroke="midnightblue" points="529.98,-149.97 539.05,-155.43 535.37,-145.5 529.98,-149.97"/>
</g>
<!-- Node12 -->
<g id="node12" class="node">
<title>Node12</title>
<g id="a_node12"><a xlink:href="group__grp__force__driver.html#gaec14f81fbdbedafbc4189489ec8ae178" target="_top" xlink:title="Employs Newton method to find , where &#160;and &#160;is defined in dforce() .">
<polygon fill="white" stroke="black" points="255,-69.44 255,-88.44 303,-88.44 303,-69.44 255,-69.44"/>
<text text-anchor="middle" x="279" y="-76.44" font-family="Helvetica,sans-Serif" font-size="10.00">newton</text>
</a>
</g>
</g>
<!-- Node4&#45;&gt;Node12 -->
<g id="edge27" class="edge">
<title>Node4&#45;&gt;Node12</title>
<path fill="none" stroke="midnightblue" d="M515.43,-154.91C461.42,-137.49 351.41,-101.99 303.35,-86.47"/>
<polygon fill="midnightblue" stroke="midnightblue" points="514.55,-158.31 525.14,-158.05 516.7,-151.65 514.55,-158.31"/>
</g>
<!-- Node13 -->
<g id="node13" class="node">
<title>Node13</title>
<g id="a_node13"><a xlink:href="group__grp__force__driver.html#ga8ccd6c7d901872702521d0a0edf95412" target="_top" xlink:title="fcn2">
<polygon fill="white" stroke="black" points="29.5,-74.44 29.5,-93.44 64.5,-93.44 64.5,-74.44 29.5,-74.44"/>
<text text-anchor="middle" x="47" y="-81.44" font-family="Helvetica,sans-Serif" font-size="10.00">fcn2</text>
</a>
</g>
</g>
<!-- Node4&#45;&gt;Node13 -->
<g id="edge22" class="edge">
<title>Node4&#45;&gt;Node13</title>
<path fill="none" stroke="midnightblue" d="M540.16,-145.31C529.62,-116.33 505.43,-63.14 464,-40.94 333.15,29.17 274.14,-5.44 130,-40.94 103.93,-47.36 76.98,-63.7 61.39,-74.29"/>
<polygon fill="midnightblue" stroke="midnightblue" points="536.98,-146.8 543.54,-155.12 543.59,-144.52 536.98,-146.8"/>
</g>
<!-- Node4&#45;&gt;Node15 -->
<g id="edge23" class="edge">
<title>Node4&#45;&gt;Node15</title>
<path fill="none" stroke="midnightblue" d="M515.52,-173.61C509.86,-176.24 504.37,-179.62 500,-183.94 470.81,-212.76 494.44,-241.43 464,-268.94 459.69,-272.84 454.59,-275.93 449.21,-278.4"/>
<polygon fill="midnightblue" stroke="midnightblue" points="517.02,-176.78 525.04,-169.85 514.45,-170.27 517.02,-176.78"/>
</g>
<!-- Node16 -->
<g id="node16" class="node">
<title>Node16</title>
<g id="a_node16"><a xlink:href="group__grp__diagnostics.html#ga7401b50ec10c6598ee4a8112717a63ec" target="_top" xlink:title="Computes eigenvalues and eigenvectors of derivative matrix, .">
<polygon fill="white" stroke="black" points="256.5,-126.44 256.5,-145.44 301.5,-145.44 301.5,-126.44 256.5,-126.44"/>
<text text-anchor="middle" x="279" y="-133.44" font-family="Helvetica,sans-Serif" font-size="10.00">hesian</text>
</a>
</g>
</g>
<!-- Node4&#45;&gt;Node16 -->
<g id="edge25" class="edge">
<title>Node4&#45;&gt;Node16</title>
<path fill="none" stroke="midnightblue" d="M514.98,-161.51C460.24,-155.55 348.93,-143.44 301.83,-138.32"/>
<polygon fill="midnightblue" stroke="midnightblue" points="514.82,-165.01 525.14,-162.62 515.58,-158.05 514.82,-165.01"/>
</g>
<!-- Node17 -->
<g id="node17" class="node">
<title>Node17</title>
<g id="a_node17"><a xlink:href="group__grp__conjugate__gradient.html#ga4d8415226e62a9fdb42b0fd0b464251e" target="_top" xlink:title="Returns the energy functional and it&#39;s derivatives with respect to geometry.">
<polygon fill="white" stroke="black" points="377.5,-240.44 377.5,-259.44 425.5,-259.44 425.5,-240.44 377.5,-240.44"/>
<text text-anchor="middle" x="401.5" y="-247.44" font-family="Helvetica,sans-Serif" font-size="10.00">pc00ab</text>
</a>
</g>
</g>
<!-- Node4&#45;&gt;Node17 -->
<g id="edge28" class="edge">
<title>Node4&#45;&gt;Node17</title>
<path fill="none" stroke="midnightblue" d="M516.01,-174.67C510.39,-177.2 504.79,-180.28 500,-183.94 479.09,-199.92 485.59,-215.9 464,-230.94 452.63,-238.86 437.85,-243.57 425.62,-246.31"/>
<polygon fill="midnightblue" stroke="midnightblue" points="517.38,-177.9 525.35,-170.91 514.77,-171.4 517.38,-177.9"/>
</g>
<!-- Node6 -->
<g id="node6" class="node">
<title>Node6</title>
<g id="a_node6"><a xlink:href="xspech_8f90.html#a9fdc71dffd7c61ee4588a3f80d3ab9ce" target="_top" xlink:title="Main subroutine of SPEC.">
<polygon fill="white" stroke="black" points="255.5,-202.44 255.5,-221.44 302.5,-221.44 302.5,-202.44 255.5,-202.44"/>
<text text-anchor="middle" x="279" y="-209.44" font-family="Helvetica,sans-Serif" font-size="10.00">xspech</text>
</a>
</g>
</g>
<!-- Node5&#45;&gt;Node6 -->
<g id="edge5" class="edge">
<title>Node5&#45;&gt;Node6</title>
<path fill="none" stroke="midnightblue" d="M334.45,-211.94C323.06,-211.94 311.95,-211.94 302.77,-211.94"/>
<polygon fill="midnightblue" stroke="midnightblue" points="334.48,-215.44 344.48,-211.94 334.48,-208.44 334.48,-215.44"/>
</g>
<!-- Node7 -->
<g id="node7" class="node">
<title>Node7</title>
<g id="a_node7"><a xlink:href="xspech_8f90.html#a1451823a7b97101a797de616250752c1" target="_top" xlink:title="Final diagnostics.">
<polygon fill="white" stroke="black" points="130,-202.44 130,-221.44 219,-221.44 219,-202.44 130,-202.44"/>
<text text-anchor="middle" x="174.5" y="-209.44" font-family="Helvetica,sans-Serif" font-size="10.00">final_diagnostics</text>
</a>
</g>
</g>
<!-- Node6&#45;&gt;Node7 -->
<g id="edge6" class="edge">
<title>Node6&#45;&gt;Node7</title>
<path fill="none" stroke="midnightblue" d="M245.24,-205.6C236.96,-205.22 227.94,-205.1 219.22,-205.25"/>
<polygon fill="midnightblue" stroke="midnightblue" points="245.05,-209.09 255.25,-206.22 245.49,-202.11 245.05,-209.09"/>
</g>
<!-- Node6&#45;&gt;Node8 -->
<g id="edge8" class="edge">
<title>Node6&#45;&gt;Node8</title>
<path fill="none" stroke="midnightblue" d="M255.42,-197.86C236.89,-189.48 210.98,-180.01 193.75,-175.4"/>
<polygon fill="midnightblue" stroke="midnightblue" points="254.07,-201.09 264.6,-202.24 257.08,-194.78 254.07,-201.09"/>
</g>
<!-- Node10 -->
<g id="node10" class="node">
<title>Node10</title>
<g id="a_node10"><a xlink:href="xspech_8f90.html#a95271e8805067f801b5d4e524d6901d4" target="_top" xlink:title="Main program of SPEC.">
<polygon fill="white" stroke="black" points="142.5,-240.44 142.5,-259.44 206.5,-259.44 206.5,-240.44 142.5,-240.44"/>
<text text-anchor="middle" x="174.5" y="-247.44" font-family="Helvetica,sans-Serif" font-size="10.00">spec_main</text>
</a>
</g>
</g>
<!-- Node6&#45;&gt;Node10 -->
<g id="edge12" class="edge">
<title>Node6&#45;&gt;Node10</title>
<path fill="none" stroke="midnightblue" d="M245.79,-223.88C231.5,-229.18 214.91,-235.33 201.44,-240.32"/>
<polygon fill="midnightblue" stroke="midnightblue" points="247.09,-227.13 255.25,-220.37 244.66,-220.57 247.09,-227.13"/>
</g>
<!-- Node7&#45;&gt;Node6 -->
<g id="edge7" class="edge">
<title>Node7&#45;&gt;Node6</title>
<path fill="none" stroke="midnightblue" d="M229.47,-218.68C238.56,-218.62 247.54,-218.28 255.25,-217.66"/>
<polygon fill="midnightblue" stroke="midnightblue" points="229.24,-215.18 219.22,-218.62 229.2,-222.18 229.24,-215.18"/>
</g>
<!-- Node8&#45;&gt;Node6 -->
<g id="edge11" class="edge">
<title>Node8&#45;&gt;Node6</title>
<path fill="none" stroke="midnightblue" d="M197.97,-187.97C214.96,-195.66 238.19,-204.28 255.25,-209.23"/>
<polygon fill="midnightblue" stroke="midnightblue" points="199.31,-184.73 188.78,-183.58 196.29,-191.05 199.31,-184.73"/>
</g>
<!-- Node9 -->
<g id="node9" class="node">
<title>Node9</title>
<g id="a_node9"><a xlink:href="group__grp__output.html#ga0f962c09cd5d5eba99f1cba043cb3898" target="_top" xlink:title="Initialize the interface to the HDF5 library and open the output file.">
<polygon fill="white" stroke="black" points="0,-221.44 0,-240.44 94,-240.44 94,-221.44 0,-221.44"/>
<text text-anchor="middle" x="47" y="-228.44" font-family="Helvetica,sans-Serif" font-size="10.00">sphdf5::init_outfile</text>
</a>
</g>
</g>
<!-- Node8&#45;&gt;Node9 -->
<g id="edge9" class="edge">
<title>Node8&#45;&gt;Node9</title>
<path fill="none" stroke="midnightblue" d="M146.02,-185.83C140.7,-188.17 135.17,-190.61 130,-192.94 108.97,-202.41 85.05,-213.53 68.5,-221.29"/>
<polygon fill="midnightblue" stroke="midnightblue" points="147.49,-189.01 155.26,-181.8 144.69,-182.59 147.49,-189.01"/>
</g>
<!-- Node9&#45;&gt;Node6 -->
<g id="edge10" class="edge">
<title>Node9&#45;&gt;Node6</title>
<path fill="none" stroke="midnightblue" d="M72.49,-245.54C106.5,-263.8 169.46,-290.25 219,-268.94 240.37,-259.75 238,-246.82 255,-230.94 258.33,-227.83 262.09,-224.61 265.59,-221.73"/>
<polygon fill="midnightblue" stroke="midnightblue" points="74.14,-242.45 63.69,-240.65 70.73,-248.57 74.14,-242.45"/>
</g>
<!-- Node11&#45;&gt;Node12 -->
<g id="edge14" class="edge">
<title>Node11&#45;&gt;Node12</title>
<path fill="none" stroke="midnightblue" d="M373.51,-58.46C352.38,-60.35 323.31,-65.03 303.22,-69.82"/>
<polygon fill="midnightblue" stroke="midnightblue" points="374.02,-61.93 383.74,-57.74 373.52,-54.95 374.02,-61.93"/>
</g>
<!-- Node12&#45;&gt;Node8 -->
<g id="edge18" class="edge">
<title>Node12&#45;&gt;Node8</title>
<path fill="none" stroke="midnightblue" d="M259.91,-95.71C238.4,-115.64 203.24,-148.23 185.87,-164.33"/>
<polygon fill="midnightblue" stroke="midnightblue" points="262.46,-98.11 267.42,-88.75 257.7,-92.98 262.46,-98.11"/>
</g>
<!-- Node12&#45;&gt;Node11 -->
<g id="edge15" class="edge">
<title>Node12&#45;&gt;Node11</title>
<path fill="none" stroke="midnightblue" d="M313.21,-79.81C336.11,-77.37 365.58,-72.3 383.74,-67.43"/>
<polygon fill="midnightblue" stroke="midnightblue" points="312.85,-76.33 303.22,-80.74 313.5,-83.3 312.85,-76.33"/>
</g>
<!-- Node12&#45;&gt;Node13 -->
<g id="edge16" class="edge">
<title>Node12&#45;&gt;Node13</title>
<path fill="none" stroke="midnightblue" d="M244.39,-74.73C194.39,-73.05 102.25,-75.46 64.65,-79.86"/>
<polygon fill="midnightblue" stroke="midnightblue" points="244.54,-78.24 254.68,-75.17 244.84,-71.25 244.54,-78.24"/>
</g>
<!-- Node14 -->
<g id="node14" class="node">
<title>Node14</title>
<g id="a_node14"><a xlink:href="group__grp__force__driver.html#ga382822b303cbf8c56d6f54dcb379caf2" target="_top" xlink:title="read or write force&#45;derivative matrix">
<polygon fill="white" stroke="black" points="142,-50.44 142,-69.44 207,-69.44 207,-50.44 142,-50.44"/>
<text text-anchor="middle" x="174.5" y="-57.44" font-family="Helvetica,sans-Serif" font-size="10.00">writereadgf</text>
</a>
</g>
</g>
<!-- Node12&#45;&gt;Node14 -->
<g id="edge19" class="edge">
<title>Node12&#45;&gt;Node14</title>
<path fill="none" stroke="midnightblue" d="M246.76,-66.88C234.23,-63.92 219.81,-61.24 207.23,-59.53"/>
<polygon fill="midnightblue" stroke="midnightblue" points="246.21,-70.35 256.76,-69.41 247.93,-63.56 246.21,-70.35"/>
</g>
<!-- Node13&#45;&gt;Node12 -->
<g id="edge17" class="edge">
<title>Node13&#45;&gt;Node12</title>
<path fill="none" stroke="midnightblue" d="M74.91,-87.88C120.41,-89.94 211.74,-87.87 254.68,-83.72"/>
<polygon fill="midnightblue" stroke="midnightblue" points="74.83,-84.37 64.65,-87.29 74.43,-91.36 74.83,-84.37"/>
</g>
<!-- Node14&#45;&gt;Node12 -->
<g id="edge21" class="edge">
<title>Node14&#45;&gt;Node12</title>
<path fill="none" stroke="midnightblue" d="M206.43,-71.93C222.05,-75.62 240.67,-78.9 255,-80.42"/>
<polygon fill="midnightblue" stroke="midnightblue" points="207.23,-68.52 196.68,-69.45 205.51,-75.31 207.23,-68.52"/>
</g>
<!-- Node14&#45;&gt;Node13 -->
<g id="edge20" class="edge">
<title>Node14&#45;&gt;Node13</title>
<path fill="none" stroke="midnightblue" d="M131.96,-67.88C108.99,-72.28 81.73,-77.49 64.64,-80.76"/>
<polygon fill="midnightblue" stroke="midnightblue" points="132.67,-71.31 141.83,-66 131.35,-64.44 132.67,-71.31"/>
</g>
<!-- Node15&#45;&gt;Node3 -->
<g id="edge24" class="edge">
<title>Node15&#45;&gt;Node3</title>
<path fill="none" stroke="midnightblue" d="M474.18,-288.56C510.63,-284.95 555.48,-278.21 595,-268.94 612.74,-264.78 632.83,-257.63 644.1,-250.66"/>
<polygon fill="midnightblue" stroke="midnightblue" points="473.76,-285.08 464.13,-289.49 474.41,-292.05 473.76,-285.08"/>
</g>
<!-- Node16&#45;&gt;Node8 -->
<g id="edge26" class="edge">
<title>Node16&#45;&gt;Node8</title>
<path fill="none" stroke="midnightblue" d="M246.56,-147.59C229.27,-154.01 208.41,-161.74 193.78,-167.16"/>
<polygon fill="midnightblue" stroke="midnightblue" points="248.1,-150.76 256.26,-144 245.67,-144.19 248.1,-150.76"/>
</g>
<!-- Node18 -->
<g id="node18" class="node">
<title>Node18</title>
<g id="a_node18"><a xlink:href="group__grp__conjugate__gradient.html#ga25a3bae2ff2ee0469b045de0d033398b" target="_top" xlink:title="Use preconditioned conjugate gradient method to find minimum of energy functional.">
<polygon fill="white" stroke="black" points="255,-240.44 255,-259.44 303,-259.44 303,-240.44 255,-240.44"/>
<text text-anchor="middle" x="279" y="-247.44" font-family="Helvetica,sans-Serif" font-size="10.00">pc00aa</text>
</a>
</g>
</g>
<!-- Node17&#45;&gt;Node18 -->
<g id="edge29" class="edge">
<title>Node17&#45;&gt;Node18</title>
<path fill="none" stroke="midnightblue" d="M367.16,-249.94C346.81,-249.94 321.31,-249.94 303.16,-249.94"/>
<polygon fill="midnightblue" stroke="midnightblue" points="367.27,-253.44 377.27,-249.94 367.27,-246.44 367.27,-253.44"/>
</g>
<!-- Node19&#45;&gt;Node3 -->
<g id="edge32" class="edge">
<title>Node19&#45;&gt;Node3</title>
<path fill="none" stroke="midnightblue" d="M594.93,-247.65C607.42,-247.81 620.35,-247.45 630.84,-246.58"/>
<polygon fill="midnightblue" stroke="midnightblue" points="594.69,-244.15 584.61,-247.39 594.52,-251.14 594.69,-244.15"/>
</g>
<!-- Node20&#45;&gt;Node3 -->
<g id="edge34" class="edge">
<title>Node20&#45;&gt;Node3</title>
<path fill="none" stroke="midnightblue" d="M571.55,-217.03C589.21,-224.86 613.41,-233.64 630.84,-238.52"/>
<polygon fill="midnightblue" stroke="midnightblue" points="572.55,-213.64 562.01,-212.57 569.59,-219.98 572.55,-213.64"/>
</g>
<!-- Node22 -->
<g id="node22" class="node">
<title>Node22</title>
<g id="a_node22"><a xlink:href="mp00ac_8f90.html#a304edac43f63d39dda4419b4d044eac5" target="_top" xlink:title="run GMRES">
<polygon fill="white" stroke="black" points="951,-155.44 951,-174.44 1008,-174.44 1008,-155.44 951,-155.44"/>
<text text-anchor="middle" x="979.5" y="-162.44" font-family="Helvetica,sans-Serif" font-size="10.00">rungmres</text>
</a>
</g>
</g>
<!-- Node21&#45;&gt;Node22 -->
<g id="edge38" class="edge">
<title>Node21&#45;&gt;Node22</title>
<path fill="none" stroke="midnightblue" d="M1033.5,-164.94C1025.13,-164.94 1016.28,-164.94 1008.25,-164.94"/>
<polygon fill="midnightblue" stroke="midnightblue" points="1033.73,-168.44 1043.73,-164.94 1033.73,-161.44 1033.73,-168.44"/>
</g>
<!-- Node22&#45;&gt;Node23 -->
<g id="edge39" class="edge">
<title>Node22&#45;&gt;Node23</title>
<path fill="none" stroke="midnightblue" d="M940.46,-164.94C931.9,-164.94 923.03,-164.94 915.19,-164.94"/>
<polygon fill="midnightblue" stroke="midnightblue" points="940.66,-168.44 950.66,-164.94 940.66,-161.44 940.66,-168.44"/>
</g>
<!-- Node24 -->
<g id="node24" class="node">
<title>Node24</title>
<g id="a_node24"><a xlink:href="group__grp__solver__driver.html#gacad623d4c5c006e9ad10116372f92ad3" target="_top" xlink:title="Constructs Beltrami field in given volume consistent with flux, helicity, rotational&#45;transform and/or...">
<polygon fill="white" stroke="black" points="745,-155.44 745,-174.44 796,-174.44 796,-155.44 745,-155.44"/>
<text text-anchor="middle" x="770.5" y="-162.44" font-family="Helvetica,sans-Serif" font-size="10.00">ma02aa</text>
</a>
</g>
</g>
<!-- Node23&#45;&gt;Node24 -->
<g id="edge40" class="edge">
<title>Node23&#45;&gt;Node24</title>
<path fill="none" stroke="midnightblue" d="M853.89,-164.94C835.43,-164.94 813.14,-164.94 796.4,-164.94"/>
<polygon fill="midnightblue" stroke="midnightblue" points="853.97,-168.44 863.97,-164.94 853.97,-161.44 853.97,-168.44"/>
</g>
<!-- Node25 -->
<g id="node25" class="node">
<title>Node25</title>
<g id="a_node25"><a xlink:href="dfp100_8f90.html#a17a3ac15cc83994394f7b4cc05e5898e" target="_top" xlink:title="Split the work between MPI nodes and evaluate the global constraint.">
<polygon fill="white" stroke="black" points="631,-155.44 631,-174.44 677,-174.44 677,-155.44 631,-155.44"/>
<text text-anchor="middle" x="654" y="-162.44" font-family="Helvetica,sans-Serif" font-size="10.00">dfp100</text>
</a>
</g>
</g>
<!-- Node24&#45;&gt;Node25 -->
<g id="edge41" class="edge">
<title>Node24&#45;&gt;Node25</title>
<path fill="none" stroke="midnightblue" d="M734.72,-164.94C716.02,-164.94 693.52,-164.94 677.2,-164.94"/>
<polygon fill="midnightblue" stroke="midnightblue" points="734.94,-168.44 744.94,-164.94 734.94,-161.44 734.94,-168.44"/>
</g>
<!-- Node25&#45;&gt;Node4 -->
<g id="edge42" class="edge">
<title>Node25&#45;&gt;Node4</title>
<path fill="none" stroke="midnightblue" d="M620.46,-164.94C603.86,-164.94 584.15,-164.94 569.56,-164.94"/>
<polygon fill="midnightblue" stroke="midnightblue" points="620.84,-168.44 630.84,-164.94 620.84,-161.44 620.84,-168.44"/>
</g>
<!-- Node25&#45;&gt;Node20 -->
<g id="edge43" class="edge">
<title>Node25&#45;&gt;Node20</title>
<path fill="none" stroke="midnightblue" d="M621.04,-176.56C606.19,-181.96 588.75,-188.3 574.69,-193.42"/>
<polygon fill="midnightblue" stroke="midnightblue" points="622.64,-179.71 630.84,-173 620.24,-173.13 622.64,-179.71"/>
</g>
</g>
</svg>
