<?xml version="1.0" encoding="UTF-8" standalone="no"?>
<!DOCTYPE svg PUBLIC "-//W3C//DTD SVG 1.1//EN"
 "http://www.w3.org/Graphics/SVG/1.1/DTD/svg11.dtd">
<!-- Generated by graphviz version 2.47.1 (20210421.1823)
 -->
<!-- Title: tr00ab Pages: 1 -->
<svg width="1148pt" height="327pt"
 viewBox="0.00 0.00 1148.00 327.00" xmlns="http://www.w3.org/2000/svg" xmlns:xlink="http://www.w3.org/1999/xlink">
<g id="graph0" class="graph" transform="scale(1 1) rotate(0) translate(4 323)">
<title>tr00ab</title>
<polygon fill="white" stroke="transparent" points="-4,4 -4,-323 1144,-323 1144,4 -4,4"/>
<!-- Node1 -->
<g id="node1" class="node">
<title>Node1</title>
<g id="a_node1"><a xlink:title="Calculates rotational transform given an arbitrary tangential field.">
<polygon fill="#bfbfbf" stroke="black" points="1096,-196.5 1096,-215.5 1140,-215.5 1140,-196.5 1096,-196.5"/>
<text text-anchor="middle" x="1118" y="-203.5" font-family="Helvetica,sans-Serif" font-size="10.00">tr00ab</text>
</a>
</g>
</g>
<!-- Node2 -->
<g id="node2" class="node">
<title>Node2</title>
<g id="a_node2"><a xlink:href="dfp200_8f90.html#a73ddf39ecc5228201fb643779e17cd36" target="_top" xlink:title="Evaluate mu and psip derivatives and store them in dmupfdx.">
<polygon fill="white" stroke="black" points="709,-215.5 709,-234.5 804,-234.5 804,-215.5 709,-215.5"/>
<text text-anchor="middle" x="756.5" y="-222.5" font-family="Helvetica,sans-Serif" font-size="10.00">evaluate_dmupfdx</text>
</a>
</g>
</g>
<!-- Node1&#45;&gt;Node2 -->
<g id="edge1" class="edge">
<title>Node1&#45;&gt;Node2</title>
<path fill="none" stroke="midnightblue" d="M1085.69,-207.65C1022.32,-211 878.59,-218.6 804.14,-222.53"/>
<polygon fill="midnightblue" stroke="midnightblue" points="1086.05,-211.14 1095.85,-207.12 1085.68,-204.15 1086.05,-211.14"/>
</g>
<!-- Node19 -->
<g id="node19" class="node">
<title>Node19</title>
<g id="a_node19"><a xlink:href="group__grp__solver.html#ga6626839aff500f060beb5bce2b90c447" target="_top" xlink:title="Solves Beltrami/vacuum (linear) system, given matrices.unpacking fluxes, helicity multiplier">
<polygon fill="white" stroke="black" points="1009,-177.5 1009,-196.5 1060,-196.5 1060,-177.5 1009,-177.5"/>
<text text-anchor="middle" x="1034.5" y="-184.5" font-family="Helvetica,sans-Serif" font-size="10.00">mp00ac</text>
</a>
</g>
</g>
<!-- Node1&#45;&gt;Node19 -->
<g id="edge33" class="edge">
<title>Node1&#45;&gt;Node19</title>
<path fill="none" stroke="midnightblue" d="M1085.69,-198.7C1077.26,-196.73 1068.25,-194.64 1060.23,-192.77"/>
<polygon fill="midnightblue" stroke="midnightblue" points="1085.05,-202.15 1095.59,-201.01 1086.64,-195.33 1085.05,-202.15"/>
</g>
<!-- Node3 -->
<g id="node3" class="node">
<title>Node3</title>
<g id="a_node3"><a xlink:href="dfp200_8f90.html#a55ea75395f8c71731451e1add3720c7e" target="_top" xlink:title="Given the field consistent with the constraints and the geometry, computes local quantites related to...">
<polygon fill="white" stroke="black" points="627,-215.5 627,-234.5 673,-234.5 673,-215.5 627,-215.5"/>
<text text-anchor="middle" x="650" y="-222.5" font-family="Helvetica,sans-Serif" font-size="10.00">dfp200</text>
</a>
</g>
</g>
<!-- Node2&#45;&gt;Node3 -->
<g id="edge2" class="edge">
<title>Node2&#45;&gt;Node3</title>
<path fill="none" stroke="midnightblue" d="M698.55,-218.27C689.54,-218.37 680.71,-218.73 673.16,-219.36"/>
<polygon fill="midnightblue" stroke="midnightblue" points="698.75,-221.77 708.75,-218.28 698.75,-214.77 698.75,-221.77"/>
</g>
<!-- Node3&#45;&gt;Node2 -->
<g id="edge29" class="edge">
<title>Node3&#45;&gt;Node2</title>
<path fill="none" stroke="midnightblue" d="M683.25,-231.29C691.32,-231.68 700.14,-231.82 708.75,-231.72"/>
<polygon fill="midnightblue" stroke="midnightblue" points="683.36,-227.79 673.16,-230.64 682.91,-234.78 683.36,-227.79"/>
</g>
<!-- Node4 -->
<g id="node4" class="node">
<title>Node4</title>
<g id="a_node4"><a xlink:href="group__grp__global__force.html#ga38c9d3c50bd043707fefa5137c9dbf44" target="_top" xlink:title="Calculates , where &#160;and , and .">
<polygon fill="white" stroke="black" points="511.5,-156.5 511.5,-175.5 555.5,-175.5 555.5,-156.5 511.5,-156.5"/>
<text text-anchor="middle" x="533.5" y="-163.5" font-family="Helvetica,sans-Serif" font-size="10.00">dforce</text>
</a>
</g>
</g>
<!-- Node3&#45;&gt;Node4 -->
<g id="edge3" class="edge">
<title>Node3&#45;&gt;Node4</title>
<path fill="none" stroke="midnightblue" d="M621.22,-210.69C600.09,-199.8 571.6,-185.12 553.14,-175.61"/>
<polygon fill="midnightblue" stroke="midnightblue" points="619.86,-213.92 630.35,-215.39 623.06,-207.7 619.86,-213.92"/>
</g>
<!-- Node13 -->
<g id="node13" class="node">
<title>Node13</title>
<g id="a_node13"><a xlink:href="dfp200_8f90.html#a6aca59cf350d7b1941f8389d50945a43" target="_top" xlink:title="get LU Beltrami matrices">
<polygon fill="white" stroke="black" points="315,-266.5 315,-285.5 440,-285.5 440,-266.5 315,-266.5"/>
<text text-anchor="middle" x="377.5" y="-273.5" font-family="Helvetica,sans-Serif" font-size="10.00">get_lu_beltrami_matrices</text>
</a>
</g>
</g>
<!-- Node3&#45;&gt;Node13 -->
<g id="edge30" class="edge">
<title>Node3&#45;&gt;Node13</title>
<path fill="none" stroke="midnightblue" d="M616.91,-226.5C563.48,-233.56 457.15,-253.69 406.53,-266.4"/>
<polygon fill="midnightblue" stroke="midnightblue" points="617.37,-229.97 626.86,-225.26 616.51,-223.02 617.37,-229.97"/>
</g>
<!-- Node17 -->
<g id="node17" class="node">
<title>Node17</title>
<g id="a_node17"><a xlink:href="dfp200_8f90.html#a7b64c7392b45d0042d8bd7379c0761a5" target="_top" xlink:title="Evaluate the derivative of the square of the magnetic field modulus. Add spectral constraint derivati...">
<polygon fill="white" stroke="black" points="496.5,-205.5 496.5,-224.5 570.5,-224.5 570.5,-205.5 496.5,-205.5"/>
<text text-anchor="middle" x="533.5" y="-212.5" font-family="Helvetica,sans-Serif" font-size="10.00">evaluate_dbb</text>
</a>
</g>
</g>
<!-- Node3&#45;&gt;Node17 -->
<g id="edge27" class="edge">
<title>Node3&#45;&gt;Node17</title>
<path fill="none" stroke="midnightblue" d="M617.03,-216.08C602.7,-214.08 585.74,-212.52 570.93,-211.84"/>
<polygon fill="midnightblue" stroke="midnightblue" points="616.51,-219.54 626.92,-217.61 617.58,-212.62 616.51,-219.54"/>
</g>
<!-- Node18 -->
<g id="node18" class="node">
<title>Node18</title>
<g id="a_node18"><a xlink:href="dfp200_8f90.html#a5e56f1f4b1e6df11a9cffa6237c37469" target="_top" xlink:title="This routine evaluates the value of the magnetic field once the interface is perturbed using matrix p...">
<polygon fill="white" stroke="black" points="476,-299.5 476,-318.5 591,-318.5 591,-299.5 476,-299.5"/>
<text text-anchor="middle" x="533.5" y="-306.5" font-family="Helvetica,sans-Serif" font-size="10.00">get_perturbed_solution</text>
</a>
</g>
</g>
<!-- Node3&#45;&gt;Node18 -->
<g id="edge31" class="edge">
<title>Node3&#45;&gt;Node18</title>
<path fill="none" stroke="midnightblue" d="M628.76,-242.09C618.4,-252.93 605.03,-266.36 591,-276 576.42,-286.02 556.99,-293.14 545.13,-299.36"/>
<polygon fill="midnightblue" stroke="midnightblue" points="631.38,-244.41 635.73,-234.75 626.31,-239.59 631.38,-244.41"/>
</g>
<!-- Node5 -->
<g id="node5" class="node">
<title>Node5</title>
<g id="a_node5"><a xlink:href="namespaceallglobal.html#a7824bc37519fe88336534ce90ab2af16" target="_top" xlink:title=" ">
<polygon fill="white" stroke="black" points="320.5,-190.5 320.5,-209.5 434.5,-209.5 434.5,-190.5 320.5,-190.5"/>
<text text-anchor="middle" x="377.5" y="-197.5" font-family="Helvetica,sans-Serif" font-size="10.00">allglobal::check_inputs</text>
</a>
</g>
</g>
<!-- Node4&#45;&gt;Node5 -->
<g id="edge4" class="edge">
<title>Node4&#45;&gt;Node5</title>
<path fill="none" stroke="midnightblue" d="M501.54,-172.83C478.64,-177.89 447.14,-184.85 421.74,-190.45"/>
<polygon fill="midnightblue" stroke="midnightblue" points="502.4,-176.23 511.41,-170.66 500.89,-169.39 502.4,-176.23"/>
</g>
<!-- Node7 -->
<g id="node7" class="node">
<title>Node7</title>
<g id="a_node7"><a xlink:href="xspech_8f90.html#a48f45478dc2c9f70ea8aa1c60ad06503" target="_top" xlink:title=" ">
<polygon fill="white" stroke="black" points="143.5,-190.5 143.5,-209.5 181.5,-209.5 181.5,-190.5 143.5,-190.5"/>
<text text-anchor="middle" x="162.5" y="-197.5" font-family="Helvetica,sans-Serif" font-size="10.00">spec</text>
</a>
</g>
</g>
<!-- Node4&#45;&gt;Node7 -->
<g id="edge26" class="edge">
<title>Node4&#45;&gt;Node7</title>
<path fill="none" stroke="midnightblue" d="M504.38,-180.36C495.24,-185.18 485.11,-190.68 476,-196 459.6,-205.57 458.22,-213.68 440,-219 350.84,-245.05 323.02,-231.7 231,-219 213.88,-216.64 194.98,-211.05 181.55,-206.54"/>
<polygon fill="midnightblue" stroke="midnightblue" points="506.21,-183.35 513.46,-175.63 502.97,-177.15 506.21,-183.35"/>
</g>
<!-- Node9 -->
<g id="node9" class="node">
<title>Node9</title>
<g id="a_node9"><a xlink:href="group__grp__force__driver.html#gabbc245b3884ee8d8d3e2a52f25149f78" target="_top" xlink:title="fcn1">
<polygon fill="white" stroke="black" points="360,-76.5 360,-95.5 395,-95.5 395,-76.5 360,-76.5"/>
<text text-anchor="middle" x="377.5" y="-83.5" font-family="Helvetica,sans-Serif" font-size="10.00">fcn1</text>
</a>
</g>
</g>
<!-- Node4&#45;&gt;Node9 -->
<g id="edge9" class="edge">
<title>Node4&#45;&gt;Node9</title>
<path fill="none" stroke="midnightblue" d="M509.99,-150.86C491.63,-138.89 464.77,-122.22 440,-110 425.2,-102.7 407.59,-96.02 395.02,-91.57"/>
<polygon fill="midnightblue" stroke="midnightblue" points="508.24,-153.9 518.51,-156.48 512.09,-148.06 508.24,-153.9"/>
</g>
<!-- Node10 -->
<g id="node10" class="node">
<title>Node10</title>
<g id="a_node10"><a xlink:href="group__grp__force__driver.html#gaec14f81fbdbedafbc4189489ec8ae178" target="_top" xlink:title="Employs Newton method to find , where &#160;and &#160;is defined in dforce() .">
<polygon fill="white" stroke="black" points="231,-95.5 231,-114.5 279,-114.5 279,-95.5 231,-95.5"/>
<text text-anchor="middle" x="255" y="-102.5" font-family="Helvetica,sans-Serif" font-size="10.00">newton</text>
</a>
</g>
</g>
<!-- Node4&#45;&gt;Node10 -->
<g id="edge23" class="edge">
<title>Node4&#45;&gt;Node10</title>
<path fill="none" stroke="midnightblue" d="M501.21,-159.1C445.16,-146.73 328.86,-121.07 279.24,-110.13"/>
<polygon fill="midnightblue" stroke="midnightblue" points="500.74,-162.58 511.26,-161.31 502.25,-155.74 500.74,-162.58"/>
</g>
<!-- Node11 -->
<g id="node11" class="node">
<title>Node11</title>
<g id="a_node11"><a xlink:href="group__grp__force__driver.html#ga8ccd6c7d901872702521d0a0edf95412" target="_top" xlink:title="fcn2">
<polygon fill="white" stroke="black" points="29.5,-100.5 29.5,-119.5 64.5,-119.5 64.5,-100.5 29.5,-100.5"/>
<text text-anchor="middle" x="47" y="-107.5" font-family="Helvetica,sans-Serif" font-size="10.00">fcn2</text>
</a>
</g>
</g>
<!-- Node4&#45;&gt;Node11 -->
<g id="edge18" class="edge">
<title>Node4&#45;&gt;Node11</title>
<path fill="none" stroke="midnightblue" d="M521.89,-147.42C507.09,-123.59 477.74,-83.39 440,-67 313.62,-12.12 263.78,-34.05 130,-67 103.93,-73.42 76.98,-89.76 61.39,-100.35"/>
<polygon fill="midnightblue" stroke="midnightblue" points="519.03,-149.45 527.17,-156.23 525.04,-145.86 519.03,-149.45"/>
</g>
<!-- Node4&#45;&gt;Node13 -->
<g id="edge19" class="edge">
<title>Node4&#45;&gt;Node13</title>
<path fill="none" stroke="midnightblue" d="M502.13,-178.53C493.09,-183.16 483.58,-189.02 476,-196 454.23,-216.03 462.9,-233.26 440,-252 432.46,-258.17 423.15,-262.89 414.07,-266.44"/>
<polygon fill="midnightblue" stroke="midnightblue" points="503.78,-181.62 511.28,-174.14 500.75,-175.31 503.78,-181.62"/>
</g>
<!-- Node14 -->
<g id="node14" class="node">
<title>Node14</title>
<g id="a_node14"><a xlink:href="group__grp__diagnostics.html#ga7401b50ec10c6598ee4a8112717a63ec" target="_top" xlink:title="Computes eigenvalues and eigenvectors of derivative matrix, .">
<polygon fill="white" stroke="black" points="232.5,-152.5 232.5,-171.5 277.5,-171.5 277.5,-152.5 232.5,-152.5"/>
<text text-anchor="middle" x="255" y="-159.5" font-family="Helvetica,sans-Serif" font-size="10.00">hesian</text>
</a>
</g>
</g>
<!-- Node4&#45;&gt;Node14 -->
<g id="edge21" class="edge">
<title>Node4&#45;&gt;Node14</title>
<path fill="none" stroke="midnightblue" d="M501.1,-165.55C444.42,-164.73 326.36,-163.02 277.69,-162.31"/>
<polygon fill="midnightblue" stroke="midnightblue" points="501.21,-169.05 511.26,-165.69 501.31,-162.05 501.21,-169.05"/>
</g>
<!-- Node15 -->
<g id="node15" class="node">
<title>Node15</title>
<g id="a_node15"><a xlink:href="group__grp__conjugate__gradient.html#ga4d8415226e62a9fdb42b0fd0b464251e" target="_top" xlink:title="Returns the energy functional and it&#39;s derivatives with respect to geometry.">
<polygon fill="white" stroke="black" points="353.5,-0.5 353.5,-19.5 401.5,-19.5 401.5,-0.5 353.5,-0.5"/>
<text text-anchor="middle" x="377.5" y="-7.5" font-family="Helvetica,sans-Serif" font-size="10.00">pc00ab</text>
</a>
</g>
</g>
<!-- Node4&#45;&gt;Node15 -->
<g id="edge24" class="edge">
<title>Node4&#45;&gt;Node15</title>
<path fill="none" stroke="midnightblue" d="M523.75,-147.03C509.8,-118.72 479.98,-65.41 440,-34 428.82,-25.22 414.05,-19.32 401.78,-15.56"/>
<polygon fill="midnightblue" stroke="midnightblue" points="520.68,-148.73 528.16,-156.24 527,-145.71 520.68,-148.73"/>
</g>
<!-- Node6 -->
<g id="node6" class="node">
<title>Node6</title>
<g id="a_node6"><a xlink:href="xspech_8f90.html#aea782eae089760a491c2c54f9903abcc" target="_top" xlink:title="Main program of SPEC.">
<polygon fill="white" stroke="black" points="231.5,-190.5 231.5,-209.5 278.5,-209.5 278.5,-190.5 231.5,-190.5"/>
<text text-anchor="middle" x="255" y="-197.5" font-family="Helvetica,sans-Serif" font-size="10.00">xspech</text>
</a>
</g>
</g>
<!-- Node5&#45;&gt;Node6 -->
<g id="edge5" class="edge">
<title>Node5&#45;&gt;Node6</title>
<path fill="none" stroke="midnightblue" d="M310.45,-200C299.06,-200 287.95,-200 278.77,-200"/>
<polygon fill="midnightblue" stroke="midnightblue" points="310.48,-203.5 320.48,-200 310.48,-196.5 310.48,-203.5"/>
</g>
<!-- Node6&#45;&gt;Node7 -->
<g id="edge6" class="edge">
<title>Node6&#45;&gt;Node7</title>
<path fill="none" stroke="midnightblue" d="M220.97,-193.47C207.75,-192.98 193.01,-193.31 181.77,-194.46"/>
<polygon fill="midnightblue" stroke="midnightblue" points="220.98,-196.98 231.16,-194.05 221.38,-189.99 220.98,-196.98"/>
</g>
<!-- Node7&#45;&gt;Node6 -->
<g id="edge8" class="edge">
<title>Node7&#45;&gt;Node6</title>
<path fill="none" stroke="midnightblue" d="M191.82,-206.31C204.48,-207 219.22,-206.88 231.16,-205.95"/>
<polygon fill="midnightblue" stroke="midnightblue" points="192.01,-202.82 181.77,-205.54 191.48,-209.8 192.01,-202.82"/>
</g>
<!-- Node8 -->
<g id="node8" class="node">
<title>Node8</title>
<g id="a_node8"><a xlink:href="sphdf5_8f90.html#a0f962c09cd5d5eba99f1cba043cb3898" target="_top" xlink:title="initialize the interface to the HDF5 library and open the output file">
<polygon fill="white" stroke="black" points="0,-190.5 0,-209.5 94,-209.5 94,-190.5 0,-190.5"/>
<text text-anchor="middle" x="47" y="-197.5" font-family="Helvetica,sans-Serif" font-size="10.00">sphdf5::init_outfile</text>
</a>
</g>
</g>
<!-- Node7&#45;&gt;Node8 -->
<g id="edge7" class="edge">
<title>Node7&#45;&gt;Node8</title>
<path fill="none" stroke="midnightblue" d="M133.13,-200C121.33,-200 107.32,-200 94.11,-200"/>
<polygon fill="midnightblue" stroke="midnightblue" points="133.26,-203.5 143.26,-200 133.26,-196.5 133.26,-203.5"/>
</g>
<!-- Node9&#45;&gt;Node10 -->
<g id="edge10" class="edge">
<title>Node9&#45;&gt;Node10</title>
<path fill="none" stroke="midnightblue" d="M349.51,-84.52C328.38,-86.41 299.31,-91.09 279.22,-95.88"/>
<polygon fill="midnightblue" stroke="midnightblue" points="350.02,-87.99 359.74,-83.8 349.52,-81.01 350.02,-87.99"/>
</g>
<!-- Node10&#45;&gt;Node7 -->
<g id="edge14" class="edge">
<title>Node10&#45;&gt;Node7</title>
<path fill="none" stroke="midnightblue" d="M237.52,-122.3C218.49,-142.28 187.86,-174.43 172.66,-190.39"/>
<polygon fill="midnightblue" stroke="midnightblue" points="240.29,-124.46 244.66,-114.81 235.22,-119.64 240.29,-124.46"/>
</g>
<!-- Node10&#45;&gt;Node9 -->
<g id="edge11" class="edge">
<title>Node10&#45;&gt;Node9</title>
<path fill="none" stroke="midnightblue" d="M289.21,-105.87C312.11,-103.43 341.58,-98.36 359.74,-93.49"/>
<polygon fill="midnightblue" stroke="midnightblue" points="288.85,-102.39 279.22,-106.8 289.5,-109.36 288.85,-102.39"/>
</g>
<!-- Node10&#45;&gt;Node11 -->
<g id="edge12" class="edge">
<title>Node10&#45;&gt;Node11</title>
<path fill="none" stroke="midnightblue" d="M220.71,-100.68C176.07,-99.25 98.52,-101.54 64.64,-105.71"/>
<polygon fill="midnightblue" stroke="midnightblue" points="220.63,-104.18 230.77,-101.1 220.92,-97.19 220.63,-104.18"/>
</g>
<!-- Node12 -->
<g id="node12" class="node">
<title>Node12</title>
<g id="a_node12"><a xlink:href="group__grp__force__driver.html#ga382822b303cbf8c56d6f54dcb379caf2" target="_top" xlink:title="read or write force&#45;derivative matrix">
<polygon fill="white" stroke="black" points="130,-76.5 130,-95.5 195,-95.5 195,-76.5 130,-76.5"/>
<text text-anchor="middle" x="162.5" y="-83.5" font-family="Helvetica,sans-Serif" font-size="10.00">writereadgf</text>
</a>
</g>
</g>
<!-- Node10&#45;&gt;Node12 -->
<g id="edge15" class="edge">
<title>Node10&#45;&gt;Node12</title>
<path fill="none" stroke="midnightblue" d="M225.35,-92.66C215.71,-90.12 204.91,-87.81 195.06,-86.16"/>
<polygon fill="midnightblue" stroke="midnightblue" points="224.67,-96.1 235.25,-95.47 226.59,-89.37 224.67,-96.1"/>
</g>
<!-- Node11&#45;&gt;Node10 -->
<g id="edge13" class="edge">
<title>Node11&#45;&gt;Node10</title>
<path fill="none" stroke="midnightblue" d="M74.89,-114.08C115.62,-115.87 192.31,-113.92 230.77,-110.03"/>
<polygon fill="midnightblue" stroke="midnightblue" points="74.83,-110.57 64.64,-113.49 74.43,-117.56 74.83,-110.57"/>
</g>
<!-- Node12&#45;&gt;Node10 -->
<g id="edge17" class="edge">
<title>Node12&#45;&gt;Node10</title>
<path fill="none" stroke="midnightblue" d="M192.06,-98.32C204.51,-101.6 218.91,-104.51 230.69,-106.1"/>
<polygon fill="midnightblue" stroke="midnightblue" points="192.75,-94.88 182.17,-95.5 190.83,-101.61 192.75,-94.88"/>
</g>
<!-- Node12&#45;&gt;Node11 -->
<g id="edge16" class="edge">
<title>Node12&#45;&gt;Node11</title>
<path fill="none" stroke="midnightblue" d="M119.88,-94.8C100.78,-98.84 79.22,-103.4 64.73,-106.46"/>
<polygon fill="midnightblue" stroke="midnightblue" points="120.82,-98.18 129.88,-92.69 119.38,-91.33 120.82,-98.18"/>
</g>
<!-- Node13&#45;&gt;Node3 -->
<g id="edge20" class="edge">
<title>Node13&#45;&gt;Node3</title>
<path fill="none" stroke="midnightblue" d="M450.05,-268.55C508.93,-258.87 588.69,-243.12 626.86,-233.09"/>
<polygon fill="midnightblue" stroke="midnightblue" points="449.36,-265.11 440.05,-270.16 450.48,-272.02 449.36,-265.11"/>
</g>
<!-- Node14&#45;&gt;Node7 -->
<g id="edge22" class="edge">
<title>Node14&#45;&gt;Node7</title>
<path fill="none" stroke="midnightblue" d="M222.53,-175.22C208.83,-180.97 193.26,-187.5 181.56,-192.42"/>
<polygon fill="midnightblue" stroke="midnightblue" points="224.23,-178.3 232.09,-171.2 221.52,-171.84 224.23,-178.3"/>
</g>
<!-- Node16 -->
<g id="node16" class="node">
<title>Node16</title>
<g id="a_node16"><a xlink:href="group__grp__conjugate__gradient.html#ga25a3bae2ff2ee0469b045de0d033398b" target="_top" xlink:title="Use preconditioned conjugate gradient method to find minimum of energy functional.">
<polygon fill="white" stroke="black" points="231,-0.5 231,-19.5 279,-19.5 279,-0.5 231,-0.5"/>
<text text-anchor="middle" x="255" y="-7.5" font-family="Helvetica,sans-Serif" font-size="10.00">pc00aa</text>
</a>
</g>
</g>
<!-- Node15&#45;&gt;Node16 -->
<g id="edge25" class="edge">
<title>Node15&#45;&gt;Node16</title>
<path fill="none" stroke="midnightblue" d="M343.16,-10C322.81,-10 297.31,-10 279.16,-10"/>
<polygon fill="midnightblue" stroke="midnightblue" points="343.27,-13.5 353.27,-10 343.27,-6.5 343.27,-13.5"/>
</g>
<!-- Node17&#45;&gt;Node3 -->
<g id="edge28" class="edge">
<title>Node17&#45;&gt;Node3</title>
<path fill="none" stroke="midnightblue" d="M581.12,-225.72C596.95,-227.41 613.92,-228.5 626.92,-228.53"/>
<polygon fill="midnightblue" stroke="midnightblue" points="581.27,-222.21 570.93,-224.52 580.45,-229.16 581.27,-222.21"/>
</g>
<!-- Node18&#45;&gt;Node3 -->
<g id="edge32" class="edge">
<title>Node18&#45;&gt;Node3</title>
<path fill="none" stroke="midnightblue" d="M590.74,-294.18C590.82,-294.12 590.91,-294.06 591,-294 614.88,-277.59 636.85,-250.2 645.32,-234.71"/>
<polygon fill="midnightblue" stroke="midnightblue" points="588.82,-291.25 582.12,-299.45 592.47,-297.22 588.82,-291.25"/>
</g>
<!-- Node20 -->
<g id="node20" class="node">
<title>Node20</title>
<g id="a_node20"><a xlink:href="group__grp__solver__driver.html#gacad623d4c5c006e9ad10116372f92ad3" target="_top" xlink:title="Constructs Beltrami field in given volume consistent with flux, helicity, rotational&#45;transform and/or...">
<polygon fill="white" stroke="black" points="922,-177.5 922,-196.5 973,-196.5 973,-177.5 922,-177.5"/>
<text text-anchor="middle" x="947.5" y="-184.5" font-family="Helvetica,sans-Serif" font-size="10.00">ma02aa</text>
</a>
</g>
</g>
<!-- Node19&#45;&gt;Node20 -->
<g id="edge34" class="edge">
<title>Node19&#45;&gt;Node20</title>
<path fill="none" stroke="midnightblue" d="M998.72,-187C990.1,-187 981.04,-187 973.03,-187"/>
<polygon fill="midnightblue" stroke="midnightblue" points="998.91,-190.5 1008.91,-187 998.91,-183.5 998.91,-190.5"/>
</g>
<!-- Node21 -->
<g id="node21" class="node">
<title>Node21</title>
<g id="a_node21"><a xlink:href="dfp100_8f90.html#a17a3ac15cc83994394f7b4cc05e5898e" target="_top" xlink:title="Split the work between MPI nodes and evaluate the global constraint.">
<polygon fill="white" stroke="black" points="840,-177.5 840,-196.5 886,-196.5 886,-177.5 840,-177.5"/>
<text text-anchor="middle" x="863" y="-184.5" font-family="Helvetica,sans-Serif" font-size="10.00">dfp100</text>
</a>
</g>
</g>
<!-- Node20&#45;&gt;Node21 -->
<g id="edge35" class="edge">
<title>Node20&#45;&gt;Node21</title>
<path fill="none" stroke="midnightblue" d="M911.56,-187C902.97,-187 894.01,-187 886.21,-187"/>
<polygon fill="midnightblue" stroke="midnightblue" points="911.75,-190.5 921.75,-187 911.75,-183.5 911.75,-190.5"/>
</g>
<!-- Node21&#45;&gt;Node2 -->
<g id="edge37" class="edge">
<title>Node21&#45;&gt;Node2</title>
<path fill="none" stroke="midnightblue" d="M830.04,-198.62C815.19,-204.02 797.75,-210.36 783.69,-215.48"/>
<polygon fill="midnightblue" stroke="midnightblue" points="831.64,-201.77 839.84,-195.06 829.24,-195.19 831.64,-201.77"/>
</g>
<!-- Node21&#45;&gt;Node4 -->
<g id="edge36" class="edge">
<title>Node21&#45;&gt;Node4</title>
<path fill="none" stroke="midnightblue" d="M829.38,-184.91C762.42,-180.61 611.1,-170.91 555.5,-167.35"/>
<polygon fill="midnightblue" stroke="midnightblue" points="829.54,-188.43 839.75,-185.57 829.99,-181.44 829.54,-188.43"/>
</g>
</g>
</svg>
