<?xml version="1.0" encoding="UTF-8" standalone="no"?>
<!DOCTYPE svg PUBLIC "-//W3C//DTD SVG 1.1//EN"
 "http://www.w3.org/Graphics/SVG/1.1/DTD/svg11.dtd">
<!-- Generated by graphviz version 2.44.1 (0)
 -->
<!-- Title: wa00aa Pages: 1 -->
<svg width="170pt" height="28pt"
 viewBox="0.00 0.00 170.00 28.00" xmlns="http://www.w3.org/2000/svg" xmlns:xlink="http://www.w3.org/1999/xlink">
<g id="graph0" class="graph" transform="scale(1 1) rotate(0) translate(4 24)">
<title>wa00aa</title>
<polygon fill="white" stroke="transparent" points="-4,4 -4,-24 166,-24 166,4 -4,4"/>
<!-- Node1 -->
<g id="node1" class="node">
<title>Node1</title>
<g id="a_node1"><a xlink:title="Constructs smooth approximation to wall.">
<polygon fill="#bfbfbf" stroke="black" points="107,-0.5 107,-19.5 162,-19.5 162,-0.5 107,-0.5"/>
<text text-anchor="middle" x="134.5" y="-7.5" font-family="Helvetica,sans-Serif" font-size="10.00">wa00aa</text>
</a>
</g>
</g>
<!-- Node2 -->
<g id="node2" class="node">
<title>Node2</title>
<g id="a_node2"><a xlink:href="group__grp__smooth__boundary.html#gaea7690bb953a85a409946f2c6ad6a640" target="_top" xlink:title="Compute vacuum magnetic scalar potential (?)">
<polygon fill="white" stroke="black" points="0,-0.5 0,-19.5 71,-19.5 71,-0.5 0,-0.5"/>
<text text-anchor="middle" x="35.5" y="-7.5" font-family="Helvetica,sans-Serif" font-size="10.00">vacuumphi</text>
</a>
</g>
</g>
<!-- Node1&#45;&gt;Node2 -->
<g id="edge1" class="edge">
<title>Node1&#45;&gt;Node2</title>
<path fill="none" stroke="midnightblue" d="M96.78,-3.43C88.44,-3.17 79.61,-3.19 71.35,-3.49"/>
<polygon fill="midnightblue" stroke="midnightblue" points="96.84,-6.94 106.99,-3.91 97.17,0.06 96.84,-6.94"/>
</g>
<!-- Node2&#45;&gt;Node1 -->
<g id="edge2" class="edge">
<title>Node2&#45;&gt;Node1</title>
<path fill="none" stroke="midnightblue" d="M81.46,-16.73C90.2,-16.81 99.09,-16.6 106.99,-16.09"/>
<polygon fill="midnightblue" stroke="midnightblue" points="81.42,-13.23 71.35,-16.51 81.27,-20.23 81.42,-13.23"/>
</g>
</g>
</svg>
