<?xml version="1.0" encoding="UTF-8" standalone="no"?>
<!DOCTYPE svg PUBLIC "-//W3C//DTD SVG 1.1//EN"
 "http://www.w3.org/Graphics/SVG/1.1/DTD/svg11.dtd">
<!-- Generated by graphviz version 2.47.1 (20210421.1823)
 -->
<!-- Title: writereadgf Pages: 1 -->
<svg width="432pt" height="90pt"
 viewBox="0.00 0.00 432.00 90.00" xmlns="http://www.w3.org/2000/svg" xmlns:xlink="http://www.w3.org/1999/xlink">
<g id="graph0" class="graph" transform="scale(1 1) rotate(0) translate(4 86)">
<title>writereadgf</title>
<polygon fill="white" stroke="transparent" points="-4,4 -4,-86 428,-86 428,4 -4,4"/>
<!-- Node1 -->
<g id="node1" class="node">
<title>Node1</title>
<g id="a_node1"><a xlink:title="read or write force&#45;derivative matrix">
<polygon fill="#bfbfbf" stroke="black" points="359,-15.5 359,-34.5 424,-34.5 424,-15.5 359,-15.5"/>
<text text-anchor="middle" x="391.5" y="-22.5" font-family="Helvetica,sans-Serif" font-size="10.00">writereadgf</text>
</a>
</g>
</g>
<!-- Node2 -->
<g id="node2" class="node">
<title>Node2</title>
<g id="a_node2"><a xlink:href="group__grp__force__driver.html#ga8ccd6c7d901872702521d0a0edf95412" target="_top" xlink:title="fcn2">
<polygon fill="white" stroke="black" points="288,-62.5 288,-81.5 323,-81.5 323,-62.5 288,-62.5"/>
<text text-anchor="middle" x="305.5" y="-69.5" font-family="Helvetica,sans-Serif" font-size="10.00">fcn2</text>
</a>
</g>
</g>
<!-- Node1&#45;&gt;Node2 -->
<g id="edge1" class="edge">
<title>Node1&#45;&gt;Node2</title>
<path fill="none" stroke="midnightblue" d="M364.66,-39.46C351.16,-47.01 335.03,-56.04 323.19,-62.66"/>
<polygon fill="midnightblue" stroke="midnightblue" points="366.48,-42.45 373.5,-34.51 363.07,-36.34 366.48,-42.45"/>
</g>
<!-- Node3 -->
<g id="node3" class="node">
<title>Node3</title>
<g id="a_node3"><a xlink:href="group__grp__force__driver.html#gaec14f81fbdbedafbc4189489ec8ae178" target="_top" xlink:title="Employs Newton method to find , where &#160;and &#160;is defined in dforce() .">
<polygon fill="white" stroke="black" points="204,-38.5 204,-57.5 252,-57.5 252,-38.5 204,-38.5"/>
<text text-anchor="middle" x="228" y="-45.5" font-family="Helvetica,sans-Serif" font-size="10.00">newton</text>
</a>
</g>
</g>
<!-- Node1&#45;&gt;Node3 -->
<g id="edge11" class="edge">
<title>Node1&#45;&gt;Node3</title>
<path fill="none" stroke="midnightblue" d="M348.95,-24.93C318.15,-28.02 277.29,-34.2 252.09,-39.82"/>
<polygon fill="midnightblue" stroke="midnightblue" points="349.34,-28.41 358.98,-24.01 348.7,-21.44 349.34,-28.41"/>
</g>
<!-- Node2&#45;&gt;Node3 -->
<g id="edge2" class="edge">
<title>Node2&#45;&gt;Node3</title>
<path fill="none" stroke="midnightblue" d="M281.58,-58.45C272.26,-54.85 261.5,-51.42 252.16,-49.08"/>
<polygon fill="midnightblue" stroke="midnightblue" points="280.43,-61.76 291,-62.39 283.13,-55.3 280.43,-61.76"/>
</g>
<!-- Node3&#45;&gt;Node1 -->
<g id="edge10" class="edge">
<title>Node3&#45;&gt;Node1</title>
<path fill="none" stroke="midnightblue" d="M262.38,-48.83C291.53,-46.31 333.4,-40.26 361.25,-34.51"/>
<polygon fill="midnightblue" stroke="midnightblue" points="261.98,-45.35 252.27,-49.6 262.51,-52.33 261.98,-45.35"/>
</g>
<!-- Node3&#45;&gt;Node2 -->
<g id="edge5" class="edge">
<title>Node3&#45;&gt;Node2</title>
<path fill="none" stroke="midnightblue" d="M252.11,-61.62C263.61,-66.06 277.26,-70.21 287.74,-72.39"/>
<polygon fill="midnightblue" stroke="midnightblue" points="253.26,-58.31 242.68,-57.69 250.57,-64.77 253.26,-58.31"/>
</g>
<!-- Node4 -->
<g id="node4" class="node">
<title>Node4</title>
<g id="a_node4"><a xlink:href="group__grp__force__driver.html#gabbc245b3884ee8d8d3e2a52f25149f78" target="_top" xlink:title="fcn1">
<polygon fill="white" stroke="black" points="131.5,-38.5 131.5,-57.5 166.5,-57.5 166.5,-38.5 131.5,-38.5"/>
<text text-anchor="middle" x="149" y="-45.5" font-family="Helvetica,sans-Serif" font-size="10.00">fcn1</text>
</a>
</g>
</g>
<!-- Node3&#45;&gt;Node4 -->
<g id="edge3" class="edge">
<title>Node3&#45;&gt;Node4</title>
<path fill="none" stroke="midnightblue" d="M193.75,-41.31C184.51,-41.11 174.85,-41.44 166.97,-42.29"/>
<polygon fill="midnightblue" stroke="midnightblue" points="193.75,-44.81 203.9,-41.75 194.06,-37.82 193.75,-44.81"/>
</g>
<!-- Node5 -->
<g id="node5" class="node">
<title>Node5</title>
<g id="a_node5"><a xlink:href="xspech_8f90.html#a48f45478dc2c9f70ea8aa1c60ad06503" target="_top" xlink:title=" ">
<polygon fill="white" stroke="black" points="130,-0.5 130,-19.5 168,-19.5 168,-0.5 130,-0.5"/>
<text text-anchor="middle" x="149" y="-7.5" font-family="Helvetica,sans-Serif" font-size="10.00">spec</text>
</a>
</g>
</g>
<!-- Node3&#45;&gt;Node5 -->
<g id="edge6" class="edge">
<title>Node3&#45;&gt;Node5</title>
<path fill="none" stroke="midnightblue" d="M198.58,-33.98C188.39,-28.95 177.18,-23.41 168.1,-18.93"/>
<polygon fill="midnightblue" stroke="midnightblue" points="197.05,-37.12 207.57,-38.41 200.15,-30.85 197.05,-37.12"/>
</g>
<!-- Node4&#45;&gt;Node3 -->
<g id="edge4" class="edge">
<title>Node4&#45;&gt;Node3</title>
<path fill="none" stroke="midnightblue" d="M177.08,-54.48C185.83,-54.91 195.46,-54.83 203.9,-54.25"/>
<polygon fill="midnightblue" stroke="midnightblue" points="177.2,-50.98 166.97,-53.71 176.67,-57.96 177.2,-50.98"/>
</g>
<!-- Node6 -->
<g id="node6" class="node">
<title>Node6</title>
<g id="a_node6"><a xlink:href="sphdf5_8f90.html#a0f962c09cd5d5eba99f1cba043cb3898" target="_top" xlink:title="initialize the interface to the HDF5 library and open the output file">
<polygon fill="white" stroke="black" points="0,-38.5 0,-57.5 94,-57.5 94,-38.5 0,-38.5"/>
<text text-anchor="middle" x="47" y="-45.5" font-family="Helvetica,sans-Serif" font-size="10.00">sphdf5::init_outfile</text>
</a>
</g>
</g>
<!-- Node5&#45;&gt;Node6 -->
<g id="edge7" class="edge">
<title>Node5&#45;&gt;Node6</title>
<path fill="none" stroke="midnightblue" d="M120.03,-20.63C105.27,-26.24 87.3,-33.07 73,-38.5"/>
<polygon fill="midnightblue" stroke="midnightblue" points="121.55,-23.79 129.66,-16.97 119.07,-17.25 121.55,-23.79"/>
</g>
<!-- Node7 -->
<g id="node7" class="node">
<title>Node7</title>
<g id="a_node7"><a xlink:href="xspech_8f90.html#aea782eae089760a491c2c54f9903abcc" target="_top" xlink:title="Main program of SPEC.">
<polygon fill="white" stroke="black" points="23.5,-0.5 23.5,-19.5 70.5,-19.5 70.5,-0.5 23.5,-0.5"/>
<text text-anchor="middle" x="47" y="-7.5" font-family="Helvetica,sans-Serif" font-size="10.00">xspech</text>
</a>
</g>
</g>
<!-- Node5&#45;&gt;Node7 -->
<g id="edge8" class="edge">
<title>Node5&#45;&gt;Node7</title>
<path fill="none" stroke="midnightblue" d="M119.6,-3.84C104.14,-2.94 85.27,-3.07 70.79,-4.23"/>
<polygon fill="midnightblue" stroke="midnightblue" points="119.41,-7.34 129.66,-4.64 119.96,-0.36 119.41,-7.34"/>
</g>
<!-- Node7&#45;&gt;Node5 -->
<g id="edge9" class="edge">
<title>Node7&#45;&gt;Node5</title>
<path fill="none" stroke="midnightblue" d="M80.96,-16.39C97.15,-17.1 116.06,-16.76 129.66,-15.36"/>
<polygon fill="midnightblue" stroke="midnightblue" points="80.98,-12.88 70.79,-15.77 80.56,-19.87 80.98,-12.88"/>
</g>
</g>
</svg>
