<?xml version="1.0" encoding="UTF-8" standalone="no"?>
<!DOCTYPE svg PUBLIC "-//W3C//DTD SVG 1.1//EN"
 "http://www.w3.org/Graphics/SVG/1.1/DTD/svg11.dtd">
<!-- Generated by graphviz version 2.47.2 (0)
 -->
<!-- Title: ma00aa Pages: 1 -->
<svg width="362pt" height="199pt"
 viewBox="0.00 0.00 362.00 199.00" xmlns="http://www.w3.org/2000/svg" xmlns:xlink="http://www.w3.org/1999/xlink">
<g id="graph0" class="graph" transform="scale(1 1) rotate(0) translate(4 195)">
<title>ma00aa</title>
<polygon fill="white" stroke="transparent" points="-4,4 -4,-195 358,-195 358,4 -4,4"/>
<!-- Node1 -->
<g id="node1" class="node">
<title>Node1</title>
<g id="a_node1"><a xlink:title="Calculates volume integrals of Chebyshev polynomials and metric element products.">
<polygon fill="#bfbfbf" stroke="black" points="0,-76.5 0,-95.5 51,-95.5 51,-76.5 0,-76.5"/>
<text text-anchor="middle" x="25.5" y="-83.5" font-family="Helvetica,sans-Serif" font-size="10.00">ma00aa</text>
</a>
</g>
</g>
<!-- Node2 -->
<g id="node2" class="node">
<title>Node2</title>
<g id="a_node2"><a xlink:href="metrix_8f90.html#a80c802cda076dd9e7031bc5f9098c175" target="_top" xlink:title="compute guvijsave">
<polygon fill="white" stroke="black" points="87,-152.5 87,-171.5 188,-171.5 188,-152.5 87,-152.5"/>
<text text-anchor="middle" x="137.5" y="-159.5" font-family="Helvetica,sans-Serif" font-size="10.00">compute_guvijsave</text>
</a>
</g>
</g>
<!-- Node1&#45;&gt;Node2 -->
<g id="edge1" class="edge">
<title>Node1&#45;&gt;Node2</title>
<path fill="none" stroke="midnightblue" d="M36.14,-95.68C47.57,-106.83 67.55,-125.23 87,-138 92.45,-141.58 98.51,-144.95 104.47,-147.98"/>
<polygon fill="midnightblue" stroke="midnightblue" points="103.13,-151.22 113.65,-152.43 106.18,-144.92 103.13,-151.22"/>
</g>
<!-- Node5 -->
<g id="node5" class="node">
<title>Node5</title>
<g id="a_node5"><a xlink:href="group__grp__volume.html#gae4c62d20b8fef07f4471b5b0889ab005" target="_top" xlink:title="Computes volume of each region; and, if required, the derivatives of the volume with respect to the i...">
<polygon fill="white" stroke="black" points="306,-133.5 306,-152.5 354,-152.5 354,-133.5 306,-133.5"/>
<text text-anchor="middle" x="330" y="-140.5" font-family="Helvetica,sans-Serif" font-size="10.00">volume</text>
</a>
</g>
</g>
<!-- Node1&#45;&gt;Node5 -->
<g id="edge10" class="edge">
<title>Node1&#45;&gt;Node5</title>
<path fill="none" stroke="midnightblue" d="M51.29,-94.7C62.15,-98.27 75.1,-102.21 87,-105 160.57,-122.23 248.58,-133.84 295.55,-139.34"/>
<polygon fill="midnightblue" stroke="midnightblue" points="295.42,-142.85 305.76,-140.52 296.22,-135.9 295.42,-142.85"/>
</g>
<!-- Node6 -->
<g id="node6" class="node">
<title>Node6</title>
<g id="a_node6"><a xlink:href="basefn_8f90.html#af6a4cad04c70bfb14fd18a3bfbc843a3" target="_top" xlink:title="Get the Chebyshev polynomials with zeroth, first derivatives.">
<polygon fill="white" stroke="black" points="107,-76.5 107,-95.5 168,-95.5 168,-76.5 107,-76.5"/>
<text text-anchor="middle" x="137.5" y="-83.5" font-family="Helvetica,sans-Serif" font-size="10.00">get_cheby</text>
</a>
</g>
</g>
<!-- Node1&#45;&gt;Node6 -->
<g id="edge6" class="edge">
<title>Node1&#45;&gt;Node6</title>
<path fill="none" stroke="midnightblue" d="M51.19,-86C64.57,-86 81.43,-86 96.62,-86"/>
<polygon fill="midnightblue" stroke="midnightblue" points="96.81,-89.5 106.81,-86 96.81,-82.5 96.81,-89.5"/>
</g>
<!-- Node7 -->
<g id="node7" class="node">
<title>Node7</title>
<g id="a_node7"><a xlink:href="basefn_8f90.html#a38dc596fb909186b01dacc1feac03164" target="_top" xlink:title="Get the Zernike polynomials &#160;with zeroth, first derivatives.">
<polygon fill="white" stroke="black" points="104.5,-38.5 104.5,-57.5 170.5,-57.5 170.5,-38.5 104.5,-38.5"/>
<text text-anchor="middle" x="137.5" y="-45.5" font-family="Helvetica,sans-Serif" font-size="10.00">get_zernike</text>
</a>
</g>
</g>
<!-- Node1&#45;&gt;Node7 -->
<g id="edge7" class="edge">
<title>Node1&#45;&gt;Node7</title>
<path fill="none" stroke="midnightblue" d="M51.19,-77.47C65.35,-72.58 83.41,-66.34 99.27,-60.86"/>
<polygon fill="midnightblue" stroke="midnightblue" points="100.49,-64.14 108.8,-57.57 98.21,-57.53 100.49,-64.14"/>
</g>
<!-- Node8 -->
<g id="node8" class="node">
<title>Node8</title>
<g id="a_node8"><a xlink:href="group__grp__metrics.html#ga254ce8e645c4110d77e3b3dbc3a89885" target="_top" xlink:title="Calculates the metric quantities, , which are required for the energy and helicity integrals.">
<polygon fill="white" stroke="black" points="116,-0.5 116,-19.5 159,-19.5 159,-0.5 116,-0.5"/>
<text text-anchor="middle" x="137.5" y="-7.5" font-family="Helvetica,sans-Serif" font-size="10.00">metrix</text>
</a>
</g>
</g>
<!-- Node1&#45;&gt;Node8 -->
<g id="edge8" class="edge">
<title>Node1&#45;&gt;Node8</title>
<path fill="none" stroke="midnightblue" d="M34.6,-76.31C45.43,-63.89 65.74,-42.36 87,-29 92.97,-25.25 99.8,-22.04 106.44,-19.39"/>
<polygon fill="midnightblue" stroke="midnightblue" points="107.73,-22.64 115.91,-15.9 105.31,-16.07 107.73,-22.64"/>
</g>
<!-- Node3 -->
<g id="node3" class="node">
<title>Node3</title>
<g id="a_node3"><a xlink:href="group__grp__geometry.html#gaaca20aa60eaf39055f3c9d5c02a24ac2" target="_top" xlink:title="Calculates coordinates, , and metrics, using FFTs.">
<polygon fill="white" stroke="black" points="224,-152.5 224,-171.5 270,-171.5 270,-152.5 224,-152.5"/>
<text text-anchor="middle" x="247" y="-159.5" font-family="Helvetica,sans-Serif" font-size="10.00">coords</text>
</a>
</g>
</g>
<!-- Node2&#45;&gt;Node3 -->
<g id="edge2" class="edge">
<title>Node2&#45;&gt;Node3</title>
<path fill="none" stroke="midnightblue" d="M188.16,-162C196.88,-162 205.75,-162 213.83,-162"/>
<polygon fill="midnightblue" stroke="midnightblue" points="213.93,-165.5 223.93,-162 213.93,-158.5 213.93,-165.5"/>
</g>
<!-- Node4 -->
<g id="node4" class="node">
<title>Node4</title>
<g id="a_node4"><a xlink:href="group__grp__numerics.html#ga1fd52accb0646f535f9bcc46cf5a68f3" target="_top" xlink:title="Inverse Fourier transform (fftw wrapper)">
<polygon fill="white" stroke="black" points="311,-171.5 311,-190.5 349,-190.5 349,-171.5 311,-171.5"/>
<text text-anchor="middle" x="330" y="-178.5" font-family="Helvetica,sans-Serif" font-size="10.00">invfft</text>
</a>
</g>
</g>
<!-- Node3&#45;&gt;Node4 -->
<g id="edge3" class="edge">
<title>Node3&#45;&gt;Node4</title>
<path fill="none" stroke="midnightblue" d="M270.13,-167.19C279.66,-169.43 290.9,-172.06 301,-174.43"/>
<polygon fill="midnightblue" stroke="midnightblue" points="300.45,-177.9 310.99,-176.77 302.05,-171.08 300.45,-177.9"/>
</g>
<!-- Node3&#45;&gt;Node5 -->
<g id="edge4" class="edge">
<title>Node3&#45;&gt;Node5</title>
<path fill="none" stroke="midnightblue" d="M264.78,-152.47C273.77,-149.36 285.17,-146.34 295.86,-144.12"/>
<polygon fill="midnightblue" stroke="midnightblue" points="296.6,-147.55 305.79,-142.27 295.32,-140.66 296.6,-147.55"/>
</g>
<!-- Node5&#45;&gt;Node3 -->
<g id="edge5" class="edge">
<title>Node5&#45;&gt;Node3</title>
<path fill="none" stroke="midnightblue" d="M312.29,-152.5C303.05,-155.7 291.24,-158.82 280.28,-161.05"/>
<polygon fill="midnightblue" stroke="midnightblue" points="279.35,-157.67 270.13,-162.9 280.6,-164.55 279.35,-157.67"/>
</g>
<!-- Node9 -->
<g id="node9" class="node">
<title>Node9</title>
<g id="a_node9"><a xlink:href="group__grp__numerics.html#ga041138109a57e651c57117bb4180409e" target="_top" xlink:title="Forward Fourier transform (fftw wrapper)">
<polygon fill="white" stroke="black" points="232.5,-0.5 232.5,-19.5 261.5,-19.5 261.5,-0.5 232.5,-0.5"/>
<text text-anchor="middle" x="247" y="-7.5" font-family="Helvetica,sans-Serif" font-size="10.00">tfft</text>
</a>
</g>
</g>
<!-- Node8&#45;&gt;Node9 -->
<g id="edge9" class="edge">
<title>Node8&#45;&gt;Node9</title>
<path fill="none" stroke="midnightblue" d="M159.23,-10C177.28,-10 203.45,-10 222.33,-10"/>
<polygon fill="midnightblue" stroke="midnightblue" points="222.48,-13.5 232.48,-10 222.48,-6.5 222.48,-13.5"/>
</g>
</g>
</svg>
