<?xml version="1.0" encoding="UTF-8" standalone="no"?>
<!DOCTYPE svg PUBLIC "-//W3C//DTD SVG 1.1//EN"
 "http://www.w3.org/Graphics/SVG/1.1/DTD/svg11.dtd">
<!-- Generated by graphviz version 2.44.0 ()
 -->
<!-- Title: pp00aa Pages: 1 -->
<svg width="494pt" height="80pt"
 viewBox="0.00 0.00 494.00 80.46" xmlns="http://www.w3.org/2000/svg" xmlns:xlink="http://www.w3.org/1999/xlink">
<g id="graph0" class="graph" transform="scale(1 1) rotate(0) translate(4 76.46)">
<title>pp00aa</title>
<polygon fill="white" stroke="transparent" points="-4,4 -4,-76.46 490,-76.46 490,4 -4,4"/>
<!-- Node1 -->
<g id="node1" class="node">
<title>Node1</title>
<g id="a_node1"><a xlink:title="Constructs Poincaré plot and &quot;approximate&quot; rotational&#45;transform (driver).">
<polygon fill="#bfbfbf" stroke="black" points="438,-33.96 438,-52.96 486,-52.96 486,-33.96 438,-33.96"/>
<text text-anchor="middle" x="462" y="-40.96" font-family="Helvetica,sans-Serif" font-size="10.00">pp00aa</text>
</a>
</g>
</g>
<!-- Node2 -->
<g id="node2" class="node">
<title>Node2</title>
<g id="a_node2"><a xlink:href="xspech_8f90.html#a1451823a7b97101a797de616250752c1" target="_top" xlink:title="Final diagnostics.">
<polygon fill="white" stroke="black" points="313,-33.96 313,-52.96 402,-52.96 402,-33.96 313,-33.96"/>
<text text-anchor="middle" x="357.5" y="-40.96" font-family="Helvetica,sans-Serif" font-size="10.00">final_diagnostics</text>
</a>
</g>
</g>
<!-- Node1&#45;&gt;Node2 -->
<g id="edge1" class="edge">
<title>Node1&#45;&gt;Node2</title>
<path fill="none" stroke="midnightblue" d="M427.99,-43.46C419.72,-43.46 410.72,-43.46 402.03,-43.46"/>
<polygon fill="midnightblue" stroke="midnightblue" points="428,-46.96 438,-43.46 428,-39.96 428,-46.96"/>
</g>
<!-- Node3 -->
<g id="node3" class="node">
<title>Node3</title>
<g id="a_node3"><a xlink:href="xspech_8f90.html#a9fdc71dffd7c61ee4588a3f80d3ab9ce" target="_top" xlink:title="Main subroutine of SPEC.">
<polygon fill="white" stroke="black" points="230,-33.96 230,-52.96 277,-52.96 277,-33.96 230,-33.96"/>
<text text-anchor="middle" x="253.5" y="-40.96" font-family="Helvetica,sans-Serif" font-size="10.00">xspech</text>
</a>
</g>
</g>
<!-- Node2&#45;&gt;Node3 -->
<g id="edge2" class="edge">
<title>Node2&#45;&gt;Node3</title>
<path fill="none" stroke="midnightblue" d="M302.75,-36.72C293.7,-36.77 284.77,-37.12 277.1,-37.74"/>
<polygon fill="midnightblue" stroke="midnightblue" points="302.93,-40.22 312.95,-36.77 302.97,-33.22 302.93,-40.22"/>
</g>
<!-- Node3&#45;&gt;Node2 -->
<g id="edge3" class="edge">
<title>Node3&#45;&gt;Node2</title>
<path fill="none" stroke="midnightblue" d="M287.33,-49.81C295.49,-50.18 304.36,-50.29 312.95,-50.14"/>
<polygon fill="midnightblue" stroke="midnightblue" points="287.3,-46.3 277.1,-49.17 286.87,-53.29 287.3,-46.3"/>
</g>
<!-- Node4 -->
<g id="node4" class="node">
<title>Node4</title>
<g id="a_node4"><a xlink:href="xspech_8f90.html#a48f45478dc2c9f70ea8aa1c60ad06503" target="_top" xlink:title="This is the main &quot;driver&quot; for the physics part of SPEC.">
<polygon fill="white" stroke="black" points="143,-52.96 143,-71.96 181,-71.96 181,-52.96 143,-52.96"/>
<text text-anchor="middle" x="162" y="-59.96" font-family="Helvetica,sans-Serif" font-size="10.00">spec</text>
</a>
</g>
</g>
<!-- Node3&#45;&gt;Node4 -->
<g id="edge4" class="edge">
<title>Node3&#45;&gt;Node4</title>
<path fill="none" stroke="midnightblue" d="M219.84,-43.87C206.76,-46.15 192.19,-49.57 181.07,-53.08"/>
<polygon fill="midnightblue" stroke="midnightblue" points="220.57,-47.29 229.92,-42.3 219.5,-40.38 220.57,-47.29"/>
</g>
<!-- Node6 -->
<g id="node6" class="node">
<title>Node6</title>
<g id="a_node6"><a xlink:href="xspech_8f90.html#a95271e8805067f801b5d4e524d6901d4" target="_top" xlink:title="Main program of SPEC.">
<polygon fill="white" stroke="black" points="130,-14.96 130,-33.96 194,-33.96 194,-14.96 130,-14.96"/>
<text text-anchor="middle" x="162" y="-21.96" font-family="Helvetica,sans-Serif" font-size="10.00">spec_main</text>
</a>
</g>
</g>
<!-- Node3&#45;&gt;Node6 -->
<g id="edge8" class="edge">
<title>Node3&#45;&gt;Node6</title>
<path fill="none" stroke="midnightblue" d="M219.99,-36.56C211.52,-34.76 202.42,-32.83 194.03,-31.04"/>
<polygon fill="midnightblue" stroke="midnightblue" points="219.41,-40.01 229.92,-38.66 220.86,-33.16 219.41,-40.01"/>
</g>
<!-- Node4&#45;&gt;Node3 -->
<g id="edge7" class="edge">
<title>Node4&#45;&gt;Node3</title>
<path fill="none" stroke="midnightblue" d="M191.28,-62.78C205.22,-60.57 221.63,-56.84 233.96,-52.99"/>
<polygon fill="midnightblue" stroke="midnightblue" points="190.65,-59.33 181.21,-64.15 191.6,-66.27 190.65,-59.33"/>
</g>
<!-- Node5 -->
<g id="node5" class="node">
<title>Node5</title>
<g id="a_node5"><a xlink:href="group__grp__output.html#ga0f962c09cd5d5eba99f1cba043cb3898" target="_top" xlink:title="Initialize the interface to the HDF5 library and open the output file.">
<polygon fill="white" stroke="black" points="0,-14.96 0,-33.96 94,-33.96 94,-14.96 0,-14.96"/>
<text text-anchor="middle" x="47" y="-21.96" font-family="Helvetica,sans-Serif" font-size="10.00">sphdf5::init_outfile</text>
</a>
</g>
</g>
<!-- Node4&#45;&gt;Node5 -->
<g id="edge5" class="edge">
<title>Node4&#45;&gt;Node5</title>
<path fill="none" stroke="midnightblue" d="M133.28,-53.14C115.95,-47.31 93.69,-39.82 76.26,-33.96"/>
<polygon fill="midnightblue" stroke="midnightblue" points="132.25,-56.48 142.84,-56.35 134.48,-49.85 132.25,-56.48"/>
</g>
<!-- Node5&#45;&gt;Node3 -->
<g id="edge6" class="edge">
<title>Node5&#45;&gt;Node3</title>
<path fill="none" stroke="midnightblue" d="M82.9,-11.95C112.88,-3.07 157.01,5.5 194,-5.46 212.58,-10.96 230.79,-24.43 241.83,-33.76"/>
<polygon fill="midnightblue" stroke="midnightblue" points="81.8,-8.62 73.3,-14.94 83.89,-15.3 81.8,-8.62"/>
</g>
</g>
</svg>
