<?xml version="1.0" encoding="UTF-8" standalone="no"?>
<!DOCTYPE svg PUBLIC "-//W3C//DTD SVG 1.1//EN"
 "http://www.w3.org/Graphics/SVG/1.1/DTD/svg11.dtd">
<!-- Generated by graphviz version 2.47.1 (20210421.1823)
 -->
<!-- Title: tfft Pages: 1 -->
<svg width="1362pt" height="930pt"
 viewBox="0.00 0.00 1362.00 930.00" xmlns="http://www.w3.org/2000/svg" xmlns:xlink="http://www.w3.org/1999/xlink">
<g id="graph0" class="graph" transform="scale(1 1) rotate(0) translate(4 926)">
<title>tfft</title>
<polygon fill="white" stroke="transparent" points="-4,4 -4,-926 1358,-926 1358,4 -4,4"/>
<!-- Node1 -->
<g id="node1" class="node">
<title>Node1</title>
<g id="a_node1"><a xlink:title="Forward Fourier transform (fftw wrapper)">
<polygon fill="#bfbfbf" stroke="black" points="1325,-335.5 1325,-354.5 1354,-354.5 1354,-335.5 1325,-335.5"/>
<text text-anchor="middle" x="1339.5" y="-342.5" font-family="Helvetica,sans-Serif" font-size="10.00">tfft</text>
</a>
</g>
</g>
<!-- Node2 -->
<g id="node2" class="node">
<title>Node2</title>
<g id="a_node2"><a xlink:href="group__grp__free-boundary.html#gac0a2cc2241947b27241bb8ef75c5e0ed" target="_top" xlink:title="Computes &#160;on the computational boundary, .">
<polygon fill="white" stroke="black" points="834,-864.5 834,-883.5 880,-883.5 880,-864.5 834,-864.5"/>
<text text-anchor="middle" x="857" y="-871.5" font-family="Helvetica,sans-Serif" font-size="10.00">bnorml</text>
</a>
</g>
</g>
<!-- Node1&#45;&gt;Node2 -->
<g id="edge1" class="edge">
<title>Node1&#45;&gt;Node2</title>
<path fill="none" stroke="midnightblue" d="M1337.75,-364.69C1334.3,-450.18 1318.92,-786.45 1289,-822 1254.21,-863.34 1226.03,-855 1172,-855 1172,-855 1172,-855 1073.5,-855 1002.7,-855 919.33,-865.3 880.28,-870.73"/>
<polygon fill="midnightblue" stroke="midnightblue" points="1341.25,-364.67 1338.15,-354.54 1334.25,-364.4 1341.25,-364.67"/>
</g>
<!-- Node3 -->
<g id="node3" class="node">
<title>Node3</title>
<g id="a_node3"><a xlink:href="group__grp__initialization.html#ga28628de0fdb3b3497668007d8d0643bd" target="_top" xlink:title="Allocates and initializes internal arrays.">
<polygon fill="white" stroke="black" points="710,-864.5 710,-883.5 754,-883.5 754,-864.5 710,-864.5"/>
<text text-anchor="middle" x="732" y="-871.5" font-family="Helvetica,sans-Serif" font-size="10.00">preset</text>
</a>
</g>
</g>
<!-- Node1&#45;&gt;Node3 -->
<g id="edge72" class="edge">
<title>Node1&#45;&gt;Node3</title>
<path fill="none" stroke="midnightblue" d="M1335.86,-364.69C1323.48,-452.97 1267.75,-808 1172,-808 1172,-808 1172,-808 983.5,-808 896.03,-808 796.87,-846.1 754.28,-864.4"/>
<polygon fill="midnightblue" stroke="midnightblue" points="1339.34,-365.05 1337.24,-354.67 1332.41,-364.1 1339.34,-365.05"/>
</g>
<!-- Node8 -->
<g id="node8" class="node">
<title>Node8</title>
<g id="a_node8"><a xlink:href="group__grp__currents.html#gacaf4411e0ba378631dcd2ccb3752e452" target="_top" xlink:title="Computes the plasma current, , and the &quot;linking&quot; current, .">
<polygon fill="white" stroke="black" points="1052.5,-354.5 1052.5,-373.5 1096.5,-373.5 1096.5,-354.5 1052.5,-354.5"/>
<text text-anchor="middle" x="1074.5" y="-361.5" font-family="Helvetica,sans-Serif" font-size="10.00">curent</text>
</a>
</g>
</g>
<!-- Node1&#45;&gt;Node8 -->
<g id="edge11" class="edge">
<title>Node1&#45;&gt;Node8</title>
<path fill="none" stroke="midnightblue" d="M1314.69,-346.72C1263.85,-350.39 1145.39,-358.95 1096.83,-362.46"/>
<polygon fill="midnightblue" stroke="midnightblue" points="1315.01,-350.21 1324.73,-345.99 1314.5,-343.22 1315.01,-350.21"/>
</g>
<!-- Node18 -->
<g id="node18" class="node">
<title>Node18</title>
<g id="a_node18"><a xlink:href="dfp200_8f90.html#a7b64c7392b45d0042d8bd7379c0761a5" target="_top" xlink:title="Evaluate the derivative of the square of the magnetic field modulus. Add spectral constraint derivati...">
<polygon fill="white" stroke="black" points="253.5,-114.5 253.5,-133.5 327.5,-133.5 327.5,-114.5 253.5,-114.5"/>
<text text-anchor="middle" x="290.5" y="-121.5" font-family="Helvetica,sans-Serif" font-size="10.00">evaluate_dbb</text>
</a>
</g>
</g>
<!-- Node1&#45;&gt;Node18 -->
<g id="edge46" class="edge">
<title>Node1&#45;&gt;Node18</title>
<path fill="none" stroke="midnightblue" d="M1336.51,-325.07C1331.15,-274.59 1314.98,-143.28 1289,-109 1253.58,-62.26 1230.64,-48 1172,-48 1172,-48 1172,-48 529.5,-48 443.18,-48 347.25,-93.92 308.81,-114.37"/>
<polygon fill="midnightblue" stroke="midnightblue" points="1333.06,-325.72 1337.57,-335.31 1340.03,-325 1333.06,-325.72"/>
</g>
<!-- Node25 -->
<g id="node25" class="node">
<title>Node25</title>
<g id="a_node25"><a xlink:href="intghs_8f90.html#a21d3b7106371783302e68297f7797e9f" target="_top" xlink:title="Calculates volume integrals of Chebyshev polynomials and covariant field products.">
<polygon fill="white" stroke="black" points="1242.5,-221.5 1242.5,-240.5 1285.5,-240.5 1285.5,-221.5 1242.5,-221.5"/>
<text text-anchor="middle" x="1264" y="-228.5" font-family="Helvetica,sans-Serif" font-size="10.00">intghs</text>
</a>
</g>
</g>
<!-- Node1&#45;&gt;Node25 -->
<g id="edge47" class="edge">
<title>Node1&#45;&gt;Node25</title>
<path fill="none" stroke="midnightblue" d="M1326.62,-326.57C1310.83,-302.08 1283.5,-259.69 1271.25,-240.69"/>
<polygon fill="midnightblue" stroke="midnightblue" points="1323.87,-328.77 1332.23,-335.28 1329.76,-324.98 1323.87,-328.77"/>
</g>
<!-- Node30 -->
<g id="node30" class="node">
<title>Node30</title>
<g id="a_node30"><a xlink:href="lbpol_8f90.html#a29ae6196c664f390d0e60ab7916c806b" target="_top" xlink:title="Computes &#160;at the interface.">
<polygon fill="white" stroke="black" points="838.5,-451.5 838.5,-470.5 875.5,-470.5 875.5,-451.5 838.5,-451.5"/>
<text text-anchor="middle" x="857" y="-458.5" font-family="Helvetica,sans-Serif" font-size="10.00">lbpol</text>
</a>
</g>
</g>
<!-- Node1&#45;&gt;Node30 -->
<g id="edge61" class="edge">
<title>Node1&#45;&gt;Node30</title>
<path fill="none" stroke="midnightblue" d="M1325.08,-362.84C1299.26,-394.91 1239.25,-459 1172,-459 1172,-459 1172,-459 1073.5,-459 999.98,-459 912.36,-460.18 875.6,-460.73"/>
<polygon fill="midnightblue" stroke="midnightblue" points="1328.02,-364.75 1331.43,-354.72 1322.51,-360.44 1328.02,-364.75"/>
</g>
<!-- Node31 -->
<g id="node31" class="node">
<title>Node31</title>
<g id="a_node31"><a xlink:href="group__grp__local__force.html#ga7a5316b9e5eeb42811aa6bccd29a132f" target="_top" xlink:title="Computes , and the spectral condensation constraints if required, on the interfaces,...">
<polygon fill="white" stroke="black" points="510,-76.5 510,-95.5 551,-95.5 551,-76.5 510,-76.5"/>
<text text-anchor="middle" x="530.5" y="-83.5" font-family="Helvetica,sans-Serif" font-size="10.00">lforce</text>
</a>
</g>
</g>
<!-- Node1&#45;&gt;Node31 -->
<g id="edge65" class="edge">
<title>Node1&#45;&gt;Node31</title>
<path fill="none" stroke="midnightblue" d="M1335.59,-325.35C1325.43,-264.94 1285.75,-86 1172,-86 1172,-86 1172,-86 731,-86 665.02,-86 586.76,-86 551.04,-86"/>
<polygon fill="midnightblue" stroke="midnightblue" points="1332.17,-326.15 1337.2,-335.47 1339.09,-325.05 1332.17,-326.15"/>
</g>
<!-- Node32 -->
<g id="node32" class="node">
<title>Node32</title>
<g id="a_node32"><a xlink:href="group__grp__metrics.html#ga254ce8e645c4110d77e3b3dbc3a89885" target="_top" xlink:title="Calculates the metric quantities, , which are required for the energy and helicity integrals.">
<polygon fill="white" stroke="black" points="1242.5,-316.5 1242.5,-335.5 1285.5,-335.5 1285.5,-316.5 1242.5,-316.5"/>
<text text-anchor="middle" x="1264" y="-323.5" font-family="Helvetica,sans-Serif" font-size="10.00">metrix</text>
</a>
</g>
</g>
<!-- Node1&#45;&gt;Node32 -->
<g id="edge68" class="edge">
<title>Node1&#45;&gt;Node32</title>
<path fill="none" stroke="midnightblue" d="M1314.81,-338.87C1305.44,-336.45 1294.77,-333.69 1285.71,-331.35"/>
<polygon fill="midnightblue" stroke="midnightblue" points="1314.12,-342.31 1324.68,-341.43 1315.87,-335.53 1314.12,-342.31"/>
</g>
<!-- Node34 -->
<g id="node34" class="node">
<title>Node34</title>
<g id="a_node34"><a xlink:href="group__grp__coord__axis.html#ga564281be4d9806d0688a717314ad748f" target="_top" xlink:title="The coordinate axis is assigned via a poloidal average over an arbitrary surface.">
<polygon fill="white" stroke="black" points="836.5,-760.5 836.5,-779.5 877.5,-779.5 877.5,-760.5 836.5,-760.5"/>
<text text-anchor="middle" x="857" y="-767.5" font-family="Helvetica,sans-Serif" font-size="10.00">rzaxis</text>
</a>
</g>
</g>
<!-- Node1&#45;&gt;Node34 -->
<g id="edge73" class="edge">
<title>Node1&#45;&gt;Node34</title>
<path fill="none" stroke="midnightblue" d="M1336.64,-364.79C1329.34,-429.99 1296.55,-634 1172,-634 1172,-634 1172,-634 1073.5,-634 978.83,-634 891.85,-729.04 865.85,-760.22"/>
<polygon fill="midnightblue" stroke="midnightblue" points="1340.15,-364.92 1337.7,-354.62 1333.19,-364.2 1340.15,-364.92"/>
</g>
<!-- Node36 -->
<g id="node36" class="node">
<title>Node36</title>
<g id="a_node36"><a xlink:href="group__grp__smooth__boundary.html#ga5d58e428e5062d645244ff572b06e117" target="_top" xlink:title="Constructs smooth approximation to wall.">
<polygon fill="white" stroke="black" points="1239,-0.5 1239,-19.5 1289,-19.5 1289,-0.5 1239,-0.5"/>
<text text-anchor="middle" x="1264" y="-7.5" font-family="Helvetica,sans-Serif" font-size="10.00">wa00aa</text>
</a>
</g>
</g>
<!-- Node1&#45;&gt;Node36 -->
<g id="edge81" class="edge">
<title>Node1&#45;&gt;Node36</title>
<path fill="none" stroke="midnightblue" d="M1336.97,-325.44C1332.05,-265.56 1315.37,-85.7 1289,-34 1286.22,-28.54 1281.73,-23.56 1277.39,-19.56"/>
<polygon fill="midnightblue" stroke="midnightblue" points="1333.49,-325.77 1337.78,-335.46 1340.46,-325.21 1333.49,-325.77"/>
</g>
<!-- Node2&#45;&gt;Node3 -->
<g id="edge2" class="edge">
<title>Node2&#45;&gt;Node3</title>
<path fill="none" stroke="midnightblue" d="M823.56,-874C801.65,-874 773.37,-874 754.29,-874"/>
<polygon fill="midnightblue" stroke="midnightblue" points="823.73,-877.5 833.73,-874 823.73,-870.5 823.73,-877.5"/>
</g>
<!-- Node5 -->
<g id="node5" class="node">
<title>Node5</title>
<g id="a_node5"><a xlink:href="xspech_8f90.html#a48f45478dc2c9f70ea8aa1c60ad06503" target="_top" xlink:title=" ">
<polygon fill="white" stroke="black" points="271.5,-779.5 271.5,-798.5 309.5,-798.5 309.5,-779.5 271.5,-779.5"/>
<text text-anchor="middle" x="290.5" y="-786.5" font-family="Helvetica,sans-Serif" font-size="10.00">spec</text>
</a>
</g>
</g>
<!-- Node2&#45;&gt;Node5 -->
<g id="edge10" class="edge">
<title>Node2&#45;&gt;Node5</title>
<path fill="none" stroke="midnightblue" d="M823.71,-881.66C803.99,-885.94 778.19,-890.84 755,-893 734.64,-894.9 729.41,-894.18 709,-893 562.96,-884.54 519.01,-897.32 384,-841 355.1,-828.94 323.79,-809.97 306.02,-798.58"/>
<polygon fill="midnightblue" stroke="midnightblue" points="824.71,-885.02 833.7,-879.43 823.18,-878.19 824.71,-885.02"/>
</g>
<!-- Node4 -->
<g id="node4" class="node">
<title>Node4</title>
<g id="a_node4"><a xlink:href="group__grp__diagnostics.html#ga7401b50ec10c6598ee4a8112717a63ec" target="_top" xlink:title="Computes eigenvalues and eigenvectors of derivative matrix, .">
<polygon fill="white" stroke="black" points="508,-836.5 508,-855.5 553,-855.5 553,-836.5 508,-836.5"/>
<text text-anchor="middle" x="530.5" y="-843.5" font-family="Helvetica,sans-Serif" font-size="10.00">hesian</text>
</a>
</g>
</g>
<!-- Node3&#45;&gt;Node4 -->
<g id="edge3" class="edge">
<title>Node3&#45;&gt;Node4</title>
<path fill="none" stroke="midnightblue" d="M699.71,-869.76C679.53,-867.01 652.71,-863.33 629,-860 602.92,-856.34 572.94,-852.02 553.18,-849.15"/>
<polygon fill="midnightblue" stroke="midnightblue" points="699.52,-873.26 709.9,-871.14 700.46,-866.33 699.52,-873.26"/>
</g>
<!-- Node7 -->
<g id="node7" class="node">
<title>Node7</title>
<g id="a_node7"><a xlink:href="xspech_8f90.html#aea782eae089760a491c2c54f9903abcc" target="_top" xlink:title="Main program of SPEC.">
<polygon fill="white" stroke="black" points="0,-779.5 0,-798.5 47,-798.5 47,-779.5 0,-779.5"/>
<text text-anchor="middle" x="23.5" y="-786.5" font-family="Helvetica,sans-Serif" font-size="10.00">xspech</text>
</a>
</g>
</g>
<!-- Node3&#45;&gt;Node7 -->
<g id="edge9" class="edge">
<title>Node3&#45;&gt;Node7</title>
<path fill="none" stroke="midnightblue" d="M700.22,-886.2C661.5,-900.42 592.65,-922 531.5,-922 531.5,-922 531.5,-922 289.5,-922 193.01,-922 163.73,-907.85 83,-855 59.69,-839.74 39.95,-812.82 30.49,-798.53"/>
<polygon fill="midnightblue" stroke="midnightblue" points="701.72,-889.37 709.85,-882.58 699.26,-882.82 701.72,-889.37"/>
</g>
<!-- Node4&#45;&gt;Node5 -->
<g id="edge4" class="edge">
<title>Node4&#45;&gt;Node5</title>
<path fill="none" stroke="midnightblue" d="M497.35,-842.38C467.64,-838.64 422.41,-831.93 384,-822 357.59,-815.17 328.06,-803.99 309.63,-796.56"/>
<polygon fill="midnightblue" stroke="midnightblue" points="497.2,-845.89 507.55,-843.62 498.05,-838.94 497.2,-845.89"/>
</g>
<!-- Node6 -->
<g id="node6" class="node">
<title>Node6</title>
<g id="a_node6"><a xlink:href="namespacesphdf5.html#a0f962c09cd5d5eba99f1cba043cb3898" target="_top" xlink:title="initialize the interface to the HDF5 library and open the output file">
<polygon fill="white" stroke="black" points="93,-826.5 93,-845.5 187,-845.5 187,-826.5 93,-826.5"/>
<text text-anchor="middle" x="140" y="-833.5" font-family="Helvetica,sans-Serif" font-size="10.00">sphdf5::init_outfile</text>
</a>
</g>
</g>
<!-- Node5&#45;&gt;Node6 -->
<g id="edge5" class="edge">
<title>Node5&#45;&gt;Node6</title>
<path fill="none" stroke="midnightblue" d="M261.75,-797.78C235.99,-805.94 197.73,-818.05 171.21,-826.44"/>
<polygon fill="midnightblue" stroke="midnightblue" points="262.81,-801.12 271.29,-794.76 260.7,-794.44 262.81,-801.12"/>
</g>
<!-- Node5&#45;&gt;Node7 -->
<g id="edge8" class="edge">
<title>Node5&#45;&gt;Node7</title>
<path fill="none" stroke="midnightblue" d="M261.26,-784.64C208.43,-781.34 95.62,-781.46 47.27,-785.01"/>
<polygon fill="midnightblue" stroke="midnightblue" points="261.06,-788.13 271.29,-785.37 261.57,-781.15 261.06,-788.13"/>
</g>
<!-- Node6&#45;&gt;Node7 -->
<g id="edge6" class="edge">
<title>Node6&#45;&gt;Node7</title>
<path fill="none" stroke="midnightblue" d="M106.41,-822.62C87.5,-814.86 64.17,-805.28 47.25,-798.34"/>
<polygon fill="midnightblue" stroke="midnightblue" points="105.25,-825.93 115.83,-826.49 107.91,-819.45 105.25,-825.93"/>
</g>
<!-- Node7&#45;&gt;Node5 -->
<g id="edge7" class="edge">
<title>Node7&#45;&gt;Node5</title>
<path fill="none" stroke="midnightblue" d="M57.43,-793.64C113.84,-796.76 227.12,-796.42 271.29,-792.63"/>
<polygon fill="midnightblue" stroke="midnightblue" points="57.47,-790.13 47.27,-792.99 57.03,-797.12 57.47,-790.13"/>
</g>
<!-- Node9 -->
<g id="node9" class="node">
<title>Node9</title>
<g id="a_node9"><a xlink:href="dfp100_8f90.html#a17a3ac15cc83994394f7b4cc05e5898e" target="_top" xlink:title="Split the work between MPI nodes and evaluate the global constraint.">
<polygon fill="white" stroke="black" points="709,-342.5 709,-361.5 755,-361.5 755,-342.5 709,-342.5"/>
<text text-anchor="middle" x="732" y="-349.5" font-family="Helvetica,sans-Serif" font-size="10.00">dfp100</text>
</a>
</g>
</g>
<!-- Node8&#45;&gt;Node9 -->
<g id="edge12" class="edge">
<title>Node8&#45;&gt;Node9</title>
<path fill="none" stroke="midnightblue" d="M1042.37,-362.9C974.41,-360.51 814.13,-354.86 755.22,-352.78"/>
<polygon fill="midnightblue" stroke="midnightblue" points="1042.34,-366.4 1052.46,-363.26 1042.59,-359.41 1042.34,-366.4"/>
</g>
<!-- Node19 -->
<g id="node19" class="node">
<title>Node19</title>
<g id="a_node19"><a xlink:href="dfp200_8f90.html#a73ddf39ecc5228201fb643779e17cd36" target="_top" xlink:title="Evaluate mu and psip derivatives and store them in dmupfdx.">
<polygon fill="white" stroke="black" points="243,-304.5 243,-323.5 338,-323.5 338,-304.5 243,-304.5"/>
<text text-anchor="middle" x="290.5" y="-311.5" font-family="Helvetica,sans-Serif" font-size="10.00">evaluate_dmupfdx</text>
</a>
</g>
</g>
<!-- Node8&#45;&gt;Node19 -->
<g id="edge42" class="edge">
<title>Node8&#45;&gt;Node19</title>
<path fill="none" stroke="midnightblue" d="M1042.29,-369.91C1032.04,-371.58 1020.57,-373.17 1010,-374 987.4,-375.77 981.67,-374.14 959,-374 740.6,-372.69 685.43,-374.6 468,-354 430.57,-350.45 420.72,-352.06 384,-344 360.75,-338.9 335.05,-330.31 316.65,-323.63"/>
<polygon fill="midnightblue" stroke="midnightblue" points="1043.17,-373.31 1052.43,-368.16 1041.98,-366.41 1043.17,-373.31"/>
</g>
<!-- Node23 -->
<g id="node23" class="node">
<title>Node23</title>
<g id="a_node23"><a xlink:href="group__grp__solver.html#ga6626839aff500f060beb5bce2b90c447" target="_top" xlink:title="Solves Beltrami/vacuum (linear) system, given matrices.unpacking fluxes, helicity multiplier">
<polygon fill="white" stroke="black" points="959,-316.5 959,-335.5 1010,-335.5 1010,-316.5 959,-316.5"/>
<text text-anchor="middle" x="984.5" y="-323.5" font-family="Helvetica,sans-Serif" font-size="10.00">mp00ac</text>
</a>
</g>
</g>
<!-- Node8&#45;&gt;Node23 -->
<g id="edge43" class="edge">
<title>Node8&#45;&gt;Node23</title>
<path fill="none" stroke="midnightblue" d="M1042.83,-350.76C1031.2,-345.74 1018.2,-340.12 1007.53,-335.51"/>
<polygon fill="midnightblue" stroke="midnightblue" points="1041.63,-354.05 1052.2,-354.8 1044.4,-347.62 1041.63,-354.05"/>
</g>
<!-- Node10 -->
<g id="node10" class="node">
<title>Node10</title>
<g id="a_node10"><a xlink:href="group__grp__global__force.html#ga38c9d3c50bd043707fefa5137c9dbf44" target="_top" xlink:title="Calculates , where &#160;and , and .">
<polygon fill="white" stroke="black" points="629,-570.5 629,-589.5 673,-589.5 673,-570.5 629,-570.5"/>
<text text-anchor="middle" x="651" y="-577.5" font-family="Helvetica,sans-Serif" font-size="10.00">dforce</text>
</a>
</g>
</g>
<!-- Node9&#45;&gt;Node10 -->
<g id="edge13" class="edge">
<title>Node9&#45;&gt;Node10</title>
<path fill="none" stroke="midnightblue" d="M724.42,-371C708.29,-417.55 667.25,-535.98 655.31,-570.45"/>
<polygon fill="midnightblue" stroke="midnightblue" points="727.74,-372.1 727.71,-361.51 721.12,-369.81 727.74,-372.1"/>
</g>
<!-- Node9&#45;&gt;Node19 -->
<g id="edge41" class="edge">
<title>Node9&#45;&gt;Node19</title>
<path fill="none" stroke="midnightblue" d="M698.36,-350.63C636.77,-347.84 499.23,-340.68 384,-328 369.15,-326.37 353.02,-324.1 338.46,-321.86"/>
<polygon fill="midnightblue" stroke="midnightblue" points="698.47,-354.14 708.62,-351.08 698.78,-347.14 698.47,-354.14"/>
</g>
<!-- Node10&#45;&gt;Node4 -->
<g id="edge36" class="edge">
<title>Node10&#45;&gt;Node4</title>
<path fill="none" stroke="midnightblue" d="M641.53,-599.03C630.4,-624.03 610.24,-669.31 593,-708 571.55,-756.16 545.87,-813.77 535.83,-836.3"/>
<polygon fill="midnightblue" stroke="midnightblue" points="644.84,-600.19 645.71,-589.63 638.45,-597.35 644.84,-600.19"/>
</g>
<!-- Node10&#45;&gt;Node5 -->
<g id="edge40" class="edge">
<title>Node10&#45;&gt;Node5</title>
<path fill="none" stroke="midnightblue" d="M643.14,-599.2C634.57,-620.59 617.93,-654.8 593,-675 547.35,-711.98 523.05,-697.47 468,-718 409.66,-739.75 341.54,-767.96 309.67,-781.33"/>
<polygon fill="midnightblue" stroke="midnightblue" points="646.52,-600.18 646.8,-589.59 639.97,-597.69 646.52,-600.18"/>
</g>
<!-- Node11 -->
<g id="node11" class="node">
<title>Node11</title>
<g id="a_node11"><a xlink:href="namespaceallglobal.html#a7824bc37519fe88336534ce90ab2af16" target="_top" xlink:title=" ">
<polygon fill="white" stroke="black" points="83,-542.5 83,-561.5 197,-561.5 197,-542.5 83,-542.5"/>
<text text-anchor="middle" x="140" y="-549.5" font-family="Helvetica,sans-Serif" font-size="10.00">allglobal::check_inputs</text>
</a>
</g>
</g>
<!-- Node10&#45;&gt;Node11 -->
<g id="edge14" class="edge">
<title>Node10&#45;&gt;Node11</title>
<path fill="none" stroke="midnightblue" d="M638.27,-562.26C628.12,-548.66 612.09,-530.91 593,-523 442.44,-460.63 239.41,-518.25 167.55,-542.46"/>
<polygon fill="midnightblue" stroke="midnightblue" points="635.44,-564.31 644.07,-570.46 641.15,-560.27 635.44,-564.31"/>
</g>
<!-- Node12 -->
<g id="node12" class="node">
<title>Node12</title>
<g id="a_node12"><a xlink:href="group__grp__force__driver.html#gabbc245b3884ee8d8d3e2a52f25149f78" target="_top" xlink:title="fcn1">
<polygon fill="white" stroke="black" points="513,-646.5 513,-665.5 548,-665.5 548,-646.5 513,-646.5"/>
<text text-anchor="middle" x="530.5" y="-653.5" font-family="Helvetica,sans-Serif" font-size="10.00">fcn1</text>
</a>
</g>
</g>
<!-- Node10&#45;&gt;Node12 -->
<g id="edge16" class="edge">
<title>Node10&#45;&gt;Node12</title>
<path fill="none" stroke="midnightblue" d="M634.56,-597.04C623.77,-608.15 608.57,-622.33 593,-632 578.88,-640.77 561.03,-647.3 548.2,-651.32"/>
<polygon fill="midnightblue" stroke="midnightblue" points="637.26,-599.27 641.57,-589.59 632.17,-594.47 637.26,-599.27"/>
</g>
<!-- Node13 -->
<g id="node13" class="node">
<title>Node13</title>
<g id="a_node13"><a xlink:href="group__grp__force__driver.html#gaec14f81fbdbedafbc4189489ec8ae178" target="_top" xlink:title="Employs Newton method to find , where &#160;and &#160;is defined in dforce() .">
<polygon fill="white" stroke="black" points="384,-646.5 384,-665.5 432,-665.5 432,-646.5 384,-646.5"/>
<text text-anchor="middle" x="408" y="-653.5" font-family="Helvetica,sans-Serif" font-size="10.00">newton</text>
</a>
</g>
</g>
<!-- Node10&#45;&gt;Node13 -->
<g id="edge37" class="edge">
<title>Node10&#45;&gt;Node13</title>
<path fill="none" stroke="midnightblue" d="M619.01,-589.62C582.77,-600.89 520.99,-620.17 468,-637 456.21,-640.75 443.1,-644.96 432.24,-648.47"/>
<polygon fill="midnightblue" stroke="midnightblue" points="620.45,-592.84 628.96,-586.53 618.38,-586.15 620.45,-592.84"/>
</g>
<!-- Node14 -->
<g id="node14" class="node">
<title>Node14</title>
<g id="a_node14"><a xlink:href="group__grp__force__driver.html#ga8ccd6c7d901872702521d0a0edf95412" target="_top" xlink:title="fcn2">
<polygon fill="white" stroke="black" points="122.5,-627.5 122.5,-646.5 157.5,-646.5 157.5,-627.5 122.5,-627.5"/>
<text text-anchor="middle" x="140" y="-634.5" font-family="Helvetica,sans-Serif" font-size="10.00">fcn2</text>
</a>
</g>
</g>
<!-- Node10&#45;&gt;Node14 -->
<g id="edge25" class="edge">
<title>Node10&#45;&gt;Node14</title>
<path fill="none" stroke="midnightblue" d="M618.52,-581.9C582.2,-584.22 520.7,-588.51 468,-594 348.69,-606.42 205.66,-627.31 157.64,-634.49"/>
<polygon fill="midnightblue" stroke="midnightblue" points="619.19,-585.37 628.95,-581.25 618.75,-578.38 619.19,-585.37"/>
</g>
<!-- Node16 -->
<g id="node16" class="node">
<title>Node16</title>
<g id="a_node16"><a xlink:href="dfp200_8f90.html#a6aca59cf350d7b1941f8389d50945a43" target="_top" xlink:title="get LU Beltrami matrices">
<polygon fill="white" stroke="black" points="468,-266.5 468,-285.5 593,-285.5 593,-266.5 468,-266.5"/>
<text text-anchor="middle" x="530.5" y="-273.5" font-family="Helvetica,sans-Serif" font-size="10.00">get_lu_beltrami_matrices</text>
</a>
</g>
</g>
<!-- Node10&#45;&gt;Node16 -->
<g id="edge26" class="edge">
<title>Node10&#45;&gt;Node16</title>
<path fill="none" stroke="midnightblue" d="M643.93,-560.51C634.06,-529.29 613.57,-466.25 593,-414 573.69,-364.94 546.79,-307.85 536.12,-285.58"/>
<polygon fill="midnightblue" stroke="midnightblue" points="640.62,-561.67 646.96,-570.16 647.3,-559.57 640.62,-561.67"/>
</g>
<!-- Node21 -->
<g id="node21" class="node">
<title>Node21</title>
<g id="a_node21"><a xlink:href="group__grp__conjugate__gradient.html#ga4d8415226e62a9fdb42b0fd0b464251e" target="_top" xlink:title="Returns the energy functional and it&#39;s derivatives with respect to geometry.">
<polygon fill="white" stroke="black" points="506.5,-532.5 506.5,-551.5 554.5,-551.5 554.5,-532.5 506.5,-532.5"/>
<text text-anchor="middle" x="530.5" y="-539.5" font-family="Helvetica,sans-Serif" font-size="10.00">pc00ab</text>
</a>
</g>
</g>
<!-- Node10&#45;&gt;Node21 -->
<g id="edge38" class="edge">
<title>Node10&#45;&gt;Node21</title>
<path fill="none" stroke="midnightblue" d="M619.13,-570.1C598.92,-563.62 572.94,-555.29 554.53,-549.38"/>
<polygon fill="midnightblue" stroke="midnightblue" points="618.22,-573.49 628.81,-573.21 620.36,-566.82 618.22,-573.49"/>
</g>
<!-- Node11&#45;&gt;Node7 -->
<g id="edge15" class="edge">
<title>Node11&#45;&gt;Node7</title>
<path fill="none" stroke="midnightblue" d="M121.18,-569.25C109.04,-581.82 93.35,-599.78 83,-618 50.76,-674.75 32.29,-752.17 26.5,-779.2"/>
<polygon fill="midnightblue" stroke="midnightblue" points="124,-571.38 128.56,-561.82 119.03,-566.45 124,-571.38"/>
</g>
<!-- Node12&#45;&gt;Node13 -->
<g id="edge17" class="edge">
<title>Node12&#45;&gt;Node13</title>
<path fill="none" stroke="midnightblue" d="M502.51,-650.26C481.38,-648.82 452.31,-648.92 432.22,-650.54"/>
<polygon fill="midnightblue" stroke="midnightblue" points="502.48,-653.77 512.74,-651.16 503.09,-646.8 502.48,-653.77"/>
</g>
<!-- Node13&#45;&gt;Node5 -->
<g id="edge21" class="edge">
<title>Node13&#45;&gt;Node5</title>
<path fill="none" stroke="midnightblue" d="M390.35,-673.12C388.19,-675.41 386.03,-677.75 384,-680 351.75,-715.75 315.26,-759.91 299.47,-779.21"/>
<polygon fill="midnightblue" stroke="midnightblue" points="393.08,-675.33 397.46,-665.68 388.02,-670.49 393.08,-675.33"/>
</g>
<!-- Node13&#45;&gt;Node12 -->
<g id="edge18" class="edge">
<title>Node13&#45;&gt;Node12</title>
<path fill="none" stroke="midnightblue" d="M442.21,-662.11C465.11,-663.27 494.58,-662.85 512.74,-660.84"/>
<polygon fill="midnightblue" stroke="midnightblue" points="442.42,-658.61 432.22,-661.46 441.97,-665.6 442.42,-658.61"/>
</g>
<!-- Node13&#45;&gt;Node14 -->
<g id="edge19" class="edge">
<title>Node13&#45;&gt;Node14</title>
<path fill="none" stroke="midnightblue" d="M373.85,-648.99C316.44,-641.73 200.53,-633.84 157.54,-634.7"/>
<polygon fill="midnightblue" stroke="midnightblue" points="373.48,-652.47 383.86,-650.33 374.41,-645.53 373.48,-652.47"/>
</g>
<!-- Node15 -->
<g id="node15" class="node">
<title>Node15</title>
<g id="a_node15"><a xlink:href="group__grp__force__driver.html#ga382822b303cbf8c56d6f54dcb379caf2" target="_top" xlink:title="read or write force&#45;derivative matrix">
<polygon fill="white" stroke="black" points="258,-674.5 258,-693.5 323,-693.5 323,-674.5 258,-674.5"/>
<text text-anchor="middle" x="290.5" y="-681.5" font-family="Helvetica,sans-Serif" font-size="10.00">writereadgf</text>
</a>
</g>
</g>
<!-- Node13&#45;&gt;Node15 -->
<g id="edge22" class="edge">
<title>Node13&#45;&gt;Node15</title>
<path fill="none" stroke="midnightblue" d="M373.9,-657.85C353.15,-661.85 327.17,-668.5 309.99,-674.41"/>
<polygon fill="midnightblue" stroke="midnightblue" points="374.67,-661.27 383.9,-656.07 373.45,-654.38 374.67,-661.27"/>
</g>
<!-- Node14&#45;&gt;Node13 -->
<g id="edge20" class="edge">
<title>Node14&#45;&gt;Node13</title>
<path fill="none" stroke="midnightblue" d="M167.68,-643.16C219.86,-650.29 334.65,-658.41 383.86,-658.36"/>
<polygon fill="midnightblue" stroke="midnightblue" points="167.94,-639.66 157.54,-641.66 166.92,-646.59 167.94,-639.66"/>
</g>
<!-- Node15&#45;&gt;Node13 -->
<g id="edge24" class="edge">
<title>Node15&#45;&gt;Node13</title>
<path fill="none" stroke="midnightblue" d="M333.2,-680.4C352.24,-676.36 373.82,-670.66 388.7,-665.53"/>
<polygon fill="midnightblue" stroke="midnightblue" points="332.34,-677.01 323.23,-682.41 333.72,-683.87 332.34,-677.01"/>
</g>
<!-- Node15&#45;&gt;Node14 -->
<g id="edge23" class="edge">
<title>Node15&#45;&gt;Node14</title>
<path fill="none" stroke="midnightblue" d="M249.65,-671.39C219.55,-661.86 179.76,-649.27 157.64,-642.27"/>
<polygon fill="midnightblue" stroke="midnightblue" points="248.86,-674.81 259.45,-674.49 250.97,-668.13 248.86,-674.81"/>
</g>
<!-- Node17 -->
<g id="node17" class="node">
<title>Node17</title>
<g id="a_node17"><a xlink:href="dfp200_8f90.html#a55ea75395f8c71731451e1add3720c7e" target="_top" xlink:title="Given the field consistent with the constraints and the geometry, computes local quantites related to...">
<polygon fill="white" stroke="black" points="385,-190.5 385,-209.5 431,-209.5 431,-190.5 385,-190.5"/>
<text text-anchor="middle" x="408" y="-197.5" font-family="Helvetica,sans-Serif" font-size="10.00">dfp200</text>
</a>
</g>
</g>
<!-- Node16&#45;&gt;Node17 -->
<g id="edge27" class="edge">
<title>Node16&#45;&gt;Node17</title>
<path fill="none" stroke="midnightblue" d="M511.87,-259.94C490.54,-244.23 454.58,-221.4 431.32,-208.7"/>
<polygon fill="midnightblue" stroke="midnightblue" points="509.98,-262.9 520.04,-266.19 514.23,-257.34 509.98,-262.9"/>
</g>
<!-- Node17&#45;&gt;Node10 -->
<g id="edge28" class="edge">
<title>Node17&#45;&gt;Node10</title>
<path fill="none" stroke="midnightblue" d="M420.3,-218.37C432.12,-237.54 451.25,-268.45 468,-295 522.94,-382.06 537.68,-403.18 593,-490 611.59,-519.17 633.43,-553.75 643.86,-570.27"/>
<polygon fill="midnightblue" stroke="midnightblue" points="423.21,-216.42 414.98,-209.74 417.25,-220.09 423.21,-216.42"/>
</g>
<!-- Node17&#45;&gt;Node16 -->
<g id="edge33" class="edge">
<title>Node17&#45;&gt;Node16</title>
<path fill="none" stroke="midnightblue" d="M426.28,-215.8C447.13,-231.19 482.29,-253.57 505.69,-266.49"/>
<polygon fill="midnightblue" stroke="midnightblue" points="428.36,-212.99 418.3,-209.68 424.1,-218.54 428.36,-212.99"/>
</g>
<!-- Node17&#45;&gt;Node18 -->
<g id="edge29" class="edge">
<title>Node17&#45;&gt;Node18</title>
<path fill="none" stroke="midnightblue" d="M390.04,-183.9C370.13,-168.6 336.99,-146.6 314.71,-133.74"/>
<polygon fill="midnightblue" stroke="midnightblue" points="387.94,-186.69 397.94,-190.19 392.3,-181.22 387.94,-186.69"/>
</g>
<!-- Node17&#45;&gt;Node19 -->
<g id="edge31" class="edge">
<title>Node17&#45;&gt;Node19</title>
<path fill="none" stroke="midnightblue" d="M384.6,-216.64C357.69,-240.94 314.14,-284.65 297.89,-304.39"/>
<polygon fill="midnightblue" stroke="midnightblue" points="387.2,-219.01 392.37,-209.77 382.56,-213.77 387.2,-219.01"/>
</g>
<!-- Node20 -->
<g id="node20" class="node">
<title>Node20</title>
<g id="a_node20"><a xlink:href="dfp200_8f90.html#a5e56f1f4b1e6df11a9cffa6237c37469" target="_top" xlink:title="This routine evaluates the value of the magnetic field once the interface is perturbed using matrix p...">
<polygon fill="white" stroke="black" points="233,-190.5 233,-209.5 348,-209.5 348,-190.5 233,-190.5"/>
<text text-anchor="middle" x="290.5" y="-197.5" font-family="Helvetica,sans-Serif" font-size="10.00">get_perturbed_solution</text>
</a>
</g>
</g>
<!-- Node17&#45;&gt;Node20 -->
<g id="edge34" class="edge">
<title>Node17&#45;&gt;Node20</title>
<path fill="none" stroke="midnightblue" d="M374.51,-193.86C366.3,-193.44 357.25,-193.23 348.23,-193.25"/>
<polygon fill="midnightblue" stroke="midnightblue" points="374.52,-197.37 384.73,-194.54 374.99,-190.38 374.52,-197.37"/>
</g>
<!-- Node18&#45;&gt;Node17 -->
<g id="edge30" class="edge">
<title>Node18&#45;&gt;Node17</title>
<path fill="none" stroke="midnightblue" d="M308.19,-139.9C328.35,-155.41 362.35,-177.96 384.73,-190.8"/>
<polygon fill="midnightblue" stroke="midnightblue" points="310.22,-137.04 300.23,-133.53 305.85,-142.51 310.22,-137.04"/>
</g>
<!-- Node19&#45;&gt;Node17 -->
<g id="edge32" class="edge">
<title>Node19&#45;&gt;Node17</title>
<path fill="none" stroke="midnightblue" d="M313.61,-297.63C340.41,-273.45 384.03,-229.7 400.46,-209.79"/>
<polygon fill="midnightblue" stroke="midnightblue" points="311.05,-295.21 305.88,-304.45 315.69,-300.46 311.05,-295.21"/>
</g>
<!-- Node20&#45;&gt;Node17 -->
<g id="edge35" class="edge">
<title>Node20&#45;&gt;Node17</title>
<path fill="none" stroke="midnightblue" d="M358.23,-206.68C367.76,-206.52 376.95,-206.11 384.73,-205.46"/>
<polygon fill="midnightblue" stroke="midnightblue" points="358.21,-203.18 348.23,-206.75 358.26,-210.18 358.21,-203.18"/>
</g>
<!-- Node22 -->
<g id="node22" class="node">
<title>Node22</title>
<g id="a_node22"><a xlink:href="group__grp__conjugate__gradient.html#ga25a3bae2ff2ee0469b045de0d033398b" target="_top" xlink:title="Use preconditioned conjugate gradient method to find minimum of energy functional.">
<polygon fill="white" stroke="black" points="384,-532.5 384,-551.5 432,-551.5 432,-532.5 384,-532.5"/>
<text text-anchor="middle" x="408" y="-539.5" font-family="Helvetica,sans-Serif" font-size="10.00">pc00aa</text>
</a>
</g>
</g>
<!-- Node21&#45;&gt;Node22 -->
<g id="edge39" class="edge">
<title>Node21&#45;&gt;Node22</title>
<path fill="none" stroke="midnightblue" d="M496.16,-542C475.81,-542 450.31,-542 432.16,-542"/>
<polygon fill="midnightblue" stroke="midnightblue" points="496.27,-545.5 506.27,-542 496.27,-538.5 496.27,-545.5"/>
</g>
<!-- Node24 -->
<g id="node24" class="node">
<title>Node24</title>
<g id="a_node24"><a xlink:href="group__grp__solver__driver.html#gacad623d4c5c006e9ad10116372f92ad3" target="_top" xlink:title="Constructs Beltrami field in given volume consistent with flux, helicity, rotational&#45;transform and/or...">
<polygon fill="white" stroke="black" points="831.5,-316.5 831.5,-335.5 882.5,-335.5 882.5,-316.5 831.5,-316.5"/>
<text text-anchor="middle" x="857" y="-323.5" font-family="Helvetica,sans-Serif" font-size="10.00">ma02aa</text>
</a>
</g>
</g>
<!-- Node23&#45;&gt;Node24 -->
<g id="edge44" class="edge">
<title>Node23&#45;&gt;Node24</title>
<path fill="none" stroke="midnightblue" d="M948.6,-326C927.67,-326 901.55,-326 882.74,-326"/>
<polygon fill="midnightblue" stroke="midnightblue" points="948.71,-329.5 958.71,-326 948.71,-322.5 948.71,-329.5"/>
</g>
<!-- Node24&#45;&gt;Node9 -->
<g id="edge45" class="edge">
<title>Node24&#45;&gt;Node9</title>
<path fill="none" stroke="midnightblue" d="M821.45,-333.3C800.17,-337.8 773.53,-343.43 755.08,-347.33"/>
<polygon fill="midnightblue" stroke="midnightblue" points="822.34,-336.69 831.4,-331.2 820.9,-329.84 822.34,-336.69"/>
</g>
<!-- Node25&#45;&gt;Node20 -->
<g id="edge48" class="edge">
<title>Node25&#45;&gt;Node20</title>
<path fill="none" stroke="midnightblue" d="M1246.69,-213.78C1216.18,-183.52 1147.06,-124 1075.5,-124 1075.5,-124 1075.5,-124 529.5,-124 443.18,-124 347.25,-169.92 308.81,-190.37"/>
<polygon fill="midnightblue" stroke="midnightblue" points="1244.41,-216.45 1253.92,-221.13 1249.4,-211.54 1244.41,-216.45"/>
</g>
<!-- Node25&#45;&gt;Node23 -->
<g id="edge60" class="edge">
<title>Node25&#45;&gt;Node23</title>
<path fill="none" stroke="midnightblue" d="M1242.1,-246.49C1230.95,-254.16 1216.74,-263.02 1203,-269 1136.25,-298.05 1051.32,-315.02 1010.13,-322.1"/>
<polygon fill="midnightblue" stroke="midnightblue" points="1244.17,-249.32 1250.31,-240.68 1240.12,-243.6 1244.17,-249.32"/>
</g>
<!-- Node26 -->
<g id="node26" class="node">
<title>Node26</title>
<g id="a_node26"><a xlink:href="intghs_8f90.html#ae10091a51178071d12004da4952104d4" target="_top" xlink:title="free workspace">
<polygon fill="white" stroke="black" points="791,-240.5 791,-259.5 923,-259.5 923,-240.5 791,-240.5"/>
<text text-anchor="middle" x="857" y="-247.5" font-family="Helvetica,sans-Serif" font-size="10.00">intghs_workspace_destroy</text>
</a>
</g>
</g>
<!-- Node25&#45;&gt;Node26 -->
<g id="edge49" class="edge">
<title>Node25&#45;&gt;Node26</title>
<path fill="none" stroke="midnightblue" d="M1232.19,-230.03C1190.1,-228.92 1112.28,-227.66 1046,-231 1005.05,-233.06 959.26,-237.64 923.13,-241.79"/>
<polygon fill="midnightblue" stroke="midnightblue" points="1232.24,-233.53 1242.34,-230.31 1232.44,-226.53 1232.24,-233.53"/>
</g>
<!-- Node27 -->
<g id="node27" class="node">
<title>Node27</title>
<g id="a_node27"><a xlink:href="intghs_8f90.html#ae8299d4625cabd90eb1398fd2cd38089" target="_top" xlink:title="init workspace">
<polygon fill="white" stroke="black" points="800.5,-171.5 800.5,-190.5 913.5,-190.5 913.5,-171.5 800.5,-171.5"/>
<text text-anchor="middle" x="857" y="-178.5" font-family="Helvetica,sans-Serif" font-size="10.00">intghs_workspace_init</text>
</a>
</g>
</g>
<!-- Node25&#45;&gt;Node27 -->
<g id="edge53" class="edge">
<title>Node25&#45;&gt;Node27</title>
<path fill="none" stroke="midnightblue" d="M1232.3,-227.21C1164.29,-218.81 1000.14,-198.55 913.58,-187.86"/>
<polygon fill="midnightblue" stroke="midnightblue" points="1232.01,-230.7 1242.36,-228.45 1232.86,-223.75 1232.01,-230.7"/>
</g>
<!-- Node28 -->
<g id="node28" class="node">
<title>Node28</title>
<g id="a_node28"><a xlink:href="mp00ac_8f90.html#ae9fe335bb4916face9f9d19ce8c0f5d7" target="_top" xlink:title="compute a.x by either by coumputing it directly, or using a matrix free method">
<polygon fill="white" stroke="black" points="1146.5,-240.5 1146.5,-259.5 1195.5,-259.5 1195.5,-240.5 1146.5,-240.5"/>
<text text-anchor="middle" x="1171" y="-247.5" font-family="Helvetica,sans-Serif" font-size="10.00">matvec</text>
</a>
</g>
</g>
<!-- Node25&#45;&gt;Node28 -->
<g id="edge57" class="edge">
<title>Node25&#45;&gt;Node28</title>
<path fill="none" stroke="midnightblue" d="M1232.36,-237.4C1220.42,-239.89 1206.96,-242.7 1195.78,-245.03"/>
<polygon fill="midnightblue" stroke="midnightblue" points="1233.28,-240.78 1242.35,-235.31 1231.85,-233.93 1233.28,-240.78"/>
</g>
<!-- Node26&#45;&gt;Node9 -->
<g id="edge50" class="edge">
<title>Node26&#45;&gt;Node9</title>
<path fill="none" stroke="midnightblue" d="M799.69,-263.72C796.64,-265.29 793.72,-267.05 791,-269 763.72,-288.58 744.86,-325.15 737.04,-342.45"/>
<polygon fill="midnightblue" stroke="midnightblue" points="801.4,-266.78 809.1,-259.51 798.54,-260.39 801.4,-266.78"/>
</g>
<!-- Node26&#45;&gt;Node17 -->
<g id="edge51" class="edge">
<title>Node26&#45;&gt;Node17</title>
<path fill="none" stroke="midnightblue" d="M780.38,-241.54C676.18,-229.89 494.18,-209.53 431.2,-202.48"/>
<polygon fill="midnightblue" stroke="midnightblue" points="780.2,-245.04 790.52,-242.68 780.97,-238.09 780.2,-245.04"/>
</g>
<!-- Node26&#45;&gt;Node19 -->
<g id="edge52" class="edge">
<title>Node26&#45;&gt;Node19</title>
<path fill="none" stroke="midnightblue" d="M799.28,-261.5C746.19,-271.84 664.54,-286.65 593,-295 503.14,-305.49 397.48,-310.47 338.12,-312.6"/>
<polygon fill="midnightblue" stroke="midnightblue" points="800.04,-264.92 809.18,-259.56 798.7,-258.05 800.04,-264.92"/>
</g>
<!-- Node27&#45;&gt;Node9 -->
<g id="edge54" class="edge">
<title>Node27&#45;&gt;Node9</title>
<path fill="none" stroke="midnightblue" d="M830.94,-196.16C817.79,-205.06 802.14,-217.25 791,-231 761.67,-267.2 742.77,-320.69 735.9,-342.36"/>
<polygon fill="midnightblue" stroke="midnightblue" points="833.09,-198.94 839.56,-190.55 829.27,-193.08 833.09,-198.94"/>
</g>
<!-- Node27&#45;&gt;Node17 -->
<g id="edge55" class="edge">
<title>Node27&#45;&gt;Node17</title>
<path fill="none" stroke="midnightblue" d="M790.4,-177.47C713.01,-174.32 580.61,-172.09 468,-186 455.67,-187.52 442.17,-190.62 431.2,-193.51"/>
<polygon fill="midnightblue" stroke="midnightblue" points="790.34,-180.97 800.48,-177.9 790.64,-173.98 790.34,-180.97"/>
</g>
<!-- Node27&#45;&gt;Node19 -->
<g id="edge56" class="edge">
<title>Node27&#45;&gt;Node19</title>
<path fill="none" stroke="midnightblue" d="M790.16,-191.44C712.55,-204.31 579.94,-228.07 468,-257 413.91,-270.98 352.07,-292.19 317.82,-304.41"/>
<polygon fill="midnightblue" stroke="midnightblue" points="790.98,-194.85 800.28,-189.77 789.84,-187.94 790.98,-194.85"/>
</g>
<!-- Node29 -->
<g id="node29" class="node">
<title>Node29</title>
<g id="a_node29"><a xlink:href="mp00ac_8f90.html#a304edac43f63d39dda4419b4d044eac5" target="_top" xlink:title="run GMRES">
<polygon fill="white" stroke="black" points="1046,-240.5 1046,-259.5 1103,-259.5 1103,-240.5 1046,-240.5"/>
<text text-anchor="middle" x="1074.5" y="-247.5" font-family="Helvetica,sans-Serif" font-size="10.00">rungmres</text>
</a>
</g>
</g>
<!-- Node28&#45;&gt;Node29 -->
<g id="edge58" class="edge">
<title>Node28&#45;&gt;Node29</title>
<path fill="none" stroke="midnightblue" d="M1136.14,-250C1125.27,-250 1113.38,-250 1103.02,-250"/>
<polygon fill="midnightblue" stroke="midnightblue" points="1136.15,-253.5 1146.15,-250 1136.15,-246.5 1136.15,-253.5"/>
</g>
<!-- Node29&#45;&gt;Node23 -->
<g id="edge59" class="edge">
<title>Node29&#45;&gt;Node23</title>
<path fill="none" stroke="midnightblue" d="M1054.4,-266.49C1036.73,-281.76 1011.06,-303.93 996.55,-316.45"/>
<polygon fill="midnightblue" stroke="midnightblue" points="1057.07,-268.81 1062.35,-259.63 1052.5,-263.51 1057.07,-268.81"/>
</g>
<!-- Node30&#45;&gt;Node5 -->
<g id="edge64" class="edge">
<title>Node30&#45;&gt;Node5</title>
<path fill="none" stroke="midnightblue" d="M842.61,-478.63C807.11,-524.09 705.59,-646.24 593,-710 495.54,-765.2 358.56,-782.78 309.7,-787.49"/>
<polygon fill="midnightblue" stroke="midnightblue" points="845.47,-480.65 848.81,-470.59 839.93,-476.37 845.47,-480.65"/>
</g>
<!-- Node30&#45;&gt;Node9 -->
<g id="edge62" class="edge">
<title>Node30&#45;&gt;Node9</title>
<path fill="none" stroke="midnightblue" d="M837.43,-444.55C811.49,-421.55 765.2,-380.53 744.07,-361.81"/>
<polygon fill="midnightblue" stroke="midnightblue" points="835.28,-447.31 845.08,-451.33 839.92,-442.08 835.28,-447.31"/>
</g>
<!-- Node30&#45;&gt;Node19 -->
<g id="edge63" class="edge">
<title>Node30&#45;&gt;Node19</title>
<path fill="none" stroke="midnightblue" d="M828.15,-462.12C788.87,-463.59 714.98,-466 652,-466 652,-466 652,-466 529.5,-466 423.11,-466 326.08,-356.78 298.98,-323.51"/>
<polygon fill="midnightblue" stroke="midnightblue" points="828.41,-465.61 838.27,-461.73 828.14,-458.61 828.41,-465.61"/>
</g>
<!-- Node31&#45;&gt;Node17 -->
<g id="edge66" class="edge">
<title>Node31&#45;&gt;Node17</title>
<path fill="none" stroke="midnightblue" d="M511.71,-102.83C486.12,-127.04 439.77,-170.89 419.25,-190.31"/>
<polygon fill="midnightblue" stroke="midnightblue" points="514.37,-105.13 519.23,-95.72 509.56,-100.05 514.37,-105.13"/>
</g>
<!-- Node31&#45;&gt;Node18 -->
<g id="edge67" class="edge">
<title>Node31&#45;&gt;Node18</title>
<path fill="none" stroke="midnightblue" d="M499.61,-90.77C455.87,-97.76 374.54,-110.74 327.55,-118.24"/>
<polygon fill="midnightblue" stroke="midnightblue" points="500.29,-94.21 509.62,-89.17 499.19,-87.3 500.29,-94.21"/>
</g>
<!-- Node33 -->
<g id="node33" class="node">
<title>Node33</title>
<g id="a_node33"><a xlink:href="group__grp__integrals.html#ga400af9e33dd5465ff9a4bba9fbf91108" target="_top" xlink:title="Calculates volume integrals of Chebyshev polynomials and metric element products.">
<polygon fill="white" stroke="black" points="831.5,-278.5 831.5,-297.5 882.5,-297.5 882.5,-278.5 831.5,-278.5"/>
<text text-anchor="middle" x="857" y="-285.5" font-family="Helvetica,sans-Serif" font-size="10.00">ma00aa</text>
</a>
</g>
</g>
<!-- Node32&#45;&gt;Node33 -->
<g id="edge69" class="edge">
<title>Node32&#45;&gt;Node33</title>
<path fill="none" stroke="midnightblue" d="M1232.29,-323.12C1154.89,-315.86 953,-296.91 882.62,-290.31"/>
<polygon fill="midnightblue" stroke="midnightblue" points="1232.08,-326.61 1242.36,-324.06 1232.73,-319.64 1232.08,-326.61"/>
</g>
<!-- Node33&#45;&gt;Node9 -->
<g id="edge70" class="edge">
<title>Node33&#45;&gt;Node9</title>
<path fill="none" stroke="midnightblue" d="M821.59,-295.46C811.44,-298.35 800.5,-302.15 791,-307 772.39,-316.51 753.82,-332.3 742.88,-342.42"/>
<polygon fill="midnightblue" stroke="midnightblue" points="822.63,-298.81 831.41,-292.88 820.85,-292.04 822.63,-298.81"/>
</g>
<!-- Node33&#45;&gt;Node16 -->
<g id="edge71" class="edge">
<title>Node33&#45;&gt;Node16</title>
<path fill="none" stroke="midnightblue" d="M821.17,-286.71C766.76,-284.7 660.83,-280.78 593.25,-278.28"/>
<polygon fill="midnightblue" stroke="midnightblue" points="821.22,-290.22 831.34,-287.09 821.48,-283.22 821.22,-290.22"/>
</g>
<!-- Node34&#45;&gt;Node3 -->
<g id="edge80" class="edge">
<title>Node34&#45;&gt;Node3</title>
<path fill="none" stroke="midnightblue" d="M826.42,-776.89C814.61,-780.63 801.38,-786.13 791,-794 765.16,-813.59 745.86,-847.86 737.53,-864.45"/>
<polygon fill="midnightblue" stroke="midnightblue" points="827.68,-780.17 836.32,-774.05 825.75,-773.44 827.68,-780.17"/>
</g>
<!-- Node35 -->
<g id="node35" class="node">
<title>Node35</title>
<g id="a_node35"><a xlink:href="group__grp__packing.html#ga094e630c02686dd178749eb1efbf13fb" target="_top" xlink:title="Packs, and unpacks, geometrical degrees of freedom; and sets coordinate axis.">
<polygon fill="white" stroke="black" points="710,-760.5 710,-779.5 754,-779.5 754,-760.5 710,-760.5"/>
<text text-anchor="middle" x="732" y="-767.5" font-family="Helvetica,sans-Serif" font-size="10.00">packxi</text>
</a>
</g>
</g>
<!-- Node34&#45;&gt;Node35 -->
<g id="edge74" class="edge">
<title>Node34&#45;&gt;Node35</title>
<path fill="none" stroke="midnightblue" d="M826.03,-770C803.85,-770 774.18,-770 754.37,-770"/>
<polygon fill="midnightblue" stroke="midnightblue" points="826.24,-773.5 836.24,-770 826.24,-766.5 826.24,-773.5"/>
</g>
<!-- Node35&#45;&gt;Node4 -->
<g id="edge78" class="edge">
<title>Node35&#45;&gt;Node4</title>
<path fill="none" stroke="midnightblue" d="M716.2,-787.69C705.44,-799.33 689.86,-813.87 673,-822 633.73,-840.95 582.02,-845.2 553.24,-846"/>
<polygon fill="midnightblue" stroke="midnightblue" points="719.12,-789.67 723.13,-779.86 713.88,-785.03 719.12,-789.67"/>
</g>
<!-- Node35&#45;&gt;Node5 -->
<g id="edge79" class="edge">
<title>Node35&#45;&gt;Node5</title>
<path fill="none" stroke="midnightblue" d="M700.22,-778.78C691.5,-780.9 681.94,-782.88 673,-784 534.33,-801.42 365.08,-793.52 309.87,-790.21"/>
<polygon fill="midnightblue" stroke="midnightblue" points="701.18,-782.15 710,-776.27 699.44,-775.37 701.18,-782.15"/>
</g>
<!-- Node35&#45;&gt;Node10 -->
<g id="edge75" class="edge">
<title>Node35&#45;&gt;Node10</title>
<path fill="none" stroke="midnightblue" d="M723.07,-750.93C706.49,-711.05 668.64,-620.02 656.11,-589.89"/>
<polygon fill="midnightblue" stroke="midnightblue" points="719.9,-752.43 726.97,-760.32 726.37,-749.74 719.9,-752.43"/>
</g>
<!-- Node35&#45;&gt;Node12 -->
<g id="edge76" class="edge">
<title>Node35&#45;&gt;Node12</title>
<path fill="none" stroke="midnightblue" d="M705.4,-755.37C663.92,-731.67 583.18,-685.53 548.26,-665.58"/>
<polygon fill="midnightblue" stroke="midnightblue" points="703.91,-758.55 714.33,-760.48 707.39,-752.48 703.91,-758.55"/>
</g>
<!-- Node35&#45;&gt;Node14 -->
<g id="edge77" class="edge">
<title>Node35&#45;&gt;Node14</title>
<path fill="none" stroke="midnightblue" d="M699.21,-770.94C618.28,-772.26 399.1,-768.96 233,-703 199.38,-689.65 166.56,-661.4 150.76,-646.56"/>
<polygon fill="midnightblue" stroke="midnightblue" points="699.76,-774.43 709.69,-770.73 699.62,-767.43 699.76,-774.43"/>
</g>
<!-- Node37 -->
<g id="node37" class="node">
<title>Node37</title>
<g id="a_node37"><a xlink:href="group__grp__smooth__boundary.html#gaea7690bb953a85a409946f2c6ad6a640" target="_top" xlink:title="Compute vacuum magnetic scalar potential (?)">
<polygon fill="white" stroke="black" points="1139,-0.5 1139,-19.5 1203,-19.5 1203,-0.5 1139,-0.5"/>
<text text-anchor="middle" x="1171" y="-7.5" font-family="Helvetica,sans-Serif" font-size="10.00">vacuumphi</text>
</a>
</g>
</g>
<!-- Node36&#45;&gt;Node37 -->
<g id="edge82" class="edge">
<title>Node36&#45;&gt;Node37</title>
<path fill="none" stroke="midnightblue" d="M1228.5,-3.43C1220.23,-3.16 1211.44,-3.2 1203.32,-3.55"/>
<polygon fill="midnightblue" stroke="midnightblue" points="1228.45,-6.93 1238.61,-3.94 1228.8,0.06 1228.45,-6.93"/>
</g>
<!-- Node37&#45;&gt;Node36 -->
<g id="edge83" class="edge">
<title>Node37&#45;&gt;Node36</title>
<path fill="none" stroke="midnightblue" d="M1213.59,-16.73C1222.15,-16.83 1230.9,-16.6 1238.61,-16.06"/>
<polygon fill="midnightblue" stroke="midnightblue" points="1213.41,-13.22 1203.32,-16.45 1213.22,-20.22 1213.41,-13.22"/>
</g>
</g>
</svg>
