<?xml version="1.0" encoding="UTF-8" standalone="no"?>
<!DOCTYPE svg PUBLIC "-//W3C//DTD SVG 1.1//EN"
 "http://www.w3.org/Graphics/SVG/1.1/DTD/svg11.dtd">
<!-- Generated by graphviz version 2.47.1 (20210421.1823)
 -->
<!-- Title: matrix Pages: 1 -->
<svg width="739pt" height="428pt"
 viewBox="0.00 0.00 739.00 427.92" xmlns="http://www.w3.org/2000/svg" xmlns:xlink="http://www.w3.org/1999/xlink">
<g id="graph0" class="graph" transform="scale(1 1) rotate(0) translate(4 423.92)">
<title>matrix</title>
<polygon fill="white" stroke="transparent" points="-4,4 -4,-423.92 735,-423.92 735,4 -4,4"/>
<!-- Node1 -->
<g id="node1" class="node">
<title>Node1</title>
<g id="a_node1"><a xlink:title="Constructs energy and helicity matrices that represent the Beltrami linear system....">
<polygon fill="#bfbfbf" stroke="black" points="688,-305.42 688,-324.42 731,-324.42 731,-305.42 688,-305.42"/>
<text text-anchor="middle" x="709.5" y="-312.42" font-family="Helvetica,sans-Serif" font-size="10.00">matrix</text>
</a>
</g>
</g>
<!-- Node2 -->
<g id="node2" class="node">
<title>Node2</title>
<g id="a_node2"><a xlink:href="dfp100_8f90.html#a17a3ac15cc83994394f7b4cc05e5898e" target="_top" xlink:title="Split the work between MPI nodes and evaluate the global constraint.">
<polygon fill="white" stroke="black" points="606,-324.42 606,-343.42 652,-343.42 652,-324.42 606,-324.42"/>
<text text-anchor="middle" x="629" y="-331.42" font-family="Helvetica,sans-Serif" font-size="10.00">dfp100</text>
</a>
</g>
</g>
<!-- Node1&#45;&gt;Node2 -->
<g id="edge1" class="edge">
<title>Node1&#45;&gt;Node2</title>
<path fill="none" stroke="midnightblue" d="M678.11,-322.28C669.45,-324.37 660.2,-326.61 652.14,-328.57"/>
<polygon fill="midnightblue" stroke="midnightblue" points="678.98,-325.67 687.88,-319.92 677.33,-318.87 678.98,-325.67"/>
</g>
<!-- Node11 -->
<g id="node11" class="node">
<title>Node11</title>
<g id="a_node11"><a xlink:href="group__grp__force__driver.html#ga382822b303cbf8c56d6f54dcb379caf2" target="_top" xlink:title="read or write force&#45;derivative matrix">
<polygon fill="white" stroke="black" points="155,-172.42 155,-191.42 220,-191.42 220,-172.42 155,-172.42"/>
<text text-anchor="middle" x="187.5" y="-179.42" font-family="Helvetica,sans-Serif" font-size="10.00">writereadgf</text>
</a>
</g>
</g>
<!-- Node1&#45;&gt;Node11 -->
<g id="edge39" class="edge">
<title>Node1&#45;&gt;Node11</title>
<path fill="none" stroke="midnightblue" d="M677.88,-309.09C645.87,-303.51 594.1,-295.92 549,-295.92 549,-295.92 549,-295.92 426.5,-295.92 361.28,-295.92 339.31,-306.13 281,-276.92 240.45,-256.62 207.53,-211.31 194.51,-191.5"/>
<polygon fill="midnightblue" stroke="midnightblue" points="677.49,-312.57 687.95,-310.89 678.72,-305.68 677.49,-312.57"/>
</g>
<!-- Node12 -->
<g id="node12" class="node">
<title>Node12</title>
<g id="a_node12"><a xlink:href="dfp200_8f90.html#a6aca59cf350d7b1941f8389d50945a43" target="_top" xlink:title="get LU Beltrami matrices">
<polygon fill="white" stroke="black" points="365,-362.42 365,-381.42 490,-381.42 490,-362.42 365,-362.42"/>
<text text-anchor="middle" x="427.5" y="-369.42" font-family="Helvetica,sans-Serif" font-size="10.00">get_lu_beltrami_matrices</text>
</a>
</g>
</g>
<!-- Node1&#45;&gt;Node12 -->
<g id="edge35" class="edge">
<title>Node1&#45;&gt;Node12</title>
<path fill="none" stroke="midnightblue" d="M689.81,-331.04C679.39,-339.07 665.76,-348.08 652,-352.92 599.66,-371.35 536.33,-375.15 490.47,-374.9"/>
<polygon fill="midnightblue" stroke="midnightblue" points="692.16,-333.64 697.75,-324.64 687.77,-328.2 692.16,-333.64"/>
</g>
<!-- Node20 -->
<g id="node20" class="node">
<title>Node20</title>
<g id="a_node20"><a xlink:href="group__grp__initialization.html#ga28628de0fdb3b3497668007d8d0643bd" target="_top" xlink:title="Allocates and initializes internal arrays.">
<polygon fill="white" stroke="black" points="526,-58.42 526,-77.42 570,-77.42 570,-58.42 526,-58.42"/>
<text text-anchor="middle" x="548" y="-65.42" font-family="Helvetica,sans-Serif" font-size="10.00">preset</text>
</a>
</g>
</g>
<!-- Node1&#45;&gt;Node20 -->
<g id="edge36" class="edge">
<title>Node1&#45;&gt;Node20</title>
<path fill="none" stroke="midnightblue" d="M696.67,-296.6C665,-247.56 579.05,-114.47 555.21,-77.54"/>
<polygon fill="midnightblue" stroke="midnightblue" points="693.88,-298.74 702.25,-305.24 699.76,-294.94 693.88,-298.74"/>
</g>
<!-- Node3 -->
<g id="node3" class="node">
<title>Node3</title>
<g id="a_node3"><a xlink:href="group__grp__global__force.html#ga38c9d3c50bd043707fefa5137c9dbf44" target="_top" xlink:title="Calculates , where &#160;and , and .">
<polygon fill="white" stroke="black" points="526,-191.42 526,-210.42 570,-210.42 570,-191.42 526,-191.42"/>
<text text-anchor="middle" x="548" y="-198.42" font-family="Helvetica,sans-Serif" font-size="10.00">dforce</text>
</a>
</g>
</g>
<!-- Node2&#45;&gt;Node3 -->
<g id="edge2" class="edge">
<title>Node2&#45;&gt;Node3</title>
<path fill="none" stroke="midnightblue" d="M616.99,-315.39C600,-286.78 567.98,-232.87 554.84,-210.76"/>
<polygon fill="midnightblue" stroke="midnightblue" points="614.2,-317.55 622.32,-324.36 620.22,-313.97 614.2,-317.55"/>
</g>
<!-- Node15 -->
<g id="node15" class="node">
<title>Node15</title>
<g id="a_node15"><a xlink:href="dfp200_8f90.html#a73ddf39ecc5228201fb643779e17cd36" target="_top" xlink:title="Evaluate mu and psip derivatives and store them in dmupfdx.">
<polygon fill="white" stroke="black" points="140,-400.42 140,-419.42 235,-419.42 235,-400.42 140,-400.42"/>
<text text-anchor="middle" x="187.5" y="-407.42" font-family="Helvetica,sans-Serif" font-size="10.00">evaluate_dmupfdx</text>
</a>
</g>
</g>
<!-- Node2&#45;&gt;Node15 -->
<g id="edge34" class="edge">
<title>Node2&#45;&gt;Node15</title>
<path fill="none" stroke="midnightblue" d="M601.09,-348.16C573.9,-361.79 530.26,-381.61 490,-390.92 401.6,-411.37 294.99,-412.86 235.15,-411.68"/>
<polygon fill="midnightblue" stroke="midnightblue" points="603.01,-351.11 610.33,-343.45 599.83,-344.88 603.01,-351.11"/>
</g>
<!-- Node4 -->
<g id="node4" class="node">
<title>Node4</title>
<g id="a_node4"><a xlink:href="namespaceallglobal.html#a7824bc37519fe88336534ce90ab2af16" target="_top" xlink:title=" ">
<polygon fill="white" stroke="black" points="370.5,-20.42 370.5,-39.42 484.5,-39.42 484.5,-20.42 370.5,-20.42"/>
<text text-anchor="middle" x="427.5" y="-27.42" font-family="Helvetica,sans-Serif" font-size="10.00">allglobal::check_inputs</text>
</a>
</g>
</g>
<!-- Node3&#45;&gt;Node4 -->
<g id="edge3" class="edge">
<title>Node3&#45;&gt;Node4</title>
<path fill="none" stroke="midnightblue" d="M545.11,-181.14C540.96,-148.87 528.16,-84.89 490,-48.92 485.85,-45.01 480.92,-41.91 475.67,-39.44"/>
<polygon fill="midnightblue" stroke="midnightblue" points="541.63,-181.59 546.24,-191.14 548.59,-180.81 541.63,-181.59"/>
</g>
<!-- Node6 -->
<g id="node6" class="node">
<title>Node6</title>
<g id="a_node6"><a xlink:href="xspech_8f90.html#a48f45478dc2c9f70ea8aa1c60ad06503" target="_top" xlink:title=" ">
<polygon fill="white" stroke="black" points="168.5,-58.42 168.5,-77.42 206.5,-77.42 206.5,-58.42 168.5,-58.42"/>
<text text-anchor="middle" x="187.5" y="-65.42" font-family="Helvetica,sans-Serif" font-size="10.00">spec</text>
</a>
</g>
</g>
<!-- Node3&#45;&gt;Node6 -->
<g id="edge33" class="edge">
<title>Node3&#45;&gt;Node6</title>
<path fill="none" stroke="midnightblue" d="M532.33,-183.37C521.7,-171.72 506.38,-156.96 490,-147.92 439.5,-120.06 264.31,-83.18 206.89,-71.58"/>
<polygon fill="midnightblue" stroke="midnightblue" points="529.96,-185.97 539.19,-191.18 535.22,-181.35 529.96,-185.97"/>
</g>
<!-- Node8 -->
<g id="node8" class="node">
<title>Node8</title>
<g id="a_node8"><a xlink:href="group__grp__force__driver.html#gabbc245b3884ee8d8d3e2a52f25149f78" target="_top" xlink:title="fcn1">
<polygon fill="white" stroke="black" points="410,-172.42 410,-191.42 445,-191.42 445,-172.42 410,-172.42"/>
<text text-anchor="middle" x="427.5" y="-179.42" font-family="Helvetica,sans-Serif" font-size="10.00">fcn1</text>
</a>
</g>
</g>
<!-- Node3&#45;&gt;Node8 -->
<g id="edge8" class="edge">
<title>Node3&#45;&gt;Node8</title>
<path fill="none" stroke="midnightblue" d="M515.69,-195.9C493.13,-192.29 463.55,-187.54 445.29,-184.62"/>
<polygon fill="midnightblue" stroke="midnightblue" points="515.39,-199.4 525.81,-197.53 516.49,-192.49 515.39,-199.4"/>
</g>
<!-- Node9 -->
<g id="node9" class="node">
<title>Node9</title>
<g id="a_node9"><a xlink:href="group__grp__force__driver.html#gaec14f81fbdbedafbc4189489ec8ae178" target="_top" xlink:title="Employs Newton method to find , where &#160;and &#160;is defined in dforce() .">
<polygon fill="white" stroke="black" points="281,-153.42 281,-172.42 329,-172.42 329,-153.42 281,-153.42"/>
<text text-anchor="middle" x="305" y="-160.42" font-family="Helvetica,sans-Serif" font-size="10.00">newton</text>
</a>
</g>
</g>
<!-- Node3&#45;&gt;Node9 -->
<g id="edge30" class="edge">
<title>Node3&#45;&gt;Node9</title>
<path fill="none" stroke="midnightblue" d="M528.68,-184.64C518.15,-176.39 504.23,-167.23 490,-162.92 434.36,-146.08 364.83,-153.18 329.29,-158.7"/>
<polygon fill="midnightblue" stroke="midnightblue" points="526.71,-187.56 536.65,-191.23 531.17,-182.16 526.71,-187.56"/>
</g>
<!-- Node10 -->
<g id="node10" class="node">
<title>Node10</title>
<g id="a_node10"><a xlink:href="group__grp__force__driver.html#ga8ccd6c7d901872702521d0a0edf95412" target="_top" xlink:title="fcn2">
<polygon fill="white" stroke="black" points="29.5,-148.42 29.5,-167.42 64.5,-167.42 64.5,-148.42 29.5,-148.42"/>
<text text-anchor="middle" x="47" y="-155.42" font-family="Helvetica,sans-Serif" font-size="10.00">fcn2</text>
</a>
</g>
</g>
<!-- Node3&#45;&gt;Node10 -->
<g id="edge17" class="edge">
<title>Node3&#45;&gt;Node10</title>
<path fill="none" stroke="midnightblue" d="M515.78,-205.93C445.58,-216.12 270.41,-235.51 130,-200.92 103.93,-194.5 76.98,-178.16 61.39,-167.57"/>
<polygon fill="midnightblue" stroke="midnightblue" points="516.37,-209.38 525.75,-204.45 515.34,-202.46 516.37,-209.38"/>
</g>
<!-- Node3&#45;&gt;Node12 -->
<g id="edge18" class="edge">
<title>Node3&#45;&gt;Node12</title>
<path fill="none" stroke="midnightblue" d="M544.48,-220.62C539.51,-251.69 525.64,-312.2 490,-347.92 483.77,-354.17 475.72,-358.83 467.51,-362.29"/>
<polygon fill="midnightblue" stroke="midnightblue" points="547.96,-221.01 545.93,-210.61 541.03,-220 547.96,-221.01"/>
</g>
<!-- Node17 -->
<g id="node17" class="node">
<title>Node17</title>
<g id="a_node17"><a xlink:href="group__grp__diagnostics.html#ga7401b50ec10c6598ee4a8112717a63ec" target="_top" xlink:title="Computes eigenvalues and eigenvectors of derivative matrix, .">
<polygon fill="white" stroke="black" points="405,-58.42 405,-77.42 450,-77.42 450,-58.42 405,-58.42"/>
<text text-anchor="middle" x="427.5" y="-65.42" font-family="Helvetica,sans-Serif" font-size="10.00">hesian</text>
</a>
</g>
</g>
<!-- Node3&#45;&gt;Node17 -->
<g id="edge28" class="edge">
<title>Node3&#45;&gt;Node17</title>
<path fill="none" stroke="midnightblue" d="M541.53,-181.57C533.79,-157.48 517.45,-116.51 490,-91.92 478.82,-81.91 462.97,-75.86 450.17,-72.34"/>
<polygon fill="midnightblue" stroke="midnightblue" points="538.24,-182.78 544.49,-191.34 544.94,-180.75 538.24,-182.78"/>
</g>
<!-- Node18 -->
<g id="node18" class="node">
<title>Node18</title>
<g id="a_node18"><a xlink:href="group__grp__conjugate__gradient.html#ga4d8415226e62a9fdb42b0fd0b464251e" target="_top" xlink:title="Returns the energy functional and it&#39;s derivatives with respect to geometry.">
<polygon fill="white" stroke="black" points="403.5,-248.42 403.5,-267.42 451.5,-267.42 451.5,-248.42 403.5,-248.42"/>
<text text-anchor="middle" x="427.5" y="-255.42" font-family="Helvetica,sans-Serif" font-size="10.00">pc00ab</text>
</a>
</g>
</g>
<!-- Node3&#45;&gt;Node18 -->
<g id="edge31" class="edge">
<title>Node3&#45;&gt;Node18</title>
<path fill="none" stroke="midnightblue" d="M523.23,-215.77C513.17,-221.77 501.2,-228.53 490,-233.92 477.61,-239.89 463.32,-245.53 451.64,-249.85"/>
<polygon fill="midnightblue" stroke="midnightblue" points="525.13,-218.72 531.86,-210.54 521.5,-212.73 525.13,-218.72"/>
</g>
<!-- Node5 -->
<g id="node5" class="node">
<title>Node5</title>
<g id="a_node5"><a xlink:href="xspech_8f90.html#aea782eae089760a491c2c54f9903abcc" target="_top" xlink:title="Main program of SPEC.">
<polygon fill="white" stroke="black" points="281.5,-20.42 281.5,-39.42 328.5,-39.42 328.5,-20.42 281.5,-20.42"/>
<text text-anchor="middle" x="305" y="-27.42" font-family="Helvetica,sans-Serif" font-size="10.00">xspech</text>
</a>
</g>
</g>
<!-- Node4&#45;&gt;Node5 -->
<g id="edge4" class="edge">
<title>Node4&#45;&gt;Node5</title>
<path fill="none" stroke="midnightblue" d="M360.45,-29.92C349.06,-29.92 337.95,-29.92 328.77,-29.92"/>
<polygon fill="midnightblue" stroke="midnightblue" points="360.48,-33.42 370.48,-29.92 360.48,-26.42 360.48,-33.42"/>
</g>
<!-- Node5&#45;&gt;Node6 -->
<g id="edge5" class="edge">
<title>Node5&#45;&gt;Node6</title>
<path fill="none" stroke="midnightblue" d="M271.67,-34.43C249.25,-40.64 220.45,-50.6 203.29,-58.36"/>
<polygon fill="midnightblue" stroke="midnightblue" points="272.67,-37.78 281.46,-31.86 270.9,-31.01 272.67,-37.78"/>
</g>
<!-- Node6&#45;&gt;Node5 -->
<g id="edge7" class="edge">
<title>Node6&#45;&gt;Node5</title>
<path fill="none" stroke="midnightblue" d="M216.44,-64.61C239.23,-58.58 270.55,-47.89 288.9,-39.62"/>
<polygon fill="midnightblue" stroke="midnightblue" points="215.52,-61.23 206.65,-67.03 217.19,-68.03 215.52,-61.23"/>
</g>
<!-- Node7 -->
<g id="node7" class="node">
<title>Node7</title>
<g id="a_node7"><a xlink:href="sphdf5_8f90.html#a0f962c09cd5d5eba99f1cba043cb3898" target="_top" xlink:title="initialize the interface to the HDF5 library and open the output file">
<polygon fill="white" stroke="black" points="0,-58.42 0,-77.42 94,-77.42 94,-58.42 0,-58.42"/>
<text text-anchor="middle" x="47" y="-65.42" font-family="Helvetica,sans-Serif" font-size="10.00">sphdf5::init_outfile</text>
</a>
</g>
</g>
<!-- Node6&#45;&gt;Node7 -->
<g id="edge6" class="edge">
<title>Node6&#45;&gt;Node7</title>
<path fill="none" stroke="midnightblue" d="M158.31,-67.92C139.87,-67.92 115.36,-67.92 94.12,-67.92"/>
<polygon fill="midnightblue" stroke="midnightblue" points="158.39,-71.42 168.39,-67.92 158.39,-64.42 158.39,-71.42"/>
</g>
<!-- Node8&#45;&gt;Node9 -->
<g id="edge9" class="edge">
<title>Node8&#45;&gt;Node9</title>
<path fill="none" stroke="midnightblue" d="M399.8,-172C378.65,-167.2 349.4,-162.68 329.22,-161.13"/>
<polygon fill="midnightblue" stroke="midnightblue" points="399.2,-175.45 409.74,-174.44 400.87,-168.65 399.2,-175.45"/>
</g>
<!-- Node9&#45;&gt;Node6 -->
<g id="edge13" class="edge">
<title>Node9&#45;&gt;Node6</title>
<path fill="none" stroke="midnightblue" d="M285.6,-146.59C274.06,-136.46 258.81,-123.26 245,-111.92 230.2,-99.78 212.76,-86.32 201.21,-77.53"/>
<polygon fill="midnightblue" stroke="midnightblue" points="283.45,-149.37 293.27,-153.36 288.08,-144.12 283.45,-149.37"/>
</g>
<!-- Node9&#45;&gt;Node8 -->
<g id="edge10" class="edge">
<title>Node9&#45;&gt;Node8</title>
<path fill="none" stroke="midnightblue" d="M339.21,-174.27C362.11,-179.04 391.58,-183.27 409.74,-184.13"/>
<polygon fill="midnightblue" stroke="midnightblue" points="339.74,-170.8 329.22,-172.04 338.22,-177.63 339.74,-170.8"/>
</g>
<!-- Node9&#45;&gt;Node10 -->
<g id="edge11" class="edge">
<title>Node9&#45;&gt;Node10</title>
<path fill="none" stroke="midnightblue" d="M270.84,-157.56C215.53,-153.42 106.41,-151.68 64.72,-154.7"/>
<polygon fill="midnightblue" stroke="midnightblue" points="270.57,-161.05 280.83,-158.39 271.15,-154.08 270.57,-161.05"/>
</g>
<!-- Node9&#45;&gt;Node11 -->
<g id="edge14" class="edge">
<title>Node9&#45;&gt;Node11</title>
<path fill="none" stroke="midnightblue" d="M270.75,-162.21C252.09,-164.36 229.23,-168.32 212.35,-172.41"/>
<polygon fill="midnightblue" stroke="midnightblue" points="271.3,-165.68 280.9,-161.2 270.61,-158.71 271.3,-165.68"/>
</g>
<!-- Node10&#45;&gt;Node9 -->
<g id="edge12" class="edge">
<title>Node10&#45;&gt;Node9</title>
<path fill="none" stroke="midnightblue" d="M74.85,-162.78C125.28,-167.07 233.36,-169.1 280.83,-166.55"/>
<polygon fill="midnightblue" stroke="midnightblue" points="75.01,-159.28 64.72,-161.8 74.34,-166.25 75.01,-159.28"/>
</g>
<!-- Node11&#45;&gt;Node9 -->
<g id="edge16" class="edge">
<title>Node11&#45;&gt;Node9</title>
<path fill="none" stroke="midnightblue" d="M230.57,-181.53C247.56,-179.23 266.51,-175.78 280.9,-172.25"/>
<polygon fill="midnightblue" stroke="midnightblue" points="229.8,-178.1 220.3,-182.8 230.66,-185.04 229.8,-178.1"/>
</g>
<!-- Node11&#45;&gt;Node10 -->
<g id="edge15" class="edge">
<title>Node11&#45;&gt;Node10</title>
<path fill="none" stroke="midnightblue" d="M144.76,-174.69C117.8,-170.02 84.2,-164.2 64.52,-160.79"/>
<polygon fill="midnightblue" stroke="midnightblue" points="144.27,-178.16 154.73,-176.42 145.47,-171.26 144.27,-178.16"/>
</g>
<!-- Node13 -->
<g id="node13" class="node">
<title>Node13</title>
<g id="a_node13"><a xlink:href="dfp200_8f90.html#a55ea75395f8c71731451e1add3720c7e" target="_top" xlink:title="Given the field consistent with the constraints and the geometry, computes local quantites related to...">
<polygon fill="white" stroke="black" points="282,-362.42 282,-381.42 328,-381.42 328,-362.42 282,-362.42"/>
<text text-anchor="middle" x="305" y="-369.42" font-family="Helvetica,sans-Serif" font-size="10.00">dfp200</text>
</a>
</g>
</g>
<!-- Node12&#45;&gt;Node13 -->
<g id="edge19" class="edge">
<title>Node12&#45;&gt;Node13</title>
<path fill="none" stroke="midnightblue" d="M354.69,-365.29C345.05,-365.47 335.82,-365.9 328.04,-366.56"/>
<polygon fill="midnightblue" stroke="midnightblue" points="354.88,-368.78 364.84,-365.18 354.8,-361.78 354.88,-368.78"/>
</g>
<!-- Node13&#45;&gt;Node3 -->
<g id="edge20" class="edge">
<title>Node13&#45;&gt;Node3</title>
<path fill="none" stroke="midnightblue" d="M337.72,-360.64C376.57,-345.74 443,-316.67 490,-276.92 513.17,-257.33 532.48,-226.64 541.51,-210.93"/>
<polygon fill="midnightblue" stroke="midnightblue" points="336.13,-357.5 328,-364.29 338.59,-364.05 336.13,-357.5"/>
</g>
<!-- Node13&#45;&gt;Node12 -->
<g id="edge25" class="edge">
<title>Node13&#45;&gt;Node12</title>
<path fill="none" stroke="midnightblue" d="M338.28,-377.98C346.52,-378.42 355.66,-378.65 364.84,-378.67"/>
<polygon fill="midnightblue" stroke="midnightblue" points="338.26,-374.47 328.04,-377.28 337.78,-381.45 338.26,-374.47"/>
</g>
<!-- Node14 -->
<g id="node14" class="node">
<title>Node14</title>
<g id="a_node14"><a xlink:href="dfp200_8f90.html#a7b64c7392b45d0042d8bd7379c0761a5" target="_top" xlink:title="Evaluate the derivative of the square of the magnetic field modulus. Add spectral constraint derivati...">
<polygon fill="white" stroke="black" points="150.5,-362.42 150.5,-381.42 224.5,-381.42 224.5,-362.42 150.5,-362.42"/>
<text text-anchor="middle" x="187.5" y="-369.42" font-family="Helvetica,sans-Serif" font-size="10.00">evaluate_dbb</text>
</a>
</g>
</g>
<!-- Node13&#45;&gt;Node14 -->
<g id="edge21" class="edge">
<title>Node13&#45;&gt;Node14</title>
<path fill="none" stroke="midnightblue" d="M271.66,-365.79C257.08,-365.03 239.81,-364.97 224.79,-365.61"/>
<polygon fill="midnightblue" stroke="midnightblue" points="271.52,-369.29 281.73,-366.47 271.99,-362.31 271.52,-369.29"/>
</g>
<!-- Node13&#45;&gt;Node15 -->
<g id="edge23" class="edge">
<title>Node13&#45;&gt;Node15</title>
<path fill="none" stroke="midnightblue" d="M271.95,-376.35C249.52,-382.55 220.6,-392.54 203.36,-400.33"/>
<polygon fill="midnightblue" stroke="midnightblue" points="272.94,-379.71 281.73,-373.79 271.17,-372.94 272.94,-379.71"/>
</g>
<!-- Node16 -->
<g id="node16" class="node">
<title>Node16</title>
<g id="a_node16"><a xlink:href="dfp200_8f90.html#a5e56f1f4b1e6df11a9cffa6237c37469" target="_top" xlink:title="This routine evaluates the value of the magnetic field once the interface is perturbed using matrix p...">
<polygon fill="white" stroke="black" points="130,-324.42 130,-343.42 245,-343.42 245,-324.42 130,-324.42"/>
<text text-anchor="middle" x="187.5" y="-331.42" font-family="Helvetica,sans-Serif" font-size="10.00">get_perturbed_solution</text>
</a>
</g>
</g>
<!-- Node13&#45;&gt;Node16 -->
<g id="edge26" class="edge">
<title>Node13&#45;&gt;Node16</title>
<path fill="none" stroke="midnightblue" d="M279.49,-358.22C267.37,-353.32 252.29,-348 237.9,-343.49"/>
<polygon fill="midnightblue" stroke="midnightblue" points="278.33,-361.53 288.9,-362.22 281.07,-355.09 278.33,-361.53"/>
</g>
<!-- Node14&#45;&gt;Node13 -->
<g id="edge22" class="edge">
<title>Node14&#45;&gt;Node13</title>
<path fill="none" stroke="midnightblue" d="M235.13,-378.56C251.22,-378.89 268.5,-378.5 281.73,-377.38"/>
<polygon fill="midnightblue" stroke="midnightblue" points="234.89,-375.05 224.79,-378.24 234.67,-382.05 234.89,-375.05"/>
</g>
<!-- Node15&#45;&gt;Node13 -->
<g id="edge24" class="edge">
<title>Node15&#45;&gt;Node13</title>
<path fill="none" stroke="midnightblue" d="M244.62,-398.21C260.95,-392.88 277.45,-386.78 288.9,-381.62"/>
<polygon fill="midnightblue" stroke="midnightblue" points="243.54,-394.88 235.06,-401.24 245.65,-401.55 243.54,-394.88"/>
</g>
<!-- Node16&#45;&gt;Node13 -->
<g id="edge27" class="edge">
<title>Node16&#45;&gt;Node13</title>
<path fill="none" stroke="midnightblue" d="M212.59,-347.46C232.96,-355.73 261.9,-365.2 281.73,-370.05"/>
<polygon fill="midnightblue" stroke="midnightblue" points="213.93,-344.22 203.36,-343.52 211.19,-350.66 213.93,-344.22"/>
</g>
<!-- Node17&#45;&gt;Node6 -->
<g id="edge29" class="edge">
<title>Node17&#45;&gt;Node6</title>
<path fill="none" stroke="midnightblue" d="M394.92,-67.92C344.33,-67.92 246.75,-67.92 206.52,-67.92"/>
<polygon fill="midnightblue" stroke="midnightblue" points="394.96,-71.42 404.96,-67.92 394.96,-64.42 394.96,-71.42"/>
</g>
<!-- Node19 -->
<g id="node19" class="node">
<title>Node19</title>
<g id="a_node19"><a xlink:href="group__grp__conjugate__gradient.html#ga25a3bae2ff2ee0469b045de0d033398b" target="_top" xlink:title="Use preconditioned conjugate gradient method to find minimum of energy functional.">
<polygon fill="white" stroke="black" points="281,-248.42 281,-267.42 329,-267.42 329,-248.42 281,-248.42"/>
<text text-anchor="middle" x="305" y="-255.42" font-family="Helvetica,sans-Serif" font-size="10.00">pc00aa</text>
</a>
</g>
</g>
<!-- Node18&#45;&gt;Node19 -->
<g id="edge32" class="edge">
<title>Node18&#45;&gt;Node19</title>
<path fill="none" stroke="midnightblue" d="M393.16,-257.92C372.81,-257.92 347.31,-257.92 329.16,-257.92"/>
<polygon fill="midnightblue" stroke="midnightblue" points="393.27,-261.42 403.27,-257.92 393.27,-254.42 393.27,-261.42"/>
</g>
<!-- Node20&#45;&gt;Node5 -->
<g id="edge38" class="edge">
<title>Node20&#45;&gt;Node5</title>
<path fill="none" stroke="midnightblue" d="M535.27,-50.19C525.12,-36.58 509.09,-18.83 490,-10.92 435.41,11.69 364.24,-8.02 328.52,-20.89"/>
<polygon fill="midnightblue" stroke="midnightblue" points="532.44,-52.24 541.07,-58.38 538.15,-48.2 532.44,-52.24"/>
</g>
<!-- Node20&#45;&gt;Node17 -->
<g id="edge37" class="edge">
<title>Node20&#45;&gt;Node17</title>
<path fill="none" stroke="midnightblue" d="M515.65,-67.92C495.05,-67.92 468.63,-67.92 450.3,-67.92"/>
<polygon fill="midnightblue" stroke="midnightblue" points="515.81,-71.42 525.81,-67.92 515.81,-64.42 515.81,-71.42"/>
</g>
</g>
</svg>
