<?xml version="1.0" encoding="UTF-8" standalone="no"?>
<!DOCTYPE svg PUBLIC "-//W3C//DTD SVG 1.1//EN"
 "http://www.w3.org/Graphics/SVG/1.1/DTD/svg11.dtd">
<!-- Generated by graphviz version 2.47.1 (0)
 -->
<!-- Title: newton Pages: 1 -->
<svg width="370pt" height="160pt"
 viewBox="0.00 0.00 370.00 160.00" xmlns="http://www.w3.org/2000/svg" xmlns:xlink="http://www.w3.org/1999/xlink">
<g id="graph0" class="graph" transform="scale(1 1) rotate(0) translate(4 156)">
<title>newton</title>
<polygon fill="white" stroke="transparent" points="-4,4 -4,-156 366,-156 366,4 -4,4"/>
<!-- Node1 -->
<g id="node1" class="node">
<title>Node1</title>
<g id="a_node1"><a xlink:title="Employs Newton method to find , where &#160;and &#160;is defined in dforce() .">
<polygon fill="#bfbfbf" stroke="black" points="314,-85.5 314,-104.5 362,-104.5 362,-85.5 314,-85.5"/>
<text text-anchor="middle" x="338" y="-92.5" font-family="Helvetica,sans-Serif" font-size="10.00">newton</text>
</a>
</g>
</g>
<!-- Node2 -->
<g id="node2" class="node">
<title>Node2</title>
<g id="a_node2"><a xlink:href="group__grp__force__driver.html#gabbc245b3884ee8d8d3e2a52f25149f78" target="_top" xlink:title="fcn1">
<polygon fill="white" stroke="black" points="228,-132.5 228,-151.5 263,-151.5 263,-132.5 228,-132.5"/>
<text text-anchor="middle" x="245.5" y="-139.5" font-family="Helvetica,sans-Serif" font-size="10.00">fcn1</text>
</a>
</g>
</g>
<!-- Node1&#45;&gt;Node2 -->
<g id="edge1" class="edge">
<title>Node1&#45;&gt;Node2</title>
<path fill="none" stroke="midnightblue" d="M304.18,-105.53C287.41,-113.6 268.16,-124.28 256.68,-132.25"/>
<polygon fill="midnightblue" stroke="midnightblue" points="306.09,-108.5 313.69,-101.12 303.15,-102.15 306.09,-108.5"/>
</g>
<!-- Node3 -->
<g id="node3" class="node">
<title>Node3</title>
<g id="a_node3"><a xlink:href="group__grp__force__driver.html#ga8ccd6c7d901872702521d0a0edf95412" target="_top" xlink:title="fcn2">
<polygon fill="white" stroke="black" points="112.5,-85.5 112.5,-104.5 147.5,-104.5 147.5,-85.5 112.5,-85.5"/>
<text text-anchor="middle" x="130" y="-92.5" font-family="Helvetica,sans-Serif" font-size="10.00">fcn2</text>
</a>
</g>
</g>
<!-- Node1&#45;&gt;Node3 -->
<g id="edge3" class="edge">
<title>Node1&#45;&gt;Node3</title>
<path fill="none" stroke="midnightblue" d="M303.71,-89.87C259.07,-87.35 181.52,-87.77 147.64,-91.11"/>
<polygon fill="midnightblue" stroke="midnightblue" points="303.56,-93.37 313.77,-90.54 304.02,-86.39 303.56,-93.37"/>
</g>
<!-- Node4 -->
<g id="node4" class="node">
<title>Node4</title>
<g id="a_node4"><a xlink:href="xspech_8f90.html#a48f45478dc2c9f70ea8aa1c60ad06503" target="_top" xlink:title=" ">
<polygon fill="white" stroke="black" points="226.5,-0.5 226.5,-19.5 264.5,-19.5 264.5,-0.5 226.5,-0.5"/>
<text text-anchor="middle" x="245.5" y="-7.5" font-family="Helvetica,sans-Serif" font-size="10.00">spec</text>
</a>
</g>
</g>
<!-- Node1&#45;&gt;Node4 -->
<g id="edge5" class="edge">
<title>Node1&#45;&gt;Node4</title>
<path fill="none" stroke="midnightblue" d="M323.57,-77.25C312.36,-63.15 295.44,-43.46 278,-29 273.87,-25.58 269.06,-22.35 264.46,-19.57"/>
<polygon fill="midnightblue" stroke="midnightblue" points="320.87,-79.47 329.77,-85.21 326.39,-75.17 320.87,-79.47"/>
</g>
<!-- Node7 -->
<g id="node7" class="node">
<title>Node7</title>
<g id="a_node7"><a xlink:href="group__grp__force__driver.html#ga382822b303cbf8c56d6f54dcb379caf2" target="_top" xlink:title="read or write force&#45;derivative matrix">
<polygon fill="white" stroke="black" points="213,-38.5 213,-57.5 278,-57.5 278,-38.5 213,-38.5"/>
<text text-anchor="middle" x="245.5" y="-45.5" font-family="Helvetica,sans-Serif" font-size="10.00">writereadgf</text>
</a>
</g>
</g>
<!-- Node1&#45;&gt;Node7 -->
<g id="edge10" class="edge">
<title>Node1&#45;&gt;Node7</title>
<path fill="none" stroke="midnightblue" d="M318.43,-79.78C306.65,-72.48 291.12,-64.12 277.5,-57.65"/>
<polygon fill="midnightblue" stroke="midnightblue" points="316.68,-82.82 326.97,-85.36 320.51,-76.96 316.68,-82.82"/>
</g>
<!-- Node2&#45;&gt;Node1 -->
<g id="edge2" class="edge">
<title>Node2&#45;&gt;Node1</title>
<path fill="none" stroke="midnightblue" d="M272.23,-134.8C290.44,-126.52 313.86,-113.78 326.97,-104.64"/>
<polygon fill="midnightblue" stroke="midnightblue" points="270.8,-131.6 263.01,-138.78 273.57,-138.03 270.8,-131.6"/>
</g>
<!-- Node3&#45;&gt;Node1 -->
<g id="edge4" class="edge">
<title>Node3&#45;&gt;Node1</title>
<path fill="none" stroke="midnightblue" d="M157.62,-99.71C198.3,-102.51 275.23,-102.43 313.77,-99.46"/>
<polygon fill="midnightblue" stroke="midnightblue" points="157.9,-96.22 147.64,-98.89 157.32,-103.2 157.9,-96.22"/>
</g>
<!-- Node5 -->
<g id="node5" class="node">
<title>Node5</title>
<g id="a_node5"><a xlink:href="group__grp__output.html#ga0f962c09cd5d5eba99f1cba043cb3898" target="_top" xlink:title="Initialize the interface to the HDF5 library and open the output file.">
<polygon fill="white" stroke="black" points="83,-47.5 83,-66.5 177,-66.5 177,-47.5 83,-47.5"/>
<text text-anchor="middle" x="130" y="-54.5" font-family="Helvetica,sans-Serif" font-size="10.00">sphdf5::init_outfile</text>
</a>
</g>
</g>
<!-- Node4&#45;&gt;Node5 -->
<g id="edge6" class="edge">
<title>Node4&#45;&gt;Node5</title>
<path fill="none" stroke="midnightblue" d="M216.86,-21.44C197.7,-29.38 172.45,-39.84 154.3,-47.35"/>
<polygon fill="midnightblue" stroke="midnightblue" points="218.36,-24.61 226.26,-17.55 215.69,-18.14 218.36,-24.61"/>
</g>
<!-- Node6 -->
<g id="node6" class="node">
<title>Node6</title>
<g id="a_node6"><a xlink:href="xspech_8f90.html#aea782eae089760a491c2c54f9903abcc" target="_top" xlink:title="Main program of SPEC.">
<polygon fill="white" stroke="black" points="0,-0.5 0,-19.5 47,-19.5 47,-0.5 0,-0.5"/>
<text text-anchor="middle" x="23.5" y="-7.5" font-family="Helvetica,sans-Serif" font-size="10.00">xspech</text>
</a>
</g>
</g>
<!-- Node4&#45;&gt;Node6 -->
<g id="edge9" class="edge">
<title>Node4&#45;&gt;Node6</title>
<path fill="none" stroke="midnightblue" d="M216.48,-5.32C172.43,-2.44 87.86,-2.57 47.3,-5.69"/>
<polygon fill="midnightblue" stroke="midnightblue" points="216.26,-8.81 226.5,-6.09 216.79,-1.83 216.26,-8.81"/>
</g>
<!-- Node5&#45;&gt;Node6 -->
<g id="edge7" class="edge">
<title>Node5&#45;&gt;Node6</title>
<path fill="none" stroke="midnightblue" d="M98.43,-43.25C81.59,-35.68 61.11,-26.46 45.97,-19.66"/>
<polygon fill="midnightblue" stroke="midnightblue" points="97.3,-46.58 107.85,-47.49 100.17,-40.19 97.3,-46.58"/>
</g>
<!-- Node6&#45;&gt;Node4 -->
<g id="edge8" class="edge">
<title>Node6&#45;&gt;Node4</title>
<path fill="none" stroke="midnightblue" d="M57.29,-14.97C104.36,-17.65 189.48,-17.3 226.5,-13.91"/>
<polygon fill="midnightblue" stroke="midnightblue" points="57.51,-11.48 47.3,-14.31 57.05,-18.47 57.51,-11.48"/>
</g>
<!-- Node7&#45;&gt;Node1 -->
<g id="edge12" class="edge">
<title>Node7&#45;&gt;Node1</title>
<path fill="none" stroke="midnightblue" d="M265.06,-63.21C279.13,-71.94 298.57,-82.17 313.69,-88.88"/>
<polygon fill="midnightblue" stroke="midnightblue" points="266.97,-60.28 256.68,-57.75 263.15,-66.14 266.97,-60.28"/>
</g>
<!-- Node7&#45;&gt;Node3 -->
<g id="edge11" class="edge">
<title>Node7&#45;&gt;Node3</title>
<path fill="none" stroke="midnightblue" d="M212.04,-61.48C200.93,-66.09 188.42,-71.27 177,-76 167.26,-80.03 156.36,-84.54 147.61,-88.15"/>
<polygon fill="midnightblue" stroke="midnightblue" points="213.49,-64.66 221.39,-57.6 210.81,-58.2 213.49,-64.66"/>
</g>
</g>
</svg>
