<?xml version="1.0" encoding="UTF-8" standalone="no"?>
<!DOCTYPE svg PUBLIC "-//W3C//DTD SVG 1.1//EN"
 "http://www.w3.org/Graphics/SVG/1.1/DTD/svg11.dtd">
<!-- Generated by graphviz version 2.47.1 (20210421.1823)
 -->
<!-- Title: metrix Pages: 1 -->
<svg width="826pt" height="409pt"
 viewBox="0.00 0.00 826.00 408.94" xmlns="http://www.w3.org/2000/svg" xmlns:xlink="http://www.w3.org/1999/xlink">
<g id="graph0" class="graph" transform="scale(1 1) rotate(0) translate(4 404.94)">
<title>metrix</title>
<polygon fill="white" stroke="transparent" points="-4,4 -4,-404.94 822,-404.94 822,4 -4,4"/>
<!-- Node1 -->
<g id="node1" class="node">
<title>Node1</title>
<g id="a_node1"><a xlink:title="Calculates the metric quantities, , which are required for the energy and helicity integrals.">
<polygon fill="#bfbfbf" stroke="black" points="775,-57.5 775,-76.5 818,-76.5 818,-57.5 775,-57.5"/>
<text text-anchor="middle" x="796.5" y="-64.5" font-family="Helvetica,sans-Serif" font-size="10.00">metrix</text>
</a>
</g>
</g>
<!-- Node2 -->
<g id="node2" class="node">
<title>Node2</title>
<g id="a_node2"><a xlink:href="group__grp__integrals.html#ga400af9e33dd5465ff9a4bba9fbf91108" target="_top" xlink:title="Calculates volume integrals of Chebyshev polynomials and metric element products.">
<polygon fill="white" stroke="black" points="688,-57.5 688,-76.5 739,-76.5 739,-57.5 688,-57.5"/>
<text text-anchor="middle" x="713.5" y="-64.5" font-family="Helvetica,sans-Serif" font-size="10.00">ma00aa</text>
</a>
</g>
</g>
<!-- Node1&#45;&gt;Node2 -->
<g id="edge1" class="edge">
<title>Node1&#45;&gt;Node2</title>
<path fill="none" stroke="midnightblue" d="M764.41,-67C756,-67 747.02,-67 739.03,-67"/>
<polygon fill="midnightblue" stroke="midnightblue" points="764.64,-70.5 774.64,-67 764.64,-63.5 764.64,-70.5"/>
</g>
<!-- Node3 -->
<g id="node3" class="node">
<title>Node3</title>
<g id="a_node3"><a xlink:href="dfp100_8f90.html#a17a3ac15cc83994394f7b4cc05e5898e" target="_top" xlink:title="Split the work between MPI nodes and evaluate the global constraint.">
<polygon fill="white" stroke="black" points="606,-76.5 606,-95.5 652,-95.5 652,-76.5 606,-76.5"/>
<text text-anchor="middle" x="629" y="-83.5" font-family="Helvetica,sans-Serif" font-size="10.00">dfp100</text>
</a>
</g>
</g>
<!-- Node2&#45;&gt;Node3 -->
<g id="edge2" class="edge">
<title>Node2&#45;&gt;Node3</title>
<path fill="none" stroke="midnightblue" d="M677.84,-74.98C669.17,-76.98 660.09,-79.07 652.21,-80.89"/>
<polygon fill="midnightblue" stroke="midnightblue" points="678.79,-78.36 687.75,-72.7 677.22,-71.53 678.79,-78.36"/>
</g>
<!-- Node13 -->
<g id="node13" class="node">
<title>Node13</title>
<g id="a_node13"><a xlink:href="dfp200_8f90.html#a6aca59cf350d7b1941f8389d50945a43" target="_top" xlink:title="get LU Beltrami matrices">
<polygon fill="white" stroke="black" points="365,-38.5 365,-57.5 490,-57.5 490,-38.5 365,-38.5"/>
<text text-anchor="middle" x="427.5" y="-45.5" font-family="Helvetica,sans-Serif" font-size="10.00">get_lu_beltrami_matrices</text>
</a>
</g>
</g>
<!-- Node2&#45;&gt;Node13 -->
<g id="edge36" class="edge">
<title>Node2&#45;&gt;Node13</title>
<path fill="none" stroke="midnightblue" d="M677.58,-64.66C630.9,-61.54 547.38,-55.95 490.02,-52.12"/>
<polygon fill="midnightblue" stroke="midnightblue" points="677.58,-68.17 687.79,-65.35 678.05,-61.19 677.58,-68.17"/>
</g>
<!-- Node4 -->
<g id="node4" class="node">
<title>Node4</title>
<g id="a_node4"><a xlink:href="group__grp__global__force.html#ga38c9d3c50bd043707fefa5137c9dbf44" target="_top" xlink:title="Calculates , where &#160;and , and .">
<polygon fill="white" stroke="black" points="526,-209.5 526,-228.5 570,-228.5 570,-209.5 526,-209.5"/>
<text text-anchor="middle" x="548" y="-216.5" font-family="Helvetica,sans-Serif" font-size="10.00">dforce</text>
</a>
</g>
</g>
<!-- Node3&#45;&gt;Node4 -->
<g id="edge3" class="edge">
<title>Node3&#45;&gt;Node4</title>
<path fill="none" stroke="midnightblue" d="M616.99,-104.53C600,-133.14 567.98,-187.05 554.84,-209.16"/>
<polygon fill="midnightblue" stroke="midnightblue" points="620.22,-105.95 622.32,-95.57 614.2,-102.38 620.22,-105.95"/>
</g>
<!-- Node16 -->
<g id="node16" class="node">
<title>Node16</title>
<g id="a_node16"><a xlink:href="dfp200_8f90.html#a73ddf39ecc5228201fb643779e17cd36" target="_top" xlink:title="Evaluate mu and psip derivatives and store them in dmupfdx.">
<polygon fill="white" stroke="black" points="140,-76.5 140,-95.5 235,-95.5 235,-76.5 140,-76.5"/>
<text text-anchor="middle" x="187.5" y="-83.5" font-family="Helvetica,sans-Serif" font-size="10.00">evaluate_dmupfdx</text>
</a>
</g>
</g>
<!-- Node3&#45;&gt;Node16 -->
<g id="edge35" class="edge">
<title>Node3&#45;&gt;Node16</title>
<path fill="none" stroke="midnightblue" d="M595.88,-86C519.17,-86 325.02,-86 235.29,-86"/>
<polygon fill="midnightblue" stroke="midnightblue" points="595.9,-89.5 605.9,-86 595.9,-82.5 595.9,-89.5"/>
</g>
<!-- Node5 -->
<g id="node5" class="node">
<title>Node5</title>
<g id="a_node5"><a xlink:href="namespaceallglobal.html#a7824bc37519fe88336534ce90ab2af16" target="_top" xlink:title=" ">
<polygon fill="white" stroke="black" points="370.5,-342.5 370.5,-361.5 484.5,-361.5 484.5,-342.5 370.5,-342.5"/>
<text text-anchor="middle" x="427.5" y="-349.5" font-family="Helvetica,sans-Serif" font-size="10.00">allglobal::check_inputs</text>
</a>
</g>
</g>
<!-- Node4&#45;&gt;Node5 -->
<g id="edge4" class="edge">
<title>Node4&#45;&gt;Node5</title>
<path fill="none" stroke="midnightblue" d="M541.53,-238.35C533.79,-262.44 517.45,-303.41 490,-328 483.09,-334.19 474.39,-338.87 465.73,-342.37"/>
<polygon fill="midnightblue" stroke="midnightblue" points="544.94,-239.17 544.49,-228.59 538.24,-237.14 544.94,-239.17"/>
</g>
<!-- Node7 -->
<g id="node7" class="node">
<title>Node7</title>
<g id="a_node7"><a xlink:href="xspech_8f90.html#a48f45478dc2c9f70ea8aa1c60ad06503" target="_top" xlink:title=" ">
<polygon fill="white" stroke="black" points="168.5,-342.5 168.5,-361.5 206.5,-361.5 206.5,-342.5 168.5,-342.5"/>
<text text-anchor="middle" x="187.5" y="-349.5" font-family="Helvetica,sans-Serif" font-size="10.00">spec</text>
</a>
</g>
</g>
<!-- Node4&#45;&gt;Node7 -->
<g id="edge34" class="edge">
<title>Node4&#45;&gt;Node7</title>
<path fill="none" stroke="midnightblue" d="M546.32,-238.73C543.95,-272.51 533.71,-340.71 490,-371 400.12,-433.29 256.65,-381.51 206.5,-360.15"/>
<polygon fill="midnightblue" stroke="midnightblue" points="549.81,-238.87 546.85,-228.69 542.82,-238.49 549.81,-238.87"/>
</g>
<!-- Node9 -->
<g id="node9" class="node">
<title>Node9</title>
<g id="a_node9"><a xlink:href="group__grp__force__driver.html#gabbc245b3884ee8d8d3e2a52f25149f78" target="_top" xlink:title="fcn1">
<polygon fill="white" stroke="black" points="410,-190.5 410,-209.5 445,-209.5 445,-190.5 410,-190.5"/>
<text text-anchor="middle" x="427.5" y="-197.5" font-family="Helvetica,sans-Serif" font-size="10.00">fcn1</text>
</a>
</g>
</g>
<!-- Node4&#45;&gt;Node9 -->
<g id="edge9" class="edge">
<title>Node4&#45;&gt;Node9</title>
<path fill="none" stroke="midnightblue" d="M515.69,-213.98C493.13,-210.36 463.55,-205.62 445.29,-202.69"/>
<polygon fill="midnightblue" stroke="midnightblue" points="515.39,-217.48 525.81,-215.6 516.49,-210.56 515.39,-217.48"/>
</g>
<!-- Node10 -->
<g id="node10" class="node">
<title>Node10</title>
<g id="a_node10"><a xlink:href="group__grp__force__driver.html#gaec14f81fbdbedafbc4189489ec8ae178" target="_top" xlink:title="Employs Newton method to find , where &#160;and &#160;is defined in dforce() .">
<polygon fill="white" stroke="black" points="281,-190.5 281,-209.5 329,-209.5 329,-190.5 281,-190.5"/>
<text text-anchor="middle" x="305" y="-197.5" font-family="Helvetica,sans-Serif" font-size="10.00">newton</text>
</a>
</g>
</g>
<!-- Node4&#45;&gt;Node10 -->
<g id="edge31" class="edge">
<title>Node4&#45;&gt;Node10</title>
<path fill="none" stroke="midnightblue" d="M528.68,-202.72C518.15,-194.47 504.23,-185.31 490,-181 436.83,-164.9 419.88,-172.38 365,-181 352.88,-182.9 339.86,-186.88 329.13,-190.7"/>
<polygon fill="midnightblue" stroke="midnightblue" points="526.71,-205.63 536.65,-209.3 531.17,-200.24 526.71,-205.63"/>
</g>
<!-- Node11 -->
<g id="node11" class="node">
<title>Node11</title>
<g id="a_node11"><a xlink:href="group__grp__force__driver.html#ga8ccd6c7d901872702521d0a0edf95412" target="_top" xlink:title="fcn2">
<polygon fill="white" stroke="black" points="29.5,-205.5 29.5,-224.5 64.5,-224.5 64.5,-205.5 29.5,-205.5"/>
<text text-anchor="middle" x="47" y="-212.5" font-family="Helvetica,sans-Serif" font-size="10.00">fcn2</text>
</a>
</g>
</g>
<!-- Node4&#45;&gt;Node11 -->
<g id="edge18" class="edge">
<title>Node4&#45;&gt;Node11</title>
<path fill="none" stroke="midnightblue" d="M528.68,-235.28C518.15,-243.53 504.23,-252.69 490,-257 336.87,-303.37 285.54,-294.52 130,-257 104.19,-250.77 77.37,-234.96 61.71,-224.61"/>
<polygon fill="midnightblue" stroke="midnightblue" points="531.17,-237.76 536.65,-228.7 526.71,-232.37 531.17,-237.76"/>
</g>
<!-- Node4&#45;&gt;Node13 -->
<g id="edge19" class="edge">
<title>Node4&#45;&gt;Node13</title>
<path fill="none" stroke="midnightblue" d="M539.14,-199.96C529.37,-177.39 511.33,-139.16 490,-110 474.96,-89.44 453.18,-69.17 439.97,-57.65"/>
<polygon fill="midnightblue" stroke="midnightblue" points="536.02,-201.57 543.15,-209.41 542.47,-198.84 536.02,-201.57"/>
</g>
<!-- Node18 -->
<g id="node18" class="node">
<title>Node18</title>
<g id="a_node18"><a xlink:href="group__grp__diagnostics.html#ga7401b50ec10c6598ee4a8112717a63ec" target="_top" xlink:title="Computes eigenvalues and eigenvectors of derivative matrix, .">
<polygon fill="white" stroke="black" points="282.5,-304.5 282.5,-323.5 327.5,-323.5 327.5,-304.5 282.5,-304.5"/>
<text text-anchor="middle" x="305" y="-311.5" font-family="Helvetica,sans-Serif" font-size="10.00">hesian</text>
</a>
</g>
</g>
<!-- Node4&#45;&gt;Node18 -->
<g id="edge29" class="edge">
<title>Node4&#45;&gt;Node18</title>
<path fill="none" stroke="midnightblue" d="M537.6,-237.4C528.03,-254.1 511.54,-277.89 490,-290 437.62,-319.44 363.91,-318.72 327.74,-316.16"/>
<polygon fill="midnightblue" stroke="midnightblue" points="540.72,-238.99 542.43,-228.54 534.57,-235.65 540.72,-238.99"/>
</g>
<!-- Node19 -->
<g id="node19" class="node">
<title>Node19</title>
<g id="a_node19"><a xlink:href="group__grp__conjugate__gradient.html#ga4d8415226e62a9fdb42b0fd0b464251e" target="_top" xlink:title="Returns the energy functional and it&#39;s derivatives with respect to geometry.">
<polygon fill="white" stroke="black" points="403.5,-228.5 403.5,-247.5 451.5,-247.5 451.5,-228.5 403.5,-228.5"/>
<text text-anchor="middle" x="427.5" y="-235.5" font-family="Helvetica,sans-Serif" font-size="10.00">pc00ab</text>
</a>
</g>
</g>
<!-- Node4&#45;&gt;Node19 -->
<g id="edge32" class="edge">
<title>Node4&#45;&gt;Node19</title>
<path fill="none" stroke="midnightblue" d="M515.85,-223.99C495.68,-227.23 469.85,-231.37 451.53,-234.31"/>
<polygon fill="midnightblue" stroke="midnightblue" points="516.49,-227.44 525.81,-222.4 515.39,-220.52 516.49,-227.44"/>
</g>
<!-- Node6 -->
<g id="node6" class="node">
<title>Node6</title>
<g id="a_node6"><a xlink:href="xspech_8f90.html#aea782eae089760a491c2c54f9903abcc" target="_top" xlink:title="Main program of SPEC.">
<polygon fill="white" stroke="black" points="281.5,-342.5 281.5,-361.5 328.5,-361.5 328.5,-342.5 281.5,-342.5"/>
<text text-anchor="middle" x="305" y="-349.5" font-family="Helvetica,sans-Serif" font-size="10.00">xspech</text>
</a>
</g>
</g>
<!-- Node5&#45;&gt;Node6 -->
<g id="edge5" class="edge">
<title>Node5&#45;&gt;Node6</title>
<path fill="none" stroke="midnightblue" d="M360.45,-352C349.06,-352 337.95,-352 328.77,-352"/>
<polygon fill="midnightblue" stroke="midnightblue" points="360.48,-355.5 370.48,-352 360.48,-348.5 360.48,-355.5"/>
</g>
<!-- Node6&#45;&gt;Node7 -->
<g id="edge6" class="edge">
<title>Node6&#45;&gt;Node7</title>
<path fill="none" stroke="midnightblue" d="M271.4,-345.85C250.49,-344.78 224.12,-345.14 206.81,-346.91"/>
<polygon fill="midnightblue" stroke="midnightblue" points="271.25,-349.35 281.46,-346.52 271.71,-342.37 271.25,-349.35"/>
</g>
<!-- Node7&#45;&gt;Node6 -->
<g id="edge8" class="edge">
<title>Node7&#45;&gt;Node6</title>
<path fill="none" stroke="midnightblue" d="M216.84,-357.9C236.73,-359.16 262.98,-359.02 281.46,-357.48"/>
<polygon fill="midnightblue" stroke="midnightblue" points="217.06,-354.41 206.81,-357.09 216.49,-361.39 217.06,-354.41"/>
</g>
<!-- Node8 -->
<g id="node8" class="node">
<title>Node8</title>
<g id="a_node8"><a xlink:href="sphdf5_8f90.html#a0f962c09cd5d5eba99f1cba043cb3898" target="_top" xlink:title="initialize the interface to the HDF5 library and open the output file">
<polygon fill="white" stroke="black" points="0,-342.5 0,-361.5 94,-361.5 94,-342.5 0,-342.5"/>
<text text-anchor="middle" x="47" y="-349.5" font-family="Helvetica,sans-Serif" font-size="10.00">sphdf5::init_outfile</text>
</a>
</g>
</g>
<!-- Node7&#45;&gt;Node8 -->
<g id="edge7" class="edge">
<title>Node7&#45;&gt;Node8</title>
<path fill="none" stroke="midnightblue" d="M158.31,-352C139.87,-352 115.36,-352 94.12,-352"/>
<polygon fill="midnightblue" stroke="midnightblue" points="158.39,-355.5 168.39,-352 158.39,-348.5 158.39,-355.5"/>
</g>
<!-- Node9&#45;&gt;Node10 -->
<g id="edge10" class="edge">
<title>Node9&#45;&gt;Node10</title>
<path fill="none" stroke="midnightblue" d="M399.51,-194.26C378.38,-192.82 349.31,-192.92 329.22,-194.54"/>
<polygon fill="midnightblue" stroke="midnightblue" points="399.48,-197.77 409.74,-195.16 400.09,-190.8 399.48,-197.77"/>
</g>
<!-- Node10&#45;&gt;Node7 -->
<g id="edge14" class="edge">
<title>Node10&#45;&gt;Node7</title>
<path fill="none" stroke="midnightblue" d="M283.3,-216.61C282.51,-217.4 281.74,-218.2 281,-219 242.52,-260.8 207.18,-319.44 193.97,-342.32"/>
<polygon fill="midnightblue" stroke="midnightblue" points="285.7,-219.16 290.79,-209.87 281.02,-213.96 285.7,-219.16"/>
</g>
<!-- Node10&#45;&gt;Node9 -->
<g id="edge11" class="edge">
<title>Node10&#45;&gt;Node9</title>
<path fill="none" stroke="midnightblue" d="M339.21,-206.11C362.11,-207.27 391.58,-206.85 409.74,-204.84"/>
<polygon fill="midnightblue" stroke="midnightblue" points="339.42,-202.61 329.22,-205.46 338.97,-209.6 339.42,-202.61"/>
</g>
<!-- Node10&#45;&gt;Node11 -->
<g id="edge12" class="edge">
<title>Node10&#45;&gt;Node11</title>
<path fill="none" stroke="midnightblue" d="M270.49,-197.23C215.08,-197.44 106.32,-204.21 64.72,-210.47"/>
<polygon fill="midnightblue" stroke="midnightblue" points="270.81,-200.73 280.83,-197.28 270.85,-193.73 270.81,-200.73"/>
</g>
<!-- Node12 -->
<g id="node12" class="node">
<title>Node12</title>
<g id="a_node12"><a xlink:href="group__grp__force__driver.html#ga382822b303cbf8c56d6f54dcb379caf2" target="_top" xlink:title="read or write force&#45;derivative matrix">
<polygon fill="white" stroke="black" points="155,-228.5 155,-247.5 220,-247.5 220,-228.5 155,-228.5"/>
<text text-anchor="middle" x="187.5" y="-235.5" font-family="Helvetica,sans-Serif" font-size="10.00">writereadgf</text>
</a>
</g>
</g>
<!-- Node10&#45;&gt;Node12 -->
<g id="edge15" class="edge">
<title>Node10&#45;&gt;Node12</title>
<path fill="none" stroke="midnightblue" d="M271.17,-204.64C248.91,-210.84 220.53,-220.66 203.48,-228.36"/>
<polygon fill="midnightblue" stroke="midnightblue" points="272.13,-208.01 280.9,-202.07 270.34,-201.24 272.13,-208.01"/>
</g>
<!-- Node11&#45;&gt;Node10 -->
<g id="edge13" class="edge">
<title>Node11&#45;&gt;Node10</title>
<path fill="none" stroke="midnightblue" d="M74.85,-217.76C125.28,-218.11 233.36,-211.69 280.83,-205.44"/>
<polygon fill="midnightblue" stroke="midnightblue" points="74.79,-214.26 64.72,-217.57 74.66,-221.26 74.79,-214.26"/>
</g>
<!-- Node12&#45;&gt;Node10 -->
<g id="edge17" class="edge">
<title>Node12&#45;&gt;Node10</title>
<path fill="none" stroke="midnightblue" d="M229.95,-230.87C250.47,-224.75 273.98,-216.42 288.9,-209.7"/>
<polygon fill="midnightblue" stroke="midnightblue" points="228.81,-227.55 220.17,-233.68 230.74,-234.28 228.81,-227.55"/>
</g>
<!-- Node12&#45;&gt;Node11 -->
<g id="edge16" class="edge">
<title>Node12&#45;&gt;Node11</title>
<path fill="none" stroke="midnightblue" d="M144.76,-231.07C117.8,-226.59 84.2,-221.01 64.52,-217.74"/>
<polygon fill="midnightblue" stroke="midnightblue" points="144.29,-234.54 154.73,-232.72 145.43,-227.63 144.29,-234.54"/>
</g>
<!-- Node14 -->
<g id="node14" class="node">
<title>Node14</title>
<g id="a_node14"><a xlink:href="dfp200_8f90.html#a55ea75395f8c71731451e1add3720c7e" target="_top" xlink:title="Given the field consistent with the constraints and the geometry, computes local quantites related to...">
<polygon fill="white" stroke="black" points="282,-38.5 282,-57.5 328,-57.5 328,-38.5 282,-38.5"/>
<text text-anchor="middle" x="305" y="-45.5" font-family="Helvetica,sans-Serif" font-size="10.00">dfp200</text>
</a>
</g>
</g>
<!-- Node13&#45;&gt;Node14 -->
<g id="edge20" class="edge">
<title>Node13&#45;&gt;Node14</title>
<path fill="none" stroke="midnightblue" d="M354.69,-41.36C345.05,-41.55 335.82,-41.98 328.04,-42.64"/>
<polygon fill="midnightblue" stroke="midnightblue" points="354.88,-44.86 364.84,-41.25 354.8,-37.86 354.88,-44.86"/>
</g>
<!-- Node14&#45;&gt;Node4 -->
<g id="edge21" class="edge">
<title>Node14&#45;&gt;Node4</title>
<path fill="none" stroke="midnightblue" d="M331.5,-62.93C367.79,-84.57 435.95,-126.58 490,-168 507.5,-181.41 526.27,-198.87 537.31,-209.49"/>
<polygon fill="midnightblue" stroke="midnightblue" points="332.95,-59.73 322.56,-57.64 329.38,-65.75 332.95,-59.73"/>
</g>
<!-- Node14&#45;&gt;Node13 -->
<g id="edge26" class="edge">
<title>Node14&#45;&gt;Node13</title>
<path fill="none" stroke="midnightblue" d="M338.28,-54.06C346.52,-54.5 355.66,-54.73 364.84,-54.75"/>
<polygon fill="midnightblue" stroke="midnightblue" points="338.26,-50.55 328.04,-53.36 337.78,-57.53 338.26,-50.55"/>
</g>
<!-- Node15 -->
<g id="node15" class="node">
<title>Node15</title>
<g id="a_node15"><a xlink:href="dfp200_8f90.html#a7b64c7392b45d0042d8bd7379c0761a5" target="_top" xlink:title="Evaluate the derivative of the square of the magnetic field modulus. Add spectral constraint derivati...">
<polygon fill="white" stroke="black" points="150.5,-0.5 150.5,-19.5 224.5,-19.5 224.5,-0.5 150.5,-0.5"/>
<text text-anchor="middle" x="187.5" y="-7.5" font-family="Helvetica,sans-Serif" font-size="10.00">evaluate_dbb</text>
</a>
</g>
</g>
<!-- Node14&#45;&gt;Node15 -->
<g id="edge22" class="edge">
<title>Node14&#45;&gt;Node15</title>
<path fill="none" stroke="midnightblue" d="M279.31,-34.23C263.49,-27.83 242.69,-20.76 224.99,-15.68"/>
<polygon fill="midnightblue" stroke="midnightblue" points="278.33,-37.61 288.9,-38.3 281.07,-31.17 278.33,-37.61"/>
</g>
<!-- Node14&#45;&gt;Node16 -->
<g id="edge24" class="edge">
<title>Node14&#45;&gt;Node16</title>
<path fill="none" stroke="midnightblue" d="M271.95,-52.43C249.52,-58.63 220.6,-68.61 203.36,-76.41"/>
<polygon fill="midnightblue" stroke="midnightblue" points="272.94,-55.79 281.73,-49.87 271.17,-49.01 272.94,-55.79"/>
</g>
<!-- Node17 -->
<g id="node17" class="node">
<title>Node17</title>
<g id="a_node17"><a xlink:href="dfp200_8f90.html#a5e56f1f4b1e6df11a9cffa6237c37469" target="_top" xlink:title="This routine evaluates the value of the magnetic field once the interface is perturbed using matrix p...">
<polygon fill="white" stroke="black" points="130,-38.5 130,-57.5 245,-57.5 245,-38.5 130,-38.5"/>
<text text-anchor="middle" x="187.5" y="-45.5" font-family="Helvetica,sans-Serif" font-size="10.00">get_perturbed_solution</text>
</a>
</g>
</g>
<!-- Node14&#45;&gt;Node17 -->
<g id="edge27" class="edge">
<title>Node14&#45;&gt;Node17</title>
<path fill="none" stroke="midnightblue" d="M271.51,-41.86C263.3,-41.44 254.25,-41.23 245.23,-41.25"/>
<polygon fill="midnightblue" stroke="midnightblue" points="271.52,-45.37 281.73,-42.54 271.99,-38.38 271.52,-45.37"/>
</g>
<!-- Node15&#45;&gt;Node14 -->
<g id="edge23" class="edge">
<title>Node15&#45;&gt;Node14</title>
<path fill="none" stroke="midnightblue" d="M212.59,-23.53C232.96,-31.81 261.9,-41.28 281.73,-46.13"/>
<polygon fill="midnightblue" stroke="midnightblue" points="213.93,-20.3 203.36,-19.59 211.19,-26.74 213.93,-20.3"/>
</g>
<!-- Node16&#45;&gt;Node14 -->
<g id="edge25" class="edge">
<title>Node16&#45;&gt;Node14</title>
<path fill="none" stroke="midnightblue" d="M244.62,-74.28C260.95,-68.96 277.45,-62.86 288.9,-57.7"/>
<polygon fill="midnightblue" stroke="midnightblue" points="243.54,-70.96 235.06,-77.32 245.65,-77.63 243.54,-70.96"/>
</g>
<!-- Node17&#45;&gt;Node14 -->
<g id="edge28" class="edge">
<title>Node17&#45;&gt;Node14</title>
<path fill="none" stroke="midnightblue" d="M255.23,-54.68C264.76,-54.52 273.95,-54.11 281.73,-53.46"/>
<polygon fill="midnightblue" stroke="midnightblue" points="255.21,-51.18 245.23,-54.75 255.26,-58.18 255.21,-51.18"/>
</g>
<!-- Node18&#45;&gt;Node7 -->
<g id="edge30" class="edge">
<title>Node18&#45;&gt;Node7</title>
<path fill="none" stroke="midnightblue" d="M272.74,-324.28C251.59,-331.24 224.39,-340.19 206.71,-346.01"/>
<polygon fill="midnightblue" stroke="midnightblue" points="273.87,-327.6 282.28,-321.15 271.68,-320.95 273.87,-327.6"/>
</g>
<!-- Node20 -->
<g id="node20" class="node">
<title>Node20</title>
<g id="a_node20"><a xlink:href="group__grp__conjugate__gradient.html#ga25a3bae2ff2ee0469b045de0d033398b" target="_top" xlink:title="Use preconditioned conjugate gradient method to find minimum of energy functional.">
<polygon fill="white" stroke="black" points="281,-228.5 281,-247.5 329,-247.5 329,-228.5 281,-228.5"/>
<text text-anchor="middle" x="305" y="-235.5" font-family="Helvetica,sans-Serif" font-size="10.00">pc00aa</text>
</a>
</g>
</g>
<!-- Node19&#45;&gt;Node20 -->
<g id="edge33" class="edge">
<title>Node19&#45;&gt;Node20</title>
<path fill="none" stroke="midnightblue" d="M393.16,-238C372.81,-238 347.31,-238 329.16,-238"/>
<polygon fill="midnightblue" stroke="midnightblue" points="393.27,-241.5 403.27,-238 393.27,-234.5 393.27,-241.5"/>
</g>
</g>
</svg>
