<?xml version="1.0" encoding="UTF-8" standalone="no"?>
<!DOCTYPE svg PUBLIC "-//W3C//DTD SVG 1.1//EN"
 "http://www.w3.org/Graphics/SVG/1.1/DTD/svg11.dtd">
<!-- Generated by graphviz version 2.44.0 ()
 -->
<!-- Title: tr00ab Pages: 1 -->
<svg width="1182pt" height="332pt"
 viewBox="0.00 0.00 1182.00 332.00" xmlns="http://www.w3.org/2000/svg" xmlns:xlink="http://www.w3.org/1999/xlink">
<g id="graph0" class="graph" transform="scale(1 1) rotate(0) translate(4 328)">
<title>tr00ab</title>
<polygon fill="white" stroke="transparent" points="-4,4 -4,-328 1178,-328 1178,4 -4,4"/>
<!-- Node1 -->
<g id="node1" class="node">
<title>Node1</title>
<g id="a_node1"><a xlink:title="Calculates rotational transform given an arbitrary tangential field.">
<polygon fill="#bfbfbf" stroke="black" points="1130,-201.5 1130,-220.5 1174,-220.5 1174,-201.5 1130,-201.5"/>
<text text-anchor="middle" x="1152" y="-208.5" font-family="Helvetica,sans-Serif" font-size="10.00">tr00ab</text>
</a>
</g>
</g>
<!-- Node2 -->
<g id="node2" class="node">
<title>Node2</title>
<g id="a_node2"><a xlink:href="dfp200_8f90.html#a73ddf39ecc5228201fb643779e17cd36" target="_top" xlink:title="Evaluate mu and psip derivatives and store them in dmupfdx.">
<polygon fill="white" stroke="black" points="743,-220.5 743,-239.5 838,-239.5 838,-220.5 743,-220.5"/>
<text text-anchor="middle" x="790.5" y="-227.5" font-family="Helvetica,sans-Serif" font-size="10.00">evaluate_dmupfdx</text>
</a>
</g>
</g>
<!-- Node1&#45;&gt;Node2 -->
<g id="edge1" class="edge">
<title>Node1&#45;&gt;Node2</title>
<path fill="none" stroke="midnightblue" d="M1119.69,-212.66C1056.32,-216.01 912.59,-223.6 838.14,-227.54"/>
<polygon fill="midnightblue" stroke="midnightblue" points="1120.05,-216.14 1129.85,-212.12 1119.68,-209.15 1120.05,-216.14"/>
</g>
<!-- Node19 -->
<g id="node19" class="node">
<title>Node19</title>
<g id="a_node19"><a xlink:href="group__grp__solver.html#ga6626839aff500f060beb5bce2b90c447" target="_top" xlink:title="Solves Beltrami/vacuum (linear) system, given matrices.unpacking fluxes, helicity multiplier">
<polygon fill="white" stroke="black" points="1043,-182.5 1043,-201.5 1094,-201.5 1094,-182.5 1043,-182.5"/>
<text text-anchor="middle" x="1068.5" y="-189.5" font-family="Helvetica,sans-Serif" font-size="10.00">mp00ac</text>
</a>
</g>
</g>
<!-- Node1&#45;&gt;Node19 -->
<g id="edge35" class="edge">
<title>Node1&#45;&gt;Node19</title>
<path fill="none" stroke="midnightblue" d="M1119.69,-203.7C1111.26,-201.74 1102.25,-199.64 1094.23,-197.77"/>
<polygon fill="midnightblue" stroke="midnightblue" points="1119.05,-207.15 1129.59,-206.01 1120.64,-200.33 1119.05,-207.15"/>
</g>
<!-- Node3 -->
<g id="node3" class="node">
<title>Node3</title>
<g id="a_node3"><a xlink:href="dfp200_8f90.html#a55ea75395f8c71731451e1add3720c7e" target="_top" xlink:title="Given the field consistent with the constraints and the geometry, computes local quantites related to...">
<polygon fill="white" stroke="black" points="661,-220.5 661,-239.5 707,-239.5 707,-220.5 661,-220.5"/>
<text text-anchor="middle" x="684" y="-227.5" font-family="Helvetica,sans-Serif" font-size="10.00">dfp200</text>
</a>
</g>
</g>
<!-- Node2&#45;&gt;Node3 -->
<g id="edge2" class="edge">
<title>Node2&#45;&gt;Node3</title>
<path fill="none" stroke="midnightblue" d="M732.55,-223.28C723.54,-223.37 714.71,-223.74 707.16,-224.37"/>
<polygon fill="midnightblue" stroke="midnightblue" points="732.75,-226.78 742.75,-223.29 732.75,-219.78 732.75,-226.78"/>
</g>
<!-- Node3&#45;&gt;Node2 -->
<g id="edge31" class="edge">
<title>Node3&#45;&gt;Node2</title>
<path fill="none" stroke="midnightblue" d="M717.25,-236.29C725.32,-236.68 734.14,-236.83 742.75,-236.72"/>
<polygon fill="midnightblue" stroke="midnightblue" points="717.36,-232.79 707.16,-235.64 716.91,-239.78 717.36,-232.79"/>
</g>
<!-- Node4 -->
<g id="node4" class="node">
<title>Node4</title>
<g id="a_node4"><a xlink:href="group__grp__global__force.html#ga38c9d3c50bd043707fefa5137c9dbf44" target="_top" xlink:title="Calculates , where &#160;and , and .">
<polygon fill="white" stroke="black" points="545.5,-161.5 545.5,-180.5 589.5,-180.5 589.5,-161.5 545.5,-161.5"/>
<text text-anchor="middle" x="567.5" y="-168.5" font-family="Helvetica,sans-Serif" font-size="10.00">dforce</text>
</a>
</g>
</g>
<!-- Node3&#45;&gt;Node4 -->
<g id="edge3" class="edge">
<title>Node3&#45;&gt;Node4</title>
<path fill="none" stroke="midnightblue" d="M655.22,-215.69C634.09,-204.8 605.6,-190.12 587.14,-180.61"/>
<polygon fill="midnightblue" stroke="midnightblue" points="653.86,-218.92 664.35,-220.39 657.06,-212.7 653.86,-218.92"/>
</g>
<!-- Node11 -->
<g id="node11" class="node">
<title>Node11</title>
<g id="a_node11"><a xlink:href="dfp200_8f90.html#a6aca59cf350d7b1941f8389d50945a43" target="_top" xlink:title="get LU Beltrami matrices">
<polygon fill="white" stroke="black" points="349,-280.5 349,-299.5 474,-299.5 474,-280.5 349,-280.5"/>
<text text-anchor="middle" x="411.5" y="-287.5" font-family="Helvetica,sans-Serif" font-size="10.00">get_lu_beltrami_matrices</text>
</a>
</g>
</g>
<!-- Node3&#45;&gt;Node11 -->
<g id="edge32" class="edge">
<title>Node3&#45;&gt;Node11</title>
<path fill="none" stroke="midnightblue" d="M650.69,-232.6C596.01,-241.67 486.38,-266.15 437.27,-280.41"/>
<polygon fill="midnightblue" stroke="midnightblue" points="651.53,-236.02 660.86,-231 650.44,-229.1 651.53,-236.02"/>
</g>
<!-- Node17 -->
<g id="node17" class="node">
<title>Node17</title>
<g id="a_node17"><a xlink:href="dfp200_8f90.html#a9838f042d6611c01771ed68beb77fc6b" target="_top" xlink:title="Evaluate the derivative of the square of the magnetic field modulus. Add spectral constraint derivati...">
<polygon fill="white" stroke="black" points="530.5,-210.5 530.5,-229.5 604.5,-229.5 604.5,-210.5 530.5,-210.5"/>
<text text-anchor="middle" x="567.5" y="-217.5" font-family="Helvetica,sans-Serif" font-size="10.00">evaluate_dbb</text>
</a>
</g>
</g>
<!-- Node3&#45;&gt;Node17 -->
<g id="edge29" class="edge">
<title>Node3&#45;&gt;Node17</title>
<path fill="none" stroke="midnightblue" d="M651.03,-221.08C636.7,-219.08 619.74,-217.53 604.93,-216.85"/>
<polygon fill="midnightblue" stroke="midnightblue" points="650.51,-224.55 660.92,-222.62 651.58,-217.63 650.51,-224.55"/>
</g>
<!-- Node18 -->
<g id="node18" class="node">
<title>Node18</title>
<g id="a_node18"><a xlink:href="dfp200_8f90.html#a5e56f1f4b1e6df11a9cffa6237c37469" target="_top" xlink:title="This routine evaluates the value of the magnetic field once the interface is perturbed using matrix p...">
<polygon fill="white" stroke="black" points="510,-304.5 510,-323.5 625,-323.5 625,-304.5 510,-304.5"/>
<text text-anchor="middle" x="567.5" y="-311.5" font-family="Helvetica,sans-Serif" font-size="10.00">get_perturbed_solution</text>
</a>
</g>
</g>
<!-- Node3&#45;&gt;Node18 -->
<g id="edge33" class="edge">
<title>Node3&#45;&gt;Node18</title>
<path fill="none" stroke="midnightblue" d="M662.76,-247.1C652.4,-257.94 639.03,-271.37 625,-281 610.42,-291.02 590.99,-298.14 579.13,-304.36"/>
<polygon fill="midnightblue" stroke="midnightblue" points="665.38,-249.41 669.73,-239.75 660.31,-244.59 665.38,-249.41"/>
</g>
<!-- Node5 -->
<g id="node5" class="node">
<title>Node5</title>
<g id="a_node5"><a xlink:href="group__grp__force__driver.html#gabbc245b3884ee8d8d3e2a52f25149f78" target="_top" xlink:title="fcn1">
<polygon fill="white" stroke="black" points="394,-157.5 394,-176.5 429,-176.5 429,-157.5 394,-157.5"/>
<text text-anchor="middle" x="411.5" y="-164.5" font-family="Helvetica,sans-Serif" font-size="10.00">fcn1</text>
</a>
</g>
</g>
<!-- Node4&#45;&gt;Node5 -->
<g id="edge4" class="edge">
<title>Node4&#45;&gt;Node5</title>
<path fill="none" stroke="midnightblue" d="M535.22,-170.19C503.12,-169.36 454.41,-168.09 429.09,-167.44"/>
<polygon fill="midnightblue" stroke="midnightblue" points="535.32,-173.7 545.41,-170.46 535.5,-166.7 535.32,-173.7"/>
</g>
<!-- Node6 -->
<g id="node6" class="node">
<title>Node6</title>
<g id="a_node6"><a xlink:href="group__grp__force__driver.html#gaec14f81fbdbedafbc4189489ec8ae178" target="_top" xlink:title="Employs Newton method to find , where &#160;and &#160;is defined in dforce() .">
<polygon fill="white" stroke="black" points="265,-157.5 265,-176.5 313,-176.5 313,-157.5 265,-157.5"/>
<text text-anchor="middle" x="289" y="-164.5" font-family="Helvetica,sans-Serif" font-size="10.00">newton</text>
</a>
</g>
</g>
<!-- Node4&#45;&gt;Node6 -->
<g id="edge20" class="edge">
<title>Node4&#45;&gt;Node6</title>
<path fill="none" stroke="midnightblue" d="M535.39,-177.5C493,-185.36 414.84,-196.34 349,-186 336.88,-184.1 323.86,-180.12 313.13,-176.3"/>
<polygon fill="midnightblue" stroke="midnightblue" points="536.21,-180.91 545.37,-175.58 534.89,-174.03 536.21,-180.91"/>
</g>
<!-- Node7 -->
<g id="node7" class="node">
<title>Node7</title>
<g id="a_node7"><a xlink:href="group__grp__force__driver.html#ga8ccd6c7d901872702521d0a0edf95412" target="_top" xlink:title="fcn2">
<polygon fill="white" stroke="black" points="87,-198.5 87,-217.5 122,-217.5 122,-198.5 87,-198.5"/>
<text text-anchor="middle" x="104.5" y="-205.5" font-family="Helvetica,sans-Serif" font-size="10.00">fcn2</text>
</a>
</g>
</g>
<!-- Node4&#45;&gt;Node7 -->
<g id="edge15" class="edge">
<title>Node4&#45;&gt;Node7</title>
<path fill="none" stroke="midnightblue" d="M536.04,-184.14C518.3,-191.12 495.29,-199.07 474,-203 340.31,-227.73 174.66,-214.85 122.22,-209.76"/>
<polygon fill="midnightblue" stroke="midnightblue" points="537.36,-187.38 545.32,-180.38 534.73,-180.89 537.36,-187.38"/>
</g>
<!-- Node9 -->
<g id="node9" class="node">
<title>Node9</title>
<g id="a_node9"><a xlink:href="xspech_8f90.html#aea782eae089760a491c2c54f9903abcc" target="_top" xlink:title="Main program of SPEC.">
<polygon fill="white" stroke="black" points="81,-37.5 81,-56.5 128,-56.5 128,-37.5 81,-37.5"/>
<text text-anchor="middle" x="104.5" y="-44.5" font-family="Helvetica,sans-Serif" font-size="10.00">xspech</text>
</a>
</g>
</g>
<!-- Node4&#45;&gt;Node9 -->
<g id="edge28" class="edge">
<title>Node4&#45;&gt;Node9</title>
<path fill="none" stroke="midnightblue" d="M560.12,-151.42C548.62,-119.75 521.14,-58.21 474,-32 358.15,32.39 188.72,-17.16 128.1,-38.49"/>
<polygon fill="midnightblue" stroke="midnightblue" points="556.95,-152.96 563.52,-161.27 563.56,-150.67 556.95,-152.96"/>
</g>
<!-- Node4&#45;&gt;Node11 -->
<g id="edge16" class="edge">
<title>Node4&#45;&gt;Node11</title>
<path fill="none" stroke="midnightblue" d="M536.06,-183.12C526.94,-187.76 517.41,-193.73 510,-201 486.44,-224.15 498.86,-244.27 474,-266 466.93,-272.19 458.07,-276.88 449.31,-280.39"/>
<polygon fill="midnightblue" stroke="midnightblue" points="537.75,-186.2 545.31,-178.77 534.77,-179.86 537.75,-186.2"/>
</g>
<!-- Node12 -->
<g id="node12" class="node">
<title>Node12</title>
<g id="a_node12"><a xlink:href="group__grp__diagnostics.html#ga7401b50ec10c6598ee4a8112717a63ec" target="_top" xlink:title="Computes eigenvalues and eigenvectors of derivative matrix, .">
<polygon fill="white" stroke="black" points="174,-75.5 174,-94.5 219,-94.5 219,-75.5 174,-75.5"/>
<text text-anchor="middle" x="196.5" y="-82.5" font-family="Helvetica,sans-Serif" font-size="10.00">hesian</text>
</a>
</g>
</g>
<!-- Node4&#45;&gt;Node12 -->
<g id="edge18" class="edge">
<title>Node4&#45;&gt;Node12</title>
<path fill="none" stroke="midnightblue" d="M535.39,-162.74C517.49,-158.12 494.56,-152.42 474,-148 381.7,-128.16 356.06,-134.94 265,-110 249.33,-105.71 232.17,-99.33 219.07,-94.09"/>
<polygon fill="midnightblue" stroke="midnightblue" points="534.72,-166.18 545.28,-165.32 536.49,-159.41 534.72,-166.18"/>
</g>
<!-- Node13 -->
<g id="node13" class="node">
<title>Node13</title>
<g id="a_node13"><a xlink:href="group__grp__conjugate__gradient.html#ga4d8415226e62a9fdb42b0fd0b464251e" target="_top" xlink:title="Returns the energy functional and it&#39;s derivatives with respect to geometry.">
<polygon fill="white" stroke="black" points="387.5,-81.5 387.5,-100.5 435.5,-100.5 435.5,-81.5 387.5,-81.5"/>
<text text-anchor="middle" x="411.5" y="-88.5" font-family="Helvetica,sans-Serif" font-size="10.00">pc00ab</text>
</a>
</g>
</g>
<!-- Node4&#45;&gt;Node13 -->
<g id="edge21" class="edge">
<title>Node4&#45;&gt;Node13</title>
<path fill="none" stroke="midnightblue" d="M543.99,-155.87C525.63,-143.9 498.77,-127.22 474,-115 461.67,-108.92 447.38,-103.27 435.69,-98.98"/>
<polygon fill="midnightblue" stroke="midnightblue" points="542.24,-158.91 552.51,-161.49 546.09,-153.06 542.24,-158.91"/>
</g>
<!-- Node15 -->
<g id="node15" class="node">
<title>Node15</title>
<g id="a_node15"><a xlink:href="namespaceallglobal.html#ad32ae6194892fe7d876622a6455189e2" target="_top" xlink:title="The master node reads the input namelist and sets various internal variables. The relevant quantities...">
<polygon fill="white" stroke="black" points="370,-41.5 370,-60.5 453,-60.5 453,-41.5 370,-41.5"/>
<text text-anchor="middle" x="411.5" y="-48.5" font-family="Helvetica,sans-Serif" font-size="10.00">allglobal::readin</text>
</a>
</g>
</g>
<!-- Node4&#45;&gt;Node15 -->
<g id="edge23" class="edge">
<title>Node4&#45;&gt;Node15</title>
<path fill="none" stroke="midnightblue" d="M554.21,-153.22C538.14,-131.23 508.02,-94.01 474,-72 466.71,-67.29 458.24,-63.51 449.96,-60.53"/>
<polygon fill="midnightblue" stroke="midnightblue" points="551.36,-155.26 560.02,-161.37 557.06,-151.19 551.36,-155.26"/>
</g>
<!-- Node5&#45;&gt;Node6 -->
<g id="edge5" class="edge">
<title>Node5&#45;&gt;Node6</title>
<path fill="none" stroke="midnightblue" d="M383.51,-161.27C362.38,-159.83 333.31,-159.92 313.22,-161.55"/>
<polygon fill="midnightblue" stroke="midnightblue" points="383.48,-164.78 393.74,-162.16 384.09,-157.8 383.48,-164.78"/>
</g>
<!-- Node6&#45;&gt;Node5 -->
<g id="edge6" class="edge">
<title>Node6&#45;&gt;Node5</title>
<path fill="none" stroke="midnightblue" d="M323.21,-173.11C346.11,-174.28 375.58,-173.86 393.74,-171.85"/>
<polygon fill="midnightblue" stroke="midnightblue" points="323.42,-169.62 313.22,-172.46 322.97,-176.6 323.42,-169.62"/>
</g>
<!-- Node6&#45;&gt;Node7 -->
<g id="edge7" class="edge">
<title>Node6&#45;&gt;Node7</title>
<path fill="none" stroke="midnightblue" d="M254.78,-169.12C215.66,-175.69 152.21,-190.36 122.22,-200.15"/>
<polygon fill="midnightblue" stroke="midnightblue" points="255.55,-172.54 264.89,-167.52 254.46,-165.62 255.55,-172.54"/>
</g>
<!-- Node8 -->
<g id="node8" class="node">
<title>Node8</title>
<g id="a_node8"><a xlink:href="group__grp__force__driver.html#ga382822b303cbf8c56d6f54dcb379caf2" target="_top" xlink:title="read or write force&#45;derivative matrix">
<polygon fill="white" stroke="black" points="164,-151.5 164,-170.5 229,-170.5 229,-151.5 164,-151.5"/>
<text text-anchor="middle" x="196.5" y="-158.5" font-family="Helvetica,sans-Serif" font-size="10.00">writereadgf</text>
</a>
</g>
</g>
<!-- Node6&#45;&gt;Node8 -->
<g id="edge9" class="edge">
<title>Node6&#45;&gt;Node8</title>
<path fill="none" stroke="midnightblue" d="M254.6,-158.25C246.31,-157.4 237.46,-156.83 229.25,-156.63"/>
<polygon fill="midnightblue" stroke="midnightblue" points="254.35,-161.74 264.69,-159.47 255.19,-154.8 254.35,-161.74"/>
</g>
<!-- Node6&#45;&gt;Node9 -->
<g id="edge12" class="edge">
<title>Node6&#45;&gt;Node9</title>
<path fill="none" stroke="midnightblue" d="M255.5,-153.75C229.56,-142.42 192.9,-124.69 164,-104 144.17,-89.81 124.58,-68.96 113.86,-56.8"/>
<polygon fill="midnightblue" stroke="midnightblue" points="254.31,-157.05 264.88,-157.77 257.07,-150.61 254.31,-157.05"/>
</g>
<!-- Node7&#45;&gt;Node6 -->
<g id="edge8" class="edge">
<title>Node7&#45;&gt;Node6</title>
<path fill="none" stroke="midnightblue" d="M132.5,-206.9C168.76,-201.26 232.48,-186.82 265.99,-176.53"/>
<polygon fill="midnightblue" stroke="midnightblue" points="131.61,-203.49 122.2,-208.35 132.59,-210.42 131.61,-203.49"/>
</g>
<!-- Node8&#45;&gt;Node6 -->
<g id="edge11" class="edge">
<title>Node8&#45;&gt;Node6</title>
<path fill="none" stroke="midnightblue" d="M239.33,-170.51C248.05,-171.18 256.94,-171.52 264.69,-171.45"/>
<polygon fill="midnightblue" stroke="midnightblue" points="239.53,-167.01 229.25,-169.59 238.89,-173.98 239.53,-167.01"/>
</g>
<!-- Node8&#45;&gt;Node7 -->
<g id="edge10" class="edge">
<title>Node8&#45;&gt;Node7</title>
<path fill="none" stroke="midnightblue" d="M168.41,-175.15C153.36,-183.01 135.12,-192.53 122.17,-199.3"/>
<polygon fill="midnightblue" stroke="midnightblue" points="170.04,-178.25 177.29,-170.52 166.8,-172.04 170.04,-178.25"/>
</g>
<!-- Node10 -->
<g id="node10" class="node">
<title>Node10</title>
<g id="a_node10"><a xlink:href="xspech_8f90.html#a537af4990058c0b0f2cd8b3669af204f" target="_top" xlink:title="todo remark">
<polygon fill="white" stroke="black" points="0,-37.5 0,-56.5 45,-56.5 45,-37.5 0,-37.5"/>
<text text-anchor="middle" x="22.5" y="-44.5" font-family="Helvetica,sans-Serif" font-size="10.00">ending</text>
</a>
</g>
</g>
<!-- Node9&#45;&gt;Node10 -->
<g id="edge13" class="edge">
<title>Node9&#45;&gt;Node10</title>
<path fill="none" stroke="midnightblue" d="M70.65,-40.35C62.06,-40.12 53.01,-40.31 45.17,-40.93"/>
<polygon fill="midnightblue" stroke="midnightblue" points="70.63,-43.85 80.79,-40.85 70.97,-36.86 70.63,-43.85"/>
</g>
<!-- Node10&#45;&gt;Node9 -->
<g id="edge14" class="edge">
<title>Node10&#45;&gt;Node9</title>
<path fill="none" stroke="midnightblue" d="M55.22,-53.62C63.77,-53.9 72.84,-53.74 80.79,-53.16"/>
<polygon fill="midnightblue" stroke="midnightblue" points="55.34,-50.13 45.17,-53.08 54.96,-57.12 55.34,-50.13"/>
</g>
<!-- Node11&#45;&gt;Node3 -->
<g id="edge17" class="edge">
<title>Node11&#45;&gt;Node3</title>
<path fill="none" stroke="midnightblue" d="M484.05,-280.17C542.93,-268.53 622.69,-250.13 660.86,-238.83"/>
<polygon fill="midnightblue" stroke="midnightblue" points="483.2,-276.77 474.05,-282.12 484.53,-283.64 483.2,-276.77"/>
</g>
<!-- Node12&#45;&gt;Node9 -->
<g id="edge19" class="edge">
<title>Node12&#45;&gt;Node9</title>
<path fill="none" stroke="midnightblue" d="M164.49,-71.91C152.51,-66.85 139.06,-61.17 128.03,-56.52"/>
<polygon fill="midnightblue" stroke="midnightblue" points="163.14,-75.14 173.71,-75.81 165.86,-68.69 163.14,-75.14"/>
</g>
<!-- Node14 -->
<g id="node14" class="node">
<title>Node14</title>
<g id="a_node14"><a xlink:href="group__grp__conjugate__gradient.html#ga25a3bae2ff2ee0469b045de0d033398b" target="_top" xlink:title="Use preconditioned conjugate gradient method to find minimum of energy functional.">
<polygon fill="white" stroke="black" points="265,-81.5 265,-100.5 313,-100.5 313,-81.5 265,-81.5"/>
<text text-anchor="middle" x="289" y="-88.5" font-family="Helvetica,sans-Serif" font-size="10.00">pc00aa</text>
</a>
</g>
</g>
<!-- Node13&#45;&gt;Node14 -->
<g id="edge22" class="edge">
<title>Node13&#45;&gt;Node14</title>
<path fill="none" stroke="midnightblue" d="M377.16,-91C356.81,-91 331.31,-91 313.16,-91"/>
<polygon fill="midnightblue" stroke="midnightblue" points="377.27,-94.5 387.27,-91 377.27,-87.5 377.27,-94.5"/>
</g>
<!-- Node15&#45;&gt;Node9 -->
<g id="edge27" class="edge">
<title>Node15&#45;&gt;Node9</title>
<path fill="none" stroke="midnightblue" d="M361.11,-39.47C345.78,-36.4 328.77,-33.53 313,-32 245.95,-25.53 166.47,-36.45 128.25,-42.86"/>
<polygon fill="midnightblue" stroke="midnightblue" points="360.4,-42.9 370.91,-41.49 361.82,-36.04 360.4,-42.9"/>
</g>
<!-- Node16 -->
<g id="node16" class="node">
<title>Node16</title>
<g id="a_node16"><a xlink:href="group__grp__initialization.html#ga28628de0fdb3b3497668007d8d0643bd" target="_top" xlink:title="Allocates and initializes internal arrays.">
<polygon fill="white" stroke="black" points="267,-41.5 267,-60.5 311,-60.5 311,-41.5 267,-41.5"/>
<text text-anchor="middle" x="289" y="-48.5" font-family="Helvetica,sans-Serif" font-size="10.00">preset</text>
</a>
</g>
</g>
<!-- Node15&#45;&gt;Node16 -->
<g id="edge24" class="edge">
<title>Node15&#45;&gt;Node16</title>
<path fill="none" stroke="midnightblue" d="M359.34,-51C342.41,-51 324.5,-51 311.13,-51"/>
<polygon fill="midnightblue" stroke="midnightblue" points="359.7,-54.5 369.7,-51 359.7,-47.5 359.7,-54.5"/>
</g>
<!-- Node16&#45;&gt;Node9 -->
<g id="edge26" class="edge">
<title>Node16&#45;&gt;Node9</title>
<path fill="none" stroke="midnightblue" d="M256.59,-50.32C219.98,-49.51 160.4,-48.21 128.08,-47.5"/>
<polygon fill="midnightblue" stroke="midnightblue" points="256.63,-53.82 266.71,-50.54 256.79,-46.82 256.63,-53.82"/>
</g>
<!-- Node16&#45;&gt;Node12 -->
<g id="edge25" class="edge">
<title>Node16&#45;&gt;Node12</title>
<path fill="none" stroke="midnightblue" d="M256.98,-62.66C244.51,-67.34 230.43,-72.63 219.11,-76.89"/>
<polygon fill="midnightblue" stroke="midnightblue" points="258.42,-65.86 266.55,-59.06 255.96,-59.3 258.42,-65.86"/>
</g>
<!-- Node17&#45;&gt;Node3 -->
<g id="edge30" class="edge">
<title>Node17&#45;&gt;Node3</title>
<path fill="none" stroke="midnightblue" d="M615.12,-230.72C630.95,-232.42 647.92,-233.5 660.92,-233.53"/>
<polygon fill="midnightblue" stroke="midnightblue" points="615.27,-227.21 604.93,-229.52 614.45,-234.17 615.27,-227.21"/>
</g>
<!-- Node18&#45;&gt;Node3 -->
<g id="edge34" class="edge">
<title>Node18&#45;&gt;Node3</title>
<path fill="none" stroke="midnightblue" d="M624.74,-299.18C624.82,-299.12 624.91,-299.06 625,-299 648.88,-282.59 670.85,-255.2 679.32,-239.71"/>
<polygon fill="midnightblue" stroke="midnightblue" points="622.82,-296.25 616.12,-304.45 626.47,-302.22 622.82,-296.25"/>
</g>
<!-- Node20 -->
<g id="node20" class="node">
<title>Node20</title>
<g id="a_node20"><a xlink:href="group__grp__solver__driver.html#gacad623d4c5c006e9ad10116372f92ad3" target="_top" xlink:title="Constructs Beltrami field in given volume consistent with flux, helicity, rotational&#45;transform and/or...">
<polygon fill="white" stroke="black" points="956,-182.5 956,-201.5 1007,-201.5 1007,-182.5 956,-182.5"/>
<text text-anchor="middle" x="981.5" y="-189.5" font-family="Helvetica,sans-Serif" font-size="10.00">ma02aa</text>
</a>
</g>
</g>
<!-- Node19&#45;&gt;Node20 -->
<g id="edge36" class="edge">
<title>Node19&#45;&gt;Node20</title>
<path fill="none" stroke="midnightblue" d="M1032.72,-192C1024.1,-192 1015.04,-192 1007.03,-192"/>
<polygon fill="midnightblue" stroke="midnightblue" points="1032.91,-195.5 1042.91,-192 1032.91,-188.5 1032.91,-195.5"/>
</g>
<!-- Node21 -->
<g id="node21" class="node">
<title>Node21</title>
<g id="a_node21"><a xlink:href="dfp100_8f90.html#a17a3ac15cc83994394f7b4cc05e5898e" target="_top" xlink:title="Split the work between MPI nodes and evaluate the global constraint.">
<polygon fill="white" stroke="black" points="874,-182.5 874,-201.5 920,-201.5 920,-182.5 874,-182.5"/>
<text text-anchor="middle" x="897" y="-189.5" font-family="Helvetica,sans-Serif" font-size="10.00">dfp100</text>
</a>
</g>
</g>
<!-- Node20&#45;&gt;Node21 -->
<g id="edge37" class="edge">
<title>Node20&#45;&gt;Node21</title>
<path fill="none" stroke="midnightblue" d="M945.56,-192C936.97,-192 928.01,-192 920.21,-192"/>
<polygon fill="midnightblue" stroke="midnightblue" points="945.75,-195.5 955.75,-192 945.75,-188.5 945.75,-195.5"/>
</g>
<!-- Node21&#45;&gt;Node2 -->
<g id="edge39" class="edge">
<title>Node21&#45;&gt;Node2</title>
<path fill="none" stroke="midnightblue" d="M864.04,-203.62C849.19,-209.03 831.75,-215.37 817.69,-220.48"/>
<polygon fill="midnightblue" stroke="midnightblue" points="865.64,-206.77 873.84,-200.06 863.24,-200.19 865.64,-206.77"/>
</g>
<!-- Node21&#45;&gt;Node4 -->
<g id="edge38" class="edge">
<title>Node21&#45;&gt;Node4</title>
<path fill="none" stroke="midnightblue" d="M863.38,-189.91C796.42,-185.62 645.1,-175.92 589.5,-172.35"/>
<polygon fill="midnightblue" stroke="midnightblue" points="863.54,-193.43 873.75,-190.58 863.99,-186.44 863.54,-193.43"/>
</g>
</g>
</svg>
