<?xml version="1.0" encoding="UTF-8" standalone="no"?>
<!DOCTYPE svg PUBLIC "-//W3C//DTD SVG 1.1//EN"
 "http://www.w3.org/Graphics/SVG/1.1/DTD/svg11.dtd">
<!-- Generated by graphviz version 2.49.3 (20211027.1534)
 -->
<!-- Title: sphdf5::write_convergence_output Pages: 1 -->
<svg width="922pt" height="376pt"
 viewBox="0.00 0.00 922.00 376.00" xmlns="http://www.w3.org/2000/svg" xmlns:xlink="http://www.w3.org/1999/xlink">
<g id="graph0" class="graph" transform="scale(1 1) rotate(0) translate(4 372)">
<title>sphdf5::write_convergence_output</title>
<polygon fill="white" stroke="transparent" points="-4,4 -4,-372 918,-372 918,4 -4,4"/>
<!-- Node1 -->
<g id="node1" class="node">
<title>Node1</title>
<g id="a_node1"><a xlink:title="Write convergence output (evolution of interface geometry, force, etc).">
<polygon fill="#bfbfbf" stroke="black" points="782,-310 782,-340 914,-340 914,-310 782,-310"/>
<text text-anchor="start" x="790" y="-328" font-family="Helvetica,sans-Serif" font-size="10.00">sphdf5::write_convergence</text>
<text text-anchor="middle" x="848" y="-317" font-family="Helvetica,sans-Serif" font-size="10.00">_output</text>
</a>
</g>
</g>
<!-- Node2 -->
<g id="node2" class="node">
<title>Node2</title>
<g id="a_node2"><a xlink:href="group__grp__force__driver.html#gabbc245b3884ee8d8d3e2a52f25149f78" target="_top" xlink:title="Objective to be given to the Newton solver, using only function values.">
<polygon fill="white" stroke="black" points="711,-273.5 711,-292.5 746,-292.5 746,-273.5 711,-273.5"/>
<text text-anchor="middle" x="728.5" y="-280.5" font-family="Helvetica,sans-Serif" font-size="10.00">fcn1</text>
</a>
</g>
</g>
<!-- Node1&#45;&gt;Node2 -->
<g id="edge1" class="edge">
<title>Node1&#45;&gt;Node2</title>
<path fill="none" stroke="midnightblue" d="M795.23,-306.5C777.58,-300.19 759.08,-293.57 746.22,-288.98"/>
<polygon fill="midnightblue" stroke="midnightblue" points="794.32,-309.89 804.91,-309.96 796.67,-303.29 794.32,-309.89"/>
</g>
<!-- Node4 -->
<g id="node4" class="node">
<title>Node4</title>
<g id="a_node4"><a xlink:href="group__grp__force__driver.html#ga8ccd6c7d901872702521d0a0edf95412" target="_top" xlink:title="Objective to be given to the Newton solver, using function values and derivatives.">
<polygon fill="white" stroke="black" points="280,-320.5 280,-339.5 315,-339.5 315,-320.5 280,-320.5"/>
<text text-anchor="middle" x="297.5" y="-327.5" font-family="Helvetica,sans-Serif" font-size="10.00">fcn2</text>
</a>
</g>
</g>
<!-- Node1&#45;&gt;Node4 -->
<g id="edge47" class="edge">
<title>Node1&#45;&gt;Node4</title>
<path fill="none" stroke="midnightblue" d="M794.2,-343.14C755.35,-354.89 701.01,-368 652,-368 652,-368 652,-368 557.5,-368 465.02,-368 355.9,-343.99 315.04,-334.14"/>
<polygon fill="midnightblue" stroke="midnightblue" points="795.71,-346.34 804.22,-340.04 793.64,-339.65 795.71,-346.34"/>
</g>
<!-- Node2&#45;&gt;Node2 -->
<g id="edge2" class="edge">
<title>Node2&#45;&gt;Node2</title>
<path fill="none" stroke="midnightblue" d="M742.5,-302.77C741.4,-307.5 736.73,-311 728.5,-311 714.99,-311 711.09,-301.57 716.79,-292.76"/>
<polygon fill="midnightblue" stroke="midnightblue" points="745.85,-301.73 740.21,-292.76 739.02,-303.28 745.85,-301.73"/>
</g>
<!-- Node3 -->
<g id="node3" class="node">
<title>Node3</title>
<g id="a_node3"><a xlink:href="group__grp__force__driver.html#gaec14f81fbdbedafbc4189489ec8ae178" target="_top" xlink:title="Employs Newton method to find , where &#160;and &#160;is defined in dforce() .">
<polygon fill="white" stroke="black" points="627,-273.5 627,-292.5 675,-292.5 675,-273.5 627,-273.5"/>
<text text-anchor="middle" x="651" y="-280.5" font-family="Helvetica,sans-Serif" font-size="10.00">newton</text>
</a>
</g>
</g>
<!-- Node2&#45;&gt;Node3 -->
<g id="edge3" class="edge">
<title>Node2&#45;&gt;Node3</title>
<path fill="none" stroke="midnightblue" d="M700.68,-276.51C692.29,-276.1 683.11,-276.18 675.01,-276.73"/>
<polygon fill="midnightblue" stroke="midnightblue" points="700.51,-280 710.74,-277.28 701.04,-273.03 700.51,-280"/>
</g>
<!-- Node3&#45;&gt;Node2 -->
<g id="edge4" class="edge">
<title>Node3&#45;&gt;Node2</title>
<path fill="none" stroke="midnightblue" d="M685.13,-289.7C693.99,-289.88 703.19,-289.55 710.74,-288.72"/>
<polygon fill="midnightblue" stroke="midnightblue" points="685.15,-286.2 675.01,-289.27 684.85,-293.2 685.15,-286.2"/>
</g>
<!-- Node3&#45;&gt;Node3 -->
<g id="edge8" class="edge">
<title>Node3&#45;&gt;Node3</title>
<path fill="none" stroke="midnightblue" d="M665,-302.77C663.9,-307.5 659.23,-311 651,-311 637.49,-311 633.59,-301.57 639.29,-292.76"/>
<polygon fill="midnightblue" stroke="midnightblue" points="668.35,-301.73 662.71,-292.76 661.52,-303.28 668.35,-301.73"/>
</g>
<!-- Node3&#45;&gt;Node4 -->
<g id="edge5" class="edge">
<title>Node3&#45;&gt;Node4</title>
<path fill="none" stroke="midnightblue" d="M616.88,-283.28C543.58,-289.29 369.81,-312.88 315.22,-324.67"/>
<polygon fill="midnightblue" stroke="midnightblue" points="617.23,-286.76 626.94,-282.52 616.7,-279.78 617.23,-286.76"/>
</g>
<!-- Node5 -->
<g id="node5" class="node">
<title>Node5</title>
<g id="a_node5"><a xlink:href="xspech_8f90.html#a48f45478dc2c9f70ea8aa1c60ad06503" target="_top" xlink:title="This is the main &quot;driver&quot; for the physics part of SPEC.">
<polygon fill="white" stroke="black" points="539.5,-94.5 539.5,-113.5 577.5,-113.5 577.5,-94.5 539.5,-94.5"/>
<text text-anchor="middle" x="558.5" y="-101.5" font-family="Helvetica,sans-Serif" font-size="10.00">spec</text>
</a>
</g>
</g>
<!-- Node3&#45;&gt;Node5 -->
<g id="edge9" class="edge">
<title>Node3&#45;&gt;Node5</title>
<path fill="none" stroke="midnightblue" d="M640.38,-263.98C621.2,-226.03 578.78,-142.14 564.39,-113.67"/>
<polygon fill="midnightblue" stroke="midnightblue" points="637.5,-266.03 645.13,-273.38 643.75,-262.87 637.5,-266.03"/>
</g>
<!-- Node20 -->
<g id="node20" class="node">
<title>Node20</title>
<g id="a_node20"><a xlink:href="group__grp__output.html#ga382822b303cbf8c56d6f54dcb379caf2" target="_top" xlink:title="read or write force&#45;derivative matrix .ext.sp.DF">
<polygon fill="white" stroke="black" points="526,-320.5 526,-339.5 591,-339.5 591,-320.5 526,-320.5"/>
<text text-anchor="middle" x="558.5" y="-327.5" font-family="Helvetica,sans-Serif" font-size="10.00">writereadgf</text>
</a>
</g>
</g>
<!-- Node3&#45;&gt;Node20 -->
<g id="edge44" class="edge">
<title>Node3&#45;&gt;Node20</title>
<path fill="none" stroke="midnightblue" d="M617.18,-293.53C600.41,-301.6 581.16,-312.28 569.68,-320.25"/>
<polygon fill="midnightblue" stroke="midnightblue" points="619.09,-296.5 626.69,-289.12 616.15,-290.15 619.09,-296.5"/>
</g>
<!-- Node4&#45;&gt;Node3 -->
<g id="edge7" class="edge">
<title>Node4&#45;&gt;Node3</title>
<path fill="none" stroke="midnightblue" d="M325.34,-330.21C392.03,-325.31 564.44,-302.17 626.94,-289.64"/>
<polygon fill="midnightblue" stroke="midnightblue" points="324.97,-326.73 315.22,-330.86 325.42,-333.71 324.97,-326.73"/>
</g>
<!-- Node4&#45;&gt;Node4 -->
<g id="edge6" class="edge">
<title>Node4&#45;&gt;Node4</title>
<path fill="none" stroke="midnightblue" d="M320.37,-347.14C320.68,-353.14 313.06,-358 297.5,-358 274.86,-358 269.03,-347.72 279.99,-338.6"/>
<polygon fill="midnightblue" stroke="midnightblue" points="323.29,-345.21 315.01,-338.6 317.36,-348.93 323.29,-345.21"/>
</g>
<!-- Node6 -->
<g id="node6" class="node">
<title>Node6</title>
<g id="a_node6"><a xlink:href="group__grp__global__force.html#ga38c9d3c50bd043707fefa5137c9dbf44" target="_top" xlink:title="Calculates , where &#160;and , and .">
<polygon fill="white" stroke="black" points="421,-188.5 421,-207.5 465,-207.5 465,-188.5 421,-188.5"/>
<text text-anchor="middle" x="443" y="-195.5" font-family="Helvetica,sans-Serif" font-size="10.00">dforce</text>
</a>
</g>
</g>
<!-- Node5&#45;&gt;Node6 -->
<g id="edge10" class="edge">
<title>Node5&#45;&gt;Node6</title>
<path fill="none" stroke="midnightblue" d="M531.48,-119.77C505.52,-139.45 467.27,-171.87 451.36,-188.36"/>
<polygon fill="midnightblue" stroke="midnightblue" points="533.82,-122.39 539.77,-113.62 529.65,-116.77 533.82,-122.39"/>
</g>
<!-- Node8 -->
<g id="node8" class="node">
<title>Node8</title>
<g id="a_node8"><a xlink:href="xspech_8f90.html#a9fdc71dffd7c61ee4588a3f80d3ab9ce" target="_top" xlink:title="Main subroutine of SPEC.">
<polygon fill="white" stroke="black" points="151.5,-47.5 151.5,-66.5 198.5,-66.5 198.5,-47.5 151.5,-47.5"/>
<text text-anchor="middle" x="175" y="-54.5" font-family="Helvetica,sans-Serif" font-size="10.00">xspech</text>
</a>
</g>
</g>
<!-- Node5&#45;&gt;Node8 -->
<g id="edge43" class="edge">
<title>Node5&#45;&gt;Node8</title>
<path fill="none" stroke="midnightblue" d="M529.15,-96.75C456.59,-83.71 265.19,-60.24 198.95,-56.4"/>
<polygon fill="midnightblue" stroke="midnightblue" points="528.88,-100.26 539.36,-98.67 530.18,-93.38 528.88,-100.26"/>
</g>
<!-- Node19 -->
<g id="node19" class="node">
<title>Node19</title>
<g id="a_node19"><a xlink:href="group__grp__output.html#ga0f962c09cd5d5eba99f1cba043cb3898" target="_top" xlink:title="Initialize the interface to the HDF5 library and open the output file.">
<polygon fill="white" stroke="black" points="396,-0.5 396,-19.5 490,-19.5 490,-0.5 396,-0.5"/>
<text text-anchor="middle" x="443" y="-7.5" font-family="Helvetica,sans-Serif" font-size="10.00">sphdf5::init_outfile</text>
</a>
</g>
</g>
<!-- Node5&#45;&gt;Node19 -->
<g id="edge41" class="edge">
<title>Node5&#45;&gt;Node19</title>
<path fill="none" stroke="midnightblue" d="M543.34,-86.38C530.53,-71.21 510.57,-49.39 490,-34 482.64,-28.5 473.85,-23.57 465.92,-19.63"/>
<polygon fill="midnightblue" stroke="midnightblue" points="540.94,-88.97 550.01,-94.45 546.34,-84.51 540.94,-88.97"/>
</g>
<!-- Node6&#45;&gt;Node2 -->
<g id="edge19" class="edge">
<title>Node6&#45;&gt;Node2</title>
<path fill="none" stroke="midnightblue" d="M475.13,-202.66C505.16,-207.56 551.73,-216.19 591,-228 635.28,-241.32 685.18,-263.3 710.62,-275.03"/>
<polygon fill="midnightblue" stroke="midnightblue" points="475.66,-199.2 465.23,-201.09 474.56,-206.12 475.66,-199.2"/>
</g>
<!-- Node6&#45;&gt;Node3 -->
<g id="edge35" class="edge">
<title>Node6&#45;&gt;Node3</title>
<path fill="none" stroke="midnightblue" d="M474.63,-210.64C516.17,-227.78 589.46,-258.02 626.77,-273.41"/>
<polygon fill="midnightblue" stroke="midnightblue" points="475.86,-207.36 465.29,-206.78 473.19,-213.83 475.86,-207.36"/>
</g>
<!-- Node6&#45;&gt;Node4 -->
<g id="edge20" class="edge">
<title>Node6&#45;&gt;Node4</title>
<path fill="none" stroke="midnightblue" d="M428.68,-215.72C419.44,-228.07 406.88,-244.97 396,-260 379.73,-282.48 382.45,-294.7 360,-311 346.71,-320.65 328.4,-325.48 315.22,-327.85"/>
<polygon fill="midnightblue" stroke="midnightblue" points="431.56,-217.71 434.76,-207.61 425.96,-213.51 431.56,-217.71"/>
</g>
<!-- Node6&#45;&gt;Node5 -->
<g id="edge40" class="edge">
<title>Node6&#45;&gt;Node5</title>
<path fill="none" stroke="midnightblue" d="M470.07,-182.19C495.98,-162.55 534.1,-130.24 550.05,-113.73"/>
<polygon fill="midnightblue" stroke="midnightblue" points="467.74,-179.56 461.8,-188.33 471.91,-185.18 467.74,-179.56"/>
</g>
<!-- Node6&#45;&gt;Node6 -->
<g id="edge18" class="edge">
<title>Node6&#45;&gt;Node6</title>
<path fill="none" stroke="midnightblue" d="M464.11,-217.4C462.7,-222.31 455.66,-226 443,-226 422.74,-226 416.88,-216.57 425.43,-207.76"/>
<polygon fill="midnightblue" stroke="midnightblue" points="467.3,-215.94 460.57,-207.76 460.73,-218.35 467.3,-215.94"/>
</g>
<!-- Node7 -->
<g id="node7" class="node">
<title>Node7</title>
<g id="a_node7"><a xlink:href="namespaceallglobal.html#a7824bc37519fe88336534ce90ab2af16" target="_top" xlink:title=" ">
<polygon fill="white" stroke="black" points="240.5,-150.5 240.5,-169.5 354.5,-169.5 354.5,-150.5 240.5,-150.5"/>
<text text-anchor="middle" x="297.5" y="-157.5" font-family="Helvetica,sans-Serif" font-size="10.00">allglobal::check_inputs</text>
</a>
</g>
</g>
<!-- Node6&#45;&gt;Node7 -->
<g id="edge11" class="edge">
<title>Node6&#45;&gt;Node7</title>
<path fill="none" stroke="midnightblue" d="M411.11,-189.82C388.63,-183.87 358.11,-175.79 334.52,-169.54"/>
<polygon fill="midnightblue" stroke="midnightblue" points="410.26,-193.22 420.83,-192.39 412.06,-186.45 410.26,-193.22"/>
</g>
<!-- Node11 -->
<g id="node11" class="node">
<title>Node11</title>
<g id="a_node11"><a xlink:href="dfp200_8f90.html#a6aca59cf350d7b1941f8389d50945a43" target="_top" xlink:title="get LU Beltrami matrices">
<polygon fill="white" stroke="black" points="235,-282.5 235,-301.5 360,-301.5 360,-282.5 235,-282.5"/>
<text text-anchor="middle" x="297.5" y="-289.5" font-family="Helvetica,sans-Serif" font-size="10.00">get_lu_beltrami_matrices</text>
</a>
</g>
</g>
<!-- Node6&#45;&gt;Node11 -->
<g id="edge21" class="edge">
<title>Node6&#45;&gt;Node11</title>
<path fill="none" stroke="midnightblue" d="M425.4,-215.14C409.7,-230.59 384.89,-253.1 360,-268 350.36,-273.77 339.09,-278.64 328.85,-282.45"/>
<polygon fill="midnightblue" stroke="midnightblue" points="428.15,-217.33 432.73,-207.78 423.19,-212.39 428.15,-217.33"/>
</g>
<!-- Node16 -->
<g id="node16" class="node">
<title>Node16</title>
<g id="a_node16"><a xlink:href="group__grp__output.html#ga7401b50ec10c6598ee4a8112717a63ec" target="_top" xlink:title="Computes eigenvalues and eigenvectors of derivative matrix, &#160;and saves them to .ext....">
<polygon fill="white" stroke="black" points="275,-94.5 275,-113.5 320,-113.5 320,-94.5 275,-94.5"/>
<text text-anchor="middle" x="297.5" y="-101.5" font-family="Helvetica,sans-Serif" font-size="10.00">hesian</text>
</a>
</g>
</g>
<!-- Node6&#45;&gt;Node16 -->
<g id="edge32" class="edge">
<title>Node6&#45;&gt;Node16</title>
<path fill="none" stroke="midnightblue" d="M420.49,-182.47C404.1,-170.78 380.88,-154.51 360,-141 345.04,-131.32 327.61,-120.91 315.13,-113.6"/>
<polygon fill="midnightblue" stroke="midnightblue" points="418.66,-185.47 428.83,-188.45 422.74,-179.78 418.66,-185.47"/>
</g>
<!-- Node17 -->
<g id="node17" class="node">
<title>Node17</title>
<g id="a_node17"><a xlink:href="group__grp__conjugate__gradient.html#ga4d8415226e62a9fdb42b0fd0b464251e" target="_top" xlink:title="Returns the energy functional and it&#39;s derivatives with respect to geometry.">
<polygon fill="white" stroke="black" points="273.5,-188.5 273.5,-207.5 321.5,-207.5 321.5,-188.5 273.5,-188.5"/>
<text text-anchor="middle" x="297.5" y="-195.5" font-family="Helvetica,sans-Serif" font-size="10.00">pc00ab</text>
</a>
</g>
</g>
<!-- Node6&#45;&gt;Node17 -->
<g id="edge36" class="edge">
<title>Node6&#45;&gt;Node17</title>
<path fill="none" stroke="midnightblue" d="M410.79,-198C383.96,-198 345.86,-198 321.67,-198"/>
<polygon fill="midnightblue" stroke="midnightblue" points="410.83,-201.5 420.83,-198 410.83,-194.5 410.83,-201.5"/>
</g>
<!-- Node7&#45;&gt;Node8 -->
<g id="edge12" class="edge">
<title>Node7&#45;&gt;Node8</title>
<path fill="none" stroke="midnightblue" d="M243.52,-146.25C240.53,-144.68 237.67,-142.94 235,-141 207.48,-120.97 188.18,-84.07 180.16,-66.62"/>
<polygon fill="midnightblue" stroke="midnightblue" points="242.21,-149.5 252.77,-150.45 245.11,-143.13 242.21,-149.5"/>
</g>
<!-- Node8&#45;&gt;Node5 -->
<g id="edge15" class="edge">
<title>Node8&#45;&gt;Node5</title>
<path fill="none" stroke="midnightblue" d="M209.14,-65.09C286.98,-78.62 479.39,-102.02 539.36,-104.86"/>
<polygon fill="midnightblue" stroke="midnightblue" points="209.41,-61.59 198.95,-63.25 208.17,-68.47 209.41,-61.59"/>
</g>
<!-- Node8&#45;&gt;Node8 -->
<g id="edge17" class="edge">
<title>Node8&#45;&gt;Node8</title>
<path fill="none" stroke="midnightblue" d="M196.48,-76.4C195.05,-81.31 187.89,-85 175,-85 154.38,-85 148.42,-75.57 157.12,-66.76"/>
<polygon fill="midnightblue" stroke="midnightblue" points="199.66,-74.9 192.88,-66.76 193.1,-77.35 199.66,-74.9"/>
</g>
<!-- Node9 -->
<g id="node9" class="node">
<title>Node9</title>
<g id="a_node9"><a xlink:href="xspech_8f90.html#a1451823a7b97101a797de616250752c1" target="_top" xlink:title="Final diagnostics.">
<polygon fill="white" stroke="black" points="13,-47.5 13,-66.5 102,-66.5 102,-47.5 13,-47.5"/>
<text text-anchor="middle" x="57.5" y="-54.5" font-family="Helvetica,sans-Serif" font-size="10.00">final_diagnostics</text>
</a>
</g>
</g>
<!-- Node8&#45;&gt;Node9 -->
<g id="edge13" class="edge">
<title>Node8&#45;&gt;Node9</title>
<path fill="none" stroke="midnightblue" d="M141.29,-50.85C129.09,-50.23 115.05,-50.09 102.04,-50.44"/>
<polygon fill="midnightblue" stroke="midnightblue" points="141.25,-54.35 151.46,-51.52 141.71,-47.37 141.25,-54.35"/>
</g>
<!-- Node10 -->
<g id="node10" class="node">
<title>Node10</title>
<g id="a_node10"><a xlink:href="xspech_8f90.html#a95271e8805067f801b5d4e524d6901d4" target="_top" xlink:title="Main program of SPEC.">
<polygon fill="white" stroke="black" points="25.5,-9.5 25.5,-28.5 89.5,-28.5 89.5,-9.5 25.5,-9.5"/>
<text text-anchor="middle" x="57.5" y="-16.5" font-family="Helvetica,sans-Serif" font-size="10.00">spec_main</text>
</a>
</g>
</g>
<!-- Node8&#45;&gt;Node10 -->
<g id="edge16" class="edge">
<title>Node8&#45;&gt;Node10</title>
<path fill="none" stroke="midnightblue" d="M141.92,-46.45C124.89,-40.84 104.12,-34.01 87.57,-28.56"/>
<polygon fill="midnightblue" stroke="midnightblue" points="140.86,-49.78 151.46,-49.58 143.05,-43.13 140.86,-49.78"/>
</g>
<!-- Node9&#45;&gt;Node8 -->
<g id="edge14" class="edge">
<title>Node9&#45;&gt;Node8</title>
<path fill="none" stroke="midnightblue" d="M112.05,-63.73C125.94,-63.84 140.15,-63.42 151.46,-62.48"/>
<polygon fill="midnightblue" stroke="midnightblue" points="112.09,-60.23 102.04,-63.56 111.98,-67.23 112.09,-60.23"/>
</g>
<!-- Node12 -->
<g id="node12" class="node">
<title>Node12</title>
<g id="a_node12"><a xlink:href="dfp200_8f90.html#a55ea75395f8c71731451e1add3720c7e" target="_top" xlink:title="Given the field consistent with the constraints and the geometry, computes local quantites related to...">
<polygon fill="white" stroke="black" points="152,-282.5 152,-301.5 198,-301.5 198,-282.5 152,-282.5"/>
<text text-anchor="middle" x="175" y="-289.5" font-family="Helvetica,sans-Serif" font-size="10.00">dfp200</text>
</a>
</g>
</g>
<!-- Node11&#45;&gt;Node12 -->
<g id="edge22" class="edge">
<title>Node11&#45;&gt;Node12</title>
<path fill="none" stroke="midnightblue" d="M224.69,-285.36C215.05,-285.55 205.82,-285.98 198.04,-286.64"/>
<polygon fill="midnightblue" stroke="midnightblue" points="224.88,-288.86 234.84,-285.25 224.8,-281.86 224.88,-288.86"/>
</g>
<!-- Node12&#45;&gt;Node6 -->
<g id="edge23" class="edge">
<title>Node12&#45;&gt;Node6</title>
<path fill="none" stroke="midnightblue" d="M207.67,-281.69C216.51,-278.85 226.12,-275.78 235,-273 290.41,-255.66 305.65,-255.43 360,-235 381.93,-226.76 406.31,-215.47 422.75,-207.54"/>
<polygon fill="midnightblue" stroke="midnightblue" points="206.55,-278.38 198.11,-284.79 208.7,-285.04 206.55,-278.38"/>
</g>
<!-- Node12&#45;&gt;Node11 -->
<g id="edge29" class="edge">
<title>Node12&#45;&gt;Node11</title>
<path fill="none" stroke="midnightblue" d="M208.28,-298.06C216.52,-298.5 225.66,-298.73 234.84,-298.75"/>
<polygon fill="midnightblue" stroke="midnightblue" points="208.26,-294.55 198.04,-297.36 207.78,-301.53 208.26,-294.55"/>
</g>
<!-- Node12&#45;&gt;Node12 -->
<g id="edge24" class="edge">
<title>Node12&#45;&gt;Node12</title>
<path fill="none" stroke="midnightblue" d="M196.48,-311.4C195.05,-316.31 187.89,-320 175,-320 154.38,-320 148.42,-310.57 157.12,-301.76"/>
<polygon fill="midnightblue" stroke="midnightblue" points="199.66,-309.9 192.88,-301.76 193.1,-312.35 199.66,-309.9"/>
</g>
<!-- Node13 -->
<g id="node13" class="node">
<title>Node13</title>
<g id="a_node13"><a xlink:href="dfp200_8f90.html#a7b64c7392b45d0042d8bd7379c0761a5" target="_top" xlink:title="Evaluate the derivative of the square of the magnetic field modulus. Add spectral constraint derivati...">
<polygon fill="white" stroke="black" points="20.5,-244.5 20.5,-263.5 94.5,-263.5 94.5,-244.5 20.5,-244.5"/>
<text text-anchor="middle" x="57.5" y="-251.5" font-family="Helvetica,sans-Serif" font-size="10.00">evaluate_dbb</text>
</a>
</g>
</g>
<!-- Node12&#45;&gt;Node13 -->
<g id="edge25" class="edge">
<title>Node12&#45;&gt;Node13</title>
<path fill="none" stroke="midnightblue" d="M149.31,-278.23C133.49,-271.83 112.69,-264.76 94.99,-259.68"/>
<polygon fill="midnightblue" stroke="midnightblue" points="148.33,-281.61 158.9,-282.3 151.07,-275.17 148.33,-281.61"/>
</g>
<!-- Node14 -->
<g id="node14" class="node">
<title>Node14</title>
<g id="a_node14"><a xlink:href="dfp200_8f90.html#a73ddf39ecc5228201fb643779e17cd36" target="_top" xlink:title="Evaluate mu and psip derivatives and store them in dmupfdx.">
<polygon fill="white" stroke="black" points="10,-320.5 10,-339.5 105,-339.5 105,-320.5 10,-320.5"/>
<text text-anchor="middle" x="57.5" y="-327.5" font-family="Helvetica,sans-Serif" font-size="10.00">evaluate_dmupfdx</text>
</a>
</g>
</g>
<!-- Node12&#45;&gt;Node14 -->
<g id="edge27" class="edge">
<title>Node12&#45;&gt;Node14</title>
<path fill="none" stroke="midnightblue" d="M141.95,-296.43C119.52,-302.63 90.6,-312.61 73.36,-320.41"/>
<polygon fill="midnightblue" stroke="midnightblue" points="142.94,-299.79 151.73,-293.87 141.17,-293.01 142.94,-299.79"/>
</g>
<!-- Node15 -->
<g id="node15" class="node">
<title>Node15</title>
<g id="a_node15"><a xlink:href="dfp200_8f90.html#a5e56f1f4b1e6df11a9cffa6237c37469" target="_top" xlink:title="This routine evaluates the value of the magnetic field once the interface is perturbed using matrix p...">
<polygon fill="white" stroke="black" points="0,-282.5 0,-301.5 115,-301.5 115,-282.5 0,-282.5"/>
<text text-anchor="middle" x="57.5" y="-289.5" font-family="Helvetica,sans-Serif" font-size="10.00">get_perturbed_solution</text>
</a>
</g>
</g>
<!-- Node12&#45;&gt;Node15 -->
<g id="edge30" class="edge">
<title>Node12&#45;&gt;Node15</title>
<path fill="none" stroke="midnightblue" d="M141.51,-285.86C133.3,-285.44 124.25,-285.23 115.23,-285.25"/>
<polygon fill="midnightblue" stroke="midnightblue" points="141.52,-289.37 151.73,-286.54 141.99,-282.38 141.52,-289.37"/>
</g>
<!-- Node13&#45;&gt;Node12 -->
<g id="edge26" class="edge">
<title>Node13&#45;&gt;Node12</title>
<path fill="none" stroke="midnightblue" d="M82.59,-267.53C102.96,-275.81 131.9,-285.28 151.73,-290.13"/>
<polygon fill="midnightblue" stroke="midnightblue" points="83.93,-264.3 73.36,-263.59 81.19,-270.74 83.93,-264.3"/>
</g>
<!-- Node14&#45;&gt;Node12 -->
<g id="edge28" class="edge">
<title>Node14&#45;&gt;Node12</title>
<path fill="none" stroke="midnightblue" d="M114.62,-318.28C130.95,-312.96 147.45,-306.86 158.9,-301.7"/>
<polygon fill="midnightblue" stroke="midnightblue" points="113.54,-314.96 105.06,-321.32 115.65,-321.63 113.54,-314.96"/>
</g>
<!-- Node15&#45;&gt;Node12 -->
<g id="edge31" class="edge">
<title>Node15&#45;&gt;Node12</title>
<path fill="none" stroke="midnightblue" d="M125.23,-298.68C134.76,-298.52 143.95,-298.11 151.73,-297.46"/>
<polygon fill="midnightblue" stroke="midnightblue" points="125.21,-295.18 115.23,-298.75 125.26,-302.18 125.21,-295.18"/>
</g>
<!-- Node16&#45;&gt;Node5 -->
<g id="edge34" class="edge">
<title>Node16&#45;&gt;Node5</title>
<path fill="none" stroke="midnightblue" d="M330.48,-104C385.37,-104 495.78,-104 539.29,-104"/>
<polygon fill="midnightblue" stroke="midnightblue" points="330.28,-100.5 320.28,-104 330.28,-107.5 330.28,-100.5"/>
</g>
<!-- Node16&#45;&gt;Node16 -->
<g id="edge33" class="edge">
<title>Node16&#45;&gt;Node16</title>
<path fill="none" stroke="midnightblue" d="M320.19,-123.03C318.96,-128.13 311.39,-132 297.5,-132 275.82,-132 269.55,-122.57 278.7,-113.76"/>
<polygon fill="midnightblue" stroke="midnightblue" points="323.4,-121.62 316.3,-113.76 316.94,-124.33 323.4,-121.62"/>
</g>
<!-- Node17&#45;&gt;Node17 -->
<g id="edge39" class="edge">
<title>Node17&#45;&gt;Node17</title>
<path fill="none" stroke="midnightblue" d="M320.19,-217.03C318.96,-222.13 311.39,-226 297.5,-226 275.82,-226 269.55,-216.57 278.7,-207.76"/>
<polygon fill="midnightblue" stroke="midnightblue" points="323.4,-215.62 316.3,-207.76 316.94,-218.33 323.4,-215.62"/>
</g>
<!-- Node18 -->
<g id="node18" class="node">
<title>Node18</title>
<g id="a_node18"><a xlink:href="group__grp__conjugate__gradient.html#ga25a3bae2ff2ee0469b045de0d033398b" target="_top" xlink:title="Use preconditioned conjugate gradient method to find minimum of energy functional.">
<polygon fill="white" stroke="black" points="151,-188.5 151,-207.5 199,-207.5 199,-188.5 151,-188.5"/>
<text text-anchor="middle" x="175" y="-195.5" font-family="Helvetica,sans-Serif" font-size="10.00">pc00aa</text>
</a>
</g>
</g>
<!-- Node17&#45;&gt;Node18 -->
<g id="edge37" class="edge">
<title>Node17&#45;&gt;Node18</title>
<path fill="none" stroke="midnightblue" d="M263.16,-198C242.81,-198 217.31,-198 199.16,-198"/>
<polygon fill="midnightblue" stroke="midnightblue" points="263.27,-201.5 273.27,-198 263.27,-194.5 263.27,-201.5"/>
</g>
<!-- Node18&#45;&gt;Node18 -->
<g id="edge38" class="edge">
<title>Node18&#45;&gt;Node18</title>
<path fill="none" stroke="midnightblue" d="M196.48,-217.4C195.05,-222.31 187.89,-226 175,-226 154.38,-226 148.42,-216.57 157.12,-207.76"/>
<polygon fill="midnightblue" stroke="midnightblue" points="199.66,-215.9 192.88,-207.76 193.1,-218.35 199.66,-215.9"/>
</g>
<!-- Node19&#45;&gt;Node8 -->
<g id="edge42" class="edge">
<title>Node19&#45;&gt;Node8</title>
<path fill="none" stroke="midnightblue" d="M385.72,-12.62C343.69,-15.52 285.11,-21.55 235,-34 221.88,-37.26 207.74,-42.7 196.6,-47.47"/>
<polygon fill="midnightblue" stroke="midnightblue" points="386.01,-16.11 395.76,-11.97 385.56,-9.13 386.01,-16.11"/>
</g>
<!-- Node20&#45;&gt;Node3 -->
<g id="edge46" class="edge">
<title>Node20&#45;&gt;Node3</title>
<path fill="none" stroke="midnightblue" d="M599.61,-315.88C614.5,-308.37 630.14,-299.49 639.97,-292.64"/>
<polygon fill="midnightblue" stroke="midnightblue" points="597.94,-312.8 590.5,-320.35 601.02,-319.09 597.94,-312.8"/>
</g>
<!-- Node20&#45;&gt;Node4 -->
<g id="edge45" class="edge">
<title>Node20&#45;&gt;Node4</title>
<path fill="none" stroke="midnightblue" d="M515.42,-330C457.25,-330 354.93,-330 315.06,-330"/>
<polygon fill="midnightblue" stroke="midnightblue" points="515.74,-333.5 525.74,-330 515.74,-326.5 515.74,-333.5"/>
</g>
</g>
</svg>
