<?xml version="1.0" encoding="UTF-8" standalone="no"?>
<!DOCTYPE svg PUBLIC "-//W3C//DTD SVG 1.1//EN"
 "http://www.w3.org/Graphics/SVG/1.1/DTD/svg11.dtd">
<!-- Generated by graphviz version 2.44.0 ()
 -->
<!-- Title: coords Pages: 1 -->
<svg width="494pt" height="294pt"
 viewBox="0.00 0.00 494.00 294.00" xmlns="http://www.w3.org/2000/svg" xmlns:xlink="http://www.w3.org/1999/xlink">
<g id="graph0" class="graph" transform="scale(1 1) rotate(0) translate(4 290)">
<title>coords</title>
<polygon fill="white" stroke="transparent" points="-4,4 -4,-290 490,-290 490,4 -4,4"/>
<!-- Node1 -->
<g id="node1" class="node">
<title>Node1</title>
<g id="a_node1"><a xlink:title="Calculates coordinates, , and metrics, using FFTs.">
<polygon fill="#bfbfbf" stroke="black" points="440,-95.5 440,-114.5 486,-114.5 486,-95.5 440,-95.5"/>
<text text-anchor="middle" x="463" y="-102.5" font-family="Helvetica,sans-Serif" font-size="10.00">coords</text>
</a>
</g>
</g>
<!-- Node2 -->
<g id="node2" class="node">
<title>Node2</title>
<g id="a_node2"><a xlink:href="group__grp__currents.html#gacaf4411e0ba378631dcd2ccb3752e452" target="_top" xlink:title="Computes the plasma current, , and the &quot;linking&quot; current, .">
<polygon fill="white" stroke="black" points="358,-237.5 358,-256.5 402,-256.5 402,-237.5 358,-237.5"/>
<text text-anchor="middle" x="380" y="-244.5" font-family="Helvetica,sans-Serif" font-size="10.00">curent</text>
</a>
</g>
</g>
<!-- Node1&#45;&gt;Node2 -->
<g id="edge1" class="edge">
<title>Node1&#45;&gt;Node2</title>
<path fill="none" stroke="midnightblue" d="M452.88,-123.76C441.97,-145.78 422.83,-183.21 404,-214 399.05,-222.1 392.86,-230.91 388.16,-237.39"/>
<polygon fill="midnightblue" stroke="midnightblue" points="456.14,-125.06 457.4,-114.54 449.85,-121.98 456.14,-125.06"/>
</g>
<!-- Node5 -->
<g id="node5" class="node">
<title>Node5</title>
<g id="a_node5"><a xlink:href="group__grp__diagnostics.html#ga6411205c36a7d50002d7f3fb3133c441" target="_top" xlink:title="Measures error in Beltrami equation, .">
<polygon fill="white" stroke="black" points="185,-228.5 185,-247.5 230,-247.5 230,-228.5 185,-228.5"/>
<text text-anchor="middle" x="207.5" y="-235.5" font-family="Helvetica,sans-Serif" font-size="10.00">jo00aa</text>
</a>
</g>
</g>
<!-- Node1&#45;&gt;Node5 -->
<g id="edge4" class="edge">
<title>Node1&#45;&gt;Node5</title>
<path fill="none" stroke="midnightblue" d="M441.52,-120.81C430.67,-128.84 416.95,-138.46 404,-146 343.39,-181.32 267.01,-214.13 230.24,-229.25"/>
<polygon fill="midnightblue" stroke="midnightblue" points="443.64,-123.59 449.53,-114.79 439.43,-118 443.64,-123.59"/>
</g>
<!-- Node8 -->
<g id="node8" class="node">
<title>Node8</title>
<g id="a_node8"><a xlink:href="group__grp__local__force.html#ga7a5316b9e5eeb42811aa6bccd29a132f" target="_top" xlink:title="Computes , and the spectral condensation constraints if required, on the interfaces,...">
<polygon fill="white" stroke="black" points="359.5,-19.5 359.5,-38.5 400.5,-38.5 400.5,-19.5 359.5,-19.5"/>
<text text-anchor="middle" x="380" y="-26.5" font-family="Helvetica,sans-Serif" font-size="10.00">lforce</text>
</a>
</g>
</g>
<!-- Node1&#45;&gt;Node8 -->
<g id="edge8" class="edge">
<title>Node1&#45;&gt;Node8</title>
<path fill="none" stroke="midnightblue" d="M445.65,-88.18C434.22,-76.62 418.48,-61.06 404,-48 400.61,-44.95 396.84,-41.75 393.34,-38.87"/>
<polygon fill="midnightblue" stroke="midnightblue" points="443.29,-90.78 452.8,-95.46 448.29,-85.88 443.29,-90.78"/>
</g>
<!-- Node9 -->
<g id="node9" class="node">
<title>Node9</title>
<g id="a_node9"><a xlink:href="group__grp__metrics.html#ga254ce8e645c4110d77e3b3dbc3a89885" target="_top" xlink:title="Calculates the metric quantities, , which are required for the energy and helicity integrals.">
<polygon fill="white" stroke="black" points="358.5,-57.5 358.5,-76.5 401.5,-76.5 401.5,-57.5 358.5,-57.5"/>
<text text-anchor="middle" x="380" y="-64.5" font-family="Helvetica,sans-Serif" font-size="10.00">metrix</text>
</a>
</g>
</g>
<!-- Node1&#45;&gt;Node9 -->
<g id="edge9" class="edge">
<title>Node1&#45;&gt;Node9</title>
<path fill="none" stroke="midnightblue" d="M432.47,-91.15C422.16,-86.31 410.83,-81 401.43,-76.59"/>
<polygon fill="midnightblue" stroke="midnightblue" points="431.02,-94.33 441.56,-95.41 433.99,-88 431.02,-94.33"/>
</g>
<!-- Node11 -->
<g id="node11" class="node">
<title>Node11</title>
<g id="a_node11"><a xlink:href="group__grp__initialization.html#ga28628de0fdb3b3497668007d8d0643bd" target="_top" xlink:title="Allocates and initializes internal arrays.">
<polygon fill="white" stroke="black" points="272.5,-152.5 272.5,-171.5 316.5,-171.5 316.5,-152.5 272.5,-152.5"/>
<text text-anchor="middle" x="294.5" y="-159.5" font-family="Helvetica,sans-Serif" font-size="10.00">preset</text>
</a>
</g>
</g>
<!-- Node1&#45;&gt;Node11 -->
<g id="edge11" class="edge">
<title>Node1&#45;&gt;Node11</title>
<path fill="none" stroke="midnightblue" d="M430.16,-115.9C396.8,-127.32 345.33,-144.94 316.65,-154.76"/>
<polygon fill="midnightblue" stroke="midnightblue" points="431.56,-119.12 439.89,-112.57 429.3,-112.5 431.56,-119.12"/>
</g>
<!-- Node13 -->
<g id="node13" class="node">
<title>Node13</title>
<g id="a_node13"><a xlink:href="group__grp__volume.html#gae4c62d20b8fef07f4471b5b0889ab005" target="_top" xlink:title="Computes volume of each region; and, if required, the derivatives of the volume with respect to the i...">
<polygon fill="white" stroke="black" points="356,-95.5 356,-114.5 404,-114.5 404,-95.5 356,-95.5"/>
<text text-anchor="middle" x="380" y="-102.5" font-family="Helvetica,sans-Serif" font-size="10.00">volume</text>
</a>
</g>
</g>
<!-- Node1&#45;&gt;Node13 -->
<g id="edge15" class="edge">
<title>Node1&#45;&gt;Node13</title>
<path fill="none" stroke="midnightblue" d="M429.81,-98.38C421.26,-98.11 412.2,-98.26 404.24,-98.83"/>
<polygon fill="midnightblue" stroke="midnightblue" points="429.7,-101.88 439.87,-98.91 430.06,-94.89 429.7,-101.88"/>
</g>
<!-- Node3 -->
<g id="node3" class="node">
<title>Node3</title>
<g id="a_node3"><a xlink:href="group__grp__solver.html#ga6626839aff500f060beb5bce2b90c447" target="_top" xlink:title="Solves Beltrami/vacuum (linear) system, given matrices.unpacking fluxes, helicity multiplier">
<polygon fill="white" stroke="black" points="269,-256.5 269,-275.5 320,-275.5 320,-256.5 269,-256.5"/>
<text text-anchor="middle" x="294.5" y="-263.5" font-family="Helvetica,sans-Serif" font-size="10.00">mp00ac</text>
</a>
</g>
</g>
<!-- Node2&#45;&gt;Node3 -->
<g id="edge2" class="edge">
<title>Node2&#45;&gt;Node3</title>
<path fill="none" stroke="midnightblue" d="M347.97,-254.06C338.78,-256.15 328.85,-258.41 320.12,-260.4"/>
<polygon fill="midnightblue" stroke="midnightblue" points="348.96,-257.43 357.93,-251.79 347.4,-250.6 348.96,-257.43"/>
</g>
<!-- Node4 -->
<g id="node4" class="node">
<title>Node4</title>
<g id="a_node4"><a xlink:href="group__grp__solver__driver.html#gacad623d4c5c006e9ad10116372f92ad3" target="_top" xlink:title="Constructs Beltrami field in given volume consistent with flux, helicity, rotational&#45;transform and/or...">
<polygon fill="white" stroke="black" points="182,-266.5 182,-285.5 233,-285.5 233,-266.5 182,-266.5"/>
<text text-anchor="middle" x="207.5" y="-273.5" font-family="Helvetica,sans-Serif" font-size="10.00">ma02aa</text>
</a>
</g>
</g>
<!-- Node3&#45;&gt;Node4 -->
<g id="edge3" class="edge">
<title>Node3&#45;&gt;Node4</title>
<path fill="none" stroke="midnightblue" d="M258.72,-270.09C250.1,-271.11 241.04,-272.17 233.03,-273.11"/>
<polygon fill="midnightblue" stroke="midnightblue" points="259.39,-273.54 268.91,-268.89 258.57,-266.58 259.39,-273.54"/>
</g>
<!-- Node6 -->
<g id="node6" class="node">
<title>Node6</title>
<g id="a_node6"><a xlink:href="xspech_8f90.html#aea782eae089760a491c2c54f9903abcc" target="_top" xlink:title="Main program of SPEC.">
<polygon fill="white" stroke="black" points="90,-133.5 90,-152.5 137,-152.5 137,-133.5 90,-133.5"/>
<text text-anchor="middle" x="113.5" y="-140.5" font-family="Helvetica,sans-Serif" font-size="10.00">xspech</text>
</a>
</g>
</g>
<!-- Node5&#45;&gt;Node6 -->
<g id="edge5" class="edge">
<title>Node5&#45;&gt;Node6</title>
<path fill="none" stroke="midnightblue" d="M188.83,-220.84C186.52,-218.55 184.19,-216.23 182,-214 160.75,-192.43 136.42,-166.53 123.56,-152.75"/>
<polygon fill="midnightblue" stroke="midnightblue" points="186.82,-223.77 196.41,-228.27 191.72,-218.77 186.82,-223.77"/>
</g>
<!-- Node7 -->
<g id="node7" class="node">
<title>Node7</title>
<g id="a_node7"><a xlink:href="xspech_8f90.html#a537af4990058c0b0f2cd8b3669af204f" target="_top" xlink:title="todo remark">
<polygon fill="white" stroke="black" points="0,-133.5 0,-152.5 45,-152.5 45,-133.5 0,-133.5"/>
<text text-anchor="middle" x="22.5" y="-140.5" font-family="Helvetica,sans-Serif" font-size="10.00">ending</text>
</a>
</g>
</g>
<!-- Node6&#45;&gt;Node7 -->
<g id="edge6" class="edge">
<title>Node6&#45;&gt;Node7</title>
<path fill="none" stroke="midnightblue" d="M79.45,-136.45C67.98,-136.04 55.42,-136.26 45.12,-137.12"/>
<polygon fill="midnightblue" stroke="midnightblue" points="79.4,-139.96 89.58,-137.01 79.79,-132.97 79.4,-139.96"/>
</g>
<!-- Node7&#45;&gt;Node6 -->
<g id="edge7" class="edge">
<title>Node7&#45;&gt;Node6</title>
<path fill="none" stroke="midnightblue" d="M55.12,-149.49C66.49,-149.96 79.09,-149.79 89.58,-148.99"/>
<polygon fill="midnightblue" stroke="midnightblue" points="55.31,-146 45.12,-148.88 54.89,-152.98 55.31,-146"/>
</g>
<!-- Node10 -->
<g id="node10" class="node">
<title>Node10</title>
<g id="a_node10"><a xlink:href="group__grp__integrals.html#ga400af9e33dd5465ff9a4bba9fbf91108" target="_top" xlink:title="Calculates volume integrals of Chebyshev polynomials and metric element products.">
<polygon fill="white" stroke="black" points="269,-0.5 269,-19.5 320,-19.5 320,-0.5 269,-0.5"/>
<text text-anchor="middle" x="294.5" y="-7.5" font-family="Helvetica,sans-Serif" font-size="10.00">ma00aa</text>
</a>
</g>
</g>
<!-- Node9&#45;&gt;Node10 -->
<g id="edge10" class="edge">
<title>Node9&#45;&gt;Node10</title>
<path fill="none" stroke="midnightblue" d="M356.15,-51.41C341.21,-41.21 322.18,-28.21 309.46,-19.53"/>
<polygon fill="midnightblue" stroke="midnightblue" points="354.6,-54.58 364.84,-57.33 358.55,-48.8 354.6,-54.58"/>
</g>
<!-- Node11&#45;&gt;Node6 -->
<g id="edge14" class="edge">
<title>Node11&#45;&gt;Node6</title>
<path fill="none" stroke="midnightblue" d="M262.6,-174.25C240.04,-181.51 208.85,-188.04 182,-181 161.19,-175.54 140.02,-162.06 127.08,-152.72"/>
<polygon fill="midnightblue" stroke="midnightblue" points="263.99,-177.48 272.3,-170.91 261.71,-170.86 263.99,-177.48"/>
</g>
<!-- Node12 -->
<g id="node12" class="node">
<title>Node12</title>
<g id="a_node12"><a xlink:href="group__grp__diagnostics.html#ga7401b50ec10c6598ee4a8112717a63ec" target="_top" xlink:title="Computes eigenvalues and eigenvectors of derivative matrix, .">
<polygon fill="white" stroke="black" points="185,-152.5 185,-171.5 230,-171.5 230,-152.5 185,-152.5"/>
<text text-anchor="middle" x="207.5" y="-159.5" font-family="Helvetica,sans-Serif" font-size="10.00">hesian</text>
</a>
</g>
</g>
<!-- Node11&#45;&gt;Node12 -->
<g id="edge12" class="edge">
<title>Node11&#45;&gt;Node12</title>
<path fill="none" stroke="midnightblue" d="M262.27,-162C251.6,-162 239.91,-162 230.16,-162"/>
<polygon fill="midnightblue" stroke="midnightblue" points="262.49,-165.5 272.49,-162 262.49,-158.5 262.49,-165.5"/>
</g>
<!-- Node12&#45;&gt;Node6 -->
<g id="edge13" class="edge">
<title>Node12&#45;&gt;Node6</title>
<path fill="none" stroke="midnightblue" d="M174.74,-155.44C162.36,-152.88 148.44,-150.01 137.11,-147.67"/>
<polygon fill="midnightblue" stroke="midnightblue" points="174.2,-158.9 184.7,-157.5 175.61,-152.05 174.2,-158.9"/>
</g>
<!-- Node13&#45;&gt;Node1 -->
<g id="edge16" class="edge">
<title>Node13&#45;&gt;Node1</title>
<path fill="none" stroke="midnightblue" d="M414.39,-111.66C422.98,-111.88 432.01,-111.7 439.87,-111.09"/>
<polygon fill="midnightblue" stroke="midnightblue" points="414.39,-108.15 404.24,-111.17 414.06,-115.15 414.39,-108.15"/>
</g>
<!-- Node13&#45;&gt;Node6 -->
<g id="edge30" class="edge">
<title>Node13&#45;&gt;Node6</title>
<path fill="none" stroke="midnightblue" d="M345.82,-109.77C291.28,-117.6 184.08,-133 137.27,-139.73"/>
<polygon fill="midnightblue" stroke="midnightblue" points="346.59,-113.19 355.99,-108.31 345.59,-106.26 346.59,-113.19"/>
</g>
<!-- Node13&#45;&gt;Node10 -->
<g id="edge26" class="edge">
<title>Node13&#45;&gt;Node10</title>
<path fill="none" stroke="midnightblue" d="M358.26,-88.43C357.47,-87.63 356.72,-86.82 356,-86 336.2,-63.51 340.14,-51.18 320,-29 316.96,-25.65 313.28,-22.46 309.7,-19.67"/>
<polygon fill="midnightblue" stroke="midnightblue" points="355.95,-91.06 365.7,-95.22 360.67,-85.89 355.95,-91.06"/>
</g>
<!-- Node14 -->
<g id="node14" class="node">
<title>Node14</title>
<g id="a_node14"><a xlink:href="group__grp__force__driver.html#ga8ccd6c7d901872702521d0a0edf95412" target="_top" xlink:title="fcn2">
<polygon fill="white" stroke="black" points="277,-38.5 277,-57.5 312,-57.5 312,-38.5 277,-38.5"/>
<text text-anchor="middle" x="294.5" y="-45.5" font-family="Helvetica,sans-Serif" font-size="10.00">fcn2</text>
</a>
</g>
</g>
<!-- Node13&#45;&gt;Node14 -->
<g id="edge17" class="edge">
<title>Node13&#45;&gt;Node14</title>
<path fill="none" stroke="midnightblue" d="M356.15,-89.41C341.21,-79.21 322.18,-66.21 309.46,-57.53"/>
<polygon fill="midnightblue" stroke="midnightblue" points="354.6,-92.58 364.84,-95.33 358.55,-86.8 354.6,-92.58"/>
</g>
<!-- Node18 -->
<g id="node18" class="node">
<title>Node18</title>
<g id="a_node18"><a xlink:href="group__grp__diagnostics.html#ga831aed2458140e266ee4d37461dd5350" target="_top" xlink:title="Constructs Poincaré plot and &quot;approximate&quot; rotational&#45;transform (for single field line).">
<polygon fill="white" stroke="black" points="270.5,-76.5 270.5,-95.5 318.5,-95.5 318.5,-76.5 270.5,-76.5"/>
<text text-anchor="middle" x="294.5" y="-83.5" font-family="Helvetica,sans-Serif" font-size="10.00">pp00ab</text>
</a>
</g>
</g>
<!-- Node13&#45;&gt;Node18 -->
<g id="edge27" class="edge">
<title>Node13&#45;&gt;Node18</title>
<path fill="none" stroke="midnightblue" d="M345.8,-97.45C336.7,-95.38 327.04,-93.18 318.63,-91.26"/>
<polygon fill="midnightblue" stroke="midnightblue" points="345.21,-100.9 355.74,-99.71 346.77,-94.08 345.21,-100.9"/>
</g>
<!-- Node15 -->
<g id="node15" class="node">
<title>Node15</title>
<g id="a_node15"><a xlink:href="group__grp__force__driver.html#gaec14f81fbdbedafbc4189489ec8ae178" target="_top" xlink:title="Employs Newton method to find , where &#160;and &#160;is defined in dforce() .">
<polygon fill="white" stroke="black" points="183.5,-38.5 183.5,-57.5 231.5,-57.5 231.5,-38.5 183.5,-38.5"/>
<text text-anchor="middle" x="207.5" y="-45.5" font-family="Helvetica,sans-Serif" font-size="10.00">newton</text>
</a>
</g>
</g>
<!-- Node14&#45;&gt;Node15 -->
<g id="edge18" class="edge">
<title>Node14&#45;&gt;Node15</title>
<path fill="none" stroke="midnightblue" d="M266.59,-41.67C255.38,-41.04 242.48,-41.12 231.69,-41.91"/>
<polygon fill="midnightblue" stroke="midnightblue" points="266.46,-45.17 276.71,-42.5 267.02,-38.19 266.46,-45.17"/>
</g>
<!-- Node15&#45;&gt;Node6 -->
<g id="edge25" class="edge">
<title>Node15&#45;&gt;Node6</title>
<path fill="none" stroke="midnightblue" d="M185.37,-63.97C184.21,-64.98 183.08,-65.99 182,-67 158.42,-89.06 134.06,-118.42 122.08,-133.37"/>
<polygon fill="midnightblue" stroke="midnightblue" points="187.62,-66.66 193.16,-57.63 183.2,-61.23 187.62,-66.66"/>
</g>
<!-- Node15&#45;&gt;Node14 -->
<g id="edge21" class="edge">
<title>Node15&#45;&gt;Node14</title>
<path fill="none" stroke="midnightblue" d="M241.83,-54.61C253.79,-54.98 266.75,-54.61 276.71,-53.5"/>
<polygon fill="midnightblue" stroke="midnightblue" points="241.86,-51.11 231.69,-54.09 241.5,-58.1 241.86,-51.11"/>
</g>
<!-- Node16 -->
<g id="node16" class="node">
<title>Node16</title>
<g id="a_node16"><a xlink:href="group__grp__force__driver.html#gabbc245b3884ee8d8d3e2a52f25149f78" target="_top" xlink:title="fcn1">
<polygon fill="white" stroke="black" points="96,-38.5 96,-57.5 131,-57.5 131,-38.5 96,-38.5"/>
<text text-anchor="middle" x="113.5" y="-45.5" font-family="Helvetica,sans-Serif" font-size="10.00">fcn1</text>
</a>
</g>
</g>
<!-- Node15&#45;&gt;Node16 -->
<g id="edge19" class="edge">
<title>Node15&#45;&gt;Node16</title>
<path fill="none" stroke="midnightblue" d="M173.25,-41.49C158.9,-40.94 142.76,-41.34 131.03,-42.67"/>
<polygon fill="midnightblue" stroke="midnightblue" points="173.1,-44.98 183.28,-42.05 173.5,-37.99 173.1,-44.98"/>
</g>
<!-- Node17 -->
<g id="node17" class="node">
<title>Node17</title>
<g id="a_node17"><a xlink:href="group__grp__force__driver.html#ga382822b303cbf8c56d6f54dcb379caf2" target="_top" xlink:title="read or write force&#45;derivative matrix">
<polygon fill="white" stroke="black" points="81,-0.5 81,-19.5 146,-19.5 146,-0.5 81,-0.5"/>
<text text-anchor="middle" x="113.5" y="-7.5" font-family="Helvetica,sans-Serif" font-size="10.00">writereadgf</text>
</a>
</g>
</g>
<!-- Node15&#45;&gt;Node17 -->
<g id="edge22" class="edge">
<title>Node15&#45;&gt;Node17</title>
<path fill="none" stroke="midnightblue" d="M185.56,-33.58C173.96,-27.78 159.31,-21.5 146.33,-16.69"/>
<polygon fill="midnightblue" stroke="midnightblue" points="184,-36.72 194.47,-38.3 187.27,-30.53 184,-36.72"/>
</g>
<!-- Node16&#45;&gt;Node15 -->
<g id="edge20" class="edge">
<title>Node16&#45;&gt;Node15</title>
<path fill="none" stroke="midnightblue" d="M141.05,-54.18C154.4,-55.01 170.43,-54.93 183.28,-53.95"/>
<polygon fill="midnightblue" stroke="midnightblue" points="141.3,-50.69 131.03,-53.33 140.7,-57.67 141.3,-50.69"/>
</g>
<!-- Node17&#45;&gt;Node14 -->
<g id="edge23" class="edge">
<title>Node17&#45;&gt;Node14</title>
<path fill="none" stroke="midnightblue" d="M156.23,-15.18C179.06,-18.39 207.76,-23.05 233,-29 248.11,-32.56 264.93,-37.97 276.99,-42.1"/>
<polygon fill="midnightblue" stroke="midnightblue" points="156.56,-11.69 146.18,-13.81 155.61,-18.63 156.56,-11.69"/>
</g>
<!-- Node17&#45;&gt;Node15 -->
<g id="edge24" class="edge">
<title>Node17&#45;&gt;Node15</title>
<path fill="none" stroke="midnightblue" d="M135.22,-24.3C149.5,-31.47 168.49,-39.38 183.28,-44.36"/>
<polygon fill="midnightblue" stroke="midnightblue" points="136.67,-21.11 126.19,-19.51 133.38,-27.29 136.67,-21.11"/>
</g>
<!-- Node19 -->
<g id="node19" class="node">
<title>Node19</title>
<g id="a_node19"><a xlink:href="group__grp__diagnostics.html#gad67931244268a09bd077dae8910c7096" target="_top" xlink:title="Constructs Poincaré plot and &quot;approximate&quot; rotational&#45;transform (driver).">
<polygon fill="white" stroke="black" points="183.5,-76.5 183.5,-95.5 231.5,-95.5 231.5,-76.5 183.5,-76.5"/>
<text text-anchor="middle" x="207.5" y="-83.5" font-family="Helvetica,sans-Serif" font-size="10.00">pp00aa</text>
</a>
</g>
</g>
<!-- Node18&#45;&gt;Node19 -->
<g id="edge28" class="edge">
<title>Node18&#45;&gt;Node19</title>
<path fill="none" stroke="midnightblue" d="M260.26,-86C250.71,-86 240.5,-86 231.7,-86"/>
<polygon fill="midnightblue" stroke="midnightblue" points="260.27,-89.5 270.27,-86 260.27,-82.5 260.27,-89.5"/>
</g>
<!-- Node19&#45;&gt;Node6 -->
<g id="edge29" class="edge">
<title>Node19&#45;&gt;Node6</title>
<path fill="none" stroke="midnightblue" d="M182.26,-101.02C165.66,-111.3 144.16,-124.62 129.88,-133.47"/>
<polygon fill="midnightblue" stroke="midnightblue" points="184.24,-103.91 190.89,-95.67 180.55,-97.96 184.24,-103.91"/>
</g>
</g>
</svg>
