<?xml version="1.0" encoding="UTF-8" standalone="no"?>
<!DOCTYPE svg PUBLIC "-//W3C//DTD SVG 1.1//EN"
 "http://www.w3.org/Graphics/SVG/1.1/DTD/svg11.dtd">
<!-- Generated by graphviz version 2.47.1 (0)
 -->
<!-- Title: gauleg Pages: 1 -->
<svg width="501pt" height="99pt"
 viewBox="0.00 0.00 501.00 99.00" xmlns="http://www.w3.org/2000/svg" xmlns:xlink="http://www.w3.org/1999/xlink">
<g id="graph0" class="graph" transform="scale(1 1) rotate(0) translate(4 95)">
<title>gauleg</title>
<polygon fill="white" stroke="transparent" points="-4,4 -4,-95 497,-95 497,4 -4,4"/>
<!-- Node1 -->
<g id="node1" class="node">
<title>Node1</title>
<g id="a_node1"><a xlink:title="Gauss&#45;Legendre weights and abscissae.">
<polygon fill="#bfbfbf" stroke="black" points="448,-0.5 448,-19.5 493,-19.5 493,-0.5 448,-0.5"/>
<text text-anchor="middle" x="470.5" y="-7.5" font-family="Helvetica,sans-Serif" font-size="10.00">gauleg</text>
</a>
</g>
</g>
<!-- Node2 -->
<g id="node2" class="node">
<title>Node2</title>
<g id="a_node2"><a xlink:href="group__grp__initialization.html#ga28628de0fdb3b3497668007d8d0643bd" target="_top" xlink:title="Allocates and initializes internal arrays.">
<polygon fill="white" stroke="black" points="368,-0.5 368,-19.5 412,-19.5 412,-0.5 368,-0.5"/>
<text text-anchor="middle" x="390" y="-7.5" font-family="Helvetica,sans-Serif" font-size="10.00">preset</text>
</a>
</g>
</g>
<!-- Node1&#45;&gt;Node2 -->
<g id="edge1" class="edge">
<title>Node1&#45;&gt;Node2</title>
<path fill="none" stroke="midnightblue" d="M437.57,-10C429.03,-10 420.01,-10 412.21,-10"/>
<polygon fill="midnightblue" stroke="midnightblue" points="437.63,-13.5 447.63,-10 437.63,-6.5 437.63,-13.5"/>
</g>
<!-- Node3 -->
<g id="node3" class="node">
<title>Node3</title>
<g id="a_node3"><a xlink:href="group__grp__diagnostics.html#ga7401b50ec10c6598ee4a8112717a63ec" target="_top" xlink:title="Computes eigenvalues and eigenvectors of derivative matrix, .">
<polygon fill="white" stroke="black" points="287,-20.5 287,-39.5 332,-39.5 332,-20.5 287,-20.5"/>
<text text-anchor="middle" x="309.5" y="-27.5" font-family="Helvetica,sans-Serif" font-size="10.00">hesian</text>
</a>
</g>
</g>
<!-- Node2&#45;&gt;Node3 -->
<g id="edge2" class="edge">
<title>Node2&#45;&gt;Node3</title>
<path fill="none" stroke="midnightblue" d="M358.13,-17.86C349.44,-20.08 340.17,-22.44 332.14,-24.49"/>
<polygon fill="midnightblue" stroke="midnightblue" points="359.14,-21.22 367.96,-15.36 357.41,-14.44 359.14,-21.22"/>
</g>
<!-- Node6 -->
<g id="node6" class="node">
<title>Node6</title>
<g id="a_node6"><a xlink:href="xspech_8f90.html#aea782eae089760a491c2c54f9903abcc" target="_top" xlink:title="Main program of SPEC.">
<polygon fill="white" stroke="black" points="0,-24.5 0,-43.5 47,-43.5 47,-24.5 0,-24.5"/>
<text text-anchor="middle" x="23.5" y="-31.5" font-family="Helvetica,sans-Serif" font-size="10.00">xspech</text>
</a>
</g>
</g>
<!-- Node2&#45;&gt;Node6 -->
<g id="edge8" class="edge">
<title>Node2&#45;&gt;Node6</title>
<path fill="none" stroke="midnightblue" d="M357.71,-9.95C337.52,-10 310.71,-10.24 287,-11 198.07,-13.84 92.74,-25.64 47.27,-31.15"/>
<polygon fill="midnightblue" stroke="midnightblue" points="357.9,-13.45 367.9,-9.94 357.89,-6.45 357.9,-13.45"/>
</g>
<!-- Node4 -->
<g id="node4" class="node">
<title>Node4</title>
<g id="a_node4"><a xlink:href="xspech_8f90.html#a48f45478dc2c9f70ea8aa1c60ad06503" target="_top" xlink:title=" ">
<polygon fill="white" stroke="black" points="213,-24.5 213,-43.5 251,-43.5 251,-24.5 213,-24.5"/>
<text text-anchor="middle" x="232" y="-31.5" font-family="Helvetica,sans-Serif" font-size="10.00">spec</text>
</a>
</g>
</g>
<!-- Node3&#45;&gt;Node4 -->
<g id="edge3" class="edge">
<title>Node3&#45;&gt;Node4</title>
<path fill="none" stroke="midnightblue" d="M276.55,-31.69C267.99,-32.15 259.03,-32.62 251.47,-33.02"/>
<polygon fill="midnightblue" stroke="midnightblue" points="276.86,-35.18 286.66,-31.16 276.49,-28.19 276.86,-35.18"/>
</g>
<!-- Node5 -->
<g id="node5" class="node">
<title>Node5</title>
<g id="a_node5"><a xlink:href="group__grp__output.html#ga0f962c09cd5d5eba99f1cba043cb3898" target="_top" xlink:title="Initialize the interface to the HDF5 library and open the output file.">
<polygon fill="white" stroke="black" points="83,-71.5 83,-90.5 177,-90.5 177,-71.5 83,-71.5"/>
<text text-anchor="middle" x="130" y="-78.5" font-family="Helvetica,sans-Serif" font-size="10.00">sphdf5::init_outfile</text>
</a>
</g>
</g>
<!-- Node4&#45;&gt;Node5 -->
<g id="edge4" class="edge">
<title>Node4&#45;&gt;Node5</title>
<path fill="none" stroke="midnightblue" d="M203.49,-46.93C186.97,-54.69 166.32,-64.4 151.29,-71.46"/>
<polygon fill="midnightblue" stroke="midnightblue" points="205.1,-50.04 212.66,-42.62 202.12,-43.71 205.1,-50.04"/>
</g>
<!-- Node4&#45;&gt;Node6 -->
<g id="edge7" class="edge">
<title>Node4&#45;&gt;Node6</title>
<path fill="none" stroke="midnightblue" d="M202.7,-29.18C161.3,-26.48 85.03,-26.61 47.12,-29.59"/>
<polygon fill="midnightblue" stroke="midnightblue" points="202.43,-32.67 212.67,-29.95 202.97,-25.69 202.43,-32.67"/>
</g>
<!-- Node5&#45;&gt;Node6 -->
<g id="edge5" class="edge">
<title>Node5&#45;&gt;Node6</title>
<path fill="none" stroke="midnightblue" d="M98.43,-67.25C81.59,-59.68 61.11,-50.46 45.97,-43.66"/>
<polygon fill="midnightblue" stroke="midnightblue" points="97.3,-70.58 107.85,-71.49 100.17,-64.19 97.3,-70.58"/>
</g>
<!-- Node6&#45;&gt;Node4 -->
<g id="edge6" class="edge">
<title>Node6&#45;&gt;Node4</title>
<path fill="none" stroke="midnightblue" d="M57.28,-39.09C101.23,-41.61 177.75,-41.26 212.67,-38.05"/>
<polygon fill="midnightblue" stroke="midnightblue" points="57.33,-35.59 47.12,-38.41 56.86,-42.57 57.33,-35.59"/>
</g>
</g>
</svg>
