<?xml version="1.0" encoding="UTF-8" standalone="no"?>
<!DOCTYPE svg PUBLIC "-//W3C//DTD SVG 1.1//EN"
 "http://www.w3.org/Graphics/SVG/1.1/DTD/svg11.dtd">
<!-- Generated by graphviz version 2.49.0 (0)
 -->
<!-- Title: pp00ab Pages: 1 -->
<svg width="316pt" height="159pt"
 viewBox="0.00 0.00 316.00 159.00" xmlns="http://www.w3.org/2000/svg" xmlns:xlink="http://www.w3.org/1999/xlink">
<g id="graph0" class="graph" transform="scale(1 1) rotate(0) translate(4 155)">
<title>pp00ab</title>
<polygon fill="white" stroke="transparent" points="-4,4 -4,-155 312,-155 312,4 -4,4"/>
<!-- Node1 -->
<g id="node1" class="node">
<title>Node1</title>
<g id="a_node1"><a xlink:title="Constructs Poincaré plot and &quot;approximate&quot; rotational&#45;transform (for single field line).">
<polygon fill="#bfbfbf" stroke="black" points="0,-56.5 0,-75.5 48,-75.5 48,-56.5 0,-56.5"/>
<text text-anchor="middle" x="24" y="-63.5" font-family="Helvetica,sans-Serif" font-size="10.00">pp00ab</text>
</a>
</g>
</g>
<!-- Node1&#45;&gt;Node1 -->
<g id="edge5" class="edge">
<title>Node1&#45;&gt;Node1</title>
<path fill="none" stroke="midnightblue" d="M11.05,-75.76C4.75,-84.57 9.07,-94 24,-94 33.1,-94 38.25,-90.5 39.47,-85.77"/>
<polygon fill="midnightblue" stroke="midnightblue" points="42.78,-84.6 36.95,-75.76 36,-86.31 42.78,-84.6"/>
</g>
<!-- Node2 -->
<g id="node2" class="node">
<title>Node2</title>
<g id="a_node2"><a xlink:href="group__grp__diagnostics.html#ga20985df1b0df0503ca03ca13f1daf642" target="_top" xlink:title="Compute the magnetic field.">
<polygon fill="white" stroke="black" points="88.5,-112.5 88.5,-131.5 127.5,-131.5 127.5,-112.5 88.5,-112.5"/>
<text text-anchor="middle" x="108" y="-119.5" font-family="Helvetica,sans-Serif" font-size="10.00">bfield</text>
</a>
</g>
</g>
<!-- Node1&#45;&gt;Node2 -->
<g id="edge1" class="edge">
<title>Node1&#45;&gt;Node2</title>
<path fill="none" stroke="midnightblue" d="M39.28,-75.75C51.75,-84.27 70.05,-96.76 84.48,-106.62"/>
<polygon fill="midnightblue" stroke="midnightblue" points="82.65,-109.61 92.88,-112.36 86.6,-103.83 82.65,-109.61"/>
</g>
<!-- Node5 -->
<g id="node5" class="node">
<title>Node5</title>
<g id="a_node5"><a xlink:href="group__grp__diagnostics.html#ga08ad6b6635a598c0d0578e42f46b63c5" target="_top" xlink:title="Calculates coordinates, , and metrics, at given .">
<polygon fill="white" stroke="black" points="86.5,-56.5 86.5,-75.5 129.5,-75.5 129.5,-56.5 86.5,-56.5"/>
<text text-anchor="middle" x="108" y="-63.5" font-family="Helvetica,sans-Serif" font-size="10.00">stzxyz</text>
</a>
</g>
</g>
<!-- Node1&#45;&gt;Node5 -->
<g id="edge6" class="edge">
<title>Node1&#45;&gt;Node5</title>
<path fill="none" stroke="midnightblue" d="M48.28,-66C57.02,-66 67.08,-66 76.39,-66"/>
<polygon fill="midnightblue" stroke="midnightblue" points="76.46,-69.5 86.46,-66 76.46,-62.5 76.46,-69.5"/>
</g>
<!-- Node6 -->
<g id="node6" class="node">
<title>Node6</title>
<g id="a_node6"><a xlink:href="group__grp__volume.html#gae4c62d20b8fef07f4471b5b0889ab005" target="_top" xlink:title="Computes volume of each region; and, if required, the derivatives of the volume with respect to the i...">
<polygon fill="white" stroke="black" points="84,-0.5 84,-19.5 132,-19.5 132,-0.5 84,-0.5"/>
<text text-anchor="middle" x="108" y="-7.5" font-family="Helvetica,sans-Serif" font-size="10.00">volume</text>
</a>
</g>
</g>
<!-- Node1&#45;&gt;Node6 -->
<g id="edge8" class="edge">
<title>Node1&#45;&gt;Node6</title>
<path fill="none" stroke="midnightblue" d="M39.28,-56.25C51.75,-47.73 70.05,-35.24 84.48,-25.38"/>
<polygon fill="midnightblue" stroke="midnightblue" points="86.6,-28.17 92.88,-19.64 82.65,-22.39 86.6,-28.17"/>
</g>
<!-- Node2&#45;&gt;Node2 -->
<g id="edge2" class="edge">
<title>Node2&#45;&gt;Node2</title>
<path fill="none" stroke="midnightblue" d="M95.05,-131.76C88.75,-140.57 93.07,-150 108,-150 117.1,-150 122.25,-146.5 123.47,-141.77"/>
<polygon fill="midnightblue" stroke="midnightblue" points="126.78,-140.6 120.95,-131.76 120,-142.31 126.78,-140.6"/>
</g>
<!-- Node3 -->
<g id="node3" class="node">
<title>Node3</title>
<g id="a_node3"><a xlink:href="basefn_8f90.html#af6a4cad04c70bfb14fd18a3bfbc843a3" target="_top" xlink:title="Get the Chebyshev polynomials with zeroth, first derivatives.">
<polygon fill="white" stroke="black" points="170.5,-131.5 170.5,-150.5 231.5,-150.5 231.5,-131.5 170.5,-131.5"/>
<text text-anchor="middle" x="201" y="-138.5" font-family="Helvetica,sans-Serif" font-size="10.00">get_cheby</text>
</a>
</g>
</g>
<!-- Node2&#45;&gt;Node3 -->
<g id="edge3" class="edge">
<title>Node2&#45;&gt;Node3</title>
<path fill="none" stroke="midnightblue" d="M127.86,-125.94C137.36,-127.92 149.25,-130.4 160.63,-132.78"/>
<polygon fill="midnightblue" stroke="midnightblue" points="159.92,-136.21 170.42,-134.82 161.35,-129.35 159.92,-136.21"/>
</g>
<!-- Node4 -->
<g id="node4" class="node">
<title>Node4</title>
<g id="a_node4"><a xlink:href="basefn_8f90.html#a38dc596fb909186b01dacc1feac03164" target="_top" xlink:title="Get the Zernike polynomials &#160;with zeroth, first derivatives.">
<polygon fill="white" stroke="black" points="168,-93.5 168,-112.5 234,-112.5 234,-93.5 168,-93.5"/>
<text text-anchor="middle" x="201" y="-100.5" font-family="Helvetica,sans-Serif" font-size="10.00">get_zernike</text>
</a>
</g>
</g>
<!-- Node2&#45;&gt;Node4 -->
<g id="edge4" class="edge">
<title>Node2&#45;&gt;Node4</title>
<path fill="none" stroke="midnightblue" d="M127.86,-118.06C136.61,-116.23 147.41,-113.98 157.95,-111.78"/>
<polygon fill="midnightblue" stroke="midnightblue" points="158.83,-115.17 167.91,-109.7 157.4,-108.32 158.83,-115.17"/>
</g>
<!-- Node5&#45;&gt;Node5 -->
<g id="edge7" class="edge">
<title>Node5&#45;&gt;Node5</title>
<path fill="none" stroke="midnightblue" d="M95.05,-75.76C88.75,-84.57 93.07,-94 108,-94 117.1,-94 122.25,-90.5 123.47,-85.77"/>
<polygon fill="midnightblue" stroke="midnightblue" points="126.78,-84.6 120.95,-75.76 120,-86.31 126.78,-84.6"/>
</g>
<!-- Node6&#45;&gt;Node6 -->
<g id="edge13" class="edge">
<title>Node6&#45;&gt;Node6</title>
<path fill="none" stroke="midnightblue" d="M95.05,-19.76C88.75,-28.57 93.07,-38 108,-38 117.1,-38 122.25,-34.5 123.47,-29.77"/>
<polygon fill="midnightblue" stroke="midnightblue" points="126.78,-28.6 120.95,-19.76 120,-30.31 126.78,-28.6"/>
</g>
<!-- Node7 -->
<g id="node7" class="node">
<title>Node7</title>
<g id="a_node7"><a xlink:href="group__grp__geometry.html#gaaca20aa60eaf39055f3c9d5c02a24ac2" target="_top" xlink:title="Calculates coordinates, , and metrics, using FFTs.">
<polygon fill="white" stroke="black" points="178,-0.5 178,-19.5 224,-19.5 224,-0.5 178,-0.5"/>
<text text-anchor="middle" x="201" y="-7.5" font-family="Helvetica,sans-Serif" font-size="10.00">coords</text>
</a>
</g>
</g>
<!-- Node6&#45;&gt;Node7 -->
<g id="edge9" class="edge">
<title>Node6&#45;&gt;Node7</title>
<path fill="none" stroke="midnightblue" d="M132.43,-4.01C143.16,-3.21 156.04,-3.04 167.67,-3.51"/>
<polygon fill="midnightblue" stroke="midnightblue" points="167.71,-7.02 177.9,-4.12 168.12,-0.03 167.71,-7.02"/>
</g>
<!-- Node7&#45;&gt;Node6 -->
<g id="edge12" class="edge">
<title>Node7&#45;&gt;Node6</title>
<path fill="none" stroke="midnightblue" d="M177.9,-15.88C167.25,-16.75 154.26,-16.97 142.43,-16.53"/>
<polygon fill="midnightblue" stroke="midnightblue" points="142.61,-13.04 132.43,-15.99 142.23,-20.03 142.61,-13.04"/>
</g>
<!-- Node7&#45;&gt;Node7 -->
<g id="edge10" class="edge">
<title>Node7&#45;&gt;Node7</title>
<path fill="none" stroke="midnightblue" d="M187.44,-19.76C180.84,-28.57 185.36,-38 201,-38 210.78,-38 216.21,-34.31 217.3,-29.4"/>
<polygon fill="midnightblue" stroke="midnightblue" points="220.66,-28.42 214.56,-19.76 213.92,-30.33 220.66,-28.42"/>
</g>
<!-- Node8 -->
<g id="node8" class="node">
<title>Node8</title>
<g id="a_node8"><a xlink:href="group__grp__numerics.html#ga1fd52accb0646f535f9bcc46cf5a68f3" target="_top" xlink:title="Inverse Fourier transform (fftw wrapper)">
<polygon fill="white" stroke="black" points="270,-0.5 270,-19.5 308,-19.5 308,-0.5 270,-0.5"/>
<text text-anchor="middle" x="289" y="-7.5" font-family="Helvetica,sans-Serif" font-size="10.00">invfft</text>
</a>
</g>
</g>
<!-- Node7&#45;&gt;Node8 -->
<g id="edge11" class="edge">
<title>Node7&#45;&gt;Node8</title>
<path fill="none" stroke="midnightblue" d="M224.15,-10C235.04,-10 248.3,-10 259.9,-10"/>
<polygon fill="midnightblue" stroke="midnightblue" points="259.98,-13.5 269.98,-10 259.98,-6.5 259.98,-13.5"/>
</g>
</g>
</svg>
