<?xml version="1.0" encoding="UTF-8" standalone="no"?>
<!DOCTYPE svg PUBLIC "-//W3C//DTD SVG 1.1//EN"
 "http://www.w3.org/Graphics/SVG/1.1/DTD/svg11.dtd">
<!-- Generated by graphviz version 2.49.0 (0)
 -->
<!-- Title: preset Pages: 1 -->
<svg width="397pt" height="562pt"
 viewBox="0.00 0.00 397.00 561.50" xmlns="http://www.w3.org/2000/svg" xmlns:xlink="http://www.w3.org/1999/xlink">
<g id="graph0" class="graph" transform="scale(1 1) rotate(0) translate(4 557.5)">
<title>preset</title>
<polygon fill="white" stroke="transparent" points="-4,4 -4,-557.5 393,-557.5 393,4 -4,4"/>
<!-- Node1 -->
<g id="node1" class="node">
<title>Node1</title>
<g id="a_node1"><a xlink:title="Allocates and initializes internal arrays.">
<polygon fill="#bfbfbf" stroke="black" points="0,-270 0,-289 44,-289 44,-270 0,-270"/>
<text text-anchor="middle" x="22" y="-277" font-family="Helvetica,sans-Serif" font-size="10.00">preset</text>
</a>
</g>
</g>
<!-- Node1&#45;&gt;Node1 -->
<g id="edge23" class="edge">
<title>Node1&#45;&gt;Node1</title>
<path fill="none" stroke="midnightblue" d="M6.9,-289.26C-0.45,-298.07 4.58,-307.5 22,-307.5 32.89,-307.5 38.94,-303.81 40.15,-298.9"/>
<polygon fill="midnightblue" stroke="midnightblue" points="43.45,-297.74 37.1,-289.26 36.78,-299.85 43.45,-297.74"/>
</g>
<!-- Node2 -->
<g id="node2" class="node">
<title>Node2</title>
<g id="a_node2"><a xlink:href="group__grp__free-boundary.html#gac0a2cc2241947b27241bb8ef75c5e0ed" target="_top" xlink:title="Computes &#160;on the computational boundary, .">
<polygon fill="white" stroke="black" points="98.5,-516 98.5,-535 144.5,-535 144.5,-516 98.5,-516"/>
<text text-anchor="middle" x="121.5" y="-523" font-family="Helvetica,sans-Serif" font-size="10.00">bnorml</text>
</a>
</g>
</g>
<!-- Node1&#45;&gt;Node2 -->
<g id="edge1" class="edge">
<title>Node1&#45;&gt;Node2</title>
<path fill="none" stroke="midnightblue" d="M22.96,-289.03C23.3,-321.97 28.42,-432.74 80,-501.5 82.72,-505.13 86.17,-508.31 89.89,-511.07"/>
<polygon fill="midnightblue" stroke="midnightblue" points="88.02,-514.03 98.33,-516.45 91.78,-508.12 88.02,-514.03"/>
</g>
<!-- Node5 -->
<g id="node5" class="node">
<title>Node5</title>
<g id="a_node5"><a xlink:href="group__grp__numerics.html#ga041138109a57e651c57117bb4180409e" target="_top" xlink:title="Forward Fourier transform (fftw wrapper)">
<polygon fill="white" stroke="black" points="236.5,-478 236.5,-497 265.5,-497 265.5,-478 236.5,-478"/>
<text text-anchor="middle" x="251" y="-485" font-family="Helvetica,sans-Serif" font-size="10.00">tfft</text>
</a>
</g>
</g>
<!-- Node1&#45;&gt;Node5 -->
<g id="edge32" class="edge">
<title>Node1&#45;&gt;Node5</title>
<path fill="none" stroke="midnightblue" d="M22.69,-289.42C22.32,-320.61 25.76,-417.32 80,-463.5 121.34,-498.7 189.92,-495.96 226.04,-491.45"/>
<polygon fill="midnightblue" stroke="midnightblue" points="226.73,-494.89 236.15,-490.03 225.76,-487.95 226.73,-494.89"/>
</g>
<!-- Node6 -->
<g id="node6" class="node">
<title>Node6</title>
<g id="a_node6"><a xlink:href="group__grp__geometry.html#gaaca20aa60eaf39055f3c9d5c02a24ac2" target="_top" xlink:title="Calculates coordinates, , and metrics, using FFTs.">
<polygon fill="white" stroke="black" points="228,-346 228,-365 274,-365 274,-346 228,-346"/>
<text text-anchor="middle" x="251" y="-353" font-family="Helvetica,sans-Serif" font-size="10.00">coords</text>
</a>
</g>
</g>
<!-- Node1&#45;&gt;Node6 -->
<g id="edge8" class="edge">
<title>Node1&#45;&gt;Node6</title>
<path fill="none" stroke="midnightblue" d="M29.4,-289.14C38.76,-302.36 57.55,-325.7 80,-336.5 124.14,-357.73 181.97,-359.49 217.53,-358.06"/>
<polygon fill="midnightblue" stroke="midnightblue" points="218,-361.54 227.81,-357.53 217.64,-354.55 218,-361.54"/>
</g>
<!-- Node7 -->
<g id="node7" class="node">
<title>Node7</title>
<g id="a_node7"><a xlink:href="group__grp__numerics.html#ga1fd52accb0646f535f9bcc46cf5a68f3" target="_top" xlink:title="Inverse Fourier transform (fftw wrapper)">
<polygon fill="white" stroke="black" points="345,-402 345,-421 383,-421 383,-402 345,-402"/>
<text text-anchor="middle" x="364" y="-409" font-family="Helvetica,sans-Serif" font-size="10.00">invfft</text>
</a>
</g>
</g>
<!-- Node1&#45;&gt;Node7 -->
<g id="edge20" class="edge">
<title>Node1&#45;&gt;Node7</title>
<path fill="none" stroke="midnightblue" d="M23.17,-289.13C24.25,-316.86 31.6,-397.04 80,-430.5 158.74,-484.94 281.09,-445.74 335.41,-423.73"/>
<polygon fill="midnightblue" stroke="midnightblue" points="336.85,-426.92 344.73,-419.84 334.15,-420.46 336.85,-426.92"/>
</g>
<!-- Node9 -->
<g id="node9" class="node">
<title>Node9</title>
<g id="a_node9"><a xlink:href="group__grp__numerics.html#ga425e8f1cbf214a3231ab6c874d8fe4be" target="_top" xlink:title="Gauss&#45;Legendre weights and abscissae.">
<polygon fill="white" stroke="black" points="99,-308 99,-327 144,-327 144,-308 99,-308"/>
<text text-anchor="middle" x="121.5" y="-315" font-family="Helvetica,sans-Serif" font-size="10.00">gauleg</text>
</a>
</g>
</g>
<!-- Node1&#45;&gt;Node9 -->
<g id="edge14" class="edge">
<title>Node1&#45;&gt;Node9</title>
<path fill="none" stroke="midnightblue" d="M44.16,-287.75C57.26,-292.85 74.33,-299.51 89.01,-305.23"/>
<polygon fill="midnightblue" stroke="midnightblue" points="88.12,-308.64 98.71,-309.01 90.66,-302.12 88.12,-308.64"/>
</g>
<!-- Node10 -->
<g id="node10" class="node">
<title>Node10</title>
<g id="a_node10"><a xlink:href="basefn_8f90.html#af6a4cad04c70bfb14fd18a3bfbc843a3" target="_top" xlink:title="Get the Chebyshev polynomials with zeroth, first derivatives.">
<polygon fill="white" stroke="black" points="91,-270 91,-289 152,-289 152,-270 91,-270"/>
<text text-anchor="middle" x="121.5" y="-277" font-family="Helvetica,sans-Serif" font-size="10.00">get_cheby</text>
</a>
</g>
</g>
<!-- Node1&#45;&gt;Node10 -->
<g id="edge15" class="edge">
<title>Node1&#45;&gt;Node10</title>
<path fill="none" stroke="midnightblue" d="M44.16,-279.5C54.83,-279.5 68.14,-279.5 80.64,-279.5"/>
<polygon fill="midnightblue" stroke="midnightblue" points="80.88,-283 90.88,-279.5 80.88,-276 80.88,-283"/>
</g>
<!-- Node11 -->
<g id="node11" class="node">
<title>Node11</title>
<g id="a_node11"><a xlink:href="basefn_8f90.html#a38dc596fb909186b01dacc1feac03164" target="_top" xlink:title="Get the Zernike polynomials &#160;with zeroth, first derivatives.">
<polygon fill="white" stroke="black" points="88.5,-232 88.5,-251 154.5,-251 154.5,-232 88.5,-232"/>
<text text-anchor="middle" x="121.5" y="-239" font-family="Helvetica,sans-Serif" font-size="10.00">get_zernike</text>
</a>
</g>
</g>
<!-- Node1&#45;&gt;Node11 -->
<g id="edge16" class="edge">
<title>Node1&#45;&gt;Node11</title>
<path fill="none" stroke="midnightblue" d="M44.16,-271.25C56.53,-266.43 72.45,-260.23 86.54,-254.73"/>
<polygon fill="midnightblue" stroke="midnightblue" points="87.9,-257.96 95.94,-251.07 85.36,-251.44 87.9,-257.96"/>
</g>
<!-- Node12 -->
<g id="node12" class="node">
<title>Node12</title>
<g id="a_node12"><a xlink:href="basefn_8f90.html#a6076d695487184d58d30d73de2f6470f" target="_top" xlink:title="Get the Zernike polynomials .">
<polygon fill="white" stroke="black" points="80,-194 80,-213 163,-213 163,-194 80,-194"/>
<text text-anchor="middle" x="121.5" y="-201" font-family="Helvetica,sans-Serif" font-size="10.00">get_zernike_rm</text>
</a>
</g>
</g>
<!-- Node1&#45;&gt;Node12 -->
<g id="edge17" class="edge">
<title>Node1&#45;&gt;Node12</title>
<path fill="none" stroke="midnightblue" d="M31.02,-269.58C41.34,-257.31 60.3,-236.33 80,-222.5 82.38,-220.83 84.94,-219.24 87.56,-217.74"/>
<polygon fill="midnightblue" stroke="midnightblue" points="89.35,-220.75 96.6,-213.03 86.12,-214.55 89.35,-220.75"/>
</g>
<!-- Node13 -->
<g id="node13" class="node">
<title>Node13</title>
<g id="a_node13"><a xlink:href="numrec_8f90.html#ad74184c181acd10cef74a2bd4f1c31a9" target="_top" xlink:title="convert m and n to index">
<polygon fill="white" stroke="black" points="98.5,-156 98.5,-175 144.5,-175 144.5,-156 98.5,-156"/>
<text text-anchor="middle" x="121.5" y="-163" font-family="Helvetica,sans-Serif" font-size="10.00">getimn</text>
</a>
</g>
</g>
<!-- Node1&#45;&gt;Node13 -->
<g id="edge18" class="edge">
<title>Node1&#45;&gt;Node13</title>
<path fill="none" stroke="midnightblue" d="M26.54,-269.88C33.85,-251.17 52.31,-209.51 80,-184.5 82.82,-181.96 86.03,-179.69 89.4,-177.69"/>
<polygon fill="midnightblue" stroke="midnightblue" points="91.18,-180.71 98.46,-173.01 87.97,-174.49 91.18,-180.71"/>
</g>
<!-- Node14 -->
<g id="node14" class="node">
<title>Node14</title>
<g id="a_node14"><a xlink:href="group__grp__numerics.html#ga02a336a22890e7ae5a5c2d525260666c" target="_top" xlink:title="Assign Fourier mode labels.">
<polygon fill="white" stroke="black" points="99,-118 99,-137 144,-137 144,-118 99,-118"/>
<text text-anchor="middle" x="121.5" y="-125" font-family="Helvetica,sans-Serif" font-size="10.00">gi00ab</text>
</a>
</g>
</g>
<!-- Node1&#45;&gt;Node14 -->
<g id="edge19" class="edge">
<title>Node1&#45;&gt;Node14</title>
<path fill="none" stroke="midnightblue" d="M24.69,-269.83C29.33,-245.92 44.38,-183.34 80,-146.5 82.83,-143.57 86.21,-141.04 89.78,-138.87"/>
<polygon fill="midnightblue" stroke="midnightblue" points="91.59,-141.88 98.89,-134.21 88.39,-135.65 91.59,-141.88"/>
</g>
<!-- Node15 -->
<g id="node15" class="node">
<title>Node15</title>
<g id="a_node15"><a xlink:href="group__grp__build__matrices.html#ga1c52bb6dbffdb432550aae12b096080f" target="_top" xlink:title="Constructs energy and helicity matrices that represent the Beltrami linear system....">
<polygon fill="white" stroke="black" points="100,-62 100,-81 143,-81 143,-62 100,-62"/>
<text text-anchor="middle" x="121.5" y="-69" font-family="Helvetica,sans-Serif" font-size="10.00">matrix</text>
</a>
</g>
</g>
<!-- Node1&#45;&gt;Node15 -->
<g id="edge21" class="edge">
<title>Node1&#45;&gt;Node15</title>
<path fill="none" stroke="midnightblue" d="M24.46,-269.87C28.93,-242.61 44.37,-163.35 80,-108.5 85.07,-100.69 92.18,-93.45 99.02,-87.49"/>
<polygon fill="midnightblue" stroke="midnightblue" points="101.28,-90.16 106.8,-81.11 96.85,-84.74 101.28,-90.16"/>
</g>
<!-- Node16 -->
<g id="node16" class="node">
<title>Node16</title>
<g id="a_node16"><a xlink:href="group__grp__output.html#ga08d6a254dbc3d9d40ff1cf0bdfdf2148" target="_top" xlink:title="Writes vector potential to .ext.sp.A .">
<polygon fill="white" stroke="black" points="98.5,-6 98.5,-25 144.5,-25 144.5,-6 98.5,-6"/>
<text text-anchor="middle" x="121.5" y="-13" font-family="Helvetica,sans-Serif" font-size="10.00">ra00aa</text>
</a>
</g>
</g>
<!-- Node1&#45;&gt;Node16 -->
<g id="edge24" class="edge">
<title>Node1&#45;&gt;Node16</title>
<path fill="none" stroke="midnightblue" d="M23.47,-269.67C25.45,-236.64 35.21,-127.51 80,-52.5 84.6,-44.8 91.3,-37.75 97.93,-31.92"/>
<polygon fill="midnightblue" stroke="midnightblue" points="100.59,-34.27 106.13,-25.23 96.17,-28.84 100.59,-34.27"/>
</g>
<!-- Node18 -->
<g id="node18" class="node">
<title>Node18</title>
<g id="a_node18"><a xlink:href="group__grp__coord__axis.html#ga564281be4d9806d0688a717314ad748f" target="_top" xlink:title="The coordinate axis is assigned via a poloidal average over an arbitrary surface.">
<polygon fill="white" stroke="black" points="101,-384 101,-403 142,-403 142,-384 101,-384"/>
<text text-anchor="middle" x="121.5" y="-391" font-family="Helvetica,sans-Serif" font-size="10.00">rzaxis</text>
</a>
</g>
</g>
<!-- Node1&#45;&gt;Node18 -->
<g id="edge27" class="edge">
<title>Node1&#45;&gt;Node18</title>
<path fill="none" stroke="midnightblue" d="M27.26,-289.2C35.4,-306.91 54.65,-344.89 80,-369.5 83.55,-372.95 87.69,-376.11 91.94,-378.92"/>
<polygon fill="midnightblue" stroke="midnightblue" points="90.29,-382.02 100.66,-384.2 93.91,-376.03 90.29,-382.02"/>
</g>
<!-- Node2&#45;&gt;Node2 -->
<g id="edge2" class="edge">
<title>Node2&#45;&gt;Node2</title>
<path fill="none" stroke="midnightblue" d="M106.4,-535.26C99.05,-544.07 104.08,-553.5 121.5,-553.5 132.39,-553.5 138.44,-549.81 139.65,-544.9"/>
<polygon fill="midnightblue" stroke="midnightblue" points="142.95,-543.74 136.6,-535.26 136.28,-545.85 142.95,-543.74"/>
</g>
<!-- Node3 -->
<g id="node3" class="node">
<title>Node3</title>
<g id="a_node3"><a xlink:href="group__grp__free-boundary.html#ga180576a10002ebf3840fce98d56316bb" target="_top" xlink:title="Constructs the field created by the plasma currents, at an arbitrary, external location using virtual...">
<polygon fill="white" stroke="black" points="228.5,-516 228.5,-535 273.5,-535 273.5,-516 228.5,-516"/>
<text text-anchor="middle" x="251" y="-523" font-family="Helvetica,sans-Serif" font-size="10.00">casing</text>
</a>
</g>
</g>
<!-- Node2&#45;&gt;Node3 -->
<g id="edge3" class="edge">
<title>Node2&#45;&gt;Node3</title>
<path fill="none" stroke="midnightblue" d="M144.71,-525.5C165.03,-525.5 195.34,-525.5 218.22,-525.5"/>
<polygon fill="midnightblue" stroke="midnightblue" points="218.47,-529 228.47,-525.5 218.47,-522 218.47,-529"/>
</g>
<!-- Node2&#45;&gt;Node5 -->
<g id="edge7" class="edge">
<title>Node2&#45;&gt;Node5</title>
<path fill="none" stroke="midnightblue" d="M144.71,-518.88C167.6,-512.06 203.15,-501.46 226.5,-494.5"/>
<polygon fill="midnightblue" stroke="midnightblue" points="227.7,-497.8 236.29,-491.59 225.7,-491.09 227.7,-497.8"/>
</g>
<!-- Node3&#45;&gt;Node3 -->
<g id="edge4" class="edge">
<title>Node3&#45;&gt;Node3</title>
<path fill="none" stroke="midnightblue" d="M233.74,-535.26C225.34,-544.07 231.09,-553.5 251,-553.5 263.44,-553.5 270.35,-549.81 271.74,-544.9"/>
<polygon fill="midnightblue" stroke="midnightblue" points="274.95,-543.48 268.26,-535.26 268.36,-545.85 274.95,-543.48"/>
</g>
<!-- Node4 -->
<g id="node4" class="node">
<title>Node4</title>
<g id="a_node4"><a xlink:href="group__grp__free-boundary.html#ga281c12a5de84fddd3db4383b0df8627f" target="_top" xlink:title="Differential virtual casing integrand.">
<polygon fill="white" stroke="black" points="339,-516 339,-535 389,-535 389,-516 339,-516"/>
<text text-anchor="middle" x="364" y="-523" font-family="Helvetica,sans-Serif" font-size="10.00">dvcfield</text>
</a>
</g>
</g>
<!-- Node3&#45;&gt;Node4 -->
<g id="edge5" class="edge">
<title>Node3&#45;&gt;Node4</title>
<path fill="none" stroke="midnightblue" d="M273.67,-520.02C289.28,-518.67 310.66,-518.4 328.6,-519.2"/>
<polygon fill="midnightblue" stroke="midnightblue" points="328.5,-522.7 338.69,-519.8 328.91,-515.72 328.5,-522.7"/>
</g>
<!-- Node4&#45;&gt;Node3 -->
<g id="edge6" class="edge">
<title>Node4&#45;&gt;Node3</title>
<path fill="none" stroke="midnightblue" d="M338.69,-531.2C322.62,-532.42 301.38,-532.58 283.95,-531.68"/>
<polygon fill="midnightblue" stroke="midnightblue" points="283.88,-528.17 273.67,-530.98 283.41,-535.15 283.88,-528.17"/>
</g>
<!-- Node6&#45;&gt;Node6 -->
<g id="edge9" class="edge">
<title>Node6&#45;&gt;Node6</title>
<path fill="none" stroke="midnightblue" d="M233.74,-365.26C225.34,-374.07 231.09,-383.5 251,-383.5 263.44,-383.5 270.35,-379.81 271.74,-374.9"/>
<polygon fill="midnightblue" stroke="midnightblue" points="274.95,-373.48 268.26,-365.26 268.36,-375.85 274.95,-373.48"/>
</g>
<!-- Node6&#45;&gt;Node7 -->
<g id="edge10" class="edge">
<title>Node6&#45;&gt;Node7</title>
<path fill="none" stroke="midnightblue" d="M271.08,-365.13C288.95,-374.14 315.85,-387.71 335.93,-397.85"/>
<polygon fill="midnightblue" stroke="midnightblue" points="334.4,-400.99 344.9,-402.37 337.55,-394.74 334.4,-400.99"/>
</g>
<!-- Node8 -->
<g id="node8" class="node">
<title>Node8</title>
<g id="a_node8"><a xlink:href="group__grp__volume.html#gae4c62d20b8fef07f4471b5b0889ab005" target="_top" xlink:title="Computes volume of each region; and, if required, the derivatives of the volume with respect to the i...">
<polygon fill="white" stroke="black" points="340,-346 340,-365 388,-365 388,-346 340,-346"/>
<text text-anchor="middle" x="364" y="-353" font-family="Helvetica,sans-Serif" font-size="10.00">volume</text>
</a>
</g>
</g>
<!-- Node6&#45;&gt;Node8 -->
<g id="edge11" class="edge">
<title>Node6&#45;&gt;Node8</title>
<path fill="none" stroke="midnightblue" d="M274.2,-349.97C290.06,-348.64 311.69,-348.39 329.63,-349.25"/>
<polygon fill="midnightblue" stroke="midnightblue" points="329.5,-352.75 339.69,-349.88 329.93,-345.76 329.5,-352.75"/>
</g>
<!-- Node8&#45;&gt;Node6 -->
<g id="edge12" class="edge">
<title>Node8&#45;&gt;Node6</title>
<path fill="none" stroke="midnightblue" d="M339.69,-361.12C323.72,-362.39 302.3,-362.59 284.63,-361.71"/>
<polygon fill="midnightblue" stroke="midnightblue" points="284.4,-358.19 274.2,-361.03 283.94,-365.17 284.4,-358.19"/>
</g>
<!-- Node8&#45;&gt;Node8 -->
<g id="edge13" class="edge">
<title>Node8&#45;&gt;Node8</title>
<path fill="none" stroke="midnightblue" d="M346.74,-365.26C338.34,-374.07 344.09,-383.5 364,-383.5 376.44,-383.5 383.35,-379.81 384.74,-374.9"/>
<polygon fill="midnightblue" stroke="midnightblue" points="387.95,-373.48 381.26,-365.26 381.36,-375.85 387.95,-373.48"/>
</g>
<!-- Node15&#45;&gt;Node15 -->
<g id="edge22" class="edge">
<title>Node15&#45;&gt;Node15</title>
<path fill="none" stroke="midnightblue" d="M106.4,-81.26C99.05,-90.07 104.08,-99.5 121.5,-99.5 132.39,-99.5 138.44,-95.81 139.65,-90.9"/>
<polygon fill="midnightblue" stroke="midnightblue" points="142.95,-89.74 136.6,-81.26 136.28,-91.85 142.95,-89.74"/>
</g>
<!-- Node16&#45;&gt;Node16 -->
<g id="edge25" class="edge">
<title>Node16&#45;&gt;Node16</title>
<path fill="none" stroke="midnightblue" d="M106.4,-25.26C99.05,-34.07 104.08,-43.5 121.5,-43.5 132.39,-43.5 138.44,-39.81 139.65,-34.9"/>
<polygon fill="midnightblue" stroke="midnightblue" points="142.95,-33.74 136.6,-25.26 136.28,-35.85 142.95,-33.74"/>
</g>
<!-- Node17 -->
<g id="node17" class="node">
<title>Node17</title>
<g id="a_node17"><a xlink:href="group__grp__output.html#ga2f9e9c50084175e5174b1e1070e24d73" target="_top" xlink:title="Write the magnetic vector potential Fourier harmonics to the output file group /vector_potential .">
<polygon fill="white" stroke="black" points="199,-0.5 199,-30.5 303,-30.5 303,-0.5 199,-0.5"/>
<text text-anchor="start" x="207" y="-18.5" font-family="Helvetica,sans-Serif" font-size="10.00">sphdf5::write_vector</text>
<text text-anchor="middle" x="251" y="-7.5" font-family="Helvetica,sans-Serif" font-size="10.00">_potential</text>
</a>
</g>
</g>
<!-- Node16&#45;&gt;Node17 -->
<g id="edge26" class="edge">
<title>Node16&#45;&gt;Node17</title>
<path fill="none" stroke="midnightblue" d="M144.71,-15.5C157,-15.5 172.94,-15.5 188.68,-15.5"/>
<polygon fill="midnightblue" stroke="midnightblue" points="188.96,-19 198.96,-15.5 188.96,-12 188.96,-19"/>
</g>
<!-- Node18&#45;&gt;Node5 -->
<g id="edge31" class="edge">
<title>Node18&#45;&gt;Node5</title>
<path fill="none" stroke="midnightblue" d="M135.66,-403.21C157.73,-419.47 202.36,-452.38 228.86,-471.92"/>
<polygon fill="midnightblue" stroke="midnightblue" points="226.97,-474.87 237.1,-477.99 231.12,-469.24 226.97,-474.87"/>
</g>
<!-- Node18&#45;&gt;Node6 -->
<g id="edge28" class="edge">
<title>Node18&#45;&gt;Node6</title>
<path fill="none" stroke="midnightblue" d="M142.14,-387.65C162.43,-381.6 194.42,-372.06 218.3,-364.95"/>
<polygon fill="midnightblue" stroke="midnightblue" points="219.4,-368.27 227.98,-362.06 217.4,-361.56 219.4,-368.27"/>
</g>
<!-- Node18&#45;&gt;Node7 -->
<g id="edge29" class="edge">
<title>Node18&#45;&gt;Node7</title>
<path fill="none" stroke="midnightblue" d="M142.18,-394.97C184.72,-398.16 285.36,-405.69 334.72,-409.38"/>
<polygon fill="midnightblue" stroke="midnightblue" points="334.48,-412.87 344.71,-410.13 335,-405.89 334.48,-412.87"/>
</g>
<!-- Node18&#45;&gt;Node18 -->
<g id="edge30" class="edge">
<title>Node18&#45;&gt;Node18</title>
<path fill="none" stroke="midnightblue" d="M106.4,-403.26C99.05,-412.07 104.08,-421.5 121.5,-421.5 132.39,-421.5 138.44,-417.81 139.65,-412.9"/>
<polygon fill="midnightblue" stroke="midnightblue" points="142.95,-411.74 136.6,-403.26 136.28,-413.85 142.95,-411.74"/>
</g>
</g>
</svg>
