<?xml version="1.0" encoding="UTF-8" standalone="no"?>
<!DOCTYPE svg PUBLIC "-//W3C//DTD SVG 1.1//EN"
 "http://www.w3.org/Graphics/SVG/1.1/DTD/svg11.dtd">
<!-- Generated by graphviz version 2.44.0 ()
 -->
<!-- Title: volume Pages: 1 -->
<svg width="493pt" height="370pt"
 viewBox="0.00 0.00 493.00 370.00" xmlns="http://www.w3.org/2000/svg" xmlns:xlink="http://www.w3.org/1999/xlink">
<g id="graph0" class="graph" transform="scale(1 1) rotate(0) translate(4 366)">
<title>volume</title>
<polygon fill="white" stroke="transparent" points="-4,4 -4,-366 489,-366 489,4 -4,4"/>
<!-- Node1 -->
<g id="node1" class="node">
<title>Node1</title>
<g id="a_node1"><a xlink:title="Computes volume of each region; and, if required, the derivatives of the volume with respect to the i...">
<polygon fill="#bfbfbf" stroke="black" points="437,-133.5 437,-152.5 485,-152.5 485,-133.5 437,-133.5"/>
<text text-anchor="middle" x="461" y="-140.5" font-family="Helvetica,sans-Serif" font-size="10.00">volume</text>
</a>
</g>
</g>
<!-- Node2 -->
<g id="node2" class="node">
<title>Node2</title>
<g id="a_node2"><a xlink:href="group__grp__geometry.html#gaaca20aa60eaf39055f3c9d5c02a24ac2" target="_top" xlink:title="Calculates coordinates, , and metrics, using FFTs.">
<polygon fill="white" stroke="black" points="354,-228.5 354,-247.5 400,-247.5 400,-228.5 354,-228.5"/>
<text text-anchor="middle" x="377" y="-235.5" font-family="Helvetica,sans-Serif" font-size="10.00">coords</text>
</a>
</g>
</g>
<!-- Node1&#45;&gt;Node2 -->
<g id="edge1" class="edge">
<title>Node1&#45;&gt;Node2</title>
<path fill="none" stroke="midnightblue" d="M440.22,-160.05C421.49,-180.04 394.61,-211.96 383.32,-228.3"/>
<polygon fill="midnightblue" stroke="midnightblue" points="442.79,-162.42 447.19,-152.78 437.74,-157.57 442.79,-162.42"/>
</g>
<!-- Node7 -->
<g id="node7" class="node">
<title>Node7</title>
<g id="a_node7"><a xlink:href="xspech_8f90.html#aea782eae089760a491c2c54f9903abcc" target="_top" xlink:title="Main program of SPEC.">
<polygon fill="white" stroke="black" points="83,-190.5 83,-209.5 130,-209.5 130,-190.5 83,-190.5"/>
<text text-anchor="middle" x="106.5" y="-197.5" font-family="Helvetica,sans-Serif" font-size="10.00">xspech</text>
</a>
</g>
</g>
<!-- Node1&#45;&gt;Node7 -->
<g id="edge30" class="edge">
<title>Node1&#45;&gt;Node7</title>
<path fill="none" stroke="midnightblue" d="M426.53,-145.44C371.91,-149.85 260.44,-160.63 168,-181 155.31,-183.8 141.47,-188.05 130.23,-191.83"/>
<polygon fill="midnightblue" stroke="midnightblue" points="426.98,-148.92 436.67,-144.64 426.43,-141.94 426.98,-148.92"/>
</g>
<!-- Node11 -->
<g id="node11" class="node">
<title>Node11</title>
<g id="a_node11"><a xlink:href="group__grp__integrals.html#ga400af9e33dd5465ff9a4bba9fbf91108" target="_top" xlink:title="Calculates volume integrals of Chebyshev polynomials and metric element products.">
<polygon fill="white" stroke="black" points="175,-190.5 175,-209.5 226,-209.5 226,-190.5 175,-190.5"/>
<text text-anchor="middle" x="200.5" y="-197.5" font-family="Helvetica,sans-Serif" font-size="10.00">ma00aa</text>
</a>
</g>
</g>
<!-- Node1&#45;&gt;Node11 -->
<g id="edge26" class="edge">
<title>Node1&#45;&gt;Node11</title>
<path fill="none" stroke="midnightblue" d="M426.89,-148.78C388.67,-155.63 324,-167.81 269,-181 254.68,-184.44 238.81,-188.87 226.07,-192.59"/>
<polygon fill="midnightblue" stroke="midnightblue" points="427.71,-152.19 436.94,-146.99 426.48,-145.29 427.71,-152.19"/>
</g>
<!-- Node14 -->
<g id="node14" class="node">
<title>Node14</title>
<g id="a_node14"><a xlink:href="group__grp__force__driver.html#ga8ccd6c7d901872702521d0a0edf95412" target="_top" xlink:title="fcn2">
<polygon fill="white" stroke="black" points="359.5,-76.5 359.5,-95.5 394.5,-95.5 394.5,-76.5 359.5,-76.5"/>
<text text-anchor="middle" x="377" y="-83.5" font-family="Helvetica,sans-Serif" font-size="10.00">fcn2</text>
</a>
</g>
</g>
<!-- Node1&#45;&gt;Node14 -->
<g id="edge17" class="edge">
<title>Node1&#45;&gt;Node14</title>
<path fill="none" stroke="midnightblue" d="M437.57,-127.41C422.89,-117.21 404.2,-104.21 391.7,-95.53"/>
<polygon fill="midnightblue" stroke="midnightblue" points="435.88,-130.5 446.09,-133.33 439.88,-124.75 435.88,-130.5"/>
</g>
<!-- Node18 -->
<g id="node18" class="node">
<title>Node18</title>
<g id="a_node18"><a xlink:href="group__grp__diagnostics.html#ga831aed2458140e266ee4d37461dd5350" target="_top" xlink:title="Constructs Poincaré plot and &quot;approximate&quot; rotational&#45;transform (for single field line).">
<polygon fill="white" stroke="black" points="353,-19.5 353,-38.5 401,-38.5 401,-19.5 353,-19.5"/>
<text text-anchor="middle" x="377" y="-26.5" font-family="Helvetica,sans-Serif" font-size="10.00">pp00ab</text>
</a>
</g>
</g>
<!-- Node1&#45;&gt;Node18 -->
<g id="edge27" class="edge">
<title>Node1&#45;&gt;Node18</title>
<path fill="none" stroke="midnightblue" d="M446.98,-124.89C429.4,-100.45 398.7,-57.77 384.97,-38.69"/>
<polygon fill="midnightblue" stroke="midnightblue" points="444.33,-127.21 453.01,-133.28 450.01,-123.12 444.33,-127.21"/>
</g>
<!-- Node2&#45;&gt;Node1 -->
<g id="edge16" class="edge">
<title>Node2&#45;&gt;Node1</title>
<path fill="none" stroke="midnightblue" d="M397.51,-221.25C416.21,-201.31 443.23,-169.24 454.62,-152.79"/>
<polygon fill="midnightblue" stroke="midnightblue" points="394.96,-218.84 390.55,-228.48 400.01,-223.7 394.96,-218.84"/>
</g>
<!-- Node3 -->
<g id="node3" class="node">
<title>Node3</title>
<g id="a_node3"><a xlink:href="group__grp__currents.html#gacaf4411e0ba378631dcd2ccb3752e452" target="_top" xlink:title="Computes the plasma current, , and the &quot;linking&quot; current, .">
<polygon fill="white" stroke="black" points="271,-342.5 271,-361.5 315,-361.5 315,-342.5 271,-342.5"/>
<text text-anchor="middle" x="293" y="-349.5" font-family="Helvetica,sans-Serif" font-size="10.00">curent</text>
</a>
</g>
</g>
<!-- Node2&#45;&gt;Node3 -->
<g id="edge2" class="edge">
<title>Node2&#45;&gt;Node3</title>
<path fill="none" stroke="midnightblue" d="M366.78,-256.61C356.33,-276.68 337.98,-308.98 317,-333 314.14,-336.28 310.68,-339.45 307.32,-342.23"/>
<polygon fill="midnightblue" stroke="midnightblue" points="369.96,-258.08 371.38,-247.58 363.72,-254.9 369.96,-258.08"/>
</g>
<!-- Node6 -->
<g id="node6" class="node">
<title>Node6</title>
<g id="a_node6"><a xlink:href="group__grp__diagnostics.html#ga6411205c36a7d50002d7f3fb3133c441" target="_top" xlink:title="Measures error in Beltrami equation, .">
<polygon fill="white" stroke="black" points="270.5,-304.5 270.5,-323.5 315.5,-323.5 315.5,-304.5 270.5,-304.5"/>
<text text-anchor="middle" x="293" y="-311.5" font-family="Helvetica,sans-Serif" font-size="10.00">jo00aa</text>
</a>
</g>
</g>
<!-- Node2&#45;&gt;Node6 -->
<g id="edge5" class="edge">
<title>Node2&#45;&gt;Node6</title>
<path fill="none" stroke="midnightblue" d="M359.32,-254.79C347.68,-266.33 331.67,-281.89 317,-295 313.6,-298.04 309.82,-301.23 306.32,-304.12"/>
<polygon fill="midnightblue" stroke="midnightblue" points="362.01,-257.06 366.61,-247.51 357.06,-252.1 362.01,-257.06"/>
</g>
<!-- Node9 -->
<g id="node9" class="node">
<title>Node9</title>
<g id="a_node9"><a xlink:href="group__grp__local__force.html#ga7a5316b9e5eeb42811aa6bccd29a132f" target="_top" xlink:title="Computes , and the spectral condensation constraints if required, on the interfaces,...">
<polygon fill="white" stroke="black" points="272.5,-266.5 272.5,-285.5 313.5,-285.5 313.5,-266.5 272.5,-266.5"/>
<text text-anchor="middle" x="293" y="-273.5" font-family="Helvetica,sans-Serif" font-size="10.00">lforce</text>
</a>
</g>
</g>
<!-- Node2&#45;&gt;Node9 -->
<g id="edge9" class="edge">
<title>Node2&#45;&gt;Node9</title>
<path fill="none" stroke="midnightblue" d="M346.14,-251.84C335.28,-256.87 323.3,-262.42 313.56,-266.94"/>
<polygon fill="midnightblue" stroke="midnightblue" points="347.71,-254.97 355.31,-247.59 344.76,-248.62 347.71,-254.97"/>
</g>
<!-- Node10 -->
<g id="node10" class="node">
<title>Node10</title>
<g id="a_node10"><a xlink:href="group__grp__metrics.html#ga254ce8e645c4110d77e3b3dbc3a89885" target="_top" xlink:title="Calculates the metric quantities, , which are required for the energy and helicity integrals.">
<polygon fill="white" stroke="black" points="271.5,-190.5 271.5,-209.5 314.5,-209.5 314.5,-190.5 271.5,-190.5"/>
<text text-anchor="middle" x="293" y="-197.5" font-family="Helvetica,sans-Serif" font-size="10.00">metrix</text>
</a>
</g>
</g>
<!-- Node2&#45;&gt;Node10 -->
<g id="edge10" class="edge">
<title>Node2&#45;&gt;Node10</title>
<path fill="none" stroke="midnightblue" d="M346.1,-224.15C335.67,-219.31 324.2,-214 314.69,-209.59"/>
<polygon fill="midnightblue" stroke="midnightblue" points="344.76,-227.38 355.31,-228.41 347.71,-221.03 344.76,-227.38"/>
</g>
<!-- Node12 -->
<g id="node12" class="node">
<title>Node12</title>
<g id="a_node12"><a xlink:href="group__grp__initialization.html#ga28628de0fdb3b3497668007d8d0643bd" target="_top" xlink:title="Allocates and initializes internal arrays.">
<polygon fill="white" stroke="black" points="271,-228.5 271,-247.5 315,-247.5 315,-228.5 271,-228.5"/>
<text text-anchor="middle" x="293" y="-235.5" font-family="Helvetica,sans-Serif" font-size="10.00">preset</text>
</a>
</g>
</g>
<!-- Node2&#45;&gt;Node12 -->
<g id="edge12" class="edge">
<title>Node2&#45;&gt;Node12</title>
<path fill="none" stroke="midnightblue" d="M343.3,-238C333.86,-238 323.8,-238 315.25,-238"/>
<polygon fill="midnightblue" stroke="midnightblue" points="343.59,-241.5 353.59,-238 343.59,-234.5 343.59,-241.5"/>
</g>
<!-- Node4 -->
<g id="node4" class="node">
<title>Node4</title>
<g id="a_node4"><a xlink:href="group__grp__solver.html#ga6626839aff500f060beb5bce2b90c447" target="_top" xlink:title="Solves Beltrami/vacuum (linear) system, given matrices.unpacking fluxes, helicity multiplier">
<polygon fill="white" stroke="black" points="175,-342.5 175,-361.5 226,-361.5 226,-342.5 175,-342.5"/>
<text text-anchor="middle" x="200.5" y="-349.5" font-family="Helvetica,sans-Serif" font-size="10.00">mp00ac</text>
</a>
</g>
</g>
<!-- Node3&#45;&gt;Node4 -->
<g id="edge3" class="edge">
<title>Node3&#45;&gt;Node4</title>
<path fill="none" stroke="midnightblue" d="M260.33,-352C249.18,-352 236.82,-352 226.32,-352"/>
<polygon fill="midnightblue" stroke="midnightblue" points="260.55,-355.5 270.55,-352 260.55,-348.5 260.55,-355.5"/>
</g>
<!-- Node5 -->
<g id="node5" class="node">
<title>Node5</title>
<g id="a_node5"><a xlink:href="group__grp__solver__driver.html#gacad623d4c5c006e9ad10116372f92ad3" target="_top" xlink:title="Constructs Beltrami field in given volume consistent with flux, helicity, rotational&#45;transform and/or...">
<polygon fill="white" stroke="black" points="81,-342.5 81,-361.5 132,-361.5 132,-342.5 81,-342.5"/>
<text text-anchor="middle" x="106.5" y="-349.5" font-family="Helvetica,sans-Serif" font-size="10.00">ma02aa</text>
</a>
</g>
</g>
<!-- Node4&#45;&gt;Node5 -->
<g id="edge4" class="edge">
<title>Node4&#45;&gt;Node5</title>
<path fill="none" stroke="midnightblue" d="M164.81,-352C153.97,-352 142.23,-352 132.22,-352"/>
<polygon fill="midnightblue" stroke="midnightblue" points="164.85,-355.5 174.85,-352 164.85,-348.5 164.85,-355.5"/>
</g>
<!-- Node6&#45;&gt;Node7 -->
<g id="edge6" class="edge">
<title>Node6&#45;&gt;Node7</title>
<path fill="none" stroke="midnightblue" d="M260.32,-308.61C233.87,-302.97 196.1,-292.19 168,-273 142.71,-255.74 122.23,-225.02 112.93,-209.52"/>
<polygon fill="midnightblue" stroke="midnightblue" points="259.71,-312.05 270.2,-310.59 261.08,-305.19 259.71,-312.05"/>
</g>
<!-- Node8 -->
<g id="node8" class="node">
<title>Node8</title>
<g id="a_node8"><a xlink:href="xspech_8f90.html#a537af4990058c0b0f2cd8b3669af204f" target="_top" xlink:title="todo remark">
<polygon fill="white" stroke="black" points="0,-190.5 0,-209.5 45,-209.5 45,-190.5 0,-190.5"/>
<text text-anchor="middle" x="22.5" y="-197.5" font-family="Helvetica,sans-Serif" font-size="10.00">ending</text>
</a>
</g>
</g>
<!-- Node7&#45;&gt;Node8 -->
<g id="edge7" class="edge">
<title>Node7&#45;&gt;Node8</title>
<path fill="none" stroke="midnightblue" d="M72.56,-193.37C63.31,-193.09 53.5,-193.3 45.09,-193.97"/>
<polygon fill="midnightblue" stroke="midnightblue" points="72.49,-196.87 82.66,-193.88 72.85,-189.88 72.49,-196.87"/>
</g>
<!-- Node8&#45;&gt;Node7 -->
<g id="edge8" class="edge">
<title>Node8&#45;&gt;Node7</title>
<path fill="none" stroke="midnightblue" d="M55.08,-206.59C64.26,-206.91 74.12,-206.75 82.66,-206.12"/>
<polygon fill="midnightblue" stroke="midnightblue" points="55.27,-203.09 45.09,-206.03 54.88,-210.08 55.27,-203.09"/>
</g>
<!-- Node10&#45;&gt;Node11 -->
<g id="edge11" class="edge">
<title>Node10&#45;&gt;Node11</title>
<path fill="none" stroke="midnightblue" d="M261.41,-200C249.92,-200 237.02,-200 226.14,-200"/>
<polygon fill="midnightblue" stroke="midnightblue" points="261.46,-203.5 271.46,-200 261.46,-196.5 261.46,-203.5"/>
</g>
<!-- Node12&#45;&gt;Node7 -->
<g id="edge15" class="edge">
<title>Node12&#45;&gt;Node7</title>
<path fill="none" stroke="midnightblue" d="M261.48,-251.26C235.76,-260.45 198.38,-269.06 168,-257 143.86,-247.42 123.75,-223.13 113.95,-209.55"/>
<polygon fill="midnightblue" stroke="midnightblue" points="262.97,-254.44 271.07,-247.62 260.48,-247.9 262.97,-254.44"/>
</g>
<!-- Node13 -->
<g id="node13" class="node">
<title>Node13</title>
<g id="a_node13"><a xlink:href="group__grp__diagnostics.html#ga7401b50ec10c6598ee4a8112717a63ec" target="_top" xlink:title="Computes eigenvalues and eigenvectors of derivative matrix, .">
<polygon fill="white" stroke="black" points="178,-228.5 178,-247.5 223,-247.5 223,-228.5 178,-228.5"/>
<text text-anchor="middle" x="200.5" y="-235.5" font-family="Helvetica,sans-Serif" font-size="10.00">hesian</text>
</a>
</g>
</g>
<!-- Node12&#45;&gt;Node13 -->
<g id="edge13" class="edge">
<title>Node12&#45;&gt;Node13</title>
<path fill="none" stroke="midnightblue" d="M260.24,-238C247.95,-238 234.21,-238 223.11,-238"/>
<polygon fill="midnightblue" stroke="midnightblue" points="260.55,-241.5 270.55,-238 260.55,-234.5 260.55,-241.5"/>
</g>
<!-- Node13&#45;&gt;Node7 -->
<g id="edge14" class="edge">
<title>Node13&#45;&gt;Node7</title>
<path fill="none" stroke="midnightblue" d="M168.11,-225.04C155.63,-219.88 141.55,-214.07 130.11,-209.34"/>
<polygon fill="midnightblue" stroke="midnightblue" points="167.12,-228.41 177.7,-228.99 169.79,-221.94 167.12,-228.41"/>
</g>
<!-- Node15 -->
<g id="node15" class="node">
<title>Node15</title>
<g id="a_node15"><a xlink:href="group__grp__force__driver.html#gaec14f81fbdbedafbc4189489ec8ae178" target="_top" xlink:title="Employs Newton method to find , where &#160;and &#160;is defined in dforce() .">
<polygon fill="white" stroke="black" points="269,-76.5 269,-95.5 317,-95.5 317,-76.5 269,-76.5"/>
<text text-anchor="middle" x="293" y="-83.5" font-family="Helvetica,sans-Serif" font-size="10.00">newton</text>
</a>
</g>
</g>
<!-- Node14&#45;&gt;Node15 -->
<g id="edge18" class="edge">
<title>Node14&#45;&gt;Node15</title>
<path fill="none" stroke="midnightblue" d="M349.23,-79.63C338.85,-79.06 327.09,-79.13 317.09,-79.86"/>
<polygon fill="midnightblue" stroke="midnightblue" points="349.16,-83.13 359.41,-80.45 349.72,-76.15 349.16,-83.13"/>
</g>
<!-- Node15&#45;&gt;Node7 -->
<g id="edge25" class="edge">
<title>Node15&#45;&gt;Node7</title>
<path fill="none" stroke="midnightblue" d="M259.36,-99.65C233.63,-111.04 197.32,-128.5 168,-148 148.62,-160.88 128.62,-179.25 117.16,-190.36"/>
<polygon fill="midnightblue" stroke="midnightblue" points="260.9,-102.8 268.67,-95.6 258.1,-96.38 260.9,-102.8"/>
</g>
<!-- Node15&#45;&gt;Node14 -->
<g id="edge21" class="edge">
<title>Node15&#45;&gt;Node14</title>
<path fill="none" stroke="midnightblue" d="M327.33,-92.64C338.38,-92.95 350.19,-92.59 359.41,-91.55"/>
<polygon fill="midnightblue" stroke="midnightblue" points="327.25,-89.14 317.09,-92.14 326.91,-96.13 327.25,-89.14"/>
</g>
<!-- Node16 -->
<g id="node16" class="node">
<title>Node16</title>
<g id="a_node16"><a xlink:href="group__grp__force__driver.html#gabbc245b3884ee8d8d3e2a52f25149f78" target="_top" xlink:title="fcn1">
<polygon fill="white" stroke="black" points="183,-76.5 183,-95.5 218,-95.5 218,-76.5 183,-76.5"/>
<text text-anchor="middle" x="200.5" y="-83.5" font-family="Helvetica,sans-Serif" font-size="10.00">fcn1</text>
</a>
</g>
</g>
<!-- Node15&#45;&gt;Node16 -->
<g id="edge19" class="edge">
<title>Node15&#45;&gt;Node16</title>
<path fill="none" stroke="midnightblue" d="M258.56,-79.46C244.8,-78.96 229.46,-79.35 218.16,-80.63"/>
<polygon fill="midnightblue" stroke="midnightblue" points="258.52,-82.96 268.69,-80.01 258.9,-75.97 258.52,-82.96"/>
</g>
<!-- Node17 -->
<g id="node17" class="node">
<title>Node17</title>
<g id="a_node17"><a xlink:href="group__grp__force__driver.html#ga382822b303cbf8c56d6f54dcb379caf2" target="_top" xlink:title="read or write force&#45;derivative matrix">
<polygon fill="white" stroke="black" points="168,-38.5 168,-57.5 233,-57.5 233,-38.5 168,-38.5"/>
<text text-anchor="middle" x="200.5" y="-45.5" font-family="Helvetica,sans-Serif" font-size="10.00">writereadgf</text>
</a>
</g>
</g>
<!-- Node15&#45;&gt;Node17 -->
<g id="edge22" class="edge">
<title>Node15&#45;&gt;Node17</title>
<path fill="none" stroke="midnightblue" d="M271.13,-71.45C259.89,-65.74 245.77,-59.59 233.2,-54.84"/>
<polygon fill="midnightblue" stroke="midnightblue" points="269.7,-74.65 280.17,-76.3 273.01,-68.49 269.7,-74.65"/>
</g>
<!-- Node16&#45;&gt;Node15 -->
<g id="edge20" class="edge">
<title>Node16&#45;&gt;Node15</title>
<path fill="none" stroke="midnightblue" d="M228.26,-92.22C241.1,-93 256.34,-92.92 268.69,-91.99"/>
<polygon fill="midnightblue" stroke="midnightblue" points="228.42,-88.72 218.16,-91.37 227.83,-95.7 228.42,-88.72"/>
</g>
<!-- Node17&#45;&gt;Node14 -->
<g id="edge23" class="edge">
<title>Node17&#45;&gt;Node14</title>
<path fill="none" stroke="midnightblue" d="M243.18,-53.33C265.28,-56.54 292.79,-61.14 317,-67 331.54,-70.52 347.68,-75.82 359.4,-79.92"/>
<polygon fill="midnightblue" stroke="midnightblue" points="243.52,-49.84 233.13,-51.91 242.54,-56.77 243.52,-49.84"/>
</g>
<!-- Node17&#45;&gt;Node15 -->
<g id="edge24" class="edge">
<title>Node17&#45;&gt;Node15</title>
<path fill="none" stroke="midnightblue" d="M222.32,-62.53C236.16,-69.55 254.37,-77.27 268.69,-82.2"/>
<polygon fill="midnightblue" stroke="midnightblue" points="223.59,-59.24 213.13,-57.58 220.27,-65.4 223.59,-59.24"/>
</g>
<!-- Node19 -->
<g id="node19" class="node">
<title>Node19</title>
<g id="a_node19"><a xlink:href="group__grp__diagnostics.html#gad67931244268a09bd077dae8910c7096" target="_top" xlink:title="Constructs Poincaré plot and &quot;approximate&quot; rotational&#45;transform (driver).">
<polygon fill="white" stroke="black" points="176.5,-0.5 176.5,-19.5 224.5,-19.5 224.5,-0.5 176.5,-0.5"/>
<text text-anchor="middle" x="200.5" y="-7.5" font-family="Helvetica,sans-Serif" font-size="10.00">pp00aa</text>
</a>
</g>
</g>
<!-- Node18&#45;&gt;Node19 -->
<g id="edge28" class="edge">
<title>Node18&#45;&gt;Node19</title>
<path fill="none" stroke="midnightblue" d="M342.75,-25.38C308.21,-21.62 255.06,-15.83 224.77,-12.53"/>
<polygon fill="midnightblue" stroke="midnightblue" points="342.51,-28.87 352.83,-26.48 343.27,-21.91 342.51,-28.87"/>
</g>
<!-- Node19&#45;&gt;Node7 -->
<g id="edge29" class="edge">
<title>Node19&#45;&gt;Node7</title>
<path fill="none" stroke="midnightblue" d="M170.72,-26.04C169.75,-26.98 168.84,-27.97 168,-29 126.21,-80.25 112.27,-162.49 108.61,-190.39"/>
<polygon fill="midnightblue" stroke="midnightblue" points="173.2,-28.53 178.9,-19.6 168.88,-23.03 173.2,-28.53"/>
</g>
</g>
</svg>
