<?xml version="1.0" encoding="UTF-8" standalone="no"?>
<!DOCTYPE svg PUBLIC "-//W3C//DTD SVG 1.1//EN"
 "http://www.w3.org/Graphics/SVG/1.1/DTD/svg11.dtd">
<!-- Generated by graphviz version 2.44.1 (0)
 -->
<!-- Title: fcn2 Pages: 1 -->
<svg width="378pt" height="170pt"
 viewBox="0.00 0.00 378.00 170.00" xmlns="http://www.w3.org/2000/svg" xmlns:xlink="http://www.w3.org/1999/xlink">
<g id="graph0" class="graph" transform="scale(1 1) rotate(0) translate(4 166)">
<title>fcn2</title>
<polygon fill="white" stroke="transparent" points="-4,4 -4,-166 374,-166 374,4 -4,4"/>
<!-- Node1 -->
<g id="node1" class="node">
<title>Node1</title>
<g id="a_node1"><a xlink:title="fcn2">
<polygon fill="#bfbfbf" stroke="black" points="0,-76.5 0,-95.5 38,-95.5 38,-76.5 0,-76.5"/>
<text text-anchor="middle" x="19" y="-83.5" font-family="Helvetica,sans-Serif" font-size="10.00">fcn2</text>
</a>
</g>
</g>
<!-- Node2 -->
<g id="node2" class="node">
<title>Node2</title>
<g id="a_node2"><a xlink:href="group__grp__force__driver.html#gaec14f81fbdbedafbc4189489ec8ae178" target="_top" xlink:title="Employs Newton method to find , where &#160;and &#160;is defined in dforce() .">
<polygon fill="white" stroke="black" points="74,-76.5 74,-95.5 127,-95.5 127,-76.5 74,-76.5"/>
<text text-anchor="middle" x="100.5" y="-83.5" font-family="Helvetica,sans-Serif" font-size="10.00">newton</text>
</a>
</g>
</g>
<!-- Node1&#45;&gt;Node2 -->
<g id="edge1" class="edge">
<title>Node1&#45;&gt;Node2</title>
<path fill="none" stroke="midnightblue" d="M38.04,-80.24C45.68,-79.46 54.86,-79.14 63.77,-79.28"/>
<polygon fill="midnightblue" stroke="midnightblue" points="63.88,-82.79 74,-79.65 64.13,-75.79 63.88,-82.79"/>
</g>
<!-- Node4 -->
<g id="node4" class="node">
<title>Node4</title>
<g id="a_node4"><a xlink:href="group__grp__packing.html#ga094e630c02686dd178749eb1efbf13fb" target="_top" xlink:title="Packs, and unpacks, geometrical degrees of freedom; and sets coordinate axis.">
<polygon fill="white" stroke="black" points="296.5,-142.5 296.5,-161.5 345.5,-161.5 345.5,-142.5 296.5,-142.5"/>
<text text-anchor="middle" x="321" y="-149.5" font-family="Helvetica,sans-Serif" font-size="10.00">packxi</text>
</a>
</g>
</g>
<!-- Node1&#45;&gt;Node4 -->
<g id="edge10" class="edge">
<title>Node1&#45;&gt;Node4</title>
<path fill="none" stroke="midnightblue" d="M31.14,-95.72C41.49,-104.17 57.73,-115.97 74,-122 146.21,-148.74 237.68,-152.76 286.19,-152.75"/>
<polygon fill="midnightblue" stroke="midnightblue" points="286.46,-156.25 296.44,-152.69 286.42,-149.25 286.46,-156.25"/>
</g>
<!-- Node5 -->
<g id="node5" class="node">
<title>Node5</title>
<g id="a_node5"><a xlink:href="namespaceallglobal.html#a282c297c96abdab5e76b5ace440b09a8" target="_top" xlink:title="The restart file is written.">
<polygon fill="white" stroke="black" points="272,-95.5 272,-114.5 370,-114.5 370,-95.5 272,-95.5"/>
<text text-anchor="middle" x="321" y="-102.5" font-family="Helvetica,sans-Serif" font-size="10.00">allglobal::wrtend</text>
</a>
</g>
</g>
<!-- Node1&#45;&gt;Node5 -->
<g id="edge16" class="edge">
<title>Node1&#45;&gt;Node5</title>
<path fill="none" stroke="midnightblue" d="M38.08,-94.09C48.38,-98.26 61.66,-102.89 74,-105 137.61,-115.86 211.82,-113.9 261.97,-110.47"/>
<polygon fill="midnightblue" stroke="midnightblue" points="262.26,-113.96 271.98,-109.75 261.75,-106.98 262.26,-113.96"/>
</g>
<!-- Node6 -->
<g id="node6" class="node">
<title>Node6</title>
<g id="a_node6"><a xlink:href="group__grp__force__driver.html#ga382822b303cbf8c56d6f54dcb379caf2" target="_top" xlink:title="read or write force&#45;derivative matrix">
<polygon fill="white" stroke="black" points="163,-38.5 163,-57.5 236,-57.5 236,-38.5 163,-38.5"/>
<text text-anchor="middle" x="199.5" y="-45.5" font-family="Helvetica,sans-Serif" font-size="10.00">writereadgf</text>
</a>
</g>
</g>
<!-- Node1&#45;&gt;Node6 -->
<g id="edge15" class="edge">
<title>Node1&#45;&gt;Node6</title>
<path fill="none" stroke="midnightblue" d="M38.23,-78.63C48.58,-74.69 61.85,-70.04 74,-67 99.68,-60.58 128.92,-55.98 152.61,-52.92"/>
<polygon fill="midnightblue" stroke="midnightblue" points="153.24,-56.37 162.73,-51.66 152.38,-49.42 153.24,-56.37"/>
</g>
<!-- Node8 -->
<g id="node8" class="node">
<title>Node8</title>
<g id="a_node8"><a xlink:href="group__grp__volume.html#gae4c62d20b8fef07f4471b5b0889ab005" target="_top" xlink:title="Computes volume of each region; and, if required, the derivatives of the volume with respect to the i...">
<polygon fill="white" stroke="black" points="74,-0.5 74,-19.5 127,-19.5 127,-0.5 74,-0.5"/>
<text text-anchor="middle" x="100.5" y="-7.5" font-family="Helvetica,sans-Serif" font-size="10.00">volume</text>
</a>
</g>
</g>
<!-- Node1&#45;&gt;Node8 -->
<g id="edge11" class="edge">
<title>Node1&#45;&gt;Node8</title>
<path fill="none" stroke="midnightblue" d="M29.92,-76.38C40.73,-65.92 58.54,-48.72 74,-34 76.47,-31.65 79.07,-29.18 81.64,-26.76"/>
<polygon fill="midnightblue" stroke="midnightblue" points="84.17,-29.18 89.05,-19.78 79.37,-24.09 84.17,-29.18"/>
</g>
<!-- Node2&#45;&gt;Node1 -->
<g id="edge6" class="edge">
<title>Node2&#45;&gt;Node1</title>
<path fill="none" stroke="midnightblue" d="M74,-92.35C65.76,-92.83 56.58,-92.88 48.17,-92.49"/>
<polygon fill="midnightblue" stroke="midnightblue" points="48.26,-88.99 38.04,-91.76 47.76,-95.97 48.26,-88.99"/>
</g>
<!-- Node3 -->
<g id="node3" class="node">
<title>Node3</title>
<g id="a_node3"><a xlink:href="group__grp__force__driver.html#gabbc245b3884ee8d8d3e2a52f25149f78" target="_top" xlink:title="fcn1">
<polygon fill="white" stroke="black" points="180.5,-76.5 180.5,-95.5 218.5,-95.5 218.5,-76.5 180.5,-76.5"/>
<text text-anchor="middle" x="199.5" y="-83.5" font-family="Helvetica,sans-Serif" font-size="10.00">fcn1</text>
</a>
</g>
</g>
<!-- Node2&#45;&gt;Node3 -->
<g id="edge2" class="edge">
<title>Node2&#45;&gt;Node3</title>
<path fill="none" stroke="midnightblue" d="M127.24,-79.96C140.44,-79.07 156.54,-79.02 170.1,-79.79"/>
<polygon fill="midnightblue" stroke="midnightblue" points="170.08,-83.3 180.33,-80.6 170.63,-76.32 170.08,-83.3"/>
</g>
<!-- Node2&#45;&gt;Node6 -->
<g id="edge7" class="edge">
<title>Node2&#45;&gt;Node6</title>
<path fill="none" stroke="midnightblue" d="M114.18,-76.3C124.19,-70.93 138.81,-64.53 153.07,-59.06"/>
<polygon fill="midnightblue" stroke="midnightblue" points="154.67,-62.2 162.83,-55.44 152.24,-55.64 154.67,-62.2"/>
</g>
<!-- Node3&#45;&gt;Node2 -->
<g id="edge3" class="edge">
<title>Node3&#45;&gt;Node2</title>
<path fill="none" stroke="midnightblue" d="M180.33,-91.4C168.28,-92.65 152.08,-93.03 137.49,-92.55"/>
<polygon fill="midnightblue" stroke="midnightblue" points="137.4,-89.04 127.24,-92.04 137.05,-96.03 137.4,-89.04"/>
</g>
<!-- Node3&#45;&gt;Node4 -->
<g id="edge4" class="edge">
<title>Node3&#45;&gt;Node4</title>
<path fill="none" stroke="midnightblue" d="M217.88,-95.6C237.79,-106.59 270.64,-124.74 293.69,-137.47"/>
<polygon fill="midnightblue" stroke="midnightblue" points="292.16,-140.62 302.6,-142.39 295.54,-134.49 292.16,-140.62"/>
</g>
<!-- Node3&#45;&gt;Node5 -->
<g id="edge5" class="edge">
<title>Node3&#45;&gt;Node5</title>
<path fill="none" stroke="midnightblue" d="M218.65,-88.89C230.27,-90.73 246.06,-93.24 261.72,-95.73"/>
<polygon fill="midnightblue" stroke="midnightblue" points="261.52,-99.25 271.94,-97.36 262.62,-92.33 261.52,-99.25"/>
</g>
<!-- Node6&#45;&gt;Node2 -->
<g id="edge9" class="edge">
<title>Node6&#45;&gt;Node2</title>
<path fill="none" stroke="midnightblue" d="M185.98,-57.61C173.62,-64.27 154.13,-72.51 136.99,-78.63"/>
<polygon fill="midnightblue" stroke="midnightblue" points="135.57,-75.41 127.24,-81.96 137.83,-82.04 135.57,-75.41"/>
</g>
<!-- Node7 -->
<g id="node7" class="node">
<title>Node7</title>
<g id="a_node7"><a xlink:href="group__grp__build__matrices.html#ga1c52bb6dbffdb432550aae12b096080f" target="_top" xlink:title="Constructs energy and helicity matrices that represent the Beltrami linear system....">
<polygon fill="white" stroke="black" points="296.5,-38.5 296.5,-57.5 345.5,-57.5 345.5,-38.5 296.5,-38.5"/>
<text text-anchor="middle" x="321" y="-45.5" font-family="Helvetica,sans-Serif" font-size="10.00">matrix</text>
</a>
</g>
</g>
<!-- Node6&#45;&gt;Node7 -->
<g id="edge8" class="edge">
<title>Node6&#45;&gt;Node7</title>
<path fill="none" stroke="midnightblue" d="M236.03,-48C251.91,-48 270.53,-48 286.19,-48"/>
<polygon fill="midnightblue" stroke="midnightblue" points="286.5,-51.5 296.5,-48 286.5,-44.5 286.5,-51.5"/>
</g>
<!-- Node9 -->
<g id="node9" class="node">
<title>Node9</title>
<g id="a_node9"><a xlink:href="group__grp__geometry.html#gaaca20aa60eaf39055f3c9d5c02a24ac2" target="_top" xlink:title="Calculates coordinates, , and metrics, using FFTs.">
<polygon fill="white" stroke="black" points="175,-0.5 175,-19.5 224,-19.5 224,-0.5 175,-0.5"/>
<text text-anchor="middle" x="199.5" y="-7.5" font-family="Helvetica,sans-Serif" font-size="10.00">coords</text>
</a>
</g>
</g>
<!-- Node8&#45;&gt;Node9 -->
<g id="edge12" class="edge">
<title>Node8&#45;&gt;Node9</title>
<path fill="none" stroke="midnightblue" d="M127.24,-3.96C138.7,-3.19 152.35,-3.05 164.63,-3.53"/>
<polygon fill="midnightblue" stroke="midnightblue" points="164.79,-7.05 174.97,-4.12 165.18,-0.06 164.79,-7.05"/>
</g>
<!-- Node9&#45;&gt;Node8 -->
<g id="edge14" class="edge">
<title>Node9&#45;&gt;Node8</title>
<path fill="none" stroke="midnightblue" d="M174.97,-15.88C163.7,-16.74 149.95,-16.96 137.41,-16.54"/>
<polygon fill="midnightblue" stroke="midnightblue" points="137.4,-13.04 127.24,-16.04 137.05,-20.03 137.4,-13.04"/>
</g>
<!-- Node10 -->
<g id="node10" class="node">
<title>Node10</title>
<g id="a_node10"><a xlink:href="group__grp__numerics.html#ga1fd52accb0646f535f9bcc46cf5a68f3" target="_top" xlink:title="Inverse Fourier transform (fftw wrapper)">
<polygon fill="white" stroke="black" points="300,-0.5 300,-19.5 342,-19.5 342,-0.5 300,-0.5"/>
<text text-anchor="middle" x="321" y="-7.5" font-family="Helvetica,sans-Serif" font-size="10.00">invfft</text>
</a>
</g>
</g>
<!-- Node9&#45;&gt;Node10 -->
<g id="edge13" class="edge">
<title>Node9&#45;&gt;Node10</title>
<path fill="none" stroke="midnightblue" d="M224.11,-10C242.88,-10 269.26,-10 289.61,-10"/>
<polygon fill="midnightblue" stroke="midnightblue" points="289.62,-13.5 299.62,-10 289.62,-6.5 289.62,-13.5"/>
</g>
</g>
</svg>
