<?xml version="1.0" encoding="UTF-8" standalone="no"?>
<!DOCTYPE svg PUBLIC "-//W3C//DTD SVG 1.1//EN"
 "http://www.w3.org/Graphics/SVG/1.1/DTD/svg11.dtd">
<!-- Generated by graphviz version 2.49.3 (20211027.1534)
 -->
<!-- Title: packxi Pages: 1 -->
<svg width="658pt" height="522pt"
 viewBox="0.00 0.00 658.00 522.00" xmlns="http://www.w3.org/2000/svg" xmlns:xlink="http://www.w3.org/1999/xlink">
<g id="graph0" class="graph" transform="scale(1 1) rotate(0) translate(4 518)">
<title>packxi</title>
<polygon fill="white" stroke="transparent" points="-4,4 -4,-518 654,-518 654,4 -4,4"/>
<!-- Node1 -->
<g id="node1" class="node">
<title>Node1</title>
<g id="a_node1"><a xlink:title="Packs, and unpacks, geometrical degrees of freedom; and sets coordinate axis.">
<polygon fill="#bfbfbf" stroke="black" points="606,-66.5 606,-85.5 650,-85.5 650,-66.5 606,-66.5"/>
<text text-anchor="middle" x="628" y="-73.5" font-family="Helvetica,sans-Serif" font-size="10.00">packxi</text>
</a>
</g>
</g>
<!-- Node1&#45;&gt;Node1 -->
<g id="edge50" class="edge">
<title>Node1&#45;&gt;Node1</title>
<path fill="none" stroke="midnightblue" d="M642.73,-95.77C641.58,-100.5 636.66,-104 628,-104 613.78,-104 609.67,-94.57 615.67,-85.76"/>
<polygon fill="midnightblue" stroke="midnightblue" points="646.07,-94.66 640.33,-85.76 639.26,-96.3 646.07,-94.66"/>
</g>
<!-- Node2 -->
<g id="node2" class="node">
<title>Node2</title>
<g id="a_node2"><a xlink:href="group__grp__global__force.html#ga38c9d3c50bd043707fefa5137c9dbf44" target="_top" xlink:title="Calculates , where &#160;and , and .">
<polygon fill="white" stroke="black" points="526,-234.5 526,-253.5 570,-253.5 570,-234.5 526,-234.5"/>
<text text-anchor="middle" x="548" y="-241.5" font-family="Helvetica,sans-Serif" font-size="10.00">dforce</text>
</a>
</g>
</g>
<!-- Node1&#45;&gt;Node2 -->
<g id="edge1" class="edge">
<title>Node1&#45;&gt;Node2</title>
<path fill="none" stroke="midnightblue" d="M618.27,-94.81C601.69,-130.52 566.18,-207 553.56,-234.17"/>
<polygon fill="midnightblue" stroke="midnightblue" points="621.55,-96.06 622.58,-85.51 615.2,-93.11 621.55,-96.06"/>
</g>
<!-- Node6 -->
<g id="node6" class="node">
<title>Node6</title>
<g id="a_node6"><a xlink:href="xspech_8f90.html#a48f45478dc2c9f70ea8aa1c60ad06503" target="_top" xlink:title="This is the main &quot;driver&quot; for the physics part of SPEC.">
<polygon fill="white" stroke="black" points="168.5,-149.5 168.5,-168.5 206.5,-168.5 206.5,-149.5 168.5,-149.5"/>
<text text-anchor="middle" x="187.5" y="-156.5" font-family="Helvetica,sans-Serif" font-size="10.00">spec</text>
</a>
</g>
</g>
<!-- Node1&#45;&gt;Node6 -->
<g id="edge51" class="edge">
<title>Node1&#45;&gt;Node6</title>
<path fill="none" stroke="midnightblue" d="M595.92,-68.32C546.5,-57.31 447.16,-40.14 365,-57 294.97,-71.37 225.56,-126.57 199.4,-149.22"/>
<polygon fill="midnightblue" stroke="midnightblue" points="595.16,-71.73 605.69,-70.56 596.73,-64.91 595.16,-71.73"/>
</g>
<!-- Node9 -->
<g id="node9" class="node">
<title>Node9</title>
<g id="a_node9"><a xlink:href="group__grp__force__driver.html#gabbc245b3884ee8d8d3e2a52f25149f78" target="_top" xlink:title="Objective to be given to the Newton solver, using only function values.">
<polygon fill="white" stroke="black" points="410,-310.5 410,-329.5 445,-329.5 445,-310.5 410,-310.5"/>
<text text-anchor="middle" x="427.5" y="-317.5" font-family="Helvetica,sans-Serif" font-size="10.00">fcn1</text>
</a>
</g>
</g>
<!-- Node1&#45;&gt;Node9 -->
<g id="edge47" class="edge">
<title>Node1&#45;&gt;Node9</title>
<path fill="none" stroke="midnightblue" d="M627.52,-96.01C627.44,-136.76 621.28,-229.83 570,-281 535.73,-315.2 474.38,-320.12 445.03,-320.38"/>
<polygon fill="midnightblue" stroke="midnightblue" points="631.02,-95.73 627.41,-85.77 624.02,-95.81 631.02,-95.73"/>
</g>
<!-- Node11 -->
<g id="node11" class="node">
<title>Node11</title>
<g id="a_node11"><a xlink:href="group__grp__force__driver.html#ga8ccd6c7d901872702521d0a0edf95412" target="_top" xlink:title="Objective to be given to the Newton solver, using function values and derivatives.">
<polygon fill="white" stroke="black" points="29.5,-310.5 29.5,-329.5 64.5,-329.5 64.5,-310.5 29.5,-310.5"/>
<text text-anchor="middle" x="47" y="-317.5" font-family="Helvetica,sans-Serif" font-size="10.00">fcn2</text>
</a>
</g>
</g>
<!-- Node1&#45;&gt;Node11 -->
<g id="edge48" class="edge">
<title>Node1&#45;&gt;Node11</title>
<path fill="none" stroke="midnightblue" d="M604.07,-60.87C568.19,-38.7 495.91,0 428.5,0 428.5,0 428.5,0 304,0 204.74,0 190.88,-61.61 130,-140 124.23,-147.42 68.32,-273.87 52.28,-310.27"/>
<polygon fill="midnightblue" stroke="midnightblue" points="602.46,-63.99 612.78,-66.37 606.2,-58.07 602.46,-63.99"/>
</g>
<!-- Node18 -->
<g id="node18" class="node">
<title>Node18</title>
<g id="a_node18"><a xlink:href="group__grp__output.html#ga7401b50ec10c6598ee4a8112717a63ec" target="_top" xlink:title="Computes eigenvalues and eigenvectors of derivative matrix, &#160;and saves them to .ext....">
<polygon fill="white" stroke="black" points="405,-66.5 405,-85.5 450,-85.5 450,-66.5 405,-66.5"/>
<text text-anchor="middle" x="427.5" y="-73.5" font-family="Helvetica,sans-Serif" font-size="10.00">hesian</text>
</a>
</g>
</g>
<!-- Node1&#45;&gt;Node18 -->
<g id="edge49" class="edge">
<title>Node1&#45;&gt;Node18</title>
<path fill="none" stroke="midnightblue" d="M595.62,-76C555.03,-76 485.38,-76 450.19,-76"/>
<polygon fill="midnightblue" stroke="midnightblue" points="595.76,-79.5 605.76,-76 595.76,-72.5 595.76,-79.5"/>
</g>
<!-- Node2&#45;&gt;Node2 -->
<g id="edge13" class="edge">
<title>Node2&#45;&gt;Node2</title>
<path fill="none" stroke="midnightblue" d="M562.73,-263.77C561.58,-268.5 556.66,-272 548,-272 533.78,-272 529.67,-262.57 535.67,-253.76"/>
<polygon fill="midnightblue" stroke="midnightblue" points="566.07,-262.66 560.33,-253.76 559.26,-264.3 566.07,-262.66"/>
</g>
<!-- Node3 -->
<g id="node3" class="node">
<title>Node3</title>
<g id="a_node3"><a xlink:href="namespaceallglobal.html#a7824bc37519fe88336534ce90ab2af16" target="_top" xlink:title=" ">
<polygon fill="white" stroke="black" points="370.5,-234.5 370.5,-253.5 484.5,-253.5 484.5,-234.5 370.5,-234.5"/>
<text text-anchor="middle" x="427.5" y="-241.5" font-family="Helvetica,sans-Serif" font-size="10.00">allglobal::check_inputs</text>
</a>
</g>
</g>
<!-- Node2&#45;&gt;Node3 -->
<g id="edge2" class="edge">
<title>Node2&#45;&gt;Node3</title>
<path fill="none" stroke="midnightblue" d="M515.63,-244C506.07,-244 495.26,-244 484.59,-244"/>
<polygon fill="midnightblue" stroke="midnightblue" points="515.81,-247.5 525.81,-244 515.81,-240.5 515.81,-247.5"/>
</g>
<!-- Node2&#45;&gt;Node6 -->
<g id="edge46" class="edge">
<title>Node2&#45;&gt;Node6</title>
<path fill="none" stroke="midnightblue" d="M529.1,-229.71C517.95,-224.57 503.24,-219.65 490,-216 383.84,-186.77 253.83,-161.94 206.67,-157.94"/>
<polygon fill="midnightblue" stroke="midnightblue" points="527.72,-232.94 538.2,-234.47 530.96,-226.74 527.72,-232.94"/>
</g>
<!-- Node2&#45;&gt;Node9 -->
<g id="edge14" class="edge">
<title>Node2&#45;&gt;Node9</title>
<path fill="none" stroke="midnightblue" d="M531.56,-261.04C520.77,-272.15 505.57,-286.33 490,-296 475.88,-304.77 458.03,-311.3 445.2,-315.32"/>
<polygon fill="midnightblue" stroke="midnightblue" points="534.26,-263.27 538.57,-253.59 529.17,-258.47 534.26,-263.27"/>
</g>
<!-- Node10 -->
<g id="node10" class="node">
<title>Node10</title>
<g id="a_node10"><a xlink:href="group__grp__force__driver.html#gaec14f81fbdbedafbc4189489ec8ae178" target="_top" xlink:title="Employs Newton method to find , where &#160;and &#160;is defined in dforce() .">
<polygon fill="white" stroke="black" points="281,-310.5 281,-329.5 329,-329.5 329,-310.5 281,-310.5"/>
<text text-anchor="middle" x="305" y="-317.5" font-family="Helvetica,sans-Serif" font-size="10.00">newton</text>
</a>
</g>
</g>
<!-- Node2&#45;&gt;Node10 -->
<g id="edge41" class="edge">
<title>Node2&#45;&gt;Node10</title>
<path fill="none" stroke="midnightblue" d="M516.36,-254.38C507.84,-257.22 498.57,-260.27 490,-263 434.67,-280.63 420.41,-283.66 365,-301 353.19,-304.7 340.08,-308.91 329.23,-312.42"/>
<polygon fill="midnightblue" stroke="midnightblue" points="517.56,-257.67 525.93,-251.17 515.34,-251.03 517.56,-257.67"/>
</g>
<!-- Node2&#45;&gt;Node11 -->
<g id="edge26" class="edge">
<title>Node2&#45;&gt;Node11</title>
<path fill="none" stroke="midnightblue" d="M544.33,-263.76C537.55,-310.9 518.2,-427.95 490,-454 408.61,-529.17 355.31,-489.73 245,-500 194.11,-504.74 172.98,-527.65 130,-500 68.2,-460.24 52.42,-361.17 48.91,-329.73"/>
<polygon fill="midnightblue" stroke="midnightblue" points="547.83,-264.01 545.75,-253.62 540.9,-263.04 547.83,-264.01"/>
</g>
<!-- Node13 -->
<g id="node13" class="node">
<title>Node13</title>
<g id="a_node13"><a xlink:href="dfp200_8f90.html#a6aca59cf350d7b1941f8389d50945a43" target="_top" xlink:title="get LU Beltrami matrices">
<polygon fill="white" stroke="black" points="365,-425.5 365,-444.5 490,-444.5 490,-425.5 365,-425.5"/>
<text text-anchor="middle" x="427.5" y="-432.5" font-family="Helvetica,sans-Serif" font-size="10.00">get_lu_beltrami_matrices</text>
</a>
</g>
</g>
<!-- Node2&#45;&gt;Node13 -->
<g id="edge27" class="edge">
<title>Node2&#45;&gt;Node13</title>
<path fill="none" stroke="midnightblue" d="M544.76,-263.62C540.08,-296.37 526.48,-362.66 490,-404 481.53,-413.59 469.4,-420.58 458.15,-425.47"/>
<polygon fill="midnightblue" stroke="midnightblue" points="548.25,-263.89 546.07,-253.53 541.31,-262.99 548.25,-263.89"/>
</g>
<!-- Node2&#45;&gt;Node18 -->
<g id="edge38" class="edge">
<title>Node2&#45;&gt;Node18</title>
<path fill="none" stroke="midnightblue" d="M542.51,-224.37C535.37,-196.8 519.17,-146.28 490,-113 479.16,-100.63 463.15,-91.18 450.18,-84.93"/>
<polygon fill="midnightblue" stroke="midnightblue" points="539.17,-225.47 544.95,-234.35 545.97,-223.8 539.17,-225.47"/>
</g>
<!-- Node19 -->
<g id="node19" class="node">
<title>Node19</title>
<g id="a_node19"><a xlink:href="group__grp__conjugate__gradient.html#ga4d8415226e62a9fdb42b0fd0b464251e" target="_top" xlink:title="Returns the energy functional and it&#39;s derivatives with respect to geometry.">
<polygon fill="white" stroke="black" points="403.5,-122.5 403.5,-141.5 451.5,-141.5 451.5,-122.5 403.5,-122.5"/>
<text text-anchor="middle" x="427.5" y="-129.5" font-family="Helvetica,sans-Serif" font-size="10.00">pc00ab</text>
</a>
</g>
</g>
<!-- Node2&#45;&gt;Node19 -->
<g id="edge42" class="edge">
<title>Node2&#45;&gt;Node19</title>
<path fill="none" stroke="midnightblue" d="M534.47,-225.84C523.7,-210.94 507.2,-189.81 490,-174 476.1,-161.23 458.05,-149.36 445.11,-141.52"/>
<polygon fill="midnightblue" stroke="midnightblue" points="531.77,-228.07 540.4,-234.2 537.48,-224.02 531.77,-228.07"/>
</g>
<!-- Node4 -->
<g id="node4" class="node">
<title>Node4</title>
<g id="a_node4"><a xlink:href="xspech_8f90.html#a9fdc71dffd7c61ee4588a3f80d3ab9ce" target="_top" xlink:title="Main subroutine of SPEC.">
<polygon fill="white" stroke="black" points="281.5,-234.5 281.5,-253.5 328.5,-253.5 328.5,-234.5 281.5,-234.5"/>
<text text-anchor="middle" x="305" y="-241.5" font-family="Helvetica,sans-Serif" font-size="10.00">xspech</text>
</a>
</g>
</g>
<!-- Node3&#45;&gt;Node4 -->
<g id="edge3" class="edge">
<title>Node3&#45;&gt;Node4</title>
<path fill="none" stroke="midnightblue" d="M360.45,-244C349.06,-244 337.95,-244 328.77,-244"/>
<polygon fill="midnightblue" stroke="midnightblue" points="360.48,-247.5 370.48,-244 360.48,-240.5 360.48,-247.5"/>
</g>
<!-- Node4&#45;&gt;Node4 -->
<g id="edge12" class="edge">
<title>Node4&#45;&gt;Node4</title>
<path fill="none" stroke="midnightblue" d="M326.48,-263.4C325.05,-268.31 317.89,-272 305,-272 284.38,-272 278.42,-262.57 287.12,-253.76"/>
<polygon fill="midnightblue" stroke="midnightblue" points="329.66,-261.9 322.88,-253.76 323.1,-264.35 329.66,-261.9"/>
</g>
<!-- Node5 -->
<g id="node5" class="node">
<title>Node5</title>
<g id="a_node5"><a xlink:href="xspech_8f90.html#a1451823a7b97101a797de616250752c1" target="_top" xlink:title="Final diagnostics.">
<polygon fill="white" stroke="black" points="143,-187.5 143,-206.5 232,-206.5 232,-187.5 143,-187.5"/>
<text text-anchor="middle" x="187.5" y="-194.5" font-family="Helvetica,sans-Serif" font-size="10.00">final_diagnostics</text>
</a>
</g>
</g>
<!-- Node4&#45;&gt;Node5 -->
<g id="edge4" class="edge">
<title>Node4&#45;&gt;Node5</title>
<path fill="none" stroke="midnightblue" d="M282.03,-229.63C266.74,-222.1 245.92,-213.29 227.8,-206.56"/>
<polygon fill="midnightblue" stroke="midnightblue" points="280.71,-232.88 291.2,-234.36 283.92,-226.66 280.71,-232.88"/>
</g>
<!-- Node4&#45;&gt;Node6 -->
<g id="edge6" class="edge">
<title>Node4&#45;&gt;Node6</title>
<path fill="none" stroke="midnightblue" d="M294.42,-225.99C290.24,-220.93 285.32,-215.77 281,-211 264.49,-192.78 265.38,-182.75 245,-169 233.42,-161.19 218.34,-156.33 206.67,-154.81"/>
<polygon fill="midnightblue" stroke="midnightblue" points="291.78,-228.31 300.51,-234.31 297.42,-224.17 291.78,-228.31"/>
</g>
<!-- Node8 -->
<g id="node8" class="node">
<title>Node8</title>
<g id="a_node8"><a xlink:href="xspech_8f90.html#a95271e8805067f801b5d4e524d6901d4" target="_top" xlink:title="Main program of SPEC.">
<polygon fill="white" stroke="black" points="155.5,-263.5 155.5,-282.5 219.5,-282.5 219.5,-263.5 155.5,-263.5"/>
<text text-anchor="middle" x="187.5" y="-270.5" font-family="Helvetica,sans-Serif" font-size="10.00">spec_main</text>
</a>
</g>
</g>
<!-- Node4&#45;&gt;Node8 -->
<g id="edge11" class="edge">
<title>Node4&#45;&gt;Node8</title>
<path fill="none" stroke="midnightblue" d="M271.36,-252.2C255.17,-256.26 235.72,-261.15 219.73,-265.16"/>
<polygon fill="midnightblue" stroke="midnightblue" points="272.61,-255.49 281.46,-249.66 270.9,-248.7 272.61,-255.49"/>
</g>
<!-- Node5&#45;&gt;Node4 -->
<g id="edge5" class="edge">
<title>Node5&#45;&gt;Node4</title>
<path fill="none" stroke="midnightblue" d="M210.44,-211.36C230.78,-221.38 260.92,-233.66 281.46,-240.31"/>
<polygon fill="midnightblue" stroke="midnightblue" points="211.81,-208.13 201.32,-206.65 208.6,-214.35 211.81,-208.13"/>
</g>
<!-- Node6&#45;&gt;Node2 -->
<g id="edge7" class="edge">
<title>Node6&#45;&gt;Node2</title>
<path fill="none" stroke="midnightblue" d="M216.46,-169.25C269.99,-183.06 390.47,-206.6 490,-234 501.97,-237.29 515.13,-241.63 525.78,-244.43"/>
<polygon fill="midnightblue" stroke="midnightblue" points="217.24,-165.84 206.67,-166.62 215.42,-172.6 217.24,-165.84"/>
</g>
<!-- Node6&#45;&gt;Node4 -->
<g id="edge10" class="edge">
<title>Node6&#45;&gt;Node4</title>
<path fill="none" stroke="midnightblue" d="M212.01,-172.05C222.69,-175.82 235.12,-180.34 245,-187 265.38,-200.75 264.49,-210.78 281,-229 282.63,-230.8 284.34,-232.65 286.07,-234.45"/>
<polygon fill="midnightblue" stroke="midnightblue" points="213.03,-168.7 202.44,-168.62 210.67,-175.29 213.03,-168.7"/>
</g>
<!-- Node7 -->
<g id="node7" class="node">
<title>Node7</title>
<g id="a_node7"><a xlink:href="group__grp__output.html#ga0f962c09cd5d5eba99f1cba043cb3898" target="_top" xlink:title="Initialize the interface to the HDF5 library and open the output file.">
<polygon fill="white" stroke="black" points="0,-187.5 0,-206.5 94,-206.5 94,-187.5 0,-187.5"/>
<text text-anchor="middle" x="47" y="-194.5" font-family="Helvetica,sans-Serif" font-size="10.00">sphdf5::init_outfile</text>
</a>
</g>
</g>
<!-- Node6&#45;&gt;Node7 -->
<g id="edge8" class="edge">
<title>Node6&#45;&gt;Node7</title>
<path fill="none" stroke="midnightblue" d="M158.74,-166.62C136.91,-172.61 106.37,-180.98 82.89,-187.43"/>
<polygon fill="midnightblue" stroke="midnightblue" points="159.68,-169.99 168.39,-163.97 157.82,-163.24 159.68,-169.99"/>
</g>
<!-- Node7&#45;&gt;Node4 -->
<g id="edge9" class="edge">
<title>Node7&#45;&gt;Node4</title>
<path fill="none" stroke="midnightblue" d="M96.53,-208.82C107.51,-211.33 119.13,-213.87 130,-216 184.05,-226.6 248.11,-236.13 281.39,-240.86"/>
<polygon fill="midnightblue" stroke="midnightblue" points="97.21,-205.39 86.68,-206.53 95.63,-212.2 97.21,-205.39"/>
</g>
<!-- Node9&#45;&gt;Node9 -->
<g id="edge15" class="edge">
<title>Node9&#45;&gt;Node9</title>
<path fill="none" stroke="midnightblue" d="M450,-337.73C449.8,-343.46 442.3,-348 427.5,-348 405.47,-348 399.62,-337.93 409.94,-328.89"/>
<polygon fill="midnightblue" stroke="midnightblue" points="452.99,-335.91 445.06,-328.89 446.88,-339.33 452.99,-335.91"/>
</g>
<!-- Node9&#45;&gt;Node10 -->
<g id="edge16" class="edge">
<title>Node9&#45;&gt;Node10</title>
<path fill="none" stroke="midnightblue" d="M399.51,-314.26C378.38,-312.82 349.31,-312.92 329.22,-314.54"/>
<polygon fill="midnightblue" stroke="midnightblue" points="399.48,-317.77 409.74,-315.16 400.09,-310.8 399.48,-317.77"/>
</g>
<!-- Node10&#45;&gt;Node6 -->
<g id="edge22" class="edge">
<title>Node10&#45;&gt;Node6</title>
<path fill="none" stroke="midnightblue" d="M292.25,-301.77C288.38,-295.35 284.25,-287.99 281,-281 260.58,-237.01 279.49,-212.09 245,-178 234.77,-167.89 218.99,-163.16 206.71,-160.94"/>
<polygon fill="midnightblue" stroke="midnightblue" points="289.33,-303.71 297.59,-310.35 295.27,-300.01 289.33,-303.71"/>
</g>
<!-- Node10&#45;&gt;Node9 -->
<g id="edge17" class="edge">
<title>Node10&#45;&gt;Node9</title>
<path fill="none" stroke="midnightblue" d="M339.21,-326.11C362.11,-327.27 391.58,-326.85 409.74,-324.84"/>
<polygon fill="midnightblue" stroke="midnightblue" points="339.42,-322.61 329.22,-325.46 338.97,-329.6 339.42,-322.61"/>
</g>
<!-- Node10&#45;&gt;Node10 -->
<g id="edge21" class="edge">
<title>Node10&#45;&gt;Node10</title>
<path fill="none" stroke="midnightblue" d="M326.48,-339.4C325.05,-344.31 317.89,-348 305,-348 284.38,-348 278.42,-338.57 287.12,-329.76"/>
<polygon fill="midnightblue" stroke="midnightblue" points="329.66,-337.9 322.88,-329.76 323.1,-340.35 329.66,-337.9"/>
</g>
<!-- Node10&#45;&gt;Node11 -->
<g id="edge18" class="edge">
<title>Node10&#45;&gt;Node11</title>
<path fill="none" stroke="midnightblue" d="M270.84,-315.29C215.53,-312.23 106.41,-312.61 64.72,-316.45"/>
<polygon fill="midnightblue" stroke="midnightblue" points="270.63,-318.78 280.83,-315.92 271.07,-311.79 270.63,-318.78"/>
</g>
<!-- Node12 -->
<g id="node12" class="node">
<title>Node12</title>
<g id="a_node12"><a xlink:href="group__grp__output.html#ga382822b303cbf8c56d6f54dcb379caf2" target="_top" xlink:title="read or write force&#45;derivative matrix .ext.sp.DF">
<polygon fill="white" stroke="black" points="155,-357.5 155,-376.5 220,-376.5 220,-357.5 155,-357.5"/>
<text text-anchor="middle" x="187.5" y="-364.5" font-family="Helvetica,sans-Serif" font-size="10.00">writereadgf</text>
</a>
</g>
</g>
<!-- Node10&#45;&gt;Node12 -->
<g id="edge23" class="edge">
<title>Node10&#45;&gt;Node12</title>
<path fill="none" stroke="midnightblue" d="M271.39,-327.13C248.07,-335.42 217.95,-348.25 201.19,-357.42"/>
<polygon fill="midnightblue" stroke="midnightblue" points="272.57,-330.42 280.9,-323.87 270.31,-323.79 272.57,-330.42"/>
</g>
<!-- Node11&#45;&gt;Node10 -->
<g id="edge20" class="edge">
<title>Node11&#45;&gt;Node10</title>
<path fill="none" stroke="midnightblue" d="M74.85,-324.33C125.28,-327.64 233.36,-327.55 280.83,-324.08"/>
<polygon fill="midnightblue" stroke="midnightblue" points="74.96,-320.83 64.72,-323.55 74.43,-327.81 74.96,-320.83"/>
</g>
<!-- Node11&#45;&gt;Node11 -->
<g id="edge19" class="edge">
<title>Node11&#45;&gt;Node11</title>
<path fill="none" stroke="midnightblue" d="M72.47,-334.41C76,-341.59 67.51,-348 47,-348 19.66,-348 13.67,-336.61 29.06,-327.17"/>
<polygon fill="midnightblue" stroke="midnightblue" points="74.58,-331.58 64.94,-327.17 69.73,-336.62 74.58,-331.58"/>
</g>
<!-- Node12&#45;&gt;Node10 -->
<g id="edge25" class="edge">
<title>Node12&#45;&gt;Node10</title>
<path fill="none" stroke="midnightblue" d="M229.74,-356.72C251.39,-348.58 276.43,-337.71 291.2,-329.64"/>
<polygon fill="midnightblue" stroke="midnightblue" points="228.27,-353.53 220.07,-360.24 230.67,-360.1 228.27,-353.53"/>
</g>
<!-- Node12&#45;&gt;Node11 -->
<g id="edge24" class="edge">
<title>Node12&#45;&gt;Node11</title>
<path fill="none" stroke="midnightblue" d="M148.77,-354.2C121.28,-344.87 85.37,-332.68 64.68,-325.66"/>
<polygon fill="midnightblue" stroke="midnightblue" points="147.88,-357.59 158.47,-357.49 150.13,-350.96 147.88,-357.59"/>
</g>
<!-- Node14 -->
<g id="node14" class="node">
<title>Node14</title>
<g id="a_node14"><a xlink:href="dfp200_8f90.html#a55ea75395f8c71731451e1add3720c7e" target="_top" xlink:title="Given the field consistent with the constraints and the geometry, computes local quantites related to...">
<polygon fill="white" stroke="black" points="282,-425.5 282,-444.5 328,-444.5 328,-425.5 282,-425.5"/>
<text text-anchor="middle" x="305" y="-432.5" font-family="Helvetica,sans-Serif" font-size="10.00">dfp200</text>
</a>
</g>
</g>
<!-- Node13&#45;&gt;Node14 -->
<g id="edge28" class="edge">
<title>Node13&#45;&gt;Node14</title>
<path fill="none" stroke="midnightblue" d="M354.69,-428.36C345.05,-428.55 335.82,-428.98 328.04,-429.64"/>
<polygon fill="midnightblue" stroke="midnightblue" points="354.88,-431.86 364.84,-428.25 354.8,-424.86 354.88,-431.86"/>
</g>
<!-- Node14&#45;&gt;Node2 -->
<g id="edge29" class="edge">
<title>Node14&#45;&gt;Node2</title>
<path fill="none" stroke="midnightblue" d="M337.71,-424.54C383.97,-408.79 466.99,-378.54 490,-357 522.09,-326.97 538.83,-274.89 544.62,-253.55"/>
<polygon fill="midnightblue" stroke="midnightblue" points="336.51,-421.25 328.16,-427.76 338.75,-427.88 336.51,-421.25"/>
</g>
<!-- Node14&#45;&gt;Node13 -->
<g id="edge35" class="edge">
<title>Node14&#45;&gt;Node13</title>
<path fill="none" stroke="midnightblue" d="M338.28,-441.06C346.52,-441.5 355.66,-441.73 364.84,-441.75"/>
<polygon fill="midnightblue" stroke="midnightblue" points="338.26,-437.55 328.04,-440.36 337.78,-444.53 338.26,-437.55"/>
</g>
<!-- Node14&#45;&gt;Node14 -->
<g id="edge30" class="edge">
<title>Node14&#45;&gt;Node14</title>
<path fill="none" stroke="midnightblue" d="M326.48,-454.4C325.05,-459.31 317.89,-463 305,-463 284.38,-463 278.42,-453.57 287.12,-444.76"/>
<polygon fill="midnightblue" stroke="midnightblue" points="329.66,-452.9 322.88,-444.76 323.1,-455.35 329.66,-452.9"/>
</g>
<!-- Node15 -->
<g id="node15" class="node">
<title>Node15</title>
<g id="a_node15"><a xlink:href="dfp200_8f90.html#a7b64c7392b45d0042d8bd7379c0761a5" target="_top" xlink:title="Evaluate the derivative of the square of the magnetic field modulus. Add spectral constraint derivati...">
<polygon fill="white" stroke="black" points="150.5,-395.5 150.5,-414.5 224.5,-414.5 224.5,-395.5 150.5,-395.5"/>
<text text-anchor="middle" x="187.5" y="-402.5" font-family="Helvetica,sans-Serif" font-size="10.00">evaluate_dbb</text>
</a>
</g>
</g>
<!-- Node14&#45;&gt;Node15 -->
<g id="edge31" class="edge">
<title>Node14&#45;&gt;Node15</title>
<path fill="none" stroke="midnightblue" d="M276.93,-422.15C261.42,-417.08 241.74,-411.8 224.88,-408.13"/>
<polygon fill="midnightblue" stroke="midnightblue" points="275.86,-425.48 286.46,-425.43 278.15,-418.87 275.86,-425.48"/>
</g>
<!-- Node16 -->
<g id="node16" class="node">
<title>Node16</title>
<g id="a_node16"><a xlink:href="dfp200_8f90.html#a73ddf39ecc5228201fb643779e17cd36" target="_top" xlink:title="Evaluate mu and psip derivatives and store them in dmupfdx.">
<polygon fill="white" stroke="black" points="140,-471.5 140,-490.5 235,-490.5 235,-471.5 140,-471.5"/>
<text text-anchor="middle" x="187.5" y="-478.5" font-family="Helvetica,sans-Serif" font-size="10.00">evaluate_dmupfdx</text>
</a>
</g>
</g>
<!-- Node14&#45;&gt;Node16 -->
<g id="edge33" class="edge">
<title>Node14&#45;&gt;Node16</title>
<path fill="none" stroke="midnightblue" d="M272.34,-441.57C263.56,-445.24 253.98,-449.45 245,-453 229.03,-459.32 210.01,-465.43 198.62,-471.4"/>
<polygon fill="midnightblue" stroke="midnightblue" points="273.89,-444.71 281.82,-437.7 271.24,-438.23 273.89,-444.71"/>
</g>
<!-- Node17 -->
<g id="node17" class="node">
<title>Node17</title>
<g id="a_node17"><a xlink:href="dfp200_8f90.html#a5e56f1f4b1e6df11a9cffa6237c37469" target="_top" xlink:title="This routine evaluates the value of the magnetic field once the interface is perturbed using matrix p...">
<polygon fill="white" stroke="black" points="130,-433.5 130,-452.5 245,-452.5 245,-433.5 130,-433.5"/>
<text text-anchor="middle" x="187.5" y="-440.5" font-family="Helvetica,sans-Serif" font-size="10.00">get_perturbed_solution</text>
</a>
</g>
</g>
<!-- Node14&#45;&gt;Node17 -->
<g id="edge36" class="edge">
<title>Node14&#45;&gt;Node17</title>
<path fill="none" stroke="midnightblue" d="M271.37,-431.11C258.92,-431.34 244.53,-432.2 231.28,-433.49"/>
<polygon fill="midnightblue" stroke="midnightblue" points="271.74,-434.61 281.73,-431.08 271.72,-427.61 271.74,-434.61"/>
</g>
<!-- Node15&#45;&gt;Node14 -->
<g id="edge32" class="edge">
<title>Node15&#45;&gt;Node14</title>
<path fill="none" stroke="midnightblue" d="M215.7,-417.89C235.82,-424.46 262.89,-431.37 281.73,-434.67"/>
<polygon fill="midnightblue" stroke="midnightblue" points="216.76,-414.56 206.17,-414.61 214.48,-421.18 216.76,-414.56"/>
</g>
<!-- Node16&#45;&gt;Node14 -->
<g id="edge34" class="edge">
<title>Node16&#45;&gt;Node14</title>
<path fill="none" stroke="midnightblue" d="M244.7,-471.12C244.8,-471.08 244.9,-471.04 245,-471 263.85,-463.54 285.36,-453.22 296.47,-444.62"/>
<polygon fill="midnightblue" stroke="midnightblue" points="243.32,-467.9 235.2,-474.71 245.79,-474.45 243.32,-467.9"/>
</g>
<!-- Node17&#45;&gt;Node14 -->
<g id="edge37" class="edge">
<title>Node17&#45;&gt;Node14</title>
<path fill="none" stroke="midnightblue" d="M255.23,-445.05C264.76,-444.24 273.95,-443.2 281.73,-442"/>
<polygon fill="midnightblue" stroke="midnightblue" points="254.94,-441.57 245.23,-445.82 255.47,-448.55 254.94,-441.57"/>
</g>
<!-- Node18&#45;&gt;Node6 -->
<g id="edge40" class="edge">
<title>Node18&#45;&gt;Node6</title>
<path fill="none" stroke="midnightblue" d="M395,-81.99C365.13,-88.14 319.25,-98.81 281,-113 253.42,-123.23 223.22,-139.23 205.07,-149.41"/>
<polygon fill="midnightblue" stroke="midnightblue" points="395.75,-85.41 404.86,-80 394.37,-78.55 395.75,-85.41"/>
</g>
<!-- Node18&#45;&gt;Node18 -->
<g id="edge39" class="edge">
<title>Node18&#45;&gt;Node18</title>
<path fill="none" stroke="midnightblue" d="M449.82,-95.03C448.6,-100.13 441.16,-104 427.5,-104 406.17,-104 400.01,-94.57 409,-85.76"/>
<polygon fill="midnightblue" stroke="midnightblue" points="453.05,-93.67 446,-85.76 446.57,-96.34 453.05,-93.67"/>
</g>
<!-- Node19&#45;&gt;Node19 -->
<g id="edge45" class="edge">
<title>Node19&#45;&gt;Node19</title>
<path fill="none" stroke="midnightblue" d="M449.82,-151.03C448.6,-156.13 441.16,-160 427.5,-160 406.17,-160 400.01,-150.57 409,-141.76"/>
<polygon fill="midnightblue" stroke="midnightblue" points="453.05,-149.67 446,-141.76 446.57,-152.34 453.05,-149.67"/>
</g>
<!-- Node20 -->
<g id="node20" class="node">
<title>Node20</title>
<g id="a_node20"><a xlink:href="group__grp__conjugate__gradient.html#ga25a3bae2ff2ee0469b045de0d033398b" target="_top" xlink:title="Use preconditioned conjugate gradient method to find minimum of energy functional.">
<polygon fill="white" stroke="black" points="281,-122.5 281,-141.5 329,-141.5 329,-122.5 281,-122.5"/>
<text text-anchor="middle" x="305" y="-129.5" font-family="Helvetica,sans-Serif" font-size="10.00">pc00aa</text>
</a>
</g>
</g>
<!-- Node19&#45;&gt;Node20 -->
<g id="edge43" class="edge">
<title>Node19&#45;&gt;Node20</title>
<path fill="none" stroke="midnightblue" d="M393.16,-132C372.81,-132 347.31,-132 329.16,-132"/>
<polygon fill="midnightblue" stroke="midnightblue" points="393.27,-135.5 403.27,-132 393.27,-128.5 393.27,-135.5"/>
</g>
<!-- Node20&#45;&gt;Node20 -->
<g id="edge44" class="edge">
<title>Node20&#45;&gt;Node20</title>
<path fill="none" stroke="midnightblue" d="M326.48,-151.4C325.05,-156.31 317.89,-160 305,-160 284.38,-160 278.42,-150.57 287.12,-141.76"/>
<polygon fill="midnightblue" stroke="midnightblue" points="329.66,-149.9 322.88,-141.76 323.1,-152.35 329.66,-149.9"/>
</g>
</g>
</svg>
