<?xml version="1.0" encoding="UTF-8" standalone="no"?>
<!DOCTYPE svg PUBLIC "-//W3C//DTD SVG 1.1//EN"
 "http://www.w3.org/Graphics/SVG/1.1/DTD/svg11.dtd">
<!-- Generated by graphviz version 2.47.2 (0)
 -->
<!-- Title: lforce Pages: 1 -->
<svg width="782pt" height="387pt"
 viewBox="0.00 0.00 782.00 387.00" xmlns="http://www.w3.org/2000/svg" xmlns:xlink="http://www.w3.org/1999/xlink">
<g id="graph0" class="graph" transform="scale(1 1) rotate(0) translate(4 383)">
<title>lforce</title>
<polygon fill="white" stroke="transparent" points="-4,4 -4,-383 778,-383 778,4 -4,4"/>
<!-- Node1 -->
<g id="node1" class="node">
<title>Node1</title>
<g id="a_node1"><a xlink:title="Computes , and the spectral condensation constraints if required, on the interfaces,...">
<polygon fill="#bfbfbf" stroke="black" points="733,-115.5 733,-134.5 774,-134.5 774,-115.5 733,-115.5"/>
<text text-anchor="middle" x="753.5" y="-122.5" font-family="Helvetica,sans-Serif" font-size="10.00">lforce</text>
</a>
</g>
</g>
<!-- Node2 -->
<g id="node2" class="node">
<title>Node2</title>
<g id="a_node2"><a xlink:href="dfp200_8f90.html#a55ea75395f8c71731451e1add3720c7e" target="_top" xlink:title="Given the field consistent with the constraints and the geometry, computes local quantites related to...">
<polygon fill="white" stroke="black" points="651,-85.5 651,-104.5 697,-104.5 697,-85.5 651,-85.5"/>
<text text-anchor="middle" x="674" y="-92.5" font-family="Helvetica,sans-Serif" font-size="10.00">dfp200</text>
</a>
</g>
</g>
<!-- Node1&#45;&gt;Node2 -->
<g id="edge1" class="edge">
<title>Node1&#45;&gt;Node2</title>
<path fill="none" stroke="midnightblue" d="M723.46,-113.76C714.7,-110.37 705.24,-106.7 697.01,-103.52"/>
<polygon fill="midnightblue" stroke="midnightblue" points="722.35,-117.08 732.94,-117.43 724.88,-110.56 722.35,-117.08"/>
</g>
<!-- Node18 -->
<g id="node18" class="node">
<title>Node18</title>
<g id="a_node18"><a xlink:href="dfp200_8f90.html#a7b64c7392b45d0042d8bd7379c0761a5" target="_top" xlink:title="Evaluate the derivative of the square of the magnetic field modulus. Add spectral constraint derivati...">
<polygon fill="white" stroke="black" points="520.5,-170.5 520.5,-189.5 594.5,-189.5 594.5,-170.5 520.5,-170.5"/>
<text text-anchor="middle" x="557.5" y="-177.5" font-family="Helvetica,sans-Serif" font-size="10.00">evaluate_dbb</text>
</a>
</g>
</g>
<!-- Node1&#45;&gt;Node18 -->
<g id="edge37" class="edge">
<title>Node1&#45;&gt;Node18</title>
<path fill="none" stroke="midnightblue" d="M723.15,-133.32C687.96,-143.3 629.13,-159.98 592.14,-170.46"/>
<polygon fill="midnightblue" stroke="midnightblue" points="724.16,-136.67 732.83,-130.58 722.26,-129.94 724.16,-136.67"/>
</g>
<!-- Node3 -->
<g id="node3" class="node">
<title>Node3</title>
<g id="a_node3"><a xlink:href="group__grp__global__force.html#ga38c9d3c50bd043707fefa5137c9dbf44" target="_top" xlink:title="Calculates , where &#160;and , and .">
<polygon fill="white" stroke="black" points="535.5,-132.5 535.5,-151.5 579.5,-151.5 579.5,-132.5 535.5,-132.5"/>
<text text-anchor="middle" x="557.5" y="-139.5" font-family="Helvetica,sans-Serif" font-size="10.00">dforce</text>
</a>
</g>
</g>
<!-- Node2&#45;&gt;Node3 -->
<g id="edge2" class="edge">
<title>Node2&#45;&gt;Node3</title>
<path fill="none" stroke="midnightblue" d="M641.46,-107.95C621.81,-116.01 597.07,-126.17 579.73,-133.28"/>
<polygon fill="midnightblue" stroke="midnightblue" points="643,-111.1 650.92,-104.06 640.34,-104.62 643,-111.1"/>
</g>
<!-- Node14 -->
<g id="node14" class="node">
<title>Node14</title>
<g id="a_node14"><a xlink:href="dfp200_8f90.html#a6aca59cf350d7b1941f8389d50945a43" target="_top" xlink:title="get LU Beltrami matrices">
<polygon fill="white" stroke="black" points="339,-37.5 339,-56.5 464,-56.5 464,-37.5 339,-37.5"/>
<text text-anchor="middle" x="401.5" y="-44.5" font-family="Helvetica,sans-Serif" font-size="10.00">get_lu_beltrami_matrices</text>
</a>
</g>
</g>
<!-- Node2&#45;&gt;Node14 -->
<g id="edge34" class="edge">
<title>Node2&#45;&gt;Node14</title>
<path fill="none" stroke="midnightblue" d="M640.78,-83.55C605.98,-75.91 548.95,-66.98 500,-58 488.36,-55.86 475.97,-53.44 464.06,-51.21"/>
<polygon fill="midnightblue" stroke="midnightblue" points="640.3,-87.03 650.83,-85.87 641.87,-80.21 640.3,-87.03"/>
</g>
<!-- Node2&#45;&gt;Node18 -->
<g id="edge30" class="edge">
<title>Node2&#45;&gt;Node18</title>
<path fill="none" stroke="midnightblue" d="M655.48,-112.87C645.1,-125.42 630.89,-141.43 615,-152 601.9,-160.71 584.44,-165.78 572.41,-170.34"/>
<polygon fill="midnightblue" stroke="midnightblue" points="658.42,-114.81 662.03,-104.85 653,-110.38 658.42,-114.81"/>
</g>
<!-- Node19 -->
<g id="node19" class="node">
<title>Node19</title>
<g id="a_node19"><a xlink:href="dfp200_8f90.html#a73ddf39ecc5228201fb643779e17cd36" target="_top" xlink:title="Evaluate mu and psip derivatives and store them in dmupfdx.">
<polygon fill="white" stroke="black" points="510,-38.5 510,-57.5 605,-57.5 605,-38.5 510,-38.5"/>
<text text-anchor="middle" x="557.5" y="-45.5" font-family="Helvetica,sans-Serif" font-size="10.00">evaluate_dmupfdx</text>
</a>
</g>
</g>
<!-- Node2&#45;&gt;Node19 -->
<g id="edge32" class="edge">
<title>Node2&#45;&gt;Node19</title>
<path fill="none" stroke="midnightblue" d="M651.22,-80.63C636.06,-73.1 615.42,-64.29 597.46,-57.56"/>
<polygon fill="midnightblue" stroke="midnightblue" points="649.82,-83.85 660.31,-85.36 653.05,-77.64 649.82,-83.85"/>
</g>
<!-- Node20 -->
<g id="node20" class="node">
<title>Node20</title>
<g id="a_node20"><a xlink:href="dfp200_8f90.html#a5e56f1f4b1e6df11a9cffa6237c37469" target="_top" xlink:title="This routine evaluates the value of the magnetic field once the interface is perturbed using matrix p...">
<polygon fill="white" stroke="black" points="500,-0.5 500,-19.5 615,-19.5 615,-0.5 500,-0.5"/>
<text text-anchor="middle" x="557.5" y="-7.5" font-family="Helvetica,sans-Serif" font-size="10.00">get_perturbed_solution</text>
</a>
</g>
</g>
<!-- Node2&#45;&gt;Node20 -->
<g id="edge35" class="edge">
<title>Node2&#45;&gt;Node20</title>
<path fill="none" stroke="midnightblue" d="M664.87,-75.81C654.83,-58.43 636.44,-34.27 615,-20 614.83,-19.89 614.65,-19.77 614.48,-19.66"/>
<polygon fill="midnightblue" stroke="midnightblue" points="662.02,-77.91 669.77,-85.13 668.21,-74.65 662.02,-77.91"/>
</g>
<!-- Node4 -->
<g id="node4" class="node">
<title>Node4</title>
<g id="a_node4"><a xlink:href="namespaceallglobal.html#a7824bc37519fe88336534ce90ab2af16" target="_top" xlink:title=" ">
<polygon fill="white" stroke="black" points="344.5,-303.5 344.5,-322.5 458.5,-322.5 458.5,-303.5 344.5,-303.5"/>
<text text-anchor="middle" x="401.5" y="-310.5" font-family="Helvetica,sans-Serif" font-size="10.00">allglobal::check_inputs</text>
</a>
</g>
</g>
<!-- Node3&#45;&gt;Node4 -->
<g id="edge3" class="edge">
<title>Node3&#45;&gt;Node4</title>
<path fill="none" stroke="midnightblue" d="M525.53,-146.66C516.25,-149.45 506.76,-153.9 500,-161 459.28,-203.82 503.69,-245.22 464,-289 458.3,-295.28 450.76,-299.94 442.92,-303.38"/>
<polygon fill="midnightblue" stroke="midnightblue" points="526.5,-150.03 535.37,-144.25 524.83,-143.23 526.5,-150.03"/>
</g>
<!-- Node7 -->
<g id="node7" class="node">
<title>Node7</title>
<g id="a_node7"><a xlink:href="xspech_8f90.html#a48f45478dc2c9f70ea8aa1c60ad06503" target="_top" xlink:title="This is the main &quot;driver&quot; for the physics part of SPEC.">
<polygon fill="white" stroke="black" points="155.5,-245.5 155.5,-264.5 193.5,-264.5 193.5,-245.5 155.5,-245.5"/>
<text text-anchor="middle" x="174.5" y="-252.5" font-family="Helvetica,sans-Serif" font-size="10.00">spec</text>
</a>
</g>
</g>
<!-- Node3&#45;&gt;Node7 -->
<g id="edge29" class="edge">
<title>Node3&#45;&gt;Node7</title>
<path fill="none" stroke="midnightblue" d="M525.45,-147.86C516.5,-150.69 507.22,-154.87 500,-161 473.94,-183.14 491.73,-208.99 464,-229 379.38,-290.06 242.4,-269.22 193.53,-259.13"/>
<polygon fill="midnightblue" stroke="midnightblue" points="526.54,-151.19 535.28,-145.19 524.71,-144.43 526.54,-151.19"/>
</g>
<!-- Node10 -->
<g id="node10" class="node">
<title>Node10</title>
<g id="a_node10"><a xlink:href="group__grp__force__driver.html#gabbc245b3884ee8d8d3e2a52f25149f78" target="_top" xlink:title="fcn1">
<polygon fill="white" stroke="black" points="384,-151.5 384,-170.5 419,-170.5 419,-151.5 384,-151.5"/>
<text text-anchor="middle" x="401.5" y="-158.5" font-family="Helvetica,sans-Serif" font-size="10.00">fcn1</text>
</a>
</g>
</g>
<!-- Node3&#45;&gt;Node10 -->
<g id="edge12" class="edge">
<title>Node3&#45;&gt;Node10</title>
<path fill="none" stroke="midnightblue" d="M525.22,-145.86C493.12,-149.82 444.41,-155.83 419.09,-158.95"/>
<polygon fill="midnightblue" stroke="midnightblue" points="525.91,-149.3 535.41,-144.6 525.06,-142.35 525.91,-149.3"/>
</g>
<!-- Node11 -->
<g id="node11" class="node">
<title>Node11</title>
<g id="a_node11"><a xlink:href="group__grp__force__driver.html#gaec14f81fbdbedafbc4189489ec8ae178" target="_top" xlink:title="Employs Newton method to find , where &#160;and &#160;is defined in dforce() .">
<polygon fill="white" stroke="black" points="255,-170.5 255,-189.5 303,-189.5 303,-170.5 255,-170.5"/>
<text text-anchor="middle" x="279" y="-177.5" font-family="Helvetica,sans-Serif" font-size="10.00">newton</text>
</a>
</g>
</g>
<!-- Node3&#45;&gt;Node11 -->
<g id="edge26" class="edge">
<title>Node3&#45;&gt;Node11</title>
<path fill="none" stroke="midnightblue" d="M525.74,-151.34C517.29,-154.18 508.2,-157.48 500,-161 483.37,-168.13 481.56,-175.65 464,-180 407.57,-193.98 338.37,-188.08 303.09,-183.5"/>
<polygon fill="midnightblue" stroke="midnightblue" points="526.84,-154.67 535.27,-148.25 524.68,-148.01 526.84,-154.67"/>
</g>
<!-- Node12 -->
<g id="node12" class="node">
<title>Node12</title>
<g id="a_node12"><a xlink:href="group__grp__force__driver.html#ga8ccd6c7d901872702521d0a0edf95412" target="_top" xlink:title="fcn2">
<polygon fill="white" stroke="black" points="29.5,-175.5 29.5,-194.5 64.5,-194.5 64.5,-175.5 29.5,-175.5"/>
<text text-anchor="middle" x="47" y="-182.5" font-family="Helvetica,sans-Serif" font-size="10.00">fcn2</text>
</a>
</g>
</g>
<!-- Node3&#45;&gt;Node12 -->
<g id="edge21" class="edge">
<title>Node3&#45;&gt;Node12</title>
<path fill="none" stroke="midnightblue" d="M525.08,-136.95C453.62,-126.55 273.95,-106.55 130,-142 103.93,-148.42 76.98,-164.76 61.39,-175.35"/>
<polygon fill="midnightblue" stroke="midnightblue" points="524.8,-140.45 535.21,-138.47 525.84,-133.53 524.8,-140.45"/>
</g>
<!-- Node3&#45;&gt;Node14 -->
<g id="edge22" class="edge">
<title>Node3&#45;&gt;Node14</title>
<path fill="none" stroke="midnightblue" d="M525.95,-132.67C517,-129.01 507.59,-124.18 500,-118 478.2,-100.25 486.67,-82.62 464,-66 458.68,-62.1 452.55,-58.99 446.26,-56.51"/>
<polygon fill="midnightblue" stroke="midnightblue" points="524.78,-135.97 535.37,-136.19 527.23,-129.41 524.78,-135.97"/>
</g>
<!-- Node15 -->
<g id="node15" class="node">
<title>Node15</title>
<g id="a_node15"><a xlink:href="group__grp__diagnostics.html#ga7401b50ec10c6598ee4a8112717a63ec" target="_top" xlink:title="Computes eigenvalues and eigenvectors of derivative matrix, .">
<polygon fill="white" stroke="black" points="256.5,-227.5 256.5,-246.5 301.5,-246.5 301.5,-227.5 256.5,-227.5"/>
<text text-anchor="middle" x="279" y="-234.5" font-family="Helvetica,sans-Serif" font-size="10.00">hesian</text>
</a>
</g>
</g>
<!-- Node3&#45;&gt;Node15 -->
<g id="edge24" class="edge">
<title>Node3&#45;&gt;Node15</title>
<path fill="none" stroke="midnightblue" d="M525.52,-149.5C516.88,-152.35 507.74,-156.13 500,-161 480.58,-173.22 484.09,-186.92 464,-198 410.67,-227.41 337.39,-234.67 301.53,-236.44"/>
<polygon fill="midnightblue" stroke="midnightblue" points="526.74,-152.79 535.32,-146.57 524.74,-146.08 526.74,-152.79"/>
</g>
<!-- Node16 -->
<g id="node16" class="node">
<title>Node16</title>
<g id="a_node16"><a xlink:href="group__grp__conjugate__gradient.html#ga4d8415226e62a9fdb42b0fd0b464251e" target="_top" xlink:title="Returns the energy functional and it&#39;s derivatives with respect to geometry.">
<polygon fill="white" stroke="black" points="377.5,-75.5 377.5,-94.5 425.5,-94.5 425.5,-75.5 377.5,-75.5"/>
<text text-anchor="middle" x="401.5" y="-82.5" font-family="Helvetica,sans-Serif" font-size="10.00">pc00ab</text>
</a>
</g>
</g>
<!-- Node3&#45;&gt;Node16 -->
<g id="edge27" class="edge">
<title>Node3&#45;&gt;Node16</title>
<path fill="none" stroke="midnightblue" d="M526,-130.71C496.46,-119.78 452.33,-103.44 425.59,-93.55"/>
<polygon fill="midnightblue" stroke="midnightblue" points="524.82,-134.01 535.41,-134.19 527.25,-127.44 524.82,-134.01"/>
</g>
<!-- Node5 -->
<g id="node5" class="node">
<title>Node5</title>
<g id="a_node5"><a xlink:href="xspech_8f90.html#a9fdc71dffd7c61ee4588a3f80d3ab9ce" target="_top" xlink:title="Main subroutine of SPEC.">
<polygon fill="white" stroke="black" points="255.5,-303.5 255.5,-322.5 302.5,-322.5 302.5,-303.5 255.5,-303.5"/>
<text text-anchor="middle" x="279" y="-310.5" font-family="Helvetica,sans-Serif" font-size="10.00">xspech</text>
</a>
</g>
</g>
<!-- Node4&#45;&gt;Node5 -->
<g id="edge4" class="edge">
<title>Node4&#45;&gt;Node5</title>
<path fill="none" stroke="midnightblue" d="M334.45,-313C323.06,-313 311.95,-313 302.77,-313"/>
<polygon fill="midnightblue" stroke="midnightblue" points="334.48,-316.5 344.48,-313 334.48,-309.5 334.48,-316.5"/>
</g>
<!-- Node6 -->
<g id="node6" class="node">
<title>Node6</title>
<g id="a_node6"><a xlink:href="xspech_8f90.html#a1451823a7b97101a797de616250752c1" target="_top" xlink:title="Final diagnostics.">
<polygon fill="white" stroke="black" points="130,-359.5 130,-378.5 219,-378.5 219,-359.5 130,-359.5"/>
<text text-anchor="middle" x="174.5" y="-366.5" font-family="Helvetica,sans-Serif" font-size="10.00">final_diagnostics</text>
</a>
</g>
</g>
<!-- Node5&#45;&gt;Node6 -->
<g id="edge5" class="edge">
<title>Node5&#45;&gt;Node6</title>
<path fill="none" stroke="midnightblue" d="M246.08,-324.13C225.23,-334.52 199.37,-349.35 185.47,-359.35"/>
<polygon fill="midnightblue" stroke="midnightblue" points="247.77,-327.21 255.25,-319.71 244.72,-320.9 247.77,-327.21"/>
</g>
<!-- Node5&#45;&gt;Node7 -->
<g id="edge7" class="edge">
<title>Node5&#45;&gt;Node7</title>
<path fill="none" stroke="midnightblue" d="M265.02,-296.4C253.33,-286.13 235.49,-273.97 219,-265 210.89,-260.59 201.55,-256.4 193.61,-253.84"/>
<polygon fill="midnightblue" stroke="midnightblue" points="262.72,-299.04 272.34,-303.46 267.58,-294 262.72,-299.04"/>
</g>
<!-- Node9 -->
<g id="node9" class="node">
<title>Node9</title>
<g id="a_node9"><a xlink:href="xspech_8f90.html#a95271e8805067f801b5d4e524d6901d4" target="_top" xlink:title="Main program of SPEC.">
<polygon fill="white" stroke="black" points="142.5,-283.5 142.5,-302.5 206.5,-302.5 206.5,-283.5 142.5,-283.5"/>
<text text-anchor="middle" x="174.5" y="-290.5" font-family="Helvetica,sans-Serif" font-size="10.00">spec_main</text>
</a>
</g>
</g>
<!-- Node5&#45;&gt;Node9 -->
<g id="edge11" class="edge">
<title>Node5&#45;&gt;Node9</title>
<path fill="none" stroke="midnightblue" d="M245.34,-306.63C232.98,-304.22 218.96,-301.48 206.74,-299.09"/>
<polygon fill="midnightblue" stroke="midnightblue" points="244.77,-310.08 255.25,-308.56 246.11,-303.21 244.77,-310.08"/>
</g>
<!-- Node6&#45;&gt;Node5 -->
<g id="edge6" class="edge">
<title>Node6&#45;&gt;Node5</title>
<path fill="none" stroke="midnightblue" d="M213.54,-354.76C233.19,-344.64 255.63,-331.6 268.17,-322.55"/>
<polygon fill="midnightblue" stroke="midnightblue" points="211.83,-351.71 204.46,-359.32 214.97,-357.96 211.83,-351.71"/>
</g>
<!-- Node7&#45;&gt;Node5 -->
<g id="edge10" class="edge">
<title>Node7&#45;&gt;Node5</title>
<path fill="none" stroke="midnightblue" d="M192.07,-269.54C200.33,-273.86 210.36,-278.3 219,-283 231.41,-289.74 244.57,-298.3 255.31,-304.86"/>
<polygon fill="midnightblue" stroke="midnightblue" points="193.8,-266.49 183.39,-264.52 190.3,-272.55 193.8,-266.49"/>
</g>
<!-- Node8 -->
<g id="node8" class="node">
<title>Node8</title>
<g id="a_node8"><a xlink:href="group__grp__output.html#ga0f962c09cd5d5eba99f1cba043cb3898" target="_top" xlink:title="Initialize the interface to the HDF5 library and open the output file.">
<polygon fill="white" stroke="black" points="0,-283.5 0,-302.5 94,-302.5 94,-283.5 0,-283.5"/>
<text text-anchor="middle" x="47" y="-290.5" font-family="Helvetica,sans-Serif" font-size="10.00">sphdf5::init_outfile</text>
</a>
</g>
</g>
<!-- Node7&#45;&gt;Node8 -->
<g id="edge8" class="edge">
<title>Node7&#45;&gt;Node8</title>
<path fill="none" stroke="midnightblue" d="M145.67,-263.43C126.05,-269.37 99.76,-277.33 79.39,-283.49"/>
<polygon fill="midnightblue" stroke="midnightblue" points="146.69,-266.77 155.25,-260.53 144.67,-260.07 146.69,-266.77"/>
</g>
<!-- Node8&#45;&gt;Node5 -->
<g id="edge9" class="edge">
<title>Node8&#45;&gt;Node5</title>
<path fill="none" stroke="midnightblue" d="M91.64,-304.99C103.95,-307.86 117.41,-310.52 130,-312 174.15,-317.2 226.22,-315.83 255.34,-314.39"/>
<polygon fill="midnightblue" stroke="midnightblue" points="92.16,-301.52 81.62,-302.56 90.51,-308.32 92.16,-301.52"/>
</g>
<!-- Node10&#45;&gt;Node11 -->
<g id="edge13" class="edge">
<title>Node10&#45;&gt;Node11</title>
<path fill="none" stroke="midnightblue" d="M373.51,-159.52C352.38,-161.41 323.31,-166.09 303.22,-170.88"/>
<polygon fill="midnightblue" stroke="midnightblue" points="374.02,-162.99 383.74,-158.8 373.52,-156.01 374.02,-162.99"/>
</g>
<!-- Node11&#45;&gt;Node7 -->
<g id="edge17" class="edge">
<title>Node11&#45;&gt;Node7</title>
<path fill="none" stroke="midnightblue" d="M260.61,-196.74C249.26,-207.23 233.84,-220.66 219,-231 211.07,-236.52 201.76,-241.81 193.78,-246"/>
<polygon fill="midnightblue" stroke="midnightblue" points="263.2,-199.11 268.09,-189.71 258.4,-194.01 263.2,-199.11"/>
</g>
<!-- Node11&#45;&gt;Node10 -->
<g id="edge14" class="edge">
<title>Node11&#45;&gt;Node10</title>
<path fill="none" stroke="midnightblue" d="M313.21,-180.87C336.11,-178.43 365.58,-173.36 383.74,-168.49"/>
<polygon fill="midnightblue" stroke="midnightblue" points="312.85,-177.39 303.22,-181.8 313.5,-184.36 312.85,-177.39"/>
</g>
<!-- Node11&#45;&gt;Node12 -->
<g id="edge15" class="edge">
<title>Node11&#45;&gt;Node12</title>
<path fill="none" stroke="midnightblue" d="M244.39,-175.79C194.39,-174.11 102.25,-176.52 64.65,-180.92"/>
<polygon fill="midnightblue" stroke="midnightblue" points="244.54,-179.3 254.68,-176.23 244.84,-172.31 244.54,-179.3"/>
</g>
<!-- Node13 -->
<g id="node13" class="node">
<title>Node13</title>
<g id="a_node13"><a xlink:href="group__grp__force__driver.html#ga382822b303cbf8c56d6f54dcb379caf2" target="_top" xlink:title="read or write force&#45;derivative matrix">
<polygon fill="white" stroke="black" points="142,-151.5 142,-170.5 207,-170.5 207,-151.5 142,-151.5"/>
<text text-anchor="middle" x="174.5" y="-158.5" font-family="Helvetica,sans-Serif" font-size="10.00">writereadgf</text>
</a>
</g>
</g>
<!-- Node11&#45;&gt;Node13 -->
<g id="edge18" class="edge">
<title>Node11&#45;&gt;Node13</title>
<path fill="none" stroke="midnightblue" d="M246.76,-167.94C234.23,-164.98 219.81,-162.3 207.23,-160.59"/>
<polygon fill="midnightblue" stroke="midnightblue" points="246.21,-171.41 256.76,-170.47 247.93,-164.62 246.21,-171.41"/>
</g>
<!-- Node12&#45;&gt;Node11 -->
<g id="edge16" class="edge">
<title>Node12&#45;&gt;Node11</title>
<path fill="none" stroke="midnightblue" d="M74.91,-188.94C120.41,-191 211.74,-188.93 254.68,-184.78"/>
<polygon fill="midnightblue" stroke="midnightblue" points="74.83,-185.43 64.65,-188.35 74.43,-192.42 74.83,-185.43"/>
</g>
<!-- Node13&#45;&gt;Node11 -->
<g id="edge20" class="edge">
<title>Node13&#45;&gt;Node11</title>
<path fill="none" stroke="midnightblue" d="M206.43,-172.99C222.05,-176.68 240.67,-179.96 255,-181.48"/>
<polygon fill="midnightblue" stroke="midnightblue" points="207.23,-169.58 196.68,-170.51 205.51,-176.37 207.23,-169.58"/>
</g>
<!-- Node13&#45;&gt;Node12 -->
<g id="edge19" class="edge">
<title>Node13&#45;&gt;Node12</title>
<path fill="none" stroke="midnightblue" d="M131.96,-168.94C108.99,-173.34 81.73,-178.55 64.64,-181.82"/>
<polygon fill="midnightblue" stroke="midnightblue" points="132.67,-172.37 141.83,-167.06 131.35,-165.5 132.67,-172.37"/>
</g>
<!-- Node14&#45;&gt;Node2 -->
<g id="edge23" class="edge">
<title>Node14&#45;&gt;Node2</title>
<path fill="none" stroke="midnightblue" d="M427.37,-59.74C447.04,-65.6 475.22,-71.46 500,-76 554.02,-85.91 617.87,-95.76 650.83,-97.56"/>
<polygon fill="midnightblue" stroke="midnightblue" points="428.25,-56.34 417.66,-56.59 426.09,-63 428.25,-56.34"/>
</g>
<!-- Node15&#45;&gt;Node7 -->
<g id="edge25" class="edge">
<title>Node15&#45;&gt;Node7</title>
<path fill="none" stroke="midnightblue" d="M246.08,-242.61C228.88,-245.63 208.27,-249.24 193.78,-251.79"/>
<polygon fill="midnightblue" stroke="midnightblue" points="247.02,-245.99 256.26,-240.82 245.81,-239.1 247.02,-245.99"/>
</g>
<!-- Node17 -->
<g id="node17" class="node">
<title>Node17</title>
<g id="a_node17"><a xlink:href="group__grp__conjugate__gradient.html#ga25a3bae2ff2ee0469b045de0d033398b" target="_top" xlink:title="Use preconditioned conjugate gradient method to find minimum of energy functional.">
<polygon fill="white" stroke="black" points="255,-75.5 255,-94.5 303,-94.5 303,-75.5 255,-75.5"/>
<text text-anchor="middle" x="279" y="-82.5" font-family="Helvetica,sans-Serif" font-size="10.00">pc00aa</text>
</a>
</g>
</g>
<!-- Node16&#45;&gt;Node17 -->
<g id="edge28" class="edge">
<title>Node16&#45;&gt;Node17</title>
<path fill="none" stroke="midnightblue" d="M367.16,-85C346.81,-85 321.31,-85 303.16,-85"/>
<polygon fill="midnightblue" stroke="midnightblue" points="367.27,-88.5 377.27,-85 367.27,-81.5 367.27,-88.5"/>
</g>
<!-- Node18&#45;&gt;Node2 -->
<g id="edge31" class="edge">
<title>Node18&#45;&gt;Node2</title>
<path fill="none" stroke="midnightblue" d="M604.27,-175.95C608.02,-174.21 611.65,-172.23 615,-170 640.65,-152.93 661.93,-121.71 669.77,-104.87"/>
<polygon fill="midnightblue" stroke="midnightblue" points="602.77,-172.79 594.79,-179.76 605.37,-179.28 602.77,-172.79"/>
</g>
<!-- Node19&#45;&gt;Node2 -->
<g id="edge33" class="edge">
<title>Node19&#45;&gt;Node2</title>
<path fill="none" stroke="midnightblue" d="M580.02,-62.24C600.28,-72.33 630.48,-84.74 650.92,-91.4"/>
<polygon fill="midnightblue" stroke="midnightblue" points="581.44,-59.04 570.96,-57.51 578.2,-65.24 581.44,-59.04"/>
</g>
<!-- Node20&#45;&gt;Node2 -->
<g id="edge36" class="edge">
<title>Node20&#45;&gt;Node2</title>
<path fill="none" stroke="midnightblue" d="M581.97,-23.11C592.64,-26.89 605.08,-31.4 615,-38 634.56,-51.01 651.57,-72.25 662.03,-85.15"/>
<polygon fill="midnightblue" stroke="midnightblue" points="583.01,-19.76 572.41,-19.66 580.63,-26.35 583.01,-19.76"/>
</g>
</g>
</svg>
