<?xml version="1.0" encoding="UTF-8" standalone="no"?>
<!DOCTYPE svg PUBLIC "-//W3C//DTD SVG 1.1//EN"
 "http://www.w3.org/Graphics/SVG/1.1/DTD/svg11.dtd">
<!-- Generated by graphviz version 2.44.1 (0)
 -->
<!-- Title: ma00aa Pages: 1 -->
<svg width="323pt" height="105pt"
 viewBox="0.00 0.00 323.00 104.74" xmlns="http://www.w3.org/2000/svg" xmlns:xlink="http://www.w3.org/1999/xlink">
<g id="graph0" class="graph" transform="scale(1 1) rotate(0) translate(4 100.74)">
<title>ma00aa</title>
<polygon fill="white" stroke="transparent" points="-4,4 -4,-100.74 319,-100.74 319,4 -4,4"/>
<!-- Node1 -->
<g id="node1" class="node">
<title>Node1</title>
<g id="a_node1"><a xlink:title="Calculates volume integrals of Chebyshev polynomials and metric element products.">
<polygon fill="#bfbfbf" stroke="black" points="0,-1.24 0,-20.24 56,-20.24 56,-1.24 0,-1.24"/>
<text text-anchor="middle" x="28" y="-8.24" font-family="Helvetica,sans-Serif" font-size="10.00">ma00aa</text>
</a>
</g>
</g>
<!-- Node2 -->
<g id="node2" class="node">
<title>Node2</title>
<g id="a_node2"><a xlink:href="group__grp__metrics.xhtml#ga254ce8e645c4110d77e3b3dbc3a89885" target="_top" xlink:title="Calculates the metric quantities, , which are required for the energy and helicity integrals.">
<polygon fill="white" stroke="black" points="92,-20.24 92,-39.24 141,-39.24 141,-20.24 92,-20.24"/>
<text text-anchor="middle" x="116.5" y="-27.24" font-family="Helvetica,sans-Serif" font-size="10.00">metrix</text>
</a>
</g>
</g>
<!-- Node1&#45;&gt;Node2 -->
<g id="edge1" class="edge">
<title>Node1&#45;&gt;Node2</title>
<path fill="none" stroke="midnightblue" d="M56.37,-16.75C64.46,-18.53 73.42,-20.5 81.86,-22.35"/>
<polygon fill="midnightblue" stroke="midnightblue" points="81.29,-25.81 91.81,-24.54 82.79,-18.97 81.29,-25.81"/>
</g>
<!-- Node5 -->
<g id="node5" class="node">
<title>Node5</title>
<g id="a_node5"><a xlink:href="group__grp__volume.xhtml#gae4c62d20b8fef07f4471b5b0889ab005" target="_top" xlink:title="Computes volume of each region; and, if required, the derivatives of the volume with respect to the i...">
<polygon fill="white" stroke="black" points="262,-39.24 262,-58.24 315,-58.24 315,-39.24 262,-39.24"/>
<text text-anchor="middle" x="288.5" y="-46.24" font-family="Helvetica,sans-Serif" font-size="10.00">volume</text>
</a>
</g>
</g>
<!-- Node1&#45;&gt;Node5 -->
<g id="edge7" class="edge">
<title>Node1&#45;&gt;Node5</title>
<path fill="none" stroke="midnightblue" d="M56.09,-6.15C94.67,-0.64 167.27,5.94 226,-10.74 241.39,-15.11 256.71,-24.55 268.21,-32.93"/>
<polygon fill="midnightblue" stroke="midnightblue" points="266.12,-35.74 276.19,-39.03 270.37,-30.18 266.12,-35.74"/>
</g>
<!-- Node3 -->
<g id="node3" class="node">
<title>Node3</title>
<g id="a_node3"><a xlink:href="group__grp__geometry.xhtml#gaaca20aa60eaf39055f3c9d5c02a24ac2" target="_top" xlink:title="Calculates coordinates, , and metrics, using FFTs.">
<polygon fill="white" stroke="black" points="177,-58.24 177,-77.24 226,-77.24 226,-58.24 177,-58.24"/>
<text text-anchor="middle" x="201.5" y="-65.24" font-family="Helvetica,sans-Serif" font-size="10.00">coords</text>
</a>
</g>
</g>
<!-- Node2&#45;&gt;Node3 -->
<g id="edge2" class="edge">
<title>Node2&#45;&gt;Node3</title>
<path fill="none" stroke="midnightblue" d="M138.44,-39.33C148.08,-43.74 159.69,-49.05 170.25,-53.89"/>
<polygon fill="midnightblue" stroke="midnightblue" points="169.01,-57.17 179.56,-58.15 171.93,-50.81 169.01,-57.17"/>
</g>
<!-- Node6 -->
<g id="node6" class="node">
<title>Node6</title>
<g id="a_node6"><a xlink:href="group__grp__numerics.xhtml#ga041138109a57e651c57117bb4180409e" target="_top" xlink:title="Forward Fourier transform (fftw wrapper)">
<polygon fill="white" stroke="black" points="186,-20.24 186,-39.24 217,-39.24 217,-20.24 186,-20.24"/>
<text text-anchor="middle" x="201.5" y="-27.24" font-family="Helvetica,sans-Serif" font-size="10.00">tfft</text>
</a>
</g>
</g>
<!-- Node2&#45;&gt;Node6 -->
<g id="edge6" class="edge">
<title>Node2&#45;&gt;Node6</title>
<path fill="none" stroke="midnightblue" d="M141.06,-29.74C151.85,-29.74 164.63,-29.74 175.57,-29.74"/>
<polygon fill="midnightblue" stroke="midnightblue" points="175.76,-33.24 185.76,-29.74 175.76,-26.24 175.76,-33.24"/>
</g>
<!-- Node4 -->
<g id="node4" class="node">
<title>Node4</title>
<g id="a_node4"><a xlink:href="group__grp__numerics.xhtml#ga1fd52accb0646f535f9bcc46cf5a68f3" target="_top" xlink:title="Inverse Fourier transform (fftw wrapper)">
<polygon fill="white" stroke="black" points="267.5,-77.24 267.5,-96.24 309.5,-96.24 309.5,-77.24 267.5,-77.24"/>
<text text-anchor="middle" x="288.5" y="-84.24" font-family="Helvetica,sans-Serif" font-size="10.00">invfft</text>
</a>
</g>
</g>
<!-- Node3&#45;&gt;Node4 -->
<g id="edge3" class="edge">
<title>Node3&#45;&gt;Node4</title>
<path fill="none" stroke="midnightblue" d="M226.18,-73.03C235.9,-75.21 247.28,-77.75 257.57,-80.05"/>
<polygon fill="midnightblue" stroke="midnightblue" points="256.88,-83.48 267.4,-82.25 258.41,-76.65 256.88,-83.48"/>
</g>
<!-- Node3&#45;&gt;Node5 -->
<g id="edge4" class="edge">
<title>Node3&#45;&gt;Node5</title>
<path fill="none" stroke="midnightblue" d="M220.11,-58.21C229.35,-55.17 241,-52.21 252.01,-50.01"/>
<polygon fill="midnightblue" stroke="midnightblue" points="252.63,-53.45 261.85,-48.22 251.38,-46.56 252.63,-53.45"/>
</g>
<!-- Node5&#45;&gt;Node3 -->
<g id="edge5" class="edge">
<title>Node5&#45;&gt;Node3</title>
<path fill="none" stroke="midnightblue" d="M269.88,-58.27C260.19,-61.46 247.84,-64.57 236.37,-66.79"/>
<polygon fill="midnightblue" stroke="midnightblue" points="235.43,-63.41 226.18,-68.57 236.63,-70.3 235.43,-63.41"/>
</g>
</g>
</svg>
