<?xml version="1.0" encoding="UTF-8" standalone="no"?>
<!DOCTYPE svg PUBLIC "-//W3C//DTD SVG 1.1//EN"
 "http://www.w3.org/Graphics/SVG/1.1/DTD/svg11.dtd">
<!-- Generated by graphviz version 2.49.3 (20211027.1534)
 -->
<!-- Title: newton Pages: 1 -->
<svg width="683pt" height="422pt"
 viewBox="0.00 0.00 683.00 422.00" xmlns="http://www.w3.org/2000/svg" xmlns:xlink="http://www.w3.org/1999/xlink">
<g id="graph0" class="graph" transform="scale(1 1) rotate(0) translate(4 418)">
<title>newton</title>
<polygon fill="white" stroke="transparent" points="-4,4 -4,-418 679,-418 679,4 -4,4"/>
<!-- Node1 -->
<g id="node1" class="node">
<title>Node1</title>
<g id="a_node1"><a xlink:title="Employs Newton method to find , where &#160;and &#160;is defined in dforce() .">
<polygon fill="#bfbfbf" stroke="black" points="627,-305.5 627,-324.5 675,-324.5 675,-305.5 627,-305.5"/>
<text text-anchor="middle" x="651" y="-312.5" font-family="Helvetica,sans-Serif" font-size="10.00">newton</text>
</a>
</g>
</g>
<!-- Node1&#45;&gt;Node1 -->
<g id="edge7" class="edge">
<title>Node1&#45;&gt;Node1</title>
<path fill="none" stroke="midnightblue" d="M668.04,-334.4C666.9,-339.31 661.22,-343 651,-343 634.65,-343 629.92,-333.57 636.82,-324.76"/>
<polygon fill="midnightblue" stroke="midnightblue" points="671.38,-333.35 665.18,-324.76 664.66,-335.34 671.38,-333.35"/>
</g>
<!-- Node2 -->
<g id="node2" class="node">
<title>Node2</title>
<g id="a_node2"><a xlink:href="group__grp__force__driver.html#gabbc245b3884ee8d8d3e2a52f25149f78" target="_top" xlink:title="Objective to be given to the Newton solver, using only function values.">
<polygon fill="white" stroke="black" points="280,-376.5 280,-395.5 315,-395.5 315,-376.5 280,-376.5"/>
<text text-anchor="middle" x="297.5" y="-383.5" font-family="Helvetica,sans-Serif" font-size="10.00">fcn1</text>
</a>
</g>
</g>
<!-- Node1&#45;&gt;Node2 -->
<g id="edge1" class="edge">
<title>Node1&#45;&gt;Node2</title>
<path fill="none" stroke="midnightblue" d="M623.36,-330.55C613.8,-337.37 602.52,-344.63 591,-349 491.79,-386.64 360.7,-381.6 315.03,-383.21"/>
<polygon fill="midnightblue" stroke="midnightblue" points="625.62,-333.24 631.62,-324.5 621.48,-327.59 625.62,-333.24"/>
</g>
<!-- Node3 -->
<g id="node3" class="node">
<title>Node3</title>
<g id="a_node3"><a xlink:href="group__grp__force__driver.html#ga8ccd6c7d901872702521d0a0edf95412" target="_top" xlink:title="Objective to be given to the Newton solver, using function values and derivatives.">
<polygon fill="white" stroke="black" points="280,-320.5 280,-339.5 315,-339.5 315,-320.5 280,-320.5"/>
<text text-anchor="middle" x="297.5" y="-327.5" font-family="Helvetica,sans-Serif" font-size="10.00">fcn2</text>
</a>
</g>
</g>
<!-- Node1&#45;&gt;Node3 -->
<g id="edge4" class="edge">
<title>Node1&#45;&gt;Node3</title>
<path fill="none" stroke="midnightblue" d="M616.64,-308.87C591.68,-308.3 556.7,-309.71 526,-311 447,-314.33 352.58,-318.56 315.06,-324.54"/>
<polygon fill="midnightblue" stroke="midnightblue" points="616.57,-312.37 626.69,-309.24 616.82,-305.37 616.57,-312.37"/>
</g>
<!-- Node4 -->
<g id="node4" class="node">
<title>Node4</title>
<g id="a_node4"><a xlink:href="xspech_8f90.html#a48f45478dc2c9f70ea8aa1c60ad06503" target="_top" xlink:title="This is the main &quot;driver&quot; for the physics part of SPEC.">
<polygon fill="white" stroke="black" points="539.5,-94.5 539.5,-113.5 577.5,-113.5 577.5,-94.5 539.5,-94.5"/>
<text text-anchor="middle" x="558.5" y="-101.5" font-family="Helvetica,sans-Serif" font-size="10.00">spec</text>
</a>
</g>
</g>
<!-- Node1&#45;&gt;Node4 -->
<g id="edge8" class="edge">
<title>Node1&#45;&gt;Node4</title>
<path fill="none" stroke="midnightblue" d="M641.82,-295.93C623.09,-252.25 577.61,-146.23 563.65,-113.67"/>
<polygon fill="midnightblue" stroke="midnightblue" points="638.72,-297.57 645.88,-305.39 645.15,-294.82 638.72,-297.57"/>
</g>
<!-- Node19 -->
<g id="node19" class="node">
<title>Node19</title>
<g id="a_node19"><a xlink:href="group__grp__output.html#ga382822b303cbf8c56d6f54dcb379caf2" target="_top" xlink:title="read or write force&#45;derivative matrix .ext.sp.DF">
<polygon fill="white" stroke="black" points="526,-329.5 526,-348.5 591,-348.5 591,-329.5 526,-329.5"/>
<text text-anchor="middle" x="558.5" y="-336.5" font-family="Helvetica,sans-Serif" font-size="10.00">writereadgf</text>
</a>
</g>
</g>
<!-- Node1&#45;&gt;Node19 -->
<g id="edge43" class="edge">
<title>Node1&#45;&gt;Node19</title>
<path fill="none" stroke="midnightblue" d="M616.84,-317.26C602.77,-320.47 587.02,-325.06 575.6,-329.43"/>
<polygon fill="midnightblue" stroke="midnightblue" points="617.63,-320.67 626.69,-315.19 616.19,-313.82 617.63,-320.67"/>
</g>
<!-- Node2&#45;&gt;Node1 -->
<g id="edge3" class="edge">
<title>Node2&#45;&gt;Node1</title>
<path fill="none" stroke="midnightblue" d="M325.22,-393.11C377.97,-400.08 498.38,-402.14 591,-367 613.99,-358.28 636.02,-338.08 645.34,-324.89"/>
<polygon fill="midnightblue" stroke="midnightblue" points="325.44,-389.6 315.03,-391.56 324.39,-396.52 325.44,-389.6"/>
</g>
<!-- Node2&#45;&gt;Node2 -->
<g id="edge2" class="edge">
<title>Node2&#45;&gt;Node2</title>
<path fill="none" stroke="midnightblue" d="M320.37,-403.14C320.68,-409.14 313.06,-414 297.5,-414 274.86,-414 269.03,-403.72 279.99,-394.6"/>
<polygon fill="midnightblue" stroke="midnightblue" points="323.29,-401.21 315.01,-394.6 317.36,-404.93 323.29,-401.21"/>
</g>
<!-- Node3&#45;&gt;Node1 -->
<g id="edge6" class="edge">
<title>Node3&#45;&gt;Node1</title>
<path fill="none" stroke="midnightblue" d="M325.13,-334.46C367.61,-335.89 453.33,-332.06 526,-329 561.09,-327.52 601.76,-325.9 626.69,-322.59"/>
<polygon fill="midnightblue" stroke="midnightblue" points="325.22,-330.96 315.06,-333.96 324.87,-337.95 325.22,-330.96"/>
</g>
<!-- Node3&#45;&gt;Node3 -->
<g id="edge5" class="edge">
<title>Node3&#45;&gt;Node3</title>
<path fill="none" stroke="midnightblue" d="M320.37,-347.14C320.68,-353.14 313.06,-358 297.5,-358 274.86,-358 269.03,-347.72 279.99,-338.6"/>
<polygon fill="midnightblue" stroke="midnightblue" points="323.29,-345.21 315.01,-338.6 317.36,-348.93 323.29,-345.21"/>
</g>
<!-- Node5 -->
<g id="node5" class="node">
<title>Node5</title>
<g id="a_node5"><a xlink:href="group__grp__global__force.html#ga38c9d3c50bd043707fefa5137c9dbf44" target="_top" xlink:title="Calculates , where &#160;and , and .">
<polygon fill="white" stroke="black" points="421,-203.5 421,-222.5 465,-222.5 465,-203.5 421,-203.5"/>
<text text-anchor="middle" x="443" y="-210.5" font-family="Helvetica,sans-Serif" font-size="10.00">dforce</text>
</a>
</g>
</g>
<!-- Node4&#45;&gt;Node5 -->
<g id="edge9" class="edge">
<title>Node4&#45;&gt;Node5</title>
<path fill="none" stroke="midnightblue" d="M535.03,-120.07C508.66,-143.2 466.5,-184.41 450.47,-203.44"/>
<polygon fill="midnightblue" stroke="midnightblue" points="537.35,-122.69 542.66,-113.52 532.79,-117.38 537.35,-122.69"/>
</g>
<!-- Node7 -->
<g id="node7" class="node">
<title>Node7</title>
<g id="a_node7"><a xlink:href="xspech_8f90.html#a9fdc71dffd7c61ee4588a3f80d3ab9ce" target="_top" xlink:title="Main subroutine of SPEC.">
<polygon fill="white" stroke="black" points="151.5,-47.5 151.5,-66.5 198.5,-66.5 198.5,-47.5 151.5,-47.5"/>
<text text-anchor="middle" x="175" y="-54.5" font-family="Helvetica,sans-Serif" font-size="10.00">xspech</text>
</a>
</g>
</g>
<!-- Node4&#45;&gt;Node7 -->
<g id="edge42" class="edge">
<title>Node4&#45;&gt;Node7</title>
<path fill="none" stroke="midnightblue" d="M529.15,-96.75C456.59,-83.71 265.19,-60.24 198.95,-56.4"/>
<polygon fill="midnightblue" stroke="midnightblue" points="528.88,-100.26 539.36,-98.67 530.18,-93.38 528.88,-100.26"/>
</g>
<!-- Node18 -->
<g id="node18" class="node">
<title>Node18</title>
<g id="a_node18"><a xlink:href="group__grp__output.html#ga0f962c09cd5d5eba99f1cba043cb3898" target="_top" xlink:title="Initialize the interface to the HDF5 library and open the output file.">
<polygon fill="white" stroke="black" points="396,-0.5 396,-19.5 490,-19.5 490,-0.5 396,-0.5"/>
<text text-anchor="middle" x="443" y="-7.5" font-family="Helvetica,sans-Serif" font-size="10.00">sphdf5::init_outfile</text>
</a>
</g>
</g>
<!-- Node4&#45;&gt;Node18 -->
<g id="edge40" class="edge">
<title>Node4&#45;&gt;Node18</title>
<path fill="none" stroke="midnightblue" d="M543.34,-86.38C530.53,-71.21 510.57,-49.39 490,-34 482.64,-28.5 473.85,-23.57 465.92,-19.63"/>
<polygon fill="midnightblue" stroke="midnightblue" points="540.94,-88.97 550.01,-94.45 546.34,-84.51 540.94,-88.97"/>
</g>
<!-- Node5&#45;&gt;Node1 -->
<g id="edge34" class="edge">
<title>Node5&#45;&gt;Node1</title>
<path fill="none" stroke="midnightblue" d="M475.01,-221.84C505.61,-231.24 553.16,-247.68 591,-269 609.56,-279.46 628.55,-295.39 639.81,-305.5"/>
<polygon fill="midnightblue" stroke="midnightblue" points="475.91,-218.46 465.33,-218.93 473.89,-225.16 475.91,-218.46"/>
</g>
<!-- Node5&#45;&gt;Node2 -->
<g id="edge18" class="edge">
<title>Node5&#45;&gt;Node2</title>
<path fill="none" stroke="midnightblue" d="M436.97,-232.26C427.49,-264.84 403.84,-330.77 360,-367 347.16,-377.61 328.44,-382.3 315.02,-384.38"/>
<polygon fill="midnightblue" stroke="midnightblue" points="440.36,-233.16 439.66,-222.59 433.61,-231.29 440.36,-233.16"/>
</g>
<!-- Node5&#45;&gt;Node3 -->
<g id="edge19" class="edge">
<title>Node5&#45;&gt;Node3</title>
<path fill="none" stroke="midnightblue" d="M427.7,-230.35C404.77,-258.11 362.16,-309.57 360,-311 346.32,-320.1 328.07,-325.01 315.01,-327.55"/>
<polygon fill="midnightblue" stroke="midnightblue" points="430.44,-232.51 434.11,-222.57 425.05,-228.06 430.44,-232.51"/>
</g>
<!-- Node5&#45;&gt;Node4 -->
<g id="edge39" class="edge">
<title>Node5&#45;&gt;Node4</title>
<path fill="none" stroke="midnightblue" d="M466.56,-196.85C492.96,-173.69 535.09,-132.5 551.07,-113.51"/>
<polygon fill="midnightblue" stroke="midnightblue" points="464.22,-194.24 458.92,-203.41 468.78,-199.55 464.22,-194.24"/>
</g>
<!-- Node5&#45;&gt;Node5 -->
<g id="edge17" class="edge">
<title>Node5&#45;&gt;Node5</title>
<path fill="none" stroke="midnightblue" d="M464.11,-232.4C462.7,-237.31 455.66,-241 443,-241 422.74,-241 416.88,-231.57 425.43,-222.76"/>
<polygon fill="midnightblue" stroke="midnightblue" points="467.3,-230.94 460.57,-222.76 460.73,-233.35 467.3,-230.94"/>
</g>
<!-- Node6 -->
<g id="node6" class="node">
<title>Node6</title>
<g id="a_node6"><a xlink:href="namespaceallglobal.html#a7824bc37519fe88336534ce90ab2af16" target="_top" xlink:title=" ">
<polygon fill="white" stroke="black" points="240.5,-150.5 240.5,-169.5 354.5,-169.5 354.5,-150.5 240.5,-150.5"/>
<text text-anchor="middle" x="297.5" y="-157.5" font-family="Helvetica,sans-Serif" font-size="10.00">allglobal::check_inputs</text>
</a>
</g>
</g>
<!-- Node5&#45;&gt;Node6 -->
<g id="edge10" class="edge">
<title>Node5&#45;&gt;Node6</title>
<path fill="none" stroke="midnightblue" d="M411.48,-199.55C396.16,-193 377.24,-185.22 360,-179 350.86,-175.7 340.82,-172.45 331.56,-169.59"/>
<polygon fill="midnightblue" stroke="midnightblue" points="410.41,-202.9 420.98,-203.65 413.18,-196.47 410.41,-202.9"/>
</g>
<!-- Node10 -->
<g id="node10" class="node">
<title>Node10</title>
<g id="a_node10"><a xlink:href="dfp200_8f90.html#a6aca59cf350d7b1941f8389d50945a43" target="_top" xlink:title="get LU Beltrami matrices">
<polygon fill="white" stroke="black" points="235,-188.5 235,-207.5 360,-207.5 360,-188.5 235,-188.5"/>
<text text-anchor="middle" x="297.5" y="-195.5" font-family="Helvetica,sans-Serif" font-size="10.00">get_lu_beltrami_matrices</text>
</a>
</g>
</g>
<!-- Node5&#45;&gt;Node10 -->
<g id="edge20" class="edge">
<title>Node5&#45;&gt;Node10</title>
<path fill="none" stroke="midnightblue" d="M410.69,-209.73C395.85,-208.18 377.59,-206.27 360.14,-204.44"/>
<polygon fill="midnightblue" stroke="midnightblue" points="410.52,-213.23 420.83,-210.79 411.24,-206.27 410.52,-213.23"/>
</g>
<!-- Node15 -->
<g id="node15" class="node">
<title>Node15</title>
<g id="a_node15"><a xlink:href="group__grp__output.html#ga7401b50ec10c6598ee4a8112717a63ec" target="_top" xlink:title="Computes eigenvalues and eigenvectors of derivative matrix, &#160;and saves them to .ext....">
<polygon fill="white" stroke="black" points="275,-94.5 275,-113.5 320,-113.5 320,-94.5 275,-94.5"/>
<text text-anchor="middle" x="297.5" y="-101.5" font-family="Helvetica,sans-Serif" font-size="10.00">hesian</text>
</a>
</g>
</g>
<!-- Node5&#45;&gt;Node15 -->
<g id="edge31" class="edge">
<title>Node5&#45;&gt;Node15</title>
<path fill="none" stroke="midnightblue" d="M424.31,-195.8C408.21,-180.56 383.45,-158.13 360,-141 345.92,-130.71 328.84,-120.61 316.26,-113.57"/>
<polygon fill="midnightblue" stroke="midnightblue" points="422.24,-198.67 431.89,-203.05 427.08,-193.61 422.24,-198.67"/>
</g>
<!-- Node16 -->
<g id="node16" class="node">
<title>Node16</title>
<g id="a_node16"><a xlink:href="group__grp__conjugate__gradient.html#ga4d8415226e62a9fdb42b0fd0b464251e" target="_top" xlink:title="Returns the energy functional and it&#39;s derivatives with respect to geometry.">
<polygon fill="white" stroke="black" points="273.5,-264.5 273.5,-283.5 321.5,-283.5 321.5,-264.5 273.5,-264.5"/>
<text text-anchor="middle" x="297.5" y="-271.5" font-family="Helvetica,sans-Serif" font-size="10.00">pc00ab</text>
</a>
</g>
</g>
<!-- Node5&#45;&gt;Node16 -->
<g id="edge35" class="edge">
<title>Node5&#45;&gt;Node16</title>
<path fill="none" stroke="midnightblue" d="M412.46,-226.78C396.93,-233.9 377.53,-242.63 360,-250 347.43,-255.29 333.25,-260.84 321.69,-265.28"/>
<polygon fill="midnightblue" stroke="midnightblue" points="413.96,-229.94 421.57,-222.57 411.03,-223.58 413.96,-229.94"/>
</g>
<!-- Node6&#45;&gt;Node7 -->
<g id="edge11" class="edge">
<title>Node6&#45;&gt;Node7</title>
<path fill="none" stroke="midnightblue" d="M243.52,-146.25C240.53,-144.68 237.67,-142.94 235,-141 207.48,-120.97 188.18,-84.07 180.16,-66.62"/>
<polygon fill="midnightblue" stroke="midnightblue" points="242.21,-149.5 252.77,-150.45 245.11,-143.13 242.21,-149.5"/>
</g>
<!-- Node7&#45;&gt;Node4 -->
<g id="edge14" class="edge">
<title>Node7&#45;&gt;Node4</title>
<path fill="none" stroke="midnightblue" d="M209.14,-65.09C286.98,-78.62 479.39,-102.02 539.36,-104.86"/>
<polygon fill="midnightblue" stroke="midnightblue" points="209.41,-61.59 198.95,-63.25 208.17,-68.47 209.41,-61.59"/>
</g>
<!-- Node7&#45;&gt;Node7 -->
<g id="edge16" class="edge">
<title>Node7&#45;&gt;Node7</title>
<path fill="none" stroke="midnightblue" d="M196.48,-76.4C195.05,-81.31 187.89,-85 175,-85 154.38,-85 148.42,-75.57 157.12,-66.76"/>
<polygon fill="midnightblue" stroke="midnightblue" points="199.66,-74.9 192.88,-66.76 193.1,-77.35 199.66,-74.9"/>
</g>
<!-- Node8 -->
<g id="node8" class="node">
<title>Node8</title>
<g id="a_node8"><a xlink:href="xspech_8f90.html#a1451823a7b97101a797de616250752c1" target="_top" xlink:title="Final diagnostics.">
<polygon fill="white" stroke="black" points="13,-47.5 13,-66.5 102,-66.5 102,-47.5 13,-47.5"/>
<text text-anchor="middle" x="57.5" y="-54.5" font-family="Helvetica,sans-Serif" font-size="10.00">final_diagnostics</text>
</a>
</g>
</g>
<!-- Node7&#45;&gt;Node8 -->
<g id="edge12" class="edge">
<title>Node7&#45;&gt;Node8</title>
<path fill="none" stroke="midnightblue" d="M141.29,-50.85C129.09,-50.23 115.05,-50.09 102.04,-50.44"/>
<polygon fill="midnightblue" stroke="midnightblue" points="141.25,-54.35 151.46,-51.52 141.71,-47.37 141.25,-54.35"/>
</g>
<!-- Node9 -->
<g id="node9" class="node">
<title>Node9</title>
<g id="a_node9"><a xlink:href="xspech_8f90.html#a95271e8805067f801b5d4e524d6901d4" target="_top" xlink:title="Main program of SPEC.">
<polygon fill="white" stroke="black" points="25.5,-9.5 25.5,-28.5 89.5,-28.5 89.5,-9.5 25.5,-9.5"/>
<text text-anchor="middle" x="57.5" y="-16.5" font-family="Helvetica,sans-Serif" font-size="10.00">spec_main</text>
</a>
</g>
</g>
<!-- Node7&#45;&gt;Node9 -->
<g id="edge15" class="edge">
<title>Node7&#45;&gt;Node9</title>
<path fill="none" stroke="midnightblue" d="M141.92,-46.45C124.89,-40.84 104.12,-34.01 87.57,-28.56"/>
<polygon fill="midnightblue" stroke="midnightblue" points="140.86,-49.78 151.46,-49.58 143.05,-43.13 140.86,-49.78"/>
</g>
<!-- Node8&#45;&gt;Node7 -->
<g id="edge13" class="edge">
<title>Node8&#45;&gt;Node7</title>
<path fill="none" stroke="midnightblue" d="M112.05,-63.73C125.94,-63.84 140.15,-63.42 151.46,-62.48"/>
<polygon fill="midnightblue" stroke="midnightblue" points="112.09,-60.23 102.04,-63.56 111.98,-67.23 112.09,-60.23"/>
</g>
<!-- Node11 -->
<g id="node11" class="node">
<title>Node11</title>
<g id="a_node11"><a xlink:href="dfp200_8f90.html#a55ea75395f8c71731451e1add3720c7e" target="_top" xlink:title="Given the field consistent with the constraints and the geometry, computes local quantites related to...">
<polygon fill="white" stroke="black" points="152,-188.5 152,-207.5 198,-207.5 198,-188.5 152,-188.5"/>
<text text-anchor="middle" x="175" y="-195.5" font-family="Helvetica,sans-Serif" font-size="10.00">dfp200</text>
</a>
</g>
</g>
<!-- Node10&#45;&gt;Node11 -->
<g id="edge21" class="edge">
<title>Node10&#45;&gt;Node11</title>
<path fill="none" stroke="midnightblue" d="M224.69,-191.36C215.05,-191.55 205.82,-191.98 198.04,-192.64"/>
<polygon fill="midnightblue" stroke="midnightblue" points="224.88,-194.86 234.84,-191.25 224.8,-187.86 224.88,-194.86"/>
</g>
<!-- Node11&#45;&gt;Node5 -->
<g id="edge22" class="edge">
<title>Node11&#45;&gt;Node5</title>
<path fill="none" stroke="midnightblue" d="M207.49,-210.13C216.26,-212.97 225.89,-215.57 235,-217 302.29,-227.57 383.38,-220.3 420.97,-215.81"/>
<polygon fill="midnightblue" stroke="midnightblue" points="208.61,-206.82 198.01,-206.89 206.34,-213.44 208.61,-206.82"/>
</g>
<!-- Node11&#45;&gt;Node10 -->
<g id="edge28" class="edge">
<title>Node11&#45;&gt;Node10</title>
<path fill="none" stroke="midnightblue" d="M208.28,-204.06C216.52,-204.5 225.66,-204.73 234.84,-204.75"/>
<polygon fill="midnightblue" stroke="midnightblue" points="208.26,-200.55 198.04,-203.36 207.78,-207.53 208.26,-200.55"/>
</g>
<!-- Node11&#45;&gt;Node11 -->
<g id="edge23" class="edge">
<title>Node11&#45;&gt;Node11</title>
<path fill="none" stroke="midnightblue" d="M196.48,-217.4C195.05,-222.31 187.89,-226 175,-226 154.38,-226 148.42,-216.57 157.12,-207.76"/>
<polygon fill="midnightblue" stroke="midnightblue" points="199.66,-215.9 192.88,-207.76 193.1,-218.35 199.66,-215.9"/>
</g>
<!-- Node12 -->
<g id="node12" class="node">
<title>Node12</title>
<g id="a_node12"><a xlink:href="dfp200_8f90.html#a7b64c7392b45d0042d8bd7379c0761a5" target="_top" xlink:title="Evaluate the derivative of the square of the magnetic field modulus. Add spectral constraint derivati...">
<polygon fill="white" stroke="black" points="20.5,-226.5 20.5,-245.5 94.5,-245.5 94.5,-226.5 20.5,-226.5"/>
<text text-anchor="middle" x="57.5" y="-233.5" font-family="Helvetica,sans-Serif" font-size="10.00">evaluate_dbb</text>
</a>
</g>
</g>
<!-- Node11&#45;&gt;Node12 -->
<g id="edge24" class="edge">
<title>Node11&#45;&gt;Node12</title>
<path fill="none" stroke="midnightblue" d="M141.95,-202.43C119.52,-208.63 90.6,-218.61 73.36,-226.41"/>
<polygon fill="midnightblue" stroke="midnightblue" points="142.94,-205.79 151.73,-199.87 141.17,-199.01 142.94,-205.79"/>
</g>
<!-- Node13 -->
<g id="node13" class="node">
<title>Node13</title>
<g id="a_node13"><a xlink:href="dfp200_8f90.html#a73ddf39ecc5228201fb643779e17cd36" target="_top" xlink:title="Evaluate mu and psip derivatives and store them in dmupfdx.">
<polygon fill="white" stroke="black" points="10,-188.5 10,-207.5 105,-207.5 105,-188.5 10,-188.5"/>
<text text-anchor="middle" x="57.5" y="-195.5" font-family="Helvetica,sans-Serif" font-size="10.00">evaluate_dmupfdx</text>
</a>
</g>
</g>
<!-- Node11&#45;&gt;Node13 -->
<g id="edge26" class="edge">
<title>Node11&#45;&gt;Node13</title>
<path fill="none" stroke="midnightblue" d="M141.47,-191.86C130.18,-191.28 117.28,-191.11 105.08,-191.36"/>
<polygon fill="midnightblue" stroke="midnightblue" points="141.52,-195.37 151.73,-192.54 141.99,-188.38 141.52,-195.37"/>
</g>
<!-- Node14 -->
<g id="node14" class="node">
<title>Node14</title>
<g id="a_node14"><a xlink:href="dfp200_8f90.html#a5e56f1f4b1e6df11a9cffa6237c37469" target="_top" xlink:title="This routine evaluates the value of the magnetic field once the interface is perturbed using matrix p...">
<polygon fill="white" stroke="black" points="0,-150.5 0,-169.5 115,-169.5 115,-150.5 0,-150.5"/>
<text text-anchor="middle" x="57.5" y="-157.5" font-family="Helvetica,sans-Serif" font-size="10.00">get_perturbed_solution</text>
</a>
</g>
</g>
<!-- Node11&#45;&gt;Node14 -->
<g id="edge29" class="edge">
<title>Node11&#45;&gt;Node14</title>
<path fill="none" stroke="midnightblue" d="M149.49,-184.3C137.37,-179.39 122.29,-174.08 107.9,-169.57"/>
<polygon fill="midnightblue" stroke="midnightblue" points="148.33,-187.61 158.9,-188.3 151.07,-181.17 148.33,-187.61"/>
</g>
<!-- Node12&#45;&gt;Node11 -->
<g id="edge25" class="edge">
<title>Node12&#45;&gt;Node11</title>
<path fill="none" stroke="midnightblue" d="M104.59,-227.46C123.93,-221.52 145.09,-213.92 158.9,-207.7"/>
<polygon fill="midnightblue" stroke="midnightblue" points="103.57,-224.11 94.99,-230.32 105.57,-230.82 103.57,-224.11"/>
</g>
<!-- Node13&#45;&gt;Node11 -->
<g id="edge27" class="edge">
<title>Node13&#45;&gt;Node11</title>
<path fill="none" stroke="midnightblue" d="M115.38,-204.75C128.3,-204.77 141.28,-204.34 151.73,-203.46"/>
<polygon fill="midnightblue" stroke="midnightblue" points="115.12,-201.25 105.08,-204.64 115.04,-208.25 115.12,-201.25"/>
</g>
<!-- Node14&#45;&gt;Node11 -->
<g id="edge30" class="edge">
<title>Node14&#45;&gt;Node11</title>
<path fill="none" stroke="midnightblue" d="M82.59,-173.53C102.96,-181.81 131.9,-191.28 151.73,-196.13"/>
<polygon fill="midnightblue" stroke="midnightblue" points="83.93,-170.3 73.36,-169.59 81.19,-176.74 83.93,-170.3"/>
</g>
<!-- Node15&#45;&gt;Node4 -->
<g id="edge33" class="edge">
<title>Node15&#45;&gt;Node4</title>
<path fill="none" stroke="midnightblue" d="M330.48,-104C385.37,-104 495.78,-104 539.29,-104"/>
<polygon fill="midnightblue" stroke="midnightblue" points="330.28,-100.5 320.28,-104 330.28,-107.5 330.28,-100.5"/>
</g>
<!-- Node15&#45;&gt;Node15 -->
<g id="edge32" class="edge">
<title>Node15&#45;&gt;Node15</title>
<path fill="none" stroke="midnightblue" d="M320.19,-123.03C318.96,-128.13 311.39,-132 297.5,-132 275.82,-132 269.55,-122.57 278.7,-113.76"/>
<polygon fill="midnightblue" stroke="midnightblue" points="323.4,-121.62 316.3,-113.76 316.94,-124.33 323.4,-121.62"/>
</g>
<!-- Node16&#45;&gt;Node16 -->
<g id="edge38" class="edge">
<title>Node16&#45;&gt;Node16</title>
<path fill="none" stroke="midnightblue" d="M320.19,-293.03C318.96,-298.13 311.39,-302 297.5,-302 275.82,-302 269.55,-292.57 278.7,-283.76"/>
<polygon fill="midnightblue" stroke="midnightblue" points="323.4,-291.62 316.3,-283.76 316.94,-294.33 323.4,-291.62"/>
</g>
<!-- Node17 -->
<g id="node17" class="node">
<title>Node17</title>
<g id="a_node17"><a xlink:href="group__grp__conjugate__gradient.html#ga25a3bae2ff2ee0469b045de0d033398b" target="_top" xlink:title="Use preconditioned conjugate gradient method to find minimum of energy functional.">
<polygon fill="white" stroke="black" points="151,-264.5 151,-283.5 199,-283.5 199,-264.5 151,-264.5"/>
<text text-anchor="middle" x="175" y="-271.5" font-family="Helvetica,sans-Serif" font-size="10.00">pc00aa</text>
</a>
</g>
</g>
<!-- Node16&#45;&gt;Node17 -->
<g id="edge36" class="edge">
<title>Node16&#45;&gt;Node17</title>
<path fill="none" stroke="midnightblue" d="M263.16,-274C242.81,-274 217.31,-274 199.16,-274"/>
<polygon fill="midnightblue" stroke="midnightblue" points="263.27,-277.5 273.27,-274 263.27,-270.5 263.27,-277.5"/>
</g>
<!-- Node17&#45;&gt;Node17 -->
<g id="edge37" class="edge">
<title>Node17&#45;&gt;Node17</title>
<path fill="none" stroke="midnightblue" d="M196.48,-293.4C195.05,-298.31 187.89,-302 175,-302 154.38,-302 148.42,-292.57 157.12,-283.76"/>
<polygon fill="midnightblue" stroke="midnightblue" points="199.66,-291.9 192.88,-283.76 193.1,-294.35 199.66,-291.9"/>
</g>
<!-- Node18&#45;&gt;Node7 -->
<g id="edge41" class="edge">
<title>Node18&#45;&gt;Node7</title>
<path fill="none" stroke="midnightblue" d="M385.72,-12.62C343.69,-15.52 285.11,-21.55 235,-34 221.88,-37.26 207.74,-42.7 196.6,-47.47"/>
<polygon fill="midnightblue" stroke="midnightblue" points="386.01,-16.11 395.76,-11.97 385.56,-9.13 386.01,-16.11"/>
</g>
<!-- Node19&#45;&gt;Node1 -->
<g id="edge45" class="edge">
<title>Node19&#45;&gt;Node1</title>
<path fill="none" stroke="midnightblue" d="M601.29,-334.65C612.84,-331.7 624.7,-328.09 633.82,-324.61"/>
<polygon fill="midnightblue" stroke="midnightblue" points="600.2,-331.31 591.29,-337.05 601.83,-338.12 600.2,-331.31"/>
</g>
<!-- Node19&#45;&gt;Node3 -->
<g id="edge44" class="edge">
<title>Node19&#45;&gt;Node3</title>
<path fill="none" stroke="midnightblue" d="M515.42,-337.54C457.25,-335.52 354.93,-331.96 315.06,-330.58"/>
<polygon fill="midnightblue" stroke="midnightblue" points="515.63,-341.05 525.74,-337.9 515.87,-334.05 515.63,-341.05"/>
</g>
</g>
</svg>
