<?xml version="1.0" encoding="UTF-8" standalone="no"?>
<!DOCTYPE svg PUBLIC "-//W3C//DTD SVG 1.1//EN"
 "http://www.w3.org/Graphics/SVG/1.1/DTD/svg11.dtd">
<!-- Generated by graphviz version 2.44.1 (0)
 -->
<!-- Title: fcn1 Pages: 1 -->
<svg width="330pt" height="113pt"
 viewBox="0.00 0.00 330.00 113.00" xmlns="http://www.w3.org/2000/svg" xmlns:xlink="http://www.w3.org/1999/xlink">
<g id="graph0" class="graph" transform="scale(1 1) rotate(0) translate(4 109)">
<title>fcn1</title>
<polygon fill="white" stroke="transparent" points="-4,4 -4,-109 326,-109 326,4 -4,4"/>
<!-- Node1 -->
<g id="node1" class="node">
<title>Node1</title>
<g id="a_node1"><a xlink:title="fcn1">
<polygon fill="#bfbfbf" stroke="black" points="284,-38.5 284,-57.5 322,-57.5 322,-38.5 284,-38.5"/>
<text text-anchor="middle" x="303" y="-45.5" font-family="Helvetica,sans-Serif" font-size="10.00">fcn1</text>
</a>
</g>
</g>
<!-- Node2 -->
<g id="node2" class="node">
<title>Node2</title>
<g id="a_node2"><a xlink:href="group__grp__force__driver.xhtml#gaec14f81fbdbedafbc4189489ec8ae178" target="_top" xlink:title="Employs Newton method to find , where &#160;and &#160;is defined in dforce() .">
<polygon fill="white" stroke="black" points="195,-38.5 195,-57.5 248,-57.5 248,-38.5 195,-38.5"/>
<text text-anchor="middle" x="221.5" y="-45.5" font-family="Helvetica,sans-Serif" font-size="10.00">newton</text>
</a>
</g>
</g>
<!-- Node1&#45;&gt;Node2 -->
<g id="edge1" class="edge">
<title>Node1&#45;&gt;Node2</title>
<path fill="none" stroke="midnightblue" d="M273.83,-41.51C265.42,-41.12 256.24,-41.17 248,-41.65"/>
<polygon fill="midnightblue" stroke="midnightblue" points="273.74,-45.01 283.96,-42.24 274.24,-38.03 273.74,-45.01"/>
</g>
<!-- Node2&#45;&gt;Node1 -->
<g id="edge2" class="edge">
<title>Node2&#45;&gt;Node1</title>
<path fill="none" stroke="midnightblue" d="M258.23,-54.72C267.14,-54.86 276.32,-54.54 283.96,-53.76"/>
<polygon fill="midnightblue" stroke="midnightblue" points="258.12,-51.21 248,-54.35 257.87,-58.21 258.12,-51.21"/>
</g>
<!-- Node3 -->
<g id="node3" class="node">
<title>Node3</title>
<g id="a_node3"><a xlink:href="group__grp__force__driver.xhtml#ga8ccd6c7d901872702521d0a0edf95412" target="_top" xlink:title="fcn2">
<polygon fill="white" stroke="black" points="6,-85.5 6,-104.5 44,-104.5 44,-85.5 6,-85.5"/>
<text text-anchor="middle" x="25" y="-92.5" font-family="Helvetica,sans-Serif" font-size="10.00">fcn2</text>
</a>
</g>
</g>
<!-- Node2&#45;&gt;Node3 -->
<g id="edge3" class="edge">
<title>Node2&#45;&gt;Node3</title>
<path fill="none" stroke="midnightblue" d="M185.23,-50.77C176.69,-53.12 167.55,-55.78 159,-58 118.34,-68.54 69.92,-77.96 44.19,-85.75"/>
<polygon fill="midnightblue" stroke="midnightblue" points="186.15,-54.15 194.92,-48.2 184.35,-47.38 186.15,-54.15"/>
</g>
<!-- Node4 -->
<g id="node4" class="node">
<title>Node4</title>
<g id="a_node4"><a xlink:href="group__grp__force__driver.xhtml#ga382822b303cbf8c56d6f54dcb379caf2" target="_top" xlink:title="read or write force&#45;derivative matrix">
<polygon fill="white" stroke="black" points="86,-38.5 86,-57.5 159,-57.5 159,-38.5 86,-38.5"/>
<text text-anchor="middle" x="122.5" y="-45.5" font-family="Helvetica,sans-Serif" font-size="10.00">writereadgf</text>
</a>
</g>
</g>
<!-- Node2&#45;&gt;Node4 -->
<g id="edge5" class="edge">
<title>Node2&#45;&gt;Node4</title>
<path fill="none" stroke="midnightblue" d="M184.62,-41.46C176.33,-41.18 167.51,-41.18 159.22,-41.46"/>
<polygon fill="midnightblue" stroke="midnightblue" points="184.6,-44.96 194.76,-41.96 184.95,-37.97 184.6,-44.96"/>
</g>
<!-- Node5 -->
<g id="node5" class="node">
<title>Node5</title>
<g id="a_node5"><a xlink:href="xspech_8f90.xhtml#aea782eae089760a491c2c54f9903abcc" target="_top" xlink:title="Main program of SPEC.">
<polygon fill="white" stroke="black" points="97,-0.5 97,-19.5 148,-19.5 148,-0.5 97,-0.5"/>
<text text-anchor="middle" x="122.5" y="-7.5" font-family="Helvetica,sans-Serif" font-size="10.00">xspech</text>
</a>
</g>
</g>
<!-- Node2&#45;&gt;Node5 -->
<g id="edge8" class="edge">
<title>Node2&#45;&gt;Node5</title>
<path fill="none" stroke="midnightblue" d="M186.64,-34.74C173.91,-29.75 159.69,-24.18 147.97,-19.59"/>
<polygon fill="midnightblue" stroke="midnightblue" points="185.44,-38.02 196.02,-38.41 187.99,-31.5 185.44,-38.02"/>
</g>
<!-- Node3&#45;&gt;Node2 -->
<g id="edge4" class="edge">
<title>Node3&#45;&gt;Node2</title>
<path fill="none" stroke="midnightblue" d="M54.48,-96.74C81.54,-93.66 123.26,-85.26 159,-76 177.61,-71.18 198.97,-64.26 210.99,-57.51"/>
<polygon fill="midnightblue" stroke="midnightblue" points="53.83,-93.28 44.19,-97.69 54.47,-100.25 53.83,-93.28"/>
</g>
<!-- Node4&#45;&gt;Node2 -->
<g id="edge7" class="edge">
<title>Node4&#45;&gt;Node2</title>
<path fill="none" stroke="midnightblue" d="M169.35,-54.74C178.09,-54.8 186.93,-54.57 194.76,-54.04"/>
<polygon fill="midnightblue" stroke="midnightblue" points="169.29,-51.24 159.22,-54.54 169.15,-58.24 169.29,-51.24"/>
</g>
<!-- Node4&#45;&gt;Node3 -->
<g id="edge6" class="edge">
<title>Node4&#45;&gt;Node3</title>
<path fill="none" stroke="midnightblue" d="M92.81,-62.12C76.96,-69.92 57.75,-79.37 44,-86.14"/>
<polygon fill="midnightblue" stroke="midnightblue" points="94.75,-65.07 102.17,-57.51 91.66,-58.79 94.75,-65.07"/>
</g>
<!-- Node6 -->
<g id="node6" class="node">
<title>Node6</title>
<g id="a_node6"><a xlink:href="xspech_8f90.xhtml#a537af4990058c0b0f2cd8b3669af204f" target="_top" xlink:title="todo remark">
<polygon fill="white" stroke="black" points="0,-0.5 0,-19.5 50,-19.5 50,-0.5 0,-0.5"/>
<text text-anchor="middle" x="25" y="-7.5" font-family="Helvetica,sans-Serif" font-size="10.00">ending</text>
</a>
</g>
</g>
<!-- Node5&#45;&gt;Node6 -->
<g id="edge9" class="edge">
<title>Node5&#45;&gt;Node6</title>
<path fill="none" stroke="midnightblue" d="M86.66,-3.47C74.55,-3.04 61.24,-3.23 50.18,-4.04"/>
<polygon fill="midnightblue" stroke="midnightblue" points="86.74,-6.98 96.91,-4.01 87.1,0.01 86.74,-6.98"/>
</g>
<!-- Node6&#45;&gt;Node5 -->
<g id="edge10" class="edge">
<title>Node6&#45;&gt;Node5</title>
<path fill="none" stroke="midnightblue" d="M60.39,-16.51C72.47,-16.96 85.79,-16.78 96.91,-15.99"/>
<polygon fill="midnightblue" stroke="midnightblue" points="60.35,-13 50.18,-15.96 59.98,-19.99 60.35,-13"/>
</g>
</g>
</svg>
