<?xml version="1.0" encoding="UTF-8" standalone="no"?>
<!DOCTYPE svg PUBLIC "-//W3C//DTD SVG 1.1//EN"
 "http://www.w3.org/Graphics/SVG/1.1/DTD/svg11.dtd">
<!-- Generated by graphviz version 3.0.0 (20220413.0106)
 -->
<!-- Title: volume Pages: 1 -->
<svg width="138pt" height="46pt"
 viewBox="0.00 0.00 138.00 46.00" xmlns="http://www.w3.org/2000/svg" xmlns:xlink="http://www.w3.org/1999/xlink">
<g id="graph0" class="graph" transform="scale(1 1) rotate(0) translate(4 42)">
<title>volume</title>
<polygon fill="white" stroke="transparent" points="-4,4 -4,-42 134,-42 134,4 -4,4"/>
<!-- Node1 -->
<g id="node1" class="node">
<title>Node1</title>
<g id="a_node1"><a xlink:title="Computes volume of each region; and, if required, the derivatives of the volume with respect to the i...">
<polygon fill="#bfbfbf" stroke="black" points="0,-0.5 0,-19.5 48,-19.5 48,-0.5 0,-0.5"/>
<text text-anchor="middle" x="24" y="-7.5" font-family="Helvetica,sans-Serif" font-size="10.00">volume</text>
</a>
</g>
</g>
<!-- Node1&#45;&gt;Node1 -->
<g id="edge4" class="edge">
<title>Node1&#45;&gt;Node1</title>
<path fill="none" stroke="midnightblue" d="M11.36,-19.76C5.21,-28.57 9.43,-38 24,-38 32.88,-38 37.91,-34.5 39.1,-29.77"/>
<polygon fill="midnightblue" stroke="midnightblue" points="42.43,-28.63 36.64,-19.76 35.63,-30.3 42.43,-28.63"/>
</g>
<!-- Node2 -->
<g id="node2" class="node">
<title>Node2</title>
<g id="a_node2"><a xlink:href="group__grp__geometry.html#gaaca20aa60eaf39055f3c9d5c02a24ac2" target="_top" xlink:title="Calculates coordinates, , and metrics, using FFTs.">
<polygon fill="white" stroke="black" points="84,-0.5 84,-19.5 130,-19.5 130,-0.5 84,-0.5"/>
<text text-anchor="middle" x="107" y="-7.5" font-family="Helvetica,sans-Serif" font-size="10.00">coords</text>
</a>
</g>
</g>
<!-- Node1&#45;&gt;Node2 -->
<g id="edge1" class="edge">
<title>Node1&#45;&gt;Node2</title>
<path fill="none" stroke="midnightblue" d="M48.43,-3.81C56.25,-3.27 65.11,-3.12 73.49,-3.37"/>
<polygon fill="midnightblue" stroke="midnightblue" points="73.57,-6.88 83.74,-3.9 73.93,0.11 73.57,-6.88"/>
</g>
<!-- Node2&#45;&gt;Node1 -->
<g id="edge3" class="edge">
<title>Node2&#45;&gt;Node1</title>
<path fill="none" stroke="midnightblue" d="M83.74,-16.1C75.94,-16.7 67,-16.88 58.49,-16.66"/>
<polygon fill="midnightblue" stroke="midnightblue" points="58.58,-13.16 48.43,-16.19 58.25,-20.15 58.58,-13.16"/>
</g>
<!-- Node2&#45;&gt;Node2 -->
<g id="edge2" class="edge">
<title>Node2&#45;&gt;Node2</title>
<path fill="none" stroke="midnightblue" d="M94.36,-19.76C88.21,-28.57 92.43,-38 107,-38 115.88,-38 120.91,-34.5 122.1,-29.77"/>
<polygon fill="midnightblue" stroke="midnightblue" points="125.43,-28.63 119.64,-19.76 118.63,-30.3 125.43,-28.63"/>
</g>
</g>
</svg>
