<?xml version="1.0" encoding="UTF-8" standalone="no"?>
<!DOCTYPE svg PUBLIC "-//W3C//DTD SVG 1.1//EN"
 "http://www.w3.org/Graphics/SVG/1.1/DTD/svg11.dtd">
<!-- Generated by graphviz version 2.49.0 (0)
 -->
<!-- Title: ma02aa Pages: 1 -->
<svg width="726pt" height="327pt"
 viewBox="0.00 0.00 726.00 327.00" xmlns="http://www.w3.org/2000/svg" xmlns:xlink="http://www.w3.org/1999/xlink">
<g id="graph0" class="graph" transform="scale(1 1) rotate(0) translate(4 323)">
<title>ma02aa</title>
<polygon fill="white" stroke="transparent" points="-4,4 -4,-323 722,-323 722,4 -4,4"/>
<!-- Node1 -->
<g id="node1" class="node">
<title>Node1</title>
<g id="a_node1"><a xlink:title="Constructs Beltrami field in given volume consistent with flux, helicity, rotational&#45;transform and/or...">
<polygon fill="#bfbfbf" stroke="black" points="0,-114.5 0,-133.5 51,-133.5 51,-114.5 0,-114.5"/>
<text text-anchor="middle" x="25.5" y="-121.5" font-family="Helvetica,sans-Serif" font-size="10.00">ma02aa</text>
</a>
</g>
</g>
<!-- Node1&#45;&gt;Node1 -->
<g id="edge3" class="edge">
<title>Node1&#45;&gt;Node1</title>
<path fill="none" stroke="midnightblue" d="M12.24,-133.76C5.8,-142.57 10.21,-152 25.5,-152 35.05,-152 40.36,-148.31 41.43,-143.4"/>
<polygon fill="midnightblue" stroke="midnightblue" points="44.8,-142.46 38.76,-133.76 38.05,-144.33 44.8,-142.46"/>
</g>
<!-- Node2 -->
<g id="node2" class="node">
<title>Node2</title>
<g id="a_node2"><a xlink:href="group__grp__integrals.html#ga6d086e8d1af527def50b653b86e8373a" target="_top" xlink:title="Evaluates volume integrals, and their derivatives w.r.t. interface geometry, using &quot;packed&quot; format.">
<polygon fill="white" stroke="black" points="89.5,-170.5 89.5,-189.5 135.5,-189.5 135.5,-170.5 89.5,-170.5"/>
<text text-anchor="middle" x="112.5" y="-177.5" font-family="Helvetica,sans-Serif" font-size="10.00">df00ab</text>
</a>
</g>
</g>
<!-- Node1&#45;&gt;Node2 -->
<g id="edge1" class="edge">
<title>Node1&#45;&gt;Node2</title>
<path fill="none" stroke="midnightblue" d="M41.31,-133.75C54.23,-142.27 73.19,-154.76 88.16,-164.62"/>
<polygon fill="midnightblue" stroke="midnightblue" points="86.59,-167.78 96.86,-170.36 90.44,-161.93 86.59,-167.78"/>
</g>
<!-- Node3 -->
<g id="node3" class="node">
<title>Node3</title>
<g id="a_node3"><a xlink:href="group__grp__solver.html#ga6626839aff500f060beb5bce2b90c447" target="_top" xlink:title="Solves Beltrami/vacuum (linear) system, given matrices.unpacking fluxes, helicity multiplier">
<polygon fill="white" stroke="black" points="87,-114.5 87,-133.5 138,-133.5 138,-114.5 87,-114.5"/>
<text text-anchor="middle" x="112.5" y="-121.5" font-family="Helvetica,sans-Serif" font-size="10.00">mp00ac</text>
</a>
</g>
</g>
<!-- Node1&#45;&gt;Node3 -->
<g id="edge4" class="edge">
<title>Node1&#45;&gt;Node3</title>
<path fill="none" stroke="midnightblue" d="M51.09,-124C59.1,-124 68.16,-124 76.78,-124"/>
<polygon fill="midnightblue" stroke="midnightblue" points="76.97,-127.5 86.97,-124 76.97,-120.5 76.97,-127.5"/>
</g>
<!-- Node14 -->
<g id="node14" class="node">
<title>Node14</title>
<g id="a_node14"><a xlink:href="group__grp__packing.html#gaee2357e570aebf8559e169def6b619dd" target="_top" xlink:title="Packs and unpacks Beltrami field solution vector.">
<polygon fill="white" stroke="black" points="367,-0.5 367,-19.5 415,-19.5 415,-0.5 367,-0.5"/>
<text text-anchor="middle" x="391" y="-7.5" font-family="Helvetica,sans-Serif" font-size="10.00">packab</text>
</a>
</g>
</g>
<!-- Node1&#45;&gt;Node14 -->
<g id="edge37" class="edge">
<title>Node1&#45;&gt;Node14</title>
<path fill="none" stroke="midnightblue" d="M40.05,-114.23C65.25,-96.46 121.54,-58.73 174,-37 213.44,-20.66 224.72,-18.89 267,-13 297.17,-8.79 331.9,-8.34 356.75,-8.77"/>
<polygon fill="midnightblue" stroke="midnightblue" points="356.67,-12.27 366.75,-9 356.83,-5.27 356.67,-12.27"/>
</g>
<!-- Node2&#45;&gt;Node2 -->
<g id="edge2" class="edge">
<title>Node2&#45;&gt;Node2</title>
<path fill="none" stroke="midnightblue" d="M99.24,-189.76C92.8,-198.57 97.21,-208 112.5,-208 122.05,-208 127.36,-204.31 128.43,-199.4"/>
<polygon fill="midnightblue" stroke="midnightblue" points="131.8,-198.46 125.76,-189.76 125.05,-200.33 131.8,-198.46"/>
</g>
<!-- Node3&#45;&gt;Node3 -->
<g id="edge23" class="edge">
<title>Node3&#45;&gt;Node3</title>
<path fill="none" stroke="midnightblue" d="M99.24,-133.76C92.8,-142.57 97.21,-152 112.5,-152 122.05,-152 127.36,-148.31 128.43,-143.4"/>
<polygon fill="midnightblue" stroke="midnightblue" points="131.8,-142.46 125.76,-133.76 125.05,-144.33 131.8,-142.46"/>
</g>
<!-- Node4 -->
<g id="node4" class="node">
<title>Node4</title>
<g id="a_node4"><a xlink:href="group__grp__currents.html#gacaf4411e0ba378631dcd2ccb3752e452" target="_top" xlink:title="Computes the plasma current, , and the &quot;linking&quot; current, .">
<polygon fill="white" stroke="black" points="369,-196.5 369,-215.5 413,-215.5 413,-196.5 369,-196.5"/>
<text text-anchor="middle" x="391" y="-203.5" font-family="Helvetica,sans-Serif" font-size="10.00">curent</text>
</a>
</g>
</g>
<!-- Node3&#45;&gt;Node4 -->
<g id="edge5" class="edge">
<title>Node3&#45;&gt;Node4</title>
<path fill="none" stroke="midnightblue" d="M130.26,-133.59C142.16,-140.07 158.68,-148.44 174,-154 238.01,-177.24 316.45,-193.16 358.99,-200.8"/>
<polygon fill="midnightblue" stroke="midnightblue" points="358.54,-204.27 369,-202.56 359.76,-197.38 358.54,-204.27"/>
</g>
<!-- Node9 -->
<g id="node9" class="node">
<title>Node9</title>
<g id="a_node9"><a xlink:href="intghs_8f90.html#a21d3b7106371783302e68297f7797e9f" target="_top" xlink:title="Calculates volume integrals of Chebyshev polynomials and covariant field products.">
<polygon fill="white" stroke="black" points="369.5,-129.5 369.5,-148.5 412.5,-148.5 412.5,-129.5 369.5,-129.5"/>
<text text-anchor="middle" x="391" y="-136.5" font-family="Helvetica,sans-Serif" font-size="10.00">intghs</text>
</a>
</g>
</g>
<!-- Node3&#45;&gt;Node9 -->
<g id="edge15" class="edge">
<title>Node3&#45;&gt;Node9</title>
<path fill="none" stroke="midnightblue" d="M138.01,-130.98C148.93,-133.75 162.01,-136.6 174,-138 239.62,-145.65 317.21,-143.24 359.23,-141"/>
<polygon fill="midnightblue" stroke="midnightblue" points="359.57,-144.49 369.36,-140.42 359.18,-137.5 359.57,-144.49"/>
</g>
<!-- Node13 -->
<g id="node13" class="node">
<title>Node13</title>
<g id="a_node13"><a xlink:href="group__grp__build__matrices.html#ga6c22bb4322fbcc29cb17dcc90b56eacd" target="_top" xlink:title="Constructs matrices that represent the Beltrami linear system, matrix&#45;free.">
<polygon fill="white" stroke="black" points="368,-73.5 368,-92.5 414,-92.5 414,-73.5 368,-73.5"/>
<text text-anchor="middle" x="391" y="-80.5" font-family="Helvetica,sans-Serif" font-size="10.00">mtrxhs</text>
</a>
</g>
</g>
<!-- Node3&#45;&gt;Node13 -->
<g id="edge24" class="edge">
<title>Node3&#45;&gt;Node13</title>
<path fill="none" stroke="midnightblue" d="M138.3,-123.99C179.02,-123.5 262.41,-120.48 331,-105 340.3,-102.9 350.11,-99.68 359,-96.34"/>
<polygon fill="midnightblue" stroke="midnightblue" points="360.54,-99.5 368.57,-92.58 357.99,-92.98 360.54,-99.5"/>
</g>
<!-- Node3&#45;&gt;Node14 -->
<g id="edge26" class="edge">
<title>Node3&#45;&gt;Node14</title>
<path fill="none" stroke="midnightblue" d="M121.65,-114.38C132.52,-102.04 152.88,-80.59 174,-67 231.37,-30.09 311.88,-16.99 356.64,-12.41"/>
<polygon fill="midnightblue" stroke="midnightblue" points="357.06,-15.88 366.69,-11.46 356.4,-8.91 357.06,-15.88"/>
</g>
<!-- Node15 -->
<g id="node15" class="node">
<title>Node15</title>
<g id="a_node15"><a xlink:href="mp00ac_8f90.html#a304edac43f63d39dda4419b4d044eac5" target="_top" xlink:title="run GMRES">
<polygon fill="white" stroke="black" points="174,-76.5 174,-95.5 231,-95.5 231,-76.5 174,-76.5"/>
<text text-anchor="middle" x="202.5" y="-83.5" font-family="Helvetica,sans-Serif" font-size="10.00">rungmres</text>
</a>
</g>
</g>
<!-- Node3&#45;&gt;Node15 -->
<g id="edge28" class="edge">
<title>Node3&#45;&gt;Node15</title>
<path fill="none" stroke="midnightblue" d="M135.71,-114.41C146.13,-109.91 158.73,-104.47 170.11,-99.56"/>
<polygon fill="midnightblue" stroke="midnightblue" points="171.51,-102.76 179.3,-95.59 168.73,-96.34 171.51,-102.76"/>
</g>
<!-- Node18 -->
<g id="node18" class="node">
<title>Node18</title>
<g id="a_node18"><a xlink:href="group__grp__transform.html#ga0e0447653b8da82f06748dd8831bc337" target="_top" xlink:title="Calculates rotational transform given an arbitrary tangential field.">
<polygon fill="white" stroke="black" points="589,-281.5 589,-300.5 633,-300.5 633,-281.5 589,-281.5"/>
<text text-anchor="middle" x="611" y="-288.5" font-family="Helvetica,sans-Serif" font-size="10.00">tr00ab</text>
</a>
</g>
</g>
<!-- Node3&#45;&gt;Node18 -->
<g id="edge34" class="edge">
<title>Node3&#45;&gt;Node18</title>
<path fill="none" stroke="midnightblue" d="M121.38,-133.95C150.23,-169.9 250.91,-291 298,-291 298,-291 298,-291 392,-291 458.5,-291 536.41,-291 578.74,-291"/>
<polygon fill="midnightblue" stroke="midnightblue" points="578.96,-294.5 588.96,-291 578.96,-287.5 578.96,-294.5"/>
</g>
<!-- Node4&#45;&gt;Node4 -->
<g id="edge12" class="edge">
<title>Node4&#45;&gt;Node4</title>
<path fill="none" stroke="midnightblue" d="M376.82,-215.76C369.92,-224.57 374.65,-234 391,-234 401.22,-234 406.9,-230.31 408.04,-225.4"/>
<polygon fill="midnightblue" stroke="midnightblue" points="411.38,-224.35 405.18,-215.76 404.66,-226.34 411.38,-224.35"/>
</g>
<!-- Node5 -->
<g id="node5" class="node">
<title>Node5</title>
<g id="a_node5"><a xlink:href="group__grp__geometry.html#gaaca20aa60eaf39055f3c9d5c02a24ac2" target="_top" xlink:title="Calculates coordinates, , and metrics, using FFTs.">
<polygon fill="white" stroke="black" points="588,-82.5 588,-101.5 634,-101.5 634,-82.5 588,-82.5"/>
<text text-anchor="middle" x="611" y="-89.5" font-family="Helvetica,sans-Serif" font-size="10.00">coords</text>
</a>
</g>
</g>
<!-- Node4&#45;&gt;Node5 -->
<g id="edge6" class="edge">
<title>Node4&#45;&gt;Node5</title>
<path fill="none" stroke="midnightblue" d="M413.1,-210.65C445.66,-216.59 508.91,-223.15 552,-196 582.34,-176.89 598.19,-135.94 605.26,-111.51"/>
<polygon fill="midnightblue" stroke="midnightblue" points="608.71,-112.15 607.91,-101.59 601.95,-110.35 608.71,-112.15"/>
</g>
<!-- Node6 -->
<g id="node6" class="node">
<title>Node6</title>
<g id="a_node6"><a xlink:href="group__grp__numerics.html#ga1fd52accb0646f535f9bcc46cf5a68f3" target="_top" xlink:title="Inverse Fourier transform (fftw wrapper)">
<polygon fill="white" stroke="black" points="675,-195.5 675,-214.5 713,-214.5 713,-195.5 675,-195.5"/>
<text text-anchor="middle" x="694" y="-202.5" font-family="Helvetica,sans-Serif" font-size="10.00">invfft</text>
</a>
</g>
</g>
<!-- Node4&#45;&gt;Node6 -->
<g id="edge13" class="edge">
<title>Node4&#45;&gt;Node6</title>
<path fill="none" stroke="midnightblue" d="M413.12,-211.82C424.28,-214.6 438.28,-217.62 451,-219 528.08,-227.39 619.55,-216.45 664.78,-209.66"/>
<polygon fill="midnightblue" stroke="midnightblue" points="665.39,-213.11 674.73,-208.12 664.32,-206.19 665.39,-213.11"/>
</g>
<!-- Node8 -->
<g id="node8" class="node">
<title>Node8</title>
<g id="a_node8"><a xlink:href="group__grp__numerics.html#ga041138109a57e651c57117bb4180409e" target="_top" xlink:title="Forward Fourier transform (fftw wrapper)">
<polygon fill="white" stroke="black" points="487,-167.5 487,-186.5 516,-186.5 516,-167.5 487,-167.5"/>
<text text-anchor="middle" x="501.5" y="-174.5" font-family="Helvetica,sans-Serif" font-size="10.00">tfft</text>
</a>
</g>
</g>
<!-- Node4&#45;&gt;Node8 -->
<g id="edge14" class="edge">
<title>Node4&#45;&gt;Node8</title>
<path fill="none" stroke="midnightblue" d="M413.18,-200.34C431.6,-195.42 458.24,-188.29 477.25,-183.21"/>
<polygon fill="midnightblue" stroke="midnightblue" points="478.17,-186.59 486.92,-180.63 476.36,-179.83 478.17,-186.59"/>
</g>
<!-- Node5&#45;&gt;Node5 -->
<g id="edge7" class="edge">
<title>Node5&#45;&gt;Node5</title>
<path fill="none" stroke="midnightblue" d="M598.36,-101.76C592.21,-110.57 596.43,-120 611,-120 619.88,-120 624.91,-116.5 626.1,-111.77"/>
<polygon fill="midnightblue" stroke="midnightblue" points="629.43,-110.63 623.64,-101.76 622.63,-112.3 629.43,-110.63"/>
</g>
<!-- Node5&#45;&gt;Node6 -->
<g id="edge8" class="edge">
<title>Node5&#45;&gt;Node6</title>
<path fill="none" stroke="midnightblue" d="M618.91,-101.63C632.48,-120.56 662.8,-162.87 680.16,-187.08"/>
<polygon fill="midnightblue" stroke="midnightblue" points="677.44,-189.3 686.11,-195.39 683.13,-185.22 677.44,-189.3"/>
</g>
<!-- Node7 -->
<g id="node7" class="node">
<title>Node7</title>
<g id="a_node7"><a xlink:href="group__grp__volume.html#gae4c62d20b8fef07f4471b5b0889ab005" target="_top" xlink:title="Computes volume of each region; and, if required, the derivatives of the volume with respect to the i...">
<polygon fill="white" stroke="black" points="670,-82.5 670,-101.5 718,-101.5 718,-82.5 670,-82.5"/>
<text text-anchor="middle" x="694" y="-89.5" font-family="Helvetica,sans-Serif" font-size="10.00">volume</text>
</a>
</g>
</g>
<!-- Node5&#45;&gt;Node7 -->
<g id="edge9" class="edge">
<title>Node5&#45;&gt;Node7</title>
<path fill="none" stroke="midnightblue" d="M634.13,-85.91C641.99,-85.3 651.02,-85.12 659.61,-85.34"/>
<polygon fill="midnightblue" stroke="midnightblue" points="659.61,-88.85 669.76,-85.83 659.94,-81.85 659.61,-88.85"/>
</g>
<!-- Node7&#45;&gt;Node5 -->
<g id="edge10" class="edge">
<title>Node7&#45;&gt;Node5</title>
<path fill="none" stroke="midnightblue" d="M669.76,-98.17C661.8,-98.74 652.74,-98.89 644.19,-98.62"/>
<polygon fill="midnightblue" stroke="midnightblue" points="644.3,-95.12 634.13,-98.09 643.94,-102.11 644.3,-95.12"/>
</g>
<!-- Node7&#45;&gt;Node7 -->
<g id="edge11" class="edge">
<title>Node7&#45;&gt;Node7</title>
<path fill="none" stroke="midnightblue" d="M681.36,-101.76C675.21,-110.57 679.43,-120 694,-120 702.88,-120 707.91,-116.5 709.1,-111.77"/>
<polygon fill="midnightblue" stroke="midnightblue" points="712.43,-110.63 706.64,-101.76 705.63,-112.3 712.43,-110.63"/>
</g>
<!-- Node9&#45;&gt;Node6 -->
<g id="edge21" class="edge">
<title>Node9&#45;&gt;Node6</title>
<path fill="none" stroke="midnightblue" d="M412.68,-140.11C443.39,-142.06 502.73,-146.98 552,-158 592.14,-166.98 636.97,-183 665.08,-193.81"/>
<polygon fill="midnightblue" stroke="midnightblue" points="664.05,-197.17 674.64,-197.54 666.59,-190.65 664.05,-197.17"/>
</g>
<!-- Node9&#45;&gt;Node8 -->
<g id="edge22" class="edge">
<title>Node9&#45;&gt;Node8</title>
<path fill="none" stroke="midnightblue" d="M412.66,-146.24C431.11,-152.7 458.11,-162.15 477.29,-168.87"/>
<polygon fill="midnightblue" stroke="midnightblue" points="476.19,-172.19 486.79,-172.2 478.51,-165.59 476.19,-172.19"/>
</g>
<!-- Node9&#45;&gt;Node9 -->
<g id="edge20" class="edge">
<title>Node9&#45;&gt;Node9</title>
<path fill="none" stroke="midnightblue" d="M376.82,-148.76C369.92,-157.57 374.65,-167 391,-167 401.22,-167 406.9,-163.31 408.04,-158.4"/>
<polygon fill="midnightblue" stroke="midnightblue" points="411.38,-157.35 405.18,-148.76 404.66,-159.34 411.38,-157.35"/>
</g>
<!-- Node10 -->
<g id="node10" class="node">
<title>Node10</title>
<g id="a_node10"><a xlink:href="metrix_8f90.html#a80c802cda076dd9e7031bc5f9098c175" target="_top" xlink:title="compute guvijsave">
<polygon fill="white" stroke="black" points="451,-91.5 451,-110.5 552,-110.5 552,-91.5 451,-91.5"/>
<text text-anchor="middle" x="501.5" y="-98.5" font-family="Helvetica,sans-Serif" font-size="10.00">compute_guvijsave</text>
</a>
</g>
</g>
<!-- Node9&#45;&gt;Node10 -->
<g id="edge16" class="edge">
<title>Node9&#45;&gt;Node10</title>
<path fill="none" stroke="midnightblue" d="M412.66,-131.76C427.05,-126.72 446.64,-119.86 463.67,-113.9"/>
<polygon fill="midnightblue" stroke="midnightblue" points="465.06,-117.12 473.34,-110.51 462.75,-110.51 465.06,-117.12"/>
</g>
<!-- Node11 -->
<g id="node11" class="node">
<title>Node11</title>
<g id="a_node11"><a xlink:href="basefn_8f90.html#af6a4cad04c70bfb14fd18a3bfbc843a3" target="_top" xlink:title="Get the Chebyshev polynomials with zeroth, first derivatives.">
<polygon fill="white" stroke="black" points="471,-53.5 471,-72.5 532,-72.5 532,-53.5 471,-53.5"/>
<text text-anchor="middle" x="501.5" y="-60.5" font-family="Helvetica,sans-Serif" font-size="10.00">get_cheby</text>
</a>
</g>
</g>
<!-- Node9&#45;&gt;Node11 -->
<g id="edge18" class="edge">
<title>Node9&#45;&gt;Node11</title>
<path fill="none" stroke="midnightblue" d="M404.41,-129.21C407.91,-126.33 411.67,-123.11 415,-120 432,-104.12 431.66,-94.93 451,-82 454.31,-79.79 457.91,-77.78 461.61,-75.98"/>
<polygon fill="midnightblue" stroke="midnightblue" points="463.15,-79.12 470.9,-71.89 460.34,-72.71 463.15,-79.12"/>
</g>
<!-- Node12 -->
<g id="node12" class="node">
<title>Node12</title>
<g id="a_node12"><a xlink:href="basefn_8f90.html#a38dc596fb909186b01dacc1feac03164" target="_top" xlink:title="Get the Zernike polynomials &#160;with zeroth, first derivatives.">
<polygon fill="white" stroke="black" points="468.5,-15.5 468.5,-34.5 534.5,-34.5 534.5,-15.5 468.5,-15.5"/>
<text text-anchor="middle" x="501.5" y="-22.5" font-family="Helvetica,sans-Serif" font-size="10.00">get_zernike</text>
</a>
</g>
</g>
<!-- Node9&#45;&gt;Node12 -->
<g id="edge19" class="edge">
<title>Node9&#45;&gt;Node12</title>
<path fill="none" stroke="midnightblue" d="M405.58,-129.44C408.93,-126.66 412.33,-123.43 415,-120 437.96,-90.5 423.59,-69.41 451,-44 453.46,-41.72 456.23,-39.7 459.17,-37.91"/>
<polygon fill="midnightblue" stroke="midnightblue" points="461.01,-40.9 468.33,-33.24 457.84,-34.66 461.01,-40.9"/>
</g>
<!-- Node10&#45;&gt;Node5 -->
<g id="edge17" class="edge">
<title>Node10&#45;&gt;Node5</title>
<path fill="none" stroke="midnightblue" d="M552.16,-96.84C560.88,-96.11 569.75,-95.37 577.83,-94.69"/>
<polygon fill="midnightblue" stroke="midnightblue" points="578.26,-98.17 587.93,-93.85 577.67,-91.19 578.26,-98.17"/>
</g>
<!-- Node13&#45;&gt;Node13 -->
<g id="edge25" class="edge">
<title>Node13&#45;&gt;Node13</title>
<path fill="none" stroke="midnightblue" d="M376.82,-92.76C369.92,-101.57 374.65,-111 391,-111 401.22,-111 406.9,-107.31 408.04,-102.4"/>
<polygon fill="midnightblue" stroke="midnightblue" points="411.38,-101.35 405.18,-92.76 404.66,-103.34 411.38,-101.35"/>
</g>
<!-- Node14&#45;&gt;Node14 -->
<g id="edge27" class="edge">
<title>Node14&#45;&gt;Node14</title>
<path fill="none" stroke="midnightblue" d="M376.82,-19.76C369.92,-28.57 374.65,-38 391,-38 401.22,-38 406.9,-34.31 408.04,-29.4"/>
<polygon fill="midnightblue" stroke="midnightblue" points="411.38,-28.35 405.18,-19.76 404.66,-30.34 411.38,-28.35"/>
</g>
<!-- Node16 -->
<g id="node16" class="node">
<title>Node16</title>
<g id="a_node16"><a xlink:href="mp00ac_8f90.html#ae9fe335bb4916face9f9d19ce8c0f5d7" target="_top" xlink:title="compute a.x by either by coumputing it directly, or using a matrix free method">
<polygon fill="white" stroke="black" points="274.5,-76.5 274.5,-95.5 323.5,-95.5 323.5,-76.5 274.5,-76.5"/>
<text text-anchor="middle" x="299" y="-83.5" font-family="Helvetica,sans-Serif" font-size="10.00">matvec</text>
</a>
</g>
</g>
<!-- Node15&#45;&gt;Node16 -->
<g id="edge29" class="edge">
<title>Node15&#45;&gt;Node16</title>
<path fill="none" stroke="midnightblue" d="M231.09,-86C241.49,-86 253.44,-86 264.34,-86"/>
<polygon fill="midnightblue" stroke="midnightblue" points="264.38,-89.5 274.38,-86 264.38,-82.5 264.38,-89.5"/>
</g>
<!-- Node17 -->
<g id="node17" class="node">
<title>Node17</title>
<g id="a_node17"><a xlink:href="mp00ac_8f90.html#a76cda97bf815eb7f40cb76ad1719d809" target="_top" xlink:title="apply the preconditioner">
<polygon fill="white" stroke="black" points="267,-38.5 267,-57.5 331,-57.5 331,-38.5 267,-38.5"/>
<text text-anchor="middle" x="299" y="-45.5" font-family="Helvetica,sans-Serif" font-size="10.00">prec_solve</text>
</a>
</g>
</g>
<!-- Node15&#45;&gt;Node17 -->
<g id="edge33" class="edge">
<title>Node15&#45;&gt;Node17</title>
<path fill="none" stroke="midnightblue" d="M227.35,-76.41C238.65,-71.87 252.34,-66.36 264.66,-61.41"/>
<polygon fill="midnightblue" stroke="midnightblue" points="266.19,-64.56 274.16,-57.59 263.58,-58.07 266.19,-64.56"/>
</g>
<!-- Node16&#45;&gt;Node9 -->
<g id="edge30" class="edge">
<title>Node16&#45;&gt;Node9</title>
<path fill="none" stroke="midnightblue" d="M316.51,-95.72C329.96,-103.64 349.17,-114.96 364.58,-124.03"/>
<polygon fill="midnightblue" stroke="midnightblue" points="363.2,-127.28 373.6,-129.34 366.76,-121.25 363.2,-127.28"/>
</g>
<!-- Node16&#45;&gt;Node13 -->
<g id="edge31" class="edge">
<title>Node16&#45;&gt;Node13</title>
<path fill="none" stroke="midnightblue" d="M323.65,-85.21C333.99,-84.87 346.29,-84.46 357.47,-84.08"/>
<polygon fill="midnightblue" stroke="midnightblue" points="357.87,-87.57 367.75,-83.74 357.64,-80.58 357.87,-87.57"/>
</g>
<!-- Node16&#45;&gt;Node14 -->
<g id="edge32" class="edge">
<title>Node16&#45;&gt;Node14</title>
<path fill="none" stroke="midnightblue" d="M317.18,-76.39C321.8,-73.56 326.71,-70.32 331,-67 346.74,-54.81 362.87,-38.94 374.29,-27.05"/>
<polygon fill="midnightblue" stroke="midnightblue" points="377.05,-29.21 381.37,-19.54 371.96,-24.41 377.05,-29.21"/>
</g>
<!-- Node18&#45;&gt;Node6 -->
<g id="edge35" class="edge">
<title>Node18&#45;&gt;Node6</title>
<path fill="none" stroke="midnightblue" d="M620.98,-281.47C634.48,-267.13 660.21,-239.81 676.98,-222"/>
<polygon fill="midnightblue" stroke="midnightblue" points="679.67,-224.25 683.98,-214.57 674.58,-219.45 679.67,-224.25"/>
</g>
<!-- Node18&#45;&gt;Node18 -->
<g id="edge36" class="edge">
<title>Node18&#45;&gt;Node18</title>
<path fill="none" stroke="midnightblue" d="M598.36,-300.76C592.21,-309.57 596.43,-319 611,-319 619.88,-319 624.91,-315.5 626.1,-310.77"/>
<polygon fill="midnightblue" stroke="midnightblue" points="629.43,-309.63 623.64,-300.76 622.63,-311.3 629.43,-309.63"/>
</g>
</g>
</svg>
