<?xml version="1.0" encoding="UTF-8" standalone="no"?>
<!DOCTYPE svg PUBLIC "-//W3C//DTD SVG 1.1//EN"
 "http://www.w3.org/Graphics/SVG/1.1/DTD/svg11.dtd">
<!-- Generated by graphviz version 2.47.1 (20210421.1823)
 -->
<!-- Title: curent Pages: 1 -->
<svg width="948pt" height="461pt"
 viewBox="0.00 0.00 948.00 461.03" xmlns="http://www.w3.org/2000/svg" xmlns:xlink="http://www.w3.org/1999/xlink">
<g id="graph0" class="graph" transform="scale(1 1) rotate(0) translate(4 457.03)">
<title>curent</title>
<polygon fill="white" stroke="transparent" points="-4,4 -4,-457.03 944,-457.03 944,4 -4,4"/>
<!-- Node1 -->
<g id="node1" class="node">
<title>Node1</title>
<g id="a_node1"><a xlink:title="Computes the plasma current, , and the &quot;linking&quot; current, .">
<polygon fill="#bfbfbf" stroke="black" points="896,-28.5 896,-47.5 940,-47.5 940,-28.5 896,-28.5"/>
<text text-anchor="middle" x="918" y="-35.5" font-family="Helvetica,sans-Serif" font-size="10.00">curent</text>
</a>
</g>
</g>
<!-- Node2 -->
<g id="node2" class="node">
<title>Node2</title>
<g id="a_node2"><a xlink:href="dfp100_8f90.html#a17a3ac15cc83994394f7b4cc05e5898e" target="_top" xlink:title="Split the work between MPI nodes and evaluate the global constraint.">
<polygon fill="white" stroke="black" points="640,-47.5 640,-66.5 686,-66.5 686,-47.5 640,-47.5"/>
<text text-anchor="middle" x="663" y="-54.5" font-family="Helvetica,sans-Serif" font-size="10.00">dfp100</text>
</a>
</g>
</g>
<!-- Node1&#45;&gt;Node2 -->
<g id="edge1" class="edge">
<title>Node1&#45;&gt;Node2</title>
<path fill="none" stroke="midnightblue" d="M885.61,-40.36C833.76,-44.25 731.5,-51.93 686.34,-55.32"/>
<polygon fill="midnightblue" stroke="midnightblue" points="886.15,-43.83 895.86,-39.59 885.63,-36.85 886.15,-43.83"/>
</g>
<!-- Node13 -->
<g id="node13" class="node">
<title>Node13</title>
<g id="a_node13"><a xlink:href="dfp200_8f90.html#a73ddf39ecc5228201fb643779e17cd36" target="_top" xlink:title="Evaluate mu and psip derivatives and store them in dmupfdx.">
<polygon fill="white" stroke="black" points="174,-28.5 174,-47.5 269,-47.5 269,-28.5 174,-28.5"/>
<text text-anchor="middle" x="221.5" y="-35.5" font-family="Helvetica,sans-Serif" font-size="10.00">evaluate_dmupfdx</text>
</a>
</g>
</g>
<!-- Node1&#45;&gt;Node13 -->
<g id="edge37" class="edge">
<title>Node1&#45;&gt;Node13</title>
<path fill="none" stroke="midnightblue" d="M886.15,-26.72C852.72,-15.52 797.55,0 748.5,0 748.5,0 748.5,0 460.5,0 388.53,0 305.83,-17.15 259.31,-28.41"/>
<polygon fill="midnightblue" stroke="midnightblue" points="885.21,-30.09 895.8,-30.03 887.48,-23.47 885.21,-30.09"/>
</g>
<!-- Node20 -->
<g id="node20" class="node">
<title>Node20</title>
<g id="a_node20"><a xlink:href="group__grp__solver.html#ga6626839aff500f060beb5bce2b90c447" target="_top" xlink:title="Solves Beltrami/vacuum (linear) system, given matrices.unpacking fluxes, helicity multiplier">
<polygon fill="white" stroke="black" points="809,-66.5 809,-85.5 860,-85.5 860,-66.5 809,-66.5"/>
<text text-anchor="middle" x="834.5" y="-73.5" font-family="Helvetica,sans-Serif" font-size="10.00">mp00ac</text>
</a>
</g>
</g>
<!-- Node1&#45;&gt;Node20 -->
<g id="edge38" class="edge">
<title>Node1&#45;&gt;Node20</title>
<path fill="none" stroke="midnightblue" d="M887.29,-51.85C876.92,-56.69 865.52,-62 856.06,-66.41"/>
<polygon fill="midnightblue" stroke="midnightblue" points="888.85,-54.99 896.43,-47.59 885.89,-48.64 888.85,-54.99"/>
</g>
<!-- Node3 -->
<g id="node3" class="node">
<title>Node3</title>
<g id="a_node3"><a xlink:href="group__grp__global__force.html#ga38c9d3c50bd043707fefa5137c9dbf44" target="_top" xlink:title="Calculates , where &#160;and , and .">
<polygon fill="white" stroke="black" points="560,-199.5 560,-218.5 604,-218.5 604,-199.5 560,-199.5"/>
<text text-anchor="middle" x="582" y="-206.5" font-family="Helvetica,sans-Serif" font-size="10.00">dforce</text>
</a>
</g>
</g>
<!-- Node2&#45;&gt;Node3 -->
<g id="edge2" class="edge">
<title>Node2&#45;&gt;Node3</title>
<path fill="none" stroke="midnightblue" d="M652.41,-75.45C635.46,-108.06 600.8,-174.76 587.94,-199.5"/>
<polygon fill="midnightblue" stroke="midnightblue" points="655.55,-77 657.06,-66.51 649.34,-73.77 655.55,-77"/>
</g>
<!-- Node2&#45;&gt;Node13 -->
<g id="edge36" class="edge">
<title>Node2&#45;&gt;Node13</title>
<path fill="none" stroke="midnightblue" d="M629.88,-55.61C553.17,-52.3 359.02,-43.9 269.29,-40.02"/>
<polygon fill="midnightblue" stroke="midnightblue" points="629.76,-59.11 639.9,-56.04 630.06,-52.12 629.76,-59.11"/>
</g>
<!-- Node4 -->
<g id="node4" class="node">
<title>Node4</title>
<g id="a_node4"><a xlink:href="group__grp__force__driver.html#gabbc245b3884ee8d8d3e2a52f25149f78" target="_top" xlink:title="fcn1">
<polygon fill="white" stroke="black" points="444,-341.5 444,-360.5 479,-360.5 479,-341.5 444,-341.5"/>
<text text-anchor="middle" x="461.5" y="-348.5" font-family="Helvetica,sans-Serif" font-size="10.00">fcn1</text>
</a>
</g>
</g>
<!-- Node3&#45;&gt;Node4 -->
<g id="edge3" class="edge">
<title>Node3&#45;&gt;Node4</title>
<path fill="none" stroke="midnightblue" d="M575.76,-228.28C568.13,-253.11 551.75,-296.24 524,-323 511.42,-335.13 492.65,-342.63 479.16,-346.77"/>
<polygon fill="midnightblue" stroke="midnightblue" points="579.15,-229.15 578.58,-218.57 572.43,-227.19 579.15,-229.15"/>
</g>
<!-- Node5 -->
<g id="node5" class="node">
<title>Node5</title>
<g id="a_node5"><a xlink:href="group__grp__force__driver.html#gaec14f81fbdbedafbc4189489ec8ae178" target="_top" xlink:title="Employs Newton method to find , where &#160;and &#160;is defined in dforce() .">
<polygon fill="white" stroke="black" points="315,-341.5 315,-360.5 363,-360.5 363,-341.5 315,-341.5"/>
<text text-anchor="middle" x="339" y="-348.5" font-family="Helvetica,sans-Serif" font-size="10.00">newton</text>
</a>
</g>
</g>
<!-- Node3&#45;&gt;Node5 -->
<g id="edge27" class="edge">
<title>Node3&#45;&gt;Node5</title>
<path fill="none" stroke="midnightblue" d="M570.1,-227.49C559.94,-243.34 543.44,-265.78 524,-280 497.33,-299.5 406.29,-329.95 363.1,-343.76"/>
<polygon fill="midnightblue" stroke="midnightblue" points="573.31,-228.96 575.58,-218.62 567.35,-225.29 573.31,-228.96"/>
</g>
<!-- Node6 -->
<g id="node6" class="node">
<title>Node6</title>
<g id="a_node6"><a xlink:href="group__grp__force__driver.html#ga8ccd6c7d901872702521d0a0edf95412" target="_top" xlink:title="fcn2">
<polygon fill="white" stroke="black" points="87,-364.5 87,-383.5 122,-383.5 122,-364.5 87,-364.5"/>
<text text-anchor="middle" x="104.5" y="-371.5" font-family="Helvetica,sans-Serif" font-size="10.00">fcn2</text>
</a>
</g>
</g>
<!-- Node3&#45;&gt;Node6 -->
<g id="edge14" class="edge">
<title>Node3&#45;&gt;Node6</title>
<path fill="none" stroke="midnightblue" d="M580.05,-228.98C577.28,-263.37 566.42,-333.53 524,-370 401.64,-475.18 317.32,-467.29 164,-417 144.12,-410.48 125.42,-394.33 114.74,-383.79"/>
<polygon fill="midnightblue" stroke="midnightblue" points="583.56,-229 580.71,-218.8 576.57,-228.55 583.56,-229"/>
</g>
<!-- Node8 -->
<g id="node8" class="node">
<title>Node8</title>
<g id="a_node8"><a xlink:href="xspech_8f90.html#aea782eae089760a491c2c54f9903abcc" target="_top" xlink:title="Main program of SPEC.">
<polygon fill="white" stroke="black" points="81,-218.5 81,-237.5 128,-237.5 128,-218.5 81,-218.5"/>
<text text-anchor="middle" x="104.5" y="-225.5" font-family="Helvetica,sans-Serif" font-size="10.00">xspech</text>
</a>
</g>
</g>
<!-- Node3&#45;&gt;Node8 -->
<g id="edge35" class="edge">
<title>Node3&#45;&gt;Node8</title>
<path fill="none" stroke="midnightblue" d="M550.52,-221.36C542.06,-224.33 532.78,-227.17 524,-229 367.17,-261.67 322.23,-272.05 164,-247 151.87,-245.08 138.83,-241.05 128.15,-237.19"/>
<polygon fill="midnightblue" stroke="midnightblue" points="551.82,-224.61 560,-217.87 549.4,-218.04 551.82,-224.61"/>
</g>
<!-- Node10 -->
<g id="node10" class="node">
<title>Node10</title>
<g id="a_node10"><a xlink:href="dfp200_8f90.html#a6aca59cf350d7b1941f8389d50945a43" target="_top" xlink:title="get LU Beltrami matrices">
<polygon fill="white" stroke="black" points="399,-142.5 399,-161.5 524,-161.5 524,-142.5 399,-142.5"/>
<text text-anchor="middle" x="461.5" y="-149.5" font-family="Helvetica,sans-Serif" font-size="10.00">get_lu_beltrami_matrices</text>
</a>
</g>
</g>
<!-- Node3&#45;&gt;Node10 -->
<g id="edge15" class="edge">
<title>Node3&#45;&gt;Node10</title>
<path fill="none" stroke="midnightblue" d="M560.83,-193.47C550.29,-185.91 536.92,-177.14 524,-171 516.33,-167.35 507.79,-164.2 499.58,-161.56"/>
<polygon fill="midnightblue" stroke="midnightblue" points="558.82,-196.34 568.94,-199.46 562.97,-190.7 558.82,-196.34"/>
</g>
<!-- Node15 -->
<g id="node15" class="node">
<title>Node15</title>
<g id="a_node15"><a xlink:href="group__grp__diagnostics.html#ga7401b50ec10c6598ee4a8112717a63ec" target="_top" xlink:title="Computes eigenvalues and eigenvectors of derivative matrix, .">
<polygon fill="white" stroke="black" points="199,-218.5 199,-237.5 244,-237.5 244,-218.5 199,-218.5"/>
<text text-anchor="middle" x="221.5" y="-225.5" font-family="Helvetica,sans-Serif" font-size="10.00">hesian</text>
</a>
</g>
</g>
<!-- Node3&#45;&gt;Node15 -->
<g id="edge25" class="edge">
<title>Node3&#45;&gt;Node15</title>
<path fill="none" stroke="midnightblue" d="M549.77,-210.66C478.5,-214.43 305.29,-223.61 244.24,-226.85"/>
<polygon fill="midnightblue" stroke="midnightblue" points="550.11,-214.14 559.91,-210.12 549.74,-207.15 550.11,-214.14"/>
</g>
<!-- Node16 -->
<g id="node16" class="node">
<title>Node16</title>
<g id="a_node16"><a xlink:href="group__grp__conjugate__gradient.html#ga4d8415226e62a9fdb42b0fd0b464251e" target="_top" xlink:title="Returns the energy functional and it&#39;s derivatives with respect to geometry.">
<polygon fill="white" stroke="black" points="437.5,-66.5 437.5,-85.5 485.5,-85.5 485.5,-66.5 437.5,-66.5"/>
<text text-anchor="middle" x="461.5" y="-73.5" font-family="Helvetica,sans-Serif" font-size="10.00">pc00ab</text>
</a>
</g>
</g>
<!-- Node3&#45;&gt;Node16 -->
<g id="edge28" class="edge">
<title>Node3&#45;&gt;Node16</title>
<path fill="none" stroke="midnightblue" d="M575.53,-189.65C567.79,-165.56 551.45,-124.59 524,-100 513.24,-90.36 498.18,-84.4 485.65,-80.83"/>
<polygon fill="midnightblue" stroke="midnightblue" points="572.24,-190.86 578.49,-199.41 578.94,-188.83 572.24,-190.86"/>
</g>
<!-- Node18 -->
<g id="node18" class="node">
<title>Node18</title>
<g id="a_node18"><a xlink:href="namespaceallglobal.html#ad32ae6194892fe7d876622a6455189e2" target="_top" xlink:title="The master node reads the input namelist and sets various internal variables. The relevant quantities...">
<polygon fill="white" stroke="black" points="420,-180.5 420,-199.5 503,-199.5 503,-180.5 420,-180.5"/>
<text text-anchor="middle" x="461.5" y="-187.5" font-family="Helvetica,sans-Serif" font-size="10.00">allglobal::readin</text>
</a>
</g>
</g>
<!-- Node3&#45;&gt;Node18 -->
<g id="edge30" class="edge">
<title>Node3&#45;&gt;Node18</title>
<path fill="none" stroke="midnightblue" d="M549.55,-203.96C535.32,-201.68 518.33,-198.95 503.15,-196.52"/>
<polygon fill="midnightblue" stroke="midnightblue" points="549.39,-207.48 559.81,-205.6 550.49,-200.56 549.39,-207.48"/>
</g>
<!-- Node4&#45;&gt;Node5 -->
<g id="edge4" class="edge">
<title>Node4&#45;&gt;Node5</title>
<path fill="none" stroke="midnightblue" d="M433.51,-345.26C412.38,-343.82 383.31,-343.92 363.22,-345.54"/>
<polygon fill="midnightblue" stroke="midnightblue" points="433.48,-348.77 443.74,-346.16 434.09,-341.8 433.48,-348.77"/>
</g>
<!-- Node5&#45;&gt;Node4 -->
<g id="edge5" class="edge">
<title>Node5&#45;&gt;Node4</title>
<path fill="none" stroke="midnightblue" d="M373.21,-357.11C396.11,-358.27 425.58,-357.85 443.74,-355.84"/>
<polygon fill="midnightblue" stroke="midnightblue" points="373.42,-353.61 363.22,-356.46 372.97,-360.6 373.42,-353.61"/>
</g>
<!-- Node5&#45;&gt;Node6 -->
<g id="edge6" class="edge">
<title>Node5&#45;&gt;Node6</title>
<path fill="none" stroke="midnightblue" d="M304.79,-349.39C254.32,-351.56 160.17,-361.27 122.1,-368.67"/>
<polygon fill="midnightblue" stroke="midnightblue" points="304.98,-352.89 314.86,-349.05 304.74,-345.89 304.98,-352.89"/>
</g>
<!-- Node7 -->
<g id="node7" class="node">
<title>Node7</title>
<g id="a_node7"><a xlink:href="group__grp__force__driver.html#ga382822b303cbf8c56d6f54dcb379caf2" target="_top" xlink:title="read or write force&#45;derivative matrix">
<polygon fill="white" stroke="black" points="189,-388.5 189,-407.5 254,-407.5 254,-388.5 189,-388.5"/>
<text text-anchor="middle" x="221.5" y="-395.5" font-family="Helvetica,sans-Serif" font-size="10.00">writereadgf</text>
</a>
</g>
</g>
<!-- Node5&#45;&gt;Node7 -->
<g id="edge8" class="edge">
<title>Node5&#45;&gt;Node7</title>
<path fill="none" stroke="midnightblue" d="M305.39,-358.13C282.07,-366.42 251.95,-379.25 235.19,-388.42"/>
<polygon fill="midnightblue" stroke="midnightblue" points="306.57,-361.42 314.9,-354.87 304.31,-354.79 306.57,-361.42"/>
</g>
<!-- Node5&#45;&gt;Node8 -->
<g id="edge11" class="edge">
<title>Node5&#45;&gt;Node8</title>
<path fill="none" stroke="midnightblue" d="M305.29,-341.35C269.09,-329.84 209.82,-308.54 164,-280 144.39,-267.79 125.03,-248.86 114.23,-237.53"/>
<polygon fill="midnightblue" stroke="midnightblue" points="304.27,-344.69 314.85,-344.33 306.35,-338.01 304.27,-344.69"/>
</g>
<!-- Node6&#45;&gt;Node5 -->
<g id="edge7" class="edge">
<title>Node6&#45;&gt;Node5</title>
<path fill="none" stroke="midnightblue" d="M132.2,-375.85C178.16,-374.4 271.47,-365.08 314.86,-357.53"/>
<polygon fill="midnightblue" stroke="midnightblue" points="132.03,-372.36 122.1,-376.05 132.17,-379.36 132.03,-372.36"/>
</g>
<!-- Node7&#45;&gt;Node5 -->
<g id="edge10" class="edge">
<title>Node7&#45;&gt;Node5</title>
<path fill="none" stroke="midnightblue" d="M263.74,-387.72C285.39,-379.58 310.43,-368.71 325.2,-360.64"/>
<polygon fill="midnightblue" stroke="midnightblue" points="262.27,-384.53 254.07,-391.24 264.67,-391.1 262.27,-384.53"/>
</g>
<!-- Node7&#45;&gt;Node6 -->
<g id="edge9" class="edge">
<title>Node7&#45;&gt;Node6</title>
<path fill="none" stroke="midnightblue" d="M178.83,-389.3C159.26,-385.22 137.03,-380.58 122.22,-377.49"/>
<polygon fill="midnightblue" stroke="midnightblue" points="178.27,-392.76 188.77,-391.38 179.7,-385.91 178.27,-392.76"/>
</g>
<!-- Node9 -->
<g id="node9" class="node">
<title>Node9</title>
<g id="a_node9"><a xlink:href="xspech_8f90.html#a537af4990058c0b0f2cd8b3669af204f" target="_top" xlink:title="todo remark">
<polygon fill="white" stroke="black" points="0,-218.5 0,-237.5 45,-237.5 45,-218.5 0,-218.5"/>
<text text-anchor="middle" x="22.5" y="-225.5" font-family="Helvetica,sans-Serif" font-size="10.00">ending</text>
</a>
</g>
</g>
<!-- Node8&#45;&gt;Node9 -->
<g id="edge12" class="edge">
<title>Node8&#45;&gt;Node9</title>
<path fill="none" stroke="midnightblue" d="M70.65,-221.35C62.06,-221.11 53.01,-221.3 45.17,-221.92"/>
<polygon fill="midnightblue" stroke="midnightblue" points="70.63,-224.85 80.79,-221.84 70.97,-217.86 70.63,-224.85"/>
</g>
<!-- Node9&#45;&gt;Node8 -->
<g id="edge13" class="edge">
<title>Node9&#45;&gt;Node8</title>
<path fill="none" stroke="midnightblue" d="M55.22,-234.62C63.77,-234.89 72.84,-234.74 80.79,-234.16"/>
<polygon fill="midnightblue" stroke="midnightblue" points="55.34,-231.12 45.17,-234.08 54.96,-238.11 55.34,-231.12"/>
</g>
<!-- Node11 -->
<g id="node11" class="node">
<title>Node11</title>
<g id="a_node11"><a xlink:href="dfp200_8f90.html#a55ea75395f8c71731451e1add3720c7e" target="_top" xlink:title="Given the field consistent with the constraints and the geometry, computes local quantites related to...">
<polygon fill="white" stroke="black" points="316,-104.5 316,-123.5 362,-123.5 362,-104.5 316,-104.5"/>
<text text-anchor="middle" x="339" y="-111.5" font-family="Helvetica,sans-Serif" font-size="10.00">dfp200</text>
</a>
</g>
</g>
<!-- Node10&#45;&gt;Node11 -->
<g id="edge16" class="edge">
<title>Node10&#45;&gt;Node11</title>
<path fill="none" stroke="midnightblue" d="M435.27,-138.43C413.71,-130.04 382.99,-120.43 362.32,-115.66"/>
<polygon fill="midnightblue" stroke="midnightblue" points="434.17,-141.76 444.75,-142.3 436.81,-135.28 434.17,-141.76"/>
</g>
<!-- Node11&#45;&gt;Node3 -->
<g id="edge17" class="edge">
<title>Node11&#45;&gt;Node3</title>
<path fill="none" stroke="midnightblue" d="M372.25,-109.89C410.93,-106.55 476.49,-106.1 524,-133 551.13,-148.36 569.27,-182.46 576.91,-199.26"/>
<polygon fill="midnightblue" stroke="midnightblue" points="371.7,-106.42 362.09,-110.88 372.38,-113.39 371.7,-106.42"/>
</g>
<!-- Node11&#45;&gt;Node10 -->
<g id="edge22" class="edge">
<title>Node11&#45;&gt;Node10</title>
<path fill="none" stroke="midnightblue" d="M364.78,-127.39C377.58,-132.39 393.7,-137.85 409.05,-142.46"/>
<polygon fill="midnightblue" stroke="midnightblue" points="365.88,-124.06 355.3,-123.5 363.22,-130.54 365.88,-124.06"/>
</g>
<!-- Node12 -->
<g id="node12" class="node">
<title>Node12</title>
<g id="a_node12"><a xlink:href="dfp200_8f90.html#a7b64c7392b45d0042d8bd7379c0761a5" target="_top" xlink:title="Evaluate the derivative of the square of the magnetic field modulus. Add spectral constraint derivati...">
<polygon fill="white" stroke="black" points="184.5,-66.5 184.5,-85.5 258.5,-85.5 258.5,-66.5 184.5,-66.5"/>
<text text-anchor="middle" x="221.5" y="-73.5" font-family="Helvetica,sans-Serif" font-size="10.00">evaluate_dbb</text>
</a>
</g>
</g>
<!-- Node11&#45;&gt;Node12 -->
<g id="edge18" class="edge">
<title>Node11&#45;&gt;Node12</title>
<path fill="none" stroke="midnightblue" d="M313.31,-100.23C297.49,-93.83 276.69,-86.76 258.99,-81.68"/>
<polygon fill="midnightblue" stroke="midnightblue" points="312.33,-103.61 322.9,-104.3 315.07,-97.17 312.33,-103.61"/>
</g>
<!-- Node11&#45;&gt;Node13 -->
<g id="edge20" class="edge">
<title>Node11&#45;&gt;Node13</title>
<path fill="none" stroke="midnightblue" d="M326.97,-96.88C323.1,-93.19 318.78,-89.53 315,-86 298,-70.12 298.61,-60.52 279,-48 275.86,-45.99 272.49,-44.18 269.01,-42.56"/>
<polygon fill="midnightblue" stroke="midnightblue" points="324.61,-99.48 333.97,-104.46 329.76,-94.74 324.61,-99.48"/>
</g>
<!-- Node14 -->
<g id="node14" class="node">
<title>Node14</title>
<g id="a_node14"><a xlink:href="dfp200_8f90.html#a5e56f1f4b1e6df11a9cffa6237c37469" target="_top" xlink:title="This routine evaluates the value of the magnetic field once the interface is perturbed using matrix p...">
<polygon fill="white" stroke="black" points="164,-104.5 164,-123.5 279,-123.5 279,-104.5 164,-104.5"/>
<text text-anchor="middle" x="221.5" y="-111.5" font-family="Helvetica,sans-Serif" font-size="10.00">get_perturbed_solution</text>
</a>
</g>
</g>
<!-- Node11&#45;&gt;Node14 -->
<g id="edge23" class="edge">
<title>Node11&#45;&gt;Node14</title>
<path fill="none" stroke="midnightblue" d="M305.51,-107.86C297.3,-107.44 288.25,-107.23 279.23,-107.25"/>
<polygon fill="midnightblue" stroke="midnightblue" points="305.52,-111.37 315.73,-108.54 305.99,-104.38 305.52,-111.37"/>
</g>
<!-- Node12&#45;&gt;Node11 -->
<g id="edge19" class="edge">
<title>Node12&#45;&gt;Node11</title>
<path fill="none" stroke="midnightblue" d="M246.59,-89.53C266.96,-97.81 295.9,-107.28 315.73,-112.13"/>
<polygon fill="midnightblue" stroke="midnightblue" points="247.93,-86.3 237.36,-85.59 245.19,-92.74 247.93,-86.3"/>
</g>
<!-- Node13&#45;&gt;Node11 -->
<g id="edge21" class="edge">
<title>Node13&#45;&gt;Node11</title>
<path fill="none" stroke="midnightblue" d="M245.44,-51.13C256.18,-54.98 268.82,-59.5 279,-66 298.61,-78.52 298,-88.12 315,-104 315.3,-104.28 315.61,-104.57 315.92,-104.85"/>
<polygon fill="midnightblue" stroke="midnightblue" points="246.46,-47.77 235.86,-47.6 244.04,-54.34 246.46,-47.77"/>
</g>
<!-- Node14&#45;&gt;Node11 -->
<g id="edge24" class="edge">
<title>Node14&#45;&gt;Node11</title>
<path fill="none" stroke="midnightblue" d="M289.23,-120.68C298.76,-120.52 307.95,-120.11 315.73,-119.46"/>
<polygon fill="midnightblue" stroke="midnightblue" points="289.21,-117.18 279.23,-120.75 289.26,-124.18 289.21,-117.18"/>
</g>
<!-- Node15&#45;&gt;Node8 -->
<g id="edge26" class="edge">
<title>Node15&#45;&gt;Node8</title>
<path fill="none" stroke="midnightblue" d="M188.77,-228C169.56,-228 145.52,-228 128.21,-228"/>
<polygon fill="midnightblue" stroke="midnightblue" points="188.87,-231.5 198.87,-228 188.87,-224.5 188.87,-231.5"/>
</g>
<!-- Node17 -->
<g id="node17" class="node">
<title>Node17</title>
<g id="a_node17"><a xlink:href="group__grp__conjugate__gradient.html#ga25a3bae2ff2ee0469b045de0d033398b" target="_top" xlink:title="Use preconditioned conjugate gradient method to find minimum of energy functional.">
<polygon fill="white" stroke="black" points="315,-66.5 315,-85.5 363,-85.5 363,-66.5 315,-66.5"/>
<text text-anchor="middle" x="339" y="-73.5" font-family="Helvetica,sans-Serif" font-size="10.00">pc00aa</text>
</a>
</g>
</g>
<!-- Node16&#45;&gt;Node17 -->
<g id="edge29" class="edge">
<title>Node16&#45;&gt;Node17</title>
<path fill="none" stroke="midnightblue" d="M427.16,-76C406.81,-76 381.31,-76 363.16,-76"/>
<polygon fill="midnightblue" stroke="midnightblue" points="427.27,-79.5 437.27,-76 427.27,-72.5 427.27,-79.5"/>
</g>
<!-- Node18&#45;&gt;Node8 -->
<g id="edge34" class="edge">
<title>Node18&#45;&gt;Node8</title>
<path fill="none" stroke="midnightblue" d="M411.11,-178.46C395.78,-175.4 378.77,-172.52 363,-171 274.61,-162.47 247.32,-158.27 164,-189 145.91,-195.67 127.86,-208.97 116.7,-218.16"/>
<polygon fill="midnightblue" stroke="midnightblue" points="410.4,-181.89 420.91,-180.49 411.82,-175.04 410.4,-181.89"/>
</g>
<!-- Node19 -->
<g id="node19" class="node">
<title>Node19</title>
<g id="a_node19"><a xlink:href="group__grp__initialization.html#ga28628de0fdb3b3497668007d8d0643bd" target="_top" xlink:title="Allocates and initializes internal arrays.">
<polygon fill="white" stroke="black" points="317,-180.5 317,-199.5 361,-199.5 361,-180.5 317,-180.5"/>
<text text-anchor="middle" x="339" y="-187.5" font-family="Helvetica,sans-Serif" font-size="10.00">preset</text>
</a>
</g>
</g>
<!-- Node18&#45;&gt;Node19 -->
<g id="edge31" class="edge">
<title>Node18&#45;&gt;Node19</title>
<path fill="none" stroke="midnightblue" d="M409.34,-190C392.41,-190 374.5,-190 361.13,-190"/>
<polygon fill="midnightblue" stroke="midnightblue" points="409.7,-193.5 419.7,-190 409.7,-186.5 409.7,-193.5"/>
</g>
<!-- Node19&#45;&gt;Node8 -->
<g id="edge33" class="edge">
<title>Node19&#45;&gt;Node8</title>
<path fill="none" stroke="midnightblue" d="M306.79,-191.48C271.73,-193.58 213.27,-198.43 164,-209 151.99,-211.58 138.97,-215.67 128.26,-219.4"/>
<polygon fill="midnightblue" stroke="midnightblue" points="307.1,-194.96 316.89,-190.91 306.71,-187.97 307.1,-194.96"/>
</g>
<!-- Node19&#45;&gt;Node15 -->
<g id="edge32" class="edge">
<title>Node19&#45;&gt;Node15</title>
<path fill="none" stroke="midnightblue" d="M307.3,-200.1C287.46,-206.63 262.13,-214.96 244.33,-220.82"/>
<polygon fill="midnightblue" stroke="midnightblue" points="308.41,-203.42 316.82,-196.97 306.22,-196.77 308.41,-203.42"/>
</g>
<!-- Node21 -->
<g id="node21" class="node">
<title>Node21</title>
<g id="a_node21"><a xlink:href="group__grp__solver__driver.html#gacad623d4c5c006e9ad10116372f92ad3" target="_top" xlink:title="Constructs Beltrami field in given volume consistent with flux, helicity, rotational&#45;transform and/or...">
<polygon fill="white" stroke="black" points="722,-66.5 722,-85.5 773,-85.5 773,-66.5 722,-66.5"/>
<text text-anchor="middle" x="747.5" y="-73.5" font-family="Helvetica,sans-Serif" font-size="10.00">ma02aa</text>
</a>
</g>
</g>
<!-- Node20&#45;&gt;Node21 -->
<g id="edge39" class="edge">
<title>Node20&#45;&gt;Node21</title>
<path fill="none" stroke="midnightblue" d="M798.72,-76C790.1,-76 781.04,-76 773.03,-76"/>
<polygon fill="midnightblue" stroke="midnightblue" points="798.91,-79.5 808.91,-76 798.91,-72.5 798.91,-79.5"/>
</g>
<!-- Node21&#45;&gt;Node2 -->
<g id="edge40" class="edge">
<title>Node21&#45;&gt;Node2</title>
<path fill="none" stroke="midnightblue" d="M711.84,-68.02C703.17,-66.02 694.09,-63.93 686.21,-62.11"/>
<polygon fill="midnightblue" stroke="midnightblue" points="711.22,-71.47 721.75,-70.3 712.79,-64.64 711.22,-71.47"/>
</g>
</g>
</svg>
