<?xml version="1.0" encoding="UTF-8" standalone="no"?>
<!DOCTYPE svg PUBLIC "-//W3C//DTD SVG 1.1//EN"
 "http://www.w3.org/Graphics/SVG/1.1/DTD/svg11.dtd">
<!-- Generated by graphviz version 2.47.1 (20210421.1823)
 -->
<!-- Title: bfield Pages: 1 -->
<svg width="585pt" height="142pt"
 viewBox="0.00 0.00 585.00 142.00" xmlns="http://www.w3.org/2000/svg" xmlns:xlink="http://www.w3.org/1999/xlink">
<g id="graph0" class="graph" transform="scale(1 1) rotate(0) translate(4 138)">
<title>bfield</title>
<polygon fill="white" stroke="transparent" points="-4,4 -4,-138 581,-138 581,4 -4,4"/>
<!-- Node1 -->
<g id="node1" class="node">
<title>Node1</title>
<g id="a_node1"><a xlink:title="Compute the magnetic field.">
<polygon fill="#bfbfbf" stroke="black" points="538,-57.5 538,-76.5 577,-76.5 577,-57.5 538,-57.5"/>
<text text-anchor="middle" x="557.5" y="-64.5" font-family="Helvetica,sans-Serif" font-size="10.00">bfield</text>
</a>
</g>
</g>
<!-- Node2 -->
<g id="node2" class="node">
<title>Node2</title>
<g id="a_node2"><a xlink:href="bfield_8f90.html#adc615fe98d38488525cbe807d008860a" target="_top" xlink:title="compute the tangential magnetic field">
<polygon fill="white" stroke="black" points="425,-114.5 425,-133.5 502,-133.5 502,-114.5 425,-114.5"/>
<text text-anchor="middle" x="463.5" y="-121.5" font-family="Helvetica,sans-Serif" font-size="10.00">bfield_tangent</text>
</a>
</g>
</g>
<!-- Node1&#45;&gt;Node2 -->
<g id="edge1" class="edge">
<title>Node1&#45;&gt;Node2</title>
<path fill="none" stroke="midnightblue" d="M532.26,-82.02C515.66,-92.3 494.16,-105.62 479.88,-114.47"/>
<polygon fill="midnightblue" stroke="midnightblue" points="534.24,-84.91 540.89,-76.67 530.55,-78.96 534.24,-84.91"/>
</g>
<!-- Node3 -->
<g id="node3" class="node">
<title>Node3</title>
<g id="a_node3"><a xlink:href="group__grp__diagnostics.html#ga6411205c36a7d50002d7f3fb3133c441" target="_top" xlink:title="Measures error in Beltrami equation, .">
<polygon fill="white" stroke="black" points="342.5,-76.5 342.5,-95.5 387.5,-95.5 387.5,-76.5 342.5,-76.5"/>
<text text-anchor="middle" x="365" y="-83.5" font-family="Helvetica,sans-Serif" font-size="10.00">jo00aa</text>
</a>
</g>
</g>
<!-- Node1&#45;&gt;Node3 -->
<g id="edge2" class="edge">
<title>Node1&#45;&gt;Node3</title>
<path fill="none" stroke="midnightblue" d="M527.87,-69.86C489.44,-73.69 422.03,-80.41 387.59,-83.85"/>
<polygon fill="midnightblue" stroke="midnightblue" points="528.28,-73.33 537.89,-68.86 527.59,-66.37 528.28,-73.33"/>
</g>
<!-- Node7 -->
<g id="node7" class="node">
<title>Node7</title>
<g id="a_node7"><a xlink:href="group__grp__diagnostics.html#ga831aed2458140e266ee4d37461dd5350" target="_top" xlink:title="Constructs Poincaré plot and &quot;approximate&quot; rotational&#45;transform (for single field line).">
<polygon fill="white" stroke="black" points="439.5,-38.5 439.5,-57.5 487.5,-57.5 487.5,-38.5 439.5,-38.5"/>
<text text-anchor="middle" x="463.5" y="-45.5" font-family="Helvetica,sans-Serif" font-size="10.00">pp00ab</text>
</a>
</g>
</g>
<!-- Node1&#45;&gt;Node7 -->
<g id="edge8" class="edge">
<title>Node1&#45;&gt;Node7</title>
<path fill="none" stroke="midnightblue" d="M528.05,-61.12C515.08,-58.45 499.92,-55.32 487.66,-52.78"/>
<polygon fill="midnightblue" stroke="midnightblue" points="527.38,-64.56 537.88,-63.16 528.8,-57.7 527.38,-64.56"/>
</g>
<!-- Node9 -->
<g id="node9" class="node">
<title>Node9</title>
<g id="a_node9"><a xlink:href="namespacesphdf5.html#a17e65b951634f7098213fd071d905482" target="_top" xlink:title="write the magnetic field on a grid; previously the (wflag.eq.1) part of globals.f90/wrtend to write ....">
<polygon fill="white" stroke="black" points="213,-0.5 213,-19.5 305,-19.5 305,-0.5 213,-0.5"/>
<text text-anchor="middle" x="259" y="-7.5" font-family="Helvetica,sans-Serif" font-size="10.00">sphdf5::write_grid</text>
</a>
</g>
</g>
<!-- Node1&#45;&gt;Node9 -->
<g id="edge11" class="edge">
<title>Node1&#45;&gt;Node9</title>
<path fill="none" stroke="midnightblue" d="M538.28,-50.6C528.29,-42.62 515.27,-33.75 502,-29 436.53,-5.57 354.92,-4.45 305.18,-6.62"/>
<polygon fill="midnightblue" stroke="midnightblue" points="536.29,-53.5 546.2,-57.26 540.79,-48.14 536.29,-53.5"/>
</g>
<!-- Node4 -->
<g id="node4" class="node">
<title>Node4</title>
<g id="a_node4"><a xlink:href="xspech_8f90.html#a48f45478dc2c9f70ea8aa1c60ad06503" target="_top" xlink:title=" ">
<polygon fill="white" stroke="black" points="240,-47.5 240,-66.5 278,-66.5 278,-47.5 240,-47.5"/>
<text text-anchor="middle" x="259" y="-54.5" font-family="Helvetica,sans-Serif" font-size="10.00">spec</text>
</a>
</g>
</g>
<!-- Node3&#45;&gt;Node4 -->
<g id="edge3" class="edge">
<title>Node3&#45;&gt;Node4</title>
<path fill="none" stroke="midnightblue" d="M332.73,-77.28C314.87,-72.3 293.1,-66.23 278.06,-62.03"/>
<polygon fill="midnightblue" stroke="midnightblue" points="331.88,-80.68 342.45,-79.99 333.76,-73.93 331.88,-80.68"/>
</g>
<!-- Node5 -->
<g id="node5" class="node">
<title>Node5</title>
<g id="a_node5"><a xlink:href="namespacesphdf5.html#a0f962c09cd5d5eba99f1cba043cb3898" target="_top" xlink:title="initialize the interface to the HDF5 library and open the output file">
<polygon fill="white" stroke="black" points="83,-94.5 83,-113.5 177,-113.5 177,-94.5 83,-94.5"/>
<text text-anchor="middle" x="130" y="-101.5" font-family="Helvetica,sans-Serif" font-size="10.00">sphdf5::init_outfile</text>
</a>
</g>
</g>
<!-- Node4&#45;&gt;Node5 -->
<g id="edge4" class="edge">
<title>Node4&#45;&gt;Node5</title>
<path fill="none" stroke="midnightblue" d="M230.16,-67.3C208.41,-75.35 178.39,-86.46 157.1,-94.34"/>
<polygon fill="midnightblue" stroke="midnightblue" points="231.64,-70.49 239.8,-63.73 229.21,-63.92 231.64,-70.49"/>
</g>
<!-- Node6 -->
<g id="node6" class="node">
<title>Node6</title>
<g id="a_node6"><a xlink:href="xspech_8f90.html#aea782eae089760a491c2c54f9903abcc" target="_top" xlink:title="Main program of SPEC.">
<polygon fill="white" stroke="black" points="0,-47.5 0,-66.5 47,-66.5 47,-47.5 0,-47.5"/>
<text text-anchor="middle" x="23.5" y="-54.5" font-family="Helvetica,sans-Serif" font-size="10.00">xspech</text>
</a>
</g>
</g>
<!-- Node4&#45;&gt;Node6 -->
<g id="edge7" class="edge">
<title>Node4&#45;&gt;Node6</title>
<path fill="none" stroke="midnightblue" d="M229.59,-52.4C182.67,-49.4 89.93,-49.54 47.12,-52.8"/>
<polygon fill="midnightblue" stroke="midnightblue" points="229.44,-55.9 239.68,-53.16 229.97,-48.92 229.44,-55.9"/>
</g>
<!-- Node5&#45;&gt;Node6 -->
<g id="edge5" class="edge">
<title>Node5&#45;&gt;Node6</title>
<path fill="none" stroke="midnightblue" d="M98.43,-90.25C81.59,-82.68 61.11,-73.46 45.97,-66.66"/>
<polygon fill="midnightblue" stroke="midnightblue" points="97.3,-93.58 107.85,-94.49 100.17,-87.19 97.3,-93.58"/>
</g>
<!-- Node6&#45;&gt;Node4 -->
<g id="edge6" class="edge">
<title>Node6&#45;&gt;Node4</title>
<path fill="none" stroke="midnightblue" d="M57.36,-61.87C107.21,-64.68 200.31,-64.34 239.68,-60.84"/>
<polygon fill="midnightblue" stroke="midnightblue" points="57.33,-58.36 47.12,-61.2 56.87,-65.34 57.33,-58.36"/>
</g>
<!-- Node8 -->
<g id="node8" class="node">
<title>Node8</title>
<g id="a_node8"><a xlink:href="group__grp__diagnostics.html#gad67931244268a09bd077dae8910c7096" target="_top" xlink:title="Constructs Poincaré plot and &quot;approximate&quot; rotational&#45;transform (driver).">
<polygon fill="white" stroke="black" points="341,-38.5 341,-57.5 389,-57.5 389,-38.5 341,-38.5"/>
<text text-anchor="middle" x="365" y="-45.5" font-family="Helvetica,sans-Serif" font-size="10.00">pp00aa</text>
</a>
</g>
</g>
<!-- Node7&#45;&gt;Node8 -->
<g id="edge9" class="edge">
<title>Node7&#45;&gt;Node8</title>
<path fill="none" stroke="midnightblue" d="M429.02,-48C415.86,-48 401.08,-48 389.14,-48"/>
<polygon fill="midnightblue" stroke="midnightblue" points="429.14,-51.5 439.14,-48 429.14,-44.5 429.14,-51.5"/>
</g>
<!-- Node8&#45;&gt;Node4 -->
<g id="edge10" class="edge">
<title>Node8&#45;&gt;Node4</title>
<path fill="none" stroke="midnightblue" d="M330.59,-50.89C313.2,-52.4 292.62,-54.18 278.18,-55.43"/>
<polygon fill="midnightblue" stroke="midnightblue" points="331.26,-54.35 340.92,-50 330.65,-47.37 331.26,-54.35"/>
</g>
<!-- Node9&#45;&gt;Node6 -->
<g id="edge12" class="edge">
<title>Node9&#45;&gt;Node6</title>
<path fill="none" stroke="midnightblue" d="M203.03,-21.06C153.39,-31.06 82.81,-45.26 47.09,-52.45"/>
<polygon fill="midnightblue" stroke="midnightblue" points="203.87,-24.47 212.98,-19.06 202.48,-17.6 203.87,-24.47"/>
</g>
</g>
</svg>
