<?xml version="1.0" encoding="UTF-8" standalone="no"?>
<!DOCTYPE svg PUBLIC "-//W3C//DTD SVG 1.1//EN"
 "http://www.w3.org/Graphics/SVG/1.1/DTD/svg11.dtd">
<!-- Generated by graphviz version 2.47.1 (20210421.1823)
 -->
<!-- Title: bfield Pages: 1 -->
<svg width="463pt" height="142pt"
 viewBox="0.00 0.00 463.00 142.00" xmlns="http://www.w3.org/2000/svg" xmlns:xlink="http://www.w3.org/1999/xlink">
<g id="graph0" class="graph" transform="scale(1 1) rotate(0) translate(4 138)">
<title>bfield</title>
<polygon fill="white" stroke="transparent" points="-4,4 -4,-138 459,-138 459,4 -4,4"/>
<!-- Node1 -->
<g id="node1" class="node">
<title>Node1</title>
<g id="a_node1"><a xlink:title="Compute the magnetic field.">
<polygon fill="#bfbfbf" stroke="black" points="416,-57.5 416,-76.5 455,-76.5 455,-57.5 416,-57.5"/>
<text text-anchor="middle" x="435.5" y="-64.5" font-family="Helvetica,sans-Serif" font-size="10.00">bfield</text>
</a>
</g>
</g>
<!-- Node2 -->
<g id="node2" class="node">
<title>Node2</title>
<g id="a_node2"><a xlink:href="bfield_8f90.html#adc615fe98d38488525cbe807d008860a" target="_top" xlink:title="compute the tangential magnetic field">
<polygon fill="white" stroke="black" points="295.5,-114.5 295.5,-133.5 372.5,-133.5 372.5,-114.5 295.5,-114.5"/>
<text text-anchor="middle" x="334" y="-121.5" font-family="Helvetica,sans-Serif" font-size="10.00">bfield_tangent</text>
</a>
</g>
</g>
<!-- Node1&#45;&gt;Node2 -->
<g id="edge1" class="edge">
<title>Node1&#45;&gt;Node2</title>
<path fill="none" stroke="midnightblue" d="M410.12,-82.15C400.76,-87.86 389.95,-94.34 380,-100 371.38,-104.9 361.69,-110.11 353.51,-114.42"/>
<polygon fill="midnightblue" stroke="midnightblue" points="412.21,-84.98 418.89,-76.76 408.54,-79.01 412.21,-84.98"/>
</g>
<!-- Node3 -->
<g id="node3" class="node">
<title>Node3</title>
<g id="a_node3"><a xlink:href="group__grp__diagnostics.html#ga6411205c36a7d50002d7f3fb3133c441" target="_top" xlink:title="Measures error in Beltrami equation, .">
<polygon fill="white" stroke="black" points="205.5,-76.5 205.5,-95.5 250.5,-95.5 250.5,-76.5 205.5,-76.5"/>
<text text-anchor="middle" x="228" y="-83.5" font-family="Helvetica,sans-Serif" font-size="10.00">jo00aa</text>
</a>
</g>
</g>
<!-- Node1&#45;&gt;Node3 -->
<g id="edge2" class="edge">
<title>Node1&#45;&gt;Node3</title>
<path fill="none" stroke="midnightblue" d="M405.88,-69.65C364.3,-73.49 288.1,-80.54 250.77,-83.99"/>
<polygon fill="midnightblue" stroke="midnightblue" points="406.27,-73.13 415.9,-68.72 405.62,-66.16 406.27,-73.13"/>
</g>
<!-- Node7 -->
<g id="node7" class="node">
<title>Node7</title>
<g id="a_node7"><a xlink:href="group__grp__diagnostics.html#ga831aed2458140e266ee4d37461dd5350" target="_top" xlink:title="Constructs Poincaré plot and &quot;approximate&quot; rotational&#45;transform (for single field line).">
<polygon fill="white" stroke="black" points="310,-38.5 310,-57.5 358,-57.5 358,-38.5 310,-38.5"/>
<text text-anchor="middle" x="334" y="-45.5" font-family="Helvetica,sans-Serif" font-size="10.00">pp00ab</text>
</a>
</g>
</g>
<!-- Node1&#45;&gt;Node7 -->
<g id="edge7" class="edge">
<title>Node1&#45;&gt;Node7</title>
<path fill="none" stroke="midnightblue" d="M405.91,-61.54C390.77,-58.65 372.42,-55.15 358.19,-52.43"/>
<polygon fill="midnightblue" stroke="midnightblue" points="405.31,-64.99 415.78,-63.43 406.62,-58.11 405.31,-64.99"/>
</g>
<!-- Node9 -->
<g id="node9" class="node">
<title>Node9</title>
<g id="a_node9"><a xlink:href="sphdf5_8f90.html#a17e65b951634f7098213fd071d905482" target="_top" xlink:title="write the magnetic field on a grid; previously the (wflag.eq.1) part of globals.f90/wrtend to write ....">
<polygon fill="white" stroke="black" points="288,-0.5 288,-19.5 380,-19.5 380,-0.5 288,-0.5"/>
<text text-anchor="middle" x="334" y="-7.5" font-family="Helvetica,sans-Serif" font-size="10.00">sphdf5::write_grid</text>
</a>
</g>
</g>
<!-- Node1&#45;&gt;Node9 -->
<g id="edge10" class="edge">
<title>Node1&#45;&gt;Node9</title>
<path fill="none" stroke="midnightblue" d="M414.34,-51.43C404.33,-44.1 391.87,-35.55 380,-29 373.76,-25.56 366.77,-22.33 360.2,-19.55"/>
<polygon fill="midnightblue" stroke="midnightblue" points="412.32,-54.29 422.42,-57.47 416.51,-48.68 412.32,-54.29"/>
</g>
<!-- Node4 -->
<g id="node4" class="node">
<title>Node4</title>
<g id="a_node4"><a xlink:href="xspech_8f90.html#a48f45478dc2c9f70ea8aa1c60ad06503" target="_top" xlink:title=" ">
<polygon fill="white" stroke="black" points="130,-57.5 130,-76.5 168,-76.5 168,-57.5 130,-57.5"/>
<text text-anchor="middle" x="149" y="-64.5" font-family="Helvetica,sans-Serif" font-size="10.00">spec</text>
</a>
</g>
</g>
<!-- Node3&#45;&gt;Node4 -->
<g id="edge3" class="edge">
<title>Node3&#45;&gt;Node4</title>
<path fill="none" stroke="midnightblue" d="M195.35,-78.19C186.04,-75.89 176.16,-73.46 168.02,-71.45"/>
<polygon fill="midnightblue" stroke="midnightblue" points="194.59,-81.61 205.14,-80.61 196.27,-74.81 194.59,-81.61"/>
</g>
<!-- Node5 -->
<g id="node5" class="node">
<title>Node5</title>
<g id="a_node5"><a xlink:href="sphdf5_8f90.html#a0f962c09cd5d5eba99f1cba043cb3898" target="_top" xlink:title="initialize the interface to the HDF5 library and open the output file">
<polygon fill="white" stroke="black" points="0,-95.5 0,-114.5 94,-114.5 94,-95.5 0,-95.5"/>
<text text-anchor="middle" x="47" y="-102.5" font-family="Helvetica,sans-Serif" font-size="10.00">sphdf5::init_outfile</text>
</a>
</g>
</g>
<!-- Node4&#45;&gt;Node5 -->
<g id="edge4" class="edge">
<title>Node4&#45;&gt;Node5</title>
<path fill="none" stroke="midnightblue" d="M120.03,-77.63C105.27,-83.24 87.3,-90.07 73,-95.5"/>
<polygon fill="midnightblue" stroke="midnightblue" points="121.55,-80.79 129.66,-73.97 119.07,-74.25 121.55,-80.79"/>
</g>
<!-- Node6 -->
<g id="node6" class="node">
<title>Node6</title>
<g id="a_node6"><a xlink:href="xspech_8f90.html#aea782eae089760a491c2c54f9903abcc" target="_top" xlink:title="Main program of SPEC.">
<polygon fill="white" stroke="black" points="23.5,-57.5 23.5,-76.5 70.5,-76.5 70.5,-57.5 23.5,-57.5"/>
<text text-anchor="middle" x="47" y="-64.5" font-family="Helvetica,sans-Serif" font-size="10.00">xspech</text>
</a>
</g>
</g>
<!-- Node4&#45;&gt;Node6 -->
<g id="edge5" class="edge">
<title>Node4&#45;&gt;Node6</title>
<path fill="none" stroke="midnightblue" d="M119.6,-60.84C104.14,-59.94 85.27,-60.07 70.79,-61.23"/>
<polygon fill="midnightblue" stroke="midnightblue" points="119.41,-64.34 129.66,-61.64 119.96,-57.36 119.41,-64.34"/>
</g>
<!-- Node6&#45;&gt;Node4 -->
<g id="edge6" class="edge">
<title>Node6&#45;&gt;Node4</title>
<path fill="none" stroke="midnightblue" d="M80.96,-73.39C97.15,-74.1 116.06,-73.76 129.66,-72.36"/>
<polygon fill="midnightblue" stroke="midnightblue" points="80.98,-69.88 70.79,-72.77 80.56,-76.87 80.98,-69.88"/>
</g>
<!-- Node8 -->
<g id="node8" class="node">
<title>Node8</title>
<g id="a_node8"><a xlink:href="group__grp__diagnostics.html#gad67931244268a09bd077dae8910c7096" target="_top" xlink:title="Constructs Poincaré plot and &quot;approximate&quot; rotational&#45;transform (driver).">
<polygon fill="white" stroke="black" points="204,-38.5 204,-57.5 252,-57.5 252,-38.5 204,-38.5"/>
<text text-anchor="middle" x="228" y="-45.5" font-family="Helvetica,sans-Serif" font-size="10.00">pp00aa</text>
</a>
</g>
</g>
<!-- Node7&#45;&gt;Node8 -->
<g id="edge8" class="edge">
<title>Node7&#45;&gt;Node8</title>
<path fill="none" stroke="midnightblue" d="M299.65,-48C284.11,-48 266.01,-48 252.02,-48"/>
<polygon fill="midnightblue" stroke="midnightblue" points="299.92,-51.5 309.92,-48 299.92,-44.5 299.92,-51.5"/>
</g>
<!-- Node8&#45;&gt;Node4 -->
<g id="edge9" class="edge">
<title>Node8&#45;&gt;Node4</title>
<path fill="none" stroke="midnightblue" d="M193.93,-56.16C185.2,-58.31 176.09,-60.56 168.44,-62.45"/>
<polygon fill="midnightblue" stroke="midnightblue" points="195.03,-59.49 203.9,-53.7 193.35,-52.7 195.03,-59.49"/>
</g>
</g>
</svg>
