<?xml version="1.0" encoding="UTF-8" standalone="no"?>
<!DOCTYPE svg PUBLIC "-//W3C//DTD SVG 1.1//EN"
 "http://www.w3.org/Graphics/SVG/1.1/DTD/svg11.dtd">
<!-- Generated by graphviz version 2.47.1 (20210421.1823)
 -->
<!-- Title: Covariant field on interfaces: Btemn, Bzemn, Btomn, Bzomn Pages: 1 -->
<svg width="254pt" height="49pt"
 viewBox="0.00 0.00 254.00 49.00" xmlns="http://www.w3.org/2000/svg" xmlns:xlink="http://www.w3.org/1999/xlink">
<g id="graph0" class="graph" transform="scale(1 1) rotate(0) translate(4 45)">
<title>Covariant field on interfaces: Btemn, Bzemn, Btomn, Bzomn</title>
<polygon fill="white" stroke="transparent" points="-4,4 -4,-45 250,-45 250,4 -4,4"/>
<!-- Node1 -->
<g id="node1" class="node">
<title>Node1</title>
<g id="a_node1"><a xlink:title="The covariant field.">
<polygon fill="#bfbfbf" stroke="black" points="246,-41 128,-41 128,0 246,0 246,-41"/>
<text text-anchor="start" x="136" y="-29" font-family="Helvetica,sans-Serif" font-size="10.00">Covariant field on</text>
<text text-anchor="start" x="136" y="-18" font-family="Helvetica,sans-Serif" font-size="10.00"> interfaces: Btemn,</text>
<text text-anchor="middle" x="187" y="-7" font-family="Helvetica,sans-Serif" font-size="10.00"> Bzemn, Btomn, Bzomn</text>
</a>
</g>
</g>
<!-- Node2 -->
<g id="node2" class="node">
<title>Node2</title>
<g id="a_node2"><a xlink:href="group__grp__internal__vars.html" target="_top" xlink:title=" ">
<polygon fill="white" stroke="black" points="92,-30 0,-30 0,-11 92,-11 92,-30"/>
<text text-anchor="middle" x="46" y="-18" font-family="Helvetica,sans-Serif" font-size="10.00">Internal Variables</text>
</a>
</g>
</g>
<!-- Node2&#45;&gt;Node1 -->
<g id="edge1" class="edge">
<title>Node2&#45;&gt;Node1</title>
<path fill="none" stroke="black" d="M102.24,-20.5C110.69,-20.5 119.42,-20.5 127.92,-20.5"/>
<polygon fill="black" stroke="black" points="102.13,-17 92.13,-20.5 102.13,-24 102.13,-17"/>
</g>
</g>
</svg>
