<?xml version="1.0" encoding="UTF-8" standalone="no"?>
<!DOCTYPE svg PUBLIC "-//W3C//DTD SVG 1.1//EN"
 "http://www.w3.org/Graphics/SVG/1.1/DTD/svg11.dtd">
<!-- Generated by graphviz version 2.49.3 (20211027.1534)
 -->
<!-- Title: dforce Pages: 1 -->
<svg width="578pt" height="438pt"
 viewBox="0.00 0.00 578.32 438.00" xmlns="http://www.w3.org/2000/svg" xmlns:xlink="http://www.w3.org/1999/xlink">
<g id="graph0" class="graph" transform="scale(1 1) rotate(0) translate(4 434)">
<title>dforce</title>
<polygon fill="white" stroke="transparent" points="-4,4 -4,-434 574.32,-434 574.32,4 -4,4"/>
<!-- Node1 -->
<g id="node1" class="node">
<title>Node1</title>
<g id="a_node1"><a xlink:title="Calculates , where &#160;and , and .">
<polygon fill="#bfbfbf" stroke="black" points="526,-198.5 526,-217.5 570,-217.5 570,-198.5 526,-198.5"/>
<text text-anchor="middle" x="548" y="-205.5" font-family="Helvetica,sans-Serif" font-size="10.00">dforce</text>
</a>
</g>
</g>
<!-- Node1&#45;&gt;Node1 -->
<g id="edge12" class="edge">
<title>Node1&#45;&gt;Node1</title>
<path fill="none" stroke="midnightblue" d="M570.32,-227.03C569.1,-232.13 561.66,-236 548,-236 526.67,-236 520.51,-226.57 529.5,-217.76"/>
<polygon fill="midnightblue" stroke="midnightblue" points="573.55,-225.67 566.5,-217.76 567.07,-228.34 573.55,-225.67"/>
</g>
<!-- Node2 -->
<g id="node2" class="node">
<title>Node2</title>
<g id="a_node2"><a xlink:href="namespaceallglobal.html#a7824bc37519fe88336534ce90ab2af16" target="_top" xlink:title=" ">
<polygon fill="white" stroke="black" points="370.5,-358.5 370.5,-377.5 484.5,-377.5 484.5,-358.5 370.5,-358.5"/>
<text text-anchor="middle" x="427.5" y="-365.5" font-family="Helvetica,sans-Serif" font-size="10.00">allglobal::check_inputs</text>
</a>
</g>
</g>
<!-- Node1&#45;&gt;Node2 -->
<g id="edge1" class="edge">
<title>Node1&#45;&gt;Node2</title>
<path fill="none" stroke="midnightblue" d="M543.73,-227.86C537.93,-257.07 523.17,-311.65 490,-344 483.6,-350.24 475.39,-354.91 467.07,-358.38"/>
<polygon fill="midnightblue" stroke="midnightblue" points="547.23,-228.14 545.59,-217.68 540.35,-226.89 547.23,-228.14"/>
</g>
<!-- Node5 -->
<g id="node5" class="node">
<title>Node5</title>
<g id="a_node5"><a xlink:href="xspech_8f90.html#a48f45478dc2c9f70ea8aa1c60ad06503" target="_top" xlink:title="This is the main &quot;driver&quot; for the physics part of SPEC.">
<polygon fill="white" stroke="black" points="168.5,-296.5 168.5,-315.5 206.5,-315.5 206.5,-296.5 168.5,-296.5"/>
<text text-anchor="middle" x="187.5" y="-303.5" font-family="Helvetica,sans-Serif" font-size="10.00">spec</text>
</a>
</g>
</g>
<!-- Node1&#45;&gt;Node5 -->
<g id="edge45" class="edge">
<title>Node1&#45;&gt;Node5</title>
<path fill="none" stroke="midnightblue" d="M522.78,-224.36C513.28,-232.27 501.82,-241.1 490,-247 391.73,-296.04 255.25,-298.47 206.61,-302.35"/>
<polygon fill="midnightblue" stroke="midnightblue" points="525.23,-226.88 530.59,-217.74 520.7,-221.54 525.23,-226.88"/>
</g>
<!-- Node8 -->
<g id="node8" class="node">
<title>Node8</title>
<g id="a_node8"><a xlink:href="group__grp__force__driver.html#gabbc245b3884ee8d8d3e2a52f25149f78" target="_top" xlink:title="Objective to be given to the Newton solver, using only function values.">
<polygon fill="white" stroke="black" points="410,-170.5 410,-189.5 445,-189.5 445,-170.5 410,-170.5"/>
<text text-anchor="middle" x="427.5" y="-177.5" font-family="Helvetica,sans-Serif" font-size="10.00">fcn1</text>
</a>
</g>
</g>
<!-- Node1&#45;&gt;Node8 -->
<g id="edge13" class="edge">
<title>Node1&#45;&gt;Node8</title>
<path fill="none" stroke="midnightblue" d="M516,-200.67C493.39,-195.33 463.63,-188.3 445.29,-183.97"/>
<polygon fill="midnightblue" stroke="midnightblue" points="515.28,-204.1 525.81,-202.99 516.89,-197.29 515.28,-204.1"/>
</g>
<!-- Node9 -->
<g id="node9" class="node">
<title>Node9</title>
<g id="a_node9"><a xlink:href="group__grp__force__driver.html#gaec14f81fbdbedafbc4189489ec8ae178" target="_top" xlink:title="Employs Newton method to find , where &#160;and &#160;is defined in dforce() .">
<polygon fill="white" stroke="black" points="281,-180.5 281,-199.5 329,-199.5 329,-180.5 281,-180.5"/>
<text text-anchor="middle" x="305" y="-187.5" font-family="Helvetica,sans-Serif" font-size="10.00">newton</text>
</a>
</g>
</g>
<!-- Node1&#45;&gt;Node9 -->
<g id="edge40" class="edge">
<title>Node1&#45;&gt;Node9</title>
<path fill="none" stroke="midnightblue" d="M515.92,-214.43C479.36,-220.87 417.05,-228.34 365,-217 349.59,-213.64 333.39,-205.88 321.87,-199.54"/>
<polygon fill="midnightblue" stroke="midnightblue" points="516.77,-217.83 525.96,-212.57 515.49,-210.95 516.77,-217.83"/>
</g>
<!-- Node10 -->
<g id="node10" class="node">
<title>Node10</title>
<g id="a_node10"><a xlink:href="group__grp__force__driver.html#ga8ccd6c7d901872702521d0a0edf95412" target="_top" xlink:title="Objective to be given to the Newton solver, using function values and derivatives.">
<polygon fill="white" stroke="black" points="29.5,-194.5 29.5,-213.5 64.5,-213.5 64.5,-194.5 29.5,-194.5"/>
<text text-anchor="middle" x="47" y="-201.5" font-family="Helvetica,sans-Serif" font-size="10.00">fcn2</text>
</a>
</g>
</g>
<!-- Node1&#45;&gt;Node10 -->
<g id="edge25" class="edge">
<title>Node1&#45;&gt;Node10</title>
<path fill="none" stroke="midnightblue" d="M532.17,-190.78C521.65,-179.94 506.51,-166.93 490,-161 339.42,-106.92 285.36,-122.74 130,-161 103.93,-167.42 76.98,-183.76 61.39,-194.35"/>
<polygon fill="midnightblue" stroke="midnightblue" points="529.62,-193.17 538.97,-198.15 534.77,-188.42 529.62,-193.17"/>
</g>
<!-- Node12 -->
<g id="node12" class="node">
<title>Node12</title>
<g id="a_node12"><a xlink:href="dfp200_8f90.html#a6aca59cf350d7b1941f8389d50945a43" target="_top" xlink:title="get LU Beltrami matrices">
<polygon fill="white" stroke="black" points="365,-94.5 365,-113.5 490,-113.5 490,-94.5 365,-94.5"/>
<text text-anchor="middle" x="427.5" y="-101.5" font-family="Helvetica,sans-Serif" font-size="10.00">get_lu_beltrami_matrices</text>
</a>
</g>
</g>
<!-- Node1&#45;&gt;Node12 -->
<g id="edge26" class="edge">
<title>Node1&#45;&gt;Node12</title>
<path fill="none" stroke="midnightblue" d="M537.95,-189.58C528.3,-171.65 511.45,-144.71 490,-128 482.13,-121.87 472.51,-117.14 463.24,-113.56"/>
<polygon fill="midnightblue" stroke="midnightblue" points="534.86,-191.22 542.56,-198.5 541.07,-188.01 534.86,-191.22"/>
</g>
<!-- Node17 -->
<g id="node17" class="node">
<title>Node17</title>
<g id="a_node17"><a xlink:href="group__grp__output.html#ga7401b50ec10c6598ee4a8112717a63ec" target="_top" xlink:title="Computes eigenvalues and eigenvectors of derivative matrix, &#160;and saves them to .ext....">
<polygon fill="white" stroke="black" points="282.5,-246.5 282.5,-265.5 327.5,-265.5 327.5,-246.5 282.5,-246.5"/>
<text text-anchor="middle" x="305" y="-253.5" font-family="Helvetica,sans-Serif" font-size="10.00">hesian</text>
</a>
</g>
</g>
<!-- Node1&#45;&gt;Node17 -->
<g id="edge37" class="edge">
<title>Node1&#45;&gt;Node17</title>
<path fill="none" stroke="midnightblue" d="M519.68,-221.89C510.46,-226.06 499.97,-230.25 490,-233 432.74,-248.78 362.44,-253.76 327.64,-255.31"/>
<polygon fill="midnightblue" stroke="midnightblue" points="521.2,-225.05 528.76,-217.62 518.22,-218.71 521.2,-225.05"/>
</g>
<!-- Node18 -->
<g id="node18" class="node">
<title>Node18</title>
<g id="a_node18"><a xlink:href="group__grp__conjugate__gradient.html#ga4d8415226e62a9fdb42b0fd0b464251e" target="_top" xlink:title="Returns the energy functional and it&#39;s derivatives with respect to geometry.">
<polygon fill="white" stroke="black" points="403.5,-0.5 403.5,-19.5 451.5,-19.5 451.5,-0.5 403.5,-0.5"/>
<text text-anchor="middle" x="427.5" y="-7.5" font-family="Helvetica,sans-Serif" font-size="10.00">pc00ab</text>
</a>
</g>
</g>
<!-- Node1&#45;&gt;Node18 -->
<g id="edge41" class="edge">
<title>Node1&#45;&gt;Node18</title>
<path fill="none" stroke="midnightblue" d="M543.77,-188.05C537.83,-156.39 522.63,-93.96 490,-52 479.05,-37.92 462.03,-26.81 448.67,-19.57"/>
<polygon fill="midnightblue" stroke="midnightblue" points="540.38,-188.98 545.56,-198.22 547.28,-187.77 540.38,-188.98"/>
</g>
<!-- Node3 -->
<g id="node3" class="node">
<title>Node3</title>
<g id="a_node3"><a xlink:href="xspech_8f90.html#a9fdc71dffd7c61ee4588a3f80d3ab9ce" target="_top" xlink:title="Main subroutine of SPEC.">
<polygon fill="white" stroke="black" points="281.5,-358.5 281.5,-377.5 328.5,-377.5 328.5,-358.5 281.5,-358.5"/>
<text text-anchor="middle" x="305" y="-365.5" font-family="Helvetica,sans-Serif" font-size="10.00">xspech</text>
</a>
</g>
</g>
<!-- Node2&#45;&gt;Node3 -->
<g id="edge2" class="edge">
<title>Node2&#45;&gt;Node3</title>
<path fill="none" stroke="midnightblue" d="M360.45,-368C349.06,-368 337.95,-368 328.77,-368"/>
<polygon fill="midnightblue" stroke="midnightblue" points="360.48,-371.5 370.48,-368 360.48,-364.5 360.48,-371.5"/>
</g>
<!-- Node3&#45;&gt;Node3 -->
<g id="edge11" class="edge">
<title>Node3&#45;&gt;Node3</title>
<path fill="none" stroke="midnightblue" d="M326.48,-387.4C325.05,-392.31 317.89,-396 305,-396 284.38,-396 278.42,-386.57 287.12,-377.76"/>
<polygon fill="midnightblue" stroke="midnightblue" points="329.66,-385.9 322.88,-377.76 323.1,-388.35 329.66,-385.9"/>
</g>
<!-- Node4 -->
<g id="node4" class="node">
<title>Node4</title>
<g id="a_node4"><a xlink:href="xspech_8f90.html#a1451823a7b97101a797de616250752c1" target="_top" xlink:title="Final diagnostics.">
<polygon fill="white" stroke="black" points="143,-410.5 143,-429.5 232,-429.5 232,-410.5 143,-410.5"/>
<text text-anchor="middle" x="187.5" y="-417.5" font-family="Helvetica,sans-Serif" font-size="10.00">final_diagnostics</text>
</a>
</g>
</g>
<!-- Node3&#45;&gt;Node4 -->
<g id="edge3" class="edge">
<title>Node3&#45;&gt;Node4</title>
<path fill="none" stroke="midnightblue" d="M271.96,-374.83C263.25,-378.63 253.79,-383.05 245,-387 228.09,-394.6 208.06,-402.96 196.97,-410.36"/>
<polygon fill="midnightblue" stroke="midnightblue" points="273.55,-377.96 281.41,-370.85 270.83,-371.51 273.55,-377.96"/>
</g>
<!-- Node3&#45;&gt;Node5 -->
<g id="edge5" class="edge">
<title>Node3&#45;&gt;Node5</title>
<path fill="none" stroke="midnightblue" d="M292.07,-350.64C280.63,-339.06 262.56,-325.08 245,-316 232.77,-309.68 218,-304.8 206.63,-302.83"/>
<polygon fill="midnightblue" stroke="midnightblue" points="289.55,-353.07 298.83,-358.17 294.76,-348.39 289.55,-353.07"/>
</g>
<!-- Node7 -->
<g id="node7" class="node">
<title>Node7</title>
<g id="a_node7"><a xlink:href="xspech_8f90.html#a95271e8805067f801b5d4e524d6901d4" target="_top" xlink:title="Main program of SPEC.">
<polygon fill="white" stroke="black" points="155.5,-334.5 155.5,-353.5 219.5,-353.5 219.5,-334.5 155.5,-334.5"/>
<text text-anchor="middle" x="187.5" y="-341.5" font-family="Helvetica,sans-Serif" font-size="10.00">spec_main</text>
</a>
</g>
</g>
<!-- Node3&#45;&gt;Node7 -->
<g id="edge10" class="edge">
<title>Node3&#45;&gt;Node7</title>
<path fill="none" stroke="midnightblue" d="M271.36,-361.22C255.17,-357.85 235.72,-353.81 219.73,-350.49"/>
<polygon fill="midnightblue" stroke="midnightblue" points="270.95,-364.71 281.46,-363.32 272.38,-357.85 270.95,-364.71"/>
</g>
<!-- Node4&#45;&gt;Node3 -->
<g id="edge4" class="edge">
<title>Node4&#45;&gt;Node3</title>
<path fill="none" stroke="midnightblue" d="M241.43,-406.59C242.63,-406.06 243.82,-405.53 245,-405 263.61,-396.63 285.22,-386.19 296.41,-377.6"/>
<polygon fill="midnightblue" stroke="midnightblue" points="239.85,-403.47 232.07,-410.66 242.64,-409.89 239.85,-403.47"/>
</g>
<!-- Node5&#45;&gt;Node1 -->
<g id="edge6" class="edge">
<title>Node5&#45;&gt;Node1</title>
<path fill="none" stroke="midnightblue" d="M216.73,-311.79C272.16,-315.98 397.87,-310.98 490,-265 512.69,-253.68 534.05,-231.56 542.81,-217.77"/>
<polygon fill="midnightblue" stroke="midnightblue" points="216.89,-308.29 206.61,-310.84 216.24,-315.26 216.89,-308.29"/>
</g>
<!-- Node5&#45;&gt;Node3 -->
<g id="edge9" class="edge">
<title>Node5&#45;&gt;Node3</title>
<path fill="none" stroke="midnightblue" d="M209.72,-319.51C220.59,-323.67 233.85,-328.24 245,-334 258.51,-340.98 272.32,-350.87 283.18,-358.47"/>
<polygon fill="midnightblue" stroke="midnightblue" points="210.75,-316.15 200.17,-315.61 208.11,-322.63 210.75,-316.15"/>
</g>
<!-- Node6 -->
<g id="node6" class="node">
<title>Node6</title>
<g id="a_node6"><a xlink:href="group__grp__output.html#ga0f962c09cd5d5eba99f1cba043cb3898" target="_top" xlink:title="Initialize the interface to the HDF5 library and open the output file.">
<polygon fill="white" stroke="black" points="0,-334.5 0,-353.5 94,-353.5 94,-334.5 0,-334.5"/>
<text text-anchor="middle" x="47" y="-341.5" font-family="Helvetica,sans-Serif" font-size="10.00">sphdf5::init_outfile</text>
</a>
</g>
</g>
<!-- Node5&#45;&gt;Node6 -->
<g id="edge7" class="edge">
<title>Node5&#45;&gt;Node6</title>
<path fill="none" stroke="midnightblue" d="M158.74,-313.62C136.91,-319.61 106.37,-327.98 82.89,-334.43"/>
<polygon fill="midnightblue" stroke="midnightblue" points="159.68,-316.99 168.39,-310.97 157.82,-310.24 159.68,-316.99"/>
</g>
<!-- Node6&#45;&gt;Node3 -->
<g id="edge8" class="edge">
<title>Node6&#45;&gt;Node3</title>
<path fill="none" stroke="midnightblue" d="M92.33,-355.97C104.45,-358.77 117.66,-361.41 130,-363 183.95,-369.96 248.06,-369.6 281.36,-368.78"/>
<polygon fill="midnightblue" stroke="midnightblue" points="92.98,-352.52 82.44,-353.59 91.34,-359.33 92.98,-352.52"/>
</g>
<!-- Node8&#45;&gt;Node8 -->
<g id="edge14" class="edge">
<title>Node8&#45;&gt;Node8</title>
<path fill="none" stroke="midnightblue" d="M450,-197.73C449.8,-203.46 442.3,-208 427.5,-208 405.47,-208 399.62,-197.93 409.94,-188.89"/>
<polygon fill="midnightblue" stroke="midnightblue" points="452.99,-195.91 445.06,-188.89 446.88,-199.33 452.99,-195.91"/>
</g>
<!-- Node8&#45;&gt;Node9 -->
<g id="edge15" class="edge">
<title>Node8&#45;&gt;Node9</title>
<path fill="none" stroke="midnightblue" d="M399.51,-176.5C378.38,-176.82 349.31,-179.32 329.22,-182.62"/>
<polygon fill="midnightblue" stroke="midnightblue" points="399.73,-180 409.74,-176.55 399.76,-173 399.73,-180"/>
</g>
<!-- Node9&#45;&gt;Node5 -->
<g id="edge21" class="edge">
<title>Node9&#45;&gt;Node5</title>
<path fill="none" stroke="midnightblue" d="M287.39,-207.01C275.6,-219.05 259.38,-235.57 245,-250 228.82,-266.24 209.87,-284.97 198.54,-296.13"/>
<polygon fill="midnightblue" stroke="midnightblue" points="289.94,-209.4 294.43,-199.81 284.94,-204.51 289.94,-209.4"/>
</g>
<!-- Node9&#45;&gt;Node8 -->
<g id="edge16" class="edge">
<title>Node9&#45;&gt;Node8</title>
<path fill="none" stroke="midnightblue" d="M339.52,-193.34C362.37,-192.59 391.66,-189.74 409.74,-186.24"/>
<polygon fill="midnightblue" stroke="midnightblue" points="339.15,-189.85 329.22,-193.53 339.28,-196.84 339.15,-189.85"/>
</g>
<!-- Node9&#45;&gt;Node9 -->
<g id="edge20" class="edge">
<title>Node9&#45;&gt;Node9</title>
<path fill="none" stroke="midnightblue" d="M326.48,-209.4C325.05,-214.31 317.89,-218 305,-218 284.38,-218 278.42,-208.57 287.12,-199.76"/>
<polygon fill="midnightblue" stroke="midnightblue" points="329.66,-207.9 322.88,-199.76 323.1,-210.35 329.66,-207.9"/>
</g>
<!-- Node9&#45;&gt;Node10 -->
<g id="edge17" class="edge">
<title>Node9&#45;&gt;Node10</title>
<path fill="none" stroke="midnightblue" d="M270.66,-187.12C262.31,-188.09 253.35,-189.26 245,-190 178.38,-195.9 98.62,-195.71 64.64,-199.29"/>
<polygon fill="midnightblue" stroke="midnightblue" points="271.25,-190.58 280.82,-186.04 270.51,-183.62 271.25,-190.58"/>
</g>
<!-- Node11 -->
<g id="node11" class="node">
<title>Node11</title>
<g id="a_node11"><a xlink:href="group__grp__output.html#ga382822b303cbf8c56d6f54dcb379caf2" target="_top" xlink:title="read or write force&#45;derivative matrix .ext.sp.DF">
<polygon fill="white" stroke="black" points="155,-170.5 155,-189.5 220,-189.5 220,-170.5 155,-170.5"/>
<text text-anchor="middle" x="187.5" y="-177.5" font-family="Helvetica,sans-Serif" font-size="10.00">writereadgf</text>
</a>
</g>
</g>
<!-- Node9&#45;&gt;Node11 -->
<g id="edge22" class="edge">
<title>Node9&#45;&gt;Node11</title>
<path fill="none" stroke="midnightblue" d="M270.96,-180.97C255.05,-178.8 236.05,-177.17 220.3,-176.65"/>
<polygon fill="midnightblue" stroke="midnightblue" points="270.49,-184.44 280.9,-182.47 271.54,-177.52 270.49,-184.44"/>
</g>
<!-- Node10&#45;&gt;Node9 -->
<g id="edge19" class="edge">
<title>Node10&#45;&gt;Node9</title>
<path fill="none" stroke="midnightblue" d="M74.87,-210.37C112.85,-213.69 184.36,-213.37 245,-208 260.89,-206.59 279.02,-203.62 290.93,-199.52"/>
<polygon fill="midnightblue" stroke="midnightblue" points="74.96,-206.86 64.64,-209.28 74.22,-213.82 74.96,-206.86"/>
</g>
<!-- Node10&#45;&gt;Node10 -->
<g id="edge18" class="edge">
<title>Node10&#45;&gt;Node10</title>
<path fill="none" stroke="midnightblue" d="M72.47,-218.41C76,-225.59 67.51,-232 47,-232 19.66,-232 13.67,-220.61 29.06,-211.17"/>
<polygon fill="midnightblue" stroke="midnightblue" points="74.58,-215.58 64.94,-211.17 69.73,-220.62 74.58,-215.58"/>
</g>
<!-- Node11&#45;&gt;Node9 -->
<g id="edge24" class="edge">
<title>Node11&#45;&gt;Node9</title>
<path fill="none" stroke="midnightblue" d="M230.57,-190.17C247.56,-192.14 266.51,-193.45 280.9,-193.53"/>
<polygon fill="midnightblue" stroke="midnightblue" points="230.67,-186.65 220.3,-188.86 229.78,-193.59 230.67,-186.65"/>
</g>
<!-- Node11&#45;&gt;Node10 -->
<g id="edge23" class="edge">
<title>Node11&#45;&gt;Node10</title>
<path fill="none" stroke="midnightblue" d="M144.76,-187.23C117.8,-191.9 84.2,-197.73 64.52,-201.14"/>
<polygon fill="midnightblue" stroke="midnightblue" points="145.47,-190.66 154.73,-185.51 144.27,-183.76 145.47,-190.66"/>
</g>
<!-- Node13 -->
<g id="node13" class="node">
<title>Node13</title>
<g id="a_node13"><a xlink:href="dfp200_8f90.html#a55ea75395f8c71731451e1add3720c7e" target="_top" xlink:title="Given the field consistent with the constraints and the geometry, computes local quantites related to...">
<polygon fill="white" stroke="black" points="282,-56.5 282,-75.5 328,-75.5 328,-56.5 282,-56.5"/>
<text text-anchor="middle" x="305" y="-63.5" font-family="Helvetica,sans-Serif" font-size="10.00">dfp200</text>
</a>
</g>
</g>
<!-- Node12&#45;&gt;Node13 -->
<g id="edge27" class="edge">
<title>Node12&#45;&gt;Node13</title>
<path fill="none" stroke="midnightblue" d="M401.27,-90.43C379.71,-82.04 348.99,-72.43 328.32,-67.66"/>
<polygon fill="midnightblue" stroke="midnightblue" points="400.17,-93.76 410.75,-94.3 402.81,-87.28 400.17,-93.76"/>
</g>
<!-- Node13&#45;&gt;Node1 -->
<g id="edge28" class="edge">
<title>Node13&#45;&gt;Node1</title>
<path fill="none" stroke="midnightblue" d="M338.4,-60.37C377.99,-55.35 445.22,-53.04 490,-85 529.08,-112.89 542.07,-174.44 545.74,-198.29"/>
<polygon fill="midnightblue" stroke="midnightblue" points="337.66,-56.94 328.24,-61.79 338.63,-63.87 337.66,-56.94"/>
</g>
<!-- Node13&#45;&gt;Node12 -->
<g id="edge34" class="edge">
<title>Node13&#45;&gt;Node12</title>
<path fill="none" stroke="midnightblue" d="M330.78,-79.39C343.58,-84.39 359.7,-89.85 375.05,-94.46"/>
<polygon fill="midnightblue" stroke="midnightblue" points="331.88,-76.06 321.3,-75.5 329.22,-82.54 331.88,-76.06"/>
</g>
<!-- Node13&#45;&gt;Node13 -->
<g id="edge29" class="edge">
<title>Node13&#45;&gt;Node13</title>
<path fill="none" stroke="midnightblue" d="M326.48,-85.4C325.05,-90.31 317.89,-94 305,-94 284.38,-94 278.42,-84.57 287.12,-75.76"/>
<polygon fill="midnightblue" stroke="midnightblue" points="329.66,-83.9 322.88,-75.76 323.1,-86.35 329.66,-83.9"/>
</g>
<!-- Node14 -->
<g id="node14" class="node">
<title>Node14</title>
<g id="a_node14"><a xlink:href="dfp200_8f90.html#a7b64c7392b45d0042d8bd7379c0761a5" target="_top" xlink:title="Evaluate the derivative of the square of the magnetic field modulus. Add spectral constraint derivati...">
<polygon fill="white" stroke="black" points="150.5,-94.5 150.5,-113.5 224.5,-113.5 224.5,-94.5 150.5,-94.5"/>
<text text-anchor="middle" x="187.5" y="-101.5" font-family="Helvetica,sans-Serif" font-size="10.00">evaluate_dbb</text>
</a>
</g>
</g>
<!-- Node13&#45;&gt;Node14 -->
<g id="edge30" class="edge">
<title>Node13&#45;&gt;Node14</title>
<path fill="none" stroke="midnightblue" d="M271.95,-70.43C249.52,-76.63 220.6,-86.61 203.36,-94.41"/>
<polygon fill="midnightblue" stroke="midnightblue" points="272.94,-73.79 281.73,-67.87 271.17,-67.01 272.94,-73.79"/>
</g>
<!-- Node15 -->
<g id="node15" class="node">
<title>Node15</title>
<g id="a_node15"><a xlink:href="dfp200_8f90.html#a73ddf39ecc5228201fb643779e17cd36" target="_top" xlink:title="Evaluate mu and psip derivatives and store them in dmupfdx.">
<polygon fill="white" stroke="black" points="140,-56.5 140,-75.5 235,-75.5 235,-56.5 140,-56.5"/>
<text text-anchor="middle" x="187.5" y="-63.5" font-family="Helvetica,sans-Serif" font-size="10.00">evaluate_dmupfdx</text>
</a>
</g>
</g>
<!-- Node13&#45;&gt;Node15 -->
<g id="edge32" class="edge">
<title>Node13&#45;&gt;Node15</title>
<path fill="none" stroke="midnightblue" d="M271.47,-59.86C260.18,-59.28 247.28,-59.11 235.08,-59.36"/>
<polygon fill="midnightblue" stroke="midnightblue" points="271.52,-63.37 281.73,-60.54 271.99,-56.38 271.52,-63.37"/>
</g>
<!-- Node16 -->
<g id="node16" class="node">
<title>Node16</title>
<g id="a_node16"><a xlink:href="dfp200_8f90.html#a5e56f1f4b1e6df11a9cffa6237c37469" target="_top" xlink:title="This routine evaluates the value of the magnetic field once the interface is perturbed using matrix p...">
<polygon fill="white" stroke="black" points="130,-18.5 130,-37.5 245,-37.5 245,-18.5 130,-18.5"/>
<text text-anchor="middle" x="187.5" y="-25.5" font-family="Helvetica,sans-Serif" font-size="10.00">get_perturbed_solution</text>
</a>
</g>
</g>
<!-- Node13&#45;&gt;Node16 -->
<g id="edge35" class="edge">
<title>Node13&#45;&gt;Node16</title>
<path fill="none" stroke="midnightblue" d="M279.49,-52.3C267.37,-47.39 252.29,-42.08 237.9,-37.57"/>
<polygon fill="midnightblue" stroke="midnightblue" points="278.33,-55.61 288.9,-56.3 281.07,-49.17 278.33,-55.61"/>
</g>
<!-- Node14&#45;&gt;Node13 -->
<g id="edge31" class="edge">
<title>Node14&#45;&gt;Node13</title>
<path fill="none" stroke="midnightblue" d="M234.59,-95.46C253.93,-89.52 275.09,-81.92 288.9,-75.7"/>
<polygon fill="midnightblue" stroke="midnightblue" points="233.57,-92.11 224.99,-98.32 235.57,-98.82 233.57,-92.11"/>
</g>
<!-- Node15&#45;&gt;Node13 -->
<g id="edge33" class="edge">
<title>Node15&#45;&gt;Node13</title>
<path fill="none" stroke="midnightblue" d="M245.38,-72.75C258.3,-72.77 271.28,-72.34 281.73,-71.46"/>
<polygon fill="midnightblue" stroke="midnightblue" points="245.12,-69.25 235.08,-72.64 245.04,-76.25 245.12,-69.25"/>
</g>
<!-- Node16&#45;&gt;Node13 -->
<g id="edge36" class="edge">
<title>Node16&#45;&gt;Node13</title>
<path fill="none" stroke="midnightblue" d="M212.59,-41.53C232.96,-49.81 261.9,-59.28 281.73,-64.13"/>
<polygon fill="midnightblue" stroke="midnightblue" points="213.93,-38.3 203.36,-37.59 211.19,-44.74 213.93,-38.3"/>
</g>
<!-- Node17&#45;&gt;Node5 -->
<g id="edge39" class="edge">
<title>Node17&#45;&gt;Node5</title>
<path fill="none" stroke="midnightblue" d="M273.03,-269.41C251.84,-278.58 224.47,-290.43 206.71,-298.12"/>
<polygon fill="midnightblue" stroke="midnightblue" points="274.49,-272.59 282.28,-265.4 271.71,-266.17 274.49,-272.59"/>
</g>
<!-- Node17&#45;&gt;Node17 -->
<g id="edge38" class="edge">
<title>Node17&#45;&gt;Node17</title>
<path fill="none" stroke="midnightblue" d="M326.48,-275.4C325.05,-280.31 317.89,-284 305,-284 284.38,-284 278.42,-274.57 287.12,-265.76"/>
<polygon fill="midnightblue" stroke="midnightblue" points="329.66,-273.9 322.88,-265.76 323.1,-276.35 329.66,-273.9"/>
</g>
<!-- Node18&#45;&gt;Node18 -->
<g id="edge44" class="edge">
<title>Node18&#45;&gt;Node18</title>
<path fill="none" stroke="midnightblue" d="M449.82,-29.03C448.6,-34.13 441.16,-38 427.5,-38 406.17,-38 400.01,-28.57 409,-19.76"/>
<polygon fill="midnightblue" stroke="midnightblue" points="453.05,-27.67 446,-19.76 446.57,-30.34 453.05,-27.67"/>
</g>
<!-- Node19 -->
<g id="node19" class="node">
<title>Node19</title>
<g id="a_node19"><a xlink:href="group__grp__conjugate__gradient.html#ga25a3bae2ff2ee0469b045de0d033398b" target="_top" xlink:title="Use preconditioned conjugate gradient method to find minimum of energy functional.">
<polygon fill="white" stroke="black" points="281,-0.5 281,-19.5 329,-19.5 329,-0.5 281,-0.5"/>
<text text-anchor="middle" x="305" y="-7.5" font-family="Helvetica,sans-Serif" font-size="10.00">pc00aa</text>
</a>
</g>
</g>
<!-- Node18&#45;&gt;Node19 -->
<g id="edge42" class="edge">
<title>Node18&#45;&gt;Node19</title>
<path fill="none" stroke="midnightblue" d="M393.16,-10C372.81,-10 347.31,-10 329.16,-10"/>
<polygon fill="midnightblue" stroke="midnightblue" points="393.27,-13.5 403.27,-10 393.27,-6.5 393.27,-13.5"/>
</g>
<!-- Node19&#45;&gt;Node19 -->
<g id="edge43" class="edge">
<title>Node19&#45;&gt;Node19</title>
<path fill="none" stroke="midnightblue" d="M326.48,-29.4C325.05,-34.31 317.89,-38 305,-38 284.38,-38 278.42,-28.57 287.12,-19.76"/>
<polygon fill="midnightblue" stroke="midnightblue" points="329.66,-27.9 322.88,-19.76 323.1,-30.35 329.66,-27.9"/>
</g>
</g>
</svg>
