<?xml version="1.0" encoding="UTF-8" standalone="no"?>
<!DOCTYPE svg PUBLIC "-//W3C//DTD SVG 1.1//EN"
 "http://www.w3.org/Graphics/SVG/1.1/DTD/svg11.dtd">
<!-- Generated by graphviz version 2.49.3 (20211027.1534)
 -->
<!-- Title: metrix Pages: 1 -->
<svg width="826pt" height="536pt"
 viewBox="0.00 0.00 826.00 536.00" xmlns="http://www.w3.org/2000/svg" xmlns:xlink="http://www.w3.org/1999/xlink">
<g id="graph0" class="graph" transform="scale(1 1) rotate(0) translate(4 532)">
<title>metrix</title>
<polygon fill="white" stroke="transparent" points="-4,4 -4,-532 822,-532 822,4 -4,4"/>
<!-- Node1 -->
<g id="node1" class="node">
<title>Node1</title>
<g id="a_node1"><a xlink:title="Calculates the metric quantities, , which are required for the energy and helicity integrals.">
<polygon fill="#bfbfbf" stroke="black" points="775,-71.5 775,-90.5 818,-90.5 818,-71.5 775,-71.5"/>
<text text-anchor="middle" x="796.5" y="-78.5" font-family="Helvetica,sans-Serif" font-size="10.00">metrix</text>
</a>
</g>
</g>
<!-- Node1&#45;&gt;Node1 -->
<g id="edge53" class="edge">
<title>Node1&#45;&gt;Node1</title>
<path fill="none" stroke="midnightblue" d="M811.6,-100.77C810.41,-105.5 805.38,-109 796.5,-109 781.93,-109 777.71,-99.57 783.86,-90.76"/>
<polygon fill="midnightblue" stroke="midnightblue" points="814.93,-99.63 809.14,-90.76 808.13,-101.3 814.93,-99.63"/>
</g>
<!-- Node2 -->
<g id="node2" class="node">
<title>Node2</title>
<g id="a_node2"><a xlink:href="group__grp__integrals.html#ga400af9e33dd5465ff9a4bba9fbf91108" target="_top" xlink:title="Calculates volume integrals of Chebyshev polynomials and metric element products.">
<polygon fill="white" stroke="black" points="688,-71.5 688,-90.5 739,-90.5 739,-71.5 688,-71.5"/>
<text text-anchor="middle" x="713.5" y="-78.5" font-family="Helvetica,sans-Serif" font-size="10.00">ma00aa</text>
</a>
</g>
</g>
<!-- Node1&#45;&gt;Node2 -->
<g id="edge1" class="edge">
<title>Node1&#45;&gt;Node2</title>
<path fill="none" stroke="midnightblue" d="M764.41,-81C756,-81 747.02,-81 739.03,-81"/>
<polygon fill="midnightblue" stroke="midnightblue" points="764.64,-84.5 774.64,-81 764.64,-77.5 764.64,-84.5"/>
</g>
<!-- Node2&#45;&gt;Node2 -->
<g id="edge52" class="edge">
<title>Node2&#45;&gt;Node2</title>
<path fill="none" stroke="midnightblue" d="M728.6,-100.77C727.41,-105.5 722.38,-109 713.5,-109 698.93,-109 694.71,-99.57 700.86,-90.76"/>
<polygon fill="midnightblue" stroke="midnightblue" points="731.93,-99.63 726.14,-90.76 725.13,-101.3 731.93,-99.63"/>
</g>
<!-- Node3 -->
<g id="node3" class="node">
<title>Node3</title>
<g id="a_node3"><a xlink:href="dfp100_8f90.html#a17a3ac15cc83994394f7b4cc05e5898e" target="_top" xlink:title="Split the work between MPI nodes and evaluate the global constraint.">
<polygon fill="white" stroke="black" points="606,-94.5 606,-113.5 652,-113.5 652,-94.5 606,-94.5"/>
<text text-anchor="middle" x="629" y="-101.5" font-family="Helvetica,sans-Serif" font-size="10.00">dfp100</text>
</a>
</g>
</g>
<!-- Node2&#45;&gt;Node3 -->
<g id="edge2" class="edge">
<title>Node2&#45;&gt;Node3</title>
<path fill="none" stroke="midnightblue" d="M677.84,-90.66C669.17,-93.08 660.09,-95.61 652.21,-97.81"/>
<polygon fill="midnightblue" stroke="midnightblue" points="679.05,-93.96 687.75,-87.9 677.17,-87.21 679.05,-93.96"/>
</g>
<!-- Node15 -->
<g id="node15" class="node">
<title>Node15</title>
<g id="a_node15"><a xlink:href="dfp200_8f90.html#a6aca59cf350d7b1941f8389d50945a43" target="_top" xlink:title="get LU Beltrami matrices">
<polygon fill="white" stroke="black" points="365,-43.5 365,-62.5 490,-62.5 490,-43.5 365,-43.5"/>
<text text-anchor="middle" x="427.5" y="-50.5" font-family="Helvetica,sans-Serif" font-size="10.00">get_lu_beltrami_matrices</text>
</a>
</g>
</g>
<!-- Node2&#45;&gt;Node15 -->
<g id="edge51" class="edge">
<title>Node2&#45;&gt;Node15</title>
<path fill="none" stroke="midnightblue" d="M677.58,-77.56C630.9,-72.95 547.38,-64.72 490.02,-59.07"/>
<polygon fill="midnightblue" stroke="midnightblue" points="677.5,-81.07 687.79,-78.56 678.19,-74.1 677.5,-81.07"/>
</g>
<!-- Node3&#45;&gt;Node3 -->
<g id="edge49" class="edge">
<title>Node3&#45;&gt;Node3</title>
<path fill="none" stroke="midnightblue" d="M643.73,-123.77C642.58,-128.5 637.66,-132 629,-132 614.78,-132 610.67,-122.57 616.67,-113.76"/>
<polygon fill="midnightblue" stroke="midnightblue" points="647.07,-122.66 641.33,-113.76 640.26,-124.3 647.07,-122.66"/>
</g>
<!-- Node4 -->
<g id="node4" class="node">
<title>Node4</title>
<g id="a_node4"><a xlink:href="group__grp__global__force.html#ga38c9d3c50bd043707fefa5137c9dbf44" target="_top" xlink:title="Calculates , where &#160;and , and .">
<polygon fill="white" stroke="black" points="526,-264.5 526,-283.5 570,-283.5 570,-264.5 526,-264.5"/>
<text text-anchor="middle" x="548" y="-271.5" font-family="Helvetica,sans-Serif" font-size="10.00">dforce</text>
</a>
</g>
</g>
<!-- Node3&#45;&gt;Node4 -->
<g id="edge3" class="edge">
<title>Node3&#45;&gt;Node4</title>
<path fill="none" stroke="midnightblue" d="M619.13,-123.09C602.24,-159.43 566.02,-237.38 553.42,-264.48"/>
<polygon fill="midnightblue" stroke="midnightblue" points="622.49,-124.17 623.53,-113.63 616.14,-121.22 622.49,-124.17"/>
</g>
<!-- Node18 -->
<g id="node18" class="node">
<title>Node18</title>
<g id="a_node18"><a xlink:href="dfp200_8f90.html#a73ddf39ecc5228201fb643779e17cd36" target="_top" xlink:title="Evaluate mu and psip derivatives and store them in dmupfdx.">
<polygon fill="white" stroke="black" points="140,-76.5 140,-95.5 235,-95.5 235,-76.5 140,-76.5"/>
<text text-anchor="middle" x="187.5" y="-83.5" font-family="Helvetica,sans-Serif" font-size="10.00">evaluate_dmupfdx</text>
</a>
</g>
</g>
<!-- Node3&#45;&gt;Node18 -->
<g id="edge50" class="edge">
<title>Node3&#45;&gt;Node18</title>
<path fill="none" stroke="midnightblue" d="M595.88,-102.68C519.17,-99.54 325.02,-91.59 235.29,-87.92"/>
<polygon fill="midnightblue" stroke="midnightblue" points="595.77,-106.18 605.9,-103.1 596.06,-99.19 595.77,-106.18"/>
</g>
<!-- Node4&#45;&gt;Node4 -->
<g id="edge15" class="edge">
<title>Node4&#45;&gt;Node4</title>
<path fill="none" stroke="midnightblue" d="M562.73,-293.77C561.58,-298.5 556.66,-302 548,-302 533.78,-302 529.67,-292.57 535.67,-283.76"/>
<polygon fill="midnightblue" stroke="midnightblue" points="566.07,-292.66 560.33,-283.76 559.26,-294.3 566.07,-292.66"/>
</g>
<!-- Node5 -->
<g id="node5" class="node">
<title>Node5</title>
<g id="a_node5"><a xlink:href="namespaceallglobal.html#a7824bc37519fe88336534ce90ab2af16" target="_top" xlink:title=" ">
<polygon fill="white" stroke="black" points="370.5,-470.5 370.5,-489.5 484.5,-489.5 484.5,-470.5 370.5,-470.5"/>
<text text-anchor="middle" x="427.5" y="-477.5" font-family="Helvetica,sans-Serif" font-size="10.00">allglobal::check_inputs</text>
</a>
</g>
</g>
<!-- Node4&#45;&gt;Node5 -->
<g id="edge4" class="edge">
<title>Node4&#45;&gt;Node5</title>
<path fill="none" stroke="midnightblue" d="M546.74,-293.95C545.15,-331.85 536.24,-414.59 490,-461 486.14,-464.88 481.5,-467.97 476.52,-470.43"/>
<polygon fill="midnightblue" stroke="midnightblue" points="550.25,-293.82 547.03,-283.72 543.25,-293.62 550.25,-293.82"/>
</g>
<!-- Node8 -->
<g id="node8" class="node">
<title>Node8</title>
<g id="a_node8"><a xlink:href="xspech_8f90.html#a48f45478dc2c9f70ea8aa1c60ad06503" target="_top" xlink:title="This is the main &quot;driver&quot; for the physics part of SPEC.">
<polygon fill="white" stroke="black" points="168.5,-367.5 168.5,-386.5 206.5,-386.5 206.5,-367.5 168.5,-367.5"/>
<text text-anchor="middle" x="187.5" y="-374.5" font-family="Helvetica,sans-Serif" font-size="10.00">spec</text>
</a>
</g>
</g>
<!-- Node4&#45;&gt;Node8 -->
<g id="edge48" class="edge">
<title>Node4&#45;&gt;Node8</title>
<path fill="none" stroke="midnightblue" d="M517.22,-286.7C508.73,-291.74 499.26,-297.08 490,-301 388.04,-344.17 254.39,-361.29 206.52,-371.02"/>
<polygon fill="midnightblue" stroke="midnightblue" points="519.21,-289.59 525.99,-281.45 515.61,-283.59 519.21,-289.59"/>
</g>
<!-- Node11 -->
<g id="node11" class="node">
<title>Node11</title>
<g id="a_node11"><a xlink:href="group__grp__force__driver.html#gabbc245b3884ee8d8d3e2a52f25149f78" target="_top" xlink:title="Objective to be given to the Newton solver, using only function values.">
<polygon fill="white" stroke="black" points="410,-208.5 410,-227.5 445,-227.5 445,-208.5 410,-208.5"/>
<text text-anchor="middle" x="427.5" y="-215.5" font-family="Helvetica,sans-Serif" font-size="10.00">fcn1</text>
</a>
</g>
</g>
<!-- Node4&#45;&gt;Node11 -->
<g id="edge16" class="edge">
<title>Node4&#45;&gt;Node11</title>
<path fill="none" stroke="midnightblue" d="M517.39,-260.01C494.58,-249.23 463.87,-234.72 445.17,-225.88"/>
<polygon fill="midnightblue" stroke="midnightblue" points="516.09,-263.26 526.63,-264.37 519.08,-256.94 516.09,-263.26"/>
</g>
<!-- Node12 -->
<g id="node12" class="node">
<title>Node12</title>
<g id="a_node12"><a xlink:href="group__grp__force__driver.html#gaec14f81fbdbedafbc4189489ec8ae178" target="_top" xlink:title="Employs Newton method to find , where &#160;and &#160;is defined in dforce() .">
<polygon fill="white" stroke="black" points="281,-208.5 281,-227.5 329,-227.5 329,-208.5 281,-208.5"/>
<text text-anchor="middle" x="305" y="-215.5" font-family="Helvetica,sans-Serif" font-size="10.00">newton</text>
</a>
</g>
</g>
<!-- Node4&#45;&gt;Node12 -->
<g id="edge43" class="edge">
<title>Node4&#45;&gt;Node12</title>
<path fill="none" stroke="midnightblue" d="M538.91,-255.28C529.91,-237.12 513.49,-210.65 490,-199 436.63,-172.53 364,-194.4 328.04,-208.45"/>
<polygon fill="midnightblue" stroke="midnightblue" points="535.74,-256.78 543.14,-264.37 542.09,-253.83 535.74,-256.78"/>
</g>
<!-- Node13 -->
<g id="node13" class="node">
<title>Node13</title>
<g id="a_node13"><a xlink:href="group__grp__force__driver.html#ga8ccd6c7d901872702521d0a0edf95412" target="_top" xlink:title="Objective to be given to the Newton solver, using function values and derivatives.">
<polygon fill="white" stroke="black" points="29.5,-203.5 29.5,-222.5 64.5,-222.5 64.5,-203.5 29.5,-203.5"/>
<text text-anchor="middle" x="47" y="-210.5" font-family="Helvetica,sans-Serif" font-size="10.00">fcn2</text>
</a>
</g>
</g>
<!-- Node4&#45;&gt;Node13 -->
<g id="edge28" class="edge">
<title>Node4&#45;&gt;Node13</title>
<path fill="none" stroke="midnightblue" d="M515.71,-277.03C445.36,-282.89 269.91,-292.14 130,-255 104.49,-248.23 77.8,-232.74 62.05,-222.58"/>
<polygon fill="midnightblue" stroke="midnightblue" points="516.04,-280.52 525.69,-276.16 515.43,-273.54 516.04,-280.52"/>
</g>
<!-- Node4&#45;&gt;Node15 -->
<g id="edge29" class="edge">
<title>Node4&#45;&gt;Node15</title>
<path fill="none" stroke="midnightblue" d="M541.58,-254.64C533.05,-225.82 514.86,-170.48 490,-128 475.03,-102.42 451.58,-76.56 438.38,-62.9"/>
<polygon fill="midnightblue" stroke="midnightblue" points="538.23,-255.67 544.37,-264.31 544.96,-253.73 538.23,-255.67"/>
</g>
<!-- Node20 -->
<g id="node20" class="node">
<title>Node20</title>
<g id="a_node20"><a xlink:href="group__grp__output.html#ga7401b50ec10c6598ee4a8112717a63ec" target="_top" xlink:title="Computes eigenvalues and eigenvectors of derivative matrix, &#160;and saves them to .ext....">
<polygon fill="white" stroke="black" points="282.5,-302.5 282.5,-321.5 327.5,-321.5 327.5,-302.5 282.5,-302.5"/>
<text text-anchor="middle" x="305" y="-309.5" font-family="Helvetica,sans-Serif" font-size="10.00">hesian</text>
</a>
</g>
</g>
<!-- Node4&#45;&gt;Node20 -->
<g id="edge40" class="edge">
<title>Node4&#45;&gt;Node20</title>
<path fill="none" stroke="midnightblue" d="M515.96,-282.29C507.57,-284.34 498.47,-286.41 490,-288 431.74,-298.92 362.17,-306.54 327.65,-309.96"/>
<polygon fill="midnightblue" stroke="midnightblue" points="516.9,-285.66 525.74,-279.82 515.19,-278.87 516.9,-285.66"/>
</g>
<!-- Node21 -->
<g id="node21" class="node">
<title>Node21</title>
<g id="a_node21"><a xlink:href="group__grp__conjugate__gradient.html#ga4d8415226e62a9fdb42b0fd0b464251e" target="_top" xlink:title="Returns the energy functional and it&#39;s derivatives with respect to geometry.">
<polygon fill="white" stroke="black" points="403.5,-414.5 403.5,-433.5 451.5,-433.5 451.5,-414.5 403.5,-414.5"/>
<text text-anchor="middle" x="427.5" y="-421.5" font-family="Helvetica,sans-Serif" font-size="10.00">pc00ab</text>
</a>
</g>
</g>
<!-- Node4&#45;&gt;Node21 -->
<g id="edge44" class="edge">
<title>Node4&#45;&gt;Node21</title>
<path fill="none" stroke="midnightblue" d="M543.03,-293.58C536.52,-320.93 521.08,-370.52 490,-400 479.44,-410.02 464.22,-416 451.57,-419.49"/>
<polygon fill="midnightblue" stroke="midnightblue" points="546.48,-294.17 545.23,-283.65 539.65,-292.66 546.48,-294.17"/>
</g>
<!-- Node6 -->
<g id="node6" class="node">
<title>Node6</title>
<g id="a_node6"><a xlink:href="xspech_8f90.html#a9fdc71dffd7c61ee4588a3f80d3ab9ce" target="_top" xlink:title="Main subroutine of SPEC.">
<polygon fill="white" stroke="black" points="281.5,-470.5 281.5,-489.5 328.5,-489.5 328.5,-470.5 281.5,-470.5"/>
<text text-anchor="middle" x="305" y="-477.5" font-family="Helvetica,sans-Serif" font-size="10.00">xspech</text>
</a>
</g>
</g>
<!-- Node5&#45;&gt;Node6 -->
<g id="edge5" class="edge">
<title>Node5&#45;&gt;Node6</title>
<path fill="none" stroke="midnightblue" d="M360.45,-480C349.06,-480 337.95,-480 328.77,-480"/>
<polygon fill="midnightblue" stroke="midnightblue" points="360.48,-483.5 370.48,-480 360.48,-476.5 360.48,-483.5"/>
</g>
<!-- Node6&#45;&gt;Node6 -->
<g id="edge14" class="edge">
<title>Node6&#45;&gt;Node6</title>
<path fill="none" stroke="midnightblue" d="M326.48,-499.4C325.05,-504.31 317.89,-508 305,-508 284.38,-508 278.42,-498.57 287.12,-489.76"/>
<polygon fill="midnightblue" stroke="midnightblue" points="329.66,-497.9 322.88,-489.76 323.1,-500.35 329.66,-497.9"/>
</g>
<!-- Node7 -->
<g id="node7" class="node">
<title>Node7</title>
<g id="a_node7"><a xlink:href="xspech_8f90.html#a1451823a7b97101a797de616250752c1" target="_top" xlink:title="Final diagnostics.">
<polygon fill="white" stroke="black" points="143,-470.5 143,-489.5 232,-489.5 232,-470.5 143,-470.5"/>
<text text-anchor="middle" x="187.5" y="-477.5" font-family="Helvetica,sans-Serif" font-size="10.00">final_diagnostics</text>
</a>
</g>
</g>
<!-- Node6&#45;&gt;Node7 -->
<g id="edge6" class="edge">
<title>Node6&#45;&gt;Node7</title>
<path fill="none" stroke="midnightblue" d="M271.29,-473.85C259.09,-473.23 245.05,-473.09 232.04,-473.44"/>
<polygon fill="midnightblue" stroke="midnightblue" points="271.25,-477.35 281.46,-474.52 271.71,-470.37 271.25,-477.35"/>
</g>
<!-- Node6&#45;&gt;Node8 -->
<g id="edge8" class="edge">
<title>Node6&#45;&gt;Node8</title>
<path fill="none" stroke="midnightblue" d="M292.5,-462.81C288.69,-459.23 284.52,-455.61 281,-452 262.89,-433.4 264.01,-423.68 245,-406 233.32,-395.13 218.24,-385.16 206.6,-379.48"/>
<polygon fill="midnightblue" stroke="midnightblue" points="290.07,-465.33 299.52,-470.13 295.12,-460.49 290.07,-465.33"/>
</g>
<!-- Node10 -->
<g id="node10" class="node">
<title>Node10</title>
<g id="a_node10"><a xlink:href="xspech_8f90.html#a95271e8805067f801b5d4e524d6901d4" target="_top" xlink:title="Main program of SPEC.">
<polygon fill="white" stroke="black" points="155.5,-508.5 155.5,-527.5 219.5,-527.5 219.5,-508.5 155.5,-508.5"/>
<text text-anchor="middle" x="187.5" y="-515.5" font-family="Helvetica,sans-Serif" font-size="10.00">spec_main</text>
</a>
</g>
</g>
<!-- Node6&#45;&gt;Node10 -->
<g id="edge13" class="edge">
<title>Node6&#45;&gt;Node10</title>
<path fill="none" stroke="midnightblue" d="M271.92,-490.55C254.89,-496.16 234.12,-502.99 217.57,-508.44"/>
<polygon fill="midnightblue" stroke="midnightblue" points="273.05,-493.87 281.46,-487.42 270.86,-487.22 273.05,-493.87"/>
</g>
<!-- Node7&#45;&gt;Node6 -->
<g id="edge7" class="edge">
<title>Node7&#45;&gt;Node6</title>
<path fill="none" stroke="midnightblue" d="M242.05,-486.73C255.94,-486.84 270.15,-486.42 281.46,-485.48"/>
<polygon fill="midnightblue" stroke="midnightblue" points="242.09,-483.23 232.04,-486.56 241.98,-490.23 242.09,-483.23"/>
</g>
<!-- Node8&#45;&gt;Node4 -->
<g id="edge9" class="edge">
<title>Node8&#45;&gt;Node4</title>
<path fill="none" stroke="midnightblue" d="M216.81,-379.3C271.49,-376.97 394.61,-359.39 490,-319 510.48,-310.33 531.96,-294.7 541.67,-283.54"/>
<polygon fill="midnightblue" stroke="midnightblue" points="216.43,-375.81 206.52,-379.57 216.61,-382.81 216.43,-375.81"/>
</g>
<!-- Node8&#45;&gt;Node6 -->
<g id="edge12" class="edge">
<title>Node8&#45;&gt;Node6</title>
<path fill="none" stroke="midnightblue" d="M204.07,-393.01C215.98,-401.68 232.45,-412.32 245,-424 264.01,-441.68 262.89,-451.4 281,-470 281.14,-470.15 281.29,-470.3 281.44,-470.45"/>
<polygon fill="midnightblue" stroke="midnightblue" points="206.04,-390.11 195.99,-386.78 201.77,-395.66 206.04,-390.11"/>
</g>
<!-- Node9 -->
<g id="node9" class="node">
<title>Node9</title>
<g id="a_node9"><a xlink:href="group__grp__output.html#ga0f962c09cd5d5eba99f1cba043cb3898" target="_top" xlink:title="Initialize the interface to the HDF5 library and open the output file.">
<polygon fill="white" stroke="black" points="0,-393.5 0,-412.5 94,-412.5 94,-393.5 0,-393.5"/>
<text text-anchor="middle" x="47" y="-400.5" font-family="Helvetica,sans-Serif" font-size="10.00">sphdf5::init_outfile</text>
</a>
</g>
</g>
<!-- Node8&#45;&gt;Node9 -->
<g id="edge10" class="edge">
<title>Node8&#45;&gt;Node9</title>
<path fill="none" stroke="midnightblue" d="M158.31,-382.29C139.87,-385.75 115.36,-390.36 94.12,-394.34"/>
<polygon fill="midnightblue" stroke="midnightblue" points="159.21,-385.68 168.39,-380.4 157.92,-378.8 159.21,-385.68"/>
</g>
<!-- Node9&#45;&gt;Node6 -->
<g id="edge11" class="edge">
<title>Node9&#45;&gt;Node6</title>
<path fill="none" stroke="midnightblue" d="M91.23,-415.39C131.21,-426.92 192.23,-444.74 245,-461 257.03,-464.71 270.39,-469 281.35,-472.56"/>
<polygon fill="midnightblue" stroke="midnightblue" points="92.12,-412 81.54,-412.6 90.18,-418.73 92.12,-412"/>
</g>
<!-- Node11&#45;&gt;Node11 -->
<g id="edge17" class="edge">
<title>Node11&#45;&gt;Node11</title>
<path fill="none" stroke="midnightblue" d="M450,-235.73C449.8,-241.46 442.3,-246 427.5,-246 405.47,-246 399.62,-235.93 409.94,-226.89"/>
<polygon fill="midnightblue" stroke="midnightblue" points="452.99,-233.91 445.06,-226.89 446.88,-237.33 452.99,-233.91"/>
</g>
<!-- Node11&#45;&gt;Node12 -->
<g id="edge18" class="edge">
<title>Node11&#45;&gt;Node12</title>
<path fill="none" stroke="midnightblue" d="M399.51,-212.26C378.38,-210.82 349.31,-210.92 329.22,-212.54"/>
<polygon fill="midnightblue" stroke="midnightblue" points="399.48,-215.77 409.74,-213.16 400.09,-208.8 399.48,-215.77"/>
</g>
<!-- Node12&#45;&gt;Node8 -->
<g id="edge24" class="edge">
<title>Node12&#45;&gt;Node8</title>
<path fill="none" stroke="midnightblue" d="M290.58,-236.47C265.91,-270.44 214.13,-341.71 195.43,-367.46"/>
<polygon fill="midnightblue" stroke="midnightblue" points="293.73,-238.09 296.77,-227.95 288.07,-233.98 293.73,-238.09"/>
</g>
<!-- Node12&#45;&gt;Node11 -->
<g id="edge19" class="edge">
<title>Node12&#45;&gt;Node11</title>
<path fill="none" stroke="midnightblue" d="M339.21,-224.11C362.11,-225.27 391.58,-224.85 409.74,-222.84"/>
<polygon fill="midnightblue" stroke="midnightblue" points="339.42,-220.61 329.22,-223.46 338.97,-227.6 339.42,-220.61"/>
</g>
<!-- Node12&#45;&gt;Node12 -->
<g id="edge23" class="edge">
<title>Node12&#45;&gt;Node12</title>
<path fill="none" stroke="midnightblue" d="M326.48,-237.4C325.05,-242.31 317.89,-246 305,-246 284.38,-246 278.42,-236.57 287.12,-227.76"/>
<polygon fill="midnightblue" stroke="midnightblue" points="329.66,-235.9 322.88,-227.76 323.1,-238.35 329.66,-235.9"/>
</g>
<!-- Node12&#45;&gt;Node13 -->
<g id="edge20" class="edge">
<title>Node12&#45;&gt;Node13</title>
<path fill="none" stroke="midnightblue" d="M270.84,-212.64C215.53,-208.5 106.41,-206.76 64.72,-209.77"/>
<polygon fill="midnightblue" stroke="midnightblue" points="270.57,-216.13 280.83,-213.47 271.15,-209.15 270.57,-216.13"/>
</g>
<!-- Node14 -->
<g id="node14" class="node">
<title>Node14</title>
<g id="a_node14"><a xlink:href="group__grp__output.html#ga382822b303cbf8c56d6f54dcb379caf2" target="_top" xlink:title="read or write force&#45;derivative matrix .ext.sp.DF">
<polygon fill="white" stroke="black" points="155,-226.5 155,-245.5 220,-245.5 220,-226.5 155,-226.5"/>
<text text-anchor="middle" x="187.5" y="-233.5" font-family="Helvetica,sans-Serif" font-size="10.00">writereadgf</text>
</a>
</g>
</g>
<!-- Node12&#45;&gt;Node14 -->
<g id="edge25" class="edge">
<title>Node12&#45;&gt;Node14</title>
<path fill="none" stroke="midnightblue" d="M270.71,-217.01C252.49,-218.95 230.29,-222.57 213.56,-226.42"/>
<polygon fill="midnightblue" stroke="midnightblue" points="271.27,-220.47 280.9,-216.07 270.63,-213.5 271.27,-220.47"/>
</g>
<!-- Node13&#45;&gt;Node12 -->
<g id="edge22" class="edge">
<title>Node13&#45;&gt;Node12</title>
<path fill="none" stroke="midnightblue" d="M74.85,-217.86C125.28,-222.15 233.36,-224.17 280.83,-221.63"/>
<polygon fill="midnightblue" stroke="midnightblue" points="75.01,-214.36 64.72,-216.88 74.34,-221.33 75.01,-214.36"/>
</g>
<!-- Node13&#45;&gt;Node13 -->
<g id="edge21" class="edge">
<title>Node13&#45;&gt;Node13</title>
<path fill="none" stroke="midnightblue" d="M72.47,-227.41C76,-234.59 67.51,-241 47,-241 19.66,-241 13.67,-229.61 29.06,-220.17"/>
<polygon fill="midnightblue" stroke="midnightblue" points="74.58,-224.58 64.94,-220.17 69.73,-229.62 74.58,-224.58"/>
</g>
<!-- Node14&#45;&gt;Node12 -->
<g id="edge27" class="edge">
<title>Node14&#45;&gt;Node12</title>
<path fill="none" stroke="midnightblue" d="M230.57,-235.97C247.56,-233.82 266.51,-230.54 280.9,-227.13"/>
<polygon fill="midnightblue" stroke="midnightblue" points="229.84,-232.53 220.3,-237.15 230.64,-239.48 229.84,-232.53"/>
</g>
<!-- Node14&#45;&gt;Node13 -->
<g id="edge26" class="edge">
<title>Node14&#45;&gt;Node13</title>
<path fill="none" stroke="midnightblue" d="M144.76,-229.07C117.8,-224.59 84.2,-219.01 64.52,-215.74"/>
<polygon fill="midnightblue" stroke="midnightblue" points="144.29,-232.54 154.73,-230.72 145.43,-225.63 144.29,-232.54"/>
</g>
<!-- Node16 -->
<g id="node16" class="node">
<title>Node16</title>
<g id="a_node16"><a xlink:href="dfp200_8f90.html#a55ea75395f8c71731451e1add3720c7e" target="_top" xlink:title="Given the field consistent with the constraints and the geometry, computes local quantites related to...">
<polygon fill="white" stroke="black" points="282,-38.5 282,-57.5 328,-57.5 328,-38.5 282,-38.5"/>
<text text-anchor="middle" x="305" y="-45.5" font-family="Helvetica,sans-Serif" font-size="10.00">dfp200</text>
</a>
</g>
</g>
<!-- Node15&#45;&gt;Node16 -->
<g id="edge30" class="edge">
<title>Node15&#45;&gt;Node16</title>
<path fill="none" stroke="midnightblue" d="M354.69,-43.38C345.05,-43.17 335.82,-43.21 328.04,-43.56"/>
<polygon fill="midnightblue" stroke="midnightblue" points="354.74,-46.88 364.84,-43.69 354.95,-39.89 354.74,-46.88"/>
</g>
<!-- Node16&#45;&gt;Node4 -->
<g id="edge31" class="edge">
<title>Node16&#45;&gt;Node4</title>
<path fill="none" stroke="midnightblue" d="M332.04,-62.73C370.03,-85.12 441.39,-130.69 490,-183 514.24,-209.08 534.04,-246.9 542.53,-264.42"/>
<polygon fill="midnightblue" stroke="midnightblue" points="333.54,-59.55 323.14,-57.55 330.02,-65.6 333.54,-59.55"/>
</g>
<!-- Node16&#45;&gt;Node15 -->
<g id="edge37" class="edge">
<title>Node16&#45;&gt;Node15</title>
<path fill="none" stroke="midnightblue" d="M338.01,-55.37C346.32,-56.16 355.56,-56.78 364.84,-57.19"/>
<polygon fill="midnightblue" stroke="midnightblue" points="338.36,-51.89 328.04,-54.27 337.6,-58.85 338.36,-51.89"/>
</g>
<!-- Node16&#45;&gt;Node16 -->
<g id="edge32" class="edge">
<title>Node16&#45;&gt;Node16</title>
<path fill="none" stroke="midnightblue" d="M326.48,-67.4C325.05,-72.31 317.89,-76 305,-76 284.38,-76 278.42,-66.57 287.12,-57.76"/>
<polygon fill="midnightblue" stroke="midnightblue" points="329.66,-65.9 322.88,-57.76 323.1,-68.35 329.66,-65.9"/>
</g>
<!-- Node17 -->
<g id="node17" class="node">
<title>Node17</title>
<g id="a_node17"><a xlink:href="dfp200_8f90.html#a7b64c7392b45d0042d8bd7379c0761a5" target="_top" xlink:title="Evaluate the derivative of the square of the magnetic field modulus. Add spectral constraint derivati...">
<polygon fill="white" stroke="black" points="150.5,-0.5 150.5,-19.5 224.5,-19.5 224.5,-0.5 150.5,-0.5"/>
<text text-anchor="middle" x="187.5" y="-7.5" font-family="Helvetica,sans-Serif" font-size="10.00">evaluate_dbb</text>
</a>
</g>
</g>
<!-- Node16&#45;&gt;Node17 -->
<g id="edge33" class="edge">
<title>Node16&#45;&gt;Node17</title>
<path fill="none" stroke="midnightblue" d="M279.31,-34.23C263.49,-27.83 242.69,-20.76 224.99,-15.68"/>
<polygon fill="midnightblue" stroke="midnightblue" points="278.33,-37.61 288.9,-38.3 281.07,-31.17 278.33,-37.61"/>
</g>
<!-- Node16&#45;&gt;Node18 -->
<g id="edge35" class="edge">
<title>Node16&#45;&gt;Node18</title>
<path fill="none" stroke="midnightblue" d="M271.95,-52.43C249.52,-58.63 220.6,-68.61 203.36,-76.41"/>
<polygon fill="midnightblue" stroke="midnightblue" points="272.94,-55.79 281.73,-49.87 271.17,-49.01 272.94,-55.79"/>
</g>
<!-- Node19 -->
<g id="node19" class="node">
<title>Node19</title>
<g id="a_node19"><a xlink:href="dfp200_8f90.html#a5e56f1f4b1e6df11a9cffa6237c37469" target="_top" xlink:title="This routine evaluates the value of the magnetic field once the interface is perturbed using matrix p...">
<polygon fill="white" stroke="black" points="130,-38.5 130,-57.5 245,-57.5 245,-38.5 130,-38.5"/>
<text text-anchor="middle" x="187.5" y="-45.5" font-family="Helvetica,sans-Serif" font-size="10.00">get_perturbed_solution</text>
</a>
</g>
</g>
<!-- Node16&#45;&gt;Node19 -->
<g id="edge38" class="edge">
<title>Node16&#45;&gt;Node19</title>
<path fill="none" stroke="midnightblue" d="M271.51,-41.86C263.3,-41.44 254.25,-41.23 245.23,-41.25"/>
<polygon fill="midnightblue" stroke="midnightblue" points="271.52,-45.37 281.73,-42.54 271.99,-38.38 271.52,-45.37"/>
</g>
<!-- Node17&#45;&gt;Node16 -->
<g id="edge34" class="edge">
<title>Node17&#45;&gt;Node16</title>
<path fill="none" stroke="midnightblue" d="M212.59,-23.53C232.96,-31.81 261.9,-41.28 281.73,-46.13"/>
<polygon fill="midnightblue" stroke="midnightblue" points="213.93,-20.3 203.36,-19.59 211.19,-26.74 213.93,-20.3"/>
</g>
<!-- Node18&#45;&gt;Node16 -->
<g id="edge36" class="edge">
<title>Node18&#45;&gt;Node16</title>
<path fill="none" stroke="midnightblue" d="M244.62,-74.28C260.95,-68.96 277.45,-62.86 288.9,-57.7"/>
<polygon fill="midnightblue" stroke="midnightblue" points="243.54,-70.96 235.06,-77.32 245.65,-77.63 243.54,-70.96"/>
</g>
<!-- Node19&#45;&gt;Node16 -->
<g id="edge39" class="edge">
<title>Node19&#45;&gt;Node16</title>
<path fill="none" stroke="midnightblue" d="M255.23,-54.68C264.76,-54.52 273.95,-54.11 281.73,-53.46"/>
<polygon fill="midnightblue" stroke="midnightblue" points="255.21,-51.18 245.23,-54.75 255.26,-58.18 255.21,-51.18"/>
</g>
<!-- Node20&#45;&gt;Node8 -->
<g id="edge42" class="edge">
<title>Node20&#45;&gt;Node8</title>
<path fill="none" stroke="midnightblue" d="M278.09,-326.58C255.96,-339.04 224.75,-356.6 205.61,-367.37"/>
<polygon fill="midnightblue" stroke="midnightblue" points="279.96,-329.55 286.96,-321.59 276.53,-323.45 279.96,-329.55"/>
</g>
<!-- Node20&#45;&gt;Node20 -->
<g id="edge41" class="edge">
<title>Node20&#45;&gt;Node20</title>
<path fill="none" stroke="midnightblue" d="M326.48,-331.4C325.05,-336.31 317.89,-340 305,-340 284.38,-340 278.42,-330.57 287.12,-321.76"/>
<polygon fill="midnightblue" stroke="midnightblue" points="329.66,-329.9 322.88,-321.76 323.1,-332.35 329.66,-329.9"/>
</g>
<!-- Node21&#45;&gt;Node21 -->
<g id="edge47" class="edge">
<title>Node21&#45;&gt;Node21</title>
<path fill="none" stroke="midnightblue" d="M449.82,-443.03C448.6,-448.13 441.16,-452 427.5,-452 406.17,-452 400.01,-442.57 409,-433.76"/>
<polygon fill="midnightblue" stroke="midnightblue" points="453.05,-441.67 446,-433.76 446.57,-444.34 453.05,-441.67"/>
</g>
<!-- Node22 -->
<g id="node22" class="node">
<title>Node22</title>
<g id="a_node22"><a xlink:href="group__grp__conjugate__gradient.html#ga25a3bae2ff2ee0469b045de0d033398b" target="_top" xlink:title="Use preconditioned conjugate gradient method to find minimum of energy functional.">
<polygon fill="white" stroke="black" points="281,-414.5 281,-433.5 329,-433.5 329,-414.5 281,-414.5"/>
<text text-anchor="middle" x="305" y="-421.5" font-family="Helvetica,sans-Serif" font-size="10.00">pc00aa</text>
</a>
</g>
</g>
<!-- Node21&#45;&gt;Node22 -->
<g id="edge45" class="edge">
<title>Node21&#45;&gt;Node22</title>
<path fill="none" stroke="midnightblue" d="M393.16,-424C372.81,-424 347.31,-424 329.16,-424"/>
<polygon fill="midnightblue" stroke="midnightblue" points="393.27,-427.5 403.27,-424 393.27,-420.5 393.27,-427.5"/>
</g>
<!-- Node22&#45;&gt;Node22 -->
<g id="edge46" class="edge">
<title>Node22&#45;&gt;Node22</title>
<path fill="none" stroke="midnightblue" d="M326.48,-443.4C325.05,-448.31 317.89,-452 305,-452 284.38,-452 278.42,-442.57 287.12,-433.76"/>
<polygon fill="midnightblue" stroke="midnightblue" points="329.66,-441.9 322.88,-433.76 323.1,-444.35 329.66,-441.9"/>
</g>
</g>
</svg>
