<?xml version="1.0" encoding="UTF-8" standalone="no"?>
<!DOCTYPE svg PUBLIC "-//W3C//DTD SVG 1.1//EN"
 "http://www.w3.org/Graphics/SVG/1.1/DTD/svg11.dtd">
<!-- Generated by graphviz version 2.49.3 (20211027.1534)
 -->
<!-- Title: fcn1 Pages: 1 -->
<svg width="754pt" height="366pt"
 viewBox="0.00 0.00 754.00 366.00" xmlns="http://www.w3.org/2000/svg" xmlns:xlink="http://www.w3.org/1999/xlink">
<g id="graph0" class="graph" transform="scale(1 1) rotate(0) translate(4 362)">
<title>fcn1</title>
<polygon fill="white" stroke="transparent" points="-4,4 -4,-362 750,-362 750,4 -4,4"/>
<!-- Node1 -->
<g id="node1" class="node">
<title>Node1</title>
<g id="a_node1"><a xlink:title="Objective to be given to the Newton solver, using only function values.">
<polygon fill="#bfbfbf" stroke="black" points="711,-271.5 711,-290.5 746,-290.5 746,-271.5 711,-271.5"/>
<text text-anchor="middle" x="728.5" y="-278.5" font-family="Helvetica,sans-Serif" font-size="10.00">fcn1</text>
</a>
</g>
</g>
<!-- Node1&#45;&gt;Node1 -->
<g id="edge1" class="edge">
<title>Node1&#45;&gt;Node1</title>
<path fill="none" stroke="midnightblue" d="M742.5,-300.77C741.4,-305.5 736.73,-309 728.5,-309 714.99,-309 711.09,-299.57 716.79,-290.76"/>
<polygon fill="midnightblue" stroke="midnightblue" points="745.85,-299.73 740.21,-290.76 739.02,-301.28 745.85,-299.73"/>
</g>
<!-- Node2 -->
<g id="node2" class="node">
<title>Node2</title>
<g id="a_node2"><a xlink:href="group__grp__force__driver.html#gaec14f81fbdbedafbc4189489ec8ae178" target="_top" xlink:title="Employs Newton method to find , where &#160;and &#160;is defined in dforce() .">
<polygon fill="white" stroke="black" points="627,-271.5 627,-290.5 675,-290.5 675,-271.5 627,-271.5"/>
<text text-anchor="middle" x="651" y="-278.5" font-family="Helvetica,sans-Serif" font-size="10.00">newton</text>
</a>
</g>
</g>
<!-- Node1&#45;&gt;Node2 -->
<g id="edge2" class="edge">
<title>Node1&#45;&gt;Node2</title>
<path fill="none" stroke="midnightblue" d="M700.68,-274.51C692.29,-274.1 683.11,-274.18 675.01,-274.73"/>
<polygon fill="midnightblue" stroke="midnightblue" points="700.51,-278 710.74,-275.28 701.04,-271.03 700.51,-278"/>
</g>
<!-- Node2&#45;&gt;Node1 -->
<g id="edge3" class="edge">
<title>Node2&#45;&gt;Node1</title>
<path fill="none" stroke="midnightblue" d="M685.13,-287.7C693.99,-287.88 703.19,-287.55 710.74,-286.72"/>
<polygon fill="midnightblue" stroke="midnightblue" points="685.15,-284.2 675.01,-287.27 684.85,-291.2 685.15,-284.2"/>
</g>
<!-- Node2&#45;&gt;Node2 -->
<g id="edge7" class="edge">
<title>Node2&#45;&gt;Node2</title>
<path fill="none" stroke="midnightblue" d="M665,-300.77C663.9,-305.5 659.23,-309 651,-309 637.49,-309 633.59,-299.57 639.29,-290.76"/>
<polygon fill="midnightblue" stroke="midnightblue" points="668.35,-299.73 662.71,-290.76 661.52,-301.28 668.35,-299.73"/>
</g>
<!-- Node3 -->
<g id="node3" class="node">
<title>Node3</title>
<g id="a_node3"><a xlink:href="group__grp__force__driver.html#ga8ccd6c7d901872702521d0a0edf95412" target="_top" xlink:title="Objective to be given to the Newton solver, using function values and derivatives.">
<polygon fill="white" stroke="black" points="280,-320.5 280,-339.5 315,-339.5 315,-320.5 280,-320.5"/>
<text text-anchor="middle" x="297.5" y="-327.5" font-family="Helvetica,sans-Serif" font-size="10.00">fcn2</text>
</a>
</g>
</g>
<!-- Node2&#45;&gt;Node3 -->
<g id="edge4" class="edge">
<title>Node2&#45;&gt;Node3</title>
<path fill="none" stroke="midnightblue" d="M616.96,-284.27C608.58,-286.65 599.54,-289.21 591,-291 487.58,-312.7 360.17,-318.92 315.18,-325.27"/>
<polygon fill="midnightblue" stroke="midnightblue" points="618.08,-287.59 626.76,-281.52 616.19,-280.85 618.08,-287.59"/>
</g>
<!-- Node4 -->
<g id="node4" class="node">
<title>Node4</title>
<g id="a_node4"><a xlink:href="xspech_8f90.html#a48f45478dc2c9f70ea8aa1c60ad06503" target="_top" xlink:title="This is the main &quot;driver&quot; for the physics part of SPEC.">
<polygon fill="white" stroke="black" points="539.5,-94.5 539.5,-113.5 577.5,-113.5 577.5,-94.5 539.5,-94.5"/>
<text text-anchor="middle" x="558.5" y="-101.5" font-family="Helvetica,sans-Serif" font-size="10.00">spec</text>
</a>
</g>
</g>
<!-- Node2&#45;&gt;Node4 -->
<g id="edge8" class="edge">
<title>Node2&#45;&gt;Node4</title>
<path fill="none" stroke="midnightblue" d="M640.38,-262.19C621.2,-224.67 578.78,-141.72 564.39,-113.56"/>
<polygon fill="midnightblue" stroke="midnightblue" points="637.47,-264.17 645.13,-271.48 643.7,-260.99 637.47,-264.17"/>
</g>
<!-- Node19 -->
<g id="node19" class="node">
<title>Node19</title>
<g id="a_node19"><a xlink:href="group__grp__output.html#ga382822b303cbf8c56d6f54dcb379caf2" target="_top" xlink:title="read or write force&#45;derivative matrix .ext.sp.DF">
<polygon fill="white" stroke="black" points="526,-271.5 526,-290.5 591,-290.5 591,-271.5 526,-271.5"/>
<text text-anchor="middle" x="558.5" y="-278.5" font-family="Helvetica,sans-Serif" font-size="10.00">writereadgf</text>
</a>
</g>
</g>
<!-- Node2&#45;&gt;Node19 -->
<g id="edge43" class="edge">
<title>Node2&#45;&gt;Node19</title>
<path fill="none" stroke="midnightblue" d="M616.6,-274.46C608.31,-274.16 599.46,-274.18 591.25,-274.52"/>
<polygon fill="midnightblue" stroke="midnightblue" points="616.52,-277.96 626.69,-275.01 616.9,-270.97 616.52,-277.96"/>
</g>
<!-- Node3&#45;&gt;Node2 -->
<g id="edge6" class="edge">
<title>Node3&#45;&gt;Node2</title>
<path fill="none" stroke="midnightblue" d="M325.2,-334.26C376.98,-336.03 494.45,-329.26 591,-309 609.33,-305.15 630,-297.76 641.36,-290.59"/>
<polygon fill="midnightblue" stroke="midnightblue" points="325.34,-330.76 315.18,-333.75 324.99,-337.75 325.34,-330.76"/>
</g>
<!-- Node3&#45;&gt;Node3 -->
<g id="edge5" class="edge">
<title>Node3&#45;&gt;Node3</title>
<path fill="none" stroke="midnightblue" d="M320.37,-347.14C320.68,-353.14 313.06,-358 297.5,-358 274.86,-358 269.03,-347.72 279.99,-338.6"/>
<polygon fill="midnightblue" stroke="midnightblue" points="323.29,-345.21 315.01,-338.6 317.36,-348.93 323.29,-345.21"/>
</g>
<!-- Node5 -->
<g id="node5" class="node">
<title>Node5</title>
<g id="a_node5"><a xlink:href="group__grp__global__force.html#ga38c9d3c50bd043707fefa5137c9dbf44" target="_top" xlink:title="Calculates , where &#160;and , and .">
<polygon fill="white" stroke="black" points="421,-189.5 421,-208.5 465,-208.5 465,-189.5 421,-189.5"/>
<text text-anchor="middle" x="443" y="-196.5" font-family="Helvetica,sans-Serif" font-size="10.00">dforce</text>
</a>
</g>
</g>
<!-- Node4&#45;&gt;Node5 -->
<g id="edge9" class="edge">
<title>Node4&#45;&gt;Node5</title>
<path fill="none" stroke="midnightblue" d="M531.48,-120C505.52,-139.91 467.27,-172.67 451.36,-189.3"/>
<polygon fill="midnightblue" stroke="midnightblue" points="533.87,-122.58 539.77,-113.78 529.67,-116.98 533.87,-122.58"/>
</g>
<!-- Node7 -->
<g id="node7" class="node">
<title>Node7</title>
<g id="a_node7"><a xlink:href="xspech_8f90.html#a9fdc71dffd7c61ee4588a3f80d3ab9ce" target="_top" xlink:title="Main subroutine of SPEC.">
<polygon fill="white" stroke="black" points="151.5,-47.5 151.5,-66.5 198.5,-66.5 198.5,-47.5 151.5,-47.5"/>
<text text-anchor="middle" x="175" y="-54.5" font-family="Helvetica,sans-Serif" font-size="10.00">xspech</text>
</a>
</g>
</g>
<!-- Node4&#45;&gt;Node7 -->
<g id="edge42" class="edge">
<title>Node4&#45;&gt;Node7</title>
<path fill="none" stroke="midnightblue" d="M529.15,-96.75C456.59,-83.71 265.19,-60.24 198.95,-56.4"/>
<polygon fill="midnightblue" stroke="midnightblue" points="528.88,-100.26 539.36,-98.67 530.18,-93.38 528.88,-100.26"/>
</g>
<!-- Node18 -->
<g id="node18" class="node">
<title>Node18</title>
<g id="a_node18"><a xlink:href="group__grp__output.html#ga0f962c09cd5d5eba99f1cba043cb3898" target="_top" xlink:title="Initialize the interface to the HDF5 library and open the output file.">
<polygon fill="white" stroke="black" points="396,-0.5 396,-19.5 490,-19.5 490,-0.5 396,-0.5"/>
<text text-anchor="middle" x="443" y="-7.5" font-family="Helvetica,sans-Serif" font-size="10.00">sphdf5::init_outfile</text>
</a>
</g>
</g>
<!-- Node4&#45;&gt;Node18 -->
<g id="edge40" class="edge">
<title>Node4&#45;&gt;Node18</title>
<path fill="none" stroke="midnightblue" d="M543.34,-86.38C530.53,-71.21 510.57,-49.39 490,-34 482.64,-28.5 473.85,-23.57 465.92,-19.63"/>
<polygon fill="midnightblue" stroke="midnightblue" points="540.94,-88.97 550.01,-94.45 546.34,-84.51 540.94,-88.97"/>
</g>
<!-- Node5&#45;&gt;Node1 -->
<g id="edge18" class="edge">
<title>Node5&#45;&gt;Node1</title>
<path fill="none" stroke="midnightblue" d="M475.1,-203.51C505.12,-208.24 551.67,-216.58 591,-228 635.19,-240.83 685.13,-262.01 710.6,-273.32"/>
<polygon fill="midnightblue" stroke="midnightblue" points="475.63,-200.05 465.21,-201.99 474.56,-206.97 475.63,-200.05"/>
</g>
<!-- Node5&#45;&gt;Node2 -->
<g id="edge34" class="edge">
<title>Node5&#45;&gt;Node2</title>
<path fill="none" stroke="midnightblue" d="M474.63,-211.19C516.17,-227.73 589.46,-256.9 626.77,-271.75"/>
<polygon fill="midnightblue" stroke="midnightblue" points="475.87,-207.92 465.29,-207.47 473.28,-214.42 475.87,-207.92"/>
</g>
<!-- Node5&#45;&gt;Node3 -->
<g id="edge19" class="edge">
<title>Node5&#45;&gt;Node3</title>
<path fill="none" stroke="midnightblue" d="M429.83,-216.88C409.34,-246.8 369.25,-304.41 360,-311 346.62,-320.53 328.33,-325.38 315.18,-327.79"/>
<polygon fill="midnightblue" stroke="midnightblue" points="432.76,-218.8 435.51,-208.57 426.98,-214.85 432.76,-218.8"/>
</g>
<!-- Node5&#45;&gt;Node4 -->
<g id="edge39" class="edge">
<title>Node5&#45;&gt;Node4</title>
<path fill="none" stroke="midnightblue" d="M469.64,-183.29C495.56,-163.45 534.01,-130.53 550.05,-113.79"/>
<polygon fill="midnightblue" stroke="midnightblue" points="467.28,-180.68 461.38,-189.48 471.48,-186.29 467.28,-180.68"/>
</g>
<!-- Node5&#45;&gt;Node5 -->
<g id="edge17" class="edge">
<title>Node5&#45;&gt;Node5</title>
<path fill="none" stroke="midnightblue" d="M464.11,-218.4C462.7,-223.31 455.66,-227 443,-227 422.74,-227 416.88,-217.57 425.43,-208.76"/>
<polygon fill="midnightblue" stroke="midnightblue" points="467.3,-216.94 460.57,-208.76 460.73,-219.35 467.3,-216.94"/>
</g>
<!-- Node6 -->
<g id="node6" class="node">
<title>Node6</title>
<g id="a_node6"><a xlink:href="namespaceallglobal.html#a7824bc37519fe88336534ce90ab2af16" target="_top" xlink:title=" ">
<polygon fill="white" stroke="black" points="240.5,-150.5 240.5,-169.5 354.5,-169.5 354.5,-150.5 240.5,-150.5"/>
<text text-anchor="middle" x="297.5" y="-157.5" font-family="Helvetica,sans-Serif" font-size="10.00">allglobal::check_inputs</text>
</a>
</g>
</g>
<!-- Node5&#45;&gt;Node6 -->
<g id="edge10" class="edge">
<title>Node5&#45;&gt;Node6</title>
<path fill="none" stroke="midnightblue" d="M411.01,-190.58C388.26,-184.4 357.35,-175.99 333.68,-169.56"/>
<polygon fill="midnightblue" stroke="midnightblue" points="410.26,-194 420.83,-193.25 412.09,-187.25 410.26,-194"/>
</g>
<!-- Node10 -->
<g id="node10" class="node">
<title>Node10</title>
<g id="a_node10"><a xlink:href="dfp200_8f90.html#a6aca59cf350d7b1941f8389d50945a43" target="_top" xlink:title="get LU Beltrami matrices">
<polygon fill="white" stroke="black" points="235,-282.5 235,-301.5 360,-301.5 360,-282.5 235,-282.5"/>
<text text-anchor="middle" x="297.5" y="-289.5" font-family="Helvetica,sans-Serif" font-size="10.00">get_lu_beltrami_matrices</text>
</a>
</g>
</g>
<!-- Node5&#45;&gt;Node10 -->
<g id="edge20" class="edge">
<title>Node5&#45;&gt;Node10</title>
<path fill="none" stroke="midnightblue" d="M425.35,-215.88C409.62,-231.09 384.79,-253.28 360,-268 350.34,-273.73 339.07,-278.6 328.83,-282.41"/>
<polygon fill="midnightblue" stroke="midnightblue" points="428.04,-218.14 432.7,-208.63 423.13,-213.16 428.04,-218.14"/>
</g>
<!-- Node15 -->
<g id="node15" class="node">
<title>Node15</title>
<g id="a_node15"><a xlink:href="group__grp__output.html#ga7401b50ec10c6598ee4a8112717a63ec" target="_top" xlink:title="Computes eigenvalues and eigenvectors of derivative matrix, &#160;and saves them to .ext....">
<polygon fill="white" stroke="black" points="275,-94.5 275,-113.5 320,-113.5 320,-94.5 275,-94.5"/>
<text text-anchor="middle" x="297.5" y="-101.5" font-family="Helvetica,sans-Serif" font-size="10.00">hesian</text>
</a>
</g>
</g>
<!-- Node5&#45;&gt;Node15 -->
<g id="edge31" class="edge">
<title>Node5&#45;&gt;Node15</title>
<path fill="none" stroke="midnightblue" d="M420.81,-183.36C404.43,-171.43 381.06,-154.76 360,-141 345.08,-131.26 327.64,-120.85 315.15,-113.57"/>
<polygon fill="midnightblue" stroke="midnightblue" points="419,-186.37 429.14,-189.46 423.14,-180.73 419,-186.37"/>
</g>
<!-- Node16 -->
<g id="node16" class="node">
<title>Node16</title>
<g id="a_node16"><a xlink:href="group__grp__conjugate__gradient.html#ga4d8415226e62a9fdb42b0fd0b464251e" target="_top" xlink:title="Returns the energy functional and it&#39;s derivatives with respect to geometry.">
<polygon fill="white" stroke="black" points="273.5,-188.5 273.5,-207.5 321.5,-207.5 321.5,-188.5 273.5,-188.5"/>
<text text-anchor="middle" x="297.5" y="-195.5" font-family="Helvetica,sans-Serif" font-size="10.00">pc00ab</text>
</a>
</g>
</g>
<!-- Node5&#45;&gt;Node16 -->
<g id="edge35" class="edge">
<title>Node5&#45;&gt;Node16</title>
<path fill="none" stroke="midnightblue" d="M410.79,-198.78C383.96,-198.6 345.86,-198.33 321.67,-198.16"/>
<polygon fill="midnightblue" stroke="midnightblue" points="410.8,-202.28 420.83,-198.85 410.85,-195.28 410.8,-202.28"/>
</g>
<!-- Node6&#45;&gt;Node7 -->
<g id="edge11" class="edge">
<title>Node6&#45;&gt;Node7</title>
<path fill="none" stroke="midnightblue" d="M243.52,-146.25C240.53,-144.68 237.67,-142.94 235,-141 207.48,-120.97 188.18,-84.07 180.16,-66.62"/>
<polygon fill="midnightblue" stroke="midnightblue" points="242.21,-149.5 252.77,-150.45 245.11,-143.13 242.21,-149.5"/>
</g>
<!-- Node7&#45;&gt;Node4 -->
<g id="edge14" class="edge">
<title>Node7&#45;&gt;Node4</title>
<path fill="none" stroke="midnightblue" d="M209.14,-65.09C286.98,-78.62 479.39,-102.02 539.36,-104.86"/>
<polygon fill="midnightblue" stroke="midnightblue" points="209.41,-61.59 198.95,-63.25 208.17,-68.47 209.41,-61.59"/>
</g>
<!-- Node7&#45;&gt;Node7 -->
<g id="edge16" class="edge">
<title>Node7&#45;&gt;Node7</title>
<path fill="none" stroke="midnightblue" d="M196.48,-76.4C195.05,-81.31 187.89,-85 175,-85 154.38,-85 148.42,-75.57 157.12,-66.76"/>
<polygon fill="midnightblue" stroke="midnightblue" points="199.66,-74.9 192.88,-66.76 193.1,-77.35 199.66,-74.9"/>
</g>
<!-- Node8 -->
<g id="node8" class="node">
<title>Node8</title>
<g id="a_node8"><a xlink:href="xspech_8f90.html#a1451823a7b97101a797de616250752c1" target="_top" xlink:title="Final diagnostics.">
<polygon fill="white" stroke="black" points="13,-47.5 13,-66.5 102,-66.5 102,-47.5 13,-47.5"/>
<text text-anchor="middle" x="57.5" y="-54.5" font-family="Helvetica,sans-Serif" font-size="10.00">final_diagnostics</text>
</a>
</g>
</g>
<!-- Node7&#45;&gt;Node8 -->
<g id="edge12" class="edge">
<title>Node7&#45;&gt;Node8</title>
<path fill="none" stroke="midnightblue" d="M141.29,-50.85C129.09,-50.23 115.05,-50.09 102.04,-50.44"/>
<polygon fill="midnightblue" stroke="midnightblue" points="141.25,-54.35 151.46,-51.52 141.71,-47.37 141.25,-54.35"/>
</g>
<!-- Node9 -->
<g id="node9" class="node">
<title>Node9</title>
<g id="a_node9"><a xlink:href="xspech_8f90.html#a95271e8805067f801b5d4e524d6901d4" target="_top" xlink:title="Main program of SPEC.">
<polygon fill="white" stroke="black" points="25.5,-9.5 25.5,-28.5 89.5,-28.5 89.5,-9.5 25.5,-9.5"/>
<text text-anchor="middle" x="57.5" y="-16.5" font-family="Helvetica,sans-Serif" font-size="10.00">spec_main</text>
</a>
</g>
</g>
<!-- Node7&#45;&gt;Node9 -->
<g id="edge15" class="edge">
<title>Node7&#45;&gt;Node9</title>
<path fill="none" stroke="midnightblue" d="M141.92,-46.45C124.89,-40.84 104.12,-34.01 87.57,-28.56"/>
<polygon fill="midnightblue" stroke="midnightblue" points="140.86,-49.78 151.46,-49.58 143.05,-43.13 140.86,-49.78"/>
</g>
<!-- Node8&#45;&gt;Node7 -->
<g id="edge13" class="edge">
<title>Node8&#45;&gt;Node7</title>
<path fill="none" stroke="midnightblue" d="M112.05,-63.73C125.94,-63.84 140.15,-63.42 151.46,-62.48"/>
<polygon fill="midnightblue" stroke="midnightblue" points="112.09,-60.23 102.04,-63.56 111.98,-67.23 112.09,-60.23"/>
</g>
<!-- Node11 -->
<g id="node11" class="node">
<title>Node11</title>
<g id="a_node11"><a xlink:href="dfp200_8f90.html#a55ea75395f8c71731451e1add3720c7e" target="_top" xlink:title="Given the field consistent with the constraints and the geometry, computes local quantites related to...">
<polygon fill="white" stroke="black" points="152,-282.5 152,-301.5 198,-301.5 198,-282.5 152,-282.5"/>
<text text-anchor="middle" x="175" y="-289.5" font-family="Helvetica,sans-Serif" font-size="10.00">dfp200</text>
</a>
</g>
</g>
<!-- Node10&#45;&gt;Node11 -->
<g id="edge21" class="edge">
<title>Node10&#45;&gt;Node11</title>
<path fill="none" stroke="midnightblue" d="M224.69,-285.36C215.05,-285.55 205.82,-285.98 198.04,-286.64"/>
<polygon fill="midnightblue" stroke="midnightblue" points="224.88,-288.86 234.84,-285.25 224.8,-281.86 224.88,-288.86"/>
</g>
<!-- Node11&#45;&gt;Node5 -->
<g id="edge22" class="edge">
<title>Node11&#45;&gt;Node5</title>
<path fill="none" stroke="midnightblue" d="M207.67,-281.69C216.51,-278.85 226.12,-275.78 235,-273 290.41,-255.66 305.54,-255.15 360,-235 381.58,-227.01 405.62,-216.23 422.05,-208.55"/>
<polygon fill="midnightblue" stroke="midnightblue" points="206.55,-278.38 198.11,-284.79 208.7,-285.04 206.55,-278.38"/>
</g>
<!-- Node11&#45;&gt;Node10 -->
<g id="edge28" class="edge">
<title>Node11&#45;&gt;Node10</title>
<path fill="none" stroke="midnightblue" d="M208.28,-298.06C216.52,-298.5 225.66,-298.73 234.84,-298.75"/>
<polygon fill="midnightblue" stroke="midnightblue" points="208.26,-294.55 198.04,-297.36 207.78,-301.53 208.26,-294.55"/>
</g>
<!-- Node11&#45;&gt;Node11 -->
<g id="edge23" class="edge">
<title>Node11&#45;&gt;Node11</title>
<path fill="none" stroke="midnightblue" d="M196.48,-311.4C195.05,-316.31 187.89,-320 175,-320 154.38,-320 148.42,-310.57 157.12,-301.76"/>
<polygon fill="midnightblue" stroke="midnightblue" points="199.66,-309.9 192.88,-301.76 193.1,-312.35 199.66,-309.9"/>
</g>
<!-- Node12 -->
<g id="node12" class="node">
<title>Node12</title>
<g id="a_node12"><a xlink:href="dfp200_8f90.html#a7b64c7392b45d0042d8bd7379c0761a5" target="_top" xlink:title="Evaluate the derivative of the square of the magnetic field modulus. Add spectral constraint derivati...">
<polygon fill="white" stroke="black" points="20.5,-244.5 20.5,-263.5 94.5,-263.5 94.5,-244.5 20.5,-244.5"/>
<text text-anchor="middle" x="57.5" y="-251.5" font-family="Helvetica,sans-Serif" font-size="10.00">evaluate_dbb</text>
</a>
</g>
</g>
<!-- Node11&#45;&gt;Node12 -->
<g id="edge24" class="edge">
<title>Node11&#45;&gt;Node12</title>
<path fill="none" stroke="midnightblue" d="M149.31,-278.23C133.49,-271.83 112.69,-264.76 94.99,-259.68"/>
<polygon fill="midnightblue" stroke="midnightblue" points="148.33,-281.61 158.9,-282.3 151.07,-275.17 148.33,-281.61"/>
</g>
<!-- Node13 -->
<g id="node13" class="node">
<title>Node13</title>
<g id="a_node13"><a xlink:href="dfp200_8f90.html#a73ddf39ecc5228201fb643779e17cd36" target="_top" xlink:title="Evaluate mu and psip derivatives and store them in dmupfdx.">
<polygon fill="white" stroke="black" points="10,-320.5 10,-339.5 105,-339.5 105,-320.5 10,-320.5"/>
<text text-anchor="middle" x="57.5" y="-327.5" font-family="Helvetica,sans-Serif" font-size="10.00">evaluate_dmupfdx</text>
</a>
</g>
</g>
<!-- Node11&#45;&gt;Node13 -->
<g id="edge26" class="edge">
<title>Node11&#45;&gt;Node13</title>
<path fill="none" stroke="midnightblue" d="M141.95,-296.43C119.52,-302.63 90.6,-312.61 73.36,-320.41"/>
<polygon fill="midnightblue" stroke="midnightblue" points="142.94,-299.79 151.73,-293.87 141.17,-293.01 142.94,-299.79"/>
</g>
<!-- Node14 -->
<g id="node14" class="node">
<title>Node14</title>
<g id="a_node14"><a xlink:href="dfp200_8f90.html#a5e56f1f4b1e6df11a9cffa6237c37469" target="_top" xlink:title="This routine evaluates the value of the magnetic field once the interface is perturbed using matrix p...">
<polygon fill="white" stroke="black" points="0,-282.5 0,-301.5 115,-301.5 115,-282.5 0,-282.5"/>
<text text-anchor="middle" x="57.5" y="-289.5" font-family="Helvetica,sans-Serif" font-size="10.00">get_perturbed_solution</text>
</a>
</g>
</g>
<!-- Node11&#45;&gt;Node14 -->
<g id="edge29" class="edge">
<title>Node11&#45;&gt;Node14</title>
<path fill="none" stroke="midnightblue" d="M141.51,-285.86C133.3,-285.44 124.25,-285.23 115.23,-285.25"/>
<polygon fill="midnightblue" stroke="midnightblue" points="141.52,-289.37 151.73,-286.54 141.99,-282.38 141.52,-289.37"/>
</g>
<!-- Node12&#45;&gt;Node11 -->
<g id="edge25" class="edge">
<title>Node12&#45;&gt;Node11</title>
<path fill="none" stroke="midnightblue" d="M82.59,-267.53C102.96,-275.81 131.9,-285.28 151.73,-290.13"/>
<polygon fill="midnightblue" stroke="midnightblue" points="83.93,-264.3 73.36,-263.59 81.19,-270.74 83.93,-264.3"/>
</g>
<!-- Node13&#45;&gt;Node11 -->
<g id="edge27" class="edge">
<title>Node13&#45;&gt;Node11</title>
<path fill="none" stroke="midnightblue" d="M114.62,-318.28C130.95,-312.96 147.45,-306.86 158.9,-301.7"/>
<polygon fill="midnightblue" stroke="midnightblue" points="113.54,-314.96 105.06,-321.32 115.65,-321.63 113.54,-314.96"/>
</g>
<!-- Node14&#45;&gt;Node11 -->
<g id="edge30" class="edge">
<title>Node14&#45;&gt;Node11</title>
<path fill="none" stroke="midnightblue" d="M125.23,-298.68C134.76,-298.52 143.95,-298.11 151.73,-297.46"/>
<polygon fill="midnightblue" stroke="midnightblue" points="125.21,-295.18 115.23,-298.75 125.26,-302.18 125.21,-295.18"/>
</g>
<!-- Node15&#45;&gt;Node4 -->
<g id="edge33" class="edge">
<title>Node15&#45;&gt;Node4</title>
<path fill="none" stroke="midnightblue" d="M330.48,-104C385.37,-104 495.78,-104 539.29,-104"/>
<polygon fill="midnightblue" stroke="midnightblue" points="330.28,-100.5 320.28,-104 330.28,-107.5 330.28,-100.5"/>
</g>
<!-- Node15&#45;&gt;Node15 -->
<g id="edge32" class="edge">
<title>Node15&#45;&gt;Node15</title>
<path fill="none" stroke="midnightblue" d="M320.19,-123.03C318.96,-128.13 311.39,-132 297.5,-132 275.82,-132 269.55,-122.57 278.7,-113.76"/>
<polygon fill="midnightblue" stroke="midnightblue" points="323.4,-121.62 316.3,-113.76 316.94,-124.33 323.4,-121.62"/>
</g>
<!-- Node16&#45;&gt;Node16 -->
<g id="edge38" class="edge">
<title>Node16&#45;&gt;Node16</title>
<path fill="none" stroke="midnightblue" d="M320.19,-217.03C318.96,-222.13 311.39,-226 297.5,-226 275.82,-226 269.55,-216.57 278.7,-207.76"/>
<polygon fill="midnightblue" stroke="midnightblue" points="323.4,-215.62 316.3,-207.76 316.94,-218.33 323.4,-215.62"/>
</g>
<!-- Node17 -->
<g id="node17" class="node">
<title>Node17</title>
<g id="a_node17"><a xlink:href="group__grp__conjugate__gradient.html#ga25a3bae2ff2ee0469b045de0d033398b" target="_top" xlink:title="Use preconditioned conjugate gradient method to find minimum of energy functional.">
<polygon fill="white" stroke="black" points="151,-188.5 151,-207.5 199,-207.5 199,-188.5 151,-188.5"/>
<text text-anchor="middle" x="175" y="-195.5" font-family="Helvetica,sans-Serif" font-size="10.00">pc00aa</text>
</a>
</g>
</g>
<!-- Node16&#45;&gt;Node17 -->
<g id="edge36" class="edge">
<title>Node16&#45;&gt;Node17</title>
<path fill="none" stroke="midnightblue" d="M263.16,-198C242.81,-198 217.31,-198 199.16,-198"/>
<polygon fill="midnightblue" stroke="midnightblue" points="263.27,-201.5 273.27,-198 263.27,-194.5 263.27,-201.5"/>
</g>
<!-- Node17&#45;&gt;Node17 -->
<g id="edge37" class="edge">
<title>Node17&#45;&gt;Node17</title>
<path fill="none" stroke="midnightblue" d="M196.48,-217.4C195.05,-222.31 187.89,-226 175,-226 154.38,-226 148.42,-216.57 157.12,-207.76"/>
<polygon fill="midnightblue" stroke="midnightblue" points="199.66,-215.9 192.88,-207.76 193.1,-218.35 199.66,-215.9"/>
</g>
<!-- Node18&#45;&gt;Node7 -->
<g id="edge41" class="edge">
<title>Node18&#45;&gt;Node7</title>
<path fill="none" stroke="midnightblue" d="M385.72,-12.62C343.69,-15.52 285.11,-21.55 235,-34 221.88,-37.26 207.74,-42.7 196.6,-47.47"/>
<polygon fill="midnightblue" stroke="midnightblue" points="386.01,-16.11 395.76,-11.97 385.56,-9.13 386.01,-16.11"/>
</g>
<!-- Node19&#45;&gt;Node2 -->
<g id="edge45" class="edge">
<title>Node19&#45;&gt;Node2</title>
<path fill="none" stroke="midnightblue" d="M601.33,-287.73C610.05,-287.82 618.94,-287.57 626.69,-286.99"/>
<polygon fill="midnightblue" stroke="midnightblue" points="601.34,-284.23 591.25,-287.48 601.16,-291.23 601.34,-284.23"/>
</g>
<!-- Node19&#45;&gt;Node3 -->
<g id="edge44" class="edge">
<title>Node19&#45;&gt;Node3</title>
<path fill="none" stroke="midnightblue" d="M515.68,-286.45C482.97,-290.95 436.42,-297.91 396,-306 367.45,-311.71 334.66,-320.18 315.31,-325.39"/>
<polygon fill="midnightblue" stroke="midnightblue" points="516.35,-289.89 525.79,-285.07 515.41,-282.95 516.35,-289.89"/>
</g>
</g>
</svg>
