<?xml version="1.0" encoding="UTF-8" standalone="no"?>
<!DOCTYPE svg PUBLIC "-//W3C//DTD SVG 1.1//EN"
 "http://www.w3.org/Graphics/SVG/1.1/DTD/svg11.dtd">
<!-- Generated by graphviz version 2.47.1 (0)
 -->
<!-- Title: brcast Pages: 1 -->
<svg width="658pt" height="332pt"
 viewBox="0.00 0.00 658.00 332.00" xmlns="http://www.w3.org/2000/svg" xmlns:xlink="http://www.w3.org/1999/xlink">
<g id="graph0" class="graph" transform="scale(1 1) rotate(0) translate(4 328)">
<title>brcast</title>
<polygon fill="white" stroke="transparent" points="-4,4 -4,-328 654,-328 654,4 -4,4"/>
<!-- Node1 -->
<g id="node1" class="node">
<title>Node1</title>
<g id="a_node1"><a xlink:title="Broadcasts Beltrami fields, profiles, . . .">
<polygon fill="#bfbfbf" stroke="black" points="606,-152.5 606,-171.5 650,-171.5 650,-152.5 606,-152.5"/>
<text text-anchor="middle" x="628" y="-159.5" font-family="Helvetica,sans-Serif" font-size="10.00">brcast</text>
</a>
</g>
</g>
<!-- Node2 -->
<g id="node2" class="node">
<title>Node2</title>
<g id="a_node2"><a xlink:href="group__grp__global__force.html#ga38c9d3c50bd043707fefa5137c9dbf44" target="_top" xlink:title="Calculates , where &#160;and , and .">
<polygon fill="white" stroke="black" points="526,-152.5 526,-171.5 570,-171.5 570,-152.5 526,-152.5"/>
<text text-anchor="middle" x="548" y="-159.5" font-family="Helvetica,sans-Serif" font-size="10.00">dforce</text>
</a>
</g>
</g>
<!-- Node1&#45;&gt;Node2 -->
<g id="edge1" class="edge">
<title>Node1&#45;&gt;Node2</title>
<path fill="none" stroke="midnightblue" d="M595.57,-162C586.98,-162 577.88,-162 570.02,-162"/>
<polygon fill="midnightblue" stroke="midnightblue" points="595.69,-165.5 605.69,-162 595.69,-158.5 595.69,-165.5"/>
</g>
<!-- Node3 -->
<g id="node3" class="node">
<title>Node3</title>
<g id="a_node3"><a xlink:href="namespaceallglobal.html#a7824bc37519fe88336534ce90ab2af16" target="_top" xlink:title=" ">
<polygon fill="white" stroke="black" points="370.5,-304.5 370.5,-323.5 484.5,-323.5 484.5,-304.5 370.5,-304.5"/>
<text text-anchor="middle" x="427.5" y="-311.5" font-family="Helvetica,sans-Serif" font-size="10.00">allglobal::check_inputs</text>
</a>
</g>
</g>
<!-- Node2&#45;&gt;Node3 -->
<g id="edge2" class="edge">
<title>Node2&#45;&gt;Node3</title>
<path fill="none" stroke="midnightblue" d="M543.12,-181.89C536.72,-209.67 521.4,-260.04 490,-290 483.45,-296.25 475.08,-300.93 466.65,-304.41"/>
<polygon fill="midnightblue" stroke="midnightblue" points="546.61,-182.31 545.28,-171.8 539.76,-180.85 546.61,-182.31"/>
</g>
<!-- Node5 -->
<g id="node5" class="node">
<title>Node5</title>
<g id="a_node5"><a xlink:href="xspech_8f90.html#a48f45478dc2c9f70ea8aa1c60ad06503" target="_top" xlink:title=" ">
<polygon fill="white" stroke="black" points="168.5,-266.5 168.5,-285.5 206.5,-285.5 206.5,-266.5 168.5,-266.5"/>
<text text-anchor="middle" x="187.5" y="-273.5" font-family="Helvetica,sans-Serif" font-size="10.00">spec</text>
</a>
</g>
</g>
<!-- Node2&#45;&gt;Node5 -->
<g id="edge33" class="edge">
<title>Node2&#45;&gt;Node5</title>
<path fill="none" stroke="midnightblue" d="M533.85,-180.08C523.43,-193.01 507.73,-209.71 490,-219 406.37,-262.82 373.69,-239.06 281,-257 255.09,-262.02 225.18,-268.24 206.55,-272.16"/>
<polygon fill="midnightblue" stroke="midnightblue" points="536.84,-181.93 540.17,-171.87 531.3,-177.66 536.84,-181.93"/>
</g>
<!-- Node7 -->
<g id="node7" class="node">
<title>Node7</title>
<g id="a_node7"><a xlink:href="group__grp__force__driver.html#gabbc245b3884ee8d8d3e2a52f25149f78" target="_top" xlink:title="fcn1">
<polygon fill="white" stroke="black" points="410,-190.5 410,-209.5 445,-209.5 445,-190.5 410,-190.5"/>
<text text-anchor="middle" x="427.5" y="-197.5" font-family="Helvetica,sans-Serif" font-size="10.00">fcn1</text>
</a>
</g>
</g>
<!-- Node2&#45;&gt;Node7 -->
<g id="edge8" class="edge">
<title>Node2&#45;&gt;Node7</title>
<path fill="none" stroke="midnightblue" d="M516,-171.94C493.39,-179.19 463.63,-188.74 445.29,-194.62"/>
<polygon fill="midnightblue" stroke="midnightblue" points="517.36,-175.18 525.81,-168.79 515.22,-168.51 517.36,-175.18"/>
</g>
<!-- Node8 -->
<g id="node8" class="node">
<title>Node8</title>
<g id="a_node8"><a xlink:href="group__grp__force__driver.html#gaec14f81fbdbedafbc4189489ec8ae178" target="_top" xlink:title="Employs Newton method to find , where &#160;and &#160;is defined in dforce() .">
<polygon fill="white" stroke="black" points="281,-190.5 281,-209.5 329,-209.5 329,-190.5 281,-190.5"/>
<text text-anchor="middle" x="305" y="-197.5" font-family="Helvetica,sans-Serif" font-size="10.00">newton</text>
</a>
</g>
</g>
<!-- Node2&#45;&gt;Node8 -->
<g id="edge30" class="edge">
<title>Node2&#45;&gt;Node8</title>
<path fill="none" stroke="midnightblue" d="M515.73,-163.29C479.23,-165.25 417.2,-169.99 365,-181 353,-183.53 339.98,-187.58 329.24,-191.28"/>
<polygon fill="midnightblue" stroke="midnightblue" points="515.95,-166.79 525.76,-162.79 515.6,-159.79 515.95,-166.79"/>
</g>
<!-- Node9 -->
<g id="node9" class="node">
<title>Node9</title>
<g id="a_node9"><a xlink:href="group__grp__force__driver.html#ga8ccd6c7d901872702521d0a0edf95412" target="_top" xlink:title="fcn2">
<polygon fill="white" stroke="black" points="29.5,-161.5 29.5,-180.5 64.5,-180.5 64.5,-161.5 29.5,-161.5"/>
<text text-anchor="middle" x="47" y="-168.5" font-family="Helvetica,sans-Serif" font-size="10.00">fcn2</text>
</a>
</g>
</g>
<!-- Node2&#45;&gt;Node9 -->
<g id="edge17" class="edge">
<title>Node2&#45;&gt;Node9</title>
<path fill="none" stroke="midnightblue" d="M515.75,-161.35C507.39,-161.21 498.35,-161.07 490,-161 434.45,-160.51 420.55,-160.12 365,-161 250.21,-162.81 112.13,-168.31 64.83,-170.28"/>
<polygon fill="midnightblue" stroke="midnightblue" points="515.82,-164.85 525.89,-161.54 515.95,-157.86 515.82,-164.85"/>
</g>
<!-- Node11 -->
<g id="node11" class="node">
<title>Node11</title>
<g id="a_node11"><a xlink:href="dfp200_8f90.html#a6aca59cf350d7b1941f8389d50945a43" target="_top" xlink:title="get LU Beltrami matrices">
<polygon fill="white" stroke="black" points="365,-38.5 365,-57.5 490,-57.5 490,-38.5 365,-38.5"/>
<text text-anchor="middle" x="427.5" y="-45.5" font-family="Helvetica,sans-Serif" font-size="10.00">get_lu_beltrami_matrices</text>
</a>
</g>
</g>
<!-- Node2&#45;&gt;Node11 -->
<g id="edge18" class="edge">
<title>Node2&#45;&gt;Node11</title>
<path fill="none" stroke="midnightblue" d="M539.33,-143.09C530.29,-122.93 513.46,-91.33 490,-72 482.48,-65.81 473.18,-61.08 464.1,-57.53"/>
<polygon fill="midnightblue" stroke="midnightblue" points="536.19,-144.64 543.35,-152.45 542.63,-141.88 536.19,-144.64"/>
</g>
<!-- Node16 -->
<g id="node16" class="node">
<title>Node16</title>
<g id="a_node16"><a xlink:href="group__grp__diagnostics.html#ga7401b50ec10c6598ee4a8112717a63ec" target="_top" xlink:title="Computes eigenvalues and eigenvectors of derivative matrix, .">
<polygon fill="white" stroke="black" points="282.5,-266.5 282.5,-285.5 327.5,-285.5 327.5,-266.5 282.5,-266.5"/>
<text text-anchor="middle" x="305" y="-273.5" font-family="Helvetica,sans-Serif" font-size="10.00">hesian</text>
</a>
</g>
</g>
<!-- Node2&#45;&gt;Node16 -->
<g id="edge28" class="edge">
<title>Node2&#45;&gt;Node16</title>
<path fill="none" stroke="midnightblue" d="M540.54,-181.12C532.32,-202.22 516.01,-235.4 490,-252 439.08,-284.49 364.04,-282.26 327.53,-278.74"/>
<polygon fill="midnightblue" stroke="midnightblue" points="543.87,-182.18 544.01,-171.59 537.3,-179.78 543.87,-182.18"/>
</g>
<!-- Node17 -->
<g id="node17" class="node">
<title>Node17</title>
<g id="a_node17"><a xlink:href="group__grp__conjugate__gradient.html#ga4d8415226e62a9fdb42b0fd0b464251e" target="_top" xlink:title="Returns the energy functional and it&#39;s derivatives with respect to geometry.">
<polygon fill="white" stroke="black" points="403.5,-0.5 403.5,-19.5 451.5,-19.5 451.5,-0.5 403.5,-0.5"/>
<text text-anchor="middle" x="427.5" y="-7.5" font-family="Helvetica,sans-Serif" font-size="10.00">pc00ab</text>
</a>
</g>
</g>
<!-- Node2&#45;&gt;Node17 -->
<g id="edge31" class="edge">
<title>Node2&#45;&gt;Node17</title>
<path fill="none" stroke="midnightblue" d="M543.89,-142.26C538.29,-113.29 523.79,-59.41 490,-29 479.45,-19.51 464.23,-14.76 451.57,-12.38"/>
<polygon fill="midnightblue" stroke="midnightblue" points="540.49,-143.13 545.67,-152.37 547.38,-141.91 540.49,-143.13"/>
</g>
<!-- Node4 -->
<g id="node4" class="node">
<title>Node4</title>
<g id="a_node4"><a xlink:href="xspech_8f90.html#aea782eae089760a491c2c54f9903abcc" target="_top" xlink:title="Main program of SPEC.">
<polygon fill="white" stroke="black" points="281.5,-304.5 281.5,-323.5 328.5,-323.5 328.5,-304.5 281.5,-304.5"/>
<text text-anchor="middle" x="305" y="-311.5" font-family="Helvetica,sans-Serif" font-size="10.00">xspech</text>
</a>
</g>
</g>
<!-- Node3&#45;&gt;Node4 -->
<g id="edge3" class="edge">
<title>Node3&#45;&gt;Node4</title>
<path fill="none" stroke="midnightblue" d="M360.45,-314C349.06,-314 337.95,-314 328.77,-314"/>
<polygon fill="midnightblue" stroke="midnightblue" points="360.48,-317.5 370.48,-314 360.48,-310.5 360.48,-317.5"/>
</g>
<!-- Node4&#45;&gt;Node5 -->
<g id="edge4" class="edge">
<title>Node4&#45;&gt;Node5</title>
<path fill="none" stroke="midnightblue" d="M279.63,-300.36C257.82,-291.52 226.32,-281.34 206.65,-276.9"/>
<polygon fill="midnightblue" stroke="midnightblue" points="278.33,-303.61 288.9,-304.3 281.07,-297.16 278.33,-303.61"/>
</g>
<!-- Node5&#45;&gt;Node4 -->
<g id="edge7" class="edge">
<title>Node5&#45;&gt;Node4</title>
<path fill="none" stroke="midnightblue" d="M212.76,-289.6C233.02,-297.82 261.69,-307.21 281.46,-312.06"/>
<polygon fill="midnightblue" stroke="midnightblue" points="213.86,-286.26 203.29,-285.56 211.11,-292.7 213.86,-286.26"/>
</g>
<!-- Node6 -->
<g id="node6" class="node">
<title>Node6</title>
<g id="a_node6"><a xlink:href="group__grp__output.html#ga0f962c09cd5d5eba99f1cba043cb3898" target="_top" xlink:title="Initialize the interface to the HDF5 library and open the output file.">
<polygon fill="white" stroke="black" points="0,-285.5 0,-304.5 94,-304.5 94,-285.5 0,-285.5"/>
<text text-anchor="middle" x="47" y="-292.5" font-family="Helvetica,sans-Serif" font-size="10.00">sphdf5::init_outfile</text>
</a>
</g>
</g>
<!-- Node5&#45;&gt;Node6 -->
<g id="edge5" class="edge">
<title>Node5&#45;&gt;Node6</title>
<path fill="none" stroke="midnightblue" d="M158.31,-279.87C139.87,-282.4 115.36,-285.76 94.12,-288.67"/>
<polygon fill="midnightblue" stroke="midnightblue" points="158.96,-283.31 168.39,-278.48 158.01,-276.38 158.96,-283.31"/>
</g>
<!-- Node6&#45;&gt;Node4 -->
<g id="edge6" class="edge">
<title>Node6&#45;&gt;Node4</title>
<path fill="none" stroke="midnightblue" d="M104.27,-299.18C159.79,-303.3 241.88,-309.39 281.28,-312.31"/>
<polygon fill="midnightblue" stroke="midnightblue" points="104.47,-295.68 94.23,-298.43 103.95,-302.66 104.47,-295.68"/>
</g>
<!-- Node7&#45;&gt;Node8 -->
<g id="edge9" class="edge">
<title>Node7&#45;&gt;Node8</title>
<path fill="none" stroke="midnightblue" d="M399.51,-194.26C378.38,-192.82 349.31,-192.92 329.22,-194.54"/>
<polygon fill="midnightblue" stroke="midnightblue" points="399.48,-197.77 409.74,-195.16 400.09,-190.8 399.48,-197.77"/>
</g>
<!-- Node8&#45;&gt;Node5 -->
<g id="edge13" class="edge">
<title>Node8&#45;&gt;Node5</title>
<path fill="none" stroke="midnightblue" d="M280.81,-215.26C257.58,-230.54 222.56,-253.59 203.01,-266.45"/>
<polygon fill="midnightblue" stroke="midnightblue" points="282.94,-218.05 289.37,-209.63 279.09,-212.2 282.94,-218.05"/>
</g>
<!-- Node8&#45;&gt;Node7 -->
<g id="edge10" class="edge">
<title>Node8&#45;&gt;Node7</title>
<path fill="none" stroke="midnightblue" d="M339.21,-206.11C362.11,-207.27 391.58,-206.85 409.74,-204.84"/>
<polygon fill="midnightblue" stroke="midnightblue" points="339.42,-202.61 329.22,-205.46 338.97,-209.6 339.42,-202.61"/>
</g>
<!-- Node8&#45;&gt;Node9 -->
<g id="edge11" class="edge">
<title>Node8&#45;&gt;Node9</title>
<path fill="none" stroke="midnightblue" d="M270.84,-191.53C215.53,-182.21 106.41,-170.23 64.72,-169.34"/>
<polygon fill="midnightblue" stroke="midnightblue" points="270.37,-195 280.83,-193.3 271.59,-188.11 270.37,-195"/>
</g>
<!-- Node10 -->
<g id="node10" class="node">
<title>Node10</title>
<g id="a_node10"><a xlink:href="group__grp__force__driver.html#ga382822b303cbf8c56d6f54dcb379caf2" target="_top" xlink:title="read or write force&#45;derivative matrix">
<polygon fill="white" stroke="black" points="155,-208.5 155,-227.5 220,-227.5 220,-208.5 155,-208.5"/>
<text text-anchor="middle" x="187.5" y="-215.5" font-family="Helvetica,sans-Serif" font-size="10.00">writereadgf</text>
</a>
</g>
</g>
<!-- Node8&#45;&gt;Node10 -->
<g id="edge14" class="edge">
<title>Node8&#45;&gt;Node10</title>
<path fill="none" stroke="midnightblue" d="M270.71,-199.01C252.49,-200.95 230.29,-204.57 213.56,-208.42"/>
<polygon fill="midnightblue" stroke="midnightblue" points="271.27,-202.47 280.9,-198.07 270.63,-195.5 271.27,-202.47"/>
</g>
<!-- Node9&#45;&gt;Node8 -->
<g id="edge12" class="edge">
<title>Node9&#45;&gt;Node8</title>
<path fill="none" stroke="midnightblue" d="M74.85,-178.38C125.28,-187.39 233.36,-199.55 280.83,-201.46"/>
<polygon fill="midnightblue" stroke="midnightblue" points="75.2,-174.88 64.72,-176.45 73.89,-181.76 75.2,-174.88"/>
</g>
<!-- Node10&#45;&gt;Node8 -->
<g id="edge16" class="edge">
<title>Node10&#45;&gt;Node8</title>
<path fill="none" stroke="midnightblue" d="M230.57,-217.97C247.56,-215.82 266.51,-212.54 280.9,-209.13"/>
<polygon fill="midnightblue" stroke="midnightblue" points="229.84,-214.53 220.3,-219.15 230.64,-221.48 229.84,-214.53"/>
</g>
<!-- Node10&#45;&gt;Node9 -->
<g id="edge15" class="edge">
<title>Node10&#45;&gt;Node9</title>
<path fill="none" stroke="midnightblue" d="M148.77,-205.2C121.28,-195.87 85.37,-183.68 64.68,-176.66"/>
<polygon fill="midnightblue" stroke="midnightblue" points="147.88,-208.59 158.47,-208.49 150.13,-201.96 147.88,-208.59"/>
</g>
<!-- Node12 -->
<g id="node12" class="node">
<title>Node12</title>
<g id="a_node12"><a xlink:href="dfp200_8f90.html#a55ea75395f8c71731451e1add3720c7e" target="_top" xlink:title="Given the field consistent with the constraints and the geometry, computes local quantites related to...">
<polygon fill="white" stroke="black" points="282,-38.5 282,-57.5 328,-57.5 328,-38.5 282,-38.5"/>
<text text-anchor="middle" x="305" y="-45.5" font-family="Helvetica,sans-Serif" font-size="10.00">dfp200</text>
</a>
</g>
</g>
<!-- Node11&#45;&gt;Node12 -->
<g id="edge19" class="edge">
<title>Node11&#45;&gt;Node12</title>
<path fill="none" stroke="midnightblue" d="M354.69,-41.36C345.05,-41.55 335.82,-41.98 328.04,-42.64"/>
<polygon fill="midnightblue" stroke="midnightblue" points="354.88,-44.86 364.84,-41.25 354.8,-37.86 354.88,-44.86"/>
</g>
<!-- Node12&#45;&gt;Node2 -->
<g id="edge20" class="edge">
<title>Node12&#45;&gt;Node2</title>
<path fill="none" stroke="midnightblue" d="M337.77,-58.33C388.6,-74.91 483.23,-106.01 490,-110 509.62,-121.56 528.32,-140.7 538.67,-152.25"/>
<polygon fill="midnightblue" stroke="midnightblue" points="338.82,-54.99 328.23,-55.22 336.65,-61.65 338.82,-54.99"/>
</g>
<!-- Node12&#45;&gt;Node11 -->
<g id="edge25" class="edge">
<title>Node12&#45;&gt;Node11</title>
<path fill="none" stroke="midnightblue" d="M338.28,-54.06C346.52,-54.5 355.66,-54.73 364.84,-54.75"/>
<polygon fill="midnightblue" stroke="midnightblue" points="338.26,-50.55 328.04,-53.36 337.78,-57.53 338.26,-50.55"/>
</g>
<!-- Node13 -->
<g id="node13" class="node">
<title>Node13</title>
<g id="a_node13"><a xlink:href="dfp200_8f90.html#a7b64c7392b45d0042d8bd7379c0761a5" target="_top" xlink:title="Evaluate the derivative of the square of the magnetic field modulus. Add spectral constraint derivati...">
<polygon fill="white" stroke="black" points="150.5,-0.5 150.5,-19.5 224.5,-19.5 224.5,-0.5 150.5,-0.5"/>
<text text-anchor="middle" x="187.5" y="-7.5" font-family="Helvetica,sans-Serif" font-size="10.00">evaluate_dbb</text>
</a>
</g>
</g>
<!-- Node12&#45;&gt;Node13 -->
<g id="edge21" class="edge">
<title>Node12&#45;&gt;Node13</title>
<path fill="none" stroke="midnightblue" d="M279.31,-34.23C263.49,-27.83 242.69,-20.76 224.99,-15.68"/>
<polygon fill="midnightblue" stroke="midnightblue" points="278.33,-37.61 288.9,-38.3 281.07,-31.17 278.33,-37.61"/>
</g>
<!-- Node14 -->
<g id="node14" class="node">
<title>Node14</title>
<g id="a_node14"><a xlink:href="dfp200_8f90.html#a73ddf39ecc5228201fb643779e17cd36" target="_top" xlink:title="Evaluate mu and psip derivatives and store them in dmupfdx.">
<polygon fill="white" stroke="black" points="140,-76.5 140,-95.5 235,-95.5 235,-76.5 140,-76.5"/>
<text text-anchor="middle" x="187.5" y="-83.5" font-family="Helvetica,sans-Serif" font-size="10.00">evaluate_dmupfdx</text>
</a>
</g>
</g>
<!-- Node12&#45;&gt;Node14 -->
<g id="edge23" class="edge">
<title>Node12&#45;&gt;Node14</title>
<path fill="none" stroke="midnightblue" d="M271.95,-52.43C249.52,-58.63 220.6,-68.61 203.36,-76.41"/>
<polygon fill="midnightblue" stroke="midnightblue" points="272.94,-55.79 281.73,-49.87 271.17,-49.01 272.94,-55.79"/>
</g>
<!-- Node15 -->
<g id="node15" class="node">
<title>Node15</title>
<g id="a_node15"><a xlink:href="dfp200_8f90.html#a5e56f1f4b1e6df11a9cffa6237c37469" target="_top" xlink:title="This routine evaluates the value of the magnetic field once the interface is perturbed using matrix p...">
<polygon fill="white" stroke="black" points="130,-38.5 130,-57.5 245,-57.5 245,-38.5 130,-38.5"/>
<text text-anchor="middle" x="187.5" y="-45.5" font-family="Helvetica,sans-Serif" font-size="10.00">get_perturbed_solution</text>
</a>
</g>
</g>
<!-- Node12&#45;&gt;Node15 -->
<g id="edge26" class="edge">
<title>Node12&#45;&gt;Node15</title>
<path fill="none" stroke="midnightblue" d="M271.51,-41.86C263.3,-41.44 254.25,-41.23 245.23,-41.25"/>
<polygon fill="midnightblue" stroke="midnightblue" points="271.52,-45.37 281.73,-42.54 271.99,-38.38 271.52,-45.37"/>
</g>
<!-- Node13&#45;&gt;Node12 -->
<g id="edge22" class="edge">
<title>Node13&#45;&gt;Node12</title>
<path fill="none" stroke="midnightblue" d="M212.59,-23.53C232.96,-31.81 261.9,-41.28 281.73,-46.13"/>
<polygon fill="midnightblue" stroke="midnightblue" points="213.93,-20.3 203.36,-19.59 211.19,-26.74 213.93,-20.3"/>
</g>
<!-- Node14&#45;&gt;Node12 -->
<g id="edge24" class="edge">
<title>Node14&#45;&gt;Node12</title>
<path fill="none" stroke="midnightblue" d="M244.62,-74.28C260.95,-68.96 277.45,-62.86 288.9,-57.7"/>
<polygon fill="midnightblue" stroke="midnightblue" points="243.54,-70.96 235.06,-77.32 245.65,-77.63 243.54,-70.96"/>
</g>
<!-- Node15&#45;&gt;Node12 -->
<g id="edge27" class="edge">
<title>Node15&#45;&gt;Node12</title>
<path fill="none" stroke="midnightblue" d="M255.23,-54.68C264.76,-54.52 273.95,-54.11 281.73,-53.46"/>
<polygon fill="midnightblue" stroke="midnightblue" points="255.21,-51.18 245.23,-54.75 255.26,-58.18 255.21,-51.18"/>
</g>
<!-- Node16&#45;&gt;Node5 -->
<g id="edge29" class="edge">
<title>Node16&#45;&gt;Node5</title>
<path fill="none" stroke="midnightblue" d="M272.17,-276C251.1,-276 224.23,-276 206.71,-276"/>
<polygon fill="midnightblue" stroke="midnightblue" points="272.28,-279.5 282.28,-276 272.28,-272.5 272.28,-279.5"/>
</g>
<!-- Node18 -->
<g id="node18" class="node">
<title>Node18</title>
<g id="a_node18"><a xlink:href="group__grp__conjugate__gradient.html#ga25a3bae2ff2ee0469b045de0d033398b" target="_top" xlink:title="Use preconditioned conjugate gradient method to find minimum of energy functional.">
<polygon fill="white" stroke="black" points="281,-0.5 281,-19.5 329,-19.5 329,-0.5 281,-0.5"/>
<text text-anchor="middle" x="305" y="-7.5" font-family="Helvetica,sans-Serif" font-size="10.00">pc00aa</text>
</a>
</g>
</g>
<!-- Node17&#45;&gt;Node18 -->
<g id="edge32" class="edge">
<title>Node17&#45;&gt;Node18</title>
<path fill="none" stroke="midnightblue" d="M393.16,-10C372.81,-10 347.31,-10 329.16,-10"/>
<polygon fill="midnightblue" stroke="midnightblue" points="393.27,-13.5 403.27,-10 393.27,-6.5 393.27,-13.5"/>
</g>
</g>
</svg>
