<?xml version="1.0" encoding="UTF-8" standalone="no"?>
<!DOCTYPE svg PUBLIC "-//W3C//DTD SVG 1.1//EN"
 "http://www.w3.org/Graphics/SVG/1.1/DTD/svg11.dtd">
<!-- Generated by graphviz version 2.44.1 (0)
 -->
<!-- Title: preset Pages: 1 -->
<svg width="313pt" height="47pt"
 viewBox="0.00 0.00 313.00 47.00" xmlns="http://www.w3.org/2000/svg" xmlns:xlink="http://www.w3.org/1999/xlink">
<g id="graph0" class="graph" transform="scale(1 1) rotate(0) translate(4 43)">
<title>preset</title>
<polygon fill="white" stroke="transparent" points="-4,4 -4,-43 309,-43 309,4 -4,4"/>
<!-- Node1 -->
<g id="node1" class="node">
<title>Node1</title>
<g id="a_node1"><a xlink:title="Allocates and initializes internal arrays.">
<polygon fill="#bfbfbf" stroke="black" points="258,-0.5 258,-19.5 305,-19.5 305,-0.5 258,-0.5"/>
<text text-anchor="middle" x="281.5" y="-7.5" font-family="Helvetica,sans-Serif" font-size="10.00">preset</text>
</a>
</g>
</g>
<!-- Node2 -->
<g id="node2" class="node">
<title>Node2</title>
<g id="a_node2"><a xlink:href="group__grp__diagnostics.html#ga7401b50ec10c6598ee4a8112717a63ec" target="_top" xlink:title="Computes eigenvalues and eigenvectors of derivative matrix, .">
<polygon fill="white" stroke="black" points="173,-19.5 173,-38.5 222,-38.5 222,-19.5 173,-19.5"/>
<text text-anchor="middle" x="197.5" y="-26.5" font-family="Helvetica,sans-Serif" font-size="10.00">hesian</text>
</a>
</g>
</g>
<!-- Node1&#45;&gt;Node2 -->
<g id="edge1" class="edge">
<title>Node1&#45;&gt;Node2</title>
<path fill="none" stroke="midnightblue" d="M247.87,-17.56C239.25,-19.56 230.11,-21.67 222.08,-23.54"/>
<polygon fill="midnightblue" stroke="midnightblue" points="248.71,-20.96 257.66,-15.29 247.13,-14.14 248.71,-20.96"/>
</g>
<!-- Node3 -->
<g id="node3" class="node">
<title>Node3</title>
<g id="a_node3"><a xlink:href="xspech_8f90.html#aea782eae089760a491c2c54f9903abcc" target="_top" xlink:title="Main program of SPEC.">
<polygon fill="white" stroke="black" points="86,-0.5 86,-19.5 137,-19.5 137,-0.5 86,-0.5"/>
<text text-anchor="middle" x="111.5" y="-7.5" font-family="Helvetica,sans-Serif" font-size="10.00">xspech</text>
</a>
</g>
</g>
<!-- Node1&#45;&gt;Node3 -->
<g id="edge5" class="edge">
<title>Node1&#45;&gt;Node3</title>
<path fill="none" stroke="midnightblue" d="M247.54,-10C215.15,-10 166.46,-10 137.25,-10"/>
<polygon fill="midnightblue" stroke="midnightblue" points="247.84,-13.5 257.84,-10 247.84,-6.5 247.84,-13.5"/>
</g>
<!-- Node2&#45;&gt;Node3 -->
<g id="edge2" class="edge">
<title>Node2&#45;&gt;Node3</title>
<path fill="none" stroke="midnightblue" d="M162.64,-21.34C154.16,-19.42 145.23,-17.4 137.28,-15.61"/>
<polygon fill="midnightblue" stroke="midnightblue" points="162.13,-24.81 172.65,-23.61 163.67,-17.99 162.13,-24.81"/>
</g>
<!-- Node4 -->
<g id="node4" class="node">
<title>Node4</title>
<g id="a_node4"><a xlink:href="xspech_8f90.html#a537af4990058c0b0f2cd8b3669af204f" target="_top" xlink:title="todo remark">
<polygon fill="white" stroke="black" points="0,-0.5 0,-19.5 50,-19.5 50,-0.5 0,-0.5"/>
<text text-anchor="middle" x="25" y="-7.5" font-family="Helvetica,sans-Serif" font-size="10.00">ending</text>
</a>
</g>
</g>
<!-- Node3&#45;&gt;Node4 -->
<g id="edge3" class="edge">
<title>Node3&#45;&gt;Node4</title>
<path fill="none" stroke="midnightblue" d="M75.5,-3.34C66.97,-3.13 58.03,-3.29 50.14,-3.83"/>
<polygon fill="midnightblue" stroke="midnightblue" points="75.46,-6.84 85.6,-3.78 75.77,0.15 75.46,-6.84"/>
</g>
<!-- Node4&#45;&gt;Node3 -->
<g id="edge4" class="edge">
<title>Node4&#45;&gt;Node3</title>
<path fill="none" stroke="midnightblue" d="M60.19,-16.64C68.69,-16.88 77.64,-16.73 85.6,-16.22"/>
<polygon fill="midnightblue" stroke="midnightblue" points="60.29,-13.14 50.14,-16.17 59.96,-20.13 60.29,-13.14"/>
</g>
</g>
</svg>
