<?xml version="1.0" encoding="UTF-8" standalone="no"?>
<!DOCTYPE svg PUBLIC "-//W3C//DTD SVG 1.1//EN"
 "http://www.w3.org/Graphics/SVG/1.1/DTD/svg11.dtd">
<!-- Generated by graphviz version 2.47.1 (0)
 -->
<!-- Title: lforce Pages: 1 -->
<svg width="758pt" height="344pt"
 viewBox="0.00 0.00 758.00 344.44" xmlns="http://www.w3.org/2000/svg" xmlns:xlink="http://www.w3.org/1999/xlink">
<g id="graph0" class="graph" transform="scale(1 1) rotate(0) translate(4 340.44)">
<title>lforce</title>
<polygon fill="white" stroke="transparent" points="-4,4 -4,-340.44 754,-340.44 754,4 -4,4"/>
<!-- Node1 -->
<g id="node1" class="node">
<title>Node1</title>
<g id="a_node1"><a xlink:title="Computes , and the spectral condensation constraints if required, on the interfaces,...">
<polygon fill="#bfbfbf" stroke="black" points="709,-269.94 709,-288.94 750,-288.94 750,-269.94 709,-269.94"/>
<text text-anchor="middle" x="729.5" y="-276.94" font-family="Helvetica,sans-Serif" font-size="10.00">lforce</text>
</a>
</g>
</g>
<!-- Node2 -->
<g id="node2" class="node">
<title>Node2</title>
<g id="a_node2"><a xlink:href="dfp200_8f90.html#a55ea75395f8c71731451e1add3720c7e" target="_top" xlink:title="Given the field consistent with the constraints and the geometry, computes local quantites related to...">
<polygon fill="white" stroke="black" points="627,-236.94 627,-255.94 673,-255.94 673,-236.94 627,-236.94"/>
<text text-anchor="middle" x="650" y="-243.94" font-family="Helvetica,sans-Serif" font-size="10.00">dfp200</text>
</a>
</g>
</g>
<!-- Node1&#45;&gt;Node2 -->
<g id="edge1" class="edge">
<title>Node1&#45;&gt;Node2</title>
<path fill="none" stroke="midnightblue" d="M699.74,-267.2C690.9,-263.43 681.32,-259.35 673.01,-255.81"/>
<polygon fill="midnightblue" stroke="midnightblue" points="698.37,-270.42 708.94,-271.11 701.11,-263.98 698.37,-270.42"/>
</g>
<!-- Node16 -->
<g id="node16" class="node">
<title>Node16</title>
<g id="a_node16"><a xlink:href="dfp200_8f90.html#a7b64c7392b45d0042d8bd7379c0761a5" target="_top" xlink:title="Evaluate the derivative of the square of the magnetic field modulus. Add spectral constraint derivati...">
<polygon fill="white" stroke="black" points="496.5,-316.94 496.5,-335.94 570.5,-335.94 570.5,-316.94 496.5,-316.94"/>
<text text-anchor="middle" x="533.5" y="-323.94" font-family="Helvetica,sans-Serif" font-size="10.00">evaluate_dbb</text>
</a>
</g>
</g>
<!-- Node1&#45;&gt;Node16 -->
<g id="edge34" class="edge">
<title>Node1&#45;&gt;Node16</title>
<path fill="none" stroke="midnightblue" d="M698.91,-286.61C664.5,-294.95 607.67,-308.71 570.66,-317.68"/>
<polygon fill="midnightblue" stroke="midnightblue" points="699.94,-289.96 708.83,-284.21 698.29,-283.16 699.94,-289.96"/>
</g>
<!-- Node3 -->
<g id="node3" class="node">
<title>Node3</title>
<g id="a_node3"><a xlink:href="group__grp__global__force.html#ga38c9d3c50bd043707fefa5137c9dbf44" target="_top" xlink:title="Calculates , where &#160;and , and .">
<polygon fill="white" stroke="black" points="511.5,-146.94 511.5,-165.94 555.5,-165.94 555.5,-146.94 511.5,-146.94"/>
<text text-anchor="middle" x="533.5" y="-153.94" font-family="Helvetica,sans-Serif" font-size="10.00">dforce</text>
</a>
</g>
</g>
<!-- Node2&#45;&gt;Node3 -->
<g id="edge2" class="edge">
<title>Node2&#45;&gt;Node3</title>
<path fill="none" stroke="midnightblue" d="M638.28,-228.19C628.01,-212.19 611.13,-189.37 591,-175.44 580.45,-168.14 566.86,-163.45 555.66,-160.56"/>
<polygon fill="midnightblue" stroke="midnightblue" points="635.3,-230.03 643.53,-236.7 641.26,-226.36 635.3,-230.03"/>
</g>
<!-- Node12 -->
<g id="node12" class="node">
<title>Node12</title>
<g id="a_node12"><a xlink:href="dfp200_8f90.html#a6aca59cf350d7b1941f8389d50945a43" target="_top" xlink:title="get LU Beltrami matrices">
<polygon fill="white" stroke="black" points="315,-269.94 315,-288.94 440,-288.94 440,-269.94 315,-269.94"/>
<text text-anchor="middle" x="377.5" y="-276.94" font-family="Helvetica,sans-Serif" font-size="10.00">get_lu_beltrami_matrices</text>
</a>
</g>
</g>
<!-- Node2&#45;&gt;Node12 -->
<g id="edge31" class="edge">
<title>Node2&#45;&gt;Node12</title>
<path fill="none" stroke="midnightblue" d="M616.61,-245.82C566.46,-249.14 470.27,-260.77 416.77,-269.89"/>
<polygon fill="midnightblue" stroke="midnightblue" points="617.08,-249.3 626.86,-245.23 616.68,-242.31 617.08,-249.3"/>
</g>
<!-- Node2&#45;&gt;Node16 -->
<g id="edge27" class="edge">
<title>Node2&#45;&gt;Node16</title>
<path fill="none" stroke="midnightblue" d="M626.88,-263.32C616.71,-273.08 604.02,-284.82 591,-293.44 576.07,-303.32 556.4,-310.57 544.65,-316.93"/>
<polygon fill="midnightblue" stroke="midnightblue" points="629.36,-265.79 634.13,-256.32 624.5,-260.75 629.36,-265.79"/>
</g>
<!-- Node17 -->
<g id="node17" class="node">
<title>Node17</title>
<g id="a_node17"><a xlink:href="dfp200_8f90.html#a73ddf39ecc5228201fb643779e17cd36" target="_top" xlink:title="Evaluate mu and psip derivatives and store them in dmupfdx.">
<polygon fill="white" stroke="black" points="486,-222.94 486,-241.94 581,-241.94 581,-222.94 486,-222.94"/>
<text text-anchor="middle" x="533.5" y="-229.94" font-family="Helvetica,sans-Serif" font-size="10.00">evaluate_dmupfdx</text>
</a>
</g>
</g>
<!-- Node2&#45;&gt;Node17 -->
<g id="edge29" class="edge">
<title>Node2&#45;&gt;Node17</title>
<path fill="none" stroke="midnightblue" d="M616.86,-236.37C605.78,-234.44 593.15,-232.73 581.15,-231.5"/>
<polygon fill="midnightblue" stroke="midnightblue" points="616.45,-239.86 626.92,-238.28 617.75,-232.98 616.45,-239.86"/>
</g>
<!-- Node18 -->
<g id="node18" class="node">
<title>Node18</title>
<g id="a_node18"><a xlink:href="dfp200_8f90.html#a5e56f1f4b1e6df11a9cffa6237c37469" target="_top" xlink:title="This routine evaluates the value of the magnetic field once the interface is perturbed using matrix p...">
<polygon fill="white" stroke="black" points="476,-184.94 476,-203.94 591,-203.94 591,-184.94 476,-184.94"/>
<text text-anchor="middle" x="533.5" y="-191.94" font-family="Helvetica,sans-Serif" font-size="10.00">get_perturbed_solution</text>
</a>
</g>
</g>
<!-- Node2&#45;&gt;Node18 -->
<g id="edge32" class="edge">
<title>Node2&#45;&gt;Node18</title>
<path fill="none" stroke="midnightblue" d="M635.15,-230.29C623.64,-221.41 606.67,-211.46 591,-204.44 590.72,-204.31 590.43,-204.19 590.15,-204.06"/>
<polygon fill="midnightblue" stroke="midnightblue" points="632.9,-232.98 642.77,-236.81 637.45,-227.66 632.9,-232.98"/>
</g>
<!-- Node4 -->
<g id="node4" class="node">
<title>Node4</title>
<g id="a_node4"><a xlink:href="namespaceallglobal.html#a7824bc37519fe88336534ce90ab2af16" target="_top" xlink:title=" ">
<polygon fill="white" stroke="black" points="320.5,-117.94 320.5,-136.94 434.5,-136.94 434.5,-117.94 320.5,-117.94"/>
<text text-anchor="middle" x="377.5" y="-124.94" font-family="Helvetica,sans-Serif" font-size="10.00">allglobal::check_inputs</text>
</a>
</g>
</g>
<!-- Node3&#45;&gt;Node4 -->
<g id="edge3" class="edge">
<title>Node3&#45;&gt;Node4</title>
<path fill="none" stroke="midnightblue" d="M501.56,-150.61C480.83,-146.71 453.05,-141.48 429.14,-136.98"/>
<polygon fill="midnightblue" stroke="midnightblue" points="500.93,-154.06 511.41,-152.47 502.23,-147.18 500.93,-154.06"/>
</g>
<!-- Node6 -->
<g id="node6" class="node">
<title>Node6</title>
<g id="a_node6"><a xlink:href="xspech_8f90.html#a48f45478dc2c9f70ea8aa1c60ad06503" target="_top" xlink:title=" ">
<polygon fill="white" stroke="black" points="143.5,-155.94 143.5,-174.94 181.5,-174.94 181.5,-155.94 143.5,-155.94"/>
<text text-anchor="middle" x="162.5" y="-162.94" font-family="Helvetica,sans-Serif" font-size="10.00">spec</text>
</a>
</g>
</g>
<!-- Node3&#45;&gt;Node6 -->
<g id="edge26" class="edge">
<title>Node3&#45;&gt;Node6</title>
<path fill="none" stroke="midnightblue" d="M501.19,-157.2C426.76,-159.02 241.06,-163.55 181.91,-164.99"/>
<polygon fill="midnightblue" stroke="midnightblue" points="501.42,-160.7 511.34,-156.96 501.25,-153.7 501.42,-160.7"/>
</g>
<!-- Node8 -->
<g id="node8" class="node">
<title>Node8</title>
<g id="a_node8"><a xlink:href="group__grp__force__driver.html#gabbc245b3884ee8d8d3e2a52f25149f78" target="_top" xlink:title="fcn1">
<polygon fill="white" stroke="black" points="360,-41.94 360,-60.94 395,-60.94 395,-41.94 360,-41.94"/>
<text text-anchor="middle" x="377.5" y="-48.94" font-family="Helvetica,sans-Serif" font-size="10.00">fcn1</text>
</a>
</g>
</g>
<!-- Node3&#45;&gt;Node8 -->
<g id="edge9" class="edge">
<title>Node3&#45;&gt;Node8</title>
<path fill="none" stroke="midnightblue" d="M516.53,-139.3C499.12,-121.41 469.75,-93.5 440,-75.44 425.79,-66.82 407.95,-60.26 395.15,-56.2"/>
<polygon fill="midnightblue" stroke="midnightblue" points="514.21,-141.93 523.65,-146.74 519.27,-137.09 514.21,-141.93"/>
</g>
<!-- Node9 -->
<g id="node9" class="node">
<title>Node9</title>
<g id="a_node9"><a xlink:href="group__grp__force__driver.html#gaec14f81fbdbedafbc4189489ec8ae178" target="_top" xlink:title="Employs Newton method to find , where &#160;and &#160;is defined in dforce() .">
<polygon fill="white" stroke="black" points="231,-60.94 231,-79.94 279,-79.94 279,-60.94 231,-60.94"/>
<text text-anchor="middle" x="255" y="-67.94" font-family="Helvetica,sans-Serif" font-size="10.00">newton</text>
</a>
</g>
</g>
<!-- Node3&#45;&gt;Node9 -->
<g id="edge23" class="edge">
<title>Node3&#45;&gt;Node9</title>
<path fill="none" stroke="midnightblue" d="M508.62,-141.71C490.41,-131.07 464.39,-117.1 440,-108.44 384.06,-88.58 314.66,-77.75 279.21,-73.15"/>
<polygon fill="midnightblue" stroke="midnightblue" points="506.99,-144.82 517.38,-146.93 510.58,-138.81 506.99,-144.82"/>
</g>
<!-- Node10 -->
<g id="node10" class="node">
<title>Node10</title>
<g id="a_node10"><a xlink:href="group__grp__force__driver.html#ga8ccd6c7d901872702521d0a0edf95412" target="_top" xlink:title="fcn2">
<polygon fill="white" stroke="black" points="29.5,-32.94 29.5,-51.94 64.5,-51.94 64.5,-32.94 29.5,-32.94"/>
<text text-anchor="middle" x="47" y="-39.94" font-family="Helvetica,sans-Serif" font-size="10.00">fcn2</text>
</a>
</g>
</g>
<!-- Node3&#45;&gt;Node10 -->
<g id="edge18" class="edge">
<title>Node3&#45;&gt;Node10</title>
<path fill="none" stroke="midnightblue" d="M525.04,-137.54C512.47,-108.65 484.04,-54.53 440,-32.44 309.17,33.19 121.6,-18.47 64.88,-36.7"/>
<polygon fill="midnightblue" stroke="midnightblue" points="521.88,-139.05 528.95,-146.94 528.34,-136.36 521.88,-139.05"/>
</g>
<!-- Node3&#45;&gt;Node12 -->
<g id="edge19" class="edge">
<title>Node3&#45;&gt;Node12</title>
<path fill="none" stroke="midnightblue" d="M501.41,-161.95C492.39,-164.77 483.08,-169.03 476,-175.44 447.11,-201.62 468.26,-228.58 440,-255.44 433.44,-261.68 425.07,-266.35 416.63,-269.83"/>
<polygon fill="midnightblue" stroke="midnightblue" points="502.56,-165.26 511.34,-159.33 500.78,-158.5 502.56,-165.26"/>
</g>
<!-- Node13 -->
<g id="node13" class="node">
<title>Node13</title>
<g id="a_node13"><a xlink:href="group__grp__diagnostics.html#ga7401b50ec10c6598ee4a8112717a63ec" target="_top" xlink:title="Computes eigenvalues and eigenvectors of derivative matrix, .">
<polygon fill="white" stroke="black" points="232.5,-231.94 232.5,-250.94 277.5,-250.94 277.5,-231.94 232.5,-231.94"/>
<text text-anchor="middle" x="255" y="-238.94" font-family="Helvetica,sans-Serif" font-size="10.00">hesian</text>
</a>
</g>
</g>
<!-- Node3&#45;&gt;Node13 -->
<g id="edge21" class="edge">
<title>Node3&#45;&gt;Node13</title>
<path fill="none" stroke="midnightblue" d="M501.62,-163.2C492.83,-166.06 483.58,-170.02 476,-175.44 454.6,-190.75 462.96,-209.59 440,-222.44 387.73,-251.68 313.96,-248.4 277.76,-244.47"/>
<polygon fill="midnightblue" stroke="midnightblue" points="502.61,-166.56 511.25,-160.43 500.67,-159.84 502.61,-166.56"/>
</g>
<!-- Node14 -->
<g id="node14" class="node">
<title>Node14</title>
<g id="a_node14"><a xlink:href="group__grp__conjugate__gradient.html#ga4d8415226e62a9fdb42b0fd0b464251e" target="_top" xlink:title="Returns the energy functional and it&#39;s derivatives with respect to geometry.">
<polygon fill="white" stroke="black" points="353.5,-193.94 353.5,-212.94 401.5,-212.94 401.5,-193.94 353.5,-193.94"/>
<text text-anchor="middle" x="377.5" y="-200.94" font-family="Helvetica,sans-Serif" font-size="10.00">pc00ab</text>
</a>
</g>
</g>
<!-- Node3&#45;&gt;Node14 -->
<g id="edge24" class="edge">
<title>Node3&#45;&gt;Node14</title>
<path fill="none" stroke="midnightblue" d="M501.61,-165.87C472.08,-174.88 428.21,-188.27 401.59,-196.39"/>
<polygon fill="midnightblue" stroke="midnightblue" points="502.87,-169.14 511.41,-162.88 500.82,-162.45 502.87,-169.14"/>
</g>
<!-- Node5 -->
<g id="node5" class="node">
<title>Node5</title>
<g id="a_node5"><a xlink:href="xspech_8f90.html#aea782eae089760a491c2c54f9903abcc" target="_top" xlink:title="Main program of SPEC.">
<polygon fill="white" stroke="black" points="231.5,-117.94 231.5,-136.94 278.5,-136.94 278.5,-117.94 231.5,-117.94"/>
<text text-anchor="middle" x="255" y="-124.94" font-family="Helvetica,sans-Serif" font-size="10.00">xspech</text>
</a>
</g>
</g>
<!-- Node4&#45;&gt;Node5 -->
<g id="edge4" class="edge">
<title>Node4&#45;&gt;Node5</title>
<path fill="none" stroke="midnightblue" d="M310.45,-127.44C299.06,-127.44 287.95,-127.44 278.77,-127.44"/>
<polygon fill="midnightblue" stroke="midnightblue" points="310.48,-130.94 320.48,-127.44 310.48,-123.94 310.48,-130.94"/>
</g>
<!-- Node5&#45;&gt;Node6 -->
<g id="edge5" class="edge">
<title>Node5&#45;&gt;Node6</title>
<path fill="none" stroke="midnightblue" d="M221.52,-134.58C205.4,-140.71 186.94,-149.06 175.25,-155.79"/>
<polygon fill="midnightblue" stroke="midnightblue" points="222.95,-137.78 231.16,-131.08 220.57,-131.2 222.95,-137.78"/>
</g>
<!-- Node6&#45;&gt;Node5 -->
<g id="edge8" class="edge">
<title>Node6&#45;&gt;Node5</title>
<path fill="none" stroke="midnightblue" d="M191.1,-160.12C208.19,-153.92 229.27,-144.56 242.17,-137.14"/>
<polygon fill="midnightblue" stroke="midnightblue" points="189.92,-156.83 181.59,-163.37 192.18,-163.45 189.92,-156.83"/>
</g>
<!-- Node7 -->
<g id="node7" class="node">
<title>Node7</title>
<g id="a_node7"><a xlink:href="namespacesphdf5.html#a0f962c09cd5d5eba99f1cba043cb3898" target="_top" xlink:title="initialize the interface to the HDF5 library and open the output file">
<polygon fill="white" stroke="black" points="0,-136.94 0,-155.94 94,-155.94 94,-136.94 0,-136.94"/>
<text text-anchor="middle" x="47" y="-143.94" font-family="Helvetica,sans-Serif" font-size="10.00">sphdf5::init_outfile</text>
</a>
</g>
</g>
<!-- Node6&#45;&gt;Node7 -->
<g id="edge6" class="edge">
<title>Node6&#45;&gt;Node7</title>
<path fill="none" stroke="midnightblue" d="M133.13,-160.69C121.33,-158.72 107.32,-156.37 94.11,-154.16"/>
<polygon fill="midnightblue" stroke="midnightblue" points="132.82,-164.19 143.26,-162.39 133.98,-157.29 132.82,-164.19"/>
</g>
<!-- Node7&#45;&gt;Node5 -->
<g id="edge7" class="edge">
<title>Node7&#45;&gt;Node5</title>
<path fill="none" stroke="midnightblue" d="M104.28,-141.25C146.03,-137.4 200.78,-132.35 231.17,-129.55"/>
<polygon fill="midnightblue" stroke="midnightblue" points="103.87,-137.77 94.23,-142.18 104.51,-144.74 103.87,-137.77"/>
</g>
<!-- Node8&#45;&gt;Node9 -->
<g id="edge10" class="edge">
<title>Node8&#45;&gt;Node9</title>
<path fill="none" stroke="midnightblue" d="M349.51,-49.96C328.38,-51.85 299.31,-56.53 279.22,-61.32"/>
<polygon fill="midnightblue" stroke="midnightblue" points="350.02,-53.43 359.74,-49.24 349.52,-46.45 350.02,-53.43"/>
</g>
<!-- Node9&#45;&gt;Node6 -->
<g id="edge14" class="edge">
<title>Node9&#45;&gt;Node6</title>
<path fill="none" stroke="midnightblue" d="M237.52,-87.74C218.49,-107.72 187.86,-139.87 172.66,-155.83"/>
<polygon fill="midnightblue" stroke="midnightblue" points="240.29,-89.9 244.66,-80.25 235.22,-85.08 240.29,-89.9"/>
</g>
<!-- Node9&#45;&gt;Node8 -->
<g id="edge11" class="edge">
<title>Node9&#45;&gt;Node8</title>
<path fill="none" stroke="midnightblue" d="M289.21,-71.31C312.11,-68.87 341.58,-63.8 359.74,-58.93"/>
<polygon fill="midnightblue" stroke="midnightblue" points="288.85,-67.83 279.22,-72.24 289.5,-74.8 288.85,-67.83"/>
</g>
<!-- Node9&#45;&gt;Node10 -->
<g id="edge12" class="edge">
<title>Node9&#45;&gt;Node10</title>
<path fill="none" stroke="midnightblue" d="M220.71,-60.79C176.07,-52.2 98.52,-42.07 64.64,-40.81"/>
<polygon fill="midnightblue" stroke="midnightblue" points="220.27,-64.27 230.77,-62.82 221.66,-57.41 220.27,-64.27"/>
</g>
<!-- Node11 -->
<g id="node11" class="node">
<title>Node11</title>
<g id="a_node11"><a xlink:href="group__grp__force__driver.html#ga382822b303cbf8c56d6f54dcb379caf2" target="_top" xlink:title="read or write force&#45;derivative matrix">
<polygon fill="white" stroke="black" points="130,-79.94 130,-98.94 195,-98.94 195,-79.94 130,-79.94"/>
<text text-anchor="middle" x="162.5" y="-86.94" font-family="Helvetica,sans-Serif" font-size="10.00">writereadgf</text>
</a>
</g>
</g>
<!-- Node9&#45;&gt;Node11 -->
<g id="edge15" class="edge">
<title>Node9&#45;&gt;Node11</title>
<path fill="none" stroke="midnightblue" d="M220.67,-70.9C207.67,-73.16 193.27,-76.5 182.17,-79.94"/>
<polygon fill="midnightblue" stroke="midnightblue" points="221.35,-74.34 230.69,-69.35 220.28,-67.42 221.35,-74.34"/>
</g>
<!-- Node10&#45;&gt;Node9 -->
<g id="edge13" class="edge">
<title>Node10&#45;&gt;Node9</title>
<path fill="none" stroke="midnightblue" d="M74.62,-50.77C115.3,-59.1 192.23,-69.47 230.77,-71.75"/>
<polygon fill="midnightblue" stroke="midnightblue" points="75.16,-47.3 64.64,-48.59 73.67,-54.14 75.16,-47.3"/>
</g>
<!-- Node11&#45;&gt;Node9 -->
<g id="edge17" class="edge">
<title>Node11&#45;&gt;Node9</title>
<path fill="none" stroke="midnightblue" d="M205.04,-87.45C215.61,-85.35 226.46,-82.69 235.25,-79.97"/>
<polygon fill="midnightblue" stroke="midnightblue" points="204.26,-84.03 195.06,-89.28 205.52,-90.92 204.26,-84.03"/>
</g>
<!-- Node11&#45;&gt;Node10 -->
<g id="edge16" class="edge">
<title>Node11&#45;&gt;Node10</title>
<path fill="none" stroke="midnightblue" d="M129.02,-75.99C108.01,-67.29 81.53,-56.32 64.67,-49.35"/>
<polygon fill="midnightblue" stroke="midnightblue" points="127.95,-79.34 138.53,-79.93 130.63,-72.87 127.95,-79.34"/>
</g>
<!-- Node12&#45;&gt;Node2 -->
<g id="edge20" class="edge">
<title>Node12&#45;&gt;Node2</title>
<path fill="none" stroke="midnightblue" d="M450.05,-276.75C508.93,-270.99 588.69,-260.55 626.86,-253.05"/>
<polygon fill="midnightblue" stroke="midnightblue" points="449.67,-273.27 440.05,-277.7 450.34,-280.24 449.67,-273.27"/>
</g>
<!-- Node13&#45;&gt;Node6 -->
<g id="edge22" class="edge">
<title>Node13&#45;&gt;Node6</title>
<path fill="none" stroke="midnightblue" d="M234.51,-225.36C233.32,-224.38 232.14,-223.4 231,-222.44 211.22,-205.92 188.33,-186.54 174.93,-175.16"/>
<polygon fill="midnightblue" stroke="midnightblue" points="232.34,-228.12 242.28,-231.8 236.81,-222.73 232.34,-228.12"/>
</g>
<!-- Node15 -->
<g id="node15" class="node">
<title>Node15</title>
<g id="a_node15"><a xlink:href="group__grp__conjugate__gradient.html#ga25a3bae2ff2ee0469b045de0d033398b" target="_top" xlink:title="Use preconditioned conjugate gradient method to find minimum of energy functional.">
<polygon fill="white" stroke="black" points="231,-193.94 231,-212.94 279,-212.94 279,-193.94 231,-193.94"/>
<text text-anchor="middle" x="255" y="-200.94" font-family="Helvetica,sans-Serif" font-size="10.00">pc00aa</text>
</a>
</g>
</g>
<!-- Node14&#45;&gt;Node15 -->
<g id="edge25" class="edge">
<title>Node14&#45;&gt;Node15</title>
<path fill="none" stroke="midnightblue" d="M343.16,-203.44C322.81,-203.44 297.31,-203.44 279.16,-203.44"/>
<polygon fill="midnightblue" stroke="midnightblue" points="343.27,-206.94 353.27,-203.44 343.27,-199.94 343.27,-206.94"/>
</g>
<!-- Node16&#45;&gt;Node2 -->
<g id="edge28" class="edge">
<title>Node16&#45;&gt;Node2</title>
<path fill="none" stroke="midnightblue" d="M579.88,-317.91C583.74,-315.93 587.5,-313.76 591,-311.44 614.11,-296.14 636.17,-271.01 644.98,-256.24"/>
<polygon fill="midnightblue" stroke="midnightblue" points="578.35,-314.77 570.79,-322.18 581.33,-321.1 578.35,-314.77"/>
</g>
<!-- Node17&#45;&gt;Node2 -->
<g id="edge30" class="edge">
<title>Node17&#45;&gt;Node2</title>
<path fill="none" stroke="midnightblue" d="M573.96,-243.72C591.68,-246.5 611.93,-248.64 626.92,-249.2"/>
<polygon fill="midnightblue" stroke="midnightblue" points="574.32,-240.23 563.88,-242.01 573.15,-247.13 574.32,-240.23"/>
</g>
<!-- Node18&#45;&gt;Node2 -->
<g id="edge33" class="edge">
<title>Node18&#45;&gt;Node2</title>
<path fill="none" stroke="midnightblue" d="M554.32,-208.02C565.32,-212.46 579.14,-217.13 591,-222.44 603.27,-227.93 616.32,-235.22 626.94,-240.72"/>
<polygon fill="midnightblue" stroke="midnightblue" points="555.71,-204.8 545.14,-203.99 552.89,-211.21 555.71,-204.8"/>
</g>
</g>
</svg>
