<?xml version="1.0" encoding="UTF-8" standalone="no"?>
<!DOCTYPE svg PUBLIC "-//W3C//DTD SVG 1.1//EN"
 "http://www.w3.org/Graphics/SVG/1.1/DTD/svg11.dtd">
<!-- Generated by graphviz version 2.44.0 ()
 -->
<!-- Title: fcn2 Pages: 1 -->
<svg width="350pt" height="170pt"
 viewBox="0.00 0.00 350.00 170.00" xmlns="http://www.w3.org/2000/svg" xmlns:xlink="http://www.w3.org/1999/xlink">
<g id="graph0" class="graph" transform="scale(1 1) rotate(0) translate(4 166)">
<title>fcn2</title>
<polygon fill="white" stroke="transparent" points="-4,4 -4,-166 346,-166 346,4 -4,4"/>
<!-- Node1 -->
<g id="node1" class="node">
<title>Node1</title>
<g id="a_node1"><a xlink:title="fcn2">
<polygon fill="#bfbfbf" stroke="black" points="0,-76.5 0,-95.5 35,-95.5 35,-76.5 0,-76.5"/>
<text text-anchor="middle" x="17.5" y="-83.5" font-family="Helvetica,sans-Serif" font-size="10.00">fcn2</text>
</a>
</g>
</g>
<!-- Node2 -->
<g id="node2" class="node">
<title>Node2</title>
<g id="a_node2"><a xlink:href="group__grp__force__driver.html#gaec14f81fbdbedafbc4189489ec8ae178" target="_top" xlink:title="Employs Newton method to find , where &#160;and &#160;is defined in dforce() .">
<polygon fill="white" stroke="black" points="71,-76.5 71,-95.5 119,-95.5 119,-76.5 71,-76.5"/>
<text text-anchor="middle" x="95" y="-83.5" font-family="Helvetica,sans-Serif" font-size="10.00">newton</text>
</a>
</g>
</g>
<!-- Node1&#45;&gt;Node2 -->
<g id="edge1" class="edge">
<title>Node1&#45;&gt;Node2</title>
<path fill="none" stroke="midnightblue" d="M35.26,-80.28C42.81,-79.45 52.01,-79.12 60.87,-79.3"/>
<polygon fill="midnightblue" stroke="midnightblue" points="60.85,-82.8 70.99,-79.73 61.15,-75.8 60.85,-82.8"/>
</g>
<!-- Node4 -->
<g id="node4" class="node">
<title>Node4</title>
<g id="a_node4"><a xlink:href="group__grp__packing.html#ga094e630c02686dd178749eb1efbf13fb" target="_top" xlink:title="Packs, and unpacks, geometrical degrees of freedom; and sets coordinate axis.">
<polygon fill="white" stroke="black" points="277,-142.5 277,-161.5 321,-161.5 321,-142.5 277,-142.5"/>
<text text-anchor="middle" x="299" y="-149.5" font-family="Helvetica,sans-Serif" font-size="10.00">packxi</text>
</a>
</g>
</g>
<!-- Node1&#45;&gt;Node4 -->
<g id="edge10" class="edge">
<title>Node1&#45;&gt;Node4</title>
<path fill="none" stroke="midnightblue" d="M29.74,-95.72C39.84,-103.87 55.43,-115.11 71,-121 137.5,-146.17 221.81,-151.31 266.64,-152.11"/>
<polygon fill="midnightblue" stroke="midnightblue" points="266.85,-155.61 276.89,-152.23 266.93,-148.61 266.85,-155.61"/>
</g>
<!-- Node5 -->
<g id="node5" class="node">
<title>Node5</title>
<g id="a_node5"><a xlink:href="namespaceallglobal.html#a282c297c96abdab5e76b5ace440b09a8" target="_top" xlink:title="The restart file is written.">
<polygon fill="white" stroke="black" points="256,-95.5 256,-114.5 342,-114.5 342,-95.5 256,-95.5"/>
<text text-anchor="middle" x="299" y="-102.5" font-family="Helvetica,sans-Serif" font-size="10.00">allglobal::wrtend</text>
</a>
</g>
</g>
<!-- Node1&#45;&gt;Node5 -->
<g id="edge16" class="edge">
<title>Node1&#45;&gt;Node5</title>
<path fill="none" stroke="midnightblue" d="M35.11,-93.7C45.24,-97.96 58.59,-102.82 71,-105 130.18,-115.38 199.39,-113.4 245.69,-110.09"/>
<polygon fill="midnightblue" stroke="midnightblue" points="246.08,-113.57 255.79,-109.33 245.55,-106.59 246.08,-113.57"/>
</g>
<!-- Node6 -->
<g id="node6" class="node">
<title>Node6</title>
<g id="a_node6"><a xlink:href="group__grp__force__driver.html#ga382822b303cbf8c56d6f54dcb379caf2" target="_top" xlink:title="read or write force&#45;derivative matrix">
<polygon fill="white" stroke="black" points="155,-38.5 155,-57.5 220,-57.5 220,-38.5 155,-38.5"/>
<text text-anchor="middle" x="187.5" y="-45.5" font-family="Helvetica,sans-Serif" font-size="10.00">writereadgf</text>
</a>
</g>
</g>
<!-- Node1&#45;&gt;Node6 -->
<g id="edge15" class="edge">
<title>Node1&#45;&gt;Node6</title>
<path fill="none" stroke="midnightblue" d="M35.27,-79.03C45.46,-75.03 58.81,-70.18 71,-67 95.1,-60.71 122.61,-56.09 144.73,-52.98"/>
<polygon fill="midnightblue" stroke="midnightblue" points="145.36,-56.43 154.8,-51.61 144.42,-49.49 145.36,-56.43"/>
</g>
<!-- Node8 -->
<g id="node8" class="node">
<title>Node8</title>
<g id="a_node8"><a xlink:href="group__grp__volume.html#gae4c62d20b8fef07f4471b5b0889ab005" target="_top" xlink:title="Computes volume of each region; and, if required, the derivatives of the volume with respect to the i...">
<polygon fill="white" stroke="black" points="71,-0.5 71,-19.5 119,-19.5 119,-0.5 71,-0.5"/>
<text text-anchor="middle" x="95" y="-7.5" font-family="Helvetica,sans-Serif" font-size="10.00">volume</text>
</a>
</g>
</g>
<!-- Node1&#45;&gt;Node8 -->
<g id="edge11" class="edge">
<title>Node1&#45;&gt;Node8</title>
<path fill="none" stroke="midnightblue" d="M28.06,-76.37C40.36,-63.99 61.94,-42.28 77.05,-27.06"/>
<polygon fill="midnightblue" stroke="midnightblue" points="79.71,-29.35 84.28,-19.79 74.75,-24.42 79.71,-29.35"/>
</g>
<!-- Node2&#45;&gt;Node1 -->
<g id="edge6" class="edge">
<title>Node2&#45;&gt;Node1</title>
<path fill="none" stroke="midnightblue" d="M70.99,-92.27C62.89,-92.82 53.71,-92.9 45.32,-92.49"/>
<polygon fill="midnightblue" stroke="midnightblue" points="45.49,-89 35.26,-91.72 44.96,-95.97 45.49,-89"/>
</g>
<!-- Node3 -->
<g id="node3" class="node">
<title>Node3</title>
<g id="a_node3"><a xlink:href="group__grp__force__driver.html#gabbc245b3884ee8d8d3e2a52f25149f78" target="_top" xlink:title="fcn1">
<polygon fill="white" stroke="black" points="170,-76.5 170,-95.5 205,-95.5 205,-76.5 170,-76.5"/>
<text text-anchor="middle" x="187.5" y="-83.5" font-family="Helvetica,sans-Serif" font-size="10.00">fcn1</text>
</a>
</g>
</g>
<!-- Node2&#45;&gt;Node3 -->
<g id="edge2" class="edge">
<title>Node2&#45;&gt;Node3</title>
<path fill="none" stroke="midnightblue" d="M119.31,-80.01C131.66,-79.08 146.9,-79 159.74,-79.78"/>
<polygon fill="midnightblue" stroke="midnightblue" points="159.58,-83.28 169.84,-80.63 160.17,-76.3 159.58,-83.28"/>
</g>
<!-- Node2&#45;&gt;Node6 -->
<g id="edge7" class="edge">
<title>Node2&#45;&gt;Node6</title>
<path fill="none" stroke="midnightblue" d="M107.83,-76.3C117.49,-70.75 131.73,-64.11 145.45,-58.51"/>
<polygon fill="midnightblue" stroke="midnightblue" points="146.77,-61.75 154.8,-54.84 144.21,-55.24 146.77,-61.75"/>
</g>
<!-- Node3&#45;&gt;Node2 -->
<g id="edge3" class="edge">
<title>Node3&#45;&gt;Node2</title>
<path fill="none" stroke="midnightblue" d="M169.84,-91.37C158.54,-92.65 143.2,-93.04 129.44,-92.54"/>
<polygon fill="midnightblue" stroke="midnightblue" points="129.48,-89.04 119.31,-91.99 129.1,-96.03 129.48,-89.04"/>
</g>
<!-- Node3&#45;&gt;Node4 -->
<g id="edge4" class="edge">
<title>Node3&#45;&gt;Node4</title>
<path fill="none" stroke="midnightblue" d="M204.66,-95.74C222.79,-106.67 252.43,-124.53 273.44,-137.2"/>
<polygon fill="midnightblue" stroke="midnightblue" points="271.76,-140.27 282.13,-142.44 275.37,-134.28 271.76,-140.27"/>
</g>
<!-- Node3&#45;&gt;Node5 -->
<g id="edge5" class="edge">
<title>Node3&#45;&gt;Node5</title>
<path fill="none" stroke="midnightblue" d="M205.13,-88.89C216.02,-90.78 230.9,-93.36 245.56,-95.9"/>
<polygon fill="midnightblue" stroke="midnightblue" points="245.17,-99.39 255.63,-97.65 246.37,-92.49 245.17,-99.39"/>
</g>
<!-- Node6&#45;&gt;Node2 -->
<g id="edge9" class="edge">
<title>Node6&#45;&gt;Node2</title>
<path fill="none" stroke="midnightblue" d="M174.87,-57.58C163.3,-64.26 145,-72.55 128.94,-78.69"/>
<polygon fill="midnightblue" stroke="midnightblue" points="127.5,-75.49 119.31,-82.2 129.9,-82.07 127.5,-75.49"/>
</g>
<!-- Node7 -->
<g id="node7" class="node">
<title>Node7</title>
<g id="a_node7"><a xlink:href="group__grp__build__matrices.html#ga1c52bb6dbffdb432550aae12b096080f" target="_top" xlink:title="Constructs energy and helicity matrices that represent the Beltrami linear system....">
<polygon fill="white" stroke="black" points="277.5,-38.5 277.5,-57.5 320.5,-57.5 320.5,-38.5 277.5,-38.5"/>
<text text-anchor="middle" x="299" y="-45.5" font-family="Helvetica,sans-Serif" font-size="10.00">matrix</text>
</a>
</g>
</g>
<!-- Node6&#45;&gt;Node7 -->
<g id="edge8" class="edge">
<title>Node6&#45;&gt;Node7</title>
<path fill="none" stroke="midnightblue" d="M220.17,-48C235.01,-48 252.62,-48 267.34,-48"/>
<polygon fill="midnightblue" stroke="midnightblue" points="267.46,-51.5 277.46,-48 267.46,-44.5 267.46,-51.5"/>
</g>
<!-- Node9 -->
<g id="node9" class="node">
<title>Node9</title>
<g id="a_node9"><a xlink:href="group__grp__geometry.html#gaaca20aa60eaf39055f3c9d5c02a24ac2" target="_top" xlink:title="Calculates coordinates, , and metrics, using FFTs.">
<polygon fill="white" stroke="black" points="164.5,-0.5 164.5,-19.5 210.5,-19.5 210.5,-0.5 164.5,-0.5"/>
<text text-anchor="middle" x="187.5" y="-7.5" font-family="Helvetica,sans-Serif" font-size="10.00">coords</text>
</a>
</g>
</g>
<!-- Node8&#45;&gt;Node9 -->
<g id="edge12" class="edge">
<title>Node8&#45;&gt;Node9</title>
<path fill="none" stroke="midnightblue" d="M119.31,-4.01C129.89,-3.21 142.59,-3.04 154.09,-3.5"/>
<polygon fill="midnightblue" stroke="midnightblue" points="154.02,-7 164.21,-4.09 154.43,-0.01 154.02,-7"/>
</g>
<!-- Node9&#45;&gt;Node8 -->
<g id="edge14" class="edge">
<title>Node9&#45;&gt;Node8</title>
<path fill="none" stroke="midnightblue" d="M164.21,-15.91C153.76,-16.75 141.1,-16.96 129.53,-16.54"/>
<polygon fill="midnightblue" stroke="midnightblue" points="129.48,-13.04 119.31,-15.99 129.1,-20.03 129.48,-13.04"/>
</g>
<!-- Node10 -->
<g id="node10" class="node">
<title>Node10</title>
<g id="a_node10"><a xlink:href="group__grp__numerics.html#ga1fd52accb0646f535f9bcc46cf5a68f3" target="_top" xlink:title="Inverse Fourier transform (fftw wrapper)">
<polygon fill="white" stroke="black" points="280,-0.5 280,-19.5 318,-19.5 318,-0.5 280,-0.5"/>
<text text-anchor="middle" x="299" y="-7.5" font-family="Helvetica,sans-Serif" font-size="10.00">invfft</text>
</a>
</g>
</g>
<!-- Node9&#45;&gt;Node10 -->
<g id="edge13" class="edge">
<title>Node9&#45;&gt;Node10</title>
<path fill="none" stroke="midnightblue" d="M210.66,-10C227.69,-10 251.33,-10 269.73,-10"/>
<polygon fill="midnightblue" stroke="midnightblue" points="269.86,-13.5 279.86,-10 269.86,-6.5 269.86,-13.5"/>
</g>
</g>
</svg>
