<?xml version="1.0" encoding="UTF-8" standalone="no"?>
<!DOCTYPE svg PUBLIC "-//W3C//DTD SVG 1.1//EN"
 "http://www.w3.org/Graphics/SVG/1.1/DTD/svg11.dtd">
<!-- Generated by graphviz version 2.44.0 ()
 -->
<!-- Title: fcn1 Pages: 1 -->
<svg width="476pt" height="151pt"
 viewBox="0.00 0.00 476.00 151.00" xmlns="http://www.w3.org/2000/svg" xmlns:xlink="http://www.w3.org/1999/xlink">
<g id="graph0" class="graph" transform="scale(1 1) rotate(0) translate(4 147)">
<title>fcn1</title>
<polygon fill="white" stroke="transparent" points="-4,4 -4,-147 472,-147 472,4 -4,4"/>
<!-- Node1 -->
<g id="node1" class="node">
<title>Node1</title>
<g id="a_node1"><a xlink:title="fcn1">
<polygon fill="#bfbfbf" stroke="black" points="0,-57.5 0,-76.5 35,-76.5 35,-57.5 0,-57.5"/>
<text text-anchor="middle" x="17.5" y="-64.5" font-family="Helvetica,sans-Serif" font-size="10.00">fcn1</text>
</a>
</g>
</g>
<!-- Node2 -->
<g id="node2" class="node">
<title>Node2</title>
<g id="a_node2"><a xlink:href="group__grp__force__driver.html#gaec14f81fbdbedafbc4189489ec8ae178" target="_top" xlink:title="Employs Newton method to find , where &#160;and &#160;is defined in dforce() .">
<polygon fill="white" stroke="black" points="71,-76.5 71,-95.5 119,-95.5 119,-76.5 71,-76.5"/>
<text text-anchor="middle" x="95" y="-83.5" font-family="Helvetica,sans-Serif" font-size="10.00">newton</text>
</a>
</g>
</g>
<!-- Node1&#45;&gt;Node2 -->
<g id="edge1" class="edge">
<title>Node1&#45;&gt;Node2</title>
<path fill="none" stroke="midnightblue" d="M35.26,-65.5C45.1,-66.89 57.74,-69.84 68.77,-73.24"/>
<polygon fill="midnightblue" stroke="midnightblue" points="67.73,-76.58 78.32,-76.46 69.96,-69.95 67.73,-76.58"/>
</g>
<!-- Node4 -->
<g id="node4" class="node">
<title>Node4</title>
<g id="a_node4"><a xlink:href="group__grp__packing.html#ga094e630c02686dd178749eb1efbf13fb" target="_top" xlink:title="Packs, and unpacks, geometrical degrees of freedom; and sets coordinate axis.">
<polygon fill="white" stroke="black" points="247,-38.5 247,-57.5 291,-57.5 291,-38.5 247,-38.5"/>
<text text-anchor="middle" x="269" y="-45.5" font-family="Helvetica,sans-Serif" font-size="10.00">packxi</text>
</a>
</g>
</g>
<!-- Node1&#45;&gt;Node4 -->
<g id="edge15" class="edge">
<title>Node1&#45;&gt;Node4</title>
<path fill="none" stroke="midnightblue" d="M35.26,-65.72C76.45,-62.59 183.18,-54.46 236.59,-50.39"/>
<polygon fill="midnightblue" stroke="midnightblue" points="237.13,-53.86 246.83,-49.61 236.6,-46.88 237.13,-53.86"/>
</g>
<!-- Node10 -->
<g id="node10" class="node">
<title>Node10</title>
<g id="a_node10"><a xlink:href="namespaceallglobal.html#a282c297c96abdab5e76b5ace440b09a8" target="_top" xlink:title="The restart file is written.">
<polygon fill="white" stroke="black" points="226,-0.5 226,-19.5 312,-19.5 312,-0.5 226,-0.5"/>
<text text-anchor="middle" x="269" y="-7.5" font-family="Helvetica,sans-Serif" font-size="10.00">allglobal::wrtend</text>
</a>
</g>
</g>
<!-- Node1&#45;&gt;Node10 -->
<g id="edge16" class="edge">
<title>Node1&#45;&gt;Node10</title>
<path fill="none" stroke="midnightblue" d="M35.26,-63.17C71.75,-54.84 159.65,-34.75 216.37,-21.79"/>
<polygon fill="midnightblue" stroke="midnightblue" points="217.27,-25.18 226.24,-19.54 215.71,-18.36 217.27,-25.18"/>
</g>
<!-- Node2&#45;&gt;Node1 -->
<g id="edge2" class="edge">
<title>Node2&#45;&gt;Node1</title>
<path fill="none" stroke="midnightblue" d="M70.92,-86.47C62.35,-84.89 52.59,-82.48 43.83,-79.79"/>
<polygon fill="midnightblue" stroke="midnightblue" points="44.74,-76.4 34.14,-76.53 42.51,-83.04 44.74,-76.4"/>
</g>
<!-- Node3 -->
<g id="node3" class="node">
<title>Node3</title>
<g id="a_node3"><a xlink:href="group__grp__force__driver.html#ga8ccd6c7d901872702521d0a0edf95412" target="_top" xlink:title="fcn2">
<polygon fill="white" stroke="black" points="155,-76.5 155,-95.5 190,-95.5 190,-76.5 155,-76.5"/>
<text text-anchor="middle" x="172.5" y="-83.5" font-family="Helvetica,sans-Serif" font-size="10.00">fcn2</text>
</a>
</g>
</g>
<!-- Node2&#45;&gt;Node3 -->
<g id="edge3" class="edge">
<title>Node2&#45;&gt;Node3</title>
<path fill="none" stroke="midnightblue" d="M119.06,-79.73C127.11,-79.18 136.22,-79.1 144.56,-79.5"/>
<polygon fill="midnightblue" stroke="midnightblue" points="144.33,-83 154.57,-80.26 144.86,-76.02 144.33,-83"/>
</g>
<!-- Node8 -->
<g id="node8" class="node">
<title>Node8</title>
<g id="a_node8"><a xlink:href="group__grp__force__driver.html#ga382822b303cbf8c56d6f54dcb379caf2" target="_top" xlink:title="read or write force&#45;derivative matrix">
<polygon fill="white" stroke="black" points="236.5,-123.5 236.5,-142.5 301.5,-142.5 301.5,-123.5 236.5,-123.5"/>
<text text-anchor="middle" x="269" y="-130.5" font-family="Helvetica,sans-Serif" font-size="10.00">writereadgf</text>
</a>
</g>
</g>
<!-- Node2&#45;&gt;Node8 -->
<g id="edge14" class="edge">
<title>Node2&#45;&gt;Node8</title>
<path fill="none" stroke="midnightblue" d="M119.15,-85.68C129.98,-88.43 143.1,-92.61 155,-96 184.84,-104.49 219.52,-112.87 242.51,-120.15"/>
<polygon fill="midnightblue" stroke="midnightblue" points="241.59,-123.54 252.19,-123.42 243.83,-116.9 241.59,-123.54"/>
</g>
<!-- Node3&#45;&gt;Node2 -->
<g id="edge4" class="edge">
<title>Node3&#45;&gt;Node2</title>
<path fill="none" stroke="midnightblue" d="M154.57,-91.74C147.04,-92.56 137.91,-92.88 129.11,-92.7"/>
<polygon fill="midnightblue" stroke="midnightblue" points="129.2,-89.21 119.06,-92.27 128.9,-96.2 129.2,-89.21"/>
</g>
<!-- Node3&#45;&gt;Node4 -->
<g id="edge5" class="edge">
<title>Node3&#45;&gt;Node4</title>
<path fill="none" stroke="midnightblue" d="M190.39,-79.21C203.5,-73.94 222,-66.5 237.65,-60.2"/>
<polygon fill="midnightblue" stroke="midnightblue" points="238.98,-63.44 246.95,-56.46 236.37,-56.95 238.98,-63.44"/>
</g>
<!-- Node5 -->
<g id="node5" class="node">
<title>Node5</title>
<g id="a_node5"><a xlink:href="group__grp__volume.html#gae4c62d20b8fef07f4471b5b0889ab005" target="_top" xlink:title="Computes volume of each region; and, if required, the derivatives of the volume with respect to the i...">
<polygon fill="white" stroke="black" points="245,-76.5 245,-95.5 293,-95.5 293,-76.5 245,-76.5"/>
<text text-anchor="middle" x="269" y="-83.5" font-family="Helvetica,sans-Serif" font-size="10.00">volume</text>
</a>
</g>
</g>
<!-- Node3&#45;&gt;Node5 -->
<g id="edge6" class="edge">
<title>Node3&#45;&gt;Node5</title>
<path fill="none" stroke="midnightblue" d="M190.39,-86C202.61,-86 219.53,-86 234.45,-86"/>
<polygon fill="midnightblue" stroke="midnightblue" points="234.86,-89.5 244.86,-86 234.86,-82.5 234.86,-89.5"/>
</g>
<!-- Node3&#45;&gt;Node8 -->
<g id="edge10" class="edge">
<title>Node3&#45;&gt;Node8</title>
<path fill="none" stroke="midnightblue" d="M190.39,-94.4C204.06,-101.2 223.61,-110.92 239.67,-118.91"/>
<polygon fill="midnightblue" stroke="midnightblue" points="238.13,-122.05 248.64,-123.37 241.25,-115.79 238.13,-122.05"/>
</g>
<!-- Node3&#45;&gt;Node10 -->
<g id="edge13" class="edge">
<title>Node3&#45;&gt;Node10</title>
<path fill="none" stroke="midnightblue" d="M180.37,-76.42C189.59,-64.12 207.02,-42.71 226,-29 228.23,-27.39 230.63,-25.86 233.1,-24.43"/>
<polygon fill="midnightblue" stroke="midnightblue" points="234.96,-27.41 242.22,-19.69 231.73,-21.2 234.96,-27.41"/>
</g>
<!-- Node6 -->
<g id="node6" class="node">
<title>Node6</title>
<g id="a_node6"><a xlink:href="group__grp__geometry.html#gaaca20aa60eaf39055f3c9d5c02a24ac2" target="_top" xlink:title="Calculates coordinates, , and metrics, using FFTs.">
<polygon fill="white" stroke="black" points="348,-76.5 348,-95.5 394,-95.5 394,-76.5 348,-76.5"/>
<text text-anchor="middle" x="371" y="-83.5" font-family="Helvetica,sans-Serif" font-size="10.00">coords</text>
</a>
</g>
</g>
<!-- Node5&#45;&gt;Node6 -->
<g id="edge7" class="edge">
<title>Node5&#45;&gt;Node6</title>
<path fill="none" stroke="midnightblue" d="M293.19,-80.2C306.47,-79.16 323.33,-78.97 337.87,-79.65"/>
<polygon fill="midnightblue" stroke="midnightblue" points="337.76,-83.15 347.96,-80.29 338.21,-76.16 337.76,-83.15"/>
</g>
<!-- Node6&#45;&gt;Node5 -->
<g id="edge9" class="edge">
<title>Node6&#45;&gt;Node5</title>
<path fill="none" stroke="midnightblue" d="M347.96,-91.71C334.9,-92.8 318.08,-93.03 303.41,-92.41"/>
<polygon fill="midnightblue" stroke="midnightblue" points="303.38,-88.9 293.19,-91.8 302.97,-95.89 303.38,-88.9"/>
</g>
<!-- Node7 -->
<g id="node7" class="node">
<title>Node7</title>
<g id="a_node7"><a xlink:href="group__grp__numerics.html#ga1fd52accb0646f535f9bcc46cf5a68f3" target="_top" xlink:title="Inverse Fourier transform (fftw wrapper)">
<polygon fill="white" stroke="black" points="430,-76.5 430,-95.5 468,-95.5 468,-76.5 430,-76.5"/>
<text text-anchor="middle" x="449" y="-83.5" font-family="Helvetica,sans-Serif" font-size="10.00">invfft</text>
</a>
</g>
</g>
<!-- Node6&#45;&gt;Node7 -->
<g id="edge8" class="edge">
<title>Node6&#45;&gt;Node7</title>
<path fill="none" stroke="midnightblue" d="M394.39,-86C402.27,-86 411.24,-86 419.55,-86"/>
<polygon fill="midnightblue" stroke="midnightblue" points="419.6,-89.5 429.6,-86 419.6,-82.5 419.6,-89.5"/>
</g>
<!-- Node8&#45;&gt;Node2 -->
<g id="edge12" class="edge">
<title>Node8&#45;&gt;Node2</title>
<path fill="none" stroke="midnightblue" d="M236.19,-133.26C213.46,-129.39 182.22,-121.74 155,-114 141.39,-110.13 126.2,-105.22 114.64,-100.14"/>
<polygon fill="midnightblue" stroke="midnightblue" points="116.06,-96.94 105.54,-95.66 112.97,-103.22 116.06,-96.94"/>
</g>
<!-- Node9 -->
<g id="node9" class="node">
<title>Node9</title>
<g id="a_node9"><a xlink:href="group__grp__build__matrices.html#ga1c52bb6dbffdb432550aae12b096080f" target="_top" xlink:title="Constructs energy and helicity matrices that represent the Beltrami linear system....">
<polygon fill="white" stroke="black" points="349.5,-123.5 349.5,-142.5 392.5,-142.5 392.5,-123.5 349.5,-123.5"/>
<text text-anchor="middle" x="371" y="-130.5" font-family="Helvetica,sans-Serif" font-size="10.00">matrix</text>
</a>
</g>
</g>
<!-- Node8&#45;&gt;Node9 -->
<g id="edge11" class="edge">
<title>Node8&#45;&gt;Node9</title>
<path fill="none" stroke="midnightblue" d="M301.64,-133C313.56,-133 327.09,-133 338.95,-133"/>
<polygon fill="midnightblue" stroke="midnightblue" points="339.28,-136.5 349.28,-133 339.28,-129.5 339.28,-136.5"/>
</g>
</g>
</svg>
