<?xml version="1.0" encoding="UTF-8" standalone="no"?>
<!DOCTYPE svg PUBLIC "-//W3C//DTD SVG 1.1//EN"
 "http://www.w3.org/Graphics/SVG/1.1/DTD/svg11.dtd">
<!-- Generated by graphviz version 2.49.3 (20211027.1534)
 -->
<!-- Title: dvcfield Pages: 1 -->
<svg width="1056pt" height="453pt"
 viewBox="0.00 0.00 1056.36 453.00" xmlns="http://www.w3.org/2000/svg" xmlns:xlink="http://www.w3.org/1999/xlink">
<g id="graph0" class="graph" transform="scale(1 1) rotate(0) translate(4 449)">
<title>dvcfield</title>
<polygon fill="white" stroke="transparent" points="-4,4 -4,-449 1052.36,-449 1052.36,4 -4,4"/>
<!-- Node1 -->
<g id="node1" class="node">
<title>Node1</title>
<g id="a_node1"><a xlink:title="Differential virtual casing integrand.">
<polygon fill="#bfbfbf" stroke="black" points="998.36,-104.5 998.36,-123.5 1048.36,-123.5 1048.36,-104.5 998.36,-104.5"/>
<text text-anchor="middle" x="1023.36" y="-111.5" font-family="Helvetica,sans-Serif" font-size="10.00">dvcfield</text>
</a>
</g>
</g>
<!-- Node2 -->
<g id="node2" class="node">
<title>Node2</title>
<g id="a_node2"><a xlink:href="group__grp__free-boundary.html#ga180576a10002ebf3840fce98d56316bb" target="_top" xlink:title="Constructs the field created by the plasma currents, at an arbitrary, external location using virtual...">
<polygon fill="white" stroke="black" points="917.36,-104.5 917.36,-123.5 962.36,-123.5 962.36,-104.5 917.36,-104.5"/>
<text text-anchor="middle" x="939.86" y="-111.5" font-family="Helvetica,sans-Serif" font-size="10.00">casing</text>
</a>
</g>
</g>
<!-- Node1&#45;&gt;Node2 -->
<g id="edge1" class="edge">
<title>Node1&#45;&gt;Node2</title>
<path fill="none" stroke="midnightblue" d="M988.08,-107.33C979.4,-107.12 970.33,-107.33 962.48,-107.96"/>
<polygon fill="midnightblue" stroke="midnightblue" points="988.2,-110.84 998.35,-107.78 988.51,-103.84 988.2,-110.84"/>
</g>
<!-- Node2&#45;&gt;Node1 -->
<g id="edge55" class="edge">
<title>Node2&#45;&gt;Node1</title>
<path fill="none" stroke="midnightblue" d="M972.55,-120.6C981.13,-120.89 990.27,-120.76 998.35,-120.22"/>
<polygon fill="midnightblue" stroke="midnightblue" points="972.66,-117.1 962.48,-120.04 972.27,-124.09 972.66,-117.1"/>
</g>
<!-- Node2&#45;&gt;Node2 -->
<g id="edge54" class="edge">
<title>Node2&#45;&gt;Node2</title>
<path fill="none" stroke="midnightblue" d="M954.59,-133.77C953.43,-138.5 948.52,-142 939.86,-142 925.64,-142 921.53,-132.57 927.53,-123.76"/>
<polygon fill="midnightblue" stroke="midnightblue" points="957.93,-132.66 952.19,-123.76 951.12,-134.3 957.93,-132.66"/>
</g>
<!-- Node3 -->
<g id="node3" class="node">
<title>Node3</title>
<g id="a_node3"><a xlink:href="group__grp__free-boundary.html#gac0a2cc2241947b27241bb8ef75c5e0ed" target="_top" xlink:title="Computes &#160;on the computational boundary, .">
<polygon fill="white" stroke="black" points="835.36,-104.5 835.36,-123.5 881.36,-123.5 881.36,-104.5 835.36,-104.5"/>
<text text-anchor="middle" x="858.36" y="-111.5" font-family="Helvetica,sans-Serif" font-size="10.00">bnorml</text>
</a>
</g>
</g>
<!-- Node2&#45;&gt;Node3 -->
<g id="edge2" class="edge">
<title>Node2&#45;&gt;Node3</title>
<path fill="none" stroke="midnightblue" d="M907.09,-114C898.55,-114 889.51,-114 881.61,-114"/>
<polygon fill="midnightblue" stroke="midnightblue" points="907.13,-117.5 917.13,-114 907.13,-110.5 907.13,-117.5"/>
</g>
<!-- Node3&#45;&gt;Node3 -->
<g id="edge3" class="edge">
<title>Node3&#45;&gt;Node3</title>
<path fill="none" stroke="midnightblue" d="M873.09,-133.77C871.93,-138.5 867.02,-142 858.36,-142 844.14,-142 840.03,-132.57 846.03,-123.76"/>
<polygon fill="midnightblue" stroke="midnightblue" points="876.43,-132.66 870.69,-123.76 869.62,-134.3 876.43,-132.66"/>
</g>
<!-- Node4 -->
<g id="node4" class="node">
<title>Node4</title>
<g id="a_node4"><a xlink:href="group__grp__initialization.html#ga28628de0fdb3b3497668007d8d0643bd" target="_top" xlink:title="Allocates and initializes internal arrays.">
<polygon fill="white" stroke="black" points="755.36,-76.5 755.36,-95.5 799.36,-95.5 799.36,-76.5 755.36,-76.5"/>
<text text-anchor="middle" x="777.36" y="-83.5" font-family="Helvetica,sans-Serif" font-size="10.00">preset</text>
</a>
</g>
</g>
<!-- Node3&#45;&gt;Node4 -->
<g id="edge4" class="edge">
<title>Node3&#45;&gt;Node4</title>
<path fill="none" stroke="midnightblue" d="M825.71,-102.78C816.87,-99.65 807.49,-96.33 799.43,-93.47"/>
<polygon fill="midnightblue" stroke="midnightblue" points="824.76,-106.16 835.35,-106.2 827.1,-99.56 824.76,-106.16"/>
</g>
<!-- Node6 -->
<g id="node6" class="node">
<title>Node6</title>
<g id="a_node6"><a xlink:href="xspech_8f90.html#a48f45478dc2c9f70ea8aa1c60ad06503" target="_top" xlink:title="This is the main &quot;driver&quot; for the physics part of SPEC.">
<polygon fill="white" stroke="black" points="600.36,-104.5 600.36,-123.5 638.36,-123.5 638.36,-104.5 600.36,-104.5"/>
<text text-anchor="middle" x="619.36" y="-111.5" font-family="Helvetica,sans-Serif" font-size="10.00">spec</text>
</a>
</g>
</g>
<!-- Node3&#45;&gt;Node6 -->
<g id="edge53" class="edge">
<title>Node3&#45;&gt;Node6</title>
<path fill="none" stroke="midnightblue" d="M825.03,-119.92C816.69,-121.2 807.72,-122.36 799.36,-123 743.97,-127.27 729.72,-127.58 674.36,-123 662.42,-122.01 649.16,-119.82 638.76,-117.84"/>
<polygon fill="midnightblue" stroke="midnightblue" points="825.84,-123.33 835.14,-118.27 824.71,-116.42 825.84,-123.33"/>
</g>
<!-- Node4&#45;&gt;Node4 -->
<g id="edge51" class="edge">
<title>Node4&#45;&gt;Node4</title>
<path fill="none" stroke="midnightblue" d="M792.09,-105.77C790.93,-110.5 786.02,-114 777.36,-114 763.14,-114 759.03,-104.57 765.03,-95.76"/>
<polygon fill="midnightblue" stroke="midnightblue" points="795.43,-104.66 789.69,-95.76 788.62,-106.3 795.43,-104.66"/>
</g>
<!-- Node5 -->
<g id="node5" class="node">
<title>Node5</title>
<g id="a_node5"><a xlink:href="group__grp__output.html#ga7401b50ec10c6598ee4a8112717a63ec" target="_top" xlink:title="Computes eigenvalues and eigenvectors of derivative matrix, &#160;and saves them to .ext....">
<polygon fill="white" stroke="black" points="674.36,-76.5 674.36,-95.5 719.36,-95.5 719.36,-76.5 674.36,-76.5"/>
<text text-anchor="middle" x="696.86" y="-83.5" font-family="Helvetica,sans-Serif" font-size="10.00">hesian</text>
</a>
</g>
</g>
<!-- Node4&#45;&gt;Node5 -->
<g id="edge5" class="edge">
<title>Node4&#45;&gt;Node5</title>
<path fill="none" stroke="midnightblue" d="M745.21,-86C736.6,-86 727.44,-86 719.5,-86"/>
<polygon fill="midnightblue" stroke="midnightblue" points="745.32,-89.5 755.32,-86 745.32,-82.5 745.32,-89.5"/>
</g>
<!-- Node9 -->
<g id="node9" class="node">
<title>Node9</title>
<g id="a_node9"><a xlink:href="xspech_8f90.html#a9fdc71dffd7c61ee4588a3f80d3ab9ce" target="_top" xlink:title="Main subroutine of SPEC.">
<polygon fill="white" stroke="black" points="225.86,-38.5 225.86,-57.5 272.86,-57.5 272.86,-38.5 225.86,-38.5"/>
<text text-anchor="middle" x="249.36" y="-45.5" font-family="Helvetica,sans-Serif" font-size="10.00">xspech</text>
</a>
</g>
</g>
<!-- Node4&#45;&gt;Node9 -->
<g id="edge52" class="edge">
<title>Node4&#45;&gt;Node9</title>
<path fill="none" stroke="midnightblue" d="M759.33,-69.23C732.3,-44.46 676.82,-1 620.36,-1 620.36,-1 620.36,-1 516.36,-1 424.91,-1 318.44,-28.27 272.89,-41.27"/>
<polygon fill="midnightblue" stroke="midnightblue" points="757.1,-71.94 766.78,-76.25 761.9,-66.84 757.1,-71.94"/>
</g>
<!-- Node5&#45;&gt;Node5 -->
<g id="edge6" class="edge">
<title>Node5&#45;&gt;Node5</title>
<path fill="none" stroke="midnightblue" d="M710.85,-105.77C709.76,-110.5 705.09,-114 696.86,-114 683.35,-114 679.45,-104.57 685.14,-95.76"/>
<polygon fill="midnightblue" stroke="midnightblue" points="714.21,-104.73 708.57,-95.76 707.38,-106.28 714.21,-104.73"/>
</g>
<!-- Node5&#45;&gt;Node6 -->
<g id="edge7" class="edge">
<title>Node5&#45;&gt;Node6</title>
<path fill="none" stroke="midnightblue" d="M664.47,-97.64C655.74,-100.88 646.55,-104.29 638.83,-107.15"/>
<polygon fill="midnightblue" stroke="midnightblue" points="665.86,-100.86 674.02,-94.1 663.43,-94.29 665.86,-100.86"/>
</g>
<!-- Node7 -->
<g id="node7" class="node">
<title>Node7</title>
<g id="a_node7"><a xlink:href="group__grp__global__force.html#ga38c9d3c50bd043707fefa5137c9dbf44" target="_top" xlink:title="Calculates , where &#160;and , and .">
<polygon fill="white" stroke="black" points="495.36,-218.5 495.36,-237.5 539.36,-237.5 539.36,-218.5 495.36,-218.5"/>
<text text-anchor="middle" x="517.36" y="-225.5" font-family="Helvetica,sans-Serif" font-size="10.00">dforce</text>
</a>
</g>
</g>
<!-- Node6&#45;&gt;Node7 -->
<g id="edge8" class="edge">
<title>Node6&#45;&gt;Node7</title>
<path fill="none" stroke="midnightblue" d="M598.67,-130.95C575.35,-155.32 537.9,-198.74 523.89,-218.39"/>
<polygon fill="midnightblue" stroke="midnightblue" points="601.2,-133.36 605.69,-123.77 596.2,-128.47 601.2,-133.36"/>
</g>
<!-- Node6&#45;&gt;Node9 -->
<g id="edge50" class="edge">
<title>Node6&#45;&gt;Node9</title>
<path fill="none" stroke="midnightblue" d="M607.17,-96.35C596.9,-85.43 580.83,-73.03 564.36,-67 460.8,-29.07 325.73,-33.5 272.91,-41.5"/>
<polygon fill="midnightblue" stroke="midnightblue" points="604.7,-98.85 613.8,-104.28 610.07,-94.36 604.7,-98.85"/>
</g>
<!-- Node23 -->
<g id="node23" class="node">
<title>Node23</title>
<g id="a_node23"><a xlink:href="group__grp__output.html#ga0f962c09cd5d5eba99f1cba043cb3898" target="_top" xlink:title="Initialize the interface to the HDF5 library and open the output file.">
<polygon fill="white" stroke="black" points="470.36,-85.5 470.36,-104.5 564.36,-104.5 564.36,-85.5 470.36,-85.5"/>
<text text-anchor="middle" x="517.36" y="-92.5" font-family="Helvetica,sans-Serif" font-size="10.00">sphdf5::init_outfile</text>
</a>
</g>
</g>
<!-- Node6&#45;&gt;Node23 -->
<g id="edge48" class="edge">
<title>Node6&#45;&gt;Node23</title>
<path fill="none" stroke="midnightblue" d="M590.13,-108.64C582.13,-107.12 573.22,-105.42 564.46,-103.76"/>
<polygon fill="midnightblue" stroke="midnightblue" points="589.54,-112.09 600.02,-110.52 590.85,-105.21 589.54,-112.09"/>
</g>
<!-- Node7&#45;&gt;Node5 -->
<g id="edge41" class="edge">
<title>Node7&#45;&gt;Node5</title>
<path fill="none" stroke="midnightblue" d="M538.68,-212.07C562.61,-193.28 603.51,-161.04 638.36,-133 654.23,-120.23 672.41,-105.32 684.01,-95.78"/>
<polygon fill="midnightblue" stroke="midnightblue" points="536.38,-209.43 530.67,-218.35 540.7,-214.93 536.38,-209.43"/>
</g>
<!-- Node7&#45;&gt;Node6 -->
<g id="edge47" class="edge">
<title>Node7&#45;&gt;Node6</title>
<path fill="none" stroke="midnightblue" d="M538.1,-211C561.35,-186.7 598.59,-143.52 612.7,-123.79"/>
<polygon fill="midnightblue" stroke="midnightblue" points="535.3,-208.86 530.81,-218.45 540.3,-213.75 535.3,-208.86"/>
</g>
<!-- Node7&#45;&gt;Node7 -->
<g id="edge16" class="edge">
<title>Node7&#45;&gt;Node7</title>
<path fill="none" stroke="midnightblue" d="M536.25,-247.4C534.99,-252.31 528.69,-256 517.36,-256 499.23,-256 493.99,-246.57 501.64,-237.76"/>
<polygon fill="midnightblue" stroke="midnightblue" points="539.53,-246.17 533.08,-237.76 532.87,-248.35 539.53,-246.17"/>
</g>
<!-- Node8 -->
<g id="node8" class="node">
<title>Node8</title>
<g id="a_node8"><a xlink:href="namespaceallglobal.html#a7824bc37519fe88336534ce90ab2af16" target="_top" xlink:title=" ">
<polygon fill="white" stroke="black" points="314.86,-161.5 314.86,-180.5 428.86,-180.5 428.86,-161.5 314.86,-161.5"/>
<text text-anchor="middle" x="371.86" y="-168.5" font-family="Helvetica,sans-Serif" font-size="10.00">allglobal::check_inputs</text>
</a>
</g>
</g>
<!-- Node7&#45;&gt;Node8 -->
<g id="edge9" class="edge">
<title>Node7&#45;&gt;Node8</title>
<path fill="none" stroke="midnightblue" d="M485.61,-215.53C470.23,-209.33 451.33,-201.73 434.36,-195 422.21,-190.19 408.69,-184.9 397.42,-180.52"/>
<polygon fill="midnightblue" stroke="midnightblue" points="484.56,-218.89 495.15,-219.39 487.19,-212.4 484.56,-218.89"/>
</g>
<!-- Node12 -->
<g id="node12" class="node">
<title>Node12</title>
<g id="a_node12"><a xlink:href="group__grp__force__driver.html#gabbc245b3884ee8d8d3e2a52f25149f78" target="_top" xlink:title="Objective to be given to the Newton solver, using only function values.">
<polygon fill="white" stroke="black" points="354.36,-237.5 354.36,-256.5 389.36,-256.5 389.36,-237.5 354.36,-237.5"/>
<text text-anchor="middle" x="371.86" y="-244.5" font-family="Helvetica,sans-Serif" font-size="10.00">fcn1</text>
</a>
</g>
</g>
<!-- Node7&#45;&gt;Node12 -->
<g id="edge17" class="edge">
<title>Node7&#45;&gt;Node12</title>
<path fill="none" stroke="midnightblue" d="M485.04,-232.15C455.71,-236.03 412.99,-241.69 389.64,-244.78"/>
<polygon fill="midnightblue" stroke="midnightblue" points="485.73,-235.59 495.18,-230.8 484.81,-228.65 485.73,-235.59"/>
</g>
<!-- Node13 -->
<g id="node13" class="node">
<title>Node13</title>
<g id="a_node13"><a xlink:href="group__grp__force__driver.html#gaec14f81fbdbedafbc4189489ec8ae178" target="_top" xlink:title="Employs Newton method to find , where &#160;and &#160;is defined in dforce() .">
<polygon fill="white" stroke="black" points="225.36,-218.5 225.36,-237.5 273.36,-237.5 273.36,-218.5 225.36,-218.5"/>
<text text-anchor="middle" x="249.36" y="-225.5" font-family="Helvetica,sans-Serif" font-size="10.00">newton</text>
</a>
</g>
</g>
<!-- Node7&#45;&gt;Node13 -->
<g id="edge42" class="edge">
<title>Node7&#45;&gt;Node13</title>
<path fill="none" stroke="midnightblue" d="M485.01,-228C430.98,-228 321.54,-228 273.66,-228"/>
<polygon fill="midnightblue" stroke="midnightblue" points="485.04,-231.5 495.04,-228 485.04,-224.5 485.04,-231.5"/>
</g>
<!-- Node14 -->
<g id="node14" class="node">
<title>Node14</title>
<g id="a_node14"><a xlink:href="group__grp__force__driver.html#ga8ccd6c7d901872702521d0a0edf95412" target="_top" xlink:title="Objective to be given to the Newton solver, using function values and derivatives.">
<polygon fill="white" stroke="black" points="3.36,-246.5 3.36,-265.5 38.36,-265.5 38.36,-246.5 3.36,-246.5"/>
<text text-anchor="middle" x="20.86" y="-253.5" font-family="Helvetica,sans-Serif" font-size="10.00">fcn2</text>
</a>
</g>
</g>
<!-- Node7&#45;&gt;Node14 -->
<g id="edge29" class="edge">
<title>Node7&#45;&gt;Node14</title>
<path fill="none" stroke="midnightblue" d="M498.59,-244.88C483.03,-258.41 459.1,-276.36 434.36,-284 286.56,-329.65 95.29,-278.6 38.47,-261.31"/>
<polygon fill="midnightblue" stroke="midnightblue" points="501.24,-247.2 506.33,-237.91 496.55,-242 501.24,-247.2"/>
</g>
<!-- Node16 -->
<g id="node16" class="node">
<title>Node16</title>
<g id="a_node16"><a xlink:href="dfp200_8f90.html#a6aca59cf350d7b1941f8389d50945a43" target="_top" xlink:title="get LU Beltrami matrices">
<polygon fill="white" stroke="black" points="309.36,-387.5 309.36,-406.5 434.36,-406.5 434.36,-387.5 309.36,-387.5"/>
<text text-anchor="middle" x="371.86" y="-394.5" font-family="Helvetica,sans-Serif" font-size="10.00">get_lu_beltrami_matrices</text>
</a>
</g>
</g>
<!-- Node7&#45;&gt;Node16 -->
<g id="edge30" class="edge">
<title>Node7&#45;&gt;Node16</title>
<path fill="none" stroke="midnightblue" d="M510.92,-247.65C501.04,-279.67 477.12,-343.06 434.36,-378 429.6,-381.89 424.05,-384.98 418.26,-387.45"/>
<polygon fill="midnightblue" stroke="midnightblue" points="514.37,-248.3 513.83,-237.72 507.66,-246.33 514.37,-248.3"/>
</g>
<!-- Node21 -->
<g id="node21" class="node">
<title>Node21</title>
<g id="a_node21"><a xlink:href="group__grp__conjugate__gradient.html#ga4d8415226e62a9fdb42b0fd0b464251e" target="_top" xlink:title="Returns the energy functional and it&#39;s derivatives with respect to geometry.">
<polygon fill="white" stroke="black" points="347.86,-331.5 347.86,-350.5 395.86,-350.5 395.86,-331.5 347.86,-331.5"/>
<text text-anchor="middle" x="371.86" y="-338.5" font-family="Helvetica,sans-Serif" font-size="10.00">pc00ab</text>
</a>
</g>
</g>
<!-- Node7&#45;&gt;Node21 -->
<g id="edge43" class="edge">
<title>Node7&#45;&gt;Node21</title>
<path fill="none" stroke="midnightblue" d="M503.89,-245.79C489.24,-265.56 463.25,-297.27 434.36,-317 422.72,-324.95 408.07,-330.8 395.98,-334.74"/>
<polygon fill="midnightblue" stroke="midnightblue" points="506.76,-247.79 509.79,-237.64 501.09,-243.69 506.76,-247.79"/>
</g>
<!-- Node8&#45;&gt;Node9 -->
<g id="edge10" class="edge">
<title>Node8&#45;&gt;Node9</title>
<path fill="none" stroke="midnightblue" d="M353.86,-153.98C341.48,-141.55 324.33,-124.28 309.36,-109 291.63,-90.9 271.09,-69.58 259.52,-57.55"/>
<polygon fill="midnightblue" stroke="midnightblue" points="351.69,-156.76 361.23,-161.37 356.65,-151.82 351.69,-156.76"/>
</g>
<!-- Node9&#45;&gt;Node6 -->
<g id="edge13" class="edge">
<title>Node9&#45;&gt;Node6</title>
<path fill="none" stroke="midnightblue" d="M283.02,-50.81C341.45,-51.13 466.87,-49.3 564.36,-85 577.49,-89.81 590.37,-98.67 600.26,-105.64"/>
<polygon fill="midnightblue" stroke="midnightblue" points="282.94,-47.31 272.91,-50.72 282.88,-54.31 282.94,-47.31"/>
</g>
<!-- Node9&#45;&gt;Node9 -->
<g id="edge15" class="edge">
<title>Node9&#45;&gt;Node9</title>
<path fill="none" stroke="midnightblue" d="M270.84,-67.4C269.4,-72.31 262.24,-76 249.36,-76 228.74,-76 222.78,-66.57 231.48,-57.76"/>
<polygon fill="midnightblue" stroke="midnightblue" points="274.02,-65.9 267.24,-57.76 267.46,-68.35 274.02,-65.9"/>
</g>
<!-- Node10 -->
<g id="node10" class="node">
<title>Node10</title>
<g id="a_node10"><a xlink:href="xspech_8f90.html#a1451823a7b97101a797de616250752c1" target="_top" xlink:title="Final diagnostics.">
<polygon fill="white" stroke="black" points="87.36,-38.5 87.36,-57.5 176.36,-57.5 176.36,-38.5 87.36,-38.5"/>
<text text-anchor="middle" x="131.86" y="-45.5" font-family="Helvetica,sans-Serif" font-size="10.00">final_diagnostics</text>
</a>
</g>
</g>
<!-- Node9&#45;&gt;Node10 -->
<g id="edge11" class="edge">
<title>Node9&#45;&gt;Node10</title>
<path fill="none" stroke="midnightblue" d="M215.65,-41.85C203.45,-41.23 189.41,-41.09 176.39,-41.44"/>
<polygon fill="midnightblue" stroke="midnightblue" points="215.61,-45.35 225.81,-42.52 216.07,-38.37 215.61,-45.35"/>
</g>
<!-- Node11 -->
<g id="node11" class="node">
<title>Node11</title>
<g id="a_node11"><a xlink:href="xspech_8f90.html#a95271e8805067f801b5d4e524d6901d4" target="_top" xlink:title="Main program of SPEC.">
<polygon fill="white" stroke="black" points="99.86,-0.5 99.86,-19.5 163.86,-19.5 163.86,-0.5 99.86,-0.5"/>
<text text-anchor="middle" x="131.86" y="-7.5" font-family="Helvetica,sans-Serif" font-size="10.00">spec_main</text>
</a>
</g>
</g>
<!-- Node9&#45;&gt;Node11 -->
<g id="edge14" class="edge">
<title>Node9&#45;&gt;Node11</title>
<path fill="none" stroke="midnightblue" d="M216.28,-37.45C199.25,-31.84 178.48,-25.01 161.92,-19.56"/>
<polygon fill="midnightblue" stroke="midnightblue" points="215.22,-40.78 225.81,-40.58 217.41,-34.13 215.22,-40.78"/>
</g>
<!-- Node10&#45;&gt;Node9 -->
<g id="edge12" class="edge">
<title>Node10&#45;&gt;Node9</title>
<path fill="none" stroke="midnightblue" d="M186.4,-54.73C200.29,-54.84 214.51,-54.42 225.81,-53.48"/>
<polygon fill="midnightblue" stroke="midnightblue" points="186.45,-51.23 176.39,-54.56 186.33,-58.23 186.45,-51.23"/>
</g>
<!-- Node12&#45;&gt;Node12 -->
<g id="edge18" class="edge">
<title>Node12&#45;&gt;Node12</title>
<path fill="none" stroke="midnightblue" d="M394.72,-264.14C395.04,-270.14 387.42,-275 371.86,-275 349.22,-275 343.39,-264.72 354.35,-255.6"/>
<polygon fill="midnightblue" stroke="midnightblue" points="397.65,-262.21 389.37,-255.6 391.72,-265.93 397.65,-262.21"/>
</g>
<!-- Node12&#45;&gt;Node13 -->
<g id="edge19" class="edge">
<title>Node12&#45;&gt;Node13</title>
<path fill="none" stroke="midnightblue" d="M344.16,-237.07C323.01,-232.28 293.76,-227.75 273.57,-226.2"/>
<polygon fill="midnightblue" stroke="midnightblue" points="343.56,-240.53 354.1,-239.51 345.23,-233.73 343.56,-240.53"/>
</g>
<!-- Node13&#45;&gt;Node6 -->
<g id="edge25" class="edge">
<title>Node13&#45;&gt;Node6</title>
<path fill="none" stroke="midnightblue" d="M259.32,-209.34C269,-191.41 286.2,-165.15 309.36,-152 359.65,-123.44 541.79,-116.07 600.2,-114.43"/>
<polygon fill="midnightblue" stroke="midnightblue" points="256.17,-207.82 254.73,-218.31 262.4,-211.01 256.17,-207.82"/>
</g>
<!-- Node13&#45;&gt;Node12 -->
<g id="edge20" class="edge">
<title>Node13&#45;&gt;Node12</title>
<path fill="none" stroke="midnightblue" d="M283.57,-239.34C306.46,-244.12 335.93,-248.35 354.1,-249.2"/>
<polygon fill="midnightblue" stroke="midnightblue" points="284.1,-235.87 273.57,-237.12 282.58,-242.71 284.1,-235.87"/>
</g>
<!-- Node13&#45;&gt;Node13 -->
<g id="edge24" class="edge">
<title>Node13&#45;&gt;Node13</title>
<path fill="none" stroke="midnightblue" d="M270.84,-247.4C269.4,-252.31 262.24,-256 249.36,-256 228.74,-256 222.78,-246.57 231.48,-237.76"/>
<polygon fill="midnightblue" stroke="midnightblue" points="274.02,-245.9 267.24,-237.76 267.46,-248.35 274.02,-245.9"/>
</g>
<!-- Node13&#45;&gt;Node14 -->
<g id="edge21" class="edge">
<title>Node13&#45;&gt;Node14</title>
<path fill="none" stroke="midnightblue" d="M214.83,-227.18C165.58,-230.53 75.53,-242.07 38.47,-250.21"/>
<polygon fill="midnightblue" stroke="midnightblue" points="215.2,-230.67 224.97,-226.58 214.78,-223.68 215.2,-230.67"/>
</g>
<!-- Node15 -->
<g id="node15" class="node">
<title>Node15</title>
<g id="a_node15"><a xlink:href="group__grp__output.html#ga382822b303cbf8c56d6f54dcb379caf2" target="_top" xlink:title="read or write force&#45;derivative matrix .ext.sp.DF">
<polygon fill="white" stroke="black" points="99.36,-199.5 99.36,-218.5 164.36,-218.5 164.36,-199.5 99.36,-199.5"/>
<text text-anchor="middle" x="131.86" y="-206.5" font-family="Helvetica,sans-Serif" font-size="10.00">writereadgf</text>
</a>
</g>
</g>
<!-- Node13&#45;&gt;Node15 -->
<g id="edge26" class="edge">
<title>Node13&#45;&gt;Node15</title>
<path fill="none" stroke="midnightblue" d="M215.32,-216.4C199.41,-212.98 180.41,-209.88 164.66,-208.13"/>
<polygon fill="midnightblue" stroke="midnightblue" points="214.73,-219.85 225.26,-218.67 216.3,-213.03 214.73,-219.85"/>
</g>
<!-- Node14&#45;&gt;Node13 -->
<g id="edge23" class="edge">
<title>Node14&#45;&gt;Node13</title>
<path fill="none" stroke="midnightblue" d="M48.57,-257.24C93.3,-254.73 182.58,-243.62 224.97,-235.2"/>
<polygon fill="midnightblue" stroke="midnightblue" points="48.31,-253.75 38.47,-257.68 48.61,-260.74 48.31,-253.75"/>
</g>
<!-- Node14&#45;&gt;Node14 -->
<g id="edge22" class="edge">
<title>Node14&#45;&gt;Node14</title>
<path fill="none" stroke="midnightblue" d="M41.23,-275.4C39.87,-280.31 33.08,-284 20.86,-284 1.31,-284 -4.34,-274.57 3.9,-265.76"/>
<polygon fill="midnightblue" stroke="midnightblue" points="44.45,-274.01 37.81,-265.76 37.85,-276.35 44.45,-274.01"/>
</g>
<!-- Node15&#45;&gt;Node13 -->
<g id="edge28" class="edge">
<title>Node15&#45;&gt;Node13</title>
<path fill="none" stroke="midnightblue" d="M166.68,-220.77C185.52,-224.78 208.49,-228.33 225.26,-229.73"/>
<polygon fill="midnightblue" stroke="midnightblue" points="167.23,-217.31 156.71,-218.51 165.69,-224.13 167.23,-217.31"/>
</g>
<!-- Node15&#45;&gt;Node14 -->
<g id="edge27" class="edge">
<title>Node15&#45;&gt;Node14</title>
<path fill="none" stroke="midnightblue" d="M98.87,-222.51C90.86,-225.92 82.29,-229.58 74.36,-233 62.3,-238.2 48.72,-244.16 38.39,-248.7"/>
<polygon fill="midnightblue" stroke="midnightblue" points="100.45,-225.65 108.29,-218.52 97.72,-219.2 100.45,-225.65"/>
</g>
<!-- Node17 -->
<g id="node17" class="node">
<title>Node17</title>
<g id="a_node17"><a xlink:href="dfp200_8f90.html#a55ea75395f8c71731451e1add3720c7e" target="_top" xlink:title="Given the field consistent with the constraints and the geometry, computes local quantites related to...">
<polygon fill="white" stroke="black" points="226.36,-387.5 226.36,-406.5 272.36,-406.5 272.36,-387.5 226.36,-387.5"/>
<text text-anchor="middle" x="249.36" y="-394.5" font-family="Helvetica,sans-Serif" font-size="10.00">dfp200</text>
</a>
</g>
</g>
<!-- Node16&#45;&gt;Node17 -->
<g id="edge31" class="edge">
<title>Node16&#45;&gt;Node17</title>
<path fill="none" stroke="midnightblue" d="M299.05,-390.36C289.41,-390.55 280.18,-390.98 272.4,-391.64"/>
<polygon fill="midnightblue" stroke="midnightblue" points="299.24,-393.86 309.2,-390.25 299.16,-386.86 299.24,-393.86"/>
</g>
<!-- Node17&#45;&gt;Node7 -->
<g id="edge32" class="edge">
<title>Node17&#45;&gt;Node7</title>
<path fill="none" stroke="midnightblue" d="M279.62,-410.66C318.36,-426.53 387.25,-446.85 434.36,-416 498.41,-374.06 512.71,-269.96 515.65,-237.69"/>
<polygon fill="midnightblue" stroke="midnightblue" points="280.57,-407.26 270,-406.55 277.82,-413.7 280.57,-407.26"/>
</g>
<!-- Node17&#45;&gt;Node16 -->
<g id="edge38" class="edge">
<title>Node17&#45;&gt;Node16</title>
<path fill="none" stroke="midnightblue" d="M282.64,-403.06C290.88,-403.5 300.02,-403.73 309.2,-403.75"/>
<polygon fill="midnightblue" stroke="midnightblue" points="282.61,-399.55 272.4,-402.36 282.14,-406.53 282.61,-399.55"/>
</g>
<!-- Node17&#45;&gt;Node17 -->
<g id="edge33" class="edge">
<title>Node17&#45;&gt;Node17</title>
<path fill="none" stroke="midnightblue" d="M270.84,-416.4C269.4,-421.31 262.24,-425 249.36,-425 228.74,-425 222.78,-415.57 231.48,-406.76"/>
<polygon fill="midnightblue" stroke="midnightblue" points="274.02,-414.9 267.24,-406.76 267.46,-417.35 274.02,-414.9"/>
</g>
<!-- Node18 -->
<g id="node18" class="node">
<title>Node18</title>
<g id="a_node18"><a xlink:href="dfp200_8f90.html#a7b64c7392b45d0042d8bd7379c0761a5" target="_top" xlink:title="Evaluate the derivative of the square of the magnetic field modulus. Add spectral constraint derivati...">
<polygon fill="white" stroke="black" points="94.86,-349.5 94.86,-368.5 168.86,-368.5 168.86,-349.5 94.86,-349.5"/>
<text text-anchor="middle" x="131.86" y="-356.5" font-family="Helvetica,sans-Serif" font-size="10.00">evaluate_dbb</text>
</a>
</g>
</g>
<!-- Node17&#45;&gt;Node18 -->
<g id="edge34" class="edge">
<title>Node17&#45;&gt;Node18</title>
<path fill="none" stroke="midnightblue" d="M223.67,-383.23C207.85,-376.83 187.05,-369.76 169.34,-364.68"/>
<polygon fill="midnightblue" stroke="midnightblue" points="222.69,-386.61 233.26,-387.3 225.42,-380.17 222.69,-386.61"/>
</g>
<!-- Node19 -->
<g id="node19" class="node">
<title>Node19</title>
<g id="a_node19"><a xlink:href="dfp200_8f90.html#a73ddf39ecc5228201fb643779e17cd36" target="_top" xlink:title="Evaluate mu and psip derivatives and store them in dmupfdx.">
<polygon fill="white" stroke="black" points="84.36,-425.5 84.36,-444.5 179.36,-444.5 179.36,-425.5 84.36,-425.5"/>
<text text-anchor="middle" x="131.86" y="-432.5" font-family="Helvetica,sans-Serif" font-size="10.00">evaluate_dmupfdx</text>
</a>
</g>
</g>
<!-- Node17&#45;&gt;Node19 -->
<g id="edge36" class="edge">
<title>Node17&#45;&gt;Node19</title>
<path fill="none" stroke="midnightblue" d="M216.31,-401.43C193.88,-407.63 164.96,-417.61 147.72,-425.41"/>
<polygon fill="midnightblue" stroke="midnightblue" points="217.3,-404.79 226.09,-398.87 215.53,-398.01 217.3,-404.79"/>
</g>
<!-- Node20 -->
<g id="node20" class="node">
<title>Node20</title>
<g id="a_node20"><a xlink:href="dfp200_8f90.html#a5e56f1f4b1e6df11a9cffa6237c37469" target="_top" xlink:title="This routine evaluates the value of the magnetic field once the interface is perturbed using matrix p...">
<polygon fill="white" stroke="black" points="74.36,-387.5 74.36,-406.5 189.36,-406.5 189.36,-387.5 74.36,-387.5"/>
<text text-anchor="middle" x="131.86" y="-394.5" font-family="Helvetica,sans-Serif" font-size="10.00">get_perturbed_solution</text>
</a>
</g>
</g>
<!-- Node17&#45;&gt;Node20 -->
<g id="edge39" class="edge">
<title>Node17&#45;&gt;Node20</title>
<path fill="none" stroke="midnightblue" d="M215.87,-390.86C207.66,-390.44 198.61,-390.23 189.59,-390.25"/>
<polygon fill="midnightblue" stroke="midnightblue" points="215.88,-394.37 226.09,-391.54 216.34,-387.38 215.88,-394.37"/>
</g>
<!-- Node18&#45;&gt;Node17 -->
<g id="edge35" class="edge">
<title>Node18&#45;&gt;Node17</title>
<path fill="none" stroke="midnightblue" d="M156.95,-372.53C177.32,-380.81 206.26,-390.28 226.09,-395.13"/>
<polygon fill="midnightblue" stroke="midnightblue" points="158.29,-369.3 147.72,-368.59 155.55,-375.74 158.29,-369.3"/>
</g>
<!-- Node19&#45;&gt;Node17 -->
<g id="edge37" class="edge">
<title>Node19&#45;&gt;Node17</title>
<path fill="none" stroke="midnightblue" d="M188.98,-423.28C205.31,-417.96 221.81,-411.86 233.26,-406.7"/>
<polygon fill="midnightblue" stroke="midnightblue" points="187.89,-419.96 179.42,-426.32 190.01,-426.63 187.89,-419.96"/>
</g>
<!-- Node20&#45;&gt;Node17 -->
<g id="edge40" class="edge">
<title>Node20&#45;&gt;Node17</title>
<path fill="none" stroke="midnightblue" d="M199.59,-403.68C209.12,-403.52 218.3,-403.11 226.09,-402.46"/>
<polygon fill="midnightblue" stroke="midnightblue" points="199.57,-400.18 189.59,-403.75 199.62,-407.18 199.57,-400.18"/>
</g>
<!-- Node21&#45;&gt;Node21 -->
<g id="edge46" class="edge">
<title>Node21&#45;&gt;Node21</title>
<path fill="none" stroke="midnightblue" d="M394.55,-360.03C393.31,-365.13 385.75,-369 371.86,-369 350.18,-369 343.91,-359.57 353.05,-350.76"/>
<polygon fill="midnightblue" stroke="midnightblue" points="397.76,-358.62 390.66,-350.76 391.3,-361.33 397.76,-358.62"/>
</g>
<!-- Node22 -->
<g id="node22" class="node">
<title>Node22</title>
<g id="a_node22"><a xlink:href="group__grp__conjugate__gradient.html#ga25a3bae2ff2ee0469b045de0d033398b" target="_top" xlink:title="Use preconditioned conjugate gradient method to find minimum of energy functional.">
<polygon fill="white" stroke="black" points="225.36,-331.5 225.36,-350.5 273.36,-350.5 273.36,-331.5 225.36,-331.5"/>
<text text-anchor="middle" x="249.36" y="-338.5" font-family="Helvetica,sans-Serif" font-size="10.00">pc00aa</text>
</a>
</g>
</g>
<!-- Node21&#45;&gt;Node22 -->
<g id="edge44" class="edge">
<title>Node21&#45;&gt;Node22</title>
<path fill="none" stroke="midnightblue" d="M337.52,-341C317.17,-341 291.67,-341 273.52,-341"/>
<polygon fill="midnightblue" stroke="midnightblue" points="337.63,-344.5 347.63,-341 337.62,-337.5 337.63,-344.5"/>
</g>
<!-- Node22&#45;&gt;Node22 -->
<g id="edge45" class="edge">
<title>Node22&#45;&gt;Node22</title>
<path fill="none" stroke="midnightblue" d="M270.84,-360.4C269.4,-365.31 262.24,-369 249.36,-369 228.74,-369 222.78,-359.57 231.48,-350.76"/>
<polygon fill="midnightblue" stroke="midnightblue" points="274.02,-358.9 267.24,-350.76 267.46,-361.35 274.02,-358.9"/>
</g>
<!-- Node23&#45;&gt;Node9 -->
<g id="edge49" class="edge">
<title>Node23&#45;&gt;Node9</title>
<path fill="none" stroke="midnightblue" d="M460.08,-92.38C418.05,-89.48 359.47,-83.45 309.36,-71 296.24,-67.74 282.1,-62.3 270.96,-57.53"/>
<polygon fill="midnightblue" stroke="midnightblue" points="459.92,-95.87 470.12,-93.03 460.37,-88.89 459.92,-95.87"/>
</g>
</g>
</svg>
