<?xml version="1.0" encoding="UTF-8" standalone="no"?>
<!DOCTYPE svg PUBLIC "-//W3C//DTD SVG 1.1//EN"
 "http://www.w3.org/Graphics/SVG/1.1/DTD/svg11.dtd">
<!-- Generated by graphviz version 2.47.1 (20210421.1823)
 -->
<!-- Title: fcn1 Pages: 1 -->
<svg width="358pt" height="113pt"
 viewBox="0.00 0.00 358.00 113.00" xmlns="http://www.w3.org/2000/svg" xmlns:xlink="http://www.w3.org/1999/xlink">
<g id="graph0" class="graph" transform="scale(1 1) rotate(0) translate(4 109)">
<title>fcn1</title>
<polygon fill="white" stroke="transparent" points="-4,4 -4,-109 354,-109 354,4 -4,4"/>
<!-- Node1 -->
<g id="node1" class="node">
<title>Node1</title>
<g id="a_node1"><a xlink:title="fcn1">
<polygon fill="#bfbfbf" stroke="black" points="315,-38.5 315,-57.5 350,-57.5 350,-38.5 315,-38.5"/>
<text text-anchor="middle" x="332.5" y="-45.5" font-family="Helvetica,sans-Serif" font-size="10.00">fcn1</text>
</a>
</g>
</g>
<!-- Node2 -->
<g id="node2" class="node">
<title>Node2</title>
<g id="a_node2"><a xlink:href="group__grp__force__driver.html#gaec14f81fbdbedafbc4189489ec8ae178" target="_top" xlink:title="Employs Newton method to find , where &#160;and &#160;is defined in dforce() .">
<polygon fill="white" stroke="black" points="231,-38.5 231,-57.5 279,-57.5 279,-38.5 231,-38.5"/>
<text text-anchor="middle" x="255" y="-45.5" font-family="Helvetica,sans-Serif" font-size="10.00">newton</text>
</a>
</g>
</g>
<!-- Node1&#45;&gt;Node2 -->
<g id="edge1" class="edge">
<title>Node1&#45;&gt;Node2</title>
<path fill="none" stroke="midnightblue" d="M304.68,-41.51C296.29,-41.1 287.11,-41.18 279.01,-41.73"/>
<polygon fill="midnightblue" stroke="midnightblue" points="304.51,-45 314.74,-42.28 305.04,-38.03 304.51,-45"/>
</g>
<!-- Node2&#45;&gt;Node1 -->
<g id="edge2" class="edge">
<title>Node2&#45;&gt;Node1</title>
<path fill="none" stroke="midnightblue" d="M289.13,-54.7C297.99,-54.88 307.19,-54.55 314.74,-53.72"/>
<polygon fill="midnightblue" stroke="midnightblue" points="289.15,-51.2 279.01,-54.27 288.85,-58.2 289.15,-51.2"/>
</g>
<!-- Node3 -->
<g id="node3" class="node">
<title>Node3</title>
<g id="a_node3"><a xlink:href="group__grp__force__driver.html#ga8ccd6c7d901872702521d0a0edf95412" target="_top" xlink:title="fcn2">
<polygon fill="white" stroke="black" points="29.5,-85.5 29.5,-104.5 64.5,-104.5 64.5,-85.5 29.5,-85.5"/>
<text text-anchor="middle" x="47" y="-92.5" font-family="Helvetica,sans-Serif" font-size="10.00">fcn2</text>
</a>
</g>
</g>
<!-- Node2&#45;&gt;Node3 -->
<g id="edge3" class="edge">
<title>Node2&#45;&gt;Node3</title>
<path fill="none" stroke="midnightblue" d="M221.06,-50.69C212.62,-53.1 203.52,-55.82 195,-58 148.43,-69.89 92.4,-79.22 64.9,-86.87"/>
<polygon fill="midnightblue" stroke="midnightblue" points="222.22,-54 230.93,-47.97 220.36,-47.25 222.22,-54"/>
</g>
<!-- Node4 -->
<g id="node4" class="node">
<title>Node4</title>
<g id="a_node4"><a xlink:href="xspech_8f90.html#a48f45478dc2c9f70ea8aa1c60ad06503" target="_top" xlink:title=" ">
<polygon fill="white" stroke="black" points="143.5,-0.5 143.5,-19.5 181.5,-19.5 181.5,-0.5 143.5,-0.5"/>
<text text-anchor="middle" x="162.5" y="-7.5" font-family="Helvetica,sans-Serif" font-size="10.00">spec</text>
</a>
</g>
</g>
<!-- Node2&#45;&gt;Node4 -->
<g id="edge5" class="edge">
<title>Node2&#45;&gt;Node4</title>
<path fill="none" stroke="midnightblue" d="M221.76,-34.46C208.33,-28.82 193.23,-22.48 181.77,-17.67"/>
<polygon fill="midnightblue" stroke="midnightblue" points="220.59,-37.77 231.16,-38.41 223.3,-31.31 220.59,-37.77"/>
</g>
<!-- Node7 -->
<g id="node7" class="node">
<title>Node7</title>
<g id="a_node7"><a xlink:href="group__grp__force__driver.html#ga382822b303cbf8c56d6f54dcb379caf2" target="_top" xlink:title="read or write force&#45;derivative matrix">
<polygon fill="white" stroke="black" points="130,-38.5 130,-57.5 195,-57.5 195,-38.5 130,-38.5"/>
<text text-anchor="middle" x="162.5" y="-45.5" font-family="Helvetica,sans-Serif" font-size="10.00">writereadgf</text>
</a>
</g>
</g>
<!-- Node2&#45;&gt;Node7 -->
<g id="edge9" class="edge">
<title>Node2&#45;&gt;Node7</title>
<path fill="none" stroke="midnightblue" d="M220.6,-41.46C212.31,-41.16 203.46,-41.18 195.25,-41.52"/>
<polygon fill="midnightblue" stroke="midnightblue" points="220.52,-44.96 230.69,-42.01 220.9,-37.97 220.52,-44.96"/>
</g>
<!-- Node3&#45;&gt;Node2 -->
<g id="edge4" class="edge">
<title>Node3&#45;&gt;Node2</title>
<path fill="none" stroke="midnightblue" d="M74.9,-97.5C104.54,-95.14 153.52,-86.59 195,-76 212.93,-71.42 233.4,-64.42 244.9,-57.59"/>
<polygon fill="midnightblue" stroke="midnightblue" points="74.68,-94.01 64.9,-98.08 75.09,-100.99 74.68,-94.01"/>
</g>
<!-- Node5 -->
<g id="node5" class="node">
<title>Node5</title>
<g id="a_node5"><a xlink:href="sphdf5_8f90.html#a0f962c09cd5d5eba99f1cba043cb3898" target="_top" xlink:title="initialize the interface to the HDF5 library and open the output file">
<polygon fill="white" stroke="black" points="0,-38.5 0,-57.5 94,-57.5 94,-38.5 0,-38.5"/>
<text text-anchor="middle" x="47" y="-45.5" font-family="Helvetica,sans-Serif" font-size="10.00">sphdf5::init_outfile</text>
</a>
</g>
</g>
<!-- Node4&#45;&gt;Node5 -->
<g id="edge6" class="edge">
<title>Node4&#45;&gt;Node5</title>
<path fill="none" stroke="midnightblue" d="M133.66,-19.32C116.25,-25.15 93.89,-32.63 76.38,-38.5"/>
<polygon fill="midnightblue" stroke="midnightblue" points="134.89,-22.6 143.26,-16.11 132.67,-15.96 134.89,-22.6"/>
</g>
<!-- Node6 -->
<g id="node6" class="node">
<title>Node6</title>
<g id="a_node6"><a xlink:href="xspech_8f90.html#aea782eae089760a491c2c54f9903abcc" target="_top" xlink:title="Main program of SPEC.">
<polygon fill="white" stroke="black" points="23.5,-0.5 23.5,-19.5 70.5,-19.5 70.5,-0.5 23.5,-0.5"/>
<text text-anchor="middle" x="47" y="-7.5" font-family="Helvetica,sans-Serif" font-size="10.00">xspech</text>
</a>
</g>
</g>
<!-- Node4&#45;&gt;Node6 -->
<g id="edge7" class="edge">
<title>Node4&#45;&gt;Node6</title>
<path fill="none" stroke="midnightblue" d="M133.27,-4.07C114.03,-2.86 88.88,-2.99 70.89,-4.46"/>
<polygon fill="midnightblue" stroke="midnightblue" points="133.01,-7.56 143.26,-4.89 133.58,-0.59 133.01,-7.56"/>
</g>
<!-- Node6&#45;&gt;Node4 -->
<g id="edge8" class="edge">
<title>Node6&#45;&gt;Node4</title>
<path fill="none" stroke="midnightblue" d="M80.98,-16.19C101.27,-17.2 126.51,-16.84 143.26,-15.11"/>
<polygon fill="midnightblue" stroke="midnightblue" points="81.1,-12.69 70.89,-15.54 80.65,-19.68 81.1,-12.69"/>
</g>
<!-- Node7&#45;&gt;Node2 -->
<g id="edge11" class="edge">
<title>Node7&#45;&gt;Node2</title>
<path fill="none" stroke="midnightblue" d="M205.33,-54.73C214.05,-54.82 222.94,-54.57 230.69,-53.99"/>
<polygon fill="midnightblue" stroke="midnightblue" points="205.34,-51.23 195.25,-54.48 205.16,-58.23 205.34,-51.23"/>
</g>
<!-- Node7&#45;&gt;Node3 -->
<g id="edge10" class="edge">
<title>Node7&#45;&gt;Node3</title>
<path fill="none" stroke="midnightblue" d="M129.02,-61.45C108.01,-70.15 81.53,-81.12 64.67,-88.09"/>
<polygon fill="midnightblue" stroke="midnightblue" points="130.63,-64.57 138.53,-57.51 127.95,-58.1 130.63,-64.57"/>
</g>
</g>
</svg>
