<?xml version="1.0" encoding="UTF-8" standalone="no"?>
<!DOCTYPE svg PUBLIC "-//W3C//DTD SVG 1.1//EN"
 "http://www.w3.org/Graphics/SVG/1.1/DTD/svg11.dtd">
<!-- Generated by graphviz version 2.47.0 (20210316.2052)
 -->
<!-- Title: Derivatives of multiplier and poloidal flux with respect to geometry: dmupfdx Pages: 1 -->
<svg width="281pt" height="49pt"
 viewBox="0.00 0.00 281.00 49.00" xmlns="http://www.w3.org/2000/svg" xmlns:xlink="http://www.w3.org/1999/xlink">
<g id="graph0" class="graph" transform="scale(1 1) rotate(0) translate(4 45)">
<title>Derivatives of multiplier and poloidal flux with respect to geometry: dmupfdx</title>
<polygon fill="white" stroke="transparent" points="-4,4 -4,-45 277,-45 277,4 -4,4"/>
<!-- Node2 -->
<g id="node1" class="node">
<title>Node2</title>
<g id="a_node1"><a xlink:href="group__grp__internal__vars.html" target="_top" xlink:title=" ">
<polygon fill="white" stroke="black" points="92,-30 0,-30 0,-11 92,-11 92,-30"/>
<text text-anchor="middle" x="46" y="-18" font-family="Helvetica,sans-Serif" font-size="10.00">Internal Variables</text>
</a>
</g>
</g>
<!-- Node1 -->
<g id="node2" class="node">
<title>Node1</title>
<g id="a_node2"><a xlink:title=" ">
<polygon fill="#bfbfbf" stroke="black" points="273,-41 128,-41 128,0 273,0 273,-41"/>
<text text-anchor="start" x="136" y="-29" font-family="Helvetica,sans-Serif" font-size="10.00">Derivatives of multiplier</text>
<text text-anchor="start" x="136" y="-18" font-family="Helvetica,sans-Serif" font-size="10.00"> and poloidal flux with</text>
<text text-anchor="middle" x="200.5" y="-7" font-family="Helvetica,sans-Serif" font-size="10.00"> respect to geometry: dmupfdx</text>
</a>
</g>
</g>
<!-- Node2&#45;&gt;Node1 -->
<g id="edge1" class="edge">
<title>Node2&#45;&gt;Node1</title>
<path fill="none" stroke="black" d="M102.52,-20.5C110.73,-20.5 119.28,-20.5 127.77,-20.5"/>
<polygon fill="black" stroke="black" points="102.34,-17 92.34,-20.5 102.34,-24 102.34,-17"/>
</g>
</g>
</svg>
