<?xml version="1.0" encoding="UTF-8" standalone="no"?>
<!DOCTYPE svg PUBLIC "-//W3C//DTD SVG 1.1//EN"
 "http://www.w3.org/Graphics/SVG/1.1/DTD/svg11.dtd">
<!-- Generated by graphviz version 2.48.0 (0)
 -->
<!-- Title: sphdf5::write_grid Pages: 1 -->
<svg width="438pt" height="123pt"
 viewBox="0.00 0.00 438.00 122.64" xmlns="http://www.w3.org/2000/svg" xmlns:xlink="http://www.w3.org/1999/xlink">
<g id="graph0" class="graph" transform="scale(1 1) rotate(0) translate(4 118.64)">
<title>sphdf5::write_grid</title>
<polygon fill="white" stroke="transparent" points="-4,4 -4,-118.64 434,-118.64 434,4 -4,4"/>
<!-- Node1 -->
<g id="node1" class="node">
<title>Node1</title>
<g id="a_node1"><a xlink:title="Write the magnetic field on a grid.">
<polygon fill="#bfbfbf" stroke="black" points="338,-57.14 338,-76.14 430,-76.14 430,-57.14 338,-57.14"/>
<text text-anchor="middle" x="384" y="-64.14" font-family="Helvetica,sans-Serif" font-size="10.00">sphdf5::write_grid</text>
</a>
</g>
</g>
<!-- Node2 -->
<g id="node2" class="node">
<title>Node2</title>
<g id="a_node2"><a xlink:href="xspech_8f90.html#a9fdc71dffd7c61ee4588a3f80d3ab9ce" target="_top" xlink:title="Main subroutine of SPEC.">
<polygon fill="white" stroke="black" points="255,-57.14 255,-76.14 302,-76.14 302,-57.14 255,-57.14"/>
<text text-anchor="middle" x="278.5" y="-64.14" font-family="Helvetica,sans-Serif" font-size="10.00">xspech</text>
</a>
</g>
</g>
<!-- Node1&#45;&gt;Node2 -->
<g id="edge1" class="edge">
<title>Node1&#45;&gt;Node2</title>
<path fill="none" stroke="midnightblue" d="M327.66,-66.64C318.59,-66.64 309.66,-66.64 302.01,-66.64"/>
<polygon fill="midnightblue" stroke="midnightblue" points="327.9,-70.14 337.9,-66.64 327.9,-63.14 327.9,-70.14"/>
</g>
<!-- Node3 -->
<g id="node3" class="node">
<title>Node3</title>
<g id="a_node3"><a xlink:href="xspech_8f90.html#a1451823a7b97101a797de616250752c1" target="_top" xlink:title="Final diagnostics.">
<polygon fill="white" stroke="black" points="130,-95.14 130,-114.14 219,-114.14 219,-95.14 130,-95.14"/>
<text text-anchor="middle" x="174.5" y="-102.14" font-family="Helvetica,sans-Serif" font-size="10.00">final_diagnostics</text>
</a>
</g>
</g>
<!-- Node2&#45;&gt;Node3 -->
<g id="edge2" class="edge">
<title>Node2&#45;&gt;Node3</title>
<path fill="none" stroke="midnightblue" d="M245.31,-72.31C226.19,-78.52 202.97,-87.71 188.71,-95"/>
<polygon fill="midnightblue" stroke="midnightblue" points="246.34,-75.65 254.86,-69.35 244.28,-68.96 246.34,-75.65"/>
</g>
<!-- Node4 -->
<g id="node4" class="node">
<title>Node4</title>
<g id="a_node4"><a xlink:href="xspech_8f90.html#a48f45478dc2c9f70ea8aa1c60ad06503" target="_top" xlink:title="This is the main &quot;driver&quot; for the physics part of SPEC.">
<polygon fill="white" stroke="black" points="155.5,-57.14 155.5,-76.14 193.5,-76.14 193.5,-57.14 155.5,-57.14"/>
<text text-anchor="middle" x="174.5" y="-64.14" font-family="Helvetica,sans-Serif" font-size="10.00">spec</text>
</a>
</g>
</g>
<!-- Node2&#45;&gt;Node4 -->
<g id="edge4" class="edge">
<title>Node2&#45;&gt;Node4</title>
<path fill="none" stroke="midnightblue" d="M244.8,-60.29C227.86,-59.51 207.82,-59.86 193.66,-61.33"/>
<polygon fill="midnightblue" stroke="midnightblue" points="244.66,-63.79 254.86,-60.92 245.1,-56.8 244.66,-63.79"/>
</g>
<!-- Node6 -->
<g id="node6" class="node">
<title>Node6</title>
<g id="a_node6"><a xlink:href="xspech_8f90.html#a95271e8805067f801b5d4e524d6901d4" target="_top" xlink:title="Main program of SPEC.">
<polygon fill="white" stroke="black" points="142.5,-19.14 142.5,-38.14 206.5,-38.14 206.5,-19.14 142.5,-19.14"/>
<text text-anchor="middle" x="174.5" y="-26.14" font-family="Helvetica,sans-Serif" font-size="10.00">spec_main</text>
</a>
</g>
</g>
<!-- Node2&#45;&gt;Node6 -->
<g id="edge8" class="edge">
<title>Node2&#45;&gt;Node6</title>
<path fill="none" stroke="midnightblue" d="M245.45,-54.7C231.23,-49.4 214.72,-43.25 201.31,-38.25"/>
<polygon fill="midnightblue" stroke="midnightblue" points="244.27,-57.99 254.86,-58.2 246.71,-51.43 244.27,-57.99"/>
</g>
<!-- Node3&#45;&gt;Node2 -->
<g id="edge3" class="edge">
<title>Node3&#45;&gt;Node2</title>
<path fill="none" stroke="midnightblue" d="M228.91,-91.48C242.04,-86.52 254.95,-81.04 264.17,-76.34"/>
<polygon fill="midnightblue" stroke="midnightblue" points="227.54,-88.26 219.36,-94.99 229.95,-94.83 227.54,-88.26"/>
</g>
<!-- Node4&#45;&gt;Node2 -->
<g id="edge7" class="edge">
<title>Node4&#45;&gt;Node2</title>
<path fill="none" stroke="midnightblue" d="M204.08,-72.77C220.13,-73.71 239.89,-73.58 254.86,-72.36"/>
<polygon fill="midnightblue" stroke="midnightblue" points="203.9,-69.25 193.66,-71.94 203.35,-76.22 203.9,-69.25"/>
</g>
<!-- Node5 -->
<g id="node5" class="node">
<title>Node5</title>
<g id="a_node5"><a xlink:href="group__grp__output.html#ga0f962c09cd5d5eba99f1cba043cb3898" target="_top" xlink:title="Initialize the interface to the HDF5 library and open the output file.">
<polygon fill="white" stroke="black" points="0,-19.14 0,-38.14 94,-38.14 94,-19.14 0,-19.14"/>
<text text-anchor="middle" x="47" y="-26.14" font-family="Helvetica,sans-Serif" font-size="10.00">sphdf5::init_outfile</text>
</a>
</g>
</g>
<!-- Node4&#45;&gt;Node5 -->
<g id="edge5" class="edge">
<title>Node4&#45;&gt;Node5</title>
<path fill="none" stroke="midnightblue" d="M145.67,-58.21C126.05,-52.27 99.76,-44.31 79.39,-38.14"/>
<polygon fill="midnightblue" stroke="midnightblue" points="144.67,-61.56 155.25,-61.11 146.69,-54.86 144.67,-61.56"/>
</g>
<!-- Node5&#45;&gt;Node2 -->
<g id="edge6" class="edge">
<title>Node5&#45;&gt;Node2</title>
<path fill="none" stroke="midnightblue" d="M81.5,-15.66C116.96,-4 173.92,8.69 219,-9.64 242.64,-19.25 261.96,-43.53 271.35,-57.09"/>
<polygon fill="midnightblue" stroke="midnightblue" points="79.98,-12.48 71.66,-19.05 82.26,-19.1 79.98,-12.48"/>
</g>
</g>
</svg>
