<?xml version="1.0" encoding="UTF-8" standalone="no"?>
<!DOCTYPE svg PUBLIC "-//W3C//DTD SVG 1.1//EN"
 "http://www.w3.org/Graphics/SVG/1.1/DTD/svg11.dtd">
<!-- Generated by graphviz version 2.49.3 (20211027.1534)
 -->
<!-- Title: mp00ac Pages: 1 -->
<svg width="684pt" height="334pt"
 viewBox="0.00 0.00 684.00 333.70" xmlns="http://www.w3.org/2000/svg" xmlns:xlink="http://www.w3.org/1999/xlink">
<g id="graph0" class="graph" transform="scale(1 1) rotate(0) translate(4 329.7)">
<title>mp00ac</title>
<polygon fill="white" stroke="transparent" points="-4,4 -4,-329.7 680,-329.7 680,4 -4,4"/>
<!-- Node1 -->
<g id="node1" class="node">
<title>Node1</title>
<g id="a_node1"><a xlink:title="Solves Beltrami/vacuum (linear) system, given matrices.unpacking fluxes, helicity multiplier">
<polygon fill="#bfbfbf" stroke="black" points="0,-151.5 0,-170.5 51,-170.5 51,-151.5 0,-151.5"/>
<text text-anchor="middle" x="25.5" y="-158.5" font-family="Helvetica,sans-Serif" font-size="10.00">mp00ac</text>
</a>
</g>
</g>
<!-- Node1&#45;&gt;Node1 -->
<g id="edge16" class="edge">
<title>Node1&#45;&gt;Node1</title>
<path fill="none" stroke="midnightblue" d="M11.63,-170.76C4.88,-179.57 9.5,-189 25.5,-189 35.5,-189 41.05,-185.31 42.17,-180.4"/>
<polygon fill="midnightblue" stroke="midnightblue" points="45.52,-179.39 39.37,-170.76 38.79,-181.34 45.52,-179.39"/>
</g>
<!-- Node2 -->
<g id="node2" class="node">
<title>Node2</title>
<g id="a_node2"><a xlink:href="group__grp__currents.html#gacaf4411e0ba378631dcd2ccb3752e452" target="_top" xlink:title="Computes the plasma current, , and the &quot;linking&quot; current, .">
<polygon fill="white" stroke="black" points="93.5,-252.5 93.5,-271.5 137.5,-271.5 137.5,-252.5 93.5,-252.5"/>
<text text-anchor="middle" x="115.5" y="-259.5" font-family="Helvetica,sans-Serif" font-size="10.00">curent</text>
</a>
</g>
</g>
<!-- Node1&#45;&gt;Node2 -->
<g id="edge1" class="edge">
<title>Node1&#45;&gt;Node2</title>
<path fill="none" stroke="midnightblue" d="M34.61,-170.74C46.12,-184.51 67.91,-210.4 87,-232 90.71,-236.19 94.75,-240.66 98.57,-244.84"/>
<polygon fill="midnightblue" stroke="midnightblue" points="96.14,-247.37 105.49,-252.35 101.29,-242.63 96.14,-247.37"/>
</g>
<!-- Node6 -->
<g id="node6" class="node">
<title>Node6</title>
<g id="a_node6"><a xlink:href="intghs_8f90.html#a21d3b7106371783302e68297f7797e9f" target="_top" xlink:title="Calculates volume integrals of Chebyshev polynomials and covariant field products.">
<polygon fill="white" stroke="black" points="327.5,-208.5 327.5,-227.5 370.5,-227.5 370.5,-208.5 327.5,-208.5"/>
<text text-anchor="middle" x="349" y="-215.5" font-family="Helvetica,sans-Serif" font-size="10.00">intghs</text>
</a>
</g>
</g>
<!-- Node1&#45;&gt;Node6 -->
<g id="edge10" class="edge">
<title>Node1&#45;&gt;Node6</title>
<path fill="none" stroke="midnightblue" d="M51.06,-168.63C61.98,-171.84 75.06,-175.42 87,-178 169.44,-195.83 268.21,-208.69 317.24,-214.52"/>
<polygon fill="midnightblue" stroke="midnightblue" points="316.86,-218 327.2,-215.69 317.68,-211.05 316.86,-218"/>
</g>
<!-- Node10 -->
<g id="node10" class="node">
<title>Node10</title>
<g id="a_node10"><a xlink:href="group__grp__build__matrices.html#ga6c22bb4322fbcc29cb17dcc90b56eacd" target="_top" xlink:title="Constructs matrices that represent the Beltrami linear system, matrix&#45;free.">
<polygon fill="white" stroke="black" points="326,-142.5 326,-161.5 372,-161.5 372,-142.5 326,-142.5"/>
<text text-anchor="middle" x="349" y="-149.5" font-family="Helvetica,sans-Serif" font-size="10.00">mtrxhs</text>
</a>
</g>
</g>
<!-- Node1&#45;&gt;Node10 -->
<g id="edge17" class="edge">
<title>Node1&#45;&gt;Node10</title>
<path fill="none" stroke="midnightblue" d="M51.16,-162.24C97.72,-164.31 201.75,-167.62 289,-161 297.74,-160.34 307.15,-159.13 315.83,-157.81"/>
<polygon fill="midnightblue" stroke="midnightblue" points="316.64,-161.22 325.96,-156.17 315.53,-154.31 316.64,-161.22"/>
</g>
<!-- Node11 -->
<g id="node11" class="node">
<title>Node11</title>
<g id="a_node11"><a xlink:href="group__grp__packing.html#gaee2357e570aebf8559e169def6b619dd" target="_top" xlink:title="Packs and unpacks Beltrami field solution vector.">
<polygon fill="white" stroke="black" points="325,-76.5 325,-95.5 373,-95.5 373,-76.5 325,-76.5"/>
<text text-anchor="middle" x="349" y="-83.5" font-family="Helvetica,sans-Serif" font-size="10.00">packab</text>
</a>
</g>
</g>
<!-- Node1&#45;&gt;Node11 -->
<g id="edge19" class="edge">
<title>Node1&#45;&gt;Node11</title>
<path fill="none" stroke="midnightblue" d="M39.58,-151.47C65.04,-133.64 123.68,-96.06 180,-85 225.97,-75.97 280.39,-78.67 314.56,-81.93"/>
<polygon fill="midnightblue" stroke="midnightblue" points="314.6,-85.45 324.9,-82.99 315.31,-78.49 314.6,-85.45"/>
</g>
<!-- Node12 -->
<g id="node12" class="node">
<title>Node12</title>
<g id="a_node12"><a xlink:href="mp00ac_8f90.html#a304edac43f63d39dda4419b4d044eac5" target="_top" xlink:title="run GMRES">
<polygon fill="white" stroke="black" points="87,-132.5 87,-151.5 144,-151.5 144,-132.5 87,-132.5"/>
<text text-anchor="middle" x="115.5" y="-139.5" font-family="Helvetica,sans-Serif" font-size="10.00">rungmres</text>
</a>
</g>
</g>
<!-- Node1&#45;&gt;Node12 -->
<g id="edge21" class="edge">
<title>Node1&#45;&gt;Node12</title>
<path fill="none" stroke="midnightblue" d="M51.01,-155.71C58.98,-153.99 68.02,-152.04 76.72,-150.16"/>
<polygon fill="midnightblue" stroke="midnightblue" points="77.67,-153.53 86.71,-148 76.19,-146.69 77.67,-153.53"/>
</g>
<!-- Node15 -->
<g id="node15" class="node">
<title>Node15</title>
<g id="a_node15"><a xlink:href="group__grp__transform.html#ga0e0447653b8da82f06748dd8831bc337" target="_top" xlink:title="Calculates rotational transform given an arbitrary tangential field.">
<polygon fill="white" stroke="black" points="93.5,-0.5 93.5,-19.5 137.5,-19.5 137.5,-0.5 93.5,-0.5"/>
<text text-anchor="middle" x="115.5" y="-7.5" font-family="Helvetica,sans-Serif" font-size="10.00">tr00ab</text>
</a>
</g>
</g>
<!-- Node1&#45;&gt;Node15 -->
<g id="edge27" class="edge">
<title>Node1&#45;&gt;Node15</title>
<path fill="none" stroke="midnightblue" d="M31.61,-151.24C41.74,-132.01 65.3,-87.94 87,-52 91.81,-44.03 97.4,-35.39 102.28,-28.03"/>
<polygon fill="midnightblue" stroke="midnightblue" points="105.31,-29.8 107.96,-19.55 99.49,-25.91 105.31,-29.8"/>
</g>
<!-- Node2&#45;&gt;Node2 -->
<g id="edge9" class="edge">
<title>Node2&#45;&gt;Node2</title>
<path fill="none" stroke="midnightblue" d="M101.63,-271.76C94.88,-280.57 99.5,-290 115.5,-290 125.5,-290 131.05,-286.31 132.17,-281.4"/>
<polygon fill="midnightblue" stroke="midnightblue" points="135.52,-280.39 129.37,-271.76 128.79,-282.34 135.52,-280.39"/>
</g>
<!-- Node3 -->
<g id="node3" class="node">
<title>Node3</title>
<g id="a_node3"><a xlink:href="namespaceallglobal.html#af3f23b45db519a643eea14b410e6d428" target="_top" xlink:title=" ">
<polygon fill="white" stroke="black" points="180,-247 180,-277 289,-277 289,-247 180,-247"/>
<text text-anchor="start" x="188" y="-265" font-family="Helvetica,sans-Serif" font-size="10.00">allglobal::build_vector</text>
<text text-anchor="middle" x="234.5" y="-254" font-family="Helvetica,sans-Serif" font-size="10.00">_potential</text>
</a>
</g>
</g>
<!-- Node2&#45;&gt;Node3 -->
<g id="edge2" class="edge">
<title>Node2&#45;&gt;Node3</title>
<path fill="none" stroke="midnightblue" d="M137.69,-262C146.86,-262 158.12,-262 169.67,-262"/>
<polygon fill="midnightblue" stroke="midnightblue" points="169.84,-265.5 179.84,-262 169.84,-258.5 169.84,-265.5"/>
</g>
<!-- Node4 -->
<g id="node4" class="node">
<title>Node4</title>
<g id="a_node4"><a xlink:href="group__grp__geometry.html#gaaca20aa60eaf39055f3c9d5c02a24ac2" target="_top" xlink:title="Calculates coordinates, , and metrics, using FFTs.">
<polygon fill="white" stroke="black" points="546,-287.5 546,-306.5 592,-306.5 592,-287.5 546,-287.5"/>
<text text-anchor="middle" x="569" y="-294.5" font-family="Helvetica,sans-Serif" font-size="10.00">coords</text>
</a>
</g>
</g>
<!-- Node2&#45;&gt;Node4 -->
<g id="edge4" class="edge">
<title>Node2&#45;&gt;Node4</title>
<path fill="none" stroke="midnightblue" d="M126.69,-271.8C138.44,-282.36 158.87,-298.52 180,-305 306.87,-343.91 468.19,-318.21 535.85,-304.29"/>
<polygon fill="midnightblue" stroke="midnightblue" points="536.83,-307.66 545.89,-302.17 535.38,-300.81 536.83,-307.66"/>
</g>
<!-- Node3&#45;&gt;Node3 -->
<g id="edge3" class="edge">
<title>Node3&#45;&gt;Node3</title>
<path fill="none" stroke="midnightblue" d="M214.63,-277.16C209.84,-286.56 216.46,-295.5 234.5,-295.5 245.49,-295.5 252.24,-292.18 254.76,-287.46"/>
<polygon fill="midnightblue" stroke="midnightblue" points="258.24,-287.02 254.37,-277.16 251.25,-287.28 258.24,-287.02"/>
</g>
<!-- Node4&#45;&gt;Node4 -->
<g id="edge5" class="edge">
<title>Node4&#45;&gt;Node4</title>
<path fill="none" stroke="midnightblue" d="M556.36,-306.76C550.21,-315.57 554.43,-325 569,-325 577.88,-325 582.91,-321.5 584.1,-316.77"/>
<polygon fill="midnightblue" stroke="midnightblue" points="587.43,-315.63 581.64,-306.76 580.63,-317.3 587.43,-315.63"/>
</g>
<!-- Node5 -->
<g id="node5" class="node">
<title>Node5</title>
<g id="a_node5"><a xlink:href="group__grp__volume.html#gae4c62d20b8fef07f4471b5b0889ab005" target="_top" xlink:title="Computes volume of each region; and, if required, the derivatives of the volume with respect to the i...">
<polygon fill="white" stroke="black" points="628,-287.5 628,-306.5 676,-306.5 676,-287.5 628,-287.5"/>
<text text-anchor="middle" x="652" y="-294.5" font-family="Helvetica,sans-Serif" font-size="10.00">volume</text>
</a>
</g>
</g>
<!-- Node4&#45;&gt;Node5 -->
<g id="edge6" class="edge">
<title>Node4&#45;&gt;Node5</title>
<path fill="none" stroke="midnightblue" d="M592.13,-290.91C599.99,-290.3 609.02,-290.12 617.61,-290.34"/>
<polygon fill="midnightblue" stroke="midnightblue" points="617.61,-293.85 627.76,-290.83 617.94,-286.85 617.61,-293.85"/>
</g>
<!-- Node5&#45;&gt;Node4 -->
<g id="edge7" class="edge">
<title>Node5&#45;&gt;Node4</title>
<path fill="none" stroke="midnightblue" d="M627.76,-303.17C619.8,-303.74 610.74,-303.89 602.19,-303.62"/>
<polygon fill="midnightblue" stroke="midnightblue" points="602.3,-300.12 592.13,-303.09 601.94,-307.11 602.3,-300.12"/>
</g>
<!-- Node5&#45;&gt;Node5 -->
<g id="edge8" class="edge">
<title>Node5&#45;&gt;Node5</title>
<path fill="none" stroke="midnightblue" d="M639.36,-306.76C633.21,-315.57 637.43,-325 652,-325 660.88,-325 665.91,-321.5 667.1,-316.77"/>
<polygon fill="midnightblue" stroke="midnightblue" points="670.43,-315.63 664.64,-306.76 663.63,-317.3 670.43,-315.63"/>
</g>
<!-- Node6&#45;&gt;Node6 -->
<g id="edge15" class="edge">
<title>Node6&#45;&gt;Node6</title>
<path fill="none" stroke="midnightblue" d="M332.05,-227.76C323.8,-236.57 329.45,-246 349,-246 361.22,-246 368.01,-242.31 369.37,-237.4"/>
<polygon fill="midnightblue" stroke="midnightblue" points="372.59,-236.01 365.95,-227.76 365.99,-238.35 372.59,-236.01"/>
</g>
<!-- Node7 -->
<g id="node7" class="node">
<title>Node7</title>
<g id="a_node7"><a xlink:href="metrix_8f90.html#a80c802cda076dd9e7031bc5f9098c175" target="_top" xlink:title="compute guvijsave">
<polygon fill="white" stroke="black" points="409,-261.5 409,-280.5 510,-280.5 510,-261.5 409,-261.5"/>
<text text-anchor="middle" x="459.5" y="-268.5" font-family="Helvetica,sans-Serif" font-size="10.00">compute_guvijsave</text>
</a>
</g>
</g>
<!-- Node6&#45;&gt;Node7 -->
<g id="edge11" class="edge">
<title>Node6&#45;&gt;Node7</title>
<path fill="none" stroke="midnightblue" d="M369.65,-227.6C386.47,-235.81 410.91,-247.75 429.9,-257.03"/>
<polygon fill="midnightblue" stroke="midnightblue" points="428.48,-260.23 439,-261.47 431.55,-253.94 428.48,-260.23"/>
</g>
<!-- Node8 -->
<g id="node8" class="node">
<title>Node8</title>
<g id="a_node8"><a xlink:href="basefn_8f90.html#af6a4cad04c70bfb14fd18a3bfbc843a3" target="_top" xlink:title="Get the Chebyshev polynomials with zeroth, first derivatives.">
<polygon fill="white" stroke="black" points="429,-215.5 429,-234.5 490,-234.5 490,-215.5 429,-215.5"/>
<text text-anchor="middle" x="459.5" y="-222.5" font-family="Helvetica,sans-Serif" font-size="10.00">get_cheby</text>
</a>
</g>
</g>
<!-- Node6&#45;&gt;Node8 -->
<g id="edge13" class="edge">
<title>Node6&#45;&gt;Node8</title>
<path fill="none" stroke="midnightblue" d="M370.66,-219.33C384.18,-220.21 402.28,-221.37 418.54,-222.42"/>
<polygon fill="midnightblue" stroke="midnightblue" points="418.69,-225.94 428.89,-223.09 419.14,-218.95 418.69,-225.94"/>
</g>
<!-- Node9 -->
<g id="node9" class="node">
<title>Node9</title>
<g id="a_node9"><a xlink:href="basefn_8f90.html#a38dc596fb909186b01dacc1feac03164" target="_top" xlink:title="Get the Zernike polynomials &#160;with zeroth, first derivatives.">
<polygon fill="white" stroke="black" points="426.5,-177.5 426.5,-196.5 492.5,-196.5 492.5,-177.5 426.5,-177.5"/>
<text text-anchor="middle" x="459.5" y="-184.5" font-family="Helvetica,sans-Serif" font-size="10.00">get_zernike</text>
</a>
</g>
</g>
<!-- Node6&#45;&gt;Node9 -->
<g id="edge14" class="edge">
<title>Node6&#45;&gt;Node9</title>
<path fill="none" stroke="midnightblue" d="M370.66,-212.1C383.58,-208.41 400.67,-203.52 416.35,-199.04"/>
<polygon fill="midnightblue" stroke="midnightblue" points="417.73,-202.29 426.39,-196.18 415.81,-195.56 417.73,-202.29"/>
</g>
<!-- Node7&#45;&gt;Node4 -->
<g id="edge12" class="edge">
<title>Node7&#45;&gt;Node4</title>
<path fill="none" stroke="midnightblue" d="M499.92,-280.53C511.76,-283.4 524.59,-286.5 535.9,-289.24"/>
<polygon fill="midnightblue" stroke="midnightblue" points="535.23,-292.68 545.77,-291.62 536.88,-285.87 535.23,-292.68"/>
</g>
<!-- Node10&#45;&gt;Node10 -->
<g id="edge18" class="edge">
<title>Node10&#45;&gt;Node10</title>
<path fill="none" stroke="midnightblue" d="M332.05,-161.76C323.8,-170.57 329.45,-180 349,-180 361.22,-180 368.01,-176.31 369.37,-171.4"/>
<polygon fill="midnightblue" stroke="midnightblue" points="372.59,-170.01 365.95,-161.76 365.99,-172.35 372.59,-170.01"/>
</g>
<!-- Node11&#45;&gt;Node11 -->
<g id="edge20" class="edge">
<title>Node11&#45;&gt;Node11</title>
<path fill="none" stroke="midnightblue" d="M332.05,-95.76C323.8,-104.57 329.45,-114 349,-114 361.22,-114 368.01,-110.31 369.37,-105.4"/>
<polygon fill="midnightblue" stroke="midnightblue" points="372.59,-104.01 365.95,-95.76 365.99,-106.35 372.59,-104.01"/>
</g>
<!-- Node13 -->
<g id="node13" class="node">
<title>Node13</title>
<g id="a_node13"><a xlink:href="mp00ac_8f90.html#ae9fe335bb4916face9f9d19ce8c0f5d7" target="_top" xlink:title="compute a.x by either by coumputing it directly, or using a matrix free method">
<polygon fill="white" stroke="black" points="210,-132.5 210,-151.5 259,-151.5 259,-132.5 210,-132.5"/>
<text text-anchor="middle" x="234.5" y="-139.5" font-family="Helvetica,sans-Serif" font-size="10.00">matvec</text>
</a>
</g>
</g>
<!-- Node12&#45;&gt;Node13 -->
<g id="edge22" class="edge">
<title>Node12&#45;&gt;Node13</title>
<path fill="none" stroke="midnightblue" d="M144.23,-142C160.79,-142 181.96,-142 199.52,-142"/>
<polygon fill="midnightblue" stroke="midnightblue" points="199.92,-145.5 209.92,-142 199.92,-138.5 199.92,-145.5"/>
</g>
<!-- Node14 -->
<g id="node14" class="node">
<title>Node14</title>
<g id="a_node14"><a xlink:href="mp00ac_8f90.html#a76cda97bf815eb7f40cb76ad1719d809" target="_top" xlink:title="apply the preconditioner">
<polygon fill="white" stroke="black" points="202.5,-94.5 202.5,-113.5 266.5,-113.5 266.5,-94.5 202.5,-94.5"/>
<text text-anchor="middle" x="234.5" y="-101.5" font-family="Helvetica,sans-Serif" font-size="10.00">prec_solve</text>
</a>
</g>
</g>
<!-- Node12&#45;&gt;Node14 -->
<g id="edge26" class="edge">
<title>Node12&#45;&gt;Node14</title>
<path fill="none" stroke="midnightblue" d="M144.23,-132.99C159.11,-128.16 177.71,-122.12 194.08,-116.8"/>
<polygon fill="midnightblue" stroke="midnightblue" points="195.5,-120.02 203.93,-113.61 193.33,-113.37 195.5,-120.02"/>
</g>
<!-- Node13&#45;&gt;Node6 -->
<g id="edge23" class="edge">
<title>Node13&#45;&gt;Node6</title>
<path fill="none" stroke="midnightblue" d="M249.75,-151.63C268.85,-164.53 302.97,-187.58 325.55,-202.83"/>
<polygon fill="midnightblue" stroke="midnightblue" points="323.62,-205.75 333.87,-208.45 327.54,-199.95 323.62,-205.75"/>
</g>
<!-- Node13&#45;&gt;Node10 -->
<g id="edge24" class="edge">
<title>Node13&#45;&gt;Node10</title>
<path fill="none" stroke="midnightblue" d="M259.08,-144.1C275.56,-145.56 297.77,-147.54 315.87,-149.14"/>
<polygon fill="midnightblue" stroke="midnightblue" points="315.71,-152.64 325.98,-150.04 316.33,-145.67 315.71,-152.64"/>
</g>
<!-- Node13&#45;&gt;Node11 -->
<g id="edge25" class="edge">
<title>Node13&#45;&gt;Node11</title>
<path fill="none" stroke="midnightblue" d="M259.13,-134.85C268.6,-131.67 279.51,-127.59 289,-123 301.75,-116.83 315.19,-108.55 326.02,-101.39"/>
<polygon fill="midnightblue" stroke="midnightblue" points="328.1,-104.21 334.43,-95.71 324.18,-98.41 328.1,-104.21"/>
</g>
<!-- Node15&#45;&gt;Node15 -->
<g id="edge28" class="edge">
<title>Node15&#45;&gt;Node15</title>
<path fill="none" stroke="midnightblue" d="M101.63,-19.76C94.88,-28.57 99.5,-38 115.5,-38 125.5,-38 131.05,-34.31 132.17,-29.4"/>
<polygon fill="midnightblue" stroke="midnightblue" points="135.52,-28.39 129.37,-19.76 128.79,-30.34 135.52,-28.39"/>
</g>
</g>
</svg>
