<?xml version="1.0" encoding="UTF-8" standalone="no"?>
<!DOCTYPE svg PUBLIC "-//W3C//DTD SVG 1.1//EN"
 "http://www.w3.org/Graphics/SVG/1.1/DTD/svg11.dtd">
<!-- Generated by graphviz version 2.49.0 (0)
 -->
<!-- Title: bfield Pages: 1 -->
<svg width="685pt" height="160pt"
 viewBox="0.00 0.00 685.00 160.00" xmlns="http://www.w3.org/2000/svg" xmlns:xlink="http://www.w3.org/1999/xlink">
<g id="graph0" class="graph" transform="scale(1 1) rotate(0) translate(4 156)">
<title>bfield</title>
<polygon fill="white" stroke="transparent" points="-4,4 -4,-156 681,-156 681,4 -4,4"/>
<!-- Node1 -->
<g id="node1" class="node">
<title>Node1</title>
<g id="a_node1"><a xlink:title="Compute the magnetic field.">
<polygon fill="#bfbfbf" stroke="black" points="638,-66.5 638,-85.5 677,-85.5 677,-66.5 638,-66.5"/>
<text text-anchor="middle" x="657.5" y="-73.5" font-family="Helvetica,sans-Serif" font-size="10.00">bfield</text>
</a>
</g>
</g>
<!-- Node1&#45;&gt;Node1 -->
<g id="edge1" class="edge">
<title>Node1&#45;&gt;Node1</title>
<path fill="none" stroke="midnightblue" d="M674.91,-95.4C673.74,-100.31 667.94,-104 657.5,-104 640.79,-104 635.96,-94.57 643.01,-85.76"/>
<polygon fill="midnightblue" stroke="midnightblue" points="678.23,-94.31 671.99,-85.76 671.53,-96.34 678.23,-94.31"/>
</g>
<!-- Node2 -->
<g id="node2" class="node">
<title>Node2</title>
<g id="a_node2"><a xlink:href="bfield_8f90.html#adc615fe98d38488525cbe807d008860a" target="_top" xlink:title="compute the tangential magnetic field">
<polygon fill="white" stroke="black" points="525,-132.5 525,-151.5 602,-151.5 602,-132.5 525,-132.5"/>
<text text-anchor="middle" x="563.5" y="-139.5" font-family="Helvetica,sans-Serif" font-size="10.00">bfield_tangent</text>
</a>
</g>
</g>
<!-- Node1&#45;&gt;Node2 -->
<g id="edge2" class="edge">
<title>Node1&#45;&gt;Node2</title>
<path fill="none" stroke="midnightblue" d="M636.71,-91.92C626.5,-99.96 613.76,-109.73 602,-118 594.92,-122.98 586.86,-128.2 580.03,-132.49"/>
<polygon fill="midnightblue" stroke="midnightblue" points="638.95,-94.61 644.6,-85.65 634.6,-89.13 638.95,-94.61"/>
</g>
<!-- Node3 -->
<g id="node3" class="node">
<title>Node3</title>
<g id="a_node3"><a xlink:href="group__grp__diagnostics.html#ga6411205c36a7d50002d7f3fb3133c441" target="_top" xlink:title="Measures error in Beltrami equation, .">
<polygon fill="white" stroke="black" points="442.5,-94.5 442.5,-113.5 487.5,-113.5 487.5,-94.5 442.5,-94.5"/>
<text text-anchor="middle" x="465" y="-101.5" font-family="Helvetica,sans-Serif" font-size="10.00">jo00aa</text>
</a>
</g>
</g>
<!-- Node1&#45;&gt;Node3 -->
<g id="edge3" class="edge">
<title>Node1&#45;&gt;Node3</title>
<path fill="none" stroke="midnightblue" d="M627.84,-80.87C619.51,-82.25 610.4,-83.72 602,-85 561.7,-91.14 514.56,-97.56 487.69,-101.14"/>
<polygon fill="midnightblue" stroke="midnightblue" points="628.57,-84.3 637.85,-79.2 627.41,-77.39 628.57,-84.3"/>
</g>
<!-- Node9 -->
<g id="node9" class="node">
<title>Node9</title>
<g id="a_node9"><a xlink:href="group__grp__diagnostics.html#ga831aed2458140e266ee4d37461dd5350" target="_top" xlink:title="Constructs Poincaré plot and &quot;approximate&quot; rotational&#45;transform (for single field line).">
<polygon fill="white" stroke="black" points="539.5,-38.5 539.5,-57.5 587.5,-57.5 587.5,-38.5 539.5,-38.5"/>
<text text-anchor="middle" x="563.5" y="-45.5" font-family="Helvetica,sans-Serif" font-size="10.00">pp00ab</text>
</a>
</g>
</g>
<!-- Node1&#45;&gt;Node9 -->
<g id="edge14" class="edge">
<title>Node1&#45;&gt;Node9</title>
<path fill="none" stroke="midnightblue" d="M628.05,-67.34C615.08,-63.39 599.92,-58.78 587.66,-55.05"/>
<polygon fill="midnightblue" stroke="midnightblue" points="627.3,-70.77 637.88,-70.33 629.33,-64.07 627.3,-70.77"/>
</g>
<!-- Node11 -->
<g id="node11" class="node">
<title>Node11</title>
<g id="a_node11"><a xlink:href="group__grp__output.html#ga17e65b951634f7098213fd071d905482" target="_top" xlink:title="Write the magnetic field on a grid.">
<polygon fill="white" stroke="black" points="313,-0.5 313,-19.5 405,-19.5 405,-0.5 313,-0.5"/>
<text text-anchor="middle" x="359" y="-7.5" font-family="Helvetica,sans-Serif" font-size="10.00">sphdf5::write_grid</text>
</a>
</g>
</g>
<!-- Node1&#45;&gt;Node11 -->
<g id="edge19" class="edge">
<title>Node1&#45;&gt;Node11</title>
<path fill="none" stroke="midnightblue" d="M642.02,-58.89C631.97,-48.29 617.62,-35.51 602,-29 537.62,-2.16 455.34,-2.08 405.21,-5.38"/>
<polygon fill="midnightblue" stroke="midnightblue" points="639.52,-61.34 648.82,-66.42 644.72,-56.65 639.52,-61.34"/>
</g>
<!-- Node3&#45;&gt;Node3 -->
<g id="edge13" class="edge">
<title>Node3&#45;&gt;Node3</title>
<path fill="none" stroke="midnightblue" d="M483.15,-123.4C481.94,-128.31 475.89,-132 465,-132 447.58,-132 442.55,-122.57 449.9,-113.76"/>
<polygon fill="midnightblue" stroke="midnightblue" points="486.45,-122.24 480.1,-113.76 479.78,-124.35 486.45,-122.24"/>
</g>
<!-- Node4 -->
<g id="node4" class="node">
<title>Node4</title>
<g id="a_node4"><a xlink:href="xspech_8f90.html#a1451823a7b97101a797de616250752c1" target="_top" xlink:title="Final diagnostics.">
<polygon fill="white" stroke="black" points="314.5,-38.5 314.5,-57.5 403.5,-57.5 403.5,-38.5 314.5,-38.5"/>
<text text-anchor="middle" x="359" y="-45.5" font-family="Helvetica,sans-Serif" font-size="10.00">final_diagnostics</text>
</a>
</g>
</g>
<!-- Node3&#45;&gt;Node4 -->
<g id="edge4" class="edge">
<title>Node3&#45;&gt;Node4</title>
<path fill="none" stroke="midnightblue" d="M437,-89.46C418.39,-79.44 394.17,-66.4 377.91,-57.64"/>
<polygon fill="midnightblue" stroke="midnightblue" points="435.42,-92.59 445.88,-94.25 438.74,-86.42 435.42,-92.59"/>
</g>
<!-- Node5 -->
<g id="node5" class="node">
<title>Node5</title>
<g id="a_node5"><a xlink:href="xspech_8f90.html#a9fdc71dffd7c61ee4588a3f80d3ab9ce" target="_top" xlink:title="Main subroutine of SPEC.">
<polygon fill="white" stroke="black" points="230,-38.5 230,-57.5 277,-57.5 277,-38.5 230,-38.5"/>
<text text-anchor="middle" x="253.5" y="-45.5" font-family="Helvetica,sans-Serif" font-size="10.00">xspech</text>
</a>
</g>
</g>
<!-- Node4&#45;&gt;Node5 -->
<g id="edge5" class="edge">
<title>Node4&#45;&gt;Node5</title>
<path fill="none" stroke="midnightblue" d="M304.11,-41.26C294.6,-41.3 285.18,-41.65 277.15,-42.31"/>
<polygon fill="midnightblue" stroke="midnightblue" points="304.38,-44.76 314.41,-41.33 304.43,-37.76 304.38,-44.76"/>
</g>
<!-- Node5&#45;&gt;Node4 -->
<g id="edge6" class="edge">
<title>Node5&#45;&gt;Node4</title>
<path fill="none" stroke="midnightblue" d="M287.2,-54.33C295.84,-54.73 305.29,-54.84 314.41,-54.67"/>
<polygon fill="midnightblue" stroke="midnightblue" points="287.35,-50.83 277.15,-53.69 286.91,-57.81 287.35,-50.83"/>
</g>
<!-- Node5&#45;&gt;Node5 -->
<g id="edge12" class="edge">
<title>Node5&#45;&gt;Node5</title>
<path fill="none" stroke="midnightblue" d="M270.17,-67.4C269.05,-72.31 263.5,-76 253.5,-76 237.5,-76 232.88,-66.57 239.63,-57.76"/>
<polygon fill="midnightblue" stroke="midnightblue" points="273.52,-66.39 267.37,-57.76 266.79,-68.34 273.52,-66.39"/>
</g>
<!-- Node6 -->
<g id="node6" class="node">
<title>Node6</title>
<g id="a_node6"><a xlink:href="xspech_8f90.html#a48f45478dc2c9f70ea8aa1c60ad06503" target="_top" xlink:title="This is the main &quot;driver&quot; for the physics part of SPEC.">
<polygon fill="white" stroke="black" points="143,-57.5 143,-76.5 181,-76.5 181,-57.5 143,-57.5"/>
<text text-anchor="middle" x="162" y="-64.5" font-family="Helvetica,sans-Serif" font-size="10.00">spec</text>
</a>
</g>
</g>
<!-- Node5&#45;&gt;Node6 -->
<g id="edge7" class="edge">
<title>Node5&#45;&gt;Node6</title>
<path fill="none" stroke="midnightblue" d="M219.84,-48.41C206.76,-50.69 192.19,-54.11 181.07,-57.62"/>
<polygon fill="midnightblue" stroke="midnightblue" points="220.57,-51.84 229.92,-46.84 219.5,-44.92 220.57,-51.84"/>
</g>
<!-- Node8 -->
<g id="node8" class="node">
<title>Node8</title>
<g id="a_node8"><a xlink:href="xspech_8f90.html#a95271e8805067f801b5d4e524d6901d4" target="_top" xlink:title="Main program of SPEC.">
<polygon fill="white" stroke="black" points="130,-19.5 130,-38.5 194,-38.5 194,-19.5 130,-19.5"/>
<text text-anchor="middle" x="162" y="-26.5" font-family="Helvetica,sans-Serif" font-size="10.00">spec_main</text>
</a>
</g>
</g>
<!-- Node5&#45;&gt;Node8 -->
<g id="edge11" class="edge">
<title>Node5&#45;&gt;Node8</title>
<path fill="none" stroke="midnightblue" d="M219.99,-41.1C211.52,-39.3 202.42,-37.37 194.03,-35.59"/>
<polygon fill="midnightblue" stroke="midnightblue" points="219.41,-44.55 229.92,-43.21 220.86,-37.71 219.41,-44.55"/>
</g>
<!-- Node6&#45;&gt;Node5 -->
<g id="edge10" class="edge">
<title>Node6&#45;&gt;Node5</title>
<path fill="none" stroke="midnightblue" d="M191.28,-67.32C205.22,-65.11 221.63,-61.38 233.96,-57.53"/>
<polygon fill="midnightblue" stroke="midnightblue" points="190.65,-63.88 181.21,-68.69 191.6,-70.81 190.65,-63.88"/>
</g>
<!-- Node7 -->
<g id="node7" class="node">
<title>Node7</title>
<g id="a_node7"><a xlink:href="group__grp__output.html#ga0f962c09cd5d5eba99f1cba043cb3898" target="_top" xlink:title="Initialize the interface to the HDF5 library and open the output file.">
<polygon fill="white" stroke="black" points="0,-19.5 0,-38.5 94,-38.5 94,-19.5 0,-19.5"/>
<text text-anchor="middle" x="47" y="-26.5" font-family="Helvetica,sans-Serif" font-size="10.00">sphdf5::init_outfile</text>
</a>
</g>
</g>
<!-- Node6&#45;&gt;Node7 -->
<g id="edge8" class="edge">
<title>Node6&#45;&gt;Node7</title>
<path fill="none" stroke="midnightblue" d="M133.28,-57.68C115.95,-51.85 93.69,-44.37 76.26,-38.5"/>
<polygon fill="midnightblue" stroke="midnightblue" points="132.25,-61.02 142.84,-60.89 134.48,-54.39 132.25,-61.02"/>
</g>
<!-- Node7&#45;&gt;Node5 -->
<g id="edge9" class="edge">
<title>Node7&#45;&gt;Node5</title>
<path fill="none" stroke="midnightblue" d="M82.9,-16.49C112.88,-7.61 157.01,0.96 194,-10 212.58,-15.5 230.79,-28.97 241.83,-38.3"/>
<polygon fill="midnightblue" stroke="midnightblue" points="81.8,-13.16 73.3,-19.48 83.89,-19.85 81.8,-13.16"/>
</g>
<!-- Node9&#45;&gt;Node9 -->
<g id="edge18" class="edge">
<title>Node9&#45;&gt;Node9</title>
<path fill="none" stroke="midnightblue" d="M580.91,-67.4C579.74,-72.31 573.94,-76 563.5,-76 546.79,-76 541.96,-66.57 549.01,-57.76"/>
<polygon fill="midnightblue" stroke="midnightblue" points="584.23,-66.31 577.99,-57.76 577.53,-68.34 584.23,-66.31"/>
</g>
<!-- Node10 -->
<g id="node10" class="node">
<title>Node10</title>
<g id="a_node10"><a xlink:href="group__grp__diagnostics.html#gad67931244268a09bd077dae8910c7096" target="_top" xlink:title="Constructs Poincaré plot and &quot;approximate&quot; rotational&#45;transform (driver).">
<polygon fill="white" stroke="black" points="441,-38.5 441,-57.5 489,-57.5 489,-38.5 441,-38.5"/>
<text text-anchor="middle" x="465" y="-45.5" font-family="Helvetica,sans-Serif" font-size="10.00">pp00aa</text>
</a>
</g>
</g>
<!-- Node9&#45;&gt;Node10 -->
<g id="edge15" class="edge">
<title>Node9&#45;&gt;Node10</title>
<path fill="none" stroke="midnightblue" d="M529.02,-48C515.86,-48 501.08,-48 489.14,-48"/>
<polygon fill="midnightblue" stroke="midnightblue" points="529.14,-51.5 539.14,-48 529.14,-44.5 529.14,-51.5"/>
</g>
<!-- Node10&#45;&gt;Node4 -->
<g id="edge16" class="edge">
<title>Node10&#45;&gt;Node4</title>
<path fill="none" stroke="midnightblue" d="M430.81,-48C422.14,-48 412.65,-48 403.52,-48"/>
<polygon fill="midnightblue" stroke="midnightblue" points="430.92,-51.5 440.92,-48 430.92,-44.5 430.92,-51.5"/>
</g>
<!-- Node10&#45;&gt;Node10 -->
<g id="edge17" class="edge">
<title>Node10&#45;&gt;Node10</title>
<path fill="none" stroke="midnightblue" d="M483.15,-67.4C481.94,-72.31 475.89,-76 465,-76 447.58,-76 442.55,-66.57 449.9,-57.76"/>
<polygon fill="midnightblue" stroke="midnightblue" points="486.45,-66.24 480.1,-57.76 479.78,-68.35 486.45,-66.24"/>
</g>
<!-- Node11&#45;&gt;Node5 -->
<g id="edge20" class="edge">
<title>Node11&#45;&gt;Node5</title>
<path fill="none" stroke="midnightblue" d="M322.37,-23.08C307.36,-28.59 290.33,-34.84 277.09,-39.7"/>
<polygon fill="midnightblue" stroke="midnightblue" points="323.7,-26.32 331.88,-19.59 321.29,-19.75 323.7,-26.32"/>
</g>
</g>
</svg>
