<?xml version="1.0" encoding="UTF-8" standalone="no"?>
<!DOCTYPE svg PUBLIC "-//W3C//DTD SVG 1.1//EN"
 "http://www.w3.org/Graphics/SVG/1.1/DTD/svg11.dtd">
<!-- Generated by graphviz version 2.47.2 (0)
 -->
<!-- Title: rzaxis Pages: 1 -->
<svg width="735pt" height="453pt"
 viewBox="0.00 0.00 735.00 452.73" xmlns="http://www.w3.org/2000/svg" xmlns:xlink="http://www.w3.org/1999/xlink">
<g id="graph0" class="graph" transform="scale(1 1) rotate(0) translate(4 448.73)">
<title>rzaxis</title>
<polygon fill="white" stroke="transparent" points="-4,4 -4,-448.73 731,-448.73 731,4 -4,4"/>
<!-- Node1 -->
<g id="node1" class="node">
<title>Node1</title>
<g id="a_node1"><a xlink:title="The coordinate axis is assigned via a poloidal average over an arbitrary surface.">
<polygon fill="#bfbfbf" stroke="black" points="686,-294.94 686,-313.94 727,-313.94 727,-294.94 686,-294.94"/>
<text text-anchor="middle" x="706.5" y="-301.94" font-family="Helvetica,sans-Serif" font-size="10.00">rzaxis</text>
</a>
</g>
</g>
<!-- Node2 -->
<g id="node2" class="node">
<title>Node2</title>
<g id="a_node2"><a xlink:href="group__grp__packing.html#ga094e630c02686dd178749eb1efbf13fb" target="_top" xlink:title="Packs, and unpacks, geometrical degrees of freedom; and sets coordinate axis.">
<polygon fill="white" stroke="black" points="606,-275.94 606,-294.94 650,-294.94 650,-275.94 606,-275.94"/>
<text text-anchor="middle" x="628" y="-282.94" font-family="Helvetica,sans-Serif" font-size="10.00">packxi</text>
</a>
</g>
</g>
<!-- Node1&#45;&gt;Node2 -->
<g id="edge1" class="edge">
<title>Node1&#45;&gt;Node2</title>
<path fill="none" stroke="midnightblue" d="M675.81,-297.07C667.28,-294.95 658.15,-292.68 650.24,-290.72"/>
<polygon fill="midnightblue" stroke="midnightblue" points="675.25,-300.53 685.8,-299.55 676.94,-293.74 675.25,-300.53"/>
</g>
<!-- Node22 -->
<g id="node22" class="node">
<title>Node22</title>
<g id="a_node22"><a xlink:href="group__grp__initialization.html#ga28628de0fdb3b3497668007d8d0643bd" target="_top" xlink:title="Allocates and initializes internal arrays.">
<polygon fill="white" stroke="black" points="526,-408.94 526,-427.94 570,-427.94 570,-408.94 526,-408.94"/>
<text text-anchor="middle" x="548" y="-415.94" font-family="Helvetica,sans-Serif" font-size="10.00">preset</text>
</a>
</g>
</g>
<!-- Node1&#45;&gt;Node22 -->
<g id="edge42" class="edge">
<title>Node1&#45;&gt;Node22</title>
<path fill="none" stroke="midnightblue" d="M683.98,-320.12C651.14,-344.04 589.48,-388.95 562.37,-408.7"/>
<polygon fill="midnightblue" stroke="midnightblue" points="686.4,-322.68 692.43,-313.96 682.28,-317.02 686.4,-322.68"/>
</g>
<!-- Node3 -->
<g id="node3" class="node">
<title>Node3</title>
<g id="a_node3"><a xlink:href="group__grp__global__force.html#ga38c9d3c50bd043707fefa5137c9dbf44" target="_top" xlink:title="Calculates , where &#160;and , and .">
<polygon fill="white" stroke="black" points="526,-199.94 526,-218.94 570,-218.94 570,-199.94 526,-199.94"/>
<text text-anchor="middle" x="548" y="-206.94" font-family="Helvetica,sans-Serif" font-size="10.00">dforce</text>
</a>
</g>
</g>
<!-- Node2&#45;&gt;Node3 -->
<g id="edge2" class="edge">
<title>Node2&#45;&gt;Node3</title>
<path fill="none" stroke="midnightblue" d="M609.69,-268.57C594.14,-253.42 571.83,-231.69 559.04,-219.23"/>
<polygon fill="midnightblue" stroke="midnightblue" points="607.52,-271.34 617.12,-275.82 612.4,-266.33 607.52,-271.34"/>
</g>
<!-- Node7 -->
<g id="node7" class="node">
<title>Node7</title>
<g id="a_node7"><a xlink:href="xspech_8f90.html#a48f45478dc2c9f70ea8aa1c60ad06503" target="_top" xlink:title="This is the main &quot;driver&quot; for the physics part of SPEC.">
<polygon fill="white" stroke="black" points="168.5,-332.94 168.5,-351.94 206.5,-351.94 206.5,-332.94 168.5,-332.94"/>
<text text-anchor="middle" x="187.5" y="-339.94" font-family="Helvetica,sans-Serif" font-size="10.00">spec</text>
</a>
</g>
</g>
<!-- Node2&#45;&gt;Node7 -->
<g id="edge41" class="edge">
<title>Node2&#45;&gt;Node7</title>
<path fill="none" stroke="midnightblue" d="M607.02,-301.23C581.59,-320.17 535.47,-350.71 490,-361.44 385.1,-386.2 254.33,-358.97 206.82,-347.26"/>
<polygon fill="midnightblue" stroke="midnightblue" points="609.29,-303.91 615.12,-295.07 605.05,-298.34 609.29,-303.91"/>
</g>
<!-- Node10 -->
<g id="node10" class="node">
<title>Node10</title>
<g id="a_node10"><a xlink:href="group__grp__force__driver.html#gabbc245b3884ee8d8d3e2a52f25149f78" target="_top" xlink:title="fcn1">
<polygon fill="white" stroke="black" points="410,-218.94 410,-237.94 445,-237.94 445,-218.94 410,-218.94"/>
<text text-anchor="middle" x="427.5" y="-225.94" font-family="Helvetica,sans-Serif" font-size="10.00">fcn1</text>
</a>
</g>
</g>
<!-- Node2&#45;&gt;Node10 -->
<g id="edge38" class="edge">
<title>Node2&#45;&gt;Node10</title>
<path fill="none" stroke="midnightblue" d="M595.92,-276.51C553.28,-264.27 478.19,-242.71 445.03,-233.19"/>
<polygon fill="midnightblue" stroke="midnightblue" points="595.18,-279.94 605.76,-279.34 597.11,-273.22 595.18,-279.94"/>
</g>
<!-- Node12 -->
<g id="node12" class="node">
<title>Node12</title>
<g id="a_node12"><a xlink:href="group__grp__force__driver.html#ga8ccd6c7d901872702521d0a0edf95412" target="_top" xlink:title="fcn2">
<polygon fill="white" stroke="black" points="29.5,-180.94 29.5,-199.94 64.5,-199.94 64.5,-180.94 29.5,-180.94"/>
<text text-anchor="middle" x="47" y="-187.94" font-family="Helvetica,sans-Serif" font-size="10.00">fcn2</text>
</a>
</g>
</g>
<!-- Node2&#45;&gt;Node12 -->
<g id="edge39" class="edge">
<title>Node2&#45;&gt;Node12</title>
<path fill="none" stroke="midnightblue" d="M623.26,-265.5C609.85,-200.74 557.91,-0.44 428.5,-0.44 428.5,-0.44 428.5,-0.44 304,-0.44 224.55,-0.44 193.27,6.61 130,-41.44 81.09,-78.59 57.53,-153.73 50.41,-180.61"/>
<polygon fill="midnightblue" stroke="midnightblue" points="619.89,-266.5 625.27,-275.63 626.76,-265.14 619.89,-266.5"/>
</g>
<!-- Node19 -->
<g id="node19" class="node">
<title>Node19</title>
<g id="a_node19"><a xlink:href="group__grp__diagnostics.html#ga7401b50ec10c6598ee4a8112717a63ec" target="_top" xlink:title="Computes eigenvalues and eigenvectors of derivative matrix, .">
<polygon fill="white" stroke="black" points="405,-332.94 405,-351.94 450,-351.94 450,-332.94 405,-332.94"/>
<text text-anchor="middle" x="427.5" y="-339.94" font-family="Helvetica,sans-Serif" font-size="10.00">hesian</text>
</a>
</g>
</g>
<!-- Node2&#45;&gt;Node19 -->
<g id="edge40" class="edge">
<title>Node2&#45;&gt;Node19</title>
<path fill="none" stroke="midnightblue" d="M596.13,-294.3C555.62,-305.94 485.53,-326.07 450.19,-336.21"/>
<polygon fill="midnightblue" stroke="midnightblue" points="597.11,-297.67 605.76,-291.54 595.18,-290.94 597.11,-297.67"/>
</g>
<!-- Node4 -->
<g id="node4" class="node">
<title>Node4</title>
<g id="a_node4"><a xlink:href="namespaceallglobal.html#a7824bc37519fe88336534ce90ab2af16" target="_top" xlink:title=" ">
<polygon fill="white" stroke="black" points="370.5,-294.94 370.5,-313.94 484.5,-313.94 484.5,-294.94 370.5,-294.94"/>
<text text-anchor="middle" x="427.5" y="-301.94" font-family="Helvetica,sans-Serif" font-size="10.00">allglobal::check_inputs</text>
</a>
</g>
</g>
<!-- Node3&#45;&gt;Node4 -->
<g id="edge3" class="edge">
<title>Node3&#45;&gt;Node4</title>
<path fill="none" stroke="midnightblue" d="M536.09,-227.92C525.91,-243.75 509.42,-266.19 490,-280.44 481.78,-286.48 471.84,-291.22 462.37,-294.83"/>
<polygon fill="midnightblue" stroke="midnightblue" points="539.29,-229.39 541.57,-219.05 533.34,-225.71 539.29,-229.39"/>
</g>
<!-- Node3&#45;&gt;Node7 -->
<g id="edge37" class="edge">
<title>Node3&#45;&gt;Node7</title>
<path fill="none" stroke="midnightblue" d="M526.84,-225C516.3,-232.57 502.94,-241.33 490,-247.44 437.5,-272.26 420.41,-268.07 365,-285.44 306.93,-303.64 238.4,-326.04 206.51,-336.51"/>
<polygon fill="midnightblue" stroke="midnightblue" points="528.99,-227.76 534.95,-219 524.83,-222.13 528.99,-227.76"/>
</g>
<!-- Node3&#45;&gt;Node10 -->
<g id="edge12" class="edge">
<title>Node3&#45;&gt;Node10</title>
<path fill="none" stroke="midnightblue" d="M515.69,-214.46C493.13,-218.08 463.55,-222.82 445.29,-225.75"/>
<polygon fill="midnightblue" stroke="midnightblue" points="516.49,-217.88 525.81,-212.84 515.39,-210.97 516.49,-217.88"/>
</g>
<!-- Node11 -->
<g id="node11" class="node">
<title>Node11</title>
<g id="a_node11"><a xlink:href="group__grp__force__driver.html#gaec14f81fbdbedafbc4189489ec8ae178" target="_top" xlink:title="Employs Newton method to find , where &#160;and &#160;is defined in dforce() .">
<polygon fill="white" stroke="black" points="281,-218.94 281,-237.94 329,-237.94 329,-218.94 281,-218.94"/>
<text text-anchor="middle" x="305" y="-225.94" font-family="Helvetica,sans-Serif" font-size="10.00">newton</text>
</a>
</g>
</g>
<!-- Node3&#45;&gt;Node11 -->
<g id="edge34" class="edge">
<title>Node3&#45;&gt;Node11</title>
<path fill="none" stroke="midnightblue" d="M515.81,-206.52C479.38,-203.78 417.42,-201.21 365,-209.44 352.88,-211.34 339.86,-215.32 329.13,-219.15"/>
<polygon fill="midnightblue" stroke="midnightblue" points="515.57,-210.01 525.82,-207.32 516.13,-203.03 515.57,-210.01"/>
</g>
<!-- Node3&#45;&gt;Node12 -->
<g id="edge21" class="edge">
<title>Node3&#45;&gt;Node12</title>
<path fill="none" stroke="midnightblue" d="M544.96,-189.81C540.66,-159.61 527.74,-102.44 490,-75.44 401.2,-11.92 354.11,-61.44 245,-57.44 193.92,-55.57 174.63,-32.53 130,-57.44 80.97,-84.81 57.62,-154.88 50.47,-180.7"/>
<polygon fill="midnightblue" stroke="midnightblue" points="541.51,-190.45 546.21,-199.94 548.46,-189.58 541.51,-190.45"/>
</g>
<!-- Node14 -->
<g id="node14" class="node">
<title>Node14</title>
<g id="a_node14"><a xlink:href="dfp200_8f90.html#a6aca59cf350d7b1941f8389d50945a43" target="_top" xlink:title="get LU Beltrami matrices">
<polygon fill="white" stroke="black" points="365,-104.94 365,-123.94 490,-123.94 490,-104.94 365,-104.94"/>
<text text-anchor="middle" x="427.5" y="-111.94" font-family="Helvetica,sans-Serif" font-size="10.00">get_lu_beltrami_matrices</text>
</a>
</g>
</g>
<!-- Node3&#45;&gt;Node14 -->
<g id="edge22" class="edge">
<title>Node3&#45;&gt;Node14</title>
<path fill="none" stroke="midnightblue" d="M537.39,-190.6C527.67,-173.34 511.08,-148.28 490,-133.44 484.52,-129.58 478.23,-126.49 471.81,-124.01"/>
<polygon fill="midnightblue" stroke="midnightblue" points="534.48,-192.58 542.31,-199.72 540.65,-189.26 534.48,-192.58"/>
</g>
<!-- Node3&#45;&gt;Node19 -->
<g id="edge32" class="edge">
<title>Node3&#45;&gt;Node19</title>
<path fill="none" stroke="midnightblue" d="M542.37,-228.9C535.34,-254.27 519.55,-298.38 490,-323.44 478.84,-332.91 462.99,-337.66 450.18,-340.05"/>
<polygon fill="midnightblue" stroke="midnightblue" points="545.82,-229.54 544.93,-218.98 539.04,-227.79 545.82,-229.54"/>
</g>
<!-- Node20 -->
<g id="node20" class="node">
<title>Node20</title>
<g id="a_node20"><a xlink:href="group__grp__conjugate__gradient.html#ga4d8415226e62a9fdb42b0fd0b464251e" target="_top" xlink:title="Returns the energy functional and it&#39;s derivatives with respect to geometry.">
<polygon fill="white" stroke="black" points="403.5,-142.94 403.5,-161.94 451.5,-161.94 451.5,-142.94 403.5,-142.94"/>
<text text-anchor="middle" x="427.5" y="-149.94" font-family="Helvetica,sans-Serif" font-size="10.00">pc00ab</text>
</a>
</g>
</g>
<!-- Node3&#45;&gt;Node20 -->
<g id="edge35" class="edge">
<title>Node3&#45;&gt;Node20</title>
<path fill="none" stroke="midnightblue" d="M523.23,-194.59C513.17,-188.59 501.2,-181.83 490,-176.44 477.61,-170.48 463.32,-164.83 451.64,-160.52"/>
<polygon fill="midnightblue" stroke="midnightblue" points="521.5,-197.63 531.86,-199.83 525.13,-191.65 521.5,-197.63"/>
</g>
<!-- Node5 -->
<g id="node5" class="node">
<title>Node5</title>
<g id="a_node5"><a xlink:href="xspech_8f90.html#a9fdc71dffd7c61ee4588a3f80d3ab9ce" target="_top" xlink:title="Main subroutine of SPEC.">
<polygon fill="white" stroke="black" points="281.5,-408.94 281.5,-427.94 328.5,-427.94 328.5,-408.94 281.5,-408.94"/>
<text text-anchor="middle" x="305" y="-415.94" font-family="Helvetica,sans-Serif" font-size="10.00">xspech</text>
</a>
</g>
</g>
<!-- Node4&#45;&gt;Node5 -->
<g id="edge4" class="edge">
<title>Node4&#45;&gt;Node5</title>
<path fill="none" stroke="midnightblue" d="M372.82,-318.32C370.07,-319.86 367.44,-321.56 365,-323.44 335.03,-346.57 316.48,-389.59 309.35,-408.77"/>
<polygon fill="midnightblue" stroke="midnightblue" points="374.41,-321.44 381.93,-313.98 371.4,-315.13 374.41,-321.44"/>
</g>
<!-- Node6 -->
<g id="node6" class="node">
<title>Node6</title>
<g id="a_node6"><a xlink:href="xspech_8f90.html#a1451823a7b97101a797de616250752c1" target="_top" xlink:title="Final diagnostics.">
<polygon fill="white" stroke="black" points="143,-408.94 143,-427.94 232,-427.94 232,-408.94 143,-408.94"/>
<text text-anchor="middle" x="187.5" y="-415.94" font-family="Helvetica,sans-Serif" font-size="10.00">final_diagnostics</text>
</a>
</g>
</g>
<!-- Node5&#45;&gt;Node6 -->
<g id="edge5" class="edge">
<title>Node5&#45;&gt;Node6</title>
<path fill="none" stroke="midnightblue" d="M271.29,-412.29C259.09,-411.67 245.05,-411.53 232.04,-411.88"/>
<polygon fill="midnightblue" stroke="midnightblue" points="271.25,-415.79 281.46,-412.96 271.71,-408.81 271.25,-415.79"/>
</g>
<!-- Node5&#45;&gt;Node7 -->
<g id="edge7" class="edge">
<title>Node5&#45;&gt;Node7</title>
<path fill="none" stroke="midnightblue" d="M292.58,-400.94C277.01,-382.19 250.43,-355.75 245,-352.44 233.15,-345.24 218.23,-340.37 206.69,-338.66"/>
<polygon fill="midnightblue" stroke="midnightblue" points="289.91,-403.2 298.84,-408.89 295.41,-398.87 289.91,-403.2"/>
</g>
<!-- Node9 -->
<g id="node9" class="node">
<title>Node9</title>
<g id="a_node9"><a xlink:href="xspech_8f90.html#a95271e8805067f801b5d4e524d6901d4" target="_top" xlink:title="Main program of SPEC.">
<polygon fill="white" stroke="black" points="155.5,-370.94 155.5,-389.94 219.5,-389.94 219.5,-370.94 155.5,-370.94"/>
<text text-anchor="middle" x="187.5" y="-377.94" font-family="Helvetica,sans-Serif" font-size="10.00">spec_main</text>
</a>
</g>
</g>
<!-- Node5&#45;&gt;Node9 -->
<g id="edge11" class="edge">
<title>Node5&#45;&gt;Node9</title>
<path fill="none" stroke="midnightblue" d="M271.92,-407.89C254.89,-402.28 234.12,-395.45 217.57,-390"/>
<polygon fill="midnightblue" stroke="midnightblue" points="270.86,-411.22 281.46,-411.02 273.05,-404.57 270.86,-411.22"/>
</g>
<!-- Node6&#45;&gt;Node5 -->
<g id="edge6" class="edge">
<title>Node6&#45;&gt;Node5</title>
<path fill="none" stroke="midnightblue" d="M242.05,-425.17C255.94,-425.28 270.15,-424.86 281.46,-423.92"/>
<polygon fill="midnightblue" stroke="midnightblue" points="242.09,-421.68 232.04,-425.01 241.98,-428.67 242.09,-421.68"/>
</g>
<!-- Node7&#45;&gt;Node5 -->
<g id="edge10" class="edge">
<title>Node7&#45;&gt;Node5</title>
<path fill="none" stroke="midnightblue" d="M210.9,-355.62C221.7,-359.55 234.55,-364.09 245,-370.44 249.9,-373.42 271.97,-395.2 287.68,-408.71"/>
<polygon fill="midnightblue" stroke="midnightblue" points="211.91,-352.26 201.31,-352 209.43,-358.81 211.91,-352.26"/>
</g>
<!-- Node8 -->
<g id="node8" class="node">
<title>Node8</title>
<g id="a_node8"><a xlink:href="group__grp__output.html#ga0f962c09cd5d5eba99f1cba043cb3898" target="_top" xlink:title="Initialize the interface to the HDF5 library and open the output file.">
<polygon fill="white" stroke="black" points="0,-389.94 0,-408.94 94,-408.94 94,-389.94 0,-389.94"/>
<text text-anchor="middle" x="47" y="-396.94" font-family="Helvetica,sans-Serif" font-size="10.00">sphdf5::init_outfile</text>
</a>
</g>
</g>
<!-- Node7&#45;&gt;Node8 -->
<g id="edge8" class="edge">
<title>Node7&#45;&gt;Node8</title>
<path fill="none" stroke="midnightblue" d="M158.46,-351.2C149.31,-354.23 139.15,-357.79 130,-361.44 107.99,-370.21 83.42,-381.86 66.96,-389.93"/>
<polygon fill="midnightblue" stroke="midnightblue" points="159.82,-354.43 168.25,-348.02 157.66,-347.78 159.82,-354.43"/>
</g>
<!-- Node8&#45;&gt;Node5 -->
<g id="edge9" class="edge">
<title>Node8&#45;&gt;Node5</title>
<path fill="none" stroke="midnightblue" d="M72.37,-414.15C88.18,-422.82 109.57,-432.94 130,-437.44 179.91,-448.44 194.51,-445.37 245,-437.44 257.33,-435.5 270.6,-431.42 281.43,-427.54"/>
<polygon fill="midnightblue" stroke="midnightblue" points="73.73,-410.9 63.3,-409.01 70.27,-416.99 73.73,-410.9"/>
</g>
<!-- Node10&#45;&gt;Node11 -->
<g id="edge13" class="edge">
<title>Node10&#45;&gt;Node11</title>
<path fill="none" stroke="midnightblue" d="M399.51,-222.7C378.38,-221.27 349.31,-221.36 329.22,-222.98"/>
<polygon fill="midnightblue" stroke="midnightblue" points="399.48,-226.21 409.74,-223.6 400.09,-219.24 399.48,-226.21"/>
</g>
<!-- Node11&#45;&gt;Node7 -->
<g id="edge17" class="edge">
<title>Node11&#45;&gt;Node7</title>
<path fill="none" stroke="midnightblue" d="M286.95,-245.27C262.42,-269.48 217.99,-313.33 198.32,-332.75"/>
<polygon fill="midnightblue" stroke="midnightblue" points="289.49,-247.68 294.15,-238.16 284.58,-242.69 289.49,-247.68"/>
</g>
<!-- Node11&#45;&gt;Node10 -->
<g id="edge14" class="edge">
<title>Node11&#45;&gt;Node10</title>
<path fill="none" stroke="midnightblue" d="M339.21,-234.55C362.11,-235.71 391.58,-235.29 409.74,-233.29"/>
<polygon fill="midnightblue" stroke="midnightblue" points="339.42,-231.05 329.22,-233.9 338.97,-238.04 339.42,-231.05"/>
</g>
<!-- Node11&#45;&gt;Node12 -->
<g id="edge15" class="edge">
<title>Node11&#45;&gt;Node12</title>
<path fill="none" stroke="midnightblue" d="M270.62,-219.27C235.47,-214.12 178.6,-208.69 130,-200.44 107.09,-196.55 81.01,-190.16 64.53,-188.04"/>
<polygon fill="midnightblue" stroke="midnightblue" points="270.38,-222.78 280.8,-220.87 271.46,-215.86 270.38,-222.78"/>
</g>
<!-- Node13 -->
<g id="node13" class="node">
<title>Node13</title>
<g id="a_node13"><a xlink:href="group__grp__force__driver.html#ga382822b303cbf8c56d6f54dcb379caf2" target="_top" xlink:title="read or write force&#45;derivative matrix">
<polygon fill="white" stroke="black" points="155,-180.94 155,-199.94 220,-199.94 220,-180.94 155,-180.94"/>
<text text-anchor="middle" x="187.5" y="-187.94" font-family="Helvetica,sans-Serif" font-size="10.00">writereadgf</text>
</a>
</g>
</g>
<!-- Node11&#45;&gt;Node13 -->
<g id="edge18" class="edge">
<title>Node11&#45;&gt;Node13</title>
<path fill="none" stroke="midnightblue" d="M279.49,-214.74C262.2,-207.74 238.87,-199.91 220.17,-194.76"/>
<polygon fill="midnightblue" stroke="midnightblue" points="278.33,-218.05 288.9,-218.74 281.07,-211.61 278.33,-218.05"/>
</g>
<!-- Node12&#45;&gt;Node11 -->
<g id="edge16" class="edge">
<title>Node12&#45;&gt;Node11</title>
<path fill="none" stroke="midnightblue" d="M70.16,-203.8C86.58,-209.51 109.55,-214.97 130,-218.44 183.63,-227.55 247.33,-233.21 280.8,-232.71"/>
<polygon fill="midnightblue" stroke="midnightblue" points="71,-200.37 60.41,-200.03 68.47,-206.9 71,-200.37"/>
</g>
<!-- Node13&#45;&gt;Node11 -->
<g id="edge20" class="edge">
<title>Node13&#45;&gt;Node11</title>
<path fill="none" stroke="midnightblue" d="M212.87,-204.08C232.94,-212.22 261.19,-221.48 280.9,-226.37"/>
<polygon fill="midnightblue" stroke="midnightblue" points="214.05,-200.78 203.48,-200.09 211.31,-207.22 214.05,-200.78"/>
</g>
<!-- Node13&#45;&gt;Node12 -->
<g id="edge19" class="edge">
<title>Node13&#45;&gt;Node12</title>
<path fill="none" stroke="midnightblue" d="M144.4,-190.44C117.5,-190.44 84.11,-190.44 64.52,-190.44"/>
<polygon fill="midnightblue" stroke="midnightblue" points="144.73,-193.94 154.73,-190.44 144.73,-186.94 144.73,-193.94"/>
</g>
<!-- Node15 -->
<g id="node15" class="node">
<title>Node15</title>
<g id="a_node15"><a xlink:href="dfp200_8f90.html#a55ea75395f8c71731451e1add3720c7e" target="_top" xlink:title="Given the field consistent with the constraints and the geometry, computes local quantites related to...">
<polygon fill="white" stroke="black" points="282,-104.94 282,-123.94 328,-123.94 328,-104.94 282,-104.94"/>
<text text-anchor="middle" x="305" y="-111.94" font-family="Helvetica,sans-Serif" font-size="10.00">dfp200</text>
</a>
</g>
</g>
<!-- Node14&#45;&gt;Node15 -->
<g id="edge23" class="edge">
<title>Node14&#45;&gt;Node15</title>
<path fill="none" stroke="midnightblue" d="M354.69,-107.8C345.05,-107.99 335.82,-108.42 328.04,-109.08"/>
<polygon fill="midnightblue" stroke="midnightblue" points="354.88,-111.3 364.84,-107.69 354.8,-104.3 354.88,-111.3"/>
</g>
<!-- Node15&#45;&gt;Node3 -->
<g id="edge24" class="edge">
<title>Node15&#45;&gt;Node3</title>
<path fill="none" stroke="midnightblue" d="M335.64,-100.91C374.22,-85.49 442.35,-65.99 490,-95.44 528.21,-119.06 541.66,-176.9 545.6,-199.84"/>
<polygon fill="midnightblue" stroke="midnightblue" points="333.92,-97.83 326.03,-104.91 336.61,-104.29 333.92,-97.83"/>
</g>
<!-- Node15&#45;&gt;Node14 -->
<g id="edge29" class="edge">
<title>Node15&#45;&gt;Node14</title>
<path fill="none" stroke="midnightblue" d="M338.28,-120.5C346.52,-120.94 355.66,-121.17 364.84,-121.19"/>
<polygon fill="midnightblue" stroke="midnightblue" points="338.26,-116.99 328.04,-119.8 337.78,-123.97 338.26,-116.99"/>
</g>
<!-- Node16 -->
<g id="node16" class="node">
<title>Node16</title>
<g id="a_node16"><a xlink:href="dfp200_8f90.html#a7b64c7392b45d0042d8bd7379c0761a5" target="_top" xlink:title="Evaluate the derivative of the square of the magnetic field modulus. Add spectral constraint derivati...">
<polygon fill="white" stroke="black" points="150.5,-142.94 150.5,-161.94 224.5,-161.94 224.5,-142.94 150.5,-142.94"/>
<text text-anchor="middle" x="187.5" y="-149.94" font-family="Helvetica,sans-Serif" font-size="10.00">evaluate_dbb</text>
</a>
</g>
</g>
<!-- Node15&#45;&gt;Node16 -->
<g id="edge25" class="edge">
<title>Node15&#45;&gt;Node16</title>
<path fill="none" stroke="midnightblue" d="M271.95,-118.87C249.52,-125.07 220.6,-135.05 203.36,-142.85"/>
<polygon fill="midnightblue" stroke="midnightblue" points="272.94,-122.23 281.73,-116.31 271.17,-115.45 272.94,-122.23"/>
</g>
<!-- Node17 -->
<g id="node17" class="node">
<title>Node17</title>
<g id="a_node17"><a xlink:href="dfp200_8f90.html#a73ddf39ecc5228201fb643779e17cd36" target="_top" xlink:title="Evaluate mu and psip derivatives and store them in dmupfdx.">
<polygon fill="white" stroke="black" points="140,-104.94 140,-123.94 235,-123.94 235,-104.94 140,-104.94"/>
<text text-anchor="middle" x="187.5" y="-111.94" font-family="Helvetica,sans-Serif" font-size="10.00">evaluate_dmupfdx</text>
</a>
</g>
</g>
<!-- Node15&#45;&gt;Node17 -->
<g id="edge27" class="edge">
<title>Node15&#45;&gt;Node17</title>
<path fill="none" stroke="midnightblue" d="M271.47,-108.3C260.18,-107.72 247.28,-107.55 235.08,-107.8"/>
<polygon fill="midnightblue" stroke="midnightblue" points="271.52,-111.81 281.73,-108.98 271.99,-104.83 271.52,-111.81"/>
</g>
<!-- Node18 -->
<g id="node18" class="node">
<title>Node18</title>
<g id="a_node18"><a xlink:href="dfp200_8f90.html#a5e56f1f4b1e6df11a9cffa6237c37469" target="_top" xlink:title="This routine evaluates the value of the magnetic field once the interface is perturbed using matrix p...">
<polygon fill="white" stroke="black" points="130,-66.94 130,-85.94 245,-85.94 245,-66.94 130,-66.94"/>
<text text-anchor="middle" x="187.5" y="-73.94" font-family="Helvetica,sans-Serif" font-size="10.00">get_perturbed_solution</text>
</a>
</g>
</g>
<!-- Node15&#45;&gt;Node18 -->
<g id="edge30" class="edge">
<title>Node15&#45;&gt;Node18</title>
<path fill="none" stroke="midnightblue" d="M279.49,-100.74C267.37,-95.83 252.29,-90.52 237.9,-86.01"/>
<polygon fill="midnightblue" stroke="midnightblue" points="278.33,-104.05 288.9,-104.74 281.07,-97.61 278.33,-104.05"/>
</g>
<!-- Node16&#45;&gt;Node15 -->
<g id="edge26" class="edge">
<title>Node16&#45;&gt;Node15</title>
<path fill="none" stroke="midnightblue" d="M234.59,-143.9C253.93,-137.96 275.09,-130.36 288.9,-124.14"/>
<polygon fill="midnightblue" stroke="midnightblue" points="233.57,-140.55 224.99,-146.76 235.57,-147.26 233.57,-140.55"/>
</g>
<!-- Node17&#45;&gt;Node15 -->
<g id="edge28" class="edge">
<title>Node17&#45;&gt;Node15</title>
<path fill="none" stroke="midnightblue" d="M245.38,-121.19C258.3,-121.21 271.28,-120.78 281.73,-119.9"/>
<polygon fill="midnightblue" stroke="midnightblue" points="245.12,-117.69 235.08,-121.08 245.04,-124.69 245.12,-117.69"/>
</g>
<!-- Node18&#45;&gt;Node15 -->
<g id="edge31" class="edge">
<title>Node18&#45;&gt;Node15</title>
<path fill="none" stroke="midnightblue" d="M212.59,-89.97C232.96,-98.25 261.9,-107.72 281.73,-112.57"/>
<polygon fill="midnightblue" stroke="midnightblue" points="213.93,-86.74 203.36,-86.03 211.19,-93.18 213.93,-86.74"/>
</g>
<!-- Node19&#45;&gt;Node7 -->
<g id="edge33" class="edge">
<title>Node19&#45;&gt;Node7</title>
<path fill="none" stroke="midnightblue" d="M394.92,-342.44C344.33,-342.44 246.75,-342.44 206.52,-342.44"/>
<polygon fill="midnightblue" stroke="midnightblue" points="394.96,-345.94 404.96,-342.44 394.96,-338.94 394.96,-345.94"/>
</g>
<!-- Node21 -->
<g id="node21" class="node">
<title>Node21</title>
<g id="a_node21"><a xlink:href="group__grp__conjugate__gradient.html#ga25a3bae2ff2ee0469b045de0d033398b" target="_top" xlink:title="Use preconditioned conjugate gradient method to find minimum of energy functional.">
<polygon fill="white" stroke="black" points="281,-142.94 281,-161.94 329,-161.94 329,-142.94 281,-142.94"/>
<text text-anchor="middle" x="305" y="-149.94" font-family="Helvetica,sans-Serif" font-size="10.00">pc00aa</text>
</a>
</g>
</g>
<!-- Node20&#45;&gt;Node21 -->
<g id="edge36" class="edge">
<title>Node20&#45;&gt;Node21</title>
<path fill="none" stroke="midnightblue" d="M393.16,-152.44C372.81,-152.44 347.31,-152.44 329.16,-152.44"/>
<polygon fill="midnightblue" stroke="midnightblue" points="393.27,-155.94 403.27,-152.44 393.27,-148.94 393.27,-155.94"/>
</g>
<!-- Node22&#45;&gt;Node5 -->
<g id="edge44" class="edge">
<title>Node22&#45;&gt;Node5</title>
<path fill="none" stroke="midnightblue" d="M515.53,-418.44C466.24,-418.44 372,-418.44 328.74,-418.44"/>
<polygon fill="midnightblue" stroke="midnightblue" points="515.61,-421.94 525.61,-418.44 515.61,-414.94 515.61,-421.94"/>
</g>
<!-- Node22&#45;&gt;Node19 -->
<g id="edge43" class="edge">
<title>Node22&#45;&gt;Node19</title>
<path fill="none" stroke="midnightblue" d="M523.52,-403.38C499.7,-388.1 463.53,-364.91 443.39,-351.99"/>
<polygon fill="midnightblue" stroke="midnightblue" points="521.68,-406.36 531.99,-408.82 525.46,-400.47 521.68,-406.36"/>
</g>
</g>
</svg>
