<?xml version="1.0" encoding="UTF-8" standalone="no"?>
<!DOCTYPE svg PUBLIC "-//W3C//DTD SVG 1.1//EN"
 "http://www.w3.org/Graphics/SVG/1.1/DTD/svg11.dtd">
<!-- Generated by graphviz version 2.47.0 (20210316.2052)
 -->
<!-- Title: packab Pages: 1 -->
<svg width="1130pt" height="568pt"
 viewBox="0.00 0.00 1130.00 568.00" xmlns="http://www.w3.org/2000/svg" xmlns:xlink="http://www.w3.org/1999/xlink">
<g id="graph0" class="graph" transform="scale(1 1) rotate(0) translate(4 564)">
<title>packab</title>
<polygon fill="white" stroke="transparent" points="-4,4 -4,-564 1126,-564 1126,4 -4,4"/>
<!-- Node1 -->
<g id="node1" class="node">
<title>Node1</title>
<g id="a_node1"><a xlink:title="Packs and unpacks Beltrami field solution vector.">
<polygon fill="#bfbfbf" stroke="black" points="1074,-85.5 1074,-104.5 1122,-104.5 1122,-85.5 1074,-85.5"/>
<text text-anchor="middle" x="1098" y="-92.5" font-family="Helvetica,sans-Serif" font-size="10.00">packab</text>
</a>
</g>
</g>
<!-- Node2 -->
<g id="node2" class="node">
<title>Node2</title>
<g id="a_node2"><a xlink:href="group__grp__global__force.html#ga38c9d3c50bd043707fefa5137c9dbf44" target="_top" xlink:title="Calculates , where &#160;and , and .">
<polygon fill="white" stroke="black" points="560,-294.5 560,-313.5 604,-313.5 604,-294.5 560,-294.5"/>
<text text-anchor="middle" x="582" y="-301.5" font-family="Helvetica,sans-Serif" font-size="10.00">dforce</text>
</a>
</g>
</g>
<!-- Node1&#45;&gt;Node2 -->
<g id="edge1" class="edge">
<title>Node1&#45;&gt;Node2</title>
<path fill="none" stroke="midnightblue" d="M1087.55,-113.35C1065.27,-153.79 1005.26,-247 925.5,-247 925.5,-247 925.5,-247 746.5,-247 689.68,-247 627.64,-278.07 599.06,-294.33"/>
<polygon fill="midnightblue" stroke="midnightblue" points="1090.65,-114.98 1092.28,-104.51 1084.48,-111.67 1090.65,-114.98"/>
</g>
<!-- Node10 -->
<g id="node10" class="node">
<title>Node10</title>
<g id="a_node10"><a xlink:href="dfp200_8f90.html#a55ea75395f8c71731451e1add3720c7e" target="_top" xlink:title="Given the field consistent with the constraints and the geometry, computes local quantites related to...">
<polygon fill="white" stroke="black" points="316,-142.5 316,-161.5 362,-161.5 362,-142.5 316,-142.5"/>
<text text-anchor="middle" x="339" y="-149.5" font-family="Helvetica,sans-Serif" font-size="10.00">dfp200</text>
</a>
</g>
</g>
<!-- Node1&#45;&gt;Node10 -->
<g id="edge35" class="edge">
<title>Node1&#45;&gt;Node10</title>
<path fill="none" stroke="midnightblue" d="M1077.11,-110.71C1066.16,-118.59 1051.98,-127.58 1038,-133 990.72,-151.33 976.21,-152 925.5,-152 925.5,-152 925.5,-152 581,-152 500.46,-152 404.77,-152 362.26,-152"/>
<polygon fill="midnightblue" stroke="midnightblue" points="1079.22,-113.51 1085.14,-104.72 1075.03,-107.9 1079.22,-113.51"/>
</g>
<!-- Node13 -->
<g id="node13" class="node">
<title>Node13</title>
<g id="a_node13"><a xlink:href="dfp200_8f90.html#a5e56f1f4b1e6df11a9cffa6237c37469" target="_top" xlink:title="This routine evaluates the value of the magnetic field once the interface is perturbed using matrix p...">
<polygon fill="white" stroke="black" points="164,-85.5 164,-104.5 279,-104.5 279,-85.5 164,-85.5"/>
<text text-anchor="middle" x="221.5" y="-92.5" font-family="Helvetica,sans-Serif" font-size="10.00">get_perturbed_solution</text>
</a>
</g>
</g>
<!-- Node1&#45;&gt;Node13 -->
<g id="edge36" class="edge">
<title>Node1&#45;&gt;Node13</title>
<path fill="none" stroke="midnightblue" d="M1080.39,-78.18C1051.58,-50.9 989.28,0 925.5,0 925.5,0 925.5,0 460.5,0 369.07,0 271.07,-61.22 235.96,-85.37"/>
<polygon fill="midnightblue" stroke="midnightblue" points="1077.99,-80.73 1087.6,-85.19 1082.87,-75.71 1077.99,-80.73"/>
</g>
<!-- Node19 -->
<g id="node19" class="node">
<title>Node19</title>
<g id="a_node19"><a xlink:href="group__grp__solver__driver.html#gacad623d4c5c006e9ad10116372f92ad3" target="_top" xlink:title="Constructs Beltrami field in given volume consistent with flux, helicity, rotational&#45;transform and/or...">
<polygon fill="white" stroke="black" points="722,-85.5 722,-104.5 773,-104.5 773,-85.5 722,-85.5"/>
<text text-anchor="middle" x="747.5" y="-92.5" font-family="Helvetica,sans-Serif" font-size="10.00">ma02aa</text>
</a>
</g>
</g>
<!-- Node1&#45;&gt;Node19 -->
<g id="edge37" class="edge">
<title>Node1&#45;&gt;Node19</title>
<path fill="none" stroke="midnightblue" d="M1063.7,-88.13C1009.86,-78.07 900.48,-61.97 809,-76 796.92,-77.85 783.94,-81.67 773.12,-85.4"/>
<polygon fill="midnightblue" stroke="midnightblue" points="1063.23,-91.61 1073.71,-90.05 1064.55,-84.73 1063.23,-91.61"/>
</g>
<!-- Node21 -->
<g id="node21" class="node">
<title>Node21</title>
<g id="a_node21"><a xlink:href="mp00ac_8f90.html#ae9fe335bb4916face9f9d19ce8c0f5d7" target="_top" xlink:title="compute a.x by either by coumputing it directly, or using a matrix free method">
<polygon fill="white" stroke="black" points="989,-104.5 989,-123.5 1038,-123.5 1038,-104.5 989,-104.5"/>
<text text-anchor="middle" x="1013.5" y="-111.5" font-family="Helvetica,sans-Serif" font-size="10.00">matvec</text>
</a>
</g>
</g>
<!-- Node1&#45;&gt;Node21 -->
<g id="edge41" class="edge">
<title>Node1&#45;&gt;Node21</title>
<path fill="none" stroke="midnightblue" d="M1063.57,-102.7C1055.09,-104.65 1046.15,-106.71 1038.27,-108.53"/>
<polygon fill="midnightblue" stroke="midnightblue" points="1064.62,-106.05 1073.58,-100.39 1063.05,-99.23 1064.62,-106.05"/>
</g>
<!-- Node23 -->
<g id="node23" class="node">
<title>Node23</title>
<g id="a_node23"><a xlink:href="group__grp__solver.html#ga6626839aff500f060beb5bce2b90c447" target="_top" xlink:title="Solves Beltrami/vacuum (linear) system, given matrices.unpacking fluxes, helicity multiplier">
<polygon fill="white" stroke="black" points="809,-85.5 809,-104.5 860,-104.5 860,-85.5 809,-85.5"/>
<text text-anchor="middle" x="834.5" y="-92.5" font-family="Helvetica,sans-Serif" font-size="10.00">mp00ac</text>
</a>
</g>
</g>
<!-- Node1&#45;&gt;Node23 -->
<g id="edge45" class="edge">
<title>Node1&#45;&gt;Node23</title>
<path fill="none" stroke="midnightblue" d="M1063.52,-95C1010.22,-95 907.31,-95 860.17,-95"/>
<polygon fill="midnightblue" stroke="midnightblue" points="1063.79,-98.5 1073.79,-95 1063.79,-91.5 1063.79,-98.5"/>
</g>
<!-- Node3 -->
<g id="node3" class="node">
<title>Node3</title>
<g id="a_node3"><a xlink:href="group__grp__force__driver.html#gabbc245b3884ee8d8d3e2a52f25149f78" target="_top" xlink:title="fcn1">
<polygon fill="white" stroke="black" points="444,-379.5 444,-398.5 479,-398.5 479,-379.5 444,-379.5"/>
<text text-anchor="middle" x="461.5" y="-386.5" font-family="Helvetica,sans-Serif" font-size="10.00">fcn1</text>
</a>
</g>
</g>
<!-- Node2&#45;&gt;Node3 -->
<g id="edge2" class="edge">
<title>Node2&#45;&gt;Node3</title>
<path fill="none" stroke="midnightblue" d="M564.77,-320.82C553.85,-331.62 538.78,-345.54 524,-356 509.66,-366.15 491.83,-375.39 479.07,-381.49"/>
<polygon fill="midnightblue" stroke="midnightblue" points="567.38,-323.16 571.94,-313.6 562.41,-318.24 567.38,-323.16"/>
</g>
<!-- Node4 -->
<g id="node4" class="node">
<title>Node4</title>
<g id="a_node4"><a xlink:href="group__grp__force__driver.html#gaec14f81fbdbedafbc4189489ec8ae178" target="_top" xlink:title="Employs Newton method to find , where &#160;and &#160;is defined in dforce() .">
<polygon fill="white" stroke="black" points="315,-417.5 315,-436.5 363,-436.5 363,-417.5 315,-417.5"/>
<text text-anchor="middle" x="339" y="-424.5" font-family="Helvetica,sans-Serif" font-size="10.00">newton</text>
</a>
</g>
</g>
<!-- Node2&#45;&gt;Node4 -->
<g id="edge26" class="edge">
<title>Node2&#45;&gt;Node4</title>
<path fill="none" stroke="midnightblue" d="M576.22,-323.68C569.19,-347.93 553.6,-388.35 524,-408 474.51,-440.86 400.46,-436.15 363.19,-431.01"/>
<polygon fill="midnightblue" stroke="midnightblue" points="579.65,-324.37 578.86,-313.8 572.89,-322.56 579.65,-324.37"/>
</g>
<!-- Node5 -->
<g id="node5" class="node">
<title>Node5</title>
<g id="a_node5"><a xlink:href="group__grp__force__driver.html#ga8ccd6c7d901872702521d0a0edf95412" target="_top" xlink:title="fcn2">
<polygon fill="white" stroke="black" points="87,-440.5 87,-459.5 122,-459.5 122,-440.5 87,-440.5"/>
<text text-anchor="middle" x="104.5" y="-447.5" font-family="Helvetica,sans-Serif" font-size="10.00">fcn2</text>
</a>
</g>
</g>
<!-- Node2&#45;&gt;Node5 -->
<g id="edge13" class="edge">
<title>Node2&#45;&gt;Node5</title>
<path fill="none" stroke="midnightblue" d="M578.06,-323.74C572.67,-352.65 558.43,-406.21 524,-435 399.67,-538.96 317.99,-543.51 164,-493 144.12,-486.48 125.42,-470.33 114.74,-459.79"/>
<polygon fill="midnightblue" stroke="midnightblue" points="581.55,-324.09 579.76,-313.64 574.64,-322.92 581.55,-324.09"/>
</g>
<!-- Node7 -->
<g id="node7" class="node">
<title>Node7</title>
<g id="a_node7"><a xlink:href="xspech_8f90.html#aea782eae089760a491c2c54f9903abcc" target="_top" xlink:title="Main program of SPEC.">
<polygon fill="white" stroke="black" points="81,-294.5 81,-313.5 128,-313.5 128,-294.5 81,-294.5"/>
<text text-anchor="middle" x="104.5" y="-301.5" font-family="Helvetica,sans-Serif" font-size="10.00">xspech</text>
</a>
</g>
</g>
<!-- Node2&#45;&gt;Node7 -->
<g id="edge34" class="edge">
<title>Node2&#45;&gt;Node7</title>
<path fill="none" stroke="midnightblue" d="M550.06,-312.91C541.67,-314.97 532.55,-316.88 524,-318 365.35,-338.84 322.05,-348.02 164,-323 151.87,-321.08 138.83,-317.05 128.15,-313.19"/>
<polygon fill="midnightblue" stroke="midnightblue" points="551.03,-316.28 559.83,-310.38 549.27,-309.5 551.03,-316.28"/>
</g>
<!-- Node9 -->
<g id="node9" class="node">
<title>Node9</title>
<g id="a_node9"><a xlink:href="dfp200_8f90.html#a6aca59cf350d7b1941f8389d50945a43" target="_top" xlink:title="get LU Beltrami matrices">
<polygon fill="white" stroke="black" points="399,-180.5 399,-199.5 524,-199.5 524,-180.5 399,-180.5"/>
<text text-anchor="middle" x="461.5" y="-187.5" font-family="Helvetica,sans-Serif" font-size="10.00">get_lu_beltrami_matrices</text>
</a>
</g>
</g>
<!-- Node2&#45;&gt;Node9 -->
<g id="edge14" class="edge">
<title>Node2&#45;&gt;Node9</title>
<path fill="none" stroke="midnightblue" d="M573.33,-285.09C564.29,-264.93 547.46,-233.33 524,-214 516.48,-207.81 507.18,-203.08 498.1,-199.53"/>
<polygon fill="midnightblue" stroke="midnightblue" points="570.19,-286.64 577.35,-294.45 576.63,-283.88 570.19,-286.64"/>
</g>
<!-- Node14 -->
<g id="node14" class="node">
<title>Node14</title>
<g id="a_node14"><a xlink:href="group__grp__diagnostics.html#ga7401b50ec10c6598ee4a8112717a63ec" target="_top" xlink:title="Computes eigenvalues and eigenvectors of derivative matrix, .">
<polygon fill="white" stroke="black" points="199,-294.5 199,-313.5 244,-313.5 244,-294.5 199,-294.5"/>
<text text-anchor="middle" x="221.5" y="-301.5" font-family="Helvetica,sans-Serif" font-size="10.00">hesian</text>
</a>
</g>
</g>
<!-- Node2&#45;&gt;Node14 -->
<g id="edge24" class="edge">
<title>Node2&#45;&gt;Node14</title>
<path fill="none" stroke="midnightblue" d="M549.77,-304C478.5,-304 305.29,-304 244.24,-304"/>
<polygon fill="midnightblue" stroke="midnightblue" points="549.91,-307.5 559.91,-304 549.91,-300.5 549.91,-307.5"/>
</g>
<!-- Node15 -->
<g id="node15" class="node">
<title>Node15</title>
<g id="a_node15"><a xlink:href="group__grp__conjugate__gradient.html#ga4d8415226e62a9fdb42b0fd0b464251e" target="_top" xlink:title="Returns the energy functional and it&#39;s derivatives with respect to geometry.">
<polygon fill="white" stroke="black" points="437.5,-540.5 437.5,-559.5 485.5,-559.5 485.5,-540.5 437.5,-540.5"/>
<text text-anchor="middle" x="461.5" y="-547.5" font-family="Helvetica,sans-Serif" font-size="10.00">pc00ab</text>
</a>
</g>
</g>
<!-- Node2&#45;&gt;Node15 -->
<g id="edge27" class="edge">
<title>Node2&#45;&gt;Node15</title>
<path fill="none" stroke="midnightblue" d="M581.59,-324.03C581.77,-366.62 576.21,-467.07 524,-526 514.2,-537.07 498.66,-543.07 485.65,-546.31"/>
<polygon fill="midnightblue" stroke="midnightblue" points="585.09,-323.8 581.43,-313.85 578.09,-323.91 585.09,-323.8"/>
</g>
<!-- Node17 -->
<g id="node17" class="node">
<title>Node17</title>
<g id="a_node17"><a xlink:href="namespaceallglobal.html#ad32ae6194892fe7d876622a6455189e2" target="_top" xlink:title="The master node reads the input namelist and sets various internal variables. The relevant quantities...">
<polygon fill="white" stroke="black" points="420,-256.5 420,-275.5 503,-275.5 503,-256.5 420,-256.5"/>
<text text-anchor="middle" x="461.5" y="-263.5" font-family="Helvetica,sans-Serif" font-size="10.00">allglobal::readin</text>
</a>
</g>
</g>
<!-- Node2&#45;&gt;Node17 -->
<g id="edge29" class="edge">
<title>Node2&#45;&gt;Node17</title>
<path fill="none" stroke="midnightblue" d="M549.93,-294.04C532.16,-288.34 509.98,-281.22 492.4,-275.59"/>
<polygon fill="midnightblue" stroke="midnightblue" points="549.22,-297.49 559.81,-297.21 551.36,-290.82 549.22,-297.49"/>
</g>
<!-- Node3&#45;&gt;Node4 -->
<g id="edge3" class="edge">
<title>Node3&#45;&gt;Node4</title>
<path fill="none" stroke="midnightblue" d="M433.84,-391.69C409.79,-397.62 375.24,-408.85 355.47,-417.42"/>
<polygon fill="midnightblue" stroke="midnightblue" points="434.77,-395.07 443.74,-389.44 433.22,-388.25 434.77,-395.07"/>
</g>
<!-- Node4&#45;&gt;Node3 -->
<g id="edge4" class="edge">
<title>Node4&#45;&gt;Node3</title>
<path fill="none" stroke="midnightblue" d="M373.04,-422.68C396.39,-416.52 426.63,-406.52 444.75,-398.7"/>
<polygon fill="midnightblue" stroke="midnightblue" points="372.05,-419.32 363.19,-425.14 373.74,-426.11 372.05,-419.32"/>
</g>
<!-- Node4&#45;&gt;Node5 -->
<g id="edge5" class="edge">
<title>Node4&#45;&gt;Node5</title>
<path fill="none" stroke="midnightblue" d="M304.79,-425.39C254.32,-427.56 160.17,-437.27 122.1,-444.67"/>
<polygon fill="midnightblue" stroke="midnightblue" points="304.98,-428.89 314.86,-425.05 304.74,-421.89 304.98,-428.89"/>
</g>
<!-- Node6 -->
<g id="node6" class="node">
<title>Node6</title>
<g id="a_node6"><a xlink:href="group__grp__force__driver.html#ga382822b303cbf8c56d6f54dcb379caf2" target="_top" xlink:title="read or write force&#45;derivative matrix">
<polygon fill="white" stroke="black" points="189,-464.5 189,-483.5 254,-483.5 254,-464.5 189,-464.5"/>
<text text-anchor="middle" x="221.5" y="-471.5" font-family="Helvetica,sans-Serif" font-size="10.00">writereadgf</text>
</a>
</g>
</g>
<!-- Node4&#45;&gt;Node6 -->
<g id="edge7" class="edge">
<title>Node4&#45;&gt;Node6</title>
<path fill="none" stroke="midnightblue" d="M305.39,-434.13C282.07,-442.42 251.95,-455.25 235.19,-464.42"/>
<polygon fill="midnightblue" stroke="midnightblue" points="306.57,-437.42 314.9,-430.87 304.31,-430.79 306.57,-437.42"/>
</g>
<!-- Node4&#45;&gt;Node7 -->
<g id="edge10" class="edge">
<title>Node4&#45;&gt;Node7</title>
<path fill="none" stroke="midnightblue" d="M305.29,-417.35C269.09,-405.84 209.82,-384.54 164,-356 144.39,-343.79 125.03,-324.86 114.23,-313.53"/>
<polygon fill="midnightblue" stroke="midnightblue" points="304.27,-420.69 314.85,-420.33 306.35,-414.01 304.27,-420.69"/>
</g>
<!-- Node5&#45;&gt;Node4 -->
<g id="edge6" class="edge">
<title>Node5&#45;&gt;Node4</title>
<path fill="none" stroke="midnightblue" d="M132.2,-451.85C178.16,-450.4 271.47,-441.08 314.86,-433.53"/>
<polygon fill="midnightblue" stroke="midnightblue" points="132.03,-448.36 122.1,-452.05 132.17,-455.36 132.03,-448.36"/>
</g>
<!-- Node6&#45;&gt;Node4 -->
<g id="edge9" class="edge">
<title>Node6&#45;&gt;Node4</title>
<path fill="none" stroke="midnightblue" d="M263.74,-463.72C285.39,-455.58 310.43,-444.71 325.2,-436.64"/>
<polygon fill="midnightblue" stroke="midnightblue" points="262.27,-460.53 254.07,-467.24 264.67,-467.1 262.27,-460.53"/>
</g>
<!-- Node6&#45;&gt;Node5 -->
<g id="edge8" class="edge">
<title>Node6&#45;&gt;Node5</title>
<path fill="none" stroke="midnightblue" d="M178.83,-465.3C159.26,-461.22 137.03,-456.58 122.22,-453.49"/>
<polygon fill="midnightblue" stroke="midnightblue" points="178.27,-468.76 188.77,-467.38 179.7,-461.91 178.27,-468.76"/>
</g>
<!-- Node8 -->
<g id="node8" class="node">
<title>Node8</title>
<g id="a_node8"><a xlink:href="xspech_8f90.html#a537af4990058c0b0f2cd8b3669af204f" target="_top" xlink:title="todo remark">
<polygon fill="white" stroke="black" points="0,-294.5 0,-313.5 45,-313.5 45,-294.5 0,-294.5"/>
<text text-anchor="middle" x="22.5" y="-301.5" font-family="Helvetica,sans-Serif" font-size="10.00">ending</text>
</a>
</g>
</g>
<!-- Node7&#45;&gt;Node8 -->
<g id="edge11" class="edge">
<title>Node7&#45;&gt;Node8</title>
<path fill="none" stroke="midnightblue" d="M70.65,-297.35C62.06,-297.11 53.01,-297.3 45.17,-297.92"/>
<polygon fill="midnightblue" stroke="midnightblue" points="70.63,-300.85 80.79,-297.84 70.97,-293.86 70.63,-300.85"/>
</g>
<!-- Node8&#45;&gt;Node7 -->
<g id="edge12" class="edge">
<title>Node8&#45;&gt;Node7</title>
<path fill="none" stroke="midnightblue" d="M55.22,-310.62C63.77,-310.89 72.84,-310.74 80.79,-310.16"/>
<polygon fill="midnightblue" stroke="midnightblue" points="55.34,-307.12 45.17,-310.08 54.96,-314.11 55.34,-307.12"/>
</g>
<!-- Node9&#45;&gt;Node10 -->
<g id="edge15" class="edge">
<title>Node9&#45;&gt;Node10</title>
<path fill="none" stroke="midnightblue" d="M435.27,-176.43C413.71,-168.04 382.99,-158.43 362.32,-153.66"/>
<polygon fill="midnightblue" stroke="midnightblue" points="434.17,-179.76 444.75,-180.3 436.81,-173.28 434.17,-179.76"/>
</g>
<!-- Node10&#45;&gt;Node2 -->
<g id="edge16" class="edge">
<title>Node10&#45;&gt;Node2</title>
<path fill="none" stroke="midnightblue" d="M354.45,-169.91C365.46,-182.48 381.64,-198.79 399,-209 449.05,-238.44 474.2,-217.13 524,-247 545.12,-259.67 564.14,-281.86 573.97,-294.49"/>
<polygon fill="midnightblue" stroke="midnightblue" points="356.84,-167.31 347.71,-161.93 351.49,-171.83 356.84,-167.31"/>
</g>
<!-- Node10&#45;&gt;Node9 -->
<g id="edge21" class="edge">
<title>Node10&#45;&gt;Node9</title>
<path fill="none" stroke="midnightblue" d="M364.78,-165.39C377.58,-170.39 393.7,-175.85 409.05,-180.46"/>
<polygon fill="midnightblue" stroke="midnightblue" points="365.88,-162.06 355.3,-161.5 363.22,-168.54 365.88,-162.06"/>
</g>
<!-- Node11 -->
<g id="node11" class="node">
<title>Node11</title>
<g id="a_node11"><a xlink:href="dfp200_8f90.html#a7b64c7392b45d0042d8bd7379c0761a5" target="_top" xlink:title="Evaluate the derivative of the square of the magnetic field modulus. Add spectral constraint derivati...">
<polygon fill="white" stroke="black" points="184.5,-161.5 184.5,-180.5 258.5,-180.5 258.5,-161.5 184.5,-161.5"/>
<text text-anchor="middle" x="221.5" y="-168.5" font-family="Helvetica,sans-Serif" font-size="10.00">evaluate_dbb</text>
</a>
</g>
</g>
<!-- Node10&#45;&gt;Node11 -->
<g id="edge17" class="edge">
<title>Node10&#45;&gt;Node11</title>
<path fill="none" stroke="midnightblue" d="M305.59,-151.2C286.9,-153.3 263.79,-157.28 246.69,-161.41"/>
<polygon fill="midnightblue" stroke="midnightblue" points="306.12,-154.66 315.73,-150.21 305.44,-147.69 306.12,-154.66"/>
</g>
<!-- Node12 -->
<g id="node12" class="node">
<title>Node12</title>
<g id="a_node12"><a xlink:href="dfp200_8f90.html#a73ddf39ecc5228201fb643779e17cd36" target="_top" xlink:title="Evaluate mu and psip derivatives and store them in dmupfdx.">
<polygon fill="white" stroke="black" points="174,-123.5 174,-142.5 269,-142.5 269,-123.5 174,-123.5"/>
<text text-anchor="middle" x="221.5" y="-130.5" font-family="Helvetica,sans-Serif" font-size="10.00">evaluate_dmupfdx</text>
</a>
</g>
</g>
<!-- Node10&#45;&gt;Node12 -->
<g id="edge19" class="edge">
<title>Node10&#45;&gt;Node12</title>
<path fill="none" stroke="midnightblue" d="M305.82,-140.58C294.44,-138.12 281.41,-135.8 269.08,-134.03"/>
<polygon fill="midnightblue" stroke="midnightblue" points="305.2,-144.03 315.73,-142.88 306.78,-137.21 305.2,-144.03"/>
</g>
<!-- Node10&#45;&gt;Node13 -->
<g id="edge22" class="edge">
<title>Node10&#45;&gt;Node13</title>
<path fill="none" stroke="midnightblue" d="M325.17,-135.32C313.57,-125.06 295.79,-113.07 279,-105 278.72,-104.87 278.44,-104.73 278.16,-104.6"/>
<polygon fill="midnightblue" stroke="midnightblue" points="322.82,-137.92 332.42,-142.41 327.71,-132.91 322.82,-137.92"/>
</g>
<!-- Node11&#45;&gt;Node10 -->
<g id="edge18" class="edge">
<title>Node11&#45;&gt;Node10</title>
<path fill="none" stroke="midnightblue" d="M269.13,-169.97C285.22,-167.65 302.5,-164.41 315.73,-161.12"/>
<polygon fill="midnightblue" stroke="midnightblue" points="268.24,-166.55 258.79,-171.35 269.16,-173.49 268.24,-166.55"/>
</g>
<!-- Node12&#45;&gt;Node10 -->
<g id="edge20" class="edge">
<title>Node12&#45;&gt;Node10</title>
<path fill="none" stroke="midnightblue" d="M256.53,-144.81C275.64,-148.87 298.95,-152.45 315.73,-153.79"/>
<polygon fill="midnightblue" stroke="midnightblue" points="257.22,-141.38 246.69,-142.59 255.68,-148.21 257.22,-141.38"/>
</g>
<!-- Node13&#45;&gt;Node10 -->
<g id="edge23" class="edge">
<title>Node13&#45;&gt;Node10</title>
<path fill="none" stroke="midnightblue" d="M243.18,-108.62C254.09,-112.9 267.55,-117.49 279,-123 291.74,-129.13 305.04,-137.5 315.79,-143.99"/>
<polygon fill="midnightblue" stroke="midnightblue" points="244.22,-105.26 233.65,-104.58 241.49,-111.7 244.22,-105.26"/>
</g>
<!-- Node14&#45;&gt;Node7 -->
<g id="edge25" class="edge">
<title>Node14&#45;&gt;Node7</title>
<path fill="none" stroke="midnightblue" d="M188.77,-304C169.56,-304 145.52,-304 128.21,-304"/>
<polygon fill="midnightblue" stroke="midnightblue" points="188.87,-307.5 198.87,-304 188.87,-300.5 188.87,-307.5"/>
</g>
<!-- Node16 -->
<g id="node16" class="node">
<title>Node16</title>
<g id="a_node16"><a xlink:href="group__grp__conjugate__gradient.html#ga25a3bae2ff2ee0469b045de0d033398b" target="_top" xlink:title="Use preconditioned conjugate gradient method to find minimum of energy functional.">
<polygon fill="white" stroke="black" points="315,-540.5 315,-559.5 363,-559.5 363,-540.5 315,-540.5"/>
<text text-anchor="middle" x="339" y="-547.5" font-family="Helvetica,sans-Serif" font-size="10.00">pc00aa</text>
</a>
</g>
</g>
<!-- Node15&#45;&gt;Node16 -->
<g id="edge28" class="edge">
<title>Node15&#45;&gt;Node16</title>
<path fill="none" stroke="midnightblue" d="M427.16,-550C406.81,-550 381.31,-550 363.16,-550"/>
<polygon fill="midnightblue" stroke="midnightblue" points="427.27,-553.5 437.27,-550 427.27,-546.5 427.27,-553.5"/>
</g>
<!-- Node17&#45;&gt;Node7 -->
<g id="edge33" class="edge">
<title>Node17&#45;&gt;Node7</title>
<path fill="none" stroke="midnightblue" d="M411.11,-254.46C395.78,-251.4 378.77,-248.52 363,-247 274.56,-238.46 247.44,-235.48 164,-266 146.03,-272.57 127.96,-285.51 116.75,-294.45"/>
<polygon fill="midnightblue" stroke="midnightblue" points="410.4,-257.89 420.91,-256.49 411.82,-251.04 410.4,-257.89"/>
</g>
<!-- Node18 -->
<g id="node18" class="node">
<title>Node18</title>
<g id="a_node18"><a xlink:href="group__grp__initialization.html#ga28628de0fdb3b3497668007d8d0643bd" target="_top" xlink:title="Allocates and initializes internal arrays.">
<polygon fill="white" stroke="black" points="317,-256.5 317,-275.5 361,-275.5 361,-256.5 317,-256.5"/>
<text text-anchor="middle" x="339" y="-263.5" font-family="Helvetica,sans-Serif" font-size="10.00">preset</text>
</a>
</g>
</g>
<!-- Node17&#45;&gt;Node18 -->
<g id="edge30" class="edge">
<title>Node17&#45;&gt;Node18</title>
<path fill="none" stroke="midnightblue" d="M409.34,-266C392.41,-266 374.5,-266 361.13,-266"/>
<polygon fill="midnightblue" stroke="midnightblue" points="409.7,-269.5 419.7,-266 409.7,-262.5 409.7,-269.5"/>
</g>
<!-- Node18&#45;&gt;Node7 -->
<g id="edge32" class="edge">
<title>Node18&#45;&gt;Node7</title>
<path fill="none" stroke="midnightblue" d="M306.79,-267.48C271.73,-269.58 213.27,-274.43 164,-285 151.99,-287.58 138.97,-291.67 128.26,-295.4"/>
<polygon fill="midnightblue" stroke="midnightblue" points="307.1,-270.96 316.89,-266.91 306.71,-263.97 307.1,-270.96"/>
</g>
<!-- Node18&#45;&gt;Node14 -->
<g id="edge31" class="edge">
<title>Node18&#45;&gt;Node14</title>
<path fill="none" stroke="midnightblue" d="M307.3,-276.1C287.46,-282.63 262.13,-290.96 244.33,-296.82"/>
<polygon fill="midnightblue" stroke="midnightblue" points="308.41,-279.42 316.82,-272.97 306.22,-272.77 308.41,-279.42"/>
</g>
<!-- Node20 -->
<g id="node20" class="node">
<title>Node20</title>
<g id="a_node20"><a xlink:href="dfp100_8f90.html#a17a3ac15cc83994394f7b4cc05e5898e" target="_top" xlink:title="Split the work between MPI nodes and evaluate the global constraint.">
<polygon fill="white" stroke="black" points="640,-104.5 640,-123.5 686,-123.5 686,-104.5 640,-104.5"/>
<text text-anchor="middle" x="663" y="-111.5" font-family="Helvetica,sans-Serif" font-size="10.00">dfp100</text>
</a>
</g>
</g>
<!-- Node19&#45;&gt;Node20 -->
<g id="edge38" class="edge">
<title>Node19&#45;&gt;Node20</title>
<path fill="none" stroke="midnightblue" d="M711.84,-102.98C703.17,-104.98 694.09,-107.07 686.21,-108.89"/>
<polygon fill="midnightblue" stroke="midnightblue" points="712.79,-106.36 721.75,-100.7 711.22,-99.53 712.79,-106.36"/>
</g>
<!-- Node20&#45;&gt;Node2 -->
<g id="edge39" class="edge">
<title>Node20&#45;&gt;Node2</title>
<path fill="none" stroke="midnightblue" d="M654.07,-133.07C637.49,-172.95 599.64,-263.98 587.11,-294.11"/>
<polygon fill="midnightblue" stroke="midnightblue" points="657.37,-134.26 657.97,-123.68 650.9,-131.57 657.37,-134.26"/>
</g>
<!-- Node20&#45;&gt;Node12 -->
<g id="edge40" class="edge">
<title>Node20&#45;&gt;Node12</title>
<path fill="none" stroke="midnightblue" d="M629.88,-115.39C553.17,-118.7 359.02,-127.1 269.29,-130.98"/>
<polygon fill="midnightblue" stroke="midnightblue" points="630.06,-118.88 639.9,-114.96 629.76,-111.89 630.06,-118.88"/>
</g>
<!-- Node22 -->
<g id="node22" class="node">
<title>Node22</title>
<g id="a_node22"><a xlink:href="mp00ac_8f90.html#a304edac43f63d39dda4419b4d044eac5" target="_top" xlink:title="run GMRES">
<polygon fill="white" stroke="black" points="896,-104.5 896,-123.5 953,-123.5 953,-104.5 896,-104.5"/>
<text text-anchor="middle" x="924.5" y="-111.5" font-family="Helvetica,sans-Serif" font-size="10.00">rungmres</text>
</a>
</g>
</g>
<!-- Node21&#45;&gt;Node22 -->
<g id="edge42" class="edge">
<title>Node21&#45;&gt;Node22</title>
<path fill="none" stroke="midnightblue" d="M978.5,-114C970.13,-114 961.28,-114 953.25,-114"/>
<polygon fill="midnightblue" stroke="midnightblue" points="978.73,-117.5 988.73,-114 978.73,-110.5 978.73,-117.5"/>
</g>
<!-- Node22&#45;&gt;Node23 -->
<g id="edge43" class="edge">
<title>Node22&#45;&gt;Node23</title>
<path fill="none" stroke="midnightblue" d="M885.74,-105.85C877.09,-103.98 868.12,-102.04 860.19,-100.33"/>
<polygon fill="midnightblue" stroke="midnightblue" points="885.14,-109.3 895.66,-107.99 886.62,-102.46 885.14,-109.3"/>
</g>
<!-- Node23&#45;&gt;Node19 -->
<g id="edge44" class="edge">
<title>Node23&#45;&gt;Node19</title>
<path fill="none" stroke="midnightblue" d="M798.72,-95C790.1,-95 781.04,-95 773.03,-95"/>
<polygon fill="midnightblue" stroke="midnightblue" points="798.91,-98.5 808.91,-95 798.91,-91.5 798.91,-98.5"/>
</g>
</g>
</svg>
