<?xml version="1.0" encoding="UTF-8" standalone="no"?>
<!DOCTYPE svg PUBLIC "-//W3C//DTD SVG 1.1//EN"
 "http://www.w3.org/Graphics/SVG/1.1/DTD/svg11.dtd">
<!-- Generated by graphviz version 2.47.1 (20210421.1823)
 -->
<!-- Title: dvcfield Pages: 1 -->
<svg width="669pt" height="98pt"
 viewBox="0.00 0.00 669.00 98.15" xmlns="http://www.w3.org/2000/svg" xmlns:xlink="http://www.w3.org/1999/xlink">
<g id="graph0" class="graph" transform="scale(1 1) rotate(0) translate(4 94.15)">
<title>dvcfield</title>
<polygon fill="white" stroke="transparent" points="-4,4 -4,-94.15 665,-94.15 665,4 -4,4"/>
<!-- Node1 -->
<g id="node1" class="node">
<title>Node1</title>
<g id="a_node1"><a xlink:title="Differential virtual casing integrand.">
<polygon fill="#bfbfbf" stroke="black" points="611,-19.5 611,-38.5 661,-38.5 661,-19.5 611,-19.5"/>
<text text-anchor="middle" x="636" y="-26.5" font-family="Helvetica,sans-Serif" font-size="10.00">dvcfield</text>
</a>
</g>
</g>
<!-- Node2 -->
<g id="node2" class="node">
<title>Node2</title>
<g id="a_node2"><a xlink:href="group__grp__free-boundary.html#ga180576a10002ebf3840fce98d56316bb" target="_top" xlink:title="Constructs the field created by the plasma currents, at an arbitrary, external location using virtual...">
<polygon fill="white" stroke="black" points="530,-19.5 530,-38.5 575,-38.5 575,-19.5 530,-19.5"/>
<text text-anchor="middle" x="552.5" y="-26.5" font-family="Helvetica,sans-Serif" font-size="10.00">casing</text>
</a>
</g>
</g>
<!-- Node1&#45;&gt;Node2 -->
<g id="edge1" class="edge">
<title>Node1&#45;&gt;Node2</title>
<path fill="none" stroke="midnightblue" d="M600.72,-22.33C592.04,-22.12 582.97,-22.33 575.12,-22.96"/>
<polygon fill="midnightblue" stroke="midnightblue" points="600.84,-25.84 610.99,-22.78 601.15,-18.84 600.84,-25.84"/>
</g>
<!-- Node2&#45;&gt;Node1 -->
<g id="edge12" class="edge">
<title>Node2&#45;&gt;Node1</title>
<path fill="none" stroke="midnightblue" d="M585.19,-35.6C593.77,-35.89 602.91,-35.76 610.99,-35.22"/>
<polygon fill="midnightblue" stroke="midnightblue" points="585.3,-32.1 575.12,-35.04 584.91,-39.09 585.3,-32.1"/>
</g>
<!-- Node3 -->
<g id="node3" class="node">
<title>Node3</title>
<g id="a_node3"><a xlink:href="group__grp__free-boundary.html#gac0a2cc2241947b27241bb8ef75c5e0ed" target="_top" xlink:title="Computes &#160;on the computational boundary, .">
<polygon fill="white" stroke="black" points="448,-19.5 448,-38.5 494,-38.5 494,-19.5 448,-19.5"/>
<text text-anchor="middle" x="471" y="-26.5" font-family="Helvetica,sans-Serif" font-size="10.00">bnorml</text>
</a>
</g>
</g>
<!-- Node2&#45;&gt;Node3 -->
<g id="edge2" class="edge">
<title>Node2&#45;&gt;Node3</title>
<path fill="none" stroke="midnightblue" d="M519.73,-29C511.19,-29 502.15,-29 494.25,-29"/>
<polygon fill="midnightblue" stroke="midnightblue" points="519.78,-32.5 529.78,-29 519.78,-25.5 519.78,-32.5"/>
</g>
<!-- Node4 -->
<g id="node4" class="node">
<title>Node4</title>
<g id="a_node4"><a xlink:href="group__grp__initialization.html#ga28628de0fdb3b3497668007d8d0643bd" target="_top" xlink:title="Allocates and initializes internal arrays.">
<polygon fill="white" stroke="black" points="368,-38.5 368,-57.5 412,-57.5 412,-38.5 368,-38.5"/>
<text text-anchor="middle" x="390" y="-45.5" font-family="Helvetica,sans-Serif" font-size="10.00">preset</text>
</a>
</g>
</g>
<!-- Node3&#45;&gt;Node4 -->
<g id="edge3" class="edge">
<title>Node3&#45;&gt;Node4</title>
<path fill="none" stroke="midnightblue" d="M438.06,-36.68C429.31,-38.79 420.05,-41.01 412.07,-42.93"/>
<polygon fill="midnightblue" stroke="midnightblue" points="439.09,-40.03 447.99,-34.29 437.45,-33.23 439.09,-40.03"/>
</g>
<!-- Node6 -->
<g id="node6" class="node">
<title>Node6</title>
<g id="a_node6"><a xlink:href="xspech_8f90.html#a48f45478dc2c9f70ea8aa1c60ad06503" target="_top" xlink:title=" ">
<polygon fill="white" stroke="black" points="213,-0.5 213,-19.5 251,-19.5 251,-0.5 213,-0.5"/>
<text text-anchor="middle" x="232" y="-7.5" font-family="Helvetica,sans-Serif" font-size="10.00">spec</text>
</a>
</g>
</g>
<!-- Node3&#45;&gt;Node6 -->
<g id="edge11" class="edge">
<title>Node3&#45;&gt;Node6</title>
<path fill="none" stroke="midnightblue" d="M437.64,-26.41C387.08,-22.35 291.02,-14.65 251.1,-11.45"/>
<polygon fill="midnightblue" stroke="midnightblue" points="437.46,-29.9 447.7,-27.21 438.02,-22.92 437.46,-29.9"/>
</g>
<!-- Node5 -->
<g id="node5" class="node">
<title>Node5</title>
<g id="a_node5"><a xlink:href="group__grp__diagnostics.html#ga7401b50ec10c6598ee4a8112717a63ec" target="_top" xlink:title="Computes eigenvalues and eigenvectors of derivative matrix, .">
<polygon fill="white" stroke="black" points="287,-38.5 287,-57.5 332,-57.5 332,-38.5 287,-38.5"/>
<text text-anchor="middle" x="309.5" y="-45.5" font-family="Helvetica,sans-Serif" font-size="10.00">hesian</text>
</a>
</g>
</g>
<!-- Node4&#45;&gt;Node5 -->
<g id="edge4" class="edge">
<title>Node4&#45;&gt;Node5</title>
<path fill="none" stroke="midnightblue" d="M357.85,-48C349.24,-48 340.08,-48 332.14,-48"/>
<polygon fill="midnightblue" stroke="midnightblue" points="357.96,-51.5 367.96,-48 357.96,-44.5 357.96,-51.5"/>
</g>
<!-- Node8 -->
<g id="node8" class="node">
<title>Node8</title>
<g id="a_node8"><a xlink:href="xspech_8f90.html#aea782eae089760a491c2c54f9903abcc" target="_top" xlink:title="Main program of SPEC.">
<polygon fill="white" stroke="black" points="0,-18.5 0,-37.5 47,-37.5 47,-18.5 0,-18.5"/>
<text text-anchor="middle" x="23.5" y="-25.5" font-family="Helvetica,sans-Serif" font-size="10.00">xspech</text>
</a>
</g>
</g>
<!-- Node4&#45;&gt;Node8 -->
<g id="edge10" class="edge">
<title>Node4&#45;&gt;Node8</title>
<path fill="none" stroke="midnightblue" d="M358.04,-60.16C349.71,-62.93 340.62,-65.49 332,-67 222.99,-86.14 188.17,-105.49 83,-71 63.12,-64.48 44.42,-48.33 33.74,-37.79"/>
<polygon fill="midnightblue" stroke="midnightblue" points="359.46,-63.37 367.74,-56.76 357.14,-56.77 359.46,-63.37"/>
</g>
<!-- Node5&#45;&gt;Node6 -->
<g id="edge5" class="edge">
<title>Node5&#45;&gt;Node6</title>
<path fill="none" stroke="midnightblue" d="M280.4,-33.86C270.57,-28.91 259.79,-23.49 251.01,-19.06"/>
<polygon fill="midnightblue" stroke="midnightblue" points="278.94,-37.04 289.45,-38.41 282.09,-30.79 278.94,-37.04"/>
</g>
<!-- Node7 -->
<g id="node7" class="node">
<title>Node7</title>
<g id="a_node7"><a xlink:href="namespacesphdf5.html#a0f962c09cd5d5eba99f1cba043cb3898" target="_top" xlink:title="initialize the interface to the HDF5 library and open the output file">
<polygon fill="white" stroke="black" points="83,-42.5 83,-61.5 177,-61.5 177,-42.5 83,-42.5"/>
<text text-anchor="middle" x="130" y="-49.5" font-family="Helvetica,sans-Serif" font-size="10.00">sphdf5::init_outfile</text>
</a>
</g>
</g>
<!-- Node6&#45;&gt;Node7 -->
<g id="edge6" class="edge">
<title>Node6&#45;&gt;Node7</title>
<path fill="none" stroke="midnightblue" d="M203.04,-21.74C187.5,-28.27 168.41,-36.29 153.79,-42.43"/>
<polygon fill="midnightblue" stroke="midnightblue" points="204.79,-24.8 212.66,-17.7 202.08,-18.35 204.79,-24.8"/>
</g>
<!-- Node6&#45;&gt;Node8 -->
<g id="edge9" class="edge">
<title>Node6&#45;&gt;Node8</title>
<path fill="none" stroke="midnightblue" d="M202.44,-7.65C160.98,-8.58 84.95,-15.35 47.12,-21.62"/>
<polygon fill="midnightblue" stroke="midnightblue" points="202.71,-11.15 212.67,-7.55 202.64,-4.15 202.71,-11.15"/>
</g>
<!-- Node7&#45;&gt;Node8 -->
<g id="edge7" class="edge">
<title>Node7&#45;&gt;Node8</title>
<path fill="none" stroke="midnightblue" d="M77.6,-40.19C66.85,-37.73 56.06,-35.25 47.04,-33.18"/>
<polygon fill="midnightblue" stroke="midnightblue" points="76.87,-43.62 87.4,-42.45 78.44,-36.8 76.87,-43.62"/>
</g>
<!-- Node8&#45;&gt;Node6 -->
<g id="edge8" class="edge">
<title>Node8&#45;&gt;Node6</title>
<path fill="none" stroke="midnightblue" d="M57.28,-30.23C101.23,-28.92 177.75,-21.9 212.67,-15.64"/>
<polygon fill="midnightblue" stroke="midnightblue" points="57.04,-26.74 47.12,-30.44 57.19,-33.74 57.04,-26.74"/>
</g>
</g>
</svg>
