<?xml version="1.0" encoding="UTF-8" standalone="no"?>
<!DOCTYPE svg PUBLIC "-//W3C//DTD SVG 1.1//EN"
 "http://www.w3.org/Graphics/SVG/1.1/DTD/svg11.dtd">
<!-- Generated by graphviz version 3.0.0 (20220413.0106)
 -->
<!-- Title: mtrxhs Pages: 1 -->
<svg width="1183pt" height="344pt"
 viewBox="0.00 0.00 1183.00 343.63" xmlns="http://www.w3.org/2000/svg" xmlns:xlink="http://www.w3.org/1999/xlink">
<g id="graph0" class="graph" transform="scale(1 1) rotate(0) translate(4 339.63)">
<title>mtrxhs</title>
<polygon fill="white" stroke="transparent" points="-4,4 -4,-339.63 1179,-339.63 1179,4 -4,4"/>
<!-- Node1 -->
<g id="node1" class="node">
<title>Node1</title>
<g id="a_node1"><a xlink:title="Constructs matrices that represent the Beltrami linear system, matrix&#45;free.">
<polygon fill="#bfbfbf" stroke="black" points="1129,-231.13 1129,-250.13 1175,-250.13 1175,-231.13 1129,-231.13"/>
<text text-anchor="middle" x="1152" y="-238.13" font-family="Helvetica,sans-Serif" font-size="10.00">mtrxhs</text>
</a>
</g>
</g>
<!-- Node1&#45;&gt;Node1 -->
<g id="edge57" class="edge">
<title>Node1&#45;&gt;Node1</title>
<path fill="none" stroke="midnightblue" d="M1167.1,-260.4C1165.91,-265.13 1160.88,-268.63 1152,-268.63 1137.43,-268.63 1133.21,-259.2 1139.36,-250.39"/>
<polygon fill="midnightblue" stroke="midnightblue" points="1170.43,-259.26 1164.64,-250.39 1163.63,-260.94 1170.43,-259.26"/>
</g>
<!-- Node2 -->
<g id="node2" class="node">
<title>Node2</title>
<g id="a_node2"><a xlink:href="dfp200_8f90.html#a5e56f1f4b1e6df11a9cffa6237c37469" target="_top" xlink:title="This routine evaluates the value of the magnetic field once the interface is perturbed using matrix p...">
<polygon fill="white" stroke="black" points="713,-269.13 713,-288.13 828,-288.13 828,-269.13 713,-269.13"/>
<text text-anchor="middle" x="770.5" y="-276.13" font-family="Helvetica,sans-Serif" font-size="10.00">get_perturbed_solution</text>
</a>
</g>
</g>
<!-- Node1&#45;&gt;Node2 -->
<g id="edge1" class="edge">
<title>Node1&#45;&gt;Node2</title>
<path fill="none" stroke="midnightblue" d="M1118.79,-244.66C1110.4,-245.67 1101.37,-246.73 1093,-247.63 1000.32,-257.69 892.43,-267.76 828.17,-273.58"/>
<polygon fill="midnightblue" stroke="midnightblue" points="1119.48,-248.1 1128.98,-243.42 1118.63,-241.15 1119.48,-248.1"/>
</g>
<!-- Node21 -->
<g id="node21" class="node">
<title>Node21</title>
<g id="a_node21"><a xlink:href="mp00ac_8f90.html#ae9fe335bb4916face9f9d19ce8c0f5d7" target="_top" xlink:title="compute a.x by either by coumputing it directly, or using a matrix free method">
<polygon fill="white" stroke="black" points="1044,-193.13 1044,-212.13 1093,-212.13 1093,-193.13 1044,-193.13"/>
<text text-anchor="middle" x="1068.5" y="-200.13" font-family="Helvetica,sans-Serif" font-size="10.00">matvec</text>
</a>
</g>
</g>
<!-- Node1&#45;&gt;Node21 -->
<g id="edge46" class="edge">
<title>Node1&#45;&gt;Node21</title>
<path fill="none" stroke="midnightblue" d="M1121.29,-226.78C1110.92,-221.94 1099.52,-216.63 1090.06,-212.22"/>
<polygon fill="midnightblue" stroke="midnightblue" points="1119.89,-229.99 1130.43,-231.04 1122.85,-223.65 1119.89,-229.99"/>
</g>
<!-- Node23 -->
<g id="node23" class="node">
<title>Node23</title>
<g id="a_node23"><a xlink:href="group__grp__solver.html#ga6626839aff500f060beb5bce2b90c447" target="_top" xlink:title="Solves Beltrami/vacuum (linear) system, given matrices.unpacking fluxes, helicity multiplier">
<polygon fill="white" stroke="black" points="864,-203.13 864,-222.13 915,-222.13 915,-203.13 864,-203.13"/>
<text text-anchor="middle" x="889.5" y="-210.13" font-family="Helvetica,sans-Serif" font-size="10.00">mp00ac</text>
</a>
</g>
</g>
<!-- Node1&#45;&gt;Node23 -->
<g id="edge56" class="edge">
<title>Node1&#45;&gt;Node23</title>
<path fill="none" stroke="midnightblue" d="M1118.64,-238.09C1079.05,-234.86 1009.99,-228.82 951,-221.63 939.19,-220.2 926.14,-218.29 915.19,-216.61"/>
<polygon fill="midnightblue" stroke="midnightblue" points="1118.51,-241.59 1128.76,-238.91 1119.08,-234.61 1118.51,-241.59"/>
</g>
<!-- Node3 -->
<g id="node3" class="node">
<title>Node3</title>
<g id="a_node3"><a xlink:href="dfp200_8f90.html#a55ea75395f8c71731451e1add3720c7e" target="_top" xlink:title="Given the field consistent with the constraints and the geometry, computes local quantites related to...">
<polygon fill="white" stroke="black" points="631,-269.13 631,-288.13 677,-288.13 677,-269.13 631,-269.13"/>
<text text-anchor="middle" x="654" y="-276.13" font-family="Helvetica,sans-Serif" font-size="10.00">dfp200</text>
</a>
</g>
</g>
<!-- Node2&#45;&gt;Node3 -->
<g id="edge2" class="edge">
<title>Node2&#45;&gt;Node3</title>
<path fill="none" stroke="midnightblue" d="M702.81,-271.97C693.57,-272.13 684.67,-272.53 677.11,-273.17"/>
<polygon fill="midnightblue" stroke="midnightblue" points="702.95,-275.46 712.92,-271.88 702.89,-268.46 702.95,-275.46"/>
</g>
<!-- Node3&#45;&gt;Node2 -->
<g id="edge45" class="edge">
<title>Node3&#45;&gt;Node2</title>
<path fill="none" stroke="midnightblue" d="M687.14,-284.77C695.19,-285.19 704.07,-285.39 712.92,-285.38"/>
<polygon fill="midnightblue" stroke="midnightblue" points="687.32,-281.27 677.11,-284.09 686.85,-288.26 687.32,-281.27"/>
</g>
<!-- Node3&#45;&gt;Node3 -->
<g id="edge39" class="edge">
<title>Node3&#45;&gt;Node3</title>
<path fill="none" stroke="midnightblue" d="M673.63,-298.03C672.32,-302.95 665.77,-306.63 654,-306.63 635.16,-306.63 629.71,-297.2 637.66,-288.39"/>
<polygon fill="midnightblue" stroke="midnightblue" points="676.88,-296.72 670.34,-288.39 670.26,-298.99 676.88,-296.72"/>
</g>
<!-- Node4 -->
<g id="node4" class="node">
<title>Node4</title>
<g id="a_node4"><a xlink:href="group__grp__global__force.html#ga38c9d3c50bd043707fefa5137c9dbf44" target="_top" xlink:title="Calculates , where &#160;and , and .">
<polygon fill="white" stroke="black" points="525.5,-175.13 525.5,-194.13 569.5,-194.13 569.5,-175.13 525.5,-175.13"/>
<text text-anchor="middle" x="547.5" y="-182.13" font-family="Helvetica,sans-Serif" font-size="10.00">dforce</text>
</a>
</g>
</g>
<!-- Node3&#45;&gt;Node4 -->
<g id="edge3" class="edge">
<title>Node3&#45;&gt;Node4</title>
<path fill="none" stroke="midnightblue" d="M636.72,-261.73C625.33,-250.13 609.6,-234.56 595,-221.63 584.03,-211.93 570.92,-201.6 561.42,-194.33"/>
<polygon fill="midnightblue" stroke="midnightblue" points="634.36,-264.32 643.85,-269.04 639.38,-259.44 634.36,-264.32"/>
</g>
<!-- Node15 -->
<g id="node15" class="node">
<title>Node15</title>
<g id="a_node15"><a xlink:href="dfp200_8f90.html#a6aca59cf350d7b1941f8389d50945a43" target="_top" xlink:title="get LU Beltrami matrices">
<polygon fill="white" stroke="black" points="339,-316.13 339,-335.13 464,-335.13 464,-316.13 339,-316.13"/>
<text text-anchor="middle" x="401.5" y="-323.13" font-family="Helvetica,sans-Serif" font-size="10.00">get_lu_beltrami_matrices</text>
</a>
</g>
</g>
<!-- Node3&#45;&gt;Node15 -->
<g id="edge44" class="edge">
<title>Node3&#45;&gt;Node15</title>
<path fill="none" stroke="midnightblue" d="M621.12,-281.47C612.71,-283.91 603.58,-286.62 595,-288.63 539.76,-301.6 474.12,-309.6 435.52,-316.12"/>
<polygon fill="midnightblue" stroke="midnightblue" points="622.27,-284.79 630.95,-278.71 620.37,-278.05 622.27,-284.79"/>
</g>
<!-- Node19 -->
<g id="node19" class="node">
<title>Node19</title>
<g id="a_node19"><a xlink:href="dfp200_8f90.html#a7b64c7392b45d0042d8bd7379c0761a5" target="_top" xlink:title="Evaluate the derivative of the square of the magnetic field modulus. Add spectral constraint derivati...">
<polygon fill="white" stroke="black" points="510.5,-269.13 510.5,-288.13 584.5,-288.13 584.5,-269.13 510.5,-269.13"/>
<text text-anchor="middle" x="547.5" y="-276.13" font-family="Helvetica,sans-Serif" font-size="10.00">evaluate_dbb</text>
</a>
</g>
</g>
<!-- Node3&#45;&gt;Node19 -->
<g id="edge40" class="edge">
<title>Node3&#45;&gt;Node19</title>
<path fill="none" stroke="midnightblue" d="M620.82,-272.35C609.36,-271.79 596.38,-271.74 584.61,-272.18"/>
<polygon fill="midnightblue" stroke="midnightblue" points="620.63,-275.84 630.84,-273 621.09,-268.86 620.63,-275.84"/>
</g>
<!-- Node20 -->
<g id="node20" class="node">
<title>Node20</title>
<g id="a_node20"><a xlink:href="dfp200_8f90.html#a73ddf39ecc5228201fb643779e17cd36" target="_top" xlink:title="Evaluate mu and psip derivatives and store them in dmupfdx.">
<polygon fill="white" stroke="black" points="500,-231.13 500,-250.13 595,-250.13 595,-231.13 500,-231.13"/>
<text text-anchor="middle" x="547.5" y="-238.13" font-family="Helvetica,sans-Serif" font-size="10.00">evaluate_dmupfdx</text>
</a>
</g>
</g>
<!-- Node3&#45;&gt;Node20 -->
<g id="edge42" class="edge">
<title>Node3&#45;&gt;Node20</title>
<path fill="none" stroke="midnightblue" d="M630.21,-264.66C619.42,-259.86 606.13,-254.69 593.43,-250.28"/>
<polygon fill="midnightblue" stroke="midnightblue" points="628.8,-267.86 639.34,-268.93 631.77,-261.52 628.8,-267.86"/>
</g>
<!-- Node4&#45;&gt;Node4 -->
<g id="edge14" class="edge">
<title>Node4&#45;&gt;Node4</title>
<path fill="none" stroke="midnightblue" d="M567.13,-204.03C565.82,-208.95 559.27,-212.63 547.5,-212.63 528.66,-212.63 523.21,-203.2 531.16,-194.39"/>
<polygon fill="midnightblue" stroke="midnightblue" points="570.38,-202.72 563.84,-194.39 563.76,-204.99 570.38,-202.72"/>
</g>
<!-- Node5 -->
<g id="node5" class="node">
<title>Node5</title>
<g id="a_node5"><a xlink:href="namespaceallglobal.html#a7824bc37519fe88336534ce90ab2af16" target="_top" xlink:title=" ">
<polygon fill="white" stroke="black" points="344.5,-222.13 344.5,-241.13 458.5,-241.13 458.5,-222.13 344.5,-222.13"/>
<text text-anchor="middle" x="401.5" y="-229.13" font-family="Helvetica,sans-Serif" font-size="10.00">allglobal::check_inputs</text>
</a>
</g>
</g>
<!-- Node4&#45;&gt;Node5 -->
<g id="edge4" class="edge">
<title>Node4&#45;&gt;Node5</title>
<path fill="none" stroke="midnightblue" d="M515.61,-194.72C490.8,-202.81 456.21,-214.1 431.82,-222.06"/>
<polygon fill="midnightblue" stroke="midnightblue" points="516.83,-198 525.25,-191.57 514.66,-191.34 516.83,-198"/>
</g>
<!-- Node8 -->
<g id="node8" class="node">
<title>Node8</title>
<g id="a_node8"><a xlink:href="xspech_8f90.html#a48f45478dc2c9f70ea8aa1c60ad06503" target="_top" xlink:title="This is the main &quot;driver&quot; for the physics part of SPEC.">
<polygon fill="white" stroke="black" points="155.5,-184.13 155.5,-203.13 193.5,-203.13 193.5,-184.13 155.5,-184.13"/>
<text text-anchor="middle" x="174.5" y="-191.13" font-family="Helvetica,sans-Serif" font-size="10.00">spec</text>
</a>
</g>
</g>
<!-- Node4&#45;&gt;Node8 -->
<g id="edge38" class="edge">
<title>Node4&#45;&gt;Node8</title>
<path fill="none" stroke="midnightblue" d="M515.3,-185.39C440.49,-187.21 252.73,-191.76 193.61,-193.19"/>
<polygon fill="midnightblue" stroke="midnightblue" points="515.58,-188.88 525.49,-185.14 515.41,-181.89 515.58,-188.88"/>
</g>
<!-- Node11 -->
<g id="node11" class="node">
<title>Node11</title>
<g id="a_node11"><a xlink:href="group__grp__force__driver.html#gabbc245b3884ee8d8d3e2a52f25149f78" target="_top" xlink:title="fcn1">
<polygon fill="white" stroke="black" points="384,-52.13 384,-71.13 419,-71.13 419,-52.13 384,-52.13"/>
<text text-anchor="middle" x="401.5" y="-59.13" font-family="Helvetica,sans-Serif" font-size="10.00">fcn1</text>
</a>
</g>
</g>
<!-- Node4&#45;&gt;Node11 -->
<g id="edge15" class="edge">
<title>Node4&#45;&gt;Node11</title>
<path fill="none" stroke="midnightblue" d="M530.82,-167.55C514.79,-150.51 488.79,-124 464,-103.63 449.21,-91.49 430.97,-79.35 418.21,-71.27"/>
<polygon fill="midnightblue" stroke="midnightblue" points="528.46,-170.16 537.84,-175.09 533.58,-165.39 528.46,-170.16"/>
</g>
<!-- Node12 -->
<g id="node12" class="node">
<title>Node12</title>
<g id="a_node12"><a xlink:href="group__grp__force__driver.html#gaec14f81fbdbedafbc4189489ec8ae178" target="_top" xlink:title="Employs Newton method to find , where &#160;and &#160;is defined in dforce() .">
<polygon fill="white" stroke="black" points="255,-62.13 255,-81.13 303,-81.13 303,-62.13 255,-62.13"/>
<text text-anchor="middle" x="279" y="-69.13" font-family="Helvetica,sans-Serif" font-size="10.00">newton</text>
</a>
</g>
</g>
<!-- Node4&#45;&gt;Node12 -->
<g id="edge33" class="edge">
<title>Node4&#45;&gt;Node12</title>
<path fill="none" stroke="midnightblue" d="M518.14,-170.52C502.35,-162.84 482.24,-153.36 464,-145.63 409.35,-122.49 393.8,-121.44 339,-98.63 325.9,-93.18 311.4,-86.55 300.05,-81.23"/>
<polygon fill="midnightblue" stroke="midnightblue" points="516.85,-173.79 527.37,-175.04 519.92,-167.5 516.85,-173.79"/>
</g>
<!-- Node13 -->
<g id="node13" class="node">
<title>Node13</title>
<g id="a_node13"><a xlink:href="group__grp__force__driver.html#ga8ccd6c7d901872702521d0a0edf95412" target="_top" xlink:title="fcn2">
<polygon fill="white" stroke="black" points="29.5,-76.13 29.5,-95.13 64.5,-95.13 64.5,-76.13 29.5,-76.13"/>
<text text-anchor="middle" x="47" y="-83.13" font-family="Helvetica,sans-Serif" font-size="10.00">fcn2</text>
</a>
</g>
</g>
<!-- Node4&#45;&gt;Node13 -->
<g id="edge27" class="edge">
<title>Node4&#45;&gt;Node13</title>
<path fill="none" stroke="midnightblue" d="M541.82,-165.02C532.92,-132.71 510.2,-69.22 464,-42.63 335.34,31.41 274.14,-7.13 130,-42.63 103.93,-49.05 76.98,-65.4 61.39,-75.98"/>
<polygon fill="midnightblue" stroke="midnightblue" points="538.51,-166.23 544.4,-175.04 545.29,-164.48 538.51,-166.23"/>
</g>
<!-- Node4&#45;&gt;Node15 -->
<g id="edge28" class="edge">
<title>Node4&#45;&gt;Node15</title>
<path fill="none" stroke="midnightblue" d="M522.31,-200.24C514.43,-206.21 506.14,-213.55 500,-221.63 475.18,-254.3 494.44,-279.12 464,-306.63 459.69,-310.53 454.59,-313.63 449.21,-316.09"/>
<polygon fill="midnightblue" stroke="midnightblue" points="524.48,-203 530.58,-194.33 520.41,-197.3 524.48,-203"/>
</g>
<!-- Node16 -->
<g id="node16" class="node">
<title>Node16</title>
<g id="a_node16"><a xlink:href="group__grp__diagnostics.html#ga7401b50ec10c6598ee4a8112717a63ec" target="_top" xlink:title="Computes eigenvalues and eigenvectors of derivative matrix, .">
<polygon fill="white" stroke="black" points="256.5,-128.13 256.5,-147.13 301.5,-147.13 301.5,-128.13 256.5,-128.13"/>
<text text-anchor="middle" x="279" y="-135.13" font-family="Helvetica,sans-Serif" font-size="10.00">hesian</text>
</a>
</g>
</g>
<!-- Node4&#45;&gt;Node16 -->
<g id="edge30" class="edge">
<title>Node4&#45;&gt;Node16</title>
<path fill="none" stroke="midnightblue" d="M514.98,-179.08C460.24,-169.42 348.93,-149.79 301.83,-141.48"/>
<polygon fill="midnightblue" stroke="midnightblue" points="514.69,-182.58 525.14,-180.87 515.9,-175.68 514.69,-182.58"/>
</g>
<!-- Node17 -->
<g id="node17" class="node">
<title>Node17</title>
<g id="a_node17"><a xlink:href="group__grp__conjugate__gradient.html#ga4d8415226e62a9fdb42b0fd0b464251e" target="_top" xlink:title="Returns the energy functional and it&#39;s derivatives with respect to geometry.">
<polygon fill="white" stroke="black" points="377.5,-260.13 377.5,-279.13 425.5,-279.13 425.5,-260.13 377.5,-260.13"/>
<text text-anchor="middle" x="401.5" y="-267.13" font-family="Helvetica,sans-Serif" font-size="10.00">pc00ab</text>
</a>
</g>
</g>
<!-- Node4&#45;&gt;Node17 -->
<g id="edge34" class="edge">
<title>Node4&#45;&gt;Node17</title>
<path fill="none" stroke="midnightblue" d="M526.31,-200.66C518.13,-207.16 508.61,-214.74 500,-221.63 483.96,-234.47 482.14,-240.98 464,-250.63 451.96,-257.04 437.43,-261.65 425.52,-264.73"/>
<polygon fill="midnightblue" stroke="midnightblue" points="528.59,-203.31 534.25,-194.35 524.24,-197.83 528.59,-203.31"/>
</g>
<!-- Node6 -->
<g id="node6" class="node">
<title>Node6</title>
<g id="a_node6"><a xlink:href="xspech_8f90.html#a9fdc71dffd7c61ee4588a3f80d3ab9ce" target="_top" xlink:title="Main subroutine of SPEC.">
<polygon fill="white" stroke="black" points="255.5,-222.13 255.5,-241.13 302.5,-241.13 302.5,-222.13 255.5,-222.13"/>
<text text-anchor="middle" x="279" y="-229.13" font-family="Helvetica,sans-Serif" font-size="10.00">xspech</text>
</a>
</g>
</g>
<!-- Node5&#45;&gt;Node6 -->
<g id="edge5" class="edge">
<title>Node5&#45;&gt;Node6</title>
<path fill="none" stroke="midnightblue" d="M334.45,-231.63C323.06,-231.63 311.95,-231.63 302.77,-231.63"/>
<polygon fill="midnightblue" stroke="midnightblue" points="334.48,-235.13 344.48,-231.63 334.48,-228.13 334.48,-235.13"/>
</g>
<!-- Node6&#45;&gt;Node6 -->
<g id="edge13" class="edge">
<title>Node6&#45;&gt;Node6</title>
<path fill="none" stroke="midnightblue" d="M298.26,-251.03C296.97,-255.95 290.55,-259.63 279,-259.63 260.52,-259.63 255.17,-250.2 262.97,-241.39"/>
<polygon fill="midnightblue" stroke="midnightblue" points="301.52,-249.76 295.03,-241.39 294.89,-251.98 301.52,-249.76"/>
</g>
<!-- Node7 -->
<g id="node7" class="node">
<title>Node7</title>
<g id="a_node7"><a xlink:href="xspech_8f90.html#a1451823a7b97101a797de616250752c1" target="_top" xlink:title="Final diagnostics.">
<polygon fill="white" stroke="black" points="130,-222.13 130,-241.13 219,-241.13 219,-222.13 130,-222.13"/>
<text text-anchor="middle" x="174.5" y="-229.13" font-family="Helvetica,sans-Serif" font-size="10.00">final_diagnostics</text>
</a>
</g>
</g>
<!-- Node6&#45;&gt;Node7 -->
<g id="edge6" class="edge">
<title>Node6&#45;&gt;Node7</title>
<path fill="none" stroke="midnightblue" d="M245.24,-225.29C236.96,-224.91 227.94,-224.8 219.22,-224.95"/>
<polygon fill="midnightblue" stroke="midnightblue" points="245.05,-228.79 255.25,-225.91 245.49,-221.8 245.05,-228.79"/>
</g>
<!-- Node6&#45;&gt;Node8 -->
<g id="edge8" class="edge">
<title>Node6&#45;&gt;Node8</title>
<path fill="none" stroke="midnightblue" d="M255.42,-217.55C236.89,-209.17 210.98,-199.7 193.75,-195.09"/>
<polygon fill="midnightblue" stroke="midnightblue" points="254.07,-220.79 264.6,-221.93 257.08,-214.47 254.07,-220.79"/>
</g>
<!-- Node10 -->
<g id="node10" class="node">
<title>Node10</title>
<g id="a_node10"><a xlink:href="xspech_8f90.html#a95271e8805067f801b5d4e524d6901d4" target="_top" xlink:title="Main program of SPEC.">
<polygon fill="white" stroke="black" points="142.5,-260.13 142.5,-279.13 206.5,-279.13 206.5,-260.13 142.5,-260.13"/>
<text text-anchor="middle" x="174.5" y="-267.13" font-family="Helvetica,sans-Serif" font-size="10.00">spec_main</text>
</a>
</g>
</g>
<!-- Node6&#45;&gt;Node10 -->
<g id="edge12" class="edge">
<title>Node6&#45;&gt;Node10</title>
<path fill="none" stroke="midnightblue" d="M245.79,-243.57C231.5,-248.87 214.91,-255.02 201.44,-260.02"/>
<polygon fill="midnightblue" stroke="midnightblue" points="247.09,-246.82 255.25,-240.07 244.66,-240.26 247.09,-246.82"/>
</g>
<!-- Node7&#45;&gt;Node6 -->
<g id="edge7" class="edge">
<title>Node7&#45;&gt;Node6</title>
<path fill="none" stroke="midnightblue" d="M229.47,-238.37C238.56,-238.32 247.54,-237.98 255.25,-237.35"/>
<polygon fill="midnightblue" stroke="midnightblue" points="229.24,-234.87 219.22,-238.32 229.2,-241.87 229.24,-234.87"/>
</g>
<!-- Node8&#45;&gt;Node6 -->
<g id="edge11" class="edge">
<title>Node8&#45;&gt;Node6</title>
<path fill="none" stroke="midnightblue" d="M197.97,-207.66C214.96,-215.35 238.19,-223.98 255.25,-228.92"/>
<polygon fill="midnightblue" stroke="midnightblue" points="199.31,-204.42 188.78,-203.27 196.29,-210.74 199.31,-204.42"/>
</g>
<!-- Node9 -->
<g id="node9" class="node">
<title>Node9</title>
<g id="a_node9"><a xlink:href="group__grp__output.html#ga0f962c09cd5d5eba99f1cba043cb3898" target="_top" xlink:title="Initialize the interface to the HDF5 library and open the output file.">
<polygon fill="white" stroke="black" points="0,-241.13 0,-260.13 94,-260.13 94,-241.13 0,-241.13"/>
<text text-anchor="middle" x="47" y="-248.13" font-family="Helvetica,sans-Serif" font-size="10.00">sphdf5::init_outfile</text>
</a>
</g>
</g>
<!-- Node8&#45;&gt;Node9 -->
<g id="edge9" class="edge">
<title>Node8&#45;&gt;Node9</title>
<path fill="none" stroke="midnightblue" d="M146.02,-205.53C140.7,-207.86 135.17,-210.31 130,-212.63 108.97,-222.1 85.05,-233.22 68.5,-240.98"/>
<polygon fill="midnightblue" stroke="midnightblue" points="147.49,-208.7 155.26,-201.49 144.69,-202.29 147.49,-208.7"/>
</g>
<!-- Node9&#45;&gt;Node6 -->
<g id="edge10" class="edge">
<title>Node9&#45;&gt;Node6</title>
<path fill="none" stroke="midnightblue" d="M72.37,-265.35C88.18,-274.01 109.57,-284.13 130,-288.63 168.63,-297.15 182.33,-303.46 219,-288.63 242.77,-279.03 262.28,-254.75 271.77,-241.18"/>
<polygon fill="midnightblue" stroke="midnightblue" points="73.73,-262.09 63.3,-260.2 70.27,-268.18 73.73,-262.09"/>
</g>
<!-- Node11&#45;&gt;Node11 -->
<g id="edge16" class="edge">
<title>Node11&#45;&gt;Node11</title>
<path fill="none" stroke="midnightblue" d="M424.37,-78.77C424.68,-84.77 417.06,-89.63 401.5,-89.63 378.86,-89.63 373.03,-79.35 383.99,-70.23"/>
<polygon fill="midnightblue" stroke="midnightblue" points="427.29,-76.84 419.01,-70.23 421.36,-80.56 427.29,-76.84"/>
</g>
<!-- Node11&#45;&gt;Node12 -->
<g id="edge17" class="edge">
<title>Node11&#45;&gt;Node12</title>
<path fill="none" stroke="midnightblue" d="M373.51,-58.14C352.38,-58.45 323.31,-60.96 303.22,-64.25"/>
<polygon fill="midnightblue" stroke="midnightblue" points="373.73,-61.64 383.74,-58.18 373.76,-54.64 373.73,-61.64"/>
</g>
<!-- Node12&#45;&gt;Node8 -->
<g id="edge23" class="edge">
<title>Node12&#45;&gt;Node8</title>
<path fill="none" stroke="midnightblue" d="M263.28,-89.15C241.31,-115.3 200.69,-163.66 183.51,-184.1"/>
<polygon fill="midnightblue" stroke="midnightblue" points="266.2,-91.11 269.96,-81.21 260.84,-86.61 266.2,-91.11"/>
</g>
<!-- Node12&#45;&gt;Node11 -->
<g id="edge18" class="edge">
<title>Node12&#45;&gt;Node11</title>
<path fill="none" stroke="midnightblue" d="M313.52,-74.97C336.37,-74.23 365.66,-71.37 383.74,-67.87"/>
<polygon fill="midnightblue" stroke="midnightblue" points="313.15,-71.48 303.22,-75.16 313.28,-78.48 313.15,-71.48"/>
</g>
<!-- Node12&#45;&gt;Node12 -->
<g id="edge22" class="edge">
<title>Node12&#45;&gt;Node12</title>
<path fill="none" stroke="midnightblue" d="M298.26,-91.03C296.97,-95.95 290.55,-99.63 279,-99.63 260.52,-99.63 255.17,-90.2 262.97,-81.39"/>
<polygon fill="midnightblue" stroke="midnightblue" points="301.52,-89.76 295.03,-81.39 294.89,-91.98 301.52,-89.76"/>
</g>
<!-- Node12&#45;&gt;Node13 -->
<g id="edge19" class="edge">
<title>Node12&#45;&gt;Node13</title>
<path fill="none" stroke="midnightblue" d="M244.66,-68.73C236.3,-69.7 227.34,-70.88 219,-71.63 162.5,-76.75 95.12,-77.01 64.55,-80.56"/>
<polygon fill="midnightblue" stroke="midnightblue" points="245.25,-72.19 254.82,-67.65 244.51,-65.23 245.25,-72.19"/>
</g>
<!-- Node14 -->
<g id="node14" class="node">
<title>Node14</title>
<g id="a_node14"><a xlink:href="group__grp__force__driver.html#ga382822b303cbf8c56d6f54dcb379caf2" target="_top" xlink:title="read or write force&#45;derivative matrix">
<polygon fill="white" stroke="black" points="142,-52.13 142,-71.13 207,-71.13 207,-52.13 142,-52.13"/>
<text text-anchor="middle" x="174.5" y="-59.13" font-family="Helvetica,sans-Serif" font-size="10.00">writereadgf</text>
</a>
</g>
</g>
<!-- Node12&#45;&gt;Node14 -->
<g id="edge24" class="edge">
<title>Node12&#45;&gt;Node14</title>
<path fill="none" stroke="midnightblue" d="M244.89,-62.04C232.86,-60.33 219.29,-59.03 207.36,-58.44"/>
<polygon fill="midnightblue" stroke="midnightblue" points="244.57,-65.54 255,-63.65 245.67,-58.62 244.57,-65.54"/>
</g>
<!-- Node13&#45;&gt;Node12 -->
<g id="edge21" class="edge">
<title>Node13&#45;&gt;Node12</title>
<path fill="none" stroke="midnightblue" d="M74.51,-92.11C108.18,-94.92 168.02,-94.25 219,-89.63 234.89,-88.19 253.01,-85.23 264.93,-81.14"/>
<polygon fill="midnightblue" stroke="midnightblue" points="74.85,-88.63 64.55,-91.08 74.13,-95.59 74.85,-88.63"/>
</g>
<!-- Node13&#45;&gt;Node13 -->
<g id="edge20" class="edge">
<title>Node13&#45;&gt;Node13</title>
<path fill="none" stroke="midnightblue" d="M70.55,-102.17C71.46,-108.44 63.61,-113.63 47,-113.63 23.38,-113.63 17.47,-103.13 29.28,-93.95"/>
<polygon fill="midnightblue" stroke="midnightblue" points="73.36,-100.07 64.72,-93.95 67.65,-104.13 73.36,-100.07"/>
</g>
<!-- Node14&#45;&gt;Node12 -->
<g id="edge26" class="edge">
<title>Node14&#45;&gt;Node12</title>
<path fill="none" stroke="midnightblue" d="M217.42,-72.37C230.26,-73.9 243.91,-74.93 255,-75.13"/>
<polygon fill="midnightblue" stroke="midnightblue" points="217.74,-68.88 207.36,-71.04 216.82,-75.82 217.74,-68.88"/>
</g>
<!-- Node14&#45;&gt;Node13 -->
<g id="edge25" class="edge">
<title>Node14&#45;&gt;Node13</title>
<path fill="none" stroke="midnightblue" d="M131.96,-69.58C108.99,-73.97 81.73,-79.18 64.64,-82.45"/>
<polygon fill="midnightblue" stroke="midnightblue" points="132.67,-73.01 141.83,-67.69 131.35,-66.13 132.67,-73.01"/>
</g>
<!-- Node15&#45;&gt;Node3 -->
<g id="edge29" class="edge">
<title>Node15&#45;&gt;Node3</title>
<path fill="none" stroke="midnightblue" d="M474.18,-326.25C510.63,-322.65 555.48,-315.91 595,-306.63 612.74,-302.47 632.83,-295.32 644.1,-288.35"/>
<polygon fill="midnightblue" stroke="midnightblue" points="473.76,-322.78 464.13,-327.19 474.41,-329.75 473.76,-322.78"/>
</g>
<!-- Node16&#45;&gt;Node8 -->
<g id="edge32" class="edge">
<title>Node16&#45;&gt;Node8</title>
<path fill="none" stroke="midnightblue" d="M251.13,-152.31C232.83,-162.31 209.1,-175.27 193.15,-183.99"/>
<polygon fill="midnightblue" stroke="midnightblue" points="253.05,-155.25 260.15,-147.39 249.69,-149.11 253.05,-155.25"/>
</g>
<!-- Node16&#45;&gt;Node16 -->
<g id="edge31" class="edge">
<title>Node16&#45;&gt;Node16</title>
<path fill="none" stroke="midnightblue" d="M298.26,-157.03C296.97,-161.95 290.55,-165.63 279,-165.63 260.52,-165.63 255.17,-156.2 262.97,-147.39"/>
<polygon fill="midnightblue" stroke="midnightblue" points="301.52,-155.76 295.03,-147.39 294.89,-157.98 301.52,-155.76"/>
</g>
<!-- Node17&#45;&gt;Node17 -->
<g id="edge37" class="edge">
<title>Node17&#45;&gt;Node17</title>
<path fill="none" stroke="midnightblue" d="M424.19,-288.66C422.96,-293.76 415.39,-297.63 401.5,-297.63 379.82,-297.63 373.55,-288.2 382.7,-279.39"/>
<polygon fill="midnightblue" stroke="midnightblue" points="427.4,-287.26 420.3,-279.39 420.94,-289.97 427.4,-287.26"/>
</g>
<!-- Node18 -->
<g id="node18" class="node">
<title>Node18</title>
<g id="a_node18"><a xlink:href="group__grp__conjugate__gradient.html#ga25a3bae2ff2ee0469b045de0d033398b" target="_top" xlink:title="Use preconditioned conjugate gradient method to find minimum of energy functional.">
<polygon fill="white" stroke="black" points="255,-278.13 255,-297.13 303,-297.13 303,-278.13 255,-278.13"/>
<text text-anchor="middle" x="279" y="-285.13" font-family="Helvetica,sans-Serif" font-size="10.00">pc00aa</text>
</a>
</g>
</g>
<!-- Node17&#45;&gt;Node18 -->
<g id="edge35" class="edge">
<title>Node17&#45;&gt;Node18</title>
<path fill="none" stroke="midnightblue" d="M367.16,-274.61C346.81,-277.65 321.31,-281.46 303.16,-284.17"/>
<polygon fill="midnightblue" stroke="midnightblue" points="367.89,-278.04 377.27,-273.1 366.86,-271.12 367.89,-278.04"/>
</g>
<!-- Node18&#45;&gt;Node18 -->
<g id="edge36" class="edge">
<title>Node18&#45;&gt;Node18</title>
<path fill="none" stroke="midnightblue" d="M298.26,-307.03C296.97,-311.95 290.55,-315.63 279,-315.63 260.52,-315.63 255.17,-306.2 262.97,-297.39"/>
<polygon fill="midnightblue" stroke="midnightblue" points="301.52,-305.76 295.03,-297.39 294.89,-307.98 301.52,-305.76"/>
</g>
<!-- Node19&#45;&gt;Node3 -->
<g id="edge41" class="edge">
<title>Node19&#45;&gt;Node3</title>
<path fill="none" stroke="midnightblue" d="M594.93,-285.35C607.42,-285.51 620.35,-285.15 630.84,-284.27"/>
<polygon fill="midnightblue" stroke="midnightblue" points="594.69,-281.84 584.61,-285.09 594.52,-288.84 594.69,-281.84"/>
</g>
<!-- Node20&#45;&gt;Node3 -->
<g id="edge43" class="edge">
<title>Node20&#45;&gt;Node3</title>
<path fill="none" stroke="midnightblue" d="M571.55,-254.72C589.21,-262.56 613.41,-271.33 630.84,-276.21"/>
<polygon fill="midnightblue" stroke="midnightblue" points="572.55,-251.33 562.01,-250.26 569.59,-257.67 572.55,-251.33"/>
</g>
<!-- Node22 -->
<g id="node22" class="node">
<title>Node22</title>
<g id="a_node22"><a xlink:href="mp00ac_8f90.html#a304edac43f63d39dda4419b4d044eac5" target="_top" xlink:title="run GMRES">
<polygon fill="white" stroke="black" points="951,-193.13 951,-212.13 1008,-212.13 1008,-193.13 951,-193.13"/>
<text text-anchor="middle" x="979.5" y="-200.13" font-family="Helvetica,sans-Serif" font-size="10.00">rungmres</text>
</a>
</g>
</g>
<!-- Node21&#45;&gt;Node22 -->
<g id="edge47" class="edge">
<title>Node21&#45;&gt;Node22</title>
<path fill="none" stroke="midnightblue" d="M1033.5,-202.63C1025.13,-202.63 1016.28,-202.63 1008.25,-202.63"/>
<polygon fill="midnightblue" stroke="midnightblue" points="1033.73,-206.13 1043.73,-202.63 1033.73,-199.13 1033.73,-206.13"/>
</g>
<!-- Node22&#45;&gt;Node23 -->
<g id="edge48" class="edge">
<title>Node22&#45;&gt;Node23</title>
<path fill="none" stroke="midnightblue" d="M940.46,-206.96C931.9,-207.93 923.03,-208.94 915.19,-209.83"/>
<polygon fill="midnightblue" stroke="midnightblue" points="941.12,-210.4 950.66,-205.8 940.32,-203.45 941.12,-210.4"/>
</g>
<!-- Node23&#45;&gt;Node23 -->
<g id="edge55" class="edge">
<title>Node23&#45;&gt;Node23</title>
<path fill="none" stroke="midnightblue" d="M906.17,-232.03C905.05,-236.95 899.5,-240.63 889.5,-240.63 873.5,-240.63 868.88,-231.2 875.63,-222.39"/>
<polygon fill="midnightblue" stroke="midnightblue" points="909.52,-231.02 903.37,-222.39 902.79,-232.97 909.52,-231.02"/>
</g>
<!-- Node24 -->
<g id="node24" class="node">
<title>Node24</title>
<g id="a_node24"><a xlink:href="group__grp__solver__driver.html#gacad623d4c5c006e9ad10116372f92ad3" target="_top" xlink:title="Constructs Beltrami field in given volume consistent with flux, helicity, rotational&#45;transform and/or...">
<polygon fill="white" stroke="black" points="745,-203.13 745,-222.13 796,-222.13 796,-203.13 745,-203.13"/>
<text text-anchor="middle" x="770.5" y="-210.13" font-family="Helvetica,sans-Serif" font-size="10.00">ma02aa</text>
</a>
</g>
</g>
<!-- Node23&#45;&gt;Node24 -->
<g id="edge49" class="edge">
<title>Node23&#45;&gt;Node24</title>
<path fill="none" stroke="midnightblue" d="M853.89,-212.63C835.43,-212.63 813.14,-212.63 796.4,-212.63"/>
<polygon fill="midnightblue" stroke="midnightblue" points="853.97,-216.13 863.97,-212.63 853.97,-209.13 853.97,-216.13"/>
</g>
<!-- Node24&#45;&gt;Node24 -->
<g id="edge54" class="edge">
<title>Node24&#45;&gt;Node24</title>
<path fill="none" stroke="midnightblue" d="M791.98,-232.03C790.55,-236.95 783.39,-240.63 770.5,-240.63 749.88,-240.63 743.92,-231.2 752.62,-222.39"/>
<polygon fill="midnightblue" stroke="midnightblue" points="795.16,-230.53 788.38,-222.39 788.6,-232.98 795.16,-230.53"/>
</g>
<!-- Node25 -->
<g id="node25" class="node">
<title>Node25</title>
<g id="a_node25"><a xlink:href="dfp100_8f90.html#a17a3ac15cc83994394f7b4cc05e5898e" target="_top" xlink:title="Split the work between MPI nodes and evaluate the global constraint.">
<polygon fill="white" stroke="black" points="631,-203.13 631,-222.13 677,-222.13 677,-203.13 631,-203.13"/>
<text text-anchor="middle" x="654" y="-210.13" font-family="Helvetica,sans-Serif" font-size="10.00">dfp100</text>
</a>
</g>
</g>
<!-- Node24&#45;&gt;Node25 -->
<g id="edge50" class="edge">
<title>Node24&#45;&gt;Node25</title>
<path fill="none" stroke="midnightblue" d="M734.72,-212.63C716.02,-212.63 693.52,-212.63 677.2,-212.63"/>
<polygon fill="midnightblue" stroke="midnightblue" points="734.94,-216.13 744.94,-212.63 734.94,-209.13 734.94,-216.13"/>
</g>
<!-- Node25&#45;&gt;Node4 -->
<g id="edge51" class="edge">
<title>Node25&#45;&gt;Node4</title>
<path fill="none" stroke="midnightblue" d="M620.94,-204.04C604.24,-199.57 584.29,-194.22 569.56,-190.28"/>
<polygon fill="midnightblue" stroke="midnightblue" points="620.27,-207.49 630.84,-206.7 622.08,-200.73 620.27,-207.49"/>
</g>
<!-- Node25&#45;&gt;Node20 -->
<g id="edge53" class="edge">
<title>Node25&#45;&gt;Node20</title>
<path fill="none" stroke="midnightblue" d="M621.08,-221.19C609.42,-224.31 596.16,-227.86 584.2,-231.07"/>
<polygon fill="midnightblue" stroke="midnightblue" points="622.08,-224.54 630.84,-218.57 620.27,-217.78 622.08,-224.54"/>
</g>
<!-- Node25&#45;&gt;Node25 -->
<g id="edge52" class="edge">
<title>Node25&#45;&gt;Node25</title>
<path fill="none" stroke="midnightblue" d="M673.63,-232.03C672.32,-236.95 665.77,-240.63 654,-240.63 635.16,-240.63 629.71,-231.2 637.66,-222.39"/>
<polygon fill="midnightblue" stroke="midnightblue" points="676.88,-230.72 670.34,-222.39 670.26,-232.99 676.88,-230.72"/>
</g>
</g>
</svg>
