<?xml version="1.0" encoding="UTF-8" standalone="no"?>
<!DOCTYPE svg PUBLIC "-//W3C//DTD SVG 1.1//EN"
 "http://www.w3.org/Graphics/SVG/1.1/DTD/svg11.dtd">
<!-- Generated by graphviz version 2.47.0 (20210407.0042)
 -->
<!-- Title: dforce Pages: 1 -->
<svg width="612pt" height="429pt"
 viewBox="0.00 0.00 612.00 429.25" xmlns="http://www.w3.org/2000/svg" xmlns:xlink="http://www.w3.org/1999/xlink">
<g id="graph0" class="graph" transform="scale(1 1) rotate(0) translate(4 425.25)">
<title>dforce</title>
<polygon fill="white" stroke="transparent" points="-4,4 -4,-425.25 608,-425.25 608,4 -4,4"/>
<!-- Node1 -->
<g id="node1" class="node">
<title>Node1</title>
<g id="a_node1"><a xlink:title="Calculates , where &#160;and , and .">
<polygon fill="#bfbfbf" stroke="black" points="560,-199.4 560,-218.4 604,-218.4 604,-199.4 560,-199.4"/>
<text text-anchor="middle" x="582" y="-206.4" font-family="Helvetica,sans-Serif" font-size="10.00">dforce</text>
</a>
</g>
</g>
<!-- Node2 -->
<g id="node2" class="node">
<title>Node2</title>
<g id="a_node2"><a xlink:href="group__grp__force__driver.html#gabbc245b3884ee8d8d3e2a52f25149f78" target="_top" xlink:title="fcn1">
<polygon fill="white" stroke="black" points="444,-332.4 444,-351.4 479,-351.4 479,-332.4 444,-332.4"/>
<text text-anchor="middle" x="461.5" y="-339.4" font-family="Helvetica,sans-Serif" font-size="10.00">fcn1</text>
</a>
</g>
</g>
<!-- Node1&#45;&gt;Node2 -->
<g id="edge1" class="edge">
<title>Node1&#45;&gt;Node2</title>
<path fill="none" stroke="midnightblue" d="M573.88,-228.08C564.99,-249.9 547.98,-285.52 524,-308.9 511.16,-321.42 492.61,-330.49 479.24,-335.92"/>
<polygon fill="midnightblue" stroke="midnightblue" points="577.21,-229.18 577.59,-218.59 570.69,-226.63 577.21,-229.18"/>
</g>
<!-- Node3 -->
<g id="node3" class="node">
<title>Node3</title>
<g id="a_node3"><a xlink:href="group__grp__force__driver.html#gaec14f81fbdbedafbc4189489ec8ae178" target="_top" xlink:title="Employs Newton method to find , where &#160;and &#160;is defined in dforce() .">
<polygon fill="white" stroke="black" points="315,-332.4 315,-351.4 363,-351.4 363,-332.4 315,-332.4"/>
<text text-anchor="middle" x="339" y="-339.4" font-family="Helvetica,sans-Serif" font-size="10.00">newton</text>
</a>
</g>
</g>
<!-- Node1&#45;&gt;Node3 -->
<g id="edge25" class="edge">
<title>Node1&#45;&gt;Node3</title>
<path fill="none" stroke="midnightblue" d="M556.99,-224.09C546.89,-230.37 534.96,-237.63 524,-243.9 464.48,-277.98 392.26,-315.3 358.75,-332.4"/>
<polygon fill="midnightblue" stroke="midnightblue" points="559.05,-226.93 565.67,-218.66 555.34,-221 559.05,-226.93"/>
</g>
<!-- Node4 -->
<g id="node4" class="node">
<title>Node4</title>
<g id="a_node4"><a xlink:href="group__grp__force__driver.html#ga8ccd6c7d901872702521d0a0edf95412" target="_top" xlink:title="fcn2">
<polygon fill="white" stroke="black" points="87,-379.4 87,-398.4 122,-398.4 122,-379.4 87,-379.4"/>
<text text-anchor="middle" x="104.5" y="-386.4" font-family="Helvetica,sans-Serif" font-size="10.00">fcn2</text>
</a>
</g>
</g>
<!-- Node1&#45;&gt;Node4 -->
<g id="edge12" class="edge">
<title>Node1&#45;&gt;Node4</title>
<path fill="none" stroke="midnightblue" d="M579.79,-228.94C576.63,-262.12 565.2,-328.06 524,-360.9 399.86,-459.84 183.67,-410.58 122.22,-393.77"/>
<polygon fill="midnightblue" stroke="midnightblue" points="583.3,-228.92 580.6,-218.68 576.32,-228.37 583.3,-228.92"/>
</g>
<!-- Node6 -->
<g id="node6" class="node">
<title>Node6</title>
<g id="a_node6"><a xlink:href="xspech_8f90.html#aea782eae089760a491c2c54f9903abcc" target="_top" xlink:title="Main program of SPEC.">
<polygon fill="white" stroke="black" points="81,-104.4 81,-123.4 128,-123.4 128,-104.4 81,-104.4"/>
<text text-anchor="middle" x="104.5" y="-111.4" font-family="Helvetica,sans-Serif" font-size="10.00">xspech</text>
</a>
</g>
</g>
<!-- Node1&#45;&gt;Node6 -->
<g id="edge33" class="edge">
<title>Node1&#45;&gt;Node6</title>
<path fill="none" stroke="midnightblue" d="M550.35,-197.74C541.89,-194.92 532.65,-192.07 524,-189.9 366.54,-150.34 323.03,-160.59 164,-127.9 152.13,-125.46 139.01,-122.36 128.2,-119.69"/>
<polygon fill="midnightblue" stroke="midnightblue" points="549.25,-201.06 559.84,-201 551.52,-194.44 549.25,-201.06"/>
</g>
<!-- Node8 -->
<g id="node8" class="node">
<title>Node8</title>
<g id="a_node8"><a xlink:href="dfp200_8f90.html#a6aca59cf350d7b1941f8389d50945a43" target="_top" xlink:title="get LU Beltrami matrices">
<polygon fill="white" stroke="black" points="399,-199.4 399,-218.4 524,-218.4 524,-199.4 399,-199.4"/>
<text text-anchor="middle" x="461.5" y="-206.4" font-family="Helvetica,sans-Serif" font-size="10.00">get_lu_beltrami_matrices</text>
</a>
</g>
</g>
<!-- Node1&#45;&gt;Node8 -->
<g id="edge13" class="edge">
<title>Node1&#45;&gt;Node8</title>
<path fill="none" stroke="midnightblue" d="M549.65,-208.9C541.75,-208.9 533,-208.9 524.17,-208.9"/>
<polygon fill="midnightblue" stroke="midnightblue" points="549.81,-212.4 559.81,-208.9 549.81,-205.4 549.81,-212.4"/>
</g>
<!-- Node13 -->
<g id="node13" class="node">
<title>Node13</title>
<g id="a_node13"><a xlink:href="group__grp__diagnostics.html#ga7401b50ec10c6598ee4a8112717a63ec" target="_top" xlink:title="Computes eigenvalues and eigenvectors of derivative matrix, .">
<polygon fill="white" stroke="black" points="199,-28.4 199,-47.4 244,-47.4 244,-28.4 199,-28.4"/>
<text text-anchor="middle" x="221.5" y="-35.4" font-family="Helvetica,sans-Serif" font-size="10.00">hesian</text>
</a>
</g>
</g>
<!-- Node1&#45;&gt;Node13 -->
<g id="edge23" class="edge">
<title>Node1&#45;&gt;Node13</title>
<path fill="none" stroke="midnightblue" d="M580.81,-188.89C579.3,-152.49 570.43,-75.69 524,-37.9 440.99,29.68 298.2,-10.71 244.12,-29.69"/>
<polygon fill="midnightblue" stroke="midnightblue" points="577.32,-189.29 581.09,-199.19 584.32,-189.1 577.32,-189.29"/>
</g>
<!-- Node14 -->
<g id="node14" class="node">
<title>Node14</title>
<g id="a_node14"><a xlink:href="group__grp__conjugate__gradient.html#ga4d8415226e62a9fdb42b0fd0b464251e" target="_top" xlink:title="Returns the energy functional and it&#39;s derivatives with respect to geometry.">
<polygon fill="white" stroke="black" points="437.5,-47.4 437.5,-66.4 485.5,-66.4 485.5,-47.4 437.5,-47.4"/>
<text text-anchor="middle" x="461.5" y="-54.4" font-family="Helvetica,sans-Serif" font-size="10.00">pc00ab</text>
</a>
</g>
</g>
<!-- Node1&#45;&gt;Node14 -->
<g id="edge26" class="edge">
<title>Node1&#45;&gt;Node14</title>
<path fill="none" stroke="midnightblue" d="M575.1,-189.78C566.85,-165.45 549.88,-123.21 524,-94.9 512.82,-82.67 496.82,-72.95 483.94,-66.4"/>
<polygon fill="midnightblue" stroke="midnightblue" points="571.78,-190.87 578.2,-199.29 578.44,-188.7 571.78,-190.87"/>
</g>
<!-- Node16 -->
<g id="node16" class="node">
<title>Node16</title>
<g id="a_node16"><a xlink:href="namespaceallglobal.html#ad32ae6194892fe7d876622a6455189e2" target="_top" xlink:title="The master node reads the input namelist and sets various internal variables. The relevant quantities...">
<polygon fill="white" stroke="black" points="420,-104.4 420,-123.4 503,-123.4 503,-104.4 420,-104.4"/>
<text text-anchor="middle" x="461.5" y="-111.4" font-family="Helvetica,sans-Serif" font-size="10.00">allglobal::readin</text>
</a>
</g>
</g>
<!-- Node1&#45;&gt;Node16 -->
<g id="edge28" class="edge">
<title>Node1&#45;&gt;Node16</title>
<path fill="none" stroke="midnightblue" d="M570.09,-190.42C559.91,-174.59 543.42,-152.15 524,-137.9 515.78,-131.86 505.84,-127.12 496.37,-123.51"/>
<polygon fill="midnightblue" stroke="midnightblue" points="567.34,-192.63 575.57,-199.29 573.29,-188.95 567.34,-192.63"/>
</g>
<!-- Node2&#45;&gt;Node3 -->
<g id="edge2" class="edge">
<title>Node2&#45;&gt;Node3</title>
<path fill="none" stroke="midnightblue" d="M433.51,-336.16C412.38,-334.72 383.31,-334.82 363.22,-336.44"/>
<polygon fill="midnightblue" stroke="midnightblue" points="433.48,-339.67 443.74,-337.05 434.09,-332.7 433.48,-339.67"/>
</g>
<!-- Node3&#45;&gt;Node2 -->
<g id="edge3" class="edge">
<title>Node3&#45;&gt;Node2</title>
<path fill="none" stroke="midnightblue" d="M373.21,-348C396.11,-349.17 425.58,-348.75 443.74,-346.74"/>
<polygon fill="midnightblue" stroke="midnightblue" points="373.42,-344.51 363.22,-347.36 372.97,-351.5 373.42,-344.51"/>
</g>
<!-- Node3&#45;&gt;Node4 -->
<g id="edge4" class="edge">
<title>Node3&#45;&gt;Node4</title>
<path fill="none" stroke="midnightblue" d="M305.1,-344.76C296.66,-347.16 287.55,-349.84 279,-351.9 222.34,-365.51 153.65,-374.4 122.42,-381.77"/>
<polygon fill="midnightblue" stroke="midnightblue" points="306.27,-348.07 314.97,-342.03 304.4,-341.32 306.27,-348.07"/>
</g>
<!-- Node5 -->
<g id="node5" class="node">
<title>Node5</title>
<g id="a_node5"><a xlink:href="group__grp__force__driver.html#ga382822b303cbf8c56d6f54dcb379caf2" target="_top" xlink:title="read or write force&#45;derivative matrix">
<polygon fill="white" stroke="black" points="189,-332.4 189,-351.4 254,-351.4 254,-332.4 189,-332.4"/>
<text text-anchor="middle" x="221.5" y="-339.4" font-family="Helvetica,sans-Serif" font-size="10.00">writereadgf</text>
</a>
</g>
</g>
<!-- Node3&#45;&gt;Node5 -->
<g id="edge6" class="edge">
<title>Node3&#45;&gt;Node5</title>
<path fill="none" stroke="midnightblue" d="M304.5,-335.71C288.69,-334.93 269.9,-334.96 254.3,-335.8"/>
<polygon fill="midnightblue" stroke="midnightblue" points="304.7,-339.23 314.9,-336.37 305.15,-332.24 304.7,-339.23"/>
</g>
<!-- Node3&#45;&gt;Node6 -->
<g id="edge9" class="edge">
<title>Node3&#45;&gt;Node6</title>
<path fill="none" stroke="midnightblue" d="M305.01,-331.29C254.91,-315.16 165.3,-286.19 164,-284.9 116.88,-238.39 107.69,-152.38 105.92,-123.58"/>
<polygon fill="midnightblue" stroke="midnightblue" points="304.16,-334.7 314.76,-334.43 306.31,-328.04 304.16,-334.7"/>
</g>
<!-- Node4&#45;&gt;Node3 -->
<g id="edge5" class="edge">
<title>Node4&#45;&gt;Node3</title>
<path fill="none" stroke="midnightblue" d="M132.59,-392.07C166.95,-390.62 227.87,-382.18 279,-369.9 297,-365.58 317.44,-358.48 328.92,-351.57"/>
<polygon fill="midnightblue" stroke="midnightblue" points="132.34,-388.58 122.42,-392.3 132.49,-395.58 132.34,-388.58"/>
</g>
<!-- Node5&#45;&gt;Node3 -->
<g id="edge8" class="edge">
<title>Node5&#45;&gt;Node3</title>
<path fill="none" stroke="midnightblue" d="M264.57,-348.42C281.56,-348.92 300.51,-348.59 314.9,-347.43"/>
<polygon fill="midnightblue" stroke="midnightblue" points="264.44,-344.91 254.3,-348 264.15,-351.91 264.44,-344.91"/>
</g>
<!-- Node5&#45;&gt;Node4 -->
<g id="edge7" class="edge">
<title>Node5&#45;&gt;Node4</title>
<path fill="none" stroke="midnightblue" d="M187.82,-355.25C166.35,-364.03 139.16,-375.14 122.05,-382.14"/>
<polygon fill="midnightblue" stroke="midnightblue" points="189.3,-358.43 197.23,-351.41 186.65,-351.95 189.3,-358.43"/>
</g>
<!-- Node7 -->
<g id="node7" class="node">
<title>Node7</title>
<g id="a_node7"><a xlink:href="xspech_8f90.html#a537af4990058c0b0f2cd8b3669af204f" target="_top" xlink:title="todo remark">
<polygon fill="white" stroke="black" points="0,-104.4 0,-123.4 45,-123.4 45,-104.4 0,-104.4"/>
<text text-anchor="middle" x="22.5" y="-111.4" font-family="Helvetica,sans-Serif" font-size="10.00">ending</text>
</a>
</g>
</g>
<!-- Node6&#45;&gt;Node7 -->
<g id="edge10" class="edge">
<title>Node6&#45;&gt;Node7</title>
<path fill="none" stroke="midnightblue" d="M70.65,-107.25C62.06,-107.01 53.01,-107.2 45.17,-107.82"/>
<polygon fill="midnightblue" stroke="midnightblue" points="70.63,-110.75 80.79,-107.74 70.97,-103.76 70.63,-110.75"/>
</g>
<!-- Node7&#45;&gt;Node6 -->
<g id="edge11" class="edge">
<title>Node7&#45;&gt;Node6</title>
<path fill="none" stroke="midnightblue" d="M55.22,-120.52C63.77,-120.79 72.84,-120.64 80.79,-120.05"/>
<polygon fill="midnightblue" stroke="midnightblue" points="55.34,-117.02 45.17,-119.97 54.96,-124.01 55.34,-117.02"/>
</g>
<!-- Node9 -->
<g id="node9" class="node">
<title>Node9</title>
<g id="a_node9"><a xlink:href="dfp200_8f90.html#a55ea75395f8c71731451e1add3720c7e" target="_top" xlink:title="Given the field consistent with the constraints and the geometry, computes local quantites related to...">
<polygon fill="white" stroke="black" points="316,-218.4 316,-237.4 362,-237.4 362,-218.4 316,-218.4"/>
<text text-anchor="middle" x="339" y="-225.4" font-family="Helvetica,sans-Serif" font-size="10.00">dfp200</text>
</a>
</g>
</g>
<!-- Node8&#45;&gt;Node9 -->
<g id="edge14" class="edge">
<title>Node8&#45;&gt;Node9</title>
<path fill="none" stroke="midnightblue" d="M388.69,-213.58C379.05,-215.29 369.82,-217.17 362.04,-219.06"/>
<polygon fill="midnightblue" stroke="midnightblue" points="389.56,-216.99 398.84,-211.87 388.4,-210.08 389.56,-216.99"/>
</g>
<!-- Node9&#45;&gt;Node1 -->
<g id="edge15" class="edge">
<title>Node9&#45;&gt;Node1</title>
<path fill="none" stroke="midnightblue" d="M372.45,-231.02C409.41,-233.85 471.48,-236.42 524,-227.9 536.15,-225.93 549.21,-221.74 559.76,-217.79"/>
<polygon fill="midnightblue" stroke="midnightblue" points="372.53,-227.51 362.28,-230.18 371.96,-234.49 372.53,-227.51"/>
</g>
<!-- Node9&#45;&gt;Node8 -->
<g id="edge20" class="edge">
<title>Node9&#45;&gt;Node8</title>
<path fill="none" stroke="midnightblue" d="M372.23,-228.87C392.1,-226.8 417.18,-222.69 435.53,-218.43"/>
<polygon fill="midnightblue" stroke="midnightblue" points="371.75,-225.4 362.1,-229.78 372.37,-232.37 371.75,-225.4"/>
</g>
<!-- Node10 -->
<g id="node10" class="node">
<title>Node10</title>
<g id="a_node10"><a xlink:href="dfp200_8f90.html#a7b64c7392b45d0042d8bd7379c0761a5" target="_top" xlink:title="Evaluate the derivative of the square of the magnetic field modulus. Add spectral constraint derivati...">
<polygon fill="white" stroke="black" points="184.5,-180.4 184.5,-199.4 258.5,-199.4 258.5,-180.4 184.5,-180.4"/>
<text text-anchor="middle" x="221.5" y="-187.4" font-family="Helvetica,sans-Serif" font-size="10.00">evaluate_dbb</text>
</a>
</g>
</g>
<!-- Node9&#45;&gt;Node10 -->
<g id="edge16" class="edge">
<title>Node9&#45;&gt;Node10</title>
<path fill="none" stroke="midnightblue" d="M313.31,-214.13C297.49,-207.73 276.69,-200.66 258.99,-195.58"/>
<polygon fill="midnightblue" stroke="midnightblue" points="312.33,-217.51 322.9,-218.2 315.07,-211.07 312.33,-217.51"/>
</g>
<!-- Node11 -->
<g id="node11" class="node">
<title>Node11</title>
<g id="a_node11"><a xlink:href="dfp200_8f90.html#a73ddf39ecc5228201fb643779e17cd36" target="_top" xlink:title="Evaluate mu and psip derivatives and store them in dmupfdx.">
<polygon fill="white" stroke="black" points="174,-256.4 174,-275.4 269,-275.4 269,-256.4 174,-256.4"/>
<text text-anchor="middle" x="221.5" y="-263.4" font-family="Helvetica,sans-Serif" font-size="10.00">evaluate_dmupfdx</text>
</a>
</g>
</g>
<!-- Node9&#45;&gt;Node11 -->
<g id="edge18" class="edge">
<title>Node9&#45;&gt;Node11</title>
<path fill="none" stroke="midnightblue" d="M305.95,-232.33C283.52,-238.52 254.6,-248.51 237.36,-256.31"/>
<polygon fill="midnightblue" stroke="midnightblue" points="306.94,-235.69 315.73,-229.77 305.17,-228.91 306.94,-235.69"/>
</g>
<!-- Node12 -->
<g id="node12" class="node">
<title>Node12</title>
<g id="a_node12"><a xlink:href="dfp200_8f90.html#a5e56f1f4b1e6df11a9cffa6237c37469" target="_top" xlink:title="This routine evaluates the value of the magnetic field once the interface is perturbed using matrix p...">
<polygon fill="white" stroke="black" points="164,-218.4 164,-237.4 279,-237.4 279,-218.4 164,-218.4"/>
<text text-anchor="middle" x="221.5" y="-225.4" font-family="Helvetica,sans-Serif" font-size="10.00">get_perturbed_solution</text>
</a>
</g>
</g>
<!-- Node9&#45;&gt;Node12 -->
<g id="edge21" class="edge">
<title>Node9&#45;&gt;Node12</title>
<path fill="none" stroke="midnightblue" d="M305.51,-221.76C297.3,-221.34 288.25,-221.13 279.23,-221.15"/>
<polygon fill="midnightblue" stroke="midnightblue" points="305.52,-225.27 315.73,-222.44 305.99,-218.28 305.52,-225.27"/>
</g>
<!-- Node10&#45;&gt;Node9 -->
<g id="edge17" class="edge">
<title>Node10&#45;&gt;Node9</title>
<path fill="none" stroke="midnightblue" d="M246.59,-203.43C266.96,-211.71 295.9,-221.18 315.73,-226.03"/>
<polygon fill="midnightblue" stroke="midnightblue" points="247.93,-200.2 237.36,-199.49 245.19,-206.64 247.93,-200.2"/>
</g>
<!-- Node11&#45;&gt;Node9 -->
<g id="edge19" class="edge">
<title>Node11&#45;&gt;Node9</title>
<path fill="none" stroke="midnightblue" d="M278.62,-254.18C294.95,-248.86 311.45,-242.76 322.9,-237.6"/>
<polygon fill="midnightblue" stroke="midnightblue" points="277.54,-250.86 269.06,-257.22 279.65,-257.53 277.54,-250.86"/>
</g>
<!-- Node12&#45;&gt;Node9 -->
<g id="edge22" class="edge">
<title>Node12&#45;&gt;Node9</title>
<path fill="none" stroke="midnightblue" d="M289.23,-234.58C298.76,-234.42 307.95,-234.01 315.73,-233.36"/>
<polygon fill="midnightblue" stroke="midnightblue" points="289.21,-231.08 279.23,-234.65 289.26,-238.08 289.21,-231.08"/>
</g>
<!-- Node13&#45;&gt;Node6 -->
<g id="edge24" class="edge">
<title>Node13&#45;&gt;Node6</title>
<path fill="none" stroke="midnightblue" d="M189.44,-48.96C180.91,-52.56 171.85,-56.93 164,-61.9 144.71,-74.11 125.54,-92.69 114.65,-104.02"/>
<polygon fill="midnightblue" stroke="midnightblue" points="190.77,-52.2 198.76,-45.23 188.17,-45.7 190.77,-52.2"/>
</g>
<!-- Node15 -->
<g id="node15" class="node">
<title>Node15</title>
<g id="a_node15"><a xlink:href="group__grp__conjugate__gradient.html#ga25a3bae2ff2ee0469b045de0d033398b" target="_top" xlink:title="Use preconditioned conjugate gradient method to find minimum of energy functional.">
<polygon fill="white" stroke="black" points="315,-28.4 315,-47.4 363,-47.4 363,-28.4 315,-28.4"/>
<text text-anchor="middle" x="339" y="-35.4" font-family="Helvetica,sans-Serif" font-size="10.00">pc00aa</text>
</a>
</g>
</g>
<!-- Node14&#45;&gt;Node15 -->
<g id="edge27" class="edge">
<title>Node14&#45;&gt;Node15</title>
<path fill="none" stroke="midnightblue" d="M427.16,-51.64C406.81,-48.43 381.31,-44.41 363.16,-41.55"/>
<polygon fill="midnightblue" stroke="midnightblue" points="426.84,-55.14 437.27,-53.24 427.93,-48.22 426.84,-55.14"/>
</g>
<!-- Node16&#45;&gt;Node6 -->
<g id="edge32" class="edge">
<title>Node16&#45;&gt;Node6</title>
<path fill="none" stroke="midnightblue" d="M409.66,-113.9C331.37,-113.9 184.44,-113.9 128.2,-113.9"/>
<polygon fill="midnightblue" stroke="midnightblue" points="409.78,-117.4 419.78,-113.9 409.78,-110.4 409.78,-117.4"/>
</g>
<!-- Node17 -->
<g id="node17" class="node">
<title>Node17</title>
<g id="a_node17"><a xlink:href="group__grp__initialization.html#ga28628de0fdb3b3497668007d8d0643bd" target="_top" xlink:title="Allocates and initializes internal arrays.">
<polygon fill="white" stroke="black" points="317,-66.4 317,-85.4 361,-85.4 361,-66.4 317,-66.4"/>
<text text-anchor="middle" x="339" y="-73.4" font-family="Helvetica,sans-Serif" font-size="10.00">preset</text>
</a>
</g>
</g>
<!-- Node16&#45;&gt;Node17 -->
<g id="edge29" class="edge">
<title>Node16&#45;&gt;Node17</title>
<path fill="none" stroke="midnightblue" d="M420.41,-101.26C400.65,-95.02 377.62,-87.76 361.28,-82.61"/>
<polygon fill="midnightblue" stroke="midnightblue" points="419.5,-104.64 430.09,-104.31 421.61,-97.96 419.5,-104.64"/>
</g>
<!-- Node17&#45;&gt;Node6 -->
<g id="edge31" class="edge">
<title>Node17&#45;&gt;Node6</title>
<path fill="none" stroke="midnightblue" d="M306.66,-79.29C271.71,-83.28 213.57,-90.57 164,-99.9 152.09,-102.14 138.97,-105.22 128.17,-107.93"/>
<polygon fill="midnightblue" stroke="midnightblue" points="307.19,-82.75 316.73,-78.15 306.4,-75.79 307.19,-82.75"/>
</g>
<!-- Node17&#45;&gt;Node13 -->
<g id="edge30" class="edge">
<title>Node17&#45;&gt;Node13</title>
<path fill="none" stroke="midnightblue" d="M307.3,-65.8C287.46,-59.27 262.13,-50.94 244.33,-45.08"/>
<polygon fill="midnightblue" stroke="midnightblue" points="306.22,-69.13 316.82,-68.93 308.41,-62.48 306.22,-69.13"/>
</g>
</g>
</svg>
