<?xml version="1.0" encoding="UTF-8" standalone="no"?>
<!DOCTYPE svg PUBLIC "-//W3C//DTD SVG 1.1//EN"
 "http://www.w3.org/Graphics/SVG/1.1/DTD/svg11.dtd">
<!-- Generated by graphviz version 2.49.3 (20211027.1534)
 -->
<!-- Title: packab Pages: 1 -->
<svg width="1096pt" height="510pt"
 viewBox="0.00 0.00 1096.00 510.00" xmlns="http://www.w3.org/2000/svg" xmlns:xlink="http://www.w3.org/1999/xlink">
<g id="graph0" class="graph" transform="scale(1 1) rotate(0) translate(4 506)">
<title>packab</title>
<polygon fill="white" stroke="transparent" points="-4,4 -4,-506 1092,-506 1092,4 -4,4"/>
<!-- Node1 -->
<g id="node1" class="node">
<title>Node1</title>
<g id="a_node1"><a xlink:title="Packs and unpacks Beltrami field solution vector.">
<polygon fill="#bfbfbf" stroke="black" points="1040,-397.5 1040,-416.5 1088,-416.5 1088,-397.5 1040,-397.5"/>
<text text-anchor="middle" x="1064" y="-404.5" font-family="Helvetica,sans-Serif" font-size="10.00">packab</text>
</a>
</g>
</g>
<!-- Node1&#45;&gt;Node1 -->
<g id="edge61" class="edge">
<title>Node1&#45;&gt;Node1</title>
<path fill="none" stroke="midnightblue" d="M1079.47,-426.77C1078.25,-431.5 1073.1,-435 1064,-435 1049.07,-435 1044.75,-425.57 1051.05,-416.76"/>
<polygon fill="midnightblue" stroke="midnightblue" points="1082.78,-425.6 1076.95,-416.76 1076,-427.31 1082.78,-425.6"/>
</g>
<!-- Node2 -->
<g id="node2" class="node">
<title>Node2</title>
<g id="a_node2"><a xlink:href="group__grp__global__force.html#ga38c9d3c50bd043707fefa5137c9dbf44" target="_top" xlink:title="Calculates , where &#160;and , and .">
<polygon fill="white" stroke="black" points="526,-207.5 526,-226.5 570,-226.5 570,-207.5 526,-207.5"/>
<text text-anchor="middle" x="548" y="-214.5" font-family="Helvetica,sans-Serif" font-size="10.00">dforce</text>
</a>
</g>
</g>
<!-- Node1&#45;&gt;Node2 -->
<g id="edge1" class="edge">
<title>Node1&#45;&gt;Node2</title>
<path fill="none" stroke="midnightblue" d="M1051.49,-388.76C1026.93,-352.32 965.52,-274 891.5,-274 891.5,-274 891.5,-274 712.5,-274 655.68,-274 593.64,-242.93 565.06,-226.67"/>
<polygon fill="midnightblue" stroke="midnightblue" points="1048.77,-390.99 1057.18,-397.43 1054.63,-387.15 1048.77,-390.99"/>
</g>
<!-- Node14 -->
<g id="node14" class="node">
<title>Node14</title>
<g id="a_node14"><a xlink:href="dfp200_8f90.html#a55ea75395f8c71731451e1add3720c7e" target="_top" xlink:title="Given the field consistent with the constraints and the geometry, computes local quantites related to...">
<polygon fill="white" stroke="black" points="282,-312.5 282,-331.5 328,-331.5 328,-312.5 282,-312.5"/>
<text text-anchor="middle" x="305" y="-319.5" font-family="Helvetica,sans-Serif" font-size="10.00">dfp200</text>
</a>
</g>
</g>
<!-- Node1&#45;&gt;Node14 -->
<g id="edge47" class="edge">
<title>Node1&#45;&gt;Node14</title>
<path fill="none" stroke="midnightblue" d="M1037.17,-392.62C1004.35,-375.74 945.47,-350 891.5,-350 891.5,-350 891.5,-350 547,-350 465.92,-350 370.51,-334.17 328.16,-326.31"/>
<polygon fill="midnightblue" stroke="midnightblue" points="1035.61,-395.76 1046.09,-397.33 1038.88,-389.57 1035.61,-395.76"/>
</g>
<!-- Node17 -->
<g id="node17" class="node">
<title>Node17</title>
<g id="a_node17"><a xlink:href="dfp200_8f90.html#a5e56f1f4b1e6df11a9cffa6237c37469" target="_top" xlink:title="This routine evaluates the value of the magnetic field once the interface is perturbed using matrix p...">
<polygon fill="white" stroke="black" points="130,-383.5 130,-402.5 245,-402.5 245,-383.5 130,-383.5"/>
<text text-anchor="middle" x="187.5" y="-390.5" font-family="Helvetica,sans-Serif" font-size="10.00">get_perturbed_solution</text>
</a>
</g>
</g>
<!-- Node1&#45;&gt;Node17 -->
<g id="edge48" class="edge">
<title>Node1&#45;&gt;Node17</title>
<path fill="none" stroke="midnightblue" d="M1048.45,-424.75C1037.39,-437.24 1021.2,-453.53 1004,-464 958.92,-491.45 944.28,-502 891.5,-502 891.5,-502 891.5,-502 426.5,-502 331.52,-502 232.99,-429.35 200.02,-402.67"/>
<polygon fill="midnightblue" stroke="midnightblue" points="1051.39,-426.7 1055.23,-416.83 1046.07,-422.15 1051.39,-426.7"/>
</g>
<!-- Node21 -->
<g id="node21" class="node">
<title>Node21</title>
<g id="a_node21"><a xlink:href="group__grp__solver__driver.html#gacad623d4c5c006e9ad10116372f92ad3" target="_top" xlink:title="Constructs Beltrami field in given volume consistent with flux, helicity, rotational&#45;transform and/or...">
<polygon fill="white" stroke="black" points="688,-416.5 688,-435.5 739,-435.5 739,-416.5 688,-416.5"/>
<text text-anchor="middle" x="713.5" y="-423.5" font-family="Helvetica,sans-Serif" font-size="10.00">ma02aa</text>
</a>
</g>
</g>
<!-- Node1&#45;&gt;Node21 -->
<g id="edge49" class="edge">
<title>Node1&#45;&gt;Node21</title>
<path fill="none" stroke="midnightblue" d="M1044.27,-423.04C1033.31,-431.36 1018.76,-440.66 1004,-445 906.36,-473.72 875.6,-460.43 775,-445 762.92,-443.15 749.94,-439.33 739.12,-435.6"/>
<polygon fill="midnightblue" stroke="midnightblue" points="1046.58,-425.67 1052.22,-416.7 1042.22,-420.2 1046.58,-425.67"/>
</g>
<!-- Node23 -->
<g id="node23" class="node">
<title>Node23</title>
<g id="a_node23"><a xlink:href="mp00ac_8f90.html#ae9fe335bb4916face9f9d19ce8c0f5d7" target="_top" xlink:title="compute a.x by either by coumputing it directly, or using a matrix free method">
<polygon fill="white" stroke="black" points="955,-416.5 955,-435.5 1004,-435.5 1004,-416.5 955,-416.5"/>
<text text-anchor="middle" x="979.5" y="-423.5" font-family="Helvetica,sans-Serif" font-size="10.00">matvec</text>
</a>
</g>
</g>
<!-- Node1&#45;&gt;Node23 -->
<g id="edge55" class="edge">
<title>Node1&#45;&gt;Node23</title>
<path fill="none" stroke="midnightblue" d="M1029.57,-414.7C1021.09,-416.65 1012.15,-418.71 1004.27,-420.53"/>
<polygon fill="midnightblue" stroke="midnightblue" points="1030.62,-418.05 1039.58,-412.39 1029.05,-411.23 1030.62,-418.05"/>
</g>
<!-- Node25 -->
<g id="node25" class="node">
<title>Node25</title>
<g id="a_node25"><a xlink:href="group__grp__solver.html#ga6626839aff500f060beb5bce2b90c447" target="_top" xlink:title="Solves Beltrami/vacuum (linear) system, given matrices.unpacking fluxes, helicity multiplier">
<polygon fill="white" stroke="black" points="775,-398.5 775,-417.5 826,-417.5 826,-398.5 775,-398.5"/>
<text text-anchor="middle" x="800.5" y="-405.5" font-family="Helvetica,sans-Serif" font-size="10.00">mp00ac</text>
</a>
</g>
</g>
<!-- Node1&#45;&gt;Node25 -->
<g id="edge60" class="edge">
<title>Node1&#45;&gt;Node25</title>
<path fill="none" stroke="midnightblue" d="M1029.57,-406.83C989.68,-406.67 920.97,-406.51 862,-407 850.23,-407.1 837.18,-407.3 826.22,-407.5"/>
<polygon fill="midnightblue" stroke="midnightblue" points="1029.77,-410.33 1039.79,-406.88 1029.8,-403.33 1029.77,-410.33"/>
</g>
<!-- Node2&#45;&gt;Node2 -->
<g id="edge13" class="edge">
<title>Node2&#45;&gt;Node2</title>
<path fill="none" stroke="midnightblue" d="M562.73,-236.77C561.58,-241.5 556.66,-245 548,-245 533.78,-245 529.67,-235.57 535.67,-226.76"/>
<polygon fill="midnightblue" stroke="midnightblue" points="566.07,-235.66 560.33,-226.76 559.26,-237.3 566.07,-235.66"/>
</g>
<!-- Node3 -->
<g id="node3" class="node">
<title>Node3</title>
<g id="a_node3"><a xlink:href="namespaceallglobal.html#a7824bc37519fe88336534ce90ab2af16" target="_top" xlink:title=" ">
<polygon fill="white" stroke="black" points="370.5,-226.5 370.5,-245.5 484.5,-245.5 484.5,-226.5 370.5,-226.5"/>
<text text-anchor="middle" x="427.5" y="-233.5" font-family="Helvetica,sans-Serif" font-size="10.00">allglobal::check_inputs</text>
</a>
</g>
</g>
<!-- Node2&#45;&gt;Node3 -->
<g id="edge2" class="edge">
<title>Node2&#45;&gt;Node3</title>
<path fill="none" stroke="midnightblue" d="M515.94,-221.98C506.31,-223.52 495.38,-225.28 484.59,-227.01"/>
<polygon fill="midnightblue" stroke="midnightblue" points="516.49,-225.44 525.81,-220.4 515.39,-218.52 516.49,-225.44"/>
</g>
<!-- Node6 -->
<g id="node6" class="node">
<title>Node6</title>
<g id="a_node6"><a xlink:href="xspech_8f90.html#a48f45478dc2c9f70ea8aa1c60ad06503" target="_top" xlink:title="This is the main &quot;driver&quot; for the physics part of SPEC.">
<polygon fill="white" stroke="black" points="168.5,-146.5 168.5,-165.5 206.5,-165.5 206.5,-146.5 168.5,-146.5"/>
<text text-anchor="middle" x="187.5" y="-153.5" font-family="Helvetica,sans-Serif" font-size="10.00">spec</text>
</a>
</g>
</g>
<!-- Node2&#45;&gt;Node6 -->
<g id="edge46" class="edge">
<title>Node2&#45;&gt;Node6</title>
<path fill="none" stroke="midnightblue" d="M529.16,-202.76C518.02,-197.71 503.33,-193.03 490,-190 384.05,-165.89 253.92,-152.78 206.7,-153.2"/>
<polygon fill="midnightblue" stroke="midnightblue" points="527.75,-205.97 538.24,-207.47 530.97,-199.76 527.75,-205.97"/>
</g>
<!-- Node9 -->
<g id="node9" class="node">
<title>Node9</title>
<g id="a_node9"><a xlink:href="group__grp__force__driver.html#gabbc245b3884ee8d8d3e2a52f25149f78" target="_top" xlink:title="Objective to be given to the Newton solver, using only function values.">
<polygon fill="white" stroke="black" points="410,-0.5 410,-19.5 445,-19.5 445,-0.5 410,-0.5"/>
<text text-anchor="middle" x="427.5" y="-7.5" font-family="Helvetica,sans-Serif" font-size="10.00">fcn1</text>
</a>
</g>
</g>
<!-- Node2&#45;&gt;Node9 -->
<g id="edge14" class="edge">
<title>Node2&#45;&gt;Node9</title>
<path fill="none" stroke="midnightblue" d="M544.3,-197.3C538.95,-164.29 524.39,-97.03 490,-52 478.15,-36.48 458.88,-24.66 445.07,-17.57"/>
<polygon fill="midnightblue" stroke="midnightblue" points="540.88,-198.08 545.83,-207.45 547.8,-197.04 540.88,-198.08"/>
</g>
<!-- Node10 -->
<g id="node10" class="node">
<title>Node10</title>
<g id="a_node10"><a xlink:href="group__grp__force__driver.html#gaec14f81fbdbedafbc4189489ec8ae178" target="_top" xlink:title="Employs Newton method to find , where &#160;and &#160;is defined in dforce() .">
<polygon fill="white" stroke="black" points="281,-23.5 281,-42.5 329,-42.5 329,-23.5 281,-23.5"/>
<text text-anchor="middle" x="305" y="-30.5" font-family="Helvetica,sans-Serif" font-size="10.00">newton</text>
</a>
</g>
</g>
<!-- Node2&#45;&gt;Node10 -->
<g id="edge41" class="edge">
<title>Node2&#45;&gt;Node10</title>
<path fill="none" stroke="midnightblue" d="M543.45,-197.36C537.4,-169.51 522.44,-118.72 490,-90 477.7,-79.11 375.87,-51.35 329.21,-39.04"/>
<polygon fill="midnightblue" stroke="midnightblue" points="540.08,-198.33 545.47,-207.45 546.94,-196.96 540.08,-198.33"/>
</g>
<!-- Node11 -->
<g id="node11" class="node">
<title>Node11</title>
<g id="a_node11"><a xlink:href="group__grp__force__driver.html#ga8ccd6c7d901872702521d0a0edf95412" target="_top" xlink:title="Objective to be given to the Newton solver, using function values and derivatives.">
<polygon fill="white" stroke="black" points="29.5,-33.5 29.5,-52.5 64.5,-52.5 64.5,-33.5 29.5,-33.5"/>
<text text-anchor="middle" x="47" y="-40.5" font-family="Helvetica,sans-Serif" font-size="10.00">fcn2</text>
</a>
</g>
</g>
<!-- Node2&#45;&gt;Node11 -->
<g id="edge26" class="edge">
<title>Node2&#45;&gt;Node11</title>
<path fill="none" stroke="midnightblue" d="M530.05,-200.39C519.36,-190.78 504.82,-179.21 490,-172 341.98,-100 284.33,-142.25 130,-85 106.01,-76.1 79.97,-61.92 63.82,-52.53"/>
<polygon fill="midnightblue" stroke="midnightblue" points="527.71,-202.99 537.41,-207.25 532.48,-197.87 527.71,-202.99"/>
</g>
<!-- Node13 -->
<g id="node13" class="node">
<title>Node13</title>
<g id="a_node13"><a xlink:href="dfp200_8f90.html#a6aca59cf350d7b1941f8389d50945a43" target="_top" xlink:title="get LU Beltrami matrices">
<polygon fill="white" stroke="black" points="365,-302.5 365,-321.5 490,-321.5 490,-302.5 365,-302.5"/>
<text text-anchor="middle" x="427.5" y="-309.5" font-family="Helvetica,sans-Serif" font-size="10.00">get_lu_beltrami_matrices</text>
</a>
</g>
</g>
<!-- Node2&#45;&gt;Node13 -->
<g id="edge27" class="edge">
<title>Node2&#45;&gt;Node13</title>
<path fill="none" stroke="midnightblue" d="M536.09,-235.48C525.91,-251.31 509.42,-273.75 490,-288 481.78,-294.04 471.84,-298.78 462.37,-302.39"/>
<polygon fill="midnightblue" stroke="midnightblue" points="539.29,-236.95 541.57,-226.61 533.34,-233.27 539.29,-236.95"/>
</g>
<!-- Node18 -->
<g id="node18" class="node">
<title>Node18</title>
<g id="a_node18"><a xlink:href="group__grp__output.html#ga7401b50ec10c6598ee4a8112717a63ec" target="_top" xlink:title="Computes eigenvalues and eigenvectors of derivative matrix, &#160;and saves them to .ext....">
<polygon fill="white" stroke="black" points="282.5,-188.5 282.5,-207.5 327.5,-207.5 327.5,-188.5 282.5,-188.5"/>
<text text-anchor="middle" x="305" y="-195.5" font-family="Helvetica,sans-Serif" font-size="10.00">hesian</text>
</a>
</g>
</g>
<!-- Node2&#45;&gt;Node18 -->
<g id="edge38" class="edge">
<title>Node2&#45;&gt;Node18</title>
<path fill="none" stroke="midnightblue" d="M515.44,-214.51C465.73,-210.59 370.43,-203.08 327.69,-199.71"/>
<polygon fill="midnightblue" stroke="midnightblue" points="515.37,-218.02 525.61,-215.31 515.92,-211.04 515.37,-218.02"/>
</g>
<!-- Node19 -->
<g id="node19" class="node">
<title>Node19</title>
<g id="a_node19"><a xlink:href="group__grp__conjugate__gradient.html#ga4d8415226e62a9fdb42b0fd0b464251e" target="_top" xlink:title="Returns the energy functional and it&#39;s derivatives with respect to geometry.">
<polygon fill="white" stroke="black" points="403.5,-378.5 403.5,-397.5 451.5,-397.5 451.5,-378.5 403.5,-378.5"/>
<text text-anchor="middle" x="427.5" y="-385.5" font-family="Helvetica,sans-Serif" font-size="10.00">pc00ab</text>
</a>
</g>
</g>
<!-- Node2&#45;&gt;Node19 -->
<g id="edge42" class="edge">
<title>Node2&#45;&gt;Node19</title>
<path fill="none" stroke="midnightblue" d="M539.94,-236.05C530.65,-259.7 512.8,-300.6 490,-331 475.85,-349.87 454.98,-367.68 441.56,-378.22"/>
<polygon fill="midnightblue" stroke="midnightblue" points="543.29,-237.1 543.6,-226.51 536.75,-234.6 543.29,-237.1"/>
</g>
<!-- Node4 -->
<g id="node4" class="node">
<title>Node4</title>
<g id="a_node4"><a xlink:href="xspech_8f90.html#a9fdc71dffd7c61ee4588a3f80d3ab9ce" target="_top" xlink:title="Main subroutine of SPEC.">
<polygon fill="white" stroke="black" points="281.5,-244.5 281.5,-263.5 328.5,-263.5 328.5,-244.5 281.5,-244.5"/>
<text text-anchor="middle" x="305" y="-251.5" font-family="Helvetica,sans-Serif" font-size="10.00">xspech</text>
</a>
</g>
</g>
<!-- Node3&#45;&gt;Node4 -->
<g id="edge3" class="edge">
<title>Node3&#45;&gt;Node4</title>
<path fill="none" stroke="midnightblue" d="M360.45,-245.87C349.06,-247.57 337.95,-249.23 328.77,-250.6"/>
<polygon fill="midnightblue" stroke="midnightblue" points="361.11,-249.31 370.48,-244.37 360.08,-242.38 361.11,-249.31"/>
</g>
<!-- Node4&#45;&gt;Node4 -->
<g id="edge12" class="edge">
<title>Node4&#45;&gt;Node4</title>
<path fill="none" stroke="midnightblue" d="M326.48,-273.4C325.05,-278.31 317.89,-282 305,-282 284.38,-282 278.42,-272.57 287.12,-263.76"/>
<polygon fill="midnightblue" stroke="midnightblue" points="329.66,-271.9 322.88,-263.76 323.1,-274.35 329.66,-271.9"/>
</g>
<!-- Node5 -->
<g id="node5" class="node">
<title>Node5</title>
<g id="a_node5"><a xlink:href="xspech_8f90.html#a1451823a7b97101a797de616250752c1" target="_top" xlink:title="Final diagnostics.">
<polygon fill="white" stroke="black" points="143,-260.5 143,-279.5 232,-279.5 232,-260.5 143,-260.5"/>
<text text-anchor="middle" x="187.5" y="-267.5" font-family="Helvetica,sans-Serif" font-size="10.00">final_diagnostics</text>
</a>
</g>
</g>
<!-- Node4&#45;&gt;Node5 -->
<g id="edge4" class="edge">
<title>Node4&#45;&gt;Node5</title>
<path fill="none" stroke="midnightblue" d="M271.06,-252.4C253.46,-253.95 232.05,-257.03 215.45,-260.45"/>
<polygon fill="midnightblue" stroke="midnightblue" points="271.74,-255.86 281.46,-251.64 271.23,-248.88 271.74,-255.86"/>
</g>
<!-- Node4&#45;&gt;Node6 -->
<g id="edge6" class="edge">
<title>Node4&#45;&gt;Node6</title>
<path fill="none" stroke="midnightblue" d="M292.24,-237.05C288.4,-233.49 284.29,-229.82 281,-226 260.72,-202.42 269.23,-185.49 245,-166 233.95,-157.11 218.55,-152.3 206.61,-151.12"/>
<polygon fill="midnightblue" stroke="midnightblue" points="289.85,-239.61 299.37,-244.26 294.83,-234.69 289.85,-239.61"/>
</g>
<!-- Node8 -->
<g id="node8" class="node">
<title>Node8</title>
<g id="a_node8"><a xlink:href="xspech_8f90.html#a95271e8805067f801b5d4e524d6901d4" target="_top" xlink:title="Main program of SPEC.">
<polygon fill="white" stroke="black" points="155.5,-184.5 155.5,-203.5 219.5,-203.5 219.5,-184.5 155.5,-184.5"/>
<text text-anchor="middle" x="187.5" y="-191.5" font-family="Helvetica,sans-Serif" font-size="10.00">spec_main</text>
</a>
</g>
</g>
<!-- Node4&#45;&gt;Node8 -->
<g id="edge11" class="edge">
<title>Node4&#45;&gt;Node8</title>
<path fill="none" stroke="midnightblue" d="M280.6,-238.64C269.95,-231.93 257.05,-224.19 245,-218 234.76,-212.74 223.11,-207.64 213.05,-203.51"/>
<polygon fill="midnightblue" stroke="midnightblue" points="279,-241.77 289.31,-244.21 282.77,-235.87 279,-241.77"/>
</g>
<!-- Node5&#45;&gt;Node4 -->
<g id="edge5" class="edge">
<title>Node5&#45;&gt;Node4</title>
<path fill="none" stroke="midnightblue" d="M242.05,-269.32C255.94,-267.5 270.15,-265.11 281.46,-262.6"/>
<polygon fill="midnightblue" stroke="midnightblue" points="241.54,-265.85 232.04,-270.53 242.39,-272.8 241.54,-265.85"/>
</g>
<!-- Node6&#45;&gt;Node2 -->
<g id="edge7" class="edge">
<title>Node6&#45;&gt;Node2</title>
<path fill="none" stroke="midnightblue" d="M216.84,-163.66C270.59,-172.51 390.88,-185.44 490,-208 502.04,-210.74 515.2,-214.82 525.84,-217.5"/>
<polygon fill="midnightblue" stroke="midnightblue" points="217.15,-160.17 206.7,-161.89 215.95,-167.06 217.15,-160.17"/>
</g>
<!-- Node6&#45;&gt;Node4 -->
<g id="edge10" class="edge">
<title>Node6&#45;&gt;Node4</title>
<path fill="none" stroke="midnightblue" d="M213.83,-168.75C224.31,-172.3 236.08,-176.82 245,-184 269.23,-203.49 260.72,-220.42 281,-244 281.14,-244.16 281.27,-244.31 281.41,-244.47"/>
<polygon fill="midnightblue" stroke="midnightblue" points="214.9,-165.42 204.31,-165.59 212.7,-172.06 214.9,-165.42"/>
</g>
<!-- Node7 -->
<g id="node7" class="node">
<title>Node7</title>
<g id="a_node7"><a xlink:href="group__grp__output.html#ga0f962c09cd5d5eba99f1cba043cb3898" target="_top" xlink:title="Initialize the interface to the HDF5 library and open the output file.">
<polygon fill="white" stroke="black" points="0,-184.5 0,-203.5 94,-203.5 94,-184.5 0,-184.5"/>
<text text-anchor="middle" x="47" y="-191.5" font-family="Helvetica,sans-Serif" font-size="10.00">sphdf5::init_outfile</text>
</a>
</g>
</g>
<!-- Node6&#45;&gt;Node7 -->
<g id="edge8" class="edge">
<title>Node6&#45;&gt;Node7</title>
<path fill="none" stroke="midnightblue" d="M158.74,-163.62C136.91,-169.61 106.37,-177.98 82.89,-184.43"/>
<polygon fill="midnightblue" stroke="midnightblue" points="159.68,-166.99 168.39,-160.97 157.82,-160.24 159.68,-166.99"/>
</g>
<!-- Node7&#45;&gt;Node4 -->
<g id="edge9" class="edge">
<title>Node7&#45;&gt;Node4</title>
<path fill="none" stroke="midnightblue" d="M98.53,-205.84C153.98,-218.84 240.5,-239.12 281.28,-248.68"/>
<polygon fill="midnightblue" stroke="midnightblue" points="99.09,-202.38 88.56,-203.51 97.5,-209.2 99.09,-202.38"/>
</g>
<!-- Node9&#45;&gt;Node9 -->
<g id="edge15" class="edge">
<title>Node9&#45;&gt;Node9</title>
<path fill="none" stroke="midnightblue" d="M450,-27.73C449.8,-33.46 442.3,-38 427.5,-38 405.47,-38 399.62,-27.93 409.94,-18.89"/>
<polygon fill="midnightblue" stroke="midnightblue" points="452.99,-25.91 445.06,-18.89 446.88,-29.33 452.99,-25.91"/>
</g>
<!-- Node9&#45;&gt;Node10 -->
<g id="edge16" class="edge">
<title>Node9&#45;&gt;Node10</title>
<path fill="none" stroke="midnightblue" d="M399.6,-9.4C378.01,-12.05 348.07,-17.89 327.92,-23.47"/>
<polygon fill="midnightblue" stroke="midnightblue" points="400.16,-12.86 409.74,-8.35 399.44,-5.9 400.16,-12.86"/>
</g>
<!-- Node10&#45;&gt;Node6 -->
<g id="edge22" class="edge">
<title>Node10&#45;&gt;Node6</title>
<path fill="none" stroke="midnightblue" d="M288.06,-49.98C263.46,-76.18 217.05,-125.6 197.52,-146.39"/>
<polygon fill="midnightblue" stroke="midnightblue" points="290.64,-52.34 294.94,-42.65 285.54,-47.55 290.64,-52.34"/>
</g>
<!-- Node10&#45;&gt;Node9 -->
<g id="edge17" class="edge">
<title>Node10&#45;&gt;Node9</title>
<path fill="none" stroke="midnightblue" d="M339.21,-32.77C362.11,-29.57 391.58,-23.52 409.74,-18.04"/>
<polygon fill="midnightblue" stroke="midnightblue" points="338.7,-29.3 329.22,-34.03 339.57,-36.25 338.7,-29.3"/>
</g>
<!-- Node10&#45;&gt;Node10 -->
<g id="edge21" class="edge">
<title>Node10&#45;&gt;Node10</title>
<path fill="none" stroke="midnightblue" d="M326.48,-52.4C325.05,-57.31 317.89,-61 305,-61 284.38,-61 278.42,-51.57 287.12,-42.76"/>
<polygon fill="midnightblue" stroke="midnightblue" points="329.66,-50.9 322.88,-42.76 323.1,-53.35 329.66,-50.9"/>
</g>
<!-- Node10&#45;&gt;Node11 -->
<g id="edge18" class="edge">
<title>Node10&#45;&gt;Node11</title>
<path fill="none" stroke="midnightblue" d="M270.49,-29.58C215.08,-28.7 106.32,-33.34 64.72,-38.79"/>
<polygon fill="midnightblue" stroke="midnightblue" points="270.75,-33.08 280.83,-29.82 270.92,-26.08 270.75,-33.08"/>
</g>
<!-- Node12 -->
<g id="node12" class="node">
<title>Node12</title>
<g id="a_node12"><a xlink:href="group__grp__output.html#ga382822b303cbf8c56d6f54dcb379caf2" target="_top" xlink:title="read or write force&#45;derivative matrix .ext.sp.DF">
<polygon fill="white" stroke="black" points="155,-56.5 155,-75.5 220,-75.5 220,-56.5 155,-56.5"/>
<text text-anchor="middle" x="187.5" y="-63.5" font-family="Helvetica,sans-Serif" font-size="10.00">writereadgf</text>
</a>
</g>
</g>
<!-- Node10&#45;&gt;Node12 -->
<g id="edge23" class="edge">
<title>Node10&#45;&gt;Node12</title>
<path fill="none" stroke="midnightblue" d="M271.11,-36.24C249.44,-41.33 222.01,-49.6 204.85,-56.45"/>
<polygon fill="midnightblue" stroke="midnightblue" points="271.9,-39.65 280.9,-34.07 270.38,-32.81 271.9,-39.65"/>
</g>
<!-- Node11&#45;&gt;Node10 -->
<g id="edge20" class="edge">
<title>Node11&#45;&gt;Node10</title>
<path fill="none" stroke="midnightblue" d="M74.85,-46.29C125.28,-47.62 233.36,-43.31 280.83,-37.99"/>
<polygon fill="midnightblue" stroke="midnightblue" points="74.85,-42.78 64.72,-45.9 74.58,-49.78 74.85,-42.78"/>
</g>
<!-- Node11&#45;&gt;Node11 -->
<g id="edge19" class="edge">
<title>Node11&#45;&gt;Node11</title>
<path fill="none" stroke="midnightblue" d="M72.47,-57.41C76,-64.59 67.51,-71 47,-71 19.66,-71 13.67,-59.61 29.06,-50.17"/>
<polygon fill="midnightblue" stroke="midnightblue" points="74.58,-54.58 64.94,-50.17 69.73,-59.62 74.58,-54.58"/>
</g>
<!-- Node12&#45;&gt;Node10 -->
<g id="edge25" class="edge">
<title>Node12&#45;&gt;Node10</title>
<path fill="none" stroke="midnightblue" d="M230.05,-60.64C249.89,-55.57 272.51,-48.58 287.45,-42.63"/>
<polygon fill="midnightblue" stroke="midnightblue" points="229.16,-57.25 220.28,-63.02 230.83,-64.05 229.16,-57.25"/>
</g>
<!-- Node12&#45;&gt;Node11 -->
<g id="edge24" class="edge">
<title>Node12&#45;&gt;Node11</title>
<path fill="none" stroke="midnightblue" d="M144.76,-59.07C117.8,-54.59 84.2,-49.01 64.52,-45.74"/>
<polygon fill="midnightblue" stroke="midnightblue" points="144.29,-62.54 154.73,-60.72 145.43,-55.63 144.29,-62.54"/>
</g>
<!-- Node13&#45;&gt;Node14 -->
<g id="edge28" class="edge">
<title>Node13&#45;&gt;Node14</title>
<path fill="none" stroke="midnightblue" d="M354.69,-311.32C345.05,-312.31 335.82,-313.5 328.04,-314.81"/>
<polygon fill="midnightblue" stroke="midnightblue" points="355.21,-314.79 364.84,-310.37 354.55,-307.82 355.21,-314.79"/>
</g>
<!-- Node14&#45;&gt;Node2 -->
<g id="edge29" class="edge">
<title>Node14&#45;&gt;Node2</title>
<path fill="none" stroke="midnightblue" d="M332.52,-307.83C342.54,-302.78 354.14,-297.29 365,-293 419.01,-271.68 437.5,-279.81 490,-255 506.56,-247.17 523.82,-235.01 534.95,-226.56"/>
<polygon fill="midnightblue" stroke="midnightblue" points="330.77,-304.79 323.48,-312.48 333.97,-311.02 330.77,-304.79"/>
</g>
<!-- Node14&#45;&gt;Node13 -->
<g id="edge35" class="edge">
<title>Node14&#45;&gt;Node13</title>
<path fill="none" stroke="midnightblue" d="M338.36,-325.38C353.66,-324.92 372.04,-323.49 388.04,-321.53"/>
<polygon fill="midnightblue" stroke="midnightblue" points="338.27,-321.88 328.33,-325.53 338.38,-328.88 338.27,-321.88"/>
</g>
<!-- Node14&#45;&gt;Node14 -->
<g id="edge30" class="edge">
<title>Node14&#45;&gt;Node14</title>
<path fill="none" stroke="midnightblue" d="M326.48,-341.4C325.05,-346.31 317.89,-350 305,-350 284.38,-350 278.42,-340.57 287.12,-331.76"/>
<polygon fill="midnightblue" stroke="midnightblue" points="329.66,-339.9 322.88,-331.76 323.1,-342.35 329.66,-339.9"/>
</g>
<!-- Node15 -->
<g id="node15" class="node">
<title>Node15</title>
<g id="a_node15"><a xlink:href="dfp200_8f90.html#a7b64c7392b45d0042d8bd7379c0761a5" target="_top" xlink:title="Evaluate the derivative of the square of the magnetic field modulus. Add spectral constraint derivati...">
<polygon fill="white" stroke="black" points="150.5,-307.5 150.5,-326.5 224.5,-326.5 224.5,-307.5 150.5,-307.5"/>
<text text-anchor="middle" x="187.5" y="-314.5" font-family="Helvetica,sans-Serif" font-size="10.00">evaluate_dbb</text>
</a>
</g>
</g>
<!-- Node14&#45;&gt;Node15 -->
<g id="edge31" class="edge">
<title>Node14&#45;&gt;Node15</title>
<path fill="none" stroke="midnightblue" d="M271.66,-314.47C257.08,-313.08 239.81,-312.27 224.79,-312.25"/>
<polygon fill="midnightblue" stroke="midnightblue" points="271.41,-317.96 281.73,-315.58 272.17,-311 271.41,-317.96"/>
</g>
<!-- Node16 -->
<g id="node16" class="node">
<title>Node16</title>
<g id="a_node16"><a xlink:href="dfp200_8f90.html#a73ddf39ecc5228201fb643779e17cd36" target="_top" xlink:title="Evaluate mu and psip derivatives and store them in dmupfdx.">
<polygon fill="white" stroke="black" points="140,-345.5 140,-364.5 235,-364.5 235,-345.5 140,-345.5"/>
<text text-anchor="middle" x="187.5" y="-352.5" font-family="Helvetica,sans-Serif" font-size="10.00">evaluate_dmupfdx</text>
</a>
</g>
</g>
<!-- Node14&#45;&gt;Node16 -->
<g id="edge33" class="edge">
<title>Node14&#45;&gt;Node16</title>
<path fill="none" stroke="midnightblue" d="M271.89,-325.05C250.06,-330.15 222.1,-338.55 204.74,-345.49"/>
<polygon fill="midnightblue" stroke="midnightblue" points="272.71,-328.46 281.73,-322.9 271.21,-321.62 272.71,-328.46"/>
</g>
<!-- Node14&#45;&gt;Node17 -->
<g id="edge36" class="edge">
<title>Node14&#45;&gt;Node17</title>
<path fill="none" stroke="midnightblue" d="M280.25,-338.5C270.11,-347.36 257.69,-357.68 245,-365 230.84,-373.17 212.64,-378.49 200.77,-383.49"/>
<polygon fill="midnightblue" stroke="midnightblue" points="282.67,-341.03 287.86,-331.8 278.05,-335.78 282.67,-341.03"/>
</g>
<!-- Node15&#45;&gt;Node14 -->
<g id="edge32" class="edge">
<title>Node15&#45;&gt;Node14</title>
<path fill="none" stroke="midnightblue" d="M235.13,-325.66C251.22,-326.68 268.5,-327.04 281.73,-326.49"/>
<polygon fill="midnightblue" stroke="midnightblue" points="235.02,-322.14 224.79,-324.89 234.5,-329.12 235.02,-322.14"/>
</g>
<!-- Node16&#45;&gt;Node14 -->
<g id="edge34" class="edge">
<title>Node16&#45;&gt;Node14</title>
<path fill="none" stroke="midnightblue" d="M245.29,-345.52C260.72,-341.14 276.25,-336.09 287.45,-331.63"/>
<polygon fill="midnightblue" stroke="midnightblue" points="243.92,-342.27 235.21,-348.29 245.78,-349.02 243.92,-342.27"/>
</g>
<!-- Node17&#45;&gt;Node14 -->
<g id="edge37" class="edge">
<title>Node17&#45;&gt;Node14</title>
<path fill="none" stroke="midnightblue" d="M252.89,-377.99C273.66,-363.88 291.99,-344.05 299.89,-331.55"/>
<polygon fill="midnightblue" stroke="midnightblue" points="250.79,-375.18 244.19,-383.46 254.52,-381.1 250.79,-375.18"/>
</g>
<!-- Node18&#45;&gt;Node6 -->
<g id="edge40" class="edge">
<title>Node18&#45;&gt;Node6</title>
<path fill="none" stroke="midnightblue" d="M272.91,-185.56C263.94,-182.06 254.11,-178.3 245,-175 232.26,-170.38 217.76,-165.51 206.64,-161.86"/>
<polygon fill="midnightblue" stroke="midnightblue" points="271.65,-188.83 282.24,-189.23 274.21,-182.31 271.65,-188.83"/>
</g>
<!-- Node18&#45;&gt;Node18 -->
<g id="edge39" class="edge">
<title>Node18&#45;&gt;Node18</title>
<path fill="none" stroke="midnightblue" d="M326.48,-217.4C325.05,-222.31 317.89,-226 305,-226 284.38,-226 278.42,-216.57 287.12,-207.76"/>
<polygon fill="midnightblue" stroke="midnightblue" points="329.66,-215.9 322.88,-207.76 323.1,-218.35 329.66,-215.9"/>
</g>
<!-- Node19&#45;&gt;Node19 -->
<g id="edge45" class="edge">
<title>Node19&#45;&gt;Node19</title>
<path fill="none" stroke="midnightblue" d="M449.82,-407.03C448.6,-412.13 441.16,-416 427.5,-416 406.17,-416 400.01,-406.57 409,-397.76"/>
<polygon fill="midnightblue" stroke="midnightblue" points="453.05,-405.67 446,-397.76 446.57,-408.34 453.05,-405.67"/>
</g>
<!-- Node20 -->
<g id="node20" class="node">
<title>Node20</title>
<g id="a_node20"><a xlink:href="group__grp__conjugate__gradient.html#ga25a3bae2ff2ee0469b045de0d033398b" target="_top" xlink:title="Use preconditioned conjugate gradient method to find minimum of energy functional.">
<polygon fill="white" stroke="black" points="281,-378.5 281,-397.5 329,-397.5 329,-378.5 281,-378.5"/>
<text text-anchor="middle" x="305" y="-385.5" font-family="Helvetica,sans-Serif" font-size="10.00">pc00aa</text>
</a>
</g>
</g>
<!-- Node19&#45;&gt;Node20 -->
<g id="edge43" class="edge">
<title>Node19&#45;&gt;Node20</title>
<path fill="none" stroke="midnightblue" d="M393.16,-388C372.81,-388 347.31,-388 329.16,-388"/>
<polygon fill="midnightblue" stroke="midnightblue" points="393.27,-391.5 403.27,-388 393.27,-384.5 393.27,-391.5"/>
</g>
<!-- Node20&#45;&gt;Node20 -->
<g id="edge44" class="edge">
<title>Node20&#45;&gt;Node20</title>
<path fill="none" stroke="midnightblue" d="M326.48,-407.4C325.05,-412.31 317.89,-416 305,-416 284.38,-416 278.42,-406.57 287.12,-397.76"/>
<polygon fill="midnightblue" stroke="midnightblue" points="329.66,-405.9 322.88,-397.76 323.1,-408.35 329.66,-405.9"/>
</g>
<!-- Node21&#45;&gt;Node21 -->
<g id="edge54" class="edge">
<title>Node21&#45;&gt;Node21</title>
<path fill="none" stroke="midnightblue" d="M728.97,-445.77C727.75,-450.5 722.6,-454 713.5,-454 698.57,-454 694.25,-444.57 700.55,-435.76"/>
<polygon fill="midnightblue" stroke="midnightblue" points="732.28,-444.6 726.45,-435.76 725.5,-446.31 732.28,-444.6"/>
</g>
<!-- Node22 -->
<g id="node22" class="node">
<title>Node22</title>
<g id="a_node22"><a xlink:href="dfp100_8f90.html#a17a3ac15cc83994394f7b4cc05e5898e" target="_top" xlink:title="Split the work between MPI nodes and evaluate the global constraint.">
<polygon fill="white" stroke="black" points="606,-416.5 606,-435.5 652,-435.5 652,-416.5 606,-416.5"/>
<text text-anchor="middle" x="629" y="-423.5" font-family="Helvetica,sans-Serif" font-size="10.00">dfp100</text>
</a>
</g>
</g>
<!-- Node21&#45;&gt;Node22 -->
<g id="edge50" class="edge">
<title>Node21&#45;&gt;Node22</title>
<path fill="none" stroke="midnightblue" d="M677.56,-426C668.97,-426 660.01,-426 652.21,-426"/>
<polygon fill="midnightblue" stroke="midnightblue" points="677.75,-429.5 687.75,-426 677.75,-422.5 677.75,-429.5"/>
</g>
<!-- Node22&#45;&gt;Node2 -->
<g id="edge51" class="edge">
<title>Node22&#45;&gt;Node2</title>
<path fill="none" stroke="midnightblue" d="M620.86,-407.11C604.51,-363.85 564.81,-258.83 552.62,-226.58"/>
<polygon fill="midnightblue" stroke="midnightblue" points="617.59,-408.36 624.4,-416.48 624.14,-405.89 617.59,-408.36"/>
</g>
<!-- Node22&#45;&gt;Node16 -->
<g id="edge53" class="edge">
<title>Node22&#45;&gt;Node16</title>
<path fill="none" stroke="midnightblue" d="M595.7,-435.17C531.5,-451.5 385.05,-479.1 281,-425 256.38,-412.2 267.25,-390.58 245,-374 239.85,-370.17 233.89,-367.08 227.8,-364.59"/>
<polygon fill="midnightblue" stroke="midnightblue" points="596.86,-438.49 605.64,-432.57 595.08,-431.72 596.86,-438.49"/>
</g>
<!-- Node22&#45;&gt;Node22 -->
<g id="edge52" class="edge">
<title>Node22&#45;&gt;Node22</title>
<path fill="none" stroke="midnightblue" d="M643.73,-445.77C642.58,-450.5 637.66,-454 629,-454 614.78,-454 610.67,-444.57 616.67,-435.76"/>
<polygon fill="midnightblue" stroke="midnightblue" points="647.07,-444.66 641.33,-435.76 640.26,-446.3 647.07,-444.66"/>
</g>
<!-- Node24 -->
<g id="node24" class="node">
<title>Node24</title>
<g id="a_node24"><a xlink:href="mp00ac_8f90.html#a304edac43f63d39dda4419b4d044eac5" target="_top" xlink:title="run GMRES">
<polygon fill="white" stroke="black" points="862,-416.5 862,-435.5 919,-435.5 919,-416.5 862,-416.5"/>
<text text-anchor="middle" x="890.5" y="-423.5" font-family="Helvetica,sans-Serif" font-size="10.00">rungmres</text>
</a>
</g>
</g>
<!-- Node23&#45;&gt;Node24 -->
<g id="edge56" class="edge">
<title>Node23&#45;&gt;Node24</title>
<path fill="none" stroke="midnightblue" d="M944.5,-426C936.13,-426 927.28,-426 919.25,-426"/>
<polygon fill="midnightblue" stroke="midnightblue" points="944.73,-429.5 954.73,-426 944.73,-422.5 944.73,-429.5"/>
</g>
<!-- Node24&#45;&gt;Node25 -->
<g id="edge57" class="edge">
<title>Node24&#45;&gt;Node25</title>
<path fill="none" stroke="midnightblue" d="M851.74,-418.28C843.09,-416.51 834.12,-414.67 826.19,-413.05"/>
<polygon fill="midnightblue" stroke="midnightblue" points="851.16,-421.73 861.66,-420.3 852.56,-414.87 851.16,-421.73"/>
</g>
<!-- Node25&#45;&gt;Node21 -->
<g id="edge58" class="edge">
<title>Node25&#45;&gt;Node21</title>
<path fill="none" stroke="midnightblue" d="M765,-415.31C756.3,-417.15 747.13,-419.09 739.03,-420.81"/>
<polygon fill="midnightblue" stroke="midnightblue" points="765.86,-418.7 774.91,-413.21 764.41,-411.85 765.86,-418.7"/>
</g>
<!-- Node25&#45;&gt;Node25 -->
<g id="edge59" class="edge">
<title>Node25&#45;&gt;Node25</title>
<path fill="none" stroke="midnightblue" d="M816.43,-427.4C815.36,-432.31 810.05,-436 800.5,-436 785.21,-436 780.8,-426.57 787.24,-417.76"/>
<polygon fill="midnightblue" stroke="midnightblue" points="819.8,-426.46 813.76,-417.76 813.05,-428.33 819.8,-426.46"/>
</g>
</g>
</svg>
