<?xml version="1.0" encoding="UTF-8" standalone="no"?>
<!DOCTYPE svg PUBLIC "-//W3C//DTD SVG 1.1//EN"
 "http://www.w3.org/Graphics/SVG/1.1/DTD/svg11.dtd">
<!-- Generated by graphviz version 2.47.1 (20210421.1823)
 -->
<!-- Title: Internal Variables Pages: 1 -->
<svg width="282pt" height="740pt"
 viewBox="0.00 0.00 282.00 739.50" xmlns="http://www.w3.org/2000/svg" xmlns:xlink="http://www.w3.org/1999/xlink">
<g id="graph0" class="graph" transform="scale(1 1) rotate(0) translate(4 735.5)">
<title>Internal Variables</title>
<polygon fill="white" stroke="transparent" points="-4,4 -4,-735.5 278,-735.5 278,4 -4,4"/>
<!-- Node9 -->
<g id="node1" class="node">
<title>Node9</title>
<g id="a_node1"><a xlink:href="group__grp__covar__field__ifaces.html" target="_top" xlink:title="The covariant field.">
<polygon fill="white" stroke="black" points="260,-731.5 142,-731.5 142,-690.5 260,-690.5 260,-731.5"/>
<text text-anchor="start" x="150" y="-719.5" font-family="Helvetica,sans-Serif" font-size="10.00">Covariant field on</text>
<text text-anchor="start" x="150" y="-708.5" font-family="Helvetica,sans-Serif" font-size="10.00"> interfaces: Btemn,</text>
<text text-anchor="middle" x="201" y="-697.5" font-family="Helvetica,sans-Serif" font-size="10.00"> Bzemn, Btomn, Bzomn</text>
</a>
</g>
</g>
<!-- Node17 -->
<g id="node2" class="node">
<title>Node17</title>
<g id="a_node2"><a xlink:href="group__grp__misc.html" target="_top" xlink:title="The following are miscellaneous flags required for the virtual casing field, external (vacuum) field ...">
<polygon fill="white" stroke="black" points="240.5,-672.5 161.5,-672.5 161.5,-653.5 240.5,-653.5 240.5,-672.5"/>
<text text-anchor="middle" x="201" y="-660.5" font-family="Helvetica,sans-Serif" font-size="10.00">Miscellaneous</text>
</a>
</g>
</g>
<!-- Node15 -->
<g id="node3" class="node">
<title>Node15</title>
<g id="a_node3"><a xlink:href="group__grp__volints.html" target="_top" xlink:title=" ">
<polygon fill="white" stroke="black" points="272.5,-635 129.5,-635 129.5,-605 272.5,-605 272.5,-635"/>
<text text-anchor="start" x="137.5" y="-623" font-family="Helvetica,sans-Serif" font-size="10.00">Volume integrals: lBBintegral,</text>
<text text-anchor="middle" x="201" y="-612" font-family="Helvetica,sans-Serif" font-size="10.00"> lABintegral</text>
</a>
</g>
</g>
<!-- Node7 -->
<g id="node4" class="node">
<title>Node7</title>
<g id="a_node4"><a xlink:href="group__grp__field__matrices.html" target="_top" xlink:title=" ">
<polygon fill="white" stroke="black" points="271,-587 131,-587 131,-557 271,-557 271,-587"/>
<text text-anchor="start" x="139" y="-575" font-family="Helvetica,sans-Serif" font-size="10.00">Field matrices: dMA,</text>
<text text-anchor="middle" x="201" y="-564" font-family="Helvetica,sans-Serif" font-size="10.00"> dMB, dMC, dMD, dME, dMF</text>
</a>
</g>
</g>
<!-- Node14 -->
<g id="node5" class="node">
<title>Node14</title>
<g id="a_node5"><a xlink:href="group__grp__trig.html" target="_top" xlink:title=" ">
<polygon fill="white" stroke="black" points="255,-538.5 147,-538.5 147,-519.5 255,-519.5 255,-538.5"/>
<text text-anchor="middle" x="201" y="-526.5" font-family="Helvetica,sans-Serif" font-size="10.00">Trigonometric factors</text>
</a>
</g>
</g>
<!-- Node2 -->
<g id="node6" class="node">
<title>Node2</title>
<g id="a_node6"><a xlink:href="group__grp__fourier__repr.html" target="_top" xlink:title=" ">
<polygon fill="white" stroke="black" points="256,-501.5 146,-501.5 146,-482.5 256,-482.5 256,-501.5"/>
<text text-anchor="middle" x="201" y="-489.5" font-family="Helvetica,sans-Serif" font-size="10.00">Fourier representation</text>
</a>
</g>
</g>
<!-- Node5 -->
<g id="node7" class="node">
<title>Node5</title>
<g id="a_node7"><a xlink:href="group__grp__chebychev__metric.html" target="_top" xlink:title="These are allocated in dforce(), defined in ma00aa(), and are used in matrix() to construct the matri...">
<polygon fill="white" stroke="black" points="274,-464 128,-464 128,-434 274,-434 274,-464"/>
<text text-anchor="start" x="136" y="-452" font-family="Helvetica,sans-Serif" font-size="10.00">Volume&#45;integrated Chebyshev</text>
<text text-anchor="middle" x="201" y="-441" font-family="Helvetica,sans-Serif" font-size="10.00">&#45;metrics</text>
</a>
</g>
</g>
<!-- Node16 -->
<g id="node8" class="node">
<title>Node16</title>
<g id="a_node8"><a xlink:href="group__grp__int__global.html" target="_top" xlink:title="internal global variables; internal logical variables; default values are provided here; these may be...">
<polygon fill="white" stroke="black" points="260,-415.5 142,-415.5 142,-396.5 260,-396.5 260,-415.5"/>
<text text-anchor="middle" x="201" y="-403.5" font-family="Helvetica,sans-Serif" font-size="10.00">Internal global variables</text>
</a>
</g>
</g>
<!-- Node4 -->
<g id="node9" class="node">
<title>Node4</title>
<g id="a_node9"><a xlink:href="group__grp__fourier__transform.html" target="_top" xlink:title="The coordinate geometry and fields are mapped to/from Fourier space and real space using FFTW3....">
<polygon fill="white" stroke="black" points="250,-378.5 152,-378.5 152,-359.5 250,-359.5 250,-378.5"/>
<text text-anchor="middle" x="201" y="-366.5" font-family="Helvetica,sans-Serif" font-size="10.00">Fourier Transforms</text>
</a>
</g>
</g>
<!-- Node1 -->
<g id="node10" class="node">
<title>Node1</title>
<g id="a_node10"><a xlink:title=" ">
<polygon fill="#bfbfbf" stroke="black" points="92,-396.5 0,-396.5 0,-377.5 92,-377.5 92,-396.5"/>
<text text-anchor="middle" x="46" y="-384.5" font-family="Helvetica,sans-Serif" font-size="10.00">Internal Variables</text>
</a>
</g>
</g>
<!-- Node1&#45;&gt;Node9 -->
<g id="edge8" class="edge">
<title>Node1&#45;&gt;Node9</title>
<path fill="none" stroke="black" d="M46.73,-406.72C47.09,-458.54 55.07,-600.17 128,-682 131.94,-686.43 136.66,-690.19 141.77,-693.38"/>
<polygon fill="black" stroke="black" points="50.23,-406.58 46.76,-396.57 43.23,-406.56 50.23,-406.58"/>
</g>
<!-- Node1&#45;&gt;Node17 -->
<g id="edge16" class="edge">
<title>Node1&#45;&gt;Node17</title>
<path fill="none" stroke="black" d="M47.14,-406.89C48.59,-454.97 59.2,-578.38 128,-644 136.98,-652.57 149.35,-657.38 161.31,-660.05"/>
<polygon fill="black" stroke="black" points="50.63,-406.53 46.94,-396.6 43.63,-406.67 50.63,-406.53"/>
</g>
<!-- Node1&#45;&gt;Node15 -->
<g id="edge14" class="edge">
<title>Node1&#45;&gt;Node15</title>
<path fill="none" stroke="black" d="M49.12,-407.06C54.54,-448.32 72.64,-543.24 128,-596 131.62,-599.45 135.76,-602.41 140.17,-604.94"/>
<polygon fill="black" stroke="black" points="52.57,-406.44 47.91,-396.92 45.62,-407.27 52.57,-406.44"/>
</g>
<!-- Node1&#45;&gt;Node7 -->
<g id="edge6" class="edge">
<title>Node1&#45;&gt;Node7</title>
<path fill="none" stroke="black" d="M51.6,-406.54C60.52,-440.23 83.35,-509.38 128,-548 131.99,-551.45 136.48,-554.4 141.24,-556.94"/>
<polygon fill="black" stroke="black" points="54.92,-405.41 49.09,-396.56 48.13,-407.11 54.92,-405.41"/>
</g>
<!-- Node1&#45;&gt;Node14 -->
<g id="edge13" class="edge">
<title>Node1&#45;&gt;Node14</title>
<path fill="none" stroke="black" d="M54.19,-406.16C65.54,-433.71 90.27,-484.15 128,-511 133.67,-515.03 140.15,-518.17 146.85,-520.6"/>
<polygon fill="black" stroke="black" points="57.31,-404.52 50.38,-396.51 50.8,-407.09 57.31,-404.52"/>
</g>
<!-- Node1&#45;&gt;Node2 -->
<g id="edge1" class="edge">
<title>Node1&#45;&gt;Node2</title>
<path fill="none" stroke="black" d="M59.21,-405.05C73.44,-424.69 98.78,-455.62 128,-473 134.56,-476.9 141.91,-480.01 149.36,-482.49"/>
<polygon fill="black" stroke="black" points="61.93,-402.83 53.31,-396.66 56.2,-406.86 61.93,-402.83"/>
</g>
<!-- Node1&#45;&gt;Node5 -->
<g id="edge4" class="edge">
<title>Node1&#45;&gt;Node5</title>
<path fill="none" stroke="black" d="M74.74,-401C90.22,-408.56 109.96,-417.79 128,-425 135.71,-428.08 143.98,-431.1 152.08,-433.9"/>
<polygon fill="black" stroke="black" points="76.23,-397.83 65.71,-396.54 73.13,-404.11 76.23,-397.83"/>
</g>
<!-- Node1&#45;&gt;Node16 -->
<g id="edge15" class="edge">
<title>Node1&#45;&gt;Node16</title>
<path fill="none" stroke="black" d="M102.2,-393.86C115.1,-395.46 128.87,-397.17 141.89,-398.78"/>
<polygon fill="black" stroke="black" points="102.43,-390.36 92.08,-392.6 101.57,-397.3 102.43,-390.36"/>
</g>
<!-- Node1&#45;&gt;Node4 -->
<g id="edge3" class="edge">
<title>Node1&#45;&gt;Node4</title>
<path fill="none" stroke="black" d="M102.46,-380.48C118.61,-378.58 136.12,-376.52 151.78,-374.67"/>
<polygon fill="black" stroke="black" points="101.6,-377.05 92.08,-381.7 102.42,-384 101.6,-377.05"/>
</g>
<!-- Node13 -->
<g id="node11" class="node">
<title>Node13</title>
<g id="a_node11"><a xlink:href="group__grp__deriv__mul__polflux.html" target="_top" xlink:title=" ">
<polygon fill="white" stroke="black" points="273.5,-341.5 128.5,-341.5 128.5,-300.5 273.5,-300.5 273.5,-341.5"/>
<text text-anchor="start" x="136.5" y="-329.5" font-family="Helvetica,sans-Serif" font-size="10.00">Derivatives of multiplier</text>
<text text-anchor="start" x="136.5" y="-318.5" font-family="Helvetica,sans-Serif" font-size="10.00"> and poloidal flux with</text>
<text text-anchor="middle" x="201" y="-307.5" font-family="Helvetica,sans-Serif" font-size="10.00"> respect to geometry: dmupfdx</text>
</a>
</g>
</g>
<!-- Node1&#45;&gt;Node13 -->
<g id="edge12" class="edge">
<title>Node1&#45;&gt;Node13</title>
<path fill="none" stroke="black" d="M77.65,-373.18C92.77,-366.41 111.3,-358.19 128,-351 135.21,-347.89 142.86,-344.66 150.36,-341.5"/>
<polygon fill="black" stroke="black" points="75.95,-370.1 68.26,-377.39 78.81,-376.49 75.95,-370.1"/>
</g>
<!-- Node10 -->
<g id="node12" class="node">
<title>Node10</title>
<g id="a_node12"><a xlink:href="group__grp__covar__field__hessian.html" target="_top" xlink:title=" ">
<polygon fill="white" stroke="black" points="263,-282.5 139,-282.5 139,-241.5 263,-241.5 263,-282.5"/>
<text text-anchor="start" x="147" y="-270.5" font-family="Helvetica,sans-Serif" font-size="10.00">covariant field for</text>
<text text-anchor="start" x="147" y="-259.5" font-family="Helvetica,sans-Serif" font-size="10.00"> Hessian computation</text>
<text text-anchor="middle" x="201" y="-248.5" font-family="Helvetica,sans-Serif" font-size="10.00">: Bloweremn, Bloweromn</text>
</a>
</g>
</g>
<!-- Node1&#45;&gt;Node10 -->
<g id="edge9" class="edge">
<title>Node1&#45;&gt;Node10</title>
<path fill="none" stroke="black" d="M58.64,-368.73C72.81,-347.75 98.53,-313.48 128,-292 132.71,-288.57 137.86,-285.45 143.18,-282.62"/>
<polygon fill="black" stroke="black" points="55.55,-367.06 52.97,-377.34 61.4,-370.91 55.55,-367.06"/>
</g>
<!-- Node8 -->
<g id="node13" class="node">
<title>Node8</title>
<g id="a_node13"><a xlink:href="group__grp__force__constr.html" target="_top" xlink:title="The force vector is comprised of Bomn and Iomn.">
<polygon fill="white" stroke="black" points="257,-223.5 145,-223.5 145,-204.5 257,-204.5 257,-223.5"/>
<text text-anchor="middle" x="201" y="-211.5" font-family="Helvetica,sans-Serif" font-size="10.00">Construction of &quot;force&quot;</text>
</a>
</g>
</g>
<!-- Node1&#45;&gt;Node8 -->
<g id="edge7" class="edge">
<title>Node1&#45;&gt;Node8</title>
<path fill="none" stroke="black" d="M51.74,-367.54C60.77,-334.68 83.62,-268.33 128,-233 133.06,-228.97 138.89,-225.8 144.99,-223.29"/>
<polygon fill="black" stroke="black" points="48.33,-366.75 49.19,-377.31 55.1,-368.51 48.33,-366.75"/>
</g>
<!-- Node3 -->
<g id="node14" class="node">
<title>Node3</title>
<g id="a_node14"><a xlink:href="group__grp__iface__geom.html" target="_top" xlink:title="The Fourier harmonics of the interfaces are contained in iRbc(1:mn,0:Mvol) and iZbs(1:mn,...">
<polygon fill="white" stroke="black" points="249.5,-186 152.5,-186 152.5,-156 249.5,-156 249.5,-186"/>
<text text-anchor="start" x="160.5" y="-174" font-family="Helvetica,sans-Serif" font-size="10.00">Interface geometry</text>
<text text-anchor="middle" x="201" y="-163" font-family="Helvetica,sans-Serif" font-size="10.00">: iRbc, iZbs etc.</text>
</a>
</g>
</g>
<!-- Node1&#45;&gt;Node3 -->
<g id="edge2" class="edge">
<title>Node1&#45;&gt;Node3</title>
<path fill="none" stroke="black" d="M49.99,-367.13C56.79,-328.69 77,-243.7 128,-196 134.86,-189.58 143.46,-184.8 152.29,-181.24"/>
<polygon fill="black" stroke="black" points="46.52,-366.64 48.35,-377.08 53.43,-367.78 46.52,-366.64"/>
</g>
<!-- Node6 -->
<g id="node15" class="node">
<title>Node6</title>
<g id="a_node15"><a xlink:href="group__grp__vecpot.html" target="_top" xlink:title=" ">
<polygon fill="white" stroke="black" points="252,-137.5 150,-137.5 150,-96.5 252,-96.5 252,-137.5"/>
<text text-anchor="start" x="158" y="-125.5" font-family="Helvetica,sans-Serif" font-size="10.00">Vector potential and</text>
<text text-anchor="start" x="158" y="-114.5" font-family="Helvetica,sans-Serif" font-size="10.00"> the Beltrami linear</text>
<text text-anchor="middle" x="201" y="-103.5" font-family="Helvetica,sans-Serif" font-size="10.00"> system</text>
</a>
</g>
</g>
<!-- Node1&#45;&gt;Node6 -->
<g id="edge5" class="edge">
<title>Node1&#45;&gt;Node6</title>
<path fill="none" stroke="black" d="M48.29,-367.17C52.23,-322.22 67.84,-211.48 128,-147 134.1,-140.47 141.84,-135.31 149.96,-131.25"/>
<polygon fill="black" stroke="black" points="44.78,-367.1 47.5,-377.34 51.76,-367.64 44.78,-367.1"/>
</g>
<!-- Node11 -->
<g id="node16" class="node">
<title>Node11</title>
<g id="a_node16"><a xlink:href="group__grp__geomdof.html" target="_top" xlink:title="The geometrical degrees&#45;of&#45;freedom.">
<polygon fill="white" stroke="black" points="266.5,-78 135.5,-78 135.5,-48 266.5,-48 266.5,-78"/>
<text text-anchor="start" x="143.5" y="-66" font-family="Helvetica,sans-Serif" font-size="10.00">Geometrical degrees</text>
<text text-anchor="middle" x="201" y="-55" font-family="Helvetica,sans-Serif" font-size="10.00">&#45;of&#45;freedom: LGdof, NGdof</text>
</a>
</g>
</g>
<!-- Node1&#45;&gt;Node11 -->
<g id="edge10" class="edge">
<title>Node1&#45;&gt;Node11</title>
<path fill="none" stroke="black" d="M46.42,-367.17C45.98,-314.46 52.12,-169.36 128,-88 131.61,-84.13 135.85,-80.86 140.43,-78.09"/>
<polygon fill="black" stroke="black" points="42.93,-367.54 46.61,-377.48 49.93,-367.41 42.93,-367.54"/>
</g>
<!-- Node12 -->
<g id="node17" class="node">
<title>Node12</title>
<g id="a_node17"><a xlink:href="group__grp__par__deriv__mat.html" target="_top" xlink:title=" ">
<polygon fill="white" stroke="black" points="253,-30 149,-30 149,0 253,0 253,-30"/>
<text text-anchor="start" x="157" y="-18" font-family="Helvetica,sans-Serif" font-size="10.00">Parallel construction</text>
<text text-anchor="middle" x="201" y="-7" font-family="Helvetica,sans-Serif" font-size="10.00"> of derivative matrix</text>
</a>
</g>
</g>
<!-- Node1&#45;&gt;Node12 -->
<g id="edge11" class="edge">
<title>Node1&#45;&gt;Node12</title>
<path fill="none" stroke="black" d="M49.1,-366.95C56.46,-300.42 83.07,-88.31 128,-39 133.68,-32.77 141.02,-28.15 148.83,-24.73"/>
<polygon fill="black" stroke="black" points="45.58,-366.98 47.99,-377.3 52.54,-367.73 45.58,-366.98"/>
</g>
</g>
</svg>
