<?xml version="1.0" encoding="UTF-8" standalone="no"?>
<!DOCTYPE svg PUBLIC "-//W3C//DTD SVG 1.1//EN"
 "http://www.w3.org/Graphics/SVG/1.1/DTD/svg11.dtd">
<!-- Generated by graphviz version 2.49.3 (20211027.1534)
 -->
<!-- Title: preset Pages: 1 -->
<svg width="512pt" height="430pt"
 viewBox="0.00 0.00 512.00 429.50" xmlns="http://www.w3.org/2000/svg" xmlns:xlink="http://www.w3.org/1999/xlink">
<g id="graph0" class="graph" transform="scale(1 1) rotate(0) translate(4 425.5)">
<title>preset</title>
<polygon fill="white" stroke="transparent" points="-4,4 -4,-425.5 508,-425.5 508,4 -4,4"/>
<!-- Node1 -->
<g id="node1" class="node">
<title>Node1</title>
<g id="a_node1"><a xlink:title="Allocates and initializes internal arrays.">
<polygon fill="#bfbfbf" stroke="black" points="0,-212 0,-231 44,-231 44,-212 0,-212"/>
<text text-anchor="middle" x="22" y="-219" font-family="Helvetica,sans-Serif" font-size="10.00">preset</text>
</a>
</g>
</g>
<!-- Node1&#45;&gt;Node1 -->
<g id="edge22" class="edge">
<title>Node1&#45;&gt;Node1</title>
<path fill="none" stroke="midnightblue" d="M6.9,-231.26C-0.45,-240.07 4.58,-249.5 22,-249.5 32.89,-249.5 38.94,-245.81 40.15,-240.9"/>
<polygon fill="midnightblue" stroke="midnightblue" points="43.45,-239.74 37.1,-231.26 36.78,-241.85 43.45,-239.74"/>
</g>
<!-- Node2 -->
<g id="node2" class="node">
<title>Node2</title>
<g id="a_node2"><a xlink:href="group__grp__free-boundary.html#gac0a2cc2241947b27241bb8ef75c5e0ed" target="_top" xlink:title="Computes &#160;on the computational boundary, .">
<polygon fill="white" stroke="black" points="98.5,-326 98.5,-345 144.5,-345 144.5,-326 98.5,-326"/>
<text text-anchor="middle" x="121.5" y="-333" font-family="Helvetica,sans-Serif" font-size="10.00">bnorml</text>
</a>
</g>
</g>
<!-- Node1&#45;&gt;Node2 -->
<g id="edge1" class="edge">
<title>Node1&#45;&gt;Node2</title>
<path fill="none" stroke="midnightblue" d="M27.26,-231.2C35.4,-248.91 54.65,-286.89 80,-311.5 83.48,-314.88 87.53,-317.98 91.69,-320.76"/>
<polygon fill="midnightblue" stroke="midnightblue" points="89.88,-323.76 100.24,-325.97 93.52,-317.78 89.88,-323.76"/>
</g>
<!-- Node3 -->
<g id="node3" class="node">
<title>Node3</title>
<g id="a_node3"><a xlink:href="group__grp__free-boundary.html#ga180576a10002ebf3840fce98d56316bb" target="_top" xlink:title="Constructs the field created by the plasma currents, at an arbitrary, external location using virtual...">
<polygon fill="white" stroke="black" points="228.5,-382 228.5,-401 273.5,-401 273.5,-382 228.5,-382"/>
<text text-anchor="middle" x="251" y="-389" font-family="Helvetica,sans-Serif" font-size="10.00">casing</text>
</a>
</g>
</g>
<!-- Node1&#45;&gt;Node3 -->
<g id="edge11" class="edge">
<title>Node1&#45;&gt;Node3</title>
<path fill="none" stroke="midnightblue" d="M23.38,-231.27C25.03,-258.66 33.76,-336.57 80,-372.5 119.59,-403.26 180.9,-401.71 218.07,-397.09"/>
<polygon fill="midnightblue" stroke="midnightblue" points="218.9,-400.51 228.32,-395.66 217.93,-393.58 218.9,-400.51"/>
</g>
<!-- Node7 -->
<g id="node7" class="node">
<title>Node7</title>
<g id="a_node7"><a xlink:href="group__grp__geometry.html#gaaca20aa60eaf39055f3c9d5c02a24ac2" target="_top" xlink:title="Calculates coordinates, , and metrics, using FFTs.">
<polygon fill="white" stroke="black" points="228,-147 228,-166 274,-166 274,-147 228,-147"/>
<text text-anchor="middle" x="251" y="-154" font-family="Helvetica,sans-Serif" font-size="10.00">coords</text>
</a>
</g>
</g>
<!-- Node1&#45;&gt;Node7 -->
<g id="edge12" class="edge">
<title>Node1&#45;&gt;Node7</title>
<path fill="none" stroke="midnightblue" d="M28.93,-231.04C38,-244.6 56.73,-268.86 80,-278.5 114.08,-292.62 130.21,-295.39 163,-278.5 205.04,-256.85 231.24,-204.43 242.9,-175.86"/>
<polygon fill="midnightblue" stroke="midnightblue" points="246.3,-176.78 246.66,-166.19 239.78,-174.24 246.3,-176.78"/>
</g>
<!-- Node9 -->
<g id="node9" class="node">
<title>Node9</title>
<g id="a_node9"><a xlink:href="basefn_8f90.html#af6a4cad04c70bfb14fd18a3bfbc843a3" target="_top" xlink:title="Get the Chebyshev polynomials with zeroth, first derivatives.">
<polygon fill="white" stroke="black" points="91,-250 91,-269 152,-269 152,-250 91,-250"/>
<text text-anchor="middle" x="121.5" y="-257" font-family="Helvetica,sans-Serif" font-size="10.00">get_cheby</text>
</a>
</g>
</g>
<!-- Node1&#45;&gt;Node9 -->
<g id="edge17" class="edge">
<title>Node1&#45;&gt;Node9</title>
<path fill="none" stroke="midnightblue" d="M44.16,-229.75C56.53,-234.57 72.45,-240.77 86.54,-246.27"/>
<polygon fill="midnightblue" stroke="midnightblue" points="85.36,-249.56 95.94,-249.93 87.9,-243.04 85.36,-249.56"/>
</g>
<!-- Node10 -->
<g id="node10" class="node">
<title>Node10</title>
<g id="a_node10"><a xlink:href="basefn_8f90.html#a38dc596fb909186b01dacc1feac03164" target="_top" xlink:title="Get the Zernike polynomials &#160;with zeroth, first derivatives.">
<polygon fill="white" stroke="black" points="88.5,-212 88.5,-231 154.5,-231 154.5,-212 88.5,-212"/>
<text text-anchor="middle" x="121.5" y="-219" font-family="Helvetica,sans-Serif" font-size="10.00">get_zernike</text>
</a>
</g>
</g>
<!-- Node1&#45;&gt;Node10 -->
<g id="edge18" class="edge">
<title>Node1&#45;&gt;Node10</title>
<path fill="none" stroke="midnightblue" d="M44.16,-221.5C54.12,-221.5 66.38,-221.5 78.13,-221.5"/>
<polygon fill="midnightblue" stroke="midnightblue" points="78.26,-225 88.26,-221.5 78.26,-218 78.26,-225"/>
</g>
<!-- Node11 -->
<g id="node11" class="node">
<title>Node11</title>
<g id="a_node11"><a xlink:href="basefn_8f90.html#a6076d695487184d58d30d73de2f6470f" target="_top" xlink:title="Get the Zernike polynomials .">
<polygon fill="white" stroke="black" points="80,-174 80,-193 163,-193 163,-174 80,-174"/>
<text text-anchor="middle" x="121.5" y="-181" font-family="Helvetica,sans-Serif" font-size="10.00">get_zernike_rm</text>
</a>
</g>
</g>
<!-- Node1&#45;&gt;Node11 -->
<g id="edge19" class="edge">
<title>Node1&#45;&gt;Node11</title>
<path fill="none" stroke="midnightblue" d="M44.16,-213.25C56.53,-208.43 72.45,-202.23 86.54,-196.73"/>
<polygon fill="midnightblue" stroke="midnightblue" points="87.9,-199.96 95.94,-193.07 85.36,-193.44 87.9,-199.96"/>
</g>
<!-- Node12 -->
<g id="node12" class="node">
<title>Node12</title>
<g id="a_node12"><a xlink:href="group__grp__build__matrices.html#ga1c52bb6dbffdb432550aae12b096080f" target="_top" xlink:title="Constructs energy and helicity matrices that represent the Beltrami linear system....">
<polygon fill="white" stroke="black" points="100,-118 100,-137 143,-137 143,-118 100,-118"/>
<text text-anchor="middle" x="121.5" y="-125" font-family="Helvetica,sans-Serif" font-size="10.00">matrix</text>
</a>
</g>
</g>
<!-- Node1&#45;&gt;Node12 -->
<g id="edge20" class="edge">
<title>Node1&#45;&gt;Node12</title>
<path fill="none" stroke="midnightblue" d="M32.55,-211.68C43.77,-200.22 63,-180.75 80,-164.5 87.13,-157.69 95.11,-150.34 102.09,-144"/>
<polygon fill="midnightblue" stroke="midnightblue" points="104.64,-146.41 109.72,-137.11 99.95,-141.21 104.64,-146.41"/>
</g>
<!-- Node13 -->
<g id="node13" class="node">
<title>Node13</title>
<g id="a_node13"><a xlink:href="group__grp__output.html#ga08d6a254dbc3d9d40ff1cf0bdfdf2148" target="_top" xlink:title="Writes vector potential to .ext.sp.A .">
<polygon fill="white" stroke="black" points="98.5,-6 98.5,-25 144.5,-25 144.5,-6 98.5,-6"/>
<text text-anchor="middle" x="121.5" y="-13" font-family="Helvetica,sans-Serif" font-size="10.00">ra00aa</text>
</a>
</g>
</g>
<!-- Node1&#45;&gt;Node13 -->
<g id="edge23" class="edge">
<title>Node1&#45;&gt;Node13</title>
<path fill="none" stroke="midnightblue" d="M24.48,-211.98C29.03,-185.05 44.65,-106.71 80,-52.5 85.09,-44.7 92.19,-37.47 99.04,-31.5"/>
<polygon fill="midnightblue" stroke="midnightblue" points="101.3,-34.17 106.81,-25.12 96.86,-28.75 101.3,-34.17"/>
</g>
<!-- Node15 -->
<g id="node15" class="node">
<title>Node15</title>
<g id="a_node15"><a xlink:href="group__grp__coord__axis.html#ga564281be4d9806d0688a717314ad748f" target="_top" xlink:title="The coordinate axis is assigned via a poloidal average over an arbitrary surface.">
<polygon fill="white" stroke="black" points="101,-62 101,-81 142,-81 142,-62 101,-62"/>
<text text-anchor="middle" x="121.5" y="-69" font-family="Helvetica,sans-Serif" font-size="10.00">rzaxis</text>
</a>
</g>
</g>
<!-- Node1&#45;&gt;Node15 -->
<g id="edge26" class="edge">
<title>Node1&#45;&gt;Node15</title>
<path fill="none" stroke="midnightblue" d="M26.52,-211.76C34.19,-191.31 53.84,-142.99 80,-108.5 85.71,-100.97 93.07,-93.72 99.95,-87.67"/>
<polygon fill="midnightblue" stroke="midnightblue" points="102.29,-90.28 107.68,-81.16 97.78,-84.93 102.29,-90.28"/>
</g>
<!-- Node2&#45;&gt;Node2 -->
<g id="edge2" class="edge">
<title>Node2&#45;&gt;Node2</title>
<path fill="none" stroke="midnightblue" d="M106.4,-345.26C99.05,-354.07 104.08,-363.5 121.5,-363.5 132.39,-363.5 138.44,-359.81 139.65,-354.9"/>
<polygon fill="midnightblue" stroke="midnightblue" points="142.95,-353.74 136.6,-345.26 136.28,-355.85 142.95,-353.74"/>
</g>
<!-- Node2&#45;&gt;Node3 -->
<g id="edge3" class="edge">
<title>Node2&#45;&gt;Node3</title>
<path fill="none" stroke="midnightblue" d="M144.42,-345.13C164.98,-354.16 195.93,-367.75 219.01,-377.89"/>
<polygon fill="midnightblue" stroke="midnightblue" points="217.8,-381.18 228.37,-382 220.62,-374.77 217.8,-381.18"/>
</g>
<!-- Node5 -->
<g id="node5" class="node">
<title>Node5</title>
<g id="a_node5"><a xlink:href="group__grp__free-boundary.html#ga6d4c1b7e864b706f0bfdca4658ebd50c" target="_top" xlink:title="Compute the position and surface current on the plasma boundary for the virtual casingCalculation of ...">
<polygon fill="white" stroke="black" points="425,-364 425,-383 504,-383 504,-364 425,-364"/>
<text text-anchor="middle" x="464.5" y="-371" font-family="Helvetica,sans-Serif" font-size="10.00">surfacecurrent</text>
</a>
</g>
</g>
<!-- Node2&#45;&gt;Node5 -->
<g id="edge10" class="edge">
<title>Node2&#45;&gt;Node5</title>
<path fill="none" stroke="midnightblue" d="M144.61,-337.96C198.88,-344.01 339.67,-359.7 414.72,-368.06"/>
<polygon fill="midnightblue" stroke="midnightblue" points="414.53,-371.56 424.86,-369.19 415.31,-364.61 414.53,-371.56"/>
</g>
<!-- Node6 -->
<g id="node6" class="node">
<title>Node6</title>
<g id="a_node6"><a xlink:href="group__grp__free-boundary.html#ga633c8a5ddc9cd6469134e848fa4162c9" target="_top" xlink:title="Compute the field produced by the plasma currents, at an arbitrary, external location using virtual c...">
<polygon fill="white" stroke="black" points="220.5,-288 220.5,-307 281.5,-307 281.5,-288 220.5,-288"/>
<text text-anchor="middle" x="251" y="-295" font-family="Helvetica,sans-Serif" font-size="10.00">casinggrid</text>
</a>
</g>
</g>
<!-- Node2&#45;&gt;Node6 -->
<g id="edge9" class="edge">
<title>Node2&#45;&gt;Node6</title>
<path fill="none" stroke="midnightblue" d="M144.71,-328.88C162.9,-323.46 189.08,-315.66 210.79,-309.19"/>
<polygon fill="midnightblue" stroke="midnightblue" points="211.81,-312.53 220.4,-306.32 209.82,-305.82 211.81,-312.53"/>
</g>
<!-- Node3&#45;&gt;Node3 -->
<g id="edge4" class="edge">
<title>Node3&#45;&gt;Node3</title>
<path fill="none" stroke="midnightblue" d="M233.74,-401.26C225.34,-410.07 231.09,-419.5 251,-419.5 263.44,-419.5 270.35,-415.81 271.74,-410.9"/>
<polygon fill="midnightblue" stroke="midnightblue" points="274.95,-409.48 268.26,-401.26 268.36,-411.85 274.95,-409.48"/>
</g>
<!-- Node4 -->
<g id="node4" class="node">
<title>Node4</title>
<g id="a_node4"><a xlink:href="group__grp__free-boundary.html#ga281c12a5de84fddd3db4383b0df8627f" target="_top" xlink:title="Differential virtual casing integrand.">
<polygon fill="white" stroke="black" points="339,-402 339,-421 389,-421 389,-402 339,-402"/>
<text text-anchor="middle" x="364" y="-409" font-family="Helvetica,sans-Serif" font-size="10.00">dvcfield</text>
</a>
</g>
</g>
<!-- Node3&#45;&gt;Node4 -->
<g id="edge5" class="edge">
<title>Node3&#45;&gt;Node4</title>
<path fill="none" stroke="midnightblue" d="M273.67,-389.92C289.95,-391.45 312.53,-395.28 330.91,-399.53"/>
<polygon fill="midnightblue" stroke="midnightblue" points="330.08,-402.93 340.63,-401.93 331.76,-396.14 330.08,-402.93"/>
</g>
<!-- Node4&#45;&gt;Node3 -->
<g id="edge6" class="edge">
<title>Node4&#45;&gt;Node3</title>
<path fill="none" stroke="midnightblue" d="M338.69,-412.82C322.46,-411.12 300.98,-407.4 283.45,-403.32"/>
<polygon fill="midnightblue" stroke="midnightblue" points="284.21,-399.9 273.67,-400.88 282.52,-406.7 284.21,-399.9"/>
</g>
<!-- Node4&#45;&gt;Node5 -->
<g id="edge7" class="edge">
<title>Node4&#45;&gt;Node5</title>
<path fill="none" stroke="midnightblue" d="M389.1,-402.2C401.08,-397.58 415.77,-391.91 428.93,-386.84"/>
<polygon fill="midnightblue" stroke="midnightblue" points="430.55,-389.96 438.62,-383.1 428.03,-383.43 430.55,-389.96"/>
</g>
<!-- Node5&#45;&gt;Node3 -->
<g id="edge8" class="edge">
<title>Node5&#45;&gt;Node3</title>
<path fill="none" stroke="midnightblue" d="M424.64,-376.81C384.3,-380.24 321.93,-385.55 284.24,-388.76"/>
<polygon fill="midnightblue" stroke="midnightblue" points="283.5,-385.31 273.84,-389.64 284.1,-392.28 283.5,-385.31"/>
</g>
<!-- Node7&#45;&gt;Node7 -->
<g id="edge13" class="edge">
<title>Node7&#45;&gt;Node7</title>
<path fill="none" stroke="midnightblue" d="M233.74,-166.26C225.34,-175.07 231.09,-184.5 251,-184.5 263.44,-184.5 270.35,-180.81 271.74,-175.9"/>
<polygon fill="midnightblue" stroke="midnightblue" points="274.95,-174.48 268.26,-166.26 268.36,-176.85 274.95,-174.48"/>
</g>
<!-- Node8 -->
<g id="node8" class="node">
<title>Node8</title>
<g id="a_node8"><a xlink:href="group__grp__volume.html#gae4c62d20b8fef07f4471b5b0889ab005" target="_top" xlink:title="Computes volume of each region; and, if required, the derivatives of the volume with respect to the i...">
<polygon fill="white" stroke="black" points="340,-147 340,-166 388,-166 388,-147 340,-147"/>
<text text-anchor="middle" x="364" y="-154" font-family="Helvetica,sans-Serif" font-size="10.00">volume</text>
</a>
</g>
</g>
<!-- Node7&#45;&gt;Node8 -->
<g id="edge14" class="edge">
<title>Node7&#45;&gt;Node8</title>
<path fill="none" stroke="midnightblue" d="M274.2,-150.97C290.06,-149.64 311.69,-149.39 329.63,-150.25"/>
<polygon fill="midnightblue" stroke="midnightblue" points="329.5,-153.75 339.69,-150.88 329.93,-146.76 329.5,-153.75"/>
</g>
<!-- Node8&#45;&gt;Node7 -->
<g id="edge15" class="edge">
<title>Node8&#45;&gt;Node7</title>
<path fill="none" stroke="midnightblue" d="M339.69,-162.12C323.72,-163.39 302.3,-163.59 284.63,-162.71"/>
<polygon fill="midnightblue" stroke="midnightblue" points="284.4,-159.19 274.2,-162.03 283.94,-166.17 284.4,-159.19"/>
</g>
<!-- Node8&#45;&gt;Node8 -->
<g id="edge16" class="edge">
<title>Node8&#45;&gt;Node8</title>
<path fill="none" stroke="midnightblue" d="M348.59,-166.26C341.09,-175.07 346.23,-184.5 364,-184.5 375.11,-184.5 381.28,-180.81 382.52,-175.9"/>
<polygon fill="midnightblue" stroke="midnightblue" points="385.81,-174.7 379.41,-166.26 379.15,-176.85 385.81,-174.7"/>
</g>
<!-- Node12&#45;&gt;Node12 -->
<g id="edge21" class="edge">
<title>Node12&#45;&gt;Node12</title>
<path fill="none" stroke="midnightblue" d="M106.4,-137.26C99.05,-146.07 104.08,-155.5 121.5,-155.5 132.39,-155.5 138.44,-151.81 139.65,-146.9"/>
<polygon fill="midnightblue" stroke="midnightblue" points="142.95,-145.74 136.6,-137.26 136.28,-147.85 142.95,-145.74"/>
</g>
<!-- Node13&#45;&gt;Node13 -->
<g id="edge24" class="edge">
<title>Node13&#45;&gt;Node13</title>
<path fill="none" stroke="midnightblue" d="M106.4,-25.26C99.05,-34.07 104.08,-43.5 121.5,-43.5 132.39,-43.5 138.44,-39.81 139.65,-34.9"/>
<polygon fill="midnightblue" stroke="midnightblue" points="142.95,-33.74 136.6,-25.26 136.28,-35.85 142.95,-33.74"/>
</g>
<!-- Node14 -->
<g id="node14" class="node">
<title>Node14</title>
<g id="a_node14"><a xlink:href="group__grp__output.html#ga2f9e9c50084175e5174b1e1070e24d73" target="_top" xlink:title="Write the magnetic vector potential Fourier harmonics to the output file group /vector_potential .">
<polygon fill="white" stroke="black" points="199,-0.5 199,-30.5 303,-30.5 303,-0.5 199,-0.5"/>
<text text-anchor="start" x="207" y="-18.5" font-family="Helvetica,sans-Serif" font-size="10.00">sphdf5::write_vector</text>
<text text-anchor="middle" x="251" y="-7.5" font-family="Helvetica,sans-Serif" font-size="10.00">_potential</text>
</a>
</g>
</g>
<!-- Node13&#45;&gt;Node14 -->
<g id="edge25" class="edge">
<title>Node13&#45;&gt;Node14</title>
<path fill="none" stroke="midnightblue" d="M144.71,-15.5C157,-15.5 172.94,-15.5 188.68,-15.5"/>
<polygon fill="midnightblue" stroke="midnightblue" points="188.96,-19 198.96,-15.5 188.96,-12 188.96,-19"/>
</g>
<!-- Node15&#45;&gt;Node7 -->
<g id="edge27" class="edge">
<title>Node15&#45;&gt;Node7</title>
<path fill="none" stroke="midnightblue" d="M137.13,-81.25C159.13,-95.92 200.93,-123.79 227.03,-141.19"/>
<polygon fill="midnightblue" stroke="midnightblue" points="225.28,-144.23 235.54,-146.86 229.17,-138.4 225.28,-144.23"/>
</g>
<!-- Node15&#45;&gt;Node15 -->
<g id="edge28" class="edge">
<title>Node15&#45;&gt;Node15</title>
<path fill="none" stroke="midnightblue" d="M106.4,-81.26C99.05,-90.07 104.08,-99.5 121.5,-99.5 132.39,-99.5 138.44,-95.81 139.65,-90.9"/>
<polygon fill="midnightblue" stroke="midnightblue" points="142.95,-89.74 136.6,-81.26 136.28,-91.85 142.95,-89.74"/>
</g>
</g>
</svg>
