<?xml version="1.0" encoding="UTF-8" standalone="no"?>
<!DOCTYPE svg PUBLIC "-//W3C//DTD SVG 1.1//EN"
 "http://www.w3.org/Graphics/SVG/1.1/DTD/svg11.dtd">
<!-- Generated by graphviz version 2.47.2 (0)
 -->
<!-- Title: dforce Pages: 1 -->
<svg width="578pt" height="388pt"
 viewBox="0.00 0.00 578.00 388.00" xmlns="http://www.w3.org/2000/svg" xmlns:xlink="http://www.w3.org/1999/xlink">
<g id="graph0" class="graph" transform="scale(1 1) rotate(0) translate(4 384)">
<title>dforce</title>
<polygon fill="white" stroke="transparent" points="-4,4 -4,-384 574,-384 574,4 -4,4"/>
<!-- Node1 -->
<g id="node1" class="node">
<title>Node1</title>
<g id="a_node1"><a xlink:title="Calculates , where &#160;and , and .">
<polygon fill="#bfbfbf" stroke="black" points="526,-152.5 526,-171.5 570,-171.5 570,-152.5 526,-152.5"/>
<text text-anchor="middle" x="548" y="-159.5" font-family="Helvetica,sans-Serif" font-size="10.00">dforce</text>
</a>
</g>
</g>
<!-- Node2 -->
<g id="node2" class="node">
<title>Node2</title>
<g id="a_node2"><a xlink:href="namespaceallglobal.html#a7824bc37519fe88336534ce90ab2af16" target="_top" xlink:title=" ">
<polygon fill="white" stroke="black" points="370.5,-304.5 370.5,-323.5 484.5,-323.5 484.5,-304.5 370.5,-304.5"/>
<text text-anchor="middle" x="427.5" y="-311.5" font-family="Helvetica,sans-Serif" font-size="10.00">allglobal::check_inputs</text>
</a>
</g>
</g>
<!-- Node1&#45;&gt;Node2 -->
<g id="edge1" class="edge">
<title>Node1&#45;&gt;Node2</title>
<path fill="none" stroke="midnightblue" d="M543.12,-181.89C536.72,-209.67 521.4,-260.04 490,-290 483.45,-296.25 475.08,-300.93 466.65,-304.41"/>
<polygon fill="midnightblue" stroke="midnightblue" points="546.61,-182.31 545.28,-171.8 539.76,-180.85 546.61,-182.31"/>
</g>
<!-- Node5 -->
<g id="node5" class="node">
<title>Node5</title>
<g id="a_node5"><a xlink:href="xspech_8f90.html#a48f45478dc2c9f70ea8aa1c60ad06503" target="_top" xlink:title="This is the main &quot;driver&quot; for the physics part of SPEC.">
<polygon fill="white" stroke="black" points="168.5,-246.5 168.5,-265.5 206.5,-265.5 206.5,-246.5 168.5,-246.5"/>
<text text-anchor="middle" x="187.5" y="-253.5" font-family="Helvetica,sans-Serif" font-size="10.00">spec</text>
</a>
</g>
</g>
<!-- Node1&#45;&gt;Node5 -->
<g id="edge35" class="edge">
<title>Node1&#45;&gt;Node5</title>
<path fill="none" stroke="midnightblue" d="M535.98,-180.26C525.93,-195.26 509.66,-215.81 490,-227 395.18,-280.98 255.99,-266.51 206.65,-259.08"/>
<polygon fill="midnightblue" stroke="midnightblue" points="538.98,-182.08 541.42,-171.77 533.08,-178.3 538.98,-182.08"/>
</g>
<!-- Node8 -->
<g id="node8" class="node">
<title>Node8</title>
<g id="a_node8"><a xlink:href="group__grp__force__driver.html#gabbc245b3884ee8d8d3e2a52f25149f78" target="_top" xlink:title="fcn1">
<polygon fill="white" stroke="black" points="410,-152.5 410,-171.5 445,-171.5 445,-152.5 410,-152.5"/>
<text text-anchor="middle" x="427.5" y="-159.5" font-family="Helvetica,sans-Serif" font-size="10.00">fcn1</text>
</a>
</g>
</g>
<!-- Node1&#45;&gt;Node8 -->
<g id="edge10" class="edge">
<title>Node1&#45;&gt;Node8</title>
<path fill="none" stroke="midnightblue" d="M515.69,-162C493.13,-162 463.55,-162 445.29,-162"/>
<polygon fill="midnightblue" stroke="midnightblue" points="515.81,-165.5 525.81,-162 515.81,-158.5 515.81,-165.5"/>
</g>
<!-- Node9 -->
<g id="node9" class="node">
<title>Node9</title>
<g id="a_node9"><a xlink:href="group__grp__force__driver.html#gaec14f81fbdbedafbc4189489ec8ae178" target="_top" xlink:title="Employs Newton method to find , where &#160;and &#160;is defined in dforce() .">
<polygon fill="white" stroke="black" points="281,-171.5 281,-190.5 329,-190.5 329,-171.5 281,-171.5"/>
<text text-anchor="middle" x="305" y="-178.5" font-family="Helvetica,sans-Serif" font-size="10.00">newton</text>
</a>
</g>
</g>
<!-- Node1&#45;&gt;Node9 -->
<g id="edge32" class="edge">
<title>Node1&#45;&gt;Node9</title>
<path fill="none" stroke="midnightblue" d="M516.06,-174.32C507.74,-177.07 498.64,-179.6 490,-181 432.77,-190.29 364.2,-186.41 329.14,-183.36"/>
<polygon fill="midnightblue" stroke="midnightblue" points="517.49,-177.52 525.76,-170.89 515.16,-170.92 517.49,-177.52"/>
</g>
<!-- Node10 -->
<g id="node10" class="node">
<title>Node10</title>
<g id="a_node10"><a xlink:href="group__grp__force__driver.html#ga8ccd6c7d901872702521d0a0edf95412" target="_top" xlink:title="fcn2">
<polygon fill="white" stroke="black" points="29.5,-176.5 29.5,-195.5 64.5,-195.5 64.5,-176.5 29.5,-176.5"/>
<text text-anchor="middle" x="47" y="-183.5" font-family="Helvetica,sans-Serif" font-size="10.00">fcn2</text>
</a>
</g>
</g>
<!-- Node1&#45;&gt;Node10 -->
<g id="edge19" class="edge">
<title>Node1&#45;&gt;Node10</title>
<path fill="none" stroke="midnightblue" d="M516.06,-149.68C507.74,-146.93 498.64,-144.4 490,-143 332.07,-117.37 285.36,-104.74 130,-143 103.93,-149.42 76.98,-165.76 61.39,-176.35"/>
<polygon fill="midnightblue" stroke="midnightblue" points="515.16,-153.08 525.76,-153.11 517.49,-146.48 515.16,-153.08"/>
</g>
<!-- Node12 -->
<g id="node12" class="node">
<title>Node12</title>
<g id="a_node12"><a xlink:href="dfp200_8f90.html#a6aca59cf350d7b1941f8389d50945a43" target="_top" xlink:title="get LU Beltrami matrices">
<polygon fill="white" stroke="black" points="365,-76.5 365,-95.5 490,-95.5 490,-76.5 365,-76.5"/>
<text text-anchor="middle" x="427.5" y="-83.5" font-family="Helvetica,sans-Serif" font-size="10.00">get_lu_beltrami_matrices</text>
</a>
</g>
</g>
<!-- Node1&#45;&gt;Node12 -->
<g id="edge20" class="edge">
<title>Node1&#45;&gt;Node12</title>
<path fill="none" stroke="midnightblue" d="M531.56,-144.96C520.77,-133.85 505.57,-119.67 490,-110 480.65,-104.19 469.67,-99.37 459.59,-95.6"/>
<polygon fill="midnightblue" stroke="midnightblue" points="529.17,-147.53 538.57,-152.41 534.26,-142.73 529.17,-147.53"/>
</g>
<!-- Node17 -->
<g id="node17" class="node">
<title>Node17</title>
<g id="a_node17"><a xlink:href="group__grp__diagnostics.html#ga7401b50ec10c6598ee4a8112717a63ec" target="_top" xlink:title="Computes eigenvalues and eigenvectors of derivative matrix, .">
<polygon fill="white" stroke="black" points="282.5,-228.5 282.5,-247.5 327.5,-247.5 327.5,-228.5 282.5,-228.5"/>
<text text-anchor="middle" x="305" y="-235.5" font-family="Helvetica,sans-Serif" font-size="10.00">hesian</text>
</a>
</g>
</g>
<!-- Node1&#45;&gt;Node17 -->
<g id="edge30" class="edge">
<title>Node1&#45;&gt;Node17</title>
<path fill="none" stroke="midnightblue" d="M525.71,-177.41C515.36,-184.28 502.49,-191.94 490,-197 433.88,-219.74 362.78,-231.02 327.66,-235.53"/>
<polygon fill="midnightblue" stroke="midnightblue" points="527.81,-180.21 534.08,-171.67 523.85,-174.44 527.81,-180.21"/>
</g>
<!-- Node18 -->
<g id="node18" class="node">
<title>Node18</title>
<g id="a_node18"><a xlink:href="group__grp__conjugate__gradient.html#ga4d8415226e62a9fdb42b0fd0b464251e" target="_top" xlink:title="Returns the energy functional and it&#39;s derivatives with respect to geometry.">
<polygon fill="white" stroke="black" points="403.5,-0.5 403.5,-19.5 451.5,-19.5 451.5,-0.5 403.5,-0.5"/>
<text text-anchor="middle" x="427.5" y="-7.5" font-family="Helvetica,sans-Serif" font-size="10.00">pc00ab</text>
</a>
</g>
</g>
<!-- Node1&#45;&gt;Node18 -->
<g id="edge33" class="edge">
<title>Node1&#45;&gt;Node18</title>
<path fill="none" stroke="midnightblue" d="M543.12,-142.11C536.72,-114.33 521.4,-63.96 490,-34 479.47,-23.95 464.25,-17.97 451.59,-14.49"/>
<polygon fill="midnightblue" stroke="midnightblue" points="539.76,-143.15 545.28,-152.2 546.61,-141.69 539.76,-143.15"/>
</g>
<!-- Node3 -->
<g id="node3" class="node">
<title>Node3</title>
<g id="a_node3"><a xlink:href="xspech_8f90.html#a9fdc71dffd7c61ee4588a3f80d3ab9ce" target="_top" xlink:title="Main subroutine of SPEC.">
<polygon fill="white" stroke="black" points="281.5,-304.5 281.5,-323.5 328.5,-323.5 328.5,-304.5 281.5,-304.5"/>
<text text-anchor="middle" x="305" y="-311.5" font-family="Helvetica,sans-Serif" font-size="10.00">xspech</text>
</a>
</g>
</g>
<!-- Node2&#45;&gt;Node3 -->
<g id="edge2" class="edge">
<title>Node2&#45;&gt;Node3</title>
<path fill="none" stroke="midnightblue" d="M360.45,-314C349.06,-314 337.95,-314 328.77,-314"/>
<polygon fill="midnightblue" stroke="midnightblue" points="360.48,-317.5 370.48,-314 360.48,-310.5 360.48,-317.5"/>
</g>
<!-- Node4 -->
<g id="node4" class="node">
<title>Node4</title>
<g id="a_node4"><a xlink:href="xspech_8f90.html#a1451823a7b97101a797de616250752c1" target="_top" xlink:title="Final diagnostics.">
<polygon fill="white" stroke="black" points="143,-360.5 143,-379.5 232,-379.5 232,-360.5 143,-360.5"/>
<text text-anchor="middle" x="187.5" y="-367.5" font-family="Helvetica,sans-Serif" font-size="10.00">final_diagnostics</text>
</a>
</g>
</g>
<!-- Node3&#45;&gt;Node4 -->
<g id="edge3" class="edge">
<title>Node3&#45;&gt;Node4</title>
<path fill="none" stroke="midnightblue" d="M272.19,-323.3C263.47,-327.7 253.94,-332.69 245,-337 228.3,-345.05 208.2,-353.25 197.04,-360.5"/>
<polygon fill="midnightblue" stroke="midnightblue" points="273.87,-326.38 281.29,-318.81 270.77,-320.1 273.87,-326.38"/>
</g>
<!-- Node3&#45;&gt;Node5 -->
<g id="edge5" class="edge">
<title>Node3&#45;&gt;Node5</title>
<path fill="none" stroke="midnightblue" d="M291.21,-297.04C279.63,-286.55 261.87,-274.24 245,-266 232.63,-259.96 217.86,-255.07 206.53,-253.02"/>
<polygon fill="midnightblue" stroke="midnightblue" points="288.89,-299.68 298.44,-304.28 293.85,-294.73 288.89,-299.68"/>
</g>
<!-- Node7 -->
<g id="node7" class="node">
<title>Node7</title>
<g id="a_node7"><a xlink:href="xspech_8f90.html#a95271e8805067f801b5d4e524d6901d4" target="_top" xlink:title="Main program of SPEC.">
<polygon fill="white" stroke="black" points="155.5,-284.5 155.5,-303.5 219.5,-303.5 219.5,-284.5 155.5,-284.5"/>
<text text-anchor="middle" x="187.5" y="-291.5" font-family="Helvetica,sans-Serif" font-size="10.00">spec_main</text>
</a>
</g>
</g>
<!-- Node3&#45;&gt;Node7 -->
<g id="edge9" class="edge">
<title>Node3&#45;&gt;Node7</title>
<path fill="none" stroke="midnightblue" d="M271.36,-308.35C255.17,-305.54 235.72,-302.18 219.73,-299.41"/>
<polygon fill="midnightblue" stroke="midnightblue" points="271.01,-311.84 281.46,-310.1 272.2,-304.94 271.01,-311.84"/>
</g>
<!-- Node4&#45;&gt;Node3 -->
<g id="edge4" class="edge">
<title>Node4&#45;&gt;Node3</title>
<path fill="none" stroke="midnightblue" d="M241.47,-356.68C242.66,-356.12 243.84,-355.56 245,-355 264.31,-345.69 286.34,-333.23 297.21,-323.62"/>
<polygon fill="midnightblue" stroke="midnightblue" points="239.84,-353.58 232.18,-360.9 242.73,-359.95 239.84,-353.58"/>
</g>
<!-- Node5&#45;&gt;Node3 -->
<g id="edge8" class="edge">
<title>Node5&#45;&gt;Node3</title>
<path fill="none" stroke="midnightblue" d="M209.2,-269.56C220.12,-273.83 233.58,-278.43 245,-284 257.58,-290.14 270.65,-298.55 281.29,-305.19"/>
<polygon fill="midnightblue" stroke="midnightblue" points="210.24,-266.2 199.67,-265.55 207.53,-272.65 210.24,-266.2"/>
</g>
<!-- Node6 -->
<g id="node6" class="node">
<title>Node6</title>
<g id="a_node6"><a xlink:href="group__grp__output.html#ga0f962c09cd5d5eba99f1cba043cb3898" target="_top" xlink:title="Initialize the interface to the HDF5 library and open the output file.">
<polygon fill="white" stroke="black" points="0,-284.5 0,-303.5 94,-303.5 94,-284.5 0,-284.5"/>
<text text-anchor="middle" x="47" y="-291.5" font-family="Helvetica,sans-Serif" font-size="10.00">sphdf5::init_outfile</text>
</a>
</g>
</g>
<!-- Node5&#45;&gt;Node6 -->
<g id="edge6" class="edge">
<title>Node5&#45;&gt;Node6</title>
<path fill="none" stroke="midnightblue" d="M158.74,-263.62C136.91,-269.61 106.37,-277.98 82.89,-284.43"/>
<polygon fill="midnightblue" stroke="midnightblue" points="159.68,-266.99 168.39,-260.97 157.82,-260.24 159.68,-266.99"/>
</g>
<!-- Node6&#45;&gt;Node3 -->
<g id="edge7" class="edge">
<title>Node6&#45;&gt;Node3</title>
<path fill="none" stroke="midnightblue" d="M91.64,-306C103.95,-308.87 117.41,-311.52 130,-313 184.01,-319.33 248.09,-317.25 281.38,-315.46"/>
<polygon fill="midnightblue" stroke="midnightblue" points="92.16,-302.53 81.61,-303.56 90.5,-309.33 92.16,-302.53"/>
</g>
<!-- Node8&#45;&gt;Node9 -->
<g id="edge11" class="edge">
<title>Node8&#45;&gt;Node9</title>
<path fill="none" stroke="midnightblue" d="M399.51,-160.52C378.38,-162.41 349.31,-167.09 329.22,-171.88"/>
<polygon fill="midnightblue" stroke="midnightblue" points="400.02,-163.99 409.74,-159.8 399.52,-157.01 400.02,-163.99"/>
</g>
<!-- Node9&#45;&gt;Node5 -->
<g id="edge15" class="edge">
<title>Node9&#45;&gt;Node5</title>
<path fill="none" stroke="midnightblue" d="M287.36,-197.89C276.12,-208.64 260.53,-222.32 245,-232 232.88,-239.55 217.97,-245.77 206.51,-249.99"/>
<polygon fill="midnightblue" stroke="midnightblue" points="290.03,-200.17 294.72,-190.67 285.13,-195.17 290.03,-200.17"/>
</g>
<!-- Node9&#45;&gt;Node8 -->
<g id="edge12" class="edge">
<title>Node9&#45;&gt;Node8</title>
<path fill="none" stroke="midnightblue" d="M339.21,-181.87C362.11,-179.43 391.58,-174.36 409.74,-169.49"/>
<polygon fill="midnightblue" stroke="midnightblue" points="338.85,-178.39 329.22,-182.8 339.5,-185.36 338.85,-178.39"/>
</g>
<!-- Node9&#45;&gt;Node10 -->
<g id="edge13" class="edge">
<title>Node9&#45;&gt;Node10</title>
<path fill="none" stroke="midnightblue" d="M270.84,-176.93C215.53,-174.96 106.41,-177.47 64.72,-182.12"/>
<polygon fill="midnightblue" stroke="midnightblue" points="270.69,-180.43 280.83,-177.37 270.99,-173.44 270.69,-180.43"/>
</g>
<!-- Node11 -->
<g id="node11" class="node">
<title>Node11</title>
<g id="a_node11"><a xlink:href="group__grp__force__driver.html#ga382822b303cbf8c56d6f54dcb379caf2" target="_top" xlink:title="read or write force&#45;derivative matrix">
<polygon fill="white" stroke="black" points="155,-152.5 155,-171.5 220,-171.5 220,-152.5 155,-152.5"/>
<text text-anchor="middle" x="187.5" y="-159.5" font-family="Helvetica,sans-Serif" font-size="10.00">writereadgf</text>
</a>
</g>
</g>
<!-- Node9&#45;&gt;Node11 -->
<g id="edge16" class="edge">
<title>Node9&#45;&gt;Node11</title>
<path fill="none" stroke="midnightblue" d="M270.96,-169.4C255.05,-165.98 236.05,-162.88 220.3,-161.13"/>
<polygon fill="midnightblue" stroke="midnightblue" points="270.38,-172.85 280.9,-171.67 271.94,-166.03 270.38,-172.85"/>
</g>
<!-- Node10&#45;&gt;Node9 -->
<g id="edge14" class="edge">
<title>Node10&#45;&gt;Node9</title>
<path fill="none" stroke="midnightblue" d="M74.85,-189.81C125.28,-192.13 233.36,-189.93 280.83,-185.53"/>
<polygon fill="midnightblue" stroke="midnightblue" points="74.91,-186.31 64.72,-189.23 74.51,-193.3 74.91,-186.31"/>
</g>
<!-- Node11&#45;&gt;Node9 -->
<g id="edge18" class="edge">
<title>Node11&#45;&gt;Node9</title>
<path fill="none" stroke="midnightblue" d="M222.33,-173.77C241.16,-177.78 264.13,-181.33 280.9,-182.73"/>
<polygon fill="midnightblue" stroke="midnightblue" points="222.88,-170.31 212.35,-171.51 221.33,-177.13 222.88,-170.31"/>
</g>
<!-- Node11&#45;&gt;Node10 -->
<g id="edge17" class="edge">
<title>Node11&#45;&gt;Node10</title>
<path fill="none" stroke="midnightblue" d="M144.76,-169.23C117.8,-173.9 84.2,-179.73 64.52,-183.14"/>
<polygon fill="midnightblue" stroke="midnightblue" points="145.47,-172.66 154.73,-167.51 144.27,-165.76 145.47,-172.66"/>
</g>
<!-- Node13 -->
<g id="node13" class="node">
<title>Node13</title>
<g id="a_node13"><a xlink:href="dfp200_8f90.html#a55ea75395f8c71731451e1add3720c7e" target="_top" xlink:title="Given the field consistent with the constraints and the geometry, computes local quantites related to...">
<polygon fill="white" stroke="black" points="282,-38.5 282,-57.5 328,-57.5 328,-38.5 282,-38.5"/>
<text text-anchor="middle" x="305" y="-45.5" font-family="Helvetica,sans-Serif" font-size="10.00">dfp200</text>
</a>
</g>
</g>
<!-- Node12&#45;&gt;Node13 -->
<g id="edge21" class="edge">
<title>Node12&#45;&gt;Node13</title>
<path fill="none" stroke="midnightblue" d="M401.27,-72.43C379.71,-64.04 348.99,-54.43 328.32,-49.66"/>
<polygon fill="midnightblue" stroke="midnightblue" points="400.17,-75.76 410.75,-76.3 402.81,-69.28 400.17,-75.76"/>
</g>
<!-- Node13&#45;&gt;Node1 -->
<g id="edge22" class="edge">
<title>Node13&#45;&gt;Node1</title>
<path fill="none" stroke="midnightblue" d="M338.17,-43.13C377.26,-38.94 443.71,-37.55 490,-67 521.97,-87.34 538.49,-132.63 544.41,-152.43"/>
<polygon fill="midnightblue" stroke="midnightblue" points="337.66,-39.67 328.15,-44.33 338.49,-46.62 337.66,-39.67"/>
</g>
<!-- Node13&#45;&gt;Node12 -->
<g id="edge27" class="edge">
<title>Node13&#45;&gt;Node12</title>
<path fill="none" stroke="midnightblue" d="M330.78,-61.39C343.58,-66.39 359.7,-71.85 375.05,-76.46"/>
<polygon fill="midnightblue" stroke="midnightblue" points="331.88,-58.06 321.3,-57.5 329.22,-64.54 331.88,-58.06"/>
</g>
<!-- Node14 -->
<g id="node14" class="node">
<title>Node14</title>
<g id="a_node14"><a xlink:href="dfp200_8f90.html#a7b64c7392b45d0042d8bd7379c0761a5" target="_top" xlink:title="Evaluate the derivative of the square of the magnetic field modulus. Add spectral constraint derivati...">
<polygon fill="white" stroke="black" points="150.5,-76.5 150.5,-95.5 224.5,-95.5 224.5,-76.5 150.5,-76.5"/>
<text text-anchor="middle" x="187.5" y="-83.5" font-family="Helvetica,sans-Serif" font-size="10.00">evaluate_dbb</text>
</a>
</g>
</g>
<!-- Node13&#45;&gt;Node14 -->
<g id="edge23" class="edge">
<title>Node13&#45;&gt;Node14</title>
<path fill="none" stroke="midnightblue" d="M271.95,-52.43C249.52,-58.63 220.6,-68.61 203.36,-76.41"/>
<polygon fill="midnightblue" stroke="midnightblue" points="272.94,-55.79 281.73,-49.87 271.17,-49.01 272.94,-55.79"/>
</g>
<!-- Node15 -->
<g id="node15" class="node">
<title>Node15</title>
<g id="a_node15"><a xlink:href="dfp200_8f90.html#a73ddf39ecc5228201fb643779e17cd36" target="_top" xlink:title="Evaluate mu and psip derivatives and store them in dmupfdx.">
<polygon fill="white" stroke="black" points="140,-38.5 140,-57.5 235,-57.5 235,-38.5 140,-38.5"/>
<text text-anchor="middle" x="187.5" y="-45.5" font-family="Helvetica,sans-Serif" font-size="10.00">evaluate_dmupfdx</text>
</a>
</g>
</g>
<!-- Node13&#45;&gt;Node15 -->
<g id="edge25" class="edge">
<title>Node13&#45;&gt;Node15</title>
<path fill="none" stroke="midnightblue" d="M271.47,-41.86C260.18,-41.28 247.28,-41.11 235.08,-41.36"/>
<polygon fill="midnightblue" stroke="midnightblue" points="271.52,-45.37 281.73,-42.54 271.99,-38.38 271.52,-45.37"/>
</g>
<!-- Node16 -->
<g id="node16" class="node">
<title>Node16</title>
<g id="a_node16"><a xlink:href="dfp200_8f90.html#a5e56f1f4b1e6df11a9cffa6237c37469" target="_top" xlink:title="This routine evaluates the value of the magnetic field once the interface is perturbed using matrix p...">
<polygon fill="white" stroke="black" points="130,-0.5 130,-19.5 245,-19.5 245,-0.5 130,-0.5"/>
<text text-anchor="middle" x="187.5" y="-7.5" font-family="Helvetica,sans-Serif" font-size="10.00">get_perturbed_solution</text>
</a>
</g>
</g>
<!-- Node13&#45;&gt;Node16 -->
<g id="edge28" class="edge">
<title>Node13&#45;&gt;Node16</title>
<path fill="none" stroke="midnightblue" d="M279.49,-34.3C267.37,-29.39 252.29,-24.08 237.9,-19.57"/>
<polygon fill="midnightblue" stroke="midnightblue" points="278.33,-37.61 288.9,-38.3 281.07,-31.17 278.33,-37.61"/>
</g>
<!-- Node14&#45;&gt;Node13 -->
<g id="edge24" class="edge">
<title>Node14&#45;&gt;Node13</title>
<path fill="none" stroke="midnightblue" d="M234.59,-77.46C253.93,-71.52 275.09,-63.92 288.9,-57.7"/>
<polygon fill="midnightblue" stroke="midnightblue" points="233.57,-74.11 224.99,-80.32 235.57,-80.82 233.57,-74.11"/>
</g>
<!-- Node15&#45;&gt;Node13 -->
<g id="edge26" class="edge">
<title>Node15&#45;&gt;Node13</title>
<path fill="none" stroke="midnightblue" d="M245.38,-54.75C258.3,-54.77 271.28,-54.34 281.73,-53.46"/>
<polygon fill="midnightblue" stroke="midnightblue" points="245.12,-51.25 235.08,-54.64 245.04,-58.25 245.12,-51.25"/>
</g>
<!-- Node16&#45;&gt;Node13 -->
<g id="edge29" class="edge">
<title>Node16&#45;&gt;Node13</title>
<path fill="none" stroke="midnightblue" d="M212.59,-23.53C232.96,-31.81 261.9,-41.28 281.73,-46.13"/>
<polygon fill="midnightblue" stroke="midnightblue" points="213.93,-20.3 203.36,-19.59 211.19,-26.74 213.93,-20.3"/>
</g>
<!-- Node17&#45;&gt;Node5 -->
<g id="edge31" class="edge">
<title>Node17&#45;&gt;Node5</title>
<path fill="none" stroke="midnightblue" d="M272.17,-242.96C251.1,-246.24 224.23,-250.43 206.71,-253.16"/>
<polygon fill="midnightblue" stroke="midnightblue" points="272.93,-246.38 282.28,-241.39 271.86,-239.47 272.93,-246.38"/>
</g>
<!-- Node19 -->
<g id="node19" class="node">
<title>Node19</title>
<g id="a_node19"><a xlink:href="group__grp__conjugate__gradient.html#ga25a3bae2ff2ee0469b045de0d033398b" target="_top" xlink:title="Use preconditioned conjugate gradient method to find minimum of energy functional.">
<polygon fill="white" stroke="black" points="281,-0.5 281,-19.5 329,-19.5 329,-0.5 281,-0.5"/>
<text text-anchor="middle" x="305" y="-7.5" font-family="Helvetica,sans-Serif" font-size="10.00">pc00aa</text>
</a>
</g>
</g>
<!-- Node18&#45;&gt;Node19 -->
<g id="edge34" class="edge">
<title>Node18&#45;&gt;Node19</title>
<path fill="none" stroke="midnightblue" d="M393.16,-10C372.81,-10 347.31,-10 329.16,-10"/>
<polygon fill="midnightblue" stroke="midnightblue" points="393.27,-13.5 403.27,-10 393.27,-6.5 393.27,-13.5"/>
</g>
</g>
</svg>
