<?xml version="1.0" encoding="UTF-8" standalone="no"?>
<!DOCTYPE svg PUBLIC "-//W3C//DTD SVG 1.1//EN"
 "http://www.w3.org/Graphics/SVG/1.1/DTD/svg11.dtd">
<!-- Generated by graphviz version 3.0.0 (20220413.0106)
 -->
<!-- Title: vacuumphi Pages: 1 -->
<svg width="158pt" height="46pt"
 viewBox="0.00 0.00 158.00 46.00" xmlns="http://www.w3.org/2000/svg" xmlns:xlink="http://www.w3.org/1999/xlink">
<g id="graph0" class="graph" transform="scale(1 1) rotate(0) translate(4 42)">
<title>vacuumphi</title>
<polygon fill="white" stroke="transparent" points="-4,4 -4,-42 154,-42 154,4 -4,4"/>
<!-- Node1 -->
<g id="node1" class="node">
<title>Node1</title>
<g id="a_node1"><a xlink:title="Compute vacuum magnetic scalar potential (?)">
<polygon fill="#bfbfbf" stroke="black" points="86,-0.5 86,-19.5 150,-19.5 150,-0.5 86,-0.5"/>
<text text-anchor="middle" x="118" y="-7.5" font-family="Helvetica,sans-Serif" font-size="10.00">vacuumphi</text>
</a>
</g>
</g>
<!-- Node2 -->
<g id="node2" class="node">
<title>Node2</title>
<g id="a_node2"><a xlink:href="group__grp__smooth__boundary.html#ga5d58e428e5062d645244ff572b06e117" target="_top" xlink:title="Constructs smooth approximation to wall.">
<polygon fill="white" stroke="black" points="0,-0.5 0,-19.5 50,-19.5 50,-0.5 0,-0.5"/>
<text text-anchor="middle" x="25" y="-7.5" font-family="Helvetica,sans-Serif" font-size="10.00">wa00aa</text>
</a>
</g>
</g>
<!-- Node1&#45;&gt;Node2 -->
<g id="edge1" class="edge">
<title>Node1&#45;&gt;Node2</title>
<path fill="none" stroke="midnightblue" d="M75.77,-3.28C66.96,-3.17 57.94,-3.4 50.03,-3.97"/>
<polygon fill="midnightblue" stroke="midnightblue" points="75.84,-6.78 85.94,-3.56 76.04,0.22 75.84,-6.78"/>
</g>
<!-- Node2&#45;&gt;Node1 -->
<g id="edge2" class="edge">
<title>Node2&#45;&gt;Node1</title>
<path fill="none" stroke="midnightblue" d="M60.02,-16.56C68.52,-16.85 77.59,-16.81 85.94,-16.44"/>
<polygon fill="midnightblue" stroke="midnightblue" points="60.2,-13.06 50.03,-16.03 59.83,-20.05 60.2,-13.06"/>
</g>
<!-- Node2&#45;&gt;Node2 -->
<g id="edge3" class="edge">
<title>Node2&#45;&gt;Node2</title>
<path fill="none" stroke="midnightblue" d="M42.04,-29.4C40.9,-34.31 35.22,-38 25,-38 8.65,-38 3.92,-28.57 10.82,-19.76"/>
<polygon fill="midnightblue" stroke="midnightblue" points="45.38,-28.35 39.18,-19.76 38.66,-30.34 45.38,-28.35"/>
</g>
</g>
</svg>
