<?xml version="1.0" encoding="UTF-8" standalone="no"?>
<!DOCTYPE svg PUBLIC "-//W3C//DTD SVG 1.1//EN"
 "http://www.w3.org/Graphics/SVG/1.1/DTD/svg11.dtd">
<!-- Generated by graphviz version 2.47.0 (20210316.2052)
 -->
<!-- Title: Fourier representation Pages: 1 -->
<svg width="407pt" height="98pt"
 viewBox="0.00 0.00 407.00 97.50" xmlns="http://www.w3.org/2000/svg" xmlns:xlink="http://www.w3.org/1999/xlink">
<g id="graph0" class="graph" transform="scale(1 1) rotate(0) translate(4 93.5)">
<title>Fourier representation</title>
<polygon fill="white" stroke="transparent" points="-4,4 -4,-93.5 403,-93.5 403,4 -4,4"/>
<!-- Node3 -->
<g id="node1" class="node">
<title>Node3</title>
<g id="a_node1"><a xlink:href="group__grp__enh__res__metr.html" target="_top" xlink:title="Enhanced resolution is required for the metric elements, , which is given by mne, ime,...">
<polygon fill="white" stroke="black" points="388.5,-89.5 284.5,-89.5 284.5,-59.5 388.5,-59.5 388.5,-89.5"/>
<text text-anchor="start" x="292.5" y="-77.5" font-family="Helvetica,sans-Serif" font-size="10.00">Enhanced resolution</text>
<text text-anchor="middle" x="336.5" y="-66.5" font-family="Helvetica,sans-Serif" font-size="10.00"> for metric elements</text>
</a>
</g>
</g>
<!-- Node4 -->
<g id="node2" class="node">
<title>Node4</title>
<g id="a_node2"><a xlink:href="group__grp__enh__res__sfl.html" target="_top" xlink:title="Enhanced resolution is required for the transformation to straight&#45;field line angle on the interfaces...">
<polygon fill="white" stroke="black" points="399,-41 274,-41 274,0 399,0 399,-41"/>
<text text-anchor="start" x="282" y="-29" font-family="Helvetica,sans-Serif" font-size="10.00">Enhanced resolution</text>
<text text-anchor="start" x="282" y="-18" font-family="Helvetica,sans-Serif" font-size="10.00"> for transformation</text>
<text text-anchor="middle" x="336.5" y="-7" font-family="Helvetica,sans-Serif" font-size="10.00"> to straight&#45;field line angle</text>
</a>
</g>
</g>
<!-- Node1 -->
<g id="node3" class="node">
<title>Node1</title>
<g id="a_node3"><a xlink:title=" ">
<polygon fill="#bfbfbf" stroke="black" points="238,-57 128,-57 128,-38 238,-38 238,-57"/>
<text text-anchor="middle" x="183" y="-45" font-family="Helvetica,sans-Serif" font-size="10.00">Fourier representation</text>
</a>
</g>
</g>
<!-- Node1&#45;&gt;Node3 -->
<g id="edge2" class="edge">
<title>Node1&#45;&gt;Node3</title>
<path fill="none" stroke="black" d="M247.58,-58.83C259.84,-61.02 272.54,-63.28 284.35,-65.38"/>
<polygon fill="black" stroke="black" points="247.87,-55.33 237.41,-57.02 246.64,-62.22 247.87,-55.33"/>
</g>
<!-- Node1&#45;&gt;Node4 -->
<g id="edge3" class="edge">
<title>Node1&#45;&gt;Node4</title>
<path fill="none" stroke="black" d="M247.49,-36.18C256.19,-34.63 265.1,-33.05 273.77,-31.5"/>
<polygon fill="black" stroke="black" points="246.64,-32.78 237.41,-37.98 247.87,-39.67 246.64,-32.78"/>
</g>
<!-- Node2 -->
<g id="node4" class="node">
<title>Node2</title>
<g id="a_node4"><a xlink:href="group__grp__internal__vars.html" target="_top" xlink:title=" ">
<polygon fill="white" stroke="black" points="92,-57 0,-57 0,-38 92,-38 92,-57"/>
<text text-anchor="middle" x="46" y="-45" font-family="Helvetica,sans-Serif" font-size="10.00">Internal Variables</text>
</a>
</g>
</g>
<!-- Node2&#45;&gt;Node1 -->
<g id="edge1" class="edge">
<title>Node2&#45;&gt;Node1</title>
<path fill="none" stroke="black" d="M102.36,-47.5C110.72,-47.5 119.33,-47.5 127.66,-47.5"/>
<polygon fill="black" stroke="black" points="102.33,-44 92.33,-47.5 102.33,-51 102.33,-44"/>
</g>
</g>
</svg>
