<?xml version="1.0" encoding="UTF-8" standalone="no"?>
<!DOCTYPE svg PUBLIC "-//W3C//DTD SVG 1.1//EN"
 "http://www.w3.org/Graphics/SVG/1.1/DTD/svg11.dtd">
<!-- Generated by graphviz version 2.44.1 (0)
 -->
<!-- Title: Enhanced resolution for transformation to straight&#45;field line angle Pages: 1 -->
<svg width="315pt" height="49pt"
 viewBox="0.00 0.00 315.00 49.00" xmlns="http://www.w3.org/2000/svg" xmlns:xlink="http://www.w3.org/1999/xlink">
<g id="graph0" class="graph" transform="scale(1 1) rotate(0) translate(4 45)">
<title>Enhanced resolution for transformation to straight&#45;field line angle</title>
<polygon fill="white" stroke="transparent" points="-4,4 -4,-45 311,-45 311,4 -4,4"/>
<!-- Node1 -->
<g id="node1" class="node">
<title>Node1</title>
<g id="a_node1"><a xlink:title="Enhanced resolution is required for the transformation to straight&#45;field line angle on the interfaces...">
<polygon fill="#bfbfbf" stroke="black" points="307,-41 161,-41 161,0 307,0 307,-41"/>
<text text-anchor="start" x="169" y="-29" font-family="Helvetica,sans-Serif" font-size="10.00">Enhanced resolution</text>
<text text-anchor="start" x="169" y="-18" font-family="Helvetica,sans-Serif" font-size="10.00"> for transformation</text>
<text text-anchor="middle" x="234" y="-7" font-family="Helvetica,sans-Serif" font-size="10.00"> to straight&#45;field line angle</text>
</a>
</g>
</g>
<!-- Node2 -->
<g id="node2" class="node">
<title>Node2</title>
<g id="a_node2"><a xlink:href="group__grp__fourier__repr.html" target="_top" xlink:title=" ">
<polygon fill="white" stroke="black" points="125,-30 0,-30 0,-11 125,-11 125,-30"/>
<text text-anchor="middle" x="62.5" y="-18" font-family="Helvetica,sans-Serif" font-size="10.00">Fourier representation</text>
</a>
</g>
</g>
<!-- Node2&#45;&gt;Node1 -->
<g id="edge1" class="edge">
<title>Node2&#45;&gt;Node1</title>
<path fill="none" stroke="black" d="M135.32,-20.5C143.73,-20.5 152.31,-20.5 160.72,-20.5"/>
<polygon fill="black" stroke="black" points="135.17,-17 125.17,-20.5 135.17,-24 135.17,-17"/>
</g>
</g>
</svg>
