<?xml version="1.0" encoding="UTF-8" standalone="no"?>
<!DOCTYPE svg PUBLIC "-//W3C//DTD SVG 1.1//EN"
 "http://www.w3.org/Graphics/SVG/1.1/DTD/svg11.dtd">
<!-- Generated by graphviz version 2.47.1 (20210421.1823)
 -->
<!-- Title: newton Pages: 1 -->
<svg width="287pt" height="160pt"
 viewBox="0.00 0.00 287.00 160.00" xmlns="http://www.w3.org/2000/svg" xmlns:xlink="http://www.w3.org/1999/xlink">
<g id="graph0" class="graph" transform="scale(1 1) rotate(0) translate(4 156)">
<title>newton</title>
<polygon fill="white" stroke="transparent" points="-4,4 -4,-156 283,-156 283,4 -4,4"/>
<!-- Node1 -->
<g id="node1" class="node">
<title>Node1</title>
<g id="a_node1"><a xlink:title="Employs Newton method to find , where &#160;and &#160;is defined in dforce() .">
<polygon fill="#bfbfbf" stroke="black" points="231,-85.5 231,-104.5 279,-104.5 279,-85.5 231,-85.5"/>
<text text-anchor="middle" x="255" y="-92.5" font-family="Helvetica,sans-Serif" font-size="10.00">newton</text>
</a>
</g>
</g>
<!-- Node2 -->
<g id="node2" class="node">
<title>Node2</title>
<g id="a_node2"><a xlink:href="group__grp__force__driver.html#gabbc245b3884ee8d8d3e2a52f25149f78" target="_top" xlink:title="fcn1">
<polygon fill="white" stroke="black" points="145,-132.5 145,-151.5 180,-151.5 180,-132.5 145,-132.5"/>
<text text-anchor="middle" x="162.5" y="-139.5" font-family="Helvetica,sans-Serif" font-size="10.00">fcn1</text>
</a>
</g>
</g>
<!-- Node1&#45;&gt;Node2 -->
<g id="edge1" class="edge">
<title>Node1&#45;&gt;Node2</title>
<path fill="none" stroke="midnightblue" d="M221.18,-105.53C204.41,-113.6 185.16,-124.28 173.68,-132.25"/>
<polygon fill="midnightblue" stroke="midnightblue" points="223.09,-108.5 230.69,-101.12 220.15,-102.15 223.09,-108.5"/>
</g>
<!-- Node3 -->
<g id="node3" class="node">
<title>Node3</title>
<g id="a_node3"><a xlink:href="group__grp__force__driver.html#ga8ccd6c7d901872702521d0a0edf95412" target="_top" xlink:title="fcn2">
<polygon fill="white" stroke="black" points="29.5,-85.5 29.5,-104.5 64.5,-104.5 64.5,-85.5 29.5,-85.5"/>
<text text-anchor="middle" x="47" y="-92.5" font-family="Helvetica,sans-Serif" font-size="10.00">fcn2</text>
</a>
</g>
</g>
<!-- Node1&#45;&gt;Node3 -->
<g id="edge3" class="edge">
<title>Node1&#45;&gt;Node3</title>
<path fill="none" stroke="midnightblue" d="M220.71,-89.87C176.07,-87.35 98.52,-87.77 64.64,-91.11"/>
<polygon fill="midnightblue" stroke="midnightblue" points="220.56,-93.37 230.77,-90.54 221.02,-86.39 220.56,-93.37"/>
</g>
<!-- Node4 -->
<g id="node4" class="node">
<title>Node4</title>
<g id="a_node4"><a xlink:href="xspech_8f90.html#a48f45478dc2c9f70ea8aa1c60ad06503" target="_top" xlink:title=" ">
<polygon fill="white" stroke="black" points="143.5,-0.5 143.5,-19.5 181.5,-19.5 181.5,-0.5 143.5,-0.5"/>
<text text-anchor="middle" x="162.5" y="-7.5" font-family="Helvetica,sans-Serif" font-size="10.00">spec</text>
</a>
</g>
</g>
<!-- Node1&#45;&gt;Node4 -->
<g id="edge5" class="edge">
<title>Node1&#45;&gt;Node4</title>
<path fill="none" stroke="midnightblue" d="M240.57,-77.25C229.36,-63.15 212.44,-43.46 195,-29 190.87,-25.58 186.06,-22.35 181.46,-19.57"/>
<polygon fill="midnightblue" stroke="midnightblue" points="237.87,-79.47 246.77,-85.21 243.39,-75.17 237.87,-79.47"/>
</g>
<!-- Node7 -->
<g id="node7" class="node">
<title>Node7</title>
<g id="a_node7"><a xlink:href="group__grp__force__driver.html#ga382822b303cbf8c56d6f54dcb379caf2" target="_top" xlink:title="read or write force&#45;derivative matrix">
<polygon fill="white" stroke="black" points="130,-38.5 130,-57.5 195,-57.5 195,-38.5 130,-38.5"/>
<text text-anchor="middle" x="162.5" y="-45.5" font-family="Helvetica,sans-Serif" font-size="10.00">writereadgf</text>
</a>
</g>
</g>
<!-- Node1&#45;&gt;Node7 -->
<g id="edge9" class="edge">
<title>Node1&#45;&gt;Node7</title>
<path fill="none" stroke="midnightblue" d="M235.43,-79.78C223.65,-72.48 208.12,-64.12 194.5,-57.65"/>
<polygon fill="midnightblue" stroke="midnightblue" points="233.68,-82.82 243.97,-85.36 237.51,-76.96 233.68,-82.82"/>
</g>
<!-- Node2&#45;&gt;Node1 -->
<g id="edge2" class="edge">
<title>Node2&#45;&gt;Node1</title>
<path fill="none" stroke="midnightblue" d="M189.23,-134.8C207.44,-126.52 230.86,-113.78 243.97,-104.64"/>
<polygon fill="midnightblue" stroke="midnightblue" points="187.8,-131.6 180.01,-138.78 190.57,-138.03 187.8,-131.6"/>
</g>
<!-- Node3&#45;&gt;Node1 -->
<g id="edge4" class="edge">
<title>Node3&#45;&gt;Node1</title>
<path fill="none" stroke="midnightblue" d="M74.62,-99.71C115.3,-102.51 192.23,-102.43 230.77,-99.46"/>
<polygon fill="midnightblue" stroke="midnightblue" points="74.9,-96.22 64.64,-98.89 74.32,-103.2 74.9,-96.22"/>
</g>
<!-- Node5 -->
<g id="node5" class="node">
<title>Node5</title>
<g id="a_node5"><a xlink:href="sphdf5_8f90.html#a0f962c09cd5d5eba99f1cba043cb3898" target="_top" xlink:title="initialize the interface to the HDF5 library and open the output file">
<polygon fill="white" stroke="black" points="0,-38.5 0,-57.5 94,-57.5 94,-38.5 0,-38.5"/>
<text text-anchor="middle" x="47" y="-45.5" font-family="Helvetica,sans-Serif" font-size="10.00">sphdf5::init_outfile</text>
</a>
</g>
</g>
<!-- Node4&#45;&gt;Node5 -->
<g id="edge6" class="edge">
<title>Node4&#45;&gt;Node5</title>
<path fill="none" stroke="midnightblue" d="M133.66,-19.32C116.25,-25.15 93.89,-32.63 76.38,-38.5"/>
<polygon fill="midnightblue" stroke="midnightblue" points="134.89,-22.6 143.26,-16.11 132.67,-15.96 134.89,-22.6"/>
</g>
<!-- Node6 -->
<g id="node6" class="node">
<title>Node6</title>
<g id="a_node6"><a xlink:href="xspech_8f90.html#aea782eae089760a491c2c54f9903abcc" target="_top" xlink:title="Main program of SPEC.">
<polygon fill="white" stroke="black" points="23.5,-0.5 23.5,-19.5 70.5,-19.5 70.5,-0.5 23.5,-0.5"/>
<text text-anchor="middle" x="47" y="-7.5" font-family="Helvetica,sans-Serif" font-size="10.00">xspech</text>
</a>
</g>
</g>
<!-- Node4&#45;&gt;Node6 -->
<g id="edge7" class="edge">
<title>Node4&#45;&gt;Node6</title>
<path fill="none" stroke="midnightblue" d="M133.27,-4.07C114.03,-2.86 88.88,-2.99 70.89,-4.46"/>
<polygon fill="midnightblue" stroke="midnightblue" points="133.01,-7.56 143.26,-4.89 133.58,-0.59 133.01,-7.56"/>
</g>
<!-- Node6&#45;&gt;Node4 -->
<g id="edge8" class="edge">
<title>Node6&#45;&gt;Node4</title>
<path fill="none" stroke="midnightblue" d="M80.98,-16.19C101.27,-17.2 126.51,-16.84 143.26,-15.11"/>
<polygon fill="midnightblue" stroke="midnightblue" points="81.1,-12.69 70.89,-15.54 80.65,-19.68 81.1,-12.69"/>
</g>
<!-- Node7&#45;&gt;Node1 -->
<g id="edge11" class="edge">
<title>Node7&#45;&gt;Node1</title>
<path fill="none" stroke="midnightblue" d="M182.06,-63.21C196.13,-71.94 215.57,-82.17 230.69,-88.88"/>
<polygon fill="midnightblue" stroke="midnightblue" points="183.97,-60.28 173.68,-57.75 180.15,-66.14 183.97,-60.28"/>
</g>
<!-- Node7&#45;&gt;Node3 -->
<g id="edge10" class="edge">
<title>Node7&#45;&gt;Node3</title>
<path fill="none" stroke="midnightblue" d="M129.02,-61.45C108.01,-70.15 81.53,-81.12 64.67,-88.09"/>
<polygon fill="midnightblue" stroke="midnightblue" points="130.63,-64.57 138.53,-57.51 127.95,-58.1 130.63,-64.57"/>
</g>
</g>
</svg>
