<?xml version="1.0" encoding="UTF-8" standalone="no"?>
<!DOCTYPE svg PUBLIC "-//W3C//DTD SVG 1.1//EN"
 "http://www.w3.org/Graphics/SVG/1.1/DTD/svg11.dtd">
<!-- Generated by graphviz version 2.44.0 ()
 -->
<!-- Title: hesian Pages: 1 -->
<svg width="469pt" height="313pt"
 viewBox="0.00 0.00 469.00 313.00" xmlns="http://www.w3.org/2000/svg" xmlns:xlink="http://www.w3.org/1999/xlink">
<g id="graph0" class="graph" transform="scale(1 1) rotate(0) translate(4 309)">
<title>hesian</title>
<polygon fill="white" stroke="transparent" points="-4,4 -4,-309 465,-309 465,4 -4,4"/>
<!-- Node1 -->
<g id="node1" class="node">
<title>Node1</title>
<g id="a_node1"><a xlink:title="Computes eigenvalues and eigenvectors of derivative matrix, .">
<polygon fill="#bfbfbf" stroke="black" points="0,-171.5 0,-190.5 45,-190.5 45,-171.5 0,-171.5"/>
<text text-anchor="middle" x="22.5" y="-178.5" font-family="Helvetica,sans-Serif" font-size="10.00">hesian</text>
</a>
</g>
</g>
<!-- Node2 -->
<g id="node2" class="node">
<title>Node2</title>
<g id="a_node2"><a xlink:href="group__grp__packing.html#ga094e630c02686dd178749eb1efbf13fb" target="_top" xlink:title="Packs, and unpacks, geometrical degrees of freedom; and sets coordinate axis.">
<polygon fill="white" stroke="black" points="81,-190.5 81,-209.5 125,-209.5 125,-190.5 81,-190.5"/>
<text text-anchor="middle" x="103" y="-197.5" font-family="Helvetica,sans-Serif" font-size="10.00">packxi</text>
</a>
</g>
</g>
<!-- Node1&#45;&gt;Node2 -->
<g id="edge1" class="edge">
<title>Node1&#45;&gt;Node2</title>
<path fill="none" stroke="midnightblue" d="M45.37,-186.29C53.32,-188.22 62.47,-190.43 71.07,-192.51"/>
<polygon fill="midnightblue" stroke="midnightblue" points="70.25,-195.92 80.79,-194.87 71.9,-189.11 70.25,-195.92"/>
</g>
<!-- Node3 -->
<g id="node3" class="node">
<title>Node3</title>
<g id="a_node3"><a xlink:href="group__grp__initialization.html#ga28628de0fdb3b3497668007d8d0643bd" target="_top" xlink:title="Allocates and initializes internal arrays.">
<polygon fill="white" stroke="black" points="81,-152.5 81,-171.5 125,-171.5 125,-152.5 81,-152.5"/>
<text text-anchor="middle" x="103" y="-159.5" font-family="Helvetica,sans-Serif" font-size="10.00">preset</text>
</a>
</g>
</g>
<!-- Node1&#45;&gt;Node3 -->
<g id="edge2" class="edge">
<title>Node1&#45;&gt;Node3</title>
<path fill="none" stroke="midnightblue" d="M45.37,-175.71C53.32,-173.78 62.47,-171.57 71.07,-169.49"/>
<polygon fill="midnightblue" stroke="midnightblue" points="71.9,-172.89 80.79,-167.13 70.25,-166.08 71.9,-172.89"/>
</g>
<!-- Node4 -->
<g id="node4" class="node">
<title>Node4</title>
<g id="a_node4"><a xlink:href="group__grp__free-boundary.html#gac0a2cc2241947b27241bb8ef75c5e0ed" target="_top" xlink:title="Computes &#160;on the computational boundary, .">
<polygon fill="white" stroke="black" points="179.5,-285.5 179.5,-304.5 225.5,-304.5 225.5,-285.5 179.5,-285.5"/>
<text text-anchor="middle" x="202.5" y="-292.5" font-family="Helvetica,sans-Serif" font-size="10.00">bnorml</text>
</a>
</g>
</g>
<!-- Node3&#45;&gt;Node4 -->
<g id="edge3" class="edge">
<title>Node3&#45;&gt;Node4</title>
<path fill="none" stroke="midnightblue" d="M116.51,-171.61C119.57,-174.4 122.64,-177.61 125,-181 149.61,-216.36 132.98,-238.28 161,-271 163.81,-274.28 167.19,-277.23 170.78,-279.85"/>
<polygon fill="midnightblue" stroke="midnightblue" points="169.06,-282.91 179.37,-285.34 172.83,-277.01 169.06,-282.91"/>
</g>
<!-- Node7 -->
<g id="node7" class="node">
<title>Node7</title>
<g id="a_node7"><a xlink:href="group__grp__numerics.html#ga041138109a57e651c57117bb4180409e" target="_top" xlink:title="Forward Fourier transform (fftw wrapper)">
<polygon fill="white" stroke="black" points="313,-247.5 313,-266.5 342,-266.5 342,-247.5 313,-247.5"/>
<text text-anchor="middle" x="327.5" y="-254.5" font-family="Helvetica,sans-Serif" font-size="10.00">tfft</text>
</a>
</g>
</g>
<!-- Node3&#45;&gt;Node7 -->
<g id="edge19" class="edge">
<title>Node3&#45;&gt;Node7</title>
<path fill="none" stroke="midnightblue" d="M115.34,-171.83C118.53,-174.71 121.96,-177.92 125,-181 142.02,-198.27 140.07,-209.76 161,-222 206.09,-248.38 268.43,-255 302.27,-256.58"/>
<polygon fill="midnightblue" stroke="midnightblue" points="302.48,-260.09 312.59,-256.95 302.72,-253.09 302.48,-260.09"/>
</g>
<!-- Node8 -->
<g id="node8" class="node">
<title>Node8</title>
<g id="a_node8"><a xlink:href="group__grp__geometry.html#gaaca20aa60eaf39055f3c9d5c02a24ac2" target="_top" xlink:title="Calculates coordinates, , and metrics, using FFTs.">
<polygon fill="white" stroke="black" points="179.5,-171.5 179.5,-190.5 225.5,-190.5 225.5,-171.5 179.5,-171.5"/>
<text text-anchor="middle" x="202.5" y="-178.5" font-family="Helvetica,sans-Serif" font-size="10.00">coords</text>
</a>
</g>
</g>
<!-- Node3&#45;&gt;Node8 -->
<g id="edge8" class="edge">
<title>Node3&#45;&gt;Node8</title>
<path fill="none" stroke="midnightblue" d="M125.16,-166.12C138.05,-168.63 154.77,-171.89 169.28,-174.72"/>
<polygon fill="midnightblue" stroke="midnightblue" points="168.89,-178.21 179.37,-176.69 170.22,-171.34 168.89,-178.21"/>
</g>
<!-- Node9 -->
<g id="node9" class="node">
<title>Node9</title>
<g id="a_node9"><a xlink:href="group__grp__numerics.html#ga1fd52accb0646f535f9bcc46cf5a68f3" target="_top" xlink:title="Inverse Fourier transform (fftw wrapper)">
<polygon fill="white" stroke="black" points="308.5,-209.5 308.5,-228.5 346.5,-228.5 346.5,-209.5 308.5,-209.5"/>
<text text-anchor="middle" x="327.5" y="-216.5" font-family="Helvetica,sans-Serif" font-size="10.00">invfft</text>
</a>
</g>
</g>
<!-- Node3&#45;&gt;Node9 -->
<g id="edge13" class="edge">
<title>Node3&#45;&gt;Node9</title>
<path fill="none" stroke="midnightblue" d="M114.91,-171.6C125.78,-180.58 143.36,-193.54 161,-200 207.07,-216.88 264.76,-219.73 298.43,-219.73"/>
<polygon fill="midnightblue" stroke="midnightblue" points="298.51,-223.23 308.48,-219.65 298.45,-216.23 298.51,-223.23"/>
</g>
<!-- Node11 -->
<g id="node11" class="node">
<title>Node11</title>
<g id="a_node11"><a xlink:href="group__grp__numerics.html#ga425e8f1cbf214a3231ab6c874d8fe4be" target="_top" xlink:title="Gauss&#45;Legendre weights and abscissae.">
<polygon fill="white" stroke="black" points="180,-133.5 180,-152.5 225,-152.5 225,-133.5 180,-133.5"/>
<text text-anchor="middle" x="202.5" y="-140.5" font-family="Helvetica,sans-Serif" font-size="10.00">gauleg</text>
</a>
</g>
</g>
<!-- Node3&#45;&gt;Node11 -->
<g id="edge12" class="edge">
<title>Node3&#45;&gt;Node11</title>
<path fill="none" stroke="midnightblue" d="M125.16,-157.88C138.14,-155.35 155.01,-152.06 169.59,-149.22"/>
<polygon fill="midnightblue" stroke="midnightblue" points="170.56,-152.59 179.71,-147.25 169.23,-145.72 170.56,-152.59"/>
</g>
<!-- Node12 -->
<g id="node12" class="node">
<title>Node12</title>
<g id="a_node12"><a xlink:href="group__grp__build__matrices.html#ga1c52bb6dbffdb432550aae12b096080f" target="_top" xlink:title="Constructs energy and helicity matrices that represent the Beltrami linear system....">
<polygon fill="white" stroke="black" points="181,-95.5 181,-114.5 224,-114.5 224,-95.5 181,-95.5"/>
<text text-anchor="middle" x="202.5" y="-102.5" font-family="Helvetica,sans-Serif" font-size="10.00">matrix</text>
</a>
</g>
</g>
<!-- Node3&#45;&gt;Node12 -->
<g id="edge14" class="edge">
<title>Node3&#45;&gt;Node12</title>
<path fill="none" stroke="midnightblue" d="M117.23,-152.36C128.56,-144.3 145.46,-132.76 161,-124 164.31,-122.14 167.83,-120.29 171.36,-118.53"/>
<polygon fill="midnightblue" stroke="midnightblue" points="173.1,-121.57 180.6,-114.08 170.07,-115.26 173.1,-121.57"/>
</g>
<!-- Node13 -->
<g id="node13" class="node">
<title>Node13</title>
<g id="a_node13"><a xlink:href="group__grp__output.html#ga08d6a254dbc3d9d40ff1cf0bdfdf2148" target="_top" xlink:title="Writes vector potential to .ext.sp.A .">
<polygon fill="white" stroke="black" points="179.5,-57.5 179.5,-76.5 225.5,-76.5 225.5,-57.5 179.5,-57.5"/>
<text text-anchor="middle" x="202.5" y="-64.5" font-family="Helvetica,sans-Serif" font-size="10.00">ra00aa</text>
</a>
</g>
</g>
<!-- Node3&#45;&gt;Node13 -->
<g id="edge15" class="edge">
<title>Node3&#45;&gt;Node13</title>
<path fill="none" stroke="midnightblue" d="M109.12,-152.4C117.9,-136.71 137.2,-105.36 161,-86 163.88,-83.66 167.1,-81.53 170.43,-79.61"/>
<polygon fill="midnightblue" stroke="midnightblue" points="172.03,-82.72 179.34,-75.04 168.84,-76.49 172.03,-82.72"/>
</g>
<!-- Node14 -->
<g id="node14" class="node">
<title>Node14</title>
<g id="a_node14"><a xlink:href="namespaceallglobal.html#ad32ae6194892fe7d876622a6455189e2" target="_top" xlink:title="The master node reads the input namelist and sets various internal variables. The relevant quantities...">
<polygon fill="white" stroke="black" points="161,-19.5 161,-38.5 244,-38.5 244,-19.5 161,-19.5"/>
<text text-anchor="middle" x="202.5" y="-26.5" font-family="Helvetica,sans-Serif" font-size="10.00">allglobal::readin</text>
</a>
</g>
</g>
<!-- Node3&#45;&gt;Node14 -->
<g id="edge16" class="edge">
<title>Node3&#45;&gt;Node14</title>
<path fill="none" stroke="midnightblue" d="M106.44,-152.46C112.35,-131.1 129.32,-78.9 161,-48 162.46,-46.58 164.05,-45.25 165.72,-44"/>
<polygon fill="midnightblue" stroke="midnightblue" points="167.93,-46.75 174.59,-38.5 164.25,-40.79 167.93,-46.75"/>
</g>
<!-- Node5 -->
<g id="node5" class="node">
<title>Node5</title>
<g id="a_node5"><a xlink:href="group__grp__free-boundary.html#ga180576a10002ebf3840fce98d56316bb" target="_top" xlink:title="Constructs the field created by the plasma currents, at an arbitrary, external location using virtual...">
<polygon fill="white" stroke="black" points="305,-285.5 305,-304.5 350,-304.5 350,-285.5 305,-285.5"/>
<text text-anchor="middle" x="327.5" y="-292.5" font-family="Helvetica,sans-Serif" font-size="10.00">casing</text>
</a>
</g>
</g>
<!-- Node4&#45;&gt;Node5 -->
<g id="edge4" class="edge">
<title>Node4&#45;&gt;Node5</title>
<path fill="none" stroke="midnightblue" d="M225.77,-295C245.05,-295 273.15,-295 294.78,-295"/>
<polygon fill="midnightblue" stroke="midnightblue" points="294.8,-298.5 304.8,-295 294.8,-291.5 294.8,-298.5"/>
</g>
<!-- Node4&#45;&gt;Node7 -->
<g id="edge7" class="edge">
<title>Node4&#45;&gt;Node7</title>
<path fill="none" stroke="midnightblue" d="M225.77,-288.12C247.65,-281.36 280.88,-271.09 303.13,-264.22"/>
<polygon fill="midnightblue" stroke="midnightblue" points="304.26,-267.53 312.78,-261.24 302.19,-260.85 304.26,-267.53"/>
</g>
<!-- Node6 -->
<g id="node6" class="node">
<title>Node6</title>
<g id="a_node6"><a xlink:href="group__grp__free-boundary.html#ga281c12a5de84fddd3db4383b0df8627f" target="_top" xlink:title="Differential virtual casing integrand.">
<polygon fill="white" stroke="black" points="411,-285.5 411,-304.5 461,-304.5 461,-285.5 411,-285.5"/>
<text text-anchor="middle" x="436" y="-292.5" font-family="Helvetica,sans-Serif" font-size="10.00">dvcfield</text>
</a>
</g>
</g>
<!-- Node5&#45;&gt;Node6 -->
<g id="edge5" class="edge">
<title>Node5&#45;&gt;Node6</title>
<path fill="none" stroke="midnightblue" d="M350.05,-289.45C364.51,-288.2 383.87,-287.92 400.46,-288.63"/>
<polygon fill="midnightblue" stroke="midnightblue" points="400.69,-292.15 410.88,-289.24 401.1,-285.17 400.69,-292.15"/>
</g>
<!-- Node6&#45;&gt;Node5 -->
<g id="edge6" class="edge">
<title>Node6&#45;&gt;Node5</title>
<path fill="none" stroke="midnightblue" d="M410.88,-300.76C395.88,-301.9 376.42,-302.06 360.18,-301.23"/>
<polygon fill="midnightblue" stroke="midnightblue" points="360.26,-297.73 350.05,-300.55 359.79,-304.71 360.26,-297.73"/>
</g>
<!-- Node8&#45;&gt;Node9 -->
<g id="edge9" class="edge">
<title>Node8&#45;&gt;Node9</title>
<path fill="none" stroke="midnightblue" d="M225.77,-187.88C246.21,-194.2 276.57,-203.58 298.62,-210.39"/>
<polygon fill="midnightblue" stroke="midnightblue" points="297.8,-213.8 308.39,-213.41 299.87,-207.11 297.8,-213.8"/>
</g>
<!-- Node10 -->
<g id="node10" class="node">
<title>Node10</title>
<g id="a_node10"><a xlink:href="group__grp__volume.html#gae4c62d20b8fef07f4471b5b0889ab005" target="_top" xlink:title="Computes volume of each region; and, if required, the derivatives of the volume with respect to the i...">
<polygon fill="white" stroke="black" points="303.5,-171.5 303.5,-190.5 351.5,-190.5 351.5,-171.5 303.5,-171.5"/>
<text text-anchor="middle" x="327.5" y="-178.5" font-family="Helvetica,sans-Serif" font-size="10.00">volume</text>
</a>
</g>
</g>
<!-- Node8&#45;&gt;Node10 -->
<g id="edge10" class="edge">
<title>Node8&#45;&gt;Node10</title>
<path fill="none" stroke="midnightblue" d="M225.77,-175.66C244.49,-174.08 271.52,-173.83 292.87,-174.91"/>
<polygon fill="midnightblue" stroke="midnightblue" points="292.93,-178.42 303.14,-175.57 293.38,-171.43 292.93,-178.42"/>
</g>
<!-- Node10&#45;&gt;Node8 -->
<g id="edge11" class="edge">
<title>Node10&#45;&gt;Node8</title>
<path fill="none" stroke="midnightblue" d="M303.14,-186.43C284.11,-187.96 257.03,-188.16 235.9,-187.03"/>
<polygon fill="midnightblue" stroke="midnightblue" points="235.99,-183.53 225.77,-186.34 235.51,-190.51 235.99,-183.53"/>
</g>
<!-- Node15 -->
<g id="node15" class="node">
<title>Node15</title>
<g id="a_node15"><a xlink:href="group__grp__numerics.html#ga02a336a22890e7ae5a5c2d525260666c" target="_top" xlink:title="Assign Fourier mode labels.">
<polygon fill="white" stroke="black" points="305,-38.5 305,-57.5 350,-57.5 350,-38.5 305,-38.5"/>
<text text-anchor="middle" x="327.5" y="-45.5" font-family="Helvetica,sans-Serif" font-size="10.00">gi00ab</text>
</a>
</g>
</g>
<!-- Node14&#45;&gt;Node15 -->
<g id="edge17" class="edge">
<title>Node14&#45;&gt;Node15</title>
<path fill="none" stroke="midnightblue" d="M244.12,-35.27C260.6,-37.82 279.36,-40.72 294.81,-43.11"/>
<polygon fill="midnightblue" stroke="midnightblue" points="294.49,-46.6 304.91,-44.67 295.56,-39.68 294.49,-46.6"/>
</g>
<!-- Node16 -->
<g id="node16" class="node">
<title>Node16</title>
<g id="a_node16"><a xlink:href="namespacenumerical.html#ac9cf42743694682672a82103c8ffedda" target="_top" xlink:title="Duplicates NAG routine X02AJF (machine precision)">
<polygon fill="white" stroke="black" points="280,-0.5 280,-19.5 375,-19.5 375,-0.5 280,-0.5"/>
<text text-anchor="middle" x="327.5" y="-7.5" font-family="Helvetica,sans-Serif" font-size="10.00">numerical::myprec</text>
</a>
</g>
</g>
<!-- Node14&#45;&gt;Node16 -->
<g id="edge18" class="edge">
<title>Node14&#45;&gt;Node16</title>
<path fill="none" stroke="midnightblue" d="M244.12,-22.73C252.36,-21.45 261.18,-20.09 269.87,-18.75"/>
<polygon fill="midnightblue" stroke="midnightblue" points="270.61,-22.17 279.96,-17.19 269.55,-15.26 270.61,-22.17"/>
</g>
</g>
</svg>
