<?xml version="1.0" encoding="UTF-8" standalone="no"?>
<!DOCTYPE svg PUBLIC "-//W3C//DTD SVG 1.1//EN"
 "http://www.w3.org/Graphics/SVG/1.1/DTD/svg11.dtd">
<!-- Generated by graphviz version 2.49.3 (20211027.1534)
 -->
<!-- Title: packxi Pages: 1 -->
<svg width="295pt" height="46pt"
 viewBox="0.00 0.00 295.00 46.00" xmlns="http://www.w3.org/2000/svg" xmlns:xlink="http://www.w3.org/1999/xlink">
<g id="graph0" class="graph" transform="scale(1 1) rotate(0) translate(4 42)">
<title>packxi</title>
<polygon fill="white" stroke="transparent" points="-4,4 -4,-42 291,-42 291,4 -4,4"/>
<!-- Node1 -->
<g id="node1" class="node">
<title>Node1</title>
<g id="a_node1"><a xlink:title="Packs, and unpacks, geometrical degrees of freedom; and sets coordinate axis.">
<polygon fill="#bfbfbf" stroke="black" points="0,-0.5 0,-19.5 44,-19.5 44,-0.5 0,-0.5"/>
<text text-anchor="middle" x="22" y="-7.5" font-family="Helvetica,sans-Serif" font-size="10.00">packxi</text>
</a>
</g>
</g>
<!-- Node1&#45;&gt;Node1 -->
<g id="edge1" class="edge">
<title>Node1&#45;&gt;Node1</title>
<path fill="none" stroke="midnightblue" d="M9.98,-19.76C4.13,-28.57 8.14,-38 22,-38 30.45,-38 35.24,-34.5 36.36,-29.77"/>
<polygon fill="midnightblue" stroke="midnightblue" points="39.71,-28.7 34.02,-19.76 32.89,-30.29 39.71,-28.7"/>
</g>
<!-- Node2 -->
<g id="node2" class="node">
<title>Node2</title>
<g id="a_node2"><a xlink:href="group__grp__coord__axis.html#ga564281be4d9806d0688a717314ad748f" target="_top" xlink:title="The coordinate axis is assigned via a poloidal average over an arbitrary surface.">
<polygon fill="white" stroke="black" points="80,-0.5 80,-19.5 121,-19.5 121,-0.5 80,-0.5"/>
<text text-anchor="middle" x="100.5" y="-7.5" font-family="Helvetica,sans-Serif" font-size="10.00">rzaxis</text>
</a>
</g>
</g>
<!-- Node1&#45;&gt;Node2 -->
<g id="edge2" class="edge">
<title>Node1&#45;&gt;Node2</title>
<path fill="none" stroke="midnightblue" d="M44.31,-10C52.14,-10 61.16,-10 69.61,-10"/>
<polygon fill="midnightblue" stroke="midnightblue" points="69.88,-13.5 79.88,-10 69.88,-6.5 69.88,-13.5"/>
</g>
<!-- Node2&#45;&gt;Node2 -->
<g id="edge8" class="edge">
<title>Node2&#45;&gt;Node2</title>
<path fill="none" stroke="midnightblue" d="M88.48,-19.76C82.63,-28.57 86.64,-38 100.5,-38 108.95,-38 113.74,-34.5 114.86,-29.77"/>
<polygon fill="midnightblue" stroke="midnightblue" points="118.21,-28.7 112.52,-19.76 111.39,-30.29 118.21,-28.7"/>
</g>
<!-- Node3 -->
<g id="node3" class="node">
<title>Node3</title>
<g id="a_node3"><a xlink:href="group__grp__geometry.html#gaaca20aa60eaf39055f3c9d5c02a24ac2" target="_top" xlink:title="Calculates coordinates, , and metrics, using FFTs.">
<polygon fill="white" stroke="black" points="157,-0.5 157,-19.5 203,-19.5 203,-0.5 157,-0.5"/>
<text text-anchor="middle" x="180" y="-7.5" font-family="Helvetica,sans-Serif" font-size="10.00">coords</text>
</a>
</g>
</g>
<!-- Node2&#45;&gt;Node3 -->
<g id="edge3" class="edge">
<title>Node2&#45;&gt;Node3</title>
<path fill="none" stroke="midnightblue" d="M121.06,-10C128.84,-10 137.99,-10 146.71,-10"/>
<polygon fill="midnightblue" stroke="midnightblue" points="146.99,-13.5 156.99,-10 146.99,-6.5 146.99,-13.5"/>
</g>
<!-- Node3&#45;&gt;Node3 -->
<g id="edge4" class="edge">
<title>Node3&#45;&gt;Node3</title>
<path fill="none" stroke="midnightblue" d="M167.98,-19.76C162.13,-28.57 166.14,-38 180,-38 188.45,-38 193.24,-34.5 194.36,-29.77"/>
<polygon fill="midnightblue" stroke="midnightblue" points="197.71,-28.7 192.02,-19.76 190.89,-30.29 197.71,-28.7"/>
</g>
<!-- Node4 -->
<g id="node4" class="node">
<title>Node4</title>
<g id="a_node4"><a xlink:href="group__grp__volume.html#gae4c62d20b8fef07f4471b5b0889ab005" target="_top" xlink:title="Computes volume of each region; and, if required, the derivatives of the volume with respect to the i...">
<polygon fill="white" stroke="black" points="239,-0.5 239,-19.5 287,-19.5 287,-0.5 239,-0.5"/>
<text text-anchor="middle" x="263" y="-7.5" font-family="Helvetica,sans-Serif" font-size="10.00">volume</text>
</a>
</g>
</g>
<!-- Node3&#45;&gt;Node4 -->
<g id="edge5" class="edge">
<title>Node3&#45;&gt;Node4</title>
<path fill="none" stroke="midnightblue" d="M203.13,-3.91C210.99,-3.3 220.02,-3.12 228.61,-3.34"/>
<polygon fill="midnightblue" stroke="midnightblue" points="228.61,-6.85 238.76,-3.83 228.94,0.15 228.61,-6.85"/>
</g>
<!-- Node4&#45;&gt;Node3 -->
<g id="edge6" class="edge">
<title>Node4&#45;&gt;Node3</title>
<path fill="none" stroke="midnightblue" d="M238.76,-16.17C230.8,-16.74 221.74,-16.89 213.19,-16.62"/>
<polygon fill="midnightblue" stroke="midnightblue" points="213.3,-13.12 203.13,-16.09 212.94,-20.11 213.3,-13.12"/>
</g>
<!-- Node4&#45;&gt;Node4 -->
<g id="edge7" class="edge">
<title>Node4&#45;&gt;Node4</title>
<path fill="none" stroke="midnightblue" d="M250.36,-19.76C244.21,-28.57 248.43,-38 263,-38 271.88,-38 276.91,-34.5 278.1,-29.77"/>
<polygon fill="midnightblue" stroke="midnightblue" points="281.43,-28.63 275.64,-19.76 274.63,-30.3 281.43,-28.63"/>
</g>
</g>
</svg>
