<?xml version="1.0" encoding="UTF-8" standalone="no"?>
<!DOCTYPE svg PUBLIC "-//W3C//DTD SVG 1.1//EN"
 "http://www.w3.org/Graphics/SVG/1.1/DTD/svg11.dtd">
<!-- Generated by graphviz version 2.44.0 ()
 -->
<!-- Title: casing Pages: 1 -->
<svg width="464pt" height="123pt"
 viewBox="0.00 0.00 464.00 123.00" xmlns="http://www.w3.org/2000/svg" xmlns:xlink="http://www.w3.org/1999/xlink">
<g id="graph0" class="graph" transform="scale(1 1) rotate(0) translate(4 119)">
<title>casing</title>
<polygon fill="white" stroke="transparent" points="-4,4 -4,-119 460,-119 460,4 -4,4"/>
<!-- Node1 -->
<g id="node1" class="node">
<title>Node1</title>
<g id="a_node1"><a xlink:title="Constructs the field created by the plasma currents, at an arbitrary, external location using virtual...">
<polygon fill="#bfbfbf" stroke="black" points="411,-0.5 411,-19.5 456,-19.5 456,-0.5 411,-0.5"/>
<text text-anchor="middle" x="433.5" y="-7.5" font-family="Helvetica,sans-Serif" font-size="10.00">casing</text>
</a>
</g>
</g>
<!-- Node2 -->
<g id="node2" class="node">
<title>Node2</title>
<g id="a_node2"><a xlink:href="group__grp__free-boundary.html#gac0a2cc2241947b27241bb8ef75c5e0ed" target="_top" xlink:title="Computes &#160;on the computational boundary, .">
<polygon fill="white" stroke="black" points="327,-38.5 327,-57.5 373,-57.5 373,-38.5 327,-38.5"/>
<text text-anchor="middle" x="350" y="-45.5" font-family="Helvetica,sans-Serif" font-size="10.00">bnorml</text>
</a>
</g>
</g>
<!-- Node1&#45;&gt;Node2 -->
<g id="edge1" class="edge">
<title>Node1&#45;&gt;Node2</title>
<path fill="none" stroke="midnightblue" d="M402.79,-23.85C392.42,-28.69 381.02,-34 371.56,-38.41"/>
<polygon fill="midnightblue" stroke="midnightblue" points="404.35,-26.99 411.93,-19.59 401.39,-20.64 404.35,-26.99"/>
</g>
<!-- Node7 -->
<g id="node7" class="node">
<title>Node7</title>
<g id="a_node7"><a xlink:href="group__grp__free-boundary.html#ga281c12a5de84fddd3db4383b0df8627f" target="_top" xlink:title="Differential virtual casing integrand.">
<polygon fill="white" stroke="black" points="325,-0.5 325,-19.5 375,-19.5 375,-0.5 325,-0.5"/>
<text text-anchor="middle" x="350" y="-7.5" font-family="Helvetica,sans-Serif" font-size="10.00">dvcfield</text>
</a>
</g>
</g>
<!-- Node1&#45;&gt;Node7 -->
<g id="edge9" class="edge">
<title>Node1&#45;&gt;Node7</title>
<path fill="none" stroke="midnightblue" d="M400.41,-3.39C392.02,-3.12 383.11,-3.25 375.2,-3.77"/>
<polygon fill="midnightblue" stroke="midnightblue" points="400.48,-6.9 410.66,-3.94 400.86,0.09 400.48,-6.9"/>
</g>
<!-- Node3 -->
<g id="node3" class="node">
<title>Node3</title>
<g id="a_node3"><a xlink:href="group__grp__initialization.html#ga28628de0fdb3b3497668007d8d0643bd" target="_top" xlink:title="Allocates and initializes internal arrays.">
<polygon fill="white" stroke="black" points="245,-57.5 245,-76.5 289,-76.5 289,-57.5 245,-57.5"/>
<text text-anchor="middle" x="267" y="-64.5" font-family="Helvetica,sans-Serif" font-size="10.00">preset</text>
</a>
</g>
</g>
<!-- Node2&#45;&gt;Node3 -->
<g id="edge2" class="edge">
<title>Node2&#45;&gt;Node3</title>
<path fill="none" stroke="midnightblue" d="M317.08,-55.49C307.75,-57.68 297.77,-60.02 289.27,-62.01"/>
<polygon fill="midnightblue" stroke="midnightblue" points="317.93,-58.88 326.87,-53.19 316.33,-52.07 317.93,-58.88"/>
</g>
<!-- Node5 -->
<g id="node5" class="node">
<title>Node5</title>
<g id="a_node5"><a xlink:href="xspech_8f90.html#aea782eae089760a491c2c54f9903abcc" target="_top" xlink:title="Main program of SPEC.">
<polygon fill="white" stroke="black" points="81,-57.5 81,-76.5 128,-76.5 128,-57.5 81,-57.5"/>
<text text-anchor="middle" x="104.5" y="-64.5" font-family="Helvetica,sans-Serif" font-size="10.00">xspech</text>
</a>
</g>
</g>
<!-- Node2&#45;&gt;Node5 -->
<g id="edge8" class="edge">
<title>Node2&#45;&gt;Node5</title>
<path fill="none" stroke="midnightblue" d="M316.57,-46.87C296.03,-46.44 268.93,-46.38 245,-48 203.54,-50.81 155.63,-58.27 128.12,-62.96"/>
<polygon fill="midnightblue" stroke="midnightblue" points="316.57,-50.37 326.65,-47.13 316.75,-43.38 316.57,-50.37"/>
</g>
<!-- Node4 -->
<g id="node4" class="node">
<title>Node4</title>
<g id="a_node4"><a xlink:href="group__grp__diagnostics.html#ga7401b50ec10c6598ee4a8112717a63ec" target="_top" xlink:title="Computes eigenvalues and eigenvectors of derivative matrix, .">
<polygon fill="white" stroke="black" points="164,-95.5 164,-114.5 209,-114.5 209,-95.5 164,-95.5"/>
<text text-anchor="middle" x="186.5" y="-102.5" font-family="Helvetica,sans-Serif" font-size="10.00">hesian</text>
</a>
</g>
</g>
<!-- Node3&#45;&gt;Node4 -->
<g id="edge3" class="edge">
<title>Node3&#45;&gt;Node4</title>
<path fill="none" stroke="midnightblue" d="M237.07,-81C227.17,-85.8 216.32,-91.05 207.3,-95.41"/>
<polygon fill="midnightblue" stroke="midnightblue" points="238.72,-84.1 246.19,-76.59 235.67,-77.8 238.72,-84.1"/>
</g>
<!-- Node3&#45;&gt;Node5 -->
<g id="edge7" class="edge">
<title>Node3&#45;&gt;Node5</title>
<path fill="none" stroke="midnightblue" d="M234.33,-67C203.04,-67 155.94,-67 128.2,-67"/>
<polygon fill="midnightblue" stroke="midnightblue" points="234.69,-70.5 244.69,-67 234.69,-63.5 234.69,-70.5"/>
</g>
<!-- Node4&#45;&gt;Node5 -->
<g id="edge4" class="edge">
<title>Node4&#45;&gt;Node5</title>
<path fill="none" stroke="midnightblue" d="M156.02,-91C145.93,-86.2 134.87,-80.95 125.68,-76.59"/>
<polygon fill="midnightblue" stroke="midnightblue" points="154.78,-94.28 165.31,-95.41 157.78,-87.96 154.78,-94.28"/>
</g>
<!-- Node6 -->
<g id="node6" class="node">
<title>Node6</title>
<g id="a_node6"><a xlink:href="xspech_8f90.html#a537af4990058c0b0f2cd8b3669af204f" target="_top" xlink:title="todo remark">
<polygon fill="white" stroke="black" points="0,-57.5 0,-76.5 45,-76.5 45,-57.5 0,-57.5"/>
<text text-anchor="middle" x="22.5" y="-64.5" font-family="Helvetica,sans-Serif" font-size="10.00">ending</text>
</a>
</g>
</g>
<!-- Node5&#45;&gt;Node6 -->
<g id="edge5" class="edge">
<title>Node5&#45;&gt;Node6</title>
<path fill="none" stroke="midnightblue" d="M70.65,-60.35C62.06,-60.11 53.01,-60.3 45.17,-60.92"/>
<polygon fill="midnightblue" stroke="midnightblue" points="70.63,-63.85 80.79,-60.84 70.97,-56.86 70.63,-63.85"/>
</g>
<!-- Node6&#45;&gt;Node5 -->
<g id="edge6" class="edge">
<title>Node6&#45;&gt;Node5</title>
<path fill="none" stroke="midnightblue" d="M55.22,-73.62C63.77,-73.89 72.84,-73.74 80.79,-73.16"/>
<polygon fill="midnightblue" stroke="midnightblue" points="55.34,-70.12 45.17,-73.08 54.96,-77.11 55.34,-70.12"/>
</g>
<!-- Node7&#45;&gt;Node1 -->
<g id="edge10" class="edge">
<title>Node7&#45;&gt;Node1</title>
<path fill="none" stroke="midnightblue" d="M385.35,-16.68C393.92,-16.88 402.88,-16.67 410.66,-16.06"/>
<polygon fill="midnightblue" stroke="midnightblue" points="385.34,-13.17 375.2,-16.23 385.03,-20.16 385.34,-13.17"/>
</g>
</g>
</svg>
