<?xml version="1.0" encoding="UTF-8" standalone="no"?>
<!DOCTYPE svg PUBLIC "-//W3C//DTD SVG 1.1//EN"
 "http://www.w3.org/Graphics/SVG/1.1/DTD/svg11.dtd">
<!-- Generated by graphviz version 2.49.3 (20211027.1534)
 -->
<!-- Title: curent Pages: 1 -->
<svg width="281pt" height="114pt"
 viewBox="0.00 0.00 281.00 113.50" xmlns="http://www.w3.org/2000/svg" xmlns:xlink="http://www.w3.org/1999/xlink">
<g id="graph0" class="graph" transform="scale(1 1) rotate(0) translate(4 109.5)">
<title>curent</title>
<polygon fill="white" stroke="transparent" points="-4,4 -4,-109.5 277,-109.5 277,4 -4,4"/>
<!-- Node1 -->
<g id="node1" class="node">
<title>Node1</title>
<g id="a_node1"><a xlink:title="Computes the plasma current, , and the &quot;linking&quot; current, .">
<polygon fill="#bfbfbf" stroke="black" points="0,-31.5 0,-50.5 44,-50.5 44,-31.5 0,-31.5"/>
<text text-anchor="middle" x="22" y="-38.5" font-family="Helvetica,sans-Serif" font-size="10.00">curent</text>
</a>
</g>
</g>
<!-- Node1&#45;&gt;Node1 -->
<g id="edge8" class="edge">
<title>Node1&#45;&gt;Node1</title>
<path fill="none" stroke="midnightblue" d="M4.74,-50.76C-3.66,-59.57 2.09,-69 22,-69 34.44,-69 41.35,-65.31 42.74,-60.4"/>
<polygon fill="midnightblue" stroke="midnightblue" points="45.95,-58.98 39.26,-50.76 39.36,-61.35 45.95,-58.98"/>
</g>
<!-- Node2 -->
<g id="node2" class="node">
<title>Node2</title>
<g id="a_node2"><a xlink:href="namespaceallglobal.html#af3f23b45db519a643eea14b410e6d428" target="_top" xlink:title=" ">
<polygon fill="white" stroke="black" points="80,-57 80,-87 189,-87 189,-57 80,-57"/>
<text text-anchor="start" x="88" y="-75" font-family="Helvetica,sans-Serif" font-size="10.00">allglobal::build_vector</text>
<text text-anchor="middle" x="134.5" y="-64" font-family="Helvetica,sans-Serif" font-size="10.00">_potential</text>
</a>
</g>
</g>
<!-- Node1&#45;&gt;Node2 -->
<g id="edge1" class="edge">
<title>Node1&#45;&gt;Node2</title>
<path fill="none" stroke="midnightblue" d="M44.04,-46.9C51.67,-49.04 60.72,-51.58 70.09,-54.21"/>
<polygon fill="midnightblue" stroke="midnightblue" points="69.36,-57.64 79.93,-56.97 71.25,-50.9 69.36,-57.64"/>
</g>
<!-- Node3 -->
<g id="node3" class="node">
<title>Node3</title>
<g id="a_node3"><a xlink:href="group__grp__geometry.html#gaaca20aa60eaf39055f3c9d5c02a24ac2" target="_top" xlink:title="Calculates coordinates, , and metrics, using FFTs.">
<polygon fill="white" stroke="black" points="111.5,-0.5 111.5,-19.5 157.5,-19.5 157.5,-0.5 111.5,-0.5"/>
<text text-anchor="middle" x="134.5" y="-7.5" font-family="Helvetica,sans-Serif" font-size="10.00">coords</text>
</a>
</g>
</g>
<!-- Node1&#45;&gt;Node3 -->
<g id="edge3" class="edge">
<title>Node1&#45;&gt;Node3</title>
<path fill="none" stroke="midnightblue" d="M44.04,-35.1C60.32,-30.53 83.12,-24.13 101.63,-18.94"/>
<polygon fill="midnightblue" stroke="midnightblue" points="102.72,-22.27 111.4,-16.2 100.82,-15.53 102.72,-22.27"/>
</g>
<!-- Node2&#45;&gt;Node2 -->
<g id="edge2" class="edge">
<title>Node2&#45;&gt;Node2</title>
<path fill="none" stroke="midnightblue" d="M114.98,-87.16C110.28,-96.56 116.78,-105.5 134.5,-105.5 145.3,-105.5 151.93,-102.18 154.4,-97.46"/>
<polygon fill="midnightblue" stroke="midnightblue" points="157.89,-97.02 154.02,-87.16 150.89,-97.28 157.89,-97.02"/>
</g>
<!-- Node3&#45;&gt;Node3 -->
<g id="edge4" class="edge">
<title>Node3&#45;&gt;Node3</title>
<path fill="none" stroke="midnightblue" d="M117.24,-19.76C108.84,-28.57 114.59,-38 134.5,-38 146.94,-38 153.85,-34.31 155.24,-29.4"/>
<polygon fill="midnightblue" stroke="midnightblue" points="158.45,-27.98 151.76,-19.76 151.86,-30.35 158.45,-27.98"/>
</g>
<!-- Node4 -->
<g id="node4" class="node">
<title>Node4</title>
<g id="a_node4"><a xlink:href="group__grp__volume.html#gae4c62d20b8fef07f4471b5b0889ab005" target="_top" xlink:title="Computes volume of each region; and, if required, the derivatives of the volume with respect to the i...">
<polygon fill="white" stroke="black" points="225,-0.5 225,-19.5 273,-19.5 273,-0.5 225,-0.5"/>
<text text-anchor="middle" x="249" y="-7.5" font-family="Helvetica,sans-Serif" font-size="10.00">volume</text>
</a>
</g>
</g>
<!-- Node3&#45;&gt;Node4 -->
<g id="edge5" class="edge">
<title>Node3&#45;&gt;Node4</title>
<path fill="none" stroke="midnightblue" d="M157.73,-4.5C173.97,-3.13 196.27,-2.89 214.64,-3.77"/>
<polygon fill="midnightblue" stroke="midnightblue" points="214.46,-7.27 224.66,-4.4 214.9,-0.28 214.46,-7.27"/>
</g>
<!-- Node4&#45;&gt;Node3 -->
<g id="edge6" class="edge">
<title>Node4&#45;&gt;Node3</title>
<path fill="none" stroke="midnightblue" d="M224.66,-15.6C208.22,-16.91 186.01,-17.1 167.86,-16.18"/>
<polygon fill="midnightblue" stroke="midnightblue" points="167.94,-12.67 157.73,-15.5 167.47,-19.66 167.94,-12.67"/>
</g>
<!-- Node4&#45;&gt;Node4 -->
<g id="edge7" class="edge">
<title>Node4&#45;&gt;Node4</title>
<path fill="none" stroke="midnightblue" d="M231.43,-19.76C222.88,-28.57 228.74,-38 249,-38 261.66,-38 268.7,-34.31 270.11,-29.4"/>
<polygon fill="midnightblue" stroke="midnightblue" points="273.3,-27.94 266.57,-19.76 266.73,-30.35 273.3,-27.94"/>
</g>
</g>
</svg>
