<?xml version="1.0" encoding="UTF-8" standalone="no"?>
<!DOCTYPE svg PUBLIC "-//W3C//DTD SVG 1.1//EN"
 "http://www.w3.org/Graphics/SVG/1.1/DTD/svg11.dtd">
<!-- Generated by graphviz version 2.44.1 (0)
 -->
<!-- Title: preset Pages: 1 -->
<svg width="421pt" height="313pt"
 viewBox="0.00 0.00 421.00 313.00" xmlns="http://www.w3.org/2000/svg" xmlns:xlink="http://www.w3.org/1999/xlink">
<g id="graph0" class="graph" transform="scale(1 1) rotate(0) translate(4 309)">
<title>preset</title>
<polygon fill="white" stroke="transparent" points="-4,4 -4,-309 417,-309 417,4 -4,4"/>
<!-- Node1 -->
<g id="node1" class="node">
<title>Node1</title>
<g id="a_node1"><a xlink:title="Allocates and initializes internal arrays.">
<polygon fill="#bfbfbf" stroke="black" points="0,-152.5 0,-171.5 47,-171.5 47,-152.5 0,-152.5"/>
<text text-anchor="middle" x="23.5" y="-159.5" font-family="Helvetica,sans-Serif" font-size="10.00">preset</text>
</a>
</g>
</g>
<!-- Node2 -->
<g id="node2" class="node">
<title>Node2</title>
<g id="a_node2"><a xlink:href="group__grp__free-boundary.html#gac0a2cc2241947b27241bb8ef75c5e0ed" target="_top" xlink:title="Computes &#160;on the computational boundary, .">
<polygon fill="white" stroke="black" points="105,-285.5 105,-304.5 156,-304.5 156,-285.5 105,-285.5"/>
<text text-anchor="middle" x="130.5" y="-292.5" font-family="Helvetica,sans-Serif" font-size="10.00">bnorml</text>
</a>
</g>
</g>
<!-- Node1&#45;&gt;Node2 -->
<g id="edge1" class="edge">
<title>Node1&#45;&gt;Node2</title>
<path fill="none" stroke="midnightblue" d="M27.48,-171.66C34.27,-192.28 52.69,-241.17 83,-271 86.79,-274.73 91.27,-278 95.94,-280.84"/>
<polygon fill="midnightblue" stroke="midnightblue" points="94.54,-284.07 105,-285.76 97.88,-277.91 94.54,-284.07"/>
</g>
<!-- Node5 -->
<g id="node5" class="node">
<title>Node5</title>
<g id="a_node5"><a xlink:href="group__grp__numerics.html#ga041138109a57e651c57117bb4180409e" target="_top" xlink:title="Forward Fourier transform (fftw wrapper)">
<polygon fill="white" stroke="black" points="252.5,-247.5 252.5,-266.5 283.5,-266.5 283.5,-247.5 252.5,-247.5"/>
<text text-anchor="middle" x="268" y="-254.5" font-family="Helvetica,sans-Serif" font-size="10.00">tfft</text>
</a>
</g>
</g>
<!-- Node1&#45;&gt;Node5 -->
<g id="edge17" class="edge">
<title>Node1&#45;&gt;Node5</title>
<path fill="none" stroke="midnightblue" d="M30.76,-171.62C40.28,-185.4 59.75,-210.46 83,-223 134.57,-250.8 204.79,-256.31 241.8,-257.13"/>
<polygon fill="midnightblue" stroke="midnightblue" points="242.12,-260.64 252.16,-257.26 242.2,-253.64 242.12,-260.64"/>
</g>
<!-- Node6 -->
<g id="node6" class="node">
<title>Node6</title>
<g id="a_node6"><a xlink:href="group__grp__geometry.html#gaaca20aa60eaf39055f3c9d5c02a24ac2" target="_top" xlink:title="Calculates coordinates, , and metrics, using FFTs.">
<polygon fill="white" stroke="black" points="106,-171.5 106,-190.5 155,-190.5 155,-171.5 106,-171.5"/>
<text text-anchor="middle" x="130.5" y="-178.5" font-family="Helvetica,sans-Serif" font-size="10.00">coords</text>
</a>
</g>
</g>
<!-- Node1&#45;&gt;Node6 -->
<g id="edge6" class="edge">
<title>Node1&#45;&gt;Node6</title>
<path fill="none" stroke="midnightblue" d="M47.03,-166.08C61.26,-168.65 79.92,-172.03 95.89,-174.92"/>
<polygon fill="midnightblue" stroke="midnightblue" points="95.46,-178.4 105.92,-176.73 96.7,-171.51 95.46,-178.4"/>
</g>
<!-- Node7 -->
<g id="node7" class="node">
<title>Node7</title>
<g id="a_node7"><a xlink:href="group__grp__numerics.html#ga1fd52accb0646f535f9bcc46cf5a68f3" target="_top" xlink:title="Inverse Fourier transform (fftw wrapper)">
<polygon fill="white" stroke="black" points="247,-209.5 247,-228.5 289,-228.5 289,-209.5 247,-209.5"/>
<text text-anchor="middle" x="268" y="-216.5" font-family="Helvetica,sans-Serif" font-size="10.00">invfft</text>
</a>
</g>
</g>
<!-- Node1&#45;&gt;Node7 -->
<g id="edge11" class="edge">
<title>Node1&#45;&gt;Node7</title>
<path fill="none" stroke="midnightblue" d="M35.72,-171.64C46.9,-180.65 64.96,-193.63 83,-200 134.81,-218.3 199.57,-220.62 236.81,-220.15"/>
<polygon fill="midnightblue" stroke="midnightblue" points="237.07,-223.65 247,-219.95 236.93,-216.65 237.07,-223.65"/>
</g>
<!-- Node9 -->
<g id="node9" class="node">
<title>Node9</title>
<g id="a_node9"><a xlink:href="group__grp__numerics.html#ga425e8f1cbf214a3231ab6c874d8fe4be" target="_top" xlink:title="Gauss&#45;Legendre weights and abscissae.">
<polygon fill="white" stroke="black" points="105.5,-133.5 105.5,-152.5 155.5,-152.5 155.5,-133.5 105.5,-133.5"/>
<text text-anchor="middle" x="130.5" y="-140.5" font-family="Helvetica,sans-Serif" font-size="10.00">gauleg</text>
</a>
</g>
</g>
<!-- Node1&#45;&gt;Node9 -->
<g id="edge10" class="edge">
<title>Node1&#45;&gt;Node9</title>
<path fill="none" stroke="midnightblue" d="M47.03,-157.92C61.06,-155.38 79.4,-152.07 95.22,-149.2"/>
<polygon fill="midnightblue" stroke="midnightblue" points="95.97,-152.63 105.18,-147.4 94.72,-145.74 95.97,-152.63"/>
</g>
<!-- Node10 -->
<g id="node10" class="node">
<title>Node10</title>
<g id="a_node10"><a xlink:href="group__grp__build__matrices.html#ga1c52bb6dbffdb432550aae12b096080f" target="_top" xlink:title="Constructs energy and helicity matrices that represent the Beltrami linear system....">
<polygon fill="white" stroke="black" points="106,-95.5 106,-114.5 155,-114.5 155,-95.5 106,-95.5"/>
<text text-anchor="middle" x="130.5" y="-102.5" font-family="Helvetica,sans-Serif" font-size="10.00">matrix</text>
</a>
</g>
</g>
<!-- Node1&#45;&gt;Node10 -->
<g id="edge12" class="edge">
<title>Node1&#45;&gt;Node10</title>
<path fill="none" stroke="midnightblue" d="M38,-152.18C49.59,-144.02 66.9,-132.42 83,-124 87.31,-121.74 91.96,-119.57 96.58,-117.55"/>
<polygon fill="midnightblue" stroke="midnightblue" points="98.06,-120.72 105.93,-113.63 95.35,-114.26 98.06,-120.72"/>
</g>
<!-- Node11 -->
<g id="node11" class="node">
<title>Node11</title>
<g id="a_node11"><a xlink:href="group__grp__output.html#ga08d6a254dbc3d9d40ff1cf0bdfdf2148" target="_top" xlink:title="Writes vector potential to .ext.sp.A .">
<polygon fill="white" stroke="black" points="105.5,-57.5 105.5,-76.5 155.5,-76.5 155.5,-57.5 105.5,-57.5"/>
<text text-anchor="middle" x="130.5" y="-64.5" font-family="Helvetica,sans-Serif" font-size="10.00">ra00aa</text>
</a>
</g>
</g>
<!-- Node1&#45;&gt;Node11 -->
<g id="edge13" class="edge">
<title>Node1&#45;&gt;Node11</title>
<path fill="none" stroke="midnightblue" d="M29.71,-152.27C38.65,-136.39 58.37,-104.78 83,-86 86.87,-83.05 91.26,-80.48 95.77,-78.27"/>
<polygon fill="midnightblue" stroke="midnightblue" points="97.27,-81.43 105.04,-74.23 94.47,-75.02 97.27,-81.43"/>
</g>
<!-- Node12 -->
<g id="node12" class="node">
<title>Node12</title>
<g id="a_node12"><a xlink:href="namespaceallglobal.html#ad32ae6194892fe7d876622a6455189e2" target="_top" xlink:title="The master node reads the input namelist and sets various internal variables. The relevant quantities...">
<polygon fill="white" stroke="black" points="83,-19.5 83,-38.5 178,-38.5 178,-19.5 83,-19.5"/>
<text text-anchor="middle" x="130.5" y="-26.5" font-family="Helvetica,sans-Serif" font-size="10.00">allglobal::readin</text>
</a>
</g>
</g>
<!-- Node1&#45;&gt;Node12 -->
<g id="edge14" class="edge">
<title>Node1&#45;&gt;Node12</title>
<path fill="none" stroke="midnightblue" d="M26.97,-152.34C32.95,-130.74 50.21,-78.07 83,-48 84.67,-46.47 86.48,-45.05 88.39,-43.74"/>
<polygon fill="midnightblue" stroke="midnightblue" points="90.29,-46.69 97.21,-38.66 86.79,-40.62 90.29,-46.69"/>
</g>
<!-- Node3 -->
<g id="node3" class="node">
<title>Node3</title>
<g id="a_node3"><a xlink:href="group__grp__free-boundary.html#ga180576a10002ebf3840fce98d56316bb" target="_top" xlink:title="Constructs the field created by the plasma currents, at an arbitrary, external location using virtual...">
<polygon fill="white" stroke="black" points="244,-285.5 244,-304.5 292,-304.5 292,-285.5 244,-285.5"/>
<text text-anchor="middle" x="268" y="-292.5" font-family="Helvetica,sans-Serif" font-size="10.00">casing</text>
</a>
</g>
</g>
<!-- Node2&#45;&gt;Node3 -->
<g id="edge2" class="edge">
<title>Node2&#45;&gt;Node3</title>
<path fill="none" stroke="midnightblue" d="M156.04,-295C177.83,-295 209.85,-295 233.91,-295"/>
<polygon fill="midnightblue" stroke="midnightblue" points="234,-298.5 244,-295 234,-291.5 234,-298.5"/>
</g>
<!-- Node2&#45;&gt;Node5 -->
<g id="edge5" class="edge">
<title>Node2&#45;&gt;Node5</title>
<path fill="none" stroke="midnightblue" d="M156.04,-288.12C180.49,-281.26 217.82,-270.79 242.32,-263.92"/>
<polygon fill="midnightblue" stroke="midnightblue" points="243.58,-267.2 252.27,-261.13 241.69,-260.46 243.58,-267.2"/>
</g>
<!-- Node4 -->
<g id="node4" class="node">
<title>Node4</title>
<g id="a_node4"><a xlink:href="group__grp__free-boundary.html#ga281c12a5de84fddd3db4383b0df8627f" target="_top" xlink:title="Differential virtual casing integrand.">
<polygon fill="white" stroke="black" points="358,-285.5 358,-304.5 413,-304.5 413,-285.5 358,-285.5"/>
<text text-anchor="middle" x="385.5" y="-292.5" font-family="Helvetica,sans-Serif" font-size="10.00">dvcfield</text>
</a>
</g>
</g>
<!-- Node3&#45;&gt;Node4 -->
<g id="edge3" class="edge">
<title>Node3&#45;&gt;Node4</title>
<path fill="none" stroke="midnightblue" d="M292.1,-289.47C308.02,-288.18 329.52,-287.91 347.77,-288.66"/>
<polygon fill="midnightblue" stroke="midnightblue" points="347.63,-292.16 357.8,-289.21 348.01,-285.17 347.63,-292.16"/>
</g>
<!-- Node4&#45;&gt;Node3 -->
<g id="edge4" class="edge">
<title>Node4&#45;&gt;Node3</title>
<path fill="none" stroke="midnightblue" d="M357.8,-300.79C341.34,-301.92 320.08,-302.05 302.5,-301.19"/>
<polygon fill="midnightblue" stroke="midnightblue" points="302.3,-297.67 292.1,-300.53 301.85,-304.66 302.3,-297.67"/>
</g>
<!-- Node6&#45;&gt;Node7 -->
<g id="edge7" class="edge">
<title>Node6&#45;&gt;Node7</title>
<path fill="none" stroke="midnightblue" d="M155.1,-187.62C177.79,-193.98 212.18,-203.63 236.85,-210.54"/>
<polygon fill="midnightblue" stroke="midnightblue" points="236.19,-213.99 246.76,-213.32 238.08,-207.25 236.19,-213.99"/>
</g>
<!-- Node8 -->
<g id="node8" class="node">
<title>Node8</title>
<g id="a_node8"><a xlink:href="group__grp__volume.html#gae4c62d20b8fef07f4471b5b0889ab005" target="_top" xlink:title="Computes volume of each region; and, if required, the derivatives of the volume with respect to the i...">
<polygon fill="white" stroke="black" points="241.5,-171.5 241.5,-190.5 294.5,-190.5 294.5,-171.5 241.5,-171.5"/>
<text text-anchor="middle" x="268" y="-178.5" font-family="Helvetica,sans-Serif" font-size="10.00">volume</text>
</a>
</g>
</g>
<!-- Node6&#45;&gt;Node8 -->
<g id="edge8" class="edge">
<title>Node6&#45;&gt;Node8</title>
<path fill="none" stroke="midnightblue" d="M155.1,-175.73C176.11,-174.06 207.14,-173.8 231.2,-174.97"/>
<polygon fill="midnightblue" stroke="midnightblue" points="231.17,-178.47 241.36,-175.58 231.59,-171.48 231.17,-178.47"/>
</g>
<!-- Node8&#45;&gt;Node6 -->
<g id="edge9" class="edge">
<title>Node8&#45;&gt;Node6</title>
<path fill="none" stroke="midnightblue" d="M241.36,-186.42C219.84,-188 188.91,-188.17 165.35,-186.93"/>
<polygon fill="midnightblue" stroke="midnightblue" points="165.31,-183.42 155.1,-186.27 164.85,-190.41 165.31,-183.42"/>
</g>
<!-- Node13 -->
<g id="node13" class="node">
<title>Node13</title>
<g id="a_node13"><a xlink:href="group__grp__numerics.html#ga02a336a22890e7ae5a5c2d525260666c" target="_top" xlink:title="Assign Fourier mode labels.">
<polygon fill="white" stroke="black" points="243,-38.5 243,-57.5 293,-57.5 293,-38.5 243,-38.5"/>
<text text-anchor="middle" x="268" y="-45.5" font-family="Helvetica,sans-Serif" font-size="10.00">gi00ab</text>
</a>
</g>
</g>
<!-- Node12&#45;&gt;Node13 -->
<g id="edge15" class="edge">
<title>Node12&#45;&gt;Node13</title>
<path fill="none" stroke="midnightblue" d="M178.13,-35.54C195.97,-38.04 215.97,-40.84 232.48,-43.16"/>
<polygon fill="midnightblue" stroke="midnightblue" points="232.37,-46.68 242.76,-44.6 233.34,-39.75 232.37,-46.68"/>
</g>
<!-- Node14 -->
<g id="node14" class="node">
<title>Node14</title>
<g id="a_node14"><a xlink:href="namespacenumerical.html#ac9cf42743694682672a82103c8ffedda" target="_top" xlink:title="Duplicates NAG routine X02AJF (machine precision)">
<polygon fill="white" stroke="black" points="214,-0.5 214,-19.5 322,-19.5 322,-0.5 214,-0.5"/>
<text text-anchor="middle" x="268" y="-7.5" font-family="Helvetica,sans-Serif" font-size="10.00">numerical::myprec</text>
</a>
</g>
</g>
<!-- Node12&#45;&gt;Node14 -->
<g id="edge16" class="edge">
<title>Node12&#45;&gt;Node14</title>
<path fill="none" stroke="midnightblue" d="M178.13,-22.46C186.38,-21.3 195.1,-20.08 203.72,-18.87"/>
<polygon fill="midnightblue" stroke="midnightblue" points="204.35,-22.32 213.77,-17.46 203.38,-15.39 204.35,-22.32"/>
</g>
</g>
</svg>
