<?xml version="1.0" encoding="UTF-8" standalone="no"?>
<!DOCTYPE svg PUBLIC "-//W3C//DTD SVG 1.1//EN"
 "http://www.w3.org/Graphics/SVG/1.1/DTD/svg11.dtd">
<!-- Generated by graphviz version 2.47.1 (0)
 -->
<!-- Title: pp00aa Pages: 1 -->
<svg width="343pt" height="75pt"
 viewBox="0.00 0.00 343.00 75.00" xmlns="http://www.w3.org/2000/svg" xmlns:xlink="http://www.w3.org/1999/xlink">
<g id="graph0" class="graph" transform="scale(1 1) rotate(0) translate(4 71)">
<title>pp00aa</title>
<polygon fill="white" stroke="transparent" points="-4,4 -4,-71 339,-71 339,4 -4,4"/>
<!-- Node1 -->
<g id="node1" class="node">
<title>Node1</title>
<g id="a_node1"><a xlink:title="Constructs Poincaré plot and &quot;approximate&quot; rotational&#45;transform (driver).">
<polygon fill="#bfbfbf" stroke="black" points="287,-0.5 287,-19.5 335,-19.5 335,-0.5 287,-0.5"/>
<text text-anchor="middle" x="311" y="-7.5" font-family="Helvetica,sans-Serif" font-size="10.00">pp00aa</text>
</a>
</g>
</g>
<!-- Node2 -->
<g id="node2" class="node">
<title>Node2</title>
<g id="a_node2"><a xlink:href="xspech_8f90.html#a48f45478dc2c9f70ea8aa1c60ad06503" target="_top" xlink:title=" ">
<polygon fill="white" stroke="black" points="213,-0.5 213,-19.5 251,-19.5 251,-0.5 213,-0.5"/>
<text text-anchor="middle" x="232" y="-7.5" font-family="Helvetica,sans-Serif" font-size="10.00">spec</text>
</a>
</g>
</g>
<!-- Node1&#45;&gt;Node2 -->
<g id="edge1" class="edge">
<title>Node1&#45;&gt;Node2</title>
<path fill="none" stroke="midnightblue" d="M276.65,-10C268,-10 259.01,-10 251.44,-10"/>
<polygon fill="midnightblue" stroke="midnightblue" points="276.9,-13.5 286.9,-10 276.9,-6.5 276.9,-13.5"/>
</g>
<!-- Node3 -->
<g id="node3" class="node">
<title>Node3</title>
<g id="a_node3"><a xlink:href="group__grp__output.html#ga0f962c09cd5d5eba99f1cba043cb3898" target="_top" xlink:title="Initialize the interface to the HDF5 library and open the output file.">
<polygon fill="white" stroke="black" points="83,-47.5 83,-66.5 177,-66.5 177,-47.5 83,-47.5"/>
<text text-anchor="middle" x="130" y="-54.5" font-family="Helvetica,sans-Serif" font-size="10.00">sphdf5::init_outfile</text>
</a>
</g>
</g>
<!-- Node2&#45;&gt;Node3 -->
<g id="edge2" class="edge">
<title>Node2&#45;&gt;Node3</title>
<path fill="none" stroke="midnightblue" d="M203.49,-22.93C186.97,-30.69 166.32,-40.4 151.29,-47.46"/>
<polygon fill="midnightblue" stroke="midnightblue" points="205.1,-26.04 212.66,-18.62 202.12,-19.71 205.1,-26.04"/>
</g>
<!-- Node4 -->
<g id="node4" class="node">
<title>Node4</title>
<g id="a_node4"><a xlink:href="xspech_8f90.html#aea782eae089760a491c2c54f9903abcc" target="_top" xlink:title="Main program of SPEC.">
<polygon fill="white" stroke="black" points="0,-0.5 0,-19.5 47,-19.5 47,-0.5 0,-0.5"/>
<text text-anchor="middle" x="23.5" y="-7.5" font-family="Helvetica,sans-Serif" font-size="10.00">xspech</text>
</a>
</g>
</g>
<!-- Node2&#45;&gt;Node4 -->
<g id="edge5" class="edge">
<title>Node2&#45;&gt;Node4</title>
<path fill="none" stroke="midnightblue" d="M202.7,-5.18C161.3,-2.48 85.03,-2.61 47.12,-5.59"/>
<polygon fill="midnightblue" stroke="midnightblue" points="202.43,-8.67 212.67,-5.95 202.97,-1.69 202.43,-8.67"/>
</g>
<!-- Node3&#45;&gt;Node4 -->
<g id="edge3" class="edge">
<title>Node3&#45;&gt;Node4</title>
<path fill="none" stroke="midnightblue" d="M98.43,-43.25C81.59,-35.68 61.11,-26.46 45.97,-19.66"/>
<polygon fill="midnightblue" stroke="midnightblue" points="97.3,-46.58 107.85,-47.49 100.17,-40.19 97.3,-46.58"/>
</g>
<!-- Node4&#45;&gt;Node2 -->
<g id="edge4" class="edge">
<title>Node4&#45;&gt;Node2</title>
<path fill="none" stroke="midnightblue" d="M57.28,-15.09C101.23,-17.61 177.75,-17.26 212.67,-14.05"/>
<polygon fill="midnightblue" stroke="midnightblue" points="57.33,-11.59 47.12,-14.41 56.86,-18.57 57.33,-11.59"/>
</g>
</g>
</svg>
