<?xml version="1.0" encoding="UTF-8" standalone="no"?>
<!DOCTYPE svg PUBLIC "-//W3C//DTD SVG 1.1//EN"
 "http://www.w3.org/Graphics/SVG/1.1/DTD/svg11.dtd">
<!-- Generated by graphviz version 2.44.1 (0)
 -->
<!-- Title: volume Pages: 1 -->
<svg width="526pt" height="370pt"
 viewBox="0.00 0.00 526.00 370.00" xmlns="http://www.w3.org/2000/svg" xmlns:xlink="http://www.w3.org/1999/xlink">
<g id="graph0" class="graph" transform="scale(1 1) rotate(0) translate(4 366)">
<title>volume</title>
<polygon fill="white" stroke="transparent" points="-4,4 -4,-366 522,-366 522,4 -4,4"/>
<!-- Node1 -->
<g id="node1" class="node">
<title>Node1</title>
<g id="a_node1"><a xlink:title="Computes volume of each region; and, if required, the derivatives of the volume with respect to the i...">
<polygon fill="#bfbfbf" stroke="black" points="465,-133.5 465,-152.5 518,-152.5 518,-133.5 465,-133.5"/>
<text text-anchor="middle" x="491.5" y="-140.5" font-family="Helvetica,sans-Serif" font-size="10.00">volume</text>
</a>
</g>
</g>
<!-- Node2 -->
<g id="node2" class="node">
<title>Node2</title>
<g id="a_node2"><a xlink:href="group__grp__geometry.html#gaaca20aa60eaf39055f3c9d5c02a24ac2" target="_top" xlink:title="Calculates coordinates, , and metrics, using FFTs.">
<polygon fill="white" stroke="black" points="378,-228.5 378,-247.5 427,-247.5 427,-228.5 378,-228.5"/>
<text text-anchor="middle" x="402.5" y="-235.5" font-family="Helvetica,sans-Serif" font-size="10.00">coords</text>
</a>
</g>
</g>
<!-- Node1&#45;&gt;Node2 -->
<g id="edge1" class="edge">
<title>Node1&#45;&gt;Node2</title>
<path fill="none" stroke="midnightblue" d="M469.51,-160.05C449.64,-180.04 421.12,-211.96 409.14,-228.3"/>
<polygon fill="midnightblue" stroke="midnightblue" points="472.23,-162.29 476.91,-152.78 467.32,-157.29 472.23,-162.29"/>
</g>
<!-- Node7 -->
<g id="node7" class="node">
<title>Node7</title>
<g id="a_node7"><a xlink:href="xspech_8f90.html#aea782eae089760a491c2c54f9903abcc" target="_top" xlink:title="Main program of SPEC.">
<polygon fill="white" stroke="black" points="88.5,-190.5 88.5,-209.5 139.5,-209.5 139.5,-190.5 88.5,-190.5"/>
<text text-anchor="middle" x="114" y="-197.5" font-family="Helvetica,sans-Serif" font-size="10.00">xspech</text>
</a>
</g>
</g>
<!-- Node1&#45;&gt;Node7 -->
<g id="edge30" class="edge">
<title>Node1&#45;&gt;Node7</title>
<path fill="none" stroke="midnightblue" d="M454.54,-145.35C396.07,-149.63 276.94,-160.23 178,-181 165.14,-183.7 151.12,-187.81 139.58,-191.51"/>
<polygon fill="midnightblue" stroke="midnightblue" points="455.01,-148.83 464.74,-144.63 454.51,-141.85 455.01,-148.83"/>
</g>
<!-- Node11 -->
<g id="node11" class="node">
<title>Node11</title>
<g id="a_node11"><a xlink:href="group__grp__integrals.html#ga400af9e33dd5465ff9a4bba9fbf91108" target="_top" xlink:title="Calculates volume integrals of Chebyshev polynomials and metric element products.">
<polygon fill="white" stroke="black" points="186.5,-190.5 186.5,-209.5 242.5,-209.5 242.5,-190.5 186.5,-190.5"/>
<text text-anchor="middle" x="214.5" y="-197.5" font-family="Helvetica,sans-Serif" font-size="10.00">ma00aa</text>
</a>
</g>
</g>
<!-- Node1&#45;&gt;Node11 -->
<g id="edge26" class="edge">
<title>Node1&#45;&gt;Node11</title>
<path fill="none" stroke="midnightblue" d="M455.02,-148.79C414.28,-155.64 345.53,-167.78 287,-181 272.22,-184.34 255.87,-188.64 242.54,-192.3"/>
<polygon fill="midnightblue" stroke="midnightblue" points="455.71,-152.23 464.99,-147.13 454.55,-145.32 455.71,-152.23"/>
</g>
<!-- Node14 -->
<g id="node14" class="node">
<title>Node14</title>
<g id="a_node14"><a xlink:href="group__grp__force__driver.html#ga8ccd6c7d901872702521d0a0edf95412" target="_top" xlink:title="fcn2">
<polygon fill="white" stroke="black" points="383.5,-76.5 383.5,-95.5 421.5,-95.5 421.5,-76.5 383.5,-76.5"/>
<text text-anchor="middle" x="402.5" y="-83.5" font-family="Helvetica,sans-Serif" font-size="10.00">fcn2</text>
</a>
</g>
</g>
<!-- Node1&#45;&gt;Node14 -->
<g id="edge17" class="edge">
<title>Node1&#45;&gt;Node14</title>
<path fill="none" stroke="midnightblue" d="M467.14,-127.69C451.51,-117.45 431.42,-104.29 418.04,-95.53"/>
<polygon fill="midnightblue" stroke="midnightblue" points="465.46,-130.78 475.74,-133.33 469.3,-124.92 465.46,-130.78"/>
</g>
<!-- Node18 -->
<g id="node18" class="node">
<title>Node18</title>
<g id="a_node18"><a xlink:href="group__grp__diagnostics.html#ga831aed2458140e266ee4d37461dd5350" target="_top" xlink:title="Constructs Poincaré plot and &quot;approximate&quot; rotational&#45;transform (for single field line).">
<polygon fill="white" stroke="black" points="376,-19.5 376,-38.5 429,-38.5 429,-19.5 376,-19.5"/>
<text text-anchor="middle" x="402.5" y="-26.5" font-family="Helvetica,sans-Serif" font-size="10.00">pp00ab</text>
</a>
</g>
</g>
<!-- Node1&#45;&gt;Node18 -->
<g id="edge27" class="edge">
<title>Node1&#45;&gt;Node18</title>
<path fill="none" stroke="midnightblue" d="M476.93,-125.22C458.32,-100.83 425.52,-57.86 410.9,-38.69"/>
<polygon fill="midnightblue" stroke="midnightblue" points="474.23,-127.45 483.08,-133.28 479.8,-123.21 474.23,-127.45"/>
</g>
<!-- Node2&#45;&gt;Node1 -->
<g id="edge16" class="edge">
<title>Node2&#45;&gt;Node1</title>
<path fill="none" stroke="midnightblue" d="M424.2,-221.25C444.04,-201.31 472.71,-169.24 484.79,-152.79"/>
<polygon fill="midnightblue" stroke="midnightblue" points="421.51,-218.98 416.82,-228.48 426.41,-223.98 421.51,-218.98"/>
</g>
<!-- Node3 -->
<g id="node3" class="node">
<title>Node3</title>
<g id="a_node3"><a xlink:href="group__grp__currents.html#gacaf4411e0ba378631dcd2ccb3752e452" target="_top" xlink:title="Computes the plasma current, , and the &quot;linking&quot; current, .">
<polygon fill="white" stroke="black" points="290,-342.5 290,-361.5 337,-361.5 337,-342.5 290,-342.5"/>
<text text-anchor="middle" x="313.5" y="-349.5" font-family="Helvetica,sans-Serif" font-size="10.00">curent</text>
</a>
</g>
</g>
<!-- Node2&#45;&gt;Node3 -->
<g id="edge2" class="edge">
<title>Node2&#45;&gt;Node3</title>
<path fill="none" stroke="midnightblue" d="M390.55,-256.44C379.01,-275.24 359.8,-304.85 340,-328 335.65,-333.08 330.33,-338.23 325.68,-342.44"/>
<polygon fill="midnightblue" stroke="midnightblue" points="393.66,-258.05 395.84,-247.68 387.67,-254.43 393.66,-258.05"/>
</g>
<!-- Node6 -->
<g id="node6" class="node">
<title>Node6</title>
<g id="a_node6"><a xlink:href="group__grp__diagnostics.html#ga6411205c36a7d50002d7f3fb3133c441" target="_top" xlink:title="Measures error in Beltrami equation, .">
<polygon fill="white" stroke="black" points="189.5,-304.5 189.5,-323.5 239.5,-323.5 239.5,-304.5 189.5,-304.5"/>
<text text-anchor="middle" x="214.5" y="-311.5" font-family="Helvetica,sans-Serif" font-size="10.00">jo00aa</text>
</a>
</g>
</g>
<!-- Node2&#45;&gt;Node6 -->
<g id="edge5" class="edge">
<title>Node2&#45;&gt;Node6</title>
<path fill="none" stroke="midnightblue" d="M387.8,-255.41C376.46,-268.52 359.15,-285.76 340,-295 307.7,-310.58 265.69,-314 239.67,-314.44"/>
<polygon fill="midnightblue" stroke="midnightblue" points="390.66,-257.45 394.35,-247.51 385.27,-252.98 390.66,-257.45"/>
</g>
<!-- Node9 -->
<g id="node9" class="node">
<title>Node9</title>
<g id="a_node9"><a xlink:href="group__grp__local__force.html#ga7a5316b9e5eeb42811aa6bccd29a132f" target="_top" xlink:title="Computes , and the spectral condensation constraints if required, on the interfaces,...">
<polygon fill="white" stroke="black" points="291.5,-266.5 291.5,-285.5 335.5,-285.5 335.5,-266.5 291.5,-266.5"/>
<text text-anchor="middle" x="313.5" y="-273.5" font-family="Helvetica,sans-Serif" font-size="10.00">lforce</text>
</a>
</g>
</g>
<!-- Node2&#45;&gt;Node9 -->
<g id="edge9" class="edge">
<title>Node2&#45;&gt;Node9</title>
<path fill="none" stroke="midnightblue" d="M370.24,-251.65C358.72,-256.69 345.95,-262.26 335.55,-266.81"/>
<polygon fill="midnightblue" stroke="midnightblue" points="371.78,-254.8 379.55,-247.59 368.98,-248.38 371.78,-254.8"/>
</g>
<!-- Node10 -->
<g id="node10" class="node">
<title>Node10</title>
<g id="a_node10"><a xlink:href="group__grp__metrics.html#ga254ce8e645c4110d77e3b3dbc3a89885" target="_top" xlink:title="Calculates the metric quantities, , which are required for the energy and helicity integrals.">
<polygon fill="white" stroke="black" points="289,-190.5 289,-209.5 338,-209.5 338,-190.5 289,-190.5"/>
<text text-anchor="middle" x="313.5" y="-197.5" font-family="Helvetica,sans-Serif" font-size="10.00">metrix</text>
</a>
</g>
</g>
<!-- Node2&#45;&gt;Node10 -->
<g id="edge10" class="edge">
<title>Node2&#45;&gt;Node10</title>
<path fill="none" stroke="midnightblue" d="M370.12,-224.29C358.96,-219.42 346.65,-214.04 336.45,-209.59"/>
<polygon fill="midnightblue" stroke="midnightblue" points="368.98,-227.62 379.55,-228.41 371.78,-221.2 368.98,-227.62"/>
</g>
<!-- Node12 -->
<g id="node12" class="node">
<title>Node12</title>
<g id="a_node12"><a xlink:href="group__grp__initialization.html#ga28628de0fdb3b3497668007d8d0643bd" target="_top" xlink:title="Allocates and initializes internal arrays.">
<polygon fill="white" stroke="black" points="290,-228.5 290,-247.5 337,-247.5 337,-228.5 290,-228.5"/>
<text text-anchor="middle" x="313.5" y="-235.5" font-family="Helvetica,sans-Serif" font-size="10.00">preset</text>
</a>
</g>
</g>
<!-- Node2&#45;&gt;Node12 -->
<g id="edge12" class="edge">
<title>Node2&#45;&gt;Node12</title>
<path fill="none" stroke="midnightblue" d="M367.46,-238C357.25,-238 346.31,-238 337.05,-238"/>
<polygon fill="midnightblue" stroke="midnightblue" points="367.73,-241.5 377.73,-238 367.73,-234.5 367.73,-241.5"/>
</g>
<!-- Node4 -->
<g id="node4" class="node">
<title>Node4</title>
<g id="a_node4"><a xlink:href="group__grp__solver.html#ga6626839aff500f060beb5bce2b90c447" target="_top" xlink:title="Solves Beltrami/vacuum (linear) system, given matrices.unpacking fluxes, helicity multiplier">
<polygon fill="white" stroke="black" points="186.5,-342.5 186.5,-361.5 242.5,-361.5 242.5,-342.5 186.5,-342.5"/>
<text text-anchor="middle" x="214.5" y="-349.5" font-family="Helvetica,sans-Serif" font-size="10.00">mp00ac</text>
</a>
</g>
</g>
<!-- Node3&#45;&gt;Node4 -->
<g id="edge3" class="edge">
<title>Node3&#45;&gt;Node4</title>
<path fill="none" stroke="midnightblue" d="M279.47,-352C267.53,-352 254.2,-352 242.8,-352"/>
<polygon fill="midnightblue" stroke="midnightblue" points="279.51,-355.5 289.51,-352 279.51,-348.5 279.51,-355.5"/>
</g>
<!-- Node5 -->
<g id="node5" class="node">
<title>Node5</title>
<g id="a_node5"><a xlink:href="group__grp__solver__driver.html#gacad623d4c5c006e9ad10116372f92ad3" target="_top" xlink:title="Constructs Beltrami field in given volume consistent with flux, helicity, rotational&#45;transform and/or...">
<polygon fill="white" stroke="black" points="86,-342.5 86,-361.5 142,-361.5 142,-342.5 86,-342.5"/>
<text text-anchor="middle" x="114" y="-349.5" font-family="Helvetica,sans-Serif" font-size="10.00">ma02aa</text>
</a>
</g>
</g>
<!-- Node4&#45;&gt;Node5 -->
<g id="edge4" class="edge">
<title>Node4&#45;&gt;Node5</title>
<path fill="none" stroke="midnightblue" d="M176.23,-352C164.88,-352 152.63,-352 142.09,-352"/>
<polygon fill="midnightblue" stroke="midnightblue" points="176.32,-355.5 186.32,-352 176.32,-348.5 176.32,-355.5"/>
</g>
<!-- Node6&#45;&gt;Node7 -->
<g id="edge6" class="edge">
<title>Node6&#45;&gt;Node7</title>
<path fill="none" stroke="midnightblue" d="M188.25,-298.64C184.64,-295.96 181.1,-293.05 178,-290 152.03,-264.45 129.74,-226.93 120.1,-209.52"/>
<polygon fill="midnightblue" stroke="midnightblue" points="186.42,-301.63 196.65,-304.4 190.39,-295.86 186.42,-301.63"/>
</g>
<!-- Node8 -->
<g id="node8" class="node">
<title>Node8</title>
<g id="a_node8"><a xlink:href="xspech_8f90.html#a537af4990058c0b0f2cd8b3669af204f" target="_top" xlink:title="todo remark">
<polygon fill="white" stroke="black" points="0,-190.5 0,-209.5 50,-209.5 50,-190.5 0,-190.5"/>
<text text-anchor="middle" x="25" y="-197.5" font-family="Helvetica,sans-Serif" font-size="10.00">ending</text>
</a>
</g>
</g>
<!-- Node7&#45;&gt;Node8 -->
<g id="edge7" class="edge">
<title>Node7&#45;&gt;Node8</title>
<path fill="none" stroke="midnightblue" d="M78.07,-193.37C68.7,-193.11 58.79,-193.28 50.16,-193.88"/>
<polygon fill="midnightblue" stroke="midnightblue" points="78.15,-196.88 88.3,-193.84 78.48,-189.88 78.15,-196.88"/>
</g>
<!-- Node8&#45;&gt;Node7 -->
<g id="edge8" class="edge">
<title>Node8&#45;&gt;Node7</title>
<path fill="none" stroke="midnightblue" d="M60.35,-206.62C69.69,-206.89 79.62,-206.74 88.3,-206.16"/>
<polygon fill="midnightblue" stroke="midnightblue" points="60.32,-203.11 50.16,-206.12 59.98,-210.1 60.32,-203.11"/>
</g>
<!-- Node10&#45;&gt;Node11 -->
<g id="edge11" class="edge">
<title>Node10&#45;&gt;Node11</title>
<path fill="none" stroke="midnightblue" d="M278.23,-200C266.55,-200 253.66,-200 242.62,-200"/>
<polygon fill="midnightblue" stroke="midnightblue" points="278.52,-203.5 288.52,-200 278.52,-196.5 278.52,-203.5"/>
</g>
<!-- Node12&#45;&gt;Node7 -->
<g id="edge15" class="edge">
<title>Node12&#45;&gt;Node7</title>
<path fill="none" stroke="midnightblue" d="M281.16,-251.02C253.24,-260.63 211.71,-269.99 178,-257 153.23,-247.46 132.14,-223.15 121.81,-209.56"/>
<polygon fill="midnightblue" stroke="midnightblue" points="282.59,-254.22 290.79,-247.5 280.19,-247.64 282.59,-254.22"/>
</g>
<!-- Node13 -->
<g id="node13" class="node">
<title>Node13</title>
<g id="a_node13"><a xlink:href="group__grp__diagnostics.html#ga7401b50ec10c6598ee4a8112717a63ec" target="_top" xlink:title="Computes eigenvalues and eigenvectors of derivative matrix, .">
<polygon fill="white" stroke="black" points="190,-228.5 190,-247.5 239,-247.5 239,-228.5 190,-228.5"/>
<text text-anchor="middle" x="214.5" y="-235.5" font-family="Helvetica,sans-Serif" font-size="10.00">hesian</text>
</a>
</g>
</g>
<!-- Node12&#45;&gt;Node13 -->
<g id="edge13" class="edge">
<title>Node12&#45;&gt;Node13</title>
<path fill="none" stroke="midnightblue" d="M279.41,-238C266.25,-238 251.4,-238 239.34,-238"/>
<polygon fill="midnightblue" stroke="midnightblue" points="279.51,-241.5 289.51,-238 279.51,-234.5 279.51,-241.5"/>
</g>
<!-- Node13&#45;&gt;Node7 -->
<g id="edge14" class="edge">
<title>Node13&#45;&gt;Node7</title>
<path fill="none" stroke="midnightblue" d="M180.2,-225.15C166.97,-220.05 152.02,-214.28 139.78,-209.56"/>
<polygon fill="midnightblue" stroke="midnightblue" points="179.32,-228.56 189.91,-228.9 181.84,-222.03 179.32,-228.56"/>
</g>
<!-- Node15 -->
<g id="node15" class="node">
<title>Node15</title>
<g id="a_node15"><a xlink:href="group__grp__force__driver.html#gaec14f81fbdbedafbc4189489ec8ae178" target="_top" xlink:title="Employs Newton method to find , where &#160;and &#160;is defined in dforce() .">
<polygon fill="white" stroke="black" points="287,-76.5 287,-95.5 340,-95.5 340,-76.5 287,-76.5"/>
<text text-anchor="middle" x="313.5" y="-83.5" font-family="Helvetica,sans-Serif" font-size="10.00">newton</text>
</a>
</g>
</g>
<!-- Node14&#45;&gt;Node15 -->
<g id="edge18" class="edge">
<title>Node14&#45;&gt;Node15</title>
<path fill="none" stroke="midnightblue" d="M373.36,-79.64C362.66,-79.08 350.54,-79.12 340.09,-79.79"/>
<polygon fill="midnightblue" stroke="midnightblue" points="373.24,-83.14 383.47,-80.41 373.77,-76.16 373.24,-83.14"/>
</g>
<!-- Node15&#45;&gt;Node7 -->
<g id="edge25" class="edge">
<title>Node15&#45;&gt;Node7</title>
<path fill="none" stroke="midnightblue" d="M277.61,-99.18C249.68,-110.4 210.04,-127.87 178,-148 157.83,-160.68 137,-179.11 125.06,-190.28"/>
<polygon fill="midnightblue" stroke="midnightblue" points="278.95,-102.41 286.96,-95.48 276.37,-95.9 278.95,-102.41"/>
</g>
<!-- Node15&#45;&gt;Node14 -->
<g id="edge21" class="edge">
<title>Node15&#45;&gt;Node14</title>
<path fill="none" stroke="midnightblue" d="M350.28,-92.65C361.71,-92.94 373.87,-92.59 383.47,-91.59"/>
<polygon fill="midnightblue" stroke="midnightblue" points="350.23,-89.15 340.09,-92.21 349.93,-96.14 350.23,-89.15"/>
</g>
<!-- Node16 -->
<g id="node16" class="node">
<title>Node16</title>
<g id="a_node16"><a xlink:href="group__grp__force__driver.html#gabbc245b3884ee8d8d3e2a52f25149f78" target="_top" xlink:title="fcn1">
<polygon fill="white" stroke="black" points="195.5,-76.5 195.5,-95.5 233.5,-95.5 233.5,-76.5 195.5,-76.5"/>
<text text-anchor="middle" x="214.5" y="-83.5" font-family="Helvetica,sans-Serif" font-size="10.00">fcn1</text>
</a>
</g>
</g>
<!-- Node15&#45;&gt;Node16 -->
<g id="edge19" class="edge">
<title>Node15&#45;&gt;Node16</title>
<path fill="none" stroke="midnightblue" d="M276.51,-79.45C261.92,-78.97 245.72,-79.35 233.67,-80.6"/>
<polygon fill="midnightblue" stroke="midnightblue" points="276.6,-82.96 286.76,-79.96 276.95,-75.97 276.6,-82.96"/>
</g>
<!-- Node17 -->
<g id="node17" class="node">
<title>Node17</title>
<g id="a_node17"><a xlink:href="group__grp__force__driver.html#ga382822b303cbf8c56d6f54dcb379caf2" target="_top" xlink:title="read or write force&#45;derivative matrix">
<polygon fill="white" stroke="black" points="178,-38.5 178,-57.5 251,-57.5 251,-38.5 178,-38.5"/>
<text text-anchor="middle" x="214.5" y="-45.5" font-family="Helvetica,sans-Serif" font-size="10.00">writereadgf</text>
</a>
</g>
</g>
<!-- Node15&#45;&gt;Node17 -->
<g id="edge22" class="edge">
<title>Node15&#45;&gt;Node17</title>
<path fill="none" stroke="midnightblue" d="M290.83,-71.78C279.16,-66.22 264.47,-60.2 251.17,-55.44"/>
<polygon fill="midnightblue" stroke="midnightblue" points="289.31,-74.93 299.82,-76.3 292.46,-68.68 289.31,-74.93"/>
</g>
<!-- Node16&#45;&gt;Node15 -->
<g id="edge20" class="edge">
<title>Node16&#45;&gt;Node15</title>
<path fill="none" stroke="midnightblue" d="M243.9,-92.21C257.46,-92.98 273.56,-92.93 286.76,-92.04"/>
<polygon fill="midnightblue" stroke="midnightblue" points="243.92,-88.7 233.67,-91.4 243.37,-95.68 243.92,-88.7"/>
</g>
<!-- Node17&#45;&gt;Node14 -->
<g id="edge23" class="edge">
<title>Node17&#45;&gt;Node14</title>
<path fill="none" stroke="midnightblue" d="M261.29,-53.34C284.95,-56.51 314.2,-61.08 340,-67 354.81,-70.4 371.24,-75.55 383.39,-79.63"/>
<polygon fill="midnightblue" stroke="midnightblue" points="261.55,-49.84 251.18,-52.02 260.65,-56.78 261.55,-49.84"/>
</g>
<!-- Node17&#45;&gt;Node15 -->
<g id="edge24" class="edge">
<title>Node17&#45;&gt;Node15</title>
<path fill="none" stroke="midnightblue" d="M237.31,-62.29C251.97,-69.26 271.35,-76.95 286.76,-81.96"/>
<polygon fill="midnightblue" stroke="midnightblue" points="238.53,-58.98 228.02,-57.61 235.38,-65.24 238.53,-58.98"/>
</g>
<!-- Node19 -->
<g id="node19" class="node">
<title>Node19</title>
<g id="a_node19"><a xlink:href="group__grp__diagnostics.html#gad67931244268a09bd077dae8910c7096" target="_top" xlink:title="Constructs Poincaré plot and &quot;approximate&quot; rotational&#45;transform (driver).">
<polygon fill="white" stroke="black" points="287,-0.5 287,-19.5 340,-19.5 340,-0.5 287,-0.5"/>
<text text-anchor="middle" x="313.5" y="-7.5" font-family="Helvetica,sans-Serif" font-size="10.00">pp00aa</text>
</a>
</g>
</g>
<!-- Node18&#45;&gt;Node19 -->
<g id="edge28" class="edge">
<title>Node18&#45;&gt;Node19</title>
<path fill="none" stroke="midnightblue" d="M366.02,-21.25C357.39,-19.37 348.33,-17.39 340.25,-15.62"/>
<polygon fill="midnightblue" stroke="midnightblue" points="365.35,-24.69 375.87,-23.4 366.84,-17.85 365.35,-24.69"/>
</g>
<!-- Node19&#45;&gt;Node7 -->
<g id="edge29" class="edge">
<title>Node19&#45;&gt;Node7</title>
<path fill="none" stroke="midnightblue" d="M276.62,-5.65C247.01,-4.08 205.54,-6.77 178,-29 125.81,-71.13 116.85,-160.75 115.32,-190.32"/>
<polygon fill="midnightblue" stroke="midnightblue" points="276.71,-9.17 286.94,-6.39 277.22,-2.18 276.71,-9.17"/>
</g>
</g>
</svg>
