<?xml version="1.0" encoding="UTF-8" standalone="no"?>
<!DOCTYPE svg PUBLIC "-//W3C//DTD SVG 1.1//EN"
 "http://www.w3.org/Graphics/SVG/1.1/DTD/svg11.dtd">
<!-- Generated by graphviz version 2.47.1 (20210421.1823)
 -->
<!-- Title: dvcfield Pages: 1 -->
<svg width="586pt" height="66pt"
 viewBox="0.00 0.00 586.00 66.00" xmlns="http://www.w3.org/2000/svg" xmlns:xlink="http://www.w3.org/1999/xlink">
<g id="graph0" class="graph" transform="scale(1 1) rotate(0) translate(4 62)">
<title>dvcfield</title>
<polygon fill="white" stroke="transparent" points="-4,4 -4,-62 582,-62 582,4 -4,4"/>
<!-- Node1 -->
<g id="node1" class="node">
<title>Node1</title>
<g id="a_node1"><a xlink:title="Differential virtual casing integrand.">
<polygon fill="#bfbfbf" stroke="black" points="528,-0.5 528,-19.5 578,-19.5 578,-0.5 528,-0.5"/>
<text text-anchor="middle" x="553" y="-7.5" font-family="Helvetica,sans-Serif" font-size="10.00">dvcfield</text>
</a>
</g>
</g>
<!-- Node2 -->
<g id="node2" class="node">
<title>Node2</title>
<g id="a_node2"><a xlink:href="group__grp__free-boundary.html#ga180576a10002ebf3840fce98d56316bb" target="_top" xlink:title="Constructs the field created by the plasma currents, at an arbitrary, external location using virtual...">
<polygon fill="white" stroke="black" points="447,-0.5 447,-19.5 492,-19.5 492,-0.5 447,-0.5"/>
<text text-anchor="middle" x="469.5" y="-7.5" font-family="Helvetica,sans-Serif" font-size="10.00">casing</text>
</a>
</g>
</g>
<!-- Node1&#45;&gt;Node2 -->
<g id="edge1" class="edge">
<title>Node1&#45;&gt;Node2</title>
<path fill="none" stroke="midnightblue" d="M517.72,-3.33C509.04,-3.12 499.97,-3.33 492.12,-3.96"/>
<polygon fill="midnightblue" stroke="midnightblue" points="517.84,-6.84 527.99,-3.78 518.15,0.16 517.84,-6.84"/>
</g>
<!-- Node2&#45;&gt;Node1 -->
<g id="edge11" class="edge">
<title>Node2&#45;&gt;Node1</title>
<path fill="none" stroke="midnightblue" d="M502.19,-16.6C510.77,-16.89 519.91,-16.76 527.99,-16.22"/>
<polygon fill="midnightblue" stroke="midnightblue" points="502.3,-13.1 492.12,-16.04 501.91,-20.09 502.3,-13.1"/>
</g>
<!-- Node3 -->
<g id="node3" class="node">
<title>Node3</title>
<g id="a_node3"><a xlink:href="group__grp__free-boundary.html#gac0a2cc2241947b27241bb8ef75c5e0ed" target="_top" xlink:title="Computes &#160;on the computational boundary, .">
<polygon fill="white" stroke="black" points="365,-0.5 365,-19.5 411,-19.5 411,-0.5 365,-0.5"/>
<text text-anchor="middle" x="388" y="-7.5" font-family="Helvetica,sans-Serif" font-size="10.00">bnorml</text>
</a>
</g>
</g>
<!-- Node2&#45;&gt;Node3 -->
<g id="edge2" class="edge">
<title>Node2&#45;&gt;Node3</title>
<path fill="none" stroke="midnightblue" d="M436.73,-10C428.19,-10 419.15,-10 411.25,-10"/>
<polygon fill="midnightblue" stroke="midnightblue" points="436.78,-13.5 446.78,-10 436.78,-6.5 436.78,-13.5"/>
</g>
<!-- Node4 -->
<g id="node4" class="node">
<title>Node4</title>
<g id="a_node4"><a xlink:href="group__grp__initialization.html#ga28628de0fdb3b3497668007d8d0643bd" target="_top" xlink:title="Allocates and initializes internal arrays.">
<polygon fill="white" stroke="black" points="285,-19.5 285,-38.5 329,-38.5 329,-19.5 285,-19.5"/>
<text text-anchor="middle" x="307" y="-26.5" font-family="Helvetica,sans-Serif" font-size="10.00">preset</text>
</a>
</g>
</g>
<!-- Node3&#45;&gt;Node4 -->
<g id="edge3" class="edge">
<title>Node3&#45;&gt;Node4</title>
<path fill="none" stroke="midnightblue" d="M355.06,-17.68C346.31,-19.79 337.05,-22.01 329.07,-23.93"/>
<polygon fill="midnightblue" stroke="midnightblue" points="356.09,-21.03 364.99,-15.29 354.45,-14.23 356.09,-21.03"/>
</g>
<!-- Node6 -->
<g id="node6" class="node">
<title>Node6</title>
<g id="a_node6"><a xlink:href="xspech_8f90.html#a48f45478dc2c9f70ea8aa1c60ad06503" target="_top" xlink:title=" ">
<polygon fill="white" stroke="black" points="130,-19.5 130,-38.5 168,-38.5 168,-19.5 130,-19.5"/>
<text text-anchor="middle" x="149" y="-26.5" font-family="Helvetica,sans-Serif" font-size="10.00">spec</text>
</a>
</g>
</g>
<!-- Node3&#45;&gt;Node6 -->
<g id="edge10" class="edge">
<title>Node3&#45;&gt;Node6</title>
<path fill="none" stroke="midnightblue" d="M354.7,-6.74C317.91,-3.77 256.16,-1.09 204,-10 191.66,-12.11 178.38,-16.74 168.08,-20.91"/>
<polygon fill="midnightblue" stroke="midnightblue" points="354.56,-10.24 364.83,-7.61 355.16,-3.26 354.56,-10.24"/>
</g>
<!-- Node5 -->
<g id="node5" class="node">
<title>Node5</title>
<g id="a_node5"><a xlink:href="group__grp__diagnostics.html#ga7401b50ec10c6598ee4a8112717a63ec" target="_top" xlink:title="Computes eigenvalues and eigenvectors of derivative matrix, .">
<polygon fill="white" stroke="black" points="204,-19.5 204,-38.5 249,-38.5 249,-19.5 204,-19.5"/>
<text text-anchor="middle" x="226.5" y="-26.5" font-family="Helvetica,sans-Serif" font-size="10.00">hesian</text>
</a>
</g>
</g>
<!-- Node4&#45;&gt;Node5 -->
<g id="edge4" class="edge">
<title>Node4&#45;&gt;Node5</title>
<path fill="none" stroke="midnightblue" d="M274.85,-29C266.24,-29 257.08,-29 249.14,-29"/>
<polygon fill="midnightblue" stroke="midnightblue" points="274.96,-32.5 284.96,-29 274.96,-25.5 274.96,-32.5"/>
</g>
<!-- Node8 -->
<g id="node8" class="node">
<title>Node8</title>
<g id="a_node8"><a xlink:href="xspech_8f90.html#aea782eae089760a491c2c54f9903abcc" target="_top" xlink:title="Main program of SPEC.">
<polygon fill="white" stroke="black" points="23.5,-38.5 23.5,-57.5 70.5,-57.5 70.5,-38.5 23.5,-38.5"/>
<text text-anchor="middle" x="47" y="-45.5" font-family="Helvetica,sans-Serif" font-size="10.00">xspech</text>
</a>
</g>
</g>
<!-- Node4&#45;&gt;Node8 -->
<g id="edge9" class="edge">
<title>Node4&#45;&gt;Node8</title>
<path fill="none" stroke="midnightblue" d="M275.06,-41.32C266.74,-44.07 257.64,-46.6 249,-48 185.1,-58.37 108.27,-53.71 70.8,-50.36"/>
<polygon fill="midnightblue" stroke="midnightblue" points="276.49,-44.52 284.76,-37.89 274.16,-37.92 276.49,-44.52"/>
</g>
<!-- Node5&#45;&gt;Node6 -->
<g id="edge5" class="edge">
<title>Node5&#45;&gt;Node6</title>
<path fill="none" stroke="midnightblue" d="M193.55,-29C184.99,-29 176.03,-29 168.47,-29"/>
<polygon fill="midnightblue" stroke="midnightblue" points="193.66,-32.5 203.66,-29 193.66,-25.5 193.66,-32.5"/>
</g>
<!-- Node7 -->
<g id="node7" class="node">
<title>Node7</title>
<g id="a_node7"><a xlink:href="sphdf5_8f90.html#a0f962c09cd5d5eba99f1cba043cb3898" target="_top" xlink:title="initialize the interface to the HDF5 library and open the output file">
<polygon fill="white" stroke="black" points="0,-0.5 0,-19.5 94,-19.5 94,-0.5 0,-0.5"/>
<text text-anchor="middle" x="47" y="-7.5" font-family="Helvetica,sans-Serif" font-size="10.00">sphdf5::init_outfile</text>
</a>
</g>
</g>
<!-- Node6&#45;&gt;Node7 -->
<g id="edge6" class="edge">
<title>Node6&#45;&gt;Node7</title>
<path fill="none" stroke="midnightblue" d="M119.77,-23.64C111.77,-22.12 102.86,-20.42 94.1,-18.76"/>
<polygon fill="midnightblue" stroke="midnightblue" points="119.18,-27.09 129.66,-25.52 120.49,-20.21 119.18,-27.09"/>
</g>
<!-- Node6&#45;&gt;Node8 -->
<g id="edge7" class="edge">
<title>Node6&#45;&gt;Node8</title>
<path fill="none" stroke="midnightblue" d="M119.62,-28.24C103.39,-30.37 83.38,-34.36 68.64,-38.49"/>
<polygon fill="midnightblue" stroke="midnightblue" points="120.11,-31.71 129.66,-27.12 119.33,-24.75 120.11,-31.71"/>
</g>
<!-- Node8&#45;&gt;Node6 -->
<g id="edge8" class="edge">
<title>Node8&#45;&gt;Node6</title>
<path fill="none" stroke="midnightblue" d="M80.96,-48.13C97.15,-45.76 116.06,-41.83 129.66,-37.85"/>
<polygon fill="midnightblue" stroke="midnightblue" points="80.26,-44.69 70.79,-49.44 81.15,-51.63 80.26,-44.69"/>
</g>
</g>
</svg>
