<?xml version="1.0" encoding="UTF-8" standalone="no"?>
<!DOCTYPE svg PUBLIC "-//W3C//DTD SVG 1.1//EN"
 "http://www.w3.org/Graphics/SVG/1.1/DTD/svg11.dtd">
<!-- Generated by graphviz version 2.47.1 (0)
 -->
<!-- Title: casing Pages: 1 -->
<svg width="587pt" height="117pt"
 viewBox="0.00 0.00 587.00 117.15" xmlns="http://www.w3.org/2000/svg" xmlns:xlink="http://www.w3.org/1999/xlink">
<g id="graph0" class="graph" transform="scale(1 1) rotate(0) translate(4 113.15)">
<title>casing</title>
<polygon fill="white" stroke="transparent" points="-4,4 -4,-113.15 583,-113.15 583,4 -4,4"/>
<!-- Node1 -->
<g id="node1" class="node">
<title>Node1</title>
<g id="a_node1"><a xlink:title="Constructs the field created by the plasma currents, at an arbitrary, external location using virtual...">
<polygon fill="#bfbfbf" stroke="black" points="534,-0.5 534,-19.5 579,-19.5 579,-0.5 534,-0.5"/>
<text text-anchor="middle" x="556.5" y="-7.5" font-family="Helvetica,sans-Serif" font-size="10.00">casing</text>
</a>
</g>
</g>
<!-- Node2 -->
<g id="node2" class="node">
<title>Node2</title>
<g id="a_node2"><a xlink:href="group__grp__free-boundary.html#gac0a2cc2241947b27241bb8ef75c5e0ed" target="_top" xlink:title="Computes &#160;on the computational boundary, .">
<polygon fill="white" stroke="black" points="450,-38.5 450,-57.5 496,-57.5 496,-38.5 450,-38.5"/>
<text text-anchor="middle" x="473" y="-45.5" font-family="Helvetica,sans-Serif" font-size="10.00">bnorml</text>
</a>
</g>
</g>
<!-- Node1&#45;&gt;Node2 -->
<g id="edge1" class="edge">
<title>Node1&#45;&gt;Node2</title>
<path fill="none" stroke="midnightblue" d="M525.79,-23.85C515.42,-28.69 504.02,-34 494.56,-38.41"/>
<polygon fill="midnightblue" stroke="midnightblue" points="527.35,-26.99 534.93,-19.59 524.39,-20.64 527.35,-26.99"/>
</g>
<!-- Node8 -->
<g id="node8" class="node">
<title>Node8</title>
<g id="a_node8"><a xlink:href="group__grp__free-boundary.html#ga281c12a5de84fddd3db4383b0df8627f" target="_top" xlink:title="Differential virtual casing integrand.">
<polygon fill="white" stroke="black" points="448,-0.5 448,-19.5 498,-19.5 498,-0.5 448,-0.5"/>
<text text-anchor="middle" x="473" y="-7.5" font-family="Helvetica,sans-Serif" font-size="10.00">dvcfield</text>
</a>
</g>
</g>
<!-- Node1&#45;&gt;Node8 -->
<g id="edge11" class="edge">
<title>Node1&#45;&gt;Node8</title>
<path fill="none" stroke="midnightblue" d="M523.41,-3.39C515.02,-3.12 506.11,-3.25 498.2,-3.77"/>
<polygon fill="midnightblue" stroke="midnightblue" points="523.48,-6.9 533.66,-3.94 523.86,0.09 523.48,-6.9"/>
</g>
<!-- Node3 -->
<g id="node3" class="node">
<title>Node3</title>
<g id="a_node3"><a xlink:href="group__grp__initialization.html#ga28628de0fdb3b3497668007d8d0643bd" target="_top" xlink:title="Allocates and initializes internal arrays.">
<polygon fill="white" stroke="black" points="368,-57.5 368,-76.5 412,-76.5 412,-57.5 368,-57.5"/>
<text text-anchor="middle" x="390" y="-64.5" font-family="Helvetica,sans-Serif" font-size="10.00">preset</text>
</a>
</g>
</g>
<!-- Node2&#45;&gt;Node3 -->
<g id="edge2" class="edge">
<title>Node2&#45;&gt;Node3</title>
<path fill="none" stroke="midnightblue" d="M440.08,-55.49C430.75,-57.68 420.77,-60.02 412.27,-62.01"/>
<polygon fill="midnightblue" stroke="midnightblue" points="440.93,-58.88 449.87,-53.19 439.33,-52.07 440.93,-58.88"/>
</g>
<!-- Node5 -->
<g id="node5" class="node">
<title>Node5</title>
<g id="a_node5"><a xlink:href="xspech_8f90.html#a48f45478dc2c9f70ea8aa1c60ad06503" target="_top" xlink:title=" ">
<polygon fill="white" stroke="black" points="213,-19.5 213,-38.5 251,-38.5 251,-19.5 213,-19.5"/>
<text text-anchor="middle" x="232" y="-26.5" font-family="Helvetica,sans-Serif" font-size="10.00">spec</text>
</a>
</g>
</g>
<!-- Node2&#45;&gt;Node5 -->
<g id="edge10" class="edge">
<title>Node2&#45;&gt;Node5</title>
<path fill="none" stroke="midnightblue" d="M439.81,-45.44C388.85,-41.39 291.24,-33.63 251.01,-30.43"/>
<polygon fill="midnightblue" stroke="midnightblue" points="439.7,-48.94 449.94,-46.25 440.25,-41.97 439.7,-48.94"/>
</g>
<!-- Node4 -->
<g id="node4" class="node">
<title>Node4</title>
<g id="a_node4"><a xlink:href="group__grp__diagnostics.html#ga7401b50ec10c6598ee4a8112717a63ec" target="_top" xlink:title="Computes eigenvalues and eigenvectors of derivative matrix, .">
<polygon fill="white" stroke="black" points="287,-57.5 287,-76.5 332,-76.5 332,-57.5 287,-57.5"/>
<text text-anchor="middle" x="309.5" y="-64.5" font-family="Helvetica,sans-Serif" font-size="10.00">hesian</text>
</a>
</g>
</g>
<!-- Node3&#45;&gt;Node4 -->
<g id="edge3" class="edge">
<title>Node3&#45;&gt;Node4</title>
<path fill="none" stroke="midnightblue" d="M357.85,-67C349.24,-67 340.08,-67 332.14,-67"/>
<polygon fill="midnightblue" stroke="midnightblue" points="357.96,-70.5 367.96,-67 357.96,-63.5 357.96,-70.5"/>
</g>
<!-- Node7 -->
<g id="node7" class="node">
<title>Node7</title>
<g id="a_node7"><a xlink:href="xspech_8f90.html#aea782eae089760a491c2c54f9903abcc" target="_top" xlink:title="Main program of SPEC.">
<polygon fill="white" stroke="black" points="0,-37.5 0,-56.5 47,-56.5 47,-37.5 0,-37.5"/>
<text text-anchor="middle" x="23.5" y="-44.5" font-family="Helvetica,sans-Serif" font-size="10.00">xspech</text>
</a>
</g>
</g>
<!-- Node3&#45;&gt;Node7 -->
<g id="edge9" class="edge">
<title>Node3&#45;&gt;Node7</title>
<path fill="none" stroke="midnightblue" d="M358.04,-79.16C349.71,-81.93 340.62,-84.49 332,-86 222.99,-105.14 188.17,-124.49 83,-90 63.12,-83.48 44.42,-67.33 33.74,-56.79"/>
<polygon fill="midnightblue" stroke="midnightblue" points="359.46,-82.37 367.74,-75.76 357.14,-75.77 359.46,-82.37"/>
</g>
<!-- Node4&#45;&gt;Node5 -->
<g id="edge4" class="edge">
<title>Node4&#45;&gt;Node5</title>
<path fill="none" stroke="midnightblue" d="M280.4,-52.86C270.57,-47.91 259.79,-42.49 251.01,-38.06"/>
<polygon fill="midnightblue" stroke="midnightblue" points="278.94,-56.04 289.45,-57.41 282.09,-49.79 278.94,-56.04"/>
</g>
<!-- Node6 -->
<g id="node6" class="node">
<title>Node6</title>
<g id="a_node6"><a xlink:href="namespacesphdf5.html#a0f962c09cd5d5eba99f1cba043cb3898" target="_top" xlink:title="initialize the interface to the HDF5 library and open the output file">
<polygon fill="white" stroke="black" points="83,-61.5 83,-80.5 177,-80.5 177,-61.5 83,-61.5"/>
<text text-anchor="middle" x="130" y="-68.5" font-family="Helvetica,sans-Serif" font-size="10.00">sphdf5::init_outfile</text>
</a>
</g>
</g>
<!-- Node5&#45;&gt;Node6 -->
<g id="edge5" class="edge">
<title>Node5&#45;&gt;Node6</title>
<path fill="none" stroke="midnightblue" d="M203.04,-40.74C187.5,-47.27 168.41,-55.29 153.79,-61.43"/>
<polygon fill="midnightblue" stroke="midnightblue" points="204.79,-43.8 212.66,-36.7 202.08,-37.35 204.79,-43.8"/>
</g>
<!-- Node5&#45;&gt;Node7 -->
<g id="edge8" class="edge">
<title>Node5&#45;&gt;Node7</title>
<path fill="none" stroke="midnightblue" d="M202.44,-26.65C160.98,-27.58 84.95,-34.35 47.12,-40.62"/>
<polygon fill="midnightblue" stroke="midnightblue" points="202.71,-30.15 212.67,-26.55 202.64,-23.15 202.71,-30.15"/>
</g>
<!-- Node6&#45;&gt;Node7 -->
<g id="edge6" class="edge">
<title>Node6&#45;&gt;Node7</title>
<path fill="none" stroke="midnightblue" d="M77.6,-59.19C66.85,-56.73 56.06,-54.25 47.04,-52.18"/>
<polygon fill="midnightblue" stroke="midnightblue" points="76.87,-62.62 87.4,-61.45 78.44,-55.8 76.87,-62.62"/>
</g>
<!-- Node7&#45;&gt;Node5 -->
<g id="edge7" class="edge">
<title>Node7&#45;&gt;Node5</title>
<path fill="none" stroke="midnightblue" d="M57.28,-49.23C101.23,-47.92 177.75,-40.9 212.67,-34.64"/>
<polygon fill="midnightblue" stroke="midnightblue" points="57.04,-45.74 47.12,-49.44 57.19,-52.74 57.04,-45.74"/>
</g>
<!-- Node8&#45;&gt;Node1 -->
<g id="edge12" class="edge">
<title>Node8&#45;&gt;Node1</title>
<path fill="none" stroke="midnightblue" d="M508.35,-16.68C516.92,-16.88 525.88,-16.67 533.66,-16.06"/>
<polygon fill="midnightblue" stroke="midnightblue" points="508.34,-13.17 498.2,-16.23 508.03,-20.16 508.34,-13.17"/>
</g>
</g>
</svg>
