<?xml version="1.0" encoding="UTF-8" standalone="no"?>
<!DOCTYPE svg PUBLIC "-//W3C//DTD SVG 1.1//EN"
 "http://www.w3.org/Graphics/SVG/1.1/DTD/svg11.dtd">
<!-- Generated by graphviz version 2.44.0 ()
 -->
<!-- Title: stzxyz Pages: 1 -->
<svg width="383pt" height="28pt"
 viewBox="0.00 0.00 383.00 28.00" xmlns="http://www.w3.org/2000/svg" xmlns:xlink="http://www.w3.org/1999/xlink">
<g id="graph0" class="graph" transform="scale(1 1) rotate(0) translate(4 24)">
<title>stzxyz</title>
<polygon fill="white" stroke="transparent" points="-4,4 -4,-24 379,-24 379,4 -4,4"/>
<!-- Node1 -->
<g id="node1" class="node">
<title>Node1</title>
<g id="a_node1"><a xlink:title="Calculates coordinates, , and metrics, at given .">
<polygon fill="#bfbfbf" stroke="black" points="332,-0.5 332,-19.5 375,-19.5 375,-0.5 332,-0.5"/>
<text text-anchor="middle" x="353.5" y="-7.5" font-family="Helvetica,sans-Serif" font-size="10.00">stzxyz</text>
</a>
</g>
</g>
<!-- Node2 -->
<g id="node2" class="node">
<title>Node2</title>
<g id="a_node2"><a xlink:href="group__grp__diagnostics.html#ga831aed2458140e266ee4d37461dd5350" target="_top" xlink:title="Constructs Poincaré plot and &quot;approximate&quot; rotational&#45;transform (for single field line).">
<polygon fill="white" stroke="black" points="248,-0.5 248,-19.5 296,-19.5 296,-0.5 248,-0.5"/>
<text text-anchor="middle" x="272" y="-7.5" font-family="Helvetica,sans-Serif" font-size="10.00">pp00ab</text>
</a>
</g>
</g>
<!-- Node1&#45;&gt;Node2 -->
<g id="edge1" class="edge">
<title>Node1&#45;&gt;Node2</title>
<path fill="none" stroke="midnightblue" d="M321.42,-10C313.04,-10 304.13,-10 296.27,-10"/>
<polygon fill="midnightblue" stroke="midnightblue" points="321.61,-13.5 331.61,-10 321.61,-6.5 321.61,-13.5"/>
</g>
<!-- Node3 -->
<g id="node3" class="node">
<title>Node3</title>
<g id="a_node3"><a xlink:href="group__grp__diagnostics.html#gad67931244268a09bd077dae8910c7096" target="_top" xlink:title="Constructs Poincaré plot and &quot;approximate&quot; rotational&#45;transform (driver).">
<polygon fill="white" stroke="black" points="164,-0.5 164,-19.5 212,-19.5 212,-0.5 164,-0.5"/>
<text text-anchor="middle" x="188" y="-7.5" font-family="Helvetica,sans-Serif" font-size="10.00">pp00aa</text>
</a>
</g>
</g>
<!-- Node2&#45;&gt;Node3 -->
<g id="edge2" class="edge">
<title>Node2&#45;&gt;Node3</title>
<path fill="none" stroke="midnightblue" d="M237.59,-10C229.01,-10 219.98,-10 212.05,-10"/>
<polygon fill="midnightblue" stroke="midnightblue" points="237.72,-13.5 247.72,-10 237.72,-6.5 237.72,-13.5"/>
</g>
<!-- Node4 -->
<g id="node4" class="node">
<title>Node4</title>
<g id="a_node4"><a xlink:href="xspech_8f90.html#aea782eae089760a491c2c54f9903abcc" target="_top" xlink:title="Main program of SPEC.">
<polygon fill="white" stroke="black" points="81,-0.5 81,-19.5 128,-19.5 128,-0.5 81,-0.5"/>
<text text-anchor="middle" x="104.5" y="-7.5" font-family="Helvetica,sans-Serif" font-size="10.00">xspech</text>
</a>
</g>
</g>
<!-- Node3&#45;&gt;Node4 -->
<g id="edge3" class="edge">
<title>Node3&#45;&gt;Node4</title>
<path fill="none" stroke="midnightblue" d="M153.71,-10C145.11,-10 136.05,-10 128.13,-10"/>
<polygon fill="midnightblue" stroke="midnightblue" points="153.86,-13.5 163.86,-10 153.86,-6.5 153.86,-13.5"/>
</g>
<!-- Node5 -->
<g id="node5" class="node">
<title>Node5</title>
<g id="a_node5"><a xlink:href="xspech_8f90.html#a537af4990058c0b0f2cd8b3669af204f" target="_top" xlink:title="todo remark">
<polygon fill="white" stroke="black" points="0,-0.5 0,-19.5 45,-19.5 45,-0.5 0,-0.5"/>
<text text-anchor="middle" x="22.5" y="-7.5" font-family="Helvetica,sans-Serif" font-size="10.00">ending</text>
</a>
</g>
</g>
<!-- Node4&#45;&gt;Node5 -->
<g id="edge4" class="edge">
<title>Node4&#45;&gt;Node5</title>
<path fill="none" stroke="midnightblue" d="M70.65,-3.35C62.06,-3.11 53.01,-3.3 45.17,-3.92"/>
<polygon fill="midnightblue" stroke="midnightblue" points="70.63,-6.85 80.79,-3.84 70.97,0.14 70.63,-6.85"/>
</g>
<!-- Node5&#45;&gt;Node4 -->
<g id="edge5" class="edge">
<title>Node5&#45;&gt;Node4</title>
<path fill="none" stroke="midnightblue" d="M55.22,-16.62C63.77,-16.89 72.84,-16.74 80.79,-16.16"/>
<polygon fill="midnightblue" stroke="midnightblue" points="55.34,-13.12 45.17,-16.08 54.96,-20.11 55.34,-13.12"/>
</g>
</g>
</svg>
