<?xml version="1.0" encoding="UTF-8" standalone="no"?>
<!DOCTYPE svg PUBLIC "-//W3C//DTD SVG 1.1//EN"
 "http://www.w3.org/Graphics/SVG/1.1/DTD/svg11.dtd">
<!-- Generated by graphviz version 2.49.3 (20211027.1534)
 -->
<!-- Title: dvcfield Pages: 1 -->
<svg width="254pt" height="93pt"
 viewBox="0.00 0.00 254.00 93.00" xmlns="http://www.w3.org/2000/svg" xmlns:xlink="http://www.w3.org/1999/xlink">
<g id="graph0" class="graph" transform="scale(1 1) rotate(0) translate(4 89)">
<title>dvcfield</title>
<polygon fill="white" stroke="transparent" points="-4,4 -4,-89 250,-89 250,4 -4,4"/>
<!-- Node1 -->
<g id="node1" class="node">
<title>Node1</title>
<g id="a_node1"><a xlink:title="Differential virtual casing integrand.">
<polygon fill="#bfbfbf" stroke="black" points="0,-47.5 0,-66.5 50,-66.5 50,-47.5 0,-47.5"/>
<text text-anchor="middle" x="25" y="-54.5" font-family="Helvetica,sans-Serif" font-size="10.00">dvcfield</text>
</a>
</g>
</g>
<!-- Node2 -->
<g id="node2" class="node">
<title>Node2</title>
<g id="a_node2"><a xlink:href="group__grp__free-boundary.html#ga180576a10002ebf3840fce98d56316bb" target="_top" xlink:title="Constructs the field created by the plasma currents, at an arbitrary, external location using virtual...">
<polygon fill="white" stroke="black" points="201,-47.5 201,-66.5 246,-66.5 246,-47.5 201,-47.5"/>
<text text-anchor="middle" x="223.5" y="-54.5" font-family="Helvetica,sans-Serif" font-size="10.00">casing</text>
</a>
</g>
</g>
<!-- Node1&#45;&gt;Node2 -->
<g id="edge1" class="edge">
<title>Node1&#45;&gt;Node2</title>
<path fill="none" stroke="midnightblue" d="M50.09,-52.39C85.49,-49.72 151.57,-49.55 190.84,-51.88"/>
<polygon fill="midnightblue" stroke="midnightblue" points="190.7,-55.38 200.92,-52.58 191.19,-48.4 190.7,-55.38"/>
</g>
<!-- Node3 -->
<g id="node3" class="node">
<title>Node3</title>
<g id="a_node3"><a xlink:href="group__grp__free-boundary.html#ga6d4c1b7e864b706f0bfdca4658ebd50c" target="_top" xlink:title="Compute the position and surface current on the plasma boundary for the virtual casingCalculation of ...">
<polygon fill="white" stroke="black" points="86,-0.5 86,-19.5 165,-19.5 165,-0.5 86,-0.5"/>
<text text-anchor="middle" x="125.5" y="-7.5" font-family="Helvetica,sans-Serif" font-size="10.00">surfacecurrent</text>
</a>
</g>
</g>
<!-- Node1&#45;&gt;Node3 -->
<g id="edge4" class="edge">
<title>Node1&#45;&gt;Node3</title>
<path fill="none" stroke="midnightblue" d="M45.93,-47.49C59.99,-40.78 79.06,-31.68 94.89,-24.13"/>
<polygon fill="midnightblue" stroke="midnightblue" points="96.74,-27.12 104.26,-19.66 93.73,-20.81 96.74,-27.12"/>
</g>
<!-- Node2&#45;&gt;Node1 -->
<g id="edge3" class="edge">
<title>Node2&#45;&gt;Node1</title>
<path fill="none" stroke="midnightblue" d="M200.92,-61.42C166.98,-64.21 100.81,-64.5 60.3,-62.27"/>
<polygon fill="midnightblue" stroke="midnightblue" points="60.3,-58.76 50.09,-61.61 59.85,-65.75 60.3,-58.76"/>
</g>
<!-- Node2&#45;&gt;Node2 -->
<g id="edge2" class="edge">
<title>Node2&#45;&gt;Node2</title>
<path fill="none" stroke="midnightblue" d="M208.4,-66.76C201.05,-75.57 206.08,-85 223.5,-85 234.39,-85 240.44,-81.31 241.65,-76.4"/>
<polygon fill="midnightblue" stroke="midnightblue" points="244.95,-75.24 238.6,-66.76 238.28,-77.35 244.95,-75.24"/>
</g>
<!-- Node3&#45;&gt;Node2 -->
<g id="edge5" class="edge">
<title>Node3&#45;&gt;Node2</title>
<path fill="none" stroke="midnightblue" d="M145.93,-19.51C159.63,-26.22 178.22,-35.32 193.65,-42.87"/>
<polygon fill="midnightblue" stroke="midnightblue" points="192.25,-46.09 202.77,-47.34 195.33,-39.8 192.25,-46.09"/>
</g>
</g>
</svg>
