<?xml version="1.0" encoding="UTF-8" standalone="no"?>
<!DOCTYPE svg PUBLIC "-//W3C//DTD SVG 1.1//EN"
 "http://www.w3.org/Graphics/SVG/1.1/DTD/svg11.dtd">
<!-- Generated by graphviz version 2.44.1 (0)
 -->
<!-- Title: writereadgf Pages: 1 -->
<svg width="417pt" height="90pt"
 viewBox="0.00 0.00 417.00 90.00" xmlns="http://www.w3.org/2000/svg" xmlns:xlink="http://www.w3.org/1999/xlink">
<g id="graph0" class="graph" transform="scale(1 1) rotate(0) translate(4 86)">
<title>writereadgf</title>
<polygon fill="white" stroke="transparent" points="-4,4 -4,-86 413,-86 413,4 -4,4"/>
<!-- Node1 -->
<g id="node1" class="node">
<title>Node1</title>
<g id="a_node1"><a xlink:title="read or write force&#45;derivative matrix">
<polygon fill="#bfbfbf" stroke="black" points="336,-15.5 336,-34.5 409,-34.5 409,-15.5 336,-15.5"/>
<text text-anchor="middle" x="372.5" y="-22.5" font-family="Helvetica,sans-Serif" font-size="10.00">writereadgf</text>
</a>
</g>
</g>
<!-- Node2 -->
<g id="node2" class="node">
<title>Node2</title>
<g id="a_node2"><a xlink:href="group__grp__force__driver.html#ga8ccd6c7d901872702521d0a0edf95412" target="_top" xlink:title="fcn2">
<polygon fill="white" stroke="black" points="262,-62.5 262,-81.5 300,-81.5 300,-62.5 262,-62.5"/>
<text text-anchor="middle" x="281" y="-69.5" font-family="Helvetica,sans-Serif" font-size="10.00">fcn2</text>
</a>
</g>
</g>
<!-- Node1&#45;&gt;Node2 -->
<g id="edge1" class="edge">
<title>Node1&#45;&gt;Node2</title>
<path fill="none" stroke="midnightblue" d="M344.44,-39.21C330.08,-46.75 312.82,-55.82 300.08,-62.5"/>
<polygon fill="midnightblue" stroke="midnightblue" points="346.16,-42.26 353.39,-34.51 342.91,-36.06 346.16,-42.26"/>
</g>
<!-- Node3 -->
<g id="node3" class="node">
<title>Node3</title>
<g id="a_node3"><a xlink:href="group__grp__force__driver.html#gaec14f81fbdbedafbc4189489ec8ae178" target="_top" xlink:title="Employs Newton method to find , where &#160;and &#160;is defined in dforce() .">
<polygon fill="white" stroke="black" points="173,-38.5 173,-57.5 226,-57.5 226,-38.5 173,-38.5"/>
<text text-anchor="middle" x="199.5" y="-45.5" font-family="Helvetica,sans-Serif" font-size="10.00">newton</text>
</a>
</g>
</g>
<!-- Node1&#45;&gt;Node3 -->
<g id="edge10" class="edge">
<title>Node1&#45;&gt;Node3</title>
<path fill="none" stroke="midnightblue" d="M325.65,-25.11C293.7,-28.21 252.27,-34.14 226.03,-39.59"/>
<polygon fill="midnightblue" stroke="midnightblue" points="326.01,-28.59 335.65,-24.21 325.38,-21.62 326.01,-28.59"/>
</g>
<!-- Node2&#45;&gt;Node3 -->
<g id="edge2" class="edge">
<title>Node2&#45;&gt;Node3</title>
<path fill="none" stroke="midnightblue" d="M256.21,-58.58C246.73,-55.08 235.81,-51.74 226.16,-49.39"/>
<polygon fill="midnightblue" stroke="midnightblue" points="255.2,-61.94 265.79,-62.39 257.79,-55.44 255.2,-61.94"/>
</g>
<!-- Node3&#45;&gt;Node1 -->
<g id="edge6" class="edge">
<title>Node3&#45;&gt;Node1</title>
<path fill="none" stroke="midnightblue" d="M236.53,-48.78C267.35,-46.22 311.26,-40.22 340.53,-34.51"/>
<polygon fill="midnightblue" stroke="midnightblue" points="235.93,-45.31 226.21,-49.53 236.44,-52.29 235.93,-45.31"/>
</g>
<!-- Node3&#45;&gt;Node2 -->
<g id="edge5" class="edge">
<title>Node3&#45;&gt;Node2</title>
<path fill="none" stroke="midnightblue" d="M224.01,-61.32C236.14,-65.82 250.72,-70.06 261.96,-72.31"/>
<polygon fill="midnightblue" stroke="midnightblue" points="225.1,-57.98 214.51,-57.52 222.5,-64.48 225.1,-57.98"/>
</g>
<!-- Node4 -->
<g id="node4" class="node">
<title>Node4</title>
<g id="a_node4"><a xlink:href="group__grp__force__driver.html#gabbc245b3884ee8d8d3e2a52f25149f78" target="_top" xlink:title="fcn1">
<polygon fill="white" stroke="black" points="92.5,-38.5 92.5,-57.5 130.5,-57.5 130.5,-38.5 92.5,-38.5"/>
<text text-anchor="middle" x="111.5" y="-45.5" font-family="Helvetica,sans-Serif" font-size="10.00">fcn1</text>
</a>
</g>
</g>
<!-- Node3&#45;&gt;Node4 -->
<g id="edge3" class="edge">
<title>Node3&#45;&gt;Node4</title>
<path fill="none" stroke="midnightblue" d="M162.46,-41.33C151.49,-41.08 139.9,-41.43 130.64,-42.37"/>
<polygon fill="midnightblue" stroke="midnightblue" points="162.56,-44.84 172.7,-41.75 162.85,-37.84 162.56,-44.84"/>
</g>
<!-- Node5 -->
<g id="node5" class="node">
<title>Node5</title>
<g id="a_node5"><a xlink:href="xspech_8f90.html#aea782eae089760a491c2c54f9903abcc" target="_top" xlink:title="Main program of SPEC.">
<polygon fill="white" stroke="black" points="86,-0.5 86,-19.5 137,-19.5 137,-0.5 86,-0.5"/>
<text text-anchor="middle" x="111.5" y="-7.5" font-family="Helvetica,sans-Serif" font-size="10.00">xspech</text>
</a>
</g>
</g>
<!-- Node3&#45;&gt;Node5 -->
<g id="edge7" class="edge">
<title>Node3&#45;&gt;Node5</title>
<path fill="none" stroke="midnightblue" d="M167.48,-34.29C156.45,-29.42 144.28,-24.04 134.19,-19.59"/>
<polygon fill="midnightblue" stroke="midnightblue" points="166.24,-37.57 176.8,-38.41 169.07,-31.17 166.24,-37.57"/>
</g>
<!-- Node4&#45;&gt;Node3 -->
<g id="edge4" class="edge">
<title>Node4&#45;&gt;Node3</title>
<path fill="none" stroke="midnightblue" d="M140.78,-54.39C151.07,-54.91 162.64,-54.87 172.7,-54.25"/>
<polygon fill="midnightblue" stroke="midnightblue" points="140.87,-50.88 130.64,-53.63 140.35,-57.86 140.87,-50.88"/>
</g>
<!-- Node6 -->
<g id="node6" class="node">
<title>Node6</title>
<g id="a_node6"><a xlink:href="xspech_8f90.html#a537af4990058c0b0f2cd8b3669af204f" target="_top" xlink:title="todo remark">
<polygon fill="white" stroke="black" points="0,-0.5 0,-19.5 50,-19.5 50,-0.5 0,-0.5"/>
<text text-anchor="middle" x="25" y="-7.5" font-family="Helvetica,sans-Serif" font-size="10.00">ending</text>
</a>
</g>
</g>
<!-- Node5&#45;&gt;Node6 -->
<g id="edge8" class="edge">
<title>Node5&#45;&gt;Node6</title>
<path fill="none" stroke="midnightblue" d="M75.5,-3.34C66.97,-3.13 58.03,-3.29 50.14,-3.83"/>
<polygon fill="midnightblue" stroke="midnightblue" points="75.46,-6.84 85.6,-3.78 75.77,0.15 75.46,-6.84"/>
</g>
<!-- Node6&#45;&gt;Node5 -->
<g id="edge9" class="edge">
<title>Node6&#45;&gt;Node5</title>
<path fill="none" stroke="midnightblue" d="M60.19,-16.64C68.69,-16.88 77.64,-16.73 85.6,-16.22"/>
<polygon fill="midnightblue" stroke="midnightblue" points="60.29,-13.14 50.14,-16.17 59.96,-20.13 60.29,-13.14"/>
</g>
</g>
</svg>
