<?xml version="1.0" encoding="UTF-8" standalone="no"?>
<!DOCTYPE svg PUBLIC "-//W3C//DTD SVG 1.1//EN"
 "http://www.w3.org/Graphics/SVG/1.1/DTD/svg11.dtd">
<!-- Generated by graphviz version 2.47.0 (20210407.0042)
 -->
<!-- Title: mp00ac Pages: 1 -->
<svg width="639pt" height="294pt"
 viewBox="0.00 0.00 639.00 294.00" xmlns="http://www.w3.org/2000/svg" xmlns:xlink="http://www.w3.org/1999/xlink">
<g id="graph0" class="graph" transform="scale(1 1) rotate(0) translate(4 290)">
<title>mp00ac</title>
<polygon fill="white" stroke="transparent" points="-4,4 -4,-290 635,-290 635,4 -4,4"/>
<!-- Node1 -->
<g id="node1" class="node">
<title>Node1</title>
<g id="a_node1"><a xlink:title="Solves Beltrami/vacuum (linear) system, given matrices.unpacking fluxes, helicity multiplier">
<polygon fill="#bfbfbf" stroke="black" points="0,-171.5 0,-190.5 51,-190.5 51,-171.5 0,-171.5"/>
<text text-anchor="middle" x="25.5" y="-178.5" font-family="Helvetica,sans-Serif" font-size="10.00">mp00ac</text>
</a>
</g>
</g>
<!-- Node2 -->
<g id="node2" class="node">
<title>Node2</title>
<g id="a_node2"><a xlink:href="group__grp__currents.html#gacaf4411e0ba378631dcd2ccb3752e452" target="_top" xlink:title="Computes the plasma current, , and the &quot;linking&quot; current, .">
<polygon fill="white" stroke="black" points="282,-209.5 282,-228.5 326,-228.5 326,-209.5 282,-209.5"/>
<text text-anchor="middle" x="304" y="-216.5" font-family="Helvetica,sans-Serif" font-size="10.00">curent</text>
</a>
</g>
</g>
<!-- Node1&#45;&gt;Node2 -->
<g id="edge1" class="edge">
<title>Node1&#45;&gt;Node2</title>
<path fill="none" stroke="midnightblue" d="M51.03,-188.42C61.95,-191.49 75.03,-194.82 87,-197 152.16,-208.86 229.63,-214.8 271.81,-217.36"/>
<polygon fill="midnightblue" stroke="midnightblue" points="271.81,-220.87 282,-217.96 272.22,-213.88 271.81,-220.87"/>
</g>
<!-- Node7 -->
<g id="node7" class="node">
<title>Node7</title>
<g id="a_node7"><a xlink:href="intghs_8f90.html#a21d3b7106371783302e68297f7797e9f" target="_top" xlink:title="Calculates volume integrals of Chebyshev polynomials and covariant field products.">
<polygon fill="white" stroke="black" points="282.5,-76.5 282.5,-95.5 325.5,-95.5 325.5,-76.5 282.5,-76.5"/>
<text text-anchor="middle" x="304" y="-83.5" font-family="Helvetica,sans-Serif" font-size="10.00">intghs</text>
</a>
</g>
</g>
<!-- Node1&#45;&gt;Node7 -->
<g id="edge8" class="edge">
<title>Node1&#45;&gt;Node7</title>
<path fill="none" stroke="midnightblue" d="M40.52,-171.22C52.52,-163.08 70.45,-151.5 87,-143 126.72,-122.6 136.97,-116.93 180,-105 210.79,-96.46 247.05,-91.45 272.19,-88.73"/>
<polygon fill="midnightblue" stroke="midnightblue" points="272.64,-92.21 282.23,-87.71 271.93,-85.24 272.64,-92.21"/>
</g>
<!-- Node11 -->
<g id="node11" class="node">
<title>Node11</title>
<g id="a_node11"><a xlink:href="mtrxhs_8f90.html#a6c22bb4322fbcc29cb17dcc90b56eacd" target="_top" xlink:title="Constructs matrices that represent the Beltrami linear system, matrix&#45;free.">
<polygon fill="white" stroke="black" points="281,-162.5 281,-181.5 327,-181.5 327,-162.5 281,-162.5"/>
<text text-anchor="middle" x="304" y="-169.5" font-family="Helvetica,sans-Serif" font-size="10.00">mtrxhs</text>
</a>
</g>
</g>
<!-- Node1&#45;&gt;Node11 -->
<g id="edge15" class="edge">
<title>Node1&#45;&gt;Node11</title>
<path fill="none" stroke="midnightblue" d="M51.01,-182.21C91.33,-183.92 174.15,-186.3 244,-181 252.74,-180.34 262.15,-179.13 270.83,-177.81"/>
<polygon fill="midnightblue" stroke="midnightblue" points="271.64,-181.22 280.96,-176.17 270.53,-174.31 271.64,-181.22"/>
</g>
<!-- Node12 -->
<g id="node12" class="node">
<title>Node12</title>
<g id="a_node12"><a xlink:href="group__grp__packing.html#gaee2357e570aebf8559e169def6b619dd" target="_top" xlink:title="Packs and unpacks Beltrami field solution vector.">
<polygon fill="white" stroke="black" points="280,-38.5 280,-57.5 328,-57.5 328,-38.5 280,-38.5"/>
<text text-anchor="middle" x="304" y="-45.5" font-family="Helvetica,sans-Serif" font-size="10.00">packab</text>
</a>
</g>
</g>
<!-- Node1&#45;&gt;Node12 -->
<g id="edge16" class="edge">
<title>Node1&#45;&gt;Node12</title>
<path fill="none" stroke="midnightblue" d="M32.67,-171.12C42.41,-156.31 62.76,-128.47 87,-113 145.07,-75.94 225.31,-59.12 269.85,-52.23"/>
<polygon fill="midnightblue" stroke="midnightblue" points="270.46,-55.67 279.84,-50.75 269.44,-48.75 270.46,-55.67"/>
</g>
<!-- Node13 -->
<g id="node13" class="node">
<title>Node13</title>
<g id="a_node13"><a xlink:href="mp00ac_8f90.html#a304edac43f63d39dda4419b4d044eac5" target="_top" xlink:title="run GMRES">
<polygon fill="white" stroke="black" points="87,-152.5 87,-171.5 144,-171.5 144,-152.5 87,-152.5"/>
<text text-anchor="middle" x="115.5" y="-159.5" font-family="Helvetica,sans-Serif" font-size="10.00">rungmres</text>
</a>
</g>
</g>
<!-- Node1&#45;&gt;Node13 -->
<g id="edge17" class="edge">
<title>Node1&#45;&gt;Node13</title>
<path fill="none" stroke="midnightblue" d="M51.01,-175.71C58.98,-173.99 68.02,-172.04 76.72,-170.16"/>
<polygon fill="midnightblue" stroke="midnightblue" points="77.67,-173.53 86.71,-168 76.19,-166.69 77.67,-173.53"/>
</g>
<!-- Node16 -->
<g id="node16" class="node">
<title>Node16</title>
<g id="a_node16"><a xlink:href="group__grp__transform.html#ga0e0447653b8da82f06748dd8831bc337" target="_top" xlink:title="Calculates rotational transform given an arbitrary tangential field.">
<polygon fill="white" stroke="black" points="502,-266.5 502,-285.5 546,-285.5 546,-266.5 502,-266.5"/>
<text text-anchor="middle" x="524" y="-273.5" font-family="Helvetica,sans-Serif" font-size="10.00">tr00ab</text>
</a>
</g>
</g>
<!-- Node1&#45;&gt;Node16 -->
<g id="edge23" class="edge">
<title>Node1&#45;&gt;Node16</title>
<path fill="none" stroke="midnightblue" d="M36.76,-190.81C63.26,-215.08 137.14,-276 211,-276 211,-276 211,-276 305,-276 371.5,-276 449.41,-276 491.74,-276"/>
<polygon fill="midnightblue" stroke="midnightblue" points="491.96,-279.5 501.96,-276 491.96,-272.5 491.96,-279.5"/>
</g>
<!-- Node3 -->
<g id="node3" class="node">
<title>Node3</title>
<g id="a_node3"><a xlink:href="group__grp__geometry.html#gaaca20aa60eaf39055f3c9d5c02a24ac2" target="_top" xlink:title="Calculates coordinates, , and metrics, using FFTs.">
<polygon fill="white" stroke="black" points="501,-76.5 501,-95.5 547,-95.5 547,-76.5 501,-76.5"/>
<text text-anchor="middle" x="524" y="-83.5" font-family="Helvetica,sans-Serif" font-size="10.00">coords</text>
</a>
</g>
</g>
<!-- Node2&#45;&gt;Node3 -->
<g id="edge2" class="edge">
<title>Node2&#45;&gt;Node3</title>
<path fill="none" stroke="midnightblue" d="M326.03,-218.99C358.78,-217.96 422.6,-211.78 465,-181 491.34,-161.88 508.13,-126.79 516.53,-105.03"/>
<polygon fill="midnightblue" stroke="midnightblue" points="519.85,-106.14 519.99,-95.54 513.27,-103.74 519.85,-106.14"/>
</g>
<!-- Node4 -->
<g id="node4" class="node">
<title>Node4</title>
<g id="a_node4"><a xlink:href="group__grp__numerics.html#ga1fd52accb0646f535f9bcc46cf5a68f3" target="_top" xlink:title="Inverse Fourier transform (fftw wrapper)">
<polygon fill="white" stroke="black" points="588,-171.5 588,-190.5 626,-190.5 626,-171.5 588,-171.5"/>
<text text-anchor="middle" x="607" y="-178.5" font-family="Helvetica,sans-Serif" font-size="10.00">invfft</text>
</a>
</g>
</g>
<!-- Node2&#45;&gt;Node4 -->
<g id="edge6" class="edge">
<title>Node2&#45;&gt;Node4</title>
<path fill="none" stroke="midnightblue" d="M326.07,-219.23C356.76,-219.31 415.51,-218.47 465,-212 504.67,-206.81 549.68,-196.04 577.95,-188.67"/>
<polygon fill="midnightblue" stroke="midnightblue" points="579.15,-191.97 587.93,-186.03 577.36,-185.2 579.15,-191.97"/>
</g>
<!-- Node6 -->
<g id="node6" class="node">
<title>Node6</title>
<g id="a_node6"><a xlink:href="group__grp__numerics.html#ga041138109a57e651c57117bb4180409e" target="_top" xlink:title="Forward Fourier transform (fftw wrapper)">
<polygon fill="white" stroke="black" points="400,-152.5 400,-171.5 429,-171.5 429,-152.5 400,-152.5"/>
<text text-anchor="middle" x="414.5" y="-159.5" font-family="Helvetica,sans-Serif" font-size="10.00">tfft</text>
</a>
</g>
</g>
<!-- Node2&#45;&gt;Node6 -->
<g id="edge7" class="edge">
<title>Node2&#45;&gt;Node6</title>
<path fill="none" stroke="midnightblue" d="M321.39,-209.49C333.15,-202.75 349.43,-193.6 364,-186 372.64,-181.49 382.26,-176.76 390.71,-172.71"/>
<polygon fill="midnightblue" stroke="midnightblue" points="392.42,-175.77 399.95,-168.31 389.41,-169.45 392.42,-175.77"/>
</g>
<!-- Node3&#45;&gt;Node4 -->
<g id="edge3" class="edge">
<title>Node3&#45;&gt;Node4</title>
<path fill="none" stroke="midnightblue" d="M534.1,-95.71C538.11,-100.04 542.84,-105.23 547,-110 562.54,-127.8 579.74,-148.64 591.54,-163.12"/>
<polygon fill="midnightblue" stroke="midnightblue" points="589.11,-165.67 598.13,-171.23 594.54,-161.26 589.11,-165.67"/>
</g>
<!-- Node5 -->
<g id="node5" class="node">
<title>Node5</title>
<g id="a_node5"><a xlink:href="group__grp__volume.html#gae4c62d20b8fef07f4471b5b0889ab005" target="_top" xlink:title="Computes volume of each region; and, if required, the derivatives of the volume with respect to the i...">
<polygon fill="white" stroke="black" points="583,-76.5 583,-95.5 631,-95.5 631,-76.5 583,-76.5"/>
<text text-anchor="middle" x="607" y="-83.5" font-family="Helvetica,sans-Serif" font-size="10.00">volume</text>
</a>
</g>
</g>
<!-- Node3&#45;&gt;Node5 -->
<g id="edge4" class="edge">
<title>Node3&#45;&gt;Node5</title>
<path fill="none" stroke="midnightblue" d="M547.13,-79.91C554.99,-79.3 564.02,-79.12 572.61,-79.34"/>
<polygon fill="midnightblue" stroke="midnightblue" points="572.61,-82.85 582.76,-79.83 572.94,-75.85 572.61,-82.85"/>
</g>
<!-- Node5&#45;&gt;Node3 -->
<g id="edge5" class="edge">
<title>Node5&#45;&gt;Node3</title>
<path fill="none" stroke="midnightblue" d="M582.76,-92.17C574.8,-92.74 565.74,-92.89 557.19,-92.62"/>
<polygon fill="midnightblue" stroke="midnightblue" points="557.3,-89.12 547.13,-92.09 556.94,-96.11 557.3,-89.12"/>
</g>
<!-- Node7&#45;&gt;Node4 -->
<g id="edge13" class="edge">
<title>Node7&#45;&gt;Node4</title>
<path fill="none" stroke="midnightblue" d="M325.74,-92.72C337.04,-96.37 351.28,-100.96 364,-105 441.48,-129.64 533.07,-158.27 578.12,-172.32"/>
<polygon fill="midnightblue" stroke="midnightblue" points="577.18,-175.69 587.77,-175.32 579.27,-169.01 577.18,-175.69"/>
</g>
<!-- Node7&#45;&gt;Node6 -->
<g id="edge14" class="edge">
<title>Node7&#45;&gt;Node6</title>
<path fill="none" stroke="midnightblue" d="M314.35,-95.71C325.46,-106.87 344.9,-125.3 364,-138 372.32,-143.53 382.11,-148.55 390.77,-152.55"/>
<polygon fill="midnightblue" stroke="midnightblue" points="389.38,-155.77 399.94,-156.61 392.21,-149.36 389.38,-155.77"/>
</g>
<!-- Node8 -->
<g id="node8" class="node">
<title>Node8</title>
<g id="a_node8"><a xlink:href="metrix_8f90.html#a80c802cda076dd9e7031bc5f9098c175" target="_top" xlink:title="compute guvijsave">
<polygon fill="white" stroke="black" points="364,-76.5 364,-95.5 465,-95.5 465,-76.5 364,-76.5"/>
<text text-anchor="middle" x="414.5" y="-83.5" font-family="Helvetica,sans-Serif" font-size="10.00">compute_guvijsave</text>
</a>
</g>
</g>
<!-- Node7&#45;&gt;Node8 -->
<g id="edge9" class="edge">
<title>Node7&#45;&gt;Node8</title>
<path fill="none" stroke="midnightblue" d="M325.66,-86C333.78,-86 343.55,-86 353.58,-86"/>
<polygon fill="midnightblue" stroke="midnightblue" points="353.65,-89.5 363.65,-86 353.65,-82.5 353.65,-89.5"/>
</g>
<!-- Node9 -->
<g id="node9" class="node">
<title>Node9</title>
<g id="a_node9"><a xlink:href="basefn_8f90.html#af6a4cad04c70bfb14fd18a3bfbc843a3" target="_top" xlink:title="Get the Chebyshev polynomials with zeroth, first derivatives.">
<polygon fill="white" stroke="black" points="384,-38.5 384,-57.5 445,-57.5 445,-38.5 384,-38.5"/>
<text text-anchor="middle" x="414.5" y="-45.5" font-family="Helvetica,sans-Serif" font-size="10.00">get_cheby</text>
</a>
</g>
</g>
<!-- Node7&#45;&gt;Node9 -->
<g id="edge11" class="edge">
<title>Node7&#45;&gt;Node9</title>
<path fill="none" stroke="midnightblue" d="M325.66,-78.76C340.05,-73.72 359.64,-66.86 376.67,-60.9"/>
<polygon fill="midnightblue" stroke="midnightblue" points="378.06,-64.12 386.34,-57.51 375.75,-57.51 378.06,-64.12"/>
</g>
<!-- Node10 -->
<g id="node10" class="node">
<title>Node10</title>
<g id="a_node10"><a xlink:href="basefn_8f90.html#a38dc596fb909186b01dacc1feac03164" target="_top" xlink:title="Get the Zernike polynomials &#160;with zeroth, first derivatives.">
<polygon fill="white" stroke="black" points="381.5,-0.5 381.5,-19.5 447.5,-19.5 447.5,-0.5 381.5,-0.5"/>
<text text-anchor="middle" x="414.5" y="-7.5" font-family="Helvetica,sans-Serif" font-size="10.00">get_zernike</text>
</a>
</g>
</g>
<!-- Node7&#45;&gt;Node10 -->
<g id="edge12" class="edge">
<title>Node7&#45;&gt;Node10</title>
<path fill="none" stroke="midnightblue" d="M317.41,-76.21C320.91,-73.33 324.67,-70.11 328,-67 345,-51.12 344.66,-41.93 364,-29 366.88,-27.07 369.98,-25.3 373.18,-23.68"/>
<polygon fill="midnightblue" stroke="midnightblue" points="374.69,-26.84 382.34,-19.52 371.79,-20.47 374.69,-26.84"/>
</g>
<!-- Node8&#45;&gt;Node3 -->
<g id="edge10" class="edge">
<title>Node8&#45;&gt;Node3</title>
<path fill="none" stroke="midnightblue" d="M465.16,-86C473.88,-86 482.75,-86 490.83,-86"/>
<polygon fill="midnightblue" stroke="midnightblue" points="490.93,-89.5 500.93,-86 490.93,-82.5 490.93,-89.5"/>
</g>
<!-- Node14 -->
<g id="node14" class="node">
<title>Node14</title>
<g id="a_node14"><a xlink:href="mp00ac_8f90.html#ae9fe335bb4916face9f9d19ce8c0f5d7" target="_top" xlink:title="compute a.x by either by coumputing it directly, or using a matrix free method">
<polygon fill="white" stroke="black" points="187.5,-152.5 187.5,-171.5 236.5,-171.5 236.5,-152.5 187.5,-152.5"/>
<text text-anchor="middle" x="212" y="-159.5" font-family="Helvetica,sans-Serif" font-size="10.00">matvec</text>
</a>
</g>
</g>
<!-- Node13&#45;&gt;Node14 -->
<g id="edge18" class="edge">
<title>Node13&#45;&gt;Node14</title>
<path fill="none" stroke="midnightblue" d="M144.09,-162C154.49,-162 166.44,-162 177.34,-162"/>
<polygon fill="midnightblue" stroke="midnightblue" points="177.38,-165.5 187.38,-162 177.38,-158.5 177.38,-165.5"/>
</g>
<!-- Node15 -->
<g id="node15" class="node">
<title>Node15</title>
<g id="a_node15"><a xlink:href="mp00ac_8f90.html#a76cda97bf815eb7f40cb76ad1719d809" target="_top" xlink:title="apply the preconditioner">
<polygon fill="white" stroke="black" points="180,-114.5 180,-133.5 244,-133.5 244,-114.5 180,-114.5"/>
<text text-anchor="middle" x="212" y="-121.5" font-family="Helvetica,sans-Serif" font-size="10.00">prec_solve</text>
</a>
</g>
</g>
<!-- Node13&#45;&gt;Node15 -->
<g id="edge22" class="edge">
<title>Node13&#45;&gt;Node15</title>
<path fill="none" stroke="midnightblue" d="M140.35,-152.41C151.65,-147.87 165.34,-142.36 177.66,-137.41"/>
<polygon fill="midnightblue" stroke="midnightblue" points="179.19,-140.56 187.16,-133.59 176.58,-134.07 179.19,-140.56"/>
</g>
<!-- Node14&#45;&gt;Node7 -->
<g id="edge19" class="edge">
<title>Node14&#45;&gt;Node7</title>
<path fill="none" stroke="midnightblue" d="M230.18,-152.39C234.8,-149.56 239.71,-146.32 244,-143 259.74,-130.81 275.87,-114.94 287.29,-103.05"/>
<polygon fill="midnightblue" stroke="midnightblue" points="290.05,-105.21 294.37,-95.54 284.96,-100.41 290.05,-105.21"/>
</g>
<!-- Node14&#45;&gt;Node11 -->
<g id="edge20" class="edge">
<title>Node14&#45;&gt;Node11</title>
<path fill="none" stroke="midnightblue" d="M236.65,-164.63C246.99,-165.78 259.29,-167.14 270.47,-168.39"/>
<polygon fill="midnightblue" stroke="midnightblue" points="270.42,-171.9 280.75,-169.53 271.2,-164.94 270.42,-171.9"/>
</g>
<!-- Node14&#45;&gt;Node12 -->
<g id="edge21" class="edge">
<title>Node14&#45;&gt;Node12</title>
<path fill="none" stroke="midnightblue" d="M232.67,-152.32C236.76,-149.69 240.79,-146.57 244,-143 268.97,-115.19 257.04,-96.5 280,-67 280.67,-66.14 281.38,-65.3 282.13,-64.47"/>
<polygon fill="midnightblue" stroke="midnightblue" points="284.57,-66.97 289.42,-57.56 279.76,-61.89 284.57,-66.97"/>
</g>
<!-- Node16&#45;&gt;Node4 -->
<g id="edge24" class="edge">
<title>Node16&#45;&gt;Node4</title>
<path fill="none" stroke="midnightblue" d="M534.1,-266.29C538.11,-261.96 542.84,-256.77 547,-252 562.54,-234.2 579.74,-213.36 591.54,-198.88"/>
<polygon fill="midnightblue" stroke="midnightblue" points="594.54,-200.74 598.13,-190.77 589.11,-196.33 594.54,-200.74"/>
</g>
</g>
</svg>
