<?xml version="1.0" encoding="UTF-8" standalone="no"?>
<!DOCTYPE svg PUBLIC "-//W3C//DTD SVG 1.1//EN"
 "http://www.w3.org/Graphics/SVG/1.1/DTD/svg11.dtd">
<!-- Generated by graphviz version 2.50.0 (20220203.2022)
 -->
<!-- Title: fcn1 Pages: 1 -->
<svg width="566pt" height="169pt"
 viewBox="0.00 0.00 566.00 169.00" xmlns="http://www.w3.org/2000/svg" xmlns:xlink="http://www.w3.org/1999/xlink">
<g id="graph0" class="graph" transform="scale(1 1) rotate(0) translate(4 165)">
<title>fcn1</title>
<polygon fill="white" stroke="transparent" points="-4,4 -4,-165 562,-165 562,4 -4,4"/>
<!-- Node1 -->
<g id="node1" class="node">
<title>Node1</title>
<g id="a_node1"><a xlink:title="fcn1">
<polygon fill="#bfbfbf" stroke="black" points="523,-76.5 523,-95.5 558,-95.5 558,-76.5 523,-76.5"/>
<text text-anchor="middle" x="540.5" y="-83.5" font-family="Helvetica,sans-Serif" font-size="10.00">fcn1</text>
</a>
</g>
</g>
<!-- Node1&#45;&gt;Node1 -->
<g id="edge1" class="edge">
<title>Node1&#45;&gt;Node1</title>
<path fill="none" stroke="midnightblue" d="M554.5,-105.77C553.4,-110.5 548.73,-114 540.5,-114 526.99,-114 523.09,-104.57 528.79,-95.76"/>
<polygon fill="midnightblue" stroke="midnightblue" points="557.85,-104.73 552.21,-95.76 551.02,-106.28 557.85,-104.73"/>
</g>
<!-- Node2 -->
<g id="node2" class="node">
<title>Node2</title>
<g id="a_node2"><a xlink:href="group__grp__force__driver.html#gaec14f81fbdbedafbc4189489ec8ae178" target="_top" xlink:title="Employs Newton method to find , where &#160;and &#160;is defined in dforce() .">
<polygon fill="white" stroke="black" points="439,-76.5 439,-95.5 487,-95.5 487,-76.5 439,-76.5"/>
<text text-anchor="middle" x="463" y="-83.5" font-family="Helvetica,sans-Serif" font-size="10.00">newton</text>
</a>
</g>
</g>
<!-- Node1&#45;&gt;Node2 -->
<g id="edge2" class="edge">
<title>Node1&#45;&gt;Node2</title>
<path fill="none" stroke="midnightblue" d="M512.68,-79.51C504.29,-79.1 495.11,-79.18 487.01,-79.73"/>
<polygon fill="midnightblue" stroke="midnightblue" points="512.51,-83 522.74,-80.28 513.04,-76.03 512.51,-83"/>
</g>
<!-- Node2&#45;&gt;Node1 -->
<g id="edge3" class="edge">
<title>Node2&#45;&gt;Node1</title>
<path fill="none" stroke="midnightblue" d="M497.13,-92.7C505.99,-92.88 515.19,-92.55 522.74,-91.72"/>
<polygon fill="midnightblue" stroke="midnightblue" points="497.15,-89.2 487.01,-92.27 496.85,-96.2 497.15,-89.2"/>
</g>
<!-- Node2&#45;&gt;Node2 -->
<g id="edge7" class="edge">
<title>Node2&#45;&gt;Node2</title>
<path fill="none" stroke="midnightblue" d="M477,-105.77C475.9,-110.5 471.23,-114 463,-114 449.49,-114 445.59,-104.57 451.29,-95.76"/>
<polygon fill="midnightblue" stroke="midnightblue" points="480.35,-104.73 474.71,-95.76 473.52,-106.28 480.35,-104.73"/>
</g>
<!-- Node3 -->
<g id="node3" class="node">
<title>Node3</title>
<g id="a_node3"><a xlink:href="group__grp__force__driver.html#ga8ccd6c7d901872702521d0a0edf95412" target="_top" xlink:title="fcn2">
<polygon fill="white" stroke="black" points="237.5,-123.5 237.5,-142.5 272.5,-142.5 272.5,-123.5 237.5,-123.5"/>
<text text-anchor="middle" x="255" y="-130.5" font-family="Helvetica,sans-Serif" font-size="10.00">fcn2</text>
</a>
</g>
</g>
<!-- Node2&#45;&gt;Node3 -->
<g id="edge4" class="edge">
<title>Node2&#45;&gt;Node3</title>
<path fill="none" stroke="midnightblue" d="M429.06,-88.69C420.62,-91.1 411.52,-93.82 403,-96 356.43,-107.89 300.4,-117.22 272.9,-124.87"/>
<polygon fill="midnightblue" stroke="midnightblue" points="430.22,-92 438.93,-85.97 428.36,-85.25 430.22,-92"/>
</g>
<!-- Node4 -->
<g id="node4" class="node">
<title>Node4</title>
<g id="a_node4"><a xlink:href="xspech_8f90.html#a48f45478dc2c9f70ea8aa1c60ad06503" target="_top" xlink:title="This is the main &quot;driver&quot; for the physics part of SPEC.">
<polygon fill="white" stroke="black" points="351.5,-38.5 351.5,-57.5 389.5,-57.5 389.5,-38.5 351.5,-38.5"/>
<text text-anchor="middle" x="370.5" y="-45.5" font-family="Helvetica,sans-Serif" font-size="10.00">spec</text>
</a>
</g>
</g>
<!-- Node2&#45;&gt;Node4 -->
<g id="edge8" class="edge">
<title>Node2&#45;&gt;Node4</title>
<path fill="none" stroke="midnightblue" d="M429.76,-72.46C416.33,-66.82 401.23,-60.48 389.77,-55.67"/>
<polygon fill="midnightblue" stroke="midnightblue" points="428.59,-75.77 439.16,-76.41 431.3,-69.31 428.59,-75.77"/>
</g>
<!-- Node9 -->
<g id="node9" class="node">
<title>Node9</title>
<g id="a_node9"><a xlink:href="group__grp__force__driver.html#ga382822b303cbf8c56d6f54dcb379caf2" target="_top" xlink:title="read or write force&#45;derivative matrix">
<polygon fill="white" stroke="black" points="338,-76.5 338,-95.5 403,-95.5 403,-76.5 338,-76.5"/>
<text text-anchor="middle" x="370.5" y="-83.5" font-family="Helvetica,sans-Serif" font-size="10.00">writereadgf</text>
</a>
</g>
</g>
<!-- Node2&#45;&gt;Node9 -->
<g id="edge17" class="edge">
<title>Node2&#45;&gt;Node9</title>
<path fill="none" stroke="midnightblue" d="M428.6,-79.46C420.31,-79.16 411.46,-79.18 403.25,-79.52"/>
<polygon fill="midnightblue" stroke="midnightblue" points="428.52,-82.96 438.69,-80.01 428.9,-75.97 428.52,-82.96"/>
</g>
<!-- Node3&#45;&gt;Node2 -->
<g id="edge6" class="edge">
<title>Node3&#45;&gt;Node2</title>
<path fill="none" stroke="midnightblue" d="M282.9,-135.5C312.54,-133.14 361.52,-124.59 403,-114 420.93,-109.42 441.4,-102.42 452.9,-95.59"/>
<polygon fill="midnightblue" stroke="midnightblue" points="282.68,-132.01 272.9,-136.08 283.09,-138.99 282.68,-132.01"/>
</g>
<!-- Node3&#45;&gt;Node3 -->
<g id="edge5" class="edge">
<title>Node3&#45;&gt;Node3</title>
<path fill="none" stroke="midnightblue" d="M274.63,-152.4C273.32,-157.31 266.77,-161 255,-161 236.16,-161 230.71,-151.57 238.66,-142.76"/>
<polygon fill="midnightblue" stroke="midnightblue" points="277.88,-151.09 271.34,-142.76 271.26,-153.35 277.88,-151.09"/>
</g>
<!-- Node5 -->
<g id="node5" class="node">
<title>Node5</title>
<g id="a_node5"><a xlink:href="group__grp__output.html#ga0f962c09cd5d5eba99f1cba043cb3898" target="_top" xlink:title="Initialize the interface to the HDF5 library and open the output file.">
<polygon fill="white" stroke="black" points="208,-85.5 208,-104.5 302,-104.5 302,-85.5 208,-85.5"/>
<text text-anchor="middle" x="255" y="-92.5" font-family="Helvetica,sans-Serif" font-size="10.00">sphdf5::init_outfile</text>
</a>
</g>
</g>
<!-- Node4&#45;&gt;Node5 -->
<g id="edge9" class="edge">
<title>Node4&#45;&gt;Node5</title>
<path fill="none" stroke="midnightblue" d="M341.86,-59.44C322.7,-67.38 297.45,-77.84 279.3,-85.35"/>
<polygon fill="midnightblue" stroke="midnightblue" points="343.36,-62.61 351.26,-55.55 340.69,-56.14 343.36,-62.61"/>
</g>
<!-- Node6 -->
<g id="node6" class="node">
<title>Node6</title>
<g id="a_node6"><a xlink:href="xspech_8f90.html#a9fdc71dffd7c61ee4588a3f80d3ab9ce" target="_top" xlink:title="Main subroutine of SPEC.">
<polygon fill="white" stroke="black" points="125,-38.5 125,-57.5 172,-57.5 172,-38.5 125,-38.5"/>
<text text-anchor="middle" x="148.5" y="-45.5" font-family="Helvetica,sans-Serif" font-size="10.00">xspech</text>
</a>
</g>
</g>
<!-- Node4&#45;&gt;Node6 -->
<g id="edge16" class="edge">
<title>Node4&#45;&gt;Node6</title>
<path fill="none" stroke="midnightblue" d="M341.48,-43.32C297.43,-40.44 212.86,-40.57 172.3,-43.69"/>
<polygon fill="midnightblue" stroke="midnightblue" points="341.26,-46.81 351.5,-44.09 341.79,-39.83 341.26,-46.81"/>
</g>
<!-- Node5&#45;&gt;Node6 -->
<g id="edge10" class="edge">
<title>Node5&#45;&gt;Node6</title>
<path fill="none" stroke="midnightblue" d="M223.43,-81.25C206.59,-73.68 186.11,-64.46 170.97,-57.66"/>
<polygon fill="midnightblue" stroke="midnightblue" points="222.3,-84.58 232.85,-85.49 225.17,-78.19 222.3,-84.58"/>
</g>
<!-- Node6&#45;&gt;Node4 -->
<g id="edge13" class="edge">
<title>Node6&#45;&gt;Node4</title>
<path fill="none" stroke="midnightblue" d="M182.29,-52.97C229.36,-55.65 314.48,-55.3 351.5,-51.91"/>
<polygon fill="midnightblue" stroke="midnightblue" points="182.51,-49.48 172.3,-52.31 182.05,-56.47 182.51,-49.48"/>
</g>
<!-- Node6&#45;&gt;Node6 -->
<g id="edge15" class="edge">
<title>Node6&#45;&gt;Node6</title>
<path fill="none" stroke="midnightblue" d="M167.76,-67.4C166.47,-72.31 160.05,-76 148.5,-76 130.02,-76 124.67,-66.57 132.47,-57.76"/>
<polygon fill="midnightblue" stroke="midnightblue" points="171.02,-66.13 164.53,-57.76 164.39,-68.35 171.02,-66.13"/>
</g>
<!-- Node7 -->
<g id="node7" class="node">
<title>Node7</title>
<g id="a_node7"><a xlink:href="xspech_8f90.html#a1451823a7b97101a797de616250752c1" target="_top" xlink:title="Final diagnostics.">
<polygon fill="white" stroke="black" points="0,-38.5 0,-57.5 89,-57.5 89,-38.5 0,-38.5"/>
<text text-anchor="middle" x="44.5" y="-45.5" font-family="Helvetica,sans-Serif" font-size="10.00">final_diagnostics</text>
</a>
</g>
</g>
<!-- Node6&#45;&gt;Node7 -->
<g id="edge11" class="edge">
<title>Node6&#45;&gt;Node7</title>
<path fill="none" stroke="midnightblue" d="M114.63,-41.64C106.47,-41.27 97.59,-41.16 89.01,-41.32"/>
<polygon fill="midnightblue" stroke="midnightblue" points="114.67,-45.15 124.86,-42.28 115.1,-38.17 114.67,-45.15"/>
</g>
<!-- Node8 -->
<g id="node8" class="node">
<title>Node8</title>
<g id="a_node8"><a xlink:href="xspech_8f90.html#a95271e8805067f801b5d4e524d6901d4" target="_top" xlink:title="Main program of SPEC.">
<polygon fill="white" stroke="black" points="12.5,-0.5 12.5,-19.5 76.5,-19.5 76.5,-0.5 12.5,-0.5"/>
<text text-anchor="middle" x="44.5" y="-7.5" font-family="Helvetica,sans-Serif" font-size="10.00">spec_main</text>
</a>
</g>
</g>
<!-- Node6&#45;&gt;Node8 -->
<g id="edge14" class="edge">
<title>Node6&#45;&gt;Node8</title>
<path fill="none" stroke="midnightblue" d="M115.45,-36.06C101.23,-30.76 84.72,-24.61 71.31,-19.62"/>
<polygon fill="midnightblue" stroke="midnightblue" points="114.27,-39.36 124.86,-39.57 116.71,-32.8 114.27,-39.36"/>
</g>
<!-- Node7&#45;&gt;Node6 -->
<g id="edge12" class="edge">
<title>Node7&#45;&gt;Node6</title>
<path fill="none" stroke="midnightblue" d="M99.21,-54.74C108.25,-54.68 117.19,-54.34 124.86,-53.72"/>
<polygon fill="midnightblue" stroke="midnightblue" points="99.03,-51.24 89.01,-54.68 98.99,-58.24 99.03,-51.24"/>
</g>
<!-- Node9&#45;&gt;Node2 -->
<g id="edge19" class="edge">
<title>Node9&#45;&gt;Node2</title>
<path fill="none" stroke="midnightblue" d="M413.33,-92.73C422.05,-92.82 430.94,-92.57 438.69,-91.99"/>
<polygon fill="midnightblue" stroke="midnightblue" points="413.34,-89.23 403.25,-92.48 413.16,-96.23 413.34,-89.23"/>
</g>
<!-- Node9&#45;&gt;Node3 -->
<g id="edge18" class="edge">
<title>Node9&#45;&gt;Node3</title>
<path fill="none" stroke="midnightblue" d="M337.04,-99.48C325.93,-104.09 313.42,-109.27 302,-114 292.26,-118.03 281.36,-122.54 272.61,-126.15"/>
<polygon fill="midnightblue" stroke="midnightblue" points="338.49,-102.66 346.39,-95.6 335.81,-96.2 338.49,-102.66"/>
</g>
</g>
</svg>
