<?xml version="1.0" encoding="UTF-8" standalone="no"?>
<!DOCTYPE svg PUBLIC "-//W3C//DTD SVG 1.1//EN"
 "http://www.w3.org/Graphics/SVG/1.1/DTD/svg11.dtd">
<!-- Generated by graphviz version 2.47.1 (20210421.1823)
 -->
<!-- Title: preset Pages: 1 -->
<svg width="339pt" height="484pt"
 viewBox="0.00 0.00 339.00 484.00" xmlns="http://www.w3.org/2000/svg" xmlns:xlink="http://www.w3.org/1999/xlink">
<g id="graph0" class="graph" transform="scale(1 1) rotate(0) translate(4 480)">
<title>preset</title>
<polygon fill="white" stroke="transparent" points="-4,4 -4,-480 335,-480 335,4 -4,4"/>
<!-- Node1 -->
<g id="node1" class="node">
<title>Node1</title>
<g id="a_node1"><a xlink:title="Allocates and initializes internal arrays.">
<polygon fill="#bfbfbf" stroke="black" points="0,-228.5 0,-247.5 44,-247.5 44,-228.5 0,-228.5"/>
<text text-anchor="middle" x="22" y="-235.5" font-family="Helvetica,sans-Serif" font-size="10.00">preset</text>
</a>
</g>
</g>
<!-- Node2 -->
<g id="node2" class="node">
<title>Node2</title>
<g id="a_node2"><a xlink:href="group__grp__free-boundary.html#gac0a2cc2241947b27241bb8ef75c5e0ed" target="_top" xlink:title="Computes &#160;on the computational boundary, .">
<polygon fill="white" stroke="black" points="98.5,-456.5 98.5,-475.5 144.5,-475.5 144.5,-456.5 98.5,-456.5"/>
<text text-anchor="middle" x="121.5" y="-463.5" font-family="Helvetica,sans-Serif" font-size="10.00">bnorml</text>
</a>
</g>
</g>
<!-- Node1&#45;&gt;Node2 -->
<g id="edge1" class="edge">
<title>Node1&#45;&gt;Node2</title>
<path fill="none" stroke="midnightblue" d="M23.23,-247.63C24.46,-278.96 32.12,-379.55 80,-442 82.76,-445.6 86.23,-448.77 89.96,-451.52"/>
<polygon fill="midnightblue" stroke="midnightblue" points="88.09,-454.48 98.41,-456.89 91.85,-448.57 88.09,-454.48"/>
</g>
<!-- Node5 -->
<g id="node5" class="node">
<title>Node5</title>
<g id="a_node5"><a xlink:href="group__grp__numerics.html#ga041138109a57e651c57117bb4180409e" target="_top" xlink:title="Forward Fourier transform (fftw wrapper)">
<polygon fill="white" stroke="black" points="207.5,-418.5 207.5,-437.5 236.5,-437.5 236.5,-418.5 207.5,-418.5"/>
<text text-anchor="middle" x="222" y="-425.5" font-family="Helvetica,sans-Serif" font-size="10.00">tfft</text>
</a>
</g>
</g>
<!-- Node1&#45;&gt;Node5 -->
<g id="edge23" class="edge">
<title>Node1&#45;&gt;Node5</title>
<path fill="none" stroke="midnightblue" d="M22.94,-247.67C23.34,-277.19 28.9,-366.69 80,-409 113.04,-436.36 166.15,-435.34 196.88,-431.86"/>
<polygon fill="midnightblue" stroke="midnightblue" points="197.66,-435.28 207.12,-430.51 196.75,-428.34 197.66,-435.28"/>
</g>
<!-- Node6 -->
<g id="node6" class="node">
<title>Node6</title>
<g id="a_node6"><a xlink:href="group__grp__geometry.html#gaaca20aa60eaf39055f3c9d5c02a24ac2" target="_top" xlink:title="Calculates coordinates, , and metrics, using FFTs.">
<polygon fill="white" stroke="black" points="199,-380.5 199,-399.5 245,-399.5 245,-380.5 199,-380.5"/>
<text text-anchor="middle" x="222" y="-387.5" font-family="Helvetica,sans-Serif" font-size="10.00">coords</text>
</a>
</g>
</g>
<!-- Node1&#45;&gt;Node6 -->
<g id="edge6" class="edge">
<title>Node1&#45;&gt;Node6</title>
<path fill="none" stroke="midnightblue" d="M26.86,-247.72C34.48,-265.8 53.08,-304.85 80,-328 97.14,-342.74 153.16,-365.06 189.22,-378.51"/>
<polygon fill="midnightblue" stroke="midnightblue" points="188.21,-381.88 198.81,-382.06 190.64,-375.31 188.21,-381.88"/>
</g>
<!-- Node7 -->
<g id="node7" class="node">
<title>Node7</title>
<g id="a_node7"><a xlink:href="group__grp__numerics.html#ga1fd52accb0646f535f9bcc46cf5a68f3" target="_top" xlink:title="Inverse Fourier transform (fftw wrapper)">
<polygon fill="white" stroke="black" points="287,-342.5 287,-361.5 325,-361.5 325,-342.5 287,-342.5"/>
<text text-anchor="middle" x="306" y="-349.5" font-family="Helvetica,sans-Serif" font-size="10.00">invfft</text>
</a>
</g>
</g>
<!-- Node1&#45;&gt;Node7 -->
<g id="edge16" class="edge">
<title>Node1&#45;&gt;Node7</title>
<path fill="none" stroke="midnightblue" d="M29.95,-247.66C39.67,-260.45 58.59,-282.83 80,-295 113.76,-314.18 224.21,-336.79 276.74,-346.79"/>
<polygon fill="midnightblue" stroke="midnightblue" points="276.26,-350.26 286.73,-348.67 277.55,-343.38 276.26,-350.26"/>
</g>
<!-- Node9 -->
<g id="node9" class="node">
<title>Node9</title>
<g id="a_node9"><a xlink:href="group__grp__numerics.html#ga425e8f1cbf214a3231ab6c874d8fe4be" target="_top" xlink:title="Gauss&#45;Legendre weights and abscissae.">
<polygon fill="white" stroke="black" points="99,-266.5 99,-285.5 144,-285.5 144,-266.5 99,-266.5"/>
<text text-anchor="middle" x="121.5" y="-273.5" font-family="Helvetica,sans-Serif" font-size="10.00">gauleg</text>
</a>
</g>
</g>
<!-- Node1&#45;&gt;Node9 -->
<g id="edge10" class="edge">
<title>Node1&#45;&gt;Node9</title>
<path fill="none" stroke="midnightblue" d="M44.16,-246.25C57.26,-251.35 74.33,-258.01 89.01,-263.73"/>
<polygon fill="midnightblue" stroke="midnightblue" points="88.12,-267.14 98.71,-267.51 90.66,-260.62 88.12,-267.14"/>
</g>
<!-- Node10 -->
<g id="node10" class="node">
<title>Node10</title>
<g id="a_node10"><a xlink:href="basefn_8f90.html#af6a4cad04c70bfb14fd18a3bfbc843a3" target="_top" xlink:title="Get the Chebyshev polynomials with zeroth, first derivatives.">
<polygon fill="white" stroke="black" points="91,-228.5 91,-247.5 152,-247.5 152,-228.5 91,-228.5"/>
<text text-anchor="middle" x="121.5" y="-235.5" font-family="Helvetica,sans-Serif" font-size="10.00">get_cheby</text>
</a>
</g>
</g>
<!-- Node1&#45;&gt;Node10 -->
<g id="edge11" class="edge">
<title>Node1&#45;&gt;Node10</title>
<path fill="none" stroke="midnightblue" d="M44.16,-238C54.83,-238 68.14,-238 80.64,-238"/>
<polygon fill="midnightblue" stroke="midnightblue" points="80.88,-241.5 90.88,-238 80.88,-234.5 80.88,-241.5"/>
</g>
<!-- Node11 -->
<g id="node11" class="node">
<title>Node11</title>
<g id="a_node11"><a xlink:href="basefn_8f90.html#a38dc596fb909186b01dacc1feac03164" target="_top" xlink:title="Get the Zernike polynomials &#160;with zeroth, first derivatives.">
<polygon fill="white" stroke="black" points="88.5,-190.5 88.5,-209.5 154.5,-209.5 154.5,-190.5 88.5,-190.5"/>
<text text-anchor="middle" x="121.5" y="-197.5" font-family="Helvetica,sans-Serif" font-size="10.00">get_zernike</text>
</a>
</g>
</g>
<!-- Node1&#45;&gt;Node11 -->
<g id="edge12" class="edge">
<title>Node1&#45;&gt;Node11</title>
<path fill="none" stroke="midnightblue" d="M44.16,-229.75C56.53,-224.93 72.45,-218.73 86.54,-213.23"/>
<polygon fill="midnightblue" stroke="midnightblue" points="87.9,-216.46 95.94,-209.57 85.36,-209.94 87.9,-216.46"/>
</g>
<!-- Node12 -->
<g id="node12" class="node">
<title>Node12</title>
<g id="a_node12"><a xlink:href="basefn_8f90.html#a6076d695487184d58d30d73de2f6470f" target="_top" xlink:title="Get the Zernike polynomials .">
<polygon fill="white" stroke="black" points="80,-152.5 80,-171.5 163,-171.5 163,-152.5 80,-152.5"/>
<text text-anchor="middle" x="121.5" y="-159.5" font-family="Helvetica,sans-Serif" font-size="10.00">get_zernike_rm</text>
</a>
</g>
</g>
<!-- Node1&#45;&gt;Node12 -->
<g id="edge13" class="edge">
<title>Node1&#45;&gt;Node12</title>
<path fill="none" stroke="midnightblue" d="M31.02,-228.08C41.34,-215.81 60.3,-194.83 80,-181 82.38,-179.33 84.94,-177.74 87.56,-176.24"/>
<polygon fill="midnightblue" stroke="midnightblue" points="89.35,-179.25 96.6,-171.53 86.12,-173.05 89.35,-179.25"/>
</g>
<!-- Node13 -->
<g id="node13" class="node">
<title>Node13</title>
<g id="a_node13"><a xlink:href="numrec_8f90.html#ad74184c181acd10cef74a2bd4f1c31a9" target="_top" xlink:title="convert m and n to index">
<polygon fill="white" stroke="black" points="98.5,-114.5 98.5,-133.5 144.5,-133.5 144.5,-114.5 98.5,-114.5"/>
<text text-anchor="middle" x="121.5" y="-121.5" font-family="Helvetica,sans-Serif" font-size="10.00">getimn</text>
</a>
</g>
</g>
<!-- Node1&#45;&gt;Node13 -->
<g id="edge14" class="edge">
<title>Node1&#45;&gt;Node13</title>
<path fill="none" stroke="midnightblue" d="M26.54,-228.38C33.85,-209.67 52.31,-168.01 80,-143 82.82,-140.46 86.03,-138.19 89.4,-136.19"/>
<polygon fill="midnightblue" stroke="midnightblue" points="91.18,-139.21 98.46,-131.51 87.97,-132.99 91.18,-139.21"/>
</g>
<!-- Node14 -->
<g id="node14" class="node">
<title>Node14</title>
<g id="a_node14"><a xlink:href="group__grp__numerics.html#ga02a336a22890e7ae5a5c2d525260666c" target="_top" xlink:title="Assign Fourier mode labels.">
<polygon fill="white" stroke="black" points="99,-76.5 99,-95.5 144,-95.5 144,-76.5 99,-76.5"/>
<text text-anchor="middle" x="121.5" y="-83.5" font-family="Helvetica,sans-Serif" font-size="10.00">gi00ab</text>
</a>
</g>
</g>
<!-- Node1&#45;&gt;Node14 -->
<g id="edge15" class="edge">
<title>Node1&#45;&gt;Node14</title>
<path fill="none" stroke="midnightblue" d="M24.69,-228.33C29.33,-204.42 44.38,-141.84 80,-105 82.83,-102.07 86.21,-99.54 89.78,-97.37"/>
<polygon fill="midnightblue" stroke="midnightblue" points="91.59,-100.38 98.89,-92.71 88.39,-94.15 91.59,-100.38"/>
</g>
<!-- Node15 -->
<g id="node15" class="node">
<title>Node15</title>
<g id="a_node15"><a xlink:href="group__grp__build__matrices.html#ga1c52bb6dbffdb432550aae12b096080f" target="_top" xlink:title="Constructs energy and helicity matrices that represent the Beltrami linear system....">
<polygon fill="white" stroke="black" points="100,-38.5 100,-57.5 143,-57.5 143,-38.5 100,-38.5"/>
<text text-anchor="middle" x="121.5" y="-45.5" font-family="Helvetica,sans-Serif" font-size="10.00">matrix</text>
</a>
</g>
</g>
<!-- Node1&#45;&gt;Node15 -->
<g id="edge17" class="edge">
<title>Node1&#45;&gt;Node15</title>
<path fill="none" stroke="midnightblue" d="M23.63,-228.18C25.95,-199.71 36.33,-116.1 80,-67 83.04,-63.58 86.83,-60.72 90.87,-58.36"/>
<polygon fill="midnightblue" stroke="midnightblue" points="92.45,-61.48 99.88,-53.93 89.36,-55.2 92.45,-61.48"/>
</g>
<!-- Node16 -->
<g id="node16" class="node">
<title>Node16</title>
<g id="a_node16"><a xlink:href="group__grp__output.html#ga08d6a254dbc3d9d40ff1cf0bdfdf2148" target="_top" xlink:title="Writes vector potential to .ext.sp.A .">
<polygon fill="white" stroke="black" points="98.5,-0.5 98.5,-19.5 144.5,-19.5 144.5,-0.5 98.5,-0.5"/>
<text text-anchor="middle" x="121.5" y="-7.5" font-family="Helvetica,sans-Serif" font-size="10.00">ra00aa</text>
</a>
</g>
</g>
<!-- Node1&#45;&gt;Node16 -->
<g id="edge18" class="edge">
<title>Node1&#45;&gt;Node16</title>
<path fill="none" stroke="midnightblue" d="M22.91,-228.4C23.13,-196.24 27.96,-90.89 80,-29 82.62,-25.88 85.88,-23.24 89.39,-21.01"/>
<polygon fill="midnightblue" stroke="midnightblue" points="91.18,-24.02 98.44,-16.3 87.95,-17.82 91.18,-24.02"/>
</g>
<!-- Node17 -->
<g id="node17" class="node">
<title>Node17</title>
<g id="a_node17"><a xlink:href="group__grp__coord__axis.html#ga564281be4d9806d0688a717314ad748f" target="_top" xlink:title="The coordinate axis is assigned via a poloidal average over an arbitrary surface.">
<polygon fill="white" stroke="black" points="101,-380.5 101,-399.5 142,-399.5 142,-380.5 101,-380.5"/>
<text text-anchor="middle" x="121.5" y="-387.5" font-family="Helvetica,sans-Serif" font-size="10.00">rzaxis</text>
</a>
</g>
</g>
<!-- Node1&#45;&gt;Node17 -->
<g id="edge19" class="edge">
<title>Node1&#45;&gt;Node17</title>
<path fill="none" stroke="midnightblue" d="M25.18,-247.78C30.73,-270.82 47.33,-329.3 80,-366 83.36,-369.77 87.45,-373.12 91.73,-376.03"/>
<polygon fill="midnightblue" stroke="midnightblue" points="90.23,-379.21 100.6,-381.38 93.85,-373.22 90.23,-379.21"/>
</g>
<!-- Node3 -->
<g id="node3" class="node">
<title>Node3</title>
<g id="a_node3"><a xlink:href="group__grp__free-boundary.html#ga180576a10002ebf3840fce98d56316bb" target="_top" xlink:title="Constructs the field created by the plasma currents, at an arbitrary, external location using virtual...">
<polygon fill="white" stroke="black" points="199.5,-456.5 199.5,-475.5 244.5,-475.5 244.5,-456.5 199.5,-456.5"/>
<text text-anchor="middle" x="222" y="-463.5" font-family="Helvetica,sans-Serif" font-size="10.00">casing</text>
</a>
</g>
</g>
<!-- Node2&#45;&gt;Node3 -->
<g id="edge2" class="edge">
<title>Node2&#45;&gt;Node3</title>
<path fill="none" stroke="midnightblue" d="M144.85,-466C158.01,-466 174.85,-466 189.36,-466"/>
<polygon fill="midnightblue" stroke="midnightblue" points="189.41,-469.5 199.41,-466 189.41,-462.5 189.41,-469.5"/>
</g>
<!-- Node2&#45;&gt;Node5 -->
<g id="edge5" class="edge">
<title>Node2&#45;&gt;Node5</title>
<path fill="none" stroke="midnightblue" d="M144.85,-457.38C160.59,-451.31 181.61,-443.19 197.58,-437.03"/>
<polygon fill="midnightblue" stroke="midnightblue" points="199.17,-440.17 207.24,-433.31 196.65,-433.64 199.17,-440.17"/>
</g>
<!-- Node4 -->
<g id="node4" class="node">
<title>Node4</title>
<g id="a_node4"><a xlink:href="group__grp__free-boundary.html#ga281c12a5de84fddd3db4383b0df8627f" target="_top" xlink:title="Differential virtual casing integrand.">
<polygon fill="white" stroke="black" points="281,-456.5 281,-475.5 331,-475.5 331,-456.5 281,-456.5"/>
<text text-anchor="middle" x="306" y="-463.5" font-family="Helvetica,sans-Serif" font-size="10.00">dvcfield</text>
</a>
</g>
</g>
<!-- Node3&#45;&gt;Node4 -->
<g id="edge3" class="edge">
<title>Node3&#45;&gt;Node4</title>
<path fill="none" stroke="midnightblue" d="M244.54,-459.98C252.59,-459.33 261.94,-459.11 270.85,-459.33"/>
<polygon fill="midnightblue" stroke="midnightblue" points="270.85,-462.84 281,-459.79 271.17,-455.85 270.85,-462.84"/>
</g>
<!-- Node4&#45;&gt;Node3 -->
<g id="edge4" class="edge">
<title>Node4&#45;&gt;Node3</title>
<path fill="none" stroke="midnightblue" d="M281,-472.21C272.8,-472.76 263.49,-472.89 254.77,-472.6"/>
<polygon fill="midnightblue" stroke="midnightblue" points="254.72,-469.09 244.54,-472.02 254.33,-476.08 254.72,-469.09"/>
</g>
<!-- Node6&#45;&gt;Node7 -->
<g id="edge7" class="edge">
<title>Node6&#45;&gt;Node7</title>
<path fill="none" stroke="midnightblue" d="M243.69,-380.41C253.97,-375.65 266.52,-369.83 277.58,-364.71"/>
<polygon fill="midnightblue" stroke="midnightblue" points="279.23,-367.8 286.83,-360.42 276.28,-361.45 279.23,-367.8"/>
</g>
<!-- Node8 -->
<g id="node8" class="node">
<title>Node8</title>
<g id="a_node8"><a xlink:href="group__grp__volume.html#gae4c62d20b8fef07f4471b5b0889ab005" target="_top" xlink:title="Computes volume of each region; and, if required, the derivatives of the volume with respect to the i...">
<polygon fill="white" stroke="black" points="282,-380.5 282,-399.5 330,-399.5 330,-380.5 282,-380.5"/>
<text text-anchor="middle" x="306" y="-387.5" font-family="Helvetica,sans-Serif" font-size="10.00">volume</text>
</a>
</g>
</g>
<!-- Node6&#45;&gt;Node8 -->
<g id="edge8" class="edge">
<title>Node6&#45;&gt;Node8</title>
<path fill="none" stroke="midnightblue" d="M245.41,-383.91C253.52,-383.29 262.86,-383.11 271.71,-383.36"/>
<polygon fill="midnightblue" stroke="midnightblue" points="271.6,-386.86 281.76,-383.85 271.95,-379.86 271.6,-386.86"/>
</g>
<!-- Node8&#45;&gt;Node6 -->
<g id="edge9" class="edge">
<title>Node8&#45;&gt;Node6</title>
<path fill="none" stroke="midnightblue" d="M281.76,-396.15C273.66,-396.73 264.41,-396.89 255.68,-396.62"/>
<polygon fill="midnightblue" stroke="midnightblue" points="255.58,-393.11 245.41,-396.09 255.21,-400.11 255.58,-393.11"/>
</g>
<!-- Node17&#45;&gt;Node5 -->
<g id="edge22" class="edge">
<title>Node17&#45;&gt;Node5</title>
<path fill="none" stroke="midnightblue" d="M142.43,-397.69C158.45,-403.87 180.96,-412.55 197.79,-419.05"/>
<polygon fill="midnightblue" stroke="midnightblue" points="196.83,-422.43 207.42,-422.76 199.35,-415.9 196.83,-422.43"/>
</g>
<!-- Node17&#45;&gt;Node6 -->
<g id="edge20" class="edge">
<title>Node17&#45;&gt;Node6</title>
<path fill="none" stroke="midnightblue" d="M142.43,-390C155.68,-390 173.37,-390 188.61,-390"/>
<polygon fill="midnightblue" stroke="midnightblue" points="188.69,-393.5 198.69,-390 188.69,-386.5 188.69,-393.5"/>
</g>
<!-- Node17&#45;&gt;Node7 -->
<g id="edge21" class="edge">
<title>Node17&#45;&gt;Node7</title>
<path fill="none" stroke="midnightblue" d="M142.23,-384.72C157.63,-380.69 179.59,-375.14 199,-371 225.28,-365.39 255.46,-360.09 276.88,-356.52"/>
<polygon fill="midnightblue" stroke="midnightblue" points="277.63,-359.94 286.92,-354.87 276.49,-353.04 277.63,-359.94"/>
</g>
</g>
</svg>
