<?xml version="1.0" encoding="UTF-8" standalone="no"?>
<!DOCTYPE svg PUBLIC "-//W3C//DTD SVG 1.1//EN"
 "http://www.w3.org/Graphics/SVG/1.1/DTD/svg11.dtd">
<!-- Generated by graphviz version 2.44.0 ()
 -->
<!-- Title: invfft Pages: 1 -->
<svg width="568pt" height="294pt"
 viewBox="0.00 0.00 568.00 294.26" xmlns="http://www.w3.org/2000/svg" xmlns:xlink="http://www.w3.org/1999/xlink">
<g id="graph0" class="graph" transform="scale(1 1) rotate(0) translate(4 290.26)">
<title>invfft</title>
<polygon fill="white" stroke="transparent" points="-4,4 -4,-290.26 564,-290.26 564,4 -4,4"/>
<!-- Node1 -->
<g id="node1" class="node">
<title>Node1</title>
<g id="a_node1"><a xlink:title="Inverse Fourier transform (fftw wrapper)">
<polygon fill="#bfbfbf" stroke="black" points="522,-95.5 522,-114.5 560,-114.5 560,-95.5 522,-95.5"/>
<text text-anchor="middle" x="541" y="-102.5" font-family="Helvetica,sans-Serif" font-size="10.00">invfft</text>
</a>
</g>
</g>
<!-- Node2 -->
<g id="node2" class="node">
<title>Node2</title>
<g id="a_node2"><a xlink:href="group__grp__geometry.html#gaaca20aa60eaf39055f3c9d5c02a24ac2" target="_top" xlink:title="Calculates coordinates, , and metrics, using FFTs.">
<polygon fill="white" stroke="black" points="440,-133.5 440,-152.5 486,-152.5 486,-133.5 440,-133.5"/>
<text text-anchor="middle" x="463" y="-140.5" font-family="Helvetica,sans-Serif" font-size="10.00">coords</text>
</a>
</g>
</g>
<!-- Node1&#45;&gt;Node2 -->
<g id="edge1" class="edge">
<title>Node1&#45;&gt;Node2</title>
<path fill="none" stroke="midnightblue" d="M512.98,-118.51C503.15,-123.43 492.23,-128.88 483.21,-133.39"/>
<polygon fill="midnightblue" stroke="midnightblue" points="514.61,-121.61 521.99,-114.01 511.48,-115.35 514.61,-121.61"/>
</g>
<!-- Node3 -->
<g id="node3" class="node">
<title>Node3</title>
<g id="a_node3"><a xlink:href="group__grp__currents.html#gacaf4411e0ba378631dcd2ccb3752e452" target="_top" xlink:title="Computes the plasma current, , and the &quot;linking&quot; current, .">
<polygon fill="white" stroke="black" points="358,-38.5 358,-57.5 402,-57.5 402,-38.5 358,-38.5"/>
<text text-anchor="middle" x="380" y="-45.5" font-family="Helvetica,sans-Serif" font-size="10.00">curent</text>
</a>
</g>
</g>
<!-- Node1&#45;&gt;Node3 -->
<g id="edge32" class="edge">
<title>Node1&#45;&gt;Node3</title>
<path fill="none" stroke="midnightblue" d="M512.29,-95.07C480.88,-83.81 430.38,-65.7 402.04,-55.54"/>
<polygon fill="midnightblue" stroke="midnightblue" points="511.17,-98.38 521.76,-98.46 513.53,-91.79 511.17,-98.38"/>
</g>
<!-- Node6 -->
<g id="node6" class="node">
<title>Node6</title>
<g id="a_node6"><a xlink:href="group__grp__diagnostics.html#ga6411205c36a7d50002d7f3fb3133c441" target="_top" xlink:title="Measures error in Beltrami equation, .">
<polygon fill="white" stroke="black" points="357.5,-228.5 357.5,-247.5 402.5,-247.5 402.5,-228.5 357.5,-228.5"/>
<text text-anchor="middle" x="380" y="-235.5" font-family="Helvetica,sans-Serif" font-size="10.00">jo00aa</text>
</a>
</g>
</g>
<!-- Node1&#45;&gt;Node6 -->
<g id="edge33" class="edge">
<title>Node1&#45;&gt;Node6</title>
<path fill="none" stroke="midnightblue" d="M531.12,-123.81C521.9,-141.68 506.04,-168.38 486,-186 461.1,-207.9 425.34,-222.99 402.65,-231.07"/>
<polygon fill="midnightblue" stroke="midnightblue" points="534.34,-125.18 535.64,-114.67 528.07,-122.07 534.34,-125.18"/>
</g>
<!-- Node9 -->
<g id="node9" class="node">
<title>Node9</title>
<g id="a_node9"><a xlink:href="group__grp__local__force.html#ga7a5316b9e5eeb42811aa6bccd29a132f" target="_top" xlink:title="Computes , and the spectral condensation constraints if required, on the interfaces,...">
<polygon fill="white" stroke="black" points="359.5,-76.5 359.5,-95.5 400.5,-95.5 400.5,-76.5 359.5,-76.5"/>
<text text-anchor="middle" x="380" y="-83.5" font-family="Helvetica,sans-Serif" font-size="10.00">lforce</text>
</a>
</g>
</g>
<!-- Node1&#45;&gt;Node9 -->
<g id="edge34" class="edge">
<title>Node1&#45;&gt;Node9</title>
<path fill="none" stroke="midnightblue" d="M511.7,-101.62C479.68,-97.79 428.36,-91.66 400.51,-88.33"/>
<polygon fill="midnightblue" stroke="midnightblue" points="511.42,-105.11 521.76,-102.82 512.25,-98.16 511.42,-105.11"/>
</g>
<!-- Node12 -->
<g id="node12" class="node">
<title>Node12</title>
<g id="a_node12"><a xlink:href="group__grp__initialization.html#ga28628de0fdb3b3497668007d8d0643bd" target="_top" xlink:title="Allocates and initializes internal arrays.">
<polygon fill="white" stroke="black" points="358,-190.5 358,-209.5 402,-209.5 402,-190.5 358,-190.5"/>
<text text-anchor="middle" x="380" y="-197.5" font-family="Helvetica,sans-Serif" font-size="10.00">preset</text>
</a>
</g>
</g>
<!-- Node1&#45;&gt;Node12 -->
<g id="edge35" class="edge">
<title>Node1&#45;&gt;Node12</title>
<path fill="none" stroke="midnightblue" d="M526.62,-123.06C516.62,-135.47 501.97,-151.54 486,-162 459.57,-179.31 424.23,-189.98 402.04,-195.45"/>
<polygon fill="midnightblue" stroke="midnightblue" points="529.67,-124.84 533.04,-114.8 524.14,-120.55 529.67,-124.84"/>
</g>
<!-- Node21 -->
<g id="node21" class="node">
<title>Node21</title>
<g id="a_node21"><a xlink:href="group__grp__transform.html#ga0e0447653b8da82f06748dd8831bc337" target="_top" xlink:title="Calculates rotational transform given an arbitrary tangential field.">
<polygon fill="white" stroke="black" points="441,-0.5 441,-19.5 485,-19.5 485,-0.5 441,-0.5"/>
<text text-anchor="middle" x="463" y="-7.5" font-family="Helvetica,sans-Serif" font-size="10.00">tr00ab</text>
</a>
</g>
</g>
<!-- Node1&#45;&gt;Node21 -->
<g id="edge36" class="edge">
<title>Node1&#45;&gt;Node21</title>
<path fill="none" stroke="midnightblue" d="M527,-86.97C516.32,-72.4 500.64,-51.52 486,-34 481.94,-29.14 477.22,-23.94 473.2,-19.63"/>
<polygon fill="midnightblue" stroke="midnightblue" points="524.22,-89.11 532.94,-95.13 529.88,-84.99 524.22,-89.11"/>
</g>
<!-- Node2&#45;&gt;Node3 -->
<g id="edge2" class="edge">
<title>Node2&#45;&gt;Node3</title>
<path fill="none" stroke="midnightblue" d="M449.93,-124.87C438.88,-108.87 421.6,-85.3 404,-67 400.84,-63.72 397.13,-60.44 393.63,-57.56"/>
<polygon fill="midnightblue" stroke="midnightblue" points="447.16,-127.02 455.68,-133.32 452.95,-123.09 447.16,-127.02"/>
</g>
<!-- Node2&#45;&gt;Node6 -->
<g id="edge5" class="edge">
<title>Node2&#45;&gt;Node6</title>
<path fill="none" stroke="midnightblue" d="M449.93,-161.13C438.88,-177.13 421.6,-200.7 404,-219 400.84,-222.28 397.13,-225.56 393.63,-228.44"/>
<polygon fill="midnightblue" stroke="midnightblue" points="452.95,-162.91 455.68,-152.68 447.16,-158.98 452.95,-162.91"/>
</g>
<!-- Node2&#45;&gt;Node9 -->
<g id="edge9" class="edge">
<title>Node2&#45;&gt;Node9</title>
<path fill="none" stroke="midnightblue" d="M439.84,-127.41C425.35,-117.21 406.88,-104.21 394.54,-95.53"/>
<polygon fill="midnightblue" stroke="midnightblue" points="438.07,-130.44 448.26,-133.33 442.1,-124.71 438.07,-130.44"/>
</g>
<!-- Node10 -->
<g id="node10" class="node">
<title>Node10</title>
<g id="a_node10"><a xlink:href="group__grp__metrics.html#ga254ce8e645c4110d77e3b3dbc3a89885" target="_top" xlink:title="Calculates the metric quantities, , which are required for the energy and helicity integrals.">
<polygon fill="white" stroke="black" points="358.5,-114.5 358.5,-133.5 401.5,-133.5 401.5,-114.5 358.5,-114.5"/>
<text text-anchor="middle" x="380" y="-121.5" font-family="Helvetica,sans-Serif" font-size="10.00">metrix</text>
</a>
</g>
</g>
<!-- Node2&#45;&gt;Node10 -->
<g id="edge10" class="edge">
<title>Node2&#45;&gt;Node10</title>
<path fill="none" stroke="midnightblue" d="M429.92,-135.48C420.43,-133.25 410.29,-130.87 401.71,-128.86"/>
<polygon fill="midnightblue" stroke="midnightblue" points="429.33,-138.93 439.87,-137.81 430.93,-132.12 429.33,-138.93"/>
</g>
<!-- Node2&#45;&gt;Node12 -->
<g id="edge12" class="edge">
<title>Node2&#45;&gt;Node12</title>
<path fill="none" stroke="midnightblue" d="M439.84,-158.59C425.35,-168.79 406.88,-181.79 394.54,-190.47"/>
<polygon fill="midnightblue" stroke="midnightblue" points="442.1,-161.29 448.26,-152.67 438.07,-155.56 442.1,-161.29"/>
</g>
<!-- Node14 -->
<g id="node14" class="node">
<title>Node14</title>
<g id="a_node14"><a xlink:href="group__grp__volume.html#gae4c62d20b8fef07f4471b5b0889ab005" target="_top" xlink:title="Computes volume of each region; and, if required, the derivatives of the volume with respect to the i...">
<polygon fill="white" stroke="black" points="356,-152.5 356,-171.5 404,-171.5 404,-152.5 356,-152.5"/>
<text text-anchor="middle" x="380" y="-159.5" font-family="Helvetica,sans-Serif" font-size="10.00">volume</text>
</a>
</g>
</g>
<!-- Node2&#45;&gt;Node14 -->
<g id="edge16" class="edge">
<title>Node2&#45;&gt;Node14</title>
<path fill="none" stroke="midnightblue" d="M429.72,-143.95C418.76,-146.18 406.95,-149.3 397.71,-152.5"/>
<polygon fill="midnightblue" stroke="midnightblue" points="430.65,-147.33 439.87,-142.1 429.4,-140.45 430.65,-147.33"/>
</g>
<!-- Node4 -->
<g id="node4" class="node">
<title>Node4</title>
<g id="a_node4"><a xlink:href="group__grp__solver.html#ga6626839aff500f060beb5bce2b90c447" target="_top" xlink:title="Solves Beltrami/vacuum (linear) system, given matrices.unpacking fluxes, helicity multiplier">
<polygon fill="white" stroke="black" points="269,-19.5 269,-38.5 320,-38.5 320,-19.5 269,-19.5"/>
<text text-anchor="middle" x="294.5" y="-26.5" font-family="Helvetica,sans-Serif" font-size="10.00">mp00ac</text>
</a>
</g>
</g>
<!-- Node3&#45;&gt;Node4 -->
<g id="edge3" class="edge">
<title>Node3&#45;&gt;Node4</title>
<path fill="none" stroke="midnightblue" d="M347.97,-40.94C338.78,-38.85 328.85,-36.59 320.12,-34.6"/>
<polygon fill="midnightblue" stroke="midnightblue" points="347.4,-44.4 357.93,-43.21 348.96,-37.57 347.4,-44.4"/>
</g>
<!-- Node5 -->
<g id="node5" class="node">
<title>Node5</title>
<g id="a_node5"><a xlink:href="group__grp__solver__driver.html#gacad623d4c5c006e9ad10116372f92ad3" target="_top" xlink:title="Constructs Beltrami field in given volume consistent with flux, helicity, rotational&#45;transform and/or...">
<polygon fill="white" stroke="black" points="182,-19.5 182,-38.5 233,-38.5 233,-19.5 182,-19.5"/>
<text text-anchor="middle" x="207.5" y="-26.5" font-family="Helvetica,sans-Serif" font-size="10.00">ma02aa</text>
</a>
</g>
</g>
<!-- Node4&#45;&gt;Node5 -->
<g id="edge4" class="edge">
<title>Node4&#45;&gt;Node5</title>
<path fill="none" stroke="midnightblue" d="M258.72,-29C250.1,-29 241.04,-29 233.03,-29"/>
<polygon fill="midnightblue" stroke="midnightblue" points="258.91,-32.5 268.91,-29 258.91,-25.5 258.91,-32.5"/>
</g>
<!-- Node7 -->
<g id="node7" class="node">
<title>Node7</title>
<g id="a_node7"><a xlink:href="xspech_8f90.html#aea782eae089760a491c2c54f9903abcc" target="_top" xlink:title="Main program of SPEC.">
<polygon fill="white" stroke="black" points="90,-190.5 90,-209.5 137,-209.5 137,-190.5 90,-190.5"/>
<text text-anchor="middle" x="113.5" y="-197.5" font-family="Helvetica,sans-Serif" font-size="10.00">xspech</text>
</a>
</g>
</g>
<!-- Node6&#45;&gt;Node7 -->
<g id="edge6" class="edge">
<title>Node6&#45;&gt;Node7</title>
<path fill="none" stroke="midnightblue" d="M353.38,-252.33C314.68,-271.94 239.7,-301.93 182,-276 151.25,-262.19 128.81,-226.68 119.4,-209.54"/>
<polygon fill="midnightblue" stroke="midnightblue" points="355.17,-255.34 362.41,-247.61 351.92,-249.14 355.17,-255.34"/>
</g>
<!-- Node8 -->
<g id="node8" class="node">
<title>Node8</title>
<g id="a_node8"><a xlink:href="xspech_8f90.html#a537af4990058c0b0f2cd8b3669af204f" target="_top" xlink:title="todo remark">
<polygon fill="white" stroke="black" points="0,-190.5 0,-209.5 45,-209.5 45,-190.5 0,-190.5"/>
<text text-anchor="middle" x="22.5" y="-197.5" font-family="Helvetica,sans-Serif" font-size="10.00">ending</text>
</a>
</g>
</g>
<!-- Node7&#45;&gt;Node8 -->
<g id="edge7" class="edge">
<title>Node7&#45;&gt;Node8</title>
<path fill="none" stroke="midnightblue" d="M79.45,-193.45C67.98,-193.04 55.42,-193.26 45.12,-194.12"/>
<polygon fill="midnightblue" stroke="midnightblue" points="79.4,-196.96 89.58,-194.01 79.79,-189.97 79.4,-196.96"/>
</g>
<!-- Node8&#45;&gt;Node7 -->
<g id="edge8" class="edge">
<title>Node8&#45;&gt;Node7</title>
<path fill="none" stroke="midnightblue" d="M55.12,-206.49C66.49,-206.96 79.09,-206.79 89.58,-205.99"/>
<polygon fill="midnightblue" stroke="midnightblue" points="55.31,-203 45.12,-205.88 54.89,-209.98 55.31,-203"/>
</g>
<!-- Node11 -->
<g id="node11" class="node">
<title>Node11</title>
<g id="a_node11"><a xlink:href="group__grp__integrals.html#ga400af9e33dd5465ff9a4bba9fbf91108" target="_top" xlink:title="Calculates volume integrals of Chebyshev polynomials and metric element products.">
<polygon fill="white" stroke="black" points="269,-57.5 269,-76.5 320,-76.5 320,-57.5 269,-57.5"/>
<text text-anchor="middle" x="294.5" y="-64.5" font-family="Helvetica,sans-Serif" font-size="10.00">ma00aa</text>
</a>
</g>
</g>
<!-- Node10&#45;&gt;Node11 -->
<g id="edge11" class="edge">
<title>Node10&#45;&gt;Node11</title>
<path fill="none" stroke="midnightblue" d="M356.15,-108.41C341.21,-98.21 322.18,-85.21 309.46,-76.53"/>
<polygon fill="midnightblue" stroke="midnightblue" points="354.6,-111.58 364.84,-114.33 358.55,-105.8 354.6,-111.58"/>
</g>
<!-- Node12&#45;&gt;Node7 -->
<g id="edge15" class="edge">
<title>Node12&#45;&gt;Node7</title>
<path fill="none" stroke="midnightblue" d="M347.8,-200C293.93,-200 184.69,-200 137.29,-200"/>
<polygon fill="midnightblue" stroke="midnightblue" points="347.8,-203.5 357.8,-200 347.8,-196.5 347.8,-203.5"/>
</g>
<!-- Node13 -->
<g id="node13" class="node">
<title>Node13</title>
<g id="a_node13"><a xlink:href="group__grp__diagnostics.html#ga7401b50ec10c6598ee4a8112717a63ec" target="_top" xlink:title="Computes eigenvalues and eigenvectors of derivative matrix, .">
<polygon fill="white" stroke="black" points="185,-247.5 185,-266.5 230,-266.5 230,-247.5 185,-247.5"/>
<text text-anchor="middle" x="207.5" y="-254.5" font-family="Helvetica,sans-Serif" font-size="10.00">hesian</text>
</a>
</g>
</g>
<!-- Node12&#45;&gt;Node13 -->
<g id="edge13" class="edge">
<title>Node12&#45;&gt;Node13</title>
<path fill="none" stroke="midnightblue" d="M355.93,-215.02C345.34,-221.35 332.4,-228.32 320,-233 289.99,-244.33 253.31,-250.93 230.42,-254.25"/>
<polygon fill="midnightblue" stroke="midnightblue" points="357.89,-217.92 364.56,-209.69 354.21,-211.96 357.89,-217.92"/>
</g>
<!-- Node13&#45;&gt;Node7 -->
<g id="edge14" class="edge">
<title>Node13&#45;&gt;Node7</title>
<path fill="none" stroke="midnightblue" d="M182.26,-241.98C165.66,-231.7 144.16,-218.38 129.88,-209.53"/>
<polygon fill="midnightblue" stroke="midnightblue" points="180.55,-245.04 190.89,-247.33 184.24,-239.09 180.55,-245.04"/>
</g>
<!-- Node14&#45;&gt;Node2 -->
<g id="edge17" class="edge">
<title>Node14&#45;&gt;Node2</title>
<path fill="none" stroke="midnightblue" d="M414.14,-160.88C424.83,-158.66 436.23,-155.64 445.22,-152.53"/>
<polygon fill="midnightblue" stroke="midnightblue" points="413.4,-157.45 404.21,-162.73 414.68,-164.34 413.4,-157.45"/>
</g>
<!-- Node14&#45;&gt;Node7 -->
<g id="edge31" class="edge">
<title>Node14&#45;&gt;Node7</title>
<path fill="none" stroke="midnightblue" d="M345.82,-166.77C291.28,-174.6 184.08,-190 137.27,-196.73"/>
<polygon fill="midnightblue" stroke="midnightblue" points="346.59,-170.19 355.99,-165.31 345.59,-163.26 346.59,-170.19"/>
</g>
<!-- Node14&#45;&gt;Node11 -->
<g id="edge27" class="edge">
<title>Node14&#45;&gt;Node11</title>
<path fill="none" stroke="midnightblue" d="M358.26,-145.43C357.47,-144.63 356.72,-143.82 356,-143 336.2,-120.51 340.14,-108.18 320,-86 316.96,-82.65 313.28,-79.46 309.7,-76.67"/>
<polygon fill="midnightblue" stroke="midnightblue" points="355.95,-148.06 365.7,-152.22 360.67,-142.89 355.95,-148.06"/>
</g>
<!-- Node15 -->
<g id="node15" class="node">
<title>Node15</title>
<g id="a_node15"><a xlink:href="group__grp__force__driver.html#ga8ccd6c7d901872702521d0a0edf95412" target="_top" xlink:title="fcn2">
<polygon fill="white" stroke="black" points="277,-95.5 277,-114.5 312,-114.5 312,-95.5 277,-95.5"/>
<text text-anchor="middle" x="294.5" y="-102.5" font-family="Helvetica,sans-Serif" font-size="10.00">fcn2</text>
</a>
</g>
</g>
<!-- Node14&#45;&gt;Node15 -->
<g id="edge18" class="edge">
<title>Node14&#45;&gt;Node15</title>
<path fill="none" stroke="midnightblue" d="M356.15,-146.41C341.21,-136.21 322.18,-123.21 309.46,-114.53"/>
<polygon fill="midnightblue" stroke="midnightblue" points="354.6,-149.58 364.84,-152.33 358.55,-143.8 354.6,-149.58"/>
</g>
<!-- Node19 -->
<g id="node19" class="node">
<title>Node19</title>
<g id="a_node19"><a xlink:href="group__grp__diagnostics.html#ga831aed2458140e266ee4d37461dd5350" target="_top" xlink:title="Constructs Poincaré plot and &quot;approximate&quot; rotational&#45;transform (for single field line).">
<polygon fill="white" stroke="black" points="270.5,-133.5 270.5,-152.5 318.5,-152.5 318.5,-133.5 270.5,-133.5"/>
<text text-anchor="middle" x="294.5" y="-140.5" font-family="Helvetica,sans-Serif" font-size="10.00">pp00ab</text>
</a>
</g>
</g>
<!-- Node14&#45;&gt;Node19 -->
<g id="edge28" class="edge">
<title>Node14&#45;&gt;Node19</title>
<path fill="none" stroke="midnightblue" d="M345.8,-154.45C336.7,-152.38 327.04,-150.18 318.63,-148.26"/>
<polygon fill="midnightblue" stroke="midnightblue" points="345.21,-157.9 355.74,-156.71 346.77,-151.08 345.21,-157.9"/>
</g>
<!-- Node16 -->
<g id="node16" class="node">
<title>Node16</title>
<g id="a_node16"><a xlink:href="group__grp__force__driver.html#gaec14f81fbdbedafbc4189489ec8ae178" target="_top" xlink:title="Employs Newton method to find , where &#160;and &#160;is defined in dforce() .">
<polygon fill="white" stroke="black" points="183.5,-95.5 183.5,-114.5 231.5,-114.5 231.5,-95.5 183.5,-95.5"/>
<text text-anchor="middle" x="207.5" y="-102.5" font-family="Helvetica,sans-Serif" font-size="10.00">newton</text>
</a>
</g>
</g>
<!-- Node15&#45;&gt;Node16 -->
<g id="edge19" class="edge">
<title>Node15&#45;&gt;Node16</title>
<path fill="none" stroke="midnightblue" d="M266.59,-98.67C255.38,-98.04 242.48,-98.12 231.69,-98.91"/>
<polygon fill="midnightblue" stroke="midnightblue" points="266.46,-102.17 276.71,-99.5 267.02,-95.19 266.46,-102.17"/>
</g>
<!-- Node16&#45;&gt;Node7 -->
<g id="edge26" class="edge">
<title>Node16&#45;&gt;Node7</title>
<path fill="none" stroke="midnightblue" d="M185.37,-120.97C184.21,-121.98 183.08,-122.99 182,-124 158.42,-146.06 134.06,-175.42 122.08,-190.37"/>
<polygon fill="midnightblue" stroke="midnightblue" points="187.62,-123.66 193.16,-114.63 183.2,-118.23 187.62,-123.66"/>
</g>
<!-- Node16&#45;&gt;Node15 -->
<g id="edge22" class="edge">
<title>Node16&#45;&gt;Node15</title>
<path fill="none" stroke="midnightblue" d="M241.83,-111.61C253.79,-111.98 266.75,-111.61 276.71,-110.5"/>
<polygon fill="midnightblue" stroke="midnightblue" points="241.86,-108.11 231.69,-111.09 241.5,-115.1 241.86,-108.11"/>
</g>
<!-- Node17 -->
<g id="node17" class="node">
<title>Node17</title>
<g id="a_node17"><a xlink:href="group__grp__force__driver.html#gabbc245b3884ee8d8d3e2a52f25149f78" target="_top" xlink:title="fcn1">
<polygon fill="white" stroke="black" points="96,-95.5 96,-114.5 131,-114.5 131,-95.5 96,-95.5"/>
<text text-anchor="middle" x="113.5" y="-102.5" font-family="Helvetica,sans-Serif" font-size="10.00">fcn1</text>
</a>
</g>
</g>
<!-- Node16&#45;&gt;Node17 -->
<g id="edge20" class="edge">
<title>Node16&#45;&gt;Node17</title>
<path fill="none" stroke="midnightblue" d="M173.25,-98.49C158.9,-97.94 142.76,-98.34 131.03,-99.67"/>
<polygon fill="midnightblue" stroke="midnightblue" points="173.1,-101.98 183.28,-99.05 173.5,-94.99 173.1,-101.98"/>
</g>
<!-- Node18 -->
<g id="node18" class="node">
<title>Node18</title>
<g id="a_node18"><a xlink:href="group__grp__force__driver.html#ga382822b303cbf8c56d6f54dcb379caf2" target="_top" xlink:title="read or write force&#45;derivative matrix">
<polygon fill="white" stroke="black" points="81,-57.5 81,-76.5 146,-76.5 146,-57.5 81,-57.5"/>
<text text-anchor="middle" x="113.5" y="-64.5" font-family="Helvetica,sans-Serif" font-size="10.00">writereadgf</text>
</a>
</g>
</g>
<!-- Node16&#45;&gt;Node18 -->
<g id="edge23" class="edge">
<title>Node16&#45;&gt;Node18</title>
<path fill="none" stroke="midnightblue" d="M185.56,-90.58C173.96,-84.78 159.31,-78.5 146.33,-73.69"/>
<polygon fill="midnightblue" stroke="midnightblue" points="184,-93.72 194.47,-95.3 187.27,-87.53 184,-93.72"/>
</g>
<!-- Node17&#45;&gt;Node16 -->
<g id="edge21" class="edge">
<title>Node17&#45;&gt;Node16</title>
<path fill="none" stroke="midnightblue" d="M141.05,-111.18C154.4,-112.01 170.43,-111.93 183.28,-110.95"/>
<polygon fill="midnightblue" stroke="midnightblue" points="141.3,-107.69 131.03,-110.33 140.7,-114.67 141.3,-107.69"/>
</g>
<!-- Node18&#45;&gt;Node15 -->
<g id="edge24" class="edge">
<title>Node18&#45;&gt;Node15</title>
<path fill="none" stroke="midnightblue" d="M156.23,-72.18C179.06,-75.39 207.76,-80.05 233,-86 248.11,-89.56 264.93,-94.97 276.99,-99.1"/>
<polygon fill="midnightblue" stroke="midnightblue" points="156.56,-68.69 146.18,-70.81 155.61,-75.63 156.56,-68.69"/>
</g>
<!-- Node18&#45;&gt;Node16 -->
<g id="edge25" class="edge">
<title>Node18&#45;&gt;Node16</title>
<path fill="none" stroke="midnightblue" d="M135.22,-81.3C149.5,-88.47 168.49,-96.38 183.28,-101.36"/>
<polygon fill="midnightblue" stroke="midnightblue" points="136.67,-78.11 126.19,-76.51 133.38,-84.29 136.67,-78.11"/>
</g>
<!-- Node20 -->
<g id="node20" class="node">
<title>Node20</title>
<g id="a_node20"><a xlink:href="group__grp__diagnostics.html#gad67931244268a09bd077dae8910c7096" target="_top" xlink:title="Constructs Poincaré plot and &quot;approximate&quot; rotational&#45;transform (driver).">
<polygon fill="white" stroke="black" points="183.5,-133.5 183.5,-152.5 231.5,-152.5 231.5,-133.5 183.5,-133.5"/>
<text text-anchor="middle" x="207.5" y="-140.5" font-family="Helvetica,sans-Serif" font-size="10.00">pp00aa</text>
</a>
</g>
</g>
<!-- Node19&#45;&gt;Node20 -->
<g id="edge29" class="edge">
<title>Node19&#45;&gt;Node20</title>
<path fill="none" stroke="midnightblue" d="M260.26,-143C250.71,-143 240.5,-143 231.7,-143"/>
<polygon fill="midnightblue" stroke="midnightblue" points="260.27,-146.5 270.27,-143 260.27,-139.5 260.27,-146.5"/>
</g>
<!-- Node20&#45;&gt;Node7 -->
<g id="edge30" class="edge">
<title>Node20&#45;&gt;Node7</title>
<path fill="none" stroke="midnightblue" d="M182.26,-158.02C165.66,-168.3 144.16,-181.62 129.88,-190.47"/>
<polygon fill="midnightblue" stroke="midnightblue" points="184.24,-160.91 190.89,-152.67 180.55,-154.96 184.24,-160.91"/>
</g>
<!-- Node21&#45;&gt;Node4 -->
<g id="edge37" class="edge">
<title>Node21&#45;&gt;Node4</title>
<path fill="none" stroke="midnightblue" d="M430.76,-13.56C398.75,-17.22 349.61,-22.83 320.2,-26.18"/>
<polygon fill="midnightblue" stroke="midnightblue" points="431.37,-17.02 440.91,-12.41 430.58,-10.06 431.37,-17.02"/>
</g>
</g>
</svg>
