<?xml version="1.0" encoding="UTF-8" standalone="no"?>
<!DOCTYPE svg PUBLIC "-//W3C//DTD SVG 1.1//EN"
 "http://www.w3.org/Graphics/SVG/1.1/DTD/svg11.dtd">
<!-- Generated by graphviz version 2.49.3 (20211027.1534)
 -->
<!-- Title: sphdf5::write_grid Pages: 1 -->
<svg width="284pt" height="122pt"
 viewBox="0.00 0.00 284.00 122.00" xmlns="http://www.w3.org/2000/svg" xmlns:xlink="http://www.w3.org/1999/xlink">
<g id="graph0" class="graph" transform="scale(1 1) rotate(0) translate(4 118)">
<title>sphdf5::write_grid</title>
<polygon fill="white" stroke="transparent" points="-4,4 -4,-118 280,-118 280,4 -4,4"/>
<!-- Node1 -->
<g id="node1" class="node">
<title>Node1</title>
<g id="a_node1"><a xlink:title="Write the magnetic field on a grid.">
<polygon fill="#bfbfbf" stroke="black" points="0,-28.5 0,-47.5 92,-47.5 92,-28.5 0,-28.5"/>
<text text-anchor="middle" x="46" y="-35.5" font-family="Helvetica,sans-Serif" font-size="10.00">sphdf5::write_grid</text>
</a>
</g>
</g>
<!-- Node2 -->
<g id="node2" class="node">
<title>Node2</title>
<g id="a_node2"><a xlink:href="group__grp__diagnostics.html#ga20985df1b0df0503ca03ca13f1daf642" target="_top" xlink:title="Compute the magnetic field.">
<polygon fill="white" stroke="black" points="131.5,-56.5 131.5,-75.5 170.5,-75.5 170.5,-56.5 131.5,-56.5"/>
<text text-anchor="middle" x="151" y="-63.5" font-family="Helvetica,sans-Serif" font-size="10.00">bfield</text>
</a>
</g>
</g>
<!-- Node1&#45;&gt;Node2 -->
<g id="edge1" class="edge">
<title>Node1&#45;&gt;Node2</title>
<path fill="none" stroke="midnightblue" d="M82.16,-47.56C95.09,-51.07 109.55,-55 121.79,-58.33"/>
<polygon fill="midnightblue" stroke="midnightblue" points="120.9,-61.72 131.47,-60.96 122.74,-54.96 120.9,-61.72"/>
</g>
<!-- Node5 -->
<g id="node5" class="node">
<title>Node5</title>
<g id="a_node5"><a xlink:href="group__grp__geometry.html#gaaca20aa60eaf39055f3c9d5c02a24ac2" target="_top" xlink:title="Calculates coordinates, , and metrics, using FFTs.">
<polygon fill="white" stroke="black" points="128,-0.5 128,-19.5 174,-19.5 174,-0.5 128,-0.5"/>
<text text-anchor="middle" x="151" y="-7.5" font-family="Helvetica,sans-Serif" font-size="10.00">coords</text>
</a>
</g>
</g>
<!-- Node1&#45;&gt;Node5 -->
<g id="edge5" class="edge">
<title>Node1&#45;&gt;Node5</title>
<path fill="none" stroke="midnightblue" d="M82.16,-28.44C93.76,-25.29 106.59,-21.8 117.95,-18.71"/>
<polygon fill="midnightblue" stroke="midnightblue" points="119.15,-22.01 127.89,-16.01 117.32,-15.26 119.15,-22.01"/>
</g>
<!-- Node2&#45;&gt;Node2 -->
<g id="edge2" class="edge">
<title>Node2&#45;&gt;Node2</title>
<path fill="none" stroke="midnightblue" d="M136.82,-75.76C129.92,-84.57 134.65,-94 151,-94 161.22,-94 166.9,-90.31 168.04,-85.4"/>
<polygon fill="midnightblue" stroke="midnightblue" points="171.38,-84.35 165.18,-75.76 164.66,-86.34 171.38,-84.35"/>
</g>
<!-- Node3 -->
<g id="node3" class="node">
<title>Node3</title>
<g id="a_node3"><a xlink:href="basefn_8f90.html#af6a4cad04c70bfb14fd18a3bfbc843a3" target="_top" xlink:title="Get the Chebyshev polynomials with zeroth, first derivatives.">
<polygon fill="white" stroke="black" points="212.5,-94.5 212.5,-113.5 273.5,-113.5 273.5,-94.5 212.5,-94.5"/>
<text text-anchor="middle" x="243" y="-101.5" font-family="Helvetica,sans-Serif" font-size="10.00">get_cheby</text>
</a>
</g>
</g>
<!-- Node2&#45;&gt;Node3 -->
<g id="edge3" class="edge">
<title>Node2&#45;&gt;Node3</title>
<path fill="none" stroke="midnightblue" d="M170.65,-73.87C182,-78.67 196.81,-84.92 209.99,-90.48"/>
<polygon fill="midnightblue" stroke="midnightblue" points="208.65,-93.72 219.23,-94.38 211.37,-87.27 208.65,-93.72"/>
</g>
<!-- Node4 -->
<g id="node4" class="node">
<title>Node4</title>
<g id="a_node4"><a xlink:href="basefn_8f90.html#a38dc596fb909186b01dacc1feac03164" target="_top" xlink:title="Get the Zernike polynomials &#160;with zeroth, first derivatives.">
<polygon fill="white" stroke="black" points="210,-56.5 210,-75.5 276,-75.5 276,-56.5 210,-56.5"/>
<text text-anchor="middle" x="243" y="-63.5" font-family="Helvetica,sans-Serif" font-size="10.00">get_zernike</text>
</a>
</g>
</g>
<!-- Node2&#45;&gt;Node4 -->
<g id="edge4" class="edge">
<title>Node2&#45;&gt;Node4</title>
<path fill="none" stroke="midnightblue" d="M170.65,-66C179.14,-66 189.57,-66 199.81,-66"/>
<polygon fill="midnightblue" stroke="midnightblue" points="199.9,-69.5 209.9,-66 199.9,-62.5 199.9,-69.5"/>
</g>
<!-- Node5&#45;&gt;Node5 -->
<g id="edge6" class="edge">
<title>Node5&#45;&gt;Node5</title>
<path fill="none" stroke="midnightblue" d="M136.82,-19.76C129.92,-28.57 134.65,-38 151,-38 161.22,-38 166.9,-34.31 168.04,-29.4"/>
<polygon fill="midnightblue" stroke="midnightblue" points="171.38,-28.35 165.18,-19.76 164.66,-30.34 171.38,-28.35"/>
</g>
<!-- Node6 -->
<g id="node6" class="node">
<title>Node6</title>
<g id="a_node6"><a xlink:href="group__grp__volume.html#gae4c62d20b8fef07f4471b5b0889ab005" target="_top" xlink:title="Computes volume of each region; and, if required, the derivatives of the volume with respect to the i...">
<polygon fill="white" stroke="black" points="219,-0.5 219,-19.5 267,-19.5 267,-0.5 219,-0.5"/>
<text text-anchor="middle" x="243" y="-7.5" font-family="Helvetica,sans-Serif" font-size="10.00">volume</text>
</a>
</g>
</g>
<!-- Node5&#45;&gt;Node6 -->
<g id="edge7" class="edge">
<title>Node5&#45;&gt;Node6</title>
<path fill="none" stroke="midnightblue" d="M174.25,-4.08C184.61,-3.25 197.16,-3.04 208.62,-3.45"/>
<polygon fill="midnightblue" stroke="midnightblue" points="208.58,-6.96 218.75,-4.01 208.96,0.03 208.58,-6.96"/>
</g>
<!-- Node6&#45;&gt;Node5 -->
<g id="edge8" class="edge">
<title>Node6&#45;&gt;Node5</title>
<path fill="none" stroke="midnightblue" d="M218.75,-15.99C208.26,-16.79 195.68,-16.96 184.28,-16.5"/>
<polygon fill="midnightblue" stroke="midnightblue" points="184.44,-13.01 174.25,-15.92 184.03,-20 184.44,-13.01"/>
</g>
<!-- Node6&#45;&gt;Node6 -->
<g id="edge9" class="edge">
<title>Node6&#45;&gt;Node6</title>
<path fill="none" stroke="midnightblue" d="M228.82,-19.76C221.92,-28.57 226.65,-38 243,-38 253.22,-38 258.9,-34.31 260.04,-29.4"/>
<polygon fill="midnightblue" stroke="midnightblue" points="263.38,-28.35 257.18,-19.76 256.66,-30.34 263.38,-28.35"/>
</g>
</g>
</svg>
