<?xml version="1.0" encoding="UTF-8" standalone="no"?>
<!DOCTYPE svg PUBLIC "-//W3C//DTD SVG 1.1//EN"
 "http://www.w3.org/Graphics/SVG/1.1/DTD/svg11.dtd">
<!-- Generated by graphviz version 2.44.1 (0)
 -->
<!-- Title: mp00ac Pages: 1 -->
<svg width="325pt" height="170pt"
 viewBox="0.00 0.00 325.00 170.00" xmlns="http://www.w3.org/2000/svg" xmlns:xlink="http://www.w3.org/1999/xlink">
<g id="graph0" class="graph" transform="scale(1 1) rotate(0) translate(4 166)">
<title>mp00ac</title>
<polygon fill="white" stroke="transparent" points="-4,4 -4,-166 321,-166 321,4 -4,4"/>
<!-- Node1 -->
<g id="node1" class="node">
<title>Node1</title>
<g id="a_node1"><a xlink:title="Solves Beltrami/vacuum (linear) system, given matrices.unpacking fluxes, helicity multiplier">
<polygon fill="#bfbfbf" stroke="black" points="0,-38.5 0,-57.5 56,-57.5 56,-38.5 0,-38.5"/>
<text text-anchor="middle" x="28" y="-45.5" font-family="Helvetica,sans-Serif" font-size="10.00">mp00ac</text>
</a>
</g>
</g>
<!-- Node2 -->
<g id="node2" class="node">
<title>Node2</title>
<g id="a_node2"><a xlink:href="group__grp__currents.html#gacaf4411e0ba378631dcd2ccb3752e452" target="_top" xlink:title="Computes the plasma current, , and the &quot;linking&quot; current, .">
<polygon fill="white" stroke="black" points="94,-85.5 94,-104.5 141,-104.5 141,-85.5 94,-85.5"/>
<text text-anchor="middle" x="117.5" y="-92.5" font-family="Helvetica,sans-Serif" font-size="10.00">curent</text>
</a>
</g>
</g>
<!-- Node1&#45;&gt;Node2 -->
<g id="edge1" class="edge">
<title>Node1&#45;&gt;Node2</title>
<path fill="none" stroke="midnightblue" d="M46.71,-57.51C58.96,-64.09 75.5,-72.98 89.4,-80.44"/>
<polygon fill="midnightblue" stroke="midnightblue" points="88.05,-83.69 98.52,-85.34 91.37,-77.53 88.05,-83.69"/>
</g>
<!-- Node7 -->
<g id="node7" class="node">
<title>Node7</title>
<g id="a_node7"><a xlink:href="group__grp__packing.html#gaee2357e570aebf8559e169def6b619dd" target="_top" xlink:title="Packs and unpacks Beltrami field solution vector.">
<polygon fill="white" stroke="black" points="92,-0.5 92,-19.5 143,-19.5 143,-0.5 92,-0.5"/>
<text text-anchor="middle" x="117.5" y="-7.5" font-family="Helvetica,sans-Serif" font-size="10.00">packab</text>
</a>
</g>
</g>
<!-- Node1&#45;&gt;Node7 -->
<g id="edge8" class="edge">
<title>Node1&#45;&gt;Node7</title>
<path fill="none" stroke="midnightblue" d="M51.08,-38.41C61.34,-33.96 73.73,-28.58 84.95,-23.7"/>
<polygon fill="midnightblue" stroke="midnightblue" points="86.65,-26.78 94.43,-19.59 83.86,-20.36 86.65,-26.78"/>
</g>
<!-- Node8 -->
<g id="node8" class="node">
<title>Node8</title>
<g id="a_node8"><a xlink:href="group__grp__transform.html#ga0e0447653b8da82f06748dd8831bc337" target="_top" xlink:title="Calculates rotational transform given an arbitrary tangential field.">
<polygon fill="white" stroke="black" points="179.5,-28.5 179.5,-47.5 227.5,-47.5 227.5,-28.5 179.5,-28.5"/>
<text text-anchor="middle" x="203.5" y="-35.5" font-family="Helvetica,sans-Serif" font-size="10.00">tr00ab</text>
</a>
</g>
</g>
<!-- Node1&#45;&gt;Node8 -->
<g id="edge9" class="edge">
<title>Node1&#45;&gt;Node8</title>
<path fill="none" stroke="midnightblue" d="M56.11,-46.44C86.73,-44.67 136.55,-41.8 169.43,-39.91"/>
<polygon fill="midnightblue" stroke="midnightblue" points="169.68,-43.4 179.46,-39.33 169.28,-36.41 169.68,-43.4"/>
</g>
<!-- Node3 -->
<g id="node3" class="node">
<title>Node3</title>
<g id="a_node3"><a xlink:href="group__grp__geometry.html#gaaca20aa60eaf39055f3c9d5c02a24ac2" target="_top" xlink:title="Calculates coordinates, , and metrics, using FFTs.">
<polygon fill="white" stroke="black" points="179,-142.5 179,-161.5 228,-161.5 228,-142.5 179,-142.5"/>
<text text-anchor="middle" x="203.5" y="-149.5" font-family="Helvetica,sans-Serif" font-size="10.00">coords</text>
</a>
</g>
</g>
<!-- Node2&#45;&gt;Node3 -->
<g id="edge2" class="edge">
<title>Node2&#45;&gt;Node3</title>
<path fill="none" stroke="midnightblue" d="M132.75,-104.67C145.62,-113.4 164.78,-126.4 179.76,-136.57"/>
<polygon fill="midnightblue" stroke="midnightblue" points="178.22,-139.75 188.46,-142.47 182.15,-133.96 178.22,-139.75"/>
</g>
<!-- Node4 -->
<g id="node4" class="node">
<title>Node4</title>
<g id="a_node4"><a xlink:href="group__grp__numerics.html#ga1fd52accb0646f535f9bcc46cf5a68f3" target="_top" xlink:title="Inverse Fourier transform (fftw wrapper)">
<polygon fill="white" stroke="black" points="269.5,-66.5 269.5,-85.5 311.5,-85.5 311.5,-66.5 269.5,-66.5"/>
<text text-anchor="middle" x="290.5" y="-73.5" font-family="Helvetica,sans-Serif" font-size="10.00">invfft</text>
</a>
</g>
</g>
<!-- Node2&#45;&gt;Node4 -->
<g id="edge6" class="edge">
<title>Node2&#45;&gt;Node4</title>
<path fill="none" stroke="midnightblue" d="M141.21,-92.48C171.54,-89.11 225.37,-83.13 259.15,-79.37"/>
<polygon fill="midnightblue" stroke="midnightblue" points="259.81,-82.82 269.36,-78.24 259.04,-75.86 259.81,-82.82"/>
</g>
<!-- Node6 -->
<g id="node6" class="node">
<title>Node6</title>
<g id="a_node6"><a xlink:href="group__grp__numerics.html#ga041138109a57e651c57117bb4180409e" target="_top" xlink:title="Forward Fourier transform (fftw wrapper)">
<polygon fill="white" stroke="black" points="188,-104.5 188,-123.5 219,-123.5 219,-104.5 188,-104.5"/>
<text text-anchor="middle" x="203.5" y="-111.5" font-family="Helvetica,sans-Serif" font-size="10.00">tfft</text>
</a>
</g>
</g>
<!-- Node2&#45;&gt;Node6 -->
<g id="edge7" class="edge">
<title>Node2&#45;&gt;Node6</title>
<path fill="none" stroke="midnightblue" d="M141.01,-100.09C152.4,-102.67 166.24,-105.8 177.9,-108.44"/>
<polygon fill="midnightblue" stroke="midnightblue" points="177.34,-111.9 187.87,-110.69 178.89,-105.07 177.34,-111.9"/>
</g>
<!-- Node3&#45;&gt;Node4 -->
<g id="edge3" class="edge">
<title>Node3&#45;&gt;Node4</title>
<path fill="none" stroke="midnightblue" d="M216.58,-142.49C220.29,-139.5 224.35,-136.16 228,-133 243.17,-119.87 259.83,-104.36 271.98,-92.83"/>
<polygon fill="midnightblue" stroke="midnightblue" points="274.43,-95.33 279.25,-85.9 269.6,-90.27 274.43,-95.33"/>
</g>
<!-- Node5 -->
<g id="node5" class="node">
<title>Node5</title>
<g id="a_node5"><a xlink:href="group__grp__volume.html#gae4c62d20b8fef07f4471b5b0889ab005" target="_top" xlink:title="Computes volume of each region; and, if required, the derivatives of the volume with respect to the i...">
<polygon fill="white" stroke="black" points="264,-142.5 264,-161.5 317,-161.5 317,-142.5 264,-142.5"/>
<text text-anchor="middle" x="290.5" y="-149.5" font-family="Helvetica,sans-Serif" font-size="10.00">volume</text>
</a>
</g>
</g>
<!-- Node3&#45;&gt;Node5 -->
<g id="edge4" class="edge">
<title>Node3&#45;&gt;Node5</title>
<path fill="none" stroke="midnightblue" d="M228.18,-145.88C236.07,-145.32 245.05,-145.13 253.65,-145.32"/>
<polygon fill="midnightblue" stroke="midnightblue" points="253.73,-148.83 263.87,-145.75 254.02,-141.84 253.73,-148.83"/>
</g>
<!-- Node5&#45;&gt;Node3 -->
<g id="edge5" class="edge">
<title>Node5&#45;&gt;Node3</title>
<path fill="none" stroke="midnightblue" d="M263.87,-158.25C255.81,-158.75 246.78,-158.88 238.24,-158.62"/>
<polygon fill="midnightblue" stroke="midnightblue" points="238.34,-155.12 228.18,-158.12 237.99,-162.11 238.34,-155.12"/>
</g>
<!-- Node8&#45;&gt;Node4 -->
<g id="edge10" class="edge">
<title>Node8&#45;&gt;Node4</title>
<path fill="none" stroke="midnightblue" d="M225.95,-47.59C236.22,-52.18 248.68,-57.75 259.84,-62.74"/>
<polygon fill="midnightblue" stroke="midnightblue" points="258.67,-66.05 269.23,-66.94 261.53,-59.66 258.67,-66.05"/>
</g>
</g>
</svg>
