<?xml version="1.0" encoding="UTF-8" standalone="no"?>
<!DOCTYPE svg PUBLIC "-//W3C//DTD SVG 1.1//EN"
 "http://www.w3.org/Graphics/SVG/1.1/DTD/svg11.dtd">
<!-- Generated by graphviz version 2.49.3 (20211027.1534)
 -->
<!-- Title: mtrxhs Pages: 1 -->
<svg width="1183pt" height="363pt"
 viewBox="0.00 0.00 1183.00 363.01" xmlns="http://www.w3.org/2000/svg" xmlns:xlink="http://www.w3.org/1999/xlink">
<g id="graph0" class="graph" transform="scale(1 1) rotate(0) translate(4 359.01)">
<title>mtrxhs</title>
<polygon fill="white" stroke="transparent" points="-4,4 -4,-359.01 1179,-359.01 1179,4 -4,4"/>
<!-- Node1 -->
<g id="node1" class="node">
<title>Node1</title>
<g id="a_node1"><a xlink:title="Constructs matrices that represent the Beltrami linear system, matrix&#45;free.">
<polygon fill="#bfbfbf" stroke="black" points="1129,-250.51 1129,-269.51 1175,-269.51 1175,-250.51 1129,-250.51"/>
<text text-anchor="middle" x="1152" y="-257.51" font-family="Helvetica,sans-Serif" font-size="10.00">mtrxhs</text>
</a>
</g>
</g>
<!-- Node1&#45;&gt;Node1 -->
<g id="edge58" class="edge">
<title>Node1&#45;&gt;Node1</title>
<path fill="none" stroke="midnightblue" d="M1167.1,-279.78C1165.91,-284.51 1160.88,-288.01 1152,-288.01 1137.43,-288.01 1133.21,-278.58 1139.36,-269.77"/>
<polygon fill="midnightblue" stroke="midnightblue" points="1170.43,-278.64 1164.64,-269.77 1163.63,-280.32 1170.43,-278.64"/>
</g>
<!-- Node2 -->
<g id="node2" class="node">
<title>Node2</title>
<g id="a_node2"><a xlink:href="dfp200_8f90.html#a5e56f1f4b1e6df11a9cffa6237c37469" target="_top" xlink:title="This routine evaluates the value of the magnetic field once the interface is perturbed using matrix p...">
<polygon fill="white" stroke="black" points="713,-288.51 713,-307.51 828,-307.51 828,-288.51 713,-288.51"/>
<text text-anchor="middle" x="770.5" y="-295.51" font-family="Helvetica,sans-Serif" font-size="10.00">get_perturbed_solution</text>
</a>
</g>
</g>
<!-- Node1&#45;&gt;Node2 -->
<g id="edge1" class="edge">
<title>Node1&#45;&gt;Node2</title>
<path fill="none" stroke="midnightblue" d="M1118.79,-264.04C1110.4,-265.05 1101.37,-266.1 1093,-267.01 1000.32,-277.07 892.43,-287.14 828.17,-292.96"/>
<polygon fill="midnightblue" stroke="midnightblue" points="1119.48,-267.48 1128.98,-262.8 1118.63,-260.53 1119.48,-267.48"/>
</g>
<!-- Node21 -->
<g id="node21" class="node">
<title>Node21</title>
<g id="a_node21"><a xlink:href="mp00ac_8f90.html#ae9fe335bb4916face9f9d19ce8c0f5d7" target="_top" xlink:title="compute a.x by either by coumputing it directly, or using a matrix free method">
<polygon fill="white" stroke="black" points="1044,-212.51 1044,-231.51 1093,-231.51 1093,-212.51 1044,-212.51"/>
<text text-anchor="middle" x="1068.5" y="-219.51" font-family="Helvetica,sans-Serif" font-size="10.00">matvec</text>
</a>
</g>
</g>
<!-- Node1&#45;&gt;Node21 -->
<g id="edge47" class="edge">
<title>Node1&#45;&gt;Node21</title>
<path fill="none" stroke="midnightblue" d="M1121.29,-246.16C1110.92,-241.32 1099.52,-236.01 1090.06,-231.6"/>
<polygon fill="midnightblue" stroke="midnightblue" points="1119.89,-249.37 1130.43,-250.42 1122.85,-243.03 1119.89,-249.37"/>
</g>
<!-- Node23 -->
<g id="node23" class="node">
<title>Node23</title>
<g id="a_node23"><a xlink:href="group__grp__solver.html#ga6626839aff500f060beb5bce2b90c447" target="_top" xlink:title="Solves Beltrami/vacuum (linear) system, given matrices.unpacking fluxes, helicity multiplier">
<polygon fill="white" stroke="black" points="864,-222.51 864,-241.51 915,-241.51 915,-222.51 864,-222.51"/>
<text text-anchor="middle" x="889.5" y="-229.51" font-family="Helvetica,sans-Serif" font-size="10.00">mp00ac</text>
</a>
</g>
</g>
<!-- Node1&#45;&gt;Node23 -->
<g id="edge57" class="edge">
<title>Node1&#45;&gt;Node23</title>
<path fill="none" stroke="midnightblue" d="M1118.64,-257.47C1079.05,-254.23 1009.99,-248.2 951,-241.01 939.19,-239.57 926.14,-237.67 915.19,-235.99"/>
<polygon fill="midnightblue" stroke="midnightblue" points="1118.51,-260.97 1128.76,-258.29 1119.08,-253.99 1118.51,-260.97"/>
</g>
<!-- Node3 -->
<g id="node3" class="node">
<title>Node3</title>
<g id="a_node3"><a xlink:href="dfp200_8f90.html#a55ea75395f8c71731451e1add3720c7e" target="_top" xlink:title="Given the field consistent with the constraints and the geometry, computes local quantites related to...">
<polygon fill="white" stroke="black" points="631,-288.51 631,-307.51 677,-307.51 677,-288.51 631,-288.51"/>
<text text-anchor="middle" x="654" y="-295.51" font-family="Helvetica,sans-Serif" font-size="10.00">dfp200</text>
</a>
</g>
</g>
<!-- Node2&#45;&gt;Node3 -->
<g id="edge2" class="edge">
<title>Node2&#45;&gt;Node3</title>
<path fill="none" stroke="midnightblue" d="M702.81,-291.34C693.57,-291.51 684.67,-291.91 677.11,-292.55"/>
<polygon fill="midnightblue" stroke="midnightblue" points="702.95,-294.84 712.92,-291.26 702.89,-287.84 702.95,-294.84"/>
</g>
<!-- Node3&#45;&gt;Node2 -->
<g id="edge46" class="edge">
<title>Node3&#45;&gt;Node2</title>
<path fill="none" stroke="midnightblue" d="M687.14,-304.15C695.19,-304.57 704.07,-304.77 712.92,-304.76"/>
<polygon fill="midnightblue" stroke="midnightblue" points="687.32,-300.65 677.11,-303.47 686.85,-307.64 687.32,-300.65"/>
</g>
<!-- Node3&#45;&gt;Node3 -->
<g id="edge40" class="edge">
<title>Node3&#45;&gt;Node3</title>
<path fill="none" stroke="midnightblue" d="M673.63,-317.41C672.32,-322.33 665.77,-326.01 654,-326.01 635.16,-326.01 629.71,-316.58 637.66,-307.77"/>
<polygon fill="midnightblue" stroke="midnightblue" points="676.88,-316.1 670.34,-307.77 670.26,-318.36 676.88,-316.1"/>
</g>
<!-- Node4 -->
<g id="node4" class="node">
<title>Node4</title>
<g id="a_node4"><a xlink:href="group__grp__global__force.html#ga38c9d3c50bd043707fefa5137c9dbf44" target="_top" xlink:title="Calculates , where &#160;and , and .">
<polygon fill="white" stroke="black" points="525.5,-194.51 525.5,-213.51 569.5,-213.51 569.5,-194.51 525.5,-194.51"/>
<text text-anchor="middle" x="547.5" y="-201.51" font-family="Helvetica,sans-Serif" font-size="10.00">dforce</text>
</a>
</g>
</g>
<!-- Node3&#45;&gt;Node4 -->
<g id="edge3" class="edge">
<title>Node3&#45;&gt;Node4</title>
<path fill="none" stroke="midnightblue" d="M636.72,-281.11C625.33,-269.51 609.6,-253.94 595,-241.01 584.03,-231.3 570.92,-220.98 561.42,-213.71"/>
<polygon fill="midnightblue" stroke="midnightblue" points="634.36,-283.7 643.85,-288.42 639.38,-278.82 634.36,-283.7"/>
</g>
<!-- Node15 -->
<g id="node15" class="node">
<title>Node15</title>
<g id="a_node15"><a xlink:href="dfp200_8f90.html#a6aca59cf350d7b1941f8389d50945a43" target="_top" xlink:title="get LU Beltrami matrices">
<polygon fill="white" stroke="black" points="339,-335.51 339,-354.51 464,-354.51 464,-335.51 339,-335.51"/>
<text text-anchor="middle" x="401.5" y="-342.51" font-family="Helvetica,sans-Serif" font-size="10.00">get_lu_beltrami_matrices</text>
</a>
</g>
</g>
<!-- Node3&#45;&gt;Node15 -->
<g id="edge45" class="edge">
<title>Node3&#45;&gt;Node15</title>
<path fill="none" stroke="midnightblue" d="M621.12,-300.85C612.71,-303.29 603.58,-306 595,-308.01 539.76,-320.97 474.12,-328.98 435.52,-335.5"/>
<polygon fill="midnightblue" stroke="midnightblue" points="622.27,-304.17 630.95,-298.09 620.37,-297.43 622.27,-304.17"/>
</g>
<!-- Node19 -->
<g id="node19" class="node">
<title>Node19</title>
<g id="a_node19"><a xlink:href="dfp200_8f90.html#a7b64c7392b45d0042d8bd7379c0761a5" target="_top" xlink:title="Evaluate the derivative of the square of the magnetic field modulus. Add spectral constraint derivati...">
<polygon fill="white" stroke="black" points="510.5,-288.51 510.5,-307.51 584.5,-307.51 584.5,-288.51 510.5,-288.51"/>
<text text-anchor="middle" x="547.5" y="-295.51" font-family="Helvetica,sans-Serif" font-size="10.00">evaluate_dbb</text>
</a>
</g>
</g>
<!-- Node3&#45;&gt;Node19 -->
<g id="edge41" class="edge">
<title>Node3&#45;&gt;Node19</title>
<path fill="none" stroke="midnightblue" d="M620.82,-291.73C609.36,-291.17 596.38,-291.11 584.61,-291.56"/>
<polygon fill="midnightblue" stroke="midnightblue" points="620.63,-295.22 630.84,-292.38 621.09,-288.24 620.63,-295.22"/>
</g>
<!-- Node20 -->
<g id="node20" class="node">
<title>Node20</title>
<g id="a_node20"><a xlink:href="dfp200_8f90.html#a73ddf39ecc5228201fb643779e17cd36" target="_top" xlink:title="Evaluate mu and psip derivatives and store them in dmupfdx.">
<polygon fill="white" stroke="black" points="500,-250.51 500,-269.51 595,-269.51 595,-250.51 500,-250.51"/>
<text text-anchor="middle" x="547.5" y="-257.51" font-family="Helvetica,sans-Serif" font-size="10.00">evaluate_dmupfdx</text>
</a>
</g>
</g>
<!-- Node3&#45;&gt;Node20 -->
<g id="edge43" class="edge">
<title>Node3&#45;&gt;Node20</title>
<path fill="none" stroke="midnightblue" d="M630.21,-284.04C619.42,-279.24 606.13,-274.07 593.43,-269.66"/>
<polygon fill="midnightblue" stroke="midnightblue" points="628.8,-287.24 639.34,-288.31 631.77,-280.9 628.8,-287.24"/>
</g>
<!-- Node4&#45;&gt;Node4 -->
<g id="edge15" class="edge">
<title>Node4&#45;&gt;Node4</title>
<path fill="none" stroke="midnightblue" d="M567.13,-223.41C565.82,-228.33 559.27,-232.01 547.5,-232.01 528.66,-232.01 523.21,-222.58 531.16,-213.77"/>
<polygon fill="midnightblue" stroke="midnightblue" points="570.38,-222.1 563.84,-213.77 563.76,-224.36 570.38,-222.1"/>
</g>
<!-- Node5 -->
<g id="node5" class="node">
<title>Node5</title>
<g id="a_node5"><a xlink:href="namespaceallglobal.html#a7824bc37519fe88336534ce90ab2af16" target="_top" xlink:title=" ">
<polygon fill="white" stroke="black" points="344.5,-241.51 344.5,-260.51 458.5,-260.51 458.5,-241.51 344.5,-241.51"/>
<text text-anchor="middle" x="401.5" y="-248.51" font-family="Helvetica,sans-Serif" font-size="10.00">allglobal::check_inputs</text>
</a>
</g>
</g>
<!-- Node4&#45;&gt;Node5 -->
<g id="edge4" class="edge">
<title>Node4&#45;&gt;Node5</title>
<path fill="none" stroke="midnightblue" d="M515.61,-214.09C490.8,-222.19 456.21,-233.48 431.82,-241.44"/>
<polygon fill="midnightblue" stroke="midnightblue" points="516.83,-217.38 525.25,-210.95 514.66,-210.72 516.83,-217.38"/>
</g>
<!-- Node8 -->
<g id="node8" class="node">
<title>Node8</title>
<g id="a_node8"><a xlink:href="xspech_8f90.html#a48f45478dc2c9f70ea8aa1c60ad06503" target="_top" xlink:title="This is the main &quot;driver&quot; for the physics part of SPEC.">
<polygon fill="white" stroke="black" points="155.5,-194.51 155.5,-213.51 193.5,-213.51 193.5,-194.51 155.5,-194.51"/>
<text text-anchor="middle" x="174.5" y="-201.51" font-family="Helvetica,sans-Serif" font-size="10.00">spec</text>
</a>
</g>
</g>
<!-- Node4&#45;&gt;Node8 -->
<g id="edge39" class="edge">
<title>Node4&#45;&gt;Node8</title>
<path fill="none" stroke="midnightblue" d="M515.3,-200.06C440.49,-196.07 252.73,-196.35 193.61,-200.89"/>
<polygon fill="midnightblue" stroke="midnightblue" points="515.3,-203.56 525.49,-200.67 515.72,-196.57 515.3,-203.56"/>
</g>
<!-- Node11 -->
<g id="node11" class="node">
<title>Node11</title>
<g id="a_node11"><a xlink:href="group__grp__force__driver.html#gabbc245b3884ee8d8d3e2a52f25149f78" target="_top" xlink:title="Objective to be given to the Newton solver, using only function values.">
<polygon fill="white" stroke="black" points="384,-53.51 384,-72.51 419,-72.51 419,-53.51 384,-53.51"/>
<text text-anchor="middle" x="401.5" y="-60.51" font-family="Helvetica,sans-Serif" font-size="10.00">fcn1</text>
</a>
</g>
</g>
<!-- Node4&#45;&gt;Node11 -->
<g id="edge16" class="edge">
<title>Node4&#45;&gt;Node11</title>
<path fill="none" stroke="midnightblue" d="M533.85,-185.97C518.69,-165.08 491.84,-130.31 464,-105.01 450.03,-92.32 431.99,-80.44 419.07,-72.58"/>
<polygon fill="midnightblue" stroke="midnightblue" points="531.11,-188.15 539.78,-194.25 536.81,-184.08 531.11,-188.15"/>
</g>
<!-- Node12 -->
<g id="node12" class="node">
<title>Node12</title>
<g id="a_node12"><a xlink:href="group__grp__force__driver.html#gaec14f81fbdbedafbc4189489ec8ae178" target="_top" xlink:title="Employs Newton method to find , where &#160;and &#160;is defined in dforce() .">
<polygon fill="white" stroke="black" points="255,-63.51 255,-82.51 303,-82.51 303,-63.51 255,-63.51"/>
<text text-anchor="middle" x="279" y="-70.51" font-family="Helvetica,sans-Serif" font-size="10.00">newton</text>
</a>
</g>
</g>
<!-- Node4&#45;&gt;Node12 -->
<g id="edge34" class="edge">
<title>Node4&#45;&gt;Node12</title>
<path fill="none" stroke="midnightblue" d="M525.66,-188.29C509.43,-176.51 486.02,-160.5 464,-149.01 411.09,-121.42 393.93,-123.33 339,-100.01 325.93,-94.47 311.44,-87.84 300.08,-82.54"/>
<polygon fill="midnightblue" stroke="midnightblue" points="523.76,-191.24 533.89,-194.35 527.91,-185.6 523.76,-191.24"/>
</g>
<!-- Node13 -->
<g id="node13" class="node">
<title>Node13</title>
<g id="a_node13"><a xlink:href="group__grp__force__driver.html#ga8ccd6c7d901872702521d0a0edf95412" target="_top" xlink:title="Objective to be given to the Newton solver, using function values and derivatives.">
<polygon fill="white" stroke="black" points="29.5,-77.51 29.5,-96.51 64.5,-96.51 64.5,-77.51 29.5,-77.51"/>
<text text-anchor="middle" x="47" y="-84.51" font-family="Helvetica,sans-Serif" font-size="10.00">fcn2</text>
</a>
</g>
</g>
<!-- Node4&#45;&gt;Node13 -->
<g id="edge28" class="edge">
<title>Node4&#45;&gt;Node13</title>
<path fill="none" stroke="midnightblue" d="M543.03,-183.98C535.68,-148.39 514.81,-74.98 464,-44.01 337.24,33.24 274.14,-8.51 130,-44.01 103.93,-50.43 76.98,-66.77 61.39,-77.36"/>
<polygon fill="midnightblue" stroke="midnightblue" points="539.65,-184.93 544.97,-194.1 546.53,-183.62 539.65,-184.93"/>
</g>
<!-- Node4&#45;&gt;Node15 -->
<g id="edge29" class="edge">
<title>Node4&#45;&gt;Node15</title>
<path fill="none" stroke="midnightblue" d="M522.31,-219.62C514.43,-225.59 506.14,-232.93 500,-241.01 475.18,-273.68 494.44,-298.5 464,-326.01 459.69,-329.91 454.59,-333.01 449.21,-335.47"/>
<polygon fill="midnightblue" stroke="midnightblue" points="524.48,-222.37 530.58,-213.71 520.41,-216.68 524.48,-222.37"/>
</g>
<!-- Node16 -->
<g id="node16" class="node">
<title>Node16</title>
<g id="a_node16"><a xlink:href="group__grp__output.html#ga7401b50ec10c6598ee4a8112717a63ec" target="_top" xlink:title="Computes eigenvalues and eigenvectors of derivative matrix, &#160;and saves them to .ext....">
<polygon fill="white" stroke="black" points="256.5,-129.51 256.5,-148.51 301.5,-148.51 301.5,-129.51 256.5,-129.51"/>
<text text-anchor="middle" x="279" y="-136.51" font-family="Helvetica,sans-Serif" font-size="10.00">hesian</text>
</a>
</g>
</g>
<!-- Node4&#45;&gt;Node16 -->
<g id="edge31" class="edge">
<title>Node4&#45;&gt;Node16</title>
<path fill="none" stroke="midnightblue" d="M515.18,-194.9C499.81,-190.53 480.98,-185.31 464,-181.01 405.56,-166.2 336.07,-150.99 301.61,-143.6"/>
<polygon fill="midnightblue" stroke="midnightblue" points="514.63,-198.39 525.21,-197.78 516.56,-191.66 514.63,-198.39"/>
</g>
<!-- Node17 -->
<g id="node17" class="node">
<title>Node17</title>
<g id="a_node17"><a xlink:href="group__grp__conjugate__gradient.html#ga4d8415226e62a9fdb42b0fd0b464251e" target="_top" xlink:title="Returns the energy functional and it&#39;s derivatives with respect to geometry.">
<polygon fill="white" stroke="black" points="377.5,-279.51 377.5,-298.51 425.5,-298.51 425.5,-279.51 377.5,-279.51"/>
<text text-anchor="middle" x="401.5" y="-286.51" font-family="Helvetica,sans-Serif" font-size="10.00">pc00ab</text>
</a>
</g>
</g>
<!-- Node4&#45;&gt;Node17 -->
<g id="edge35" class="edge">
<title>Node4&#45;&gt;Node17</title>
<path fill="none" stroke="midnightblue" d="M526.31,-220.04C518.13,-226.54 508.61,-234.12 500,-241.01 483.96,-253.85 482.14,-260.36 464,-270.01 451.96,-276.42 437.43,-281.03 425.52,-284.11"/>
<polygon fill="midnightblue" stroke="midnightblue" points="528.59,-222.69 534.25,-213.73 524.24,-217.21 528.59,-222.69"/>
</g>
<!-- Node6 -->
<g id="node6" class="node">
<title>Node6</title>
<g id="a_node6"><a xlink:href="xspech_8f90.html#a9fdc71dffd7c61ee4588a3f80d3ab9ce" target="_top" xlink:title="Main subroutine of SPEC.">
<polygon fill="white" stroke="black" points="255.5,-241.51 255.5,-260.51 302.5,-260.51 302.5,-241.51 255.5,-241.51"/>
<text text-anchor="middle" x="279" y="-248.51" font-family="Helvetica,sans-Serif" font-size="10.00">xspech</text>
</a>
</g>
</g>
<!-- Node5&#45;&gt;Node6 -->
<g id="edge5" class="edge">
<title>Node5&#45;&gt;Node6</title>
<path fill="none" stroke="midnightblue" d="M334.45,-251.01C323.06,-251.01 311.95,-251.01 302.77,-251.01"/>
<polygon fill="midnightblue" stroke="midnightblue" points="334.48,-254.51 344.48,-251.01 334.48,-247.51 334.48,-254.51"/>
</g>
<!-- Node6&#45;&gt;Node6 -->
<g id="edge14" class="edge">
<title>Node6&#45;&gt;Node6</title>
<path fill="none" stroke="midnightblue" d="M298.26,-270.41C296.97,-275.33 290.55,-279.01 279,-279.01 260.52,-279.01 255.17,-269.58 262.97,-260.77"/>
<polygon fill="midnightblue" stroke="midnightblue" points="301.52,-269.14 295.03,-260.77 294.89,-271.36 301.52,-269.14"/>
</g>
<!-- Node7 -->
<g id="node7" class="node">
<title>Node7</title>
<g id="a_node7"><a xlink:href="xspech_8f90.html#a1451823a7b97101a797de616250752c1" target="_top" xlink:title="Final diagnostics.">
<polygon fill="white" stroke="black" points="130,-232.51 130,-251.51 219,-251.51 219,-232.51 130,-232.51"/>
<text text-anchor="middle" x="174.5" y="-239.51" font-family="Helvetica,sans-Serif" font-size="10.00">final_diagnostics</text>
</a>
</g>
</g>
<!-- Node6&#45;&gt;Node7 -->
<g id="edge6" class="edge">
<title>Node6&#45;&gt;Node7</title>
<path fill="none" stroke="midnightblue" d="M245.24,-241.79C236.96,-240.69 227.94,-239.78 219.22,-239.17"/>
<polygon fill="midnightblue" stroke="midnightblue" points="244.84,-245.27 255.25,-243.29 245.88,-238.35 244.84,-245.27"/>
</g>
<!-- Node6&#45;&gt;Node8 -->
<g id="edge8" class="edge">
<title>Node6&#45;&gt;Node8</title>
<path fill="none" stroke="midnightblue" d="M262.04,-235.81C250.21,-228.58 233.65,-220.69 219,-214.01 210.75,-210.25 201.56,-206.22 193.76,-203.55"/>
<polygon fill="midnightblue" stroke="midnightblue" points="260.15,-238.75 270.4,-241.44 264.06,-232.95 260.15,-238.75"/>
</g>
<!-- Node10 -->
<g id="node10" class="node">
<title>Node10</title>
<g id="a_node10"><a xlink:href="xspech_8f90.html#a95271e8805067f801b5d4e524d6901d4" target="_top" xlink:title="Main program of SPEC.">
<polygon fill="white" stroke="black" points="142.5,-270.51 142.5,-289.51 206.5,-289.51 206.5,-270.51 142.5,-270.51"/>
<text text-anchor="middle" x="174.5" y="-277.51" font-family="Helvetica,sans-Serif" font-size="10.00">spec_main</text>
</a>
</g>
</g>
<!-- Node6&#45;&gt;Node10 -->
<g id="edge13" class="edge">
<title>Node6&#45;&gt;Node10</title>
<path fill="none" stroke="midnightblue" d="M245.34,-260.25C232.98,-263.75 218.96,-267.72 206.74,-271.17"/>
<polygon fill="midnightblue" stroke="midnightblue" points="246.58,-263.54 255.25,-257.45 244.68,-256.8 246.58,-263.54"/>
</g>
<!-- Node7&#45;&gt;Node6 -->
<g id="edge7" class="edge">
<title>Node7&#45;&gt;Node6</title>
<path fill="none" stroke="midnightblue" d="M220.94,-252.71C232.82,-253.92 245.13,-254.67 255.25,-254.73"/>
<polygon fill="midnightblue" stroke="midnightblue" points="221,-249.2 210.67,-251.55 220.21,-256.15 221,-249.2"/>
</g>
<!-- Node8&#45;&gt;Node4 -->
<g id="edge9" class="edge">
<title>Node8&#45;&gt;Node4</title>
<path fill="none" stroke="midnightblue" d="M203.68,-207.8C275.19,-211.89 462.5,-211.74 525.49,-207.35"/>
<polygon fill="midnightblue" stroke="midnightblue" points="203.82,-204.3 193.61,-207.14 203.36,-211.29 203.82,-204.3"/>
</g>
<!-- Node8&#45;&gt;Node6 -->
<g id="edge12" class="edge">
<title>Node8&#45;&gt;Node6</title>
<path fill="none" stroke="midnightblue" d="M191.51,-218.92C199.75,-223.43 209.94,-227.89 219,-232.01 231.07,-237.51 244.43,-243.83 255.38,-248.22"/>
<polygon fill="midnightblue" stroke="midnightblue" points="193.27,-215.89 182.92,-213.63 189.6,-221.85 193.27,-215.89"/>
</g>
<!-- Node9 -->
<g id="node9" class="node">
<title>Node9</title>
<g id="a_node9"><a xlink:href="group__grp__output.html#ga0f962c09cd5d5eba99f1cba043cb3898" target="_top" xlink:title="Initialize the interface to the HDF5 library and open the output file.">
<polygon fill="white" stroke="black" points="0,-251.51 0,-270.51 94,-270.51 94,-251.51 0,-251.51"/>
<text text-anchor="middle" x="47" y="-258.51" font-family="Helvetica,sans-Serif" font-size="10.00">sphdf5::init_outfile</text>
</a>
</g>
</g>
<!-- Node8&#45;&gt;Node9 -->
<g id="edge10" class="edge">
<title>Node8&#45;&gt;Node9</title>
<path fill="none" stroke="midnightblue" d="M146.02,-215.91C140.7,-218.24 135.17,-220.69 130,-223.01 108.97,-232.48 85.05,-243.6 68.5,-251.36"/>
<polygon fill="midnightblue" stroke="midnightblue" points="147.49,-219.08 155.26,-211.87 144.69,-212.67 147.49,-219.08"/>
</g>
<!-- Node9&#45;&gt;Node6 -->
<g id="edge11" class="edge">
<title>Node9&#45;&gt;Node6</title>
<path fill="none" stroke="midnightblue" d="M72.37,-275.72C88.18,-284.39 109.57,-294.51 130,-299.01 168.63,-307.53 181.73,-312.26 219,-299.01 240.4,-291.41 259.68,-272.35 270.02,-260.67"/>
<polygon fill="midnightblue" stroke="midnightblue" points="73.73,-272.47 63.3,-270.58 70.27,-278.56 73.73,-272.47"/>
</g>
<!-- Node11&#45;&gt;Node11 -->
<g id="edge17" class="edge">
<title>Node11&#45;&gt;Node11</title>
<path fill="none" stroke="midnightblue" d="M424.37,-80.15C424.68,-86.15 417.06,-91.01 401.5,-91.01 378.86,-91.01 373.03,-80.73 383.99,-71.61"/>
<polygon fill="midnightblue" stroke="midnightblue" points="427.29,-78.22 419.01,-71.61 421.36,-81.94 427.29,-78.22"/>
</g>
<!-- Node11&#45;&gt;Node12 -->
<g id="edge18" class="edge">
<title>Node11&#45;&gt;Node12</title>
<path fill="none" stroke="midnightblue" d="M373.51,-59.52C352.38,-59.83 323.31,-62.34 303.22,-65.63"/>
<polygon fill="midnightblue" stroke="midnightblue" points="373.73,-63.02 383.74,-59.56 373.76,-56.02 373.73,-63.02"/>
</g>
<!-- Node12&#45;&gt;Node8 -->
<g id="edge24" class="edge">
<title>Node12&#45;&gt;Node8</title>
<path fill="none" stroke="midnightblue" d="M263.9,-91.04C241.87,-119.19 200.06,-172.63 183.01,-194.41"/>
<polygon fill="midnightblue" stroke="midnightblue" points="266.89,-92.89 270.3,-82.86 261.38,-88.58 266.89,-92.89"/>
</g>
<!-- Node12&#45;&gt;Node11 -->
<g id="edge19" class="edge">
<title>Node12&#45;&gt;Node11</title>
<path fill="none" stroke="midnightblue" d="M313.52,-76.35C336.37,-75.6 365.66,-72.75 383.74,-69.25"/>
<polygon fill="midnightblue" stroke="midnightblue" points="313.15,-72.86 303.22,-76.54 313.28,-79.86 313.15,-72.86"/>
</g>
<!-- Node12&#45;&gt;Node12 -->
<g id="edge23" class="edge">
<title>Node12&#45;&gt;Node12</title>
<path fill="none" stroke="midnightblue" d="M298.26,-92.41C296.97,-97.33 290.55,-101.01 279,-101.01 260.52,-101.01 255.17,-91.58 262.97,-82.77"/>
<polygon fill="midnightblue" stroke="midnightblue" points="301.52,-91.14 295.03,-82.77 294.89,-93.36 301.52,-91.14"/>
</g>
<!-- Node12&#45;&gt;Node13 -->
<g id="edge20" class="edge">
<title>Node12&#45;&gt;Node13</title>
<path fill="none" stroke="midnightblue" d="M244.66,-70.11C236.3,-71.08 227.34,-72.26 219,-73.01 162.5,-78.13 95.12,-78.39 64.55,-81.94"/>
<polygon fill="midnightblue" stroke="midnightblue" points="245.25,-73.57 254.82,-69.03 244.51,-66.6 245.25,-73.57"/>
</g>
<!-- Node14 -->
<g id="node14" class="node">
<title>Node14</title>
<g id="a_node14"><a xlink:href="group__grp__output.html#ga382822b303cbf8c56d6f54dcb379caf2" target="_top" xlink:title="read or write force&#45;derivative matrix .ext.sp.DF">
<polygon fill="white" stroke="black" points="142,-53.51 142,-72.51 207,-72.51 207,-53.51 142,-53.51"/>
<text text-anchor="middle" x="174.5" y="-60.51" font-family="Helvetica,sans-Serif" font-size="10.00">writereadgf</text>
</a>
</g>
</g>
<!-- Node12&#45;&gt;Node14 -->
<g id="edge25" class="edge">
<title>Node12&#45;&gt;Node14</title>
<path fill="none" stroke="midnightblue" d="M244.89,-63.42C232.86,-61.71 219.29,-60.4 207.36,-59.82"/>
<polygon fill="midnightblue" stroke="midnightblue" points="244.57,-66.92 255,-65.03 245.67,-60 244.57,-66.92"/>
</g>
<!-- Node13&#45;&gt;Node12 -->
<g id="edge22" class="edge">
<title>Node13&#45;&gt;Node12</title>
<path fill="none" stroke="midnightblue" d="M74.51,-93.49C108.18,-96.3 168.02,-95.63 219,-91.01 234.89,-89.57 253.01,-86.61 264.93,-82.52"/>
<polygon fill="midnightblue" stroke="midnightblue" points="74.85,-90.01 64.55,-92.46 74.13,-96.97 74.85,-90.01"/>
</g>
<!-- Node13&#45;&gt;Node13 -->
<g id="edge21" class="edge">
<title>Node13&#45;&gt;Node13</title>
<path fill="none" stroke="midnightblue" d="M70.55,-103.55C71.46,-109.82 63.61,-115.01 47,-115.01 23.38,-115.01 17.47,-104.51 29.28,-95.32"/>
<polygon fill="midnightblue" stroke="midnightblue" points="73.36,-101.45 64.72,-95.32 67.65,-105.51 73.36,-101.45"/>
</g>
<!-- Node14&#45;&gt;Node12 -->
<g id="edge27" class="edge">
<title>Node14&#45;&gt;Node12</title>
<path fill="none" stroke="midnightblue" d="M217.42,-73.75C230.26,-75.28 243.91,-76.31 255,-76.51"/>
<polygon fill="midnightblue" stroke="midnightblue" points="217.74,-70.26 207.36,-72.42 216.82,-77.2 217.74,-70.26"/>
</g>
<!-- Node14&#45;&gt;Node13 -->
<g id="edge26" class="edge">
<title>Node14&#45;&gt;Node13</title>
<path fill="none" stroke="midnightblue" d="M131.96,-70.96C108.99,-75.35 81.73,-80.56 64.64,-83.83"/>
<polygon fill="midnightblue" stroke="midnightblue" points="132.67,-74.38 141.83,-69.07 131.35,-67.51 132.67,-74.38"/>
</g>
<!-- Node15&#45;&gt;Node3 -->
<g id="edge30" class="edge">
<title>Node15&#45;&gt;Node3</title>
<path fill="none" stroke="midnightblue" d="M474.18,-345.63C510.63,-342.02 555.48,-335.29 595,-326.01 612.74,-321.85 632.83,-314.7 644.1,-307.73"/>
<polygon fill="midnightblue" stroke="midnightblue" points="473.76,-342.16 464.13,-346.57 474.41,-349.13 473.76,-342.16"/>
</g>
<!-- Node16&#45;&gt;Node8 -->
<g id="edge33" class="edge">
<title>Node16&#45;&gt;Node8</title>
<path fill="none" stroke="midnightblue" d="M254.21,-154.1C234.62,-166.52 207.44,-183.76 190.69,-194.38"/>
<polygon fill="midnightblue" stroke="midnightblue" points="256.31,-156.91 262.88,-148.6 252.56,-151 256.31,-156.91"/>
</g>
<!-- Node16&#45;&gt;Node16 -->
<g id="edge32" class="edge">
<title>Node16&#45;&gt;Node16</title>
<path fill="none" stroke="midnightblue" d="M298.26,-158.41C296.97,-163.33 290.55,-167.01 279,-167.01 260.52,-167.01 255.17,-157.58 262.97,-148.77"/>
<polygon fill="midnightblue" stroke="midnightblue" points="301.52,-157.14 295.03,-148.77 294.89,-159.36 301.52,-157.14"/>
</g>
<!-- Node17&#45;&gt;Node17 -->
<g id="edge38" class="edge">
<title>Node17&#45;&gt;Node17</title>
<path fill="none" stroke="midnightblue" d="M424.19,-308.04C422.96,-313.14 415.39,-317.01 401.5,-317.01 379.82,-317.01 373.55,-307.58 382.7,-298.77"/>
<polygon fill="midnightblue" stroke="midnightblue" points="427.4,-306.64 420.3,-298.77 420.94,-309.34 427.4,-306.64"/>
</g>
<!-- Node18 -->
<g id="node18" class="node">
<title>Node18</title>
<g id="a_node18"><a xlink:href="group__grp__conjugate__gradient.html#ga25a3bae2ff2ee0469b045de0d033398b" target="_top" xlink:title="Use preconditioned conjugate gradient method to find minimum of energy functional.">
<polygon fill="white" stroke="black" points="255,-297.51 255,-316.51 303,-316.51 303,-297.51 255,-297.51"/>
<text text-anchor="middle" x="279" y="-304.51" font-family="Helvetica,sans-Serif" font-size="10.00">pc00aa</text>
</a>
</g>
</g>
<!-- Node17&#45;&gt;Node18 -->
<g id="edge36" class="edge">
<title>Node17&#45;&gt;Node18</title>
<path fill="none" stroke="midnightblue" d="M367.16,-293.99C346.81,-297.03 321.31,-300.84 303.16,-303.55"/>
<polygon fill="midnightblue" stroke="midnightblue" points="367.89,-297.42 377.27,-292.48 366.86,-290.5 367.89,-297.42"/>
</g>
<!-- Node18&#45;&gt;Node18 -->
<g id="edge37" class="edge">
<title>Node18&#45;&gt;Node18</title>
<path fill="none" stroke="midnightblue" d="M298.26,-326.41C296.97,-331.33 290.55,-335.01 279,-335.01 260.52,-335.01 255.17,-325.58 262.97,-316.77"/>
<polygon fill="midnightblue" stroke="midnightblue" points="301.52,-325.14 295.03,-316.77 294.89,-327.36 301.52,-325.14"/>
</g>
<!-- Node19&#45;&gt;Node3 -->
<g id="edge42" class="edge">
<title>Node19&#45;&gt;Node3</title>
<path fill="none" stroke="midnightblue" d="M594.93,-304.72C607.42,-304.89 620.35,-304.53 630.84,-303.65"/>
<polygon fill="midnightblue" stroke="midnightblue" points="594.69,-301.22 584.61,-304.47 594.52,-308.22 594.69,-301.22"/>
</g>
<!-- Node20&#45;&gt;Node3 -->
<g id="edge44" class="edge">
<title>Node20&#45;&gt;Node3</title>
<path fill="none" stroke="midnightblue" d="M571.55,-274.1C589.21,-281.94 613.41,-290.71 630.84,-295.59"/>
<polygon fill="midnightblue" stroke="midnightblue" points="572.55,-270.71 562.01,-269.64 569.59,-277.05 572.55,-270.71"/>
</g>
<!-- Node22 -->
<g id="node22" class="node">
<title>Node22</title>
<g id="a_node22"><a xlink:href="mp00ac_8f90.html#a304edac43f63d39dda4419b4d044eac5" target="_top" xlink:title="run GMRES">
<polygon fill="white" stroke="black" points="951,-212.51 951,-231.51 1008,-231.51 1008,-212.51 951,-212.51"/>
<text text-anchor="middle" x="979.5" y="-219.51" font-family="Helvetica,sans-Serif" font-size="10.00">rungmres</text>
</a>
</g>
</g>
<!-- Node21&#45;&gt;Node22 -->
<g id="edge48" class="edge">
<title>Node21&#45;&gt;Node22</title>
<path fill="none" stroke="midnightblue" d="M1033.5,-222.01C1025.13,-222.01 1016.28,-222.01 1008.25,-222.01"/>
<polygon fill="midnightblue" stroke="midnightblue" points="1033.73,-225.51 1043.73,-222.01 1033.73,-218.51 1033.73,-225.51"/>
</g>
<!-- Node22&#45;&gt;Node23 -->
<g id="edge49" class="edge">
<title>Node22&#45;&gt;Node23</title>
<path fill="none" stroke="midnightblue" d="M940.46,-226.34C931.9,-227.31 923.03,-228.32 915.19,-229.21"/>
<polygon fill="midnightblue" stroke="midnightblue" points="941.12,-229.78 950.66,-225.18 940.32,-222.83 941.12,-229.78"/>
</g>
<!-- Node23&#45;&gt;Node23 -->
<g id="edge56" class="edge">
<title>Node23&#45;&gt;Node23</title>
<path fill="none" stroke="midnightblue" d="M906.17,-251.41C905.05,-256.33 899.5,-260.01 889.5,-260.01 873.5,-260.01 868.88,-250.58 875.63,-241.77"/>
<polygon fill="midnightblue" stroke="midnightblue" points="909.52,-250.4 903.37,-241.77 902.79,-252.35 909.52,-250.4"/>
</g>
<!-- Node24 -->
<g id="node24" class="node">
<title>Node24</title>
<g id="a_node24"><a xlink:href="group__grp__solver__driver.html#gacad623d4c5c006e9ad10116372f92ad3" target="_top" xlink:title="Constructs Beltrami field in given volume consistent with flux, helicity, rotational&#45;transform and/or...">
<polygon fill="white" stroke="black" points="745,-222.51 745,-241.51 796,-241.51 796,-222.51 745,-222.51"/>
<text text-anchor="middle" x="770.5" y="-229.51" font-family="Helvetica,sans-Serif" font-size="10.00">ma02aa</text>
</a>
</g>
</g>
<!-- Node23&#45;&gt;Node24 -->
<g id="edge50" class="edge">
<title>Node23&#45;&gt;Node24</title>
<path fill="none" stroke="midnightblue" d="M853.89,-232.01C835.43,-232.01 813.14,-232.01 796.4,-232.01"/>
<polygon fill="midnightblue" stroke="midnightblue" points="853.97,-235.51 863.97,-232.01 853.97,-228.51 853.97,-235.51"/>
</g>
<!-- Node24&#45;&gt;Node24 -->
<g id="edge55" class="edge">
<title>Node24&#45;&gt;Node24</title>
<path fill="none" stroke="midnightblue" d="M791.98,-251.41C790.55,-256.33 783.39,-260.01 770.5,-260.01 749.88,-260.01 743.92,-250.58 752.62,-241.77"/>
<polygon fill="midnightblue" stroke="midnightblue" points="795.16,-249.91 788.38,-241.77 788.6,-252.36 795.16,-249.91"/>
</g>
<!-- Node25 -->
<g id="node25" class="node">
<title>Node25</title>
<g id="a_node25"><a xlink:href="dfp100_8f90.html#a17a3ac15cc83994394f7b4cc05e5898e" target="_top" xlink:title="Split the work between MPI nodes and evaluate the global constraint.">
<polygon fill="white" stroke="black" points="631,-222.51 631,-241.51 677,-241.51 677,-222.51 631,-222.51"/>
<text text-anchor="middle" x="654" y="-229.51" font-family="Helvetica,sans-Serif" font-size="10.00">dfp100</text>
</a>
</g>
</g>
<!-- Node24&#45;&gt;Node25 -->
<g id="edge51" class="edge">
<title>Node24&#45;&gt;Node25</title>
<path fill="none" stroke="midnightblue" d="M734.72,-232.01C716.02,-232.01 693.52,-232.01 677.2,-232.01"/>
<polygon fill="midnightblue" stroke="midnightblue" points="734.94,-235.51 744.94,-232.01 734.94,-228.51 734.94,-235.51"/>
</g>
<!-- Node25&#45;&gt;Node4 -->
<g id="edge52" class="edge">
<title>Node25&#45;&gt;Node4</title>
<path fill="none" stroke="midnightblue" d="M620.94,-223.42C604.24,-218.95 584.29,-213.6 569.56,-209.66"/>
<polygon fill="midnightblue" stroke="midnightblue" points="620.27,-226.87 630.84,-226.07 622.08,-220.11 620.27,-226.87"/>
</g>
<!-- Node25&#45;&gt;Node20 -->
<g id="edge54" class="edge">
<title>Node25&#45;&gt;Node20</title>
<path fill="none" stroke="midnightblue" d="M621.08,-240.57C609.42,-243.69 596.16,-247.24 584.2,-250.45"/>
<polygon fill="midnightblue" stroke="midnightblue" points="622.08,-243.92 630.84,-237.95 620.27,-237.16 622.08,-243.92"/>
</g>
<!-- Node25&#45;&gt;Node25 -->
<g id="edge53" class="edge">
<title>Node25&#45;&gt;Node25</title>
<path fill="none" stroke="midnightblue" d="M673.63,-251.41C672.32,-256.33 665.77,-260.01 654,-260.01 635.16,-260.01 629.71,-250.58 637.66,-241.77"/>
<polygon fill="midnightblue" stroke="midnightblue" points="676.88,-250.1 670.34,-241.77 670.26,-252.36 676.88,-250.1"/>
</g>
</g>
</svg>
