<?xml version="1.0" encoding="UTF-8" standalone="no"?>
<!DOCTYPE svg PUBLIC "-//W3C//DTD SVG 1.1//EN"
 "http://www.w3.org/Graphics/SVG/1.1/DTD/svg11.dtd">
<!-- Generated by graphviz version 2.49.3 (20211027.1534)
 -->
<!-- Title: brcast Pages: 1 -->
<svg width="658pt" height="442pt"
 viewBox="0.00 0.00 658.00 442.00" xmlns="http://www.w3.org/2000/svg" xmlns:xlink="http://www.w3.org/1999/xlink">
<g id="graph0" class="graph" transform="scale(1 1) rotate(0) translate(4 438)">
<title>brcast</title>
<polygon fill="white" stroke="transparent" points="-4,4 -4,-438 654,-438 654,4 -4,4"/>
<!-- Node1 -->
<g id="node1" class="node">
<title>Node1</title>
<g id="a_node1"><a xlink:title="Broadcasts Beltrami fields, profiles, . . .">
<polygon fill="#bfbfbf" stroke="black" points="606,-320.5 606,-339.5 650,-339.5 650,-320.5 606,-320.5"/>
<text text-anchor="middle" x="628" y="-327.5" font-family="Helvetica,sans-Serif" font-size="10.00">brcast</text>
</a>
</g>
</g>
<!-- Node1&#45;&gt;Node1 -->
<g id="edge1" class="edge">
<title>Node1&#45;&gt;Node1</title>
<path fill="none" stroke="midnightblue" d="M642.73,-349.77C641.58,-354.5 636.66,-358 628,-358 613.78,-358 609.67,-348.57 615.67,-339.76"/>
<polygon fill="midnightblue" stroke="midnightblue" points="646.07,-348.66 640.33,-339.76 639.26,-350.3 646.07,-348.66"/>
</g>
<!-- Node2 -->
<g id="node2" class="node">
<title>Node2</title>
<g id="a_node2"><a xlink:href="group__grp__global__force.html#ga38c9d3c50bd043707fefa5137c9dbf44" target="_top" xlink:title="Calculates , where &#160;and , and .">
<polygon fill="white" stroke="black" points="526,-226.5 526,-245.5 570,-245.5 570,-226.5 526,-226.5"/>
<text text-anchor="middle" x="548" y="-233.5" font-family="Helvetica,sans-Serif" font-size="10.00">dforce</text>
</a>
</g>
</g>
<!-- Node1&#45;&gt;Node2 -->
<g id="edge2" class="edge">
<title>Node1&#45;&gt;Node2</title>
<path fill="none" stroke="midnightblue" d="M612.36,-312.35C595.93,-292.55 569.87,-261.16 556.89,-245.51"/>
<polygon fill="midnightblue" stroke="midnightblue" points="609.87,-314.83 618.95,-320.29 615.25,-310.36 609.87,-314.83"/>
</g>
<!-- Node5 -->
<g id="node5" class="node">
<title>Node5</title>
<g id="a_node5"><a xlink:href="xspech_8f90.html#a1451823a7b97101a797de616250752c1" target="_top" xlink:title="Final diagnostics.">
<polygon fill="white" stroke="black" points="143,-414.5 143,-433.5 232,-433.5 232,-414.5 143,-414.5"/>
<text text-anchor="middle" x="187.5" y="-421.5" font-family="Helvetica,sans-Serif" font-size="10.00">final_diagnostics</text>
</a>
</g>
</g>
<!-- Node1&#45;&gt;Node5 -->
<g id="edge48" class="edge">
<title>Node1&#45;&gt;Node5</title>
<path fill="none" stroke="midnightblue" d="M599.26,-344.19C572.12,-357.42 529.26,-376.63 490,-387 400.26,-410.7 291.41,-419.3 232.14,-422.36"/>
<polygon fill="midnightblue" stroke="midnightblue" points="601.1,-347.18 608.51,-339.61 597.99,-340.91 601.1,-347.18"/>
</g>
<!-- Node2&#45;&gt;Node2 -->
<g id="edge14" class="edge">
<title>Node2&#45;&gt;Node2</title>
<path fill="none" stroke="midnightblue" d="M562.73,-255.77C561.58,-260.5 556.66,-264 548,-264 533.78,-264 529.67,-254.57 535.67,-245.76"/>
<polygon fill="midnightblue" stroke="midnightblue" points="566.07,-254.66 560.33,-245.76 559.26,-256.3 566.07,-254.66"/>
</g>
<!-- Node3 -->
<g id="node3" class="node">
<title>Node3</title>
<g id="a_node3"><a xlink:href="namespaceallglobal.html#a7824bc37519fe88336534ce90ab2af16" target="_top" xlink:title=" ">
<polygon fill="white" stroke="black" points="370.5,-358.5 370.5,-377.5 484.5,-377.5 484.5,-358.5 370.5,-358.5"/>
<text text-anchor="middle" x="427.5" y="-365.5" font-family="Helvetica,sans-Serif" font-size="10.00">allglobal::check_inputs</text>
</a>
</g>
</g>
<!-- Node2&#45;&gt;Node3 -->
<g id="edge3" class="edge">
<title>Node2&#45;&gt;Node3</title>
<path fill="none" stroke="midnightblue" d="M541.48,-255.17C533.69,-279.04 517.3,-319.64 490,-344 482.99,-350.26 474.16,-354.97 465.39,-358.48"/>
<polygon fill="midnightblue" stroke="midnightblue" points="544.86,-256.09 544.46,-245.5 538.17,-254.03 544.86,-256.09"/>
</g>
<!-- Node6 -->
<g id="node6" class="node">
<title>Node6</title>
<g id="a_node6"><a xlink:href="xspech_8f90.html#a48f45478dc2c9f70ea8aa1c60ad06503" target="_top" xlink:title="This is the main &quot;driver&quot; for the physics part of SPEC.">
<polygon fill="white" stroke="black" points="168.5,-300.5 168.5,-319.5 206.5,-319.5 206.5,-300.5 168.5,-300.5"/>
<text text-anchor="middle" x="187.5" y="-307.5" font-family="Helvetica,sans-Serif" font-size="10.00">spec</text>
</a>
</g>
</g>
<!-- Node2&#45;&gt;Node6 -->
<g id="edge47" class="edge">
<title>Node2&#45;&gt;Node6</title>
<path fill="none" stroke="midnightblue" d="M516.81,-246.2C508.39,-250.45 499.06,-254.91 490,-258 386.93,-293.2 254.51,-299.59 206.72,-305.44"/>
<polygon fill="midnightblue" stroke="midnightblue" points="518.55,-249.25 525.87,-241.58 515.37,-243.01 518.55,-249.25"/>
</g>
<!-- Node9 -->
<g id="node9" class="node">
<title>Node9</title>
<g id="a_node9"><a xlink:href="group__grp__force__driver.html#gabbc245b3884ee8d8d3e2a52f25149f78" target="_top" xlink:title="Objective to be given to the Newton solver, using only function values.">
<polygon fill="white" stroke="black" points="410,-170.5 410,-189.5 445,-189.5 445,-170.5 410,-170.5"/>
<text text-anchor="middle" x="427.5" y="-177.5" font-family="Helvetica,sans-Serif" font-size="10.00">fcn1</text>
</a>
</g>
</g>
<!-- Node2&#45;&gt;Node9 -->
<g id="edge15" class="edge">
<title>Node2&#45;&gt;Node9</title>
<path fill="none" stroke="midnightblue" d="M517.39,-222.01C494.58,-211.23 463.87,-196.72 445.17,-187.88"/>
<polygon fill="midnightblue" stroke="midnightblue" points="516.09,-225.26 526.63,-226.37 519.08,-218.94 516.09,-225.26"/>
</g>
<!-- Node10 -->
<g id="node10" class="node">
<title>Node10</title>
<g id="a_node10"><a xlink:href="group__grp__force__driver.html#gaec14f81fbdbedafbc4189489ec8ae178" target="_top" xlink:title="Employs Newton method to find , where &#160;and &#160;is defined in dforce() .">
<polygon fill="white" stroke="black" points="281,-180.5 281,-199.5 329,-199.5 329,-180.5 281,-180.5"/>
<text text-anchor="middle" x="305" y="-187.5" font-family="Helvetica,sans-Serif" font-size="10.00">newton</text>
</a>
</g>
</g>
<!-- Node2&#45;&gt;Node10 -->
<g id="edge42" class="edge">
<title>Node2&#45;&gt;Node10</title>
<path fill="none" stroke="midnightblue" d="M515.77,-235.8C479.06,-234.87 416.6,-231.09 365,-217 350.22,-212.96 334.49,-205.6 323,-199.58"/>
<polygon fill="midnightblue" stroke="midnightblue" points="515.78,-239.3 525.85,-236 515.92,-232.3 515.78,-239.3"/>
</g>
<!-- Node11 -->
<g id="node11" class="node">
<title>Node11</title>
<g id="a_node11"><a xlink:href="group__grp__force__driver.html#ga8ccd6c7d901872702521d0a0edf95412" target="_top" xlink:title="Objective to be given to the Newton solver, using function values and derivatives.">
<polygon fill="white" stroke="black" points="29.5,-194.5 29.5,-213.5 64.5,-213.5 64.5,-194.5 29.5,-194.5"/>
<text text-anchor="middle" x="47" y="-201.5" font-family="Helvetica,sans-Serif" font-size="10.00">fcn2</text>
</a>
</g>
</g>
<!-- Node2&#45;&gt;Node11 -->
<g id="edge27" class="edge">
<title>Node2&#45;&gt;Node11</title>
<path fill="none" stroke="midnightblue" d="M538.91,-217.28C529.91,-199.12 513.49,-172.65 490,-161 418.33,-125.45 207.68,-141.87 130,-161 103.93,-167.42 76.98,-183.76 61.39,-194.35"/>
<polygon fill="midnightblue" stroke="midnightblue" points="535.74,-218.78 543.14,-226.37 542.09,-215.83 535.74,-218.78"/>
</g>
<!-- Node13 -->
<g id="node13" class="node">
<title>Node13</title>
<g id="a_node13"><a xlink:href="dfp200_8f90.html#a6aca59cf350d7b1941f8389d50945a43" target="_top" xlink:title="get LU Beltrami matrices">
<polygon fill="white" stroke="black" points="365,-94.5 365,-113.5 490,-113.5 490,-94.5 365,-94.5"/>
<text text-anchor="middle" x="427.5" y="-101.5" font-family="Helvetica,sans-Serif" font-size="10.00">get_lu_beltrami_matrices</text>
</a>
</g>
</g>
<!-- Node2&#45;&gt;Node13 -->
<g id="edge28" class="edge">
<title>Node2&#45;&gt;Node13</title>
<path fill="none" stroke="midnightblue" d="M541.48,-216.83C533.69,-192.96 517.3,-152.36 490,-128 482.99,-121.74 474.16,-117.03 465.39,-113.52"/>
<polygon fill="midnightblue" stroke="midnightblue" points="538.17,-217.97 544.46,-226.5 544.86,-215.91 538.17,-217.97"/>
</g>
<!-- Node18 -->
<g id="node18" class="node">
<title>Node18</title>
<g id="a_node18"><a xlink:href="group__grp__output.html#ga7401b50ec10c6598ee4a8112717a63ec" target="_top" xlink:title="Computes eigenvalues and eigenvectors of derivative matrix, &#160;and saves them to .ext....">
<polygon fill="white" stroke="black" points="282.5,-246.5 282.5,-265.5 327.5,-265.5 327.5,-246.5 282.5,-246.5"/>
<text text-anchor="middle" x="305" y="-253.5" font-family="Helvetica,sans-Serif" font-size="10.00">hesian</text>
</a>
</g>
</g>
<!-- Node2&#45;&gt;Node18 -->
<g id="edge39" class="edge">
<title>Node2&#45;&gt;Node18</title>
<path fill="none" stroke="midnightblue" d="M516.05,-244.84C507.66,-246.9 498.54,-248.83 490,-250 431.74,-258.02 362.17,-257.61 327.65,-256.75"/>
<polygon fill="midnightblue" stroke="midnightblue" points="517.01,-248.21 525.82,-242.32 515.26,-241.43 517.01,-248.21"/>
</g>
<!-- Node19 -->
<g id="node19" class="node">
<title>Node19</title>
<g id="a_node19"><a xlink:href="group__grp__conjugate__gradient.html#ga4d8415226e62a9fdb42b0fd0b464251e" target="_top" xlink:title="Returns the energy functional and it&#39;s derivatives with respect to geometry.">
<polygon fill="white" stroke="black" points="403.5,-0.5 403.5,-19.5 451.5,-19.5 451.5,-0.5 403.5,-0.5"/>
<text text-anchor="middle" x="427.5" y="-7.5" font-family="Helvetica,sans-Serif" font-size="10.00">pc00ab</text>
</a>
</g>
</g>
<!-- Node2&#45;&gt;Node19 -->
<g id="edge43" class="edge">
<title>Node2&#45;&gt;Node19</title>
<path fill="none" stroke="midnightblue" d="M545.14,-216.03C540.91,-180.03 527.82,-103.22 490,-52 479.48,-37.75 462.61,-26.72 449.19,-19.55"/>
<polygon fill="midnightblue" stroke="midnightblue" points="541.68,-216.63 546.22,-226.2 548.64,-215.89 541.68,-216.63"/>
</g>
<!-- Node4 -->
<g id="node4" class="node">
<title>Node4</title>
<g id="a_node4"><a xlink:href="xspech_8f90.html#a9fdc71dffd7c61ee4588a3f80d3ab9ce" target="_top" xlink:title="Main subroutine of SPEC.">
<polygon fill="white" stroke="black" points="281.5,-358.5 281.5,-377.5 328.5,-377.5 328.5,-358.5 281.5,-358.5"/>
<text text-anchor="middle" x="305" y="-365.5" font-family="Helvetica,sans-Serif" font-size="10.00">xspech</text>
</a>
</g>
</g>
<!-- Node3&#45;&gt;Node4 -->
<g id="edge4" class="edge">
<title>Node3&#45;&gt;Node4</title>
<path fill="none" stroke="midnightblue" d="M360.45,-368C349.06,-368 337.95,-368 328.77,-368"/>
<polygon fill="midnightblue" stroke="midnightblue" points="360.48,-371.5 370.48,-368 360.48,-364.5 360.48,-371.5"/>
</g>
<!-- Node4&#45;&gt;Node4 -->
<g id="edge13" class="edge">
<title>Node4&#45;&gt;Node4</title>
<path fill="none" stroke="midnightblue" d="M326.48,-387.4C325.05,-392.31 317.89,-396 305,-396 284.38,-396 278.42,-386.57 287.12,-377.76"/>
<polygon fill="midnightblue" stroke="midnightblue" points="329.66,-385.9 322.88,-377.76 323.1,-388.35 329.66,-385.9"/>
</g>
<!-- Node4&#45;&gt;Node5 -->
<g id="edge5" class="edge">
<title>Node4&#45;&gt;Node5</title>
<path fill="none" stroke="midnightblue" d="M272.19,-377.3C263.47,-381.7 253.94,-386.69 245,-391 228.3,-399.05 208.2,-407.25 197.04,-414.5"/>
<polygon fill="midnightblue" stroke="midnightblue" points="273.87,-380.38 281.29,-372.81 270.77,-374.1 273.87,-380.38"/>
</g>
<!-- Node4&#45;&gt;Node6 -->
<g id="edge7" class="edge">
<title>Node4&#45;&gt;Node6</title>
<path fill="none" stroke="midnightblue" d="M291.21,-351.04C279.63,-340.55 261.87,-328.24 245,-320 232.63,-313.96 217.86,-309.07 206.53,-307.02"/>
<polygon fill="midnightblue" stroke="midnightblue" points="288.89,-353.68 298.44,-358.28 293.85,-348.73 288.89,-353.68"/>
</g>
<!-- Node8 -->
<g id="node8" class="node">
<title>Node8</title>
<g id="a_node8"><a xlink:href="xspech_8f90.html#a95271e8805067f801b5d4e524d6901d4" target="_top" xlink:title="Main program of SPEC.">
<polygon fill="white" stroke="black" points="155.5,-338.5 155.5,-357.5 219.5,-357.5 219.5,-338.5 155.5,-338.5"/>
<text text-anchor="middle" x="187.5" y="-345.5" font-family="Helvetica,sans-Serif" font-size="10.00">spec_main</text>
</a>
</g>
</g>
<!-- Node4&#45;&gt;Node8 -->
<g id="edge12" class="edge">
<title>Node4&#45;&gt;Node8</title>
<path fill="none" stroke="midnightblue" d="M271.36,-362.35C255.17,-359.54 235.72,-356.18 219.73,-353.41"/>
<polygon fill="midnightblue" stroke="midnightblue" points="271.01,-365.84 281.46,-364.1 272.2,-358.94 271.01,-365.84"/>
</g>
<!-- Node5&#45;&gt;Node4 -->
<g id="edge6" class="edge">
<title>Node5&#45;&gt;Node4</title>
<path fill="none" stroke="midnightblue" d="M241.47,-410.68C242.66,-410.12 243.84,-409.56 245,-409 264.31,-399.69 286.34,-387.23 297.21,-377.62"/>
<polygon fill="midnightblue" stroke="midnightblue" points="239.84,-407.58 232.18,-414.9 242.73,-413.95 239.84,-407.58"/>
</g>
<!-- Node6&#45;&gt;Node2 -->
<g id="edge8" class="edge">
<title>Node6&#45;&gt;Node2</title>
<path fill="none" stroke="midnightblue" d="M216.98,-314.61C271.46,-316.65 393.57,-308.93 490,-276 509.83,-269.23 530.93,-255.93 540.99,-245.71"/>
<polygon fill="midnightblue" stroke="midnightblue" points="216.89,-311.1 206.72,-314.06 216.51,-318.09 216.89,-311.1"/>
</g>
<!-- Node6&#45;&gt;Node4 -->
<g id="edge11" class="edge">
<title>Node6&#45;&gt;Node4</title>
<path fill="none" stroke="midnightblue" d="M209.2,-323.56C220.12,-327.83 233.58,-332.43 245,-338 257.58,-344.14 270.65,-352.55 281.29,-359.19"/>
<polygon fill="midnightblue" stroke="midnightblue" points="210.24,-320.2 199.67,-319.55 207.53,-326.65 210.24,-320.2"/>
</g>
<!-- Node7 -->
<g id="node7" class="node">
<title>Node7</title>
<g id="a_node7"><a xlink:href="group__grp__output.html#ga0f962c09cd5d5eba99f1cba043cb3898" target="_top" xlink:title="Initialize the interface to the HDF5 library and open the output file.">
<polygon fill="white" stroke="black" points="0,-338.5 0,-357.5 94,-357.5 94,-338.5 0,-338.5"/>
<text text-anchor="middle" x="47" y="-345.5" font-family="Helvetica,sans-Serif" font-size="10.00">sphdf5::init_outfile</text>
</a>
</g>
</g>
<!-- Node6&#45;&gt;Node7 -->
<g id="edge9" class="edge">
<title>Node6&#45;&gt;Node7</title>
<path fill="none" stroke="midnightblue" d="M158.74,-317.62C136.91,-323.61 106.37,-331.98 82.89,-338.43"/>
<polygon fill="midnightblue" stroke="midnightblue" points="159.68,-320.99 168.39,-314.97 157.82,-314.24 159.68,-320.99"/>
</g>
<!-- Node7&#45;&gt;Node4 -->
<g id="edge10" class="edge">
<title>Node7&#45;&gt;Node4</title>
<path fill="none" stroke="midnightblue" d="M91.64,-360C103.95,-362.87 117.41,-365.52 130,-367 184.01,-373.33 248.09,-371.25 281.38,-369.46"/>
<polygon fill="midnightblue" stroke="midnightblue" points="92.16,-356.53 81.61,-357.56 90.5,-363.33 92.16,-356.53"/>
</g>
<!-- Node9&#45;&gt;Node9 -->
<g id="edge16" class="edge">
<title>Node9&#45;&gt;Node9</title>
<path fill="none" stroke="midnightblue" d="M450,-197.73C449.8,-203.46 442.3,-208 427.5,-208 405.47,-208 399.62,-197.93 409.94,-188.89"/>
<polygon fill="midnightblue" stroke="midnightblue" points="452.99,-195.91 445.06,-188.89 446.88,-199.33 452.99,-195.91"/>
</g>
<!-- Node9&#45;&gt;Node10 -->
<g id="edge17" class="edge">
<title>Node9&#45;&gt;Node10</title>
<path fill="none" stroke="midnightblue" d="M399.51,-176.5C378.38,-176.82 349.31,-179.32 329.22,-182.62"/>
<polygon fill="midnightblue" stroke="midnightblue" points="399.73,-180 409.74,-176.55 399.76,-173 399.73,-180"/>
</g>
<!-- Node10&#45;&gt;Node6 -->
<g id="edge23" class="edge">
<title>Node10&#45;&gt;Node6</title>
<path fill="none" stroke="midnightblue" d="M287.32,-207.33C262.65,-232.96 217.23,-280.15 197.76,-300.38"/>
<polygon fill="midnightblue" stroke="midnightblue" points="290.14,-209.45 294.55,-199.82 285.09,-204.6 290.14,-209.45"/>
</g>
<!-- Node10&#45;&gt;Node9 -->
<g id="edge18" class="edge">
<title>Node10&#45;&gt;Node9</title>
<path fill="none" stroke="midnightblue" d="M339.52,-193.34C362.37,-192.59 391.66,-189.74 409.74,-186.24"/>
<polygon fill="midnightblue" stroke="midnightblue" points="339.15,-189.85 329.22,-193.53 339.28,-196.84 339.15,-189.85"/>
</g>
<!-- Node10&#45;&gt;Node10 -->
<g id="edge22" class="edge">
<title>Node10&#45;&gt;Node10</title>
<path fill="none" stroke="midnightblue" d="M326.48,-209.4C325.05,-214.31 317.89,-218 305,-218 284.38,-218 278.42,-208.57 287.12,-199.76"/>
<polygon fill="midnightblue" stroke="midnightblue" points="329.66,-207.9 322.88,-199.76 323.1,-210.35 329.66,-207.9"/>
</g>
<!-- Node10&#45;&gt;Node11 -->
<g id="edge19" class="edge">
<title>Node10&#45;&gt;Node11</title>
<path fill="none" stroke="midnightblue" d="M270.66,-187.12C262.31,-188.09 253.35,-189.26 245,-190 178.38,-195.9 98.62,-195.71 64.64,-199.29"/>
<polygon fill="midnightblue" stroke="midnightblue" points="271.25,-190.58 280.82,-186.04 270.51,-183.62 271.25,-190.58"/>
</g>
<!-- Node12 -->
<g id="node12" class="node">
<title>Node12</title>
<g id="a_node12"><a xlink:href="group__grp__output.html#ga382822b303cbf8c56d6f54dcb379caf2" target="_top" xlink:title="read or write force&#45;derivative matrix .ext.sp.DF">
<polygon fill="white" stroke="black" points="155,-170.5 155,-189.5 220,-189.5 220,-170.5 155,-170.5"/>
<text text-anchor="middle" x="187.5" y="-177.5" font-family="Helvetica,sans-Serif" font-size="10.00">writereadgf</text>
</a>
</g>
</g>
<!-- Node10&#45;&gt;Node12 -->
<g id="edge24" class="edge">
<title>Node10&#45;&gt;Node12</title>
<path fill="none" stroke="midnightblue" d="M270.96,-180.97C255.05,-178.8 236.05,-177.17 220.3,-176.65"/>
<polygon fill="midnightblue" stroke="midnightblue" points="270.49,-184.44 280.9,-182.47 271.54,-177.52 270.49,-184.44"/>
</g>
<!-- Node11&#45;&gt;Node10 -->
<g id="edge21" class="edge">
<title>Node11&#45;&gt;Node10</title>
<path fill="none" stroke="midnightblue" d="M74.87,-210.37C112.85,-213.69 184.36,-213.37 245,-208 260.89,-206.59 279.02,-203.62 290.93,-199.52"/>
<polygon fill="midnightblue" stroke="midnightblue" points="74.96,-206.86 64.64,-209.28 74.22,-213.82 74.96,-206.86"/>
</g>
<!-- Node11&#45;&gt;Node11 -->
<g id="edge20" class="edge">
<title>Node11&#45;&gt;Node11</title>
<path fill="none" stroke="midnightblue" d="M72.47,-218.41C76,-225.59 67.51,-232 47,-232 19.66,-232 13.67,-220.61 29.06,-211.17"/>
<polygon fill="midnightblue" stroke="midnightblue" points="74.58,-215.58 64.94,-211.17 69.73,-220.62 74.58,-215.58"/>
</g>
<!-- Node12&#45;&gt;Node10 -->
<g id="edge26" class="edge">
<title>Node12&#45;&gt;Node10</title>
<path fill="none" stroke="midnightblue" d="M230.57,-190.17C247.56,-192.14 266.51,-193.45 280.9,-193.53"/>
<polygon fill="midnightblue" stroke="midnightblue" points="230.67,-186.65 220.3,-188.86 229.78,-193.59 230.67,-186.65"/>
</g>
<!-- Node12&#45;&gt;Node11 -->
<g id="edge25" class="edge">
<title>Node12&#45;&gt;Node11</title>
<path fill="none" stroke="midnightblue" d="M144.76,-187.23C117.8,-191.9 84.2,-197.73 64.52,-201.14"/>
<polygon fill="midnightblue" stroke="midnightblue" points="145.47,-190.66 154.73,-185.51 144.27,-183.76 145.47,-190.66"/>
</g>
<!-- Node14 -->
<g id="node14" class="node">
<title>Node14</title>
<g id="a_node14"><a xlink:href="dfp200_8f90.html#a55ea75395f8c71731451e1add3720c7e" target="_top" xlink:title="Given the field consistent with the constraints and the geometry, computes local quantites related to...">
<polygon fill="white" stroke="black" points="282,-56.5 282,-75.5 328,-75.5 328,-56.5 282,-56.5"/>
<text text-anchor="middle" x="305" y="-63.5" font-family="Helvetica,sans-Serif" font-size="10.00">dfp200</text>
</a>
</g>
</g>
<!-- Node13&#45;&gt;Node14 -->
<g id="edge29" class="edge">
<title>Node13&#45;&gt;Node14</title>
<path fill="none" stroke="midnightblue" d="M401.27,-90.43C379.71,-82.04 348.99,-72.43 328.32,-67.66"/>
<polygon fill="midnightblue" stroke="midnightblue" points="400.17,-93.76 410.75,-94.3 402.81,-87.28 400.17,-93.76"/>
</g>
<!-- Node14&#45;&gt;Node2 -->
<g id="edge30" class="edge">
<title>Node14&#45;&gt;Node2</title>
<path fill="none" stroke="midnightblue" d="M338.21,-59.92C378.13,-54.31 446.21,-51.27 490,-85 536.39,-120.74 545.03,-198.77 546.63,-226.21"/>
<polygon fill="midnightblue" stroke="midnightblue" points="337.57,-56.48 328.23,-61.46 338.64,-63.39 337.57,-56.48"/>
</g>
<!-- Node14&#45;&gt;Node13 -->
<g id="edge36" class="edge">
<title>Node14&#45;&gt;Node13</title>
<path fill="none" stroke="midnightblue" d="M330.78,-79.39C343.58,-84.39 359.7,-89.85 375.05,-94.46"/>
<polygon fill="midnightblue" stroke="midnightblue" points="331.88,-76.06 321.3,-75.5 329.22,-82.54 331.88,-76.06"/>
</g>
<!-- Node14&#45;&gt;Node14 -->
<g id="edge31" class="edge">
<title>Node14&#45;&gt;Node14</title>
<path fill="none" stroke="midnightblue" d="M326.48,-85.4C325.05,-90.31 317.89,-94 305,-94 284.38,-94 278.42,-84.57 287.12,-75.76"/>
<polygon fill="midnightblue" stroke="midnightblue" points="329.66,-83.9 322.88,-75.76 323.1,-86.35 329.66,-83.9"/>
</g>
<!-- Node15 -->
<g id="node15" class="node">
<title>Node15</title>
<g id="a_node15"><a xlink:href="dfp200_8f90.html#a7b64c7392b45d0042d8bd7379c0761a5" target="_top" xlink:title="Evaluate the derivative of the square of the magnetic field modulus. Add spectral constraint derivati...">
<polygon fill="white" stroke="black" points="150.5,-94.5 150.5,-113.5 224.5,-113.5 224.5,-94.5 150.5,-94.5"/>
<text text-anchor="middle" x="187.5" y="-101.5" font-family="Helvetica,sans-Serif" font-size="10.00">evaluate_dbb</text>
</a>
</g>
</g>
<!-- Node14&#45;&gt;Node15 -->
<g id="edge32" class="edge">
<title>Node14&#45;&gt;Node15</title>
<path fill="none" stroke="midnightblue" d="M271.95,-70.43C249.52,-76.63 220.6,-86.61 203.36,-94.41"/>
<polygon fill="midnightblue" stroke="midnightblue" points="272.94,-73.79 281.73,-67.87 271.17,-67.01 272.94,-73.79"/>
</g>
<!-- Node16 -->
<g id="node16" class="node">
<title>Node16</title>
<g id="a_node16"><a xlink:href="dfp200_8f90.html#a73ddf39ecc5228201fb643779e17cd36" target="_top" xlink:title="Evaluate mu and psip derivatives and store them in dmupfdx.">
<polygon fill="white" stroke="black" points="140,-56.5 140,-75.5 235,-75.5 235,-56.5 140,-56.5"/>
<text text-anchor="middle" x="187.5" y="-63.5" font-family="Helvetica,sans-Serif" font-size="10.00">evaluate_dmupfdx</text>
</a>
</g>
</g>
<!-- Node14&#45;&gt;Node16 -->
<g id="edge34" class="edge">
<title>Node14&#45;&gt;Node16</title>
<path fill="none" stroke="midnightblue" d="M271.47,-59.86C260.18,-59.28 247.28,-59.11 235.08,-59.36"/>
<polygon fill="midnightblue" stroke="midnightblue" points="271.52,-63.37 281.73,-60.54 271.99,-56.38 271.52,-63.37"/>
</g>
<!-- Node17 -->
<g id="node17" class="node">
<title>Node17</title>
<g id="a_node17"><a xlink:href="dfp200_8f90.html#a5e56f1f4b1e6df11a9cffa6237c37469" target="_top" xlink:title="This routine evaluates the value of the magnetic field once the interface is perturbed using matrix p...">
<polygon fill="white" stroke="black" points="130,-18.5 130,-37.5 245,-37.5 245,-18.5 130,-18.5"/>
<text text-anchor="middle" x="187.5" y="-25.5" font-family="Helvetica,sans-Serif" font-size="10.00">get_perturbed_solution</text>
</a>
</g>
</g>
<!-- Node14&#45;&gt;Node17 -->
<g id="edge37" class="edge">
<title>Node14&#45;&gt;Node17</title>
<path fill="none" stroke="midnightblue" d="M279.49,-52.3C267.37,-47.39 252.29,-42.08 237.9,-37.57"/>
<polygon fill="midnightblue" stroke="midnightblue" points="278.33,-55.61 288.9,-56.3 281.07,-49.17 278.33,-55.61"/>
</g>
<!-- Node15&#45;&gt;Node14 -->
<g id="edge33" class="edge">
<title>Node15&#45;&gt;Node14</title>
<path fill="none" stroke="midnightblue" d="M234.59,-95.46C253.93,-89.52 275.09,-81.92 288.9,-75.7"/>
<polygon fill="midnightblue" stroke="midnightblue" points="233.57,-92.11 224.99,-98.32 235.57,-98.82 233.57,-92.11"/>
</g>
<!-- Node16&#45;&gt;Node14 -->
<g id="edge35" class="edge">
<title>Node16&#45;&gt;Node14</title>
<path fill="none" stroke="midnightblue" d="M245.38,-72.75C258.3,-72.77 271.28,-72.34 281.73,-71.46"/>
<polygon fill="midnightblue" stroke="midnightblue" points="245.12,-69.25 235.08,-72.64 245.04,-76.25 245.12,-69.25"/>
</g>
<!-- Node17&#45;&gt;Node14 -->
<g id="edge38" class="edge">
<title>Node17&#45;&gt;Node14</title>
<path fill="none" stroke="midnightblue" d="M212.59,-41.53C232.96,-49.81 261.9,-59.28 281.73,-64.13"/>
<polygon fill="midnightblue" stroke="midnightblue" points="213.93,-38.3 203.36,-37.59 211.19,-44.74 213.93,-38.3"/>
</g>
<!-- Node18&#45;&gt;Node6 -->
<g id="edge41" class="edge">
<title>Node18&#45;&gt;Node6</title>
<path fill="none" stroke="midnightblue" d="M274.35,-269.86C253.02,-279.84 224.92,-292.97 206.78,-301.45"/>
<polygon fill="midnightblue" stroke="midnightblue" points="276.04,-272.94 283.62,-265.53 273.08,-266.59 276.04,-272.94"/>
</g>
<!-- Node18&#45;&gt;Node18 -->
<g id="edge40" class="edge">
<title>Node18&#45;&gt;Node18</title>
<path fill="none" stroke="midnightblue" d="M326.48,-275.4C325.05,-280.31 317.89,-284 305,-284 284.38,-284 278.42,-274.57 287.12,-265.76"/>
<polygon fill="midnightblue" stroke="midnightblue" points="329.66,-273.9 322.88,-265.76 323.1,-276.35 329.66,-273.9"/>
</g>
<!-- Node19&#45;&gt;Node19 -->
<g id="edge46" class="edge">
<title>Node19&#45;&gt;Node19</title>
<path fill="none" stroke="midnightblue" d="M449.82,-29.03C448.6,-34.13 441.16,-38 427.5,-38 406.17,-38 400.01,-28.57 409,-19.76"/>
<polygon fill="midnightblue" stroke="midnightblue" points="453.05,-27.67 446,-19.76 446.57,-30.34 453.05,-27.67"/>
</g>
<!-- Node20 -->
<g id="node20" class="node">
<title>Node20</title>
<g id="a_node20"><a xlink:href="group__grp__conjugate__gradient.html#ga25a3bae2ff2ee0469b045de0d033398b" target="_top" xlink:title="Use preconditioned conjugate gradient method to find minimum of energy functional.">
<polygon fill="white" stroke="black" points="281,-0.5 281,-19.5 329,-19.5 329,-0.5 281,-0.5"/>
<text text-anchor="middle" x="305" y="-7.5" font-family="Helvetica,sans-Serif" font-size="10.00">pc00aa</text>
</a>
</g>
</g>
<!-- Node19&#45;&gt;Node20 -->
<g id="edge44" class="edge">
<title>Node19&#45;&gt;Node20</title>
<path fill="none" stroke="midnightblue" d="M393.16,-10C372.81,-10 347.31,-10 329.16,-10"/>
<polygon fill="midnightblue" stroke="midnightblue" points="393.27,-13.5 403.27,-10 393.27,-6.5 393.27,-13.5"/>
</g>
<!-- Node20&#45;&gt;Node20 -->
<g id="edge45" class="edge">
<title>Node20&#45;&gt;Node20</title>
<path fill="none" stroke="midnightblue" d="M326.48,-29.4C325.05,-34.31 317.89,-38 305,-38 284.38,-38 278.42,-28.57 287.12,-19.76"/>
<polygon fill="midnightblue" stroke="midnightblue" points="329.66,-27.9 322.88,-19.76 323.1,-30.35 329.66,-27.9"/>
</g>
</g>
</svg>
