<?xml version="1.0" encoding="UTF-8" standalone="no"?>
<!DOCTYPE svg PUBLIC "-//W3C//DTD SVG 1.1//EN"
 "http://www.w3.org/Graphics/SVG/1.1/DTD/svg11.dtd">
<!-- Generated by graphviz version 2.49.3 (20211027.1534)
 -->
<!-- Title: sphdf5::mirror_input_to_outfile Pages: 1 -->
<svg width="275pt" height="52pt"
 viewBox="0.00 0.00 275.00 51.50" xmlns="http://www.w3.org/2000/svg" xmlns:xlink="http://www.w3.org/1999/xlink">
<g id="graph0" class="graph" transform="scale(1 1) rotate(0) translate(4 47.5)">
<title>sphdf5::mirror_input_to_outfile</title>
<polygon fill="white" stroke="transparent" points="-4,4 -4,-47.5 271,-47.5 271,4 -4,4"/>
<!-- Node1 -->
<g id="node1" class="node">
<title>Node1</title>
<g id="a_node1"><a xlink:title="Mirror input variables into output file.">
<polygon fill="#bfbfbf" stroke="black" points="0,-0.5 0,-30.5 101,-30.5 101,-0.5 0,-0.5"/>
<text text-anchor="start" x="8" y="-18.5" font-family="Helvetica,sans-Serif" font-size="10.00">sphdf5::mirror_input</text>
<text text-anchor="middle" x="50.5" y="-7.5" font-family="Helvetica,sans-Serif" font-size="10.00">_to_outfile</text>
</a>
</g>
</g>
<!-- Node2 -->
<g id="node2" class="node">
<title>Node2</title>
<g id="a_node2"><a xlink:href="group__grp__volume.html#gae4c62d20b8fef07f4471b5b0889ab005" target="_top" xlink:title="Computes volume of each region; and, if required, the derivatives of the volume with respect to the i...">
<polygon fill="white" stroke="black" points="137,-6 137,-25 185,-25 185,-6 137,-6"/>
<text text-anchor="middle" x="161" y="-13" font-family="Helvetica,sans-Serif" font-size="10.00">volume</text>
</a>
</g>
</g>
<!-- Node1&#45;&gt;Node2 -->
<g id="edge1" class="edge">
<title>Node1&#45;&gt;Node2</title>
<path fill="none" stroke="midnightblue" d="M101.3,-15.5C109.9,-15.5 118.65,-15.5 126.68,-15.5"/>
<polygon fill="midnightblue" stroke="midnightblue" points="126.74,-19 136.74,-15.5 126.74,-12 126.74,-19"/>
</g>
<!-- Node2&#45;&gt;Node2 -->
<g id="edge5" class="edge">
<title>Node2&#45;&gt;Node2</title>
<path fill="none" stroke="midnightblue" d="M148.36,-25.26C142.21,-34.07 146.43,-43.5 161,-43.5 169.88,-43.5 174.91,-40 176.1,-35.27"/>
<polygon fill="midnightblue" stroke="midnightblue" points="179.43,-34.13 173.64,-25.26 172.63,-35.8 179.43,-34.13"/>
</g>
<!-- Node3 -->
<g id="node3" class="node">
<title>Node3</title>
<g id="a_node3"><a xlink:href="group__grp__geometry.html#gaaca20aa60eaf39055f3c9d5c02a24ac2" target="_top" xlink:title="Calculates coordinates, , and metrics, using FFTs.">
<polygon fill="white" stroke="black" points="221,-6 221,-25 267,-25 267,-6 221,-6"/>
<text text-anchor="middle" x="244" y="-13" font-family="Helvetica,sans-Serif" font-size="10.00">coords</text>
</a>
</g>
</g>
<!-- Node2&#45;&gt;Node3 -->
<g id="edge2" class="edge">
<title>Node2&#45;&gt;Node3</title>
<path fill="none" stroke="midnightblue" d="M185.43,-9.31C193.25,-8.77 202.11,-8.62 210.49,-8.87"/>
<polygon fill="midnightblue" stroke="midnightblue" points="210.57,-12.38 220.74,-9.4 210.93,-5.39 210.57,-12.38"/>
</g>
<!-- Node3&#45;&gt;Node2 -->
<g id="edge4" class="edge">
<title>Node3&#45;&gt;Node2</title>
<path fill="none" stroke="midnightblue" d="M220.74,-21.6C212.94,-22.2 204,-22.38 195.49,-22.16"/>
<polygon fill="midnightblue" stroke="midnightblue" points="195.58,-18.66 185.43,-21.69 195.25,-25.65 195.58,-18.66"/>
</g>
<!-- Node3&#45;&gt;Node3 -->
<g id="edge3" class="edge">
<title>Node3&#45;&gt;Node3</title>
<path fill="none" stroke="midnightblue" d="M231.36,-25.26C225.21,-34.07 229.43,-43.5 244,-43.5 252.88,-43.5 257.91,-40 259.1,-35.27"/>
<polygon fill="midnightblue" stroke="midnightblue" points="262.43,-34.13 256.64,-25.26 255.63,-35.8 262.43,-34.13"/>
</g>
</g>
</svg>
