<?xml version="1.0" encoding="UTF-8" standalone="no"?>
<!DOCTYPE svg PUBLIC "-//W3C//DTD SVG 1.1//EN"
 "http://www.w3.org/Graphics/SVG/1.1/DTD/svg11.dtd">
<!-- Generated by graphviz version 2.44.1 (0)
 -->
<!-- Title: vacuumphi Pages: 1 -->
<svg width="237pt" height="28pt"
 viewBox="0.00 0.00 237.00 28.00" xmlns="http://www.w3.org/2000/svg" xmlns:xlink="http://www.w3.org/1999/xlink">
<g id="graph0" class="graph" transform="scale(1 1) rotate(0) translate(4 24)">
<title>vacuumphi</title>
<polygon fill="white" stroke="transparent" points="-4,4 -4,-24 233,-24 233,4 -4,4"/>
<!-- Node1 -->
<g id="node1" class="node">
<title>Node1</title>
<g id="a_node1"><a xlink:title="Compute vacuum magnetic scalar potential (?)">
<polygon fill="#bfbfbf" stroke="black" points="0,-0.5 0,-19.5 71,-19.5 71,-0.5 0,-0.5"/>
<text text-anchor="middle" x="35.5" y="-7.5" font-family="Helvetica,sans-Serif" font-size="10.00">vacuumphi</text>
</a>
</g>
</g>
<!-- Node2 -->
<g id="node2" class="node">
<title>Node2</title>
<g id="a_node2"><a xlink:href="group__grp__smooth__boundary.html#ga5d58e428e5062d645244ff572b06e117" target="_top" xlink:title="Constructs smooth approximation to wall.">
<polygon fill="white" stroke="black" points="107,-0.5 107,-19.5 162,-19.5 162,-0.5 107,-0.5"/>
<text text-anchor="middle" x="134.5" y="-7.5" font-family="Helvetica,sans-Serif" font-size="10.00">wa00aa</text>
</a>
</g>
</g>
<!-- Node1&#45;&gt;Node2 -->
<g id="edge1" class="edge">
<title>Node1&#45;&gt;Node2</title>
<path fill="none" stroke="midnightblue" d="M71.25,-3.5C79.5,-3.19 88.34,-3.17 96.68,-3.43"/>
<polygon fill="midnightblue" stroke="midnightblue" points="96.76,-6.93 106.91,-3.9 97.08,0.06 96.76,-6.93"/>
</g>
<!-- Node2&#45;&gt;Node1 -->
<g id="edge3" class="edge">
<title>Node2&#45;&gt;Node1</title>
<path fill="none" stroke="midnightblue" d="M106.91,-16.1C99,-16.6 90.1,-16.81 81.36,-16.73"/>
<polygon fill="midnightblue" stroke="midnightblue" points="81.32,-13.23 71.25,-16.5 81.16,-20.23 81.32,-13.23"/>
</g>
<!-- Node3 -->
<g id="node3" class="node">
<title>Node3</title>
<g id="a_node3"><a xlink:href="group__grp__numerics.html#ga041138109a57e651c57117bb4180409e" target="_top" xlink:title="Forward Fourier transform (fftw wrapper)">
<polygon fill="white" stroke="black" points="198,-0.5 198,-19.5 229,-19.5 229,-0.5 198,-0.5"/>
<text text-anchor="middle" x="213.5" y="-7.5" font-family="Helvetica,sans-Serif" font-size="10.00">tfft</text>
</a>
</g>
</g>
<!-- Node2&#45;&gt;Node3 -->
<g id="edge2" class="edge">
<title>Node2&#45;&gt;Node3</title>
<path fill="none" stroke="midnightblue" d="M162.43,-10C170.54,-10 179.41,-10 187.39,-10"/>
<polygon fill="midnightblue" stroke="midnightblue" points="187.59,-13.5 197.59,-10 187.59,-6.5 187.59,-13.5"/>
</g>
</g>
</svg>
