<?xml version="1.0" encoding="UTF-8" standalone="no"?>
<!DOCTYPE svg PUBLIC "-//W3C//DTD SVG 1.1//EN"
 "http://www.w3.org/Graphics/SVG/1.1/DTD/svg11.dtd">
<!-- Generated by graphviz version 3.0.0 (20220413.0106)
 -->
<!-- Title: bnorml Pages: 1 -->
<svg width="221pt" height="46pt"
 viewBox="0.00 0.00 221.00 46.00" xmlns="http://www.w3.org/2000/svg" xmlns:xlink="http://www.w3.org/1999/xlink">
<g id="graph0" class="graph" transform="scale(1 1) rotate(0) translate(4 42)">
<title>bnorml</title>
<polygon fill="white" stroke="transparent" points="-4,4 -4,-42 217,-42 217,4 -4,4"/>
<!-- Node1 -->
<g id="node1" class="node">
<title>Node1</title>
<g id="a_node1"><a xlink:title="Computes &#160;on the computational boundary, .">
<polygon fill="#bfbfbf" stroke="black" points="0,-0.5 0,-19.5 46,-19.5 46,-0.5 0,-0.5"/>
<text text-anchor="middle" x="23" y="-7.5" font-family="Helvetica,sans-Serif" font-size="10.00">bnorml</text>
</a>
</g>
</g>
<!-- Node1&#45;&gt;Node1 -->
<g id="edge1" class="edge">
<title>Node1&#45;&gt;Node1</title>
<path fill="none" stroke="midnightblue" d="M10.67,-19.76C4.67,-28.57 8.78,-38 23,-38 31.66,-38 36.58,-34.5 37.73,-29.77"/>
<polygon fill="midnightblue" stroke="midnightblue" points="41.07,-28.66 35.33,-19.76 34.26,-30.3 41.07,-28.66"/>
</g>
<!-- Node2 -->
<g id="node2" class="node">
<title>Node2</title>
<g id="a_node2"><a xlink:href="group__grp__free-boundary.html#ga180576a10002ebf3840fce98d56316bb" target="_top" xlink:title="Constructs the field created by the plasma currents, at an arbitrary, external location using virtual...">
<polygon fill="white" stroke="black" points="82,-0.5 82,-19.5 127,-19.5 127,-0.5 82,-0.5"/>
<text text-anchor="middle" x="104.5" y="-7.5" font-family="Helvetica,sans-Serif" font-size="10.00">casing</text>
</a>
</g>
</g>
<!-- Node1&#45;&gt;Node2 -->
<g id="edge2" class="edge">
<title>Node1&#45;&gt;Node2</title>
<path fill="none" stroke="midnightblue" d="M46.15,-10C54.05,-10 63.12,-10 71.68,-10"/>
<polygon fill="midnightblue" stroke="midnightblue" points="71.75,-13.5 81.75,-10 71.75,-6.5 71.75,-13.5"/>
</g>
<!-- Node2&#45;&gt;Node2 -->
<g id="edge3" class="edge">
<title>Node2&#45;&gt;Node2</title>
<path fill="none" stroke="midnightblue" d="M92.17,-19.76C86.17,-28.57 90.28,-38 104.5,-38 113.16,-38 118.08,-34.5 119.23,-29.77"/>
<polygon fill="midnightblue" stroke="midnightblue" points="122.57,-28.66 116.83,-19.76 115.76,-30.3 122.57,-28.66"/>
</g>
<!-- Node3 -->
<g id="node3" class="node">
<title>Node3</title>
<g id="a_node3"><a xlink:href="group__grp__free-boundary.html#ga281c12a5de84fddd3db4383b0df8627f" target="_top" xlink:title="Differential virtual casing integrand.">
<polygon fill="white" stroke="black" points="163,-0.5 163,-19.5 213,-19.5 213,-0.5 163,-0.5"/>
<text text-anchor="middle" x="188" y="-7.5" font-family="Helvetica,sans-Serif" font-size="10.00">dvcfield</text>
</a>
</g>
</g>
<!-- Node2&#45;&gt;Node3 -->
<g id="edge4" class="edge">
<title>Node2&#45;&gt;Node3</title>
<path fill="none" stroke="midnightblue" d="M127.34,-3.94C135.12,-3.33 144.08,-3.12 152.65,-3.32"/>
<polygon fill="midnightblue" stroke="midnightblue" points="152.66,-6.83 162.8,-3.77 152.97,0.16 152.66,-6.83"/>
</g>
<!-- Node3&#45;&gt;Node2 -->
<g id="edge5" class="edge">
<title>Node3&#45;&gt;Node2</title>
<path fill="none" stroke="midnightblue" d="M162.8,-16.23C154.89,-16.75 145.98,-16.88 137.59,-16.61"/>
<polygon fill="midnightblue" stroke="midnightblue" points="137.52,-13.1 127.34,-16.06 137.14,-20.09 137.52,-13.1"/>
</g>
</g>
</svg>
