<?xml version="1.0" encoding="UTF-8" standalone="no"?>
<!DOCTYPE svg PUBLIC "-//W3C//DTD SVG 1.1//EN"
 "http://www.w3.org/Graphics/SVG/1.1/DTD/svg11.dtd">
<!-- Generated by graphviz version 2.50.0 (20220203.2022)
 -->
<!-- Title: dforce Pages: 1 -->
<svg width="578pt" height="406pt"
 viewBox="0.00 0.00 578.32 406.00" xmlns="http://www.w3.org/2000/svg" xmlns:xlink="http://www.w3.org/1999/xlink">
<g id="graph0" class="graph" transform="scale(1 1) rotate(0) translate(4 402)">
<title>dforce</title>
<polygon fill="white" stroke="transparent" points="-4,4 -4,-402 574.32,-402 574.32,4 -4,4"/>
<!-- Node1 -->
<g id="node1" class="node">
<title>Node1</title>
<g id="a_node1"><a xlink:title="Calculates , where &#160;and , and .">
<polygon fill="#bfbfbf" stroke="black" points="526,-170.5 526,-189.5 570,-189.5 570,-170.5 526,-170.5"/>
<text text-anchor="middle" x="548" y="-177.5" font-family="Helvetica,sans-Serif" font-size="10.00">dforce</text>
</a>
</g>
</g>
<!-- Node1&#45;&gt;Node1 -->
<g id="edge11" class="edge">
<title>Node1&#45;&gt;Node1</title>
<path fill="none" stroke="midnightblue" d="M570.32,-199.03C569.1,-204.13 561.66,-208 548,-208 526.67,-208 520.51,-198.57 529.5,-189.76"/>
<polygon fill="midnightblue" stroke="midnightblue" points="573.55,-197.67 566.5,-189.76 567.07,-200.34 573.55,-197.67"/>
</g>
<!-- Node2 -->
<g id="node2" class="node">
<title>Node2</title>
<g id="a_node2"><a xlink:href="namespaceallglobal.html#a7824bc37519fe88336534ce90ab2af16" target="_top" xlink:title=" ">
<polygon fill="white" stroke="black" points="370.5,-340.5 370.5,-359.5 484.5,-359.5 484.5,-340.5 370.5,-340.5"/>
<text text-anchor="middle" x="427.5" y="-347.5" font-family="Helvetica,sans-Serif" font-size="10.00">allglobal::check_inputs</text>
</a>
</g>
</g>
<!-- Node1&#45;&gt;Node2 -->
<g id="edge1" class="edge">
<title>Node1&#45;&gt;Node2</title>
<path fill="none" stroke="midnightblue" d="M544.44,-199.57C539.42,-230.43 525.47,-290.53 490,-326 483.68,-332.32 475.5,-337.02 467.18,-340.49"/>
<polygon fill="midnightblue" stroke="midnightblue" points="547.91,-200.03 545.91,-189.62 540.99,-199 547.91,-200.03"/>
</g>
<!-- Node5 -->
<g id="node5" class="node">
<title>Node5</title>
<g id="a_node5"><a xlink:href="xspech_8f90.html#a48f45478dc2c9f70ea8aa1c60ad06503" target="_top" xlink:title="This is the main &quot;driver&quot; for the physics part of SPEC.">
<polygon fill="white" stroke="black" points="168.5,-264.5 168.5,-283.5 206.5,-283.5 206.5,-264.5 168.5,-264.5"/>
<text text-anchor="middle" x="187.5" y="-271.5" font-family="Helvetica,sans-Serif" font-size="10.00">spec</text>
</a>
</g>
</g>
<!-- Node1&#45;&gt;Node5 -->
<g id="edge44" class="edge">
<title>Node1&#45;&gt;Node5</title>
<path fill="none" stroke="midnightblue" d="M538.89,-198.89C529.8,-217.7 513.23,-245.89 490,-261 398.66,-320.44 256.71,-291.87 206.69,-279.07"/>
<polygon fill="midnightblue" stroke="midnightblue" points="542.19,-200.1 543.17,-189.55 535.82,-197.19 542.19,-200.1"/>
</g>
<!-- Node8 -->
<g id="node8" class="node">
<title>Node8</title>
<g id="a_node8"><a xlink:href="group__grp__force__driver.html#gabbc245b3884ee8d8d3e2a52f25149f78" target="_top" xlink:title="fcn1">
<polygon fill="white" stroke="black" points="410,-170.5 410,-189.5 445,-189.5 445,-170.5 410,-170.5"/>
<text text-anchor="middle" x="427.5" y="-177.5" font-family="Helvetica,sans-Serif" font-size="10.00">fcn1</text>
</a>
</g>
</g>
<!-- Node1&#45;&gt;Node8 -->
<g id="edge12" class="edge">
<title>Node1&#45;&gt;Node8</title>
<path fill="none" stroke="midnightblue" d="M515.69,-180C493.13,-180 463.55,-180 445.29,-180"/>
<polygon fill="midnightblue" stroke="midnightblue" points="515.81,-183.5 525.81,-180 515.81,-176.5 515.81,-183.5"/>
</g>
<!-- Node9 -->
<g id="node9" class="node">
<title>Node9</title>
<g id="a_node9"><a xlink:href="group__grp__force__driver.html#gaec14f81fbdbedafbc4189489ec8ae178" target="_top" xlink:title="Employs Newton method to find , where &#160;and &#160;is defined in dforce() .">
<polygon fill="white" stroke="black" points="281,-180.5 281,-199.5 329,-199.5 329,-180.5 281,-180.5"/>
<text text-anchor="middle" x="305" y="-187.5" font-family="Helvetica,sans-Serif" font-size="10.00">newton</text>
</a>
</g>
</g>
<!-- Node1&#45;&gt;Node9 -->
<g id="edge39" class="edge">
<title>Node1&#45;&gt;Node9</title>
<path fill="none" stroke="midnightblue" d="M528.21,-196.16C517.71,-204.12 503.96,-212.87 490,-217 436.73,-232.77 419.28,-228.83 365,-217 349.59,-213.64 333.39,-205.88 321.87,-199.54"/>
<polygon fill="midnightblue" stroke="midnightblue" points="530.56,-198.76 536.19,-189.79 526.2,-193.29 530.56,-198.76"/>
</g>
<!-- Node10 -->
<g id="node10" class="node">
<title>Node10</title>
<g id="a_node10"><a xlink:href="group__grp__force__driver.html#ga8ccd6c7d901872702521d0a0edf95412" target="_top" xlink:title="fcn2">
<polygon fill="white" stroke="black" points="29.5,-203.5 29.5,-222.5 64.5,-222.5 64.5,-203.5 29.5,-203.5"/>
<text text-anchor="middle" x="47" y="-210.5" font-family="Helvetica,sans-Serif" font-size="10.00">fcn2</text>
</a>
</g>
</g>
<!-- Node1&#45;&gt;Node10 -->
<g id="edge24" class="edge">
<title>Node1&#45;&gt;Node10</title>
<path fill="none" stroke="midnightblue" d="M516.06,-167.68C507.74,-164.93 498.64,-162.4 490,-161 332.07,-135.37 283.65,-116.39 130,-161 101.51,-169.27 73.43,-190.75 58.67,-203.36"/>
<polygon fill="midnightblue" stroke="midnightblue" points="515.16,-171.08 525.76,-171.11 517.49,-164.48 515.16,-171.08"/>
</g>
<!-- Node12 -->
<g id="node12" class="node">
<title>Node12</title>
<g id="a_node12"><a xlink:href="dfp200_8f90.html#a6aca59cf350d7b1941f8389d50945a43" target="_top" xlink:title="get LU Beltrami matrices">
<polygon fill="white" stroke="black" points="365,-94.5 365,-113.5 490,-113.5 490,-94.5 365,-94.5"/>
<text text-anchor="middle" x="427.5" y="-101.5" font-family="Helvetica,sans-Serif" font-size="10.00">get_lu_beltrami_matrices</text>
</a>
</g>
</g>
<!-- Node1&#45;&gt;Node12 -->
<g id="edge25" class="edge">
<title>Node1&#45;&gt;Node12</title>
<path fill="none" stroke="midnightblue" d="M531.56,-162.96C520.77,-151.85 505.57,-137.67 490,-128 480.65,-122.19 469.67,-117.37 459.59,-113.6"/>
<polygon fill="midnightblue" stroke="midnightblue" points="529.17,-165.53 538.57,-170.41 534.26,-160.73 529.17,-165.53"/>
</g>
<!-- Node17 -->
<g id="node17" class="node">
<title>Node17</title>
<g id="a_node17"><a xlink:href="group__grp__diagnostics.html#ga7401b50ec10c6598ee4a8112717a63ec" target="_top" xlink:title="Computes eigenvalues and eigenvectors of derivative matrix, .">
<polygon fill="white" stroke="black" points="282.5,-246.5 282.5,-265.5 327.5,-265.5 327.5,-246.5 282.5,-246.5"/>
<text text-anchor="middle" x="305" y="-253.5" font-family="Helvetica,sans-Serif" font-size="10.00">hesian</text>
</a>
</g>
</g>
<!-- Node1&#45;&gt;Node17 -->
<g id="edge36" class="edge">
<title>Node1&#45;&gt;Node17</title>
<path fill="none" stroke="midnightblue" d="M533.97,-198.14C523.61,-211.03 507.93,-227.51 490,-236 435.99,-261.59 363.33,-260.55 327.63,-258.07"/>
<polygon fill="midnightblue" stroke="midnightblue" points="536.95,-200 540.24,-189.93 531.39,-195.74 536.95,-200"/>
</g>
<!-- Node18 -->
<g id="node18" class="node">
<title>Node18</title>
<g id="a_node18"><a xlink:href="group__grp__conjugate__gradient.html#ga4d8415226e62a9fdb42b0fd0b464251e" target="_top" xlink:title="Returns the energy functional and it&#39;s derivatives with respect to geometry.">
<polygon fill="white" stroke="black" points="403.5,-0.5 403.5,-19.5 451.5,-19.5 451.5,-0.5 403.5,-0.5"/>
<text text-anchor="middle" x="427.5" y="-7.5" font-family="Helvetica,sans-Serif" font-size="10.00">pc00ab</text>
</a>
</g>
</g>
<!-- Node1&#45;&gt;Node18 -->
<g id="edge40" class="edge">
<title>Node1&#45;&gt;Node18</title>
<path fill="none" stroke="midnightblue" d="M542.02,-160.64C534.37,-133.89 517.67,-85.16 490,-52 478.49,-38.2 461.35,-27 448.08,-19.65"/>
<polygon fill="midnightblue" stroke="midnightblue" points="538.66,-161.63 544.66,-170.35 545.41,-159.78 538.66,-161.63"/>
</g>
<!-- Node3 -->
<g id="node3" class="node">
<title>Node3</title>
<g id="a_node3"><a xlink:href="xspech_8f90.html#a9fdc71dffd7c61ee4588a3f80d3ab9ce" target="_top" xlink:title="Main subroutine of SPEC.">
<polygon fill="white" stroke="black" points="281.5,-340.5 281.5,-359.5 328.5,-359.5 328.5,-340.5 281.5,-340.5"/>
<text text-anchor="middle" x="305" y="-347.5" font-family="Helvetica,sans-Serif" font-size="10.00">xspech</text>
</a>
</g>
</g>
<!-- Node2&#45;&gt;Node3 -->
<g id="edge2" class="edge">
<title>Node2&#45;&gt;Node3</title>
<path fill="none" stroke="midnightblue" d="M360.45,-350C349.06,-350 337.95,-350 328.77,-350"/>
<polygon fill="midnightblue" stroke="midnightblue" points="360.48,-353.5 370.48,-350 360.48,-346.5 360.48,-353.5"/>
</g>
<!-- Node3&#45;&gt;Node3 -->
<g id="edge10" class="edge">
<title>Node3&#45;&gt;Node3</title>
<path fill="none" stroke="midnightblue" d="M326.48,-369.4C325.05,-374.31 317.89,-378 305,-378 284.38,-378 278.42,-368.57 287.12,-359.76"/>
<polygon fill="midnightblue" stroke="midnightblue" points="329.66,-367.9 322.88,-359.76 323.1,-370.35 329.66,-367.9"/>
</g>
<!-- Node4 -->
<g id="node4" class="node">
<title>Node4</title>
<g id="a_node4"><a xlink:href="xspech_8f90.html#a1451823a7b97101a797de616250752c1" target="_top" xlink:title="Final diagnostics.">
<polygon fill="white" stroke="black" points="143,-378.5 143,-397.5 232,-397.5 232,-378.5 143,-378.5"/>
<text text-anchor="middle" x="187.5" y="-385.5" font-family="Helvetica,sans-Serif" font-size="10.00">final_diagnostics</text>
</a>
</g>
</g>
<!-- Node3&#45;&gt;Node4 -->
<g id="edge3" class="edge">
<title>Node3&#45;&gt;Node4</title>
<path fill="none" stroke="midnightblue" d="M271.67,-354.51C249.25,-360.72 220.45,-370.67 203.29,-378.44"/>
<polygon fill="midnightblue" stroke="midnightblue" points="272.67,-357.86 281.46,-351.94 270.9,-351.09 272.67,-357.86"/>
</g>
<!-- Node3&#45;&gt;Node5 -->
<g id="edge5" class="edge">
<title>Node3&#45;&gt;Node5</title>
<path fill="none" stroke="midnightblue" d="M292.58,-332.49C277.01,-313.75 250.43,-287.3 245,-284 233.15,-276.8 218.23,-271.93 206.69,-270.21"/>
<polygon fill="midnightblue" stroke="midnightblue" points="289.91,-334.76 298.84,-340.45 295.41,-330.43 289.91,-334.76"/>
</g>
<!-- Node7 -->
<g id="node7" class="node">
<title>Node7</title>
<g id="a_node7"><a xlink:href="xspech_8f90.html#a95271e8805067f801b5d4e524d6901d4" target="_top" xlink:title="Main program of SPEC.">
<polygon fill="white" stroke="black" points="155.5,-302.5 155.5,-321.5 219.5,-321.5 219.5,-302.5 155.5,-302.5"/>
<text text-anchor="middle" x="187.5" y="-309.5" font-family="Helvetica,sans-Serif" font-size="10.00">spec_main</text>
</a>
</g>
</g>
<!-- Node3&#45;&gt;Node7 -->
<g id="edge9" class="edge">
<title>Node3&#45;&gt;Node7</title>
<path fill="none" stroke="midnightblue" d="M271.92,-339.45C254.89,-333.84 234.12,-327.01 217.57,-321.56"/>
<polygon fill="midnightblue" stroke="midnightblue" points="270.86,-342.78 281.46,-342.58 273.05,-336.13 270.86,-342.78"/>
</g>
<!-- Node4&#45;&gt;Node3 -->
<g id="edge4" class="edge">
<title>Node4&#45;&gt;Node3</title>
<path fill="none" stroke="midnightblue" d="M242.21,-377.06C259.31,-371.56 276.89,-365.11 288.9,-359.7"/>
<polygon fill="midnightblue" stroke="midnightblue" points="240.75,-373.85 232.25,-380.18 242.83,-380.54 240.75,-373.85"/>
</g>
<!-- Node5&#45;&gt;Node3 -->
<g id="edge8" class="edge">
<title>Node5&#45;&gt;Node3</title>
<path fill="none" stroke="midnightblue" d="M210.9,-287.18C221.7,-291.11 234.55,-295.64 245,-302 249.9,-304.98 271.97,-326.76 287.68,-340.27"/>
<polygon fill="midnightblue" stroke="midnightblue" points="211.91,-283.82 201.31,-283.56 209.43,-290.36 211.91,-283.82"/>
</g>
<!-- Node6 -->
<g id="node6" class="node">
<title>Node6</title>
<g id="a_node6"><a xlink:href="group__grp__output.html#ga0f962c09cd5d5eba99f1cba043cb3898" target="_top" xlink:title="Initialize the interface to the HDF5 library and open the output file.">
<polygon fill="white" stroke="black" points="0,-278.5 0,-297.5 94,-297.5 94,-278.5 0,-278.5"/>
<text text-anchor="middle" x="47" y="-285.5" font-family="Helvetica,sans-Serif" font-size="10.00">sphdf5::init_outfile</text>
</a>
</g>
</g>
<!-- Node5&#45;&gt;Node6 -->
<g id="edge6" class="edge">
<title>Node5&#45;&gt;Node6</title>
<path fill="none" stroke="midnightblue" d="M158.31,-276.85C139.87,-278.71 115.36,-281.19 94.12,-283.34"/>
<polygon fill="midnightblue" stroke="midnightblue" points="158.8,-280.32 168.39,-275.83 158.09,-273.35 158.8,-280.32"/>
</g>
<!-- Node6&#45;&gt;Node3 -->
<g id="edge7" class="edge">
<title>Node6&#45;&gt;Node3</title>
<path fill="none" stroke="midnightblue" d="M70.7,-302.88C86.63,-312.55 108.79,-324.54 130,-331 182.61,-347.04 247.81,-349.89 281.49,-350.19"/>
<polygon fill="midnightblue" stroke="midnightblue" points="72.44,-299.83 62.1,-297.51 68.73,-305.77 72.44,-299.83"/>
</g>
<!-- Node8&#45;&gt;Node8 -->
<g id="edge13" class="edge">
<title>Node8&#45;&gt;Node8</title>
<path fill="none" stroke="midnightblue" d="M450,-197.73C449.8,-203.46 442.3,-208 427.5,-208 405.47,-208 399.62,-197.93 409.94,-188.89"/>
<polygon fill="midnightblue" stroke="midnightblue" points="452.99,-195.91 445.06,-188.89 446.88,-199.33 452.99,-195.91"/>
</g>
<!-- Node8&#45;&gt;Node9 -->
<g id="edge14" class="edge">
<title>Node8&#45;&gt;Node9</title>
<path fill="none" stroke="midnightblue" d="M399.51,-176.5C378.38,-176.82 349.31,-179.32 329.22,-182.62"/>
<polygon fill="midnightblue" stroke="midnightblue" points="399.73,-180 409.74,-176.55 399.76,-173 399.73,-180"/>
</g>
<!-- Node9&#45;&gt;Node5 -->
<g id="edge20" class="edge">
<title>Node9&#45;&gt;Node5</title>
<path fill="none" stroke="midnightblue" d="M290.07,-207.5C278.97,-220.57 262.43,-238.13 245,-250 233.2,-258.04 218.27,-264.24 206.72,-268.32"/>
<polygon fill="midnightblue" stroke="midnightblue" points="292.87,-209.61 296.54,-199.68 287.47,-205.16 292.87,-209.61"/>
</g>
<!-- Node9&#45;&gt;Node8 -->
<g id="edge15" class="edge">
<title>Node9&#45;&gt;Node8</title>
<path fill="none" stroke="midnightblue" d="M339.52,-193.34C362.37,-192.59 391.66,-189.74 409.74,-186.24"/>
<polygon fill="midnightblue" stroke="midnightblue" points="339.15,-189.85 329.22,-193.53 339.28,-196.84 339.15,-189.85"/>
</g>
<!-- Node9&#45;&gt;Node9 -->
<g id="edge19" class="edge">
<title>Node9&#45;&gt;Node9</title>
<path fill="none" stroke="midnightblue" d="M326.48,-209.4C325.05,-214.31 317.89,-218 305,-218 284.38,-218 278.42,-208.57 287.12,-199.76"/>
<polygon fill="midnightblue" stroke="midnightblue" points="329.66,-207.9 322.88,-199.76 323.1,-210.35 329.66,-207.9"/>
</g>
<!-- Node9&#45;&gt;Node10 -->
<g id="edge16" class="edge">
<title>Node9&#45;&gt;Node10</title>
<path fill="none" stroke="midnightblue" d="M270.63,-186.85C262.28,-187.83 253.33,-189.07 245,-190 178.38,-197.44 98.62,-201.68 64.65,-207.28"/>
<polygon fill="midnightblue" stroke="midnightblue" points="271.21,-190.31 280.8,-185.8 270.49,-183.35 271.21,-190.31"/>
</g>
<!-- Node11 -->
<g id="node11" class="node">
<title>Node11</title>
<g id="a_node11"><a xlink:href="group__grp__force__driver.html#ga382822b303cbf8c56d6f54dcb379caf2" target="_top" xlink:title="read or write force&#45;derivative matrix">
<polygon fill="white" stroke="black" points="155,-170.5 155,-189.5 220,-189.5 220,-170.5 155,-170.5"/>
<text text-anchor="middle" x="187.5" y="-177.5" font-family="Helvetica,sans-Serif" font-size="10.00">writereadgf</text>
</a>
</g>
</g>
<!-- Node9&#45;&gt;Node11 -->
<g id="edge21" class="edge">
<title>Node9&#45;&gt;Node11</title>
<path fill="none" stroke="midnightblue" d="M270.96,-180.97C255.05,-178.8 236.05,-177.17 220.3,-176.65"/>
<polygon fill="midnightblue" stroke="midnightblue" points="270.49,-184.44 280.9,-182.47 271.54,-177.52 270.49,-184.44"/>
</g>
<!-- Node10&#45;&gt;Node9 -->
<g id="edge18" class="edge">
<title>Node10&#45;&gt;Node9</title>
<path fill="none" stroke="midnightblue" d="M74.87,-217.75C112.85,-218.89 184.37,-214.77 245,-208 260.65,-206.25 278.52,-203.41 290.45,-199.5"/>
<polygon fill="midnightblue" stroke="midnightblue" points="74.8,-214.25 64.65,-217.26 74.47,-221.24 74.8,-214.25"/>
</g>
<!-- Node10&#45;&gt;Node10 -->
<g id="edge17" class="edge">
<title>Node10&#45;&gt;Node10</title>
<path fill="none" stroke="midnightblue" d="M72.47,-227.41C76,-234.59 67.51,-241 47,-241 19.66,-241 13.67,-229.61 29.06,-220.17"/>
<polygon fill="midnightblue" stroke="midnightblue" points="74.58,-224.58 64.94,-220.17 69.73,-229.62 74.58,-224.58"/>
</g>
<!-- Node11&#45;&gt;Node9 -->
<g id="edge23" class="edge">
<title>Node11&#45;&gt;Node9</title>
<path fill="none" stroke="midnightblue" d="M230.57,-190.17C247.56,-192.14 266.51,-193.45 280.9,-193.53"/>
<polygon fill="midnightblue" stroke="midnightblue" points="230.67,-186.65 220.3,-188.86 229.78,-193.59 230.67,-186.65"/>
</g>
<!-- Node11&#45;&gt;Node10 -->
<g id="edge22" class="edge">
<title>Node11&#45;&gt;Node10</title>
<path fill="none" stroke="midnightblue" d="M144.76,-189.95C117.8,-196.37 84.2,-204.38 64.52,-209.06"/>
<polygon fill="midnightblue" stroke="midnightblue" points="145.81,-193.29 154.73,-187.57 144.19,-186.48 145.81,-193.29"/>
</g>
<!-- Node13 -->
<g id="node13" class="node">
<title>Node13</title>
<g id="a_node13"><a xlink:href="dfp200_8f90.html#a55ea75395f8c71731451e1add3720c7e" target="_top" xlink:title="Given the field consistent with the constraints and the geometry, computes local quantites related to...">
<polygon fill="white" stroke="black" points="282,-56.5 282,-75.5 328,-75.5 328,-56.5 282,-56.5"/>
<text text-anchor="middle" x="305" y="-63.5" font-family="Helvetica,sans-Serif" font-size="10.00">dfp200</text>
</a>
</g>
</g>
<!-- Node12&#45;&gt;Node13 -->
<g id="edge26" class="edge">
<title>Node12&#45;&gt;Node13</title>
<path fill="none" stroke="midnightblue" d="M401.27,-90.43C379.71,-82.04 348.99,-72.43 328.32,-67.66"/>
<polygon fill="midnightblue" stroke="midnightblue" points="400.17,-93.76 410.75,-94.3 402.81,-87.28 400.17,-93.76"/>
</g>
<!-- Node13&#45;&gt;Node1 -->
<g id="edge27" class="edge">
<title>Node13&#45;&gt;Node1</title>
<path fill="none" stroke="midnightblue" d="M338.17,-61.13C377.26,-56.94 443.71,-55.55 490,-85 521.97,-105.34 538.49,-150.63 544.41,-170.43"/>
<polygon fill="midnightblue" stroke="midnightblue" points="337.66,-57.67 328.15,-62.33 338.49,-64.62 337.66,-57.67"/>
</g>
<!-- Node13&#45;&gt;Node12 -->
<g id="edge33" class="edge">
<title>Node13&#45;&gt;Node12</title>
<path fill="none" stroke="midnightblue" d="M330.78,-79.39C343.58,-84.39 359.7,-89.85 375.05,-94.46"/>
<polygon fill="midnightblue" stroke="midnightblue" points="331.88,-76.06 321.3,-75.5 329.22,-82.54 331.88,-76.06"/>
</g>
<!-- Node13&#45;&gt;Node13 -->
<g id="edge28" class="edge">
<title>Node13&#45;&gt;Node13</title>
<path fill="none" stroke="midnightblue" d="M326.48,-85.4C325.05,-90.31 317.89,-94 305,-94 284.38,-94 278.42,-84.57 287.12,-75.76"/>
<polygon fill="midnightblue" stroke="midnightblue" points="329.66,-83.9 322.88,-75.76 323.1,-86.35 329.66,-83.9"/>
</g>
<!-- Node14 -->
<g id="node14" class="node">
<title>Node14</title>
<g id="a_node14"><a xlink:href="dfp200_8f90.html#a7b64c7392b45d0042d8bd7379c0761a5" target="_top" xlink:title="Evaluate the derivative of the square of the magnetic field modulus. Add spectral constraint derivati...">
<polygon fill="white" stroke="black" points="150.5,-94.5 150.5,-113.5 224.5,-113.5 224.5,-94.5 150.5,-94.5"/>
<text text-anchor="middle" x="187.5" y="-101.5" font-family="Helvetica,sans-Serif" font-size="10.00">evaluate_dbb</text>
</a>
</g>
</g>
<!-- Node13&#45;&gt;Node14 -->
<g id="edge29" class="edge">
<title>Node13&#45;&gt;Node14</title>
<path fill="none" stroke="midnightblue" d="M271.95,-70.43C249.52,-76.63 220.6,-86.61 203.36,-94.41"/>
<polygon fill="midnightblue" stroke="midnightblue" points="272.94,-73.79 281.73,-67.87 271.17,-67.01 272.94,-73.79"/>
</g>
<!-- Node15 -->
<g id="node15" class="node">
<title>Node15</title>
<g id="a_node15"><a xlink:href="dfp200_8f90.html#a73ddf39ecc5228201fb643779e17cd36" target="_top" xlink:title="Evaluate mu and psip derivatives and store them in dmupfdx.">
<polygon fill="white" stroke="black" points="140,-56.5 140,-75.5 235,-75.5 235,-56.5 140,-56.5"/>
<text text-anchor="middle" x="187.5" y="-63.5" font-family="Helvetica,sans-Serif" font-size="10.00">evaluate_dmupfdx</text>
</a>
</g>
</g>
<!-- Node13&#45;&gt;Node15 -->
<g id="edge31" class="edge">
<title>Node13&#45;&gt;Node15</title>
<path fill="none" stroke="midnightblue" d="M271.47,-59.86C260.18,-59.28 247.28,-59.11 235.08,-59.36"/>
<polygon fill="midnightblue" stroke="midnightblue" points="271.52,-63.37 281.73,-60.54 271.99,-56.38 271.52,-63.37"/>
</g>
<!-- Node16 -->
<g id="node16" class="node">
<title>Node16</title>
<g id="a_node16"><a xlink:href="dfp200_8f90.html#a5e56f1f4b1e6df11a9cffa6237c37469" target="_top" xlink:title="This routine evaluates the value of the magnetic field once the interface is perturbed using matrix p...">
<polygon fill="white" stroke="black" points="130,-18.5 130,-37.5 245,-37.5 245,-18.5 130,-18.5"/>
<text text-anchor="middle" x="187.5" y="-25.5" font-family="Helvetica,sans-Serif" font-size="10.00">get_perturbed_solution</text>
</a>
</g>
</g>
<!-- Node13&#45;&gt;Node16 -->
<g id="edge34" class="edge">
<title>Node13&#45;&gt;Node16</title>
<path fill="none" stroke="midnightblue" d="M279.49,-52.3C267.37,-47.39 252.29,-42.08 237.9,-37.57"/>
<polygon fill="midnightblue" stroke="midnightblue" points="278.33,-55.61 288.9,-56.3 281.07,-49.17 278.33,-55.61"/>
</g>
<!-- Node14&#45;&gt;Node13 -->
<g id="edge30" class="edge">
<title>Node14&#45;&gt;Node13</title>
<path fill="none" stroke="midnightblue" d="M234.59,-95.46C253.93,-89.52 275.09,-81.92 288.9,-75.7"/>
<polygon fill="midnightblue" stroke="midnightblue" points="233.57,-92.11 224.99,-98.32 235.57,-98.82 233.57,-92.11"/>
</g>
<!-- Node15&#45;&gt;Node13 -->
<g id="edge32" class="edge">
<title>Node15&#45;&gt;Node13</title>
<path fill="none" stroke="midnightblue" d="M245.38,-72.75C258.3,-72.77 271.28,-72.34 281.73,-71.46"/>
<polygon fill="midnightblue" stroke="midnightblue" points="245.12,-69.25 235.08,-72.64 245.04,-76.25 245.12,-69.25"/>
</g>
<!-- Node16&#45;&gt;Node13 -->
<g id="edge35" class="edge">
<title>Node16&#45;&gt;Node13</title>
<path fill="none" stroke="midnightblue" d="M212.59,-41.53C232.96,-49.81 261.9,-59.28 281.73,-64.13"/>
<polygon fill="midnightblue" stroke="midnightblue" points="213.93,-38.3 203.36,-37.59 211.19,-44.74 213.93,-38.3"/>
</g>
<!-- Node17&#45;&gt;Node5 -->
<g id="edge38" class="edge">
<title>Node17&#45;&gt;Node5</title>
<path fill="none" stroke="midnightblue" d="M272.17,-260.96C251.1,-264.24 224.23,-268.43 206.71,-271.16"/>
<polygon fill="midnightblue" stroke="midnightblue" points="272.93,-264.38 282.28,-259.39 271.86,-257.47 272.93,-264.38"/>
</g>
<!-- Node17&#45;&gt;Node17 -->
<g id="edge37" class="edge">
<title>Node17&#45;&gt;Node17</title>
<path fill="none" stroke="midnightblue" d="M326.48,-275.4C325.05,-280.31 317.89,-284 305,-284 284.38,-284 278.42,-274.57 287.12,-265.76"/>
<polygon fill="midnightblue" stroke="midnightblue" points="329.66,-273.9 322.88,-265.76 323.1,-276.35 329.66,-273.9"/>
</g>
<!-- Node18&#45;&gt;Node18 -->
<g id="edge43" class="edge">
<title>Node18&#45;&gt;Node18</title>
<path fill="none" stroke="midnightblue" d="M449.82,-29.03C448.6,-34.13 441.16,-38 427.5,-38 406.17,-38 400.01,-28.57 409,-19.76"/>
<polygon fill="midnightblue" stroke="midnightblue" points="453.05,-27.67 446,-19.76 446.57,-30.34 453.05,-27.67"/>
</g>
<!-- Node19 -->
<g id="node19" class="node">
<title>Node19</title>
<g id="a_node19"><a xlink:href="group__grp__conjugate__gradient.html#ga25a3bae2ff2ee0469b045de0d033398b" target="_top" xlink:title="Use preconditioned conjugate gradient method to find minimum of energy functional.">
<polygon fill="white" stroke="black" points="281,-0.5 281,-19.5 329,-19.5 329,-0.5 281,-0.5"/>
<text text-anchor="middle" x="305" y="-7.5" font-family="Helvetica,sans-Serif" font-size="10.00">pc00aa</text>
</a>
</g>
</g>
<!-- Node18&#45;&gt;Node19 -->
<g id="edge41" class="edge">
<title>Node18&#45;&gt;Node19</title>
<path fill="none" stroke="midnightblue" d="M393.16,-10C372.81,-10 347.31,-10 329.16,-10"/>
<polygon fill="midnightblue" stroke="midnightblue" points="393.27,-13.5 403.27,-10 393.27,-6.5 393.27,-13.5"/>
</g>
<!-- Node19&#45;&gt;Node19 -->
<g id="edge42" class="edge">
<title>Node19&#45;&gt;Node19</title>
<path fill="none" stroke="midnightblue" d="M326.48,-29.4C325.05,-34.31 317.89,-38 305,-38 284.38,-38 278.42,-28.57 287.12,-19.76"/>
<polygon fill="midnightblue" stroke="midnightblue" points="329.66,-27.9 322.88,-19.76 323.1,-30.35 329.66,-27.9"/>
</g>
</g>
</svg>
