<?xml version="1.0" encoding="UTF-8" standalone="no"?>
<!DOCTYPE svg PUBLIC "-//W3C//DTD SVG 1.1//EN"
 "http://www.w3.org/Graphics/SVG/1.1/DTD/svg11.dtd">
<!-- Generated by graphviz version 2.44.0 ()
 -->
<!-- Title: pp00aa Pages: 1 -->
<svg width="400pt" height="123pt"
 viewBox="0.00 0.00 400.00 123.00" xmlns="http://www.w3.org/2000/svg" xmlns:xlink="http://www.w3.org/1999/xlink">
<g id="graph0" class="graph" transform="scale(1 1) rotate(0) translate(4 119)">
<title>pp00aa</title>
<polygon fill="white" stroke="transparent" points="-4,4 -4,-119 396,-119 396,4 -4,4"/>
<!-- Node1 -->
<g id="node1" class="node">
<title>Node1</title>
<g id="a_node1"><a xlink:title="Constructs Poincaré plot and &quot;approximate&quot; rotational&#45;transform (driver).">
<polygon fill="#bfbfbf" stroke="black" points="0,-38.5 0,-57.5 48,-57.5 48,-38.5 0,-38.5"/>
<text text-anchor="middle" x="24" y="-45.5" font-family="Helvetica,sans-Serif" font-size="10.00">pp00aa</text>
</a>
</g>
</g>
<!-- Node2 -->
<g id="node2" class="node">
<title>Node2</title>
<g id="a_node2"><a xlink:href="group__grp__diagnostics.html#ga831aed2458140e266ee4d37461dd5350" target="_top" xlink:title="Constructs Poincaré plot and &quot;approximate&quot; rotational&#45;transform (for single field line).">
<polygon fill="white" stroke="black" points="84,-38.5 84,-57.5 132,-57.5 132,-38.5 84,-38.5"/>
<text text-anchor="middle" x="108" y="-45.5" font-family="Helvetica,sans-Serif" font-size="10.00">pp00ab</text>
</a>
</g>
</g>
<!-- Node1&#45;&gt;Node2 -->
<g id="edge1" class="edge">
<title>Node1&#45;&gt;Node2</title>
<path fill="none" stroke="midnightblue" d="M48.28,-48C56.22,-48 65.27,-48 73.84,-48"/>
<polygon fill="midnightblue" stroke="midnightblue" points="73.95,-51.5 83.95,-48 73.95,-44.5 73.95,-51.5"/>
</g>
<!-- Node3 -->
<g id="node3" class="node">
<title>Node3</title>
<g id="a_node3"><a xlink:href="group__grp__diagnostics.html#ga20985df1b0df0503ca03ca13f1daf642" target="_top" xlink:title="Compute the magnetic field.">
<polygon fill="white" stroke="black" points="172.5,-76.5 172.5,-95.5 211.5,-95.5 211.5,-76.5 172.5,-76.5"/>
<text text-anchor="middle" x="192" y="-83.5" font-family="Helvetica,sans-Serif" font-size="10.00">bfield</text>
</a>
</g>
</g>
<!-- Node2&#45;&gt;Node3 -->
<g id="edge2" class="edge">
<title>Node2&#45;&gt;Node3</title>
<path fill="none" stroke="midnightblue" d="M129.69,-57.59C139.82,-62.28 152.16,-68 163.11,-73.07"/>
<polygon fill="midnightblue" stroke="midnightblue" points="161.73,-76.29 172.28,-77.32 164.68,-69.94 161.73,-76.29"/>
</g>
<!-- Node6 -->
<g id="node6" class="node">
<title>Node6</title>
<g id="a_node6"><a xlink:href="group__grp__diagnostics.html#ga08ad6b6635a598c0d0578e42f46b63c5" target="_top" xlink:title="Calculates coordinates, , and metrics, at given .">
<polygon fill="white" stroke="black" points="170.5,-38.5 170.5,-57.5 213.5,-57.5 213.5,-38.5 170.5,-38.5"/>
<text text-anchor="middle" x="192" y="-45.5" font-family="Helvetica,sans-Serif" font-size="10.00">stzxyz</text>
</a>
</g>
</g>
<!-- Node2&#45;&gt;Node6 -->
<g id="edge5" class="edge">
<title>Node2&#45;&gt;Node6</title>
<path fill="none" stroke="midnightblue" d="M132.28,-48C141.02,-48 151.08,-48 160.39,-48"/>
<polygon fill="midnightblue" stroke="midnightblue" points="160.46,-51.5 170.46,-48 160.46,-44.5 160.46,-51.5"/>
</g>
<!-- Node7 -->
<g id="node7" class="node">
<title>Node7</title>
<g id="a_node7"><a xlink:href="group__grp__volume.html#gae4c62d20b8fef07f4471b5b0889ab005" target="_top" xlink:title="Computes volume of each region; and, if required, the derivatives of the volume with respect to the i...">
<polygon fill="white" stroke="black" points="168,-0.5 168,-19.5 216,-19.5 216,-0.5 168,-0.5"/>
<text text-anchor="middle" x="192" y="-7.5" font-family="Helvetica,sans-Serif" font-size="10.00">volume</text>
</a>
</g>
</g>
<!-- Node2&#45;&gt;Node7 -->
<g id="edge6" class="edge">
<title>Node2&#45;&gt;Node7</title>
<path fill="none" stroke="midnightblue" d="M129.69,-38.41C139.21,-34 150.68,-28.69 161.11,-23.85"/>
<polygon fill="midnightblue" stroke="midnightblue" points="162.71,-26.97 170.31,-19.59 159.77,-20.62 162.71,-26.97"/>
</g>
<!-- Node4 -->
<g id="node4" class="node">
<title>Node4</title>
<g id="a_node4"><a xlink:href="basefn_8f90.html#af6a4cad04c70bfb14fd18a3bfbc843a3" target="_top" xlink:title="Get the Chebyshev polynomials with zeroth, first derivatives.">
<polygon fill="white" stroke="black" points="254.5,-95.5 254.5,-114.5 315.5,-114.5 315.5,-95.5 254.5,-95.5"/>
<text text-anchor="middle" x="285" y="-102.5" font-family="Helvetica,sans-Serif" font-size="10.00">get_cheby</text>
</a>
</g>
</g>
<!-- Node3&#45;&gt;Node4 -->
<g id="edge3" class="edge">
<title>Node3&#45;&gt;Node4</title>
<path fill="none" stroke="midnightblue" d="M211.86,-89.94C221.36,-91.92 233.25,-94.4 244.63,-96.78"/>
<polygon fill="midnightblue" stroke="midnightblue" points="243.92,-100.21 254.42,-98.82 245.35,-93.35 243.92,-100.21"/>
</g>
<!-- Node5 -->
<g id="node5" class="node">
<title>Node5</title>
<g id="a_node5"><a xlink:href="basefn_8f90.html#a38dc596fb909186b01dacc1feac03164" target="_top" xlink:title="Get the Zernike polynomials with zeroth, first derivatives.">
<polygon fill="white" stroke="black" points="252,-57.5 252,-76.5 318,-76.5 318,-57.5 252,-57.5"/>
<text text-anchor="middle" x="285" y="-64.5" font-family="Helvetica,sans-Serif" font-size="10.00">get_zernike</text>
</a>
</g>
</g>
<!-- Node3&#45;&gt;Node5 -->
<g id="edge4" class="edge">
<title>Node3&#45;&gt;Node5</title>
<path fill="none" stroke="midnightblue" d="M211.86,-82.06C220.61,-80.23 231.41,-77.98 241.95,-75.78"/>
<polygon fill="midnightblue" stroke="midnightblue" points="242.83,-79.17 251.91,-73.7 241.4,-72.32 242.83,-79.17"/>
</g>
<!-- Node8 -->
<g id="node8" class="node">
<title>Node8</title>
<g id="a_node8"><a xlink:href="group__grp__geometry.html#gaaca20aa60eaf39055f3c9d5c02a24ac2" target="_top" xlink:title="Calculates coordinates, , and metrics, using FFTs.">
<polygon fill="white" stroke="black" points="262,-0.5 262,-19.5 308,-19.5 308,-0.5 262,-0.5"/>
<text text-anchor="middle" x="285" y="-7.5" font-family="Helvetica,sans-Serif" font-size="10.00">coords</text>
</a>
</g>
</g>
<!-- Node7&#45;&gt;Node8 -->
<g id="edge7" class="edge">
<title>Node7&#45;&gt;Node8</title>
<path fill="none" stroke="midnightblue" d="M216.43,-4.01C227.16,-3.21 240.04,-3.04 251.67,-3.51"/>
<polygon fill="midnightblue" stroke="midnightblue" points="251.71,-7.02 261.9,-4.12 252.12,-0.03 251.71,-7.02"/>
</g>
<!-- Node8&#45;&gt;Node7 -->
<g id="edge9" class="edge">
<title>Node8&#45;&gt;Node7</title>
<path fill="none" stroke="midnightblue" d="M261.9,-15.88C251.25,-16.75 238.26,-16.97 226.43,-16.53"/>
<polygon fill="midnightblue" stroke="midnightblue" points="226.61,-13.04 216.43,-15.99 226.23,-20.03 226.61,-13.04"/>
</g>
<!-- Node9 -->
<g id="node9" class="node">
<title>Node9</title>
<g id="a_node9"><a xlink:href="group__grp__numerics.html#ga1fd52accb0646f535f9bcc46cf5a68f3" target="_top" xlink:title="Inverse Fourier transform (fftw wrapper)">
<polygon fill="white" stroke="black" points="354,-0.5 354,-19.5 392,-19.5 392,-0.5 354,-0.5"/>
<text text-anchor="middle" x="373" y="-7.5" font-family="Helvetica,sans-Serif" font-size="10.00">invfft</text>
</a>
</g>
</g>
<!-- Node8&#45;&gt;Node9 -->
<g id="edge8" class="edge">
<title>Node8&#45;&gt;Node9</title>
<path fill="none" stroke="midnightblue" d="M308.15,-10C319.04,-10 332.3,-10 343.9,-10"/>
<polygon fill="midnightblue" stroke="midnightblue" points="343.98,-13.5 353.98,-10 343.98,-6.5 343.98,-13.5"/>
</g>
</g>
</svg>
