<?xml version="1.0" encoding="UTF-8" standalone="no"?>
<!DOCTYPE svg PUBLIC "-//W3C//DTD SVG 1.1//EN"
 "http://www.w3.org/Graphics/SVG/1.1/DTD/svg11.dtd">
<!-- Generated by graphviz version 2.47.1 (20210421.1823)
 -->
<!-- Title: gauleg Pages: 1 -->
<svg width="418pt" height="66pt"
 viewBox="0.00 0.00 418.00 66.00" xmlns="http://www.w3.org/2000/svg" xmlns:xlink="http://www.w3.org/1999/xlink">
<g id="graph0" class="graph" transform="scale(1 1) rotate(0) translate(4 62)">
<title>gauleg</title>
<polygon fill="white" stroke="transparent" points="-4,4 -4,-62 414,-62 414,4 -4,4"/>
<!-- Node1 -->
<g id="node1" class="node">
<title>Node1</title>
<g id="a_node1"><a xlink:title="Gauss&#45;Legendre weights and abscissae.">
<polygon fill="#bfbfbf" stroke="black" points="365,-0.5 365,-19.5 410,-19.5 410,-0.5 365,-0.5"/>
<text text-anchor="middle" x="387.5" y="-7.5" font-family="Helvetica,sans-Serif" font-size="10.00">gauleg</text>
</a>
</g>
</g>
<!-- Node2 -->
<g id="node2" class="node">
<title>Node2</title>
<g id="a_node2"><a xlink:href="group__grp__initialization.html#ga28628de0fdb3b3497668007d8d0643bd" target="_top" xlink:title="Allocates and initializes internal arrays.">
<polygon fill="white" stroke="black" points="285,-0.5 285,-19.5 329,-19.5 329,-0.5 285,-0.5"/>
<text text-anchor="middle" x="307" y="-7.5" font-family="Helvetica,sans-Serif" font-size="10.00">preset</text>
</a>
</g>
</g>
<!-- Node1&#45;&gt;Node2 -->
<g id="edge1" class="edge">
<title>Node1&#45;&gt;Node2</title>
<path fill="none" stroke="midnightblue" d="M354.57,-10C346.03,-10 337.01,-10 329.21,-10"/>
<polygon fill="midnightblue" stroke="midnightblue" points="354.63,-13.5 364.63,-10 354.63,-6.5 354.63,-13.5"/>
</g>
<!-- Node3 -->
<g id="node3" class="node">
<title>Node3</title>
<g id="a_node3"><a xlink:href="group__grp__diagnostics.html#ga7401b50ec10c6598ee4a8112717a63ec" target="_top" xlink:title="Computes eigenvalues and eigenvectors of derivative matrix, .">
<polygon fill="white" stroke="black" points="204,-19.5 204,-38.5 249,-38.5 249,-19.5 204,-19.5"/>
<text text-anchor="middle" x="226.5" y="-26.5" font-family="Helvetica,sans-Serif" font-size="10.00">hesian</text>
</a>
</g>
</g>
<!-- Node2&#45;&gt;Node3 -->
<g id="edge2" class="edge">
<title>Node2&#45;&gt;Node3</title>
<path fill="none" stroke="midnightblue" d="M275.13,-17.47C266.44,-19.58 257.17,-21.82 249.14,-23.76"/>
<polygon fill="midnightblue" stroke="midnightblue" points="276.07,-20.85 284.96,-15.09 274.42,-14.04 276.07,-20.85"/>
</g>
<!-- Node6 -->
<g id="node6" class="node">
<title>Node6</title>
<g id="a_node6"><a xlink:href="xspech_8f90.html#aea782eae089760a491c2c54f9903abcc" target="_top" xlink:title="Main program of SPEC.">
<polygon fill="white" stroke="black" points="23.5,-0.5 23.5,-19.5 70.5,-19.5 70.5,-0.5 23.5,-0.5"/>
<text text-anchor="middle" x="47" y="-7.5" font-family="Helvetica,sans-Serif" font-size="10.00">xspech</text>
</a>
</g>
</g>
<!-- Node2&#45;&gt;Node6 -->
<g id="edge7" class="edge">
<title>Node2&#45;&gt;Node6</title>
<path fill="none" stroke="midnightblue" d="M274.78,-10C222.06,-10 116.65,-10 70.51,-10"/>
<polygon fill="midnightblue" stroke="midnightblue" points="274.89,-13.5 284.89,-10 274.89,-6.5 274.89,-13.5"/>
</g>
<!-- Node4 -->
<g id="node4" class="node">
<title>Node4</title>
<g id="a_node4"><a xlink:href="xspech_8f90.html#a48f45478dc2c9f70ea8aa1c60ad06503" target="_top" xlink:title=" ">
<polygon fill="white" stroke="black" points="130,-19.5 130,-38.5 168,-38.5 168,-19.5 130,-19.5"/>
<text text-anchor="middle" x="149" y="-26.5" font-family="Helvetica,sans-Serif" font-size="10.00">spec</text>
</a>
</g>
</g>
<!-- Node3&#45;&gt;Node4 -->
<g id="edge3" class="edge">
<title>Node3&#45;&gt;Node4</title>
<path fill="none" stroke="midnightblue" d="M193.55,-29C184.99,-29 176.03,-29 168.47,-29"/>
<polygon fill="midnightblue" stroke="midnightblue" points="193.66,-32.5 203.66,-29 193.66,-25.5 193.66,-32.5"/>
</g>
<!-- Node5 -->
<g id="node5" class="node">
<title>Node5</title>
<g id="a_node5"><a xlink:href="sphdf5_8f90.html#a0f962c09cd5d5eba99f1cba043cb3898" target="_top" xlink:title="initialize the interface to the HDF5 library and open the output file">
<polygon fill="white" stroke="black" points="0,-38.5 0,-57.5 94,-57.5 94,-38.5 0,-38.5"/>
<text text-anchor="middle" x="47" y="-45.5" font-family="Helvetica,sans-Serif" font-size="10.00">sphdf5::init_outfile</text>
</a>
</g>
</g>
<!-- Node4&#45;&gt;Node5 -->
<g id="edge4" class="edge">
<title>Node4&#45;&gt;Node5</title>
<path fill="none" stroke="midnightblue" d="M119.77,-34.36C111.77,-35.88 102.86,-37.58 94.1,-39.24"/>
<polygon fill="midnightblue" stroke="midnightblue" points="120.49,-37.79 129.66,-32.48 119.18,-30.91 120.49,-37.79"/>
</g>
<!-- Node4&#45;&gt;Node6 -->
<g id="edge5" class="edge">
<title>Node4&#45;&gt;Node6</title>
<path fill="none" stroke="midnightblue" d="M119.6,-17.45C104.14,-13.61 85.27,-10.15 70.79,-8.56"/>
<polygon fill="midnightblue" stroke="midnightblue" points="119.09,-20.94 129.66,-20.15 120.91,-14.18 119.09,-20.94"/>
</g>
<!-- Node6&#45;&gt;Node4 -->
<g id="edge6" class="edge">
<title>Node6&#45;&gt;Node4</title>
<path fill="none" stroke="midnightblue" d="M78.52,-22.07C95.22,-26.11 115.37,-29.63 129.66,-30.88"/>
<polygon fill="midnightblue" stroke="midnightblue" points="79.2,-18.63 68.64,-19.51 77.44,-25.41 79.2,-18.63"/>
</g>
</g>
</svg>
