<?xml version="1.0" encoding="UTF-8" standalone="no"?>
<!DOCTYPE svg PUBLIC "-//W3C//DTD SVG 1.1//EN"
 "http://www.w3.org/Graphics/SVG/1.1/DTD/svg11.dtd">
<!-- Generated by graphviz version 2.47.0 (20210316.2052)
 -->
<!-- Title: wa00aa Pages: 1 -->
<svg width="158pt" height="66pt"
 viewBox="0.00 0.00 158.00 66.00" xmlns="http://www.w3.org/2000/svg" xmlns:xlink="http://www.w3.org/1999/xlink">
<g id="graph0" class="graph" transform="scale(1 1) rotate(0) translate(4 62)">
<title>wa00aa</title>
<polygon fill="white" stroke="transparent" points="-4,4 -4,-62 154,-62 154,4 -4,4"/>
<!-- Node1 -->
<g id="node1" class="node">
<title>Node1</title>
<g id="a_node1"><a xlink:title="Constructs smooth approximation to wall.">
<polygon fill="#bfbfbf" stroke="black" points="0,-0.5 0,-19.5 50,-19.5 50,-0.5 0,-0.5"/>
<text text-anchor="middle" x="25" y="-7.5" font-family="Helvetica,sans-Serif" font-size="10.00">wa00aa</text>
</a>
</g>
</g>
<!-- Node2 -->
<g id="node2" class="node">
<title>Node2</title>
<g id="a_node2"><a xlink:href="group__grp__numerics.html#ga041138109a57e651c57117bb4180409e" target="_top" xlink:title="Forward Fourier transform (fftw wrapper)">
<polygon fill="white" stroke="black" points="103.5,-38.5 103.5,-57.5 132.5,-57.5 132.5,-38.5 103.5,-38.5"/>
<text text-anchor="middle" x="118" y="-45.5" font-family="Helvetica,sans-Serif" font-size="10.00">tfft</text>
</a>
</g>
</g>
<!-- Node1&#45;&gt;Node2 -->
<g id="edge1" class="edge">
<title>Node1&#45;&gt;Node2</title>
<path fill="none" stroke="midnightblue" d="M48.96,-19.59C62.78,-25.36 80.29,-32.67 94.1,-38.44"/>
<polygon fill="midnightblue" stroke="midnightblue" points="92.81,-41.69 103.38,-42.31 95.5,-35.23 92.81,-41.69"/>
</g>
<!-- Node3 -->
<g id="node3" class="node">
<title>Node3</title>
<g id="a_node3"><a xlink:href="group__grp__smooth__boundary.html#gaea7690bb953a85a409946f2c6ad6a640" target="_top" xlink:title="Compute vacuum magnetic scalar potential (?)">
<polygon fill="white" stroke="black" points="86,-0.5 86,-19.5 150,-19.5 150,-0.5 86,-0.5"/>
<text text-anchor="middle" x="118" y="-7.5" font-family="Helvetica,sans-Serif" font-size="10.00">vacuumphi</text>
</a>
</g>
</g>
<!-- Node1&#45;&gt;Node3 -->
<g id="edge2" class="edge">
<title>Node1&#45;&gt;Node3</title>
<path fill="none" stroke="midnightblue" d="M50.39,-3.94C58.1,-3.4 66.85,-3.17 75.41,-3.27"/>
<polygon fill="midnightblue" stroke="midnightblue" points="75.59,-6.78 85.68,-3.55 75.78,0.22 75.59,-6.78"/>
</g>
<!-- Node3&#45;&gt;Node1 -->
<g id="edge3" class="edge">
<title>Node3&#45;&gt;Node1</title>
<path fill="none" stroke="midnightblue" d="M85.68,-16.45C77.56,-16.8 68.77,-16.84 60.5,-16.57"/>
<polygon fill="midnightblue" stroke="midnightblue" points="60.55,-13.07 50.39,-16.06 60.2,-20.06 60.55,-13.07"/>
</g>
</g>
</svg>
