<?xml version="1.0" encoding="UTF-8" standalone="no"?>
<!DOCTYPE svg PUBLIC "-//W3C//DTD SVG 1.1//EN"
 "http://www.w3.org/Graphics/SVG/1.1/DTD/svg11.dtd">
<!-- Generated by graphviz version 2.49.3 (20211027.1534)
 -->
<!-- Title: casing Pages: 1 -->
<svg width="712pt" height="137pt"
 viewBox="0.00 0.00 712.00 136.81" xmlns="http://www.w3.org/2000/svg" xmlns:xlink="http://www.w3.org/1999/xlink">
<g id="graph0" class="graph" transform="scale(1 1) rotate(0) translate(4 132.81)">
<title>casing</title>
<polygon fill="white" stroke="transparent" points="-4,4 -4,-132.81 708,-132.81 708,4 -4,4"/>
<!-- Node1 -->
<g id="node1" class="node">
<title>Node1</title>
<g id="a_node1"><a xlink:title="Constructs the field created by the plasma currents, at an arbitrary, external location using virtual...">
<polygon fill="#bfbfbf" stroke="black" points="659,-0.5 659,-19.5 704,-19.5 704,-0.5 659,-0.5"/>
<text text-anchor="middle" x="681.5" y="-7.5" font-family="Helvetica,sans-Serif" font-size="10.00">casing</text>
</a>
</g>
</g>
<!-- Node1&#45;&gt;Node1 -->
<g id="edge18" class="edge">
<title>Node1&#45;&gt;Node1</title>
<path fill="none" stroke="midnightblue" d="M696.6,-29.77C695.41,-34.5 690.38,-38 681.5,-38 666.93,-38 662.71,-28.57 668.86,-19.76"/>
<polygon fill="midnightblue" stroke="midnightblue" points="699.93,-28.63 694.14,-19.76 693.13,-30.3 699.93,-28.63"/>
</g>
<!-- Node2 -->
<g id="node2" class="node">
<title>Node2</title>
<g id="a_node2"><a xlink:href="group__grp__free-boundary.html#gac0a2cc2241947b27241bb8ef75c5e0ed" target="_top" xlink:title="Computes &#160;on the computational boundary, .">
<polygon fill="white" stroke="black" points="575,-38.5 575,-57.5 621,-57.5 621,-38.5 575,-38.5"/>
<text text-anchor="middle" x="598" y="-45.5" font-family="Helvetica,sans-Serif" font-size="10.00">bnorml</text>
</a>
</g>
</g>
<!-- Node1&#45;&gt;Node2 -->
<g id="edge1" class="edge">
<title>Node1&#45;&gt;Node2</title>
<path fill="none" stroke="midnightblue" d="M650.79,-23.85C640.42,-28.69 629.02,-34 619.56,-38.41"/>
<polygon fill="midnightblue" stroke="midnightblue" points="652.35,-26.99 659.93,-19.59 649.39,-20.64 652.35,-26.99"/>
</g>
<!-- Node10 -->
<g id="node10" class="node">
<title>Node10</title>
<g id="a_node10"><a xlink:href="group__grp__free-boundary.html#ga281c12a5de84fddd3db4383b0df8627f" target="_top" xlink:title="Differential virtual casing integrand.">
<polygon fill="white" stroke="black" points="573,-0.5 573,-19.5 623,-19.5 623,-0.5 573,-0.5"/>
<text text-anchor="middle" x="598" y="-7.5" font-family="Helvetica,sans-Serif" font-size="10.00">dvcfield</text>
</a>
</g>
</g>
<!-- Node1&#45;&gt;Node10 -->
<g id="edge19" class="edge">
<title>Node1&#45;&gt;Node10</title>
<path fill="none" stroke="midnightblue" d="M648.41,-3.39C640.02,-3.12 631.11,-3.25 623.2,-3.77"/>
<polygon fill="midnightblue" stroke="midnightblue" points="648.48,-6.9 658.66,-3.94 648.86,0.09 648.48,-6.9"/>
</g>
<!-- Node2&#45;&gt;Node2 -->
<g id="edge2" class="edge">
<title>Node2&#45;&gt;Node2</title>
<path fill="none" stroke="midnightblue" d="M613.1,-67.77C611.91,-72.5 606.88,-76 598,-76 583.43,-76 579.21,-66.57 585.36,-57.76"/>
<polygon fill="midnightblue" stroke="midnightblue" points="616.43,-66.63 610.64,-57.76 609.63,-68.3 616.43,-66.63"/>
</g>
<!-- Node3 -->
<g id="node3" class="node">
<title>Node3</title>
<g id="a_node3"><a xlink:href="group__grp__initialization.html#ga28628de0fdb3b3497668007d8d0643bd" target="_top" xlink:title="Allocates and initializes internal arrays.">
<polygon fill="white" stroke="black" points="493,-57.5 493,-76.5 537,-76.5 537,-57.5 493,-57.5"/>
<text text-anchor="middle" x="515" y="-64.5" font-family="Helvetica,sans-Serif" font-size="10.00">preset</text>
</a>
</g>
</g>
<!-- Node2&#45;&gt;Node3 -->
<g id="edge3" class="edge">
<title>Node2&#45;&gt;Node3</title>
<path fill="none" stroke="midnightblue" d="M565.08,-55.49C555.75,-57.68 545.77,-60.02 537.27,-62.01"/>
<polygon fill="midnightblue" stroke="midnightblue" points="565.93,-58.88 574.87,-53.19 564.33,-52.07 565.93,-58.88"/>
</g>
<!-- Node5 -->
<g id="node5" class="node">
<title>Node5</title>
<g id="a_node5"><a xlink:href="xspech_8f90.html#a48f45478dc2c9f70ea8aa1c60ad06503" target="_top" xlink:title="This is the main &quot;driver&quot; for the physics part of SPEC.">
<polygon fill="white" stroke="black" points="338,-28.5 338,-47.5 376,-47.5 376,-28.5 338,-28.5"/>
<text text-anchor="middle" x="357" y="-35.5" font-family="Helvetica,sans-Serif" font-size="10.00">spec</text>
</a>
</g>
</g>
<!-- Node2&#45;&gt;Node5 -->
<g id="edge17" class="edge">
<title>Node2&#45;&gt;Node5</title>
<path fill="none" stroke="midnightblue" d="M564.81,-46.65C513.85,-44.52 416.24,-40.44 376.01,-38.75"/>
<polygon fill="midnightblue" stroke="midnightblue" points="564.81,-50.16 574.94,-47.08 565.1,-43.16 564.81,-50.16"/>
</g>
<!-- Node3&#45;&gt;Node3 -->
<g id="edge15" class="edge">
<title>Node3&#45;&gt;Node3</title>
<path fill="none" stroke="midnightblue" d="M529.73,-86.77C528.58,-91.5 523.66,-95 515,-95 500.78,-95 496.67,-85.57 502.67,-76.76"/>
<polygon fill="midnightblue" stroke="midnightblue" points="533.07,-85.66 527.33,-76.76 526.26,-87.3 533.07,-85.66"/>
</g>
<!-- Node4 -->
<g id="node4" class="node">
<title>Node4</title>
<g id="a_node4"><a xlink:href="group__grp__diagnostics.html#ga7401b50ec10c6598ee4a8112717a63ec" target="_top" xlink:title="Computes eigenvalues and eigenvectors of derivative matrix, .">
<polygon fill="white" stroke="black" points="412,-57.5 412,-76.5 457,-76.5 457,-57.5 412,-57.5"/>
<text text-anchor="middle" x="434.5" y="-64.5" font-family="Helvetica,sans-Serif" font-size="10.00">hesian</text>
</a>
</g>
</g>
<!-- Node3&#45;&gt;Node4 -->
<g id="edge4" class="edge">
<title>Node3&#45;&gt;Node4</title>
<path fill="none" stroke="midnightblue" d="M482.85,-67C474.24,-67 465.08,-67 457.14,-67"/>
<polygon fill="midnightblue" stroke="midnightblue" points="482.96,-70.5 492.96,-67 482.96,-63.5 482.96,-70.5"/>
</g>
<!-- Node7 -->
<g id="node7" class="node">
<title>Node7</title>
<g id="a_node7"><a xlink:href="xspech_8f90.html#a9fdc71dffd7c61ee4588a3f80d3ab9ce" target="_top" xlink:title="Main subroutine of SPEC.">
<polygon fill="white" stroke="black" points="125,-51.5 125,-70.5 172,-70.5 172,-51.5 125,-51.5"/>
<text text-anchor="middle" x="148.5" y="-58.5" font-family="Helvetica,sans-Serif" font-size="10.00">xspech</text>
</a>
</g>
</g>
<!-- Node3&#45;&gt;Node7 -->
<g id="edge16" class="edge">
<title>Node3&#45;&gt;Node7</title>
<path fill="none" stroke="midnightblue" d="M495.21,-83.16C484.71,-91.12 470.96,-99.87 457,-104 350.89,-135.42 313.16,-138.49 208,-104 188.12,-97.48 169.42,-81.33 158.74,-70.79"/>
<polygon fill="midnightblue" stroke="midnightblue" points="497.56,-85.76 503.19,-76.79 493.2,-80.29 497.56,-85.76"/>
</g>
<!-- Node4&#45;&gt;Node4 -->
<g id="edge5" class="edge">
<title>Node4&#45;&gt;Node4</title>
<path fill="none" stroke="midnightblue" d="M448.5,-86.77C447.4,-91.5 442.73,-95 434.5,-95 420.99,-95 417.09,-85.57 422.79,-76.76"/>
<polygon fill="midnightblue" stroke="midnightblue" points="451.85,-85.73 446.21,-76.76 445.02,-87.28 451.85,-85.73"/>
</g>
<!-- Node4&#45;&gt;Node5 -->
<g id="edge6" class="edge">
<title>Node4&#45;&gt;Node5</title>
<path fill="none" stroke="midnightblue" d="M402.11,-54.94C393.39,-51.59 384.19,-48.06 376.47,-45.09"/>
<polygon fill="midnightblue" stroke="midnightblue" points="401.07,-58.29 411.66,-58.61 403.58,-51.76 401.07,-58.29"/>
</g>
<!-- Node6 -->
<g id="node6" class="node">
<title>Node6</title>
<g id="a_node6"><a xlink:href="group__grp__output.html#ga0f962c09cd5d5eba99f1cba043cb3898" target="_top" xlink:title="Initialize the interface to the HDF5 library and open the output file.">
<polygon fill="white" stroke="black" points="208,-75.5 208,-94.5 302,-94.5 302,-75.5 208,-75.5"/>
<text text-anchor="middle" x="255" y="-82.5" font-family="Helvetica,sans-Serif" font-size="10.00">sphdf5::init_outfile</text>
</a>
</g>
</g>
<!-- Node5&#45;&gt;Node6 -->
<g id="edge7" class="edge">
<title>Node5&#45;&gt;Node6</title>
<path fill="none" stroke="midnightblue" d="M328.49,-50.93C311.97,-58.69 291.32,-68.4 276.29,-75.46"/>
<polygon fill="midnightblue" stroke="midnightblue" points="330.1,-54.04 337.66,-46.62 327.12,-47.71 330.1,-54.04"/>
</g>
<!-- Node5&#45;&gt;Node7 -->
<g id="edge14" class="edge">
<title>Node5&#45;&gt;Node7</title>
<path fill="none" stroke="midnightblue" d="M327.44,-36.35C285.98,-38.28 209.95,-46.89 172.12,-54.07"/>
<polygon fill="midnightblue" stroke="midnightblue" points="327.8,-39.84 337.67,-35.99 327.56,-32.84 327.8,-39.84"/>
</g>
<!-- Node6&#45;&gt;Node7 -->
<g id="edge8" class="edge">
<title>Node6&#45;&gt;Node7</title>
<path fill="none" stroke="midnightblue" d="M202.6,-73.19C191.85,-70.73 181.06,-68.25 172.04,-66.18"/>
<polygon fill="midnightblue" stroke="midnightblue" points="201.87,-76.62 212.4,-75.45 203.44,-69.8 201.87,-76.62"/>
</g>
<!-- Node7&#45;&gt;Node5 -->
<g id="edge11" class="edge">
<title>Node7&#45;&gt;Node5</title>
<path fill="none" stroke="midnightblue" d="M182.28,-62.44C226.23,-60.06 302.75,-51.19 337.67,-44.09"/>
<polygon fill="midnightblue" stroke="midnightblue" points="181.95,-58.95 172.12,-62.89 182.26,-65.95 181.95,-58.95"/>
</g>
<!-- Node7&#45;&gt;Node7 -->
<g id="edge13" class="edge">
<title>Node7&#45;&gt;Node7</title>
<path fill="none" stroke="midnightblue" d="M167.76,-80.4C166.47,-85.31 160.05,-89 148.5,-89 130.02,-89 124.67,-79.57 132.47,-70.76"/>
<polygon fill="midnightblue" stroke="midnightblue" points="171.02,-79.13 164.53,-70.76 164.39,-81.35 171.02,-79.13"/>
</g>
<!-- Node8 -->
<g id="node8" class="node">
<title>Node8</title>
<g id="a_node8"><a xlink:href="xspech_8f90.html#a1451823a7b97101a797de616250752c1" target="_top" xlink:title="Final diagnostics.">
<polygon fill="white" stroke="black" points="0,-51.5 0,-70.5 89,-70.5 89,-51.5 0,-51.5"/>
<text text-anchor="middle" x="44.5" y="-58.5" font-family="Helvetica,sans-Serif" font-size="10.00">final_diagnostics</text>
</a>
</g>
</g>
<!-- Node7&#45;&gt;Node8 -->
<g id="edge9" class="edge">
<title>Node7&#45;&gt;Node8</title>
<path fill="none" stroke="midnightblue" d="M114.63,-54.64C106.47,-54.27 97.59,-54.16 89.01,-54.32"/>
<polygon fill="midnightblue" stroke="midnightblue" points="114.67,-58.15 124.86,-55.28 115.1,-51.17 114.67,-58.15"/>
</g>
<!-- Node9 -->
<g id="node9" class="node">
<title>Node9</title>
<g id="a_node9"><a xlink:href="xspech_8f90.html#a95271e8805067f801b5d4e524d6901d4" target="_top" xlink:title="Main program of SPEC.">
<polygon fill="white" stroke="black" points="12.5,-13.5 12.5,-32.5 76.5,-32.5 76.5,-13.5 12.5,-13.5"/>
<text text-anchor="middle" x="44.5" y="-20.5" font-family="Helvetica,sans-Serif" font-size="10.00">spec_main</text>
</a>
</g>
</g>
<!-- Node7&#45;&gt;Node9 -->
<g id="edge12" class="edge">
<title>Node7&#45;&gt;Node9</title>
<path fill="none" stroke="midnightblue" d="M115.45,-49.06C101.23,-43.76 84.72,-37.61 71.31,-32.62"/>
<polygon fill="midnightblue" stroke="midnightblue" points="114.27,-52.36 124.86,-52.57 116.71,-45.8 114.27,-52.36"/>
</g>
<!-- Node8&#45;&gt;Node7 -->
<g id="edge10" class="edge">
<title>Node8&#45;&gt;Node7</title>
<path fill="none" stroke="midnightblue" d="M99.21,-67.74C108.25,-67.68 117.19,-67.34 124.86,-66.72"/>
<polygon fill="midnightblue" stroke="midnightblue" points="99.03,-64.24 89.01,-67.68 98.99,-71.24 99.03,-64.24"/>
</g>
<!-- Node10&#45;&gt;Node1 -->
<g id="edge20" class="edge">
<title>Node10&#45;&gt;Node1</title>
<path fill="none" stroke="midnightblue" d="M633.35,-16.68C641.92,-16.88 650.88,-16.67 658.66,-16.06"/>
<polygon fill="midnightblue" stroke="midnightblue" points="633.34,-13.17 623.2,-16.23 633.03,-20.16 633.34,-13.17"/>
</g>
</g>
</svg>
