<?xml version="1.0" encoding="UTF-8" standalone="no"?>
<!DOCTYPE svg PUBLIC "-//W3C//DTD SVG 1.1//EN"
 "http://www.w3.org/Graphics/SVG/1.1/DTD/svg11.dtd">
<!-- Generated by graphviz version 2.49.3 (20211027.1534)
 -->
<!-- Title: casing Pages: 1 -->
<svg width="254pt" height="65pt"
 viewBox="0.00 0.00 254.00 65.00" xmlns="http://www.w3.org/2000/svg" xmlns:xlink="http://www.w3.org/1999/xlink">
<g id="graph0" class="graph" transform="scale(1 1) rotate(0) translate(4 61)">
<title>casing</title>
<polygon fill="white" stroke="transparent" points="-4,4 -4,-61 250,-61 250,4 -4,4"/>
<!-- Node1 -->
<g id="node1" class="node">
<title>Node1</title>
<g id="a_node1"><a xlink:title="Constructs the field created by the plasma currents, at an arbitrary, external location using virtual...">
<polygon fill="#bfbfbf" stroke="black" points="0,-19.5 0,-38.5 45,-38.5 45,-19.5 0,-19.5"/>
<text text-anchor="middle" x="22.5" y="-26.5" font-family="Helvetica,sans-Serif" font-size="10.00">casing</text>
</a>
</g>
</g>
<!-- Node1&#45;&gt;Node1 -->
<g id="edge1" class="edge">
<title>Node1&#45;&gt;Node1</title>
<path fill="none" stroke="midnightblue" d="M9.86,-38.76C3.71,-47.57 7.93,-57 22.5,-57 31.38,-57 36.41,-53.5 37.6,-48.77"/>
<polygon fill="midnightblue" stroke="midnightblue" points="40.93,-47.63 35.14,-38.76 34.13,-49.3 40.93,-47.63"/>
</g>
<!-- Node2 -->
<g id="node2" class="node">
<title>Node2</title>
<g id="a_node2"><a xlink:href="group__grp__free-boundary.html#ga281c12a5de84fddd3db4383b0df8627f" target="_top" xlink:title="Differential virtual casing integrand.">
<polygon fill="white" stroke="black" points="81,-19.5 81,-38.5 131,-38.5 131,-19.5 81,-19.5"/>
<text text-anchor="middle" x="106" y="-26.5" font-family="Helvetica,sans-Serif" font-size="10.00">dvcfield</text>
</a>
</g>
</g>
<!-- Node1&#45;&gt;Node2 -->
<g id="edge2" class="edge">
<title>Node1&#45;&gt;Node2</title>
<path fill="none" stroke="midnightblue" d="M45.34,-22.94C53.12,-22.33 62.08,-22.12 70.65,-22.32"/>
<polygon fill="midnightblue" stroke="midnightblue" points="70.66,-25.83 80.8,-22.77 70.97,-18.84 70.66,-25.83"/>
</g>
<!-- Node2&#45;&gt;Node1 -->
<g id="edge3" class="edge">
<title>Node2&#45;&gt;Node1</title>
<path fill="none" stroke="midnightblue" d="M80.8,-35.23C72.89,-35.75 63.98,-35.88 55.59,-35.61"/>
<polygon fill="midnightblue" stroke="midnightblue" points="55.52,-32.1 45.34,-35.06 55.14,-39.09 55.52,-32.1"/>
</g>
<!-- Node3 -->
<g id="node3" class="node">
<title>Node3</title>
<g id="a_node3"><a xlink:href="group__grp__free-boundary.html#ga6d4c1b7e864b706f0bfdca4658ebd50c" target="_top" xlink:title="Compute the position and surface current on the plasma boundary for the virtual casingCalculation of ...">
<polygon fill="white" stroke="black" points="167,-0.5 167,-19.5 246,-19.5 246,-0.5 167,-0.5"/>
<text text-anchor="middle" x="206.5" y="-7.5" font-family="Helvetica,sans-Serif" font-size="10.00">surfacecurrent</text>
</a>
</g>
</g>
<!-- Node2&#45;&gt;Node3 -->
<g id="edge4" class="edge">
<title>Node2&#45;&gt;Node3</title>
<path fill="none" stroke="midnightblue" d="M131.1,-24.35C138.88,-22.85 147.8,-21.13 156.7,-19.41"/>
<polygon fill="midnightblue" stroke="midnightblue" points="157.53,-22.82 166.69,-17.49 156.21,-15.94 157.53,-22.82"/>
</g>
<!-- Node3&#45;&gt;Node1 -->
<g id="edge5" class="edge">
<title>Node3&#45;&gt;Node1</title>
<path fill="none" stroke="midnightblue" d="M166.83,-6.85C142.12,-5.61 109.49,-5.42 81,-10 72.27,-11.4 63.07,-13.94 54.65,-16.7"/>
<polygon fill="midnightblue" stroke="midnightblue" points="53.49,-13.4 45.21,-20.01 55.8,-20.01 53.49,-13.4"/>
</g>
</g>
</svg>
