<?xml version="1.0" encoding="UTF-8" standalone="no"?>
<!DOCTYPE svg PUBLIC "-//W3C//DTD SVG 1.1//EN"
 "http://www.w3.org/Graphics/SVG/1.1/DTD/svg11.dtd">
<!-- Generated by graphviz version 2.49.3 (20211027.1534)
 -->
<!-- Title: tr00ab Pages: 1 -->
<svg width="1172pt" height="391pt"
 viewBox="0.00 0.00 1172.00 391.38" xmlns="http://www.w3.org/2000/svg" xmlns:xlink="http://www.w3.org/1999/xlink">
<g id="graph0" class="graph" transform="scale(1 1) rotate(0) translate(4 387.38)">
<title>tr00ab</title>
<polygon fill="white" stroke="transparent" points="-4,4 -4,-387.38 1168,-387.38 1168,4 -4,4"/>
<!-- Node1 -->
<g id="node1" class="node">
<title>Node1</title>
<g id="a_node1"><a xlink:title="Calculates rotational transform given an arbitrary tangential field.">
<polygon fill="#bfbfbf" stroke="black" points="1120,-316.88 1120,-335.88 1164,-335.88 1164,-316.88 1120,-316.88"/>
<text text-anchor="middle" x="1142" y="-323.88" font-family="Helvetica,sans-Serif" font-size="10.00">tr00ab</text>
</a>
</g>
</g>
<!-- Node1&#45;&gt;Node1 -->
<g id="edge56" class="edge">
<title>Node1&#45;&gt;Node1</title>
<path fill="none" stroke="midnightblue" d="M1157.1,-346.14C1155.91,-350.87 1150.88,-354.38 1142,-354.38 1127.43,-354.38 1123.21,-344.94 1129.36,-336.14"/>
<polygon fill="midnightblue" stroke="midnightblue" points="1160.43,-345.01 1154.64,-336.14 1153.63,-346.68 1160.43,-345.01"/>
</g>
<!-- Node2 -->
<g id="node2" class="node">
<title>Node2</title>
<g id="a_node2"><a xlink:href="dfp200_8f90.html#a73ddf39ecc5228201fb643779e17cd36" target="_top" xlink:title="Evaluate mu and psip derivatives and store them in dmupfdx.">
<polygon fill="white" stroke="black" points="733,-297.88 733,-316.88 828,-316.88 828,-297.88 733,-297.88"/>
<text text-anchor="middle" x="780.5" y="-304.88" font-family="Helvetica,sans-Serif" font-size="10.00">evaluate_dmupfdx</text>
</a>
</g>
</g>
<!-- Node1&#45;&gt;Node2 -->
<g id="edge1" class="edge">
<title>Node1&#45;&gt;Node2</title>
<path fill="none" stroke="midnightblue" d="M1109.69,-324.72C1046.32,-321.37 902.59,-313.78 828.14,-309.84"/>
<polygon fill="midnightblue" stroke="midnightblue" points="1109.68,-328.23 1119.85,-325.26 1110.05,-321.24 1109.68,-328.23"/>
</g>
<!-- Node7 -->
<g id="node7" class="node">
<title>Node7</title>
<g id="a_node7"><a xlink:href="xspech_8f90.html#a1451823a7b97101a797de616250752c1" target="_top" xlink:title="Final diagnostics.">
<polygon fill="white" stroke="black" points="130,-299.88 130,-318.88 219,-318.88 219,-299.88 130,-299.88"/>
<text text-anchor="middle" x="174.5" y="-306.88" font-family="Helvetica,sans-Serif" font-size="10.00">final_diagnostics</text>
</a>
</g>
</g>
<!-- Node1&#45;&gt;Node7 -->
<g id="edge47" class="edge">
<title>Node1&#45;&gt;Node7</title>
<path fill="none" stroke="midnightblue" d="M1115.23,-340.97C1082.94,-357.86 1025.39,-383.38 972.5,-383.38 972.5,-383.38 972.5,-383.38 400.5,-383.38 318.87,-383.38 228.56,-338.89 192.1,-318.9"/>
<polygon fill="midnightblue" stroke="midnightblue" points="1117.25,-343.86 1124.41,-336.05 1113.94,-337.69 1117.25,-343.86"/>
</g>
<!-- Node21 -->
<g id="node21" class="node">
<title>Node21</title>
<g id="a_node21"><a xlink:href="group__grp__solver.html#ga6626839aff500f060beb5bce2b90c447" target="_top" xlink:title="Solves Beltrami/vacuum (linear) system, given matrices.unpacking fluxes, helicity multiplier">
<polygon fill="white" stroke="black" points="1033,-260.88 1033,-279.88 1084,-279.88 1084,-260.88 1033,-260.88"/>
<text text-anchor="middle" x="1058.5" y="-267.88" font-family="Helvetica,sans-Serif" font-size="10.00">mp00ac</text>
</a>
</g>
</g>
<!-- Node1&#45;&gt;Node21 -->
<g id="edge48" class="edge">
<title>Node1&#45;&gt;Node21</title>
<path fill="none" stroke="midnightblue" d="M1118.43,-310.87C1104.05,-300.99 1085.87,-288.5 1073.53,-280.02"/>
<polygon fill="midnightblue" stroke="midnightblue" points="1116.58,-313.85 1126.8,-316.62 1120.54,-308.08 1116.58,-313.85"/>
</g>
<!-- Node3 -->
<g id="node3" class="node">
<title>Node3</title>
<g id="a_node3"><a xlink:href="dfp200_8f90.html#a55ea75395f8c71731451e1add3720c7e" target="_top" xlink:title="Given the field consistent with the constraints and the geometry, computes local quantites related to...">
<polygon fill="white" stroke="black" points="651,-297.88 651,-316.88 697,-316.88 697,-297.88 651,-297.88"/>
<text text-anchor="middle" x="674" y="-304.88" font-family="Helvetica,sans-Serif" font-size="10.00">dfp200</text>
</a>
</g>
</g>
<!-- Node2&#45;&gt;Node3 -->
<g id="edge2" class="edge">
<title>Node2&#45;&gt;Node3</title>
<path fill="none" stroke="midnightblue" d="M722.55,-300.65C713.54,-300.75 704.71,-301.11 697.16,-301.74"/>
<polygon fill="midnightblue" stroke="midnightblue" points="722.75,-304.15 732.75,-300.66 722.75,-297.15 722.75,-304.15"/>
</g>
<!-- Node3&#45;&gt;Node2 -->
<g id="edge43" class="edge">
<title>Node3&#45;&gt;Node2</title>
<path fill="none" stroke="midnightblue" d="M707.25,-313.67C715.32,-314.06 724.14,-314.2 732.75,-314.1"/>
<polygon fill="midnightblue" stroke="midnightblue" points="707.36,-310.17 697.16,-313.01 706.91,-317.15 707.36,-310.17"/>
</g>
<!-- Node3&#45;&gt;Node3 -->
<g id="edge40" class="edge">
<title>Node3&#45;&gt;Node3</title>
<path fill="none" stroke="midnightblue" d="M693.63,-326.78C692.32,-331.69 685.77,-335.38 674,-335.38 655.16,-335.38 649.71,-325.94 657.66,-317.14"/>
<polygon fill="midnightblue" stroke="midnightblue" points="696.88,-325.47 690.34,-317.14 690.26,-327.73 696.88,-325.47"/>
</g>
<!-- Node4 -->
<g id="node4" class="node">
<title>Node4</title>
<g id="a_node4"><a xlink:href="group__grp__global__force.html#ga38c9d3c50bd043707fefa5137c9dbf44" target="_top" xlink:title="Calculates , where &#160;and , and .">
<polygon fill="white" stroke="black" points="535.5,-185.88 535.5,-204.88 579.5,-204.88 579.5,-185.88 535.5,-185.88"/>
<text text-anchor="middle" x="557.5" y="-192.88" font-family="Helvetica,sans-Serif" font-size="10.00">dforce</text>
</a>
</g>
</g>
<!-- Node3&#45;&gt;Node4 -->
<g id="edge3" class="edge">
<title>Node3&#45;&gt;Node4</title>
<path fill="none" stroke="midnightblue" d="M660.03,-289.42C648.92,-274.64 632.07,-253.57 615,-237.38 602.05,-225.1 585.5,-213.16 573.66,-205.18"/>
<polygon fill="midnightblue" stroke="midnightblue" points="657.39,-291.74 666.15,-297.7 663.02,-287.58 657.39,-291.74"/>
</g>
<!-- Node15 -->
<g id="node15" class="node">
<title>Node15</title>
<g id="a_node15"><a xlink:href="dfp200_8f90.html#a6aca59cf350d7b1941f8389d50945a43" target="_top" xlink:title="get LU Beltrami matrices">
<polygon fill="white" stroke="black" points="339,-326.88 339,-345.88 464,-345.88 464,-326.88 339,-326.88"/>
<text text-anchor="middle" x="401.5" y="-333.88" font-family="Helvetica,sans-Serif" font-size="10.00">get_lu_beltrami_matrices</text>
</a>
</g>
</g>
<!-- Node3&#45;&gt;Node15 -->
<g id="edge44" class="edge">
<title>Node3&#45;&gt;Node15</title>
<path fill="none" stroke="midnightblue" d="M656.13,-292.63C644.74,-286.88 629.24,-281.65 615,-279.38 564.53,-271.32 548.2,-262.38 500,-279.38 480.62,-286.21 482.14,-298.73 464,-308.38 448.61,-316.57 429.14,-321.83 416.28,-326.73"/>
<polygon fill="midnightblue" stroke="midnightblue" points="654.54,-295.76 664.94,-297.76 658.06,-289.7 654.54,-295.76"/>
</g>
<!-- Node19 -->
<g id="node19" class="node">
<title>Node19</title>
<g id="a_node19"><a xlink:href="dfp200_8f90.html#a7b64c7392b45d0042d8bd7379c0761a5" target="_top" xlink:title="Evaluate the derivative of the square of the magnetic field modulus. Add spectral constraint derivati...">
<polygon fill="white" stroke="black" points="520.5,-335.88 520.5,-354.88 594.5,-354.88 594.5,-335.88 520.5,-335.88"/>
<text text-anchor="middle" x="557.5" y="-342.88" font-family="Helvetica,sans-Serif" font-size="10.00">evaluate_dbb</text>
</a>
</g>
</g>
<!-- Node3&#45;&gt;Node19 -->
<g id="edge41" class="edge">
<title>Node3&#45;&gt;Node19</title>
<path fill="none" stroke="midnightblue" d="M641.23,-311.81C618.99,-318 590.32,-327.99 573.23,-335.79"/>
<polygon fill="midnightblue" stroke="midnightblue" points="642.15,-315.18 650.92,-309.25 640.36,-308.41 642.15,-315.18"/>
</g>
<!-- Node20 -->
<g id="node20" class="node">
<title>Node20</title>
<g id="a_node20"><a xlink:href="dfp200_8f90.html#a5e56f1f4b1e6df11a9cffa6237c37469" target="_top" xlink:title="This routine evaluates the value of the magnetic field once the interface is perturbed using matrix p...">
<polygon fill="white" stroke="black" points="500,-297.88 500,-316.88 615,-316.88 615,-297.88 500,-297.88"/>
<text text-anchor="middle" x="557.5" y="-304.88" font-family="Helvetica,sans-Serif" font-size="10.00">get_perturbed_solution</text>
</a>
</g>
</g>
<!-- Node3&#45;&gt;Node20 -->
<g id="edge45" class="edge">
<title>Node3&#45;&gt;Node20</title>
<path fill="none" stroke="midnightblue" d="M640.92,-301.25C632.9,-300.83 624.05,-300.62 615.23,-300.63"/>
<polygon fill="midnightblue" stroke="midnightblue" points="640.71,-304.74 650.92,-301.92 641.18,-297.75 640.71,-304.74"/>
</g>
<!-- Node4&#45;&gt;Node4 -->
<g id="edge15" class="edge">
<title>Node4&#45;&gt;Node4</title>
<path fill="none" stroke="midnightblue" d="M578.98,-214.78C577.55,-219.69 570.39,-223.38 557.5,-223.38 536.88,-223.38 530.92,-213.94 539.62,-205.14"/>
<polygon fill="midnightblue" stroke="midnightblue" points="582.16,-213.28 575.38,-205.14 575.6,-215.73 582.16,-213.28"/>
</g>
<!-- Node5 -->
<g id="node5" class="node">
<title>Node5</title>
<g id="a_node5"><a xlink:href="namespaceallglobal.html#a7824bc37519fe88336534ce90ab2af16" target="_top" xlink:title=" ">
<polygon fill="white" stroke="black" points="344.5,-232.88 344.5,-251.88 458.5,-251.88 458.5,-232.88 344.5,-232.88"/>
<text text-anchor="middle" x="401.5" y="-239.88" font-family="Helvetica,sans-Serif" font-size="10.00">allglobal::check_inputs</text>
</a>
</g>
</g>
<!-- Node4&#45;&gt;Node5 -->
<g id="edge4" class="edge">
<title>Node4&#45;&gt;Node5</title>
<path fill="none" stroke="midnightblue" d="M525.8,-204.75C499.1,-212.9 460.57,-224.65 433.72,-232.85"/>
<polygon fill="midnightblue" stroke="midnightblue" points="526.87,-208.08 535.41,-201.82 524.82,-201.39 526.87,-208.08"/>
</g>
<!-- Node8 -->
<g id="node8" class="node">
<title>Node8</title>
<g id="a_node8"><a xlink:href="xspech_8f90.html#a48f45478dc2c9f70ea8aa1c60ad06503" target="_top" xlink:title="This is the main &quot;driver&quot; for the physics part of SPEC.">
<polygon fill="white" stroke="black" points="155.5,-185.88 155.5,-204.88 193.5,-204.88 193.5,-185.88 155.5,-185.88"/>
<text text-anchor="middle" x="174.5" y="-192.88" font-family="Helvetica,sans-Serif" font-size="10.00">spec</text>
</a>
</g>
</g>
<!-- Node4&#45;&gt;Node8 -->
<g id="edge39" class="edge">
<title>Node4&#45;&gt;Node8</title>
<path fill="none" stroke="midnightblue" d="M525.06,-191.45C448.49,-187.43 254.2,-187.7 193.74,-192.28"/>
<polygon fill="midnightblue" stroke="midnightblue" points="525.28,-194.97 535.47,-192.08 525.7,-187.98 525.28,-194.97"/>
</g>
<!-- Node11 -->
<g id="node11" class="node">
<title>Node11</title>
<g id="a_node11"><a xlink:href="group__grp__force__driver.html#gabbc245b3884ee8d8d3e2a52f25149f78" target="_top" xlink:title="Objective to be given to the Newton solver, using only function values.">
<polygon fill="white" stroke="black" points="384,-44.88 384,-63.88 419,-63.88 419,-44.88 384,-44.88"/>
<text text-anchor="middle" x="401.5" y="-51.88" font-family="Helvetica,sans-Serif" font-size="10.00">fcn1</text>
</a>
</g>
</g>
<!-- Node4&#45;&gt;Node11 -->
<g id="edge16" class="edge">
<title>Node4&#45;&gt;Node11</title>
<path fill="none" stroke="midnightblue" d="M542.13,-177.77C524.77,-157.07 494.14,-122.25 464,-96.38 449.58,-84 431.44,-71.99 418.61,-64"/>
<polygon fill="midnightblue" stroke="midnightblue" points="539.63,-180.25 548.71,-185.71 545.02,-175.78 539.63,-180.25"/>
</g>
<!-- Node12 -->
<g id="node12" class="node">
<title>Node12</title>
<g id="a_node12"><a xlink:href="group__grp__force__driver.html#gaec14f81fbdbedafbc4189489ec8ae178" target="_top" xlink:title="Employs Newton method to find , where &#160;and &#160;is defined in dforce() .">
<polygon fill="white" stroke="black" points="255,-59.88 255,-78.88 303,-78.88 303,-59.88 255,-59.88"/>
<text text-anchor="middle" x="279" y="-66.88" font-family="Helvetica,sans-Serif" font-size="10.00">newton</text>
</a>
</g>
</g>
<!-- Node4&#45;&gt;Node12 -->
<g id="edge34" class="edge">
<title>Node4&#45;&gt;Node12</title>
<path fill="none" stroke="midnightblue" d="M533.64,-180.31C515.27,-168.58 488.58,-152.32 464,-140.38 448.91,-133.05 349.07,-95.32 303.1,-78.04"/>
<polygon fill="midnightblue" stroke="midnightblue" points="531.88,-183.35 542.18,-185.83 535.68,-177.47 531.88,-183.35"/>
</g>
<!-- Node13 -->
<g id="node13" class="node">
<title>Node13</title>
<g id="a_node13"><a xlink:href="group__grp__force__driver.html#ga8ccd6c7d901872702521d0a0edf95412" target="_top" xlink:title="Objective to be given to the Newton solver, using function values and derivatives.">
<polygon fill="white" stroke="black" points="29.5,-53.88 29.5,-72.88 64.5,-72.88 64.5,-53.88 29.5,-53.88"/>
<text text-anchor="middle" x="47" y="-60.88" font-family="Helvetica,sans-Serif" font-size="10.00">fcn2</text>
</a>
</g>
</g>
<!-- Node4&#45;&gt;Node13 -->
<g id="edge28" class="edge">
<title>Node4&#45;&gt;Node13</title>
<path fill="none" stroke="midnightblue" d="M551.95,-175.76C542.53,-140.23 517.16,-66.05 464,-35.38 327.94,43.12 123.64,-31.58 64.55,-56.16"/>
<polygon fill="midnightblue" stroke="midnightblue" points="548.65,-176.98 554.46,-185.84 555.44,-175.29 548.65,-176.98"/>
</g>
<!-- Node4&#45;&gt;Node15 -->
<g id="edge29" class="edge">
<title>Node4&#45;&gt;Node15</title>
<path fill="none" stroke="midnightblue" d="M530.82,-210.37C520.24,-217.52 508.5,-226.81 500,-237.38 475.57,-267.76 493.21,-291.56 464,-317.38 459.65,-321.23 454.52,-324.3 449.12,-326.74"/>
<polygon fill="midnightblue" stroke="midnightblue" points="532.82,-213.25 539.34,-204.9 529.03,-207.36 532.82,-213.25"/>
</g>
<!-- Node16 -->
<g id="node16" class="node">
<title>Node16</title>
<g id="a_node16"><a xlink:href="group__grp__output.html#ga7401b50ec10c6598ee4a8112717a63ec" target="_top" xlink:title="Computes eigenvalues and eigenvectors of derivative matrix, &#160;and saves them to .ext....">
<polygon fill="white" stroke="black" points="256.5,-120.88 256.5,-139.88 301.5,-139.88 301.5,-120.88 256.5,-120.88"/>
<text text-anchor="middle" x="279" y="-127.88" font-family="Helvetica,sans-Serif" font-size="10.00">hesian</text>
</a>
</g>
</g>
<!-- Node4&#45;&gt;Node16 -->
<g id="edge31" class="edge">
<title>Node4&#45;&gt;Node16</title>
<path fill="none" stroke="midnightblue" d="M525.31,-187.46C507.39,-182.96 484.45,-177.26 464,-172.38 405.35,-158.4 335.96,-142.82 301.56,-135.16"/>
<polygon fill="midnightblue" stroke="midnightblue" points="524.67,-190.91 535.22,-189.96 526.38,-184.12 524.67,-190.91"/>
</g>
<!-- Node17 -->
<g id="node17" class="node">
<title>Node17</title>
<g id="a_node17"><a xlink:href="group__grp__conjugate__gradient.html#ga4d8415226e62a9fdb42b0fd0b464251e" target="_top" xlink:title="Returns the energy functional and it&#39;s derivatives with respect to geometry.">
<polygon fill="white" stroke="black" points="377.5,-270.88 377.5,-289.88 425.5,-289.88 425.5,-270.88 377.5,-270.88"/>
<text text-anchor="middle" x="401.5" y="-277.88" font-family="Helvetica,sans-Serif" font-size="10.00">pc00ab</text>
</a>
</g>
</g>
<!-- Node4&#45;&gt;Node17 -->
<g id="edge35" class="edge">
<title>Node4&#45;&gt;Node17</title>
<path fill="none" stroke="midnightblue" d="M535.51,-210.9C510.63,-229.2 471.59,-257.62 464,-261.38 451.88,-267.38 437.48,-271.95 425.66,-275.1"/>
<polygon fill="midnightblue" stroke="midnightblue" points="537.66,-213.65 543.64,-204.9 533.51,-208.02 537.66,-213.65"/>
</g>
<!-- Node6 -->
<g id="node6" class="node">
<title>Node6</title>
<g id="a_node6"><a xlink:href="xspech_8f90.html#a9fdc71dffd7c61ee4588a3f80d3ab9ce" target="_top" xlink:title="Main subroutine of SPEC.">
<polygon fill="white" stroke="black" points="255.5,-232.88 255.5,-251.88 302.5,-251.88 302.5,-232.88 255.5,-232.88"/>
<text text-anchor="middle" x="279" y="-239.88" font-family="Helvetica,sans-Serif" font-size="10.00">xspech</text>
</a>
</g>
</g>
<!-- Node5&#45;&gt;Node6 -->
<g id="edge5" class="edge">
<title>Node5&#45;&gt;Node6</title>
<path fill="none" stroke="midnightblue" d="M334.45,-242.38C323.06,-242.38 311.95,-242.38 302.77,-242.38"/>
<polygon fill="midnightblue" stroke="midnightblue" points="334.48,-245.88 344.48,-242.38 334.48,-238.88 334.48,-245.88"/>
</g>
<!-- Node6&#45;&gt;Node6 -->
<g id="edge14" class="edge">
<title>Node6&#45;&gt;Node6</title>
<path fill="none" stroke="midnightblue" d="M298.26,-261.78C296.97,-266.69 290.55,-270.38 279,-270.38 260.52,-270.38 255.17,-260.94 262.97,-252.14"/>
<polygon fill="midnightblue" stroke="midnightblue" points="301.52,-260.51 295.03,-252.14 294.89,-262.73 301.52,-260.51"/>
</g>
<!-- Node6&#45;&gt;Node7 -->
<g id="edge6" class="edge">
<title>Node6&#45;&gt;Node7</title>
<path fill="none" stroke="midnightblue" d="M251.24,-258.24C241.52,-265.85 230.16,-274.57 219,-281.38 207.46,-288.41 192.85,-294.23 183.84,-299.87"/>
<polygon fill="midnightblue" stroke="midnightblue" points="253.61,-260.83 259.32,-251.91 249.29,-255.32 253.61,-260.83"/>
</g>
<!-- Node6&#45;&gt;Node8 -->
<g id="edge8" class="edge">
<title>Node6&#45;&gt;Node8</title>
<path fill="none" stroke="midnightblue" d="M257.8,-227.62C239.19,-217.36 211.81,-204.86 193.82,-198.46"/>
<polygon fill="midnightblue" stroke="midnightblue" points="256.23,-230.75 266.64,-232.74 259.74,-224.7 256.23,-230.75"/>
</g>
<!-- Node10 -->
<g id="node10" class="node">
<title>Node10</title>
<g id="a_node10"><a xlink:href="xspech_8f90.html#a95271e8805067f801b5d4e524d6901d4" target="_top" xlink:title="Main program of SPEC.">
<polygon fill="white" stroke="black" points="142.5,-261.88 142.5,-280.88 206.5,-280.88 206.5,-261.88 142.5,-261.88"/>
<text text-anchor="middle" x="174.5" y="-268.88" font-family="Helvetica,sans-Serif" font-size="10.00">spec_main</text>
</a>
</g>
</g>
<!-- Node6&#45;&gt;Node10 -->
<g id="edge13" class="edge">
<title>Node6&#45;&gt;Node10</title>
<path fill="none" stroke="midnightblue" d="M245.34,-251.62C232.98,-255.11 218.96,-259.08 206.74,-262.54"/>
<polygon fill="midnightblue" stroke="midnightblue" points="246.58,-254.9 255.25,-248.81 244.68,-248.17 246.58,-254.9"/>
</g>
<!-- Node7&#45;&gt;Node6 -->
<g id="edge7" class="edge">
<title>Node7&#45;&gt;Node6</title>
<path fill="none" stroke="midnightblue" d="M227.19,-294.06C246.49,-280.84 264.72,-263.66 273.14,-252.2"/>
<polygon fill="midnightblue" stroke="midnightblue" points="225.07,-291.26 218.58,-299.64 228.87,-297.14 225.07,-291.26"/>
</g>
<!-- Node8&#45;&gt;Node4 -->
<g id="edge9" class="edge">
<title>Node8&#45;&gt;Node4</title>
<path fill="none" stroke="midnightblue" d="M204.05,-199.15C277.41,-203.27 471.22,-203.12 535.47,-198.68"/>
<polygon fill="midnightblue" stroke="midnightblue" points="203.95,-195.63 193.74,-198.48 203.49,-202.62 203.95,-195.63"/>
</g>
<!-- Node8&#45;&gt;Node6 -->
<g id="edge12" class="edge">
<title>Node8&#45;&gt;Node6</title>
<path fill="none" stroke="midnightblue" d="M195.46,-210.01C212.61,-219.48 237.34,-230.9 255.25,-237.67"/>
<polygon fill="midnightblue" stroke="midnightblue" points="197.21,-206.97 186.8,-204.98 193.69,-213.03 197.21,-206.97"/>
</g>
<!-- Node9 -->
<g id="node9" class="node">
<title>Node9</title>
<g id="a_node9"><a xlink:href="group__grp__output.html#ga0f962c09cd5d5eba99f1cba043cb3898" target="_top" xlink:title="Initialize the interface to the HDF5 library and open the output file.">
<polygon fill="white" stroke="black" points="0,-204.88 0,-223.88 94,-223.88 94,-204.88 0,-204.88"/>
<text text-anchor="middle" x="47" y="-211.88" font-family="Helvetica,sans-Serif" font-size="10.00">sphdf5::init_outfile</text>
</a>
</g>
</g>
<!-- Node8&#45;&gt;Node9 -->
<g id="edge10" class="edge">
<title>Node8&#45;&gt;Node9</title>
<path fill="none" stroke="midnightblue" d="M145.06,-199.68C130.04,-201.96 111.23,-204.81 94.18,-207.39"/>
<polygon fill="midnightblue" stroke="midnightblue" points="145.89,-203.1 155.25,-198.14 144.84,-196.18 145.89,-203.1"/>
</g>
<!-- Node9&#45;&gt;Node6 -->
<g id="edge11" class="edge">
<title>Node9&#45;&gt;Node6</title>
<path fill="none" stroke="midnightblue" d="M104.17,-221.22C152.64,-227.12 220.21,-235.34 255.11,-239.59"/>
<polygon fill="midnightblue" stroke="midnightblue" points="104.48,-217.73 94.13,-219.99 103.64,-224.68 104.48,-217.73"/>
</g>
<!-- Node11&#45;&gt;Node11 -->
<g id="edge17" class="edge">
<title>Node11&#45;&gt;Node11</title>
<path fill="none" stroke="midnightblue" d="M424.37,-71.52C424.68,-77.52 417.06,-82.38 401.5,-82.38 378.86,-82.38 373.03,-72.1 383.99,-62.98"/>
<polygon fill="midnightblue" stroke="midnightblue" points="427.29,-69.59 419.01,-62.98 421.36,-73.31 427.29,-69.59"/>
</g>
<!-- Node11&#45;&gt;Node12 -->
<g id="edge18" class="edge">
<title>Node11&#45;&gt;Node12</title>
<path fill="none" stroke="midnightblue" d="M373.51,-52C352.38,-53.19 323.31,-56.91 303.22,-61.03"/>
<polygon fill="midnightblue" stroke="midnightblue" points="373.88,-55.49 383.74,-51.62 373.62,-48.49 373.88,-55.49"/>
</g>
<!-- Node12&#45;&gt;Node8 -->
<g id="edge24" class="edge">
<title>Node12&#45;&gt;Node8</title>
<path fill="none" stroke="midnightblue" d="M263.57,-87.12C241.67,-114.04 200.76,-164.33 183.51,-185.54"/>
<polygon fill="midnightblue" stroke="midnightblue" points="266.36,-89.23 269.96,-79.27 260.93,-84.81 266.36,-89.23"/>
</g>
<!-- Node12&#45;&gt;Node11 -->
<g id="edge19" class="edge">
<title>Node12&#45;&gt;Node11</title>
<path fill="none" stroke="midnightblue" d="M313.21,-71.35C336.11,-69.67 365.58,-65.58 383.74,-61.31"/>
<polygon fill="midnightblue" stroke="midnightblue" points="312.99,-67.86 303.22,-71.95 313.41,-74.84 312.99,-67.86"/>
</g>
<!-- Node12&#45;&gt;Node12 -->
<g id="edge23" class="edge">
<title>Node12&#45;&gt;Node12</title>
<path fill="none" stroke="midnightblue" d="M298.26,-88.78C296.97,-93.69 290.55,-97.38 279,-97.38 260.52,-97.38 255.17,-87.94 262.97,-79.14"/>
<polygon fill="midnightblue" stroke="midnightblue" points="301.52,-87.51 295.03,-79.14 294.89,-89.73 301.52,-87.51"/>
</g>
<!-- Node12&#45;&gt;Node13 -->
<g id="edge20" class="edge">
<title>Node12&#45;&gt;Node13</title>
<path fill="none" stroke="midnightblue" d="M244.71,-63.59C194.77,-59.5 102.33,-57.49 64.65,-60.1"/>
<polygon fill="midnightblue" stroke="midnightblue" points="244.41,-67.08 254.68,-64.49 245.04,-60.11 244.41,-67.08"/>
</g>
<!-- Node14 -->
<g id="node14" class="node">
<title>Node14</title>
<g id="a_node14"><a xlink:href="group__grp__output.html#ga382822b303cbf8c56d6f54dcb379caf2" target="_top" xlink:title="read or write force&#45;derivative matrix .ext.sp.DF">
<polygon fill="white" stroke="black" points="142,-100.88 142,-119.88 207,-119.88 207,-100.88 142,-100.88"/>
<text text-anchor="middle" x="174.5" y="-107.88" font-family="Helvetica,sans-Serif" font-size="10.00">writereadgf</text>
</a>
</g>
</g>
<!-- Node12&#45;&gt;Node14 -->
<g id="edge25" class="edge">
<title>Node12&#45;&gt;Node14</title>
<path fill="none" stroke="midnightblue" d="M245.49,-76.05C225.89,-82.98 202.04,-93.1 187.85,-100.86"/>
<polygon fill="midnightblue" stroke="midnightblue" points="246.64,-79.36 255,-72.84 244.4,-72.72 246.64,-79.36"/>
</g>
<!-- Node13&#45;&gt;Node12 -->
<g id="edge22" class="edge">
<title>Node13&#45;&gt;Node12</title>
<path fill="none" stroke="midnightblue" d="M74.62,-68.58C120.02,-72.83 211.65,-75.14 254.68,-73.05"/>
<polygon fill="midnightblue" stroke="midnightblue" points="74.96,-65.1 64.65,-67.53 74.22,-72.06 74.96,-65.1"/>
</g>
<!-- Node13&#45;&gt;Node13 -->
<g id="edge21" class="edge">
<title>Node13&#45;&gt;Node13</title>
<path fill="none" stroke="midnightblue" d="M70.55,-79.91C71.46,-86.19 63.61,-91.38 47,-91.38 23.38,-91.38 17.47,-80.88 29.28,-71.69"/>
<polygon fill="midnightblue" stroke="midnightblue" points="73.36,-77.82 64.72,-71.69 67.65,-81.87 73.36,-77.82"/>
</g>
<!-- Node14&#45;&gt;Node12 -->
<g id="edge27" class="edge">
<title>Node14&#45;&gt;Node12</title>
<path fill="none" stroke="midnightblue" d="M216.61,-100.57C234.11,-93.98 253.25,-85.65 265.43,-79.02"/>
<polygon fill="midnightblue" stroke="midnightblue" points="215.31,-97.32 207.11,-104.02 217.7,-103.89 215.31,-97.32"/>
</g>
<!-- Node14&#45;&gt;Node13 -->
<g id="edge26" class="edge">
<title>Node14&#45;&gt;Node13</title>
<path fill="none" stroke="midnightblue" d="M138.55,-97.29C114.38,-88.24 83.31,-76.6 64.56,-69.58"/>
<polygon fill="midnightblue" stroke="midnightblue" points="137.51,-100.64 148.1,-100.87 139.97,-94.08 137.51,-100.64"/>
</g>
<!-- Node15&#45;&gt;Node3 -->
<g id="edge30" class="edge">
<title>Node15&#45;&gt;Node3</title>
<path fill="none" stroke="midnightblue" d="M471.62,-321.21C482.27,-312.41 484.11,-302.98 500,-297.38 548.2,-280.38 564.53,-289.32 615,-297.38 627.14,-299.32 640.18,-303.4 650.82,-306.45"/>
<polygon fill="midnightblue" stroke="midnightblue" points="469.51,-318.41 463.11,-326.85 473.38,-324.24 469.51,-318.41"/>
</g>
<!-- Node16&#45;&gt;Node8 -->
<g id="edge33" class="edge">
<title>Node16&#45;&gt;Node8</title>
<path fill="none" stroke="midnightblue" d="M254.21,-145.46C234.62,-157.88 207.44,-175.12 190.69,-185.75"/>
<polygon fill="midnightblue" stroke="midnightblue" points="256.31,-148.28 262.88,-139.97 252.56,-142.37 256.31,-148.28"/>
</g>
<!-- Node16&#45;&gt;Node16 -->
<g id="edge32" class="edge">
<title>Node16&#45;&gt;Node16</title>
<path fill="none" stroke="midnightblue" d="M298.26,-149.78C296.97,-154.69 290.55,-158.38 279,-158.38 260.52,-158.38 255.17,-148.94 262.97,-140.14"/>
<polygon fill="midnightblue" stroke="midnightblue" points="301.52,-148.51 295.03,-140.14 294.89,-150.73 301.52,-148.51"/>
</g>
<!-- Node17&#45;&gt;Node17 -->
<g id="edge38" class="edge">
<title>Node17&#45;&gt;Node17</title>
<path fill="none" stroke="midnightblue" d="M424.19,-299.41C422.96,-304.51 415.39,-308.38 401.5,-308.38 379.82,-308.38 373.55,-298.94 382.7,-290.14"/>
<polygon fill="midnightblue" stroke="midnightblue" points="427.4,-298 420.3,-290.14 420.94,-300.71 427.4,-298"/>
</g>
<!-- Node18 -->
<g id="node18" class="node">
<title>Node18</title>
<g id="a_node18"><a xlink:href="group__grp__conjugate__gradient.html#ga25a3bae2ff2ee0469b045de0d033398b" target="_top" xlink:title="Use preconditioned conjugate gradient method to find minimum of energy functional.">
<polygon fill="white" stroke="black" points="255,-288.88 255,-307.88 303,-307.88 303,-288.88 255,-288.88"/>
<text text-anchor="middle" x="279" y="-295.88" font-family="Helvetica,sans-Serif" font-size="10.00">pc00aa</text>
</a>
</g>
</g>
<!-- Node17&#45;&gt;Node18 -->
<g id="edge36" class="edge">
<title>Node17&#45;&gt;Node18</title>
<path fill="none" stroke="midnightblue" d="M367.16,-285.36C346.81,-288.4 321.31,-292.21 303.16,-294.92"/>
<polygon fill="midnightblue" stroke="midnightblue" points="367.89,-288.79 377.27,-283.85 366.86,-281.86 367.89,-288.79"/>
</g>
<!-- Node18&#45;&gt;Node18 -->
<g id="edge37" class="edge">
<title>Node18&#45;&gt;Node18</title>
<path fill="none" stroke="midnightblue" d="M298.26,-317.78C296.97,-322.69 290.55,-326.38 279,-326.38 260.52,-326.38 255.17,-316.94 262.97,-308.14"/>
<polygon fill="midnightblue" stroke="midnightblue" points="301.52,-316.51 295.03,-308.14 294.89,-318.73 301.52,-316.51"/>
</g>
<!-- Node19&#45;&gt;Node3 -->
<g id="edge42" class="edge">
<title>Node19&#45;&gt;Node3</title>
<path fill="none" stroke="midnightblue" d="M604.45,-336.76C623.55,-330.82 644.4,-323.27 658.03,-317.08"/>
<polygon fill="midnightblue" stroke="midnightblue" points="603.24,-333.47 594.67,-339.7 605.25,-340.17 603.24,-333.47"/>
</g>
<!-- Node20&#45;&gt;Node3 -->
<g id="edge46" class="edge">
<title>Node20&#45;&gt;Node3</title>
<path fill="none" stroke="midnightblue" d="M625.3,-314.04C634.51,-313.88 643.38,-313.48 650.92,-312.84"/>
<polygon fill="midnightblue" stroke="midnightblue" points="625.2,-310.54 615.23,-314.13 625.25,-317.54 625.2,-310.54"/>
</g>
<!-- Node21&#45;&gt;Node21 -->
<g id="edge55" class="edge">
<title>Node21&#45;&gt;Node21</title>
<path fill="none" stroke="midnightblue" d="M1073.6,-290.14C1072.41,-294.87 1067.38,-298.38 1058.5,-298.38 1043.93,-298.38 1039.71,-288.94 1045.86,-280.14"/>
<polygon fill="midnightblue" stroke="midnightblue" points="1076.93,-289.01 1071.14,-280.14 1070.13,-290.68 1076.93,-289.01"/>
</g>
<!-- Node22 -->
<g id="node22" class="node">
<title>Node22</title>
<g id="a_node22"><a xlink:href="group__grp__solver__driver.html#gacad623d4c5c006e9ad10116372f92ad3" target="_top" xlink:title="Constructs Beltrami field in given volume consistent with flux, helicity, rotational&#45;transform and/or...">
<polygon fill="white" stroke="black" points="946,-260.88 946,-279.88 997,-279.88 997,-260.88 946,-260.88"/>
<text text-anchor="middle" x="971.5" y="-267.88" font-family="Helvetica,sans-Serif" font-size="10.00">ma02aa</text>
</a>
</g>
</g>
<!-- Node21&#45;&gt;Node22 -->
<g id="edge49" class="edge">
<title>Node21&#45;&gt;Node22</title>
<path fill="none" stroke="midnightblue" d="M1022.72,-270.38C1014.1,-270.38 1005.04,-270.38 997.03,-270.38"/>
<polygon fill="midnightblue" stroke="midnightblue" points="1022.91,-273.88 1032.91,-270.38 1022.91,-266.88 1022.91,-273.88"/>
</g>
<!-- Node22&#45;&gt;Node22 -->
<g id="edge54" class="edge">
<title>Node22&#45;&gt;Node22</title>
<path fill="none" stroke="midnightblue" d="M986.97,-290.14C985.75,-294.87 980.6,-298.38 971.5,-298.38 956.57,-298.38 952.25,-288.94 958.55,-280.14"/>
<polygon fill="midnightblue" stroke="midnightblue" points="990.28,-288.98 984.45,-280.14 983.5,-290.69 990.28,-288.98"/>
</g>
<!-- Node23 -->
<g id="node23" class="node">
<title>Node23</title>
<g id="a_node23"><a xlink:href="dfp100_8f90.html#a17a3ac15cc83994394f7b4cc05e5898e" target="_top" xlink:title="Split the work between MPI nodes and evaluate the global constraint.">
<polygon fill="white" stroke="black" points="864,-260.88 864,-279.88 910,-279.88 910,-260.88 864,-260.88"/>
<text text-anchor="middle" x="887" y="-267.88" font-family="Helvetica,sans-Serif" font-size="10.00">dfp100</text>
</a>
</g>
</g>
<!-- Node22&#45;&gt;Node23 -->
<g id="edge50" class="edge">
<title>Node22&#45;&gt;Node23</title>
<path fill="none" stroke="midnightblue" d="M935.56,-270.38C926.97,-270.38 918.01,-270.38 910.21,-270.38"/>
<polygon fill="midnightblue" stroke="midnightblue" points="935.75,-273.88 945.75,-270.38 935.75,-266.88 935.75,-273.88"/>
</g>
<!-- Node23&#45;&gt;Node2 -->
<g id="edge53" class="edge">
<title>Node23&#45;&gt;Node2</title>
<path fill="none" stroke="midnightblue" d="M854.19,-281.64C839.58,-286.82 822.42,-292.89 808.45,-297.83"/>
<polygon fill="midnightblue" stroke="midnightblue" points="855.58,-284.86 863.84,-278.23 853.24,-278.26 855.58,-284.86"/>
</g>
<!-- Node23&#45;&gt;Node4 -->
<g id="edge51" class="edge">
<title>Node23&#45;&gt;Node4</title>
<path fill="none" stroke="midnightblue" d="M853.79,-263C787.05,-247.72 635.22,-212.95 579.5,-200.19"/>
<polygon fill="midnightblue" stroke="midnightblue" points="853.22,-266.46 863.75,-265.28 854.78,-259.64 853.22,-266.46"/>
</g>
<!-- Node23&#45;&gt;Node23 -->
<g id="edge52" class="edge">
<title>Node23&#45;&gt;Node23</title>
<path fill="none" stroke="midnightblue" d="M902.47,-290.14C901.25,-294.87 896.1,-298.38 887,-298.38 872.07,-298.38 867.75,-288.94 874.05,-280.14"/>
<polygon fill="midnightblue" stroke="midnightblue" points="905.78,-288.98 899.95,-280.14 899,-290.69 905.78,-288.98"/>
</g>
</g>
</svg>
