<?xml version="1.0" encoding="UTF-8" standalone="no"?>
<!DOCTYPE svg PUBLIC "-//W3C//DTD SVG 1.1//EN"
 "http://www.w3.org/Graphics/SVG/1.1/DTD/svg11.dtd">
<!-- Generated by graphviz version 2.47.1 (20210421.1823)
 -->
<!-- Title: lforce Pages: 1 -->
<svg width="758pt" height="331pt"
 viewBox="0.00 0.00 758.00 331.21" xmlns="http://www.w3.org/2000/svg" xmlns:xlink="http://www.w3.org/1999/xlink">
<g id="graph0" class="graph" transform="scale(1 1) rotate(0) translate(4 327.21)">
<title>lforce</title>
<polygon fill="white" stroke="transparent" points="-4,4 -4,-327.21 754,-327.21 754,4 -4,4"/>
<!-- Node1 -->
<g id="node1" class="node">
<title>Node1</title>
<g id="a_node1"><a xlink:title="Computes , and the spectral condensation constraints if required, on the interfaces,...">
<polygon fill="#bfbfbf" stroke="black" points="709,-115.5 709,-134.5 750,-134.5 750,-115.5 709,-115.5"/>
<text text-anchor="middle" x="729.5" y="-122.5" font-family="Helvetica,sans-Serif" font-size="10.00">lforce</text>
</a>
</g>
</g>
<!-- Node2 -->
<g id="node2" class="node">
<title>Node2</title>
<g id="a_node2"><a xlink:href="dfp200_8f90.html#a55ea75395f8c71731451e1add3720c7e" target="_top" xlink:title="Given the field consistent with the constraints and the geometry, computes local quantites related to...">
<polygon fill="white" stroke="black" points="627,-85.5 627,-104.5 673,-104.5 673,-85.5 627,-85.5"/>
<text text-anchor="middle" x="650" y="-92.5" font-family="Helvetica,sans-Serif" font-size="10.00">dfp200</text>
</a>
</g>
</g>
<!-- Node1&#45;&gt;Node2 -->
<g id="edge1" class="edge">
<title>Node1&#45;&gt;Node2</title>
<path fill="none" stroke="midnightblue" d="M699.46,-113.76C690.7,-110.37 681.24,-106.7 673.01,-103.52"/>
<polygon fill="midnightblue" stroke="midnightblue" points="698.35,-117.08 708.94,-117.43 700.88,-110.56 698.35,-117.08"/>
</g>
<!-- Node16 -->
<g id="node16" class="node">
<title>Node16</title>
<g id="a_node16"><a xlink:href="dfp200_8f90.html#a7b64c7392b45d0042d8bd7379c0761a5" target="_top" xlink:title="Evaluate the derivative of the square of the magnetic field modulus. Add spectral constraint derivati...">
<polygon fill="white" stroke="black" points="496.5,-170.5 496.5,-189.5 570.5,-189.5 570.5,-170.5 496.5,-170.5"/>
<text text-anchor="middle" x="533.5" y="-177.5" font-family="Helvetica,sans-Serif" font-size="10.00">evaluate_dbb</text>
</a>
</g>
</g>
<!-- Node1&#45;&gt;Node16 -->
<g id="edge33" class="edge">
<title>Node1&#45;&gt;Node16</title>
<path fill="none" stroke="midnightblue" d="M699.15,-133.32C663.96,-143.3 605.13,-159.98 568.14,-170.46"/>
<polygon fill="midnightblue" stroke="midnightblue" points="700.16,-136.67 708.83,-130.58 698.26,-129.94 700.16,-136.67"/>
</g>
<!-- Node3 -->
<g id="node3" class="node">
<title>Node3</title>
<g id="a_node3"><a xlink:href="group__grp__global__force.html#ga38c9d3c50bd043707fefa5137c9dbf44" target="_top" xlink:title="Calculates , where &#160;and , and .">
<polygon fill="white" stroke="black" points="511.5,-132.5 511.5,-151.5 555.5,-151.5 555.5,-132.5 511.5,-132.5"/>
<text text-anchor="middle" x="533.5" y="-139.5" font-family="Helvetica,sans-Serif" font-size="10.00">dforce</text>
</a>
</g>
</g>
<!-- Node2&#45;&gt;Node3 -->
<g id="edge2" class="edge">
<title>Node2&#45;&gt;Node3</title>
<path fill="none" stroke="midnightblue" d="M617.46,-107.95C597.81,-116.01 573.07,-126.17 555.73,-133.28"/>
<polygon fill="midnightblue" stroke="midnightblue" points="619,-111.1 626.92,-104.06 616.34,-104.62 619,-111.1"/>
</g>
<!-- Node12 -->
<g id="node12" class="node">
<title>Node12</title>
<g id="a_node12"><a xlink:href="dfp200_8f90.html#a6aca59cf350d7b1941f8389d50945a43" target="_top" xlink:title="get LU Beltrami matrices">
<polygon fill="white" stroke="black" points="315,-37.5 315,-56.5 440,-56.5 440,-37.5 315,-37.5"/>
<text text-anchor="middle" x="377.5" y="-44.5" font-family="Helvetica,sans-Serif" font-size="10.00">get_lu_beltrami_matrices</text>
</a>
</g>
</g>
<!-- Node2&#45;&gt;Node12 -->
<g id="edge30" class="edge">
<title>Node2&#45;&gt;Node12</title>
<path fill="none" stroke="midnightblue" d="M616.78,-83.55C581.98,-75.91 524.95,-66.98 476,-58 464.36,-55.86 451.97,-53.44 440.06,-51.21"/>
<polygon fill="midnightblue" stroke="midnightblue" points="616.3,-87.03 626.83,-85.87 617.87,-80.21 616.3,-87.03"/>
</g>
<!-- Node2&#45;&gt;Node16 -->
<g id="edge26" class="edge">
<title>Node2&#45;&gt;Node16</title>
<path fill="none" stroke="midnightblue" d="M631.48,-112.87C621.1,-125.42 606.89,-141.43 591,-152 577.9,-160.71 560.44,-165.78 548.41,-170.34"/>
<polygon fill="midnightblue" stroke="midnightblue" points="634.42,-114.81 638.03,-104.85 629,-110.38 634.42,-114.81"/>
</g>
<!-- Node17 -->
<g id="node17" class="node">
<title>Node17</title>
<g id="a_node17"><a xlink:href="dfp200_8f90.html#a73ddf39ecc5228201fb643779e17cd36" target="_top" xlink:title="Evaluate mu and psip derivatives and store them in dmupfdx.">
<polygon fill="white" stroke="black" points="486,-38.5 486,-57.5 581,-57.5 581,-38.5 486,-38.5"/>
<text text-anchor="middle" x="533.5" y="-45.5" font-family="Helvetica,sans-Serif" font-size="10.00">evaluate_dmupfdx</text>
</a>
</g>
</g>
<!-- Node2&#45;&gt;Node17 -->
<g id="edge28" class="edge">
<title>Node2&#45;&gt;Node17</title>
<path fill="none" stroke="midnightblue" d="M627.22,-80.63C612.06,-73.1 591.42,-64.29 573.46,-57.56"/>
<polygon fill="midnightblue" stroke="midnightblue" points="625.82,-83.85 636.31,-85.36 629.05,-77.64 625.82,-83.85"/>
</g>
<!-- Node18 -->
<g id="node18" class="node">
<title>Node18</title>
<g id="a_node18"><a xlink:href="dfp200_8f90.html#a5e56f1f4b1e6df11a9cffa6237c37469" target="_top" xlink:title="This routine evaluates the value of the magnetic field once the interface is perturbed using matrix p...">
<polygon fill="white" stroke="black" points="476,-0.5 476,-19.5 591,-19.5 591,-0.5 476,-0.5"/>
<text text-anchor="middle" x="533.5" y="-7.5" font-family="Helvetica,sans-Serif" font-size="10.00">get_perturbed_solution</text>
</a>
</g>
</g>
<!-- Node2&#45;&gt;Node18 -->
<g id="edge31" class="edge">
<title>Node2&#45;&gt;Node18</title>
<path fill="none" stroke="midnightblue" d="M640.87,-75.81C630.83,-58.43 612.44,-34.27 591,-20 590.83,-19.89 590.65,-19.77 590.48,-19.66"/>
<polygon fill="midnightblue" stroke="midnightblue" points="638.02,-77.91 645.77,-85.13 644.21,-74.65 638.02,-77.91"/>
</g>
<!-- Node4 -->
<g id="node4" class="node">
<title>Node4</title>
<g id="a_node4"><a xlink:href="namespaceallglobal.html#a7824bc37519fe88336534ce90ab2af16" target="_top" xlink:title=" ">
<polygon fill="white" stroke="black" points="320.5,-265.5 320.5,-284.5 434.5,-284.5 434.5,-265.5 320.5,-265.5"/>
<text text-anchor="middle" x="377.5" y="-272.5" font-family="Helvetica,sans-Serif" font-size="10.00">allglobal::check_inputs</text>
</a>
</g>
</g>
<!-- Node3&#45;&gt;Node4 -->
<g id="edge3" class="edge">
<title>Node3&#45;&gt;Node4</title>
<path fill="none" stroke="midnightblue" d="M501.75,-147.17C492.56,-149.98 483.07,-154.32 476,-161 444.69,-190.6 470.59,-220.67 440,-251 433.65,-257.29 425.46,-261.98 417.14,-265.46"/>
<polygon fill="midnightblue" stroke="midnightblue" points="502.65,-150.55 511.47,-144.67 500.91,-143.77 502.65,-150.55"/>
</g>
<!-- Node6 -->
<g id="node6" class="node">
<title>Node6</title>
<g id="a_node6"><a xlink:href="xspech_8f90.html#a48f45478dc2c9f70ea8aa1c60ad06503" target="_top" xlink:title=" ">
<polygon fill="white" stroke="black" points="143.5,-265.5 143.5,-284.5 181.5,-284.5 181.5,-265.5 143.5,-265.5"/>
<text text-anchor="middle" x="162.5" y="-272.5" font-family="Helvetica,sans-Serif" font-size="10.00">spec</text>
</a>
</g>
</g>
<!-- Node3&#45;&gt;Node6 -->
<g id="edge25" class="edge">
<title>Node3&#45;&gt;Node6</title>
<path fill="none" stroke="midnightblue" d="M501.49,-146.62C492.21,-149.41 482.72,-153.86 476,-161 434.02,-205.58 488.63,-256.78 440,-294 361.09,-354.39 229.58,-304.99 181.67,-283.63"/>
<polygon fill="midnightblue" stroke="midnightblue" points="502.46,-149.99 511.34,-144.21 500.79,-143.19 502.46,-149.99"/>
</g>
<!-- Node8 -->
<g id="node8" class="node">
<title>Node8</title>
<g id="a_node8"><a xlink:href="group__grp__force__driver.html#gabbc245b3884ee8d8d3e2a52f25149f78" target="_top" xlink:title="fcn1">
<polygon fill="white" stroke="black" points="360,-151.5 360,-170.5 395,-170.5 395,-151.5 360,-151.5"/>
<text text-anchor="middle" x="377.5" y="-158.5" font-family="Helvetica,sans-Serif" font-size="10.00">fcn1</text>
</a>
</g>
</g>
<!-- Node3&#45;&gt;Node8 -->
<g id="edge8" class="edge">
<title>Node3&#45;&gt;Node8</title>
<path fill="none" stroke="midnightblue" d="M501.22,-145.86C469.12,-149.82 420.41,-155.83 395.09,-158.95"/>
<polygon fill="midnightblue" stroke="midnightblue" points="501.91,-149.3 511.41,-144.6 501.06,-142.35 501.91,-149.3"/>
</g>
<!-- Node9 -->
<g id="node9" class="node">
<title>Node9</title>
<g id="a_node9"><a xlink:href="group__grp__force__driver.html#gaec14f81fbdbedafbc4189489ec8ae178" target="_top" xlink:title="Employs Newton method to find , where &#160;and &#160;is defined in dforce() .">
<polygon fill="white" stroke="black" points="231,-170.5 231,-189.5 279,-189.5 279,-170.5 231,-170.5"/>
<text text-anchor="middle" x="255" y="-177.5" font-family="Helvetica,sans-Serif" font-size="10.00">newton</text>
</a>
</g>
</g>
<!-- Node3&#45;&gt;Node9 -->
<g id="edge22" class="edge">
<title>Node3&#45;&gt;Node9</title>
<path fill="none" stroke="midnightblue" d="M501.74,-151.34C493.29,-154.18 484.2,-157.48 476,-161 459.37,-168.13 457.56,-175.65 440,-180 383.57,-193.98 314.37,-188.08 279.09,-183.5"/>
<polygon fill="midnightblue" stroke="midnightblue" points="502.84,-154.67 511.27,-148.25 500.68,-148.01 502.84,-154.67"/>
</g>
<!-- Node10 -->
<g id="node10" class="node">
<title>Node10</title>
<g id="a_node10"><a xlink:href="group__grp__force__driver.html#ga8ccd6c7d901872702521d0a0edf95412" target="_top" xlink:title="fcn2">
<polygon fill="white" stroke="black" points="29.5,-175.5 29.5,-194.5 64.5,-194.5 64.5,-175.5 29.5,-175.5"/>
<text text-anchor="middle" x="47" y="-182.5" font-family="Helvetica,sans-Serif" font-size="10.00">fcn2</text>
</a>
</g>
</g>
<!-- Node3&#45;&gt;Node10 -->
<g id="edge17" class="edge">
<title>Node3&#45;&gt;Node10</title>
<path fill="none" stroke="midnightblue" d="M500.97,-136.96C432.31,-127.08 264.61,-108.85 130,-142 103.93,-148.42 76.98,-164.76 61.39,-175.35"/>
<polygon fill="midnightblue" stroke="midnightblue" points="500.72,-140.46 511.12,-138.47 501.74,-133.54 500.72,-140.46"/>
</g>
<!-- Node3&#45;&gt;Node12 -->
<g id="edge18" class="edge">
<title>Node3&#45;&gt;Node12</title>
<path fill="none" stroke="midnightblue" d="M501.95,-132.67C493,-129.01 483.59,-124.18 476,-118 454.2,-100.25 462.67,-82.62 440,-66 434.68,-62.1 428.55,-58.99 422.26,-56.51"/>
<polygon fill="midnightblue" stroke="midnightblue" points="500.78,-135.97 511.37,-136.19 503.23,-129.41 500.78,-135.97"/>
</g>
<!-- Node13 -->
<g id="node13" class="node">
<title>Node13</title>
<g id="a_node13"><a xlink:href="group__grp__diagnostics.html#ga7401b50ec10c6598ee4a8112717a63ec" target="_top" xlink:title="Computes eigenvalues and eigenvectors of derivative matrix, .">
<polygon fill="white" stroke="black" points="232.5,-227.5 232.5,-246.5 277.5,-246.5 277.5,-227.5 232.5,-227.5"/>
<text text-anchor="middle" x="255" y="-234.5" font-family="Helvetica,sans-Serif" font-size="10.00">hesian</text>
</a>
</g>
</g>
<!-- Node3&#45;&gt;Node13 -->
<g id="edge20" class="edge">
<title>Node3&#45;&gt;Node13</title>
<path fill="none" stroke="midnightblue" d="M501.52,-149.5C492.88,-152.35 483.74,-156.13 476,-161 456.58,-173.22 460.09,-186.92 440,-198 386.67,-227.41 313.39,-234.67 277.53,-236.44"/>
<polygon fill="midnightblue" stroke="midnightblue" points="502.74,-152.79 511.32,-146.57 500.74,-146.08 502.74,-152.79"/>
</g>
<!-- Node14 -->
<g id="node14" class="node">
<title>Node14</title>
<g id="a_node14"><a xlink:href="group__grp__conjugate__gradient.html#ga4d8415226e62a9fdb42b0fd0b464251e" target="_top" xlink:title="Returns the energy functional and it&#39;s derivatives with respect to geometry.">
<polygon fill="white" stroke="black" points="353.5,-75.5 353.5,-94.5 401.5,-94.5 401.5,-75.5 353.5,-75.5"/>
<text text-anchor="middle" x="377.5" y="-82.5" font-family="Helvetica,sans-Serif" font-size="10.00">pc00ab</text>
</a>
</g>
</g>
<!-- Node3&#45;&gt;Node14 -->
<g id="edge23" class="edge">
<title>Node3&#45;&gt;Node14</title>
<path fill="none" stroke="midnightblue" d="M502,-130.71C472.46,-119.78 428.33,-103.44 401.59,-93.55"/>
<polygon fill="midnightblue" stroke="midnightblue" points="500.82,-134.01 511.41,-134.19 503.25,-127.44 500.82,-134.01"/>
</g>
<!-- Node5 -->
<g id="node5" class="node">
<title>Node5</title>
<g id="a_node5"><a xlink:href="xspech_8f90.html#aea782eae089760a491c2c54f9903abcc" target="_top" xlink:title="Main program of SPEC.">
<polygon fill="white" stroke="black" points="231.5,-265.5 231.5,-284.5 278.5,-284.5 278.5,-265.5 231.5,-265.5"/>
<text text-anchor="middle" x="255" y="-272.5" font-family="Helvetica,sans-Serif" font-size="10.00">xspech</text>
</a>
</g>
</g>
<!-- Node4&#45;&gt;Node5 -->
<g id="edge4" class="edge">
<title>Node4&#45;&gt;Node5</title>
<path fill="none" stroke="midnightblue" d="M310.45,-275C299.06,-275 287.95,-275 278.77,-275"/>
<polygon fill="midnightblue" stroke="midnightblue" points="310.48,-278.5 320.48,-275 310.48,-271.5 310.48,-278.5"/>
</g>
<!-- Node5&#45;&gt;Node6 -->
<g id="edge5" class="edge">
<title>Node5&#45;&gt;Node6</title>
<path fill="none" stroke="midnightblue" d="M220.97,-268.47C207.75,-267.98 193.01,-268.31 181.77,-269.46"/>
<polygon fill="midnightblue" stroke="midnightblue" points="220.98,-271.98 231.16,-269.05 221.38,-264.99 220.98,-271.98"/>
</g>
<!-- Node6&#45;&gt;Node5 -->
<g id="edge7" class="edge">
<title>Node6&#45;&gt;Node5</title>
<path fill="none" stroke="midnightblue" d="M191.82,-281.31C204.48,-282 219.22,-281.88 231.16,-280.95"/>
<polygon fill="midnightblue" stroke="midnightblue" points="192.01,-277.82 181.77,-280.54 191.48,-284.8 192.01,-277.82"/>
</g>
<!-- Node7 -->
<g id="node7" class="node">
<title>Node7</title>
<g id="a_node7"><a xlink:href="sphdf5_8f90.html#a0f962c09cd5d5eba99f1cba043cb3898" target="_top" xlink:title="initialize the interface to the HDF5 library and open the output file">
<polygon fill="white" stroke="black" points="0,-265.5 0,-284.5 94,-284.5 94,-265.5 0,-265.5"/>
<text text-anchor="middle" x="47" y="-272.5" font-family="Helvetica,sans-Serif" font-size="10.00">sphdf5::init_outfile</text>
</a>
</g>
</g>
<!-- Node6&#45;&gt;Node7 -->
<g id="edge6" class="edge">
<title>Node6&#45;&gt;Node7</title>
<path fill="none" stroke="midnightblue" d="M133.13,-275C121.33,-275 107.32,-275 94.11,-275"/>
<polygon fill="midnightblue" stroke="midnightblue" points="133.26,-278.5 143.26,-275 133.26,-271.5 133.26,-278.5"/>
</g>
<!-- Node8&#45;&gt;Node9 -->
<g id="edge9" class="edge">
<title>Node8&#45;&gt;Node9</title>
<path fill="none" stroke="midnightblue" d="M349.51,-159.52C328.38,-161.41 299.31,-166.09 279.22,-170.88"/>
<polygon fill="midnightblue" stroke="midnightblue" points="350.02,-162.99 359.74,-158.8 349.52,-156.01 350.02,-162.99"/>
</g>
<!-- Node9&#45;&gt;Node6 -->
<g id="edge13" class="edge">
<title>Node9&#45;&gt;Node6</title>
<path fill="none" stroke="midnightblue" d="M237.52,-197.3C218.49,-217.28 187.86,-249.43 172.66,-265.39"/>
<polygon fill="midnightblue" stroke="midnightblue" points="240.29,-199.46 244.66,-189.81 235.22,-194.64 240.29,-199.46"/>
</g>
<!-- Node9&#45;&gt;Node8 -->
<g id="edge10" class="edge">
<title>Node9&#45;&gt;Node8</title>
<path fill="none" stroke="midnightblue" d="M289.21,-180.87C312.11,-178.43 341.58,-173.36 359.74,-168.49"/>
<polygon fill="midnightblue" stroke="midnightblue" points="288.85,-177.39 279.22,-181.8 289.5,-184.36 288.85,-177.39"/>
</g>
<!-- Node9&#45;&gt;Node10 -->
<g id="edge11" class="edge">
<title>Node9&#45;&gt;Node10</title>
<path fill="none" stroke="midnightblue" d="M220.71,-175.68C176.07,-174.25 98.52,-176.54 64.64,-180.71"/>
<polygon fill="midnightblue" stroke="midnightblue" points="220.63,-179.18 230.77,-176.1 220.92,-172.19 220.63,-179.18"/>
</g>
<!-- Node11 -->
<g id="node11" class="node">
<title>Node11</title>
<g id="a_node11"><a xlink:href="group__grp__force__driver.html#ga382822b303cbf8c56d6f54dcb379caf2" target="_top" xlink:title="read or write force&#45;derivative matrix">
<polygon fill="white" stroke="black" points="130,-151.5 130,-170.5 195,-170.5 195,-151.5 130,-151.5"/>
<text text-anchor="middle" x="162.5" y="-158.5" font-family="Helvetica,sans-Serif" font-size="10.00">writereadgf</text>
</a>
</g>
</g>
<!-- Node9&#45;&gt;Node11 -->
<g id="edge14" class="edge">
<title>Node9&#45;&gt;Node11</title>
<path fill="none" stroke="midnightblue" d="M225.35,-167.66C215.71,-165.12 204.91,-162.81 195.06,-161.16"/>
<polygon fill="midnightblue" stroke="midnightblue" points="224.67,-171.1 235.25,-170.47 226.59,-164.37 224.67,-171.1"/>
</g>
<!-- Node10&#45;&gt;Node9 -->
<g id="edge12" class="edge">
<title>Node10&#45;&gt;Node9</title>
<path fill="none" stroke="midnightblue" d="M74.89,-189.08C115.62,-190.87 192.31,-188.92 230.77,-185.03"/>
<polygon fill="midnightblue" stroke="midnightblue" points="74.83,-185.57 64.64,-188.49 74.43,-192.56 74.83,-185.57"/>
</g>
<!-- Node11&#45;&gt;Node9 -->
<g id="edge16" class="edge">
<title>Node11&#45;&gt;Node9</title>
<path fill="none" stroke="midnightblue" d="M192.06,-173.32C204.51,-176.6 218.91,-179.51 230.69,-181.1"/>
<polygon fill="midnightblue" stroke="midnightblue" points="192.75,-169.88 182.17,-170.5 190.83,-176.61 192.75,-169.88"/>
</g>
<!-- Node11&#45;&gt;Node10 -->
<g id="edge15" class="edge">
<title>Node11&#45;&gt;Node10</title>
<path fill="none" stroke="midnightblue" d="M119.88,-169.8C100.78,-173.84 79.22,-178.4 64.73,-181.46"/>
<polygon fill="midnightblue" stroke="midnightblue" points="120.82,-173.18 129.88,-167.69 119.38,-166.33 120.82,-173.18"/>
</g>
<!-- Node12&#45;&gt;Node2 -->
<g id="edge19" class="edge">
<title>Node12&#45;&gt;Node2</title>
<path fill="none" stroke="midnightblue" d="M403.37,-59.74C423.04,-65.6 451.22,-71.46 476,-76 530.02,-85.91 593.87,-95.76 626.83,-97.56"/>
<polygon fill="midnightblue" stroke="midnightblue" points="404.25,-56.34 393.66,-56.59 402.09,-63 404.25,-56.34"/>
</g>
<!-- Node13&#45;&gt;Node6 -->
<g id="edge21" class="edge">
<title>Node13&#45;&gt;Node6</title>
<path fill="none" stroke="midnightblue" d="M222.53,-250.22C208.83,-255.97 193.26,-262.5 181.56,-267.42"/>
<polygon fill="midnightblue" stroke="midnightblue" points="224.23,-253.3 232.09,-246.2 221.52,-246.84 224.23,-253.3"/>
</g>
<!-- Node15 -->
<g id="node15" class="node">
<title>Node15</title>
<g id="a_node15"><a xlink:href="group__grp__conjugate__gradient.html#ga25a3bae2ff2ee0469b045de0d033398b" target="_top" xlink:title="Use preconditioned conjugate gradient method to find minimum of energy functional.">
<polygon fill="white" stroke="black" points="231,-75.5 231,-94.5 279,-94.5 279,-75.5 231,-75.5"/>
<text text-anchor="middle" x="255" y="-82.5" font-family="Helvetica,sans-Serif" font-size="10.00">pc00aa</text>
</a>
</g>
</g>
<!-- Node14&#45;&gt;Node15 -->
<g id="edge24" class="edge">
<title>Node14&#45;&gt;Node15</title>
<path fill="none" stroke="midnightblue" d="M343.16,-85C322.81,-85 297.31,-85 279.16,-85"/>
<polygon fill="midnightblue" stroke="midnightblue" points="343.27,-88.5 353.27,-85 343.27,-81.5 343.27,-88.5"/>
</g>
<!-- Node16&#45;&gt;Node2 -->
<g id="edge27" class="edge">
<title>Node16&#45;&gt;Node2</title>
<path fill="none" stroke="midnightblue" d="M580.27,-175.95C584.02,-174.21 587.65,-172.23 591,-170 616.65,-152.93 637.93,-121.71 645.77,-104.87"/>
<polygon fill="midnightblue" stroke="midnightblue" points="578.77,-172.79 570.79,-179.76 581.37,-179.28 578.77,-172.79"/>
</g>
<!-- Node17&#45;&gt;Node2 -->
<g id="edge29" class="edge">
<title>Node17&#45;&gt;Node2</title>
<path fill="none" stroke="midnightblue" d="M556.02,-62.24C576.28,-72.33 606.48,-84.74 626.92,-91.4"/>
<polygon fill="midnightblue" stroke="midnightblue" points="557.44,-59.04 546.96,-57.51 554.2,-65.24 557.44,-59.04"/>
</g>
<!-- Node18&#45;&gt;Node2 -->
<g id="edge32" class="edge">
<title>Node18&#45;&gt;Node2</title>
<path fill="none" stroke="midnightblue" d="M557.97,-23.11C568.64,-26.89 581.08,-31.4 591,-38 610.56,-51.01 627.57,-72.25 638.03,-85.15"/>
<polygon fill="midnightblue" stroke="midnightblue" points="559.01,-19.76 548.41,-19.66 556.63,-26.35 559.01,-19.76"/>
</g>
</g>
</svg>
