<?xml version="1.0" encoding="UTF-8" standalone="no"?>
<!DOCTYPE svg PUBLIC "-//W3C//DTD SVG 1.1//EN"
 "http://www.w3.org/Graphics/SVG/1.1/DTD/svg11.dtd">
<!-- Generated by graphviz version 2.44.1 (0)
 -->
<!-- Title: writereadgf Pages: 1 -->
<svg width="541pt" height="142pt"
 viewBox="0.00 0.00 541.00 142.00" xmlns="http://www.w3.org/2000/svg" xmlns:xlink="http://www.w3.org/1999/xlink">
<g id="graph0" class="graph" transform="scale(1 1) rotate(0) translate(4 138)">
<title>writereadgf</title>
<polygon fill="white" stroke="transparent" points="-4,4 -4,-138 537,-138 537,4 -4,4"/>
<!-- Node1 -->
<g id="node1" class="node">
<title>Node1</title>
<g id="a_node1"><a xlink:title="read or write force&#45;derivative matrix">
<polygon fill="#bfbfbf" stroke="black" points="0,-76.5 0,-95.5 73,-95.5 73,-76.5 0,-76.5"/>
<text text-anchor="middle" x="36.5" y="-83.5" font-family="Helvetica,sans-Serif" font-size="10.00">writereadgf</text>
</a>
</g>
</g>
<!-- Node2 -->
<g id="node2" class="node">
<title>Node2</title>
<g id="a_node2"><a xlink:href="group__grp__build__matrices.xhtml#ga1c52bb6dbffdb432550aae12b096080f" target="_top" xlink:title="Constructs energy and helicity matrices that represent the Beltrami linear system....">
<polygon fill="white" stroke="black" points="111,-114.5 111,-133.5 160,-133.5 160,-114.5 111,-114.5"/>
<text text-anchor="middle" x="135.5" y="-121.5" font-family="Helvetica,sans-Serif" font-size="10.00">matrix</text>
</a>
</g>
</g>
<!-- Node1&#45;&gt;Node2 -->
<g id="edge1" class="edge">
<title>Node1&#45;&gt;Node2</title>
<path fill="none" stroke="midnightblue" d="M61.98,-95.59C73.87,-100.25 88.35,-105.92 101.23,-110.97"/>
<polygon fill="midnightblue" stroke="midnightblue" points="100.11,-114.29 110.7,-114.68 102.67,-107.77 100.11,-114.29"/>
</g>
<!-- Node3 -->
<g id="node3" class="node">
<title>Node3</title>
<g id="a_node3"><a xlink:href="group__grp__force__driver.xhtml#gaec14f81fbdbedafbc4189489ec8ae178" target="_top" xlink:title="Employs Newton method to find , where &#160;and &#160;is defined in dforce() .">
<polygon fill="white" stroke="black" points="109,-76.5 109,-95.5 162,-95.5 162,-76.5 109,-76.5"/>
<text text-anchor="middle" x="135.5" y="-83.5" font-family="Helvetica,sans-Serif" font-size="10.00">newton</text>
</a>
</g>
</g>
<!-- Node1&#45;&gt;Node3 -->
<g id="edge2" class="edge">
<title>Node1&#45;&gt;Node3</title>
<path fill="none" stroke="midnightblue" d="M73.07,-79.47C81.43,-79.18 90.35,-79.18 98.72,-79.46"/>
<polygon fill="midnightblue" stroke="midnightblue" points="98.79,-82.97 108.95,-79.97 99.14,-75.98 98.79,-82.97"/>
</g>
<!-- Node3&#45;&gt;Node1 -->
<g id="edge16" class="edge">
<title>Node3&#45;&gt;Node1</title>
<path fill="none" stroke="midnightblue" d="M108.95,-92.03C101.07,-92.56 92.12,-92.8 83.3,-92.74"/>
<polygon fill="midnightblue" stroke="midnightblue" points="83.14,-89.24 73.07,-92.53 82.99,-96.24 83.14,-89.24"/>
</g>
<!-- Node4 -->
<g id="node4" class="node">
<title>Node4</title>
<g id="a_node4"><a xlink:href="group__grp__force__driver.xhtml#gabbc245b3884ee8d8d3e2a52f25149f78" target="_top" xlink:title="fcn1">
<polygon fill="white" stroke="black" points="198,-76.5 198,-95.5 236,-95.5 236,-76.5 198,-76.5"/>
<text text-anchor="middle" x="217" y="-83.5" font-family="Helvetica,sans-Serif" font-size="10.00">fcn1</text>
</a>
</g>
</g>
<!-- Node3&#45;&gt;Node4 -->
<g id="edge3" class="edge">
<title>Node3&#45;&gt;Node4</title>
<path fill="none" stroke="midnightblue" d="M162.09,-79.65C170.26,-79.17 179.35,-79.12 187.7,-79.51"/>
<polygon fill="midnightblue" stroke="midnightblue" points="187.54,-83 197.76,-80.22 188.03,-76.02 187.54,-83"/>
</g>
<!-- Node7 -->
<g id="node7" class="node">
<title>Node7</title>
<g id="a_node7"><a xlink:href="group__grp__force__driver.xhtml#ga8ccd6c7d901872702521d0a0edf95412" target="_top" xlink:title="fcn2">
<polygon fill="white" stroke="black" points="198,-38.5 198,-57.5 236,-57.5 236,-38.5 198,-38.5"/>
<text text-anchor="middle" x="217" y="-45.5" font-family="Helvetica,sans-Serif" font-size="10.00">fcn2</text>
</a>
</g>
</g>
<!-- Node3&#45;&gt;Node7 -->
<g id="edge7" class="edge">
<title>Node3&#45;&gt;Node7</title>
<path fill="none" stroke="midnightblue" d="M146.89,-76.3C157.36,-69.45 173.95,-60.94 188.26,-54.79"/>
<polygon fill="midnightblue" stroke="midnightblue" points="189.75,-57.97 197.7,-50.96 187.11,-51.48 189.75,-57.97"/>
</g>
<!-- Node4&#45;&gt;Node3 -->
<g id="edge4" class="edge">
<title>Node4&#45;&gt;Node3</title>
<path fill="none" stroke="midnightblue" d="M197.76,-91.78C190.16,-92.54 181.06,-92.85 172.23,-92.72"/>
<polygon fill="midnightblue" stroke="midnightblue" points="172.21,-89.22 162.09,-92.35 171.96,-96.21 172.21,-89.22"/>
</g>
<!-- Node5 -->
<g id="node5" class="node">
<title>Node5</title>
<g id="a_node5"><a xlink:href="group__grp__packing.xhtml#ga094e630c02686dd178749eb1efbf13fb" target="_top" xlink:title="Packs, and unpacks, geometrical degrees of freedom; and sets coordinate axis.">
<polygon fill="white" stroke="black" points="296.5,-38.5 296.5,-57.5 345.5,-57.5 345.5,-38.5 296.5,-38.5"/>
<text text-anchor="middle" x="321" y="-45.5" font-family="Helvetica,sans-Serif" font-size="10.00">packxi</text>
</a>
</g>
</g>
<!-- Node4&#45;&gt;Node5 -->
<g id="edge5" class="edge">
<title>Node4&#45;&gt;Node5</title>
<path fill="none" stroke="midnightblue" d="M236.24,-79.21C250.22,-74 269.91,-66.66 286.69,-60.41"/>
<polygon fill="midnightblue" stroke="midnightblue" points="288.01,-63.65 296.16,-56.88 285.57,-57.09 288.01,-63.65"/>
</g>
<!-- Node6 -->
<g id="node6" class="node">
<title>Node6</title>
<g id="a_node6"><a xlink:href="namespaceallglobal.xhtml#a282c297c96abdab5e76b5ace440b09a8" target="_top" xlink:title="The restart file is written.">
<polygon fill="white" stroke="black" points="272,-76.5 272,-95.5 370,-95.5 370,-76.5 272,-76.5"/>
<text text-anchor="middle" x="321" y="-83.5" font-family="Helvetica,sans-Serif" font-size="10.00">allglobal::wrtend</text>
</a>
</g>
</g>
<!-- Node4&#45;&gt;Node6 -->
<g id="edge6" class="edge">
<title>Node4&#45;&gt;Node6</title>
<path fill="none" stroke="midnightblue" d="M236.24,-86C243.56,-86 252.44,-86 261.65,-86"/>
<polygon fill="midnightblue" stroke="midnightblue" points="261.72,-89.5 271.72,-86 261.72,-82.5 261.72,-89.5"/>
</g>
<!-- Node7&#45;&gt;Node1 -->
<g id="edge14" class="edge">
<title>Node7&#45;&gt;Node1</title>
<path fill="none" stroke="midnightblue" d="M197.73,-50.76C176.36,-54.11 139.95,-60.15 109,-67 99.88,-69.02 90.18,-71.42 80.95,-73.83"/>
<polygon fill="midnightblue" stroke="midnightblue" points="79.95,-70.47 71.18,-76.43 81.75,-77.24 79.95,-70.47"/>
</g>
<!-- Node7&#45;&gt;Node3 -->
<g id="edge8" class="edge">
<title>Node7&#45;&gt;Node3</title>
<path fill="none" stroke="midnightblue" d="M205.89,-57.52C197.14,-63.27 183.98,-70.24 171.46,-76"/>
<polygon fill="midnightblue" stroke="midnightblue" points="169.83,-72.89 162.09,-80.12 172.65,-79.29 169.83,-72.89"/>
</g>
<!-- Node7&#45;&gt;Node5 -->
<g id="edge9" class="edge">
<title>Node7&#45;&gt;Node5</title>
<path fill="none" stroke="midnightblue" d="M236.24,-48C249.96,-48 269.18,-48 285.74,-48"/>
<polygon fill="midnightblue" stroke="midnightblue" points="286.16,-51.5 296.16,-48 286.16,-44.5 286.16,-51.5"/>
</g>
<!-- Node7&#45;&gt;Node6 -->
<g id="edge15" class="edge">
<title>Node7&#45;&gt;Node6</title>
<path fill="none" stroke="midnightblue" d="M236.24,-54.79C249.62,-59.78 268.22,-66.71 284.49,-72.77"/>
<polygon fill="midnightblue" stroke="midnightblue" points="283.67,-76.2 294.26,-76.41 286.11,-69.64 283.67,-76.2"/>
</g>
<!-- Node8 -->
<g id="node8" class="node">
<title>Node8</title>
<g id="a_node8"><a xlink:href="group__grp__volume.xhtml#gae4c62d20b8fef07f4471b5b0889ab005" target="_top" xlink:title="Computes volume of each region; and, if required, the derivatives of the volume with respect to the i...">
<polygon fill="white" stroke="black" points="294.5,-0.5 294.5,-19.5 347.5,-19.5 347.5,-0.5 294.5,-0.5"/>
<text text-anchor="middle" x="321" y="-7.5" font-family="Helvetica,sans-Serif" font-size="10.00">volume</text>
</a>
</g>
</g>
<!-- Node7&#45;&gt;Node8 -->
<g id="edge10" class="edge">
<title>Node7&#45;&gt;Node8</title>
<path fill="none" stroke="midnightblue" d="M236.24,-41.21C249.62,-36.22 268.22,-29.29 284.49,-23.23"/>
<polygon fill="midnightblue" stroke="midnightblue" points="286.11,-26.36 294.26,-19.59 283.67,-19.8 286.11,-26.36"/>
</g>
<!-- Node9 -->
<g id="node9" class="node">
<title>Node9</title>
<g id="a_node9"><a xlink:href="group__grp__geometry.xhtml#gaaca20aa60eaf39055f3c9d5c02a24ac2" target="_top" xlink:title="Calculates coordinates, , and metrics, using FFTs.">
<polygon fill="white" stroke="black" points="406,-0.5 406,-19.5 455,-19.5 455,-0.5 406,-0.5"/>
<text text-anchor="middle" x="430.5" y="-7.5" font-family="Helvetica,sans-Serif" font-size="10.00">coords</text>
</a>
</g>
</g>
<!-- Node8&#45;&gt;Node9 -->
<g id="edge11" class="edge">
<title>Node8&#45;&gt;Node9</title>
<path fill="none" stroke="midnightblue" d="M347.75,-4.14C362.08,-3.14 380.1,-2.98 395.57,-3.68"/>
<polygon fill="midnightblue" stroke="midnightblue" points="395.61,-7.18 405.8,-4.29 396.03,-0.2 395.61,-7.18"/>
</g>
<!-- Node9&#45;&gt;Node8 -->
<g id="edge13" class="edge">
<title>Node9&#45;&gt;Node8</title>
<path fill="none" stroke="midnightblue" d="M405.8,-15.71C391.84,-16.79 373.89,-17.03 358.18,-16.42"/>
<polygon fill="midnightblue" stroke="midnightblue" points="357.92,-12.9 347.75,-15.86 357.55,-19.89 357.92,-12.9"/>
</g>
<!-- Node10 -->
<g id="node10" class="node">
<title>Node10</title>
<g id="a_node10"><a xlink:href="group__grp__numerics.xhtml#ga1fd52accb0646f535f9bcc46cf5a68f3" target="_top" xlink:title="Inverse Fourier transform (fftw wrapper)">
<polygon fill="white" stroke="black" points="491,-0.5 491,-19.5 533,-19.5 533,-0.5 491,-0.5"/>
<text text-anchor="middle" x="512" y="-7.5" font-family="Helvetica,sans-Serif" font-size="10.00">invfft</text>
</a>
</g>
</g>
<!-- Node9&#45;&gt;Node10 -->
<g id="edge12" class="edge">
<title>Node9&#45;&gt;Node10</title>
<path fill="none" stroke="midnightblue" d="M455.35,-10C463.33,-10 472.33,-10 480.72,-10"/>
<polygon fill="midnightblue" stroke="midnightblue" points="480.92,-13.5 490.92,-10 480.92,-6.5 480.92,-13.5"/>
</g>
</g>
</svg>
