<?xml version="1.0" encoding="UTF-8" standalone="no"?>
<!DOCTYPE svg PUBLIC "-//W3C//DTD SVG 1.1//EN"
 "http://www.w3.org/Graphics/SVG/1.1/DTD/svg11.dtd">
<!-- Generated by graphviz version 2.47.0 (20210407.0042)
 -->
<!-- Title: fcn1 Pages: 1 -->
<svg width="309pt" height="113pt"
 viewBox="0.00 0.00 309.00 113.00" xmlns="http://www.w3.org/2000/svg" xmlns:xlink="http://www.w3.org/1999/xlink">
<g id="graph0" class="graph" transform="scale(1 1) rotate(0) translate(4 109)">
<title>fcn1</title>
<polygon fill="white" stroke="transparent" points="-4,4 -4,-109 305,-109 305,4 -4,4"/>
<!-- Node1 -->
<g id="node1" class="node">
<title>Node1</title>
<g id="a_node1"><a xlink:title="fcn1">
<polygon fill="#bfbfbf" stroke="black" points="266,-38.5 266,-57.5 301,-57.5 301,-38.5 266,-38.5"/>
<text text-anchor="middle" x="283.5" y="-45.5" font-family="Helvetica,sans-Serif" font-size="10.00">fcn1</text>
</a>
</g>
</g>
<!-- Node2 -->
<g id="node2" class="node">
<title>Node2</title>
<g id="a_node2"><a xlink:href="group__grp__force__driver.html#gaec14f81fbdbedafbc4189489ec8ae178" target="_top" xlink:title="Employs Newton method to find , where &#160;and &#160;is defined in dforce() .">
<polygon fill="white" stroke="black" points="182,-38.5 182,-57.5 230,-57.5 230,-38.5 182,-38.5"/>
<text text-anchor="middle" x="206" y="-45.5" font-family="Helvetica,sans-Serif" font-size="10.00">newton</text>
</a>
</g>
</g>
<!-- Node1&#45;&gt;Node2 -->
<g id="edge1" class="edge">
<title>Node1&#45;&gt;Node2</title>
<path fill="none" stroke="midnightblue" d="M255.68,-41.51C247.29,-41.1 238.11,-41.18 230.01,-41.73"/>
<polygon fill="midnightblue" stroke="midnightblue" points="255.51,-45 265.74,-42.28 256.04,-38.03 255.51,-45"/>
</g>
<!-- Node2&#45;&gt;Node1 -->
<g id="edge2" class="edge">
<title>Node2&#45;&gt;Node1</title>
<path fill="none" stroke="midnightblue" d="M240.13,-54.7C248.99,-54.88 258.19,-54.55 265.74,-53.72"/>
<polygon fill="midnightblue" stroke="midnightblue" points="240.15,-51.2 230.01,-54.27 239.85,-58.2 240.15,-51.2"/>
</g>
<!-- Node3 -->
<g id="node3" class="node">
<title>Node3</title>
<g id="a_node3"><a xlink:href="group__grp__force__driver.html#ga8ccd6c7d901872702521d0a0edf95412" target="_top" xlink:title="fcn2">
<polygon fill="white" stroke="black" points="5,-85.5 5,-104.5 40,-104.5 40,-85.5 5,-85.5"/>
<text text-anchor="middle" x="22.5" y="-92.5" font-family="Helvetica,sans-Serif" font-size="10.00">fcn2</text>
</a>
</g>
</g>
<!-- Node2&#45;&gt;Node3 -->
<g id="edge3" class="edge">
<title>Node2&#45;&gt;Node3</title>
<path fill="none" stroke="midnightblue" d="M172,-50.48C163.57,-52.89 154.48,-55.67 146,-58 108.56,-68.29 63.96,-77.81 40.26,-85.68"/>
<polygon fill="midnightblue" stroke="midnightblue" points="173.16,-53.79 181.88,-47.77 171.31,-47.04 173.16,-53.79"/>
</g>
<!-- Node4 -->
<g id="node4" class="node">
<title>Node4</title>
<g id="a_node4"><a xlink:href="group__grp__force__driver.html#ga382822b303cbf8c56d6f54dcb379caf2" target="_top" xlink:title="read or write force&#45;derivative matrix">
<polygon fill="white" stroke="black" points="81,-38.5 81,-57.5 146,-57.5 146,-38.5 81,-38.5"/>
<text text-anchor="middle" x="113.5" y="-45.5" font-family="Helvetica,sans-Serif" font-size="10.00">writereadgf</text>
</a>
</g>
</g>
<!-- Node2&#45;&gt;Node4 -->
<g id="edge5" class="edge">
<title>Node2&#45;&gt;Node4</title>
<path fill="none" stroke="midnightblue" d="M171.6,-41.46C163.31,-41.16 154.46,-41.18 146.25,-41.52"/>
<polygon fill="midnightblue" stroke="midnightblue" points="171.52,-44.96 181.69,-42.01 171.9,-37.97 171.52,-44.96"/>
</g>
<!-- Node5 -->
<g id="node5" class="node">
<title>Node5</title>
<g id="a_node5"><a xlink:href="xspech_8f90.html#aea782eae089760a491c2c54f9903abcc" target="_top" xlink:title="Main program of SPEC.">
<polygon fill="white" stroke="black" points="90,-0.5 90,-19.5 137,-19.5 137,-0.5 90,-0.5"/>
<text text-anchor="middle" x="113.5" y="-7.5" font-family="Helvetica,sans-Serif" font-size="10.00">xspech</text>
</a>
</g>
</g>
<!-- Node2&#45;&gt;Node5 -->
<g id="edge8" class="edge">
<title>Node2&#45;&gt;Node5</title>
<path fill="none" stroke="midnightblue" d="M172.63,-34.41C160.84,-29.46 147.77,-23.97 137.02,-19.45"/>
<polygon fill="midnightblue" stroke="midnightblue" points="171.59,-37.77 182.16,-38.41 174.3,-31.31 171.59,-37.77"/>
</g>
<!-- Node3&#45;&gt;Node2 -->
<g id="edge4" class="edge">
<title>Node3&#45;&gt;Node2</title>
<path fill="none" stroke="midnightblue" d="M50.41,-96.55C75.34,-93.34 113.38,-84.96 146,-76 163.64,-71.15 183.87,-64.37 195.47,-57.72"/>
<polygon fill="midnightblue" stroke="midnightblue" points="49.83,-93.09 40.26,-97.63 50.57,-100.05 49.83,-93.09"/>
</g>
<!-- Node4&#45;&gt;Node2 -->
<g id="edge7" class="edge">
<title>Node4&#45;&gt;Node2</title>
<path fill="none" stroke="midnightblue" d="M156.33,-54.73C165.05,-54.82 173.94,-54.57 181.69,-53.99"/>
<polygon fill="midnightblue" stroke="midnightblue" points="156.34,-51.23 146.25,-54.48 156.16,-58.23 156.34,-51.23"/>
</g>
<!-- Node4&#45;&gt;Node3 -->
<g id="edge6" class="edge">
<title>Node4&#45;&gt;Node3</title>
<path fill="none" stroke="midnightblue" d="M85.35,-62.34C70.65,-70.1 52.97,-79.44 40.28,-86.14"/>
<polygon fill="midnightblue" stroke="midnightblue" points="87.28,-65.28 94.49,-57.51 84.01,-59.09 87.28,-65.28"/>
</g>
<!-- Node6 -->
<g id="node6" class="node">
<title>Node6</title>
<g id="a_node6"><a xlink:href="xspech_8f90.html#a537af4990058c0b0f2cd8b3669af204f" target="_top" xlink:title="todo remark">
<polygon fill="white" stroke="black" points="0,-0.5 0,-19.5 45,-19.5 45,-0.5 0,-0.5"/>
<text text-anchor="middle" x="22.5" y="-7.5" font-family="Helvetica,sans-Serif" font-size="10.00">ending</text>
</a>
</g>
</g>
<!-- Node5&#45;&gt;Node6 -->
<g id="edge9" class="edge">
<title>Node5&#45;&gt;Node6</title>
<path fill="none" stroke="midnightblue" d="M79.45,-3.45C67.98,-3.04 55.42,-3.26 45.12,-4.12"/>
<polygon fill="midnightblue" stroke="midnightblue" points="79.4,-6.96 89.58,-4.01 79.79,0.03 79.4,-6.96"/>
</g>
<!-- Node6&#45;&gt;Node5 -->
<g id="edge10" class="edge">
<title>Node6&#45;&gt;Node5</title>
<path fill="none" stroke="midnightblue" d="M55.12,-16.49C66.49,-16.96 79.09,-16.79 89.58,-15.99"/>
<polygon fill="midnightblue" stroke="midnightblue" points="55.31,-13 45.12,-15.88 54.89,-19.98 55.31,-13"/>
</g>
</g>
</svg>
