<?xml version="1.0" encoding="UTF-8" standalone="no"?>
<!DOCTYPE svg PUBLIC "-//W3C//DTD SVG 1.1//EN"
 "http://www.w3.org/Graphics/SVG/1.1/DTD/svg11.dtd">
<!-- Generated by graphviz version 2.47.1 (20210421.1823)
 -->
<!-- Title: casing Pages: 1 -->
<svg width="504pt" height="104pt"
 viewBox="0.00 0.00 504.00 104.00" xmlns="http://www.w3.org/2000/svg" xmlns:xlink="http://www.w3.org/1999/xlink">
<g id="graph0" class="graph" transform="scale(1 1) rotate(0) translate(4 100)">
<title>casing</title>
<polygon fill="white" stroke="transparent" points="-4,4 -4,-100 500,-100 500,4 -4,4"/>
<!-- Node1 -->
<g id="node1" class="node">
<title>Node1</title>
<g id="a_node1"><a xlink:title="Constructs the field created by the plasma currents, at an arbitrary, external location using virtual...">
<polygon fill="#bfbfbf" stroke="black" points="451,-0.5 451,-19.5 496,-19.5 496,-0.5 451,-0.5"/>
<text text-anchor="middle" x="473.5" y="-7.5" font-family="Helvetica,sans-Serif" font-size="10.00">casing</text>
</a>
</g>
</g>
<!-- Node2 -->
<g id="node2" class="node">
<title>Node2</title>
<g id="a_node2"><a xlink:href="group__grp__free-boundary.html#gac0a2cc2241947b27241bb8ef75c5e0ed" target="_top" xlink:title="Computes &#160;on the computational boundary, .">
<polygon fill="white" stroke="black" points="367,-38.5 367,-57.5 413,-57.5 413,-38.5 367,-38.5"/>
<text text-anchor="middle" x="390" y="-45.5" font-family="Helvetica,sans-Serif" font-size="10.00">bnorml</text>
</a>
</g>
</g>
<!-- Node1&#45;&gt;Node2 -->
<g id="edge1" class="edge">
<title>Node1&#45;&gt;Node2</title>
<path fill="none" stroke="midnightblue" d="M442.79,-23.85C432.42,-28.69 421.02,-34 411.56,-38.41"/>
<polygon fill="midnightblue" stroke="midnightblue" points="444.35,-26.99 451.93,-19.59 441.39,-20.64 444.35,-26.99"/>
</g>
<!-- Node8 -->
<g id="node8" class="node">
<title>Node8</title>
<g id="a_node8"><a xlink:href="group__grp__free-boundary.html#ga281c12a5de84fddd3db4383b0df8627f" target="_top" xlink:title="Differential virtual casing integrand.">
<polygon fill="white" stroke="black" points="365,-0.5 365,-19.5 415,-19.5 415,-0.5 365,-0.5"/>
<text text-anchor="middle" x="390" y="-7.5" font-family="Helvetica,sans-Serif" font-size="10.00">dvcfield</text>
</a>
</g>
</g>
<!-- Node1&#45;&gt;Node8 -->
<g id="edge10" class="edge">
<title>Node1&#45;&gt;Node8</title>
<path fill="none" stroke="midnightblue" d="M440.41,-3.39C432.02,-3.12 423.11,-3.25 415.2,-3.77"/>
<polygon fill="midnightblue" stroke="midnightblue" points="440.48,-6.9 450.66,-3.94 440.86,0.09 440.48,-6.9"/>
</g>
<!-- Node3 -->
<g id="node3" class="node">
<title>Node3</title>
<g id="a_node3"><a xlink:href="group__grp__initialization.html#ga28628de0fdb3b3497668007d8d0643bd" target="_top" xlink:title="Allocates and initializes internal arrays.">
<polygon fill="white" stroke="black" points="285,-57.5 285,-76.5 329,-76.5 329,-57.5 285,-57.5"/>
<text text-anchor="middle" x="307" y="-64.5" font-family="Helvetica,sans-Serif" font-size="10.00">preset</text>
</a>
</g>
</g>
<!-- Node2&#45;&gt;Node3 -->
<g id="edge2" class="edge">
<title>Node2&#45;&gt;Node3</title>
<path fill="none" stroke="midnightblue" d="M357.08,-55.49C347.75,-57.68 337.77,-60.02 329.27,-62.01"/>
<polygon fill="midnightblue" stroke="midnightblue" points="357.93,-58.88 366.87,-53.19 356.33,-52.07 357.93,-58.88"/>
</g>
<!-- Node5 -->
<g id="node5" class="node">
<title>Node5</title>
<g id="a_node5"><a xlink:href="xspech_8f90.html#a48f45478dc2c9f70ea8aa1c60ad06503" target="_top" xlink:title=" ">
<polygon fill="white" stroke="black" points="130,-57.5 130,-76.5 168,-76.5 168,-57.5 130,-57.5"/>
<text text-anchor="middle" x="149" y="-64.5" font-family="Helvetica,sans-Serif" font-size="10.00">spec</text>
</a>
</g>
</g>
<!-- Node2&#45;&gt;Node5 -->
<g id="edge9" class="edge">
<title>Node2&#45;&gt;Node5</title>
<path fill="none" stroke="midnightblue" d="M356.65,-44.73C319.5,-41.72 256.88,-38.97 204,-48 191.66,-50.11 178.38,-54.74 168.08,-58.91"/>
<polygon fill="midnightblue" stroke="midnightblue" points="356.6,-48.24 366.87,-45.61 357.21,-41.26 356.6,-48.24"/>
</g>
<!-- Node4 -->
<g id="node4" class="node">
<title>Node4</title>
<g id="a_node4"><a xlink:href="group__grp__diagnostics.html#ga7401b50ec10c6598ee4a8112717a63ec" target="_top" xlink:title="Computes eigenvalues and eigenvectors of derivative matrix, .">
<polygon fill="white" stroke="black" points="204,-57.5 204,-76.5 249,-76.5 249,-57.5 204,-57.5"/>
<text text-anchor="middle" x="226.5" y="-64.5" font-family="Helvetica,sans-Serif" font-size="10.00">hesian</text>
</a>
</g>
</g>
<!-- Node3&#45;&gt;Node4 -->
<g id="edge3" class="edge">
<title>Node3&#45;&gt;Node4</title>
<path fill="none" stroke="midnightblue" d="M274.85,-67C266.24,-67 257.08,-67 249.14,-67"/>
<polygon fill="midnightblue" stroke="midnightblue" points="274.96,-70.5 284.96,-67 274.96,-63.5 274.96,-70.5"/>
</g>
<!-- Node7 -->
<g id="node7" class="node">
<title>Node7</title>
<g id="a_node7"><a xlink:href="xspech_8f90.html#aea782eae089760a491c2c54f9903abcc" target="_top" xlink:title="Main program of SPEC.">
<polygon fill="white" stroke="black" points="23.5,-76.5 23.5,-95.5 70.5,-95.5 70.5,-76.5 23.5,-76.5"/>
<text text-anchor="middle" x="47" y="-83.5" font-family="Helvetica,sans-Serif" font-size="10.00">xspech</text>
</a>
</g>
</g>
<!-- Node3&#45;&gt;Node7 -->
<g id="edge8" class="edge">
<title>Node3&#45;&gt;Node7</title>
<path fill="none" stroke="midnightblue" d="M275.06,-79.32C266.74,-82.07 257.64,-84.6 249,-86 185.1,-96.37 108.27,-91.71 70.8,-88.36"/>
<polygon fill="midnightblue" stroke="midnightblue" points="276.49,-82.52 284.76,-75.89 274.16,-75.92 276.49,-82.52"/>
</g>
<!-- Node4&#45;&gt;Node5 -->
<g id="edge4" class="edge">
<title>Node4&#45;&gt;Node5</title>
<path fill="none" stroke="midnightblue" d="M193.55,-67C184.99,-67 176.03,-67 168.47,-67"/>
<polygon fill="midnightblue" stroke="midnightblue" points="193.66,-70.5 203.66,-67 193.66,-63.5 193.66,-70.5"/>
</g>
<!-- Node6 -->
<g id="node6" class="node">
<title>Node6</title>
<g id="a_node6"><a xlink:href="sphdf5_8f90.html#a0f962c09cd5d5eba99f1cba043cb3898" target="_top" xlink:title="initialize the interface to the HDF5 library and open the output file">
<polygon fill="white" stroke="black" points="0,-38.5 0,-57.5 94,-57.5 94,-38.5 0,-38.5"/>
<text text-anchor="middle" x="47" y="-45.5" font-family="Helvetica,sans-Serif" font-size="10.00">sphdf5::init_outfile</text>
</a>
</g>
</g>
<!-- Node5&#45;&gt;Node6 -->
<g id="edge5" class="edge">
<title>Node5&#45;&gt;Node6</title>
<path fill="none" stroke="midnightblue" d="M119.77,-61.64C111.77,-60.12 102.86,-58.42 94.1,-56.76"/>
<polygon fill="midnightblue" stroke="midnightblue" points="119.18,-65.09 129.66,-63.52 120.49,-58.21 119.18,-65.09"/>
</g>
<!-- Node5&#45;&gt;Node7 -->
<g id="edge6" class="edge">
<title>Node5&#45;&gt;Node7</title>
<path fill="none" stroke="midnightblue" d="M119.62,-66.24C103.39,-68.37 83.38,-72.36 68.64,-76.49"/>
<polygon fill="midnightblue" stroke="midnightblue" points="120.11,-69.71 129.66,-65.12 119.33,-62.75 120.11,-69.71"/>
</g>
<!-- Node7&#45;&gt;Node5 -->
<g id="edge7" class="edge">
<title>Node7&#45;&gt;Node5</title>
<path fill="none" stroke="midnightblue" d="M80.96,-86.13C97.15,-83.76 116.06,-79.83 129.66,-75.85"/>
<polygon fill="midnightblue" stroke="midnightblue" points="80.26,-82.69 70.79,-87.44 81.15,-89.63 80.26,-82.69"/>
</g>
<!-- Node8&#45;&gt;Node1 -->
<g id="edge11" class="edge">
<title>Node8&#45;&gt;Node1</title>
<path fill="none" stroke="midnightblue" d="M425.35,-16.68C433.92,-16.88 442.88,-16.67 450.66,-16.06"/>
<polygon fill="midnightblue" stroke="midnightblue" points="425.34,-13.17 415.2,-16.23 425.03,-20.16 425.34,-13.17"/>
</g>
</g>
</svg>
