<?xml version="1.0" encoding="UTF-8" standalone="no"?>
<!DOCTYPE svg PUBLIC "-//W3C//DTD SVG 1.1//EN"
 "http://www.w3.org/Graphics/SVG/1.1/DTD/svg11.dtd">
<!-- Generated by graphviz version 2.44.1 (0)
 -->
<!-- Title: newton Pages: 1 -->
<svg width="432pt" height="142pt"
 viewBox="0.00 0.00 432.00 142.00" xmlns="http://www.w3.org/2000/svg" xmlns:xlink="http://www.w3.org/1999/xlink">
<g id="graph0" class="graph" transform="scale(1 1) rotate(0) translate(4 138)">
<title>newton</title>
<polygon fill="white" stroke="transparent" points="-4,4 -4,-138 428,-138 428,4 -4,4"/>
<!-- Node1 -->
<g id="node1" class="node">
<title>Node1</title>
<g id="a_node1"><a xlink:title="Employs Newton method to find , where &#160;and &#160;is defined in dforce() .">
<polygon fill="#bfbfbf" stroke="black" points="0,-47.5 0,-66.5 53,-66.5 53,-47.5 0,-47.5"/>
<text text-anchor="middle" x="26.5" y="-54.5" font-family="Helvetica,sans-Serif" font-size="10.00">newton</text>
</a>
</g>
</g>
<!-- Node2 -->
<g id="node2" class="node">
<title>Node2</title>
<g id="a_node2"><a xlink:href="group__grp__force__driver.html#gabbc245b3884ee8d8d3e2a52f25149f78" target="_top" xlink:title="fcn1">
<polygon fill="white" stroke="black" points="89,-85.5 89,-104.5 127,-104.5 127,-85.5 89,-85.5"/>
<text text-anchor="middle" x="108" y="-92.5" font-family="Helvetica,sans-Serif" font-size="10.00">fcn1</text>
</a>
</g>
</g>
<!-- Node1&#45;&gt;Node2 -->
<g id="edge1" class="edge">
<title>Node1&#45;&gt;Node2</title>
<path fill="none" stroke="midnightblue" d="M53.09,-62.88C64.49,-67.66 77.68,-74.14 88.15,-80.15"/>
<polygon fill="midnightblue" stroke="midnightblue" points="86.53,-83.26 96.89,-85.48 90.18,-77.29 86.53,-83.26"/>
</g>
<!-- Node5 -->
<g id="node5" class="node">
<title>Node5</title>
<g id="a_node5"><a xlink:href="group__grp__force__driver.html#ga8ccd6c7d901872702521d0a0edf95412" target="_top" xlink:title="fcn2">
<polygon fill="white" stroke="black" points="89,-47.5 89,-66.5 127,-66.5 127,-47.5 89,-47.5"/>
<text text-anchor="middle" x="108" y="-54.5" font-family="Helvetica,sans-Serif" font-size="10.00">fcn2</text>
</a>
</g>
</g>
<!-- Node1&#45;&gt;Node5 -->
<g id="edge5" class="edge">
<title>Node1&#45;&gt;Node5</title>
<path fill="none" stroke="midnightblue" d="M53.09,-50.65C61.26,-50.17 70.35,-50.12 78.7,-50.51"/>
<polygon fill="midnightblue" stroke="midnightblue" points="78.54,-54 88.76,-51.22 79.03,-47.02 78.54,-54"/>
</g>
<!-- Node9 -->
<g id="node9" class="node">
<title>Node9</title>
<g id="a_node9"><a xlink:href="group__grp__force__driver.html#ga382822b303cbf8c56d6f54dcb379caf2" target="_top" xlink:title="read or write force&#45;derivative matrix">
<polygon fill="white" stroke="black" points="175.5,-0.5 175.5,-19.5 248.5,-19.5 248.5,-0.5 175.5,-0.5"/>
<text text-anchor="middle" x="212" y="-7.5" font-family="Helvetica,sans-Serif" font-size="10.00">writereadgf</text>
</a>
</g>
</g>
<!-- Node1&#45;&gt;Node9 -->
<g id="edge16" class="edge">
<title>Node1&#45;&gt;Node9</title>
<path fill="none" stroke="midnightblue" d="M37.45,-47.31C49.55,-40.69 70.65,-33.93 89,-29 114.02,-22.27 142.2,-15.74 165.17,-11.59"/>
<polygon fill="midnightblue" stroke="midnightblue" points="166.06,-14.98 175.33,-9.85 164.88,-8.08 166.06,-14.98"/>
</g>
<!-- Node2&#45;&gt;Node1 -->
<g id="edge2" class="edge">
<title>Node2&#45;&gt;Node1</title>
<path fill="none" stroke="midnightblue" d="M88.7,-92.04C76.14,-87.29 59.51,-79.37 46.76,-72.09"/>
<polygon fill="midnightblue" stroke="midnightblue" points="48.26,-68.9 37.89,-66.7 44.62,-74.88 48.26,-68.9"/>
</g>
<!-- Node3 -->
<g id="node3" class="node">
<title>Node3</title>
<g id="a_node3"><a xlink:href="group__grp__packing.html#ga094e630c02686dd178749eb1efbf13fb" target="_top" xlink:title="Packs, and unpacks, geometrical degrees of freedom; and sets coordinate axis.">
<polygon fill="white" stroke="black" points="187.5,-114.5 187.5,-133.5 236.5,-133.5 236.5,-114.5 187.5,-114.5"/>
<text text-anchor="middle" x="212" y="-121.5" font-family="Helvetica,sans-Serif" font-size="10.00">packxi</text>
</a>
</g>
</g>
<!-- Node2&#45;&gt;Node3 -->
<g id="edge3" class="edge">
<title>Node2&#45;&gt;Node3</title>
<path fill="none" stroke="midnightblue" d="M127.24,-100.18C141.09,-104.12 160.54,-109.65 177.22,-114.39"/>
<polygon fill="midnightblue" stroke="midnightblue" points="176.59,-117.85 187.16,-117.22 178.5,-111.12 176.59,-117.85"/>
</g>
<!-- Node4 -->
<g id="node4" class="node">
<title>Node4</title>
<g id="a_node4"><a xlink:href="namespaceallglobal.html#a282c297c96abdab5e76b5ace440b09a8" target="_top" xlink:title="The restart file is written.">
<polygon fill="white" stroke="black" points="163,-76.5 163,-95.5 261,-95.5 261,-76.5 163,-76.5"/>
<text text-anchor="middle" x="212" y="-83.5" font-family="Helvetica,sans-Serif" font-size="10.00">allglobal::wrtend</text>
</a>
</g>
</g>
<!-- Node2&#45;&gt;Node4 -->
<g id="edge4" class="edge">
<title>Node2&#45;&gt;Node4</title>
<path fill="none" stroke="midnightblue" d="M127.24,-93.39C134.56,-92.74 143.44,-91.96 152.65,-91.15"/>
<polygon fill="midnightblue" stroke="midnightblue" points="153.07,-94.63 162.72,-90.26 152.45,-87.65 153.07,-94.63"/>
</g>
<!-- Node5&#45;&gt;Node1 -->
<g id="edge6" class="edge">
<title>Node5&#45;&gt;Node1</title>
<path fill="none" stroke="midnightblue" d="M88.76,-62.78C81.16,-63.54 72.06,-63.85 63.23,-63.72"/>
<polygon fill="midnightblue" stroke="midnightblue" points="63.21,-60.22 53.09,-63.35 62.96,-67.21 63.21,-60.22"/>
</g>
<!-- Node5&#45;&gt;Node3 -->
<g id="edge7" class="edge">
<title>Node5&#45;&gt;Node3</title>
<path fill="none" stroke="midnightblue" d="M117.76,-66.58C127.83,-77.14 145.27,-94.09 163,-105 167.56,-107.81 172.6,-110.34 177.66,-112.57"/>
<polygon fill="midnightblue" stroke="midnightblue" points="176.68,-115.95 187.26,-116.48 179.32,-109.47 176.68,-115.95"/>
</g>
<!-- Node5&#45;&gt;Node4 -->
<g id="edge15" class="edge">
<title>Node5&#45;&gt;Node4</title>
<path fill="none" stroke="midnightblue" d="M127.24,-62.18C138.5,-65.39 153.47,-69.64 167.63,-73.67"/>
<polygon fill="midnightblue" stroke="midnightblue" points="166.68,-77.04 177.25,-76.41 168.59,-70.3 166.68,-77.04"/>
</g>
<!-- Node6 -->
<g id="node6" class="node">
<title>Node6</title>
<g id="a_node6"><a xlink:href="group__grp__volume.html#gae4c62d20b8fef07f4471b5b0889ab005" target="_top" xlink:title="Computes volume of each region; and, if required, the derivatives of the volume with respect to the i...">
<polygon fill="white" stroke="black" points="185.5,-38.5 185.5,-57.5 238.5,-57.5 238.5,-38.5 185.5,-38.5"/>
<text text-anchor="middle" x="212" y="-45.5" font-family="Helvetica,sans-Serif" font-size="10.00">volume</text>
</a>
</g>
</g>
<!-- Node5&#45;&gt;Node6 -->
<g id="edge8" class="edge">
<title>Node5&#45;&gt;Node6</title>
<path fill="none" stroke="midnightblue" d="M127.24,-55.39C140.49,-54.22 158.87,-52.6 175.03,-51.17"/>
<polygon fill="midnightblue" stroke="midnightblue" points="175.61,-54.64 185.26,-50.27 174.99,-47.66 175.61,-54.64"/>
</g>
<!-- Node5&#45;&gt;Node9 -->
<g id="edge12" class="edge">
<title>Node5&#45;&gt;Node9</title>
<path fill="none" stroke="midnightblue" d="M126.29,-47.47C136.78,-41.82 150.51,-34.69 163,-29 167.15,-27.11 171.54,-25.22 175.93,-23.4"/>
<polygon fill="midnightblue" stroke="midnightblue" points="177.43,-26.57 185.39,-19.58 174.81,-20.08 177.43,-26.57"/>
</g>
<!-- Node7 -->
<g id="node7" class="node">
<title>Node7</title>
<g id="a_node7"><a xlink:href="group__grp__geometry.html#gaaca20aa60eaf39055f3c9d5c02a24ac2" target="_top" xlink:title="Calculates coordinates, , and metrics, using FFTs.">
<polygon fill="white" stroke="black" points="297,-38.5 297,-57.5 346,-57.5 346,-38.5 297,-38.5"/>
<text text-anchor="middle" x="321.5" y="-45.5" font-family="Helvetica,sans-Serif" font-size="10.00">coords</text>
</a>
</g>
</g>
<!-- Node6&#45;&gt;Node7 -->
<g id="edge9" class="edge">
<title>Node6&#45;&gt;Node7</title>
<path fill="none" stroke="midnightblue" d="M238.75,-42.14C253.08,-41.14 271.1,-40.98 286.57,-41.68"/>
<polygon fill="midnightblue" stroke="midnightblue" points="286.61,-45.18 296.8,-42.29 287.03,-38.2 286.61,-45.18"/>
</g>
<!-- Node7&#45;&gt;Node6 -->
<g id="edge11" class="edge">
<title>Node7&#45;&gt;Node6</title>
<path fill="none" stroke="midnightblue" d="M296.8,-53.71C282.84,-54.79 264.89,-55.03 249.18,-54.42"/>
<polygon fill="midnightblue" stroke="midnightblue" points="248.92,-50.9 238.75,-53.86 248.55,-57.89 248.92,-50.9"/>
</g>
<!-- Node8 -->
<g id="node8" class="node">
<title>Node8</title>
<g id="a_node8"><a xlink:href="group__grp__numerics.html#ga1fd52accb0646f535f9bcc46cf5a68f3" target="_top" xlink:title="Inverse Fourier transform (fftw wrapper)">
<polygon fill="white" stroke="black" points="382,-38.5 382,-57.5 424,-57.5 424,-38.5 382,-38.5"/>
<text text-anchor="middle" x="403" y="-45.5" font-family="Helvetica,sans-Serif" font-size="10.00">invfft</text>
</a>
</g>
</g>
<!-- Node7&#45;&gt;Node8 -->
<g id="edge10" class="edge">
<title>Node7&#45;&gt;Node8</title>
<path fill="none" stroke="midnightblue" d="M346.35,-48C354.33,-48 363.33,-48 371.72,-48"/>
<polygon fill="midnightblue" stroke="midnightblue" points="371.92,-51.5 381.92,-48 371.92,-44.5 371.92,-51.5"/>
</g>
<!-- Node9&#45;&gt;Node1 -->
<g id="edge14" class="edge">
<title>Node9&#45;&gt;Node1</title>
<path fill="none" stroke="midnightblue" d="M193.93,-19.53C170.25,-27.45 126.15,-37.01 89,-47 80.47,-49.29 71.34,-51.98 62.8,-54.34"/>
<polygon fill="midnightblue" stroke="midnightblue" points="61.88,-50.96 53.11,-56.91 63.67,-57.73 61.88,-50.96"/>
</g>
<!-- Node10 -->
<g id="node10" class="node">
<title>Node10</title>
<g id="a_node10"><a xlink:href="group__grp__build__matrices.html#ga1c52bb6dbffdb432550aae12b096080f" target="_top" xlink:title="Constructs energy and helicity matrices that represent the Beltrami linear system....">
<polygon fill="white" stroke="black" points="297,-0.5 297,-19.5 346,-19.5 346,-0.5 297,-0.5"/>
<text text-anchor="middle" x="321.5" y="-7.5" font-family="Helvetica,sans-Serif" font-size="10.00">matrix</text>
</a>
</g>
</g>
<!-- Node9&#45;&gt;Node10 -->
<g id="edge13" class="edge">
<title>Node9&#45;&gt;Node10</title>
<path fill="none" stroke="midnightblue" d="M248.8,-10C260.98,-10 274.56,-10 286.6,-10"/>
<polygon fill="midnightblue" stroke="midnightblue" points="286.7,-13.5 296.7,-10 286.7,-6.5 286.7,-13.5"/>
</g>
</g>
</svg>
