<?xml version="1.0" encoding="UTF-8" standalone="no"?>
<!DOCTYPE svg PUBLIC "-//W3C//DTD SVG 1.1//EN"
 "http://www.w3.org/Graphics/SVG/1.1/DTD/svg11.dtd">
<!-- Generated by graphviz version 2.50.0 (20220203.2022)
 -->
<!-- Title: intghs_workspace_init Pages: 1 -->
<svg width="503pt" height="122pt"
 viewBox="0.00 0.00 503.00 122.00" xmlns="http://www.w3.org/2000/svg" xmlns:xlink="http://www.w3.org/1999/xlink">
<g id="graph0" class="graph" transform="scale(1 1) rotate(0) translate(4 118)">
<title>intghs_workspace_init</title>
<polygon fill="white" stroke="transparent" points="-4,4 -4,-118 499,-118 499,4 -4,4"/>
<!-- Node1 -->
<g id="node1" class="node">
<title>Node1</title>
<g id="a_node1"><a xlink:title="init workspace">
<polygon fill="#bfbfbf" stroke="black" points="0,-38.5 0,-57.5 113,-57.5 113,-38.5 0,-38.5"/>
<text text-anchor="middle" x="56.5" y="-45.5" font-family="Helvetica,sans-Serif" font-size="10.00">intghs_workspace_init</text>
</a>
</g>
</g>
<!-- Node2 -->
<g id="node2" class="node">
<title>Node2</title>
<g id="a_node2"><a xlink:href="intghs_8f90.html#a21d3b7106371783302e68297f7797e9f" target="_top" xlink:title="Calculates volume integrals of Chebyshev polynomials and covariant field products.">
<polygon fill="white" stroke="black" points="149,-38.5 149,-57.5 192,-57.5 192,-38.5 149,-38.5"/>
<text text-anchor="middle" x="170.5" y="-45.5" font-family="Helvetica,sans-Serif" font-size="10.00">intghs</text>
</a>
</g>
</g>
<!-- Node1&#45;&gt;Node2 -->
<g id="edge1" class="edge">
<title>Node1&#45;&gt;Node2</title>
<path fill="none" stroke="midnightblue" d="M113.17,-48C121.93,-48 130.7,-48 138.62,-48"/>
<polygon fill="midnightblue" stroke="midnightblue" points="138.81,-51.5 148.81,-48 138.81,-44.5 138.81,-51.5"/>
</g>
<!-- Node2&#45;&gt;Node2 -->
<g id="edge10" class="edge">
<title>Node2&#45;&gt;Node2</title>
<path fill="none" stroke="midnightblue" d="M153.85,-57.76C145.76,-66.57 151.3,-76 170.5,-76 182.5,-76 189.16,-72.31 190.5,-67.4"/>
<polygon fill="midnightblue" stroke="midnightblue" points="193.74,-66.05 187.15,-57.76 187.12,-68.35 193.74,-66.05"/>
</g>
<!-- Node3 -->
<g id="node3" class="node">
<title>Node3</title>
<g id="a_node3"><a xlink:href="metrix_8f90.html#a80c802cda076dd9e7031bc5f9098c175" target="_top" xlink:title="compute guvijsave">
<polygon fill="white" stroke="black" points="228,-76.5 228,-95.5 329,-95.5 329,-76.5 228,-76.5"/>
<text text-anchor="middle" x="278.5" y="-83.5" font-family="Helvetica,sans-Serif" font-size="10.00">compute_guvijsave</text>
</a>
</g>
</g>
<!-- Node2&#45;&gt;Node3 -->
<g id="edge2" class="edge">
<title>Node2&#45;&gt;Node3</title>
<path fill="none" stroke="midnightblue" d="M192.19,-55.42C206.06,-60.39 224.71,-67.07 241.03,-72.92"/>
<polygon fill="midnightblue" stroke="midnightblue" points="240.23,-76.36 250.83,-76.44 242.59,-69.77 240.23,-76.36"/>
</g>
<!-- Node6 -->
<g id="node6" class="node">
<title>Node6</title>
<g id="a_node6"><a xlink:href="basefn_8f90.html#af6a4cad04c70bfb14fd18a3bfbc843a3" target="_top" xlink:title="Get the Chebyshev polynomials with zeroth, first derivatives.">
<polygon fill="white" stroke="black" points="248,-38.5 248,-57.5 309,-57.5 309,-38.5 248,-38.5"/>
<text text-anchor="middle" x="278.5" y="-45.5" font-family="Helvetica,sans-Serif" font-size="10.00">get_cheby</text>
</a>
</g>
</g>
<!-- Node2&#45;&gt;Node6 -->
<g id="edge8" class="edge">
<title>Node2&#45;&gt;Node6</title>
<path fill="none" stroke="midnightblue" d="M192.19,-48C205.02,-48 221.92,-48 237.3,-48"/>
<polygon fill="midnightblue" stroke="midnightblue" points="237.63,-51.5 247.63,-48 237.63,-44.5 237.63,-51.5"/>
</g>
<!-- Node7 -->
<g id="node7" class="node">
<title>Node7</title>
<g id="a_node7"><a xlink:href="basefn_8f90.html#a38dc596fb909186b01dacc1feac03164" target="_top" xlink:title="Get the Zernike polynomials &#160;with zeroth, first derivatives.">
<polygon fill="white" stroke="black" points="245.5,-0.5 245.5,-19.5 311.5,-19.5 311.5,-0.5 245.5,-0.5"/>
<text text-anchor="middle" x="278.5" y="-7.5" font-family="Helvetica,sans-Serif" font-size="10.00">get_zernike</text>
</a>
</g>
</g>
<!-- Node2&#45;&gt;Node7 -->
<g id="edge9" class="edge">
<title>Node2&#45;&gt;Node7</title>
<path fill="none" stroke="midnightblue" d="M192.19,-40.58C206.06,-35.61 224.71,-28.93 241.03,-23.08"/>
<polygon fill="midnightblue" stroke="midnightblue" points="242.59,-26.23 250.83,-19.56 240.23,-19.64 242.59,-26.23"/>
</g>
<!-- Node4 -->
<g id="node4" class="node">
<title>Node4</title>
<g id="a_node4"><a xlink:href="group__grp__geometry.html#gaaca20aa60eaf39055f3c9d5c02a24ac2" target="_top" xlink:title="Calculates coordinates, , and metrics, using FFTs.">
<polygon fill="white" stroke="black" points="365,-76.5 365,-95.5 411,-95.5 411,-76.5 365,-76.5"/>
<text text-anchor="middle" x="388" y="-83.5" font-family="Helvetica,sans-Serif" font-size="10.00">coords</text>
</a>
</g>
</g>
<!-- Node3&#45;&gt;Node4 -->
<g id="edge3" class="edge">
<title>Node3&#45;&gt;Node4</title>
<path fill="none" stroke="midnightblue" d="M329.16,-86C337.88,-86 346.75,-86 354.83,-86"/>
<polygon fill="midnightblue" stroke="midnightblue" points="354.93,-89.5 364.93,-86 354.93,-82.5 354.93,-89.5"/>
</g>
<!-- Node4&#45;&gt;Node4 -->
<g id="edge4" class="edge">
<title>Node4&#45;&gt;Node4</title>
<path fill="none" stroke="midnightblue" d="M375.36,-95.76C369.21,-104.57 373.43,-114 388,-114 396.88,-114 401.91,-110.5 403.1,-105.77"/>
<polygon fill="midnightblue" stroke="midnightblue" points="406.43,-104.63 400.64,-95.76 399.63,-106.3 406.43,-104.63"/>
</g>
<!-- Node5 -->
<g id="node5" class="node">
<title>Node5</title>
<g id="a_node5"><a xlink:href="group__grp__volume.html#gae4c62d20b8fef07f4471b5b0889ab005" target="_top" xlink:title="Computes volume of each region; and, if required, the derivatives of the volume with respect to the i...">
<polygon fill="white" stroke="black" points="447,-76.5 447,-95.5 495,-95.5 495,-76.5 447,-76.5"/>
<text text-anchor="middle" x="471" y="-83.5" font-family="Helvetica,sans-Serif" font-size="10.00">volume</text>
</a>
</g>
</g>
<!-- Node4&#45;&gt;Node5 -->
<g id="edge5" class="edge">
<title>Node4&#45;&gt;Node5</title>
<path fill="none" stroke="midnightblue" d="M411.13,-79.91C418.99,-79.3 428.02,-79.12 436.61,-79.34"/>
<polygon fill="midnightblue" stroke="midnightblue" points="436.61,-82.85 446.76,-79.83 436.94,-75.85 436.61,-82.85"/>
</g>
<!-- Node5&#45;&gt;Node4 -->
<g id="edge6" class="edge">
<title>Node5&#45;&gt;Node4</title>
<path fill="none" stroke="midnightblue" d="M446.76,-92.17C438.8,-92.74 429.74,-92.89 421.19,-92.62"/>
<polygon fill="midnightblue" stroke="midnightblue" points="421.3,-89.12 411.13,-92.09 420.94,-96.11 421.3,-89.12"/>
</g>
<!-- Node5&#45;&gt;Node5 -->
<g id="edge7" class="edge">
<title>Node5&#45;&gt;Node5</title>
<path fill="none" stroke="midnightblue" d="M458.36,-95.76C452.21,-104.57 456.43,-114 471,-114 479.88,-114 484.91,-110.5 486.1,-105.77"/>
<polygon fill="midnightblue" stroke="midnightblue" points="489.43,-104.63 483.64,-95.76 482.63,-106.3 489.43,-104.63"/>
</g>
</g>
</svg>
