<?xml version="1.0" encoding="UTF-8" standalone="no"?>
<!DOCTYPE svg PUBLIC "-//W3C//DTD SVG 1.1//EN"
 "http://www.w3.org/Graphics/SVG/1.1/DTD/svg11.dtd">
<!-- Generated by graphviz version 2.49.3 (20211027.1534)
 -->
<!-- Title: intghs Pages: 1 -->
<svg width="1197pt" height="351pt"
 viewBox="0.00 0.00 1197.00 351.15" xmlns="http://www.w3.org/2000/svg" xmlns:xlink="http://www.w3.org/1999/xlink">
<g id="graph0" class="graph" transform="scale(1 1) rotate(0) translate(4 347.15)">
<title>intghs</title>
<polygon fill="white" stroke="transparent" points="-4,4 -4,-347.15 1193,-347.15 1193,4 -4,4"/>
<!-- Node1 -->
<g id="node1" class="node">
<title>Node1</title>
<g id="a_node1"><a xlink:title="Calculates volume integrals of Chebyshev polynomials and covariant field products.">
<polygon fill="#bfbfbf" stroke="black" points="1146,-185.65 1146,-204.65 1189,-204.65 1189,-185.65 1146,-185.65"/>
<text text-anchor="middle" x="1167.5" y="-192.65" font-family="Helvetica,sans-Serif" font-size="10.00">intghs</text>
</a>
</g>
</g>
<!-- Node1&#45;&gt;Node1 -->
<g id="edge46" class="edge">
<title>Node1&#45;&gt;Node1</title>
<path fill="none" stroke="midnightblue" d="M1182.6,-214.92C1181.41,-219.65 1176.38,-223.15 1167.5,-223.15 1152.93,-223.15 1148.71,-213.72 1154.86,-204.91"/>
<polygon fill="midnightblue" stroke="midnightblue" points="1185.93,-213.78 1180.14,-204.91 1179.13,-215.45 1185.93,-213.78"/>
</g>
<!-- Node2 -->
<g id="node2" class="node">
<title>Node2</title>
<g id="a_node2"><a xlink:href="dfp200_8f90.html#a5e56f1f4b1e6df11a9cffa6237c37469" target="_top" xlink:title="This routine evaluates the value of the magnetic field once the interface is perturbed using matrix p...">
<polygon fill="white" stroke="black" points="721.5,-261.65 721.5,-280.65 836.5,-280.65 836.5,-261.65 721.5,-261.65"/>
<text text-anchor="middle" x="779" y="-268.65" font-family="Helvetica,sans-Serif" font-size="10.00">get_perturbed_solution</text>
</a>
</g>
</g>
<!-- Node1&#45;&gt;Node2 -->
<g id="edge1" class="edge">
<title>Node1&#45;&gt;Node2</title>
<path fill="none" stroke="midnightblue" d="M1143.5,-210.28C1133.57,-216.13 1121.59,-222.33 1110,-226.15 1017.34,-256.72 903.45,-266.54 836.58,-269.69"/>
<polygon fill="midnightblue" stroke="midnightblue" points="1145.62,-213.08 1152.3,-204.86 1141.95,-207.12 1145.62,-213.08"/>
</g>
<!-- Node21 -->
<g id="node21" class="node">
<title>Node21</title>
<g id="a_node21"><a xlink:href="intghs_8f90.html#ae10091a51178071d12004da4952104d4" target="_top" xlink:title="free workspace">
<polygon fill="white" stroke="black" points="713,-223.65 713,-242.65 845,-242.65 845,-223.65 713,-223.65"/>
<text text-anchor="middle" x="779" y="-230.65" font-family="Helvetica,sans-Serif" font-size="10.00">intghs_workspace_destroy</text>
</a>
</g>
</g>
<!-- Node1&#45;&gt;Node21 -->
<g id="edge47" class="edge">
<title>Node1&#45;&gt;Node21</title>
<path fill="none" stroke="midnightblue" d="M1136,-203.72C1127.63,-205.79 1118.51,-207.8 1110,-209.15 1018.81,-223.66 912.02,-229.41 845.18,-231.68"/>
<polygon fill="midnightblue" stroke="midnightblue" points="1136.94,-207.09 1145.75,-201.19 1135.19,-200.31 1136.94,-207.09"/>
</g>
<!-- Node23 -->
<g id="node23" class="node">
<title>Node23</title>
<g id="a_node23"><a xlink:href="intghs_8f90.html#ae8299d4625cabd90eb1398fd2cd38089" target="_top" xlink:title="init workspace">
<polygon fill="white" stroke="black" points="722.5,-185.65 722.5,-204.65 835.5,-204.65 835.5,-185.65 722.5,-185.65"/>
<text text-anchor="middle" x="779" y="-192.65" font-family="Helvetica,sans-Serif" font-size="10.00">intghs_workspace_init</text>
</a>
</g>
</g>
<!-- Node1&#45;&gt;Node23 -->
<g id="edge54" class="edge">
<title>Node1&#45;&gt;Node23</title>
<path fill="none" stroke="midnightblue" d="M1135.99,-195.15C1071.02,-195.15 918.23,-195.15 835.52,-195.15"/>
<polygon fill="midnightblue" stroke="midnightblue" points="1135.99,-198.65 1145.99,-195.15 1135.99,-191.65 1135.99,-198.65"/>
</g>
<!-- Node24 -->
<g id="node24" class="node">
<title>Node24</title>
<g id="a_node24"><a xlink:href="mp00ac_8f90.html#ae9fe335bb4916face9f9d19ce8c0f5d7" target="_top" xlink:title="compute a.x by either by coumputing it directly, or using a matrix free method">
<polygon fill="white" stroke="black" points="1061,-109.65 1061,-128.65 1110,-128.65 1110,-109.65 1061,-109.65"/>
<text text-anchor="middle" x="1085.5" y="-116.65" font-family="Helvetica,sans-Serif" font-size="10.00">matvec</text>
</a>
</g>
</g>
<!-- Node1&#45;&gt;Node24 -->
<g id="edge58" class="edge">
<title>Node1&#45;&gt;Node24</title>
<path fill="none" stroke="midnightblue" d="M1148.7,-178.24C1132.65,-162.99 1109.61,-141.11 1096.55,-128.7"/>
<polygon fill="midnightblue" stroke="midnightblue" points="1146.71,-181.18 1156.37,-185.53 1151.53,-176.1 1146.71,-181.18"/>
</g>
<!-- Node26 -->
<g id="node26" class="node">
<title>Node26</title>
<g id="a_node26"><a xlink:href="group__grp__solver.html#ga6626839aff500f060beb5bce2b90c447" target="_top" xlink:title="Solves Beltrami/vacuum (linear) system, given matrices.unpacking fluxes, helicity multiplier">
<polygon fill="white" stroke="black" points="881,-129.65 881,-148.65 932,-148.65 932,-129.65 881,-129.65"/>
<text text-anchor="middle" x="906.5" y="-136.65" font-family="Helvetica,sans-Serif" font-size="10.00">mp00ac</text>
</a>
</g>
</g>
<!-- Node1&#45;&gt;Node26 -->
<g id="edge65" class="edge">
<title>Node1&#45;&gt;Node26</title>
<path fill="none" stroke="midnightblue" d="M1136.06,-187.38C1127.64,-185.29 1118.48,-183.08 1110,-181.15 1046.11,-166.61 970.4,-151.46 932.19,-143.95"/>
<polygon fill="midnightblue" stroke="midnightblue" points="1135.33,-190.81 1145.88,-189.84 1137.03,-184.02 1135.33,-190.81"/>
</g>
<!-- Node3 -->
<g id="node3" class="node">
<title>Node3</title>
<g id="a_node3"><a xlink:href="dfp200_8f90.html#a55ea75395f8c71731451e1add3720c7e" target="_top" xlink:title="Given the field consistent with the constraints and the geometry, computes local quantites related to...">
<polygon fill="white" stroke="black" points="631,-261.65 631,-280.65 677,-280.65 677,-261.65 631,-261.65"/>
<text text-anchor="middle" x="654" y="-268.65" font-family="Helvetica,sans-Serif" font-size="10.00">dfp200</text>
</a>
</g>
</g>
<!-- Node2&#45;&gt;Node3 -->
<g id="edge2" class="edge">
<title>Node2&#45;&gt;Node3</title>
<path fill="none" stroke="midnightblue" d="M710.92,-264.43C698.74,-264.53 686.85,-265 677.19,-265.82"/>
<polygon fill="midnightblue" stroke="midnightblue" points="711.18,-267.93 721.18,-264.42 711.18,-260.93 711.18,-267.93"/>
</g>
<!-- Node3&#45;&gt;Node2 -->
<g id="edge45" class="edge">
<title>Node3&#45;&gt;Node2</title>
<path fill="none" stroke="midnightblue" d="M687.41,-277.18C697.79,-277.74 709.59,-277.97 721.18,-277.88"/>
<polygon fill="midnightblue" stroke="midnightblue" points="687.4,-273.67 677.19,-276.48 686.93,-280.65 687.4,-273.67"/>
</g>
<!-- Node3&#45;&gt;Node3 -->
<g id="edge39" class="edge">
<title>Node3&#45;&gt;Node3</title>
<path fill="none" stroke="midnightblue" d="M673.63,-290.55C672.32,-295.47 665.77,-299.15 654,-299.15 635.16,-299.15 629.71,-289.72 637.66,-280.91"/>
<polygon fill="midnightblue" stroke="midnightblue" points="676.88,-289.24 670.34,-280.91 670.26,-291.5 676.88,-289.24"/>
</g>
<!-- Node4 -->
<g id="node4" class="node">
<title>Node4</title>
<g id="a_node4"><a xlink:href="group__grp__global__force.html#ga38c9d3c50bd043707fefa5137c9dbf44" target="_top" xlink:title="Calculates , where &#160;and , and .">
<polygon fill="white" stroke="black" points="525.5,-205.65 525.5,-224.65 569.5,-224.65 569.5,-205.65 525.5,-205.65"/>
<text text-anchor="middle" x="547.5" y="-212.65" font-family="Helvetica,sans-Serif" font-size="10.00">dforce</text>
</a>
</g>
</g>
<!-- Node3&#45;&gt;Node4 -->
<g id="edge3" class="edge">
<title>Node3&#45;&gt;Node4</title>
<path fill="none" stroke="midnightblue" d="M625.87,-256.61C607.17,-246.59 582.83,-233.55 566.49,-224.79"/>
<polygon fill="midnightblue" stroke="midnightblue" points="624.33,-259.76 634.8,-261.4 627.64,-253.59 624.33,-259.76"/>
</g>
<!-- Node15 -->
<g id="node15" class="node">
<title>Node15</title>
<g id="a_node15"><a xlink:href="dfp200_8f90.html#a6aca59cf350d7b1941f8389d50945a43" target="_top" xlink:title="get LU Beltrami matrices">
<polygon fill="white" stroke="black" points="339,-323.65 339,-342.65 464,-342.65 464,-323.65 339,-323.65"/>
<text text-anchor="middle" x="401.5" y="-330.65" font-family="Helvetica,sans-Serif" font-size="10.00">get_lu_beltrami_matrices</text>
</a>
</g>
</g>
<!-- Node3&#45;&gt;Node15 -->
<g id="edge44" class="edge">
<title>Node3&#45;&gt;Node15</title>
<path fill="none" stroke="midnightblue" d="M621.01,-273.55C612.6,-275.99 603.5,-278.82 595,-281.15 533.42,-298.07 459.4,-313.16 423.74,-323.59"/>
<polygon fill="midnightblue" stroke="midnightblue" points="622.14,-276.87 630.84,-270.83 620.27,-270.13 622.14,-276.87"/>
</g>
<!-- Node19 -->
<g id="node19" class="node">
<title>Node19</title>
<g id="a_node19"><a xlink:href="dfp200_8f90.html#a7b64c7392b45d0042d8bd7379c0761a5" target="_top" xlink:title="Evaluate the derivative of the square of the magnetic field modulus. Add spectral constraint derivati...">
<polygon fill="white" stroke="black" points="510.5,-261.65 510.5,-280.65 584.5,-280.65 584.5,-261.65 510.5,-261.65"/>
<text text-anchor="middle" x="547.5" y="-268.65" font-family="Helvetica,sans-Serif" font-size="10.00">evaluate_dbb</text>
</a>
</g>
</g>
<!-- Node3&#45;&gt;Node19 -->
<g id="edge40" class="edge">
<title>Node3&#45;&gt;Node19</title>
<path fill="none" stroke="midnightblue" d="M620.82,-264.86C609.36,-264.31 596.38,-264.25 584.61,-264.7"/>
<polygon fill="midnightblue" stroke="midnightblue" points="620.63,-268.36 630.84,-265.52 621.09,-261.37 620.63,-268.36"/>
</g>
<!-- Node20 -->
<g id="node20" class="node">
<title>Node20</title>
<g id="a_node20"><a xlink:href="dfp200_8f90.html#a73ddf39ecc5228201fb643779e17cd36" target="_top" xlink:title="Evaluate mu and psip derivatives and store them in dmupfdx.">
<polygon fill="white" stroke="black" points="500,-167.65 500,-186.65 595,-186.65 595,-167.65 500,-167.65"/>
<text text-anchor="middle" x="547.5" y="-174.65" font-family="Helvetica,sans-Serif" font-size="10.00">evaluate_dmupfdx</text>
</a>
</g>
</g>
<!-- Node3&#45;&gt;Node20 -->
<g id="edge42" class="edge">
<title>Node3&#45;&gt;Node20</title>
<path fill="none" stroke="midnightblue" d="M643.66,-253.27C639.64,-248.24 634.95,-243.06 631,-238.15 613.59,-216.55 616.71,-204.42 595,-187.15 594.86,-187.04 594.73,-186.93 594.59,-186.83"/>
<polygon fill="midnightblue" stroke="midnightblue" points="640.9,-255.43 649.57,-261.52 646.59,-251.36 640.9,-255.43"/>
</g>
<!-- Node4&#45;&gt;Node4 -->
<g id="edge14" class="edge">
<title>Node4&#45;&gt;Node4</title>
<path fill="none" stroke="midnightblue" d="M567.13,-234.55C565.82,-239.47 559.27,-243.15 547.5,-243.15 528.66,-243.15 523.21,-233.72 531.16,-224.91"/>
<polygon fill="midnightblue" stroke="midnightblue" points="570.38,-233.24 563.84,-224.91 563.76,-235.5 570.38,-233.24"/>
</g>
<!-- Node5 -->
<g id="node5" class="node">
<title>Node5</title>
<g id="a_node5"><a xlink:href="namespaceallglobal.html#a7824bc37519fe88336534ce90ab2af16" target="_top" xlink:title=" ">
<polygon fill="white" stroke="black" points="344.5,-229.65 344.5,-248.65 458.5,-248.65 458.5,-229.65 344.5,-229.65"/>
<text text-anchor="middle" x="401.5" y="-236.65" font-family="Helvetica,sans-Serif" font-size="10.00">allglobal::check_inputs</text>
</a>
</g>
</g>
<!-- Node4&#45;&gt;Node5 -->
<g id="edge4" class="edge">
<title>Node4&#45;&gt;Node5</title>
<path fill="none" stroke="midnightblue" d="M515.08,-220.39C498.57,-223.14 477.85,-226.59 458.69,-229.79"/>
<polygon fill="midnightblue" stroke="midnightblue" points="515.96,-223.79 525.25,-218.69 514.81,-216.88 515.96,-223.79"/>
</g>
<!-- Node8 -->
<g id="node8" class="node">
<title>Node8</title>
<g id="a_node8"><a xlink:href="xspech_8f90.html#a48f45478dc2c9f70ea8aa1c60ad06503" target="_top" xlink:title="This is the main &quot;driver&quot; for the physics part of SPEC.">
<polygon fill="white" stroke="black" points="155.5,-191.65 155.5,-210.65 193.5,-210.65 193.5,-191.65 155.5,-191.65"/>
<text text-anchor="middle" x="174.5" y="-198.65" font-family="Helvetica,sans-Serif" font-size="10.00">spec</text>
</a>
</g>
</g>
<!-- Node4&#45;&gt;Node8 -->
<g id="edge38" class="edge">
<title>Node4&#45;&gt;Node8</title>
<path fill="none" stroke="midnightblue" d="M515.3,-213.97C440.49,-211.15 252.73,-204.07 193.61,-201.83"/>
<polygon fill="midnightblue" stroke="midnightblue" points="515.37,-217.48 525.49,-214.36 515.63,-210.48 515.37,-217.48"/>
</g>
<!-- Node11 -->
<g id="node11" class="node">
<title>Node11</title>
<g id="a_node11"><a xlink:href="group__grp__force__driver.html#gabbc245b3884ee8d8d3e2a52f25149f78" target="_top" xlink:title="fcn1">
<polygon fill="white" stroke="black" points="384,-59.65 384,-78.65 419,-78.65 419,-59.65 384,-59.65"/>
<text text-anchor="middle" x="401.5" y="-66.65" font-family="Helvetica,sans-Serif" font-size="10.00">fcn1</text>
</a>
</g>
</g>
<!-- Node4&#45;&gt;Node11 -->
<g id="edge15" class="edge">
<title>Node4&#45;&gt;Node11</title>
<path fill="none" stroke="midnightblue" d="M515.52,-206.48C509.86,-203.85 504.37,-200.47 500,-196.15 470.81,-167.33 489.99,-142.89 464,-111.15 451.71,-96.15 432.71,-84.31 419.08,-77.07"/>
<polygon fill="midnightblue" stroke="midnightblue" points="514.45,-209.82 525.04,-210.24 517.02,-203.31 514.45,-209.82"/>
</g>
<!-- Node12 -->
<g id="node12" class="node">
<title>Node12</title>
<g id="a_node12"><a xlink:href="group__grp__force__driver.html#gaec14f81fbdbedafbc4189489ec8ae178" target="_top" xlink:title="Employs Newton method to find , where &#160;and &#160;is defined in dforce() .">
<polygon fill="white" stroke="black" points="255,-69.65 255,-88.65 303,-88.65 303,-69.65 255,-69.65"/>
<text text-anchor="middle" x="279" y="-76.65" font-family="Helvetica,sans-Serif" font-size="10.00">newton</text>
</a>
</g>
</g>
<!-- Node4&#45;&gt;Node12 -->
<g id="edge33" class="edge">
<title>Node4&#45;&gt;Node12</title>
<path fill="none" stroke="midnightblue" d="M516.14,-205.25C510.51,-202.73 504.87,-199.71 500,-196.15 479.87,-181.45 484.33,-167.57 464,-153.15 415.58,-118.82 393.8,-128.96 339,-106.15 325.9,-100.7 311.4,-94.07 300.05,-88.75"/>
<polygon fill="midnightblue" stroke="midnightblue" points="514.89,-208.52 525.47,-209.01 517.51,-202.03 514.89,-208.52"/>
</g>
<!-- Node13 -->
<g id="node13" class="node">
<title>Node13</title>
<g id="a_node13"><a xlink:href="group__grp__force__driver.html#ga8ccd6c7d901872702521d0a0edf95412" target="_top" xlink:title="fcn2">
<polygon fill="white" stroke="black" points="29.5,-83.65 29.5,-102.65 64.5,-102.65 64.5,-83.65 29.5,-83.65"/>
<text text-anchor="middle" x="47" y="-90.65" font-family="Helvetica,sans-Serif" font-size="10.00">fcn2</text>
</a>
</g>
</g>
<!-- Node4&#45;&gt;Node13 -->
<g id="edge27" class="edge">
<title>Node4&#45;&gt;Node13</title>
<path fill="none" stroke="midnightblue" d="M516,-207.49C510.01,-204.76 504.26,-201.09 500,-196.15 456.32,-145.57 516.61,-91.37 464,-50.15 347.14,41.39 274.14,-14.65 130,-50.15 103.93,-56.57 76.98,-72.91 61.39,-83.5"/>
<polygon fill="midnightblue" stroke="midnightblue" points="514.86,-210.8 525.45,-211.04 517.32,-204.25 514.86,-210.8"/>
</g>
<!-- Node4&#45;&gt;Node15 -->
<g id="edge28" class="edge">
<title>Node4&#45;&gt;Node15</title>
<path fill="none" stroke="midnightblue" d="M523.23,-230.95C515.29,-237.01 506.73,-244.35 500,-252.15 479.17,-276.27 488.93,-294.31 464,-314.15 459.1,-318.05 453.41,-321.15 447.49,-323.62"/>
<polygon fill="midnightblue" stroke="midnightblue" points="525.47,-233.65 531.47,-224.92 521.33,-228 525.47,-233.65"/>
</g>
<!-- Node16 -->
<g id="node16" class="node">
<title>Node16</title>
<g id="a_node16"><a xlink:href="group__grp__diagnostics.html#ga7401b50ec10c6598ee4a8112717a63ec" target="_top" xlink:title="Computes eigenvalues and eigenvectors of derivative matrix, .">
<polygon fill="white" stroke="black" points="256.5,-135.65 256.5,-154.65 301.5,-154.65 301.5,-135.65 256.5,-135.65"/>
<text text-anchor="middle" x="279" y="-142.65" font-family="Helvetica,sans-Serif" font-size="10.00">hesian</text>
</a>
</g>
</g>
<!-- Node4&#45;&gt;Node16 -->
<g id="edge30" class="edge">
<title>Node4&#45;&gt;Node16</title>
<path fill="none" stroke="midnightblue" d="M515.77,-203.88C500.35,-198.44 481.31,-192.05 464,-187.15 405.99,-170.73 336.31,-156.22 301.71,-149.35"/>
<polygon fill="midnightblue" stroke="midnightblue" points="514.73,-207.23 525.32,-207.29 517.08,-200.63 514.73,-207.23"/>
</g>
<!-- Node17 -->
<g id="node17" class="node">
<title>Node17</title>
<g id="a_node17"><a xlink:href="group__grp__conjugate__gradient.html#ga4d8415226e62a9fdb42b0fd0b464251e" target="_top" xlink:title="Returns the energy functional and it&#39;s derivatives with respect to geometry.">
<polygon fill="white" stroke="black" points="377.5,-267.65 377.5,-286.65 425.5,-286.65 425.5,-267.65 377.5,-267.65"/>
<text text-anchor="middle" x="401.5" y="-274.65" font-family="Helvetica,sans-Serif" font-size="10.00">pc00ab</text>
</a>
</g>
</g>
<!-- Node4&#45;&gt;Node17 -->
<g id="edge34" class="edge">
<title>Node4&#45;&gt;Node17</title>
<path fill="none" stroke="midnightblue" d="M521.39,-229.75C505.33,-238.71 483.86,-249.99 464,-258.15 451.6,-263.25 437.31,-267.74 425.63,-271.08"/>
<polygon fill="midnightblue" stroke="midnightblue" points="523.19,-232.76 530.17,-224.79 519.75,-226.66 523.19,-232.76"/>
</g>
<!-- Node6 -->
<g id="node6" class="node">
<title>Node6</title>
<g id="a_node6"><a xlink:href="xspech_8f90.html#a9fdc71dffd7c61ee4588a3f80d3ab9ce" target="_top" xlink:title="Main subroutine of SPEC.">
<polygon fill="white" stroke="black" points="255.5,-229.65 255.5,-248.65 302.5,-248.65 302.5,-229.65 255.5,-229.65"/>
<text text-anchor="middle" x="279" y="-236.65" font-family="Helvetica,sans-Serif" font-size="10.00">xspech</text>
</a>
</g>
</g>
<!-- Node5&#45;&gt;Node6 -->
<g id="edge5" class="edge">
<title>Node5&#45;&gt;Node6</title>
<path fill="none" stroke="midnightblue" d="M334.45,-239.15C323.06,-239.15 311.95,-239.15 302.77,-239.15"/>
<polygon fill="midnightblue" stroke="midnightblue" points="334.48,-242.65 344.48,-239.15 334.48,-235.65 334.48,-242.65"/>
</g>
<!-- Node6&#45;&gt;Node6 -->
<g id="edge13" class="edge">
<title>Node6&#45;&gt;Node6</title>
<path fill="none" stroke="midnightblue" d="M298.26,-258.55C296.97,-263.47 290.55,-267.15 279,-267.15 260.52,-267.15 255.17,-257.72 262.97,-248.91"/>
<polygon fill="midnightblue" stroke="midnightblue" points="301.52,-257.28 295.03,-248.91 294.89,-259.5 301.52,-257.28"/>
</g>
<!-- Node7 -->
<g id="node7" class="node">
<title>Node7</title>
<g id="a_node7"><a xlink:href="xspech_8f90.html#a1451823a7b97101a797de616250752c1" target="_top" xlink:title="Final diagnostics.">
<polygon fill="white" stroke="black" points="130,-229.65 130,-248.65 219,-248.65 219,-229.65 130,-229.65"/>
<text text-anchor="middle" x="174.5" y="-236.65" font-family="Helvetica,sans-Serif" font-size="10.00">final_diagnostics</text>
</a>
</g>
</g>
<!-- Node6&#45;&gt;Node7 -->
<g id="edge6" class="edge">
<title>Node6&#45;&gt;Node7</title>
<path fill="none" stroke="midnightblue" d="M245.24,-232.81C236.96,-232.43 227.94,-232.31 219.22,-232.47"/>
<polygon fill="midnightblue" stroke="midnightblue" points="245.05,-236.3 255.25,-233.43 245.49,-229.32 245.05,-236.3"/>
</g>
<!-- Node6&#45;&gt;Node8 -->
<g id="edge8" class="edge">
<title>Node6&#45;&gt;Node8</title>
<path fill="none" stroke="midnightblue" d="M255.42,-225.07C236.89,-216.69 210.98,-207.22 193.75,-202.61"/>
<polygon fill="midnightblue" stroke="midnightblue" points="254.07,-228.31 264.6,-229.45 257.08,-221.99 254.07,-228.31"/>
</g>
<!-- Node10 -->
<g id="node10" class="node">
<title>Node10</title>
<g id="a_node10"><a xlink:href="xspech_8f90.html#a95271e8805067f801b5d4e524d6901d4" target="_top" xlink:title="Main program of SPEC.">
<polygon fill="white" stroke="black" points="142.5,-267.65 142.5,-286.65 206.5,-286.65 206.5,-267.65 142.5,-267.65"/>
<text text-anchor="middle" x="174.5" y="-274.65" font-family="Helvetica,sans-Serif" font-size="10.00">spec_main</text>
</a>
</g>
</g>
<!-- Node6&#45;&gt;Node10 -->
<g id="edge12" class="edge">
<title>Node6&#45;&gt;Node10</title>
<path fill="none" stroke="midnightblue" d="M245.79,-251.09C231.5,-256.39 214.91,-262.54 201.44,-267.54"/>
<polygon fill="midnightblue" stroke="midnightblue" points="247.09,-254.34 255.25,-247.58 244.66,-247.78 247.09,-254.34"/>
</g>
<!-- Node7&#45;&gt;Node6 -->
<g id="edge7" class="edge">
<title>Node7&#45;&gt;Node6</title>
<path fill="none" stroke="midnightblue" d="M229.47,-245.89C238.56,-245.84 247.54,-245.5 255.25,-244.87"/>
<polygon fill="midnightblue" stroke="midnightblue" points="229.24,-242.39 219.22,-245.84 229.2,-249.39 229.24,-242.39"/>
</g>
<!-- Node8&#45;&gt;Node6 -->
<g id="edge11" class="edge">
<title>Node8&#45;&gt;Node6</title>
<path fill="none" stroke="midnightblue" d="M197.97,-215.18C214.96,-222.87 238.19,-231.49 255.25,-236.44"/>
<polygon fill="midnightblue" stroke="midnightblue" points="199.31,-211.94 188.78,-210.79 196.29,-218.26 199.31,-211.94"/>
</g>
<!-- Node9 -->
<g id="node9" class="node">
<title>Node9</title>
<g id="a_node9"><a xlink:href="group__grp__output.html#ga0f962c09cd5d5eba99f1cba043cb3898" target="_top" xlink:title="Initialize the interface to the HDF5 library and open the output file.">
<polygon fill="white" stroke="black" points="0,-248.65 0,-267.65 94,-267.65 94,-248.65 0,-248.65"/>
<text text-anchor="middle" x="47" y="-255.65" font-family="Helvetica,sans-Serif" font-size="10.00">sphdf5::init_outfile</text>
</a>
</g>
</g>
<!-- Node8&#45;&gt;Node9 -->
<g id="edge9" class="edge">
<title>Node8&#45;&gt;Node9</title>
<path fill="none" stroke="midnightblue" d="M146.02,-213.04C140.7,-215.38 135.17,-217.83 130,-220.15 108.97,-229.62 85.05,-240.74 68.5,-248.5"/>
<polygon fill="midnightblue" stroke="midnightblue" points="147.49,-216.22 155.26,-209.01 144.69,-209.8 147.49,-216.22"/>
</g>
<!-- Node9&#45;&gt;Node6 -->
<g id="edge10" class="edge">
<title>Node9&#45;&gt;Node6</title>
<path fill="none" stroke="midnightblue" d="M72.37,-272.86C88.18,-281.53 109.57,-291.65 130,-296.15 168.63,-304.67 182.33,-310.97 219,-296.15 242.77,-286.55 262.28,-262.27 271.77,-248.7"/>
<polygon fill="midnightblue" stroke="midnightblue" points="73.73,-269.61 63.3,-267.72 70.27,-275.7 73.73,-269.61"/>
</g>
<!-- Node11&#45;&gt;Node11 -->
<g id="edge16" class="edge">
<title>Node11&#45;&gt;Node11</title>
<path fill="none" stroke="midnightblue" d="M424.37,-86.29C424.68,-92.29 417.06,-97.15 401.5,-97.15 378.86,-97.15 373.03,-86.87 383.99,-77.75"/>
<polygon fill="midnightblue" stroke="midnightblue" points="427.29,-84.36 419.01,-77.75 421.36,-88.08 427.29,-84.36"/>
</g>
<!-- Node11&#45;&gt;Node12 -->
<g id="edge17" class="edge">
<title>Node11&#45;&gt;Node12</title>
<path fill="none" stroke="midnightblue" d="M373.51,-65.65C352.38,-65.97 323.31,-68.48 303.22,-71.77"/>
<polygon fill="midnightblue" stroke="midnightblue" points="373.73,-69.15 383.74,-65.7 373.76,-62.16 373.73,-69.15"/>
</g>
<!-- Node12&#45;&gt;Node8 -->
<g id="edge23" class="edge">
<title>Node12&#45;&gt;Node8</title>
<path fill="none" stroke="midnightblue" d="M263.28,-96.67C241.31,-122.82 200.69,-171.17 183.51,-191.62"/>
<polygon fill="midnightblue" stroke="midnightblue" points="266.2,-98.63 269.96,-88.72 260.84,-94.13 266.2,-98.63"/>
</g>
<!-- Node12&#45;&gt;Node11 -->
<g id="edge18" class="edge">
<title>Node12&#45;&gt;Node11</title>
<path fill="none" stroke="midnightblue" d="M313.52,-82.49C336.37,-81.74 365.66,-78.89 383.74,-75.39"/>
<polygon fill="midnightblue" stroke="midnightblue" points="313.15,-79 303.22,-82.68 313.28,-86 313.15,-79"/>
</g>
<!-- Node12&#45;&gt;Node12 -->
<g id="edge22" class="edge">
<title>Node12&#45;&gt;Node12</title>
<path fill="none" stroke="midnightblue" d="M298.26,-98.55C296.97,-103.47 290.55,-107.15 279,-107.15 260.52,-107.15 255.17,-97.72 262.97,-88.91"/>
<polygon fill="midnightblue" stroke="midnightblue" points="301.52,-97.28 295.03,-88.91 294.89,-99.5 301.52,-97.28"/>
</g>
<!-- Node12&#45;&gt;Node13 -->
<g id="edge19" class="edge">
<title>Node12&#45;&gt;Node13</title>
<path fill="none" stroke="midnightblue" d="M244.66,-76.25C236.3,-77.22 227.34,-78.4 219,-79.15 162.5,-84.27 95.12,-84.53 64.55,-88.08"/>
<polygon fill="midnightblue" stroke="midnightblue" points="245.25,-79.7 254.82,-75.17 244.51,-72.74 245.25,-79.7"/>
</g>
<!-- Node14 -->
<g id="node14" class="node">
<title>Node14</title>
<g id="a_node14"><a xlink:href="group__grp__force__driver.html#ga382822b303cbf8c56d6f54dcb379caf2" target="_top" xlink:title="read or write force&#45;derivative matrix">
<polygon fill="white" stroke="black" points="142,-59.65 142,-78.65 207,-78.65 207,-59.65 142,-59.65"/>
<text text-anchor="middle" x="174.5" y="-66.65" font-family="Helvetica,sans-Serif" font-size="10.00">writereadgf</text>
</a>
</g>
</g>
<!-- Node12&#45;&gt;Node14 -->
<g id="edge24" class="edge">
<title>Node12&#45;&gt;Node14</title>
<path fill="none" stroke="midnightblue" d="M244.89,-69.56C232.86,-67.85 219.29,-66.54 207.36,-65.96"/>
<polygon fill="midnightblue" stroke="midnightblue" points="244.57,-73.05 255,-71.17 245.67,-66.14 244.57,-73.05"/>
</g>
<!-- Node13&#45;&gt;Node12 -->
<g id="edge21" class="edge">
<title>Node13&#45;&gt;Node12</title>
<path fill="none" stroke="midnightblue" d="M74.51,-99.63C108.18,-102.43 168.02,-101.77 219,-97.15 234.89,-95.71 253.01,-92.75 264.93,-88.65"/>
<polygon fill="midnightblue" stroke="midnightblue" points="74.85,-96.15 64.55,-98.6 74.13,-103.11 74.85,-96.15"/>
</g>
<!-- Node13&#45;&gt;Node13 -->
<g id="edge20" class="edge">
<title>Node13&#45;&gt;Node13</title>
<path fill="none" stroke="midnightblue" d="M70.55,-109.68C71.46,-115.96 63.61,-121.15 47,-121.15 23.38,-121.15 17.47,-110.65 29.28,-101.46"/>
<polygon fill="midnightblue" stroke="midnightblue" points="73.36,-107.59 64.72,-101.46 67.65,-111.64 73.36,-107.59"/>
</g>
<!-- Node14&#45;&gt;Node12 -->
<g id="edge26" class="edge">
<title>Node14&#45;&gt;Node12</title>
<path fill="none" stroke="midnightblue" d="M217.42,-79.89C230.26,-81.42 243.91,-82.45 255,-82.65"/>
<polygon fill="midnightblue" stroke="midnightblue" points="217.74,-76.4 207.36,-78.56 216.82,-83.34 217.74,-76.4"/>
</g>
<!-- Node14&#45;&gt;Node13 -->
<g id="edge25" class="edge">
<title>Node14&#45;&gt;Node13</title>
<path fill="none" stroke="midnightblue" d="M131.96,-77.09C108.99,-81.49 81.73,-86.7 64.64,-89.97"/>
<polygon fill="midnightblue" stroke="midnightblue" points="132.67,-80.52 141.83,-75.21 131.35,-73.65 132.67,-80.52"/>
</g>
<!-- Node15&#45;&gt;Node3 -->
<g id="edge29" class="edge">
<title>Node15&#45;&gt;Node3</title>
<path fill="none" stroke="midnightblue" d="M474.45,-326.89C510.79,-320.12 555.46,-310.02 595,-299.15 612.57,-294.32 632.71,-287.41 644.04,-280.66"/>
<polygon fill="midnightblue" stroke="midnightblue" points="473.64,-323.48 464.43,-328.7 474.89,-330.36 473.64,-323.48"/>
</g>
<!-- Node16&#45;&gt;Node8 -->
<g id="edge32" class="edge">
<title>Node16&#45;&gt;Node8</title>
<path fill="none" stroke="midnightblue" d="M251.13,-159.83C232.83,-169.83 209.1,-182.79 193.15,-191.51"/>
<polygon fill="midnightblue" stroke="midnightblue" points="253.05,-162.77 260.15,-154.91 249.69,-156.63 253.05,-162.77"/>
</g>
<!-- Node16&#45;&gt;Node16 -->
<g id="edge31" class="edge">
<title>Node16&#45;&gt;Node16</title>
<path fill="none" stroke="midnightblue" d="M298.26,-164.55C296.97,-169.47 290.55,-173.15 279,-173.15 260.52,-173.15 255.17,-163.72 262.97,-154.91"/>
<polygon fill="midnightblue" stroke="midnightblue" points="301.52,-163.28 295.03,-154.91 294.89,-165.5 301.52,-163.28"/>
</g>
<!-- Node17&#45;&gt;Node17 -->
<g id="edge37" class="edge">
<title>Node17&#45;&gt;Node17</title>
<path fill="none" stroke="midnightblue" d="M424.19,-296.18C422.96,-301.28 415.39,-305.15 401.5,-305.15 379.82,-305.15 373.55,-295.72 382.7,-286.91"/>
<polygon fill="midnightblue" stroke="midnightblue" points="427.4,-294.78 420.3,-286.91 420.94,-297.48 427.4,-294.78"/>
</g>
<!-- Node18 -->
<g id="node18" class="node">
<title>Node18</title>
<g id="a_node18"><a xlink:href="group__grp__conjugate__gradient.html#ga25a3bae2ff2ee0469b045de0d033398b" target="_top" xlink:title="Use preconditioned conjugate gradient method to find minimum of energy functional.">
<polygon fill="white" stroke="black" points="255,-285.65 255,-304.65 303,-304.65 303,-285.65 255,-285.65"/>
<text text-anchor="middle" x="279" y="-292.65" font-family="Helvetica,sans-Serif" font-size="10.00">pc00aa</text>
</a>
</g>
</g>
<!-- Node17&#45;&gt;Node18 -->
<g id="edge35" class="edge">
<title>Node17&#45;&gt;Node18</title>
<path fill="none" stroke="midnightblue" d="M367.16,-282.13C346.81,-285.17 321.31,-288.98 303.16,-291.69"/>
<polygon fill="midnightblue" stroke="midnightblue" points="367.89,-285.56 377.27,-280.62 366.86,-278.64 367.89,-285.56"/>
</g>
<!-- Node18&#45;&gt;Node18 -->
<g id="edge36" class="edge">
<title>Node18&#45;&gt;Node18</title>
<path fill="none" stroke="midnightblue" d="M298.26,-314.55C296.97,-319.47 290.55,-323.15 279,-323.15 260.52,-323.15 255.17,-313.72 262.97,-304.91"/>
<polygon fill="midnightblue" stroke="midnightblue" points="301.52,-313.28 295.03,-304.91 294.89,-315.5 301.52,-313.28"/>
</g>
<!-- Node19&#45;&gt;Node3 -->
<g id="edge41" class="edge">
<title>Node19&#45;&gt;Node3</title>
<path fill="none" stroke="midnightblue" d="M594.93,-277.86C607.42,-278.02 620.35,-277.67 630.84,-276.79"/>
<polygon fill="midnightblue" stroke="midnightblue" points="594.69,-274.36 584.61,-277.61 594.52,-281.35 594.69,-274.36"/>
</g>
<!-- Node20&#45;&gt;Node3 -->
<g id="edge43" class="edge">
<title>Node20&#45;&gt;Node3</title>
<path fill="none" stroke="midnightblue" d="M568.52,-190.76C577.26,-194.57 587.26,-199 595,-205.15 616.71,-222.42 613.59,-234.55 631,-256.15 632.42,-257.91 633.93,-259.71 635.47,-261.45"/>
<polygon fill="midnightblue" stroke="midnightblue" points="569.93,-187.56 559.37,-186.67 567.07,-193.95 569.93,-187.56"/>
</g>
<!-- Node21&#45;&gt;Node3 -->
<g id="edge52" class="edge">
<title>Node21&#45;&gt;Node3</title>
<path fill="none" stroke="midnightblue" d="M734.78,-245.57C727.5,-247.73 720.03,-249.97 713,-252.15 701.16,-255.82 688.03,-260.1 677.26,-263.67"/>
<polygon fill="midnightblue" stroke="midnightblue" points="735.93,-248.88 744.54,-242.71 733.96,-242.17 735.93,-248.88"/>
</g>
<!-- Node21&#45;&gt;Node20 -->
<g id="edge53" class="edge">
<title>Node21&#45;&gt;Node20</title>
<path fill="none" stroke="midnightblue" d="M702.77,-228.32C679.42,-225.53 653.83,-221.12 631,-214.15 613.89,-208.93 611.29,-203.54 595,-196.15 587.85,-192.91 579.98,-189.6 572.78,-186.67"/>
<polygon fill="midnightblue" stroke="midnightblue" points="702.65,-231.83 712.97,-229.46 703.42,-224.88 702.65,-231.83"/>
</g>
<!-- Node22 -->
<g id="node22" class="node">
<title>Node22</title>
<g id="a_node22"><a xlink:href="dfp100_8f90.html#a17a3ac15cc83994394f7b4cc05e5898e" target="_top" xlink:title="Split the work between MPI nodes and evaluate the global constraint.">
<polygon fill="white" stroke="black" points="631,-167.65 631,-186.65 677,-186.65 677,-167.65 631,-167.65"/>
<text text-anchor="middle" x="654" y="-174.65" font-family="Helvetica,sans-Serif" font-size="10.00">dfp100</text>
</a>
</g>
</g>
<!-- Node21&#45;&gt;Node22 -->
<g id="edge48" class="edge">
<title>Node21&#45;&gt;Node22</title>
<path fill="none" stroke="midnightblue" d="M728.79,-220.39C723.38,-218.51 718.02,-216.43 713,-214.15 696.47,-206.65 679.12,-195.01 667.75,-186.79"/>
<polygon fill="midnightblue" stroke="midnightblue" points="727.92,-223.79 738.51,-223.55 730.08,-217.13 727.92,-223.79"/>
</g>
<!-- Node22&#45;&gt;Node4 -->
<g id="edge49" class="edge">
<title>Node22&#45;&gt;Node4</title>
<path fill="none" stroke="midnightblue" d="M621.41,-188.64C604.62,-194.75 584.43,-202.09 569.56,-207.49"/>
<polygon fill="midnightblue" stroke="midnightblue" points="622.64,-191.92 630.84,-185.21 620.24,-185.34 622.64,-191.92"/>
</g>
<!-- Node22&#45;&gt;Node20 -->
<g id="edge51" class="edge">
<title>Node22&#45;&gt;Node20</title>
<path fill="none" stroke="midnightblue" d="M620.71,-177.15C612.62,-177.15 603.78,-177.15 595.14,-177.15"/>
<polygon fill="midnightblue" stroke="midnightblue" points="620.84,-180.65 630.84,-177.15 620.84,-173.65 620.84,-180.65"/>
</g>
<!-- Node22&#45;&gt;Node22 -->
<g id="edge50" class="edge">
<title>Node22&#45;&gt;Node22</title>
<path fill="none" stroke="midnightblue" d="M673.63,-196.55C672.32,-201.47 665.77,-205.15 654,-205.15 635.16,-205.15 629.71,-195.72 637.66,-186.91"/>
<polygon fill="midnightblue" stroke="midnightblue" points="676.88,-195.24 670.34,-186.91 670.26,-197.5 676.88,-195.24"/>
</g>
<!-- Node23&#45;&gt;Node3 -->
<g id="edge56" class="edge">
<title>Node23&#45;&gt;Node3</title>
<path fill="none" stroke="midnightblue" d="M724.58,-208.38C720.56,-210.09 716.65,-212.01 713,-214.15 691.57,-226.72 672.19,-248.95 662.17,-261.61"/>
<polygon fill="midnightblue" stroke="midnightblue" points="726.01,-211.59 734.11,-204.76 723.52,-205.05 726.01,-211.59"/>
</g>
<!-- Node23&#45;&gt;Node20 -->
<g id="edge57" class="edge">
<title>Node23&#45;&gt;Node20</title>
<path fill="none" stroke="midnightblue" d="M731.43,-182.64C725.17,-180.64 718.89,-178.46 713,-176.15 696.35,-169.62 694.41,-162.26 677,-158.15 641.88,-149.86 600.47,-159.36 574.34,-167.64"/>
<polygon fill="midnightblue" stroke="midnightblue" points="730.59,-186.04 741.17,-185.63 732.64,-179.35 730.59,-186.04"/>
</g>
<!-- Node23&#45;&gt;Node22 -->
<g id="edge55" class="edge">
<title>Node23&#45;&gt;Node22</title>
<path fill="none" stroke="midnightblue" d="M712.09,-185.51C699.43,-183.65 687.02,-181.84 677.03,-180.37"/>
<polygon fill="midnightblue" stroke="midnightblue" points="711.86,-189.01 722.26,-186.99 712.87,-182.08 711.86,-189.01"/>
</g>
<!-- Node25 -->
<g id="node25" class="node">
<title>Node25</title>
<g id="a_node25"><a xlink:href="mp00ac_8f90.html#a304edac43f63d39dda4419b4d044eac5" target="_top" xlink:title="run GMRES">
<polygon fill="white" stroke="black" points="968,-109.65 968,-128.65 1025,-128.65 1025,-109.65 968,-109.65"/>
<text text-anchor="middle" x="996.5" y="-116.65" font-family="Helvetica,sans-Serif" font-size="10.00">rungmres</text>
</a>
</g>
</g>
<!-- Node24&#45;&gt;Node25 -->
<g id="edge59" class="edge">
<title>Node24&#45;&gt;Node25</title>
<path fill="none" stroke="midnightblue" d="M1050.5,-119.15C1042.13,-119.15 1033.28,-119.15 1025.25,-119.15"/>
<polygon fill="midnightblue" stroke="midnightblue" points="1050.73,-122.65 1060.73,-119.15 1050.73,-115.65 1050.73,-122.65"/>
</g>
<!-- Node25&#45;&gt;Node26 -->
<g id="edge60" class="edge">
<title>Node25&#45;&gt;Node26</title>
<path fill="none" stroke="midnightblue" d="M957.74,-127.73C949.09,-129.7 940.12,-131.74 932.19,-133.54"/>
<polygon fill="midnightblue" stroke="midnightblue" points="958.68,-131.11 967.66,-125.48 957.13,-124.28 958.68,-131.11"/>
</g>
<!-- Node26&#45;&gt;Node26 -->
<g id="edge64" class="edge">
<title>Node26&#45;&gt;Node26</title>
<path fill="none" stroke="midnightblue" d="M923.17,-158.55C922.05,-163.47 916.5,-167.15 906.5,-167.15 890.5,-167.15 885.88,-157.72 892.63,-148.91"/>
<polygon fill="midnightblue" stroke="midnightblue" points="926.52,-157.54 920.37,-148.91 919.79,-159.49 926.52,-157.54"/>
</g>
<!-- Node27 -->
<g id="node27" class="node">
<title>Node27</title>
<g id="a_node27"><a xlink:href="group__grp__solver__driver.html#gacad623d4c5c006e9ad10116372f92ad3" target="_top" xlink:title="Constructs Beltrami field in given volume consistent with flux, helicity, rotational&#45;transform and/or...">
<polygon fill="white" stroke="black" points="753.5,-129.65 753.5,-148.65 804.5,-148.65 804.5,-129.65 753.5,-129.65"/>
<text text-anchor="middle" x="779" y="-136.65" font-family="Helvetica,sans-Serif" font-size="10.00">ma02aa</text>
</a>
</g>
</g>
<!-- Node26&#45;&gt;Node27 -->
<g id="edge61" class="edge">
<title>Node26&#45;&gt;Node27</title>
<path fill="none" stroke="midnightblue" d="M870.6,-139.15C849.67,-139.15 823.55,-139.15 804.74,-139.15"/>
<polygon fill="midnightblue" stroke="midnightblue" points="870.71,-142.65 880.71,-139.15 870.71,-135.65 870.71,-142.65"/>
</g>
<!-- Node27&#45;&gt;Node22 -->
<g id="edge62" class="edge">
<title>Node27&#45;&gt;Node22</title>
<path fill="none" stroke="midnightblue" d="M743.74,-149.74C722.41,-156.32 695.61,-164.6 677.08,-170.33"/>
<polygon fill="midnightblue" stroke="midnightblue" points="744.88,-153.05 753.4,-146.75 742.82,-146.36 744.88,-153.05"/>
</g>
<!-- Node27&#45;&gt;Node27 -->
<g id="edge63" class="edge">
<title>Node27&#45;&gt;Node27</title>
<path fill="none" stroke="midnightblue" d="M802.07,-158.18C800.81,-163.28 793.12,-167.15 779,-167.15 756.96,-167.15 750.59,-157.72 759.89,-148.91"/>
<polygon fill="midnightblue" stroke="midnightblue" points="805.25,-156.73 798.11,-148.91 798.81,-159.48 805.25,-156.73"/>
</g>
</g>
</svg>
