<?xml version="1.0" encoding="UTF-8" standalone="no"?>
<!DOCTYPE svg PUBLIC "-//W3C//DTD SVG 1.1//EN"
 "http://www.w3.org/Graphics/SVG/1.1/DTD/svg11.dtd">
<!-- Generated by graphviz version 2.47.1 (20210421.1823)
 -->
<!-- Title: intghs Pages: 1 -->
<svg width="354pt" height="180pt"
 viewBox="0.00 0.00 354.00 180.00" xmlns="http://www.w3.org/2000/svg" xmlns:xlink="http://www.w3.org/1999/xlink">
<g id="graph0" class="graph" transform="scale(1 1) rotate(0) translate(4 176)">
<title>intghs</title>
<polygon fill="white" stroke="transparent" points="-4,4 -4,-176 350,-176 350,4 -4,4"/>
<!-- Node1 -->
<g id="node1" class="node">
<title>Node1</title>
<g id="a_node1"><a xlink:title="Calculates volume integrals of Chebyshev polynomials and covariant field products.">
<polygon fill="#bfbfbf" stroke="black" points="0,-76.5 0,-95.5 43,-95.5 43,-76.5 0,-76.5"/>
<text text-anchor="middle" x="21.5" y="-83.5" font-family="Helvetica,sans-Serif" font-size="10.00">intghs</text>
</a>
</g>
</g>
<!-- Node2 -->
<g id="node2" class="node">
<title>Node2</title>
<g id="a_node2"><a xlink:href="metrix_8f90.html#a80c802cda076dd9e7031bc5f9098c175" target="_top" xlink:title="compute guvijsave">
<polygon fill="white" stroke="black" points="79,-114.5 79,-133.5 180,-133.5 180,-114.5 79,-114.5"/>
<text text-anchor="middle" x="129.5" y="-121.5" font-family="Helvetica,sans-Serif" font-size="10.00">compute_guvijsave</text>
</a>
</g>
</g>
<!-- Node1&#45;&gt;Node2 -->
<g id="edge1" class="edge">
<title>Node1&#45;&gt;Node2</title>
<path fill="none" stroke="midnightblue" d="M43.19,-93.42C57.06,-98.39 75.71,-105.07 92.03,-110.92"/>
<polygon fill="midnightblue" stroke="midnightblue" points="91.23,-114.36 101.83,-114.44 93.59,-107.77 91.23,-114.36"/>
</g>
<!-- Node4 -->
<g id="node4" class="node">
<title>Node4</title>
<g id="a_node4"><a xlink:href="group__grp__numerics.html#ga1fd52accb0646f535f9bcc46cf5a68f3" target="_top" xlink:title="Inverse Fourier transform (fftw wrapper)">
<polygon fill="white" stroke="black" points="303,-152.5 303,-171.5 341,-171.5 341,-152.5 303,-152.5"/>
<text text-anchor="middle" x="322" y="-159.5" font-family="Helvetica,sans-Serif" font-size="10.00">invfft</text>
</a>
</g>
</g>
<!-- Node1&#45;&gt;Node4 -->
<g id="edge8" class="edge">
<title>Node1&#45;&gt;Node4</title>
<path fill="none" stroke="midnightblue" d="M28.77,-95.75C37.97,-109.09 56.5,-132.57 79,-143 150.3,-176.05 246.13,-171.03 292.92,-165.87"/>
<polygon fill="midnightblue" stroke="midnightblue" points="293.41,-169.34 302.93,-164.68 292.59,-162.39 293.41,-169.34"/>
</g>
<!-- Node6 -->
<g id="node6" class="node">
<title>Node6</title>
<g id="a_node6"><a xlink:href="basefn_8f90.html#af6a4cad04c70bfb14fd18a3bfbc843a3" target="_top" xlink:title="Get the Chebyshev polynomials with zeroth, first derivatives.">
<polygon fill="white" stroke="black" points="99,-76.5 99,-95.5 160,-95.5 160,-76.5 99,-76.5"/>
<text text-anchor="middle" x="129.5" y="-83.5" font-family="Helvetica,sans-Serif" font-size="10.00">get_cheby</text>
</a>
</g>
</g>
<!-- Node1&#45;&gt;Node6 -->
<g id="edge6" class="edge">
<title>Node1&#45;&gt;Node6</title>
<path fill="none" stroke="midnightblue" d="M43.19,-86C56.02,-86 72.92,-86 88.3,-86"/>
<polygon fill="midnightblue" stroke="midnightblue" points="88.63,-89.5 98.63,-86 88.63,-82.5 88.63,-89.5"/>
</g>
<!-- Node7 -->
<g id="node7" class="node">
<title>Node7</title>
<g id="a_node7"><a xlink:href="basefn_8f90.html#a38dc596fb909186b01dacc1feac03164" target="_top" xlink:title="Get the Zernike polynomials &#160;with zeroth, first derivatives.">
<polygon fill="white" stroke="black" points="96.5,-38.5 96.5,-57.5 162.5,-57.5 162.5,-38.5 96.5,-38.5"/>
<text text-anchor="middle" x="129.5" y="-45.5" font-family="Helvetica,sans-Serif" font-size="10.00">get_zernike</text>
</a>
</g>
</g>
<!-- Node1&#45;&gt;Node7 -->
<g id="edge7" class="edge">
<title>Node1&#45;&gt;Node7</title>
<path fill="none" stroke="midnightblue" d="M43.19,-78.58C57.06,-73.61 75.71,-66.93 92.03,-61.08"/>
<polygon fill="midnightblue" stroke="midnightblue" points="93.59,-64.23 101.83,-57.56 91.23,-57.64 93.59,-64.23"/>
</g>
<!-- Node8 -->
<g id="node8" class="node">
<title>Node8</title>
<g id="a_node8"><a xlink:href="group__grp__numerics.html#ga041138109a57e651c57117bb4180409e" target="_top" xlink:title="Forward Fourier transform (fftw wrapper)">
<polygon fill="white" stroke="black" points="115,-0.5 115,-19.5 144,-19.5 144,-0.5 115,-0.5"/>
<text text-anchor="middle" x="129.5" y="-7.5" font-family="Helvetica,sans-Serif" font-size="10.00">tfft</text>
</a>
</g>
</g>
<!-- Node1&#45;&gt;Node8 -->
<g id="edge9" class="edge">
<title>Node1&#45;&gt;Node8</title>
<path fill="none" stroke="midnightblue" d="M29.93,-76.28C39.89,-63.82 58.7,-42.25 79,-29 86.98,-23.79 96.6,-19.69 105.22,-16.65"/>
<polygon fill="midnightblue" stroke="midnightblue" points="106.31,-19.98 114.74,-13.57 104.15,-13.32 106.31,-19.98"/>
</g>
<!-- Node3 -->
<g id="node3" class="node">
<title>Node3</title>
<g id="a_node3"><a xlink:href="group__grp__geometry.html#gaaca20aa60eaf39055f3c9d5c02a24ac2" target="_top" xlink:title="Calculates coordinates, , and metrics, using FFTs.">
<polygon fill="white" stroke="black" points="216,-114.5 216,-133.5 262,-133.5 262,-114.5 216,-114.5"/>
<text text-anchor="middle" x="239" y="-121.5" font-family="Helvetica,sans-Serif" font-size="10.00">coords</text>
</a>
</g>
</g>
<!-- Node2&#45;&gt;Node3 -->
<g id="edge2" class="edge">
<title>Node2&#45;&gt;Node3</title>
<path fill="none" stroke="midnightblue" d="M180.16,-124C188.88,-124 197.75,-124 205.83,-124"/>
<polygon fill="midnightblue" stroke="midnightblue" points="205.93,-127.5 215.93,-124 205.93,-120.5 205.93,-127.5"/>
</g>
<!-- Node3&#45;&gt;Node4 -->
<g id="edge3" class="edge">
<title>Node3&#45;&gt;Node4</title>
<path fill="none" stroke="midnightblue" d="M260.44,-133.59C270.52,-138.32 282.81,-144.08 293.68,-149.18"/>
<polygon fill="midnightblue" stroke="midnightblue" points="292.24,-152.37 302.78,-153.45 295.21,-146.04 292.24,-152.37"/>
</g>
<!-- Node5 -->
<g id="node5" class="node">
<title>Node5</title>
<g id="a_node5"><a xlink:href="group__grp__volume.html#gae4c62d20b8fef07f4471b5b0889ab005" target="_top" xlink:title="Computes volume of each region; and, if required, the derivatives of the volume with respect to the i...">
<polygon fill="white" stroke="black" points="298,-114.5 298,-133.5 346,-133.5 346,-114.5 298,-114.5"/>
<text text-anchor="middle" x="322" y="-121.5" font-family="Helvetica,sans-Serif" font-size="10.00">volume</text>
</a>
</g>
</g>
<!-- Node3&#45;&gt;Node5 -->
<g id="edge4" class="edge">
<title>Node3&#45;&gt;Node5</title>
<path fill="none" stroke="midnightblue" d="M262.13,-117.91C269.99,-117.3 279.02,-117.12 287.61,-117.34"/>
<polygon fill="midnightblue" stroke="midnightblue" points="287.61,-120.85 297.76,-117.83 287.94,-113.85 287.61,-120.85"/>
</g>
<!-- Node5&#45;&gt;Node3 -->
<g id="edge5" class="edge">
<title>Node5&#45;&gt;Node3</title>
<path fill="none" stroke="midnightblue" d="M297.76,-130.17C289.8,-130.74 280.74,-130.89 272.19,-130.62"/>
<polygon fill="midnightblue" stroke="midnightblue" points="272.3,-127.12 262.13,-130.09 271.94,-134.11 272.3,-127.12"/>
</g>
</g>
</svg>
