<?xml version="1.0" encoding="UTF-8" standalone="no"?>
<!DOCTYPE svg PUBLIC "-//W3C//DTD SVG 1.1//EN"
 "http://www.w3.org/Graphics/SVG/1.1/DTD/svg11.dtd">
<!-- Generated by graphviz version 2.49.3 (20211027.1534)
 -->
<!-- Title: intghs Pages: 1 -->
<svg width="1197pt" height="369pt"
 viewBox="0.00 0.00 1197.00 368.94" xmlns="http://www.w3.org/2000/svg" xmlns:xlink="http://www.w3.org/1999/xlink">
<g id="graph0" class="graph" transform="scale(1 1) rotate(0) translate(4 364.94)">
<title>intghs</title>
<polygon fill="white" stroke="transparent" points="-4,4 -4,-364.94 1193,-364.94 1193,4 -4,4"/>
<!-- Node1 -->
<g id="node1" class="node">
<title>Node1</title>
<g id="a_node1"><a xlink:title="Calculates volume integrals of Chebyshev polynomials and covariant field products.">
<polygon fill="#bfbfbf" stroke="black" points="1146,-180.44 1146,-199.44 1189,-199.44 1189,-180.44 1146,-180.44"/>
<text text-anchor="middle" x="1167.5" y="-187.44" font-family="Helvetica,sans-Serif" font-size="10.00">intghs</text>
</a>
</g>
</g>
<!-- Node1&#45;&gt;Node1 -->
<g id="edge47" class="edge">
<title>Node1&#45;&gt;Node1</title>
<path fill="none" stroke="midnightblue" d="M1182.6,-209.71C1181.41,-214.44 1176.38,-217.94 1167.5,-217.94 1152.93,-217.94 1148.71,-208.51 1154.86,-199.7"/>
<polygon fill="midnightblue" stroke="midnightblue" points="1185.93,-208.58 1180.14,-199.7 1179.13,-210.25 1185.93,-208.58"/>
</g>
<!-- Node2 -->
<g id="node2" class="node">
<title>Node2</title>
<g id="a_node2"><a xlink:href="dfp200_8f90.html#a5e56f1f4b1e6df11a9cffa6237c37469" target="_top" xlink:title="This routine evaluates the value of the magnetic field once the interface is perturbed using matrix p...">
<polygon fill="white" stroke="black" points="721.5,-256.44 721.5,-275.44 836.5,-275.44 836.5,-256.44 721.5,-256.44"/>
<text text-anchor="middle" x="779" y="-263.44" font-family="Helvetica,sans-Serif" font-size="10.00">get_perturbed_solution</text>
</a>
</g>
</g>
<!-- Node1&#45;&gt;Node2 -->
<g id="edge1" class="edge">
<title>Node1&#45;&gt;Node2</title>
<path fill="none" stroke="midnightblue" d="M1143.5,-205.07C1133.57,-210.92 1121.59,-217.12 1110,-220.94 1017.34,-251.52 903.45,-261.34 836.58,-264.48"/>
<polygon fill="midnightblue" stroke="midnightblue" points="1145.62,-207.87 1152.3,-199.65 1141.95,-201.91 1145.62,-207.87"/>
</g>
<!-- Node21 -->
<g id="node21" class="node">
<title>Node21</title>
<g id="a_node21"><a xlink:href="intghs_8f90.html#ae10091a51178071d12004da4952104d4" target="_top" xlink:title="free workspace.">
<polygon fill="white" stroke="black" points="713,-218.44 713,-237.44 845,-237.44 845,-218.44 713,-218.44"/>
<text text-anchor="middle" x="779" y="-225.44" font-family="Helvetica,sans-Serif" font-size="10.00">intghs_workspace_destroy</text>
</a>
</g>
</g>
<!-- Node1&#45;&gt;Node21 -->
<g id="edge48" class="edge">
<title>Node1&#45;&gt;Node21</title>
<path fill="none" stroke="midnightblue" d="M1136,-198.51C1127.63,-200.58 1118.51,-202.59 1110,-203.94 1018.81,-218.45 912.02,-224.2 845.18,-226.47"/>
<polygon fill="midnightblue" stroke="midnightblue" points="1136.94,-201.88 1145.75,-195.99 1135.19,-195.1 1136.94,-201.88"/>
</g>
<!-- Node23 -->
<g id="node23" class="node">
<title>Node23</title>
<g id="a_node23"><a xlink:href="intghs_8f90.html#ae8299d4625cabd90eb1398fd2cd38089" target="_top" xlink:title="init workspace">
<polygon fill="white" stroke="black" points="722.5,-180.44 722.5,-199.44 835.5,-199.44 835.5,-180.44 722.5,-180.44"/>
<text text-anchor="middle" x="779" y="-187.44" font-family="Helvetica,sans-Serif" font-size="10.00">intghs_workspace_init</text>
</a>
</g>
</g>
<!-- Node1&#45;&gt;Node23 -->
<g id="edge55" class="edge">
<title>Node1&#45;&gt;Node23</title>
<path fill="none" stroke="midnightblue" d="M1135.99,-189.94C1071.02,-189.94 918.23,-189.94 835.52,-189.94"/>
<polygon fill="midnightblue" stroke="midnightblue" points="1135.99,-193.44 1145.99,-189.94 1135.99,-186.44 1135.99,-193.44"/>
</g>
<!-- Node24 -->
<g id="node24" class="node">
<title>Node24</title>
<g id="a_node24"><a xlink:href="mp00ac_8f90.html#ae9fe335bb4916face9f9d19ce8c0f5d7" target="_top" xlink:title="compute a.x by either by coumputing it directly, or using a matrix free method">
<polygon fill="white" stroke="black" points="1061,-104.44 1061,-123.44 1110,-123.44 1110,-104.44 1061,-104.44"/>
<text text-anchor="middle" x="1085.5" y="-111.44" font-family="Helvetica,sans-Serif" font-size="10.00">matvec</text>
</a>
</g>
</g>
<!-- Node1&#45;&gt;Node24 -->
<g id="edge59" class="edge">
<title>Node1&#45;&gt;Node24</title>
<path fill="none" stroke="midnightblue" d="M1148.7,-173.03C1132.65,-157.78 1109.61,-135.9 1096.55,-123.49"/>
<polygon fill="midnightblue" stroke="midnightblue" points="1146.71,-175.97 1156.37,-180.32 1151.53,-170.89 1146.71,-175.97"/>
</g>
<!-- Node26 -->
<g id="node26" class="node">
<title>Node26</title>
<g id="a_node26"><a xlink:href="group__grp__solver.html#ga6626839aff500f060beb5bce2b90c447" target="_top" xlink:title="Solves Beltrami/vacuum (linear) system, given matrices.unpacking fluxes, helicity multiplier">
<polygon fill="white" stroke="black" points="881,-124.44 881,-143.44 932,-143.44 932,-124.44 881,-124.44"/>
<text text-anchor="middle" x="906.5" y="-131.44" font-family="Helvetica,sans-Serif" font-size="10.00">mp00ac</text>
</a>
</g>
</g>
<!-- Node1&#45;&gt;Node26 -->
<g id="edge66" class="edge">
<title>Node1&#45;&gt;Node26</title>
<path fill="none" stroke="midnightblue" d="M1136.06,-182.18C1127.64,-180.09 1118.48,-177.87 1110,-175.94 1046.11,-161.41 970.4,-146.25 932.19,-138.75"/>
<polygon fill="midnightblue" stroke="midnightblue" points="1135.33,-185.6 1145.88,-184.63 1137.03,-178.81 1135.33,-185.6"/>
</g>
<!-- Node3 -->
<g id="node3" class="node">
<title>Node3</title>
<g id="a_node3"><a xlink:href="dfp200_8f90.html#a55ea75395f8c71731451e1add3720c7e" target="_top" xlink:title="Given the field consistent with the constraints and the geometry, computes local quantites related to...">
<polygon fill="white" stroke="black" points="631,-256.44 631,-275.44 677,-275.44 677,-256.44 631,-256.44"/>
<text text-anchor="middle" x="654" y="-263.44" font-family="Helvetica,sans-Serif" font-size="10.00">dfp200</text>
</a>
</g>
</g>
<!-- Node2&#45;&gt;Node3 -->
<g id="edge2" class="edge">
<title>Node2&#45;&gt;Node3</title>
<path fill="none" stroke="midnightblue" d="M710.92,-259.22C698.74,-259.33 686.85,-259.79 677.19,-260.61"/>
<polygon fill="midnightblue" stroke="midnightblue" points="711.18,-262.72 721.18,-259.21 711.18,-255.72 711.18,-262.72"/>
</g>
<!-- Node3&#45;&gt;Node2 -->
<g id="edge46" class="edge">
<title>Node3&#45;&gt;Node2</title>
<path fill="none" stroke="midnightblue" d="M687.41,-271.97C697.79,-272.53 709.59,-272.76 721.18,-272.68"/>
<polygon fill="midnightblue" stroke="midnightblue" points="687.4,-268.46 677.19,-271.28 686.93,-275.45 687.4,-268.46"/>
</g>
<!-- Node3&#45;&gt;Node3 -->
<g id="edge40" class="edge">
<title>Node3&#45;&gt;Node3</title>
<path fill="none" stroke="midnightblue" d="M673.63,-285.34C672.32,-290.26 665.77,-293.94 654,-293.94 635.16,-293.94 629.71,-284.51 637.66,-275.7"/>
<polygon fill="midnightblue" stroke="midnightblue" points="676.88,-284.03 670.34,-275.7 670.26,-286.3 676.88,-284.03"/>
</g>
<!-- Node4 -->
<g id="node4" class="node">
<title>Node4</title>
<g id="a_node4"><a xlink:href="group__grp__global__force.html#ga38c9d3c50bd043707fefa5137c9dbf44" target="_top" xlink:title="Calculates , where &#160;and , and .">
<polygon fill="white" stroke="black" points="525.5,-200.44 525.5,-219.44 569.5,-219.44 569.5,-200.44 525.5,-200.44"/>
<text text-anchor="middle" x="547.5" y="-207.44" font-family="Helvetica,sans-Serif" font-size="10.00">dforce</text>
</a>
</g>
</g>
<!-- Node3&#45;&gt;Node4 -->
<g id="edge3" class="edge">
<title>Node3&#45;&gt;Node4</title>
<path fill="none" stroke="midnightblue" d="M625.87,-251.4C607.17,-241.38 582.83,-228.34 566.49,-219.59"/>
<polygon fill="midnightblue" stroke="midnightblue" points="624.33,-254.55 634.8,-256.19 627.64,-248.38 624.33,-254.55"/>
</g>
<!-- Node15 -->
<g id="node15" class="node">
<title>Node15</title>
<g id="a_node15"><a xlink:href="dfp200_8f90.html#a6aca59cf350d7b1941f8389d50945a43" target="_top" xlink:title="get LU Beltrami matrices">
<polygon fill="white" stroke="black" points="339,-341.44 339,-360.44 464,-360.44 464,-341.44 339,-341.44"/>
<text text-anchor="middle" x="401.5" y="-348.44" font-family="Helvetica,sans-Serif" font-size="10.00">get_lu_beltrami_matrices</text>
</a>
</g>
</g>
<!-- Node3&#45;&gt;Node15 -->
<g id="edge45" class="edge">
<title>Node3&#45;&gt;Node15</title>
<path fill="none" stroke="midnightblue" d="M621.14,-271.02C583.67,-281.93 519.53,-304.68 464,-322.94 446.17,-328.81 425.25,-335.16 412.98,-341.38"/>
<polygon fill="midnightblue" stroke="midnightblue" points="622.29,-274.33 630.97,-268.27 620.4,-267.59 622.29,-274.33"/>
</g>
<!-- Node19 -->
<g id="node19" class="node">
<title>Node19</title>
<g id="a_node19"><a xlink:href="dfp200_8f90.html#a7b64c7392b45d0042d8bd7379c0761a5" target="_top" xlink:title="Evaluate the derivative of the square of the magnetic field modulus. Add spectral constraint derivati...">
<polygon fill="white" stroke="black" points="510.5,-256.44 510.5,-275.44 584.5,-275.44 584.5,-256.44 510.5,-256.44"/>
<text text-anchor="middle" x="547.5" y="-263.44" font-family="Helvetica,sans-Serif" font-size="10.00">evaluate_dbb</text>
</a>
</g>
</g>
<!-- Node3&#45;&gt;Node19 -->
<g id="edge41" class="edge">
<title>Node3&#45;&gt;Node19</title>
<path fill="none" stroke="midnightblue" d="M620.82,-259.66C609.36,-259.1 596.38,-259.05 584.61,-259.49"/>
<polygon fill="midnightblue" stroke="midnightblue" points="620.63,-263.15 630.84,-260.31 621.09,-256.17 620.63,-263.15"/>
</g>
<!-- Node20 -->
<g id="node20" class="node">
<title>Node20</title>
<g id="a_node20"><a xlink:href="dfp200_8f90.html#a73ddf39ecc5228201fb643779e17cd36" target="_top" xlink:title="Evaluate mu and psip derivatives and store them in dmupfdx.">
<polygon fill="white" stroke="black" points="500,-162.44 500,-181.44 595,-181.44 595,-162.44 500,-162.44"/>
<text text-anchor="middle" x="547.5" y="-169.44" font-family="Helvetica,sans-Serif" font-size="10.00">evaluate_dmupfdx</text>
</a>
</g>
</g>
<!-- Node3&#45;&gt;Node20 -->
<g id="edge43" class="edge">
<title>Node3&#45;&gt;Node20</title>
<path fill="none" stroke="midnightblue" d="M643.66,-248.07C639.64,-243.03 634.95,-237.85 631,-232.94 613.59,-211.34 616.71,-199.22 595,-181.94 594.86,-181.84 594.73,-181.73 594.59,-181.62"/>
<polygon fill="midnightblue" stroke="midnightblue" points="640.9,-250.23 649.57,-256.32 646.59,-246.15 640.9,-250.23"/>
</g>
<!-- Node4&#45;&gt;Node4 -->
<g id="edge15" class="edge">
<title>Node4&#45;&gt;Node4</title>
<path fill="none" stroke="midnightblue" d="M567.13,-229.34C565.82,-234.26 559.27,-237.94 547.5,-237.94 528.66,-237.94 523.21,-228.51 531.16,-219.7"/>
<polygon fill="midnightblue" stroke="midnightblue" points="570.38,-228.03 563.84,-219.7 563.76,-230.3 570.38,-228.03"/>
</g>
<!-- Node5 -->
<g id="node5" class="node">
<title>Node5</title>
<g id="a_node5"><a xlink:href="namespaceallglobal.html#a7824bc37519fe88336534ce90ab2af16" target="_top" xlink:title=" ">
<polygon fill="white" stroke="black" points="344.5,-247.44 344.5,-266.44 458.5,-266.44 458.5,-247.44 344.5,-247.44"/>
<text text-anchor="middle" x="401.5" y="-254.44" font-family="Helvetica,sans-Serif" font-size="10.00">allglobal::check_inputs</text>
</a>
</g>
</g>
<!-- Node4&#45;&gt;Node5 -->
<g id="edge4" class="edge">
<title>Node4&#45;&gt;Node5</title>
<path fill="none" stroke="midnightblue" d="M515.61,-220.03C490.8,-228.12 456.21,-239.42 431.82,-247.37"/>
<polygon fill="midnightblue" stroke="midnightblue" points="516.83,-223.31 525.25,-216.88 514.66,-216.66 516.83,-223.31"/>
</g>
<!-- Node8 -->
<g id="node8" class="node">
<title>Node8</title>
<g id="a_node8"><a xlink:href="xspech_8f90.html#a48f45478dc2c9f70ea8aa1c60ad06503" target="_top" xlink:title="This is the main &quot;driver&quot; for the physics part of SPEC.">
<polygon fill="white" stroke="black" points="155.5,-200.44 155.5,-219.44 193.5,-219.44 193.5,-200.44 155.5,-200.44"/>
<text text-anchor="middle" x="174.5" y="-207.44" font-family="Helvetica,sans-Serif" font-size="10.00">spec</text>
</a>
</g>
</g>
<!-- Node4&#45;&gt;Node8 -->
<g id="edge39" class="edge">
<title>Node4&#45;&gt;Node8</title>
<path fill="none" stroke="midnightblue" d="M515.3,-205.99C440.49,-202 252.73,-202.28 193.61,-206.82"/>
<polygon fill="midnightblue" stroke="midnightblue" points="515.3,-209.49 525.49,-206.61 515.72,-202.51 515.3,-209.49"/>
</g>
<!-- Node11 -->
<g id="node11" class="node">
<title>Node11</title>
<g id="a_node11"><a xlink:href="group__grp__force__driver.html#gabbc245b3884ee8d8d3e2a52f25149f78" target="_top" xlink:title="Objective to be given to the Newton solver, using only function values.">
<polygon fill="white" stroke="black" points="384,-59.44 384,-78.44 419,-78.44 419,-59.44 384,-59.44"/>
<text text-anchor="middle" x="401.5" y="-66.44" font-family="Helvetica,sans-Serif" font-size="10.00">fcn1</text>
</a>
</g>
</g>
<!-- Node4&#45;&gt;Node11 -->
<g id="edge16" class="edge">
<title>Node4&#45;&gt;Node11</title>
<path fill="none" stroke="midnightblue" d="M515.6,-201.2C509.93,-198.57 504.42,-195.21 500,-190.94 471.95,-163.86 489.04,-140.83 464,-110.94 451.63,-96.18 432.83,-84.37 419.27,-77.08"/>
<polygon fill="midnightblue" stroke="midnightblue" points="514.52,-204.54 525.11,-204.96 517.1,-198.03 514.52,-204.54"/>
</g>
<!-- Node12 -->
<g id="node12" class="node">
<title>Node12</title>
<g id="a_node12"><a xlink:href="group__grp__force__driver.html#gaec14f81fbdbedafbc4189489ec8ae178" target="_top" xlink:title="Employs Newton method to find , where &#160;and &#160;is defined in dforce() .">
<polygon fill="white" stroke="black" points="255,-69.44 255,-88.44 303,-88.44 303,-69.44 255,-69.44"/>
<text text-anchor="middle" x="279" y="-76.44" font-family="Helvetica,sans-Serif" font-size="10.00">newton</text>
</a>
</g>
</g>
<!-- Node4&#45;&gt;Node12 -->
<g id="edge34" class="edge">
<title>Node4&#45;&gt;Node12</title>
<path fill="none" stroke="midnightblue" d="M515.62,-199.43C510.21,-197.01 504.79,-194.18 500,-190.94 480.98,-178.11 483.16,-166.57 464,-153.94 414.32,-121.19 393.86,-129 339,-105.94 325.92,-100.44 311.42,-93.82 300.07,-88.51"/>
<polygon fill="midnightblue" stroke="midnightblue" points="514.63,-202.8 525.21,-203.34 517.27,-196.32 514.63,-202.8"/>
</g>
<!-- Node13 -->
<g id="node13" class="node">
<title>Node13</title>
<g id="a_node13"><a xlink:href="group__grp__force__driver.html#ga8ccd6c7d901872702521d0a0edf95412" target="_top" xlink:title="Objective to be given to the Newton solver, using function values and derivatives.">
<polygon fill="white" stroke="black" points="29.5,-83.44 29.5,-102.44 64.5,-102.44 64.5,-83.44 29.5,-83.44"/>
<text text-anchor="middle" x="47" y="-90.44" font-family="Helvetica,sans-Serif" font-size="10.00">fcn2</text>
</a>
</g>
</g>
<!-- Node4&#45;&gt;Node13 -->
<g id="edge28" class="edge">
<title>Node4&#45;&gt;Node13</title>
<path fill="none" stroke="midnightblue" d="M516.03,-202.26C510.04,-199.53 504.28,-195.86 500,-190.94 457.53,-142.17 515.08,-89.62 464,-49.94 346.77,41.12 274.14,-14.44 130,-49.94 103.93,-56.36 76.98,-72.71 61.39,-83.29"/>
<polygon fill="midnightblue" stroke="midnightblue" points="514.89,-205.57 525.48,-205.81 517.35,-199.01 514.89,-205.57"/>
</g>
<!-- Node4&#45;&gt;Node15 -->
<g id="edge29" class="edge">
<title>Node4&#45;&gt;Node15</title>
<path fill="none" stroke="midnightblue" d="M522.31,-225.56C514.43,-231.52 506.14,-238.86 500,-246.94 475.18,-279.61 494.44,-304.44 464,-331.94 459.69,-335.84 454.59,-338.94 449.21,-341.4"/>
<polygon fill="midnightblue" stroke="midnightblue" points="524.48,-228.31 530.58,-219.64 520.41,-222.61 524.48,-228.31"/>
</g>
<!-- Node16 -->
<g id="node16" class="node">
<title>Node16</title>
<g id="a_node16"><a xlink:href="group__grp__output.html#ga7401b50ec10c6598ee4a8112717a63ec" target="_top" xlink:title="Computes eigenvalues and eigenvectors of derivative matrix, &#160;and saves them to .ext....">
<polygon fill="white" stroke="black" points="256.5,-135.44 256.5,-154.44 301.5,-154.44 301.5,-135.44 256.5,-135.44"/>
<text text-anchor="middle" x="279" y="-142.44" font-family="Helvetica,sans-Serif" font-size="10.00">hesian</text>
</a>
</g>
</g>
<!-- Node4&#45;&gt;Node16 -->
<g id="edge31" class="edge">
<title>Node4&#45;&gt;Node16</title>
<path fill="none" stroke="midnightblue" d="M515.18,-200.84C499.81,-196.46 480.98,-191.25 464,-186.94 405.56,-172.14 336.07,-156.92 301.61,-149.53"/>
<polygon fill="midnightblue" stroke="midnightblue" points="514.63,-204.32 525.21,-203.71 516.56,-197.59 514.63,-204.32"/>
</g>
<!-- Node17 -->
<g id="node17" class="node">
<title>Node17</title>
<g id="a_node17"><a xlink:href="group__grp__conjugate__gradient.html#ga4d8415226e62a9fdb42b0fd0b464251e" target="_top" xlink:title="Returns the energy functional and it&#39;s derivatives with respect to geometry.">
<polygon fill="white" stroke="black" points="377.5,-285.44 377.5,-304.44 425.5,-304.44 425.5,-285.44 377.5,-285.44"/>
<text text-anchor="middle" x="401.5" y="-292.44" font-family="Helvetica,sans-Serif" font-size="10.00">pc00ab</text>
</a>
</g>
</g>
<!-- Node4&#45;&gt;Node17 -->
<g id="edge35" class="edge">
<title>Node4&#45;&gt;Node17</title>
<path fill="none" stroke="midnightblue" d="M526.31,-225.97C518.13,-232.47 508.61,-240.05 500,-246.94 483.96,-259.79 482.14,-266.3 464,-275.94 451.96,-282.35 437.43,-286.96 425.52,-290.04"/>
<polygon fill="midnightblue" stroke="midnightblue" points="528.59,-228.62 534.25,-219.66 524.24,-223.14 528.59,-228.62"/>
</g>
<!-- Node6 -->
<g id="node6" class="node">
<title>Node6</title>
<g id="a_node6"><a xlink:href="xspech_8f90.html#a9fdc71dffd7c61ee4588a3f80d3ab9ce" target="_top" xlink:title="Main subroutine of SPEC.">
<polygon fill="white" stroke="black" points="255.5,-247.44 255.5,-266.44 302.5,-266.44 302.5,-247.44 255.5,-247.44"/>
<text text-anchor="middle" x="279" y="-254.44" font-family="Helvetica,sans-Serif" font-size="10.00">xspech</text>
</a>
</g>
</g>
<!-- Node5&#45;&gt;Node6 -->
<g id="edge5" class="edge">
<title>Node5&#45;&gt;Node6</title>
<path fill="none" stroke="midnightblue" d="M334.45,-256.94C323.06,-256.94 311.95,-256.94 302.77,-256.94"/>
<polygon fill="midnightblue" stroke="midnightblue" points="334.48,-260.44 344.48,-256.94 334.48,-253.44 334.48,-260.44"/>
</g>
<!-- Node6&#45;&gt;Node6 -->
<g id="edge14" class="edge">
<title>Node6&#45;&gt;Node6</title>
<path fill="none" stroke="midnightblue" d="M298.26,-276.34C296.97,-281.26 290.55,-284.94 279,-284.94 260.52,-284.94 255.17,-275.51 262.97,-266.7"/>
<polygon fill="midnightblue" stroke="midnightblue" points="301.52,-275.07 295.03,-266.7 294.89,-277.3 301.52,-275.07"/>
</g>
<!-- Node7 -->
<g id="node7" class="node">
<title>Node7</title>
<g id="a_node7"><a xlink:href="xspech_8f90.html#a1451823a7b97101a797de616250752c1" target="_top" xlink:title="Final diagnostics.">
<polygon fill="white" stroke="black" points="130,-238.44 130,-257.44 219,-257.44 219,-238.44 130,-238.44"/>
<text text-anchor="middle" x="174.5" y="-245.44" font-family="Helvetica,sans-Serif" font-size="10.00">final_diagnostics</text>
</a>
</g>
</g>
<!-- Node6&#45;&gt;Node7 -->
<g id="edge6" class="edge">
<title>Node6&#45;&gt;Node7</title>
<path fill="none" stroke="midnightblue" d="M245.24,-247.72C236.96,-246.62 227.94,-245.71 219.22,-245.1"/>
<polygon fill="midnightblue" stroke="midnightblue" points="244.84,-251.2 255.25,-249.23 245.88,-244.28 244.84,-251.2"/>
</g>
<!-- Node6&#45;&gt;Node8 -->
<g id="edge8" class="edge">
<title>Node6&#45;&gt;Node8</title>
<path fill="none" stroke="midnightblue" d="M262.04,-241.74C250.21,-234.51 233.65,-226.62 219,-219.94 210.75,-216.19 201.56,-212.15 193.76,-209.48"/>
<polygon fill="midnightblue" stroke="midnightblue" points="260.15,-244.69 270.4,-247.37 264.06,-238.88 260.15,-244.69"/>
</g>
<!-- Node10 -->
<g id="node10" class="node">
<title>Node10</title>
<g id="a_node10"><a xlink:href="xspech_8f90.html#a95271e8805067f801b5d4e524d6901d4" target="_top" xlink:title="Main program of SPEC.">
<polygon fill="white" stroke="black" points="142.5,-276.44 142.5,-295.44 206.5,-295.44 206.5,-276.44 142.5,-276.44"/>
<text text-anchor="middle" x="174.5" y="-283.44" font-family="Helvetica,sans-Serif" font-size="10.00">spec_main</text>
</a>
</g>
</g>
<!-- Node6&#45;&gt;Node10 -->
<g id="edge13" class="edge">
<title>Node6&#45;&gt;Node10</title>
<path fill="none" stroke="midnightblue" d="M245.34,-266.18C232.98,-269.68 218.96,-273.65 206.74,-277.11"/>
<polygon fill="midnightblue" stroke="midnightblue" points="246.58,-269.47 255.25,-263.38 244.68,-262.74 246.58,-269.47"/>
</g>
<!-- Node7&#45;&gt;Node6 -->
<g id="edge7" class="edge">
<title>Node7&#45;&gt;Node6</title>
<path fill="none" stroke="midnightblue" d="M220.94,-258.65C232.82,-259.85 245.13,-260.6 255.25,-260.67"/>
<polygon fill="midnightblue" stroke="midnightblue" points="221,-255.13 210.67,-257.48 220.21,-262.09 221,-255.13"/>
</g>
<!-- Node8&#45;&gt;Node4 -->
<g id="edge9" class="edge">
<title>Node8&#45;&gt;Node4</title>
<path fill="none" stroke="midnightblue" d="M203.68,-213.73C275.19,-217.83 462.5,-217.68 525.49,-213.28"/>
<polygon fill="midnightblue" stroke="midnightblue" points="203.82,-210.24 193.61,-213.07 203.36,-217.22 203.82,-210.24"/>
</g>
<!-- Node8&#45;&gt;Node6 -->
<g id="edge12" class="edge">
<title>Node8&#45;&gt;Node6</title>
<path fill="none" stroke="midnightblue" d="M191.51,-224.85C199.75,-229.36 209.94,-233.82 219,-237.94 231.07,-243.44 244.43,-249.76 255.38,-254.15"/>
<polygon fill="midnightblue" stroke="midnightblue" points="193.27,-221.82 182.92,-219.56 189.6,-227.78 193.27,-221.82"/>
</g>
<!-- Node9 -->
<g id="node9" class="node">
<title>Node9</title>
<g id="a_node9"><a xlink:href="group__grp__output.html#ga0f962c09cd5d5eba99f1cba043cb3898" target="_top" xlink:title="Initialize the interface to the HDF5 library and open the output file.">
<polygon fill="white" stroke="black" points="0,-257.44 0,-276.44 94,-276.44 94,-257.44 0,-257.44"/>
<text text-anchor="middle" x="47" y="-264.44" font-family="Helvetica,sans-Serif" font-size="10.00">sphdf5::init_outfile</text>
</a>
</g>
</g>
<!-- Node8&#45;&gt;Node9 -->
<g id="edge10" class="edge">
<title>Node8&#45;&gt;Node9</title>
<path fill="none" stroke="midnightblue" d="M146.02,-221.84C140.7,-224.17 135.17,-226.62 130,-228.94 108.97,-238.41 85.05,-249.53 68.5,-257.29"/>
<polygon fill="midnightblue" stroke="midnightblue" points="147.49,-225.01 155.26,-217.8 144.69,-218.6 147.49,-225.01"/>
</g>
<!-- Node9&#45;&gt;Node6 -->
<g id="edge11" class="edge">
<title>Node9&#45;&gt;Node6</title>
<path fill="none" stroke="midnightblue" d="M72.37,-281.66C88.18,-290.32 109.57,-300.44 130,-304.94 168.63,-313.46 181.73,-318.19 219,-304.94 240.4,-297.34 259.68,-278.29 270.02,-266.6"/>
<polygon fill="midnightblue" stroke="midnightblue" points="73.73,-278.4 63.3,-276.51 70.27,-284.49 73.73,-278.4"/>
</g>
<!-- Node11&#45;&gt;Node11 -->
<g id="edge17" class="edge">
<title>Node11&#45;&gt;Node11</title>
<path fill="none" stroke="midnightblue" d="M424.37,-86.08C424.68,-92.08 417.06,-96.94 401.5,-96.94 378.86,-96.94 373.03,-86.66 383.99,-77.54"/>
<polygon fill="midnightblue" stroke="midnightblue" points="427.29,-84.16 419.01,-77.54 421.36,-87.88 427.29,-84.16"/>
</g>
<!-- Node11&#45;&gt;Node12 -->
<g id="edge18" class="edge">
<title>Node11&#45;&gt;Node12</title>
<path fill="none" stroke="midnightblue" d="M373.51,-65.45C352.38,-65.76 323.31,-68.27 303.22,-71.56"/>
<polygon fill="midnightblue" stroke="midnightblue" points="373.73,-68.95 383.74,-65.49 373.76,-61.95 373.73,-68.95"/>
</g>
<!-- Node12&#45;&gt;Node8 -->
<g id="edge24" class="edge">
<title>Node12&#45;&gt;Node8</title>
<path fill="none" stroke="midnightblue" d="M263.9,-96.97C241.87,-125.12 200.06,-178.56 183.01,-200.34"/>
<polygon fill="midnightblue" stroke="midnightblue" points="266.89,-98.82 270.3,-88.79 261.38,-94.51 266.89,-98.82"/>
</g>
<!-- Node12&#45;&gt;Node11 -->
<g id="edge19" class="edge">
<title>Node12&#45;&gt;Node11</title>
<path fill="none" stroke="midnightblue" d="M313.52,-82.28C336.37,-81.54 365.66,-78.68 383.74,-75.18"/>
<polygon fill="midnightblue" stroke="midnightblue" points="313.15,-78.79 303.22,-82.47 313.28,-85.79 313.15,-78.79"/>
</g>
<!-- Node12&#45;&gt;Node12 -->
<g id="edge23" class="edge">
<title>Node12&#45;&gt;Node12</title>
<path fill="none" stroke="midnightblue" d="M298.26,-98.34C296.97,-103.26 290.55,-106.94 279,-106.94 260.52,-106.94 255.17,-97.51 262.97,-88.7"/>
<polygon fill="midnightblue" stroke="midnightblue" points="301.52,-97.07 295.03,-88.7 294.89,-99.3 301.52,-97.07"/>
</g>
<!-- Node12&#45;&gt;Node13 -->
<g id="edge20" class="edge">
<title>Node12&#45;&gt;Node13</title>
<path fill="none" stroke="midnightblue" d="M244.66,-76.04C236.3,-77.01 227.34,-78.19 219,-78.94 162.5,-84.06 95.12,-84.33 64.55,-87.87"/>
<polygon fill="midnightblue" stroke="midnightblue" points="245.25,-79.5 254.82,-74.97 244.51,-72.54 245.25,-79.5"/>
</g>
<!-- Node14 -->
<g id="node14" class="node">
<title>Node14</title>
<g id="a_node14"><a xlink:href="group__grp__output.html#ga382822b303cbf8c56d6f54dcb379caf2" target="_top" xlink:title="read or write force&#45;derivative matrix .ext.sp.DF">
<polygon fill="white" stroke="black" points="142,-59.44 142,-78.44 207,-78.44 207,-59.44 142,-59.44"/>
<text text-anchor="middle" x="174.5" y="-66.44" font-family="Helvetica,sans-Serif" font-size="10.00">writereadgf</text>
</a>
</g>
</g>
<!-- Node12&#45;&gt;Node14 -->
<g id="edge25" class="edge">
<title>Node12&#45;&gt;Node14</title>
<path fill="none" stroke="midnightblue" d="M244.89,-69.36C232.86,-67.64 219.29,-66.34 207.36,-65.75"/>
<polygon fill="midnightblue" stroke="midnightblue" points="244.57,-72.85 255,-70.96 245.67,-65.93 244.57,-72.85"/>
</g>
<!-- Node13&#45;&gt;Node12 -->
<g id="edge22" class="edge">
<title>Node13&#45;&gt;Node12</title>
<path fill="none" stroke="midnightblue" d="M74.51,-99.42C108.18,-102.23 168.02,-101.56 219,-96.94 234.89,-95.51 253.01,-92.54 264.93,-88.45"/>
<polygon fill="midnightblue" stroke="midnightblue" points="74.85,-95.94 64.55,-98.39 74.13,-102.9 74.85,-95.94"/>
</g>
<!-- Node13&#45;&gt;Node13 -->
<g id="edge21" class="edge">
<title>Node13&#45;&gt;Node13</title>
<path fill="none" stroke="midnightblue" d="M70.55,-109.48C71.46,-115.75 63.61,-120.94 47,-120.94 23.38,-120.94 17.47,-110.44 29.28,-101.26"/>
<polygon fill="midnightblue" stroke="midnightblue" points="73.36,-107.39 64.72,-101.26 67.65,-111.44 73.36,-107.39"/>
</g>
<!-- Node14&#45;&gt;Node12 -->
<g id="edge27" class="edge">
<title>Node14&#45;&gt;Node12</title>
<path fill="none" stroke="midnightblue" d="M217.42,-79.68C230.26,-81.22 243.91,-82.24 255,-82.44"/>
<polygon fill="midnightblue" stroke="midnightblue" points="217.74,-76.2 207.36,-78.35 216.82,-83.13 217.74,-76.2"/>
</g>
<!-- Node14&#45;&gt;Node13 -->
<g id="edge26" class="edge">
<title>Node14&#45;&gt;Node13</title>
<path fill="none" stroke="midnightblue" d="M131.96,-76.89C108.99,-81.28 81.73,-86.49 64.64,-89.76"/>
<polygon fill="midnightblue" stroke="midnightblue" points="132.67,-80.32 141.83,-75 131.35,-73.44 132.67,-80.32"/>
</g>
<!-- Node15&#45;&gt;Node3 -->
<g id="edge30" class="edge">
<title>Node15&#45;&gt;Node3</title>
<path fill="none" stroke="midnightblue" d="M472.25,-338.21C537.26,-316.62 609.7,-290.43 639.3,-275.63"/>
<polygon fill="midnightblue" stroke="midnightblue" points="471.12,-334.9 462.72,-341.36 473.31,-341.55 471.12,-334.9"/>
</g>
<!-- Node16&#45;&gt;Node8 -->
<g id="edge33" class="edge">
<title>Node16&#45;&gt;Node8</title>
<path fill="none" stroke="midnightblue" d="M254.21,-160.03C234.62,-172.45 207.44,-189.69 190.69,-200.31"/>
<polygon fill="midnightblue" stroke="midnightblue" points="256.31,-162.85 262.88,-154.54 252.56,-156.94 256.31,-162.85"/>
</g>
<!-- Node16&#45;&gt;Node16 -->
<g id="edge32" class="edge">
<title>Node16&#45;&gt;Node16</title>
<path fill="none" stroke="midnightblue" d="M298.26,-164.34C296.97,-169.26 290.55,-172.94 279,-172.94 260.52,-172.94 255.17,-163.51 262.97,-154.7"/>
<polygon fill="midnightblue" stroke="midnightblue" points="301.52,-163.07 295.03,-154.7 294.89,-165.3 301.52,-163.07"/>
</g>
<!-- Node17&#45;&gt;Node17 -->
<g id="edge38" class="edge">
<title>Node17&#45;&gt;Node17</title>
<path fill="none" stroke="midnightblue" d="M424.19,-313.97C422.96,-319.07 415.39,-322.94 401.5,-322.94 379.82,-322.94 373.55,-313.51 382.7,-304.7"/>
<polygon fill="midnightblue" stroke="midnightblue" points="427.4,-312.57 420.3,-304.7 420.94,-315.28 427.4,-312.57"/>
</g>
<!-- Node18 -->
<g id="node18" class="node">
<title>Node18</title>
<g id="a_node18"><a xlink:href="group__grp__conjugate__gradient.html#ga25a3bae2ff2ee0469b045de0d033398b" target="_top" xlink:title="Use preconditioned conjugate gradient method to find minimum of energy functional.">
<polygon fill="white" stroke="black" points="255,-303.44 255,-322.44 303,-322.44 303,-303.44 255,-303.44"/>
<text text-anchor="middle" x="279" y="-310.44" font-family="Helvetica,sans-Serif" font-size="10.00">pc00aa</text>
</a>
</g>
</g>
<!-- Node17&#45;&gt;Node18 -->
<g id="edge36" class="edge">
<title>Node17&#45;&gt;Node18</title>
<path fill="none" stroke="midnightblue" d="M367.16,-299.92C346.81,-302.96 321.31,-306.77 303.16,-309.48"/>
<polygon fill="midnightblue" stroke="midnightblue" points="367.89,-303.35 377.27,-298.41 366.86,-296.43 367.89,-303.35"/>
</g>
<!-- Node18&#45;&gt;Node18 -->
<g id="edge37" class="edge">
<title>Node18&#45;&gt;Node18</title>
<path fill="none" stroke="midnightblue" d="M298.26,-332.34C296.97,-337.26 290.55,-340.94 279,-340.94 260.52,-340.94 255.17,-331.51 262.97,-322.7"/>
<polygon fill="midnightblue" stroke="midnightblue" points="301.52,-331.07 295.03,-322.7 294.89,-333.3 301.52,-331.07"/>
</g>
<!-- Node19&#45;&gt;Node3 -->
<g id="edge42" class="edge">
<title>Node19&#45;&gt;Node3</title>
<path fill="none" stroke="midnightblue" d="M594.93,-272.66C607.42,-272.82 620.35,-272.46 630.84,-271.58"/>
<polygon fill="midnightblue" stroke="midnightblue" points="594.69,-269.15 584.61,-272.4 594.52,-276.15 594.69,-269.15"/>
</g>
<!-- Node20&#45;&gt;Node3 -->
<g id="edge44" class="edge">
<title>Node20&#45;&gt;Node3</title>
<path fill="none" stroke="midnightblue" d="M568.52,-185.56C577.26,-189.36 587.26,-193.79 595,-199.94 616.71,-217.22 613.59,-229.34 631,-250.94 632.42,-252.7 633.93,-254.5 635.47,-256.24"/>
<polygon fill="midnightblue" stroke="midnightblue" points="569.93,-182.35 559.37,-181.46 567.07,-188.74 569.93,-182.35"/>
</g>
<!-- Node21&#45;&gt;Node3 -->
<g id="edge53" class="edge">
<title>Node21&#45;&gt;Node3</title>
<path fill="none" stroke="midnightblue" d="M734.78,-240.37C727.5,-242.52 720.03,-244.77 713,-246.94 701.16,-250.61 688.03,-254.9 677.26,-258.47"/>
<polygon fill="midnightblue" stroke="midnightblue" points="735.93,-243.68 744.54,-237.5 733.96,-236.96 735.93,-243.68"/>
</g>
<!-- Node21&#45;&gt;Node20 -->
<g id="edge54" class="edge">
<title>Node21&#45;&gt;Node20</title>
<path fill="none" stroke="midnightblue" d="M702.77,-223.12C679.42,-220.32 653.83,-215.91 631,-208.94 613.89,-203.72 611.29,-198.33 595,-190.94 587.85,-187.7 579.98,-184.39 572.78,-181.46"/>
<polygon fill="midnightblue" stroke="midnightblue" points="702.65,-226.63 712.97,-224.25 703.42,-219.67 702.65,-226.63"/>
</g>
<!-- Node22 -->
<g id="node22" class="node">
<title>Node22</title>
<g id="a_node22"><a xlink:href="dfp100_8f90.html#a17a3ac15cc83994394f7b4cc05e5898e" target="_top" xlink:title="Split the work between MPI nodes and evaluate the global constraint.">
<polygon fill="white" stroke="black" points="631,-162.44 631,-181.44 677,-181.44 677,-162.44 631,-162.44"/>
<text text-anchor="middle" x="654" y="-169.44" font-family="Helvetica,sans-Serif" font-size="10.00">dfp100</text>
</a>
</g>
</g>
<!-- Node21&#45;&gt;Node22 -->
<g id="edge49" class="edge">
<title>Node21&#45;&gt;Node22</title>
<path fill="none" stroke="midnightblue" d="M728.79,-215.18C723.38,-213.3 718.02,-211.22 713,-208.94 696.47,-201.44 679.12,-189.8 667.75,-181.59"/>
<polygon fill="midnightblue" stroke="midnightblue" points="727.92,-218.58 738.51,-218.35 730.08,-211.92 727.92,-218.58"/>
</g>
<!-- Node22&#45;&gt;Node4 -->
<g id="edge50" class="edge">
<title>Node22&#45;&gt;Node4</title>
<path fill="none" stroke="midnightblue" d="M621.41,-183.43C604.62,-189.54 584.43,-196.88 569.56,-202.29"/>
<polygon fill="midnightblue" stroke="midnightblue" points="622.64,-186.71 630.84,-180 620.24,-180.13 622.64,-186.71"/>
</g>
<!-- Node22&#45;&gt;Node20 -->
<g id="edge52" class="edge">
<title>Node22&#45;&gt;Node20</title>
<path fill="none" stroke="midnightblue" d="M620.71,-171.94C612.62,-171.94 603.78,-171.94 595.14,-171.94"/>
<polygon fill="midnightblue" stroke="midnightblue" points="620.84,-175.44 630.84,-171.94 620.84,-168.44 620.84,-175.44"/>
</g>
<!-- Node22&#45;&gt;Node22 -->
<g id="edge51" class="edge">
<title>Node22&#45;&gt;Node22</title>
<path fill="none" stroke="midnightblue" d="M673.63,-191.34C672.32,-196.26 665.77,-199.94 654,-199.94 635.16,-199.94 629.71,-190.51 637.66,-181.7"/>
<polygon fill="midnightblue" stroke="midnightblue" points="676.88,-190.03 670.34,-181.7 670.26,-192.3 676.88,-190.03"/>
</g>
<!-- Node23&#45;&gt;Node3 -->
<g id="edge57" class="edge">
<title>Node23&#45;&gt;Node3</title>
<path fill="none" stroke="midnightblue" d="M724.58,-203.18C720.56,-204.89 716.65,-206.8 713,-208.94 691.57,-221.52 672.19,-243.74 662.17,-256.41"/>
<polygon fill="midnightblue" stroke="midnightblue" points="726.01,-206.38 734.11,-199.55 723.52,-199.84 726.01,-206.38"/>
</g>
<!-- Node23&#45;&gt;Node20 -->
<g id="edge58" class="edge">
<title>Node23&#45;&gt;Node20</title>
<path fill="none" stroke="midnightblue" d="M731.43,-177.44C725.17,-175.44 718.89,-173.26 713,-170.94 696.35,-164.41 694.41,-157.05 677,-152.94 641.88,-144.65 600.47,-154.15 574.34,-162.44"/>
<polygon fill="midnightblue" stroke="midnightblue" points="730.59,-180.84 741.17,-180.43 732.64,-174.15 730.59,-180.84"/>
</g>
<!-- Node23&#45;&gt;Node22 -->
<g id="edge56" class="edge">
<title>Node23&#45;&gt;Node22</title>
<path fill="none" stroke="midnightblue" d="M712.09,-180.3C699.43,-178.45 687.02,-176.63 677.03,-175.17"/>
<polygon fill="midnightblue" stroke="midnightblue" points="711.86,-183.8 722.26,-181.79 712.87,-176.88 711.86,-183.8"/>
</g>
<!-- Node25 -->
<g id="node25" class="node">
<title>Node25</title>
<g id="a_node25"><a xlink:href="mp00ac_8f90.html#a304edac43f63d39dda4419b4d044eac5" target="_top" xlink:title="run GMRES">
<polygon fill="white" stroke="black" points="968,-104.44 968,-123.44 1025,-123.44 1025,-104.44 968,-104.44"/>
<text text-anchor="middle" x="996.5" y="-111.44" font-family="Helvetica,sans-Serif" font-size="10.00">rungmres</text>
</a>
</g>
</g>
<!-- Node24&#45;&gt;Node25 -->
<g id="edge60" class="edge">
<title>Node24&#45;&gt;Node25</title>
<path fill="none" stroke="midnightblue" d="M1050.5,-113.94C1042.13,-113.94 1033.28,-113.94 1025.25,-113.94"/>
<polygon fill="midnightblue" stroke="midnightblue" points="1050.73,-117.44 1060.73,-113.94 1050.73,-110.44 1050.73,-117.44"/>
</g>
<!-- Node25&#45;&gt;Node26 -->
<g id="edge61" class="edge">
<title>Node25&#45;&gt;Node26</title>
<path fill="none" stroke="midnightblue" d="M957.74,-122.53C949.09,-124.49 940.12,-126.53 932.19,-128.33"/>
<polygon fill="midnightblue" stroke="midnightblue" points="958.68,-125.9 967.66,-120.27 957.13,-119.08 958.68,-125.9"/>
</g>
<!-- Node26&#45;&gt;Node26 -->
<g id="edge65" class="edge">
<title>Node26&#45;&gt;Node26</title>
<path fill="none" stroke="midnightblue" d="M923.17,-153.34C922.05,-158.26 916.5,-161.94 906.5,-161.94 890.5,-161.94 885.88,-152.51 892.63,-143.7"/>
<polygon fill="midnightblue" stroke="midnightblue" points="926.52,-152.33 920.37,-143.7 919.79,-154.28 926.52,-152.33"/>
</g>
<!-- Node27 -->
<g id="node27" class="node">
<title>Node27</title>
<g id="a_node27"><a xlink:href="group__grp__solver__driver.html#gacad623d4c5c006e9ad10116372f92ad3" target="_top" xlink:title="Constructs Beltrami field in given volume consistent with flux, helicity, rotational&#45;transform and/or...">
<polygon fill="white" stroke="black" points="753.5,-124.44 753.5,-143.44 804.5,-143.44 804.5,-124.44 753.5,-124.44"/>
<text text-anchor="middle" x="779" y="-131.44" font-family="Helvetica,sans-Serif" font-size="10.00">ma02aa</text>
</a>
</g>
</g>
<!-- Node26&#45;&gt;Node27 -->
<g id="edge62" class="edge">
<title>Node26&#45;&gt;Node27</title>
<path fill="none" stroke="midnightblue" d="M870.6,-133.94C849.67,-133.94 823.55,-133.94 804.74,-133.94"/>
<polygon fill="midnightblue" stroke="midnightblue" points="870.71,-137.44 880.71,-133.94 870.71,-130.44 870.71,-137.44"/>
</g>
<!-- Node27&#45;&gt;Node22 -->
<g id="edge63" class="edge">
<title>Node27&#45;&gt;Node22</title>
<path fill="none" stroke="midnightblue" d="M743.74,-144.53C722.41,-151.12 695.61,-159.4 677.08,-165.12"/>
<polygon fill="midnightblue" stroke="midnightblue" points="744.88,-147.84 753.4,-141.54 742.82,-141.15 744.88,-147.84"/>
</g>
<!-- Node27&#45;&gt;Node27 -->
<g id="edge64" class="edge">
<title>Node27&#45;&gt;Node27</title>
<path fill="none" stroke="midnightblue" d="M802.07,-152.97C800.81,-158.07 793.12,-161.94 779,-161.94 756.96,-161.94 750.59,-152.51 759.89,-143.7"/>
<polygon fill="midnightblue" stroke="midnightblue" points="805.25,-151.53 798.11,-143.7 798.81,-154.27 805.25,-151.53"/>
</g>
</g>
</svg>
