<?xml version="1.0" encoding="UTF-8" standalone="no"?>
<!DOCTYPE svg PUBLIC "-//W3C//DTD SVG 1.1//EN"
 "http://www.w3.org/Graphics/SVG/1.1/DTD/svg11.dtd">
<!-- Generated by graphviz version 2.49.0 (0)
 -->
<!-- Title: intghs_workspace_init Pages: 1 -->
<svg width="503pt" height="189pt"
 viewBox="0.00 0.00 503.00 189.00" xmlns="http://www.w3.org/2000/svg" xmlns:xlink="http://www.w3.org/1999/xlink">
<g id="graph0" class="graph" transform="scale(1 1) rotate(0) translate(4 185)">
<title>intghs_workspace_init</title>
<polygon fill="white" stroke="transparent" points="-4,4 -4,-185 499,-185 499,4 -4,4"/>
<!-- Node1 -->
<g id="node1" class="node">
<title>Node1</title>
<g id="a_node1"><a xlink:title="init workspace">
<polygon fill="#bfbfbf" stroke="black" points="0,-76.5 0,-95.5 113,-95.5 113,-76.5 0,-76.5"/>
<text text-anchor="middle" x="56.5" y="-83.5" font-family="Helvetica,sans-Serif" font-size="10.00">intghs_workspace_init</text>
</a>
</g>
</g>
<!-- Node2 -->
<g id="node2" class="node">
<title>Node2</title>
<g id="a_node2"><a xlink:href="intghs_8f90.html#a21d3b7106371783302e68297f7797e9f" target="_top" xlink:title="Calculates volume integrals of Chebyshev polynomials and covariant field products.">
<polygon fill="white" stroke="black" points="149,-76.5 149,-95.5 192,-95.5 192,-76.5 149,-76.5"/>
<text text-anchor="middle" x="170.5" y="-83.5" font-family="Helvetica,sans-Serif" font-size="10.00">intghs</text>
</a>
</g>
</g>
<!-- Node1&#45;&gt;Node2 -->
<g id="edge1" class="edge">
<title>Node1&#45;&gt;Node2</title>
<path fill="none" stroke="midnightblue" d="M113.17,-86C121.93,-86 130.7,-86 138.62,-86"/>
<polygon fill="midnightblue" stroke="midnightblue" points="138.81,-89.5 148.81,-86 138.81,-82.5 138.81,-89.5"/>
</g>
<!-- Node2&#45;&gt;Node2 -->
<g id="edge11" class="edge">
<title>Node2&#45;&gt;Node2</title>
<path fill="none" stroke="midnightblue" d="M153.85,-95.76C145.76,-104.57 151.3,-114 170.5,-114 182.5,-114 189.16,-110.31 190.5,-105.4"/>
<polygon fill="midnightblue" stroke="midnightblue" points="193.74,-104.05 187.15,-95.76 187.12,-106.35 193.74,-104.05"/>
</g>
<!-- Node3 -->
<g id="node3" class="node">
<title>Node3</title>
<g id="a_node3"><a xlink:href="metrix_8f90.html#a80c802cda076dd9e7031bc5f9098c175" target="_top" xlink:title="compute guvijsave">
<polygon fill="white" stroke="black" points="228,-114.5 228,-133.5 329,-133.5 329,-114.5 228,-114.5"/>
<text text-anchor="middle" x="278.5" y="-121.5" font-family="Helvetica,sans-Serif" font-size="10.00">compute_guvijsave</text>
</a>
</g>
</g>
<!-- Node2&#45;&gt;Node3 -->
<g id="edge2" class="edge">
<title>Node2&#45;&gt;Node3</title>
<path fill="none" stroke="midnightblue" d="M192.19,-93.42C206.06,-98.39 224.71,-105.07 241.03,-110.92"/>
<polygon fill="midnightblue" stroke="midnightblue" points="240.23,-114.36 250.83,-114.44 242.59,-107.77 240.23,-114.36"/>
</g>
<!-- Node5 -->
<g id="node5" class="node">
<title>Node5</title>
<g id="a_node5"><a xlink:href="group__grp__numerics.html#ga1fd52accb0646f535f9bcc46cf5a68f3" target="_top" xlink:title="Inverse Fourier transform (fftw wrapper)">
<polygon fill="white" stroke="black" points="452,-161.5 452,-180.5 490,-180.5 490,-161.5 452,-161.5"/>
<text text-anchor="middle" x="471" y="-168.5" font-family="Helvetica,sans-Serif" font-size="10.00">invfft</text>
</a>
</g>
</g>
<!-- Node2&#45;&gt;Node5 -->
<g id="edge12" class="edge">
<title>Node2&#45;&gt;Node5</title>
<path fill="none" stroke="midnightblue" d="M177.83,-95.63C187.09,-108.83 205.69,-132.16 228,-143 298.93,-177.48 394.93,-176.59 441.84,-173.56"/>
<polygon fill="midnightblue" stroke="midnightblue" points="442.16,-177.04 451.88,-172.82 441.65,-170.06 442.16,-177.04"/>
</g>
<!-- Node7 -->
<g id="node7" class="node">
<title>Node7</title>
<g id="a_node7"><a xlink:href="basefn_8f90.html#af6a4cad04c70bfb14fd18a3bfbc843a3" target="_top" xlink:title="Get the Chebyshev polynomials with zeroth, first derivatives.">
<polygon fill="white" stroke="black" points="248,-76.5 248,-95.5 309,-95.5 309,-76.5 248,-76.5"/>
<text text-anchor="middle" x="278.5" y="-83.5" font-family="Helvetica,sans-Serif" font-size="10.00">get_cheby</text>
</a>
</g>
</g>
<!-- Node2&#45;&gt;Node7 -->
<g id="edge9" class="edge">
<title>Node2&#45;&gt;Node7</title>
<path fill="none" stroke="midnightblue" d="M192.19,-86C205.02,-86 221.92,-86 237.3,-86"/>
<polygon fill="midnightblue" stroke="midnightblue" points="237.63,-89.5 247.63,-86 237.63,-82.5 237.63,-89.5"/>
</g>
<!-- Node8 -->
<g id="node8" class="node">
<title>Node8</title>
<g id="a_node8"><a xlink:href="basefn_8f90.html#a38dc596fb909186b01dacc1feac03164" target="_top" xlink:title="Get the Zernike polynomials &#160;with zeroth, first derivatives.">
<polygon fill="white" stroke="black" points="245.5,-38.5 245.5,-57.5 311.5,-57.5 311.5,-38.5 245.5,-38.5"/>
<text text-anchor="middle" x="278.5" y="-45.5" font-family="Helvetica,sans-Serif" font-size="10.00">get_zernike</text>
</a>
</g>
</g>
<!-- Node2&#45;&gt;Node8 -->
<g id="edge10" class="edge">
<title>Node2&#45;&gt;Node8</title>
<path fill="none" stroke="midnightblue" d="M192.19,-78.58C206.06,-73.61 224.71,-66.93 241.03,-61.08"/>
<polygon fill="midnightblue" stroke="midnightblue" points="242.59,-64.23 250.83,-57.56 240.23,-57.64 242.59,-64.23"/>
</g>
<!-- Node9 -->
<g id="node9" class="node">
<title>Node9</title>
<g id="a_node9"><a xlink:href="group__grp__numerics.html#ga041138109a57e651c57117bb4180409e" target="_top" xlink:title="Forward Fourier transform (fftw wrapper)">
<polygon fill="white" stroke="black" points="264,-0.5 264,-19.5 293,-19.5 293,-0.5 264,-0.5"/>
<text text-anchor="middle" x="278.5" y="-7.5" font-family="Helvetica,sans-Serif" font-size="10.00">tfft</text>
</a>
</g>
</g>
<!-- Node2&#45;&gt;Node9 -->
<g id="edge13" class="edge">
<title>Node2&#45;&gt;Node9</title>
<path fill="none" stroke="midnightblue" d="M178.93,-76.28C188.89,-63.82 207.7,-42.25 228,-29 235.98,-23.79 245.6,-19.69 254.22,-16.65"/>
<polygon fill="midnightblue" stroke="midnightblue" points="255.31,-19.98 263.74,-13.57 253.15,-13.32 255.31,-19.98"/>
</g>
<!-- Node4 -->
<g id="node4" class="node">
<title>Node4</title>
<g id="a_node4"><a xlink:href="group__grp__geometry.html#gaaca20aa60eaf39055f3c9d5c02a24ac2" target="_top" xlink:title="Calculates coordinates, , and metrics, using FFTs.">
<polygon fill="white" stroke="black" points="365,-105.5 365,-124.5 411,-124.5 411,-105.5 365,-105.5"/>
<text text-anchor="middle" x="388" y="-112.5" font-family="Helvetica,sans-Serif" font-size="10.00">coords</text>
</a>
</g>
</g>
<!-- Node3&#45;&gt;Node4 -->
<g id="edge3" class="edge">
<title>Node3&#45;&gt;Node4</title>
<path fill="none" stroke="midnightblue" d="M329.16,-119.84C337.88,-119.11 346.75,-118.37 354.83,-117.69"/>
<polygon fill="midnightblue" stroke="midnightblue" points="355.26,-121.17 364.93,-116.85 354.67,-114.19 355.26,-121.17"/>
</g>
<!-- Node4&#45;&gt;Node4 -->
<g id="edge4" class="edge">
<title>Node4&#45;&gt;Node4</title>
<path fill="none" stroke="midnightblue" d="M375.36,-124.76C369.21,-133.57 373.43,-143 388,-143 396.88,-143 401.91,-139.5 403.1,-134.77"/>
<polygon fill="midnightblue" stroke="midnightblue" points="406.43,-133.63 400.64,-124.76 399.63,-135.3 406.43,-133.63"/>
</g>
<!-- Node4&#45;&gt;Node5 -->
<g id="edge5" class="edge">
<title>Node4&#45;&gt;Node5</title>
<path fill="none" stroke="midnightblue" d="M403.11,-124.75C415.42,-133.27 433.5,-145.76 447.75,-155.62"/>
<polygon fill="midnightblue" stroke="midnightblue" points="445.84,-158.55 456.05,-161.36 449.82,-152.79 445.84,-158.55"/>
</g>
<!-- Node6 -->
<g id="node6" class="node">
<title>Node6</title>
<g id="a_node6"><a xlink:href="group__grp__volume.html#gae4c62d20b8fef07f4471b5b0889ab005" target="_top" xlink:title="Computes volume of each region; and, if required, the derivatives of the volume with respect to the i...">
<polygon fill="white" stroke="black" points="447,-105.5 447,-124.5 495,-124.5 495,-105.5 447,-105.5"/>
<text text-anchor="middle" x="471" y="-112.5" font-family="Helvetica,sans-Serif" font-size="10.00">volume</text>
</a>
</g>
</g>
<!-- Node4&#45;&gt;Node6 -->
<g id="edge6" class="edge">
<title>Node4&#45;&gt;Node6</title>
<path fill="none" stroke="midnightblue" d="M411.13,-108.91C418.99,-108.3 428.02,-108.12 436.61,-108.34"/>
<polygon fill="midnightblue" stroke="midnightblue" points="436.61,-111.85 446.76,-108.83 436.94,-104.85 436.61,-111.85"/>
</g>
<!-- Node6&#45;&gt;Node4 -->
<g id="edge7" class="edge">
<title>Node6&#45;&gt;Node4</title>
<path fill="none" stroke="midnightblue" d="M446.76,-121.17C438.8,-121.74 429.74,-121.89 421.19,-121.62"/>
<polygon fill="midnightblue" stroke="midnightblue" points="421.3,-118.12 411.13,-121.09 420.94,-125.11 421.3,-118.12"/>
</g>
<!-- Node6&#45;&gt;Node6 -->
<g id="edge8" class="edge">
<title>Node6&#45;&gt;Node6</title>
<path fill="none" stroke="midnightblue" d="M458.36,-124.76C452.21,-133.57 456.43,-143 471,-143 479.88,-143 484.91,-139.5 486.1,-134.77"/>
<polygon fill="midnightblue" stroke="midnightblue" points="489.43,-133.63 483.64,-124.76 482.63,-135.3 489.43,-133.63"/>
</g>
</g>
</svg>
