<?xml version="1.0" encoding="UTF-8" standalone="no"?>
<!DOCTYPE svg PUBLIC "-//W3C//DTD SVG 1.1//EN"
 "http://www.w3.org/Graphics/SVG/1.1/DTD/svg11.dtd">
<!-- Generated by graphviz version 2.47.1 (0)
 -->
<!-- Title: intghs Pages: 1 -->
<svg width="1173pt" height="294pt"
 viewBox="0.00 0.00 1173.00 294.00" xmlns="http://www.w3.org/2000/svg" xmlns:xlink="http://www.w3.org/1999/xlink">
<g id="graph0" class="graph" transform="scale(1 1) rotate(0) translate(4 290)">
<title>intghs</title>
<polygon fill="white" stroke="transparent" points="-4,4 -4,-290 1169,-290 1169,4 -4,4"/>
<!-- Node1 -->
<g id="node1" class="node">
<title>Node1</title>
<g id="a_node1"><a xlink:title="Calculates volume integrals of Chebyshev polynomials and covariant field products.">
<polygon fill="#bfbfbf" stroke="black" points="1122,-128.5 1122,-147.5 1165,-147.5 1165,-128.5 1122,-128.5"/>
<text text-anchor="middle" x="1143.5" y="-135.5" font-family="Helvetica,sans-Serif" font-size="10.00">intghs</text>
</a>
</g>
</g>
<!-- Node2 -->
<g id="node2" class="node">
<title>Node2</title>
<g id="a_node2"><a xlink:href="dfp200_8f90.html#a5e56f1f4b1e6df11a9cffa6237c37469" target="_top" xlink:title="This routine evaluates the value of the magnetic field once the interface is perturbed using matrix p...">
<polygon fill="white" stroke="black" points="697.5,-204.5 697.5,-223.5 812.5,-223.5 812.5,-204.5 697.5,-204.5"/>
<text text-anchor="middle" x="755" y="-211.5" font-family="Helvetica,sans-Serif" font-size="10.00">get_perturbed_solution</text>
</a>
</g>
</g>
<!-- Node1&#45;&gt;Node2 -->
<g id="edge1" class="edge">
<title>Node1&#45;&gt;Node2</title>
<path fill="none" stroke="midnightblue" d="M1119.5,-153.13C1109.57,-158.98 1097.59,-165.17 1086,-169 993.34,-199.57 879.45,-209.39 812.58,-212.53"/>
<polygon fill="midnightblue" stroke="midnightblue" points="1121.62,-155.93 1128.3,-147.71 1117.95,-149.97 1121.62,-155.93"/>
</g>
<!-- Node19 -->
<g id="node19" class="node">
<title>Node19</title>
<g id="a_node19"><a xlink:href="intghs_8f90.html#ae10091a51178071d12004da4952104d4" target="_top" xlink:title="free workspace">
<polygon fill="white" stroke="black" points="689,-128.5 689,-147.5 821,-147.5 821,-128.5 689,-128.5"/>
<text text-anchor="middle" x="755" y="-135.5" font-family="Helvetica,sans-Serif" font-size="10.00">intghs_workspace_destroy</text>
</a>
</g>
</g>
<!-- Node1&#45;&gt;Node19 -->
<g id="edge34" class="edge">
<title>Node1&#45;&gt;Node19</title>
<path fill="none" stroke="midnightblue" d="M1111.98,-138C1049.42,-138 905.44,-138 821,-138"/>
<polygon fill="midnightblue" stroke="midnightblue" points="1111.99,-141.5 1121.99,-138 1111.99,-134.5 1111.99,-141.5"/>
</g>
<!-- Node21 -->
<g id="node21" class="node">
<title>Node21</title>
<g id="a_node21"><a xlink:href="intghs_8f90.html#ae8299d4625cabd90eb1398fd2cd38089" target="_top" xlink:title="init workspace">
<polygon fill="white" stroke="black" points="698.5,-166.5 698.5,-185.5 811.5,-185.5 811.5,-166.5 698.5,-166.5"/>
<text text-anchor="middle" x="755" y="-173.5" font-family="Helvetica,sans-Serif" font-size="10.00">intghs_workspace_init</text>
</a>
</g>
</g>
<!-- Node1&#45;&gt;Node21 -->
<g id="edge40" class="edge">
<title>Node1&#45;&gt;Node21</title>
<path fill="none" stroke="midnightblue" d="M1112,-146.57C1103.63,-148.64 1094.51,-150.65 1086,-152 990.27,-167.23 877.35,-172.81 811.51,-174.84"/>
<polygon fill="midnightblue" stroke="midnightblue" points="1112.94,-149.94 1121.75,-144.04 1111.19,-143.16 1112.94,-149.94"/>
</g>
<!-- Node22 -->
<g id="node22" class="node">
<title>Node22</title>
<g id="a_node22"><a xlink:href="mp00ac_8f90.html#ae9fe335bb4916face9f9d19ce8c0f5d7" target="_top" xlink:title="compute a.x by either by coumputing it directly, or using a matrix free method">
<polygon fill="white" stroke="black" points="1037,-52.5 1037,-71.5 1086,-71.5 1086,-52.5 1037,-52.5"/>
<text text-anchor="middle" x="1061.5" y="-59.5" font-family="Helvetica,sans-Serif" font-size="10.00">matvec</text>
</a>
</g>
</g>
<!-- Node1&#45;&gt;Node22 -->
<g id="edge44" class="edge">
<title>Node1&#45;&gt;Node22</title>
<path fill="none" stroke="midnightblue" d="M1124.7,-121.09C1108.65,-105.84 1085.61,-83.96 1072.55,-71.55"/>
<polygon fill="midnightblue" stroke="midnightblue" points="1122.71,-124.02 1132.37,-128.37 1127.53,-118.95 1122.71,-124.02"/>
</g>
<!-- Node24 -->
<g id="node24" class="node">
<title>Node24</title>
<g id="a_node24"><a xlink:href="group__grp__solver.html#ga6626839aff500f060beb5bce2b90c447" target="_top" xlink:title="Solves Beltrami/vacuum (linear) system, given matrices.unpacking fluxes, helicity multiplier">
<polygon fill="white" stroke="black" points="857,-90.5 857,-109.5 908,-109.5 908,-90.5 857,-90.5"/>
<text text-anchor="middle" x="882.5" y="-97.5" font-family="Helvetica,sans-Serif" font-size="10.00">mp00ac</text>
</a>
</g>
</g>
<!-- Node1&#45;&gt;Node24 -->
<g id="edge49" class="edge">
<title>Node1&#45;&gt;Node24</title>
<path fill="none" stroke="midnightblue" d="M1112.16,-129.74C1103.74,-127.65 1094.55,-125.56 1086,-124 1022.44,-112.41 946.59,-105.15 908.27,-101.93"/>
<polygon fill="midnightblue" stroke="midnightblue" points="1111.41,-133.16 1121.97,-132.26 1113.15,-126.38 1111.41,-133.16"/>
</g>
<!-- Node3 -->
<g id="node3" class="node">
<title>Node3</title>
<g id="a_node3"><a xlink:href="dfp200_8f90.html#a55ea75395f8c71731451e1add3720c7e" target="_top" xlink:title="Given the field consistent with the constraints and the geometry, computes local quantites related to...">
<polygon fill="white" stroke="black" points="607,-204.5 607,-223.5 653,-223.5 653,-204.5 607,-204.5"/>
<text text-anchor="middle" x="630" y="-211.5" font-family="Helvetica,sans-Serif" font-size="10.00">dfp200</text>
</a>
</g>
</g>
<!-- Node2&#45;&gt;Node3 -->
<g id="edge2" class="edge">
<title>Node2&#45;&gt;Node3</title>
<path fill="none" stroke="midnightblue" d="M686.92,-207.27C674.74,-207.38 662.85,-207.85 653.19,-208.67"/>
<polygon fill="midnightblue" stroke="midnightblue" points="687.18,-210.77 697.18,-207.27 687.18,-203.77 687.18,-210.77"/>
</g>
<!-- Node3&#45;&gt;Node2 -->
<g id="edge33" class="edge">
<title>Node3&#45;&gt;Node2</title>
<path fill="none" stroke="midnightblue" d="M663.41,-220.03C673.79,-220.58 685.59,-220.82 697.18,-220.73"/>
<polygon fill="midnightblue" stroke="midnightblue" points="663.4,-216.52 653.19,-219.33 662.93,-223.5 663.4,-216.52"/>
</g>
<!-- Node4 -->
<g id="node4" class="node">
<title>Node4</title>
<g id="a_node4"><a xlink:href="group__grp__global__force.html#ga38c9d3c50bd043707fefa5137c9dbf44" target="_top" xlink:title="Calculates , where &#160;and , and .">
<polygon fill="white" stroke="black" points="501.5,-166.5 501.5,-185.5 545.5,-185.5 545.5,-166.5 501.5,-166.5"/>
<text text-anchor="middle" x="523.5" y="-173.5" font-family="Helvetica,sans-Serif" font-size="10.00">dforce</text>
</a>
</g>
</g>
<!-- Node3&#45;&gt;Node4 -->
<g id="edge3" class="edge">
<title>Node3&#45;&gt;Node4</title>
<path fill="none" stroke="midnightblue" d="M597.41,-202.51C580.62,-196.41 560.43,-189.07 545.56,-183.66"/>
<polygon fill="midnightblue" stroke="midnightblue" points="596.24,-205.81 606.84,-205.94 598.64,-199.23 596.24,-205.81"/>
</g>
<!-- Node13 -->
<g id="node13" class="node">
<title>Node13</title>
<g id="a_node13"><a xlink:href="dfp200_8f90.html#a6aca59cf350d7b1941f8389d50945a43" target="_top" xlink:title="get LU Beltrami matrices">
<polygon fill="white" stroke="black" points="315,-266.5 315,-285.5 440,-285.5 440,-266.5 315,-266.5"/>
<text text-anchor="middle" x="377.5" y="-273.5" font-family="Helvetica,sans-Serif" font-size="10.00">get_lu_beltrami_matrices</text>
</a>
</g>
</g>
<!-- Node3&#45;&gt;Node13 -->
<g id="edge32" class="edge">
<title>Node3&#45;&gt;Node13</title>
<path fill="none" stroke="midnightblue" d="M597.01,-216.4C588.6,-218.84 579.5,-221.66 571,-224 509.42,-240.92 435.4,-256.01 399.74,-266.43"/>
<polygon fill="midnightblue" stroke="midnightblue" points="598.14,-219.72 606.84,-213.68 596.27,-212.97 598.14,-219.72"/>
</g>
<!-- Node17 -->
<g id="node17" class="node">
<title>Node17</title>
<g id="a_node17"><a xlink:href="dfp200_8f90.html#a7b64c7392b45d0042d8bd7379c0761a5" target="_top" xlink:title="Evaluate the derivative of the square of the magnetic field modulus. Add spectral constraint derivati...">
<polygon fill="white" stroke="black" points="486.5,-204.5 486.5,-223.5 560.5,-223.5 560.5,-204.5 486.5,-204.5"/>
<text text-anchor="middle" x="523.5" y="-211.5" font-family="Helvetica,sans-Serif" font-size="10.00">evaluate_dbb</text>
</a>
</g>
</g>
<!-- Node3&#45;&gt;Node17 -->
<g id="edge28" class="edge">
<title>Node3&#45;&gt;Node17</title>
<path fill="none" stroke="midnightblue" d="M596.82,-207.71C585.36,-207.16 572.38,-207.1 560.61,-207.54"/>
<polygon fill="midnightblue" stroke="midnightblue" points="596.63,-211.21 606.84,-208.36 597.09,-204.22 596.63,-211.21"/>
</g>
<!-- Node18 -->
<g id="node18" class="node">
<title>Node18</title>
<g id="a_node18"><a xlink:href="dfp200_8f90.html#a73ddf39ecc5228201fb643779e17cd36" target="_top" xlink:title="Evaluate mu and psip derivatives and store them in dmupfdx.">
<polygon fill="white" stroke="black" points="476,-128.5 476,-147.5 571,-147.5 571,-128.5 476,-128.5"/>
<text text-anchor="middle" x="523.5" y="-135.5" font-family="Helvetica,sans-Serif" font-size="10.00">evaluate_dmupfdx</text>
</a>
</g>
</g>
<!-- Node3&#45;&gt;Node18 -->
<g id="edge30" class="edge">
<title>Node3&#45;&gt;Node18</title>
<path fill="none" stroke="midnightblue" d="M618.05,-196.02C604.29,-178.58 581.24,-154.74 571,-148 570.85,-147.9 570.71,-147.81 570.56,-147.71"/>
<polygon fill="midnightblue" stroke="midnightblue" points="615.52,-198.48 624.28,-204.43 621.14,-194.32 615.52,-198.48"/>
</g>
<!-- Node5 -->
<g id="node5" class="node">
<title>Node5</title>
<g id="a_node5"><a xlink:href="namespaceallglobal.html#a7824bc37519fe88336534ce90ab2af16" target="_top" xlink:title=" ">
<polygon fill="white" stroke="black" points="320.5,-228.5 320.5,-247.5 434.5,-247.5 434.5,-228.5 320.5,-228.5"/>
<text text-anchor="middle" x="377.5" y="-235.5" font-family="Helvetica,sans-Serif" font-size="10.00">allglobal::check_inputs</text>
</a>
</g>
</g>
<!-- Node4&#45;&gt;Node5 -->
<g id="edge4" class="edge">
<title>Node4&#45;&gt;Node5</title>
<path fill="none" stroke="midnightblue" d="M491.83,-187.51C486.47,-189.81 481.01,-192.34 476,-195 459.01,-204.02 457.37,-210.74 440,-219 432.33,-222.65 423.79,-225.8 415.58,-228.44"/>
<polygon fill="midnightblue" stroke="midnightblue" points="493.34,-190.68 501.26,-183.64 490.68,-184.2 493.34,-190.68"/>
</g>
<!-- Node7 -->
<g id="node7" class="node">
<title>Node7</title>
<g id="a_node7"><a xlink:href="xspech_8f90.html#a48f45478dc2c9f70ea8aa1c60ad06503" target="_top" xlink:title=" ">
<polygon fill="white" stroke="black" points="143.5,-161.5 143.5,-180.5 181.5,-180.5 181.5,-161.5 143.5,-161.5"/>
<text text-anchor="middle" x="162.5" y="-168.5" font-family="Helvetica,sans-Serif" font-size="10.00">spec</text>
</a>
</g>
</g>
<!-- Node4&#45;&gt;Node7 -->
<g id="edge27" class="edge">
<title>Node4&#45;&gt;Node7</title>
<path fill="none" stroke="midnightblue" d="M491.57,-166.29C438.06,-150.85 324.89,-124.3 231,-143 213.33,-146.52 194.5,-154.75 181.22,-161.38"/>
<polygon fill="midnightblue" stroke="midnightblue" points="490.88,-169.73 501.46,-169.21 492.86,-163.02 490.88,-169.73"/>
</g>
<!-- Node9 -->
<g id="node9" class="node">
<title>Node9</title>
<g id="a_node9"><a xlink:href="group__grp__force__driver.html#gabbc245b3884ee8d8d3e2a52f25149f78" target="_top" xlink:title="fcn1">
<polygon fill="white" stroke="black" points="360,-0.5 360,-19.5 395,-19.5 395,-0.5 360,-0.5"/>
<text text-anchor="middle" x="377.5" y="-7.5" font-family="Helvetica,sans-Serif" font-size="10.00">fcn1</text>
</a>
</g>
</g>
<!-- Node4&#45;&gt;Node9 -->
<g id="edge10" class="edge">
<title>Node4&#45;&gt;Node9</title>
<path fill="none" stroke="midnightblue" d="M491.42,-167.86C485.68,-165.18 480.19,-161.65 476,-157 437.85,-114.7 478.48,-76 440,-34 428.31,-21.24 409.01,-15.18 395.15,-12.36"/>
<polygon fill="midnightblue" stroke="midnightblue" points="490.53,-171.27 501.12,-171.61 493.06,-164.74 490.53,-171.27"/>
</g>
<!-- Node10 -->
<g id="node10" class="node">
<title>Node10</title>
<g id="a_node10"><a xlink:href="group__grp__force__driver.html#gaec14f81fbdbedafbc4189489ec8ae178" target="_top" xlink:title="Employs Newton method to find , where &#160;and &#160;is defined in dforce() .">
<polygon fill="white" stroke="black" points="231,-19.5 231,-38.5 279,-38.5 279,-19.5 231,-19.5"/>
<text text-anchor="middle" x="255" y="-26.5" font-family="Helvetica,sans-Serif" font-size="10.00">newton</text>
</a>
</g>
</g>
<!-- Node4&#45;&gt;Node10 -->
<g id="edge24" class="edge">
<title>Node4&#45;&gt;Node10</title>
<path fill="none" stroke="midnightblue" d="M491.52,-167.33C485.86,-164.7 480.37,-161.32 476,-157 446.81,-128.18 471.38,-98.43 440,-72 393.33,-32.7 317.34,-27.81 279.28,-28.07"/>
<polygon fill="midnightblue" stroke="midnightblue" points="490.45,-170.67 501.04,-171.09 493.02,-164.16 490.45,-170.67"/>
</g>
<!-- Node11 -->
<g id="node11" class="node">
<title>Node11</title>
<g id="a_node11"><a xlink:href="group__grp__force__driver.html#ga8ccd6c7d901872702521d0a0edf95412" target="_top" xlink:title="fcn2">
<polygon fill="white" stroke="black" points="29.5,-15.5 29.5,-34.5 64.5,-34.5 64.5,-15.5 29.5,-15.5"/>
<text text-anchor="middle" x="47" y="-22.5" font-family="Helvetica,sans-Serif" font-size="10.00">fcn2</text>
</a>
</g>
</g>
<!-- Node4&#45;&gt;Node11 -->
<g id="edge19" class="edge">
<title>Node4&#45;&gt;Node11</title>
<path fill="none" stroke="midnightblue" d="M491.79,-164.57C486.43,-162.26 480.98,-159.7 476,-157 458.88,-147.7 457.89,-139.71 440,-132 310.72,-76.3 262.71,-113.95 130,-67 105.72,-58.41 79.55,-44.01 63.47,-34.51"/>
<polygon fill="midnightblue" stroke="midnightblue" points="490.64,-167.88 501.22,-168.44 493.29,-161.4 490.64,-167.88"/>
</g>
<!-- Node4&#45;&gt;Node13 -->
<g id="edge20" class="edge">
<title>Node4&#45;&gt;Node13</title>
<path fill="none" stroke="midnightblue" d="M491.93,-185.12C486.24,-187.71 480.64,-190.96 476,-195 451.97,-215.92 464.93,-237.16 440,-257 435.1,-260.9 429.41,-264 423.49,-266.47"/>
<polygon fill="midnightblue" stroke="midnightblue" points="493.43,-188.29 501.44,-181.34 490.85,-181.78 493.43,-188.29"/>
</g>
<!-- Node14 -->
<g id="node14" class="node">
<title>Node14</title>
<g id="a_node14"><a xlink:href="group__grp__diagnostics.html#ga7401b50ec10c6598ee4a8112717a63ec" target="_top" xlink:title="Computes eigenvalues and eigenvectors of derivative matrix, .">
<polygon fill="white" stroke="black" points="232.5,-152.5 232.5,-171.5 277.5,-171.5 277.5,-152.5 232.5,-152.5"/>
<text text-anchor="middle" x="255" y="-159.5" font-family="Helvetica,sans-Serif" font-size="10.00">hesian</text>
</a>
</g>
</g>
<!-- Node4&#45;&gt;Node14 -->
<g id="edge22" class="edge">
<title>Node4&#45;&gt;Node14</title>
<path fill="none" stroke="midnightblue" d="M490.98,-174.34C436.24,-171.47 324.93,-165.62 277.83,-163.15"/>
<polygon fill="midnightblue" stroke="midnightblue" points="490.97,-177.85 501.14,-174.88 491.34,-170.86 490.97,-177.85"/>
</g>
<!-- Node15 -->
<g id="node15" class="node">
<title>Node15</title>
<g id="a_node15"><a xlink:href="group__grp__conjugate__gradient.html#ga4d8415226e62a9fdb42b0fd0b464251e" target="_top" xlink:title="Returns the energy functional and it&#39;s derivatives with respect to geometry.">
<polygon fill="white" stroke="black" points="353.5,-190.5 353.5,-209.5 401.5,-209.5 401.5,-190.5 353.5,-190.5"/>
<text text-anchor="middle" x="377.5" y="-197.5" font-family="Helvetica,sans-Serif" font-size="10.00">pc00ab</text>
</a>
</g>
</g>
<!-- Node4&#45;&gt;Node15 -->
<g id="edge25" class="edge">
<title>Node4&#45;&gt;Node15</title>
<path fill="none" stroke="midnightblue" d="M491.19,-181.22C464.26,-185.71 426.03,-192.08 401.75,-196.13"/>
<polygon fill="midnightblue" stroke="midnightblue" points="491.96,-184.64 501.25,-179.54 490.81,-177.73 491.96,-184.64"/>
</g>
<!-- Node6 -->
<g id="node6" class="node">
<title>Node6</title>
<g id="a_node6"><a xlink:href="xspech_8f90.html#aea782eae089760a491c2c54f9903abcc" target="_top" xlink:title="Main program of SPEC.">
<polygon fill="white" stroke="black" points="231.5,-228.5 231.5,-247.5 278.5,-247.5 278.5,-228.5 231.5,-228.5"/>
<text text-anchor="middle" x="255" y="-235.5" font-family="Helvetica,sans-Serif" font-size="10.00">xspech</text>
</a>
</g>
</g>
<!-- Node5&#45;&gt;Node6 -->
<g id="edge5" class="edge">
<title>Node5&#45;&gt;Node6</title>
<path fill="none" stroke="midnightblue" d="M310.45,-238C299.06,-238 287.95,-238 278.77,-238"/>
<polygon fill="midnightblue" stroke="midnightblue" points="310.48,-241.5 320.48,-238 310.48,-234.5 310.48,-241.5"/>
</g>
<!-- Node6&#45;&gt;Node7 -->
<g id="edge6" class="edge">
<title>Node6&#45;&gt;Node7</title>
<path fill="none" stroke="midnightblue" d="M238.53,-221.32C222.8,-207.75 198.41,-189.59 181.74,-178.96"/>
<polygon fill="midnightblue" stroke="midnightblue" points="236.51,-224.21 246.28,-228.31 241.2,-219.01 236.51,-224.21"/>
</g>
<!-- Node7&#45;&gt;Node6 -->
<g id="edge9" class="edge">
<title>Node7&#45;&gt;Node6</title>
<path fill="none" stroke="midnightblue" d="M178.77,-187.51C193.66,-200.37 216.42,-217.42 233.01,-228.26"/>
<polygon fill="midnightblue" stroke="midnightblue" points="180.79,-184.62 171.02,-180.51 176.09,-189.81 180.79,-184.62"/>
</g>
<!-- Node8 -->
<g id="node8" class="node">
<title>Node8</title>
<g id="a_node8"><a xlink:href="namespacesphdf5.html#a0f962c09cd5d5eba99f1cba043cb3898" target="_top" xlink:title="initialize the interface to the HDF5 library and open the output file">
<polygon fill="white" stroke="black" points="0,-180.5 0,-199.5 94,-199.5 94,-180.5 0,-180.5"/>
<text text-anchor="middle" x="47" y="-187.5" font-family="Helvetica,sans-Serif" font-size="10.00">sphdf5::init_outfile</text>
</a>
</g>
</g>
<!-- Node7&#45;&gt;Node8 -->
<g id="edge7" class="edge">
<title>Node7&#45;&gt;Node8</title>
<path fill="none" stroke="midnightblue" d="M133.13,-175.75C121.33,-177.72 107.32,-180.07 94.11,-182.28"/>
<polygon fill="midnightblue" stroke="midnightblue" points="133.98,-179.16 143.26,-174.05 132.82,-172.25 133.98,-179.16"/>
</g>
<!-- Node8&#45;&gt;Node6 -->
<g id="edge8" class="edge">
<title>Node8&#45;&gt;Node6</title>
<path fill="none" stroke="midnightblue" d="M98.89,-201.86C141.21,-211.72 199.45,-225.29 231.17,-232.68"/>
<polygon fill="midnightblue" stroke="midnightblue" points="99.58,-198.42 89.04,-199.56 97.99,-205.24 99.58,-198.42"/>
</g>
<!-- Node9&#45;&gt;Node10 -->
<g id="edge11" class="edge">
<title>Node9&#45;&gt;Node10</title>
<path fill="none" stroke="midnightblue" d="M349.51,-8.52C328.38,-10.41 299.31,-15.09 279.22,-19.88"/>
<polygon fill="midnightblue" stroke="midnightblue" points="350.02,-11.99 359.74,-7.8 349.52,-5.01 350.02,-11.99"/>
</g>
<!-- Node10&#45;&gt;Node7 -->
<g id="edge15" class="edge">
<title>Node10&#45;&gt;Node7</title>
<path fill="none" stroke="midnightblue" d="M242.18,-47.55C222.75,-78.04 184.73,-137.69 169.76,-161.17"/>
<polygon fill="midnightblue" stroke="midnightblue" points="245.36,-49.07 247.78,-38.76 239.45,-45.31 245.36,-49.07"/>
</g>
<!-- Node10&#45;&gt;Node9 -->
<g id="edge12" class="edge">
<title>Node10&#45;&gt;Node9</title>
<path fill="none" stroke="midnightblue" d="M289.21,-29.87C312.11,-27.43 341.58,-22.36 359.74,-17.49"/>
<polygon fill="midnightblue" stroke="midnightblue" points="288.85,-26.39 279.22,-30.8 289.5,-33.36 288.85,-26.39"/>
</g>
<!-- Node10&#45;&gt;Node11 -->
<g id="edge13" class="edge">
<title>Node10&#45;&gt;Node11</title>
<path fill="none" stroke="midnightblue" d="M220.71,-23.23C176.07,-19.84 98.52,-18.75 64.64,-21.43"/>
<polygon fill="midnightblue" stroke="midnightblue" points="220.51,-26.72 230.77,-24.09 221.1,-19.75 220.51,-26.72"/>
</g>
<!-- Node12 -->
<g id="node12" class="node">
<title>Node12</title>
<g id="a_node12"><a xlink:href="group__grp__force__driver.html#ga382822b303cbf8c56d6f54dcb379caf2" target="_top" xlink:title="read or write force&#45;derivative matrix">
<polygon fill="white" stroke="black" points="130,-38.5 130,-57.5 195,-57.5 195,-38.5 130,-38.5"/>
<text text-anchor="middle" x="162.5" y="-45.5" font-family="Helvetica,sans-Serif" font-size="10.00">writereadgf</text>
</a>
</g>
</g>
<!-- Node10&#45;&gt;Node12 -->
<g id="edge16" class="edge">
<title>Node10&#45;&gt;Node12</title>
<path fill="none" stroke="midnightblue" d="M220.67,-29.46C207.67,-31.72 193.27,-35.06 182.17,-38.5"/>
<polygon fill="midnightblue" stroke="midnightblue" points="221.35,-32.9 230.69,-27.9 220.28,-25.98 221.35,-32.9"/>
</g>
<!-- Node11&#45;&gt;Node10 -->
<g id="edge14" class="edge">
<title>Node11&#45;&gt;Node10</title>
<path fill="none" stroke="midnightblue" d="M74.62,-30.23C115.3,-33.82 192.23,-35.23 230.77,-33.01"/>
<polygon fill="midnightblue" stroke="midnightblue" points="74.95,-26.74 64.64,-29.21 74.24,-33.71 74.95,-26.74"/>
</g>
<!-- Node12&#45;&gt;Node10 -->
<g id="edge18" class="edge">
<title>Node12&#45;&gt;Node10</title>
<path fill="none" stroke="midnightblue" d="M205.04,-46.01C215.61,-43.9 226.46,-41.25 235.25,-38.53"/>
<polygon fill="midnightblue" stroke="midnightblue" points="204.26,-42.59 195.06,-47.84 205.52,-49.48 204.26,-42.59"/>
</g>
<!-- Node12&#45;&gt;Node11 -->
<g id="edge17" class="edge">
<title>Node12&#45;&gt;Node11</title>
<path fill="none" stroke="midnightblue" d="M119.88,-39.57C100.78,-35.7 79.22,-31.33 64.73,-28.39"/>
<polygon fill="midnightblue" stroke="midnightblue" points="119.39,-43.04 129.88,-41.59 120.78,-36.18 119.39,-43.04"/>
</g>
<!-- Node13&#45;&gt;Node3 -->
<g id="edge21" class="edge">
<title>Node13&#45;&gt;Node3</title>
<path fill="none" stroke="midnightblue" d="M450.45,-269.74C486.79,-262.97 531.46,-252.86 571,-242 588.57,-237.17 608.71,-230.25 620.04,-223.51"/>
<polygon fill="midnightblue" stroke="midnightblue" points="449.64,-266.32 440.43,-271.55 450.89,-273.21 449.64,-266.32"/>
</g>
<!-- Node14&#45;&gt;Node7 -->
<g id="edge23" class="edge">
<title>Node14&#45;&gt;Node7</title>
<path fill="none" stroke="midnightblue" d="M222.13,-165.17C208.52,-166.52 193.15,-168.05 181.56,-169.2"/>
<polygon fill="midnightblue" stroke="midnightblue" points="222.49,-168.65 232.09,-164.18 221.8,-161.69 222.49,-168.65"/>
</g>
<!-- Node16 -->
<g id="node16" class="node">
<title>Node16</title>
<g id="a_node16"><a xlink:href="group__grp__conjugate__gradient.html#ga25a3bae2ff2ee0469b045de0d033398b" target="_top" xlink:title="Use preconditioned conjugate gradient method to find minimum of energy functional.">
<polygon fill="white" stroke="black" points="231,-190.5 231,-209.5 279,-209.5 279,-190.5 231,-190.5"/>
<text text-anchor="middle" x="255" y="-197.5" font-family="Helvetica,sans-Serif" font-size="10.00">pc00aa</text>
</a>
</g>
</g>
<!-- Node15&#45;&gt;Node16 -->
<g id="edge26" class="edge">
<title>Node15&#45;&gt;Node16</title>
<path fill="none" stroke="midnightblue" d="M343.16,-200C322.81,-200 297.31,-200 279.16,-200"/>
<polygon fill="midnightblue" stroke="midnightblue" points="343.27,-203.5 353.27,-200 343.27,-196.5 343.27,-203.5"/>
</g>
<!-- Node17&#45;&gt;Node3 -->
<g id="edge29" class="edge">
<title>Node17&#45;&gt;Node3</title>
<path fill="none" stroke="midnightblue" d="M570.93,-220.71C583.42,-220.87 596.35,-220.51 606.84,-219.64"/>
<polygon fill="midnightblue" stroke="midnightblue" points="570.69,-217.21 560.61,-220.46 570.52,-224.2 570.69,-217.21"/>
</g>
<!-- Node18&#45;&gt;Node3 -->
<g id="edge31" class="edge">
<title>Node18&#45;&gt;Node3</title>
<path fill="none" stroke="midnightblue" d="M543.37,-151.98C552.17,-155.99 562.53,-160.42 571,-166 580.2,-172.06 599.72,-191.9 613.57,-204.44"/>
<polygon fill="midnightblue" stroke="midnightblue" points="544.82,-148.79 534.3,-147.58 541.77,-155.09 544.82,-148.79"/>
</g>
<!-- Node19&#45;&gt;Node3 -->
<g id="edge38" class="edge">
<title>Node19&#45;&gt;Node3</title>
<path fill="none" stroke="midnightblue" d="M700.58,-151.23C696.56,-152.94 692.65,-154.86 689,-157 667.57,-169.57 648.19,-191.8 638.17,-204.46"/>
<polygon fill="midnightblue" stroke="midnightblue" points="702.01,-154.44 710.11,-147.61 699.52,-147.89 702.01,-154.44"/>
</g>
<!-- Node19&#45;&gt;Node18 -->
<g id="edge39" class="edge">
<title>Node19&#45;&gt;Node18</title>
<path fill="none" stroke="midnightblue" d="M708.25,-126.36C679.26,-120.4 640.96,-115.14 607,-119 590.64,-120.86 572.81,-124.73 557.92,-128.49"/>
<polygon fill="midnightblue" stroke="midnightblue" points="707.58,-129.79 718.09,-128.48 709.05,-122.95 707.58,-129.79"/>
</g>
<!-- Node20 -->
<g id="node20" class="node">
<title>Node20</title>
<g id="a_node20"><a xlink:href="dfp100_8f90.html#a17a3ac15cc83994394f7b4cc05e5898e" target="_top" xlink:title="Split the work between MPI nodes and evaluate the global constraint.">
<polygon fill="white" stroke="black" points="607,-128.5 607,-147.5 653,-147.5 653,-128.5 607,-128.5"/>
<text text-anchor="middle" x="630" y="-135.5" font-family="Helvetica,sans-Serif" font-size="10.00">dfp100</text>
</a>
</g>
</g>
<!-- Node19&#45;&gt;Node20 -->
<g id="edge35" class="edge">
<title>Node19&#45;&gt;Node20</title>
<path fill="none" stroke="midnightblue" d="M678.7,-138C669.42,-138 660.59,-138 653.1,-138"/>
<polygon fill="midnightblue" stroke="midnightblue" points="678.9,-141.5 688.9,-138 678.9,-134.5 678.9,-141.5"/>
</g>
<!-- Node20&#45;&gt;Node4 -->
<g id="edge36" class="edge">
<title>Node20&#45;&gt;Node4</title>
<path fill="none" stroke="midnightblue" d="M597.41,-149.49C580.62,-155.59 560.43,-162.93 545.56,-168.34"/>
<polygon fill="midnightblue" stroke="midnightblue" points="598.64,-152.77 606.84,-146.06 596.24,-146.19 598.64,-152.77"/>
</g>
<!-- Node20&#45;&gt;Node18 -->
<g id="edge37" class="edge">
<title>Node20&#45;&gt;Node18</title>
<path fill="none" stroke="midnightblue" d="M596.71,-138C588.62,-138 579.78,-138 571.14,-138"/>
<polygon fill="midnightblue" stroke="midnightblue" points="596.84,-141.5 606.84,-138 596.84,-134.5 596.84,-141.5"/>
</g>
<!-- Node21&#45;&gt;Node3 -->
<g id="edge42" class="edge">
<title>Node21&#45;&gt;Node3</title>
<path fill="none" stroke="midnightblue" d="M710.78,-188.42C703.5,-190.58 696.03,-192.82 689,-195 677.16,-198.67 664.03,-202.95 653.26,-206.52"/>
<polygon fill="midnightblue" stroke="midnightblue" points="711.93,-191.73 720.54,-185.56 709.96,-185.02 711.93,-191.73"/>
</g>
<!-- Node21&#45;&gt;Node18 -->
<g id="edge43" class="edge">
<title>Node21&#45;&gt;Node18</title>
<path fill="none" stroke="midnightblue" d="M688.38,-168.91C662.89,-165.79 633.5,-161.75 607,-157 592.39,-154.38 576.46,-150.87 562.54,-147.58"/>
<polygon fill="midnightblue" stroke="midnightblue" points="687.96,-172.39 698.31,-170.1 688.8,-165.44 687.96,-172.39"/>
</g>
<!-- Node21&#45;&gt;Node20 -->
<g id="edge41" class="edge">
<title>Node21&#45;&gt;Node20</title>
<path fill="none" stroke="midnightblue" d="M710.78,-163.58C703.5,-161.42 696.03,-159.18 689,-157 677.16,-153.33 664.03,-149.05 653.26,-145.48"/>
<polygon fill="midnightblue" stroke="midnightblue" points="709.96,-166.98 720.54,-166.44 711.93,-160.27 709.96,-166.98"/>
</g>
<!-- Node23 -->
<g id="node23" class="node">
<title>Node23</title>
<g id="a_node23"><a xlink:href="mp00ac_8f90.html#a304edac43f63d39dda4419b4d044eac5" target="_top" xlink:title="run GMRES">
<polygon fill="white" stroke="black" points="944,-52.5 944,-71.5 1001,-71.5 1001,-52.5 944,-52.5"/>
<text text-anchor="middle" x="972.5" y="-59.5" font-family="Helvetica,sans-Serif" font-size="10.00">rungmres</text>
</a>
</g>
</g>
<!-- Node22&#45;&gt;Node23 -->
<g id="edge45" class="edge">
<title>Node22&#45;&gt;Node23</title>
<path fill="none" stroke="midnightblue" d="M1026.5,-62C1018.13,-62 1009.28,-62 1001.25,-62"/>
<polygon fill="midnightblue" stroke="midnightblue" points="1026.73,-65.5 1036.73,-62 1026.73,-58.5 1026.73,-65.5"/>
</g>
<!-- Node23&#45;&gt;Node24 -->
<g id="edge46" class="edge">
<title>Node23&#45;&gt;Node24</title>
<path fill="none" stroke="midnightblue" d="M940.1,-75.56C928.72,-80.47 916.12,-85.91 905.7,-90.41"/>
<polygon fill="midnightblue" stroke="midnightblue" points="941.5,-78.77 949.29,-71.59 938.73,-72.34 941.5,-78.77"/>
</g>
<!-- Node25 -->
<g id="node25" class="node">
<title>Node25</title>
<g id="a_node25"><a xlink:href="group__grp__solver__driver.html#gacad623d4c5c006e9ad10116372f92ad3" target="_top" xlink:title="Constructs Beltrami field in given volume consistent with flux, helicity, rotational&#45;transform and/or...">
<polygon fill="white" stroke="black" points="729.5,-90.5 729.5,-109.5 780.5,-109.5 780.5,-90.5 729.5,-90.5"/>
<text text-anchor="middle" x="755" y="-97.5" font-family="Helvetica,sans-Serif" font-size="10.00">ma02aa</text>
</a>
</g>
</g>
<!-- Node24&#45;&gt;Node25 -->
<g id="edge47" class="edge">
<title>Node24&#45;&gt;Node25</title>
<path fill="none" stroke="midnightblue" d="M846.6,-100C825.67,-100 799.55,-100 780.74,-100"/>
<polygon fill="midnightblue" stroke="midnightblue" points="846.71,-103.5 856.71,-100 846.71,-96.5 846.71,-103.5"/>
</g>
<!-- Node25&#45;&gt;Node20 -->
<g id="edge48" class="edge">
<title>Node25&#45;&gt;Node20</title>
<path fill="none" stroke="midnightblue" d="M719.39,-109.89C709.55,-112.77 698.84,-115.95 689,-119 677.16,-122.67 664.03,-126.95 653.26,-130.52"/>
<polygon fill="midnightblue" stroke="midnightblue" points="720.62,-113.18 729.25,-107.03 718.67,-106.46 720.62,-113.18"/>
</g>
</g>
</svg>
