<?xml version="1.0" encoding="UTF-8" standalone="no"?>
<!DOCTYPE svg PUBLIC "-//W3C//DTD SVG 1.1//EN"
 "http://www.w3.org/Graphics/SVG/1.1/DTD/svg11.dtd">
<!-- Generated by graphviz version 3.0.0 (20220413.0106)
 -->
<!-- Title: intghs Pages: 1 -->
<svg width="354pt" height="122pt"
 viewBox="0.00 0.00 354.00 122.00" xmlns="http://www.w3.org/2000/svg" xmlns:xlink="http://www.w3.org/1999/xlink">
<g id="graph0" class="graph" transform="scale(1 1) rotate(0) translate(4 118)">
<title>intghs</title>
<polygon fill="white" stroke="transparent" points="-4,4 -4,-118 350,-118 350,4 -4,4"/>
<!-- Node1 -->
<g id="node1" class="node">
<title>Node1</title>
<g id="a_node1"><a xlink:title="Calculates volume integrals of Chebyshev polynomials and covariant field products.">
<polygon fill="#bfbfbf" stroke="black" points="0,-38.5 0,-57.5 43,-57.5 43,-38.5 0,-38.5"/>
<text text-anchor="middle" x="21.5" y="-45.5" font-family="Helvetica,sans-Serif" font-size="10.00">intghs</text>
</a>
</g>
</g>
<!-- Node1&#45;&gt;Node1 -->
<g id="edge9" class="edge">
<title>Node1&#45;&gt;Node1</title>
<path fill="none" stroke="midnightblue" d="M4.85,-57.76C-3.24,-66.57 2.3,-76 21.5,-76 33.5,-76 40.16,-72.31 41.5,-67.4"/>
<polygon fill="midnightblue" stroke="midnightblue" points="44.74,-66.05 38.15,-57.76 38.12,-68.35 44.74,-66.05"/>
</g>
<!-- Node2 -->
<g id="node2" class="node">
<title>Node2</title>
<g id="a_node2"><a xlink:href="metrix_8f90.html#a80c802cda076dd9e7031bc5f9098c175" target="_top" xlink:title="compute guvijsave">
<polygon fill="white" stroke="black" points="79,-76.5 79,-95.5 180,-95.5 180,-76.5 79,-76.5"/>
<text text-anchor="middle" x="129.5" y="-83.5" font-family="Helvetica,sans-Serif" font-size="10.00">compute_guvijsave</text>
</a>
</g>
</g>
<!-- Node1&#45;&gt;Node2 -->
<g id="edge1" class="edge">
<title>Node1&#45;&gt;Node2</title>
<path fill="none" stroke="midnightblue" d="M43.19,-55.42C57.06,-60.39 75.71,-67.07 92.03,-72.92"/>
<polygon fill="midnightblue" stroke="midnightblue" points="91.23,-76.36 101.83,-76.44 93.59,-69.77 91.23,-76.36"/>
</g>
<!-- Node5 -->
<g id="node5" class="node">
<title>Node5</title>
<g id="a_node5"><a xlink:href="basefn_8f90.html#af6a4cad04c70bfb14fd18a3bfbc843a3" target="_top" xlink:title="Get the Chebyshev polynomials with zeroth, first derivatives.">
<polygon fill="white" stroke="black" points="99,-38.5 99,-57.5 160,-57.5 160,-38.5 99,-38.5"/>
<text text-anchor="middle" x="129.5" y="-45.5" font-family="Helvetica,sans-Serif" font-size="10.00">get_cheby</text>
</a>
</g>
</g>
<!-- Node1&#45;&gt;Node5 -->
<g id="edge7" class="edge">
<title>Node1&#45;&gt;Node5</title>
<path fill="none" stroke="midnightblue" d="M43.19,-48C56.02,-48 72.92,-48 88.3,-48"/>
<polygon fill="midnightblue" stroke="midnightblue" points="88.63,-51.5 98.63,-48 88.63,-44.5 88.63,-51.5"/>
</g>
<!-- Node6 -->
<g id="node6" class="node">
<title>Node6</title>
<g id="a_node6"><a xlink:href="basefn_8f90.html#a38dc596fb909186b01dacc1feac03164" target="_top" xlink:title="Get the Zernike polynomials &#160;with zeroth, first derivatives.">
<polygon fill="white" stroke="black" points="96.5,-0.5 96.5,-19.5 162.5,-19.5 162.5,-0.5 96.5,-0.5"/>
<text text-anchor="middle" x="129.5" y="-7.5" font-family="Helvetica,sans-Serif" font-size="10.00">get_zernike</text>
</a>
</g>
</g>
<!-- Node1&#45;&gt;Node6 -->
<g id="edge8" class="edge">
<title>Node1&#45;&gt;Node6</title>
<path fill="none" stroke="midnightblue" d="M43.19,-40.58C57.06,-35.61 75.71,-28.93 92.03,-23.08"/>
<polygon fill="midnightblue" stroke="midnightblue" points="93.59,-26.23 101.83,-19.56 91.23,-19.64 93.59,-26.23"/>
</g>
<!-- Node3 -->
<g id="node3" class="node">
<title>Node3</title>
<g id="a_node3"><a xlink:href="group__grp__geometry.html#gaaca20aa60eaf39055f3c9d5c02a24ac2" target="_top" xlink:title="Calculates coordinates, , and metrics, using FFTs.">
<polygon fill="white" stroke="black" points="216,-76.5 216,-95.5 262,-95.5 262,-76.5 216,-76.5"/>
<text text-anchor="middle" x="239" y="-83.5" font-family="Helvetica,sans-Serif" font-size="10.00">coords</text>
</a>
</g>
</g>
<!-- Node2&#45;&gt;Node3 -->
<g id="edge2" class="edge">
<title>Node2&#45;&gt;Node3</title>
<path fill="none" stroke="midnightblue" d="M180.16,-86C188.88,-86 197.75,-86 205.83,-86"/>
<polygon fill="midnightblue" stroke="midnightblue" points="205.93,-89.5 215.93,-86 205.93,-82.5 205.93,-89.5"/>
</g>
<!-- Node3&#45;&gt;Node3 -->
<g id="edge3" class="edge">
<title>Node3&#45;&gt;Node3</title>
<path fill="none" stroke="midnightblue" d="M226.36,-95.76C220.21,-104.57 224.43,-114 239,-114 247.88,-114 252.91,-110.5 254.1,-105.77"/>
<polygon fill="midnightblue" stroke="midnightblue" points="257.43,-104.63 251.64,-95.76 250.63,-106.3 257.43,-104.63"/>
</g>
<!-- Node4 -->
<g id="node4" class="node">
<title>Node4</title>
<g id="a_node4"><a xlink:href="group__grp__volume.html#gae4c62d20b8fef07f4471b5b0889ab005" target="_top" xlink:title="Computes volume of each region; and, if required, the derivatives of the volume with respect to the i...">
<polygon fill="white" stroke="black" points="298,-76.5 298,-95.5 346,-95.5 346,-76.5 298,-76.5"/>
<text text-anchor="middle" x="322" y="-83.5" font-family="Helvetica,sans-Serif" font-size="10.00">volume</text>
</a>
</g>
</g>
<!-- Node3&#45;&gt;Node4 -->
<g id="edge4" class="edge">
<title>Node3&#45;&gt;Node4</title>
<path fill="none" stroke="midnightblue" d="M262.13,-79.91C269.99,-79.3 279.02,-79.12 287.61,-79.34"/>
<polygon fill="midnightblue" stroke="midnightblue" points="287.61,-82.85 297.76,-79.83 287.94,-75.85 287.61,-82.85"/>
</g>
<!-- Node4&#45;&gt;Node3 -->
<g id="edge5" class="edge">
<title>Node4&#45;&gt;Node3</title>
<path fill="none" stroke="midnightblue" d="M297.76,-92.17C289.8,-92.74 280.74,-92.89 272.19,-92.62"/>
<polygon fill="midnightblue" stroke="midnightblue" points="272.3,-89.12 262.13,-92.09 271.94,-96.11 272.3,-89.12"/>
</g>
<!-- Node4&#45;&gt;Node4 -->
<g id="edge6" class="edge">
<title>Node4&#45;&gt;Node4</title>
<path fill="none" stroke="midnightblue" d="M309.36,-95.76C303.21,-104.57 307.43,-114 322,-114 330.88,-114 335.91,-110.5 337.1,-105.77"/>
<polygon fill="midnightblue" stroke="midnightblue" points="340.43,-104.63 334.64,-95.76 333.63,-106.3 340.43,-104.63"/>
</g>
</g>
</svg>
