<?xml version="1.0" encoding="UTF-8" standalone="no"?>
<!DOCTYPE svg PUBLIC "-//W3C//DTD SVG 1.1//EN"
 "http://www.w3.org/Graphics/SVG/1.1/DTD/svg11.dtd">
<!-- Generated by graphviz version 2.44.0 ()
 -->
<!-- Title: lbpol Pages: 1 -->
<svg width="767pt" height="492pt"
 viewBox="0.00 0.00 767.00 492.00" xmlns="http://www.w3.org/2000/svg" xmlns:xlink="http://www.w3.org/1999/xlink">
<g id="graph0" class="graph" transform="scale(1 1) rotate(0) translate(4 488)">
<title>lbpol</title>
<polygon fill="white" stroke="transparent" points="-4,4 -4,-488 763,-488 763,4 -4,4"/>
<!-- Node1 -->
<g id="node1" class="node">
<title>Node1</title>
<g id="a_node1"><a xlink:title="Computes Btheta at the interface.">
<polygon fill="#bfbfbf" stroke="black" points="722,-142.5 722,-161.5 759,-161.5 759,-142.5 722,-142.5"/>
<text text-anchor="middle" x="740.5" y="-149.5" font-family="Helvetica,sans-Serif" font-size="10.00">lbpol</text>
</a>
</g>
</g>
<!-- Node2 -->
<g id="node2" class="node">
<title>Node2</title>
<g id="a_node2"><a xlink:href="dfp100_8f90.html#a17a3ac15cc83994394f7b4cc05e5898e" target="_top" xlink:title="Split the work between MPI nodes and evaluate the global constraint.">
<polygon fill="white" stroke="black" points="640,-142.5 640,-161.5 686,-161.5 686,-142.5 640,-142.5"/>
<text text-anchor="middle" x="663" y="-149.5" font-family="Helvetica,sans-Serif" font-size="10.00">dfp100</text>
</a>
</g>
</g>
<!-- Node1&#45;&gt;Node2 -->
<g id="edge1" class="edge">
<title>Node1&#45;&gt;Node2</title>
<path fill="none" stroke="midnightblue" d="M711.77,-152C703.28,-152 694.07,-152 686.02,-152"/>
<polygon fill="midnightblue" stroke="midnightblue" points="711.99,-155.5 721.99,-152 711.99,-148.5 711.99,-155.5"/>
</g>
<!-- Node8 -->
<g id="node8" class="node">
<title>Node8</title>
<g id="a_node8"><a xlink:href="xspech_8f90.html#aea782eae089760a491c2c54f9903abcc" target="_top" xlink:title="Main program of SPEC.">
<polygon fill="white" stroke="black" points="81,-341.5 81,-360.5 128,-360.5 128,-341.5 81,-341.5"/>
<text text-anchor="middle" x="104.5" y="-348.5" font-family="Helvetica,sans-Serif" font-size="10.00">xspech</text>
</a>
</g>
</g>
<!-- Node1&#45;&gt;Node8 -->
<g id="edge38" class="edge">
<title>Node1&#45;&gt;Node8</title>
<path fill="none" stroke="midnightblue" d="M739.36,-171.9C737.71,-243.53 721.83,-484 583,-484 583,-484 583,-484 338,-484 256.62,-484 230.43,-474 164,-427 138.58,-409.02 119.08,-376.75 110.42,-360.67"/>
<polygon fill="midnightblue" stroke="midnightblue" points="742.86,-171.63 739.52,-161.58 735.86,-171.52 742.86,-171.63"/>
</g>
<!-- Node13 -->
<g id="node13" class="node">
<title>Node13</title>
<g id="a_node13"><a xlink:href="dfp200_8f90.html#a73ddf39ecc5228201fb643779e17cd36" target="_top" xlink:title="Evaluate mu and psip derivatives and store them in dmupfdx.">
<polygon fill="white" stroke="black" points="174,-0.5 174,-19.5 269,-19.5 269,-0.5 174,-0.5"/>
<text text-anchor="middle" x="221.5" y="-7.5" font-family="Helvetica,sans-Serif" font-size="10.00">evaluate_dmupfdx</text>
</a>
</g>
</g>
<!-- Node1&#45;&gt;Node13 -->
<g id="edge37" class="edge">
<title>Node1&#45;&gt;Node13</title>
<path fill="none" stroke="midnightblue" d="M730.03,-133.06C709.19,-94.4 655.41,-10 583,-10 583,-10 583,-10 460.5,-10 393.98,-10 316.99,-10 269.02,-10"/>
<polygon fill="midnightblue" stroke="midnightblue" points="727.08,-134.99 734.81,-142.24 733.29,-131.75 727.08,-134.99"/>
</g>
<!-- Node3 -->
<g id="node3" class="node">
<title>Node3</title>
<g id="a_node3"><a xlink:href="group__grp__global__force.html#ga38c9d3c50bd043707fefa5137c9dbf44" target="_top" xlink:title="Calculates , where &#160;and , and .">
<polygon fill="white" stroke="black" points="560,-223.5 560,-242.5 604,-242.5 604,-223.5 560,-223.5"/>
<text text-anchor="middle" x="582" y="-230.5" font-family="Helvetica,sans-Serif" font-size="10.00">dforce</text>
</a>
</g>
</g>
<!-- Node2&#45;&gt;Node3 -->
<g id="edge2" class="edge">
<title>Node2&#45;&gt;Node3</title>
<path fill="none" stroke="midnightblue" d="M645.42,-168.99C629.31,-185.51 605.42,-210.01 592.36,-223.4"/>
<polygon fill="midnightblue" stroke="midnightblue" points="648.15,-171.21 652.63,-161.61 643.14,-166.33 648.15,-171.21"/>
</g>
<!-- Node2&#45;&gt;Node13 -->
<g id="edge36" class="edge">
<title>Node2&#45;&gt;Node13</title>
<path fill="none" stroke="midnightblue" d="M641.64,-136.11C615.78,-116.75 569.07,-84.45 524,-67 500.56,-57.92 347.78,-31.24 269.13,-17.85"/>
<polygon fill="midnightblue" stroke="midnightblue" points="639.8,-139.11 649.88,-142.38 644.04,-133.54 639.8,-139.11"/>
</g>
<!-- Node4 -->
<g id="node4" class="node">
<title>Node4</title>
<g id="a_node4"><a xlink:href="group__grp__force__driver.html#gabbc245b3884ee8d8d3e2a52f25149f78" target="_top" xlink:title="fcn1">
<polygon fill="white" stroke="black" points="444,-161.5 444,-180.5 479,-180.5 479,-161.5 444,-161.5"/>
<text text-anchor="middle" x="461.5" y="-168.5" font-family="Helvetica,sans-Serif" font-size="10.00">fcn1</text>
</a>
</g>
</g>
<!-- Node3&#45;&gt;Node4 -->
<g id="edge3" class="edge">
<title>Node3&#45;&gt;Node4</title>
<path fill="none" stroke="midnightblue" d="M557.13,-217.96C547.05,-211.82 535.1,-204.81 524,-199 509.14,-191.22 491.69,-183.39 479.18,-178"/>
<polygon fill="midnightblue" stroke="midnightblue" points="555.43,-221.03 565.78,-223.29 559.1,-215.07 555.43,-221.03"/>
</g>
<!-- Node5 -->
<g id="node5" class="node">
<title>Node5</title>
<g id="a_node5"><a xlink:href="group__grp__force__driver.html#gaec14f81fbdbedafbc4189489ec8ae178" target="_top" xlink:title="Employs Newton method to find , where &#160;and &#160;is defined in dforce() .">
<polygon fill="white" stroke="black" points="315,-161.5 315,-180.5 363,-180.5 363,-161.5 315,-161.5"/>
<text text-anchor="middle" x="339" y="-168.5" font-family="Helvetica,sans-Serif" font-size="10.00">newton</text>
</a>
</g>
</g>
<!-- Node3&#45;&gt;Node5 -->
<g id="edge27" class="edge">
<title>Node3&#45;&gt;Node5</title>
<path fill="none" stroke="midnightblue" d="M549.84,-226.43C513.45,-218.57 451.52,-204.64 399,-190 387.08,-186.68 373.96,-182.51 363.13,-178.92"/>
<polygon fill="midnightblue" stroke="midnightblue" points="549.33,-229.9 559.84,-228.57 550.8,-223.05 549.33,-229.9"/>
</g>
<!-- Node6 -->
<g id="node6" class="node">
<title>Node6</title>
<g id="a_node6"><a xlink:href="group__grp__force__driver.html#ga8ccd6c7d901872702521d0a0edf95412" target="_top" xlink:title="fcn2">
<polygon fill="white" stroke="black" points="87,-161.5 87,-180.5 122,-180.5 122,-161.5 87,-161.5"/>
<text text-anchor="middle" x="104.5" y="-168.5" font-family="Helvetica,sans-Serif" font-size="10.00">fcn2</text>
</a>
</g>
</g>
<!-- Node3&#45;&gt;Node6 -->
<g id="edge14" class="edge">
<title>Node3&#45;&gt;Node6</title>
<path fill="none" stroke="midnightblue" d="M549.46,-233.14C479.18,-232.78 304.85,-228.2 164,-194 149.37,-190.45 133.51,-184.04 122,-178.89"/>
<polygon fill="midnightblue" stroke="midnightblue" points="549.81,-236.64 559.82,-233.16 549.83,-229.64 549.81,-236.64"/>
</g>
<!-- Node3&#45;&gt;Node8 -->
<g id="edge35" class="edge">
<title>Node3&#45;&gt;Node8</title>
<path fill="none" stroke="midnightblue" d="M550.21,-240.64C461.36,-262.69 205.95,-326.07 128.22,-345.36"/>
<polygon fill="midnightblue" stroke="midnightblue" points="551.09,-244.03 559.95,-238.22 549.41,-237.23 551.09,-244.03"/>
</g>
<!-- Node10 -->
<g id="node10" class="node">
<title>Node10</title>
<g id="a_node10"><a xlink:href="dfp200_8f90.html#a6aca59cf350d7b1941f8389d50945a43" target="_top" xlink:title="get LU Beltrami matrices">
<polygon fill="white" stroke="black" points="399,-76.5 399,-95.5 524,-95.5 524,-76.5 399,-76.5"/>
<text text-anchor="middle" x="461.5" y="-83.5" font-family="Helvetica,sans-Serif" font-size="10.00">get_lu_beltrami_matrices</text>
</a>
</g>
</g>
<!-- Node3&#45;&gt;Node10 -->
<g id="edge15" class="edge">
<title>Node3&#45;&gt;Node10</title>
<path fill="none" stroke="midnightblue" d="M576,-213.49C568.55,-187.92 552.3,-143.04 524,-115 515.36,-106.44 503.72,-100.08 492.89,-95.52"/>
<polygon fill="midnightblue" stroke="midnightblue" points="572.71,-214.74 578.74,-223.46 579.46,-212.89 572.71,-214.74"/>
</g>
<!-- Node15 -->
<g id="node15" class="node">
<title>Node15</title>
<g id="a_node15"><a xlink:href="group__grp__diagnostics.html#ga7401b50ec10c6598ee4a8112717a63ec" target="_top" xlink:title="Computes eigenvalues and eigenvectors of derivative matrix, .">
<polygon fill="white" stroke="black" points="199,-398.5 199,-417.5 244,-417.5 244,-398.5 199,-398.5"/>
<text text-anchor="middle" x="221.5" y="-405.5" font-family="Helvetica,sans-Serif" font-size="10.00">hesian</text>
</a>
</g>
</g>
<!-- Node3&#45;&gt;Node15 -->
<g id="edge25" class="edge">
<title>Node3&#45;&gt;Node15</title>
<path fill="none" stroke="midnightblue" d="M580.99,-252.94C579.8,-289.95 571.49,-369.06 524,-408 441.22,-475.86 298.3,-435.3 244.15,-416.24"/>
<polygon fill="midnightblue" stroke="midnightblue" points="584.5,-252.56 581.17,-242.5 577.5,-252.44 584.5,-252.56"/>
</g>
<!-- Node16 -->
<g id="node16" class="node">
<title>Node16</title>
<g id="a_node16"><a xlink:href="group__grp__conjugate__gradient.html#ga4d8415226e62a9fdb42b0fd0b464251e" target="_top" xlink:title="Returns the energy functional and it&#39;s derivatives with respect to geometry.">
<polygon fill="white" stroke="black" points="437.5,-379.5 437.5,-398.5 485.5,-398.5 485.5,-379.5 437.5,-379.5"/>
<text text-anchor="middle" x="461.5" y="-386.5" font-family="Helvetica,sans-Serif" font-size="10.00">pc00ab</text>
</a>
</g>
</g>
<!-- Node3&#45;&gt;Node16 -->
<g id="edge28" class="edge">
<title>Node3&#45;&gt;Node16</title>
<path fill="none" stroke="midnightblue" d="M575.39,-252.42C567.36,-277.54 550.54,-321.56 524,-351 512.99,-363.21 497.14,-372.88 484.29,-379.4"/>
<polygon fill="midnightblue" stroke="midnightblue" points="578.81,-253.2 578.38,-242.62 572.12,-251.16 578.81,-253.2"/>
</g>
<!-- Node18 -->
<g id="node18" class="node">
<title>Node18</title>
<g id="a_node18"><a xlink:href="namespaceallglobal.html#ad32ae6194892fe7d876622a6455189e2" target="_top" xlink:title="The master node reads the input namelist and sets various internal variables. The relevant quantities...">
<polygon fill="white" stroke="black" points="420,-322.5 420,-341.5 503,-341.5 503,-322.5 420,-322.5"/>
<text text-anchor="middle" x="461.5" y="-329.5" font-family="Helvetica,sans-Serif" font-size="10.00">allglobal::readin</text>
</a>
</g>
</g>
<!-- Node3&#45;&gt;Node18 -->
<g id="edge30" class="edge">
<title>Node3&#45;&gt;Node18</title>
<path fill="none" stroke="midnightblue" d="M570.93,-251.52C560.97,-268.3 544.3,-292.68 524,-308 515.95,-314.08 506.17,-318.81 496.79,-322.41"/>
<polygon fill="midnightblue" stroke="midnightblue" points="574.07,-253.07 575.99,-242.65 568,-249.6 574.07,-253.07"/>
</g>
<!-- Node4&#45;&gt;Node5 -->
<g id="edge4" class="edge">
<title>Node4&#45;&gt;Node5</title>
<path fill="none" stroke="midnightblue" d="M433.51,-165.26C412.38,-163.82 383.31,-163.92 363.22,-165.54"/>
<polygon fill="midnightblue" stroke="midnightblue" points="433.48,-168.77 443.74,-166.16 434.09,-161.8 433.48,-168.77"/>
</g>
<!-- Node5&#45;&gt;Node4 -->
<g id="edge5" class="edge">
<title>Node5&#45;&gt;Node4</title>
<path fill="none" stroke="midnightblue" d="M373.21,-177.11C396.11,-178.27 425.58,-177.85 443.74,-175.84"/>
<polygon fill="midnightblue" stroke="midnightblue" points="373.42,-173.61 363.22,-176.46 372.97,-180.6 373.42,-173.61"/>
</g>
<!-- Node5&#45;&gt;Node6 -->
<g id="edge6" class="edge">
<title>Node5&#45;&gt;Node6</title>
<path fill="none" stroke="midnightblue" d="M304.79,-166.1C254.32,-163.28 160.17,-163.68 122.1,-167.31"/>
<polygon fill="midnightblue" stroke="midnightblue" points="304.65,-169.6 314.86,-166.76 305.1,-162.62 304.65,-169.6"/>
</g>
<!-- Node7 -->
<g id="node7" class="node">
<title>Node7</title>
<g id="a_node7"><a xlink:href="group__grp__force__driver.html#ga382822b303cbf8c56d6f54dcb379caf2" target="_top" xlink:title="read or write force&#45;derivative matrix">
<polygon fill="white" stroke="black" points="189,-114.5 189,-133.5 254,-133.5 254,-114.5 189,-114.5"/>
<text text-anchor="middle" x="221.5" y="-121.5" font-family="Helvetica,sans-Serif" font-size="10.00">writereadgf</text>
</a>
</g>
</g>
<!-- Node5&#45;&gt;Node7 -->
<g id="edge8" class="edge">
<title>Node5&#45;&gt;Node7</title>
<path fill="none" stroke="midnightblue" d="M316.29,-156.76C298.75,-148.1 273.82,-137.73 254.07,-130.76"/>
<polygon fill="midnightblue" stroke="midnightblue" points="314.71,-159.88 325.2,-161.36 317.92,-153.66 314.71,-159.88"/>
</g>
<!-- Node5&#45;&gt;Node8 -->
<g id="edge11" class="edge">
<title>Node5&#45;&gt;Node8</title>
<path fill="none" stroke="midnightblue" d="M309.34,-185.25C273.2,-204.01 210.22,-239.41 164,-280 142.16,-299.18 121.81,-326.97 111.86,-341.44"/>
<polygon fill="midnightblue" stroke="midnightblue" points="311.05,-188.3 318.35,-180.63 307.85,-182.08 311.05,-188.3"/>
</g>
<!-- Node6&#45;&gt;Node5 -->
<g id="edge7" class="edge">
<title>Node6&#45;&gt;Node5</title>
<path fill="none" stroke="midnightblue" d="M132.2,-175.5C178.16,-178.58 271.47,-178.5 314.86,-175.24"/>
<polygon fill="midnightblue" stroke="midnightblue" points="132.35,-172 122.1,-174.69 131.79,-178.97 132.35,-172"/>
</g>
<!-- Node7&#45;&gt;Node5 -->
<g id="edge10" class="edge">
<title>Node7&#45;&gt;Node5</title>
<path fill="none" stroke="midnightblue" d="M244.22,-138.25C264.39,-148.2 294.31,-160.42 314.9,-167.13"/>
<polygon fill="midnightblue" stroke="midnightblue" points="245.68,-135.07 235.19,-133.58 242.47,-141.28 245.68,-135.07"/>
</g>
<!-- Node7&#45;&gt;Node6 -->
<g id="edge9" class="edge">
<title>Node7&#45;&gt;Node6</title>
<path fill="none" stroke="midnightblue" d="M187.82,-137.36C166.35,-146.13 139.16,-157.24 122.05,-164.24"/>
<polygon fill="midnightblue" stroke="midnightblue" points="189.3,-140.53 197.23,-133.51 186.65,-134.05 189.3,-140.53"/>
</g>
<!-- Node9 -->
<g id="node9" class="node">
<title>Node9</title>
<g id="a_node9"><a xlink:href="xspech_8f90.html#a537af4990058c0b0f2cd8b3669af204f" target="_top" xlink:title="todo remark">
<polygon fill="white" stroke="black" points="0,-341.5 0,-360.5 45,-360.5 45,-341.5 0,-341.5"/>
<text text-anchor="middle" x="22.5" y="-348.5" font-family="Helvetica,sans-Serif" font-size="10.00">ending</text>
</a>
</g>
</g>
<!-- Node8&#45;&gt;Node9 -->
<g id="edge12" class="edge">
<title>Node8&#45;&gt;Node9</title>
<path fill="none" stroke="midnightblue" d="M70.65,-344.35C62.06,-344.11 53.01,-344.3 45.17,-344.92"/>
<polygon fill="midnightblue" stroke="midnightblue" points="70.63,-347.85 80.79,-344.84 70.97,-340.86 70.63,-347.85"/>
</g>
<!-- Node9&#45;&gt;Node8 -->
<g id="edge13" class="edge">
<title>Node9&#45;&gt;Node8</title>
<path fill="none" stroke="midnightblue" d="M55.22,-357.62C63.77,-357.89 72.84,-357.74 80.79,-357.16"/>
<polygon fill="midnightblue" stroke="midnightblue" points="55.34,-354.12 45.17,-357.08 54.96,-361.11 55.34,-354.12"/>
</g>
<!-- Node11 -->
<g id="node11" class="node">
<title>Node11</title>
<g id="a_node11"><a xlink:href="dfp200_8f90.html#a55ea75395f8c71731451e1add3720c7e" target="_top" xlink:title="Given the field consistent with the constraints and the geometry, computes local quantites related to...">
<polygon fill="white" stroke="black" points="316,-76.5 316,-95.5 362,-95.5 362,-76.5 316,-76.5"/>
<text text-anchor="middle" x="339" y="-83.5" font-family="Helvetica,sans-Serif" font-size="10.00">dfp200</text>
</a>
</g>
</g>
<!-- Node10&#45;&gt;Node11 -->
<g id="edge16" class="edge">
<title>Node10&#45;&gt;Node11</title>
<path fill="none" stroke="midnightblue" d="M388.69,-79.36C379.05,-79.55 369.82,-79.98 362.04,-80.64"/>
<polygon fill="midnightblue" stroke="midnightblue" points="388.88,-82.86 398.84,-79.25 388.8,-75.86 388.88,-82.86"/>
</g>
<!-- Node11&#45;&gt;Node3 -->
<g id="edge17" class="edge">
<title>Node11&#45;&gt;Node3</title>
<path fill="none" stroke="midnightblue" d="M371.91,-96.28C421.21,-112.33 511.53,-142.5 524,-152 549.85,-171.69 568.6,-206.46 576.64,-223.31"/>
<polygon fill="midnightblue" stroke="midnightblue" points="372.94,-92.93 362.35,-93.17 370.78,-99.59 372.94,-92.93"/>
</g>
<!-- Node11&#45;&gt;Node10 -->
<g id="edge22" class="edge">
<title>Node11&#45;&gt;Node10</title>
<path fill="none" stroke="midnightblue" d="M372.28,-92.06C380.52,-92.5 389.66,-92.73 398.84,-92.75"/>
<polygon fill="midnightblue" stroke="midnightblue" points="372.26,-88.55 362.04,-91.36 371.78,-95.53 372.26,-88.55"/>
</g>
<!-- Node12 -->
<g id="node12" class="node">
<title>Node12</title>
<g id="a_node12"><a xlink:href="dfp200_8f90.html#a9838f042d6611c01771ed68beb77fc6b" target="_top" xlink:title="Evaluate the derivative of the square of the magnetic field modulus. Add spectral constraint derivati...">
<polygon fill="white" stroke="black" points="184.5,-38.5 184.5,-57.5 258.5,-57.5 258.5,-38.5 184.5,-38.5"/>
<text text-anchor="middle" x="221.5" y="-45.5" font-family="Helvetica,sans-Serif" font-size="10.00">evaluate_dbb</text>
</a>
</g>
</g>
<!-- Node11&#45;&gt;Node12 -->
<g id="edge18" class="edge">
<title>Node11&#45;&gt;Node12</title>
<path fill="none" stroke="midnightblue" d="M313.31,-72.23C297.49,-65.83 276.69,-58.76 258.99,-53.68"/>
<polygon fill="midnightblue" stroke="midnightblue" points="312.33,-75.61 322.9,-76.3 315.07,-69.17 312.33,-75.61"/>
</g>
<!-- Node11&#45;&gt;Node13 -->
<g id="edge20" class="edge">
<title>Node11&#45;&gt;Node13</title>
<path fill="none" stroke="midnightblue" d="M326.58,-68.49C311.01,-49.75 284.43,-23.3 279,-20 275.91,-18.12 272.6,-16.4 269.2,-14.85"/>
<polygon fill="midnightblue" stroke="midnightblue" points="323.91,-70.76 332.84,-76.45 329.41,-66.43 323.91,-70.76"/>
</g>
<!-- Node14 -->
<g id="node14" class="node">
<title>Node14</title>
<g id="a_node14"><a xlink:href="dfp200_8f90.html#a5e56f1f4b1e6df11a9cffa6237c37469" target="_top" xlink:title="This routine evaluates the value of the magnetic field once the interface is perturbed using matrix p...">
<polygon fill="white" stroke="black" points="164,-76.5 164,-95.5 279,-95.5 279,-76.5 164,-76.5"/>
<text text-anchor="middle" x="221.5" y="-83.5" font-family="Helvetica,sans-Serif" font-size="10.00">get_perturbed_solution</text>
</a>
</g>
</g>
<!-- Node11&#45;&gt;Node14 -->
<g id="edge23" class="edge">
<title>Node11&#45;&gt;Node14</title>
<path fill="none" stroke="midnightblue" d="M305.51,-79.86C297.3,-79.44 288.25,-79.23 279.23,-79.25"/>
<polygon fill="midnightblue" stroke="midnightblue" points="305.52,-83.37 315.73,-80.54 305.99,-76.38 305.52,-83.37"/>
</g>
<!-- Node12&#45;&gt;Node11 -->
<g id="edge19" class="edge">
<title>Node12&#45;&gt;Node11</title>
<path fill="none" stroke="midnightblue" d="M246.59,-61.53C266.96,-69.81 295.9,-79.28 315.73,-84.13"/>
<polygon fill="midnightblue" stroke="midnightblue" points="247.93,-58.3 237.36,-57.59 245.19,-64.74 247.93,-58.3"/>
</g>
<!-- Node13&#45;&gt;Node11 -->
<g id="edge21" class="edge">
<title>Node13&#45;&gt;Node11</title>
<path fill="none" stroke="midnightblue" d="M244.9,-23.18C255.7,-27.11 268.55,-31.64 279,-38 283.9,-40.98 305.97,-62.76 321.68,-76.27"/>
<polygon fill="midnightblue" stroke="midnightblue" points="245.91,-19.82 235.31,-19.56 243.43,-26.36 245.91,-19.82"/>
</g>
<!-- Node14&#45;&gt;Node11 -->
<g id="edge24" class="edge">
<title>Node14&#45;&gt;Node11</title>
<path fill="none" stroke="midnightblue" d="M289.23,-92.68C298.76,-92.52 307.95,-92.11 315.73,-91.46"/>
<polygon fill="midnightblue" stroke="midnightblue" points="289.21,-89.18 279.23,-92.75 289.26,-96.18 289.21,-89.18"/>
</g>
<!-- Node15&#45;&gt;Node8 -->
<g id="edge26" class="edge">
<title>Node15&#45;&gt;Node8</title>
<path fill="none" stroke="midnightblue" d="M189.37,-395.51C181.05,-391.98 172.11,-387.99 164,-384 149.35,-376.79 133.23,-367.59 121.63,-360.74"/>
<polygon fill="midnightblue" stroke="midnightblue" points="188.2,-398.82 198.78,-399.44 190.9,-392.36 188.2,-398.82"/>
</g>
<!-- Node17 -->
<g id="node17" class="node">
<title>Node17</title>
<g id="a_node17"><a xlink:href="group__grp__conjugate__gradient.html#ga25a3bae2ff2ee0469b045de0d033398b" target="_top" xlink:title="Use preconditioned conjugate gradient method to find minimum of energy functional.">
<polygon fill="white" stroke="black" points="315,-398.5 315,-417.5 363,-417.5 363,-398.5 315,-398.5"/>
<text text-anchor="middle" x="339" y="-405.5" font-family="Helvetica,sans-Serif" font-size="10.00">pc00aa</text>
</a>
</g>
</g>
<!-- Node16&#45;&gt;Node17 -->
<g id="edge29" class="edge">
<title>Node16&#45;&gt;Node17</title>
<path fill="none" stroke="midnightblue" d="M427.16,-394.26C406.81,-397.46 381.31,-401.49 363.16,-404.35"/>
<polygon fill="midnightblue" stroke="midnightblue" points="427.93,-397.68 437.27,-392.66 426.84,-390.76 427.93,-397.68"/>
</g>
<!-- Node18&#45;&gt;Node8 -->
<g id="edge34" class="edge">
<title>Node18&#45;&gt;Node8</title>
<path fill="none" stroke="midnightblue" d="M409.66,-334.72C331.37,-338.91 184.44,-346.78 128.2,-349.79"/>
<polygon fill="midnightblue" stroke="midnightblue" points="409.98,-338.21 419.78,-334.18 409.6,-331.22 409.98,-338.21"/>
</g>
<!-- Node19 -->
<g id="node19" class="node">
<title>Node19</title>
<g id="a_node19"><a xlink:href="group__grp__initialization.html#ga28628de0fdb3b3497668007d8d0643bd" target="_top" xlink:title="Allocates and initializes internal arrays.">
<polygon fill="white" stroke="black" points="317,-360.5 317,-379.5 361,-379.5 361,-360.5 317,-360.5"/>
<text text-anchor="middle" x="339" y="-367.5" font-family="Helvetica,sans-Serif" font-size="10.00">preset</text>
</a>
</g>
</g>
<!-- Node18&#45;&gt;Node19 -->
<g id="edge31" class="edge">
<title>Node18&#45;&gt;Node19</title>
<path fill="none" stroke="midnightblue" d="M420.41,-344.64C400.65,-350.87 377.62,-358.14 361.28,-363.29"/>
<polygon fill="midnightblue" stroke="midnightblue" points="421.61,-347.93 430.09,-341.59 419.5,-341.26 421.61,-347.93"/>
</g>
<!-- Node19&#45;&gt;Node8 -->
<g id="edge33" class="edge">
<title>Node19&#45;&gt;Node8</title>
<path fill="none" stroke="midnightblue" d="M306.94,-367.46C259.42,-363.58 169.82,-356.26 128.03,-352.84"/>
<polygon fill="midnightblue" stroke="midnightblue" points="306.71,-370.95 316.96,-368.28 307.28,-363.98 306.71,-370.95"/>
</g>
<!-- Node19&#45;&gt;Node15 -->
<g id="edge32" class="edge">
<title>Node19&#45;&gt;Node15</title>
<path fill="none" stroke="midnightblue" d="M307.3,-380.1C287.46,-386.63 262.13,-394.96 244.33,-400.82"/>
<polygon fill="midnightblue" stroke="midnightblue" points="308.41,-383.42 316.82,-376.97 306.22,-376.77 308.41,-383.42"/>
</g>
</g>
</svg>
