<?xml version="1.0" encoding="UTF-8" standalone="no"?>
<!DOCTYPE svg PUBLIC "-//W3C//DTD SVG 1.1//EN"
 "http://www.w3.org/Graphics/SVG/1.1/DTD/svg11.dtd">
<!-- Generated by graphviz version 2.49.0 (0)
 -->
<!-- Title: lbpol Pages: 1 -->
<svg width="733pt" height="490pt"
 viewBox="0.00 0.00 733.00 490.00" xmlns="http://www.w3.org/2000/svg" xmlns:xlink="http://www.w3.org/1999/xlink">
<g id="graph0" class="graph" transform="scale(1 1) rotate(0) translate(4 486)">
<title>lbpol</title>
<polygon fill="white" stroke="transparent" points="-4,4 -4,-486 729,-486 729,4 -4,4"/>
<!-- Node1 -->
<g id="node1" class="node">
<title>Node1</title>
<g id="a_node1"><a xlink:title="Computes &#160;at the interface.">
<polygon fill="#bfbfbf" stroke="black" points="688,-179.5 688,-198.5 725,-198.5 725,-179.5 688,-179.5"/>
<text text-anchor="middle" x="706.5" y="-186.5" font-family="Helvetica,sans-Serif" font-size="10.00">lbpol</text>
</a>
</g>
</g>
<!-- Node1&#45;&gt;Node1 -->
<g id="edge51" class="edge">
<title>Node1&#45;&gt;Node1</title>
<path fill="none" stroke="midnightblue" d="M720.5,-208.77C719.4,-213.5 714.73,-217 706.5,-217 692.99,-217 689.09,-207.57 694.79,-198.76"/>
<polygon fill="midnightblue" stroke="midnightblue" points="723.85,-207.73 718.21,-198.76 717.02,-209.28 723.85,-207.73"/>
</g>
<!-- Node2 -->
<g id="node2" class="node">
<title>Node2</title>
<g id="a_node2"><a xlink:href="dfp100_8f90.html#a17a3ac15cc83994394f7b4cc05e5898e" target="_top" xlink:title="Split the work between MPI nodes and evaluate the global constraint.">
<polygon fill="white" stroke="black" points="606,-179.5 606,-198.5 652,-198.5 652,-179.5 606,-179.5"/>
<text text-anchor="middle" x="629" y="-186.5" font-family="Helvetica,sans-Serif" font-size="10.00">dfp100</text>
</a>
</g>
</g>
<!-- Node1&#45;&gt;Node2 -->
<g id="edge1" class="edge">
<title>Node1&#45;&gt;Node2</title>
<path fill="none" stroke="midnightblue" d="M677.77,-189C669.28,-189 660.07,-189 652.02,-189"/>
<polygon fill="midnightblue" stroke="midnightblue" points="677.99,-192.5 687.99,-189 677.99,-185.5 677.99,-192.5"/>
</g>
<!-- Node6 -->
<g id="node6" class="node">
<title>Node6</title>
<g id="a_node6"><a xlink:href="xspech_8f90.html#a1451823a7b97101a797de616250752c1" target="_top" xlink:title="Final diagnostics.">
<polygon fill="white" stroke="black" points="143,-458.5 143,-477.5 232,-477.5 232,-458.5 143,-458.5"/>
<text text-anchor="middle" x="187.5" y="-465.5" font-family="Helvetica,sans-Serif" font-size="10.00">final_diagnostics</text>
</a>
</g>
</g>
<!-- Node1&#45;&gt;Node6 -->
<g id="edge50" class="edge">
<title>Node1&#45;&gt;Node6</title>
<path fill="none" stroke="midnightblue" d="M704.29,-209.06C699.12,-275.17 673.04,-482 549,-482 549,-482 549,-482 426.5,-482 358.62,-482 280.04,-476.25 232.32,-472.12"/>
<polygon fill="midnightblue" stroke="midnightblue" points="707.81,-208.97 705.01,-198.75 700.82,-208.48 707.81,-208.97"/>
</g>
<!-- Node17 -->
<g id="node17" class="node">
<title>Node17</title>
<g id="a_node17"><a xlink:href="dfp200_8f90.html#a73ddf39ecc5228201fb643779e17cd36" target="_top" xlink:title="Evaluate mu and psip derivatives and store them in dmupfdx.">
<polygon fill="white" stroke="black" points="140,-94.5 140,-113.5 235,-113.5 235,-94.5 140,-94.5"/>
<text text-anchor="middle" x="187.5" y="-101.5" font-family="Helvetica,sans-Serif" font-size="10.00">evaluate_dmupfdx</text>
</a>
</g>
</g>
<!-- Node1&#45;&gt;Node17 -->
<g id="edge49" class="edge">
<title>Node1&#45;&gt;Node17</title>
<path fill="none" stroke="midnightblue" d="M688.41,-172.23C661.28,-147.46 605.6,-104 549,-104 549,-104 549,-104 426.5,-104 359.98,-104 282.99,-104 235.02,-104"/>
<polygon fill="midnightblue" stroke="midnightblue" points="686.2,-174.96 695.88,-179.25 690.99,-169.85 686.2,-174.96"/>
</g>
<!-- Node2&#45;&gt;Node2 -->
<g id="edge47" class="edge">
<title>Node2&#45;&gt;Node2</title>
<path fill="none" stroke="midnightblue" d="M643,-208.77C641.9,-213.5 637.23,-217 629,-217 615.49,-217 611.59,-207.57 617.29,-198.76"/>
<polygon fill="midnightblue" stroke="midnightblue" points="646.35,-207.73 640.71,-198.76 639.52,-209.28 646.35,-207.73"/>
</g>
<!-- Node3 -->
<g id="node3" class="node">
<title>Node3</title>
<g id="a_node3"><a xlink:href="group__grp__global__force.html#ga38c9d3c50bd043707fefa5137c9dbf44" target="_top" xlink:title="Calculates , where &#160;and , and .">
<polygon fill="white" stroke="black" points="526,-227.5 526,-246.5 570,-246.5 570,-227.5 526,-227.5"/>
<text text-anchor="middle" x="548" y="-234.5" font-family="Helvetica,sans-Serif" font-size="10.00">dforce</text>
</a>
</g>
</g>
<!-- Node2&#45;&gt;Node3 -->
<g id="edge2" class="edge">
<title>Node2&#45;&gt;Node3</title>
<path fill="none" stroke="midnightblue" d="M603.33,-203.99C590.71,-211.66 575.73,-220.76 564.69,-227.46"/>
<polygon fill="midnightblue" stroke="midnightblue" points="605.28,-206.9 612.01,-198.71 601.65,-200.92 605.28,-206.9"/>
</g>
<!-- Node2&#45;&gt;Node17 -->
<g id="edge48" class="edge">
<title>Node2&#45;&gt;Node17</title>
<path fill="none" stroke="midnightblue" d="M598.59,-175.08C545.97,-151.15 431.63,-103.47 329,-90 296.67,-85.76 260.01,-89.7 232.25,-94.47"/>
<polygon fill="midnightblue" stroke="midnightblue" points="597.42,-178.4 607.97,-179.4 600.35,-172.04 597.42,-178.4"/>
</g>
<!-- Node3&#45;&gt;Node3 -->
<g id="edge13" class="edge">
<title>Node3&#45;&gt;Node3</title>
<path fill="none" stroke="midnightblue" d="M562.73,-256.77C561.58,-261.5 556.66,-265 548,-265 533.78,-265 529.67,-255.57 535.67,-246.76"/>
<polygon fill="midnightblue" stroke="midnightblue" points="566.07,-255.66 560.33,-246.76 559.26,-257.3 566.07,-255.66"/>
</g>
<!-- Node4 -->
<g id="node4" class="node">
<title>Node4</title>
<g id="a_node4"><a xlink:href="namespaceallglobal.html#a7824bc37519fe88336534ce90ab2af16" target="_top" xlink:title=" ">
<polygon fill="white" stroke="black" points="370.5,-416.5 370.5,-435.5 484.5,-435.5 484.5,-416.5 370.5,-416.5"/>
<text text-anchor="middle" x="427.5" y="-423.5" font-family="Helvetica,sans-Serif" font-size="10.00">allglobal::check_inputs</text>
</a>
</g>
</g>
<!-- Node3&#45;&gt;Node4 -->
<g id="edge3" class="edge">
<title>Node3&#45;&gt;Node4</title>
<path fill="none" stroke="midnightblue" d="M545.47,-256.68C541.8,-290.69 529.63,-360.78 490,-402 483.96,-408.28 476.09,-412.95 468,-416.4"/>
<polygon fill="midnightblue" stroke="midnightblue" points="548.96,-256.91 546.41,-246.62 541.99,-256.25 548.96,-256.91"/>
</g>
<!-- Node7 -->
<g id="node7" class="node">
<title>Node7</title>
<g id="a_node7"><a xlink:href="xspech_8f90.html#a48f45478dc2c9f70ea8aa1c60ad06503" target="_top" xlink:title="This is the main &quot;driver&quot; for the physics part of SPEC.">
<polygon fill="white" stroke="black" points="168.5,-344.5 168.5,-363.5 206.5,-363.5 206.5,-344.5 168.5,-344.5"/>
<text text-anchor="middle" x="187.5" y="-351.5" font-family="Helvetica,sans-Serif" font-size="10.00">spec</text>
</a>
</g>
</g>
<!-- Node3&#45;&gt;Node7 -->
<g id="edge46" class="edge">
<title>Node3&#45;&gt;Node7</title>
<path fill="none" stroke="midnightblue" d="M541.63,-256.61C534.13,-280.09 518.17,-318.78 490,-339 401.24,-402.73 257.07,-372.6 206.62,-359.22"/>
<polygon fill="midnightblue" stroke="midnightblue" points="545.07,-257.31 544.57,-246.73 538.36,-255.31 545.07,-257.31"/>
</g>
<!-- Node10 -->
<g id="node10" class="node">
<title>Node10</title>
<g id="a_node10"><a xlink:href="group__grp__force__driver.html#gabbc245b3884ee8d8d3e2a52f25149f78" target="_top" xlink:title="fcn1">
<polygon fill="white" stroke="black" points="410,-246.5 410,-265.5 445,-265.5 445,-246.5 410,-246.5"/>
<text text-anchor="middle" x="427.5" y="-253.5" font-family="Helvetica,sans-Serif" font-size="10.00">fcn1</text>
</a>
</g>
</g>
<!-- Node3&#45;&gt;Node10 -->
<g id="edge14" class="edge">
<title>Node3&#45;&gt;Node10</title>
<path fill="none" stroke="midnightblue" d="M515.69,-242.02C493.13,-245.64 463.55,-250.38 445.29,-253.31"/>
<polygon fill="midnightblue" stroke="midnightblue" points="516.49,-245.44 525.81,-240.4 515.39,-238.52 516.49,-245.44"/>
</g>
<!-- Node11 -->
<g id="node11" class="node">
<title>Node11</title>
<g id="a_node11"><a xlink:href="group__grp__force__driver.html#gaec14f81fbdbedafbc4189489ec8ae178" target="_top" xlink:title="Employs Newton method to find , where &#160;and &#160;is defined in dforce() .">
<polygon fill="white" stroke="black" points="281,-256.5 281,-275.5 329,-275.5 329,-256.5 281,-256.5"/>
<text text-anchor="middle" x="305" y="-263.5" font-family="Helvetica,sans-Serif" font-size="10.00">newton</text>
</a>
</g>
</g>
<!-- Node3&#45;&gt;Node11 -->
<g id="edge41" class="edge">
<title>Node3&#45;&gt;Node11</title>
<path fill="none" stroke="midnightblue" d="M534.57,-255.26C524.35,-268.52 508.57,-285.4 490,-293 438.58,-314.03 419.28,-304.83 365,-293 349.59,-289.64 333.39,-281.88 321.87,-275.54"/>
<polygon fill="midnightblue" stroke="midnightblue" points="537.65,-256.97 540.72,-246.82 532,-252.84 537.65,-256.97"/>
</g>
<!-- Node12 -->
<g id="node12" class="node">
<title>Node12</title>
<g id="a_node12"><a xlink:href="group__grp__force__driver.html#ga8ccd6c7d901872702521d0a0edf95412" target="_top" xlink:title="fcn2">
<polygon fill="white" stroke="black" points="29.5,-280.5 29.5,-299.5 64.5,-299.5 64.5,-280.5 29.5,-280.5"/>
<text text-anchor="middle" x="47" y="-287.5" font-family="Helvetica,sans-Serif" font-size="10.00">fcn2</text>
</a>
</g>
</g>
<!-- Node3&#45;&gt;Node12 -->
<g id="edge26" class="edge">
<title>Node3&#45;&gt;Node12</title>
<path fill="none" stroke="midnightblue" d="M515.53,-231.07C444.83,-219.02 268.7,-196.08 130,-237 101.39,-245.44 73.36,-267.33 58.64,-280.18"/>
<polygon fill="midnightblue" stroke="midnightblue" points="515.12,-234.55 525.57,-232.83 516.33,-227.66 515.12,-234.55"/>
</g>
<!-- Node14 -->
<g id="node14" class="node">
<title>Node14</title>
<g id="a_node14"><a xlink:href="dfp200_8f90.html#a6aca59cf350d7b1941f8389d50945a43" target="_top" xlink:title="get LU Beltrami matrices">
<polygon fill="white" stroke="black" points="365,-170.5 365,-189.5 490,-189.5 490,-170.5 365,-170.5"/>
<text text-anchor="middle" x="427.5" y="-177.5" font-family="Helvetica,sans-Serif" font-size="10.00">get_lu_beltrami_matrices</text>
</a>
</g>
</g>
<!-- Node3&#45;&gt;Node14 -->
<g id="edge27" class="edge">
<title>Node3&#45;&gt;Node14</title>
<path fill="none" stroke="midnightblue" d="M523.23,-222.15C513.17,-216.15 501.2,-209.39 490,-204 478.95,-198.68 466.39,-193.62 455.52,-189.52"/>
<polygon fill="midnightblue" stroke="midnightblue" points="521.5,-225.19 531.86,-227.38 525.13,-219.21 521.5,-225.19"/>
</g>
<!-- Node19 -->
<g id="node19" class="node">
<title>Node19</title>
<g id="a_node19"><a xlink:href="group__grp__diagnostics.html#ga7401b50ec10c6598ee4a8112717a63ec" target="_top" xlink:title="Computes eigenvalues and eigenvectors of derivative matrix, .">
<polygon fill="white" stroke="black" points="282.5,-322.5 282.5,-341.5 327.5,-341.5 327.5,-322.5 282.5,-322.5"/>
<text text-anchor="middle" x="305" y="-329.5" font-family="Helvetica,sans-Serif" font-size="10.00">hesian</text>
</a>
</g>
</g>
<!-- Node3&#45;&gt;Node19 -->
<g id="edge38" class="edge">
<title>Node3&#45;&gt;Node19</title>
<path fill="none" stroke="midnightblue" d="M538.43,-255.99C529.23,-273.98 512.78,-300.1 490,-313 437.74,-342.58 363.65,-339.09 327.51,-335.05"/>
<polygon fill="midnightblue" stroke="midnightblue" points="541.71,-257.26 542.91,-246.74 535.4,-254.22 541.71,-257.26"/>
</g>
<!-- Node20 -->
<g id="node20" class="node">
<title>Node20</title>
<g id="a_node20"><a xlink:href="group__grp__conjugate__gradient.html#ga4d8415226e62a9fdb42b0fd0b464251e" target="_top" xlink:title="Returns the energy functional and it&#39;s derivatives with respect to geometry.">
<polygon fill="white" stroke="black" points="403.5,-0.5 403.5,-19.5 451.5,-19.5 451.5,-0.5 403.5,-0.5"/>
<text text-anchor="middle" x="427.5" y="-7.5" font-family="Helvetica,sans-Serif" font-size="10.00">pc00ab</text>
</a>
</g>
</g>
<!-- Node3&#45;&gt;Node20 -->
<g id="edge42" class="edge">
<title>Node3&#45;&gt;Node20</title>
<path fill="none" stroke="midnightblue" d="M537.25,-218.32C513.2,-172.25 451.66,-54.37 433.57,-19.72"/>
<polygon fill="midnightblue" stroke="midnightblue" points="534.18,-220 541.91,-227.25 540.38,-216.76 534.18,-220"/>
</g>
<!-- Node5 -->
<g id="node5" class="node">
<title>Node5</title>
<g id="a_node5"><a xlink:href="xspech_8f90.html#a9fdc71dffd7c61ee4588a3f80d3ab9ce" target="_top" xlink:title="Main subroutine of SPEC.">
<polygon fill="white" stroke="black" points="281.5,-416.5 281.5,-435.5 328.5,-435.5 328.5,-416.5 281.5,-416.5"/>
<text text-anchor="middle" x="305" y="-423.5" font-family="Helvetica,sans-Serif" font-size="10.00">xspech</text>
</a>
</g>
</g>
<!-- Node4&#45;&gt;Node5 -->
<g id="edge4" class="edge">
<title>Node4&#45;&gt;Node5</title>
<path fill="none" stroke="midnightblue" d="M360.45,-426C349.06,-426 337.95,-426 328.77,-426"/>
<polygon fill="midnightblue" stroke="midnightblue" points="360.48,-429.5 370.48,-426 360.48,-422.5 360.48,-429.5"/>
</g>
<!-- Node5&#45;&gt;Node5 -->
<g id="edge12" class="edge">
<title>Node5&#45;&gt;Node5</title>
<path fill="none" stroke="midnightblue" d="M326.48,-445.4C325.05,-450.31 317.89,-454 305,-454 284.38,-454 278.42,-444.57 287.12,-435.76"/>
<polygon fill="midnightblue" stroke="midnightblue" points="329.66,-443.9 322.88,-435.76 323.1,-446.35 329.66,-443.9"/>
</g>
<!-- Node5&#45;&gt;Node6 -->
<g id="edge5" class="edge">
<title>Node5&#45;&gt;Node6</title>
<path fill="none" stroke="midnightblue" d="M271.8,-431.58C248.93,-438.71 219.35,-449.98 202.29,-458.42"/>
<polygon fill="midnightblue" stroke="midnightblue" points="272.87,-434.92 281.46,-428.72 270.87,-428.21 272.87,-434.92"/>
</g>
<!-- Node5&#45;&gt;Node7 -->
<g id="edge7" class="edge">
<title>Node5&#45;&gt;Node7</title>
<path fill="none" stroke="midnightblue" d="M292.42,-408.29C278.35,-391.84 255.23,-369.97 245,-364 233.02,-357.01 218.1,-352.13 206.6,-350.36"/>
<polygon fill="midnightblue" stroke="midnightblue" points="289.84,-410.67 298.84,-416.28 295.3,-406.29 289.84,-410.67"/>
</g>
<!-- Node9 -->
<g id="node9" class="node">
<title>Node9</title>
<g id="a_node9"><a xlink:href="xspech_8f90.html#a95271e8805067f801b5d4e524d6901d4" target="_top" xlink:title="Main program of SPEC.">
<polygon fill="white" stroke="black" points="155.5,-382.5 155.5,-401.5 219.5,-401.5 219.5,-382.5 155.5,-382.5"/>
<text text-anchor="middle" x="187.5" y="-389.5" font-family="Helvetica,sans-Serif" font-size="10.00">spec_main</text>
</a>
</g>
</g>
<!-- Node5&#45;&gt;Node9 -->
<g id="edge11" class="edge">
<title>Node5&#45;&gt;Node9</title>
<path fill="none" stroke="midnightblue" d="M271.82,-416.53C255.54,-411.74 235.87,-405.94 219.73,-401.19"/>
<polygon fill="midnightblue" stroke="midnightblue" points="270.87,-419.9 281.46,-419.36 272.85,-413.18 270.87,-419.9"/>
</g>
<!-- Node6&#45;&gt;Node5 -->
<g id="edge6" class="edge">
<title>Node6&#45;&gt;Node5</title>
<path fill="none" stroke="midnightblue" d="M241.86,-455.33C259.74,-448.97 278.2,-441.53 290.3,-435.54"/>
<polygon fill="midnightblue" stroke="midnightblue" points="240.32,-452.16 232.02,-458.74 242.62,-458.77 240.32,-452.16"/>
</g>
<!-- Node7&#45;&gt;Node5 -->
<g id="edge10" class="edge">
<title>Node7&#45;&gt;Node5</title>
<path fill="none" stroke="midnightblue" d="M210.8,-367.34C221.58,-371.31 234.43,-375.83 245,-382 253.98,-387.24 272.89,-404.74 286.9,-416.36"/>
<polygon fill="midnightblue" stroke="midnightblue" points="211.84,-363.99 201.25,-363.67 209.32,-370.53 211.84,-363.99"/>
</g>
<!-- Node8 -->
<g id="node8" class="node">
<title>Node8</title>
<g id="a_node8"><a xlink:href="group__grp__output.html#ga0f962c09cd5d5eba99f1cba043cb3898" target="_top" xlink:title="Initialize the interface to the HDF5 library and open the output file.">
<polygon fill="white" stroke="black" points="0,-357.5 0,-376.5 94,-376.5 94,-357.5 0,-357.5"/>
<text text-anchor="middle" x="47" y="-364.5" font-family="Helvetica,sans-Serif" font-size="10.00">sphdf5::init_outfile</text>
</a>
</g>
</g>
<!-- Node7&#45;&gt;Node8 -->
<g id="edge8" class="edge">
<title>Node7&#45;&gt;Node8</title>
<path fill="none" stroke="midnightblue" d="M158.31,-356.65C139.87,-358.38 115.36,-360.68 94.12,-362.67"/>
<polygon fill="midnightblue" stroke="midnightblue" points="158.76,-360.12 168.39,-355.7 158.11,-353.15 158.76,-360.12"/>
</g>
<!-- Node8&#45;&gt;Node5 -->
<g id="edge9" class="edge">
<title>Node8&#45;&gt;Node5</title>
<path fill="none" stroke="midnightblue" d="M70.32,-382.21C86.23,-392.22 108.51,-404.61 130,-411 182.6,-426.65 247.8,-427.67 281.49,-426.92"/>
<polygon fill="midnightblue" stroke="midnightblue" points="72.04,-379.15 61.75,-376.65 68.24,-385.03 72.04,-379.15"/>
</g>
<!-- Node10&#45;&gt;Node10 -->
<g id="edge15" class="edge">
<title>Node10&#45;&gt;Node10</title>
<path fill="none" stroke="midnightblue" d="M450,-273.73C449.8,-279.46 442.3,-284 427.5,-284 405.47,-284 399.62,-273.93 409.94,-264.89"/>
<polygon fill="midnightblue" stroke="midnightblue" points="452.99,-271.91 445.06,-264.89 446.88,-275.33 452.99,-271.91"/>
</g>
<!-- Node10&#45;&gt;Node11 -->
<g id="edge16" class="edge">
<title>Node10&#45;&gt;Node11</title>
<path fill="none" stroke="midnightblue" d="M399.51,-252.5C378.38,-252.82 349.31,-255.32 329.22,-258.62"/>
<polygon fill="midnightblue" stroke="midnightblue" points="399.73,-256 409.74,-252.55 399.76,-249 399.73,-256"/>
</g>
<!-- Node11&#45;&gt;Node7 -->
<g id="edge22" class="edge">
<title>Node11&#45;&gt;Node7</title>
<path fill="none" stroke="midnightblue" d="M289.49,-283.66C278.28,-296.52 261.89,-313.77 245,-326 233.12,-334.61 218.2,-341.87 206.67,-346.85"/>
<polygon fill="midnightblue" stroke="midnightblue" points="292.24,-285.82 296.05,-275.93 286.91,-281.29 292.24,-285.82"/>
</g>
<!-- Node11&#45;&gt;Node10 -->
<g id="edge17" class="edge">
<title>Node11&#45;&gt;Node10</title>
<path fill="none" stroke="midnightblue" d="M339.52,-269.34C362.37,-268.59 391.66,-265.74 409.74,-262.24"/>
<polygon fill="midnightblue" stroke="midnightblue" points="339.15,-265.85 329.22,-269.53 339.28,-272.84 339.15,-265.85"/>
</g>
<!-- Node11&#45;&gt;Node11 -->
<g id="edge21" class="edge">
<title>Node11&#45;&gt;Node11</title>
<path fill="none" stroke="midnightblue" d="M326.48,-285.4C325.05,-290.31 317.89,-294 305,-294 284.38,-294 278.42,-284.57 287.12,-275.76"/>
<polygon fill="midnightblue" stroke="midnightblue" points="329.66,-283.9 322.88,-275.76 323.1,-286.35 329.66,-283.9"/>
</g>
<!-- Node11&#45;&gt;Node12 -->
<g id="edge18" class="edge">
<title>Node11&#45;&gt;Node12</title>
<path fill="none" stroke="midnightblue" d="M270.63,-262.82C262.28,-263.8 253.32,-265.05 245,-266 178.38,-273.61 98.62,-278.34 64.64,-284.17"/>
<polygon fill="midnightblue" stroke="midnightblue" points="271.21,-266.28 280.8,-261.77 270.49,-259.32 271.21,-266.28"/>
</g>
<!-- Node13 -->
<g id="node13" class="node">
<title>Node13</title>
<g id="a_node13"><a xlink:href="group__grp__force__driver.html#ga382822b303cbf8c56d6f54dcb379caf2" target="_top" xlink:title="read or write force&#45;derivative matrix">
<polygon fill="white" stroke="black" points="155,-246.5 155,-265.5 220,-265.5 220,-246.5 155,-246.5"/>
<text text-anchor="middle" x="187.5" y="-253.5" font-family="Helvetica,sans-Serif" font-size="10.00">writereadgf</text>
</a>
</g>
</g>
<!-- Node11&#45;&gt;Node13 -->
<g id="edge23" class="edge">
<title>Node11&#45;&gt;Node13</title>
<path fill="none" stroke="midnightblue" d="M270.96,-256.97C255.05,-254.8 236.05,-253.17 220.3,-252.65"/>
<polygon fill="midnightblue" stroke="midnightblue" points="270.49,-260.44 280.9,-258.47 271.54,-253.52 270.49,-260.44"/>
</g>
<!-- Node12&#45;&gt;Node11 -->
<g id="edge20" class="edge">
<title>Node12&#45;&gt;Node11</title>
<path fill="none" stroke="midnightblue" d="M74.87,-294.58C112.85,-295.47 184.36,-290.92 245,-284 260.44,-282.24 278.04,-279.45 289.97,-275.63"/>
<polygon fill="midnightblue" stroke="midnightblue" points="74.78,-291.07 64.64,-294.15 74.49,-298.06 74.78,-291.07"/>
</g>
<!-- Node12&#45;&gt;Node12 -->
<g id="edge19" class="edge">
<title>Node12&#45;&gt;Node12</title>
<path fill="none" stroke="midnightblue" d="M72.47,-304.41C76,-311.59 67.51,-318 47,-318 19.66,-318 13.67,-306.61 29.06,-297.17"/>
<polygon fill="midnightblue" stroke="midnightblue" points="74.58,-301.58 64.94,-297.17 69.73,-306.62 74.58,-301.58"/>
</g>
<!-- Node13&#45;&gt;Node11 -->
<g id="edge25" class="edge">
<title>Node13&#45;&gt;Node11</title>
<path fill="none" stroke="midnightblue" d="M230.57,-266.17C247.56,-268.14 266.51,-269.45 280.9,-269.53"/>
<polygon fill="midnightblue" stroke="midnightblue" points="230.67,-262.65 220.3,-264.86 229.78,-269.59 230.67,-262.65"/>
</g>
<!-- Node13&#45;&gt;Node12 -->
<g id="edge24" class="edge">
<title>Node13&#45;&gt;Node12</title>
<path fill="none" stroke="midnightblue" d="M144.76,-266.25C117.8,-272.86 84.2,-281.11 64.52,-285.95"/>
<polygon fill="midnightblue" stroke="midnightblue" points="145.85,-269.58 154.73,-263.8 144.18,-262.79 145.85,-269.58"/>
</g>
<!-- Node15 -->
<g id="node15" class="node">
<title>Node15</title>
<g id="a_node15"><a xlink:href="dfp200_8f90.html#a55ea75395f8c71731451e1add3720c7e" target="_top" xlink:title="Given the field consistent with the constraints and the geometry, computes local quantites related to...">
<polygon fill="white" stroke="black" points="282,-132.5 282,-151.5 328,-151.5 328,-132.5 282,-132.5"/>
<text text-anchor="middle" x="305" y="-139.5" font-family="Helvetica,sans-Serif" font-size="10.00">dfp200</text>
</a>
</g>
</g>
<!-- Node14&#45;&gt;Node15 -->
<g id="edge28" class="edge">
<title>Node14&#45;&gt;Node15</title>
<path fill="none" stroke="midnightblue" d="M401.27,-166.43C379.71,-158.04 348.99,-148.43 328.32,-143.66"/>
<polygon fill="midnightblue" stroke="midnightblue" points="400.17,-169.76 410.75,-170.3 402.81,-163.28 400.17,-169.76"/>
</g>
<!-- Node15&#45;&gt;Node3 -->
<g id="edge29" class="edge">
<title>Node15&#45;&gt;Node3</title>
<path fill="none" stroke="midnightblue" d="M338.25,-137.89C376.93,-134.55 442.49,-134.1 490,-161 517.13,-176.36 535.27,-210.46 542.91,-227.26"/>
<polygon fill="midnightblue" stroke="midnightblue" points="337.7,-134.42 328.09,-138.88 338.38,-141.39 337.7,-134.42"/>
</g>
<!-- Node15&#45;&gt;Node14 -->
<g id="edge35" class="edge">
<title>Node15&#45;&gt;Node14</title>
<path fill="none" stroke="midnightblue" d="M330.78,-155.39C343.58,-160.39 359.7,-165.85 375.05,-170.46"/>
<polygon fill="midnightblue" stroke="midnightblue" points="331.88,-152.06 321.3,-151.5 329.22,-158.54 331.88,-152.06"/>
</g>
<!-- Node15&#45;&gt;Node15 -->
<g id="edge30" class="edge">
<title>Node15&#45;&gt;Node15</title>
<path fill="none" stroke="midnightblue" d="M326.48,-161.4C325.05,-166.31 317.89,-170 305,-170 284.38,-170 278.42,-160.57 287.12,-151.76"/>
<polygon fill="midnightblue" stroke="midnightblue" points="329.66,-159.9 322.88,-151.76 323.1,-162.35 329.66,-159.9"/>
</g>
<!-- Node16 -->
<g id="node16" class="node">
<title>Node16</title>
<g id="a_node16"><a xlink:href="dfp200_8f90.html#a7b64c7392b45d0042d8bd7379c0761a5" target="_top" xlink:title="Evaluate the derivative of the square of the magnetic field modulus. Add spectral constraint derivati...">
<polygon fill="white" stroke="black" points="150.5,-170.5 150.5,-189.5 224.5,-189.5 224.5,-170.5 150.5,-170.5"/>
<text text-anchor="middle" x="187.5" y="-177.5" font-family="Helvetica,sans-Serif" font-size="10.00">evaluate_dbb</text>
</a>
</g>
</g>
<!-- Node15&#45;&gt;Node16 -->
<g id="edge31" class="edge">
<title>Node15&#45;&gt;Node16</title>
<path fill="none" stroke="midnightblue" d="M271.95,-146.43C249.52,-152.63 220.6,-162.61 203.36,-170.41"/>
<polygon fill="midnightblue" stroke="midnightblue" points="272.94,-149.79 281.73,-143.87 271.17,-143.01 272.94,-149.79"/>
</g>
<!-- Node15&#45;&gt;Node17 -->
<g id="edge33" class="edge">
<title>Node15&#45;&gt;Node17</title>
<path fill="none" stroke="midnightblue" d="M279.35,-128.24C266.45,-123.03 250.22,-117.36 235.06,-112.68"/>
<polygon fill="midnightblue" stroke="midnightblue" points="278.33,-131.61 288.9,-132.3 281.07,-125.17 278.33,-131.61"/>
</g>
<!-- Node18 -->
<g id="node18" class="node">
<title>Node18</title>
<g id="a_node18"><a xlink:href="dfp200_8f90.html#a5e56f1f4b1e6df11a9cffa6237c37469" target="_top" xlink:title="This routine evaluates the value of the magnetic field once the interface is perturbed using matrix p...">
<polygon fill="white" stroke="black" points="130,-132.5 130,-151.5 245,-151.5 245,-132.5 130,-132.5"/>
<text text-anchor="middle" x="187.5" y="-139.5" font-family="Helvetica,sans-Serif" font-size="10.00">get_perturbed_solution</text>
</a>
</g>
</g>
<!-- Node15&#45;&gt;Node18 -->
<g id="edge36" class="edge">
<title>Node15&#45;&gt;Node18</title>
<path fill="none" stroke="midnightblue" d="M271.51,-135.86C263.3,-135.44 254.25,-135.23 245.23,-135.25"/>
<polygon fill="midnightblue" stroke="midnightblue" points="271.52,-139.37 281.73,-136.54 271.99,-132.38 271.52,-139.37"/>
</g>
<!-- Node16&#45;&gt;Node15 -->
<g id="edge32" class="edge">
<title>Node16&#45;&gt;Node15</title>
<path fill="none" stroke="midnightblue" d="M234.59,-171.46C253.93,-165.52 275.09,-157.92 288.9,-151.7"/>
<polygon fill="midnightblue" stroke="midnightblue" points="233.57,-168.11 224.99,-174.32 235.57,-174.82 233.57,-168.11"/>
</g>
<!-- Node17&#45;&gt;Node15 -->
<g id="edge34" class="edge">
<title>Node17&#45;&gt;Node15</title>
<path fill="none" stroke="midnightblue" d="M212.59,-117.53C232.96,-125.81 261.9,-135.28 281.73,-140.13"/>
<polygon fill="midnightblue" stroke="midnightblue" points="213.93,-114.3 203.36,-113.59 211.19,-120.74 213.93,-114.3"/>
</g>
<!-- Node18&#45;&gt;Node15 -->
<g id="edge37" class="edge">
<title>Node18&#45;&gt;Node15</title>
<path fill="none" stroke="midnightblue" d="M255.23,-148.68C264.76,-148.52 273.95,-148.11 281.73,-147.46"/>
<polygon fill="midnightblue" stroke="midnightblue" points="255.21,-145.18 245.23,-148.75 255.26,-152.18 255.21,-145.18"/>
</g>
<!-- Node19&#45;&gt;Node7 -->
<g id="edge40" class="edge">
<title>Node19&#45;&gt;Node7</title>
<path fill="none" stroke="midnightblue" d="M272.17,-338.06C251.1,-342.08 224.23,-347.19 206.71,-350.53"/>
<polygon fill="midnightblue" stroke="midnightblue" points="273.11,-341.45 282.28,-336.14 271.8,-334.57 273.11,-341.45"/>
</g>
<!-- Node19&#45;&gt;Node19 -->
<g id="edge39" class="edge">
<title>Node19&#45;&gt;Node19</title>
<path fill="none" stroke="midnightblue" d="M326.48,-351.4C325.05,-356.31 317.89,-360 305,-360 284.38,-360 278.42,-350.57 287.12,-341.76"/>
<polygon fill="midnightblue" stroke="midnightblue" points="329.66,-349.9 322.88,-341.76 323.1,-352.35 329.66,-349.9"/>
</g>
<!-- Node20&#45;&gt;Node20 -->
<g id="edge45" class="edge">
<title>Node20&#45;&gt;Node20</title>
<path fill="none" stroke="midnightblue" d="M449.82,-29.03C448.6,-34.13 441.16,-38 427.5,-38 406.17,-38 400.01,-28.57 409,-19.76"/>
<polygon fill="midnightblue" stroke="midnightblue" points="453.05,-27.67 446,-19.76 446.57,-30.34 453.05,-27.67"/>
</g>
<!-- Node21 -->
<g id="node21" class="node">
<title>Node21</title>
<g id="a_node21"><a xlink:href="group__grp__conjugate__gradient.html#ga25a3bae2ff2ee0469b045de0d033398b" target="_top" xlink:title="Use preconditioned conjugate gradient method to find minimum of energy functional.">
<polygon fill="white" stroke="black" points="281,-0.5 281,-19.5 329,-19.5 329,-0.5 281,-0.5"/>
<text text-anchor="middle" x="305" y="-7.5" font-family="Helvetica,sans-Serif" font-size="10.00">pc00aa</text>
</a>
</g>
</g>
<!-- Node20&#45;&gt;Node21 -->
<g id="edge43" class="edge">
<title>Node20&#45;&gt;Node21</title>
<path fill="none" stroke="midnightblue" d="M393.16,-10C372.81,-10 347.31,-10 329.16,-10"/>
<polygon fill="midnightblue" stroke="midnightblue" points="393.27,-13.5 403.27,-10 393.27,-6.5 393.27,-13.5"/>
</g>
<!-- Node21&#45;&gt;Node21 -->
<g id="edge44" class="edge">
<title>Node21&#45;&gt;Node21</title>
<path fill="none" stroke="midnightblue" d="M326.48,-29.4C325.05,-34.31 317.89,-38 305,-38 284.38,-38 278.42,-28.57 287.12,-19.76"/>
<polygon fill="midnightblue" stroke="midnightblue" points="329.66,-27.9 322.88,-19.76 323.1,-30.35 329.66,-27.9"/>
</g>
</g>
</svg>
