<?xml version="1.0" encoding="UTF-8" standalone="no"?>
<!DOCTYPE svg PUBLIC "-//W3C//DTD SVG 1.1//EN"
 "http://www.w3.org/Graphics/SVG/1.1/DTD/svg11.dtd">
<!-- Generated by graphviz version 2.47.1 (20210421.1823)
 -->
<!-- Title: deallocate_geometry_matrices Pages: 1 -->
<svg width="836pt" height="506pt"
 viewBox="0.00 0.00 836.00 506.34" xmlns="http://www.w3.org/2000/svg" xmlns:xlink="http://www.w3.org/1999/xlink">
<g id="graph0" class="graph" transform="scale(1 1) rotate(0) translate(4 502.34)">
<title>deallocate_geometry_matrices</title>
<polygon fill="white" stroke="transparent" points="-4,4 -4,-502.34 832,-502.34 832,4 -4,4"/>
<!-- Node1 -->
<g id="node1" class="node">
<title>Node1</title>
<g id="a_node1"><a xlink:title="deallocate geometry matrices">
<polygon fill="#bfbfbf" stroke="black" points="722,-445.34 722,-475.34 828,-475.34 828,-445.34 722,-445.34"/>
<text text-anchor="start" x="730" y="-463.34" font-family="Helvetica,sans-Serif" font-size="10.00">deallocate_geometry</text>
<text text-anchor="middle" x="775" y="-452.34" font-family="Helvetica,sans-Serif" font-size="10.00">_matrices</text>
</a>
</g>
</g>
<!-- Node2 -->
<g id="node2" class="node">
<title>Node2</title>
<g id="a_node2"><a xlink:href="dfp100_8f90.html#a17a3ac15cc83994394f7b4cc05e5898e" target="_top" xlink:title="Split the work between MPI nodes and evaluate the global constraint.">
<polygon fill="white" stroke="black" points="640,-450.84 640,-469.84 686,-469.84 686,-450.84 640,-450.84"/>
<text text-anchor="middle" x="663" y="-457.84" font-family="Helvetica,sans-Serif" font-size="10.00">dfp100</text>
</a>
</g>
</g>
<!-- Node1&#45;&gt;Node2 -->
<g id="edge1" class="edge">
<title>Node1&#45;&gt;Node2</title>
<path fill="none" stroke="midnightblue" d="M711.61,-460.34C702.56,-460.34 693.77,-460.34 686.27,-460.34"/>
<polygon fill="midnightblue" stroke="midnightblue" points="711.9,-463.84 721.9,-460.34 711.9,-456.84 711.9,-463.84"/>
</g>
<!-- Node11 -->
<g id="node11" class="node">
<title>Node11</title>
<g id="a_node11"><a xlink:href="dfp200_8f90.html#a55ea75395f8c71731451e1add3720c7e" target="_top" xlink:title="Given the field consistent with the constraints and the geometry, computes local quantites related to...">
<polygon fill="white" stroke="black" points="316,-383.84 316,-402.84 362,-402.84 362,-383.84 316,-383.84"/>
<text text-anchor="middle" x="339" y="-390.84" font-family="Helvetica,sans-Serif" font-size="10.00">dfp200</text>
</a>
</g>
</g>
<!-- Node1&#45;&gt;Node11 -->
<g id="edge37" class="edge">
<title>Node1&#45;&gt;Node11</title>
<path fill="none" stroke="midnightblue" d="M711.57,-446.26C703,-444.5 694.3,-442.81 686,-441.34 564.48,-419.82 417.52,-402.19 362.35,-395.86"/>
<polygon fill="midnightblue" stroke="midnightblue" points="711.04,-449.72 721.54,-448.34 712.47,-442.87 711.04,-449.72"/>
</g>
<!-- Node13 -->
<g id="node13" class="node">
<title>Node13</title>
<g id="a_node13"><a xlink:href="dfp200_8f90.html#a73ddf39ecc5228201fb643779e17cd36" target="_top" xlink:title="Evaluate mu and psip derivatives and store them in dmupfdx.">
<polygon fill="white" stroke="black" points="174,-445.84 174,-464.84 269,-464.84 269,-445.84 174,-445.84"/>
<text text-anchor="middle" x="221.5" y="-452.84" font-family="Helvetica,sans-Serif" font-size="10.00">evaluate_dmupfdx</text>
</a>
</g>
</g>
<!-- Node1&#45;&gt;Node13 -->
<g id="edge38" class="edge">
<title>Node1&#45;&gt;Node13</title>
<path fill="none" stroke="midnightblue" d="M716.1,-478C678.53,-487.93 628.31,-498.34 583,-498.34 583,-498.34 583,-498.34 460.5,-498.34 385.76,-498.34 299.89,-477.55 254.5,-464.88"/>
<polygon fill="midnightblue" stroke="midnightblue" points="717.12,-481.35 725.85,-475.36 715.29,-474.6 717.12,-481.35"/>
</g>
<!-- Node3 -->
<g id="node3" class="node">
<title>Node3</title>
<g id="a_node3"><a xlink:href="group__grp__global__force.html#ga38c9d3c50bd043707fefa5137c9dbf44" target="_top" xlink:title="Calculates , where &#160;and , and .">
<polygon fill="white" stroke="black" points="560,-241.84 560,-260.84 604,-260.84 604,-241.84 560,-241.84"/>
<text text-anchor="middle" x="582" y="-248.84" font-family="Helvetica,sans-Serif" font-size="10.00">dforce</text>
</a>
</g>
</g>
<!-- Node2&#45;&gt;Node3 -->
<g id="edge2" class="edge">
<title>Node2&#45;&gt;Node3</title>
<path fill="none" stroke="midnightblue" d="M654.86,-441.45C638.51,-398.19 598.81,-293.17 586.62,-260.92"/>
<polygon fill="midnightblue" stroke="midnightblue" points="651.59,-442.7 658.4,-450.82 658.14,-440.23 651.59,-442.7"/>
</g>
<!-- Node2&#45;&gt;Node13 -->
<g id="edge36" class="edge">
<title>Node2&#45;&gt;Node13</title>
<path fill="none" stroke="midnightblue" d="M629.88,-459.98C553.17,-459.1 359.02,-456.89 269.29,-455.87"/>
<polygon fill="midnightblue" stroke="midnightblue" points="629.86,-463.48 639.9,-460.09 629.94,-456.48 629.86,-463.48"/>
</g>
<!-- Node4 -->
<g id="node4" class="node">
<title>Node4</title>
<g id="a_node4"><a xlink:href="group__grp__force__driver.html#gabbc245b3884ee8d8d3e2a52f25149f78" target="_top" xlink:title="fcn1">
<polygon fill="white" stroke="black" points="444,-70.84 444,-89.84 479,-89.84 479,-70.84 444,-70.84"/>
<text text-anchor="middle" x="461.5" y="-77.84" font-family="Helvetica,sans-Serif" font-size="10.00">fcn1</text>
</a>
</g>
</g>
<!-- Node3&#45;&gt;Node4 -->
<g id="edge3" class="edge">
<title>Node3&#45;&gt;Node4</title>
<path fill="none" stroke="midnightblue" d="M575.96,-232.03C568.26,-205.33 551.48,-156.66 524,-123.34 511.56,-108.27 492.59,-96.1 479,-88.6"/>
<polygon fill="midnightblue" stroke="midnightblue" points="572.6,-233.01 578.64,-241.72 579.35,-231.15 572.6,-233.01"/>
</g>
<!-- Node5 -->
<g id="node5" class="node">
<title>Node5</title>
<g id="a_node5"><a xlink:href="group__grp__force__driver.html#gaec14f81fbdbedafbc4189489ec8ae178" target="_top" xlink:title="Employs Newton method to find , where &#160;and &#160;is defined in dforce() .">
<polygon fill="white" stroke="black" points="315,-70.84 315,-89.84 363,-89.84 363,-70.84 315,-70.84"/>
<text text-anchor="middle" x="339" y="-77.84" font-family="Helvetica,sans-Serif" font-size="10.00">newton</text>
</a>
</g>
</g>
<!-- Node3&#45;&gt;Node5 -->
<g id="edge27" class="edge">
<title>Node3&#45;&gt;Node5</title>
<path fill="none" stroke="midnightblue" d="M570.26,-232.51C560.04,-215.85 543.37,-191.72 524,-175.34 473.35,-132.51 400.14,-102.07 363.19,-88.41"/>
<polygon fill="midnightblue" stroke="midnightblue" points="567.39,-234.53 575.51,-241.34 573.41,-230.95 567.39,-234.53"/>
</g>
<!-- Node6 -->
<g id="node6" class="node">
<title>Node6</title>
<g id="a_node6"><a xlink:href="group__grp__force__driver.html#ga8ccd6c7d901872702521d0a0edf95412" target="_top" xlink:title="fcn2">
<polygon fill="white" stroke="black" points="87,-23.84 87,-42.84 122,-42.84 122,-23.84 87,-23.84"/>
<text text-anchor="middle" x="104.5" y="-30.84" font-family="Helvetica,sans-Serif" font-size="10.00">fcn2</text>
</a>
</g>
</g>
<!-- Node3&#45;&gt;Node6 -->
<g id="edge14" class="edge">
<title>Node3&#45;&gt;Node6</title>
<path fill="none" stroke="midnightblue" d="M581.67,-231.25C581.77,-191.71 575.8,-103.96 524,-61.34 401.42,39.52 184.13,-11.09 122.32,-28.34"/>
<polygon fill="midnightblue" stroke="midnightblue" points="578.16,-231.4 581.5,-241.46 585.16,-231.52 578.16,-231.4"/>
</g>
<!-- Node8 -->
<g id="node8" class="node">
<title>Node8</title>
<g id="a_node8"><a xlink:href="xspech_8f90.html#aea782eae089760a491c2c54f9903abcc" target="_top" xlink:title="Main program of SPEC.">
<polygon fill="white" stroke="black" points="81,-184.84 81,-203.84 128,-203.84 128,-184.84 81,-184.84"/>
<text text-anchor="middle" x="104.5" y="-191.84" font-family="Helvetica,sans-Serif" font-size="10.00">xspech</text>
</a>
</g>
</g>
<!-- Node3&#45;&gt;Node8 -->
<g id="edge35" class="edge">
<title>Node3&#45;&gt;Node8</title>
<path fill="none" stroke="midnightblue" d="M549.79,-259.2C478.19,-275.61 298,-307.5 164,-251.34 140.72,-241.59 121.53,-217.84 112,-204.27"/>
<polygon fill="midnightblue" stroke="midnightblue" points="551,-262.51 559.93,-256.81 549.4,-255.7 551,-262.51"/>
</g>
<!-- Node10 -->
<g id="node10" class="node">
<title>Node10</title>
<g id="a_node10"><a xlink:href="dfp200_8f90.html#a6aca59cf350d7b1941f8389d50945a43" target="_top" xlink:title="get LU Beltrami matrices">
<polygon fill="white" stroke="black" points="399,-336.84 399,-355.84 524,-355.84 524,-336.84 399,-336.84"/>
<text text-anchor="middle" x="461.5" y="-343.84" font-family="Helvetica,sans-Serif" font-size="10.00">get_lu_beltrami_matrices</text>
</a>
</g>
</g>
<!-- Node3&#45;&gt;Node10 -->
<g id="edge15" class="edge">
<title>Node3&#45;&gt;Node10</title>
<path fill="none" stroke="midnightblue" d="M571.39,-270.19C561.67,-287.45 545.08,-312.5 524,-327.34 518.52,-331.2 512.23,-334.3 505.81,-336.77"/>
<polygon fill="midnightblue" stroke="midnightblue" points="574.65,-271.52 576.31,-261.06 568.48,-268.21 574.65,-271.52"/>
</g>
<!-- Node15 -->
<g id="node15" class="node">
<title>Node15</title>
<g id="a_node15"><a xlink:href="group__grp__diagnostics.html#ga7401b50ec10c6598ee4a8112717a63ec" target="_top" xlink:title="Computes eigenvalues and eigenvectors of derivative matrix, .">
<polygon fill="white" stroke="black" points="199,-222.84 199,-241.84 244,-241.84 244,-222.84 199,-222.84"/>
<text text-anchor="middle" x="221.5" y="-229.84" font-family="Helvetica,sans-Serif" font-size="10.00">hesian</text>
</a>
</g>
</g>
<!-- Node3&#45;&gt;Node15 -->
<g id="edge25" class="edge">
<title>Node3&#45;&gt;Node15</title>
<path fill="none" stroke="midnightblue" d="M549.77,-249.69C478.5,-245.91 305.29,-236.73 244.24,-233.49"/>
<polygon fill="midnightblue" stroke="midnightblue" points="549.74,-253.19 559.91,-250.22 550.11,-246.2 549.74,-253.19"/>
</g>
<!-- Node16 -->
<g id="node16" class="node">
<title>Node16</title>
<g id="a_node16"><a xlink:href="group__grp__conjugate__gradient.html#ga4d8415226e62a9fdb42b0fd0b464251e" target="_top" xlink:title="Returns the energy functional and it&#39;s derivatives with respect to geometry.">
<polygon fill="white" stroke="black" points="437.5,-298.84 437.5,-317.84 485.5,-317.84 485.5,-298.84 437.5,-298.84"/>
<text text-anchor="middle" x="461.5" y="-305.84" font-family="Helvetica,sans-Serif" font-size="10.00">pc00ab</text>
</a>
</g>
</g>
<!-- Node3&#45;&gt;Node16 -->
<g id="edge28" class="edge">
<title>Node3&#45;&gt;Node16</title>
<path fill="none" stroke="midnightblue" d="M557.23,-266.19C547.17,-272.19 535.2,-278.95 524,-284.34 511.61,-290.3 497.32,-295.95 485.64,-300.27"/>
<polygon fill="midnightblue" stroke="midnightblue" points="559.13,-269.14 565.86,-260.96 555.5,-263.15 559.13,-269.14"/>
</g>
<!-- Node18 -->
<g id="node18" class="node">
<title>Node18</title>
<g id="a_node18"><a xlink:href="namespaceallglobal.html#ad32ae6194892fe7d876622a6455189e2" target="_top" xlink:title="The master node reads the input namelist and sets various internal variables. The relevant quantities...">
<polygon fill="white" stroke="black" points="420,-184.84 420,-203.84 503,-203.84 503,-184.84 420,-184.84"/>
<text text-anchor="middle" x="461.5" y="-191.84" font-family="Helvetica,sans-Serif" font-size="10.00">allglobal::readin</text>
</a>
</g>
</g>
<!-- Node3&#45;&gt;Node18 -->
<g id="edge30" class="edge">
<title>Node3&#45;&gt;Node18</title>
<path fill="none" stroke="midnightblue" d="M557.23,-236.49C547.17,-230.5 535.2,-223.73 524,-218.34 512.95,-213.02 500.39,-207.96 489.52,-203.86"/>
<polygon fill="midnightblue" stroke="midnightblue" points="555.5,-239.53 565.86,-241.73 559.13,-233.55 555.5,-239.53"/>
</g>
<!-- Node4&#45;&gt;Node5 -->
<g id="edge4" class="edge">
<title>Node4&#45;&gt;Node5</title>
<path fill="none" stroke="midnightblue" d="M433.51,-74.6C412.38,-73.17 383.31,-73.26 363.22,-74.89"/>
<polygon fill="midnightblue" stroke="midnightblue" points="433.48,-78.12 443.74,-75.5 434.09,-71.14 433.48,-78.12"/>
</g>
<!-- Node5&#45;&gt;Node4 -->
<g id="edge5" class="edge">
<title>Node5&#45;&gt;Node4</title>
<path fill="none" stroke="midnightblue" d="M373.21,-86.45C396.11,-87.62 425.58,-87.2 443.74,-85.19"/>
<polygon fill="midnightblue" stroke="midnightblue" points="373.42,-82.95 363.22,-85.8 372.97,-89.94 373.42,-82.95"/>
</g>
<!-- Node5&#45;&gt;Node6 -->
<g id="edge6" class="edge">
<title>Node5&#45;&gt;Node6</title>
<path fill="none" stroke="midnightblue" d="M319.87,-65.98C308.3,-60.69 292.92,-55.69 279,-52.34 222.34,-38.73 153.65,-29.84 122.42,-29.95"/>
<polygon fill="midnightblue" stroke="midnightblue" points="318.44,-69.18 328.92,-70.67 321.66,-62.96 318.44,-69.18"/>
</g>
<!-- Node7 -->
<g id="node7" class="node">
<title>Node7</title>
<g id="a_node7"><a xlink:href="group__grp__force__driver.html#ga382822b303cbf8c56d6f54dcb379caf2" target="_top" xlink:title="read or write force&#45;derivative matrix">
<polygon fill="white" stroke="black" points="189,-70.84 189,-89.84 254,-89.84 254,-70.84 189,-70.84"/>
<text text-anchor="middle" x="221.5" y="-77.84" font-family="Helvetica,sans-Serif" font-size="10.00">writereadgf</text>
</a>
</g>
</g>
<!-- Node5&#45;&gt;Node7 -->
<g id="edge8" class="edge">
<title>Node5&#45;&gt;Node7</title>
<path fill="none" stroke="midnightblue" d="M304.5,-74.15C288.69,-73.38 269.9,-73.41 254.3,-74.24"/>
<polygon fill="midnightblue" stroke="midnightblue" points="304.7,-77.67 314.9,-74.82 305.15,-70.69 304.7,-77.67"/>
</g>
<!-- Node5&#45;&gt;Node8 -->
<g id="edge11" class="edge">
<title>Node5&#45;&gt;Node8</title>
<path fill="none" stroke="midnightblue" d="M304.96,-91.35C258.06,-107.1 176.47,-134.96 164,-142.34 144.12,-154.11 124.85,-173.18 114.14,-184.66"/>
<polygon fill="midnightblue" stroke="midnightblue" points="306.31,-94.59 314.68,-88.1 304.09,-87.95 306.31,-94.59"/>
</g>
<!-- Node6&#45;&gt;Node5 -->
<g id="edge7" class="edge">
<title>Node6&#45;&gt;Node5</title>
<path fill="none" stroke="midnightblue" d="M132.59,-42.68C166.95,-49.62 227.87,-58.06 279,-70.34 291.03,-73.23 304.16,-77.36 314.97,-80.21"/>
<polygon fill="midnightblue" stroke="midnightblue" points="132.93,-39.17 122.42,-40.47 131.45,-46.01 132.93,-39.17"/>
</g>
<!-- Node7&#45;&gt;Node5 -->
<g id="edge10" class="edge">
<title>Node7&#45;&gt;Node5</title>
<path fill="none" stroke="midnightblue" d="M264.57,-86.87C281.56,-87.37 300.51,-87.03 314.9,-85.87"/>
<polygon fill="midnightblue" stroke="midnightblue" points="264.44,-83.36 254.3,-86.45 264.15,-90.35 264.44,-83.36"/>
</g>
<!-- Node7&#45;&gt;Node6 -->
<g id="edge9" class="edge">
<title>Node7&#45;&gt;Node6</title>
<path fill="none" stroke="midnightblue" d="M187.82,-66.99C166.35,-58.21 139.16,-47.1 122.05,-40.1"/>
<polygon fill="midnightblue" stroke="midnightblue" points="186.65,-70.29 197.23,-70.83 189.3,-63.81 186.65,-70.29"/>
</g>
<!-- Node9 -->
<g id="node9" class="node">
<title>Node9</title>
<g id="a_node9"><a xlink:href="xspech_8f90.html#a537af4990058c0b0f2cd8b3669af204f" target="_top" xlink:title="todo remark">
<polygon fill="white" stroke="black" points="0,-184.84 0,-203.84 45,-203.84 45,-184.84 0,-184.84"/>
<text text-anchor="middle" x="22.5" y="-191.84" font-family="Helvetica,sans-Serif" font-size="10.00">ending</text>
</a>
</g>
</g>
<!-- Node8&#45;&gt;Node9 -->
<g id="edge12" class="edge">
<title>Node8&#45;&gt;Node9</title>
<path fill="none" stroke="midnightblue" d="M70.65,-187.69C62.06,-187.45 53.01,-187.65 45.17,-188.27"/>
<polygon fill="midnightblue" stroke="midnightblue" points="70.63,-191.19 80.79,-188.19 70.97,-184.2 70.63,-191.19"/>
</g>
<!-- Node9&#45;&gt;Node8 -->
<g id="edge13" class="edge">
<title>Node9&#45;&gt;Node8</title>
<path fill="none" stroke="midnightblue" d="M55.22,-200.96C63.77,-201.23 72.84,-201.08 80.79,-200.5"/>
<polygon fill="midnightblue" stroke="midnightblue" points="55.34,-197.46 45.17,-200.42 54.96,-204.45 55.34,-197.46"/>
</g>
<!-- Node10&#45;&gt;Node11 -->
<g id="edge16" class="edge">
<title>Node10&#45;&gt;Node11</title>
<path fill="none" stroke="midnightblue" d="M409.72,-359.47C389.1,-367.19 366.95,-376.58 353.28,-383.74"/>
<polygon fill="midnightblue" stroke="midnightblue" points="411.18,-362.67 419.37,-355.95 408.77,-356.09 411.18,-362.67"/>
</g>
<!-- Node11&#45;&gt;Node3 -->
<g id="edge17" class="edge">
<title>Node11&#45;&gt;Node3</title>
<path fill="none" stroke="midnightblue" d="M372.4,-396.87C412,-399.43 479.25,-397.91 524,-365.34 560.14,-339.04 574.74,-283.27 579.29,-260.91"/>
<polygon fill="midnightblue" stroke="midnightblue" points="372.49,-393.37 362.25,-396.08 371.95,-400.35 372.49,-393.37"/>
</g>
<!-- Node11&#45;&gt;Node10 -->
<g id="edge22" class="edge">
<title>Node11&#45;&gt;Node10</title>
<path fill="none" stroke="midnightblue" d="M372.05,-386.89C396.57,-378.64 429.16,-365.4 447.14,-355.98"/>
<polygon fill="midnightblue" stroke="midnightblue" points="370.87,-383.59 362.42,-389.99 373.02,-390.25 370.87,-383.59"/>
</g>
<!-- Node12 -->
<g id="node12" class="node">
<title>Node12</title>
<g id="a_node12"><a xlink:href="dfp200_8f90.html#a7b64c7392b45d0042d8bd7379c0761a5" target="_top" xlink:title="Evaluate the derivative of the square of the magnetic field modulus. Add spectral constraint derivati...">
<polygon fill="white" stroke="black" points="184.5,-364.84 184.5,-383.84 258.5,-383.84 258.5,-364.84 184.5,-364.84"/>
<text text-anchor="middle" x="221.5" y="-371.84" font-family="Helvetica,sans-Serif" font-size="10.00">evaluate_dbb</text>
</a>
</g>
</g>
<!-- Node11&#45;&gt;Node12 -->
<g id="edge18" class="edge">
<title>Node11&#45;&gt;Node12</title>
<path fill="none" stroke="midnightblue" d="M305.66,-381.89C291.08,-378.74 273.81,-375.83 258.79,-373.99"/>
<polygon fill="midnightblue" stroke="midnightblue" points="305.2,-385.38 315.73,-384.22 306.78,-378.56 305.2,-385.38"/>
</g>
<!-- Node11&#45;&gt;Node13 -->
<g id="edge20" class="edge">
<title>Node11&#45;&gt;Node13</title>
<path fill="none" stroke="midnightblue" d="M307.01,-406.06C298.15,-411.43 288.35,-417.39 279,-422.34 262.8,-430.92 242.86,-438.8 231.52,-445.79"/>
<polygon fill="midnightblue" stroke="midnightblue" points="309.08,-408.9 315.85,-400.74 305.47,-402.9 309.08,-408.9"/>
</g>
<!-- Node14 -->
<g id="node14" class="node">
<title>Node14</title>
<g id="a_node14"><a xlink:href="dfp200_8f90.html#a5e56f1f4b1e6df11a9cffa6237c37469" target="_top" xlink:title="This routine evaluates the value of the magnetic field once the interface is perturbed using matrix p...">
<polygon fill="white" stroke="black" points="164,-402.84 164,-421.84 279,-421.84 279,-402.84 164,-402.84"/>
<text text-anchor="middle" x="221.5" y="-409.84" font-family="Helvetica,sans-Serif" font-size="10.00">get_perturbed_solution</text>
</a>
</g>
</g>
<!-- Node11&#45;&gt;Node14 -->
<g id="edge23" class="edge">
<title>Node11&#45;&gt;Node14</title>
<path fill="none" stroke="midnightblue" d="M305.59,-392.54C286.9,-394.65 263.79,-398.62 246.69,-402.75"/>
<polygon fill="midnightblue" stroke="midnightblue" points="306.12,-396 315.73,-391.55 305.44,-389.04 306.12,-396"/>
</g>
<!-- Node12&#45;&gt;Node11 -->
<g id="edge19" class="edge">
<title>Node12&#45;&gt;Node11</title>
<path fill="none" stroke="midnightblue" d="M256.53,-386.16C275.64,-390.21 298.95,-393.79 315.73,-395.14"/>
<polygon fill="midnightblue" stroke="midnightblue" points="257.22,-382.72 246.69,-383.94 255.68,-389.55 257.22,-382.72"/>
</g>
<!-- Node13&#45;&gt;Node11 -->
<g id="edge21" class="edge">
<title>Node13&#45;&gt;Node11</title>
<path fill="none" stroke="midnightblue" d="M277.35,-441.2C277.91,-440.92 278.46,-440.63 279,-440.34 299.24,-429.62 321.57,-414.15 332.01,-403.13"/>
<polygon fill="midnightblue" stroke="midnightblue" points="275.58,-438.17 268.15,-445.72 278.67,-444.46 275.58,-438.17"/>
</g>
<!-- Node14&#45;&gt;Node11 -->
<g id="edge24" class="edge">
<title>Node14&#45;&gt;Node11</title>
<path fill="none" stroke="midnightblue" d="M289.23,-408.04C298.76,-406.32 307.95,-404.4 315.73,-402.46"/>
<polygon fill="midnightblue" stroke="midnightblue" points="288.5,-404.62 279.23,-409.76 289.68,-411.51 288.5,-404.62"/>
</g>
<!-- Node15&#45;&gt;Node8 -->
<g id="edge26" class="edge">
<title>Node15&#45;&gt;Node8</title>
<path fill="none" stroke="midnightblue" d="M189.3,-222.03C170.01,-215.66 145.68,-207.62 128.21,-201.85"/>
<polygon fill="midnightblue" stroke="midnightblue" points="188.28,-225.38 198.87,-225.19 190.47,-218.73 188.28,-225.38"/>
</g>
<!-- Node17 -->
<g id="node17" class="node">
<title>Node17</title>
<g id="a_node17"><a xlink:href="group__grp__conjugate__gradient.html#ga25a3bae2ff2ee0469b045de0d033398b" target="_top" xlink:title="Use preconditioned conjugate gradient method to find minimum of energy functional.">
<polygon fill="white" stroke="black" points="315,-298.84 315,-317.84 363,-317.84 363,-298.84 315,-298.84"/>
<text text-anchor="middle" x="339" y="-305.84" font-family="Helvetica,sans-Serif" font-size="10.00">pc00aa</text>
</a>
</g>
</g>
<!-- Node16&#45;&gt;Node17 -->
<g id="edge29" class="edge">
<title>Node16&#45;&gt;Node17</title>
<path fill="none" stroke="midnightblue" d="M427.16,-308.34C406.81,-308.34 381.31,-308.34 363.16,-308.34"/>
<polygon fill="midnightblue" stroke="midnightblue" points="427.27,-311.84 437.27,-308.34 427.27,-304.84 427.27,-311.84"/>
</g>
<!-- Node18&#45;&gt;Node8 -->
<g id="edge34" class="edge">
<title>Node18&#45;&gt;Node8</title>
<path fill="none" stroke="midnightblue" d="M411.11,-182.8C395.78,-179.74 378.77,-176.86 363,-175.34 276.44,-166.99 173.2,-182.21 128.26,-190.07"/>
<polygon fill="midnightblue" stroke="midnightblue" points="410.4,-186.23 420.91,-184.83 411.82,-179.38 410.4,-186.23"/>
</g>
<!-- Node19 -->
<g id="node19" class="node">
<title>Node19</title>
<g id="a_node19"><a xlink:href="group__grp__initialization.html#ga28628de0fdb3b3497668007d8d0643bd" target="_top" xlink:title="Allocates and initializes internal arrays.">
<polygon fill="white" stroke="black" points="317,-184.84 317,-203.84 361,-203.84 361,-184.84 317,-184.84"/>
<text text-anchor="middle" x="339" y="-191.84" font-family="Helvetica,sans-Serif" font-size="10.00">preset</text>
</a>
</g>
</g>
<!-- Node18&#45;&gt;Node19 -->
<g id="edge31" class="edge">
<title>Node18&#45;&gt;Node19</title>
<path fill="none" stroke="midnightblue" d="M409.34,-194.34C392.41,-194.34 374.5,-194.34 361.13,-194.34"/>
<polygon fill="midnightblue" stroke="midnightblue" points="409.7,-197.84 419.7,-194.34 409.7,-190.84 409.7,-197.84"/>
</g>
<!-- Node19&#45;&gt;Node8 -->
<g id="edge33" class="edge">
<title>Node19&#45;&gt;Node8</title>
<path fill="none" stroke="midnightblue" d="M306.94,-194.34C259.42,-194.34 169.82,-194.34 128.03,-194.34"/>
<polygon fill="midnightblue" stroke="midnightblue" points="306.96,-197.84 316.96,-194.34 306.96,-190.84 306.96,-197.84"/>
</g>
<!-- Node19&#45;&gt;Node15 -->
<g id="edge32" class="edge">
<title>Node19&#45;&gt;Node15</title>
<path fill="none" stroke="midnightblue" d="M307.3,-204.44C287.46,-210.97 262.13,-219.3 244.33,-225.16"/>
<polygon fill="midnightblue" stroke="midnightblue" points="308.41,-207.76 316.82,-201.31 306.22,-201.11 308.41,-207.76"/>
</g>
</g>
</svg>
