<?xml version="1.0" encoding="UTF-8" standalone="no"?>
<!DOCTYPE svg PUBLIC "-//W3C//DTD SVG 1.1//EN"
 "http://www.w3.org/Graphics/SVG/1.1/DTD/svg11.dtd">
<!-- Generated by graphviz version 2.47.1 (20210421.1823)
 -->
<!-- Title: allocate_beltrami_matrices Pages: 1 -->
<svg width="829pt" height="436pt"
 viewBox="0.00 0.00 829.00 436.00" xmlns="http://www.w3.org/2000/svg" xmlns:xlink="http://www.w3.org/1999/xlink">
<g id="graph0" class="graph" transform="scale(1 1) rotate(0) translate(4 432)">
<title>allocate_beltrami_matrices</title>
<polygon fill="white" stroke="transparent" points="-4,4 -4,-432 825,-432 825,4 -4,4"/>
<!-- Node1 -->
<g id="node1" class="node">
<title>Node1</title>
<g id="a_node1"><a xlink:title="allocate Beltrami matrices">
<polygon fill="#bfbfbf" stroke="black" points="688,-380.5 688,-399.5 821,-399.5 821,-380.5 688,-380.5"/>
<text text-anchor="middle" x="754.5" y="-387.5" font-family="Helvetica,sans-Serif" font-size="10.00">allocate_beltrami_matrices</text>
</a>
</g>
</g>
<!-- Node2 -->
<g id="node2" class="node">
<title>Node2</title>
<g id="a_node2"><a xlink:href="dfp100_8f90.html#a17a3ac15cc83994394f7b4cc05e5898e" target="_top" xlink:title="Split the work between MPI nodes and evaluate the global constraint.">
<polygon fill="white" stroke="black" points="606,-380.5 606,-399.5 652,-399.5 652,-380.5 606,-380.5"/>
<text text-anchor="middle" x="629" y="-387.5" font-family="Helvetica,sans-Serif" font-size="10.00">dfp100</text>
</a>
</g>
</g>
<!-- Node1&#45;&gt;Node2 -->
<g id="edge1" class="edge">
<title>Node1&#45;&gt;Node2</title>
<path fill="none" stroke="midnightblue" d="M677.58,-390C668.31,-390 659.5,-390 652.03,-390"/>
<polygon fill="midnightblue" stroke="midnightblue" points="677.77,-393.5 687.77,-390 677.77,-386.5 677.77,-393.5"/>
</g>
<!-- Node13 -->
<g id="node13" class="node">
<title>Node13</title>
<g id="a_node13"><a xlink:href="dfp200_8f90.html#a55ea75395f8c71731451e1add3720c7e" target="_top" xlink:title="Given the field consistent with the constraints and the geometry, computes local quantites related to...">
<polygon fill="white" stroke="black" points="282,-313.5 282,-332.5 328,-332.5 328,-313.5 282,-313.5"/>
<text text-anchor="middle" x="305" y="-320.5" font-family="Helvetica,sans-Serif" font-size="10.00">dfp200</text>
</a>
</g>
</g>
<!-- Node1&#45;&gt;Node13 -->
<g id="edge35" class="edge">
<title>Node1&#45;&gt;Node13</title>
<path fill="none" stroke="midnightblue" d="M695.22,-378.6C681.1,-375.98 666.02,-373.28 652,-371 530.19,-351.16 383.4,-332.53 328.32,-325.73"/>
<polygon fill="midnightblue" stroke="midnightblue" points="694.83,-382.09 705.31,-380.5 696.13,-375.21 694.83,-382.09"/>
</g>
<!-- Node15 -->
<g id="node15" class="node">
<title>Node15</title>
<g id="a_node15"><a xlink:href="dfp200_8f90.html#a73ddf39ecc5228201fb643779e17cd36" target="_top" xlink:title="Evaluate mu and psip derivatives and store them in dmupfdx.">
<polygon fill="white" stroke="black" points="140,-370.5 140,-389.5 235,-389.5 235,-370.5 140,-370.5"/>
<text text-anchor="middle" x="187.5" y="-377.5" font-family="Helvetica,sans-Serif" font-size="10.00">evaluate_dmupfdx</text>
</a>
</g>
</g>
<!-- Node1&#45;&gt;Node15 -->
<g id="edge36" class="edge">
<title>Node1&#45;&gt;Node15</title>
<path fill="none" stroke="midnightblue" d="M712.06,-402.32C671.04,-413.42 606.26,-428 549,-428 549,-428 549,-428 426.5,-428 349.57,-428 261.37,-403.61 217.07,-389.6"/>
<polygon fill="midnightblue" stroke="midnightblue" points="713.25,-405.63 721.96,-399.59 711.39,-398.88 713.25,-405.63"/>
</g>
<!-- Node3 -->
<g id="node3" class="node">
<title>Node3</title>
<g id="a_node3"><a xlink:href="group__grp__global__force.html#ga38c9d3c50bd043707fefa5137c9dbf44" target="_top" xlink:title="Calculates , where &#160;and , and .">
<polygon fill="white" stroke="black" points="526,-171.5 526,-190.5 570,-190.5 570,-171.5 526,-171.5"/>
<text text-anchor="middle" x="548" y="-178.5" font-family="Helvetica,sans-Serif" font-size="10.00">dforce</text>
</a>
</g>
</g>
<!-- Node2&#45;&gt;Node3 -->
<g id="edge2" class="edge">
<title>Node2&#45;&gt;Node3</title>
<path fill="none" stroke="midnightblue" d="M620.86,-371.11C604.51,-327.85 564.81,-222.83 552.62,-190.58"/>
<polygon fill="midnightblue" stroke="midnightblue" points="617.59,-372.36 624.4,-380.48 624.14,-369.89 617.59,-372.36"/>
</g>
<!-- Node2&#45;&gt;Node15 -->
<g id="edge34" class="edge">
<title>Node2&#45;&gt;Node15</title>
<path fill="none" stroke="midnightblue" d="M595.88,-389.27C519.17,-387.52 325.02,-383.11 235.29,-381.06"/>
<polygon fill="midnightblue" stroke="midnightblue" points="595.83,-392.77 605.9,-389.5 595.99,-385.77 595.83,-392.77"/>
</g>
<!-- Node4 -->
<g id="node4" class="node">
<title>Node4</title>
<g id="a_node4"><a xlink:href="namespaceallglobal.html#a7824bc37519fe88336534ce90ab2af16" target="_top" xlink:title=" ">
<polygon fill="white" stroke="black" points="370.5,-38.5 370.5,-57.5 484.5,-57.5 484.5,-38.5 370.5,-38.5"/>
<text text-anchor="middle" x="427.5" y="-45.5" font-family="Helvetica,sans-Serif" font-size="10.00">allglobal::check_inputs</text>
</a>
</g>
</g>
<!-- Node3&#45;&gt;Node4 -->
<g id="edge3" class="edge">
<title>Node3&#45;&gt;Node4</title>
<path fill="none" stroke="midnightblue" d="M541.53,-161.65C533.79,-137.56 517.45,-96.59 490,-72 483.09,-65.81 474.39,-61.13 465.73,-57.63"/>
<polygon fill="midnightblue" stroke="midnightblue" points="538.24,-162.86 544.49,-171.41 544.94,-160.83 538.24,-162.86"/>
</g>
<!-- Node6 -->
<g id="node6" class="node">
<title>Node6</title>
<g id="a_node6"><a xlink:href="xspech_8f90.html#a48f45478dc2c9f70ea8aa1c60ad06503" target="_top" xlink:title=" ">
<polygon fill="white" stroke="black" points="168.5,-38.5 168.5,-57.5 206.5,-57.5 206.5,-38.5 168.5,-38.5"/>
<text text-anchor="middle" x="187.5" y="-45.5" font-family="Helvetica,sans-Serif" font-size="10.00">spec</text>
</a>
</g>
</g>
<!-- Node3&#45;&gt;Node6 -->
<g id="edge33" class="edge">
<title>Node3&#45;&gt;Node6</title>
<path fill="none" stroke="midnightblue" d="M538.08,-162.14C528.68,-144.44 512.17,-118.7 490,-105 409.69,-55.36 373.69,-84.94 281,-67 255.09,-61.98 225.18,-55.76 206.55,-51.84"/>
<polygon fill="midnightblue" stroke="midnightblue" points="535.16,-164.12 542.78,-171.48 541.41,-160.97 535.16,-164.12"/>
</g>
<!-- Node8 -->
<g id="node8" class="node">
<title>Node8</title>
<g id="a_node8"><a xlink:href="group__grp__force__driver.html#gabbc245b3884ee8d8d3e2a52f25149f78" target="_top" xlink:title="fcn1">
<polygon fill="white" stroke="black" points="410,-152.5 410,-171.5 445,-171.5 445,-152.5 410,-152.5"/>
<text text-anchor="middle" x="427.5" y="-159.5" font-family="Helvetica,sans-Serif" font-size="10.00">fcn1</text>
</a>
</g>
</g>
<!-- Node3&#45;&gt;Node8 -->
<g id="edge8" class="edge">
<title>Node3&#45;&gt;Node8</title>
<path fill="none" stroke="midnightblue" d="M515.69,-175.98C493.13,-172.36 463.55,-167.62 445.29,-164.69"/>
<polygon fill="midnightblue" stroke="midnightblue" points="515.39,-179.48 525.81,-177.6 516.49,-172.56 515.39,-179.48"/>
</g>
<!-- Node9 -->
<g id="node9" class="node">
<title>Node9</title>
<g id="a_node9"><a xlink:href="group__grp__force__driver.html#gaec14f81fbdbedafbc4189489ec8ae178" target="_top" xlink:title="Employs Newton method to find , where &#160;and &#160;is defined in dforce() .">
<polygon fill="white" stroke="black" points="281,-152.5 281,-171.5 329,-171.5 329,-152.5 281,-152.5"/>
<text text-anchor="middle" x="305" y="-159.5" font-family="Helvetica,sans-Serif" font-size="10.00">newton</text>
</a>
</g>
</g>
<!-- Node3&#45;&gt;Node9 -->
<g id="edge30" class="edge">
<title>Node3&#45;&gt;Node9</title>
<path fill="none" stroke="midnightblue" d="M515.81,-183.92C479.38,-186.66 417.42,-189.23 365,-181 352.88,-179.1 339.86,-175.12 329.13,-171.3"/>
<polygon fill="midnightblue" stroke="midnightblue" points="516.13,-187.41 525.82,-183.12 515.57,-180.43 516.13,-187.41"/>
</g>
<!-- Node10 -->
<g id="node10" class="node">
<title>Node10</title>
<g id="a_node10"><a xlink:href="group__grp__force__driver.html#ga8ccd6c7d901872702521d0a0edf95412" target="_top" xlink:title="fcn2">
<polygon fill="white" stroke="black" points="29.5,-166.5 29.5,-185.5 64.5,-185.5 64.5,-166.5 29.5,-166.5"/>
<text text-anchor="middle" x="47" y="-173.5" font-family="Helvetica,sans-Serif" font-size="10.00">fcn2</text>
</a>
</g>
</g>
<!-- Node3&#45;&gt;Node10 -->
<g id="edge17" class="edge">
<title>Node3&#45;&gt;Node10</title>
<path fill="none" stroke="midnightblue" d="M515.87,-190.73C445.84,-211.13 270.99,-253.73 130,-219 103.93,-212.58 76.98,-196.24 61.39,-185.65"/>
<polygon fill="midnightblue" stroke="midnightblue" points="517.22,-193.98 525.8,-187.78 515.22,-187.27 517.22,-193.98"/>
</g>
<!-- Node12 -->
<g id="node12" class="node">
<title>Node12</title>
<g id="a_node12"><a xlink:href="dfp200_8f90.html#a6aca59cf350d7b1941f8389d50945a43" target="_top" xlink:title="get LU Beltrami matrices">
<polygon fill="white" stroke="black" points="365,-266.5 365,-285.5 490,-285.5 490,-266.5 365,-266.5"/>
<text text-anchor="middle" x="427.5" y="-273.5" font-family="Helvetica,sans-Serif" font-size="10.00">get_lu_beltrami_matrices</text>
</a>
</g>
</g>
<!-- Node3&#45;&gt;Node12 -->
<g id="edge18" class="edge">
<title>Node3&#45;&gt;Node12</title>
<path fill="none" stroke="midnightblue" d="M536.09,-199.48C525.91,-215.31 509.42,-237.75 490,-252 481.78,-258.04 471.84,-262.78 462.37,-266.39"/>
<polygon fill="midnightblue" stroke="midnightblue" points="539.29,-200.95 541.57,-190.61 533.34,-197.27 539.29,-200.95"/>
</g>
<!-- Node17 -->
<g id="node17" class="node">
<title>Node17</title>
<g id="a_node17"><a xlink:href="group__grp__diagnostics.html#ga7401b50ec10c6598ee4a8112717a63ec" target="_top" xlink:title="Computes eigenvalues and eigenvectors of derivative matrix, .">
<polygon fill="white" stroke="black" points="282.5,-0.5 282.5,-19.5 327.5,-19.5 327.5,-0.5 282.5,-0.5"/>
<text text-anchor="middle" x="305" y="-7.5" font-family="Helvetica,sans-Serif" font-size="10.00">hesian</text>
</a>
</g>
</g>
<!-- Node3&#45;&gt;Node17 -->
<g id="edge28" class="edge">
<title>Node3&#45;&gt;Node17</title>
<path fill="none" stroke="midnightblue" d="M545.9,-160.82C542.9,-127.44 531.71,-61.2 490,-29 442.08,7.99 364.97,0.81 327.64,-5.55"/>
<polygon fill="midnightblue" stroke="midnightblue" points="542.43,-161.43 546.66,-171.15 549.42,-160.92 542.43,-161.43"/>
</g>
<!-- Node18 -->
<g id="node18" class="node">
<title>Node18</title>
<g id="a_node18"><a xlink:href="group__grp__conjugate__gradient.html#ga4d8415226e62a9fdb42b0fd0b464251e" target="_top" xlink:title="Returns the energy functional and it&#39;s derivatives with respect to geometry.">
<polygon fill="white" stroke="black" points="403.5,-114.5 403.5,-133.5 451.5,-133.5 451.5,-114.5 403.5,-114.5"/>
<text text-anchor="middle" x="427.5" y="-121.5" font-family="Helvetica,sans-Serif" font-size="10.00">pc00ab</text>
</a>
</g>
</g>
<!-- Node3&#45;&gt;Node18 -->
<g id="edge31" class="edge">
<title>Node3&#45;&gt;Node18</title>
<path fill="none" stroke="midnightblue" d="M526.83,-165.47C516.29,-157.91 502.92,-149.14 490,-143 477.79,-137.19 463.38,-132.63 451.58,-129.43"/>
<polygon fill="midnightblue" stroke="midnightblue" points="524.82,-168.34 534.94,-171.46 528.97,-162.7 524.82,-168.34"/>
</g>
<!-- Node5 -->
<g id="node5" class="node">
<title>Node5</title>
<g id="a_node5"><a xlink:href="xspech_8f90.html#aea782eae089760a491c2c54f9903abcc" target="_top" xlink:title="Main program of SPEC.">
<polygon fill="white" stroke="black" points="281.5,-38.5 281.5,-57.5 328.5,-57.5 328.5,-38.5 281.5,-38.5"/>
<text text-anchor="middle" x="305" y="-45.5" font-family="Helvetica,sans-Serif" font-size="10.00">xspech</text>
</a>
</g>
</g>
<!-- Node4&#45;&gt;Node5 -->
<g id="edge4" class="edge">
<title>Node4&#45;&gt;Node5</title>
<path fill="none" stroke="midnightblue" d="M360.45,-48C349.06,-48 337.95,-48 328.77,-48"/>
<polygon fill="midnightblue" stroke="midnightblue" points="360.48,-51.5 370.48,-48 360.48,-44.5 360.48,-51.5"/>
</g>
<!-- Node5&#45;&gt;Node6 -->
<g id="edge5" class="edge">
<title>Node5&#45;&gt;Node6</title>
<path fill="none" stroke="midnightblue" d="M271.4,-41.85C250.49,-40.78 224.12,-41.14 206.81,-42.91"/>
<polygon fill="midnightblue" stroke="midnightblue" points="271.25,-45.35 281.46,-42.52 271.71,-38.37 271.25,-45.35"/>
</g>
<!-- Node6&#45;&gt;Node5 -->
<g id="edge7" class="edge">
<title>Node6&#45;&gt;Node5</title>
<path fill="none" stroke="midnightblue" d="M216.84,-53.9C236.73,-55.16 262.98,-55.02 281.46,-53.48"/>
<polygon fill="midnightblue" stroke="midnightblue" points="217.06,-50.41 206.81,-53.09 216.49,-57.39 217.06,-50.41"/>
</g>
<!-- Node7 -->
<g id="node7" class="node">
<title>Node7</title>
<g id="a_node7"><a xlink:href="sphdf5_8f90.html#a0f962c09cd5d5eba99f1cba043cb3898" target="_top" xlink:title="initialize the interface to the HDF5 library and open the output file">
<polygon fill="white" stroke="black" points="0,-38.5 0,-57.5 94,-57.5 94,-38.5 0,-38.5"/>
<text text-anchor="middle" x="47" y="-45.5" font-family="Helvetica,sans-Serif" font-size="10.00">sphdf5::init_outfile</text>
</a>
</g>
</g>
<!-- Node6&#45;&gt;Node7 -->
<g id="edge6" class="edge">
<title>Node6&#45;&gt;Node7</title>
<path fill="none" stroke="midnightblue" d="M158.31,-48C139.87,-48 115.36,-48 94.12,-48"/>
<polygon fill="midnightblue" stroke="midnightblue" points="158.39,-51.5 168.39,-48 158.39,-44.5 158.39,-51.5"/>
</g>
<!-- Node8&#45;&gt;Node9 -->
<g id="edge9" class="edge">
<title>Node8&#45;&gt;Node9</title>
<path fill="none" stroke="midnightblue" d="M399.51,-156.26C378.38,-154.82 349.31,-154.92 329.22,-156.54"/>
<polygon fill="midnightblue" stroke="midnightblue" points="399.48,-159.77 409.74,-157.16 400.09,-152.8 399.48,-159.77"/>
</g>
<!-- Node9&#45;&gt;Node6 -->
<g id="edge13" class="edge">
<title>Node9&#45;&gt;Node6</title>
<path fill="none" stroke="midnightblue" d="M283.91,-145.62C282.92,-144.75 281.94,-143.87 281,-143 248.67,-113.2 213.09,-74.99 197.11,-57.5"/>
<polygon fill="midnightblue" stroke="midnightblue" points="281.73,-148.37 291.62,-152.18 286.27,-143.04 281.73,-148.37"/>
</g>
<!-- Node9&#45;&gt;Node8 -->
<g id="edge10" class="edge">
<title>Node9&#45;&gt;Node8</title>
<path fill="none" stroke="midnightblue" d="M339.21,-168.11C362.11,-169.27 391.58,-168.85 409.74,-166.84"/>
<polygon fill="midnightblue" stroke="midnightblue" points="339.42,-164.61 329.22,-167.46 338.97,-171.6 339.42,-164.61"/>
</g>
<!-- Node9&#45;&gt;Node10 -->
<g id="edge11" class="edge">
<title>Node9&#45;&gt;Node10</title>
<path fill="none" stroke="midnightblue" d="M270.49,-159.1C215.08,-159.09 106.32,-165.43 64.72,-171.53"/>
<polygon fill="midnightblue" stroke="midnightblue" points="270.8,-162.6 280.83,-159.19 270.86,-155.6 270.8,-162.6"/>
</g>
<!-- Node11 -->
<g id="node11" class="node">
<title>Node11</title>
<g id="a_node11"><a xlink:href="group__grp__force__driver.html#ga382822b303cbf8c56d6f54dcb379caf2" target="_top" xlink:title="read or write force&#45;derivative matrix">
<polygon fill="white" stroke="black" points="155,-190.5 155,-209.5 220,-209.5 220,-190.5 155,-190.5"/>
<text text-anchor="middle" x="187.5" y="-197.5" font-family="Helvetica,sans-Serif" font-size="10.00">writereadgf</text>
</a>
</g>
</g>
<!-- Node9&#45;&gt;Node11 -->
<g id="edge14" class="edge">
<title>Node9&#45;&gt;Node11</title>
<path fill="none" stroke="midnightblue" d="M271.17,-166.64C248.91,-172.84 220.53,-182.66 203.48,-190.36"/>
<polygon fill="midnightblue" stroke="midnightblue" points="272.13,-170.01 280.9,-164.07 270.34,-163.24 272.13,-170.01"/>
</g>
<!-- Node10&#45;&gt;Node9 -->
<g id="edge12" class="edge">
<title>Node10&#45;&gt;Node9</title>
<path fill="none" stroke="midnightblue" d="M74.85,-178.87C125.28,-179.41 233.36,-173.42 280.83,-167.35"/>
<polygon fill="midnightblue" stroke="midnightblue" points="74.8,-175.36 64.72,-178.64 74.64,-182.36 74.8,-175.36"/>
</g>
<!-- Node11&#45;&gt;Node9 -->
<g id="edge16" class="edge">
<title>Node11&#45;&gt;Node9</title>
<path fill="none" stroke="midnightblue" d="M229.95,-192.87C250.47,-186.75 273.98,-178.42 288.9,-171.7"/>
<polygon fill="midnightblue" stroke="midnightblue" points="228.81,-189.55 220.17,-195.68 230.74,-196.28 228.81,-189.55"/>
</g>
<!-- Node11&#45;&gt;Node10 -->
<g id="edge15" class="edge">
<title>Node11&#45;&gt;Node10</title>
<path fill="none" stroke="midnightblue" d="M144.76,-192.77C117.8,-188.1 84.2,-182.27 64.52,-178.86"/>
<polygon fill="midnightblue" stroke="midnightblue" points="144.27,-196.24 154.73,-194.49 145.47,-189.34 144.27,-196.24"/>
</g>
<!-- Node12&#45;&gt;Node13 -->
<g id="edge19" class="edge">
<title>Node12&#45;&gt;Node13</title>
<path fill="none" stroke="midnightblue" d="M375.72,-289.13C355.1,-296.85 332.95,-306.24 319.28,-313.4"/>
<polygon fill="midnightblue" stroke="midnightblue" points="377.18,-292.32 385.37,-285.6 374.77,-285.75 377.18,-292.32"/>
</g>
<!-- Node13&#45;&gt;Node3 -->
<g id="edge20" class="edge">
<title>Node13&#45;&gt;Node3</title>
<path fill="none" stroke="midnightblue" d="M338.4,-326.53C378,-329.09 445.25,-327.57 490,-295 526.14,-268.7 540.74,-212.93 545.29,-190.57"/>
<polygon fill="midnightblue" stroke="midnightblue" points="338.49,-323.02 328.25,-325.74 337.95,-330 338.49,-323.02"/>
</g>
<!-- Node13&#45;&gt;Node12 -->
<g id="edge25" class="edge">
<title>Node13&#45;&gt;Node12</title>
<path fill="none" stroke="midnightblue" d="M338.05,-316.55C362.57,-308.3 395.16,-295.06 413.14,-285.64"/>
<polygon fill="midnightblue" stroke="midnightblue" points="336.87,-313.25 328.42,-319.64 339.02,-319.91 336.87,-313.25"/>
</g>
<!-- Node14 -->
<g id="node14" class="node">
<title>Node14</title>
<g id="a_node14"><a xlink:href="dfp200_8f90.html#a7b64c7392b45d0042d8bd7379c0761a5" target="_top" xlink:title="Evaluate the derivative of the square of the magnetic field modulus. Add spectral constraint derivati...">
<polygon fill="white" stroke="black" points="150.5,-323.5 150.5,-342.5 224.5,-342.5 224.5,-323.5 150.5,-323.5"/>
<text text-anchor="middle" x="187.5" y="-330.5" font-family="Helvetica,sans-Serif" font-size="10.00">evaluate_dbb</text>
</a>
</g>
</g>
<!-- Node13&#45;&gt;Node14 -->
<g id="edge21" class="edge">
<title>Node13&#45;&gt;Node14</title>
<path fill="none" stroke="midnightblue" d="M271.66,-319.67C257.08,-320.17 239.81,-321.61 224.79,-323.54"/>
<polygon fill="midnightblue" stroke="midnightblue" points="271.8,-323.17 281.73,-319.47 271.66,-316.17 271.8,-323.17"/>
</g>
<!-- Node13&#45;&gt;Node15 -->
<g id="edge23" class="edge">
<title>Node13&#45;&gt;Node15</title>
<path fill="none" stroke="midnightblue" d="M272.22,-332.58C248,-343.24 216.08,-359.64 199.52,-370.39"/>
<polygon fill="midnightblue" stroke="midnightblue" points="273.9,-335.67 281.73,-328.53 271.16,-329.23 273.9,-335.67"/>
</g>
<!-- Node16 -->
<g id="node16" class="node">
<title>Node16</title>
<g id="a_node16"><a xlink:href="dfp200_8f90.html#a5e56f1f4b1e6df11a9cffa6237c37469" target="_top" xlink:title="This routine evaluates the value of the magnetic field once the interface is perturbed using matrix p...">
<polygon fill="white" stroke="black" points="130,-285.5 130,-304.5 245,-304.5 245,-285.5 130,-285.5"/>
<text text-anchor="middle" x="187.5" y="-292.5" font-family="Helvetica,sans-Serif" font-size="10.00">get_perturbed_solution</text>
</a>
</g>
</g>
<!-- Node13&#45;&gt;Node16 -->
<g id="edge26" class="edge">
<title>Node13&#45;&gt;Node16</title>
<path fill="none" stroke="midnightblue" d="M276.17,-310.38C266.79,-307.5 255.96,-304.58 245.18,-301.99"/>
<polygon fill="midnightblue" stroke="midnightblue" points="275.11,-313.72 285.7,-313.47 277.27,-307.06 275.11,-313.72"/>
</g>
<!-- Node14&#45;&gt;Node13 -->
<g id="edge22" class="edge">
<title>Node14&#45;&gt;Node13</title>
<path fill="none" stroke="midnightblue" d="M235.13,-335.6C251.22,-334.54 268.5,-332.65 281.73,-330.39"/>
<polygon fill="midnightblue" stroke="midnightblue" points="234.58,-332.13 224.79,-336.18 234.97,-339.11 234.58,-332.13"/>
</g>
<!-- Node15&#45;&gt;Node13 -->
<g id="edge24" class="edge">
<title>Node15&#45;&gt;Node13</title>
<path fill="none" stroke="midnightblue" d="M229.54,-366.24C252.11,-355.82 278.4,-342.07 292.93,-332.64"/>
<polygon fill="midnightblue" stroke="midnightblue" points="227.82,-363.18 220.14,-370.48 230.7,-369.56 227.82,-363.18"/>
</g>
<!-- Node16&#45;&gt;Node13 -->
<g id="edge27" class="edge">
<title>Node16&#45;&gt;Node13</title>
<path fill="none" stroke="midnightblue" d="M216.42,-307.64C236.46,-313.79 263.11,-320.12 281.73,-323.06"/>
<polygon fill="midnightblue" stroke="midnightblue" points="217.49,-304.31 206.9,-304.56 215.33,-310.97 217.49,-304.31"/>
</g>
<!-- Node17&#45;&gt;Node6 -->
<g id="edge29" class="edge">
<title>Node17&#45;&gt;Node6</title>
<path fill="none" stroke="midnightblue" d="M272.74,-20.28C251.59,-27.24 224.39,-36.19 206.71,-42.01"/>
<polygon fill="midnightblue" stroke="midnightblue" points="273.87,-23.6 282.28,-17.15 271.68,-16.95 273.87,-23.6"/>
</g>
<!-- Node19 -->
<g id="node19" class="node">
<title>Node19</title>
<g id="a_node19"><a xlink:href="group__grp__conjugate__gradient.html#ga25a3bae2ff2ee0469b045de0d033398b" target="_top" xlink:title="Use preconditioned conjugate gradient method to find minimum of energy functional.">
<polygon fill="white" stroke="black" points="281,-114.5 281,-133.5 329,-133.5 329,-114.5 281,-114.5"/>
<text text-anchor="middle" x="305" y="-121.5" font-family="Helvetica,sans-Serif" font-size="10.00">pc00aa</text>
</a>
</g>
</g>
<!-- Node18&#45;&gt;Node19 -->
<g id="edge32" class="edge">
<title>Node18&#45;&gt;Node19</title>
<path fill="none" stroke="midnightblue" d="M393.16,-124C372.81,-124 347.31,-124 329.16,-124"/>
<polygon fill="midnightblue" stroke="midnightblue" points="393.27,-127.5 403.27,-124 393.27,-120.5 393.27,-127.5"/>
</g>
</g>
</svg>
