<?xml version="1.0" encoding="UTF-8" standalone="no"?>
<!DOCTYPE svg PUBLIC "-//W3C//DTD SVG 1.1//EN"
 "http://www.w3.org/Graphics/SVG/1.1/DTD/svg11.dtd">
<!-- Generated by graphviz version 2.48.0 (0)
 -->
<!-- Title: deallocate_geometry_matrices Pages: 1 -->
<svg width="802pt" height="451pt"
 viewBox="0.00 0.00 802.00 451.00" xmlns="http://www.w3.org/2000/svg" xmlns:xlink="http://www.w3.org/1999/xlink">
<g id="graph0" class="graph" transform="scale(1 1) rotate(0) translate(4 447)">
<title>deallocate_geometry_matrices</title>
<polygon fill="white" stroke="transparent" points="-4,4 -4,-447 798,-447 798,4 -4,4"/>
<!-- Node1 -->
<g id="node1" class="node">
<title>Node1</title>
<g id="a_node1"><a xlink:title="deallocate geometry matrices">
<polygon fill="#bfbfbf" stroke="black" points="688,-390 688,-420 794,-420 794,-390 688,-390"/>
<text text-anchor="start" x="696" y="-408" font-family="Helvetica,sans-Serif" font-size="10.00">deallocate_geometry</text>
<text text-anchor="middle" x="741" y="-397" font-family="Helvetica,sans-Serif" font-size="10.00">_matrices</text>
</a>
</g>
</g>
<!-- Node2 -->
<g id="node2" class="node">
<title>Node2</title>
<g id="a_node2"><a xlink:href="dfp100_8f90.html#a17a3ac15cc83994394f7b4cc05e5898e" target="_top" xlink:title="Split the work between MPI nodes and evaluate the global constraint.">
<polygon fill="white" stroke="black" points="606,-395.5 606,-414.5 652,-414.5 652,-395.5 606,-395.5"/>
<text text-anchor="middle" x="629" y="-402.5" font-family="Helvetica,sans-Serif" font-size="10.00">dfp100</text>
</a>
</g>
</g>
<!-- Node1&#45;&gt;Node2 -->
<g id="edge1" class="edge">
<title>Node1&#45;&gt;Node2</title>
<path fill="none" stroke="midnightblue" d="M677.61,-405C668.56,-405 659.77,-405 652.27,-405"/>
<polygon fill="midnightblue" stroke="midnightblue" points="677.9,-408.5 687.9,-405 677.9,-401.5 677.9,-408.5"/>
</g>
<!-- Node15 -->
<g id="node15" class="node">
<title>Node15</title>
<g id="a_node15"><a xlink:href="dfp200_8f90.html#a55ea75395f8c71731451e1add3720c7e" target="_top" xlink:title="Given the field consistent with the constraints and the geometry, computes local quantites related to...">
<polygon fill="white" stroke="black" points="282,-338.5 282,-357.5 328,-357.5 328,-338.5 282,-338.5"/>
<text text-anchor="middle" x="305" y="-345.5" font-family="Helvetica,sans-Serif" font-size="10.00">dfp200</text>
</a>
</g>
</g>
<!-- Node1&#45;&gt;Node15 -->
<g id="edge39" class="edge">
<title>Node1&#45;&gt;Node15</title>
<path fill="none" stroke="midnightblue" d="M677.61,-390.7C669.03,-388.98 660.32,-387.35 652,-386 530.61,-366.28 383.58,-353.9 328.37,-349.65"/>
<polygon fill="midnightblue" stroke="midnightblue" points="677.09,-394.16 687.59,-392.76 678.5,-387.31 677.09,-394.16"/>
</g>
<!-- Node17 -->
<g id="node17" class="node">
<title>Node17</title>
<g id="a_node17"><a xlink:href="dfp200_8f90.html#a73ddf39ecc5228201fb643779e17cd36" target="_top" xlink:title="Evaluate mu and psip derivatives and store them in dmupfdx.">
<polygon fill="white" stroke="black" points="140,-386.5 140,-405.5 235,-405.5 235,-386.5 140,-386.5"/>
<text text-anchor="middle" x="187.5" y="-393.5" font-family="Helvetica,sans-Serif" font-size="10.00">evaluate_dmupfdx</text>
</a>
</g>
</g>
<!-- Node1&#45;&gt;Node17 -->
<g id="edge40" class="edge">
<title>Node1&#45;&gt;Node17</title>
<path fill="none" stroke="midnightblue" d="M682.1,-422.66C644.53,-432.58 594.31,-443 549,-443 549,-443 549,-443 426.5,-443 349.85,-443 261.89,-419.24 217.45,-405.51"/>
<polygon fill="midnightblue" stroke="midnightblue" points="683.12,-426.01 691.85,-420.02 681.29,-419.25 683.12,-426.01"/>
</g>
<!-- Node3 -->
<g id="node3" class="node">
<title>Node3</title>
<g id="a_node3"><a xlink:href="group__grp__global__force.html#ga38c9d3c50bd043707fefa5137c9dbf44" target="_top" xlink:title="Calculates , where &#160;and , and .">
<polygon fill="white" stroke="black" points="526,-184.5 526,-203.5 570,-203.5 570,-184.5 526,-184.5"/>
<text text-anchor="middle" x="548" y="-191.5" font-family="Helvetica,sans-Serif" font-size="10.00">dforce</text>
</a>
</g>
</g>
<!-- Node2&#45;&gt;Node3 -->
<g id="edge2" class="edge">
<title>Node2&#45;&gt;Node3</title>
<path fill="none" stroke="midnightblue" d="M620.86,-385.93C604.51,-342.25 564.81,-236.23 552.62,-203.67"/>
<polygon fill="midnightblue" stroke="midnightblue" points="617.62,-387.25 624.4,-395.39 624.17,-384.79 617.62,-387.25"/>
</g>
<!-- Node2&#45;&gt;Node17 -->
<g id="edge38" class="edge">
<title>Node2&#45;&gt;Node17</title>
<path fill="none" stroke="midnightblue" d="M595.88,-404.34C519.17,-402.77 325.02,-398.8 235.29,-396.96"/>
<polygon fill="midnightblue" stroke="midnightblue" points="595.83,-407.84 605.9,-404.55 595.98,-400.84 595.83,-407.84"/>
</g>
<!-- Node4 -->
<g id="node4" class="node">
<title>Node4</title>
<g id="a_node4"><a xlink:href="namespaceallglobal.html#a7824bc37519fe88336534ce90ab2af16" target="_top" xlink:title=" ">
<polygon fill="white" stroke="black" points="370.5,-80.5 370.5,-99.5 484.5,-99.5 484.5,-80.5 370.5,-80.5"/>
<text text-anchor="middle" x="427.5" y="-87.5" font-family="Helvetica,sans-Serif" font-size="10.00">allglobal::check_inputs</text>
</a>
</g>
</g>
<!-- Node3&#45;&gt;Node4 -->
<g id="edge3" class="edge">
<title>Node3&#45;&gt;Node4</title>
<path fill="none" stroke="midnightblue" d="M536.78,-175.48C526.72,-158.66 509.98,-134.07 490,-118 480.31,-110.21 468.1,-104.07 457.12,-99.55"/>
<polygon fill="midnightblue" stroke="midnightblue" points="533.88,-177.46 541.91,-184.37 539.94,-173.96 533.88,-177.46"/>
</g>
<!-- Node7 -->
<g id="node7" class="node">
<title>Node7</title>
<g id="a_node7"><a xlink:href="xspech_8f90.html#a48f45478dc2c9f70ea8aa1c60ad06503" target="_top" xlink:title="This is the main &quot;driver&quot; for the physics part of SPEC.">
<polygon fill="white" stroke="black" points="168.5,-0.5 168.5,-19.5 206.5,-19.5 206.5,-0.5 168.5,-0.5"/>
<text text-anchor="middle" x="187.5" y="-7.5" font-family="Helvetica,sans-Serif" font-size="10.00">spec</text>
</a>
</g>
</g>
<!-- Node3&#45;&gt;Node7 -->
<g id="edge37" class="edge">
<title>Node3&#45;&gt;Node7</title>
<path fill="none" stroke="midnightblue" d="M543.55,-174.12C537.67,-146.5 522.98,-97 490,-71 415.59,-12.34 373.85,-47.87 281,-29 255.13,-23.74 225.22,-17.58 206.57,-13.74"/>
<polygon fill="midnightblue" stroke="midnightblue" points="540.16,-175.02 545.51,-184.17 547.04,-173.69 540.16,-175.02"/>
</g>
<!-- Node10 -->
<g id="node10" class="node">
<title>Node10</title>
<g id="a_node10"><a xlink:href="group__grp__force__driver.html#gabbc245b3884ee8d8d3e2a52f25149f78" target="_top" xlink:title="fcn1">
<polygon fill="white" stroke="black" points="410,-165.5 410,-184.5 445,-184.5 445,-165.5 410,-165.5"/>
<text text-anchor="middle" x="427.5" y="-172.5" font-family="Helvetica,sans-Serif" font-size="10.00">fcn1</text>
</a>
</g>
</g>
<!-- Node3&#45;&gt;Node10 -->
<g id="edge12" class="edge">
<title>Node3&#45;&gt;Node10</title>
<path fill="none" stroke="midnightblue" d="M515.69,-188.98C493.13,-185.36 463.55,-180.62 445.29,-177.69"/>
<polygon fill="midnightblue" stroke="midnightblue" points="515.39,-192.48 525.81,-190.6 516.49,-185.56 515.39,-192.48"/>
</g>
<!-- Node11 -->
<g id="node11" class="node">
<title>Node11</title>
<g id="a_node11"><a xlink:href="group__grp__force__driver.html#gaec14f81fbdbedafbc4189489ec8ae178" target="_top" xlink:title="Employs Newton method to find , where &#160;and &#160;is defined in dforce() .">
<polygon fill="white" stroke="black" points="281,-165.5 281,-184.5 329,-184.5 329,-165.5 281,-165.5"/>
<text text-anchor="middle" x="305" y="-172.5" font-family="Helvetica,sans-Serif" font-size="10.00">newton</text>
</a>
</g>
</g>
<!-- Node3&#45;&gt;Node11 -->
<g id="edge34" class="edge">
<title>Node3&#45;&gt;Node11</title>
<path fill="none" stroke="midnightblue" d="M515.81,-196.92C479.38,-199.66 417.42,-202.23 365,-194 352.88,-192.1 339.86,-188.12 329.13,-184.3"/>
<polygon fill="midnightblue" stroke="midnightblue" points="516.13,-200.41 525.82,-196.12 515.57,-193.43 516.13,-200.41"/>
</g>
<!-- Node12 -->
<g id="node12" class="node">
<title>Node12</title>
<g id="a_node12"><a xlink:href="group__grp__force__driver.html#ga8ccd6c7d901872702521d0a0edf95412" target="_top" xlink:title="fcn2">
<polygon fill="white" stroke="black" points="29.5,-184.5 29.5,-203.5 64.5,-203.5 64.5,-184.5 29.5,-184.5"/>
<text text-anchor="middle" x="47" y="-191.5" font-family="Helvetica,sans-Serif" font-size="10.00">fcn2</text>
</a>
</g>
</g>
<!-- Node3&#45;&gt;Node12 -->
<g id="edge21" class="edge">
<title>Node3&#45;&gt;Node12</title>
<path fill="none" stroke="midnightblue" d="M515.89,-204.35C445.91,-226.1 271.16,-271.77 130,-237 103.93,-230.58 76.98,-214.24 61.39,-203.65"/>
<polygon fill="midnightblue" stroke="midnightblue" points="517.35,-207.56 525.82,-201.21 515.23,-200.89 517.35,-207.56"/>
</g>
<!-- Node14 -->
<g id="node14" class="node">
<title>Node14</title>
<g id="a_node14"><a xlink:href="dfp200_8f90.html#a6aca59cf350d7b1941f8389d50945a43" target="_top" xlink:title="get LU Beltrami matrices">
<polygon fill="white" stroke="black" points="365,-281.5 365,-300.5 490,-300.5 490,-281.5 365,-281.5"/>
<text text-anchor="middle" x="427.5" y="-288.5" font-family="Helvetica,sans-Serif" font-size="10.00">get_lu_beltrami_matrices</text>
</a>
</g>
</g>
<!-- Node3&#45;&gt;Node14 -->
<g id="edge22" class="edge">
<title>Node3&#45;&gt;Node14</title>
<path fill="none" stroke="midnightblue" d="M536.49,-212.55C526.41,-228.86 509.84,-252.23 490,-267 481.82,-273.09 471.89,-277.85 462.42,-281.46"/>
<polygon fill="midnightblue" stroke="midnightblue" points="539.54,-214.27 541.64,-203.88 533.52,-210.69 539.54,-214.27"/>
</g>
<!-- Node19 -->
<g id="node19" class="node">
<title>Node19</title>
<g id="a_node19"><a xlink:href="group__grp__diagnostics.html#ga7401b50ec10c6598ee4a8112717a63ec" target="_top" xlink:title="Computes eigenvalues and eigenvectors of derivative matrix, .">
<polygon fill="white" stroke="black" points="282.5,-0.5 282.5,-19.5 327.5,-19.5 327.5,-0.5 282.5,-0.5"/>
<text text-anchor="middle" x="305" y="-7.5" font-family="Helvetica,sans-Serif" font-size="10.00">hesian</text>
</a>
</g>
</g>
<!-- Node3&#45;&gt;Node19 -->
<g id="edge32" class="edge">
<title>Node3&#45;&gt;Node19</title>
<path fill="none" stroke="midnightblue" d="M546.23,-173.87C543.73,-139.29 533.29,-68.95 490,-34 442.75,4.14 365.32,-0.87 327.78,-6.17"/>
<polygon fill="midnightblue" stroke="midnightblue" points="542.75,-174.34 546.81,-184.13 549.74,-173.94 542.75,-174.34"/>
</g>
<!-- Node20 -->
<g id="node20" class="node">
<title>Node20</title>
<g id="a_node20"><a xlink:href="group__grp__conjugate__gradient.html#ga4d8415226e62a9fdb42b0fd0b464251e" target="_top" xlink:title="Returns the energy functional and it&#39;s derivatives with respect to geometry.">
<polygon fill="white" stroke="black" points="403.5,-127.5 403.5,-146.5 451.5,-146.5 451.5,-127.5 403.5,-127.5"/>
<text text-anchor="middle" x="427.5" y="-134.5" font-family="Helvetica,sans-Serif" font-size="10.00">pc00ab</text>
</a>
</g>
</g>
<!-- Node3&#45;&gt;Node20 -->
<g id="edge35" class="edge">
<title>Node3&#45;&gt;Node20</title>
<path fill="none" stroke="midnightblue" d="M526.83,-178.47C516.29,-170.91 502.92,-162.14 490,-156 477.79,-150.19 463.38,-145.63 451.58,-142.43"/>
<polygon fill="midnightblue" stroke="midnightblue" points="524.82,-181.34 534.94,-184.46 528.97,-175.7 524.82,-181.34"/>
</g>
<!-- Node5 -->
<g id="node5" class="node">
<title>Node5</title>
<g id="a_node5"><a xlink:href="xspech_8f90.html#a9fdc71dffd7c61ee4588a3f80d3ab9ce" target="_top" xlink:title="Main subroutine of SPEC.">
<polygon fill="white" stroke="black" points="281.5,-76.5 281.5,-95.5 328.5,-95.5 328.5,-76.5 281.5,-76.5"/>
<text text-anchor="middle" x="305" y="-83.5" font-family="Helvetica,sans-Serif" font-size="10.00">xspech</text>
</a>
</g>
</g>
<!-- Node4&#45;&gt;Node5 -->
<g id="edge4" class="edge">
<title>Node4&#45;&gt;Node5</title>
<path fill="none" stroke="midnightblue" d="M360.45,-87.81C349.06,-87.43 337.95,-87.06 328.77,-86.76"/>
<polygon fill="midnightblue" stroke="midnightblue" points="360.37,-91.31 370.48,-88.14 360.6,-84.31 360.37,-91.31"/>
</g>
<!-- Node6 -->
<g id="node6" class="node">
<title>Node6</title>
<g id="a_node6"><a xlink:href="xspech_8f90.html#a1451823a7b97101a797de616250752c1" target="_top" xlink:title="Final diagnostics.">
<polygon fill="white" stroke="black" points="143,-114.5 143,-133.5 232,-133.5 232,-114.5 143,-114.5"/>
<text text-anchor="middle" x="187.5" y="-121.5" font-family="Helvetica,sans-Serif" font-size="10.00">final_diagnostics</text>
</a>
</g>
</g>
<!-- Node5&#45;&gt;Node6 -->
<g id="edge5" class="edge">
<title>Node5&#45;&gt;Node6</title>
<path fill="none" stroke="midnightblue" d="M271.67,-90.51C249.25,-96.72 220.45,-106.67 203.29,-114.44"/>
<polygon fill="midnightblue" stroke="midnightblue" points="272.67,-93.86 281.46,-87.94 270.9,-87.09 272.67,-93.86"/>
</g>
<!-- Node5&#45;&gt;Node7 -->
<g id="edge7" class="edge">
<title>Node5&#45;&gt;Node7</title>
<path fill="none" stroke="midnightblue" d="M292.58,-68.49C277.01,-49.75 250.43,-23.3 245,-20 233.15,-12.8 218.23,-7.93 206.69,-6.21"/>
<polygon fill="midnightblue" stroke="midnightblue" points="289.91,-70.76 298.84,-76.45 295.41,-66.43 289.91,-70.76"/>
</g>
<!-- Node9 -->
<g id="node9" class="node">
<title>Node9</title>
<g id="a_node9"><a xlink:href="xspech_8f90.html#a95271e8805067f801b5d4e524d6901d4" target="_top" xlink:title="Main program of SPEC.">
<polygon fill="white" stroke="black" points="155.5,-38.5 155.5,-57.5 219.5,-57.5 219.5,-38.5 155.5,-38.5"/>
<text text-anchor="middle" x="187.5" y="-45.5" font-family="Helvetica,sans-Serif" font-size="10.00">spec_main</text>
</a>
</g>
</g>
<!-- Node5&#45;&gt;Node9 -->
<g id="edge11" class="edge">
<title>Node5&#45;&gt;Node9</title>
<path fill="none" stroke="midnightblue" d="M271.92,-75.45C254.89,-69.84 234.12,-63.01 217.57,-57.56"/>
<polygon fill="midnightblue" stroke="midnightblue" points="270.86,-78.78 281.46,-78.58 273.05,-72.13 270.86,-78.78"/>
</g>
<!-- Node6&#45;&gt;Node5 -->
<g id="edge6" class="edge">
<title>Node6&#45;&gt;Node5</title>
<path fill="none" stroke="midnightblue" d="M242.21,-113.06C259.31,-107.56 276.89,-101.11 288.9,-95.7"/>
<polygon fill="midnightblue" stroke="midnightblue" points="240.75,-109.85 232.25,-116.18 242.83,-116.54 240.75,-109.85"/>
</g>
<!-- Node7&#45;&gt;Node5 -->
<g id="edge10" class="edge">
<title>Node7&#45;&gt;Node5</title>
<path fill="none" stroke="midnightblue" d="M210.9,-23.18C221.7,-27.11 234.55,-31.64 245,-38 249.9,-40.98 271.97,-62.76 287.68,-76.27"/>
<polygon fill="midnightblue" stroke="midnightblue" points="211.91,-19.82 201.31,-19.56 209.43,-26.36 211.91,-19.82"/>
</g>
<!-- Node8 -->
<g id="node8" class="node">
<title>Node8</title>
<g id="a_node8"><a xlink:href="group__grp__output.html#ga0f962c09cd5d5eba99f1cba043cb3898" target="_top" xlink:title="Initialize the interface to the HDF5 library and open the output file.">
<polygon fill="white" stroke="black" points="0,-38.5 0,-57.5 94,-57.5 94,-38.5 0,-38.5"/>
<text text-anchor="middle" x="47" y="-45.5" font-family="Helvetica,sans-Serif" font-size="10.00">sphdf5::init_outfile</text>
</a>
</g>
</g>
<!-- Node7&#45;&gt;Node8 -->
<g id="edge8" class="edge">
<title>Node7&#45;&gt;Node8</title>
<path fill="none" stroke="midnightblue" d="M158.74,-17.62C136.91,-23.61 106.37,-31.98 82.89,-38.43"/>
<polygon fill="midnightblue" stroke="midnightblue" points="159.68,-20.99 168.39,-14.97 157.82,-14.24 159.68,-20.99"/>
</g>
<!-- Node8&#45;&gt;Node5 -->
<g id="edge9" class="edge">
<title>Node8&#45;&gt;Node5</title>
<path fill="none" stroke="midnightblue" d="M94.78,-59.85C106.25,-62.47 118.52,-65.05 130,-67 183.93,-76.16 248.04,-81.83 281.36,-84.39"/>
<polygon fill="midnightblue" stroke="midnightblue" points="95.49,-56.42 84.96,-57.55 93.89,-63.24 95.49,-56.42"/>
</g>
<!-- Node10&#45;&gt;Node11 -->
<g id="edge13" class="edge">
<title>Node10&#45;&gt;Node11</title>
<path fill="none" stroke="midnightblue" d="M399.51,-169.26C378.38,-167.82 349.31,-167.92 329.22,-169.54"/>
<polygon fill="midnightblue" stroke="midnightblue" points="399.48,-172.77 409.74,-170.16 400.09,-165.8 399.48,-172.77"/>
</g>
<!-- Node11&#45;&gt;Node7 -->
<g id="edge17" class="edge">
<title>Node11&#45;&gt;Node7</title>
<path fill="none" stroke="midnightblue" d="M282.36,-157.92C281.88,-157.29 281.42,-156.65 281,-156 248.93,-106.87 285.47,-71.47 245,-29 235,-18.51 219.04,-13.81 206.63,-11.71"/>
<polygon fill="midnightblue" stroke="midnightblue" points="280.07,-160.59 289.55,-165.33 285.09,-155.71 280.07,-160.59"/>
</g>
<!-- Node11&#45;&gt;Node10 -->
<g id="edge14" class="edge">
<title>Node11&#45;&gt;Node10</title>
<path fill="none" stroke="midnightblue" d="M339.21,-181.11C362.11,-182.27 391.58,-181.85 409.74,-179.84"/>
<polygon fill="midnightblue" stroke="midnightblue" points="339.42,-177.61 329.22,-180.46 338.97,-184.6 339.42,-177.61"/>
</g>
<!-- Node11&#45;&gt;Node12 -->
<g id="edge15" class="edge">
<title>Node11&#45;&gt;Node12</title>
<path fill="none" stroke="midnightblue" d="M270.49,-172.75C215.08,-173.83 106.32,-182.29 64.72,-189.21"/>
<polygon fill="midnightblue" stroke="midnightblue" points="270.87,-176.25 280.83,-172.64 270.79,-169.25 270.87,-176.25"/>
</g>
<!-- Node13 -->
<g id="node13" class="node">
<title>Node13</title>
<g id="a_node13"><a xlink:href="group__grp__force__driver.html#ga382822b303cbf8c56d6f54dcb379caf2" target="_top" xlink:title="read or write force&#45;derivative matrix">
<polygon fill="white" stroke="black" points="155,-208.5 155,-227.5 220,-227.5 220,-208.5 155,-208.5"/>
<text text-anchor="middle" x="187.5" y="-215.5" font-family="Helvetica,sans-Serif" font-size="10.00">writereadgf</text>
</a>
</g>
</g>
<!-- Node11&#45;&gt;Node13 -->
<g id="edge18" class="edge">
<title>Node11&#45;&gt;Node13</title>
<path fill="none" stroke="midnightblue" d="M271.24,-181.04C248.38,-188.39 219.05,-199.85 202.15,-208.37"/>
<polygon fill="midnightblue" stroke="midnightblue" points="272.37,-184.36 280.9,-178.07 270.32,-177.66 272.37,-184.36"/>
</g>
<!-- Node12&#45;&gt;Node11 -->
<g id="edge16" class="edge">
<title>Node12&#45;&gt;Node11</title>
<path fill="none" stroke="midnightblue" d="M74.85,-196.34C125.28,-195.9 233.36,-187.8 280.83,-180.8"/>
<polygon fill="midnightblue" stroke="midnightblue" points="74.73,-192.84 64.72,-196.31 74.71,-199.84 74.73,-192.84"/>
</g>
<!-- Node13&#45;&gt;Node11 -->
<g id="edge20" class="edge">
<title>Node13&#45;&gt;Node11</title>
<path fill="none" stroke="midnightblue" d="M229.8,-209.12C251.01,-201.89 275.44,-192.14 290.3,-184.66"/>
<polygon fill="midnightblue" stroke="midnightblue" points="228.42,-205.89 220.02,-212.35 230.62,-212.54 228.42,-205.89"/>
</g>
<!-- Node13&#45;&gt;Node12 -->
<g id="edge19" class="edge">
<title>Node13&#45;&gt;Node12</title>
<path fill="none" stroke="midnightblue" d="M144.76,-210.77C117.8,-206.1 84.2,-200.27 64.52,-196.86"/>
<polygon fill="midnightblue" stroke="midnightblue" points="144.27,-214.24 154.73,-212.49 145.47,-207.34 144.27,-214.24"/>
</g>
<!-- Node14&#45;&gt;Node15 -->
<g id="edge23" class="edge">
<title>Node14&#45;&gt;Node15</title>
<path fill="none" stroke="midnightblue" d="M367.99,-304.61C366.98,-305.07 365.98,-305.54 365,-306 345.26,-315.32 323.06,-328.52 312.39,-338.49"/>
<polygon fill="midnightblue" stroke="midnightblue" points="369.48,-307.78 377.23,-300.56 366.67,-301.37 369.48,-307.78"/>
</g>
<!-- Node15&#45;&gt;Node3 -->
<g id="edge24" class="edge">
<title>Node15&#45;&gt;Node3</title>
<path fill="none" stroke="midnightblue" d="M338.27,-349.51C378.02,-349.68 445.7,-344.3 490,-310 525.84,-282.25 540.61,-226.07 545.25,-203.6"/>
<polygon fill="midnightblue" stroke="midnightblue" points="338.14,-346 328.08,-349.34 338.03,-353 338.14,-346"/>
</g>
<!-- Node15&#45;&gt;Node14 -->
<g id="edge29" class="edge">
<title>Node15&#45;&gt;Node14</title>
<path fill="none" stroke="midnightblue" d="M336.94,-338.28C345.86,-333.64 355.7,-328.39 365,-324 382.83,-315.59 404.46,-307.64 416.74,-300.61"/>
<polygon fill="midnightblue" stroke="midnightblue" points="335.34,-335.17 328.03,-342.84 338.53,-341.4 335.34,-335.17"/>
</g>
<!-- Node16 -->
<g id="node16" class="node">
<title>Node16</title>
<g id="a_node16"><a xlink:href="dfp200_8f90.html#a7b64c7392b45d0042d8bd7379c0761a5" target="_top" xlink:title="Evaluate the derivative of the square of the magnetic field modulus. Add spectral constraint derivati...">
<polygon fill="white" stroke="black" points="150.5,-339.5 150.5,-358.5 224.5,-358.5 224.5,-339.5 150.5,-339.5"/>
<text text-anchor="middle" x="187.5" y="-346.5" font-family="Helvetica,sans-Serif" font-size="10.00">evaluate_dbb</text>
</a>
</g>
</g>
<!-- Node15&#45;&gt;Node16 -->
<g id="edge25" class="edge">
<title>Node15&#45;&gt;Node16</title>
<path fill="none" stroke="midnightblue" d="M271.66,-342.15C257.08,-341.52 239.81,-341.61 224.79,-342.37"/>
<polygon fill="midnightblue" stroke="midnightblue" points="271.54,-345.65 281.73,-342.73 271.95,-338.66 271.54,-345.65"/>
</g>
<!-- Node15&#45;&gt;Node17 -->
<g id="edge27" class="edge">
<title>Node15&#45;&gt;Node17</title>
<path fill="none" stroke="midnightblue" d="M272.17,-355.12C248.69,-363.63 217.99,-376.96 201.07,-386.38"/>
<polygon fill="midnightblue" stroke="midnightblue" points="273.44,-358.39 281.73,-351.8 271.14,-351.78 273.44,-358.39"/>
</g>
<!-- Node18 -->
<g id="node18" class="node">
<title>Node18</title>
<g id="a_node18"><a xlink:href="dfp200_8f90.html#a5e56f1f4b1e6df11a9cffa6237c37469" target="_top" xlink:title="This routine evaluates the value of the magnetic field once the interface is perturbed using matrix p...">
<polygon fill="white" stroke="black" points="130,-301.5 130,-320.5 245,-320.5 245,-301.5 130,-301.5"/>
<text text-anchor="middle" x="187.5" y="-308.5" font-family="Helvetica,sans-Serif" font-size="10.00">get_perturbed_solution</text>
</a>
</g>
</g>
<!-- Node15&#45;&gt;Node18 -->
<g id="edge30" class="edge">
<title>Node15&#45;&gt;Node18</title>
<path fill="none" stroke="midnightblue" d="M279.38,-334.47C267.64,-329.82 253.14,-324.82 239.2,-320.54"/>
<polygon fill="midnightblue" stroke="midnightblue" points="278.32,-337.82 288.9,-338.43 281.01,-331.36 278.32,-337.82"/>
</g>
<!-- Node16&#45;&gt;Node15 -->
<g id="edge26" class="edge">
<title>Node16&#45;&gt;Node15</title>
<path fill="none" stroke="midnightblue" d="M235.13,-355.23C251.22,-355.42 268.5,-354.88 281.73,-353.65"/>
<polygon fill="midnightblue" stroke="midnightblue" points="234.86,-351.73 224.79,-355 234.71,-358.73 234.86,-351.73"/>
</g>
<!-- Node17&#45;&gt;Node15 -->
<g id="edge28" class="edge">
<title>Node17&#45;&gt;Node15</title>
<path fill="none" stroke="midnightblue" d="M236.27,-382.81C256.48,-374.78 278.38,-364.91 291.64,-357.51"/>
<polygon fill="midnightblue" stroke="midnightblue" points="234.9,-379.59 226.84,-386.47 237.43,-386.11 234.9,-379.59"/>
</g>
<!-- Node18&#45;&gt;Node15 -->
<g id="edge31" class="edge">
<title>Node18&#45;&gt;Node15</title>
<path fill="none" stroke="midnightblue" d="M212.94,-324.46C233.29,-332.53 262.01,-341.67 281.73,-346.32"/>
<polygon fill="midnightblue" stroke="midnightblue" points="214.28,-321.23 203.7,-320.61 211.59,-327.69 214.28,-321.23"/>
</g>
<!-- Node19&#45;&gt;Node7 -->
<g id="edge33" class="edge">
<title>Node19&#45;&gt;Node7</title>
<path fill="none" stroke="midnightblue" d="M272.17,-10C251.1,-10 224.23,-10 206.71,-10"/>
<polygon fill="midnightblue" stroke="midnightblue" points="272.28,-13.5 282.28,-10 272.28,-6.5 272.28,-13.5"/>
</g>
<!-- Node21 -->
<g id="node21" class="node">
<title>Node21</title>
<g id="a_node21"><a xlink:href="group__grp__conjugate__gradient.html#ga25a3bae2ff2ee0469b045de0d033398b" target="_top" xlink:title="Use preconditioned conjugate gradient method to find minimum of energy functional.">
<polygon fill="white" stroke="black" points="281,-127.5 281,-146.5 329,-146.5 329,-127.5 281,-127.5"/>
<text text-anchor="middle" x="305" y="-134.5" font-family="Helvetica,sans-Serif" font-size="10.00">pc00aa</text>
</a>
</g>
</g>
<!-- Node20&#45;&gt;Node21 -->
<g id="edge36" class="edge">
<title>Node20&#45;&gt;Node21</title>
<path fill="none" stroke="midnightblue" d="M393.16,-137C372.81,-137 347.31,-137 329.16,-137"/>
<polygon fill="midnightblue" stroke="midnightblue" points="393.27,-140.5 403.27,-137 393.27,-133.5 393.27,-140.5"/>
</g>
</g>
</svg>
