<?xml version="1.0" encoding="UTF-8" standalone="no"?>
<!DOCTYPE svg PUBLIC "-//W3C//DTD SVG 1.1//EN"
 "http://www.w3.org/Graphics/SVG/1.1/DTD/svg11.dtd">
<!-- Generated by graphviz version 2.47.1 (0)
 -->
<!-- Title: deallocate_geometry_matrices Pages: 1 -->
<svg width="802pt" height="455pt"
 viewBox="0.00 0.00 802.00 454.78" xmlns="http://www.w3.org/2000/svg" xmlns:xlink="http://www.w3.org/1999/xlink">
<g id="graph0" class="graph" transform="scale(1 1) rotate(0) translate(4 450.78)">
<title>deallocate_geometry_matrices</title>
<polygon fill="white" stroke="transparent" points="-4,4 -4,-450.78 798,-450.78 798,4 -4,4"/>
<!-- Node1 -->
<g id="node1" class="node">
<title>Node1</title>
<g id="a_node1"><a xlink:title="deallocate geometry matrices">
<polygon fill="#bfbfbf" stroke="black" points="688,-41.78 688,-71.78 794,-71.78 794,-41.78 688,-41.78"/>
<text text-anchor="start" x="696" y="-59.78" font-family="Helvetica,sans-Serif" font-size="10.00">deallocate_geometry</text>
<text text-anchor="middle" x="741" y="-48.78" font-family="Helvetica,sans-Serif" font-size="10.00">_matrices</text>
</a>
</g>
</g>
<!-- Node2 -->
<g id="node2" class="node">
<title>Node2</title>
<g id="a_node2"><a xlink:href="dfp100_8f90.html#a17a3ac15cc83994394f7b4cc05e5898e" target="_top" xlink:title="Split the work between MPI nodes and evaluate the global constraint.">
<polygon fill="white" stroke="black" points="606,-47.28 606,-66.28 652,-66.28 652,-47.28 606,-47.28"/>
<text text-anchor="middle" x="629" y="-54.28" font-family="Helvetica,sans-Serif" font-size="10.00">dfp100</text>
</a>
</g>
</g>
<!-- Node1&#45;&gt;Node2 -->
<g id="edge1" class="edge">
<title>Node1&#45;&gt;Node2</title>
<path fill="none" stroke="midnightblue" d="M677.61,-56.78C668.56,-56.78 659.77,-56.78 652.27,-56.78"/>
<polygon fill="midnightblue" stroke="midnightblue" points="677.9,-60.28 687.9,-56.78 677.9,-53.28 677.9,-60.28"/>
</g>
<!-- Node13 -->
<g id="node13" class="node">
<title>Node13</title>
<g id="a_node13"><a xlink:href="dfp200_8f90.html#a55ea75395f8c71731451e1add3720c7e" target="_top" xlink:title="Given the field consistent with the constraints and the geometry, computes local quantites related to...">
<polygon fill="white" stroke="black" points="282,-104.28 282,-123.28 328,-123.28 328,-104.28 282,-104.28"/>
<text text-anchor="middle" x="305" y="-111.28" font-family="Helvetica,sans-Serif" font-size="10.00">dfp200</text>
</a>
</g>
</g>
<!-- Node1&#45;&gt;Node13 -->
<g id="edge36" class="edge">
<title>Node1&#45;&gt;Node13</title>
<path fill="none" stroke="midnightblue" d="M677.61,-71.08C669.03,-72.8 660.32,-74.43 652,-75.78 530.61,-95.5 383.58,-107.88 328.37,-112.13"/>
<polygon fill="midnightblue" stroke="midnightblue" points="678.5,-74.47 687.59,-69.02 677.09,-67.62 678.5,-74.47"/>
</g>
<!-- Node15 -->
<g id="node15" class="node">
<title>Node15</title>
<g id="a_node15"><a xlink:href="dfp200_8f90.html#a73ddf39ecc5228201fb643779e17cd36" target="_top" xlink:title="Evaluate mu and psip derivatives and store them in dmupfdx.">
<polygon fill="white" stroke="black" points="140,-24.28 140,-43.28 235,-43.28 235,-24.28 140,-24.28"/>
<text text-anchor="middle" x="187.5" y="-31.28" font-family="Helvetica,sans-Serif" font-size="10.00">evaluate_dmupfdx</text>
</a>
</g>
</g>
<!-- Node1&#45;&gt;Node15 -->
<g id="edge37" class="edge">
<title>Node1&#45;&gt;Node15</title>
<path fill="none" stroke="midnightblue" d="M682.1,-39.12C644.53,-29.2 594.31,-18.78 549,-18.78 549,-18.78 549,-18.78 426.5,-18.78 360.05,-18.78 283.37,-24.68 235.41,-29.07"/>
<polygon fill="midnightblue" stroke="midnightblue" points="681.29,-42.53 691.85,-41.76 683.12,-35.77 681.29,-42.53"/>
</g>
<!-- Node3 -->
<g id="node3" class="node">
<title>Node3</title>
<g id="a_node3"><a xlink:href="group__grp__global__force.html#ga38c9d3c50bd043707fefa5137c9dbf44" target="_top" xlink:title="Calculates , where &#160;and , and .">
<polygon fill="white" stroke="black" points="526,-256.28 526,-275.28 570,-275.28 570,-256.28 526,-256.28"/>
<text text-anchor="middle" x="548" y="-263.28" font-family="Helvetica,sans-Serif" font-size="10.00">dforce</text>
</a>
</g>
</g>
<!-- Node2&#45;&gt;Node3 -->
<g id="edge2" class="edge">
<title>Node2&#45;&gt;Node3</title>
<path fill="none" stroke="midnightblue" d="M620.86,-75.67C604.51,-118.93 564.81,-223.95 552.62,-256.2"/>
<polygon fill="midnightblue" stroke="midnightblue" points="624.14,-76.89 624.4,-66.3 617.59,-74.42 624.14,-76.89"/>
</g>
<!-- Node2&#45;&gt;Node15 -->
<g id="edge35" class="edge">
<title>Node2&#45;&gt;Node15</title>
<path fill="none" stroke="midnightblue" d="M595.81,-45.45C534.52,-25.33 396.83,12.95 281,-4.78 256.88,-8.47 230.41,-17.29 211.99,-24.23"/>
<polygon fill="midnightblue" stroke="midnightblue" points="595.07,-48.9 605.66,-48.75 597.29,-42.26 595.07,-48.9"/>
</g>
<!-- Node4 -->
<g id="node4" class="node">
<title>Node4</title>
<g id="a_node4"><a xlink:href="namespaceallglobal.html#a7824bc37519fe88336534ce90ab2af16" target="_top" xlink:title=" ">
<polygon fill="white" stroke="black" points="370.5,-389.28 370.5,-408.28 484.5,-408.28 484.5,-389.28 370.5,-389.28"/>
<text text-anchor="middle" x="427.5" y="-396.28" font-family="Helvetica,sans-Serif" font-size="10.00">allglobal::check_inputs</text>
</a>
</g>
</g>
<!-- Node3&#45;&gt;Node4 -->
<g id="edge3" class="edge">
<title>Node3&#45;&gt;Node4</title>
<path fill="none" stroke="midnightblue" d="M541.53,-285.13C533.79,-309.22 517.45,-350.19 490,-374.78 483.09,-380.97 474.39,-385.65 465.73,-389.15"/>
<polygon fill="midnightblue" stroke="midnightblue" points="544.94,-285.95 544.49,-275.37 538.24,-283.92 544.94,-285.95"/>
</g>
<!-- Node6 -->
<g id="node6" class="node">
<title>Node6</title>
<g id="a_node6"><a xlink:href="xspech_8f90.html#a48f45478dc2c9f70ea8aa1c60ad06503" target="_top" xlink:title=" ">
<polygon fill="white" stroke="black" points="168.5,-351.28 168.5,-370.28 206.5,-370.28 206.5,-351.28 168.5,-351.28"/>
<text text-anchor="middle" x="187.5" y="-358.28" font-family="Helvetica,sans-Serif" font-size="10.00">spec</text>
</a>
</g>
</g>
<!-- Node3&#45;&gt;Node6 -->
<g id="edge34" class="edge">
<title>Node3&#45;&gt;Node6</title>
<path fill="none" stroke="midnightblue" d="M516.01,-273.99C443.47,-293.22 264.41,-340.66 206.73,-355.95"/>
<polygon fill="midnightblue" stroke="midnightblue" points="517.14,-277.31 525.91,-271.37 515.35,-270.55 517.14,-277.31"/>
</g>
<!-- Node8 -->
<g id="node8" class="node">
<title>Node8</title>
<g id="a_node8"><a xlink:href="group__grp__force__driver.html#gabbc245b3884ee8d8d3e2a52f25149f78" target="_top" xlink:title="fcn1">
<polygon fill="white" stroke="black" points="410,-237.28 410,-256.28 445,-256.28 445,-237.28 410,-237.28"/>
<text text-anchor="middle" x="427.5" y="-244.28" font-family="Helvetica,sans-Serif" font-size="10.00">fcn1</text>
</a>
</g>
</g>
<!-- Node3&#45;&gt;Node8 -->
<g id="edge9" class="edge">
<title>Node3&#45;&gt;Node8</title>
<path fill="none" stroke="midnightblue" d="M515.69,-260.76C493.13,-257.14 463.55,-252.4 445.29,-249.47"/>
<polygon fill="midnightblue" stroke="midnightblue" points="515.39,-264.26 525.81,-262.38 516.49,-257.34 515.39,-264.26"/>
</g>
<!-- Node9 -->
<g id="node9" class="node">
<title>Node9</title>
<g id="a_node9"><a xlink:href="group__grp__force__driver.html#gaec14f81fbdbedafbc4189489ec8ae178" target="_top" xlink:title="Employs Newton method to find , where &#160;and &#160;is defined in dforce() .">
<polygon fill="white" stroke="black" points="281,-260.28 281,-279.28 329,-279.28 329,-260.28 281,-260.28"/>
<text text-anchor="middle" x="305" y="-267.28" font-family="Helvetica,sans-Serif" font-size="10.00">newton</text>
</a>
</g>
</g>
<!-- Node3&#45;&gt;Node9 -->
<g id="edge31" class="edge">
<title>Node3&#45;&gt;Node9</title>
<path fill="none" stroke="midnightblue" d="M515.55,-266.3C466.41,-267.12 372.53,-268.68 329.09,-269.4"/>
<polygon fill="midnightblue" stroke="midnightblue" points="515.67,-269.8 525.61,-266.13 515.56,-262.8 515.67,-269.8"/>
</g>
<!-- Node10 -->
<g id="node10" class="node">
<title>Node10</title>
<g id="a_node10"><a xlink:href="group__grp__force__driver.html#ga8ccd6c7d901872702521d0a0edf95412" target="_top" xlink:title="fcn2">
<polygon fill="white" stroke="black" points="29.5,-246.28 29.5,-265.28 64.5,-265.28 64.5,-246.28 29.5,-246.28"/>
<text text-anchor="middle" x="47" y="-253.28" font-family="Helvetica,sans-Serif" font-size="10.00">fcn2</text>
</a>
</g>
</g>
<!-- Node3&#45;&gt;Node10 -->
<g id="edge18" class="edge">
<title>Node3&#45;&gt;Node10</title>
<path fill="none" stroke="midnightblue" d="M528.68,-249.5C518.15,-241.25 504.23,-232.09 490,-227.78 330.31,-179.43 123.76,-233.17 64.53,-250.66"/>
<polygon fill="midnightblue" stroke="midnightblue" points="526.71,-252.41 536.65,-256.08 531.17,-247.02 526.71,-252.41"/>
</g>
<!-- Node12 -->
<g id="node12" class="node">
<title>Node12</title>
<g id="a_node12"><a xlink:href="dfp200_8f90.html#a6aca59cf350d7b1941f8389d50945a43" target="_top" xlink:title="get LU Beltrami matrices">
<polygon fill="white" stroke="black" points="365,-161.28 365,-180.28 490,-180.28 490,-161.28 365,-161.28"/>
<text text-anchor="middle" x="427.5" y="-168.28" font-family="Helvetica,sans-Serif" font-size="10.00">get_lu_beltrami_matrices</text>
</a>
</g>
</g>
<!-- Node3&#45;&gt;Node12 -->
<g id="edge19" class="edge">
<title>Node3&#45;&gt;Node12</title>
<path fill="none" stroke="midnightblue" d="M536.09,-247.3C525.91,-231.47 509.42,-209.03 490,-194.78 481.78,-188.74 471.84,-184 462.37,-180.39"/>
<polygon fill="midnightblue" stroke="midnightblue" points="533.34,-249.51 541.57,-256.17 539.29,-245.83 533.34,-249.51"/>
</g>
<!-- Node17 -->
<g id="node17" class="node">
<title>Node17</title>
<g id="a_node17"><a xlink:href="group__grp__diagnostics.html#ga7401b50ec10c6598ee4a8112717a63ec" target="_top" xlink:title="Computes eigenvalues and eigenvectors of derivative matrix, .">
<polygon fill="white" stroke="black" points="282.5,-351.28 282.5,-370.28 327.5,-370.28 327.5,-351.28 282.5,-351.28"/>
<text text-anchor="middle" x="305" y="-358.28" font-family="Helvetica,sans-Serif" font-size="10.00">hesian</text>
</a>
</g>
</g>
<!-- Node3&#45;&gt;Node17 -->
<g id="edge29" class="edge">
<title>Node3&#45;&gt;Node17</title>
<path fill="none" stroke="midnightblue" d="M537.6,-284.18C528.03,-300.88 511.54,-324.67 490,-336.78 437.62,-366.22 363.91,-365.5 327.74,-362.94"/>
<polygon fill="midnightblue" stroke="midnightblue" points="540.72,-285.77 542.43,-275.32 534.57,-282.43 540.72,-285.77"/>
</g>
<!-- Node18 -->
<g id="node18" class="node">
<title>Node18</title>
<g id="a_node18"><a xlink:href="group__grp__conjugate__gradient.html#ga4d8415226e62a9fdb42b0fd0b464251e" target="_top" xlink:title="Returns the energy functional and it&#39;s derivatives with respect to geometry.">
<polygon fill="white" stroke="black" points="403.5,-427.28 403.5,-446.28 451.5,-446.28 451.5,-427.28 403.5,-427.28"/>
<text text-anchor="middle" x="427.5" y="-434.28" font-family="Helvetica,sans-Serif" font-size="10.00">pc00ab</text>
</a>
</g>
</g>
<!-- Node3&#45;&gt;Node18 -->
<g id="edge32" class="edge">
<title>Node3&#45;&gt;Node18</title>
<path fill="none" stroke="midnightblue" d="M545.11,-285.56C540.96,-317.83 528.16,-381.81 490,-417.78 479.67,-427.51 464.46,-432.27 451.74,-434.58"/>
<polygon fill="midnightblue" stroke="midnightblue" points="548.59,-285.9 546.24,-275.57 541.63,-285.11 548.59,-285.9"/>
</g>
<!-- Node5 -->
<g id="node5" class="node">
<title>Node5</title>
<g id="a_node5"><a xlink:href="xspech_8f90.html#aea782eae089760a491c2c54f9903abcc" target="_top" xlink:title="Main program of SPEC.">
<polygon fill="white" stroke="black" points="281.5,-389.28 281.5,-408.28 328.5,-408.28 328.5,-389.28 281.5,-389.28"/>
<text text-anchor="middle" x="305" y="-396.28" font-family="Helvetica,sans-Serif" font-size="10.00">xspech</text>
</a>
</g>
</g>
<!-- Node4&#45;&gt;Node5 -->
<g id="edge4" class="edge">
<title>Node4&#45;&gt;Node5</title>
<path fill="none" stroke="midnightblue" d="M360.45,-398.78C349.06,-398.78 337.95,-398.78 328.77,-398.78"/>
<polygon fill="midnightblue" stroke="midnightblue" points="360.48,-402.28 370.48,-398.78 360.48,-395.28 360.48,-402.28"/>
</g>
<!-- Node5&#45;&gt;Node6 -->
<g id="edge5" class="edge">
<title>Node5&#45;&gt;Node6</title>
<path fill="none" stroke="midnightblue" d="M279.63,-385.14C257.82,-376.29 226.32,-366.12 206.65,-361.68"/>
<polygon fill="midnightblue" stroke="midnightblue" points="278.33,-388.39 288.9,-389.08 281.07,-381.94 278.33,-388.39"/>
</g>
<!-- Node6&#45;&gt;Node5 -->
<g id="edge8" class="edge">
<title>Node6&#45;&gt;Node5</title>
<path fill="none" stroke="midnightblue" d="M212.76,-374.38C233.02,-382.6 261.69,-391.98 281.46,-396.84"/>
<polygon fill="midnightblue" stroke="midnightblue" points="213.86,-371.04 203.29,-370.34 211.11,-377.48 213.86,-371.04"/>
</g>
<!-- Node7 -->
<g id="node7" class="node">
<title>Node7</title>
<g id="a_node7"><a xlink:href="group__grp__output.html#ga0f962c09cd5d5eba99f1cba043cb3898" target="_top" xlink:title="Initialize the interface to the HDF5 library and open the output file.">
<polygon fill="white" stroke="black" points="0,-370.28 0,-389.28 94,-389.28 94,-370.28 0,-370.28"/>
<text text-anchor="middle" x="47" y="-377.28" font-family="Helvetica,sans-Serif" font-size="10.00">sphdf5::init_outfile</text>
</a>
</g>
</g>
<!-- Node6&#45;&gt;Node7 -->
<g id="edge6" class="edge">
<title>Node6&#45;&gt;Node7</title>
<path fill="none" stroke="midnightblue" d="M158.31,-364.65C139.87,-367.18 115.36,-370.54 94.12,-373.45"/>
<polygon fill="midnightblue" stroke="midnightblue" points="158.96,-368.09 168.39,-363.26 158.01,-361.16 158.96,-368.09"/>
</g>
<!-- Node7&#45;&gt;Node5 -->
<g id="edge7" class="edge">
<title>Node7&#45;&gt;Node5</title>
<path fill="none" stroke="midnightblue" d="M104.27,-383.96C159.79,-388.08 241.88,-394.17 281.28,-397.09"/>
<polygon fill="midnightblue" stroke="midnightblue" points="104.47,-380.46 94.23,-383.21 103.95,-387.44 104.47,-380.46"/>
</g>
<!-- Node8&#45;&gt;Node9 -->
<g id="edge10" class="edge">
<title>Node8&#45;&gt;Node9</title>
<path fill="none" stroke="midnightblue" d="M399.6,-246.18C378.01,-248.83 348.07,-254.67 327.92,-260.25"/>
<polygon fill="midnightblue" stroke="midnightblue" points="400.16,-249.64 409.74,-245.13 399.44,-242.68 400.16,-249.64"/>
</g>
<!-- Node9&#45;&gt;Node6 -->
<g id="edge14" class="edge">
<title>Node9&#45;&gt;Node6</title>
<path fill="none" stroke="midnightblue" d="M286.29,-286.38C274.81,-296.88 259.37,-310.55 245,-321.78 231.48,-332.35 215.29,-343.37 203.71,-350.99"/>
<polygon fill="midnightblue" stroke="midnightblue" points="288.9,-288.72 293.87,-279.37 284.15,-283.58 288.9,-288.72"/>
</g>
<!-- Node9&#45;&gt;Node8 -->
<g id="edge11" class="edge">
<title>Node9&#45;&gt;Node8</title>
<path fill="none" stroke="midnightblue" d="M339.21,-269.55C362.11,-266.34 391.58,-260.3 409.74,-254.82"/>
<polygon fill="midnightblue" stroke="midnightblue" points="338.7,-266.08 329.22,-270.81 339.57,-273.03 338.7,-266.08"/>
</g>
<!-- Node9&#45;&gt;Node10 -->
<g id="edge12" class="edge">
<title>Node9&#45;&gt;Node10</title>
<path fill="none" stroke="midnightblue" d="M270.84,-263.25C215.53,-257.17 106.41,-251.59 64.72,-253.14"/>
<polygon fill="midnightblue" stroke="midnightblue" points="270.49,-266.73 280.83,-264.43 271.31,-259.78 270.49,-266.73"/>
</g>
<!-- Node11 -->
<g id="node11" class="node">
<title>Node11</title>
<g id="a_node11"><a xlink:href="group__grp__force__driver.html#ga382822b303cbf8c56d6f54dcb379caf2" target="_top" xlink:title="read or write force&#45;derivative matrix">
<polygon fill="white" stroke="black" points="155,-293.28 155,-312.28 220,-312.28 220,-293.28 155,-293.28"/>
<text text-anchor="middle" x="187.5" y="-300.28" font-family="Helvetica,sans-Serif" font-size="10.00">writereadgf</text>
</a>
</g>
</g>
<!-- Node9&#45;&gt;Node11 -->
<g id="edge15" class="edge">
<title>Node9&#45;&gt;Node11</title>
<path fill="none" stroke="midnightblue" d="M271.11,-273.02C249.44,-278.11 222.01,-286.38 204.85,-293.23"/>
<polygon fill="midnightblue" stroke="midnightblue" points="271.9,-276.43 280.9,-270.85 270.38,-269.59 271.9,-276.43"/>
</g>
<!-- Node10&#45;&gt;Node9 -->
<g id="edge13" class="edge">
<title>Node10&#45;&gt;Node9</title>
<path fill="none" stroke="midnightblue" d="M74.85,-261.58C125.28,-267.64 233.36,-273.47 280.83,-272.59"/>
<polygon fill="midnightblue" stroke="midnightblue" points="75.1,-258.09 64.72,-260.25 74.18,-265.03 75.1,-258.09"/>
</g>
<!-- Node11&#45;&gt;Node9 -->
<g id="edge17" class="edge">
<title>Node11&#45;&gt;Node9</title>
<path fill="none" stroke="midnightblue" d="M230.05,-297.42C249.89,-292.35 272.51,-285.36 287.45,-279.41"/>
<polygon fill="midnightblue" stroke="midnightblue" points="229.16,-294.03 220.28,-299.8 230.83,-300.83 229.16,-294.03"/>
</g>
<!-- Node11&#45;&gt;Node10 -->
<g id="edge16" class="edge">
<title>Node11&#45;&gt;Node10</title>
<path fill="none" stroke="midnightblue" d="M148.77,-289.98C121.28,-280.65 85.37,-268.46 64.68,-261.44"/>
<polygon fill="midnightblue" stroke="midnightblue" points="147.88,-293.37 158.47,-293.27 150.13,-286.74 147.88,-293.37"/>
</g>
<!-- Node12&#45;&gt;Node13 -->
<g id="edge20" class="edge">
<title>Node12&#45;&gt;Node13</title>
<path fill="none" stroke="midnightblue" d="M407.48,-156.43C395.18,-150.64 378.93,-144.35 365,-137.78 352.48,-131.87 338.96,-124.4 328.03,-118.94"/>
<polygon fill="midnightblue" stroke="midnightblue" points="406.24,-159.73 416.74,-161.17 409.43,-153.5 406.24,-159.73"/>
</g>
<!-- Node13&#45;&gt;Node3 -->
<g id="edge21" class="edge">
<title>Node13&#45;&gt;Node3</title>
<path fill="none" stroke="midnightblue" d="M338.24,-112.32C377.94,-112.2 445.58,-117.63 490,-151.78 525.26,-178.89 540.29,-233.71 545.12,-256.01"/>
<polygon fill="midnightblue" stroke="midnightblue" points="338,-108.83 328.06,-112.48 338.11,-115.83 338,-108.83"/>
</g>
<!-- Node13&#45;&gt;Node12 -->
<g id="edge26" class="edge">
<title>Node13&#45;&gt;Node12</title>
<path fill="none" stroke="midnightblue" d="M320.2,-129.71C331.98,-138.47 349.27,-148.35 365,-155.78 368.94,-157.64 373.06,-159.47 377.23,-161.22"/>
<polygon fill="midnightblue" stroke="midnightblue" points="322.34,-126.93 312.39,-123.29 317.9,-132.34 322.34,-126.93"/>
</g>
<!-- Node14 -->
<g id="node14" class="node">
<title>Node14</title>
<g id="a_node14"><a xlink:href="dfp200_8f90.html#a7b64c7392b45d0042d8bd7379c0761a5" target="_top" xlink:title="Evaluate the derivative of the square of the magnetic field modulus. Add spectral constraint derivati...">
<polygon fill="white" stroke="black" points="150.5,-128.28 150.5,-147.28 224.5,-147.28 224.5,-128.28 150.5,-128.28"/>
<text text-anchor="middle" x="187.5" y="-135.28" font-family="Helvetica,sans-Serif" font-size="10.00">evaluate_dbb</text>
</a>
</g>
</g>
<!-- Node13&#45;&gt;Node14 -->
<g id="edge22" class="edge">
<title>Node13&#45;&gt;Node14</title>
<path fill="none" stroke="midnightblue" d="M271.78,-114.35C251.74,-117.47 226.55,-122.97 209.15,-128.17"/>
<polygon fill="midnightblue" stroke="midnightblue" points="272.32,-117.81 281.73,-112.95 271.34,-110.88 272.32,-117.81"/>
</g>
<!-- Node13&#45;&gt;Node15 -->
<g id="edge24" class="edge">
<title>Node13&#45;&gt;Node15</title>
<path fill="none" stroke="midnightblue" d="M287.56,-97.5C267.22,-81.12 232.53,-56.92 210.07,-43.32"/>
<polygon fill="midnightblue" stroke="midnightblue" points="285.4,-100.26 295.32,-103.99 289.89,-94.89 285.4,-100.26"/>
</g>
<!-- Node16 -->
<g id="node16" class="node">
<title>Node16</title>
<g id="a_node16"><a xlink:href="dfp200_8f90.html#a5e56f1f4b1e6df11a9cffa6237c37469" target="_top" xlink:title="This routine evaluates the value of the magnetic field once the interface is perturbed using matrix p...">
<polygon fill="white" stroke="black" points="130,-90.28 130,-109.28 245,-109.28 245,-90.28 130,-90.28"/>
<text text-anchor="middle" x="187.5" y="-97.28" font-family="Helvetica,sans-Serif" font-size="10.00">get_perturbed_solution</text>
</a>
</g>
</g>
<!-- Node13&#45;&gt;Node16 -->
<g id="edge27" class="edge">
<title>Node13&#45;&gt;Node16</title>
<path fill="none" stroke="midnightblue" d="M271.78,-103.75C263.51,-102.31 254.35,-101 245.23,-99.91"/>
<polygon fill="midnightblue" stroke="midnightblue" points="271.26,-107.21 281.73,-105.62 272.55,-100.33 271.26,-107.21"/>
</g>
<!-- Node14&#45;&gt;Node13 -->
<g id="edge23" class="edge">
<title>Node14&#45;&gt;Node13</title>
<path fill="none" stroke="midnightblue" d="M234.86,-134.78C251.8,-131.61 270.1,-127.36 283.62,-123.31"/>
<polygon fill="midnightblue" stroke="midnightblue" points="233.79,-131.41 224.55,-136.6 235,-138.31 233.79,-131.41"/>
</g>
<!-- Node15&#45;&gt;Node13 -->
<g id="edge25" class="edge">
<title>Node15&#45;&gt;Node13</title>
<path fill="none" stroke="midnightblue" d="M204.77,-49.92C225.04,-66.27 259.75,-90.49 282.28,-104.14"/>
<polygon fill="midnightblue" stroke="midnightblue" points="206.96,-47.18 197.04,-43.45 202.46,-52.55 206.96,-47.18"/>
</g>
<!-- Node16&#45;&gt;Node13 -->
<g id="edge28" class="edge">
<title>Node16&#45;&gt;Node13</title>
<path fill="none" stroke="midnightblue" d="M228.05,-111.02C245.99,-113.82 266.54,-115.98 281.73,-116.54"/>
<polygon fill="midnightblue" stroke="midnightblue" points="228.57,-107.56 218.13,-109.35 227.41,-114.46 228.57,-107.56"/>
</g>
<!-- Node17&#45;&gt;Node6 -->
<g id="edge30" class="edge">
<title>Node17&#45;&gt;Node6</title>
<path fill="none" stroke="midnightblue" d="M272.17,-360.78C251.1,-360.78 224.23,-360.78 206.71,-360.78"/>
<polygon fill="midnightblue" stroke="midnightblue" points="272.28,-364.28 282.28,-360.78 272.28,-357.28 272.28,-364.28"/>
</g>
<!-- Node19 -->
<g id="node19" class="node">
<title>Node19</title>
<g id="a_node19"><a xlink:href="group__grp__conjugate__gradient.html#ga25a3bae2ff2ee0469b045de0d033398b" target="_top" xlink:title="Use preconditioned conjugate gradient method to find minimum of energy functional.">
<polygon fill="white" stroke="black" points="281,-427.28 281,-446.28 329,-446.28 329,-427.28 281,-427.28"/>
<text text-anchor="middle" x="305" y="-434.28" font-family="Helvetica,sans-Serif" font-size="10.00">pc00aa</text>
</a>
</g>
</g>
<!-- Node18&#45;&gt;Node19 -->
<g id="edge33" class="edge">
<title>Node18&#45;&gt;Node19</title>
<path fill="none" stroke="midnightblue" d="M393.16,-436.78C372.81,-436.78 347.31,-436.78 329.16,-436.78"/>
<polygon fill="midnightblue" stroke="midnightblue" points="393.27,-440.28 403.27,-436.78 393.27,-433.28 393.27,-440.28"/>
</g>
</g>
</svg>
