<?xml version="1.0" encoding="UTF-8" standalone="no"?>
<!DOCTYPE svg PUBLIC "-//W3C//DTD SVG 1.1//EN"
 "http://www.w3.org/Graphics/SVG/1.1/DTD/svg11.dtd">
<!-- Generated by graphviz version 3.0.0 (20220413.0106)
 -->
<!-- Title: compute_guvijsave Pages: 1 -->
<svg width="275pt" height="46pt"
 viewBox="0.00 0.00 275.00 46.00" xmlns="http://www.w3.org/2000/svg" xmlns:xlink="http://www.w3.org/1999/xlink">
<g id="graph0" class="graph" transform="scale(1 1) rotate(0) translate(4 42)">
<title>compute_guvijsave</title>
<polygon fill="white" stroke="transparent" points="-4,4 -4,-42 271,-42 271,4 -4,4"/>
<!-- Node1 -->
<g id="node1" class="node">
<title>Node1</title>
<g id="a_node1"><a xlink:title="compute guvijsave">
<polygon fill="#bfbfbf" stroke="black" points="0,-0.5 0,-19.5 101,-19.5 101,-0.5 0,-0.5"/>
<text text-anchor="middle" x="50.5" y="-7.5" font-family="Helvetica,sans-Serif" font-size="10.00">compute_guvijsave</text>
</a>
</g>
</g>
<!-- Node2 -->
<g id="node2" class="node">
<title>Node2</title>
<g id="a_node2"><a xlink:href="group__grp__geometry.html#gaaca20aa60eaf39055f3c9d5c02a24ac2" target="_top" xlink:title="Calculates coordinates, , and metrics, using FFTs.">
<polygon fill="white" stroke="black" points="137,-0.5 137,-19.5 183,-19.5 183,-0.5 137,-0.5"/>
<text text-anchor="middle" x="160" y="-7.5" font-family="Helvetica,sans-Serif" font-size="10.00">coords</text>
</a>
</g>
</g>
<!-- Node1&#45;&gt;Node2 -->
<g id="edge1" class="edge">
<title>Node1&#45;&gt;Node2</title>
<path fill="none" stroke="midnightblue" d="M101.16,-10C109.88,-10 118.75,-10 126.83,-10"/>
<polygon fill="midnightblue" stroke="midnightblue" points="126.93,-13.5 136.93,-10 126.93,-6.5 126.93,-13.5"/>
</g>
<!-- Node2&#45;&gt;Node2 -->
<g id="edge2" class="edge">
<title>Node2&#45;&gt;Node2</title>
<path fill="none" stroke="midnightblue" d="M147.36,-19.76C141.21,-28.57 145.43,-38 160,-38 168.88,-38 173.91,-34.5 175.1,-29.77"/>
<polygon fill="midnightblue" stroke="midnightblue" points="178.43,-28.63 172.64,-19.76 171.63,-30.3 178.43,-28.63"/>
</g>
<!-- Node3 -->
<g id="node3" class="node">
<title>Node3</title>
<g id="a_node3"><a xlink:href="group__grp__volume.html#gae4c62d20b8fef07f4471b5b0889ab005" target="_top" xlink:title="Computes volume of each region; and, if required, the derivatives of the volume with respect to the i...">
<polygon fill="white" stroke="black" points="219,-0.5 219,-19.5 267,-19.5 267,-0.5 219,-0.5"/>
<text text-anchor="middle" x="243" y="-7.5" font-family="Helvetica,sans-Serif" font-size="10.00">volume</text>
</a>
</g>
</g>
<!-- Node2&#45;&gt;Node3 -->
<g id="edge3" class="edge">
<title>Node2&#45;&gt;Node3</title>
<path fill="none" stroke="midnightblue" d="M183.13,-3.91C190.99,-3.3 200.02,-3.12 208.61,-3.34"/>
<polygon fill="midnightblue" stroke="midnightblue" points="208.61,-6.85 218.76,-3.83 208.94,0.15 208.61,-6.85"/>
</g>
<!-- Node3&#45;&gt;Node2 -->
<g id="edge4" class="edge">
<title>Node3&#45;&gt;Node2</title>
<path fill="none" stroke="midnightblue" d="M218.76,-16.17C210.8,-16.74 201.74,-16.89 193.19,-16.62"/>
<polygon fill="midnightblue" stroke="midnightblue" points="193.3,-13.12 183.13,-16.09 192.94,-20.11 193.3,-13.12"/>
</g>
<!-- Node3&#45;&gt;Node3 -->
<g id="edge5" class="edge">
<title>Node3&#45;&gt;Node3</title>
<path fill="none" stroke="midnightblue" d="M230.36,-19.76C224.21,-28.57 228.43,-38 243,-38 251.88,-38 256.91,-34.5 258.1,-29.77"/>
<polygon fill="midnightblue" stroke="midnightblue" points="261.43,-28.63 255.64,-19.76 254.63,-30.3 261.43,-28.63"/>
</g>
</g>
</svg>
