<?xml version="1.0" encoding="UTF-8" standalone="no"?>
<!DOCTYPE svg PUBLIC "-//W3C//DTD SVG 1.1//EN"
 "http://www.w3.org/Graphics/SVG/1.1/DTD/svg11.dtd">
<!-- Generated by graphviz version 2.49.3 (20211027.1534)
 -->
<!-- Title: compute_guvijsave Pages: 1 -->
<svg width="1309pt" height="622pt"
 viewBox="0.00 0.00 1309.00 621.91" xmlns="http://www.w3.org/2000/svg" xmlns:xlink="http://www.w3.org/1999/xlink">
<g id="graph0" class="graph" transform="scale(1 1) rotate(0) translate(4 617.91)">
<title>compute_guvijsave</title>
<polygon fill="white" stroke="transparent" points="-4,4 -4,-617.91 1305,-617.91 1305,4 -4,4"/>
<!-- Node1 -->
<g id="node1" class="node">
<title>Node1</title>
<g id="a_node1"><a xlink:title="compute guvijsave">
<polygon fill="#bfbfbf" stroke="black" points="1200,-394.5 1200,-413.5 1301,-413.5 1301,-394.5 1200,-394.5"/>
<text text-anchor="middle" x="1250.5" y="-401.5" font-family="Helvetica,sans-Serif" font-size="10.00">compute_guvijsave</text>
</a>
</g>
</g>
<!-- Node2 -->
<g id="node2" class="node">
<title>Node2</title>
<g id="a_node2"><a xlink:href="dfp100_8f90.html#a17a3ac15cc83994394f7b4cc05e5898e" target="_top" xlink:title="Split the work between MPI nodes and evaluate the global constraint.">
<polygon fill="white" stroke="black" points="606,-414.5 606,-433.5 652,-433.5 652,-414.5 606,-414.5"/>
<text text-anchor="middle" x="629" y="-421.5" font-family="Helvetica,sans-Serif" font-size="10.00">dfp100</text>
</a>
</g>
</g>
<!-- Node1&#45;&gt;Node2 -->
<g id="edge1" class="edge">
<title>Node1&#45;&gt;Node2</title>
<path fill="none" stroke="midnightblue" d="M1189.53,-404C1152.61,-404 1104.31,-404 1061.5,-404 1061.5,-404 1061.5,-404 880.5,-404 795.86,-404 695.65,-415.49 652.07,-421.05"/>
<polygon fill="midnightblue" stroke="midnightblue" points="1189.63,-407.5 1199.63,-404 1189.63,-400.5 1189.63,-407.5"/>
</g>
<!-- Node22 -->
<g id="node22" class="node">
<title>Node22</title>
<g id="a_node22"><a xlink:href="intghs_8f90.html#a21d3b7106371783302e68297f7797e9f" target="_top" xlink:title="Calculates volume integrals of Chebyshev polynomials and covariant field products.">
<polygon fill="white" stroke="black" points="1121,-489.5 1121,-508.5 1164,-508.5 1164,-489.5 1121,-489.5"/>
<text text-anchor="middle" x="1142.5" y="-496.5" font-family="Helvetica,sans-Serif" font-size="10.00">intghs</text>
</a>
</g>
</g>
<!-- Node1&#45;&gt;Node22 -->
<g id="edge50" class="edge">
<title>Node1&#45;&gt;Node22</title>
<path fill="none" stroke="midnightblue" d="M1231.08,-420.51C1208.87,-440.42 1172.26,-473.22 1154.23,-489.39"/>
<polygon fill="midnightblue" stroke="midnightblue" points="1233.44,-423.09 1238.56,-413.81 1228.77,-417.88 1233.44,-423.09"/>
</g>
<!-- Node29 -->
<g id="node29" class="node">
<title>Node29</title>
<g id="a_node29"><a xlink:href="group__grp__integrals.html#ga400af9e33dd5465ff9a4bba9fbf91108" target="_top" xlink:title="Calculates volume integrals of Chebyshev polynomials and metric element products.">
<polygon fill="white" stroke="black" points="728.5,-338.5 728.5,-357.5 779.5,-357.5 779.5,-338.5 728.5,-338.5"/>
<text text-anchor="middle" x="754" y="-345.5" font-family="Helvetica,sans-Serif" font-size="10.00">ma00aa</text>
</a>
</g>
</g>
<!-- Node1&#45;&gt;Node29 -->
<g id="edge69" class="edge">
<title>Node1&#45;&gt;Node29</title>
<path fill="none" stroke="midnightblue" d="M1217.08,-390.75C1180.09,-376.85 1117.47,-357 1061.5,-357 1061.5,-357 1061.5,-357 970.5,-357 901.23,-357 819.53,-352.3 779.55,-349.69"/>
<polygon fill="midnightblue" stroke="midnightblue" points="1216.21,-394.17 1226.8,-394.49 1218.73,-387.63 1216.21,-394.17"/>
</g>
<!-- Node2&#45;&gt;Node2 -->
<g id="edge48" class="edge">
<title>Node2&#45;&gt;Node2</title>
<path fill="none" stroke="midnightblue" d="M643.73,-443.77C642.58,-448.5 637.66,-452 629,-452 614.78,-452 610.67,-442.57 616.67,-433.76"/>
<polygon fill="midnightblue" stroke="midnightblue" points="647.07,-442.66 641.33,-433.76 640.26,-444.3 647.07,-442.66"/>
</g>
<!-- Node3 -->
<g id="node3" class="node">
<title>Node3</title>
<g id="a_node3"><a xlink:href="group__grp__global__force.html#ga38c9d3c50bd043707fefa5137c9dbf44" target="_top" xlink:title="Calculates , where &#160;and , and .">
<polygon fill="white" stroke="black" points="526,-224.5 526,-243.5 570,-243.5 570,-224.5 526,-224.5"/>
<text text-anchor="middle" x="548" y="-231.5" font-family="Helvetica,sans-Serif" font-size="10.00">dforce</text>
</a>
</g>
</g>
<!-- Node2&#45;&gt;Node3 -->
<g id="edge2" class="edge">
<title>Node2&#45;&gt;Node3</title>
<path fill="none" stroke="midnightblue" d="M620.07,-404.93C603.49,-365.05 565.64,-274.02 553.11,-243.89"/>
<polygon fill="midnightblue" stroke="midnightblue" points="616.9,-406.43 623.97,-414.32 623.37,-403.74 616.9,-406.43"/>
</g>
<!-- Node17 -->
<g id="node17" class="node">
<title>Node17</title>
<g id="a_node17"><a xlink:href="dfp200_8f90.html#a73ddf39ecc5228201fb643779e17cd36" target="_top" xlink:title="Evaluate mu and psip derivatives and store them in dmupfdx.">
<polygon fill="white" stroke="black" points="140,-460.5 140,-479.5 235,-479.5 235,-460.5 140,-460.5"/>
<text text-anchor="middle" x="187.5" y="-467.5" font-family="Helvetica,sans-Serif" font-size="10.00">evaluate_dmupfdx</text>
</a>
</g>
</g>
<!-- Node2&#45;&gt;Node17 -->
<g id="edge49" class="edge">
<title>Node2&#45;&gt;Node17</title>
<path fill="none" stroke="midnightblue" d="M595.88,-427.36C519.17,-435.39 325.02,-455.71 235.29,-465.1"/>
<polygon fill="midnightblue" stroke="midnightblue" points="596.32,-430.83 605.9,-426.31 595.59,-423.87 596.32,-430.83"/>
</g>
<!-- Node3&#45;&gt;Node3 -->
<g id="edge14" class="edge">
<title>Node3&#45;&gt;Node3</title>
<path fill="none" stroke="midnightblue" d="M562.73,-253.77C561.58,-258.5 556.66,-262 548,-262 533.78,-262 529.67,-252.57 535.67,-243.76"/>
<polygon fill="midnightblue" stroke="midnightblue" points="566.07,-252.66 560.33,-243.76 559.26,-254.3 566.07,-252.66"/>
</g>
<!-- Node4 -->
<g id="node4" class="node">
<title>Node4</title>
<g id="a_node4"><a xlink:href="namespaceallglobal.html#a7824bc37519fe88336534ce90ab2af16" target="_top" xlink:title=" ">
<polygon fill="white" stroke="black" points="370.5,-83.5 370.5,-102.5 484.5,-102.5 484.5,-83.5 370.5,-83.5"/>
<text text-anchor="middle" x="427.5" y="-90.5" font-family="Helvetica,sans-Serif" font-size="10.00">allglobal::check_inputs</text>
</a>
</g>
</g>
<!-- Node3&#45;&gt;Node4 -->
<g id="edge3" class="edge">
<title>Node3&#45;&gt;Node4</title>
<path fill="none" stroke="midnightblue" d="M541.39,-214.42C533.51,-189.98 517.02,-148.22 490,-122 481.27,-113.53 469.61,-107.18 458.79,-102.62"/>
<polygon fill="midnightblue" stroke="midnightblue" points="538.15,-215.77 544.42,-224.31 544.84,-213.73 538.15,-215.77"/>
</g>
<!-- Node7 -->
<g id="node7" class="node">
<title>Node7</title>
<g id="a_node7"><a xlink:href="xspech_8f90.html#a48f45478dc2c9f70ea8aa1c60ad06503" target="_top" xlink:title="This is the main &quot;driver&quot; for the physics part of SPEC.">
<polygon fill="white" stroke="black" points="168.5,-122.5 168.5,-141.5 206.5,-141.5 206.5,-122.5 168.5,-122.5"/>
<text text-anchor="middle" x="187.5" y="-129.5" font-family="Helvetica,sans-Serif" font-size="10.00">spec</text>
</a>
</g>
</g>
<!-- Node3&#45;&gt;Node7 -->
<g id="edge47" class="edge">
<title>Node3&#45;&gt;Node7</title>
<path fill="none" stroke="midnightblue" d="M519.47,-220.93C471.16,-203.84 367.98,-174.95 281,-150 255.11,-142.57 225.2,-133.81 206.56,-130.56"/>
<polygon fill="midnightblue" stroke="midnightblue" points="518.33,-224.23 528.92,-224.39 520.74,-217.66 518.33,-224.23"/>
</g>
<!-- Node10 -->
<g id="node10" class="node">
<title>Node10</title>
<g id="a_node10"><a xlink:href="group__grp__force__driver.html#gabbc245b3884ee8d8d3e2a52f25149f78" target="_top" xlink:title="Objective to be given to the Newton solver, using only function values.">
<polygon fill="white" stroke="black" points="410,-262.5 410,-281.5 445,-281.5 445,-262.5 410,-262.5"/>
<text text-anchor="middle" x="427.5" y="-269.5" font-family="Helvetica,sans-Serif" font-size="10.00">fcn1</text>
</a>
</g>
</g>
<!-- Node3&#45;&gt;Node10 -->
<g id="edge15" class="edge">
<title>Node3&#45;&gt;Node10</title>
<path fill="none" stroke="midnightblue" d="M516,-243.94C493.39,-251.19 463.63,-260.74 445.29,-266.62"/>
<polygon fill="midnightblue" stroke="midnightblue" points="517.36,-247.18 525.81,-240.79 515.22,-240.51 517.36,-247.18"/>
</g>
<!-- Node11 -->
<g id="node11" class="node">
<title>Node11</title>
<g id="a_node11"><a xlink:href="group__grp__force__driver.html#gaec14f81fbdbedafbc4189489ec8ae178" target="_top" xlink:title="Employs Newton method to find , where &#160;and &#160;is defined in dforce() .">
<polygon fill="white" stroke="black" points="281,-247.5 281,-266.5 329,-266.5 329,-247.5 281,-247.5"/>
<text text-anchor="middle" x="305" y="-254.5" font-family="Helvetica,sans-Serif" font-size="10.00">newton</text>
</a>
</g>
</g>
<!-- Node3&#45;&gt;Node11 -->
<g id="edge42" class="edge">
<title>Node3&#45;&gt;Node11</title>
<path fill="none" stroke="midnightblue" d="M515.55,-237C466.41,-241.69 372.53,-250.65 329.09,-254.8"/>
<polygon fill="midnightblue" stroke="midnightblue" points="515.99,-240.48 525.61,-236.04 515.33,-233.51 515.99,-240.48"/>
</g>
<!-- Node12 -->
<g id="node12" class="node">
<title>Node12</title>
<g id="a_node12"><a xlink:href="group__grp__force__driver.html#ga8ccd6c7d901872702521d0a0edf95412" target="_top" xlink:title="Objective to be given to the Newton solver, using function values and derivatives.">
<polygon fill="white" stroke="black" points="29.5,-256.5 29.5,-275.5 64.5,-275.5 64.5,-256.5 29.5,-256.5"/>
<text text-anchor="middle" x="47" y="-263.5" font-family="Helvetica,sans-Serif" font-size="10.00">fcn2</text>
</a>
</g>
</g>
<!-- Node3&#45;&gt;Node12 -->
<g id="edge27" class="edge">
<title>Node3&#45;&gt;Node12</title>
<path fill="none" stroke="midnightblue" d="M538.91,-252.72C529.91,-270.88 513.49,-297.35 490,-309 418.33,-344.55 207.68,-328.13 130,-309 103.93,-302.58 76.98,-286.24 61.39,-275.65"/>
<polygon fill="midnightblue" stroke="midnightblue" points="542.09,-254.17 543.14,-243.63 535.74,-251.22 542.09,-254.17"/>
</g>
<!-- Node14 -->
<g id="node14" class="node">
<title>Node14</title>
<g id="a_node14"><a xlink:href="dfp200_8f90.html#a6aca59cf350d7b1941f8389d50945a43" target="_top" xlink:title="get LU Beltrami matrices">
<polygon fill="white" stroke="black" points="365,-394.5 365,-413.5 490,-413.5 490,-394.5 365,-394.5"/>
<text text-anchor="middle" x="427.5" y="-401.5" font-family="Helvetica,sans-Serif" font-size="10.00">get_lu_beltrami_matrices</text>
</a>
</g>
</g>
<!-- Node3&#45;&gt;Node14 -->
<g id="edge28" class="edge">
<title>Node3&#45;&gt;Node14</title>
<path fill="none" stroke="midnightblue" d="M544.44,-253.57C539.42,-284.43 525.47,-344.53 490,-380 483.68,-386.32 475.5,-391.02 467.18,-394.49"/>
<polygon fill="midnightblue" stroke="midnightblue" points="547.91,-254.03 545.91,-243.62 540.99,-253 547.91,-254.03"/>
</g>
<!-- Node19 -->
<g id="node19" class="node">
<title>Node19</title>
<g id="a_node19"><a xlink:href="group__grp__output.html#ga7401b50ec10c6598ee4a8112717a63ec" target="_top" xlink:title="Computes eigenvalues and eigenvectors of derivative matrix, &#160;and saves them to .ext....">
<polygon fill="white" stroke="black" points="282.5,-112.5 282.5,-131.5 327.5,-131.5 327.5,-112.5 282.5,-112.5"/>
<text text-anchor="middle" x="305" y="-119.5" font-family="Helvetica,sans-Serif" font-size="10.00">hesian</text>
</a>
</g>
</g>
<!-- Node3&#45;&gt;Node19 -->
<g id="edge39" class="edge">
<title>Node3&#45;&gt;Node19</title>
<path fill="none" stroke="midnightblue" d="M536.51,-215.07C526.62,-199 510.28,-176.6 490,-164 437.95,-131.67 363.76,-124.16 327.55,-122.46"/>
<polygon fill="midnightblue" stroke="midnightblue" points="533.74,-217.26 541.82,-224.11 539.78,-213.72 533.74,-217.26"/>
</g>
<!-- Node20 -->
<g id="node20" class="node">
<title>Node20</title>
<g id="a_node20"><a xlink:href="group__grp__conjugate__gradient.html#ga4d8415226e62a9fdb42b0fd0b464251e" target="_top" xlink:title="Returns the energy functional and it&#39;s derivatives with respect to geometry.">
<polygon fill="white" stroke="black" points="403.5,-18.5 403.5,-37.5 451.5,-37.5 451.5,-18.5 403.5,-18.5"/>
<text text-anchor="middle" x="427.5" y="-25.5" font-family="Helvetica,sans-Serif" font-size="10.00">pc00ab</text>
</a>
</g>
</g>
<!-- Node3&#45;&gt;Node20 -->
<g id="edge43" class="edge">
<title>Node3&#45;&gt;Node20</title>
<path fill="none" stroke="midnightblue" d="M543.85,-214.59C537.9,-182.65 522.56,-118.16 490,-74 478.45,-58.33 460.07,-45.57 446.41,-37.5"/>
<polygon fill="midnightblue" stroke="midnightblue" points="540.41,-215.19 545.58,-224.44 547.3,-213.99 540.41,-215.19"/>
</g>
<!-- Node5 -->
<g id="node5" class="node">
<title>Node5</title>
<g id="a_node5"><a xlink:href="xspech_8f90.html#a9fdc71dffd7c61ee4588a3f80d3ab9ce" target="_top" xlink:title="Main subroutine of SPEC.">
<polygon fill="white" stroke="black" points="281.5,-56.5 281.5,-75.5 328.5,-75.5 328.5,-56.5 281.5,-56.5"/>
<text text-anchor="middle" x="305" y="-63.5" font-family="Helvetica,sans-Serif" font-size="10.00">xspech</text>
</a>
</g>
</g>
<!-- Node4&#45;&gt;Node5 -->
<g id="edge4" class="edge">
<title>Node4&#45;&gt;Node5</title>
<path fill="none" stroke="midnightblue" d="M374.19,-81.28C358.19,-77.69 341.43,-73.94 328.53,-71.05"/>
<polygon fill="midnightblue" stroke="midnightblue" points="373.49,-84.71 384.02,-83.48 375.02,-77.88 373.49,-84.71"/>
</g>
<!-- Node5&#45;&gt;Node5 -->
<g id="edge13" class="edge">
<title>Node5&#45;&gt;Node5</title>
<path fill="none" stroke="midnightblue" d="M326.48,-85.4C325.05,-90.31 317.89,-94 305,-94 284.38,-94 278.42,-84.57 287.12,-75.76"/>
<polygon fill="midnightblue" stroke="midnightblue" points="329.66,-83.9 322.88,-75.76 323.1,-86.35 329.66,-83.9"/>
</g>
<!-- Node6 -->
<g id="node6" class="node">
<title>Node6</title>
<g id="a_node6"><a xlink:href="xspech_8f90.html#a1451823a7b97101a797de616250752c1" target="_top" xlink:title="Final diagnostics.">
<polygon fill="white" stroke="black" points="143,-84.5 143,-103.5 232,-103.5 232,-84.5 143,-84.5"/>
<text text-anchor="middle" x="187.5" y="-91.5" font-family="Helvetica,sans-Serif" font-size="10.00">final_diagnostics</text>
</a>
</g>
</g>
<!-- Node5&#45;&gt;Node6 -->
<g id="edge5" class="edge">
<title>Node5&#45;&gt;Node6</title>
<path fill="none" stroke="midnightblue" d="M271.4,-67.76C250.49,-71.76 224.12,-78.5 206.81,-84.47"/>
<polygon fill="midnightblue" stroke="midnightblue" points="272.22,-71.17 281.46,-65.98 271,-64.27 272.22,-71.17"/>
</g>
<!-- Node5&#45;&gt;Node7 -->
<g id="edge7" class="edge">
<title>Node5&#45;&gt;Node7</title>
<path fill="none" stroke="midnightblue" d="M277.49,-81.88C267.79,-89.37 256.39,-97.8 245,-104 230.64,-111.82 212.48,-117.22 200.69,-122.33"/>
<polygon fill="midnightblue" stroke="midnightblue" points="279.8,-84.52 285.54,-75.61 275.5,-78.99 279.8,-84.52"/>
</g>
<!-- Node9 -->
<g id="node9" class="node">
<title>Node9</title>
<g id="a_node9"><a xlink:href="xspech_8f90.html#a95271e8805067f801b5d4e524d6901d4" target="_top" xlink:title="Main program of SPEC.">
<polygon fill="white" stroke="black" points="155.5,-46.5 155.5,-65.5 219.5,-65.5 219.5,-46.5 155.5,-46.5"/>
<text text-anchor="middle" x="187.5" y="-53.5" font-family="Helvetica,sans-Serif" font-size="10.00">spec_main</text>
</a>
</g>
</g>
<!-- Node5&#45;&gt;Node9 -->
<g id="edge12" class="edge">
<title>Node5&#45;&gt;Node9</title>
<path fill="none" stroke="midnightblue" d="M271.36,-63.17C255.17,-61.77 235.72,-60.09 219.73,-58.7"/>
<polygon fill="midnightblue" stroke="midnightblue" points="271.19,-66.67 281.46,-64.05 271.8,-59.7 271.19,-66.67"/>
</g>
<!-- Node6&#45;&gt;Node5 -->
<g id="edge6" class="edge">
<title>Node6&#45;&gt;Node5</title>
<path fill="none" stroke="midnightblue" d="M242.3,-87.69C257.91,-84.02 273.91,-79.59 285.7,-75.53"/>
<polygon fill="midnightblue" stroke="midnightblue" points="241.13,-84.37 232.15,-89.99 242.67,-91.2 241.13,-84.37"/>
</g>
<!-- Node7&#45;&gt;Node3 -->
<g id="edge8" class="edge">
<title>Node7&#45;&gt;Node3</title>
<path fill="none" stroke="midnightblue" d="M210.15,-145.53C228.89,-152.89 256.71,-161.03 281,-168 372.09,-194.13 480.95,-224.58 525.95,-233"/>
<polygon fill="midnightblue" stroke="midnightblue" points="211.33,-142.23 200.76,-141.54 208.59,-148.67 211.33,-142.23"/>
</g>
<!-- Node7&#45;&gt;Node5 -->
<g id="edge11" class="edge">
<title>Node7&#45;&gt;Node5</title>
<path fill="none" stroke="midnightblue" d="M216.71,-133.15C226.01,-130.66 236.22,-126.78 245,-122 267.31,-109.85 289.69,-89.12 299.22,-75.88"/>
<polygon fill="midnightblue" stroke="midnightblue" points="215.74,-129.78 206.72,-135.35 217.24,-136.62 215.74,-129.78"/>
</g>
<!-- Node8 -->
<g id="node8" class="node">
<title>Node8</title>
<g id="a_node8"><a xlink:href="group__grp__output.html#ga0f962c09cd5d5eba99f1cba043cb3898" target="_top" xlink:title="Initialize the interface to the HDF5 library and open the output file.">
<polygon fill="white" stroke="black" points="0,-65.5 0,-84.5 94,-84.5 94,-65.5 0,-65.5"/>
<text text-anchor="middle" x="47" y="-72.5" font-family="Helvetica,sans-Serif" font-size="10.00">sphdf5::init_outfile</text>
</a>
</g>
</g>
<!-- Node7&#45;&gt;Node8 -->
<g id="edge9" class="edge">
<title>Node7&#45;&gt;Node8</title>
<path fill="none" stroke="midnightblue" d="M158.46,-123.24C149.31,-120.21 139.15,-116.65 130,-113 107.99,-104.23 83.42,-92.59 66.96,-84.51"/>
<polygon fill="midnightblue" stroke="midnightblue" points="157.66,-126.66 168.25,-126.42 159.82,-120.01 157.66,-126.66"/>
</g>
<!-- Node8&#45;&gt;Node5 -->
<g id="edge10" class="edge">
<title>Node8&#45;&gt;Node5</title>
<path fill="none" stroke="midnightblue" d="M72.37,-60.29C88.18,-51.62 109.57,-41.5 130,-37 179.91,-26 195.22,-25.43 245,-37 261.01,-40.72 277.68,-49.43 289.19,-56.34"/>
<polygon fill="midnightblue" stroke="midnightblue" points="70.27,-57.45 63.3,-65.43 73.73,-63.54 70.27,-57.45"/>
</g>
<!-- Node10&#45;&gt;Node10 -->
<g id="edge16" class="edge">
<title>Node10&#45;&gt;Node10</title>
<path fill="none" stroke="midnightblue" d="M450,-289.73C449.8,-295.46 442.3,-300 427.5,-300 405.47,-300 399.62,-289.93 409.94,-280.89"/>
<polygon fill="midnightblue" stroke="midnightblue" points="452.99,-287.91 445.06,-280.89 446.88,-291.33 452.99,-287.91"/>
</g>
<!-- Node10&#45;&gt;Node11 -->
<g id="edge17" class="edge">
<title>Node10&#45;&gt;Node11</title>
<path fill="none" stroke="midnightblue" d="M399.8,-262.96C378.65,-258.87 349.4,-255.31 329.22,-254.43"/>
<polygon fill="midnightblue" stroke="midnightblue" points="399.24,-266.42 409.74,-265.07 400.69,-259.57 399.24,-266.42"/>
</g>
<!-- Node11&#45;&gt;Node7 -->
<g id="edge23" class="edge">
<title>Node11&#45;&gt;Node7</title>
<path fill="none" stroke="midnightblue" d="M288.06,-239.75C263.46,-213.12 217.05,-162.9 197.52,-141.76"/>
<polygon fill="midnightblue" stroke="midnightblue" points="285.58,-242.22 294.94,-247.19 290.72,-237.47 285.58,-242.22"/>
</g>
<!-- Node11&#45;&gt;Node10 -->
<g id="edge18" class="edge">
<title>Node11&#45;&gt;Node10</title>
<path fill="none" stroke="midnightblue" d="M339.21,-267.24C362.11,-271.26 391.58,-274.51 409.74,-274.76"/>
<polygon fill="midnightblue" stroke="midnightblue" points="339.69,-263.77 329.22,-265.35 338.39,-270.65 339.69,-263.77"/>
</g>
<!-- Node11&#45;&gt;Node11 -->
<g id="edge22" class="edge">
<title>Node11&#45;&gt;Node11</title>
<path fill="none" stroke="midnightblue" d="M326.48,-276.4C325.05,-281.31 317.89,-285 305,-285 284.38,-285 278.42,-275.57 287.12,-266.76"/>
<polygon fill="midnightblue" stroke="midnightblue" points="329.66,-274.9 322.88,-266.76 323.1,-277.35 329.66,-274.9"/>
</g>
<!-- Node11&#45;&gt;Node12 -->
<g id="edge19" class="edge">
<title>Node11&#45;&gt;Node12</title>
<path fill="none" stroke="midnightblue" d="M270.49,-253.44C215.08,-252.36 106.32,-256.57 64.72,-261.86"/>
<polygon fill="midnightblue" stroke="midnightblue" points="270.74,-256.95 280.83,-253.73 270.93,-249.96 270.74,-256.95"/>
</g>
<!-- Node13 -->
<g id="node13" class="node">
<title>Node13</title>
<g id="a_node13"><a xlink:href="group__grp__output.html#ga382822b303cbf8c56d6f54dcb379caf2" target="_top" xlink:title="read or write force&#45;derivative matrix .ext.sp.DF">
<polygon fill="white" stroke="black" points="155,-280.5 155,-299.5 220,-299.5 220,-280.5 155,-280.5"/>
<text text-anchor="middle" x="187.5" y="-287.5" font-family="Helvetica,sans-Serif" font-size="10.00">writereadgf</text>
</a>
</g>
</g>
<!-- Node11&#45;&gt;Node13 -->
<g id="edge24" class="edge">
<title>Node11&#45;&gt;Node13</title>
<path fill="none" stroke="midnightblue" d="M271.11,-260.24C249.44,-265.33 222.01,-273.6 204.85,-280.45"/>
<polygon fill="midnightblue" stroke="midnightblue" points="271.9,-263.65 280.9,-258.07 270.38,-256.81 271.9,-263.65"/>
</g>
<!-- Node12&#45;&gt;Node11 -->
<g id="edge21" class="edge">
<title>Node12&#45;&gt;Node11</title>
<path fill="none" stroke="midnightblue" d="M74.85,-269.39C125.28,-270.92 233.36,-267.04 280.83,-261.89"/>
<polygon fill="midnightblue" stroke="midnightblue" points="74.86,-265.89 64.72,-268.96 74.57,-272.88 74.86,-265.89"/>
</g>
<!-- Node12&#45;&gt;Node12 -->
<g id="edge20" class="edge">
<title>Node12&#45;&gt;Node12</title>
<path fill="none" stroke="midnightblue" d="M72.47,-280.41C76,-287.59 67.51,-294 47,-294 19.66,-294 13.67,-282.61 29.06,-273.17"/>
<polygon fill="midnightblue" stroke="midnightblue" points="74.58,-277.58 64.94,-273.17 69.73,-282.62 74.58,-277.58"/>
</g>
<!-- Node13&#45;&gt;Node11 -->
<g id="edge26" class="edge">
<title>Node13&#45;&gt;Node11</title>
<path fill="none" stroke="midnightblue" d="M230.05,-284.64C249.89,-279.57 272.51,-272.58 287.45,-266.63"/>
<polygon fill="midnightblue" stroke="midnightblue" points="229.16,-281.25 220.28,-287.02 230.83,-288.05 229.16,-281.25"/>
</g>
<!-- Node13&#45;&gt;Node12 -->
<g id="edge25" class="edge">
<title>Node13&#45;&gt;Node12</title>
<path fill="none" stroke="midnightblue" d="M144.76,-282.77C117.8,-278.1 84.2,-272.27 64.52,-268.86"/>
<polygon fill="midnightblue" stroke="midnightblue" points="144.27,-286.24 154.73,-284.49 145.47,-279.34 144.27,-286.24"/>
</g>
<!-- Node15 -->
<g id="node15" class="node">
<title>Node15</title>
<g id="a_node15"><a xlink:href="dfp200_8f90.html#a55ea75395f8c71731451e1add3720c7e" target="_top" xlink:title="Given the field consistent with the constraints and the geometry, computes local quantites related to...">
<polygon fill="white" stroke="black" points="282,-394.5 282,-413.5 328,-413.5 328,-394.5 282,-394.5"/>
<text text-anchor="middle" x="305" y="-401.5" font-family="Helvetica,sans-Serif" font-size="10.00">dfp200</text>
</a>
</g>
</g>
<!-- Node14&#45;&gt;Node15 -->
<g id="edge29" class="edge">
<title>Node14&#45;&gt;Node15</title>
<path fill="none" stroke="midnightblue" d="M354.69,-397.36C345.05,-397.55 335.82,-397.98 328.04,-398.64"/>
<polygon fill="midnightblue" stroke="midnightblue" points="354.88,-400.86 364.84,-397.25 354.8,-393.86 354.88,-400.86"/>
</g>
<!-- Node15&#45;&gt;Node3 -->
<g id="edge30" class="edge">
<title>Node15&#45;&gt;Node3</title>
<path fill="none" stroke="midnightblue" d="M337.83,-393.61C389.68,-376.63 486.99,-344.56 490,-342 522.13,-314.66 538.75,-264.56 544.56,-243.61"/>
<polygon fill="midnightblue" stroke="midnightblue" points="336.52,-390.35 328.1,-396.79 338.69,-397.01 336.52,-390.35"/>
</g>
<!-- Node15&#45;&gt;Node14 -->
<g id="edge36" class="edge">
<title>Node15&#45;&gt;Node14</title>
<path fill="none" stroke="midnightblue" d="M338.28,-410.06C346.52,-410.5 355.66,-410.73 364.84,-410.75"/>
<polygon fill="midnightblue" stroke="midnightblue" points="338.26,-406.55 328.04,-409.36 337.78,-413.53 338.26,-406.55"/>
</g>
<!-- Node15&#45;&gt;Node15 -->
<g id="edge31" class="edge">
<title>Node15&#45;&gt;Node15</title>
<path fill="none" stroke="midnightblue" d="M326.48,-423.4C325.05,-428.31 317.89,-432 305,-432 284.38,-432 278.42,-422.57 287.12,-413.76"/>
<polygon fill="midnightblue" stroke="midnightblue" points="329.66,-421.9 322.88,-413.76 323.1,-424.35 329.66,-421.9"/>
</g>
<!-- Node16 -->
<g id="node16" class="node">
<title>Node16</title>
<g id="a_node16"><a xlink:href="dfp200_8f90.html#a7b64c7392b45d0042d8bd7379c0761a5" target="_top" xlink:title="Evaluate the derivative of the square of the magnetic field modulus. Add spectral constraint derivati...">
<polygon fill="white" stroke="black" points="150.5,-384.5 150.5,-403.5 224.5,-403.5 224.5,-384.5 150.5,-384.5"/>
<text text-anchor="middle" x="187.5" y="-391.5" font-family="Helvetica,sans-Serif" font-size="10.00">evaluate_dbb</text>
</a>
</g>
</g>
<!-- Node15&#45;&gt;Node16 -->
<g id="edge32" class="edge">
<title>Node15&#45;&gt;Node16</title>
<path fill="none" stroke="midnightblue" d="M271.66,-395.07C257.08,-393.05 239.81,-391.49 224.79,-390.82"/>
<polygon fill="midnightblue" stroke="midnightblue" points="271.32,-398.56 281.73,-396.61 272.38,-391.64 271.32,-398.56"/>
</g>
<!-- Node15&#45;&gt;Node17 -->
<g id="edge34" class="edge">
<title>Node15&#45;&gt;Node17</title>
<path fill="none" stroke="midnightblue" d="M277.49,-419.88C267.79,-427.37 256.39,-435.8 245,-442 230.64,-449.82 212.48,-455.22 200.69,-460.33"/>
<polygon fill="midnightblue" stroke="midnightblue" points="279.8,-422.52 285.54,-413.61 275.5,-416.99 279.8,-422.52"/>
</g>
<!-- Node18 -->
<g id="node18" class="node">
<title>Node18</title>
<g id="a_node18"><a xlink:href="dfp200_8f90.html#a5e56f1f4b1e6df11a9cffa6237c37469" target="_top" xlink:title="This routine evaluates the value of the magnetic field once the interface is perturbed using matrix p...">
<polygon fill="white" stroke="black" points="130,-422.5 130,-441.5 245,-441.5 245,-422.5 130,-422.5"/>
<text text-anchor="middle" x="187.5" y="-429.5" font-family="Helvetica,sans-Serif" font-size="10.00">get_perturbed_solution</text>
</a>
</g>
</g>
<!-- Node15&#45;&gt;Node18 -->
<g id="edge37" class="edge">
<title>Node15&#45;&gt;Node18</title>
<path fill="none" stroke="midnightblue" d="M271.68,-405.7C250.76,-409.69 224.29,-416.45 206.9,-422.44"/>
<polygon fill="midnightblue" stroke="midnightblue" points="272.49,-409.12 281.73,-403.94 271.28,-402.22 272.49,-409.12"/>
</g>
<!-- Node16&#45;&gt;Node15 -->
<g id="edge33" class="edge">
<title>Node16&#45;&gt;Node15</title>
<path fill="none" stroke="midnightblue" d="M235.13,-404.67C251.22,-406.4 268.5,-407.5 281.73,-407.53"/>
<polygon fill="midnightblue" stroke="midnightblue" points="235.13,-401.15 224.79,-403.46 234.31,-408.1 235.13,-401.15"/>
</g>
<!-- Node17&#45;&gt;Node15 -->
<g id="edge35" class="edge">
<title>Node17&#45;&gt;Node15</title>
<path fill="none" stroke="midnightblue" d="M244.1,-460.48C244.4,-460.32 244.7,-460.16 245,-460 267.31,-447.85 289.69,-427.12 299.22,-413.88"/>
<polygon fill="midnightblue" stroke="midnightblue" points="242.53,-457.36 235.01,-464.82 245.54,-463.67 242.53,-457.36"/>
</g>
<!-- Node18&#45;&gt;Node15 -->
<g id="edge38" class="edge">
<title>Node18&#45;&gt;Node15</title>
<path fill="none" stroke="midnightblue" d="M255.13,-422.53C266.36,-419.62 277.14,-416.48 285.7,-413.53"/>
<polygon fill="midnightblue" stroke="midnightblue" points="254.04,-419.19 245.18,-425.01 255.73,-425.98 254.04,-419.19"/>
</g>
<!-- Node19&#45;&gt;Node7 -->
<g id="edge41" class="edge">
<title>Node19&#45;&gt;Node7</title>
<path fill="none" stroke="midnightblue" d="M272.17,-124.76C251.1,-126.58 224.23,-128.91 206.71,-130.42"/>
<polygon fill="midnightblue" stroke="midnightblue" points="272.61,-128.23 282.28,-123.88 272.01,-121.26 272.61,-128.23"/>
</g>
<!-- Node19&#45;&gt;Node19 -->
<g id="edge40" class="edge">
<title>Node19&#45;&gt;Node19</title>
<path fill="none" stroke="midnightblue" d="M326.48,-141.4C325.05,-146.31 317.89,-150 305,-150 284.38,-150 278.42,-140.57 287.12,-131.76"/>
<polygon fill="midnightblue" stroke="midnightblue" points="329.66,-139.9 322.88,-131.76 323.1,-142.35 329.66,-139.9"/>
</g>
<!-- Node20&#45;&gt;Node20 -->
<g id="edge46" class="edge">
<title>Node20&#45;&gt;Node20</title>
<path fill="none" stroke="midnightblue" d="M449.82,-47.03C448.6,-52.13 441.16,-56 427.5,-56 406.17,-56 400.01,-46.57 409,-37.76"/>
<polygon fill="midnightblue" stroke="midnightblue" points="453.05,-45.67 446,-37.76 446.57,-48.34 453.05,-45.67"/>
</g>
<!-- Node21 -->
<g id="node21" class="node">
<title>Node21</title>
<g id="a_node21"><a xlink:href="group__grp__conjugate__gradient.html#ga25a3bae2ff2ee0469b045de0d033398b" target="_top" xlink:title="Use preconditioned conjugate gradient method to find minimum of energy functional.">
<polygon fill="white" stroke="black" points="281,-0.5 281,-19.5 329,-19.5 329,-0.5 281,-0.5"/>
<text text-anchor="middle" x="305" y="-7.5" font-family="Helvetica,sans-Serif" font-size="10.00">pc00aa</text>
</a>
</g>
</g>
<!-- Node20&#45;&gt;Node21 -->
<g id="edge44" class="edge">
<title>Node20&#45;&gt;Node21</title>
<path fill="none" stroke="midnightblue" d="M393.16,-23.02C372.81,-19.98 347.31,-16.17 329.16,-13.46"/>
<polygon fill="midnightblue" stroke="midnightblue" points="392.86,-26.51 403.27,-24.53 393.89,-19.59 392.86,-26.51"/>
</g>
<!-- Node21&#45;&gt;Node21 -->
<g id="edge45" class="edge">
<title>Node21&#45;&gt;Node21</title>
<path fill="none" stroke="midnightblue" d="M326.48,-29.4C325.05,-34.31 317.89,-38 305,-38 284.38,-38 278.42,-28.57 287.12,-19.76"/>
<polygon fill="midnightblue" stroke="midnightblue" points="329.66,-27.9 322.88,-19.76 323.1,-30.35 329.66,-27.9"/>
</g>
<!-- Node22&#45;&gt;Node18 -->
<g id="edge51" class="edge">
<title>Node22&#45;&gt;Node18</title>
<path fill="none" stroke="midnightblue" d="M1115.65,-513.6C1083.26,-530.48 1025.54,-556 972.5,-556 972.5,-556 972.5,-556 426.5,-556 333.31,-556 329.92,-489.38 245,-451 237.27,-447.51 228.69,-444.3 220.61,-441.56"/>
<polygon fill="midnightblue" stroke="midnightblue" points="1117.69,-516.47 1124.86,-508.67 1114.39,-510.3 1117.69,-516.47"/>
</g>
<!-- Node22&#45;&gt;Node22 -->
<g id="edge52" class="edge">
<title>Node22&#45;&gt;Node22</title>
<path fill="none" stroke="midnightblue" d="M1157.6,-518.77C1156.41,-523.5 1151.38,-527 1142.5,-527 1127.93,-527 1123.71,-517.57 1129.86,-508.76"/>
<polygon fill="midnightblue" stroke="midnightblue" points="1160.93,-517.63 1155.14,-508.76 1154.13,-519.3 1160.93,-517.63"/>
</g>
<!-- Node23 -->
<g id="node23" class="node">
<title>Node23</title>
<g id="a_node23"><a xlink:href="intghs_8f90.html#ae10091a51178071d12004da4952104d4" target="_top" xlink:title="free workspace.">
<polygon fill="white" stroke="black" points="688,-584.5 688,-603.5 820,-603.5 820,-584.5 688,-584.5"/>
<text text-anchor="middle" x="754" y="-591.5" font-family="Helvetica,sans-Serif" font-size="10.00">intghs_workspace_destroy</text>
</a>
</g>
</g>
<!-- Node22&#45;&gt;Node23 -->
<g id="edge53" class="edge">
<title>Node22&#45;&gt;Node23</title>
<path fill="none" stroke="midnightblue" d="M1132.38,-517.68C1123.03,-534.58 1106.78,-558.51 1085,-570 1000.03,-614.84 885.23,-611.34 815.85,-603.52"/>
<polygon fill="midnightblue" stroke="midnightblue" points="1135.54,-519.18 1137.08,-508.7 1129.34,-515.94 1135.54,-519.18"/>
</g>
<!-- Node24 -->
<g id="node24" class="node">
<title>Node24</title>
<g id="a_node24"><a xlink:href="intghs_8f90.html#ae8299d4625cabd90eb1398fd2cd38089" target="_top" xlink:title="init workspace">
<polygon fill="white" stroke="black" points="697.5,-498.5 697.5,-517.5 810.5,-517.5 810.5,-498.5 697.5,-498.5"/>
<text text-anchor="middle" x="754" y="-505.5" font-family="Helvetica,sans-Serif" font-size="10.00">intghs_workspace_init</text>
</a>
</g>
</g>
<!-- Node22&#45;&gt;Node24 -->
<g id="edge57" class="edge">
<title>Node22&#45;&gt;Node24</title>
<path fill="none" stroke="midnightblue" d="M1110.99,-499.71C1046.02,-501.22 893.23,-504.78 810.52,-506.71"/>
<polygon fill="midnightblue" stroke="midnightblue" points="1111.08,-503.21 1120.99,-499.48 1110.91,-496.21 1111.08,-503.21"/>
</g>
<!-- Node25 -->
<g id="node25" class="node">
<title>Node25</title>
<g id="a_node25"><a xlink:href="mp00ac_8f90.html#ae9fe335bb4916face9f9d19ce8c0f5d7" target="_top" xlink:title="compute a.x by either by coumputing it directly, or using a matrix free method">
<polygon fill="white" stroke="black" points="1036,-470.5 1036,-489.5 1085,-489.5 1085,-470.5 1036,-470.5"/>
<text text-anchor="middle" x="1060.5" y="-477.5" font-family="Helvetica,sans-Serif" font-size="10.00">matvec</text>
</a>
</g>
</g>
<!-- Node22&#45;&gt;Node25 -->
<g id="edge61" class="edge">
<title>Node22&#45;&gt;Node25</title>
<path fill="none" stroke="midnightblue" d="M1110.9,-491.73C1102.36,-489.7 1093.22,-487.53 1085.15,-485.62"/>
<polygon fill="midnightblue" stroke="midnightblue" points="1110.36,-495.2 1120.9,-494.11 1111.98,-488.39 1110.36,-495.2"/>
</g>
<!-- Node27 -->
<g id="node27" class="node">
<title>Node27</title>
<g id="a_node27"><a xlink:href="group__grp__solver.html#ga6626839aff500f060beb5bce2b90c447" target="_top" xlink:title="Solves Beltrami/vacuum (linear) system, given matrices.unpacking fluxes, helicity multiplier">
<polygon fill="white" stroke="black" points="856,-432.5 856,-451.5 907,-451.5 907,-432.5 856,-432.5"/>
<text text-anchor="middle" x="881.5" y="-439.5" font-family="Helvetica,sans-Serif" font-size="10.00">mp00ac</text>
</a>
</g>
</g>
<!-- Node22&#45;&gt;Node27 -->
<g id="edge68" class="edge">
<title>Node22&#45;&gt;Node27</title>
<path fill="none" stroke="midnightblue" d="M1122.8,-482.93C1112.37,-474.91 1098.74,-465.9 1085,-461 1023.81,-439.16 945.97,-438.9 907.02,-440.48"/>
<polygon fill="midnightblue" stroke="midnightblue" points="1120.75,-485.78 1130.73,-489.32 1125.14,-480.32 1120.75,-485.78"/>
</g>
<!-- Node23&#45;&gt;Node2 -->
<g id="edge54" class="edge">
<title>Node23&#45;&gt;Node2</title>
<path fill="none" stroke="midnightblue" d="M734.52,-577.43C720.73,-564.5 701.94,-545.67 688,-527 664.17,-495.1 643.15,-452.4 634.37,-433.59"/>
<polygon fill="midnightblue" stroke="midnightblue" points="732.26,-580.1 741.99,-584.31 737,-574.96 732.26,-580.1"/>
</g>
<!-- Node23&#45;&gt;Node15 -->
<g id="edge55" class="edge">
<title>Node23&#45;&gt;Node15</title>
<path fill="none" stroke="midnightblue" d="M712.14,-606.02C682.2,-612.89 640.86,-618.3 606,-608 474.32,-569.1 349.36,-448.52 315.16,-413.58"/>
<polygon fill="midnightblue" stroke="midnightblue" points="713.35,-609.33 722.23,-603.55 711.69,-602.53 713.35,-609.33"/>
</g>
<!-- Node23&#45;&gt;Node17 -->
<g id="edge56" class="edge">
<title>Node23&#45;&gt;Node17</title>
<path fill="none" stroke="midnightblue" d="M677.68,-594C639.18,-594 591.59,-594 549,-594 549,-594 549,-594 426.5,-594 360.96,-594 338.71,-601.07 281,-570 239.77,-547.8 206.98,-500.12 194.24,-479.65"/>
<polygon fill="midnightblue" stroke="midnightblue" points="677.77,-597.5 687.77,-594 677.77,-590.5 677.77,-597.5"/>
</g>
<!-- Node24&#45;&gt;Node2 -->
<g id="edge58" class="edge">
<title>Node24&#45;&gt;Node2</title>
<path fill="none" stroke="midnightblue" d="M716.85,-494.47C707.13,-490.15 696.86,-484.92 688,-479 668.16,-465.74 648.8,-445.47 638.23,-433.59"/>
<polygon fill="midnightblue" stroke="midnightblue" points="715.74,-497.8 726.32,-498.49 718.48,-491.36 715.74,-497.8"/>
</g>
<!-- Node24&#45;&gt;Node15 -->
<g id="edge59" class="edge">
<title>Node24&#45;&gt;Node15</title>
<path fill="none" stroke="midnightblue" d="M692.11,-496.54C615.34,-481.66 479.53,-453.91 365,-423 352.74,-419.69 339.25,-415.4 328.26,-411.73"/>
<polygon fill="midnightblue" stroke="midnightblue" points="691.61,-500.01 702.09,-498.47 692.93,-493.13 691.61,-500.01"/>
</g>
<!-- Node24&#45;&gt;Node17 -->
<g id="edge60" class="edge">
<title>Node24&#45;&gt;Node17</title>
<path fill="none" stroke="midnightblue" d="M687.05,-512.87C647.12,-515.41 595.16,-518 549,-518 549,-518 549,-518 426.5,-518 349.57,-518 261.37,-493.61 217.07,-479.6"/>
<polygon fill="midnightblue" stroke="midnightblue" points="687.44,-516.35 697.19,-512.21 686.98,-509.37 687.44,-516.35"/>
</g>
<!-- Node26 -->
<g id="node26" class="node">
<title>Node26</title>
<g id="a_node26"><a xlink:href="mp00ac_8f90.html#a304edac43f63d39dda4419b4d044eac5" target="_top" xlink:title="run GMRES">
<polygon fill="white" stroke="black" points="943,-470.5 943,-489.5 1000,-489.5 1000,-470.5 943,-470.5"/>
<text text-anchor="middle" x="971.5" y="-477.5" font-family="Helvetica,sans-Serif" font-size="10.00">rungmres</text>
</a>
</g>
</g>
<!-- Node25&#45;&gt;Node26 -->
<g id="edge62" class="edge">
<title>Node25&#45;&gt;Node26</title>
<path fill="none" stroke="midnightblue" d="M1025.5,-480C1017.13,-480 1008.28,-480 1000.25,-480"/>
<polygon fill="midnightblue" stroke="midnightblue" points="1025.73,-483.5 1035.73,-480 1025.73,-476.5 1025.73,-483.5"/>
</g>
<!-- Node26&#45;&gt;Node27 -->
<g id="edge63" class="edge">
<title>Node26&#45;&gt;Node27</title>
<path fill="none" stroke="midnightblue" d="M939.1,-466.44C927.72,-461.53 915.12,-456.09 904.7,-451.59"/>
<polygon fill="midnightblue" stroke="midnightblue" points="937.73,-469.66 948.29,-470.41 940.5,-463.23 937.73,-469.66"/>
</g>
<!-- Node27&#45;&gt;Node27 -->
<g id="edge67" class="edge">
<title>Node27&#45;&gt;Node27</title>
<path fill="none" stroke="midnightblue" d="M898.17,-461.4C897.05,-466.31 891.5,-470 881.5,-470 865.5,-470 860.88,-460.57 867.63,-451.76"/>
<polygon fill="midnightblue" stroke="midnightblue" points="901.52,-460.39 895.37,-451.76 894.79,-462.34 901.52,-460.39"/>
</g>
<!-- Node28 -->
<g id="node28" class="node">
<title>Node28</title>
<g id="a_node28"><a xlink:href="group__grp__solver__driver.html#gacad623d4c5c006e9ad10116372f92ad3" target="_top" xlink:title="Constructs Beltrami field in given volume consistent with flux, helicity, rotational&#45;transform and/or...">
<polygon fill="white" stroke="black" points="728.5,-432.5 728.5,-451.5 779.5,-451.5 779.5,-432.5 728.5,-432.5"/>
<text text-anchor="middle" x="754" y="-439.5" font-family="Helvetica,sans-Serif" font-size="10.00">ma02aa</text>
</a>
</g>
</g>
<!-- Node27&#45;&gt;Node28 -->
<g id="edge64" class="edge">
<title>Node27&#45;&gt;Node28</title>
<path fill="none" stroke="midnightblue" d="M845.6,-442C824.67,-442 798.55,-442 779.74,-442"/>
<polygon fill="midnightblue" stroke="midnightblue" points="845.71,-445.5 855.71,-442 845.71,-438.5 845.71,-445.5"/>
</g>
<!-- Node28&#45;&gt;Node2 -->
<g id="edge65" class="edge">
<title>Node28&#45;&gt;Node2</title>
<path fill="none" stroke="midnightblue" d="M718.45,-436.94C697.17,-433.83 670.53,-429.93 652.08,-427.23"/>
<polygon fill="midnightblue" stroke="midnightblue" points="718,-440.42 728.4,-438.4 719.02,-433.49 718,-440.42"/>
</g>
<!-- Node28&#45;&gt;Node28 -->
<g id="edge66" class="edge">
<title>Node28&#45;&gt;Node28</title>
<path fill="none" stroke="midnightblue" d="M777.07,-461.03C775.81,-466.13 768.12,-470 754,-470 731.96,-470 725.59,-460.57 734.89,-451.76"/>
<polygon fill="midnightblue" stroke="midnightblue" points="780.25,-459.58 773.11,-451.76 773.81,-462.33 780.25,-459.58"/>
</g>
<!-- Node29&#45;&gt;Node2 -->
<g id="edge70" class="edge">
<title>Node29&#45;&gt;Node2</title>
<path fill="none" stroke="midnightblue" d="M728.63,-363.06C703.9,-378.34 666.36,-401.53 645.45,-414.45"/>
<polygon fill="midnightblue" stroke="midnightblue" points="730.75,-365.86 737.42,-357.63 727.08,-359.9 730.75,-365.86"/>
</g>
<!-- Node29&#45;&gt;Node14 -->
<g id="edge71" class="edge">
<title>Node29&#45;&gt;Node14</title>
<path fill="none" stroke="midnightblue" d="M718.19,-354.01C661.99,-363.71 550.8,-382.89 483.71,-394.47"/>
<polygon fill="midnightblue" stroke="midnightblue" points="719.08,-357.4 728.34,-352.26 717.89,-350.51 719.08,-357.4"/>
</g>
<!-- Node29&#45;&gt;Node29 -->
<g id="edge72" class="edge">
<title>Node29&#45;&gt;Node29</title>
<path fill="none" stroke="midnightblue" d="M777.07,-367.03C775.81,-372.13 768.12,-376 754,-376 731.96,-376 725.59,-366.57 734.89,-357.76"/>
<polygon fill="midnightblue" stroke="midnightblue" points="780.25,-365.58 773.11,-357.76 773.81,-368.33 780.25,-365.58"/>
</g>
</g>
</svg>
