<?xml version="1.0" encoding="UTF-8" standalone="no"?>
<!DOCTYPE svg PUBLIC "-//W3C//DTD SVG 1.1//EN"
 "http://www.w3.org/Graphics/SVG/1.1/DTD/svg11.dtd">
<!-- Generated by graphviz version 2.44.0 ()
 -->
<!-- Title: compute_guvijsave Pages: 1 -->
<svg width="1309pt" height="553pt"
 viewBox="0.00 0.00 1309.00 553.22" xmlns="http://www.w3.org/2000/svg" xmlns:xlink="http://www.w3.org/1999/xlink">
<g id="graph0" class="graph" transform="scale(1 1) rotate(0) translate(4 549.22)">
<title>compute_guvijsave</title>
<polygon fill="white" stroke="transparent" points="-4,4 -4,-549.22 1305,-549.22 1305,4 -4,4"/>
<!-- Node1 -->
<g id="node1" class="node">
<title>Node1</title>
<g id="a_node1"><a xlink:title="compute guvijsave">
<polygon fill="#bfbfbf" stroke="black" points="1200,-325.77 1200,-344.77 1301,-344.77 1301,-325.77 1200,-325.77"/>
<text text-anchor="middle" x="1250.5" y="-332.77" font-family="Helvetica,sans-Serif" font-size="10.00">compute_guvijsave</text>
</a>
</g>
</g>
<!-- Node2 -->
<g id="node2" class="node">
<title>Node2</title>
<g id="a_node2"><a xlink:href="dfp100_8f90.html#a17a3ac15cc83994394f7b4cc05e5898e" target="_top" xlink:title="Split the work between MPI nodes and evaluate the global constraint.">
<polygon fill="white" stroke="black" points="606,-363.77 606,-382.77 652,-382.77 652,-363.77 606,-363.77"/>
<text text-anchor="middle" x="629" y="-370.77" font-family="Helvetica,sans-Serif" font-size="10.00">dfp100</text>
</a>
</g>
</g>
<!-- Node1&#45;&gt;Node2 -->
<g id="edge1" class="edge">
<title>Node1&#45;&gt;Node2</title>
<path fill="none" stroke="midnightblue" d="M1189.53,-335.27C1152.61,-335.27 1104.31,-335.27 1061.5,-335.27 1061.5,-335.27 1061.5,-335.27 880.5,-335.27 794.53,-335.27 772.13,-336.56 688,-354.27 675.97,-356.81 662.94,-360.94 652.27,-364.71"/>
<polygon fill="midnightblue" stroke="midnightblue" points="1189.63,-338.77 1199.63,-335.27 1189.63,-331.77 1189.63,-338.77"/>
</g>
<!-- Node22 -->
<g id="node22" class="node">
<title>Node22</title>
<g id="a_node22"><a xlink:href="intghs_8f90.html#a21d3b7106371783302e68297f7797e9f" target="_top" xlink:title="Calculates volume integrals of Chebyshev polynomials and covariant field products.">
<polygon fill="white" stroke="black" points="1121,-420.77 1121,-439.77 1164,-439.77 1164,-420.77 1121,-420.77"/>
<text text-anchor="middle" x="1142.5" y="-427.77" font-family="Helvetica,sans-Serif" font-size="10.00">intghs</text>
</a>
</g>
</g>
<!-- Node1&#45;&gt;Node22 -->
<g id="edge39" class="edge">
<title>Node1&#45;&gt;Node22</title>
<path fill="none" stroke="midnightblue" d="M1231.08,-351.78C1208.87,-371.69 1172.26,-404.5 1154.23,-420.66"/>
<polygon fill="midnightblue" stroke="midnightblue" points="1233.44,-354.36 1238.56,-345.08 1228.77,-349.15 1233.44,-354.36"/>
</g>
<!-- Node29 -->
<g id="node29" class="node">
<title>Node29</title>
<g id="a_node29"><a xlink:href="group__grp__integrals.html#ga400af9e33dd5465ff9a4bba9fbf91108" target="_top" xlink:title="Calculates volume integrals of Chebyshev polynomials and metric element products.">
<polygon fill="white" stroke="black" points="728.5,-287.77 728.5,-306.77 779.5,-306.77 779.5,-287.77 728.5,-287.77"/>
<text text-anchor="middle" x="754" y="-294.77" font-family="Helvetica,sans-Serif" font-size="10.00">ma00aa</text>
</a>
</g>
</g>
<!-- Node1&#45;&gt;Node29 -->
<g id="edge55" class="edge">
<title>Node1&#45;&gt;Node29</title>
<path fill="none" stroke="midnightblue" d="M1210.51,-322.67C1172.81,-311.61 1113.85,-297.27 1061.5,-297.27 1061.5,-297.27 1061.5,-297.27 970.5,-297.27 901.29,-297.27 819.57,-297.27 779.56,-297.27"/>
<polygon fill="midnightblue" stroke="midnightblue" points="1209.97,-326.16 1220.56,-325.69 1211.99,-319.46 1209.97,-326.16"/>
</g>
<!-- Node3 -->
<g id="node3" class="node">
<title>Node3</title>
<g id="a_node3"><a xlink:href="group__grp__global__force.html#ga38c9d3c50bd043707fefa5137c9dbf44" target="_top" xlink:title="Calculates , where &#160;and , and .">
<polygon fill="white" stroke="black" points="526,-192.77 526,-211.77 570,-211.77 570,-192.77 526,-192.77"/>
<text text-anchor="middle" x="548" y="-199.77" font-family="Helvetica,sans-Serif" font-size="10.00">dforce</text>
</a>
</g>
</g>
<!-- Node2&#45;&gt;Node3 -->
<g id="edge2" class="edge">
<title>Node2&#45;&gt;Node3</title>
<path fill="none" stroke="midnightblue" d="M619.13,-354.08C602.24,-317.52 566.02,-239.11 553.42,-211.85"/>
<polygon fill="midnightblue" stroke="midnightblue" points="616.15,-355.98 623.53,-363.59 622.51,-353.04 616.15,-355.98"/>
</g>
<!-- Node17 -->
<g id="node17" class="node">
<title>Node17</title>
<g id="a_node17"><a xlink:href="dfp200_8f90.html#a73ddf39ecc5228201fb643779e17cd36" target="_top" xlink:title="Evaluate mu and psip derivatives and store them in dmupfdx.">
<polygon fill="white" stroke="black" points="140,-382.77 140,-401.77 235,-401.77 235,-382.77 140,-382.77"/>
<text text-anchor="middle" x="187.5" y="-389.77" font-family="Helvetica,sans-Serif" font-size="10.00">evaluate_dmupfdx</text>
</a>
</g>
</g>
<!-- Node2&#45;&gt;Node17 -->
<g id="edge38" class="edge">
<title>Node2&#45;&gt;Node17</title>
<path fill="none" stroke="midnightblue" d="M595.88,-374.66C519.17,-377.98 325.02,-386.37 235.29,-390.25"/>
<polygon fill="midnightblue" stroke="midnightblue" points="596.06,-378.16 605.9,-374.23 595.76,-371.16 596.06,-378.16"/>
</g>
<!-- Node4 -->
<g id="node4" class="node">
<title>Node4</title>
<g id="a_node4"><a xlink:href="namespaceallglobal.html#a7824bc37519fe88336534ce90ab2af16" target="_top" xlink:title=" ">
<polygon fill="white" stroke="black" points="370.5,-59.77 370.5,-78.77 484.5,-78.77 484.5,-59.77 370.5,-59.77"/>
<text text-anchor="middle" x="427.5" y="-66.77" font-family="Helvetica,sans-Serif" font-size="10.00">allglobal::check_inputs</text>
</a>
</g>
</g>
<!-- Node3&#45;&gt;Node4 -->
<g id="edge3" class="edge">
<title>Node3&#45;&gt;Node4</title>
<path fill="none" stroke="midnightblue" d="M541.53,-182.92C533.79,-158.83 517.45,-117.86 490,-93.27 483.09,-87.08 474.39,-82.4 465.73,-78.9"/>
<polygon fill="midnightblue" stroke="midnightblue" points="538.24,-184.13 544.49,-192.69 544.94,-182.1 538.24,-184.13"/>
</g>
<!-- Node7 -->
<g id="node7" class="node">
<title>Node7</title>
<g id="a_node7"><a xlink:href="xspech_8f90.html#a48f45478dc2c9f70ea8aa1c60ad06503" target="_top" xlink:title="This is the main &quot;driver&quot; for the physics part of SPEC.">
<polygon fill="white" stroke="black" points="168.5,-97.77 168.5,-116.77 206.5,-116.77 206.5,-97.77 168.5,-97.77"/>
<text text-anchor="middle" x="187.5" y="-104.77" font-family="Helvetica,sans-Serif" font-size="10.00">spec</text>
</a>
</g>
</g>
<!-- Node3&#45;&gt;Node7 -->
<g id="edge37" class="edge">
<title>Node3&#45;&gt;Node7</title>
<path fill="none" stroke="midnightblue" d="M516.01,-194.06C443.47,-174.84 264.41,-127.39 206.73,-112.1"/>
<polygon fill="midnightblue" stroke="midnightblue" points="515.35,-197.51 525.91,-196.69 517.14,-190.74 515.35,-197.51"/>
</g>
<!-- Node10 -->
<g id="node10" class="node">
<title>Node10</title>
<g id="a_node10"><a xlink:href="group__grp__force__driver.html#gabbc245b3884ee8d8d3e2a52f25149f78" target="_top" xlink:title="fcn1">
<polygon fill="white" stroke="black" points="410,-211.77 410,-230.77 445,-230.77 445,-211.77 410,-211.77"/>
<text text-anchor="middle" x="427.5" y="-218.77" font-family="Helvetica,sans-Serif" font-size="10.00">fcn1</text>
</a>
</g>
</g>
<!-- Node3&#45;&gt;Node10 -->
<g id="edge12" class="edge">
<title>Node3&#45;&gt;Node10</title>
<path fill="none" stroke="midnightblue" d="M515.69,-207.29C493.13,-210.91 463.55,-215.65 445.29,-218.58"/>
<polygon fill="midnightblue" stroke="midnightblue" points="516.49,-210.71 525.81,-205.67 515.39,-203.8 516.49,-210.71"/>
</g>
<!-- Node11 -->
<g id="node11" class="node">
<title>Node11</title>
<g id="a_node11"><a xlink:href="group__grp__force__driver.html#gaec14f81fbdbedafbc4189489ec8ae178" target="_top" xlink:title="Employs Newton method to find , where &#160;and &#160;is defined in dforce() .">
<polygon fill="white" stroke="black" points="281,-192.77 281,-211.77 329,-211.77 329,-192.77 281,-192.77"/>
<text text-anchor="middle" x="305" y="-199.77" font-family="Helvetica,sans-Serif" font-size="10.00">newton</text>
</a>
</g>
</g>
<!-- Node3&#45;&gt;Node11 -->
<g id="edge34" class="edge">
<title>Node3&#45;&gt;Node11</title>
<path fill="none" stroke="midnightblue" d="M515.55,-202.27C466.41,-202.27 372.53,-202.27 329.09,-202.27"/>
<polygon fill="midnightblue" stroke="midnightblue" points="515.61,-205.77 525.61,-202.27 515.61,-198.77 515.61,-205.77"/>
</g>
<!-- Node12 -->
<g id="node12" class="node">
<title>Node12</title>
<g id="a_node12"><a xlink:href="group__grp__force__driver.html#ga8ccd6c7d901872702521d0a0edf95412" target="_top" xlink:title="fcn2">
<polygon fill="white" stroke="black" points="29.5,-187.77 29.5,-206.77 64.5,-206.77 64.5,-187.77 29.5,-187.77"/>
<text text-anchor="middle" x="47" y="-194.77" font-family="Helvetica,sans-Serif" font-size="10.00">fcn2</text>
</a>
</g>
</g>
<!-- Node3&#45;&gt;Node12 -->
<g id="edge21" class="edge">
<title>Node3&#45;&gt;Node12</title>
<path fill="none" stroke="midnightblue" d="M528.68,-218.56C518.15,-226.81 504.23,-235.97 490,-240.27 336.87,-286.64 285.36,-278.54 130,-240.27 103.93,-233.85 76.98,-217.51 61.39,-206.92"/>
<polygon fill="midnightblue" stroke="midnightblue" points="531.17,-221.04 536.65,-211.97 526.71,-215.64 531.17,-221.04"/>
</g>
<!-- Node14 -->
<g id="node14" class="node">
<title>Node14</title>
<g id="a_node14"><a xlink:href="dfp200_8f90.html#a6aca59cf350d7b1941f8389d50945a43" target="_top" xlink:title="get LU Beltrami matrices">
<polygon fill="white" stroke="black" points="365,-325.77 365,-344.77 490,-344.77 490,-325.77 365,-325.77"/>
<text text-anchor="middle" x="427.5" y="-332.77" font-family="Helvetica,sans-Serif" font-size="10.00">get_lu_beltrami_matrices</text>
</a>
</g>
</g>
<!-- Node3&#45;&gt;Node14 -->
<g id="edge22" class="edge">
<title>Node3&#45;&gt;Node14</title>
<path fill="none" stroke="midnightblue" d="M541.53,-221.62C533.79,-245.72 517.45,-286.68 490,-311.27 483.09,-317.47 474.39,-322.15 465.73,-325.65"/>
<polygon fill="midnightblue" stroke="midnightblue" points="544.94,-222.45 544.49,-211.86 538.24,-220.42 544.94,-222.45"/>
</g>
<!-- Node19 -->
<g id="node19" class="node">
<title>Node19</title>
<g id="a_node19"><a xlink:href="group__grp__diagnostics.html#ga7401b50ec10c6598ee4a8112717a63ec" target="_top" xlink:title="Computes eigenvalues and eigenvectors of derivative matrix, .">
<polygon fill="white" stroke="black" points="282.5,-97.77 282.5,-116.77 327.5,-116.77 327.5,-97.77 282.5,-97.77"/>
<text text-anchor="middle" x="305" y="-104.77" font-family="Helvetica,sans-Serif" font-size="10.00">hesian</text>
</a>
</g>
</g>
<!-- Node3&#45;&gt;Node19 -->
<g id="edge32" class="edge">
<title>Node3&#45;&gt;Node19</title>
<path fill="none" stroke="midnightblue" d="M537.6,-183.87C528.03,-167.18 511.54,-143.38 490,-131.27 437.62,-101.84 363.91,-102.55 327.74,-105.11"/>
<polygon fill="midnightblue" stroke="midnightblue" points="534.57,-185.63 542.43,-192.74 540.72,-182.28 534.57,-185.63"/>
</g>
<!-- Node20 -->
<g id="node20" class="node">
<title>Node20</title>
<g id="a_node20"><a xlink:href="group__grp__conjugate__gradient.html#ga4d8415226e62a9fdb42b0fd0b464251e" target="_top" xlink:title="Returns the energy functional and it&#39;s derivatives with respect to geometry.">
<polygon fill="white" stroke="black" points="403.5,-21.77 403.5,-40.77 451.5,-40.77 451.5,-21.77 403.5,-21.77"/>
<text text-anchor="middle" x="427.5" y="-28.77" font-family="Helvetica,sans-Serif" font-size="10.00">pc00ab</text>
</a>
</g>
</g>
<!-- Node3&#45;&gt;Node20 -->
<g id="edge35" class="edge">
<title>Node3&#45;&gt;Node20</title>
<path fill="none" stroke="midnightblue" d="M545.11,-182.49C540.96,-150.22 528.16,-86.24 490,-50.27 479.67,-40.54 464.46,-35.79 451.74,-33.47"/>
<polygon fill="midnightblue" stroke="midnightblue" points="541.63,-182.95 546.24,-192.49 548.59,-182.16 541.63,-182.95"/>
</g>
<!-- Node5 -->
<g id="node5" class="node">
<title>Node5</title>
<g id="a_node5"><a xlink:href="xspech_8f90.html#a9fdc71dffd7c61ee4588a3f80d3ab9ce" target="_top" xlink:title="Main subroutine of SPEC.">
<polygon fill="white" stroke="black" points="281.5,-59.77 281.5,-78.77 328.5,-78.77 328.5,-59.77 281.5,-59.77"/>
<text text-anchor="middle" x="305" y="-66.77" font-family="Helvetica,sans-Serif" font-size="10.00">xspech</text>
</a>
</g>
</g>
<!-- Node4&#45;&gt;Node5 -->
<g id="edge4" class="edge">
<title>Node4&#45;&gt;Node5</title>
<path fill="none" stroke="midnightblue" d="M360.45,-69.27C349.06,-69.27 337.95,-69.27 328.77,-69.27"/>
<polygon fill="midnightblue" stroke="midnightblue" points="360.48,-72.77 370.48,-69.27 360.48,-65.77 360.48,-72.77"/>
</g>
<!-- Node6 -->
<g id="node6" class="node">
<title>Node6</title>
<g id="a_node6"><a xlink:href="xspech_8f90.html#a1451823a7b97101a797de616250752c1" target="_top" xlink:title="Final diagnostics.">
<polygon fill="white" stroke="black" points="143,-59.77 143,-78.77 232,-78.77 232,-59.77 143,-59.77"/>
<text text-anchor="middle" x="187.5" y="-66.77" font-family="Helvetica,sans-Serif" font-size="10.00">final_diagnostics</text>
</a>
</g>
</g>
<!-- Node5&#45;&gt;Node6 -->
<g id="edge5" class="edge">
<title>Node5&#45;&gt;Node6</title>
<path fill="none" stroke="midnightblue" d="M271.29,-63.12C259.09,-62.5 245.05,-62.36 232.04,-62.71"/>
<polygon fill="midnightblue" stroke="midnightblue" points="271.25,-66.63 281.46,-63.79 271.71,-59.64 271.25,-66.63"/>
</g>
<!-- Node5&#45;&gt;Node7 -->
<g id="edge7" class="edge">
<title>Node5&#45;&gt;Node7</title>
<path fill="none" stroke="midnightblue" d="M271.67,-73.78C249.25,-79.99 220.45,-89.95 203.29,-97.71"/>
<polygon fill="midnightblue" stroke="midnightblue" points="272.67,-77.13 281.46,-71.21 270.9,-70.36 272.67,-77.13"/>
</g>
<!-- Node9 -->
<g id="node9" class="node">
<title>Node9</title>
<g id="a_node9"><a xlink:href="xspech_8f90.html#a95271e8805067f801b5d4e524d6901d4" target="_top" xlink:title="Main program of SPEC.">
<polygon fill="white" stroke="black" points="155.5,-21.77 155.5,-40.77 219.5,-40.77 219.5,-21.77 155.5,-21.77"/>
<text text-anchor="middle" x="187.5" y="-28.77" font-family="Helvetica,sans-Serif" font-size="10.00">spec_main</text>
</a>
</g>
</g>
<!-- Node5&#45;&gt;Node9 -->
<g id="edge11" class="edge">
<title>Node5&#45;&gt;Node9</title>
<path fill="none" stroke="midnightblue" d="M271.92,-58.72C254.89,-53.12 234.12,-46.28 217.57,-40.84"/>
<polygon fill="midnightblue" stroke="midnightblue" points="270.86,-62.06 281.46,-61.86 273.05,-55.41 270.86,-62.06"/>
</g>
<!-- Node6&#45;&gt;Node5 -->
<g id="edge6" class="edge">
<title>Node6&#45;&gt;Node5</title>
<path fill="none" stroke="midnightblue" d="M242.05,-76.01C255.94,-76.11 270.15,-75.7 281.46,-74.75"/>
<polygon fill="midnightblue" stroke="midnightblue" points="242.09,-72.51 232.04,-75.84 241.98,-79.51 242.09,-72.51"/>
</g>
<!-- Node7&#45;&gt;Node5 -->
<g id="edge10" class="edge">
<title>Node7&#45;&gt;Node5</title>
<path fill="none" stroke="midnightblue" d="M216.44,-103.96C239.23,-97.93 270.55,-87.24 288.9,-78.97"/>
<polygon fill="midnightblue" stroke="midnightblue" points="215.52,-100.58 206.65,-106.38 217.19,-107.38 215.52,-100.58"/>
</g>
<!-- Node8 -->
<g id="node8" class="node">
<title>Node8</title>
<g id="a_node8"><a xlink:href="group__grp__output.html#ga0f962c09cd5d5eba99f1cba043cb3898" target="_top" xlink:title="Initialize the interface to the HDF5 library and open the output file.">
<polygon fill="white" stroke="black" points="0,-40.77 0,-59.77 94,-59.77 94,-40.77 0,-40.77"/>
<text text-anchor="middle" x="47" y="-47.77" font-family="Helvetica,sans-Serif" font-size="10.00">sphdf5::init_outfile</text>
</a>
</g>
</g>
<!-- Node7&#45;&gt;Node8 -->
<g id="edge8" class="edge">
<title>Node7&#45;&gt;Node8</title>
<path fill="none" stroke="midnightblue" d="M158.46,-98.52C149.31,-95.48 139.15,-91.92 130,-88.27 107.99,-79.5 83.42,-67.86 66.96,-59.78"/>
<polygon fill="midnightblue" stroke="midnightblue" points="157.66,-101.94 168.25,-101.7 159.82,-95.28 157.66,-101.94"/>
</g>
<!-- Node8&#45;&gt;Node5 -->
<g id="edge9" class="edge">
<title>Node8&#45;&gt;Node5</title>
<path fill="none" stroke="midnightblue" d="M72.37,-35.56C88.18,-26.9 109.57,-16.78 130,-12.27 179.91,-1.27 198.05,7.92 245,-12.27 266.37,-21.47 264,-34.39 281,-50.27 284.33,-53.39 288.09,-56.6 291.59,-59.49"/>
<polygon fill="midnightblue" stroke="midnightblue" points="70.27,-32.73 63.3,-40.71 73.73,-38.81 70.27,-32.73"/>
</g>
<!-- Node10&#45;&gt;Node11 -->
<g id="edge13" class="edge">
<title>Node10&#45;&gt;Node11</title>
<path fill="none" stroke="midnightblue" d="M399.8,-211.35C378.65,-206.55 349.4,-202.03 329.22,-200.48"/>
<polygon fill="midnightblue" stroke="midnightblue" points="399.2,-214.8 409.74,-213.79 400.87,-208 399.2,-214.8"/>
</g>
<!-- Node11&#45;&gt;Node7 -->
<g id="edge17" class="edge">
<title>Node11&#45;&gt;Node7</title>
<path fill="none" stroke="midnightblue" d="M285.6,-185.94C274.06,-175.81 258.81,-162.61 245,-151.27 230.2,-139.13 212.76,-125.67 201.21,-116.88"/>
<polygon fill="midnightblue" stroke="midnightblue" points="283.45,-188.72 293.27,-192.71 288.08,-183.47 283.45,-188.72"/>
</g>
<!-- Node11&#45;&gt;Node10 -->
<g id="edge14" class="edge">
<title>Node11&#45;&gt;Node10</title>
<path fill="none" stroke="midnightblue" d="M339.21,-213.62C362.11,-218.39 391.58,-222.62 409.74,-223.48"/>
<polygon fill="midnightblue" stroke="midnightblue" points="339.74,-210.15 329.22,-211.39 338.22,-216.98 339.74,-210.15"/>
</g>
<!-- Node11&#45;&gt;Node12 -->
<g id="edge15" class="edge">
<title>Node11&#45;&gt;Node12</title>
<path fill="none" stroke="midnightblue" d="M270.84,-196.91C215.53,-192.77 106.41,-191.03 64.72,-194.05"/>
<polygon fill="midnightblue" stroke="midnightblue" points="270.57,-200.4 280.83,-197.74 271.15,-193.43 270.57,-200.4"/>
</g>
<!-- Node13 -->
<g id="node13" class="node">
<title>Node13</title>
<g id="a_node13"><a xlink:href="group__grp__force__driver.html#ga382822b303cbf8c56d6f54dcb379caf2" target="_top" xlink:title="read or write force&#45;derivative matrix">
<polygon fill="white" stroke="black" points="155,-211.77 155,-230.77 220,-230.77 220,-211.77 155,-211.77"/>
<text text-anchor="middle" x="187.5" y="-218.77" font-family="Helvetica,sans-Serif" font-size="10.00">writereadgf</text>
</a>
</g>
</g>
<!-- Node11&#45;&gt;Node13 -->
<g id="edge18" class="edge">
<title>Node11&#45;&gt;Node13</title>
<path fill="none" stroke="midnightblue" d="M270.75,-201.57C252.09,-203.71 229.23,-207.67 212.35,-211.76"/>
<polygon fill="midnightblue" stroke="midnightblue" points="271.3,-205.03 280.9,-200.55 270.61,-198.06 271.3,-205.03"/>
</g>
<!-- Node12&#45;&gt;Node11 -->
<g id="edge16" class="edge">
<title>Node12&#45;&gt;Node11</title>
<path fill="none" stroke="midnightblue" d="M74.85,-202.13C125.28,-206.42 233.36,-208.45 280.83,-205.9"/>
<polygon fill="midnightblue" stroke="midnightblue" points="75.01,-198.63 64.72,-201.15 74.34,-205.6 75.01,-198.63"/>
</g>
<!-- Node13&#45;&gt;Node11 -->
<g id="edge20" class="edge">
<title>Node13&#45;&gt;Node11</title>
<path fill="none" stroke="midnightblue" d="M230.57,-220.88C247.56,-218.58 266.51,-215.13 280.9,-211.6"/>
<polygon fill="midnightblue" stroke="midnightblue" points="229.8,-217.45 220.3,-222.15 230.66,-224.39 229.8,-217.45"/>
</g>
<!-- Node13&#45;&gt;Node12 -->
<g id="edge19" class="edge">
<title>Node13&#45;&gt;Node12</title>
<path fill="none" stroke="midnightblue" d="M144.76,-214.04C117.8,-209.37 84.2,-203.55 64.52,-200.14"/>
<polygon fill="midnightblue" stroke="midnightblue" points="144.27,-217.51 154.73,-215.77 145.47,-210.61 144.27,-217.51"/>
</g>
<!-- Node15 -->
<g id="node15" class="node">
<title>Node15</title>
<g id="a_node15"><a xlink:href="dfp200_8f90.html#a55ea75395f8c71731451e1add3720c7e" target="_top" xlink:title="Given the field consistent with the constraints and the geometry, computes local quantites related to...">
<polygon fill="white" stroke="black" points="282,-325.77 282,-344.77 328,-344.77 328,-325.77 282,-325.77"/>
<text text-anchor="middle" x="305" y="-332.77" font-family="Helvetica,sans-Serif" font-size="10.00">dfp200</text>
</a>
</g>
</g>
<!-- Node14&#45;&gt;Node15 -->
<g id="edge23" class="edge">
<title>Node14&#45;&gt;Node15</title>
<path fill="none" stroke="midnightblue" d="M354.69,-328.64C345.05,-328.82 335.82,-329.25 328.04,-329.92"/>
<polygon fill="midnightblue" stroke="midnightblue" points="354.88,-332.13 364.84,-328.53 354.8,-325.13 354.88,-332.13"/>
</g>
<!-- Node15&#45;&gt;Node3 -->
<g id="edge24" class="edge">
<title>Node15&#45;&gt;Node3</title>
<path fill="none" stroke="midnightblue" d="M337.85,-325.06C388.78,-308.64 483.56,-277.78 490,-273.27 513.85,-256.62 532.86,-227.23 541.67,-212.01"/>
<polygon fill="midnightblue" stroke="midnightblue" points="336.73,-321.74 328.28,-328.14 338.87,-328.4 336.73,-321.74"/>
</g>
<!-- Node15&#45;&gt;Node14 -->
<g id="edge29" class="edge">
<title>Node15&#45;&gt;Node14</title>
<path fill="none" stroke="midnightblue" d="M338.28,-341.33C346.52,-341.77 355.66,-342 364.84,-342.02"/>
<polygon fill="midnightblue" stroke="midnightblue" points="338.26,-337.82 328.04,-340.63 337.78,-344.8 338.26,-337.82"/>
</g>
<!-- Node16 -->
<g id="node16" class="node">
<title>Node16</title>
<g id="a_node16"><a xlink:href="dfp200_8f90.html#a7b64c7392b45d0042d8bd7379c0761a5" target="_top" xlink:title="Evaluate the derivative of the square of the magnetic field modulus. Add spectral constraint derivati...">
<polygon fill="white" stroke="black" points="150.5,-306.77 150.5,-325.77 224.5,-325.77 224.5,-306.77 150.5,-306.77"/>
<text text-anchor="middle" x="187.5" y="-313.77" font-family="Helvetica,sans-Serif" font-size="10.00">evaluate_dbb</text>
</a>
</g>
</g>
<!-- Node15&#45;&gt;Node16 -->
<g id="edge25" class="edge">
<title>Node15&#45;&gt;Node16</title>
<path fill="none" stroke="midnightblue" d="M271.66,-323.82C257.08,-320.67 239.81,-317.76 224.79,-315.93"/>
<polygon fill="midnightblue" stroke="midnightblue" points="271.2,-327.31 281.73,-326.15 272.78,-320.49 271.2,-327.31"/>
</g>
<!-- Node15&#45;&gt;Node17 -->
<g id="edge27" class="edge">
<title>Node15&#45;&gt;Node17</title>
<path fill="none" stroke="midnightblue" d="M273.02,-348.61C264.22,-353.94 254.45,-359.73 245,-364.27 229.89,-371.54 211.28,-377.22 199.65,-382.69"/>
<polygon fill="midnightblue" stroke="midnightblue" points="275.06,-351.46 281.79,-343.28 271.43,-345.48 275.06,-351.46"/>
</g>
<!-- Node18 -->
<g id="node18" class="node">
<title>Node18</title>
<g id="a_node18"><a xlink:href="dfp200_8f90.html#a5e56f1f4b1e6df11a9cffa6237c37469" target="_top" xlink:title="This routine evaluates the value of the magnetic field once the interface is perturbed using matrix p...">
<polygon fill="white" stroke="black" points="130,-344.77 130,-363.77 245,-363.77 245,-344.77 130,-344.77"/>
<text text-anchor="middle" x="187.5" y="-351.77" font-family="Helvetica,sans-Serif" font-size="10.00">get_perturbed_solution</text>
</a>
</g>
</g>
<!-- Node15&#45;&gt;Node18 -->
<g id="edge30" class="edge">
<title>Node15&#45;&gt;Node18</title>
<path fill="none" stroke="midnightblue" d="M271.59,-334.47C252.9,-336.58 229.79,-340.55 212.69,-344.68"/>
<polygon fill="midnightblue" stroke="midnightblue" points="272.12,-337.93 281.73,-333.48 271.44,-330.97 272.12,-337.93"/>
</g>
<!-- Node16&#45;&gt;Node15 -->
<g id="edge26" class="edge">
<title>Node16&#45;&gt;Node15</title>
<path fill="none" stroke="midnightblue" d="M222.53,-328.09C241.64,-332.14 264.95,-335.72 281.73,-337.07"/>
<polygon fill="midnightblue" stroke="midnightblue" points="223.22,-324.66 212.69,-325.87 221.68,-331.48 223.22,-324.66"/>
</g>
<!-- Node17&#45;&gt;Node15 -->
<g id="edge28" class="edge">
<title>Node17&#45;&gt;Node15</title>
<path fill="none" stroke="midnightblue" d="M244.4,-382.56C244.6,-382.46 244.8,-382.37 245,-382.27 265.86,-372.24 288.26,-356.17 298.42,-344.87"/>
<polygon fill="midnightblue" stroke="midnightblue" points="242.89,-379.4 235.12,-386.61 245.69,-385.82 242.89,-379.4"/>
</g>
<!-- Node18&#45;&gt;Node15 -->
<g id="edge31" class="edge">
<title>Node18&#45;&gt;Node15</title>
<path fill="none" stroke="midnightblue" d="M255.23,-349.97C264.76,-348.25 273.95,-346.33 281.73,-344.4"/>
<polygon fill="midnightblue" stroke="midnightblue" points="254.5,-346.55 245.23,-351.69 255.68,-353.45 254.5,-346.55"/>
</g>
<!-- Node19&#45;&gt;Node7 -->
<g id="edge33" class="edge">
<title>Node19&#45;&gt;Node7</title>
<path fill="none" stroke="midnightblue" d="M272.17,-107.27C251.1,-107.27 224.23,-107.27 206.71,-107.27"/>
<polygon fill="midnightblue" stroke="midnightblue" points="272.28,-110.77 282.28,-107.27 272.28,-103.77 272.28,-110.77"/>
</g>
<!-- Node21 -->
<g id="node21" class="node">
<title>Node21</title>
<g id="a_node21"><a xlink:href="group__grp__conjugate__gradient.html#ga25a3bae2ff2ee0469b045de0d033398b" target="_top" xlink:title="Use preconditioned conjugate gradient method to find minimum of energy functional.">
<polygon fill="white" stroke="black" points="281,-21.77 281,-40.77 329,-40.77 329,-21.77 281,-21.77"/>
<text text-anchor="middle" x="305" y="-28.77" font-family="Helvetica,sans-Serif" font-size="10.00">pc00aa</text>
</a>
</g>
</g>
<!-- Node20&#45;&gt;Node21 -->
<g id="edge36" class="edge">
<title>Node20&#45;&gt;Node21</title>
<path fill="none" stroke="midnightblue" d="M393.16,-31.27C372.81,-31.27 347.31,-31.27 329.16,-31.27"/>
<polygon fill="midnightblue" stroke="midnightblue" points="393.27,-34.77 403.27,-31.27 393.27,-27.77 393.27,-34.77"/>
</g>
<!-- Node22&#45;&gt;Node18 -->
<g id="edge40" class="edge">
<title>Node22&#45;&gt;Node18</title>
<path fill="none" stroke="midnightblue" d="M1115.65,-444.87C1083.26,-461.76 1025.54,-487.27 972.5,-487.27 972.5,-487.27 972.5,-487.27 426.5,-487.27 331.24,-487.27 331.08,-414.07 245,-373.27 237.52,-369.73 229.2,-366.54 221.29,-363.84"/>
<polygon fill="midnightblue" stroke="midnightblue" points="1117.69,-447.75 1124.86,-439.94 1114.39,-441.58 1117.69,-447.75"/>
</g>
<!-- Node23 -->
<g id="node23" class="node">
<title>Node23</title>
<g id="a_node23"><a xlink:href="intghs_8f90.html#ae10091a51178071d12004da4952104d4" target="_top" xlink:title="free workspace">
<polygon fill="white" stroke="black" points="688,-515.77 688,-534.77 820,-534.77 820,-515.77 688,-515.77"/>
<text text-anchor="middle" x="754" y="-522.77" font-family="Helvetica,sans-Serif" font-size="10.00">intghs_workspace_destroy</text>
</a>
</g>
</g>
<!-- Node22&#45;&gt;Node23 -->
<g id="edge41" class="edge">
<title>Node22&#45;&gt;Node23</title>
<path fill="none" stroke="midnightblue" d="M1132.38,-448.96C1123.03,-465.85 1106.78,-489.78 1085,-501.27 1000.03,-546.12 885.23,-542.61 815.85,-534.79"/>
<polygon fill="midnightblue" stroke="midnightblue" points="1135.54,-450.45 1137.08,-439.97 1129.34,-447.21 1135.54,-450.45"/>
</g>
<!-- Node24 -->
<g id="node24" class="node">
<title>Node24</title>
<g id="a_node24"><a xlink:href="intghs_8f90.html#ae8299d4625cabd90eb1398fd2cd38089" target="_top" xlink:title="init workspace">
<polygon fill="white" stroke="black" points="697.5,-420.77 697.5,-439.77 810.5,-439.77 810.5,-420.77 697.5,-420.77"/>
<text text-anchor="middle" x="754" y="-427.77" font-family="Helvetica,sans-Serif" font-size="10.00">intghs_workspace_init</text>
</a>
</g>
</g>
<!-- Node22&#45;&gt;Node24 -->
<g id="edge45" class="edge">
<title>Node22&#45;&gt;Node24</title>
<path fill="none" stroke="midnightblue" d="M1110.99,-430.27C1046.02,-430.27 893.23,-430.27 810.52,-430.27"/>
<polygon fill="midnightblue" stroke="midnightblue" points="1110.99,-433.77 1120.99,-430.27 1110.99,-426.77 1110.99,-433.77"/>
</g>
<!-- Node25 -->
<g id="node25" class="node">
<title>Node25</title>
<g id="a_node25"><a xlink:href="mp00ac_8f90.html#ae9fe335bb4916face9f9d19ce8c0f5d7" target="_top" xlink:title="compute a.x by either by coumputing it directly, or using a matrix free method">
<polygon fill="white" stroke="black" points="1036,-401.77 1036,-420.77 1085,-420.77 1085,-401.77 1036,-401.77"/>
<text text-anchor="middle" x="1060.5" y="-408.77" font-family="Helvetica,sans-Serif" font-size="10.00">matvec</text>
</a>
</g>
</g>
<!-- Node22&#45;&gt;Node25 -->
<g id="edge49" class="edge">
<title>Node22&#45;&gt;Node25</title>
<path fill="none" stroke="midnightblue" d="M1110.9,-423.01C1102.36,-420.98 1093.22,-418.81 1085.15,-416.89"/>
<polygon fill="midnightblue" stroke="midnightblue" points="1110.36,-426.48 1120.9,-425.38 1111.98,-419.66 1110.36,-426.48"/>
</g>
<!-- Node27 -->
<g id="node27" class="node">
<title>Node27</title>
<g id="a_node27"><a xlink:href="group__grp__solver.html#ga6626839aff500f060beb5bce2b90c447" target="_top" xlink:title="Solves Beltrami/vacuum (linear) system, given matrices.unpacking fluxes, helicity multiplier">
<polygon fill="white" stroke="black" points="856,-363.77 856,-382.77 907,-382.77 907,-363.77 856,-363.77"/>
<text text-anchor="middle" x="881.5" y="-370.77" font-family="Helvetica,sans-Serif" font-size="10.00">mp00ac</text>
</a>
</g>
</g>
<!-- Node22&#45;&gt;Node27 -->
<g id="edge54" class="edge">
<title>Node22&#45;&gt;Node27</title>
<path fill="none" stroke="midnightblue" d="M1122.8,-414.2C1112.37,-406.19 1098.74,-397.18 1085,-392.27 1023.81,-370.43 945.97,-370.17 907.02,-371.75"/>
<polygon fill="midnightblue" stroke="midnightblue" points="1120.75,-417.05 1130.73,-420.59 1125.14,-411.6 1120.75,-417.05"/>
</g>
<!-- Node23&#45;&gt;Node2 -->
<g id="edge42" class="edge">
<title>Node23&#45;&gt;Node2</title>
<path fill="none" stroke="midnightblue" d="M737.71,-507.96C724.36,-492.71 704.57,-469.78 688,-449.27 669.22,-426.04 648.18,-397.9 637.34,-383.25"/>
<polygon fill="midnightblue" stroke="midnightblue" points="735.18,-510.38 744.41,-515.58 740.44,-505.76 735.18,-510.38"/>
</g>
<!-- Node23&#45;&gt;Node15 -->
<g id="edge43" class="edge">
<title>Node23&#45;&gt;Node15</title>
<path fill="none" stroke="midnightblue" d="M712.42,-537.26C682.44,-544.18 640.95,-549.66 606,-539.27 474.38,-500.18 349.38,-379.74 315.17,-344.84"/>
<polygon fill="midnightblue" stroke="midnightblue" points="713.63,-540.57 722.51,-534.78 711.96,-533.77 713.63,-540.57"/>
</g>
<!-- Node23&#45;&gt;Node17 -->
<g id="edge44" class="edge">
<title>Node23&#45;&gt;Node17</title>
<path fill="none" stroke="midnightblue" d="M677.68,-525.27C639.18,-525.27 591.59,-525.27 549,-525.27 549,-525.27 549,-525.27 426.5,-525.27 360.96,-525.27 338.03,-533.57 281,-501.27 237.59,-476.69 205.32,-423.52 193.46,-401.8"/>
<polygon fill="midnightblue" stroke="midnightblue" points="677.77,-528.77 687.77,-525.27 677.77,-521.77 677.77,-528.77"/>
</g>
<!-- Node24&#45;&gt;Node2 -->
<g id="edge46" class="edge">
<title>Node24&#45;&gt;Node2</title>
<path fill="none" stroke="midnightblue" d="M723.31,-416.52C700.84,-406.1 670.55,-392.06 650.65,-382.85"/>
<polygon fill="midnightblue" stroke="midnightblue" points="721.87,-419.7 732.41,-420.73 724.81,-413.35 721.87,-419.7"/>
</g>
<!-- Node24&#45;&gt;Node15 -->
<g id="edge47" class="edge">
<title>Node24&#45;&gt;Node15</title>
<path fill="none" stroke="midnightblue" d="M687.17,-419.82C609.55,-406.93 476.95,-383.16 365,-354.27 352.7,-351.1 339.21,-346.82 328.23,-343.12"/>
<polygon fill="midnightblue" stroke="midnightblue" points="686.84,-423.31 697.28,-421.49 687.98,-416.41 686.84,-423.31"/>
</g>
<!-- Node24&#45;&gt;Node17 -->
<g id="edge48" class="edge">
<title>Node24&#45;&gt;Node17</title>
<path fill="none" stroke="midnightblue" d="M687.15,-439.53C647.26,-444.36 595.3,-449.27 549,-449.27 549,-449.27 549,-449.27 426.5,-449.27 345.99,-449.27 254.26,-418.04 212.04,-401.81"/>
<polygon fill="midnightblue" stroke="midnightblue" points="687.79,-442.98 697.28,-438.28 686.93,-436.03 687.79,-442.98"/>
</g>
<!-- Node26 -->
<g id="node26" class="node">
<title>Node26</title>
<g id="a_node26"><a xlink:href="mp00ac_8f90.html#a304edac43f63d39dda4419b4d044eac5" target="_top" xlink:title="run GMRES">
<polygon fill="white" stroke="black" points="943,-401.77 943,-420.77 1000,-420.77 1000,-401.77 943,-401.77"/>
<text text-anchor="middle" x="971.5" y="-408.77" font-family="Helvetica,sans-Serif" font-size="10.00">rungmres</text>
</a>
</g>
</g>
<!-- Node25&#45;&gt;Node26 -->
<g id="edge50" class="edge">
<title>Node25&#45;&gt;Node26</title>
<path fill="none" stroke="midnightblue" d="M1025.5,-411.27C1017.13,-411.27 1008.28,-411.27 1000.25,-411.27"/>
<polygon fill="midnightblue" stroke="midnightblue" points="1025.73,-414.77 1035.73,-411.27 1025.73,-407.77 1025.73,-414.77"/>
</g>
<!-- Node26&#45;&gt;Node27 -->
<g id="edge51" class="edge">
<title>Node26&#45;&gt;Node27</title>
<path fill="none" stroke="midnightblue" d="M939.1,-397.72C927.72,-392.8 915.12,-387.36 904.7,-382.86"/>
<polygon fill="midnightblue" stroke="midnightblue" points="937.73,-400.93 948.29,-401.69 940.5,-394.51 937.73,-400.93"/>
</g>
<!-- Node28 -->
<g id="node28" class="node">
<title>Node28</title>
<g id="a_node28"><a xlink:href="group__grp__solver__driver.html#gacad623d4c5c006e9ad10116372f92ad3" target="_top" xlink:title="Constructs Beltrami field in given volume consistent with flux, helicity, rotational&#45;transform and/or...">
<polygon fill="white" stroke="black" points="728.5,-363.77 728.5,-382.77 779.5,-382.77 779.5,-363.77 728.5,-363.77"/>
<text text-anchor="middle" x="754" y="-370.77" font-family="Helvetica,sans-Serif" font-size="10.00">ma02aa</text>
</a>
</g>
</g>
<!-- Node27&#45;&gt;Node28 -->
<g id="edge52" class="edge">
<title>Node27&#45;&gt;Node28</title>
<path fill="none" stroke="midnightblue" d="M845.6,-373.27C824.67,-373.27 798.55,-373.27 779.74,-373.27"/>
<polygon fill="midnightblue" stroke="midnightblue" points="845.71,-376.77 855.71,-373.27 845.71,-369.77 845.71,-376.77"/>
</g>
<!-- Node28&#45;&gt;Node2 -->
<g id="edge53" class="edge">
<title>Node28&#45;&gt;Node2</title>
<path fill="none" stroke="midnightblue" d="M718.16,-373.27C696.93,-373.27 670.45,-373.27 652.08,-373.27"/>
<polygon fill="midnightblue" stroke="midnightblue" points="718.4,-376.77 728.4,-373.27 718.4,-369.77 718.4,-376.77"/>
</g>
<!-- Node29&#45;&gt;Node2 -->
<g id="edge56" class="edge">
<title>Node29&#45;&gt;Node2</title>
<path fill="none" stroke="midnightblue" d="M718.72,-307.21C708.47,-310.89 697.45,-315.58 688,-321.27 668.31,-333.14 649.19,-352.18 638.57,-363.63"/>
<polygon fill="midnightblue" stroke="midnightblue" points="719.88,-310.51 728.24,-303.99 717.64,-303.88 719.88,-310.51"/>
</g>
<!-- Node29&#45;&gt;Node14 -->
<g id="edge57" class="edge">
<title>Node29&#45;&gt;Node14</title>
<path fill="none" stroke="midnightblue" d="M718.17,-301.35C663.76,-307.72 557.83,-320.13 490.25,-328.04"/>
<polygon fill="midnightblue" stroke="midnightblue" points="718.82,-304.8 728.34,-300.16 718,-297.85 718.82,-304.8"/>
</g>
</g>
</svg>
