<?xml version="1.0" encoding="UTF-8" standalone="no"?>
<!DOCTYPE svg PUBLIC "-//W3C//DTD SVG 1.1//EN"
 "http://www.w3.org/Graphics/SVG/1.1/DTD/svg11.dtd">
<!-- Generated by graphviz version 2.47.1 (20210421.1823)
 -->
<!-- Title: compute_guvijsave Pages: 1 -->
<svg width="1309pt" height="565pt"
 viewBox="0.00 0.00 1309.00 564.98" xmlns="http://www.w3.org/2000/svg" xmlns:xlink="http://www.w3.org/1999/xlink">
<g id="graph0" class="graph" transform="scale(1 1) rotate(0) translate(4 560.98)">
<title>compute_guvijsave</title>
<polygon fill="white" stroke="transparent" points="-4,4 -4,-560.98 1305,-560.98 1305,4 -4,4"/>
<!-- Node1 -->
<g id="node1" class="node">
<title>Node1</title>
<g id="a_node1"><a xlink:title="compute guvijsave">
<polygon fill="#bfbfbf" stroke="black" points="1200,-142.5 1200,-161.5 1301,-161.5 1301,-142.5 1200,-142.5"/>
<text text-anchor="middle" x="1250.5" y="-149.5" font-family="Helvetica,sans-Serif" font-size="10.00">compute_guvijsave</text>
</a>
</g>
</g>
<!-- Node2 -->
<g id="node2" class="node">
<title>Node2</title>
<g id="a_node2"><a xlink:href="dfp100_8f90.html#a17a3ac15cc83994394f7b4cc05e5898e" target="_top" xlink:title="Split the work between MPI nodes and evaluate the global constraint.">
<polygon fill="white" stroke="black" points="606,-218.5 606,-237.5 652,-237.5 652,-218.5 606,-218.5"/>
<text text-anchor="middle" x="629" y="-225.5" font-family="Helvetica,sans-Serif" font-size="10.00">dfp100</text>
</a>
</g>
</g>
<!-- Node1&#45;&gt;Node2 -->
<g id="edge1" class="edge">
<title>Node1&#45;&gt;Node2</title>
<path fill="none" stroke="midnightblue" d="M1234.23,-169.43C1204.45,-201.36 1135.08,-266 1061.5,-266 1061.5,-266 1061.5,-266 880.5,-266 794.53,-266 772.13,-264.71 688,-247 675.97,-244.47 662.94,-240.33 652.27,-236.56"/>
<polygon fill="midnightblue" stroke="midnightblue" points="1237.1,-171.47 1241.24,-161.72 1231.92,-166.76 1237.1,-171.47"/>
</g>
<!-- Node20 -->
<g id="node20" class="node">
<title>Node20</title>
<g id="a_node20"><a xlink:href="intghs_8f90.html#a21d3b7106371783302e68297f7797e9f" target="_top" xlink:title="Calculates volume integrals of Chebyshev polynomials and covariant field products.">
<polygon fill="white" stroke="black" points="1121,-142.5 1121,-161.5 1164,-161.5 1164,-142.5 1121,-142.5"/>
<text text-anchor="middle" x="1142.5" y="-149.5" font-family="Helvetica,sans-Serif" font-size="10.00">intghs</text>
</a>
</g>
</g>
<!-- Node1&#45;&gt;Node20 -->
<g id="edge35" class="edge">
<title>Node1&#45;&gt;Node20</title>
<path fill="none" stroke="midnightblue" d="M1189.87,-152C1180.65,-152 1171.71,-152 1164.18,-152"/>
<polygon fill="midnightblue" stroke="midnightblue" points="1189.91,-155.5 1199.91,-152 1189.91,-148.5 1189.91,-155.5"/>
</g>
<!-- Node27 -->
<g id="node27" class="node">
<title>Node27</title>
<g id="a_node27"><a xlink:href="group__grp__integrals.html#ga400af9e33dd5465ff9a4bba9fbf91108" target="_top" xlink:title="Calculates volume integrals of Chebyshev polynomials and metric element products.">
<polygon fill="white" stroke="black" points="728.5,-66.5 728.5,-85.5 779.5,-85.5 779.5,-66.5 728.5,-66.5"/>
<text text-anchor="middle" x="754" y="-73.5" font-family="Helvetica,sans-Serif" font-size="10.00">ma00aa</text>
</a>
</g>
</g>
<!-- Node1&#45;&gt;Node27 -->
<g id="edge51" class="edge">
<title>Node1&#45;&gt;Node27</title>
<path fill="none" stroke="midnightblue" d="M1227.46,-136.58C1193.49,-114.37 1125.54,-76 1061.5,-76 1061.5,-76 1061.5,-76 970.5,-76 901.29,-76 819.57,-76 779.56,-76"/>
<polygon fill="midnightblue" stroke="midnightblue" points="1225.85,-139.72 1236.11,-142.37 1229.75,-133.9 1225.85,-139.72"/>
</g>
<!-- Node3 -->
<g id="node3" class="node">
<title>Node3</title>
<g id="a_node3"><a xlink:href="group__grp__global__force.html#ga38c9d3c50bd043707fefa5137c9dbf44" target="_top" xlink:title="Calculates , where &#160;and , and .">
<polygon fill="white" stroke="black" points="526,-351.5 526,-370.5 570,-370.5 570,-351.5 526,-351.5"/>
<text text-anchor="middle" x="548" y="-358.5" font-family="Helvetica,sans-Serif" font-size="10.00">dforce</text>
</a>
</g>
</g>
<!-- Node2&#45;&gt;Node3 -->
<g id="edge2" class="edge">
<title>Node2&#45;&gt;Node3</title>
<path fill="none" stroke="midnightblue" d="M616.99,-246.53C600,-275.14 567.98,-329.05 554.84,-351.16"/>
<polygon fill="midnightblue" stroke="midnightblue" points="620.22,-247.95 622.32,-237.57 614.2,-244.38 620.22,-247.95"/>
</g>
<!-- Node15 -->
<g id="node15" class="node">
<title>Node15</title>
<g id="a_node15"><a xlink:href="dfp200_8f90.html#a73ddf39ecc5228201fb643779e17cd36" target="_top" xlink:title="Evaluate mu and psip derivatives and store them in dmupfdx.">
<polygon fill="white" stroke="black" points="140,-142.5 140,-161.5 235,-161.5 235,-142.5 140,-142.5"/>
<text text-anchor="middle" x="187.5" y="-149.5" font-family="Helvetica,sans-Serif" font-size="10.00">evaluate_dmupfdx</text>
</a>
</g>
</g>
<!-- Node2&#45;&gt;Node15 -->
<g id="edge34" class="edge">
<title>Node2&#45;&gt;Node15</title>
<path fill="none" stroke="midnightblue" d="M595.89,-230.4C533.64,-234.07 392.84,-237.45 281,-204 250.11,-194.76 218.23,-173.85 201.14,-161.55"/>
<polygon fill="midnightblue" stroke="midnightblue" points="596.13,-233.9 605.89,-229.77 595.68,-226.91 596.13,-233.9"/>
</g>
<!-- Node4 -->
<g id="node4" class="node">
<title>Node4</title>
<g id="a_node4"><a xlink:href="namespaceallglobal.html#a7824bc37519fe88336534ce90ab2af16" target="_top" xlink:title=" ">
<polygon fill="white" stroke="black" points="370.5,-370.5 370.5,-389.5 484.5,-389.5 484.5,-370.5 370.5,-370.5"/>
<text text-anchor="middle" x="427.5" y="-377.5" font-family="Helvetica,sans-Serif" font-size="10.00">allglobal::check_inputs</text>
</a>
</g>
</g>
<!-- Node3&#45;&gt;Node4 -->
<g id="edge3" class="edge">
<title>Node3&#45;&gt;Node4</title>
<path fill="none" stroke="midnightblue" d="M515.94,-365.98C506.31,-367.52 495.38,-369.28 484.59,-371.01"/>
<polygon fill="midnightblue" stroke="midnightblue" points="516.49,-369.44 525.81,-364.4 515.39,-362.52 516.49,-369.44"/>
</g>
<!-- Node6 -->
<g id="node6" class="node">
<title>Node6</title>
<g id="a_node6"><a xlink:href="xspech_8f90.html#a48f45478dc2c9f70ea8aa1c60ad06503" target="_top" xlink:title=" ">
<polygon fill="white" stroke="black" points="168.5,-370.5 168.5,-389.5 206.5,-389.5 206.5,-370.5 168.5,-370.5"/>
<text text-anchor="middle" x="187.5" y="-377.5" font-family="Helvetica,sans-Serif" font-size="10.00">spec</text>
</a>
</g>
</g>
<!-- Node3&#45;&gt;Node6 -->
<g id="edge33" class="edge">
<title>Node3&#45;&gt;Node6</title>
<path fill="none" stroke="midnightblue" d="M528.68,-377.28C518.15,-385.53 504.23,-394.69 490,-399 386.59,-430.31 254.38,-398.93 206.68,-385.47"/>
<polygon fill="midnightblue" stroke="midnightblue" points="531.17,-379.76 536.65,-370.7 526.71,-374.37 531.17,-379.76"/>
</g>
<!-- Node8 -->
<g id="node8" class="node">
<title>Node8</title>
<g id="a_node8"><a xlink:href="group__grp__force__driver.html#gabbc245b3884ee8d8d3e2a52f25149f78" target="_top" xlink:title="fcn1">
<polygon fill="white" stroke="black" points="410,-484.5 410,-503.5 445,-503.5 445,-484.5 410,-484.5"/>
<text text-anchor="middle" x="427.5" y="-491.5" font-family="Helvetica,sans-Serif" font-size="10.00">fcn1</text>
</a>
</g>
</g>
<!-- Node3&#45;&gt;Node8 -->
<g id="edge8" class="edge">
<title>Node3&#45;&gt;Node8</title>
<path fill="none" stroke="midnightblue" d="M541.53,-380.35C533.79,-404.44 517.45,-445.41 490,-470 477.28,-481.39 458.53,-487.66 445.08,-490.9"/>
<polygon fill="midnightblue" stroke="midnightblue" points="544.94,-381.17 544.49,-370.59 538.24,-379.14 544.94,-381.17"/>
</g>
<!-- Node9 -->
<g id="node9" class="node">
<title>Node9</title>
<g id="a_node9"><a xlink:href="group__grp__force__driver.html#gaec14f81fbdbedafbc4189489ec8ae178" target="_top" xlink:title="Employs Newton method to find , where &#160;and &#160;is defined in dforce() .">
<polygon fill="white" stroke="black" points="281,-461.5 281,-480.5 329,-480.5 329,-461.5 281,-461.5"/>
<text text-anchor="middle" x="305" y="-468.5" font-family="Helvetica,sans-Serif" font-size="10.00">newton</text>
</a>
</g>
</g>
<!-- Node3&#45;&gt;Node9 -->
<g id="edge30" class="edge">
<title>Node3&#45;&gt;Node9</title>
<path fill="none" stroke="midnightblue" d="M537.22,-379.28C527.46,-395.69 510.93,-419.12 490,-432 438.69,-463.57 365.77,-469.89 329.03,-470.96"/>
<polygon fill="midnightblue" stroke="midnightblue" points="540.28,-380.99 542.16,-370.57 534.19,-377.54 540.28,-380.99"/>
</g>
<!-- Node10 -->
<g id="node10" class="node">
<title>Node10</title>
<g id="a_node10"><a xlink:href="group__grp__force__driver.html#ga8ccd6c7d901872702521d0a0edf95412" target="_top" xlink:title="fcn2">
<polygon fill="white" stroke="black" points="29.5,-475.5 29.5,-494.5 64.5,-494.5 64.5,-475.5 29.5,-475.5"/>
<text text-anchor="middle" x="47" y="-482.5" font-family="Helvetica,sans-Serif" font-size="10.00">fcn2</text>
</a>
</g>
</g>
<!-- Node3&#45;&gt;Node10 -->
<g id="edge17" class="edge">
<title>Node3&#45;&gt;Node10</title>
<path fill="none" stroke="midnightblue" d="M546.32,-380.73C543.95,-414.51 533.71,-482.71 490,-513 351.91,-608.69 127.55,-520.64 64.79,-492.79"/>
<polygon fill="midnightblue" stroke="midnightblue" points="549.81,-380.87 546.85,-370.69 542.82,-380.49 549.81,-380.87"/>
</g>
<!-- Node12 -->
<g id="node12" class="node">
<title>Node12</title>
<g id="a_node12"><a xlink:href="dfp200_8f90.html#a6aca59cf350d7b1941f8389d50945a43" target="_top" xlink:title="get LU Beltrami matrices">
<polygon fill="white" stroke="black" points="365,-66.5 365,-85.5 490,-85.5 490,-66.5 365,-66.5"/>
<text text-anchor="middle" x="427.5" y="-73.5" font-family="Helvetica,sans-Serif" font-size="10.00">get_lu_beltrami_matrices</text>
</a>
</g>
</g>
<!-- Node3&#45;&gt;Node12 -->
<g id="edge18" class="edge">
<title>Node3&#45;&gt;Node12</title>
<path fill="none" stroke="midnightblue" d="M539.02,-341.81C515.94,-286.3 449.66,-126.89 432.56,-85.77"/>
<polygon fill="midnightblue" stroke="midnightblue" points="535.85,-343.3 542.92,-351.19 542.31,-340.61 535.85,-343.3"/>
</g>
<!-- Node17 -->
<g id="node17" class="node">
<title>Node17</title>
<g id="a_node17"><a xlink:href="group__grp__diagnostics.html#ga7401b50ec10c6598ee4a8112717a63ec" target="_top" xlink:title="Computes eigenvalues and eigenvectors of derivative matrix, .">
<polygon fill="white" stroke="black" points="282.5,-294.5 282.5,-313.5 327.5,-313.5 327.5,-294.5 282.5,-294.5"/>
<text text-anchor="middle" x="305" y="-301.5" font-family="Helvetica,sans-Serif" font-size="10.00">hesian</text>
</a>
</g>
</g>
<!-- Node3&#45;&gt;Node17 -->
<g id="edge28" class="edge">
<title>Node3&#45;&gt;Node17</title>
<path fill="none" stroke="midnightblue" d="M528.09,-344.98C517.56,-336.98 503.81,-327.97 490,-323 434.1,-302.88 362.9,-301.92 327.71,-302.93"/>
<polygon fill="midnightblue" stroke="midnightblue" points="526.1,-347.88 536.11,-351.35 530.46,-342.39 526.1,-347.88"/>
</g>
<!-- Node18 -->
<g id="node18" class="node">
<title>Node18</title>
<g id="a_node18"><a xlink:href="group__grp__conjugate__gradient.html#ga4d8415226e62a9fdb42b0fd0b464251e" target="_top" xlink:title="Returns the energy functional and it&#39;s derivatives with respect to geometry.">
<polygon fill="white" stroke="black" points="403.5,-332.5 403.5,-351.5 451.5,-351.5 451.5,-332.5 403.5,-332.5"/>
<text text-anchor="middle" x="427.5" y="-339.5" font-family="Helvetica,sans-Serif" font-size="10.00">pc00ab</text>
</a>
</g>
</g>
<!-- Node3&#45;&gt;Node18 -->
<g id="edge31" class="edge">
<title>Node3&#45;&gt;Node18</title>
<path fill="none" stroke="midnightblue" d="M515.85,-356.01C495.68,-352.77 469.85,-348.63 451.53,-345.69"/>
<polygon fill="midnightblue" stroke="midnightblue" points="515.39,-359.48 525.81,-357.6 516.49,-352.56 515.39,-359.48"/>
</g>
<!-- Node5 -->
<g id="node5" class="node">
<title>Node5</title>
<g id="a_node5"><a xlink:href="xspech_8f90.html#aea782eae089760a491c2c54f9903abcc" target="_top" xlink:title="Main program of SPEC.">
<polygon fill="white" stroke="black" points="281.5,-370.5 281.5,-389.5 328.5,-389.5 328.5,-370.5 281.5,-370.5"/>
<text text-anchor="middle" x="305" y="-377.5" font-family="Helvetica,sans-Serif" font-size="10.00">xspech</text>
</a>
</g>
</g>
<!-- Node4&#45;&gt;Node5 -->
<g id="edge4" class="edge">
<title>Node4&#45;&gt;Node5</title>
<path fill="none" stroke="midnightblue" d="M360.45,-380C349.06,-380 337.95,-380 328.77,-380"/>
<polygon fill="midnightblue" stroke="midnightblue" points="360.48,-383.5 370.48,-380 360.48,-376.5 360.48,-383.5"/>
</g>
<!-- Node5&#45;&gt;Node6 -->
<g id="edge5" class="edge">
<title>Node5&#45;&gt;Node6</title>
<path fill="none" stroke="midnightblue" d="M271.4,-373.85C250.49,-372.78 224.12,-373.14 206.81,-374.91"/>
<polygon fill="midnightblue" stroke="midnightblue" points="271.25,-377.35 281.46,-374.52 271.71,-370.37 271.25,-377.35"/>
</g>
<!-- Node6&#45;&gt;Node5 -->
<g id="edge7" class="edge">
<title>Node6&#45;&gt;Node5</title>
<path fill="none" stroke="midnightblue" d="M216.84,-385.9C236.73,-387.16 262.98,-387.02 281.46,-385.48"/>
<polygon fill="midnightblue" stroke="midnightblue" points="217.06,-382.41 206.81,-385.09 216.49,-389.39 217.06,-382.41"/>
</g>
<!-- Node7 -->
<g id="node7" class="node">
<title>Node7</title>
<g id="a_node7"><a xlink:href="sphdf5_8f90.html#a0f962c09cd5d5eba99f1cba043cb3898" target="_top" xlink:title="initialize the interface to the HDF5 library and open the output file">
<polygon fill="white" stroke="black" points="0,-370.5 0,-389.5 94,-389.5 94,-370.5 0,-370.5"/>
<text text-anchor="middle" x="47" y="-377.5" font-family="Helvetica,sans-Serif" font-size="10.00">sphdf5::init_outfile</text>
</a>
</g>
</g>
<!-- Node6&#45;&gt;Node7 -->
<g id="edge6" class="edge">
<title>Node6&#45;&gt;Node7</title>
<path fill="none" stroke="midnightblue" d="M158.31,-380C139.87,-380 115.36,-380 94.12,-380"/>
<polygon fill="midnightblue" stroke="midnightblue" points="158.39,-383.5 168.39,-380 158.39,-376.5 158.39,-383.5"/>
</g>
<!-- Node8&#45;&gt;Node9 -->
<g id="edge9" class="edge">
<title>Node8&#45;&gt;Node9</title>
<path fill="none" stroke="midnightblue" d="M400.09,-483.26C378.92,-477.74 349.49,-472.2 329.22,-469.97"/>
<polygon fill="midnightblue" stroke="midnightblue" points="399.17,-486.64 409.74,-485.96 401.05,-479.9 399.17,-486.64"/>
</g>
<!-- Node9&#45;&gt;Node6 -->
<g id="edge13" class="edge">
<title>Node9&#45;&gt;Node6</title>
<path fill="none" stroke="midnightblue" d="M286.29,-454.4C274.81,-443.9 259.37,-430.23 245,-419 231.48,-408.43 215.29,-397.41 203.71,-389.79"/>
<polygon fill="midnightblue" stroke="midnightblue" points="284.15,-457.2 293.87,-461.41 288.9,-452.06 284.15,-457.2"/>
</g>
<!-- Node9&#45;&gt;Node8 -->
<g id="edge10" class="edge">
<title>Node9&#45;&gt;Node8</title>
<path fill="none" stroke="midnightblue" d="M337.63,-483.06C360.74,-488.74 391.16,-494.15 409.74,-495.65"/>
<polygon fill="midnightblue" stroke="midnightblue" points="338.48,-479.66 327.92,-480.53 336.71,-486.44 338.48,-479.66"/>
</g>
<!-- Node9&#45;&gt;Node10 -->
<g id="edge11" class="edge">
<title>Node9&#45;&gt;Node10</title>
<path fill="none" stroke="midnightblue" d="M270.49,-468.1C215.08,-468.09 106.32,-474.43 64.72,-480.53"/>
<polygon fill="midnightblue" stroke="midnightblue" points="270.8,-471.6 280.83,-468.19 270.86,-464.6 270.8,-471.6"/>
</g>
<!-- Node11 -->
<g id="node11" class="node">
<title>Node11</title>
<g id="a_node11"><a xlink:href="group__grp__force__driver.html#ga382822b303cbf8c56d6f54dcb379caf2" target="_top" xlink:title="read or write force&#45;derivative matrix">
<polygon fill="white" stroke="black" points="155,-428.5 155,-447.5 220,-447.5 220,-428.5 155,-428.5"/>
<text text-anchor="middle" x="187.5" y="-435.5" font-family="Helvetica,sans-Serif" font-size="10.00">writereadgf</text>
</a>
</g>
</g>
<!-- Node9&#45;&gt;Node11 -->
<g id="edge14" class="edge">
<title>Node9&#45;&gt;Node11</title>
<path fill="none" stroke="midnightblue" d="M278.08,-457.85C260.98,-451.76 238.46,-445.2 220.28,-440.98"/>
<polygon fill="midnightblue" stroke="midnightblue" points="276.86,-461.13 287.45,-461.37 279.32,-454.58 276.86,-461.13"/>
</g>
<!-- Node10&#45;&gt;Node9 -->
<g id="edge12" class="edge">
<title>Node10&#45;&gt;Node9</title>
<path fill="none" stroke="midnightblue" d="M74.85,-487.87C125.28,-488.41 233.36,-482.42 280.83,-476.35"/>
<polygon fill="midnightblue" stroke="midnightblue" points="74.8,-484.36 64.72,-487.64 74.64,-491.36 74.8,-484.36"/>
</g>
<!-- Node11&#45;&gt;Node9 -->
<g id="edge16" class="edge">
<title>Node11&#45;&gt;Node9</title>
<path fill="none" stroke="midnightblue" d="M214.26,-451.09C234.22,-458.22 261.64,-465.99 280.9,-469.93"/>
<polygon fill="midnightblue" stroke="midnightblue" points="215.44,-447.79 204.85,-447.55 212.98,-454.35 215.44,-447.79"/>
</g>
<!-- Node11&#45;&gt;Node10 -->
<g id="edge15" class="edge">
<title>Node11&#45;&gt;Node10</title>
<path fill="none" stroke="midnightblue" d="M148.77,-450.8C121.28,-460.13 85.37,-472.32 64.68,-479.34"/>
<polygon fill="midnightblue" stroke="midnightblue" points="150.13,-454.04 158.47,-447.51 147.88,-447.41 150.13,-454.04"/>
</g>
<!-- Node13 -->
<g id="node13" class="node">
<title>Node13</title>
<g id="a_node13"><a xlink:href="dfp200_8f90.html#a55ea75395f8c71731451e1add3720c7e" target="_top" xlink:title="Given the field consistent with the constraints and the geometry, computes local quantites related to...">
<polygon fill="white" stroke="black" points="282,-85.5 282,-104.5 328,-104.5 328,-85.5 282,-85.5"/>
<text text-anchor="middle" x="305" y="-92.5" font-family="Helvetica,sans-Serif" font-size="10.00">dfp200</text>
</a>
</g>
</g>
<!-- Node12&#45;&gt;Node13 -->
<g id="edge19" class="edge">
<title>Node12&#45;&gt;Node13</title>
<path fill="none" stroke="midnightblue" d="M354.69,-80.68C345.05,-82.39 335.82,-84.27 328.04,-86.17"/>
<polygon fill="midnightblue" stroke="midnightblue" points="355.56,-84.09 364.84,-78.97 354.4,-77.18 355.56,-84.09"/>
</g>
<!-- Node13&#45;&gt;Node3 -->
<g id="edge20" class="edge">
<title>Node13&#45;&gt;Node3</title>
<path fill="none" stroke="midnightblue" d="M321.52,-112.13C367.53,-162.92 502.26,-311.62 538.14,-351.22"/>
<polygon fill="midnightblue" stroke="midnightblue" points="324,-109.65 314.69,-104.59 318.81,-114.35 324,-109.65"/>
</g>
<!-- Node13&#45;&gt;Node12 -->
<g id="edge25" class="edge">
<title>Node13&#45;&gt;Node12</title>
<path fill="none" stroke="midnightblue" d="M338.23,-95.97C358.1,-93.9 383.18,-89.79 401.53,-85.53"/>
<polygon fill="midnightblue" stroke="midnightblue" points="337.75,-92.5 328.1,-96.88 338.37,-99.47 337.75,-92.5"/>
</g>
<!-- Node14 -->
<g id="node14" class="node">
<title>Node14</title>
<g id="a_node14"><a xlink:href="dfp200_8f90.html#a7b64c7392b45d0042d8bd7379c0761a5" target="_top" xlink:title="Evaluate the derivative of the square of the magnetic field modulus. Add spectral constraint derivati...">
<polygon fill="white" stroke="black" points="150.5,-85.5 150.5,-104.5 224.5,-104.5 224.5,-85.5 150.5,-85.5"/>
<text text-anchor="middle" x="187.5" y="-92.5" font-family="Helvetica,sans-Serif" font-size="10.00">evaluate_dbb</text>
</a>
</g>
</g>
<!-- Node13&#45;&gt;Node14 -->
<g id="edge21" class="edge">
<title>Node13&#45;&gt;Node14</title>
<path fill="none" stroke="midnightblue" d="M271.66,-88.87C257.08,-88.11 239.81,-88.05 224.79,-88.68"/>
<polygon fill="midnightblue" stroke="midnightblue" points="271.52,-92.37 281.73,-89.54 271.99,-85.38 271.52,-92.37"/>
</g>
<!-- Node13&#45;&gt;Node15 -->
<g id="edge23" class="edge">
<title>Node13&#45;&gt;Node15</title>
<path fill="none" stroke="midnightblue" d="M272.22,-104.58C248,-115.24 216.08,-131.64 199.52,-142.39"/>
<polygon fill="midnightblue" stroke="midnightblue" points="273.9,-107.67 281.73,-100.53 271.16,-101.23 273.9,-107.67"/>
</g>
<!-- Node16 -->
<g id="node16" class="node">
<title>Node16</title>
<g id="a_node16"><a xlink:href="dfp200_8f90.html#a5e56f1f4b1e6df11a9cffa6237c37469" target="_top" xlink:title="This routine evaluates the value of the magnetic field once the interface is perturbed using matrix p...">
<polygon fill="white" stroke="black" points="130,-47.5 130,-66.5 245,-66.5 245,-47.5 130,-47.5"/>
<text text-anchor="middle" x="187.5" y="-54.5" font-family="Helvetica,sans-Serif" font-size="10.00">get_perturbed_solution</text>
</a>
</g>
</g>
<!-- Node13&#45;&gt;Node16 -->
<g id="edge26" class="edge">
<title>Node13&#45;&gt;Node16</title>
<path fill="none" stroke="midnightblue" d="M279.49,-81.3C267.37,-76.39 252.29,-71.08 237.9,-66.57"/>
<polygon fill="midnightblue" stroke="midnightblue" points="278.33,-84.61 288.9,-85.3 281.07,-78.17 278.33,-84.61"/>
</g>
<!-- Node14&#45;&gt;Node13 -->
<g id="edge22" class="edge">
<title>Node14&#45;&gt;Node13</title>
<path fill="none" stroke="midnightblue" d="M235.13,-101.64C251.22,-101.97 268.5,-101.57 281.73,-100.46"/>
<polygon fill="midnightblue" stroke="midnightblue" points="234.89,-98.13 224.79,-101.32 234.67,-105.13 234.89,-98.13"/>
</g>
<!-- Node15&#45;&gt;Node13 -->
<g id="edge24" class="edge">
<title>Node15&#45;&gt;Node13</title>
<path fill="none" stroke="midnightblue" d="M229.54,-138.24C252.11,-127.82 278.4,-114.07 292.93,-104.64"/>
<polygon fill="midnightblue" stroke="midnightblue" points="227.82,-135.18 220.14,-142.48 230.7,-141.56 227.82,-135.18"/>
</g>
<!-- Node16&#45;&gt;Node13 -->
<g id="edge27" class="edge">
<title>Node16&#45;&gt;Node13</title>
<path fill="none" stroke="midnightblue" d="M212.59,-70.53C232.96,-78.81 261.9,-88.28 281.73,-93.13"/>
<polygon fill="midnightblue" stroke="midnightblue" points="213.93,-67.3 203.36,-66.59 211.19,-73.74 213.93,-67.3"/>
</g>
<!-- Node17&#45;&gt;Node6 -->
<g id="edge29" class="edge">
<title>Node17&#45;&gt;Node6</title>
<path fill="none" stroke="midnightblue" d="M280.81,-319.26C257.58,-334.54 222.56,-357.59 203.01,-370.45"/>
<polygon fill="midnightblue" stroke="midnightblue" points="282.94,-322.05 289.37,-313.63 279.09,-316.2 282.94,-322.05"/>
</g>
<!-- Node19 -->
<g id="node19" class="node">
<title>Node19</title>
<g id="a_node19"><a xlink:href="group__grp__conjugate__gradient.html#ga25a3bae2ff2ee0469b045de0d033398b" target="_top" xlink:title="Use preconditioned conjugate gradient method to find minimum of energy functional.">
<polygon fill="white" stroke="black" points="281,-332.5 281,-351.5 329,-351.5 329,-332.5 281,-332.5"/>
<text text-anchor="middle" x="305" y="-339.5" font-family="Helvetica,sans-Serif" font-size="10.00">pc00aa</text>
</a>
</g>
</g>
<!-- Node18&#45;&gt;Node19 -->
<g id="edge32" class="edge">
<title>Node18&#45;&gt;Node19</title>
<path fill="none" stroke="midnightblue" d="M393.16,-342C372.81,-342 347.31,-342 329.16,-342"/>
<polygon fill="midnightblue" stroke="midnightblue" points="393.27,-345.5 403.27,-342 393.27,-338.5 393.27,-345.5"/>
</g>
<!-- Node20&#45;&gt;Node16 -->
<g id="edge36" class="edge">
<title>Node20&#45;&gt;Node16</title>
<path fill="none" stroke="midnightblue" d="M1132.12,-133.39C1110.21,-92.82 1051.44,0 972.5,0 972.5,0 972.5,0 426.5,0 345.99,0 254.26,-31.23 212.04,-47.46"/>
<polygon fill="midnightblue" stroke="midnightblue" points="1129.15,-135.26 1136.89,-142.49 1135.35,-132.01 1129.15,-135.26"/>
</g>
<!-- Node21 -->
<g id="node21" class="node">
<title>Node21</title>
<g id="a_node21"><a xlink:href="intghs_8f90.html#ae10091a51178071d12004da4952104d4" target="_top" xlink:title="free workspace">
<polygon fill="white" stroke="black" points="688,-104.5 688,-123.5 820,-123.5 820,-104.5 688,-104.5"/>
<text text-anchor="middle" x="754" y="-111.5" font-family="Helvetica,sans-Serif" font-size="10.00">intghs_workspace_destroy</text>
</a>
</g>
</g>
<!-- Node20&#45;&gt;Node21 -->
<g id="edge37" class="edge">
<title>Node20&#45;&gt;Node21</title>
<path fill="none" stroke="midnightblue" d="M1110.98,-149C1048.42,-142.85 904.44,-128.69 820,-120.39"/>
<polygon fill="midnightblue" stroke="midnightblue" points="1110.7,-152.49 1120.99,-149.98 1111.38,-145.52 1110.7,-152.49"/>
</g>
<!-- Node22 -->
<g id="node22" class="node">
<title>Node22</title>
<g id="a_node22"><a xlink:href="intghs_8f90.html#ae8299d4625cabd90eb1398fd2cd38089" target="_top" xlink:title="init workspace">
<polygon fill="white" stroke="black" points="697.5,-161.5 697.5,-180.5 810.5,-180.5 810.5,-161.5 697.5,-161.5"/>
<text text-anchor="middle" x="754" y="-168.5" font-family="Helvetica,sans-Serif" font-size="10.00">intghs_workspace_init</text>
</a>
</g>
</g>
<!-- Node20&#45;&gt;Node22 -->
<g id="edge41" class="edge">
<title>Node20&#45;&gt;Node22</title>
<path fill="none" stroke="midnightblue" d="M1110.99,-153.5C1046.02,-156.69 893.23,-164.2 810.52,-168.27"/>
<polygon fill="midnightblue" stroke="midnightblue" points="1111.18,-156.99 1120.99,-153.01 1110.83,-150 1111.18,-156.99"/>
</g>
<!-- Node23 -->
<g id="node23" class="node">
<title>Node23</title>
<g id="a_node23"><a xlink:href="mp00ac_8f90.html#ae9fe335bb4916face9f9d19ce8c0f5d7" target="_top" xlink:title="compute a.x by either by coumputing it directly, or using a matrix free method">
<polygon fill="white" stroke="black" points="1036,-180.5 1036,-199.5 1085,-199.5 1085,-180.5 1036,-180.5"/>
<text text-anchor="middle" x="1060.5" y="-187.5" font-family="Helvetica,sans-Serif" font-size="10.00">matvec</text>
</a>
</g>
</g>
<!-- Node20&#45;&gt;Node23 -->
<g id="edge45" class="edge">
<title>Node20&#45;&gt;Node23</title>
<path fill="none" stroke="midnightblue" d="M1112.02,-166C1101.93,-170.8 1090.87,-176.05 1081.68,-180.41"/>
<polygon fill="midnightblue" stroke="midnightblue" points="1113.78,-169.04 1121.31,-161.59 1110.78,-162.72 1113.78,-169.04"/>
</g>
<!-- Node25 -->
<g id="node25" class="node">
<title>Node25</title>
<g id="a_node25"><a xlink:href="group__grp__solver.html#ga6626839aff500f060beb5bce2b90c447" target="_top" xlink:title="Solves Beltrami/vacuum (linear) system, given matrices.unpacking fluxes, helicity multiplier">
<polygon fill="white" stroke="black" points="856,-218.5 856,-237.5 907,-237.5 907,-218.5 856,-218.5"/>
<text text-anchor="middle" x="881.5" y="-225.5" font-family="Helvetica,sans-Serif" font-size="10.00">mp00ac</text>
</a>
</g>
</g>
<!-- Node20&#45;&gt;Node25 -->
<g id="edge50" class="edge">
<title>Node20&#45;&gt;Node25</title>
<path fill="none" stroke="midnightblue" d="M1129.07,-170.09C1118.88,-183.31 1103.22,-200.39 1085,-209 1026.1,-236.85 946.92,-234.42 907.28,-230.9"/>
<polygon fill="midnightblue" stroke="midnightblue" points="1132.13,-171.83 1135.21,-161.7 1126.48,-167.7 1132.13,-171.83"/>
</g>
<!-- Node21&#45;&gt;Node2 -->
<g id="edge38" class="edge">
<title>Node21&#45;&gt;Node2</title>
<path fill="none" stroke="midnightblue" d="M723.07,-128.3C711.44,-134.65 698.43,-142.78 688,-152 665.12,-172.23 645.17,-202.64 635.75,-218.15"/>
<polygon fill="midnightblue" stroke="midnightblue" points="724.79,-131.35 732.02,-123.61 721.54,-125.15 724.79,-131.35"/>
</g>
<!-- Node21&#45;&gt;Node13 -->
<g id="edge39" class="edge">
<title>Node21&#45;&gt;Node13</title>
<path fill="none" stroke="midnightblue" d="M709.92,-101.69C658.21,-87.61 568.61,-65.42 490,-57 434.76,-51.08 418.3,-41.32 365,-57 346.3,-62.5 327.93,-75.97 316.78,-85.3"/>
<polygon fill="midnightblue" stroke="midnightblue" points="709.18,-105.12 719.75,-104.39 711.03,-98.37 709.18,-105.12"/>
</g>
<!-- Node21&#45;&gt;Node15 -->
<g id="edge40" class="edge">
<title>Node21&#45;&gt;Node15</title>
<path fill="none" stroke="midnightblue" d="M677.9,-119.06C559.56,-127.02 333.12,-142.26 235.35,-148.85"/>
<polygon fill="midnightblue" stroke="midnightblue" points="678.23,-122.54 687.97,-118.38 677.76,-115.56 678.23,-122.54"/>
</g>
<!-- Node22&#45;&gt;Node2 -->
<g id="edge42" class="edge">
<title>Node22&#45;&gt;Node2</title>
<path fill="none" stroke="midnightblue" d="M723.31,-184.76C700.84,-195.17 670.55,-209.21 650.65,-218.43"/>
<polygon fill="midnightblue" stroke="midnightblue" points="724.81,-187.92 732.41,-180.54 721.87,-181.57 724.81,-187.92"/>
</g>
<!-- Node22&#45;&gt;Node13 -->
<g id="edge43" class="edge">
<title>Node22&#45;&gt;Node13</title>
<path fill="none" stroke="midnightblue" d="M687.41,-159.85C585.38,-142.5 393.62,-109.9 328.39,-98.81"/>
<polygon fill="midnightblue" stroke="midnightblue" points="686.85,-163.3 697.29,-161.53 688.02,-156.4 686.85,-163.3"/>
</g>
<!-- Node22&#45;&gt;Node15 -->
<g id="edge44" class="edge">
<title>Node22&#45;&gt;Node15</title>
<path fill="none" stroke="midnightblue" d="M687.15,-180.26C647.26,-185.09 595.3,-190 549,-190 549,-190 549,-190 426.5,-190 354.53,-190 271.83,-172.85 225.31,-161.59"/>
<polygon fill="midnightblue" stroke="midnightblue" points="687.79,-183.71 697.28,-179 686.93,-176.76 687.79,-183.71"/>
</g>
<!-- Node24 -->
<g id="node24" class="node">
<title>Node24</title>
<g id="a_node24"><a xlink:href="mp00ac_8f90.html#a304edac43f63d39dda4419b4d044eac5" target="_top" xlink:title="run GMRES">
<polygon fill="white" stroke="black" points="943,-180.5 943,-199.5 1000,-199.5 1000,-180.5 943,-180.5"/>
<text text-anchor="middle" x="971.5" y="-187.5" font-family="Helvetica,sans-Serif" font-size="10.00">rungmres</text>
</a>
</g>
</g>
<!-- Node23&#45;&gt;Node24 -->
<g id="edge46" class="edge">
<title>Node23&#45;&gt;Node24</title>
<path fill="none" stroke="midnightblue" d="M1025.5,-190C1017.13,-190 1008.28,-190 1000.25,-190"/>
<polygon fill="midnightblue" stroke="midnightblue" points="1025.73,-193.5 1035.73,-190 1025.73,-186.5 1025.73,-193.5"/>
</g>
<!-- Node24&#45;&gt;Node25 -->
<g id="edge47" class="edge">
<title>Node24&#45;&gt;Node25</title>
<path fill="none" stroke="midnightblue" d="M939.1,-203.56C927.72,-208.47 915.12,-213.91 904.7,-218.41"/>
<polygon fill="midnightblue" stroke="midnightblue" points="940.5,-206.77 948.29,-199.59 937.73,-200.34 940.5,-206.77"/>
</g>
<!-- Node26 -->
<g id="node26" class="node">
<title>Node26</title>
<g id="a_node26"><a xlink:href="group__grp__solver__driver.html#gacad623d4c5c006e9ad10116372f92ad3" target="_top" xlink:title="Constructs Beltrami field in given volume consistent with flux, helicity, rotational&#45;transform and/or...">
<polygon fill="white" stroke="black" points="728.5,-218.5 728.5,-237.5 779.5,-237.5 779.5,-218.5 728.5,-218.5"/>
<text text-anchor="middle" x="754" y="-225.5" font-family="Helvetica,sans-Serif" font-size="10.00">ma02aa</text>
</a>
</g>
</g>
<!-- Node25&#45;&gt;Node26 -->
<g id="edge48" class="edge">
<title>Node25&#45;&gt;Node26</title>
<path fill="none" stroke="midnightblue" d="M845.6,-228C824.67,-228 798.55,-228 779.74,-228"/>
<polygon fill="midnightblue" stroke="midnightblue" points="845.71,-231.5 855.71,-228 845.71,-224.5 845.71,-231.5"/>
</g>
<!-- Node26&#45;&gt;Node2 -->
<g id="edge49" class="edge">
<title>Node26&#45;&gt;Node2</title>
<path fill="none" stroke="midnightblue" d="M718.16,-228C696.93,-228 670.45,-228 652.08,-228"/>
<polygon fill="midnightblue" stroke="midnightblue" points="718.4,-231.5 728.4,-228 718.4,-224.5 718.4,-231.5"/>
</g>
<!-- Node27&#45;&gt;Node2 -->
<g id="edge52" class="edge">
<title>Node27&#45;&gt;Node2</title>
<path fill="none" stroke="midnightblue" d="M718.32,-80.29C707.61,-83.05 696.43,-87.58 688,-95 649.24,-129.13 635.37,-193.88 631.37,-218.33"/>
<polygon fill="midnightblue" stroke="midnightblue" points="719.29,-83.66 728.34,-78.15 717.83,-76.82 719.29,-83.66"/>
</g>
<!-- Node27&#45;&gt;Node12 -->
<g id="edge53" class="edge">
<title>Node27&#45;&gt;Node12</title>
<path fill="none" stroke="midnightblue" d="M718.17,-76C663.76,-76 557.83,-76 490.25,-76"/>
<polygon fill="midnightblue" stroke="midnightblue" points="718.34,-79.5 728.34,-76 718.34,-72.5 718.34,-79.5"/>
</g>
</g>
</svg>
