<?xml version="1.0" encoding="UTF-8" standalone="no"?>
<!DOCTYPE svg PUBLIC "-//W3C//DTD SVG 1.1//EN"
 "http://www.w3.org/Graphics/SVG/1.1/DTD/svg11.dtd">
<!-- Generated by graphviz version 2.47.0 (20210407.0042)
 -->
<!-- Title: compute_guvijsave Pages: 1 -->
<svg width="1343pt" height="695pt"
 viewBox="0.00 0.00 1343.00 695.25" xmlns="http://www.w3.org/2000/svg" xmlns:xlink="http://www.w3.org/1999/xlink">
<g id="graph0" class="graph" transform="scale(1 1) rotate(0) translate(4 691.25)">
<title>compute_guvijsave</title>
<polygon fill="white" stroke="transparent" points="-4,4 -4,-691.25 1339,-691.25 1339,4 -4,4"/>
<!-- Node1 -->
<g id="node1" class="node">
<title>Node1</title>
<g id="a_node1"><a xlink:title="compute guvijsave">
<polygon fill="#bfbfbf" stroke="black" points="1234,-142.5 1234,-161.5 1335,-161.5 1335,-142.5 1234,-142.5"/>
<text text-anchor="middle" x="1284.5" y="-149.5" font-family="Helvetica,sans-Serif" font-size="10.00">compute_guvijsave</text>
</a>
</g>
</g>
<!-- Node2 -->
<g id="node2" class="node">
<title>Node2</title>
<g id="a_node2"><a xlink:href="dfp100_8f90.html#a17a3ac15cc83994394f7b4cc05e5898e" target="_top" xlink:title="Split the work between MPI nodes and evaluate the global constraint.">
<polygon fill="white" stroke="black" points="640,-180.5 640,-199.5 686,-199.5 686,-180.5 640,-180.5"/>
<text text-anchor="middle" x="663" y="-187.5" font-family="Helvetica,sans-Serif" font-size="10.00">dfp100</text>
</a>
</g>
</g>
<!-- Node1&#45;&gt;Node2 -->
<g id="edge1" class="edge">
<title>Node1&#45;&gt;Node2</title>
<path fill="none" stroke="midnightblue" d="M1223.53,-152C1186.61,-152 1138.31,-152 1095.5,-152 1095.5,-152 1095.5,-152 914.5,-152 828.53,-152 806.13,-153.29 722,-171 709.97,-173.53 696.94,-177.67 686.27,-181.44"/>
<polygon fill="midnightblue" stroke="midnightblue" points="1223.63,-155.5 1233.63,-152 1223.63,-148.5 1223.63,-155.5"/>
</g>
<!-- Node20 -->
<g id="node20" class="node">
<title>Node20</title>
<g id="a_node20"><a xlink:href="intghs_8f90.html#a21d3b7106371783302e68297f7797e9f" target="_top" xlink:title="Calculates volume integrals of Chebyshev polynomials and covariant field products.">
<polygon fill="white" stroke="black" points="1155,-199.5 1155,-218.5 1198,-218.5 1198,-199.5 1155,-199.5"/>
<text text-anchor="middle" x="1176.5" y="-206.5" font-family="Helvetica,sans-Serif" font-size="10.00">intghs</text>
</a>
</g>
</g>
<!-- Node1&#45;&gt;Node20 -->
<g id="edge37" class="edge">
<title>Node1&#45;&gt;Node20</title>
<path fill="none" stroke="midnightblue" d="M1256.62,-166.45C1237.37,-176.81 1211.98,-190.46 1195.22,-199.47"/>
<polygon fill="midnightblue" stroke="midnightblue" points="1258.37,-169.49 1265.52,-161.67 1255.05,-163.32 1258.37,-169.49"/>
</g>
<!-- Node27 -->
<g id="node27" class="node">
<title>Node27</title>
<g id="a_node27"><a xlink:href="group__grp__integrals.html#ga400af9e33dd5465ff9a4bba9fbf91108" target="_top" xlink:title="Calculates volume integrals of Chebyshev polynomials and metric element products.">
<polygon fill="white" stroke="black" points="762.5,-104.5 762.5,-123.5 813.5,-123.5 813.5,-104.5 762.5,-104.5"/>
<text text-anchor="middle" x="788" y="-111.5" font-family="Helvetica,sans-Serif" font-size="10.00">ma00aa</text>
</a>
</g>
</g>
<!-- Node1&#45;&gt;Node27 -->
<g id="edge53" class="edge">
<title>Node1&#45;&gt;Node27</title>
<path fill="none" stroke="midnightblue" d="M1244.51,-139.39C1206.81,-128.33 1147.85,-114 1095.5,-114 1095.5,-114 1095.5,-114 1004.5,-114 935.29,-114 853.57,-114 813.56,-114"/>
<polygon fill="midnightblue" stroke="midnightblue" points="1243.97,-142.89 1254.56,-142.41 1245.99,-136.18 1243.97,-142.89"/>
</g>
<!-- Node3 -->
<g id="node3" class="node">
<title>Node3</title>
<g id="a_node3"><a xlink:href="group__grp__global__force.html#ga38c9d3c50bd043707fefa5137c9dbf44" target="_top" xlink:title="Calculates , where &#160;and , and .">
<polygon fill="white" stroke="black" points="560,-389.5 560,-408.5 604,-408.5 604,-389.5 560,-389.5"/>
<text text-anchor="middle" x="582" y="-396.5" font-family="Helvetica,sans-Serif" font-size="10.00">dforce</text>
</a>
</g>
</g>
<!-- Node2&#45;&gt;Node3 -->
<g id="edge2" class="edge">
<title>Node2&#45;&gt;Node3</title>
<path fill="none" stroke="midnightblue" d="M654.86,-208.89C638.51,-252.15 598.81,-357.17 586.62,-389.42"/>
<polygon fill="midnightblue" stroke="midnightblue" points="658.14,-210.11 658.4,-199.52 651.59,-207.64 658.14,-210.11"/>
</g>
<!-- Node13 -->
<g id="node13" class="node">
<title>Node13</title>
<g id="a_node13"><a xlink:href="dfp200_8f90.html#a73ddf39ecc5228201fb643779e17cd36" target="_top" xlink:title="Evaluate mu and psip derivatives and store them in dmupfdx.">
<polygon fill="white" stroke="black" points="174,-66.5 174,-85.5 269,-85.5 269,-66.5 174,-66.5"/>
<text text-anchor="middle" x="221.5" y="-73.5" font-family="Helvetica,sans-Serif" font-size="10.00">evaluate_dmupfdx</text>
</a>
</g>
</g>
<!-- Node2&#45;&gt;Node13 -->
<g id="edge36" class="edge">
<title>Node2&#45;&gt;Node13</title>
<path fill="none" stroke="midnightblue" d="M637.49,-175.4C587.81,-146.77 470.83,-84.11 363,-62 327.94,-54.81 287.17,-60.38 258.61,-66.48"/>
<polygon fill="midnightblue" stroke="midnightblue" points="635.83,-178.48 646.23,-180.49 639.35,-172.44 635.83,-178.48"/>
</g>
<!-- Node4 -->
<g id="node4" class="node">
<title>Node4</title>
<g id="a_node4"><a xlink:href="group__grp__force__driver.html#gabbc245b3884ee8d8d3e2a52f25149f78" target="_top" xlink:title="fcn1">
<polygon fill="white" stroke="black" points="444,-446.5 444,-465.5 479,-465.5 479,-446.5 444,-446.5"/>
<text text-anchor="middle" x="461.5" y="-453.5" font-family="Helvetica,sans-Serif" font-size="10.00">fcn1</text>
</a>
</g>
</g>
<!-- Node3&#45;&gt;Node4 -->
<g id="edge3" class="edge">
<title>Node3&#45;&gt;Node4</title>
<path fill="none" stroke="midnightblue" d="M557.23,-413.85C547.17,-419.85 535.2,-426.61 524,-432 509.23,-439.11 491.77,-445.76 479.24,-450.25"/>
<polygon fill="midnightblue" stroke="midnightblue" points="559.13,-416.79 565.86,-408.62 555.5,-410.81 559.13,-416.79"/>
</g>
<!-- Node5 -->
<g id="node5" class="node">
<title>Node5</title>
<g id="a_node5"><a xlink:href="group__grp__force__driver.html#gaec14f81fbdbedafbc4189489ec8ae178" target="_top" xlink:title="Employs Newton method to find , where &#160;and &#160;is defined in dforce() .">
<polygon fill="white" stroke="black" points="315,-446.5 315,-465.5 363,-465.5 363,-446.5 315,-446.5"/>
<text text-anchor="middle" x="339" y="-453.5" font-family="Helvetica,sans-Serif" font-size="10.00">newton</text>
</a>
</g>
</g>
<!-- Node3&#45;&gt;Node5 -->
<g id="edge27" class="edge">
<title>Node3&#45;&gt;Node5</title>
<path fill="none" stroke="midnightblue" d="M549.8,-404.48C513.37,-411.11 451.4,-423.13 399,-437 387.04,-440.17 373.92,-444.32 363.09,-447.94"/>
<polygon fill="midnightblue" stroke="midnightblue" points="550.59,-407.89 559.81,-402.67 549.35,-401 550.59,-407.89"/>
</g>
<!-- Node6 -->
<g id="node6" class="node">
<title>Node6</title>
<g id="a_node6"><a xlink:href="group__grp__force__driver.html#ga8ccd6c7d901872702521d0a0edf95412" target="_top" xlink:title="fcn2">
<polygon fill="white" stroke="black" points="87,-426.5 87,-445.5 122,-445.5 122,-426.5 87,-426.5"/>
<text text-anchor="middle" x="104.5" y="-433.5" font-family="Helvetica,sans-Serif" font-size="10.00">fcn2</text>
</a>
</g>
</g>
<!-- Node3&#45;&gt;Node6 -->
<g id="edge14" class="edge">
<title>Node3&#45;&gt;Node6</title>
<path fill="none" stroke="midnightblue" d="M549.89,-392.07C479.21,-377.71 301.99,-349.59 164,-394 144.24,-400.36 125.51,-416.13 114.78,-426.43"/>
<polygon fill="midnightblue" stroke="midnightblue" points="549.41,-395.54 559.91,-394.16 550.84,-388.69 549.41,-395.54"/>
</g>
<!-- Node8 -->
<g id="node8" class="node">
<title>Node8</title>
<g id="a_node8"><a xlink:href="xspech_8f90.html#aea782eae089760a491c2c54f9903abcc" target="_top" xlink:title="Main program of SPEC.">
<polygon fill="white" stroke="black" points="81,-573.5 81,-592.5 128,-592.5 128,-573.5 81,-573.5"/>
<text text-anchor="middle" x="104.5" y="-580.5" font-family="Helvetica,sans-Serif" font-size="10.00">xspech</text>
</a>
</g>
</g>
<!-- Node3&#45;&gt;Node8 -->
<g id="edge35" class="edge">
<title>Node3&#45;&gt;Node8</title>
<path fill="none" stroke="midnightblue" d="M581.78,-419.08C582.21,-460.32 576.99,-554.89 524,-605 407.2,-715.45 312.91,-700.55 164,-640 140.36,-630.39 121.04,-606.11 111.65,-592.55"/>
<polygon fill="midnightblue" stroke="midnightblue" points="585.28,-418.86 581.54,-408.94 578.28,-419.02 585.28,-418.86"/>
</g>
<!-- Node10 -->
<g id="node10" class="node">
<title>Node10</title>
<g id="a_node10"><a xlink:href="dfp200_8f90.html#a6aca59cf350d7b1941f8389d50945a43" target="_top" xlink:title="get LU Beltrami matrices">
<polygon fill="white" stroke="black" points="399,-161.5 399,-180.5 524,-180.5 524,-161.5 399,-161.5"/>
<text text-anchor="middle" x="461.5" y="-168.5" font-family="Helvetica,sans-Serif" font-size="10.00">get_lu_beltrami_matrices</text>
</a>
</g>
</g>
<!-- Node3&#45;&gt;Node10 -->
<g id="edge15" class="edge">
<title>Node3&#45;&gt;Node10</title>
<path fill="none" stroke="midnightblue" d="M575.4,-379.63C566.63,-350.76 548.16,-295.22 524,-252 508.49,-224.26 484.39,-195.48 471.44,-180.84"/>
<polygon fill="midnightblue" stroke="midnightblue" points="572.07,-380.71 578.27,-389.3 578.78,-378.72 572.07,-380.71"/>
</g>
<!-- Node15 -->
<g id="node15" class="node">
<title>Node15</title>
<g id="a_node15"><a xlink:href="group__grp__diagnostics.html#ga7401b50ec10c6598ee4a8112717a63ec" target="_top" xlink:title="Computes eigenvalues and eigenvectors of derivative matrix, .">
<polygon fill="white" stroke="black" points="199,-611.5 199,-630.5 244,-630.5 244,-611.5 199,-611.5"/>
<text text-anchor="middle" x="221.5" y="-618.5" font-family="Helvetica,sans-Serif" font-size="10.00">hesian</text>
</a>
</g>
</g>
<!-- Node3&#45;&gt;Node15 -->
<g id="edge25" class="edge">
<title>Node3&#45;&gt;Node15</title>
<path fill="none" stroke="midnightblue" d="M580.09,-418.78C577.38,-453.53 566.62,-525.47 524,-564 443.18,-637.05 299.09,-629.77 244.38,-623.88"/>
<polygon fill="midnightblue" stroke="midnightblue" points="583.6,-418.73 580.73,-408.53 576.61,-418.29 583.6,-418.73"/>
</g>
<!-- Node16 -->
<g id="node16" class="node">
<title>Node16</title>
<g id="a_node16"><a xlink:href="group__grp__conjugate__gradient.html#ga4d8415226e62a9fdb42b0fd0b464251e" target="_top" xlink:title="Returns the energy functional and it&#39;s derivatives with respect to geometry.">
<polygon fill="white" stroke="black" points="437.5,-332.5 437.5,-351.5 485.5,-351.5 485.5,-332.5 437.5,-332.5"/>
<text text-anchor="middle" x="461.5" y="-339.5" font-family="Helvetica,sans-Serif" font-size="10.00">pc00ab</text>
</a>
</g>
</g>
<!-- Node3&#45;&gt;Node16 -->
<g id="edge28" class="edge">
<title>Node3&#45;&gt;Node16</title>
<path fill="none" stroke="midnightblue" d="M557.23,-384.15C547.17,-378.15 535.2,-371.39 524,-366 511.61,-360.04 497.32,-354.39 485.64,-350.07"/>
<polygon fill="midnightblue" stroke="midnightblue" points="555.5,-387.19 565.86,-389.38 559.13,-381.21 555.5,-387.19"/>
</g>
<!-- Node18 -->
<g id="node18" class="node">
<title>Node18</title>
<g id="a_node18"><a xlink:href="namespaceallglobal.html#ad32ae6194892fe7d876622a6455189e2" target="_top" xlink:title="The master node reads the input namelist and sets various internal variables. The relevant quantities...">
<polygon fill="white" stroke="black" points="420,-535.5 420,-554.5 503,-554.5 503,-535.5 420,-535.5"/>
<text text-anchor="middle" x="461.5" y="-542.5" font-family="Helvetica,sans-Serif" font-size="10.00">allglobal::readin</text>
</a>
</g>
</g>
<!-- Node3&#45;&gt;Node18 -->
<g id="edge30" class="edge">
<title>Node3&#45;&gt;Node18</title>
<path fill="none" stroke="midnightblue" d="M568.28,-416.76C556.97,-432.35 539.82,-455.52 524,-475 506.05,-497.1 483.71,-521.9 471.5,-535.24"/>
<polygon fill="midnightblue" stroke="midnightblue" points="571.2,-418.7 574.21,-408.54 565.52,-414.6 571.2,-418.7"/>
</g>
<!-- Node4&#45;&gt;Node5 -->
<g id="edge4" class="edge">
<title>Node4&#45;&gt;Node5</title>
<path fill="none" stroke="midnightblue" d="M433.51,-450.26C412.38,-448.82 383.31,-448.92 363.22,-450.54"/>
<polygon fill="midnightblue" stroke="midnightblue" points="433.48,-453.77 443.74,-451.16 434.09,-446.8 433.48,-453.77"/>
</g>
<!-- Node5&#45;&gt;Node4 -->
<g id="edge5" class="edge">
<title>Node5&#45;&gt;Node4</title>
<path fill="none" stroke="midnightblue" d="M373.21,-462.11C396.11,-463.27 425.58,-462.85 443.74,-460.84"/>
<polygon fill="midnightblue" stroke="midnightblue" points="373.42,-458.61 363.22,-461.46 372.97,-465.6 373.42,-458.61"/>
</g>
<!-- Node5&#45;&gt;Node6 -->
<g id="edge6" class="edge">
<title>Node5&#45;&gt;Node6</title>
<path fill="none" stroke="midnightblue" d="M304.79,-448.25C254.32,-441.08 160.17,-433.38 122.1,-433.74"/>
<polygon fill="midnightblue" stroke="midnightblue" points="304.45,-451.74 314.86,-449.77 305.49,-444.81 304.45,-451.74"/>
</g>
<!-- Node7 -->
<g id="node7" class="node">
<title>Node7</title>
<g id="a_node7"><a xlink:href="group__grp__force__driver.html#ga382822b303cbf8c56d6f54dcb379caf2" target="_top" xlink:title="read or write force&#45;derivative matrix">
<polygon fill="white" stroke="black" points="189,-403.5 189,-422.5 254,-422.5 254,-403.5 189,-403.5"/>
<text text-anchor="middle" x="221.5" y="-410.5" font-family="Helvetica,sans-Serif" font-size="10.00">writereadgf</text>
</a>
</g>
</g>
<!-- Node5&#45;&gt;Node7 -->
<g id="edge8" class="edge">
<title>Node5&#45;&gt;Node7</title>
<path fill="none" stroke="midnightblue" d="M314.88,-441.86C297.41,-433.95 273.25,-424.77 254.02,-418.65"/>
<polygon fill="midnightblue" stroke="midnightblue" points="313.76,-445.21 324.3,-446.34 316.77,-438.89 313.76,-445.21"/>
</g>
<!-- Node5&#45;&gt;Node8 -->
<g id="edge11" class="edge">
<title>Node5&#45;&gt;Node8</title>
<path fill="none" stroke="midnightblue" d="M305.32,-466.54C269.16,-479 209.91,-501.78 164,-531 144.74,-543.26 125.57,-561.82 114.66,-573.14"/>
<polygon fill="midnightblue" stroke="midnightblue" points="306.53,-469.83 314.88,-463.31 304.29,-463.2 306.53,-469.83"/>
</g>
<!-- Node6&#45;&gt;Node5 -->
<g id="edge7" class="edge">
<title>Node6&#45;&gt;Node5</title>
<path fill="none" stroke="midnightblue" d="M132.2,-442.79C178.16,-449.83 271.47,-457.78 314.86,-458.25"/>
<polygon fill="midnightblue" stroke="midnightblue" points="132.54,-439.3 122.1,-441.12 131.4,-446.21 132.54,-439.3"/>
</g>
<!-- Node7&#45;&gt;Node5 -->
<g id="edge10" class="edge">
<title>Node7&#45;&gt;Node5</title>
<path fill="none" stroke="midnightblue" d="M245.23,-426.96C265.37,-436.12 294.65,-447.03 314.9,-452.93"/>
<polygon fill="midnightblue" stroke="midnightblue" points="246.69,-423.78 236.15,-422.63 243.67,-430.09 246.69,-423.78"/>
</g>
<!-- Node7&#45;&gt;Node6 -->
<g id="edge9" class="edge">
<title>Node7&#45;&gt;Node6</title>
<path fill="none" stroke="midnightblue" d="M178.83,-421.33C159.26,-425.25 137.03,-429.69 122.22,-432.66"/>
<polygon fill="midnightblue" stroke="midnightblue" points="179.65,-424.74 188.77,-419.35 178.28,-417.87 179.65,-424.74"/>
</g>
<!-- Node9 -->
<g id="node9" class="node">
<title>Node9</title>
<g id="a_node9"><a xlink:href="xspech_8f90.html#a537af4990058c0b0f2cd8b3669af204f" target="_top" xlink:title="todo remark">
<polygon fill="white" stroke="black" points="0,-573.5 0,-592.5 45,-592.5 45,-573.5 0,-573.5"/>
<text text-anchor="middle" x="22.5" y="-580.5" font-family="Helvetica,sans-Serif" font-size="10.00">ending</text>
</a>
</g>
</g>
<!-- Node8&#45;&gt;Node9 -->
<g id="edge12" class="edge">
<title>Node8&#45;&gt;Node9</title>
<path fill="none" stroke="midnightblue" d="M70.65,-576.35C62.06,-576.11 53.01,-576.3 45.17,-576.92"/>
<polygon fill="midnightblue" stroke="midnightblue" points="70.63,-579.85 80.79,-576.84 70.97,-572.86 70.63,-579.85"/>
</g>
<!-- Node9&#45;&gt;Node8 -->
<g id="edge13" class="edge">
<title>Node9&#45;&gt;Node8</title>
<path fill="none" stroke="midnightblue" d="M55.22,-589.62C63.77,-589.89 72.84,-589.74 80.79,-589.16"/>
<polygon fill="midnightblue" stroke="midnightblue" points="55.34,-586.12 45.17,-589.08 54.96,-593.11 55.34,-586.12"/>
</g>
<!-- Node11 -->
<g id="node11" class="node">
<title>Node11</title>
<g id="a_node11"><a xlink:href="dfp200_8f90.html#a55ea75395f8c71731451e1add3720c7e" target="_top" xlink:title="Given the field consistent with the constraints and the geometry, computes local quantites related to...">
<polygon fill="white" stroke="black" points="316,-161.5 316,-180.5 362,-180.5 362,-161.5 316,-161.5"/>
<text text-anchor="middle" x="339" y="-168.5" font-family="Helvetica,sans-Serif" font-size="10.00">dfp200</text>
</a>
</g>
</g>
<!-- Node10&#45;&gt;Node11 -->
<g id="edge16" class="edge">
<title>Node10&#45;&gt;Node11</title>
<path fill="none" stroke="midnightblue" d="M388.69,-164.36C379.05,-164.55 369.82,-164.98 362.04,-165.64"/>
<polygon fill="midnightblue" stroke="midnightblue" points="388.88,-167.86 398.84,-164.25 388.8,-160.86 388.88,-167.86"/>
</g>
<!-- Node11&#45;&gt;Node3 -->
<g id="edge17" class="edge">
<title>Node11&#45;&gt;Node3</title>
<path fill="none" stroke="midnightblue" d="M352.56,-189.01C363.69,-204.2 380.94,-225.96 399,-242 448.5,-285.96 475.61,-277.82 524,-323 546.18,-343.71 565.92,-373.91 575.27,-389.26"/>
<polygon fill="midnightblue" stroke="midnightblue" points="355.14,-186.6 346.47,-180.51 349.46,-190.68 355.14,-186.6"/>
</g>
<!-- Node11&#45;&gt;Node10 -->
<g id="edge22" class="edge">
<title>Node11&#45;&gt;Node10</title>
<path fill="none" stroke="midnightblue" d="M372.28,-177.06C380.52,-177.5 389.66,-177.73 398.84,-177.75"/>
<polygon fill="midnightblue" stroke="midnightblue" points="372.26,-173.55 362.04,-176.36 371.78,-180.53 372.26,-173.55"/>
</g>
<!-- Node12 -->
<g id="node12" class="node">
<title>Node12</title>
<g id="a_node12"><a xlink:href="dfp200_8f90.html#a7b64c7392b45d0042d8bd7379c0761a5" target="_top" xlink:title="Evaluate the derivative of the square of the magnetic field modulus. Add spectral constraint derivati...">
<polygon fill="white" stroke="black" points="184.5,-161.5 184.5,-180.5 258.5,-180.5 258.5,-161.5 184.5,-161.5"/>
<text text-anchor="middle" x="221.5" y="-168.5" font-family="Helvetica,sans-Serif" font-size="10.00">evaluate_dbb</text>
</a>
</g>
</g>
<!-- Node11&#45;&gt;Node12 -->
<g id="edge18" class="edge">
<title>Node11&#45;&gt;Node12</title>
<path fill="none" stroke="midnightblue" d="M305.66,-164.87C291.08,-164.11 273.81,-164.05 258.79,-164.68"/>
<polygon fill="midnightblue" stroke="midnightblue" points="305.52,-168.37 315.73,-165.54 305.99,-161.38 305.52,-168.37"/>
</g>
<!-- Node11&#45;&gt;Node13 -->
<g id="edge20" class="edge">
<title>Node11&#45;&gt;Node13</title>
<path fill="none" stroke="midnightblue" d="M323.23,-154.16C302,-134.07 262.92,-101.82 240.18,-85.52"/>
<polygon fill="midnightblue" stroke="midnightblue" points="320.83,-156.71 330.42,-161.21 325.73,-151.71 320.83,-156.71"/>
</g>
<!-- Node14 -->
<g id="node14" class="node">
<title>Node14</title>
<g id="a_node14"><a xlink:href="dfp200_8f90.html#a5e56f1f4b1e6df11a9cffa6237c37469" target="_top" xlink:title="This routine evaluates the value of the magnetic field once the interface is perturbed using matrix p...">
<polygon fill="white" stroke="black" points="164,-199.5 164,-218.5 279,-218.5 279,-199.5 164,-199.5"/>
<text text-anchor="middle" x="221.5" y="-206.5" font-family="Helvetica,sans-Serif" font-size="10.00">get_perturbed_solution</text>
</a>
</g>
</g>
<!-- Node11&#45;&gt;Node14 -->
<g id="edge23" class="edge">
<title>Node11&#45;&gt;Node14</title>
<path fill="none" stroke="midnightblue" d="M305.95,-175.43C283.52,-181.63 254.6,-191.61 237.36,-199.41"/>
<polygon fill="midnightblue" stroke="midnightblue" points="306.94,-178.79 315.73,-172.87 305.17,-172.01 306.94,-178.79"/>
</g>
<!-- Node12&#45;&gt;Node11 -->
<g id="edge19" class="edge">
<title>Node12&#45;&gt;Node11</title>
<path fill="none" stroke="midnightblue" d="M269.13,-177.64C285.22,-177.97 302.5,-177.57 315.73,-176.46"/>
<polygon fill="midnightblue" stroke="midnightblue" points="268.89,-174.13 258.79,-177.32 268.67,-181.13 268.89,-174.13"/>
</g>
<!-- Node13&#45;&gt;Node11 -->
<g id="edge21" class="edge">
<title>Node13&#45;&gt;Node11</title>
<path fill="none" stroke="midnightblue" d="M237.41,-92.97C258.55,-112.96 297.21,-144.88 319.95,-161.22"/>
<polygon fill="midnightblue" stroke="midnightblue" points="239.58,-90.2 229.99,-85.7 234.68,-95.2 239.58,-90.2"/>
</g>
<!-- Node14&#45;&gt;Node11 -->
<g id="edge24" class="edge">
<title>Node14&#45;&gt;Node11</title>
<path fill="none" stroke="midnightblue" d="M281.46,-196.35C296.84,-191.26 312.11,-185.56 322.9,-180.7"/>
<polygon fill="midnightblue" stroke="midnightblue" points="280.35,-193.03 271.9,-199.43 282.5,-199.69 280.35,-193.03"/>
</g>
<!-- Node15&#45;&gt;Node8 -->
<g id="edge26" class="edge">
<title>Node15&#45;&gt;Node8</title>
<path fill="none" stroke="midnightblue" d="M189.3,-610.69C170.01,-604.32 145.68,-596.28 128.21,-590.51"/>
<polygon fill="midnightblue" stroke="midnightblue" points="188.28,-614.04 198.87,-613.85 190.47,-607.39 188.28,-614.04"/>
</g>
<!-- Node17 -->
<g id="node17" class="node">
<title>Node17</title>
<g id="a_node17"><a xlink:href="group__grp__conjugate__gradient.html#ga25a3bae2ff2ee0469b045de0d033398b" target="_top" xlink:title="Use preconditioned conjugate gradient method to find minimum of energy functional.">
<polygon fill="white" stroke="black" points="315,-332.5 315,-351.5 363,-351.5 363,-332.5 315,-332.5"/>
<text text-anchor="middle" x="339" y="-339.5" font-family="Helvetica,sans-Serif" font-size="10.00">pc00aa</text>
</a>
</g>
</g>
<!-- Node16&#45;&gt;Node17 -->
<g id="edge29" class="edge">
<title>Node16&#45;&gt;Node17</title>
<path fill="none" stroke="midnightblue" d="M427.16,-342C406.81,-342 381.31,-342 363.16,-342"/>
<polygon fill="midnightblue" stroke="midnightblue" points="427.27,-345.5 437.27,-342 427.27,-338.5 427.27,-345.5"/>
</g>
<!-- Node18&#45;&gt;Node8 -->
<g id="edge34" class="edge">
<title>Node18&#45;&gt;Node8</title>
<path fill="none" stroke="midnightblue" d="M409.66,-550.44C331.37,-558.82 184.44,-574.55 128.2,-580.57"/>
<polygon fill="midnightblue" stroke="midnightblue" points="410.21,-553.9 419.78,-549.36 409.46,-546.94 410.21,-553.9"/>
</g>
<!-- Node19 -->
<g id="node19" class="node">
<title>Node19</title>
<g id="a_node19"><a xlink:href="group__grp__initialization.html#ga28628de0fdb3b3497668007d8d0643bd" target="_top" xlink:title="Allocates and initializes internal arrays.">
<polygon fill="white" stroke="black" points="317,-573.5 317,-592.5 361,-592.5 361,-573.5 317,-573.5"/>
<text text-anchor="middle" x="339" y="-580.5" font-family="Helvetica,sans-Serif" font-size="10.00">preset</text>
</a>
</g>
</g>
<!-- Node18&#45;&gt;Node19 -->
<g id="edge31" class="edge">
<title>Node18&#45;&gt;Node19</title>
<path fill="none" stroke="midnightblue" d="M420.41,-557.64C400.65,-563.87 377.62,-571.14 361.28,-576.29"/>
<polygon fill="midnightblue" stroke="midnightblue" points="421.61,-560.93 430.09,-554.59 419.5,-554.26 421.61,-560.93"/>
</g>
<!-- Node19&#45;&gt;Node8 -->
<g id="edge33" class="edge">
<title>Node19&#45;&gt;Node8</title>
<path fill="none" stroke="midnightblue" d="M306.94,-583C259.42,-583 169.82,-583 128.03,-583"/>
<polygon fill="midnightblue" stroke="midnightblue" points="306.96,-586.5 316.96,-583 306.96,-579.5 306.96,-586.5"/>
</g>
<!-- Node19&#45;&gt;Node15 -->
<g id="edge32" class="edge">
<title>Node19&#45;&gt;Node15</title>
<path fill="none" stroke="midnightblue" d="M307.3,-593.1C287.46,-599.63 262.13,-607.96 244.33,-613.82"/>
<polygon fill="midnightblue" stroke="midnightblue" points="308.41,-596.42 316.82,-589.97 306.22,-589.77 308.41,-596.42"/>
</g>
<!-- Node20&#45;&gt;Node14 -->
<g id="edge38" class="edge">
<title>Node20&#45;&gt;Node14</title>
<path fill="none" stroke="midnightblue" d="M1158.81,-226.17C1130.33,-253.54 1069.3,-304 1006.5,-304 1006.5,-304 1006.5,-304 460.5,-304 369.07,-304 271.07,-242.78 235.96,-218.63"/>
<polygon fill="midnightblue" stroke="midnightblue" points="1161.61,-228.33 1166.27,-218.81 1156.69,-223.34 1161.61,-228.33"/>
</g>
<!-- Node21 -->
<g id="node21" class="node">
<title>Node21</title>
<g id="a_node21"><a xlink:href="intghs_8f90.html#ae10091a51178071d12004da4952104d4" target="_top" xlink:title="free workspace">
<polygon fill="white" stroke="black" points="722,-218.5 722,-237.5 854,-237.5 854,-218.5 722,-218.5"/>
<text text-anchor="middle" x="788" y="-225.5" font-family="Helvetica,sans-Serif" font-size="10.00">intghs_workspace_destroy</text>
</a>
</g>
</g>
<!-- Node20&#45;&gt;Node21 -->
<g id="edge39" class="edge">
<title>Node20&#45;&gt;Node21</title>
<path fill="none" stroke="midnightblue" d="M1145.54,-221.08C1137.1,-223.93 1127.81,-226.56 1119,-228 1028.11,-242.87 921.25,-239.07 854.31,-234.18"/>
<polygon fill="midnightblue" stroke="midnightblue" points="1146.75,-224.36 1154.98,-217.69 1144.39,-217.78 1146.75,-224.36"/>
</g>
<!-- Node22 -->
<g id="node22" class="node">
<title>Node22</title>
<g id="a_node22"><a xlink:href="intghs_8f90.html#ae8299d4625cabd90eb1398fd2cd38089" target="_top" xlink:title="init workspace">
<polygon fill="white" stroke="black" points="731.5,-66.5 731.5,-85.5 844.5,-85.5 844.5,-66.5 731.5,-66.5"/>
<text text-anchor="middle" x="788" y="-73.5" font-family="Helvetica,sans-Serif" font-size="10.00">intghs_workspace_init</text>
</a>
</g>
</g>
<!-- Node20&#45;&gt;Node22 -->
<g id="edge43" class="edge">
<title>Node20&#45;&gt;Node22</title>
<path fill="none" stroke="midnightblue" d="M1154.58,-193.37C1144.21,-186.03 1131.29,-177.49 1119,-171 1043.68,-131.23 1023.13,-122.56 941,-100 909.57,-91.37 873.58,-85.51 844.51,-81.75"/>
<polygon fill="midnightblue" stroke="midnightblue" points="1152.81,-196.41 1162.97,-199.44 1156.92,-190.74 1152.81,-196.41"/>
</g>
<!-- Node23 -->
<g id="node23" class="node">
<title>Node23</title>
<g id="a_node23"><a xlink:href="mp00ac_8f90.html#ae9fe335bb4916face9f9d19ce8c0f5d7" target="_top" xlink:title="compute a.x by either by coumputing it directly, or using a matrix free method">
<polygon fill="white" stroke="black" points="1070,-180.5 1070,-199.5 1119,-199.5 1119,-180.5 1070,-180.5"/>
<text text-anchor="middle" x="1094.5" y="-187.5" font-family="Helvetica,sans-Serif" font-size="10.00">matvec</text>
</a>
</g>
</g>
<!-- Node20&#45;&gt;Node23 -->
<g id="edge47" class="edge">
<title>Node20&#45;&gt;Node23</title>
<path fill="none" stroke="midnightblue" d="M1144.9,-201.73C1136.36,-199.7 1127.22,-197.53 1119.15,-195.62"/>
<polygon fill="midnightblue" stroke="midnightblue" points="1144.36,-205.2 1154.9,-204.11 1145.98,-198.39 1144.36,-205.2"/>
</g>
<!-- Node25 -->
<g id="node25" class="node">
<title>Node25</title>
<g id="a_node25"><a xlink:href="group__grp__solver.html#ga6626839aff500f060beb5bce2b90c447" target="_top" xlink:title="Solves Beltrami/vacuum (linear) system, given matrices.unpacking fluxes, helicity multiplier">
<polygon fill="white" stroke="black" points="890,-180.5 890,-199.5 941,-199.5 941,-180.5 890,-180.5"/>
<text text-anchor="middle" x="915.5" y="-187.5" font-family="Helvetica,sans-Serif" font-size="10.00">mp00ac</text>
</a>
</g>
</g>
<!-- Node20&#45;&gt;Node25 -->
<g id="edge52" class="edge">
<title>Node20&#45;&gt;Node25</title>
<path fill="none" stroke="midnightblue" d="M1144.79,-211.87C1105.6,-214.87 1035.82,-218.02 977,-209 964.92,-207.15 951.94,-203.33 941.12,-199.6"/>
<polygon fill="midnightblue" stroke="midnightblue" points="1145.09,-215.35 1154.77,-211.05 1144.52,-208.38 1145.09,-215.35"/>
</g>
<!-- Node21&#45;&gt;Node2 -->
<g id="edge40" class="edge">
<title>Node21&#45;&gt;Node2</title>
<path fill="none" stroke="midnightblue" d="M743.78,-215.58C736.5,-213.42 729.03,-211.18 722,-209 710.16,-205.33 697.03,-201.05 686.26,-197.48"/>
<polygon fill="midnightblue" stroke="midnightblue" points="742.96,-218.98 753.54,-218.44 744.93,-212.27 742.96,-218.98"/>
</g>
<!-- Node21&#45;&gt;Node11 -->
<g id="edge41" class="edge">
<title>Node21&#45;&gt;Node11</title>
<path fill="none" stroke="midnightblue" d="M711.52,-225.38C632.81,-221.55 506.19,-212.24 399,-190 386.57,-187.42 373.06,-183.18 362.11,-179.36"/>
<polygon fill="midnightblue" stroke="midnightblue" points="711.68,-228.89 721.83,-225.87 712,-221.9 711.68,-228.89"/>
</g>
<!-- Node21&#45;&gt;Node13 -->
<g id="edge42" class="edge">
<title>Node21&#45;&gt;Node13</title>
<path fill="none" stroke="midnightblue" d="M730.47,-214.27C727.5,-212.7 724.65,-210.95 722,-209 632.13,-142.9 694.56,0 583,0 583,0 583,0 460.5,0 374.18,0 278.25,-45.92 239.81,-66.37"/>
<polygon fill="midnightblue" stroke="midnightblue" points="729.13,-217.51 739.68,-218.47 732.04,-211.14 729.13,-217.51"/>
</g>
<!-- Node22&#45;&gt;Node2 -->
<g id="edge44" class="edge">
<title>Node22&#45;&gt;Node2</title>
<path fill="none" stroke="midnightblue" d="M729.8,-89.92C727.06,-91.44 724.44,-93.13 722,-95 692.08,-117.91 674.09,-161.04 667.21,-180.29"/>
<polygon fill="midnightblue" stroke="midnightblue" points="731.34,-93.07 738.87,-85.61 728.34,-86.74 731.34,-93.07"/>
</g>
<!-- Node22&#45;&gt;Node11 -->
<g id="edge45" class="edge">
<title>Node22&#45;&gt;Node11</title>
<path fill="none" stroke="midnightblue" d="M721.17,-86.45C643.55,-99.34 510.95,-123.12 399,-152 386.7,-155.17 373.21,-159.46 362.23,-163.15"/>
<polygon fill="midnightblue" stroke="midnightblue" points="721.98,-89.87 731.28,-84.79 720.84,-82.96 721.98,-89.87"/>
</g>
<!-- Node22&#45;&gt;Node13 -->
<g id="edge46" class="edge">
<title>Node22&#45;&gt;Node13</title>
<path fill="none" stroke="midnightblue" d="M721.01,-76C681.06,-76 629.1,-76 583,-76 583,-76 583,-76 460.5,-76 393.98,-76 316.99,-76 269.02,-76"/>
<polygon fill="midnightblue" stroke="midnightblue" points="721.15,-79.5 731.15,-76 721.15,-72.5 721.15,-79.5"/>
</g>
<!-- Node24 -->
<g id="node24" class="node">
<title>Node24</title>
<g id="a_node24"><a xlink:href="mp00ac_8f90.html#a304edac43f63d39dda4419b4d044eac5" target="_top" xlink:title="run GMRES">
<polygon fill="white" stroke="black" points="977,-180.5 977,-199.5 1034,-199.5 1034,-180.5 977,-180.5"/>
<text text-anchor="middle" x="1005.5" y="-187.5" font-family="Helvetica,sans-Serif" font-size="10.00">rungmres</text>
</a>
</g>
</g>
<!-- Node23&#45;&gt;Node24 -->
<g id="edge48" class="edge">
<title>Node23&#45;&gt;Node24</title>
<path fill="none" stroke="midnightblue" d="M1059.5,-190C1051.13,-190 1042.28,-190 1034.25,-190"/>
<polygon fill="midnightblue" stroke="midnightblue" points="1059.73,-193.5 1069.73,-190 1059.73,-186.5 1059.73,-193.5"/>
</g>
<!-- Node24&#45;&gt;Node25 -->
<g id="edge49" class="edge">
<title>Node24&#45;&gt;Node25</title>
<path fill="none" stroke="midnightblue" d="M966.46,-190C957.9,-190 949.03,-190 941.19,-190"/>
<polygon fill="midnightblue" stroke="midnightblue" points="966.66,-193.5 976.66,-190 966.66,-186.5 966.66,-193.5"/>
</g>
<!-- Node26 -->
<g id="node26" class="node">
<title>Node26</title>
<g id="a_node26"><a xlink:href="group__grp__solver__driver.html#gacad623d4c5c006e9ad10116372f92ad3" target="_top" xlink:title="Constructs Beltrami field in given volume consistent with flux, helicity, rotational&#45;transform and/or...">
<polygon fill="white" stroke="black" points="762.5,-180.5 762.5,-199.5 813.5,-199.5 813.5,-180.5 762.5,-180.5"/>
<text text-anchor="middle" x="788" y="-187.5" font-family="Helvetica,sans-Serif" font-size="10.00">ma02aa</text>
</a>
</g>
</g>
<!-- Node25&#45;&gt;Node26 -->
<g id="edge50" class="edge">
<title>Node25&#45;&gt;Node26</title>
<path fill="none" stroke="midnightblue" d="M879.6,-190C858.67,-190 832.55,-190 813.74,-190"/>
<polygon fill="midnightblue" stroke="midnightblue" points="879.71,-193.5 889.71,-190 879.71,-186.5 879.71,-193.5"/>
</g>
<!-- Node26&#45;&gt;Node2 -->
<g id="edge51" class="edge">
<title>Node26&#45;&gt;Node2</title>
<path fill="none" stroke="midnightblue" d="M752.16,-190C730.93,-190 704.45,-190 686.08,-190"/>
<polygon fill="midnightblue" stroke="midnightblue" points="752.4,-193.5 762.4,-190 752.4,-186.5 752.4,-193.5"/>
</g>
<!-- Node27&#45;&gt;Node2 -->
<g id="edge54" class="edge">
<title>Node27&#45;&gt;Node2</title>
<path fill="none" stroke="midnightblue" d="M752.72,-123.93C742.47,-127.61 731.45,-132.31 722,-138 702.31,-149.87 683.19,-168.9 672.57,-180.35"/>
<polygon fill="midnightblue" stroke="midnightblue" points="753.88,-127.23 762.24,-120.72 751.64,-120.6 753.88,-127.23"/>
</g>
<!-- Node27&#45;&gt;Node10 -->
<g id="edge55" class="edge">
<title>Node27&#45;&gt;Node10</title>
<path fill="none" stroke="midnightblue" d="M752.49,-120.06C696.14,-129.96 583.9,-149.67 516.79,-161.46"/>
<polygon fill="midnightblue" stroke="midnightblue" points="753.1,-123.51 762.34,-118.33 751.89,-116.61 753.1,-123.51"/>
</g>
</g>
</svg>
