<?xml version="1.0" encoding="UTF-8" standalone="no"?>
<!DOCTYPE svg PUBLIC "-//W3C//DTD SVG 1.1//EN"
 "http://www.w3.org/Graphics/SVG/1.1/DTD/svg11.dtd">
<!-- Generated by graphviz version 2.47.1 (0)
 -->
<!-- Title: compute_guvijsave Pages: 1 -->
<svg width="1309pt" height="600pt"
 viewBox="0.00 0.00 1309.00 600.43" xmlns="http://www.w3.org/2000/svg" xmlns:xlink="http://www.w3.org/1999/xlink">
<g id="graph0" class="graph" transform="scale(1 1) rotate(0) translate(4 596.43)">
<title>compute_guvijsave</title>
<polygon fill="white" stroke="transparent" points="-4,4 -4,-596.43 1305,-596.43 1305,4 -4,4"/>
<!-- Node1 -->
<g id="node1" class="node">
<title>Node1</title>
<g id="a_node1"><a xlink:title="compute guvijsave">
<polygon fill="#bfbfbf" stroke="black" points="1200,-142.5 1200,-161.5 1301,-161.5 1301,-142.5 1200,-142.5"/>
<text text-anchor="middle" x="1250.5" y="-149.5" font-family="Helvetica,sans-Serif" font-size="10.00">compute_guvijsave</text>
</a>
</g>
</g>
<!-- Node2 -->
<g id="node2" class="node">
<title>Node2</title>
<g id="a_node2"><a xlink:href="dfp100_8f90.html#a17a3ac15cc83994394f7b4cc05e5898e" target="_top" xlink:title="Split the work between MPI nodes and evaluate the global constraint.">
<polygon fill="white" stroke="black" points="606,-256.5 606,-275.5 652,-275.5 652,-256.5 606,-256.5"/>
<text text-anchor="middle" x="629" y="-263.5" font-family="Helvetica,sans-Serif" font-size="10.00">dfp100</text>
</a>
</g>
</g>
<!-- Node1&#45;&gt;Node2 -->
<g id="edge1" class="edge">
<title>Node1&#45;&gt;Node2</title>
<path fill="none" stroke="midnightblue" d="M1234.23,-169.43C1204.45,-201.36 1135.08,-266 1061.5,-266 1061.5,-266 1061.5,-266 880.5,-266 796.13,-266 695.78,-266 652.12,-266"/>
<polygon fill="midnightblue" stroke="midnightblue" points="1237.1,-171.47 1241.24,-161.72 1231.92,-166.76 1237.1,-171.47"/>
</g>
<!-- Node20 -->
<g id="node20" class="node">
<title>Node20</title>
<g id="a_node20"><a xlink:href="intghs_8f90.html#a21d3b7106371783302e68297f7797e9f" target="_top" xlink:title="Calculates volume integrals of Chebyshev polynomials and covariant field products.">
<polygon fill="white" stroke="black" points="1121,-142.5 1121,-161.5 1164,-161.5 1164,-142.5 1121,-142.5"/>
<text text-anchor="middle" x="1142.5" y="-149.5" font-family="Helvetica,sans-Serif" font-size="10.00">intghs</text>
</a>
</g>
</g>
<!-- Node1&#45;&gt;Node20 -->
<g id="edge36" class="edge">
<title>Node1&#45;&gt;Node20</title>
<path fill="none" stroke="midnightblue" d="M1189.87,-152C1180.65,-152 1171.71,-152 1164.18,-152"/>
<polygon fill="midnightblue" stroke="midnightblue" points="1189.91,-155.5 1199.91,-152 1189.91,-148.5 1189.91,-155.5"/>
</g>
<!-- Node27 -->
<g id="node27" class="node">
<title>Node27</title>
<g id="a_node27"><a xlink:href="group__grp__integrals.html#ga400af9e33dd5465ff9a4bba9fbf91108" target="_top" xlink:title="Calculates volume integrals of Chebyshev polynomials and metric element products.">
<polygon fill="white" stroke="black" points="728.5,-142.5 728.5,-161.5 779.5,-161.5 779.5,-142.5 728.5,-142.5"/>
<text text-anchor="middle" x="754" y="-149.5" font-family="Helvetica,sans-Serif" font-size="10.00">ma00aa</text>
</a>
</g>
</g>
<!-- Node1&#45;&gt;Node27 -->
<g id="edge52" class="edge">
<title>Node1&#45;&gt;Node27</title>
<path fill="none" stroke="midnightblue" d="M1238.84,-133.9C1213.58,-93.61 1145.82,0 1061.5,0 1061.5,0 1061.5,0 970.5,0 881.23,0 898.16,-89.89 820,-133 807.54,-139.87 792.34,-144.49 779.77,-147.45"/>
<polygon fill="midnightblue" stroke="midnightblue" points="1235.88,-135.78 1244.08,-142.49 1241.86,-132.13 1235.88,-135.78"/>
</g>
<!-- Node3 -->
<g id="node3" class="node">
<title>Node3</title>
<g id="a_node3"><a xlink:href="group__grp__global__force.html#ga38c9d3c50bd043707fefa5137c9dbf44" target="_top" xlink:title="Calculates , where &#160;and , and .">
<polygon fill="white" stroke="black" points="526,-389.5 526,-408.5 570,-408.5 570,-389.5 526,-389.5"/>
<text text-anchor="middle" x="548" y="-396.5" font-family="Helvetica,sans-Serif" font-size="10.00">dforce</text>
</a>
</g>
</g>
<!-- Node2&#45;&gt;Node3 -->
<g id="edge2" class="edge">
<title>Node2&#45;&gt;Node3</title>
<path fill="none" stroke="midnightblue" d="M616.99,-284.53C600,-313.14 567.98,-367.05 554.84,-389.16"/>
<polygon fill="midnightblue" stroke="midnightblue" points="620.22,-285.95 622.32,-275.57 614.2,-282.38 620.22,-285.95"/>
</g>
<!-- Node15 -->
<g id="node15" class="node">
<title>Node15</title>
<g id="a_node15"><a xlink:href="dfp200_8f90.html#a73ddf39ecc5228201fb643779e17cd36" target="_top" xlink:title="Evaluate mu and psip derivatives and store them in dmupfdx.">
<polygon fill="white" stroke="black" points="140,-180.5 140,-199.5 235,-199.5 235,-180.5 140,-180.5"/>
<text text-anchor="middle" x="187.5" y="-187.5" font-family="Helvetica,sans-Serif" font-size="10.00">evaluate_dmupfdx</text>
</a>
</g>
</g>
<!-- Node2&#45;&gt;Node15 -->
<g id="edge35" class="edge">
<title>Node2&#45;&gt;Node15</title>
<path fill="none" stroke="midnightblue" d="M595.88,-260.45C519.17,-247.18 325.02,-213.61 235.29,-198.09"/>
<polygon fill="midnightblue" stroke="midnightblue" points="595.45,-263.92 605.9,-262.18 596.65,-257.03 595.45,-263.92"/>
</g>
<!-- Node4 -->
<g id="node4" class="node">
<title>Node4</title>
<g id="a_node4"><a xlink:href="namespaceallglobal.html#a7824bc37519fe88336534ce90ab2af16" target="_top" xlink:title=" ">
<polygon fill="white" stroke="black" points="370.5,-370.5 370.5,-389.5 484.5,-389.5 484.5,-370.5 370.5,-370.5"/>
<text text-anchor="middle" x="427.5" y="-377.5" font-family="Helvetica,sans-Serif" font-size="10.00">allglobal::check_inputs</text>
</a>
</g>
</g>
<!-- Node3&#45;&gt;Node4 -->
<g id="edge3" class="edge">
<title>Node3&#45;&gt;Node4</title>
<path fill="none" stroke="midnightblue" d="M515.94,-394.02C506.31,-392.48 495.38,-390.72 484.59,-388.99"/>
<polygon fill="midnightblue" stroke="midnightblue" points="515.39,-397.48 525.81,-395.6 516.49,-390.56 515.39,-397.48"/>
</g>
<!-- Node6 -->
<g id="node6" class="node">
<title>Node6</title>
<g id="a_node6"><a xlink:href="xspech_8f90.html#a48f45478dc2c9f70ea8aa1c60ad06503" target="_top" xlink:title=" ">
<polygon fill="white" stroke="black" points="168.5,-408.5 168.5,-427.5 206.5,-427.5 206.5,-408.5 168.5,-408.5"/>
<text text-anchor="middle" x="187.5" y="-415.5" font-family="Helvetica,sans-Serif" font-size="10.00">spec</text>
</a>
</g>
</g>
<!-- Node3&#45;&gt;Node6 -->
<g id="edge34" class="edge">
<title>Node3&#45;&gt;Node6</title>
<path fill="none" stroke="midnightblue" d="M515.56,-400.67C442.73,-404.53 264.29,-413.98 206.73,-417.03"/>
<polygon fill="midnightblue" stroke="midnightblue" points="516.11,-404.14 525.91,-400.12 515.74,-397.15 516.11,-404.14"/>
</g>
<!-- Node8 -->
<g id="node8" class="node">
<title>Node8</title>
<g id="a_node8"><a xlink:href="group__grp__force__driver.html#gabbc245b3884ee8d8d3e2a52f25149f78" target="_top" xlink:title="fcn1">
<polygon fill="white" stroke="black" points="410,-484.5 410,-503.5 445,-503.5 445,-484.5 410,-484.5"/>
<text text-anchor="middle" x="427.5" y="-491.5" font-family="Helvetica,sans-Serif" font-size="10.00">fcn1</text>
</a>
</g>
</g>
<!-- Node3&#45;&gt;Node8 -->
<g id="edge9" class="edge">
<title>Node3&#45;&gt;Node8</title>
<path fill="none" stroke="midnightblue" d="M536.09,-417.48C525.91,-433.31 509.42,-455.75 490,-470 476.42,-479.97 458.16,-486.4 445.07,-490.07"/>
<polygon fill="midnightblue" stroke="midnightblue" points="539.29,-418.95 541.57,-408.61 533.34,-415.27 539.29,-418.95"/>
</g>
<!-- Node9 -->
<g id="node9" class="node">
<title>Node9</title>
<g id="a_node9"><a xlink:href="group__grp__force__driver.html#gaec14f81fbdbedafbc4189489ec8ae178" target="_top" xlink:title="Employs Newton method to find , where &#160;and &#160;is defined in dforce() .">
<polygon fill="white" stroke="black" points="281,-484.5 281,-503.5 329,-503.5 329,-484.5 281,-484.5"/>
<text text-anchor="middle" x="305" y="-491.5" font-family="Helvetica,sans-Serif" font-size="10.00">newton</text>
</a>
</g>
</g>
<!-- Node3&#45;&gt;Node9 -->
<g id="edge31" class="edge">
<title>Node3&#45;&gt;Node9</title>
<path fill="none" stroke="midnightblue" d="M543.64,-418.7C537.91,-445.47 523.43,-492.34 490,-513 438.1,-545.08 361.88,-519.07 326.03,-503.53"/>
<polygon fill="midnightblue" stroke="midnightblue" points="547.14,-419.08 545.6,-408.6 540.26,-417.75 547.14,-419.08"/>
</g>
<!-- Node10 -->
<g id="node10" class="node">
<title>Node10</title>
<g id="a_node10"><a xlink:href="group__grp__force__driver.html#ga8ccd6c7d901872702521d0a0edf95412" target="_top" xlink:title="fcn2">
<polygon fill="white" stroke="black" points="29.5,-498.5 29.5,-517.5 64.5,-517.5 64.5,-498.5 29.5,-498.5"/>
<text text-anchor="middle" x="47" y="-505.5" font-family="Helvetica,sans-Serif" font-size="10.00">fcn2</text>
</a>
</g>
</g>
<!-- Node3&#45;&gt;Node10 -->
<g id="edge18" class="edge">
<title>Node3&#45;&gt;Node10</title>
<path fill="none" stroke="midnightblue" d="M545.02,-418.8C540.81,-449.24 528,-506.86 490,-534 359.66,-627.11 285.53,-589.31 130,-551 103.93,-544.58 76.98,-528.24 61.39,-517.65"/>
<polygon fill="midnightblue" stroke="midnightblue" points="548.53,-418.93 546.24,-408.58 541.58,-418.09 548.53,-418.93"/>
</g>
<!-- Node12 -->
<g id="node12" class="node">
<title>Node12</title>
<g id="a_node12"><a xlink:href="dfp200_8f90.html#a6aca59cf350d7b1941f8389d50945a43" target="_top" xlink:title="get LU Beltrami matrices">
<polygon fill="white" stroke="black" points="365,-142.5 365,-161.5 490,-161.5 490,-142.5 365,-142.5"/>
<text text-anchor="middle" x="427.5" y="-149.5" font-family="Helvetica,sans-Serif" font-size="10.00">get_lu_beltrami_matrices</text>
</a>
</g>
</g>
<!-- Node3&#45;&gt;Node12 -->
<g id="edge19" class="edge">
<title>Node3&#45;&gt;Node12</title>
<path fill="none" stroke="midnightblue" d="M537.92,-380.06C514.15,-330.52 450.76,-198.39 433.11,-161.62"/>
<polygon fill="midnightblue" stroke="midnightblue" points="534.87,-381.82 542.35,-389.32 541.18,-378.79 534.87,-381.82"/>
</g>
<!-- Node17 -->
<g id="node17" class="node">
<title>Node17</title>
<g id="a_node17"><a xlink:href="group__grp__diagnostics.html#ga7401b50ec10c6598ee4a8112717a63ec" target="_top" xlink:title="Computes eigenvalues and eigenvectors of derivative matrix, .">
<polygon fill="white" stroke="black" points="282.5,-446.5 282.5,-465.5 327.5,-465.5 327.5,-446.5 282.5,-446.5"/>
<text text-anchor="middle" x="305" y="-453.5" font-family="Helvetica,sans-Serif" font-size="10.00">hesian</text>
</a>
</g>
</g>
<!-- Node3&#45;&gt;Node17 -->
<g id="edge29" class="edge">
<title>Node3&#45;&gt;Node17</title>
<path fill="none" stroke="midnightblue" d="M525.05,-414.45C514.84,-420.89 502.27,-427.84 490,-432 433.57,-451.16 362.61,-455.16 327.59,-455.91"/>
<polygon fill="midnightblue" stroke="midnightblue" points="527.26,-417.18 533.68,-408.76 523.41,-411.34 527.26,-417.18"/>
</g>
<!-- Node18 -->
<g id="node18" class="node">
<title>Node18</title>
<g id="a_node18"><a xlink:href="group__grp__conjugate__gradient.html#ga4d8415226e62a9fdb42b0fd0b464251e" target="_top" xlink:title="Returns the energy functional and it&#39;s derivatives with respect to geometry.">
<polygon fill="white" stroke="black" points="403.5,-332.5 403.5,-351.5 451.5,-351.5 451.5,-332.5 403.5,-332.5"/>
<text text-anchor="middle" x="427.5" y="-339.5" font-family="Helvetica,sans-Serif" font-size="10.00">pc00ab</text>
</a>
</g>
</g>
<!-- Node3&#45;&gt;Node18 -->
<g id="edge32" class="edge">
<title>Node3&#45;&gt;Node18</title>
<path fill="none" stroke="midnightblue" d="M526.83,-383.47C516.29,-375.91 502.92,-367.14 490,-361 477.79,-355.19 463.38,-350.63 451.58,-347.43"/>
<polygon fill="midnightblue" stroke="midnightblue" points="524.82,-386.34 534.94,-389.46 528.97,-380.7 524.82,-386.34"/>
</g>
<!-- Node5 -->
<g id="node5" class="node">
<title>Node5</title>
<g id="a_node5"><a xlink:href="xspech_8f90.html#aea782eae089760a491c2c54f9903abcc" target="_top" xlink:title="Main program of SPEC.">
<polygon fill="white" stroke="black" points="281.5,-370.5 281.5,-389.5 328.5,-389.5 328.5,-370.5 281.5,-370.5"/>
<text text-anchor="middle" x="305" y="-377.5" font-family="Helvetica,sans-Serif" font-size="10.00">xspech</text>
</a>
</g>
</g>
<!-- Node4&#45;&gt;Node5 -->
<g id="edge4" class="edge">
<title>Node4&#45;&gt;Node5</title>
<path fill="none" stroke="midnightblue" d="M360.45,-380C349.06,-380 337.95,-380 328.77,-380"/>
<polygon fill="midnightblue" stroke="midnightblue" points="360.48,-383.5 370.48,-380 360.48,-376.5 360.48,-383.5"/>
</g>
<!-- Node5&#45;&gt;Node6 -->
<g id="edge5" class="edge">
<title>Node5&#45;&gt;Node6</title>
<path fill="none" stroke="midnightblue" d="M271.67,-384.51C249.25,-390.72 220.45,-400.67 203.29,-408.44"/>
<polygon fill="midnightblue" stroke="midnightblue" points="272.67,-387.86 281.46,-381.94 270.9,-381.09 272.67,-387.86"/>
</g>
<!-- Node6&#45;&gt;Node5 -->
<g id="edge8" class="edge">
<title>Node6&#45;&gt;Node5</title>
<path fill="none" stroke="midnightblue" d="M216.44,-414.68C239.23,-408.65 270.55,-397.97 288.9,-389.7"/>
<polygon fill="midnightblue" stroke="midnightblue" points="215.52,-411.31 206.65,-417.1 217.19,-418.1 215.52,-411.31"/>
</g>
<!-- Node7 -->
<g id="node7" class="node">
<title>Node7</title>
<g id="a_node7"><a xlink:href="group__grp__output.html#ga0f962c09cd5d5eba99f1cba043cb3898" target="_top" xlink:title="Initialize the interface to the HDF5 library and open the output file.">
<polygon fill="white" stroke="black" points="0,-389.5 0,-408.5 94,-408.5 94,-389.5 0,-389.5"/>
<text text-anchor="middle" x="47" y="-396.5" font-family="Helvetica,sans-Serif" font-size="10.00">sphdf5::init_outfile</text>
</a>
</g>
</g>
<!-- Node6&#45;&gt;Node7 -->
<g id="edge6" class="edge">
<title>Node6&#45;&gt;Node7</title>
<path fill="none" stroke="midnightblue" d="M158.31,-414.13C139.87,-411.6 115.36,-408.24 94.12,-405.33"/>
<polygon fill="midnightblue" stroke="midnightblue" points="158.01,-417.62 168.39,-415.52 158.96,-410.69 158.01,-417.62"/>
</g>
<!-- Node7&#45;&gt;Node5 -->
<g id="edge7" class="edge">
<title>Node7&#45;&gt;Node5</title>
<path fill="none" stroke="midnightblue" d="M104.27,-394.82C159.79,-390.7 241.88,-384.61 281.28,-381.69"/>
<polygon fill="midnightblue" stroke="midnightblue" points="103.95,-391.34 94.23,-395.57 104.47,-398.32 103.95,-391.34"/>
</g>
<!-- Node8&#45;&gt;Node9 -->
<g id="edge10" class="edge">
<title>Node8&#45;&gt;Node9</title>
<path fill="none" stroke="midnightblue" d="M399.51,-488.26C378.38,-486.82 349.31,-486.92 329.22,-488.54"/>
<polygon fill="midnightblue" stroke="midnightblue" points="399.48,-491.77 409.74,-489.16 400.09,-484.8 399.48,-491.77"/>
</g>
<!-- Node9&#45;&gt;Node6 -->
<g id="edge14" class="edge">
<title>Node9&#45;&gt;Node6</title>
<path fill="none" stroke="midnightblue" d="M280.81,-478.74C257.58,-463.46 222.56,-440.41 203.01,-427.55"/>
<polygon fill="midnightblue" stroke="midnightblue" points="279.09,-481.8 289.37,-484.37 282.94,-475.95 279.09,-481.8"/>
</g>
<!-- Node9&#45;&gt;Node8 -->
<g id="edge11" class="edge">
<title>Node9&#45;&gt;Node8</title>
<path fill="none" stroke="midnightblue" d="M339.21,-500.11C362.11,-501.27 391.58,-500.85 409.74,-498.84"/>
<polygon fill="midnightblue" stroke="midnightblue" points="339.42,-496.61 329.22,-499.46 338.97,-503.6 339.42,-496.61"/>
</g>
<!-- Node9&#45;&gt;Node10 -->
<g id="edge12" class="edge">
<title>Node9&#45;&gt;Node10</title>
<path fill="none" stroke="midnightblue" d="M270.49,-491.1C215.08,-491.09 106.32,-497.43 64.72,-503.53"/>
<polygon fill="midnightblue" stroke="midnightblue" points="270.8,-494.6 280.83,-491.19 270.86,-487.6 270.8,-494.6"/>
</g>
<!-- Node11 -->
<g id="node11" class="node">
<title>Node11</title>
<g id="a_node11"><a xlink:href="group__grp__force__driver.html#ga382822b303cbf8c56d6f54dcb379caf2" target="_top" xlink:title="read or write force&#45;derivative matrix">
<polygon fill="white" stroke="black" points="155,-522.5 155,-541.5 220,-541.5 220,-522.5 155,-522.5"/>
<text text-anchor="middle" x="187.5" y="-529.5" font-family="Helvetica,sans-Serif" font-size="10.00">writereadgf</text>
</a>
</g>
</g>
<!-- Node9&#45;&gt;Node11 -->
<g id="edge15" class="edge">
<title>Node9&#45;&gt;Node11</title>
<path fill="none" stroke="midnightblue" d="M271.17,-498.64C248.91,-504.84 220.53,-514.66 203.48,-522.36"/>
<polygon fill="midnightblue" stroke="midnightblue" points="272.13,-502.01 280.9,-496.07 270.34,-495.24 272.13,-502.01"/>
</g>
<!-- Node10&#45;&gt;Node9 -->
<g id="edge13" class="edge">
<title>Node10&#45;&gt;Node9</title>
<path fill="none" stroke="midnightblue" d="M74.85,-510.87C125.28,-511.41 233.36,-505.42 280.83,-499.35"/>
<polygon fill="midnightblue" stroke="midnightblue" points="74.8,-507.36 64.72,-510.64 74.64,-514.36 74.8,-507.36"/>
</g>
<!-- Node11&#45;&gt;Node9 -->
<g id="edge17" class="edge">
<title>Node11&#45;&gt;Node9</title>
<path fill="none" stroke="midnightblue" d="M229.95,-524.87C250.47,-518.75 273.98,-510.42 288.9,-503.7"/>
<polygon fill="midnightblue" stroke="midnightblue" points="228.81,-521.55 220.17,-527.68 230.74,-528.28 228.81,-521.55"/>
</g>
<!-- Node11&#45;&gt;Node10 -->
<g id="edge16" class="edge">
<title>Node11&#45;&gt;Node10</title>
<path fill="none" stroke="midnightblue" d="M144.76,-524.77C117.8,-520.1 84.2,-514.27 64.52,-510.86"/>
<polygon fill="midnightblue" stroke="midnightblue" points="144.27,-528.24 154.73,-526.49 145.47,-521.34 144.27,-528.24"/>
</g>
<!-- Node13 -->
<g id="node13" class="node">
<title>Node13</title>
<g id="a_node13"><a xlink:href="dfp200_8f90.html#a55ea75395f8c71731451e1add3720c7e" target="_top" xlink:title="Given the field consistent with the constraints and the geometry, computes local quantites related to...">
<polygon fill="white" stroke="black" points="282,-142.5 282,-161.5 328,-161.5 328,-142.5 282,-142.5"/>
<text text-anchor="middle" x="305" y="-149.5" font-family="Helvetica,sans-Serif" font-size="10.00">dfp200</text>
</a>
</g>
</g>
<!-- Node12&#45;&gt;Node13 -->
<g id="edge20" class="edge">
<title>Node12&#45;&gt;Node13</title>
<path fill="none" stroke="midnightblue" d="M354.69,-145.36C345.05,-145.55 335.82,-145.98 328.04,-146.64"/>
<polygon fill="midnightblue" stroke="midnightblue" points="354.88,-148.86 364.84,-145.25 354.8,-141.86 354.88,-148.86"/>
</g>
<!-- Node13&#45;&gt;Node3 -->
<g id="edge21" class="edge">
<title>Node13&#45;&gt;Node3</title>
<path fill="none" stroke="midnightblue" d="M325.89,-168.43C360.86,-197.74 434.87,-261.74 490,-323 510.08,-345.31 530.42,-374.31 540.5,-389.21"/>
<polygon fill="midnightblue" stroke="midnightblue" points="327.8,-165.46 317.88,-161.74 323.32,-170.84 327.8,-165.46"/>
</g>
<!-- Node13&#45;&gt;Node12 -->
<g id="edge26" class="edge">
<title>Node13&#45;&gt;Node12</title>
<path fill="none" stroke="midnightblue" d="M338.28,-158.06C346.52,-158.5 355.66,-158.73 364.84,-158.75"/>
<polygon fill="midnightblue" stroke="midnightblue" points="338.26,-154.55 328.04,-157.36 337.78,-161.53 338.26,-154.55"/>
</g>
<!-- Node14 -->
<g id="node14" class="node">
<title>Node14</title>
<g id="a_node14"><a xlink:href="dfp200_8f90.html#a7b64c7392b45d0042d8bd7379c0761a5" target="_top" xlink:title="Evaluate the derivative of the square of the magnetic field modulus. Add spectral constraint derivati...">
<polygon fill="white" stroke="black" points="150.5,-142.5 150.5,-161.5 224.5,-161.5 224.5,-142.5 150.5,-142.5"/>
<text text-anchor="middle" x="187.5" y="-149.5" font-family="Helvetica,sans-Serif" font-size="10.00">evaluate_dbb</text>
</a>
</g>
</g>
<!-- Node13&#45;&gt;Node14 -->
<g id="edge22" class="edge">
<title>Node13&#45;&gt;Node14</title>
<path fill="none" stroke="midnightblue" d="M271.66,-145.87C257.08,-145.11 239.81,-145.05 224.79,-145.68"/>
<polygon fill="midnightblue" stroke="midnightblue" points="271.52,-149.37 281.73,-146.54 271.99,-142.38 271.52,-149.37"/>
</g>
<!-- Node13&#45;&gt;Node15 -->
<g id="edge24" class="edge">
<title>Node13&#45;&gt;Node15</title>
<path fill="none" stroke="midnightblue" d="M271.95,-156.43C249.52,-162.63 220.6,-172.61 203.36,-180.41"/>
<polygon fill="midnightblue" stroke="midnightblue" points="272.94,-159.79 281.73,-153.87 271.17,-153.01 272.94,-159.79"/>
</g>
<!-- Node16 -->
<g id="node16" class="node">
<title>Node16</title>
<g id="a_node16"><a xlink:href="dfp200_8f90.html#a5e56f1f4b1e6df11a9cffa6237c37469" target="_top" xlink:title="This routine evaluates the value of the magnetic field once the interface is perturbed using matrix p...">
<polygon fill="white" stroke="black" points="130,-104.5 130,-123.5 245,-123.5 245,-104.5 130,-104.5"/>
<text text-anchor="middle" x="187.5" y="-111.5" font-family="Helvetica,sans-Serif" font-size="10.00">get_perturbed_solution</text>
</a>
</g>
</g>
<!-- Node13&#45;&gt;Node16 -->
<g id="edge27" class="edge">
<title>Node13&#45;&gt;Node16</title>
<path fill="none" stroke="midnightblue" d="M279.49,-138.3C267.37,-133.39 252.29,-128.08 237.9,-123.57"/>
<polygon fill="midnightblue" stroke="midnightblue" points="278.33,-141.61 288.9,-142.3 281.07,-135.17 278.33,-141.61"/>
</g>
<!-- Node14&#45;&gt;Node13 -->
<g id="edge23" class="edge">
<title>Node14&#45;&gt;Node13</title>
<path fill="none" stroke="midnightblue" d="M235.13,-158.64C251.22,-158.97 268.5,-158.57 281.73,-157.46"/>
<polygon fill="midnightblue" stroke="midnightblue" points="234.89,-155.13 224.79,-158.32 234.67,-162.13 234.89,-155.13"/>
</g>
<!-- Node15&#45;&gt;Node13 -->
<g id="edge25" class="edge">
<title>Node15&#45;&gt;Node13</title>
<path fill="none" stroke="midnightblue" d="M244.62,-178.28C260.95,-172.96 277.45,-166.86 288.9,-161.7"/>
<polygon fill="midnightblue" stroke="midnightblue" points="243.54,-174.96 235.06,-181.32 245.65,-181.63 243.54,-174.96"/>
</g>
<!-- Node16&#45;&gt;Node13 -->
<g id="edge28" class="edge">
<title>Node16&#45;&gt;Node13</title>
<path fill="none" stroke="midnightblue" d="M212.59,-127.53C232.96,-135.81 261.9,-145.28 281.73,-150.13"/>
<polygon fill="midnightblue" stroke="midnightblue" points="213.93,-124.3 203.36,-123.59 211.19,-130.74 213.93,-124.3"/>
</g>
<!-- Node17&#45;&gt;Node6 -->
<g id="edge30" class="edge">
<title>Node17&#45;&gt;Node6</title>
<path fill="none" stroke="midnightblue" d="M272.74,-445.72C251.59,-438.76 224.39,-429.81 206.71,-423.99"/>
<polygon fill="midnightblue" stroke="midnightblue" points="271.68,-449.05 282.28,-448.85 273.87,-442.4 271.68,-449.05"/>
</g>
<!-- Node19 -->
<g id="node19" class="node">
<title>Node19</title>
<g id="a_node19"><a xlink:href="group__grp__conjugate__gradient.html#ga25a3bae2ff2ee0469b045de0d033398b" target="_top" xlink:title="Use preconditioned conjugate gradient method to find minimum of energy functional.">
<polygon fill="white" stroke="black" points="281,-332.5 281,-351.5 329,-351.5 329,-332.5 281,-332.5"/>
<text text-anchor="middle" x="305" y="-339.5" font-family="Helvetica,sans-Serif" font-size="10.00">pc00aa</text>
</a>
</g>
</g>
<!-- Node18&#45;&gt;Node19 -->
<g id="edge33" class="edge">
<title>Node18&#45;&gt;Node19</title>
<path fill="none" stroke="midnightblue" d="M393.16,-342C372.81,-342 347.31,-342 329.16,-342"/>
<polygon fill="midnightblue" stroke="midnightblue" points="393.27,-345.5 403.27,-342 393.27,-338.5 393.27,-345.5"/>
</g>
<!-- Node20&#45;&gt;Node16 -->
<g id="edge37" class="edge">
<title>Node20&#45;&gt;Node16</title>
<path fill="none" stroke="midnightblue" d="M1127.82,-134.16C1101.51,-102.09 1040.44,-38 972.5,-38 972.5,-38 972.5,-38 426.5,-38 340.18,-38 244.25,-83.92 205.81,-104.37"/>
<polygon fill="midnightblue" stroke="midnightblue" points="1125.32,-136.65 1134.29,-142.28 1130.79,-132.28 1125.32,-136.65"/>
</g>
<!-- Node21 -->
<g id="node21" class="node">
<title>Node21</title>
<g id="a_node21"><a xlink:href="intghs_8f90.html#ae10091a51178071d12004da4952104d4" target="_top" xlink:title="free workspace">
<polygon fill="white" stroke="black" points="688,-180.5 688,-199.5 820,-199.5 820,-180.5 688,-180.5"/>
<text text-anchor="middle" x="754" y="-187.5" font-family="Helvetica,sans-Serif" font-size="10.00">intghs_workspace_destroy</text>
</a>
</g>
</g>
<!-- Node20&#45;&gt;Node21 -->
<g id="edge38" class="edge">
<title>Node20&#45;&gt;Node21</title>
<path fill="none" stroke="midnightblue" d="M1110.98,-155C1048.42,-161.15 904.44,-175.31 820,-183.61"/>
<polygon fill="midnightblue" stroke="midnightblue" points="1111.38,-158.48 1120.99,-154.02 1110.7,-151.51 1111.38,-158.48"/>
</g>
<!-- Node22 -->
<g id="node22" class="node">
<title>Node22</title>
<g id="a_node22"><a xlink:href="intghs_8f90.html#ae8299d4625cabd90eb1398fd2cd38089" target="_top" xlink:title="init workspace">
<polygon fill="white" stroke="black" points="697.5,-104.5 697.5,-123.5 810.5,-123.5 810.5,-104.5 697.5,-104.5"/>
<text text-anchor="middle" x="754" y="-111.5" font-family="Helvetica,sans-Serif" font-size="10.00">intghs_workspace_init</text>
</a>
</g>
</g>
<!-- Node20&#45;&gt;Node22 -->
<g id="edge42" class="edge">
<title>Node20&#45;&gt;Node22</title>
<path fill="none" stroke="midnightblue" d="M1110.99,-149C1046.02,-142.61 893.23,-127.59 810.52,-119.46"/>
<polygon fill="midnightblue" stroke="midnightblue" points="1110.7,-152.49 1120.99,-149.98 1111.38,-145.52 1110.7,-152.49"/>
</g>
<!-- Node23 -->
<g id="node23" class="node">
<title>Node23</title>
<g id="a_node23"><a xlink:href="mp00ac_8f90.html#ae9fe335bb4916face9f9d19ce8c0f5d7" target="_top" xlink:title="compute a.x by either by coumputing it directly, or using a matrix free method">
<polygon fill="white" stroke="black" points="1036,-218.5 1036,-237.5 1085,-237.5 1085,-218.5 1036,-218.5"/>
<text text-anchor="middle" x="1060.5" y="-225.5" font-family="Helvetica,sans-Serif" font-size="10.00">matvec</text>
</a>
</g>
</g>
<!-- Node20&#45;&gt;Node23 -->
<g id="edge46" class="edge">
<title>Node20&#45;&gt;Node23</title>
<path fill="none" stroke="midnightblue" d="M1123.7,-168.91C1107.65,-184.16 1084.61,-206.04 1071.55,-218.45"/>
<polygon fill="midnightblue" stroke="midnightblue" points="1126.53,-171.05 1131.37,-161.63 1121.71,-165.98 1126.53,-171.05"/>
</g>
<!-- Node25 -->
<g id="node25" class="node">
<title>Node25</title>
<g id="a_node25"><a xlink:href="group__grp__solver.html#ga6626839aff500f060beb5bce2b90c447" target="_top" xlink:title="Solves Beltrami/vacuum (linear) system, given matrices.unpacking fluxes, helicity multiplier">
<polygon fill="white" stroke="black" points="856,-218.5 856,-237.5 907,-237.5 907,-218.5 856,-218.5"/>
<text text-anchor="middle" x="881.5" y="-225.5" font-family="Helvetica,sans-Serif" font-size="10.00">mp00ac</text>
</a>
</g>
</g>
<!-- Node20&#45;&gt;Node25 -->
<g id="edge51" class="edge">
<title>Node20&#45;&gt;Node25</title>
<path fill="none" stroke="midnightblue" d="M1111.19,-160.45C1072.2,-171.38 1002.42,-191.14 943,-209 931.19,-212.55 918.14,-216.63 907.18,-220.1"/>
<polygon fill="midnightblue" stroke="midnightblue" points="1112.19,-163.81 1120.88,-157.74 1110.3,-157.07 1112.19,-163.81"/>
</g>
<!-- Node21&#45;&gt;Node2 -->
<g id="edge39" class="edge">
<title>Node21&#45;&gt;Node2</title>
<path fill="none" stroke="midnightblue" d="M699.58,-203.23C695.56,-204.94 691.65,-206.86 688,-209 676.92,-215.5 652.28,-241.57 638.96,-256.09"/>
<polygon fill="midnightblue" stroke="midnightblue" points="701.01,-206.44 709.11,-199.61 698.52,-199.89 701.01,-206.44"/>
</g>
<!-- Node21&#45;&gt;Node13 -->
<g id="edge40" class="edge">
<title>Node21&#45;&gt;Node13</title>
<path fill="none" stroke="midnightblue" d="M709.92,-177.69C658.21,-163.61 568.61,-141.42 490,-133 434.76,-127.08 419.88,-124.38 365,-133 352.46,-134.97 338.94,-139.16 328.01,-143.11"/>
<polygon fill="midnightblue" stroke="midnightblue" points="709.18,-181.12 719.75,-180.39 711.03,-174.37 709.18,-181.12"/>
</g>
<!-- Node21&#45;&gt;Node15 -->
<g id="edge41" class="edge">
<title>Node21&#45;&gt;Node15</title>
<path fill="none" stroke="midnightblue" d="M677.43,-197.11C584.13,-204.76 420.67,-214.51 281,-204 266.1,-202.88 249.96,-200.76 235.4,-198.49"/>
<polygon fill="midnightblue" stroke="midnightblue" points="677.95,-200.57 687.62,-196.25 677.36,-193.6 677.95,-200.57"/>
</g>
<!-- Node22&#45;&gt;Node2 -->
<g id="edge43" class="edge">
<title>Node22&#45;&gt;Node2</title>
<path fill="none" stroke="midnightblue" d="M694.19,-128.34C692.01,-129.75 689.93,-131.3 688,-133 649.24,-167.13 635.37,-231.88 631.37,-256.33"/>
<polygon fill="midnightblue" stroke="midnightblue" points="695.9,-131.39 703.04,-123.56 692.58,-125.23 695.9,-131.39"/>
</g>
<!-- Node22&#45;&gt;Node13 -->
<g id="edge44" class="edge">
<title>Node22&#45;&gt;Node13</title>
<path fill="none" stroke="midnightblue" d="M687.28,-107.51C609.24,-101.66 475.71,-97.56 365,-124 349.56,-127.69 333.36,-135.72 321.85,-142.23"/>
<polygon fill="midnightblue" stroke="midnightblue" points="687.21,-111.01 697.45,-108.3 687.76,-104.03 687.21,-111.01"/>
</g>
<!-- Node22&#45;&gt;Node15 -->
<g id="edge45" class="edge">
<title>Node22&#45;&gt;Node15</title>
<path fill="none" stroke="midnightblue" d="M707.2,-126.12C655.02,-139.42 567,-160.29 490,-171 400.39,-183.46 294.65,-187.76 235.2,-189.23"/>
<polygon fill="midnightblue" stroke="midnightblue" points="708.33,-129.45 717.15,-123.57 706.59,-122.67 708.33,-129.45"/>
</g>
<!-- Node24 -->
<g id="node24" class="node">
<title>Node24</title>
<g id="a_node24"><a xlink:href="mp00ac_8f90.html#a304edac43f63d39dda4419b4d044eac5" target="_top" xlink:title="run GMRES">
<polygon fill="white" stroke="black" points="943,-218.5 943,-237.5 1000,-237.5 1000,-218.5 943,-218.5"/>
<text text-anchor="middle" x="971.5" y="-225.5" font-family="Helvetica,sans-Serif" font-size="10.00">rungmres</text>
</a>
</g>
</g>
<!-- Node23&#45;&gt;Node24 -->
<g id="edge47" class="edge">
<title>Node23&#45;&gt;Node24</title>
<path fill="none" stroke="midnightblue" d="M1025.5,-228C1017.13,-228 1008.28,-228 1000.25,-228"/>
<polygon fill="midnightblue" stroke="midnightblue" points="1025.73,-231.5 1035.73,-228 1025.73,-224.5 1025.73,-231.5"/>
</g>
<!-- Node24&#45;&gt;Node25 -->
<g id="edge48" class="edge">
<title>Node24&#45;&gt;Node25</title>
<path fill="none" stroke="midnightblue" d="M932.46,-228C923.9,-228 915.03,-228 907.19,-228"/>
<polygon fill="midnightblue" stroke="midnightblue" points="932.66,-231.5 942.66,-228 932.66,-224.5 932.66,-231.5"/>
</g>
<!-- Node26 -->
<g id="node26" class="node">
<title>Node26</title>
<g id="a_node26"><a xlink:href="group__grp__solver__driver.html#gacad623d4c5c006e9ad10116372f92ad3" target="_top" xlink:title="Constructs Beltrami field in given volume consistent with flux, helicity, rotational&#45;transform and/or...">
<polygon fill="white" stroke="black" points="728.5,-218.5 728.5,-237.5 779.5,-237.5 779.5,-218.5 728.5,-218.5"/>
<text text-anchor="middle" x="754" y="-225.5" font-family="Helvetica,sans-Serif" font-size="10.00">ma02aa</text>
</a>
</g>
</g>
<!-- Node25&#45;&gt;Node26 -->
<g id="edge49" class="edge">
<title>Node25&#45;&gt;Node26</title>
<path fill="none" stroke="midnightblue" d="M845.6,-228C824.67,-228 798.55,-228 779.74,-228"/>
<polygon fill="midnightblue" stroke="midnightblue" points="845.71,-231.5 855.71,-228 845.71,-224.5 845.71,-231.5"/>
</g>
<!-- Node26&#45;&gt;Node2 -->
<g id="edge50" class="edge">
<title>Node26&#45;&gt;Node2</title>
<path fill="none" stroke="midnightblue" d="M718.74,-238.58C697.41,-245.17 670.61,-253.45 652.08,-259.18"/>
<polygon fill="midnightblue" stroke="midnightblue" points="719.88,-241.89 728.4,-235.6 717.82,-235.21 719.88,-241.89"/>
</g>
<!-- Node27&#45;&gt;Node2 -->
<g id="edge53" class="edge">
<title>Node27&#45;&gt;Node2</title>
<path fill="none" stroke="midnightblue" d="M718.39,-157.13C707.86,-159.94 696.77,-164.28 688,-171 658.08,-193.91 640.09,-237.04 633.21,-256.29"/>
<polygon fill="midnightblue" stroke="midnightblue" points="719.24,-160.52 728.21,-154.88 717.68,-153.7 719.24,-160.52"/>
</g>
<!-- Node27&#45;&gt;Node12 -->
<g id="edge54" class="edge">
<title>Node27&#45;&gt;Node12</title>
<path fill="none" stroke="midnightblue" d="M718.17,-152C663.76,-152 557.83,-152 490.25,-152"/>
<polygon fill="midnightblue" stroke="midnightblue" points="718.34,-155.5 728.34,-152 718.34,-148.5 718.34,-155.5"/>
</g>
</g>
</svg>
