<?xml version="1.0" encoding="UTF-8" standalone="no"?>
<!DOCTYPE svg PUBLIC "-//W3C//DTD SVG 1.1//EN"
 "http://www.w3.org/Graphics/SVG/1.1/DTD/svg11.dtd">
<!-- Generated by graphviz version 2.50.0 (20220203.2022)
 -->
<!-- Title: rungmres Pages: 1 -->
<svg width="552pt" height="196pt"
 viewBox="0.00 0.00 552.00 196.00" xmlns="http://www.w3.org/2000/svg" xmlns:xlink="http://www.w3.org/1999/xlink">
<g id="graph0" class="graph" transform="scale(1 1) rotate(0) translate(4 192)">
<title>rungmres</title>
<polygon fill="white" stroke="transparent" points="-4,4 -4,-192 548,-192 548,4 -4,4"/>
<!-- Node1 -->
<g id="node1" class="node">
<title>Node1</title>
<g id="a_node1"><a xlink:title="run GMRES">
<polygon fill="#bfbfbf" stroke="black" points="0,-37.5 0,-56.5 57,-56.5 57,-37.5 0,-37.5"/>
<text text-anchor="middle" x="28.5" y="-44.5" font-family="Helvetica,sans-Serif" font-size="10.00">rungmres</text>
</a>
</g>
</g>
<!-- Node2 -->
<g id="node2" class="node">
<title>Node2</title>
<g id="a_node2"><a xlink:href="mp00ac_8f90.html#ae9fe335bb4916face9f9d19ce8c0f5d7" target="_top" xlink:title="compute a.x by either by coumputing it directly, or using a matrix free method">
<polygon fill="white" stroke="black" points="100.5,-56.5 100.5,-75.5 149.5,-75.5 149.5,-56.5 100.5,-56.5"/>
<text text-anchor="middle" x="125" y="-63.5" font-family="Helvetica,sans-Serif" font-size="10.00">matvec</text>
</a>
</g>
</g>
<!-- Node1&#45;&gt;Node2 -->
<g id="edge1" class="edge">
<title>Node1&#45;&gt;Node2</title>
<path fill="none" stroke="midnightblue" d="M57.09,-52.55C67.49,-54.64 79.44,-57.04 90.34,-59.23"/>
<polygon fill="midnightblue" stroke="midnightblue" points="89.89,-62.71 100.38,-61.25 91.27,-55.85 89.89,-62.71"/>
</g>
<!-- Node11 -->
<g id="node11" class="node">
<title>Node11</title>
<g id="a_node11"><a xlink:href="mp00ac_8f90.html#a76cda97bf815eb7f40cb76ad1719d809" target="_top" xlink:title="apply the preconditioner">
<polygon fill="white" stroke="black" points="93,-18.5 93,-37.5 157,-37.5 157,-18.5 93,-18.5"/>
<text text-anchor="middle" x="125" y="-25.5" font-family="Helvetica,sans-Serif" font-size="10.00">prec_solve</text>
</a>
</g>
</g>
<!-- Node1&#45;&gt;Node11 -->
<g id="edge16" class="edge">
<title>Node1&#45;&gt;Node11</title>
<path fill="none" stroke="midnightblue" d="M57.09,-41.45C65.15,-39.83 74.15,-38.02 82.86,-36.27"/>
<polygon fill="midnightblue" stroke="midnightblue" points="83.78,-39.66 92.89,-34.25 82.4,-32.79 83.78,-39.66"/>
</g>
<!-- Node3 -->
<g id="node3" class="node">
<title>Node3</title>
<g id="a_node3"><a xlink:href="intghs_8f90.html#a21d3b7106371783302e68297f7797e9f" target="_top" xlink:title="Calculates volume integrals of Chebyshev polynomials and covariant field products.">
<polygon fill="white" stroke="black" points="195.5,-112.5 195.5,-131.5 238.5,-131.5 238.5,-112.5 195.5,-112.5"/>
<text text-anchor="middle" x="217" y="-119.5" font-family="Helvetica,sans-Serif" font-size="10.00">intghs</text>
</a>
</g>
</g>
<!-- Node2&#45;&gt;Node3 -->
<g id="edge2" class="edge">
<title>Node2&#45;&gt;Node3</title>
<path fill="none" stroke="midnightblue" d="M141.68,-75.75C155.49,-84.35 175.82,-97 191.73,-106.9"/>
<polygon fill="midnightblue" stroke="midnightblue" points="190.16,-110.05 200.5,-112.36 193.86,-104.1 190.16,-110.05"/>
</g>
<!-- Node9 -->
<g id="node9" class="node">
<title>Node9</title>
<g id="a_node9"><a xlink:href="group__grp__build__matrices.html#ga6c22bb4322fbcc29cb17dcc90b56eacd" target="_top" xlink:title="Constructs matrices that represent the Beltrami linear system, matrix&#45;free.">
<polygon fill="white" stroke="black" points="194,-56.5 194,-75.5 240,-75.5 240,-56.5 194,-56.5"/>
<text text-anchor="middle" x="217" y="-63.5" font-family="Helvetica,sans-Serif" font-size="10.00">mtrxhs</text>
</a>
</g>
</g>
<!-- Node2&#45;&gt;Node9 -->
<g id="edge12" class="edge">
<title>Node2&#45;&gt;Node9</title>
<path fill="none" stroke="midnightblue" d="M149.65,-66C159.99,-66 172.29,-66 183.47,-66"/>
<polygon fill="midnightblue" stroke="midnightblue" points="183.75,-69.5 193.75,-66 183.75,-62.5 183.75,-69.5"/>
</g>
<!-- Node10 -->
<g id="node10" class="node">
<title>Node10</title>
<g id="a_node10"><a xlink:href="group__grp__packing.html#gaee2357e570aebf8559e169def6b619dd" target="_top" xlink:title="Packs and unpacks Beltrami field solution vector.">
<polygon fill="white" stroke="black" points="193,-0.5 193,-19.5 241,-19.5 241,-0.5 193,-0.5"/>
<text text-anchor="middle" x="217" y="-7.5" font-family="Helvetica,sans-Serif" font-size="10.00">packab</text>
</a>
</g>
</g>
<!-- Node2&#45;&gt;Node10 -->
<g id="edge14" class="edge">
<title>Node2&#45;&gt;Node10</title>
<path fill="none" stroke="midnightblue" d="M141.79,-56.37C146.67,-53.37 152.06,-50.06 157,-47 168.44,-39.9 181.1,-31.98 191.74,-25.29"/>
<polygon fill="midnightblue" stroke="midnightblue" points="193.9,-28.07 200.5,-19.78 190.17,-22.14 193.9,-28.07"/>
</g>
<!-- Node3&#45;&gt;Node3 -->
<g id="edge11" class="edge">
<title>Node3&#45;&gt;Node3</title>
<path fill="none" stroke="midnightblue" d="M202.82,-131.76C195.92,-140.57 200.65,-150 217,-150 227.22,-150 232.9,-146.31 234.04,-141.4"/>
<polygon fill="midnightblue" stroke="midnightblue" points="237.38,-140.35 231.18,-131.76 230.66,-142.34 237.38,-140.35"/>
</g>
<!-- Node4 -->
<g id="node4" class="node">
<title>Node4</title>
<g id="a_node4"><a xlink:href="metrix_8f90.html#a80c802cda076dd9e7031bc5f9098c175" target="_top" xlink:title="compute guvijsave">
<polygon fill="white" stroke="black" points="277,-150.5 277,-169.5 378,-169.5 378,-150.5 277,-150.5"/>
<text text-anchor="middle" x="327.5" y="-157.5" font-family="Helvetica,sans-Serif" font-size="10.00">compute_guvijsave</text>
</a>
</g>
</g>
<!-- Node3&#45;&gt;Node4 -->
<g id="edge3" class="edge">
<title>Node3&#45;&gt;Node4</title>
<path fill="none" stroke="midnightblue" d="M238.66,-129.24C253.05,-134.28 272.64,-141.14 289.67,-147.1"/>
<polygon fill="midnightblue" stroke="midnightblue" points="288.75,-150.49 299.34,-150.49 291.06,-143.88 288.75,-150.49"/>
</g>
<!-- Node7 -->
<g id="node7" class="node">
<title>Node7</title>
<g id="a_node7"><a xlink:href="basefn_8f90.html#af6a4cad04c70bfb14fd18a3bfbc843a3" target="_top" xlink:title="Get the Chebyshev polynomials with zeroth, first derivatives.">
<polygon fill="white" stroke="black" points="297,-112.5 297,-131.5 358,-131.5 358,-112.5 297,-112.5"/>
<text text-anchor="middle" x="327.5" y="-119.5" font-family="Helvetica,sans-Serif" font-size="10.00">get_cheby</text>
</a>
</g>
</g>
<!-- Node3&#45;&gt;Node7 -->
<g id="edge9" class="edge">
<title>Node3&#45;&gt;Node7</title>
<path fill="none" stroke="midnightblue" d="M238.66,-122C252.18,-122 270.28,-122 286.54,-122"/>
<polygon fill="midnightblue" stroke="midnightblue" points="286.89,-125.5 296.89,-122 286.89,-118.5 286.89,-125.5"/>
</g>
<!-- Node8 -->
<g id="node8" class="node">
<title>Node8</title>
<g id="a_node8"><a xlink:href="basefn_8f90.html#a38dc596fb909186b01dacc1feac03164" target="_top" xlink:title="Get the Zernike polynomials &#160;with zeroth, first derivatives.">
<polygon fill="white" stroke="black" points="294.5,-74.5 294.5,-93.5 360.5,-93.5 360.5,-74.5 294.5,-74.5"/>
<text text-anchor="middle" x="327.5" y="-81.5" font-family="Helvetica,sans-Serif" font-size="10.00">get_zernike</text>
</a>
</g>
</g>
<!-- Node3&#45;&gt;Node8 -->
<g id="edge10" class="edge">
<title>Node3&#45;&gt;Node8</title>
<path fill="none" stroke="midnightblue" d="M238.66,-114.76C253.05,-109.72 272.64,-102.86 289.67,-96.9"/>
<polygon fill="midnightblue" stroke="midnightblue" points="291.06,-100.12 299.34,-93.51 288.75,-93.51 291.06,-100.12"/>
</g>
<!-- Node5 -->
<g id="node5" class="node">
<title>Node5</title>
<g id="a_node5"><a xlink:href="group__grp__geometry.html#gaaca20aa60eaf39055f3c9d5c02a24ac2" target="_top" xlink:title="Calculates coordinates, , and metrics, using FFTs.">
<polygon fill="white" stroke="black" points="414,-150.5 414,-169.5 460,-169.5 460,-150.5 414,-150.5"/>
<text text-anchor="middle" x="437" y="-157.5" font-family="Helvetica,sans-Serif" font-size="10.00">coords</text>
</a>
</g>
</g>
<!-- Node4&#45;&gt;Node5 -->
<g id="edge4" class="edge">
<title>Node4&#45;&gt;Node5</title>
<path fill="none" stroke="midnightblue" d="M378.16,-160C386.88,-160 395.75,-160 403.83,-160"/>
<polygon fill="midnightblue" stroke="midnightblue" points="403.93,-163.5 413.93,-160 403.93,-156.5 403.93,-163.5"/>
</g>
<!-- Node5&#45;&gt;Node5 -->
<g id="edge5" class="edge">
<title>Node5&#45;&gt;Node5</title>
<path fill="none" stroke="midnightblue" d="M424.36,-169.76C418.21,-178.57 422.43,-188 437,-188 445.88,-188 450.91,-184.5 452.1,-179.77"/>
<polygon fill="midnightblue" stroke="midnightblue" points="455.43,-178.63 449.64,-169.76 448.63,-180.3 455.43,-178.63"/>
</g>
<!-- Node6 -->
<g id="node6" class="node">
<title>Node6</title>
<g id="a_node6"><a xlink:href="group__grp__volume.html#gae4c62d20b8fef07f4471b5b0889ab005" target="_top" xlink:title="Computes volume of each region; and, if required, the derivatives of the volume with respect to the i...">
<polygon fill="white" stroke="black" points="496,-150.5 496,-169.5 544,-169.5 544,-150.5 496,-150.5"/>
<text text-anchor="middle" x="520" y="-157.5" font-family="Helvetica,sans-Serif" font-size="10.00">volume</text>
</a>
</g>
</g>
<!-- Node5&#45;&gt;Node6 -->
<g id="edge6" class="edge">
<title>Node5&#45;&gt;Node6</title>
<path fill="none" stroke="midnightblue" d="M460.13,-153.91C467.99,-153.3 477.02,-153.12 485.61,-153.34"/>
<polygon fill="midnightblue" stroke="midnightblue" points="485.61,-156.85 495.76,-153.83 485.94,-149.85 485.61,-156.85"/>
</g>
<!-- Node6&#45;&gt;Node5 -->
<g id="edge7" class="edge">
<title>Node6&#45;&gt;Node5</title>
<path fill="none" stroke="midnightblue" d="M495.76,-166.17C487.8,-166.74 478.74,-166.89 470.19,-166.62"/>
<polygon fill="midnightblue" stroke="midnightblue" points="470.3,-163.12 460.13,-166.09 469.94,-170.11 470.3,-163.12"/>
</g>
<!-- Node6&#45;&gt;Node6 -->
<g id="edge8" class="edge">
<title>Node6&#45;&gt;Node6</title>
<path fill="none" stroke="midnightblue" d="M507.36,-169.76C501.21,-178.57 505.43,-188 520,-188 528.88,-188 533.91,-184.5 535.1,-179.77"/>
<polygon fill="midnightblue" stroke="midnightblue" points="538.43,-178.63 532.64,-169.76 531.63,-180.3 538.43,-178.63"/>
</g>
<!-- Node9&#45;&gt;Node9 -->
<g id="edge13" class="edge">
<title>Node9&#45;&gt;Node9</title>
<path fill="none" stroke="midnightblue" d="M202.82,-75.76C195.92,-84.57 200.65,-94 217,-94 227.22,-94 232.9,-90.31 234.04,-85.4"/>
<polygon fill="midnightblue" stroke="midnightblue" points="237.38,-84.35 231.18,-75.76 230.66,-86.34 237.38,-84.35"/>
</g>
<!-- Node10&#45;&gt;Node10 -->
<g id="edge15" class="edge">
<title>Node10&#45;&gt;Node10</title>
<path fill="none" stroke="midnightblue" d="M202.82,-19.76C195.92,-28.57 200.65,-38 217,-38 227.22,-38 232.9,-34.31 234.04,-29.4"/>
<polygon fill="midnightblue" stroke="midnightblue" points="237.38,-28.35 231.18,-19.76 230.66,-30.34 237.38,-28.35"/>
</g>
</g>
</svg>
