<?xml version="1.0" encoding="UTF-8" standalone="no"?>
<!DOCTYPE svg PUBLIC "-//W3C//DTD SVG 1.1//EN"
 "http://www.w3.org/Graphics/SVG/1.1/DTD/svg11.dtd">
<!-- Generated by graphviz version 2.47.0 (20210316.2052)
 -->
<!-- Title: rungmres Pages: 1 -->
<svg width="552pt" height="180pt"
 viewBox="0.00 0.00 552.00 180.00" xmlns="http://www.w3.org/2000/svg" xmlns:xlink="http://www.w3.org/1999/xlink">
<g id="graph0" class="graph" transform="scale(1 1) rotate(0) translate(4 176)">
<title>rungmres</title>
<polygon fill="white" stroke="transparent" points="-4,4 -4,-176 548,-176 548,4 -4,4"/>
<!-- Node1 -->
<g id="node1" class="node">
<title>Node1</title>
<g id="a_node1"><a xlink:title="run GMRES">
<polygon fill="#bfbfbf" stroke="black" points="0,-19.5 0,-38.5 57,-38.5 57,-19.5 0,-19.5"/>
<text text-anchor="middle" x="28.5" y="-26.5" font-family="Helvetica,sans-Serif" font-size="10.00">rungmres</text>
</a>
</g>
</g>
<!-- Node2 -->
<g id="node2" class="node">
<title>Node2</title>
<g id="a_node2"><a xlink:href="mp00ac_8f90.html#ae9fe335bb4916face9f9d19ce8c0f5d7" target="_top" xlink:title="compute a.x by either by coumputing it directly, or using a matrix free method">
<polygon fill="white" stroke="black" points="100.5,-38.5 100.5,-57.5 149.5,-57.5 149.5,-38.5 100.5,-38.5"/>
<text text-anchor="middle" x="125" y="-45.5" font-family="Helvetica,sans-Serif" font-size="10.00">matvec</text>
</a>
</g>
</g>
<!-- Node1&#45;&gt;Node2 -->
<g id="edge1" class="edge">
<title>Node1&#45;&gt;Node2</title>
<path fill="none" stroke="midnightblue" d="M57.09,-34.55C67.49,-36.64 79.44,-39.04 90.34,-41.23"/>
<polygon fill="midnightblue" stroke="midnightblue" points="89.89,-44.71 100.38,-43.25 91.27,-37.85 89.89,-44.71"/>
</g>
<!-- Node13 -->
<g id="node13" class="node">
<title>Node13</title>
<g id="a_node13"><a xlink:href="mp00ac_8f90.html#a76cda97bf815eb7f40cb76ad1719d809" target="_top" xlink:title="apply the preconditioner">
<polygon fill="white" stroke="black" points="93,-0.5 93,-19.5 157,-19.5 157,-0.5 93,-0.5"/>
<text text-anchor="middle" x="125" y="-7.5" font-family="Helvetica,sans-Serif" font-size="10.00">prec_solve</text>
</a>
</g>
</g>
<!-- Node1&#45;&gt;Node13 -->
<g id="edge14" class="edge">
<title>Node1&#45;&gt;Node13</title>
<path fill="none" stroke="midnightblue" d="M57.09,-23.45C65.15,-21.83 74.15,-20.02 82.86,-18.27"/>
<polygon fill="midnightblue" stroke="midnightblue" points="83.78,-21.66 92.89,-16.25 82.4,-14.79 83.78,-21.66"/>
</g>
<!-- Node3 -->
<g id="node3" class="node">
<title>Node3</title>
<g id="a_node3"><a xlink:href="intghs_8f90.html#a21d3b7106371783302e68297f7797e9f" target="_top" xlink:title="Calculates volume integrals of Chebyshev polynomials and covariant field products.">
<polygon fill="white" stroke="black" points="195.5,-76.5 195.5,-95.5 238.5,-95.5 238.5,-76.5 195.5,-76.5"/>
<text text-anchor="middle" x="217" y="-83.5" font-family="Helvetica,sans-Serif" font-size="10.00">intghs</text>
</a>
</g>
</g>
<!-- Node2&#45;&gt;Node3 -->
<g id="edge2" class="edge">
<title>Node2&#45;&gt;Node3</title>
<path fill="none" stroke="midnightblue" d="M148.71,-57.59C160.05,-62.38 173.92,-68.23 186.11,-73.38"/>
<polygon fill="midnightblue" stroke="midnightblue" points="184.88,-76.66 195.45,-77.32 187.6,-70.21 184.88,-76.66"/>
</g>
<!-- Node11 -->
<g id="node11" class="node">
<title>Node11</title>
<g id="a_node11"><a xlink:href="mtrxhs_8f90.html#a6c22bb4322fbcc29cb17dcc90b56eacd" target="_top" xlink:title="Constructs matrices that represent the Beltrami linear system, matrix&#45;free.">
<polygon fill="white" stroke="black" points="194,-38.5 194,-57.5 240,-57.5 240,-38.5 194,-38.5"/>
<text text-anchor="middle" x="217" y="-45.5" font-family="Helvetica,sans-Serif" font-size="10.00">mtrxhs</text>
</a>
</g>
</g>
<!-- Node2&#45;&gt;Node11 -->
<g id="edge12" class="edge">
<title>Node2&#45;&gt;Node11</title>
<path fill="none" stroke="midnightblue" d="M149.65,-48C159.99,-48 172.29,-48 183.47,-48"/>
<polygon fill="midnightblue" stroke="midnightblue" points="183.75,-51.5 193.75,-48 183.75,-44.5 183.75,-51.5"/>
</g>
<!-- Node12 -->
<g id="node12" class="node">
<title>Node12</title>
<g id="a_node12"><a xlink:href="group__grp__packing.html#gaee2357e570aebf8559e169def6b619dd" target="_top" xlink:title="Packs and unpacks Beltrami field solution vector.">
<polygon fill="white" stroke="black" points="193,-0.5 193,-19.5 241,-19.5 241,-0.5 193,-0.5"/>
<text text-anchor="middle" x="217" y="-7.5" font-family="Helvetica,sans-Serif" font-size="10.00">packab</text>
</a>
</g>
</g>
<!-- Node2&#45;&gt;Node12 -->
<g id="edge13" class="edge">
<title>Node2&#45;&gt;Node12</title>
<path fill="none" stroke="midnightblue" d="M148.71,-38.41C159.37,-33.91 172.26,-28.47 183.9,-23.56"/>
<polygon fill="midnightblue" stroke="midnightblue" points="185.45,-26.7 193.3,-19.59 182.72,-20.25 185.45,-26.7"/>
</g>
<!-- Node4 -->
<g id="node4" class="node">
<title>Node4</title>
<g id="a_node4"><a xlink:href="metrix_8f90.html#a80c802cda076dd9e7031bc5f9098c175" target="_top" xlink:title="compute guvijsave">
<polygon fill="white" stroke="black" points="277,-114.5 277,-133.5 378,-133.5 378,-114.5 277,-114.5"/>
<text text-anchor="middle" x="327.5" y="-121.5" font-family="Helvetica,sans-Serif" font-size="10.00">compute_guvijsave</text>
</a>
</g>
</g>
<!-- Node3&#45;&gt;Node4 -->
<g id="edge3" class="edge">
<title>Node3&#45;&gt;Node4</title>
<path fill="none" stroke="midnightblue" d="M238.66,-93.24C253.05,-98.28 272.64,-105.14 289.67,-111.1"/>
<polygon fill="midnightblue" stroke="midnightblue" points="288.75,-114.49 299.34,-114.49 291.06,-107.88 288.75,-114.49"/>
</g>
<!-- Node6 -->
<g id="node6" class="node">
<title>Node6</title>
<g id="a_node6"><a xlink:href="group__grp__numerics.html#ga1fd52accb0646f535f9bcc46cf5a68f3" target="_top" xlink:title="Inverse Fourier transform (fftw wrapper)">
<polygon fill="white" stroke="black" points="501,-152.5 501,-171.5 539,-171.5 539,-152.5 501,-152.5"/>
<text text-anchor="middle" x="520" y="-159.5" font-family="Helvetica,sans-Serif" font-size="10.00">invfft</text>
</a>
</g>
</g>
<!-- Node3&#45;&gt;Node6 -->
<g id="edge10" class="edge">
<title>Node3&#45;&gt;Node6</title>
<path fill="none" stroke="midnightblue" d="M224.66,-95.75C234.39,-109.1 253.89,-132.59 277,-143 348.65,-175.28 444.32,-170.61 491,-165.7"/>
<polygon fill="midnightblue" stroke="midnightblue" points="491.44,-169.17 500.98,-164.56 490.65,-162.22 491.44,-169.17"/>
</g>
<!-- Node8 -->
<g id="node8" class="node">
<title>Node8</title>
<g id="a_node8"><a xlink:href="basefn_8f90.html#af6a4cad04c70bfb14fd18a3bfbc843a3" target="_top" xlink:title="Get the Chebyshev polynomials with zeroth, first derivatives.">
<polygon fill="white" stroke="black" points="297,-76.5 297,-95.5 358,-95.5 358,-76.5 297,-76.5"/>
<text text-anchor="middle" x="327.5" y="-83.5" font-family="Helvetica,sans-Serif" font-size="10.00">get_cheby</text>
</a>
</g>
</g>
<!-- Node3&#45;&gt;Node8 -->
<g id="edge8" class="edge">
<title>Node3&#45;&gt;Node8</title>
<path fill="none" stroke="midnightblue" d="M238.66,-86C252.18,-86 270.28,-86 286.54,-86"/>
<polygon fill="midnightblue" stroke="midnightblue" points="286.89,-89.5 296.89,-86 286.89,-82.5 286.89,-89.5"/>
</g>
<!-- Node9 -->
<g id="node9" class="node">
<title>Node9</title>
<g id="a_node9"><a xlink:href="basefn_8f90.html#a38dc596fb909186b01dacc1feac03164" target="_top" xlink:title="Get the Zernike polynomials with zeroth, first derivatives.">
<polygon fill="white" stroke="black" points="294.5,-38.5 294.5,-57.5 360.5,-57.5 360.5,-38.5 294.5,-38.5"/>
<text text-anchor="middle" x="327.5" y="-45.5" font-family="Helvetica,sans-Serif" font-size="10.00">get_zernike</text>
</a>
</g>
</g>
<!-- Node3&#45;&gt;Node9 -->
<g id="edge9" class="edge">
<title>Node3&#45;&gt;Node9</title>
<path fill="none" stroke="midnightblue" d="M238.66,-78.76C253.05,-73.72 272.64,-66.86 289.67,-60.9"/>
<polygon fill="midnightblue" stroke="midnightblue" points="291.06,-64.12 299.34,-57.51 288.75,-57.51 291.06,-64.12"/>
</g>
<!-- Node10 -->
<g id="node10" class="node">
<title>Node10</title>
<g id="a_node10"><a xlink:href="group__grp__numerics.html#ga041138109a57e651c57117bb4180409e" target="_top" xlink:title="Forward Fourier transform (fftw wrapper)">
<polygon fill="white" stroke="black" points="313,-0.5 313,-19.5 342,-19.5 342,-0.5 313,-0.5"/>
<text text-anchor="middle" x="327.5" y="-7.5" font-family="Helvetica,sans-Serif" font-size="10.00">tfft</text>
</a>
</g>
</g>
<!-- Node3&#45;&gt;Node10 -->
<g id="edge11" class="edge">
<title>Node3&#45;&gt;Node10</title>
<path fill="none" stroke="midnightblue" d="M230.41,-76.21C233.91,-73.33 237.67,-70.11 241,-67 258,-51.12 257.66,-41.93 277,-29 284.92,-23.7 294.53,-19.58 303.16,-16.56"/>
<polygon fill="midnightblue" stroke="midnightblue" points="304.24,-19.89 312.69,-13.5 302.1,-13.22 304.24,-19.89"/>
</g>
<!-- Node5 -->
<g id="node5" class="node">
<title>Node5</title>
<g id="a_node5"><a xlink:href="group__grp__geometry.html#gaaca20aa60eaf39055f3c9d5c02a24ac2" target="_top" xlink:title="Calculates coordinates, , and metrics, using FFTs.">
<polygon fill="white" stroke="black" points="414,-114.5 414,-133.5 460,-133.5 460,-114.5 414,-114.5"/>
<text text-anchor="middle" x="437" y="-121.5" font-family="Helvetica,sans-Serif" font-size="10.00">coords</text>
</a>
</g>
</g>
<!-- Node4&#45;&gt;Node5 -->
<g id="edge4" class="edge">
<title>Node4&#45;&gt;Node5</title>
<path fill="none" stroke="midnightblue" d="M378.16,-124C386.88,-124 395.75,-124 403.83,-124"/>
<polygon fill="midnightblue" stroke="midnightblue" points="403.93,-127.5 413.93,-124 403.93,-120.5 403.93,-127.5"/>
</g>
<!-- Node5&#45;&gt;Node6 -->
<g id="edge5" class="edge">
<title>Node5&#45;&gt;Node6</title>
<path fill="none" stroke="midnightblue" d="M458.44,-133.59C468.52,-138.32 480.81,-144.08 491.68,-149.18"/>
<polygon fill="midnightblue" stroke="midnightblue" points="490.24,-152.37 500.78,-153.45 493.21,-146.04 490.24,-152.37"/>
</g>
<!-- Node7 -->
<g id="node7" class="node">
<title>Node7</title>
<g id="a_node7"><a xlink:href="group__grp__volume.html#gae4c62d20b8fef07f4471b5b0889ab005" target="_top" xlink:title="Computes volume of each region; and, if required, the derivatives of the volume with respect to the i...">
<polygon fill="white" stroke="black" points="496,-114.5 496,-133.5 544,-133.5 544,-114.5 496,-114.5"/>
<text text-anchor="middle" x="520" y="-121.5" font-family="Helvetica,sans-Serif" font-size="10.00">volume</text>
</a>
</g>
</g>
<!-- Node5&#45;&gt;Node7 -->
<g id="edge6" class="edge">
<title>Node5&#45;&gt;Node7</title>
<path fill="none" stroke="midnightblue" d="M460.13,-117.91C467.99,-117.3 477.02,-117.12 485.61,-117.34"/>
<polygon fill="midnightblue" stroke="midnightblue" points="485.61,-120.85 495.76,-117.83 485.94,-113.85 485.61,-120.85"/>
</g>
<!-- Node7&#45;&gt;Node5 -->
<g id="edge7" class="edge">
<title>Node7&#45;&gt;Node5</title>
<path fill="none" stroke="midnightblue" d="M495.76,-130.17C487.8,-130.74 478.74,-130.89 470.19,-130.62"/>
<polygon fill="midnightblue" stroke="midnightblue" points="470.3,-127.12 460.13,-130.09 469.94,-134.11 470.3,-127.12"/>
</g>
</g>
</svg>
