<?xml version="1.0" encoding="UTF-8" standalone="no"?>
<!DOCTYPE svg PUBLIC "-//W3C//DTD SVG 1.1//EN"
 "http://www.w3.org/Graphics/SVG/1.1/DTD/svg11.dtd">
<!-- Generated by graphviz version 2.47.1 (20210421.1823)
 -->
<!-- Title: matvec Pages: 1 -->
<svg width="444pt" height="180pt"
 viewBox="0.00 0.00 444.00 180.00" xmlns="http://www.w3.org/2000/svg" xmlns:xlink="http://www.w3.org/1999/xlink">
<g id="graph0" class="graph" transform="scale(1 1) rotate(0) translate(4 176)">
<title>matvec</title>
<polygon fill="white" stroke="transparent" points="-4,4 -4,-176 440,-176 440,4 -4,4"/>
<!-- Node1 -->
<g id="node1" class="node">
<title>Node1</title>
<g id="a_node1"><a xlink:title="compute a.x by either by coumputing it directly, or using a matrix free method">
<polygon fill="#bfbfbf" stroke="black" points="0,-38.5 0,-57.5 49,-57.5 49,-38.5 0,-38.5"/>
<text text-anchor="middle" x="24.5" y="-45.5" font-family="Helvetica,sans-Serif" font-size="10.00">matvec</text>
</a>
</g>
</g>
<!-- Node2 -->
<g id="node2" class="node">
<title>Node2</title>
<g id="a_node2"><a xlink:href="intghs_8f90.html#a21d3b7106371783302e68297f7797e9f" target="_top" xlink:title="Calculates volume integrals of Chebyshev polynomials and covariant field products.">
<polygon fill="white" stroke="black" points="87.5,-76.5 87.5,-95.5 130.5,-95.5 130.5,-76.5 87.5,-76.5"/>
<text text-anchor="middle" x="109" y="-83.5" font-family="Helvetica,sans-Serif" font-size="10.00">intghs</text>
</a>
</g>
</g>
<!-- Node1&#45;&gt;Node2 -->
<g id="edge1" class="edge">
<title>Node1&#45;&gt;Node2</title>
<path fill="none" stroke="midnightblue" d="M46.32,-57.59C55.97,-62.03 67.61,-67.4 78.17,-72.26"/>
<polygon fill="midnightblue" stroke="midnightblue" points="76.93,-75.54 87.47,-76.55 79.86,-69.18 76.93,-75.54"/>
</g>
<!-- Node10 -->
<g id="node10" class="node">
<title>Node10</title>
<g id="a_node10"><a xlink:href="group__grp__build__matrices.html#ga6c22bb4322fbcc29cb17dcc90b56eacd" target="_top" xlink:title="Constructs matrices that represent the Beltrami linear system, matrix&#45;free.">
<polygon fill="white" stroke="black" points="86,-38.5 86,-57.5 132,-57.5 132,-38.5 86,-38.5"/>
<text text-anchor="middle" x="109" y="-45.5" font-family="Helvetica,sans-Serif" font-size="10.00">mtrxhs</text>
</a>
</g>
</g>
<!-- Node1&#45;&gt;Node10 -->
<g id="edge11" class="edge">
<title>Node1&#45;&gt;Node10</title>
<path fill="none" stroke="midnightblue" d="M49.36,-48C57.55,-48 66.86,-48 75.6,-48"/>
<polygon fill="midnightblue" stroke="midnightblue" points="75.89,-51.5 85.89,-48 75.89,-44.5 75.89,-51.5"/>
</g>
<!-- Node11 -->
<g id="node11" class="node">
<title>Node11</title>
<g id="a_node11"><a xlink:href="group__grp__packing.html#gaee2357e570aebf8559e169def6b619dd" target="_top" xlink:title="Packs and unpacks Beltrami field solution vector.">
<polygon fill="white" stroke="black" points="85,-0.5 85,-19.5 133,-19.5 133,-0.5 85,-0.5"/>
<text text-anchor="middle" x="109" y="-7.5" font-family="Helvetica,sans-Serif" font-size="10.00">packab</text>
</a>
</g>
</g>
<!-- Node1&#45;&gt;Node11 -->
<g id="edge12" class="edge">
<title>Node1&#45;&gt;Node11</title>
<path fill="none" stroke="midnightblue" d="M46.32,-38.41C55.89,-34 67.43,-28.69 77.93,-23.85"/>
<polygon fill="midnightblue" stroke="midnightblue" points="79.57,-26.95 87.19,-19.59 76.64,-20.59 79.57,-26.95"/>
</g>
<!-- Node3 -->
<g id="node3" class="node">
<title>Node3</title>
<g id="a_node3"><a xlink:href="metrix_8f90.html#a80c802cda076dd9e7031bc5f9098c175" target="_top" xlink:title="compute guvijsave">
<polygon fill="white" stroke="black" points="169,-114.5 169,-133.5 270,-133.5 270,-114.5 169,-114.5"/>
<text text-anchor="middle" x="219.5" y="-121.5" font-family="Helvetica,sans-Serif" font-size="10.00">compute_guvijsave</text>
</a>
</g>
</g>
<!-- Node2&#45;&gt;Node3 -->
<g id="edge2" class="edge">
<title>Node2&#45;&gt;Node3</title>
<path fill="none" stroke="midnightblue" d="M130.66,-93.24C145.05,-98.28 164.64,-105.14 181.67,-111.1"/>
<polygon fill="midnightblue" stroke="midnightblue" points="180.75,-114.49 191.34,-114.49 183.06,-107.88 180.75,-114.49"/>
</g>
<!-- Node5 -->
<g id="node5" class="node">
<title>Node5</title>
<g id="a_node5"><a xlink:href="group__grp__numerics.html#ga1fd52accb0646f535f9bcc46cf5a68f3" target="_top" xlink:title="Inverse Fourier transform (fftw wrapper)">
<polygon fill="white" stroke="black" points="393,-152.5 393,-171.5 431,-171.5 431,-152.5 393,-152.5"/>
<text text-anchor="middle" x="412" y="-159.5" font-family="Helvetica,sans-Serif" font-size="10.00">invfft</text>
</a>
</g>
</g>
<!-- Node2&#45;&gt;Node5 -->
<g id="edge9" class="edge">
<title>Node2&#45;&gt;Node5</title>
<path fill="none" stroke="midnightblue" d="M116.66,-95.75C126.39,-109.1 145.89,-132.59 169,-143 240.65,-175.28 336.32,-170.61 383,-165.7"/>
<polygon fill="midnightblue" stroke="midnightblue" points="383.44,-169.17 392.98,-164.56 382.65,-162.22 383.44,-169.17"/>
</g>
<!-- Node7 -->
<g id="node7" class="node">
<title>Node7</title>
<g id="a_node7"><a xlink:href="basefn_8f90.html#af6a4cad04c70bfb14fd18a3bfbc843a3" target="_top" xlink:title="Get the Chebyshev polynomials with zeroth, first derivatives.">
<polygon fill="white" stroke="black" points="189,-76.5 189,-95.5 250,-95.5 250,-76.5 189,-76.5"/>
<text text-anchor="middle" x="219.5" y="-83.5" font-family="Helvetica,sans-Serif" font-size="10.00">get_cheby</text>
</a>
</g>
</g>
<!-- Node2&#45;&gt;Node7 -->
<g id="edge7" class="edge">
<title>Node2&#45;&gt;Node7</title>
<path fill="none" stroke="midnightblue" d="M130.66,-86C144.18,-86 162.28,-86 178.54,-86"/>
<polygon fill="midnightblue" stroke="midnightblue" points="178.89,-89.5 188.89,-86 178.89,-82.5 178.89,-89.5"/>
</g>
<!-- Node8 -->
<g id="node8" class="node">
<title>Node8</title>
<g id="a_node8"><a xlink:href="basefn_8f90.html#a38dc596fb909186b01dacc1feac03164" target="_top" xlink:title="Get the Zernike polynomials &#160;with zeroth, first derivatives.">
<polygon fill="white" stroke="black" points="186.5,-38.5 186.5,-57.5 252.5,-57.5 252.5,-38.5 186.5,-38.5"/>
<text text-anchor="middle" x="219.5" y="-45.5" font-family="Helvetica,sans-Serif" font-size="10.00">get_zernike</text>
</a>
</g>
</g>
<!-- Node2&#45;&gt;Node8 -->
<g id="edge8" class="edge">
<title>Node2&#45;&gt;Node8</title>
<path fill="none" stroke="midnightblue" d="M130.66,-78.76C145.05,-73.72 164.64,-66.86 181.67,-60.9"/>
<polygon fill="midnightblue" stroke="midnightblue" points="183.06,-64.12 191.34,-57.51 180.75,-57.51 183.06,-64.12"/>
</g>
<!-- Node9 -->
<g id="node9" class="node">
<title>Node9</title>
<g id="a_node9"><a xlink:href="group__grp__numerics.html#ga041138109a57e651c57117bb4180409e" target="_top" xlink:title="Forward Fourier transform (fftw wrapper)">
<polygon fill="white" stroke="black" points="205,-0.5 205,-19.5 234,-19.5 234,-0.5 205,-0.5"/>
<text text-anchor="middle" x="219.5" y="-7.5" font-family="Helvetica,sans-Serif" font-size="10.00">tfft</text>
</a>
</g>
</g>
<!-- Node2&#45;&gt;Node9 -->
<g id="edge10" class="edge">
<title>Node2&#45;&gt;Node9</title>
<path fill="none" stroke="midnightblue" d="M122.41,-76.21C125.91,-73.33 129.67,-70.11 133,-67 150,-51.12 149.66,-41.93 169,-29 176.92,-23.7 186.53,-19.58 195.16,-16.56"/>
<polygon fill="midnightblue" stroke="midnightblue" points="196.24,-19.89 204.69,-13.5 194.1,-13.22 196.24,-19.89"/>
</g>
<!-- Node4 -->
<g id="node4" class="node">
<title>Node4</title>
<g id="a_node4"><a xlink:href="group__grp__geometry.html#gaaca20aa60eaf39055f3c9d5c02a24ac2" target="_top" xlink:title="Calculates coordinates, , and metrics, using FFTs.">
<polygon fill="white" stroke="black" points="306,-114.5 306,-133.5 352,-133.5 352,-114.5 306,-114.5"/>
<text text-anchor="middle" x="329" y="-121.5" font-family="Helvetica,sans-Serif" font-size="10.00">coords</text>
</a>
</g>
</g>
<!-- Node3&#45;&gt;Node4 -->
<g id="edge3" class="edge">
<title>Node3&#45;&gt;Node4</title>
<path fill="none" stroke="midnightblue" d="M270.16,-124C278.88,-124 287.75,-124 295.83,-124"/>
<polygon fill="midnightblue" stroke="midnightblue" points="295.93,-127.5 305.93,-124 295.93,-120.5 295.93,-127.5"/>
</g>
<!-- Node4&#45;&gt;Node5 -->
<g id="edge4" class="edge">
<title>Node4&#45;&gt;Node5</title>
<path fill="none" stroke="midnightblue" d="M350.44,-133.59C360.52,-138.32 372.81,-144.08 383.68,-149.18"/>
<polygon fill="midnightblue" stroke="midnightblue" points="382.24,-152.37 392.78,-153.45 385.21,-146.04 382.24,-152.37"/>
</g>
<!-- Node6 -->
<g id="node6" class="node">
<title>Node6</title>
<g id="a_node6"><a xlink:href="group__grp__volume.html#gae4c62d20b8fef07f4471b5b0889ab005" target="_top" xlink:title="Computes volume of each region; and, if required, the derivatives of the volume with respect to the i...">
<polygon fill="white" stroke="black" points="388,-114.5 388,-133.5 436,-133.5 436,-114.5 388,-114.5"/>
<text text-anchor="middle" x="412" y="-121.5" font-family="Helvetica,sans-Serif" font-size="10.00">volume</text>
</a>
</g>
</g>
<!-- Node4&#45;&gt;Node6 -->
<g id="edge5" class="edge">
<title>Node4&#45;&gt;Node6</title>
<path fill="none" stroke="midnightblue" d="M352.13,-117.91C359.99,-117.3 369.02,-117.12 377.61,-117.34"/>
<polygon fill="midnightblue" stroke="midnightblue" points="377.61,-120.85 387.76,-117.83 377.94,-113.85 377.61,-120.85"/>
</g>
<!-- Node6&#45;&gt;Node4 -->
<g id="edge6" class="edge">
<title>Node6&#45;&gt;Node4</title>
<path fill="none" stroke="midnightblue" d="M387.76,-130.17C379.8,-130.74 370.74,-130.89 362.19,-130.62"/>
<polygon fill="midnightblue" stroke="midnightblue" points="362.3,-127.12 352.13,-130.09 361.94,-134.11 362.3,-127.12"/>
</g>
</g>
</svg>
