<?xml version="1.0" encoding="UTF-8" standalone="no"?>
<!DOCTYPE svg PUBLIC "-//W3C//DTD SVG 1.1//EN"
 "http://www.w3.org/Graphics/SVG/1.1/DTD/svg11.dtd">
<!-- Generated by graphviz version 2.44.0 ()
 -->
<!-- Title: mtrxhs Pages: 1 -->
<svg width="1193pt" height="380pt"
 viewBox="0.00 0.00 1193.00 380.00" xmlns="http://www.w3.org/2000/svg" xmlns:xlink="http://www.w3.org/1999/xlink">
<g id="graph0" class="graph" transform="scale(1 1) rotate(0) translate(4 376)">
<title>mtrxhs</title>
<polygon fill="white" stroke="transparent" points="-4,4 -4,-376 1189,-376 1189,4 -4,4"/>
<!-- Node1 -->
<g id="node1" class="node">
<title>Node1</title>
<g id="a_node1"><a xlink:title="Constructs matrices that represent the Beltrami linear system, matrix&#45;free.">
<polygon fill="#bfbfbf" stroke="black" points="1139,-256.5 1139,-275.5 1185,-275.5 1185,-256.5 1139,-256.5"/>
<text text-anchor="middle" x="1162" y="-263.5" font-family="Helvetica,sans-Serif" font-size="10.00">mtrxhs</text>
</a>
</g>
</g>
<!-- Node2 -->
<g id="node2" class="node">
<title>Node2</title>
<g id="a_node2"><a xlink:href="dfp200_8f90.html#a5e56f1f4b1e6df11a9cffa6237c37469" target="_top" xlink:title="This routine evaluates the value of the magnetic field once the interface is perturbed using matrix p...">
<polygon fill="white" stroke="black" points="723,-294.5 723,-313.5 838,-313.5 838,-294.5 723,-294.5"/>
<text text-anchor="middle" x="780.5" y="-301.5" font-family="Helvetica,sans-Serif" font-size="10.00">get_perturbed_solution</text>
</a>
</g>
</g>
<!-- Node1&#45;&gt;Node2 -->
<g id="edge1" class="edge">
<title>Node1&#45;&gt;Node2</title>
<path fill="none" stroke="midnightblue" d="M1128.62,-271.4C1120.28,-272.69 1111.32,-273.98 1103,-275 1010.52,-286.33 902.57,-295.18 838.24,-299.99"/>
<polygon fill="midnightblue" stroke="midnightblue" points="1129.41,-274.82 1138.74,-269.8 1128.31,-267.9 1129.41,-274.82"/>
</g>
<!-- Node19 -->
<g id="node19" class="node">
<title>Node19</title>
<g id="a_node19"><a xlink:href="mp00ac_8f90.html#ae9fe335bb4916face9f9d19ce8c0f5d7" target="_top" xlink:title="compute a.x by either by coumputing it directly, or using a matrix free method">
<polygon fill="white" stroke="black" points="1054,-218.5 1054,-237.5 1103,-237.5 1103,-218.5 1054,-218.5"/>
<text text-anchor="middle" x="1078.5" y="-225.5" font-family="Helvetica,sans-Serif" font-size="10.00">matvec</text>
</a>
</g>
</g>
<!-- Node1&#45;&gt;Node19 -->
<g id="edge35" class="edge">
<title>Node1&#45;&gt;Node19</title>
<path fill="none" stroke="midnightblue" d="M1131.29,-252.15C1120.92,-247.31 1109.52,-242 1100.06,-237.59"/>
<polygon fill="midnightblue" stroke="midnightblue" points="1129.89,-255.36 1140.43,-256.41 1132.85,-249.01 1129.89,-255.36"/>
</g>
<!-- Node21 -->
<g id="node21" class="node">
<title>Node21</title>
<g id="a_node21"><a xlink:href="group__grp__solver.html#ga6626839aff500f060beb5bce2b90c447" target="_top" xlink:title="Solves Beltrami/vacuum (linear) system, given matrices.unpacking fluxes, helicity multiplier">
<polygon fill="white" stroke="black" points="874,-218.5 874,-237.5 925,-237.5 925,-218.5 874,-218.5"/>
<text text-anchor="middle" x="899.5" y="-225.5" font-family="Helvetica,sans-Serif" font-size="10.00">mp00ac</text>
</a>
</g>
</g>
<!-- Node1&#45;&gt;Node21 -->
<g id="edge42" class="edge">
<title>Node1&#45;&gt;Node21</title>
<path fill="none" stroke="midnightblue" d="M1128.72,-265.01C1088.92,-263.32 1019.4,-258.81 961,-247 949.02,-244.58 936.06,-240.68 925.21,-237.05"/>
<polygon fill="midnightblue" stroke="midnightblue" points="1128.75,-268.52 1138.88,-265.41 1129.02,-261.52 1128.75,-268.52"/>
</g>
<!-- Node3 -->
<g id="node3" class="node">
<title>Node3</title>
<g id="a_node3"><a xlink:href="dfp200_8f90.html#a55ea75395f8c71731451e1add3720c7e" target="_top" xlink:title="Given the field consistent with the constraints and the geometry, computes local quantites related to...">
<polygon fill="white" stroke="black" points="641,-294.5 641,-313.5 687,-313.5 687,-294.5 641,-294.5"/>
<text text-anchor="middle" x="664" y="-301.5" font-family="Helvetica,sans-Serif" font-size="10.00">dfp200</text>
</a>
</g>
</g>
<!-- Node2&#45;&gt;Node3 -->
<g id="edge2" class="edge">
<title>Node2&#45;&gt;Node3</title>
<path fill="none" stroke="midnightblue" d="M712.81,-297.33C703.57,-297.49 694.67,-297.9 687.11,-298.54"/>
<polygon fill="midnightblue" stroke="midnightblue" points="712.95,-300.83 722.92,-297.25 712.89,-293.83 712.95,-300.83"/>
</g>
<!-- Node3&#45;&gt;Node2 -->
<g id="edge34" class="edge">
<title>Node3&#45;&gt;Node2</title>
<path fill="none" stroke="midnightblue" d="M697.14,-310.14C705.19,-310.56 714.07,-310.76 722.92,-310.75"/>
<polygon fill="midnightblue" stroke="midnightblue" points="697.32,-306.64 687.11,-309.46 696.85,-313.62 697.32,-306.64"/>
</g>
<!-- Node4 -->
<g id="node4" class="node">
<title>Node4</title>
<g id="a_node4"><a xlink:href="group__grp__global__force.html#ga38c9d3c50bd043707fefa5137c9dbf44" target="_top" xlink:title="Calculates , where &#160;and , and .">
<polygon fill="white" stroke="black" points="535.5,-218.5 535.5,-237.5 579.5,-237.5 579.5,-218.5 535.5,-218.5"/>
<text text-anchor="middle" x="557.5" y="-225.5" font-family="Helvetica,sans-Serif" font-size="10.00">dforce</text>
</a>
</g>
</g>
<!-- Node3&#45;&gt;Node4 -->
<g id="edge3" class="edge">
<title>Node3&#45;&gt;Node4</title>
<path fill="none" stroke="midnightblue" d="M648.56,-286.55C637.62,-274.21 621.67,-257.98 605,-247 597.28,-241.92 587.98,-237.78 579.73,-234.69"/>
<polygon fill="midnightblue" stroke="midnightblue" points="646.1,-289.06 655.27,-294.36 651.4,-284.5 646.1,-289.06"/>
</g>
<!-- Node11 -->
<g id="node11" class="node">
<title>Node11</title>
<g id="a_node11"><a xlink:href="dfp200_8f90.html#a6aca59cf350d7b1941f8389d50945a43" target="_top" xlink:title="get LU Beltrami matrices">
<polygon fill="white" stroke="black" points="349,-352.5 349,-371.5 474,-371.5 474,-352.5 349,-352.5"/>
<text text-anchor="middle" x="411.5" y="-359.5" font-family="Helvetica,sans-Serif" font-size="10.00">get_lu_beltrami_matrices</text>
</a>
</g>
</g>
<!-- Node3&#45;&gt;Node11 -->
<g id="edge33" class="edge">
<title>Node3&#45;&gt;Node11</title>
<path fill="none" stroke="midnightblue" d="M631.04,-306.52C622.63,-308.96 613.52,-311.75 605,-314 544.67,-329.94 472.22,-343.02 435.81,-352.47"/>
<polygon fill="midnightblue" stroke="midnightblue" points="632.18,-309.83 640.87,-303.78 630.3,-303.09 632.18,-309.83"/>
</g>
<!-- Node17 -->
<g id="node17" class="node">
<title>Node17</title>
<g id="a_node17"><a xlink:href="dfp200_8f90.html#a9838f042d6611c01771ed68beb77fc6b" target="_top" xlink:title="Evaluate the derivative of the square of the magnetic field modulus. Add spectral constraint derivati...">
<polygon fill="white" stroke="black" points="520.5,-294.5 520.5,-313.5 594.5,-313.5 594.5,-294.5 520.5,-294.5"/>
<text text-anchor="middle" x="557.5" y="-301.5" font-family="Helvetica,sans-Serif" font-size="10.00">evaluate_dbb</text>
</a>
</g>
</g>
<!-- Node3&#45;&gt;Node17 -->
<g id="edge29" class="edge">
<title>Node3&#45;&gt;Node17</title>
<path fill="none" stroke="midnightblue" d="M630.82,-297.71C619.36,-297.16 606.38,-297.1 594.61,-297.54"/>
<polygon fill="midnightblue" stroke="midnightblue" points="630.63,-301.21 640.84,-298.36 631.09,-294.22 630.63,-301.21"/>
</g>
<!-- Node18 -->
<g id="node18" class="node">
<title>Node18</title>
<g id="a_node18"><a xlink:href="dfp200_8f90.html#a73ddf39ecc5228201fb643779e17cd36" target="_top" xlink:title="Evaluate mu and psip derivatives and store them in dmupfdx.">
<polygon fill="white" stroke="black" points="510,-256.5 510,-275.5 605,-275.5 605,-256.5 510,-256.5"/>
<text text-anchor="middle" x="557.5" y="-263.5" font-family="Helvetica,sans-Serif" font-size="10.00">evaluate_dmupfdx</text>
</a>
</g>
</g>
<!-- Node3&#45;&gt;Node18 -->
<g id="edge31" class="edge">
<title>Node3&#45;&gt;Node18</title>
<path fill="none" stroke="midnightblue" d="M640.21,-290.03C629.42,-285.23 616.13,-280.06 603.43,-275.65"/>
<polygon fill="midnightblue" stroke="midnightblue" points="638.8,-293.23 649.34,-294.3 641.77,-286.89 638.8,-293.23"/>
</g>
<!-- Node5 -->
<g id="node5" class="node">
<title>Node5</title>
<g id="a_node5"><a xlink:href="group__grp__force__driver.html#gabbc245b3884ee8d8d3e2a52f25149f78" target="_top" xlink:title="fcn1">
<polygon fill="white" stroke="black" points="394,-237.5 394,-256.5 429,-256.5 429,-237.5 394,-237.5"/>
<text text-anchor="middle" x="411.5" y="-244.5" font-family="Helvetica,sans-Serif" font-size="10.00">fcn1</text>
</a>
</g>
</g>
<!-- Node4&#45;&gt;Node5 -->
<g id="edge4" class="edge">
<title>Node4&#45;&gt;Node5</title>
<path fill="none" stroke="midnightblue" d="M525.08,-232.15C495.64,-236.03 452.77,-241.69 429.34,-244.78"/>
<polygon fill="midnightblue" stroke="midnightblue" points="525.8,-235.58 535.25,-230.8 524.88,-228.64 525.8,-235.58"/>
</g>
<!-- Node6 -->
<g id="node6" class="node">
<title>Node6</title>
<g id="a_node6"><a xlink:href="group__grp__force__driver.html#gaec14f81fbdbedafbc4189489ec8ae178" target="_top" xlink:title="Employs Newton method to find , where &#160;and &#160;is defined in dforce() .">
<polygon fill="white" stroke="black" points="265,-237.5 265,-256.5 313,-256.5 313,-237.5 265,-237.5"/>
<text text-anchor="middle" x="289" y="-244.5" font-family="Helvetica,sans-Serif" font-size="10.00">newton</text>
</a>
</g>
</g>
<!-- Node4&#45;&gt;Node6 -->
<g id="edge20" class="edge">
<title>Node4&#45;&gt;Node6</title>
<path fill="none" stroke="midnightblue" d="M525.3,-225C484.49,-221.77 410.91,-218.28 349,-228 336.88,-229.9 323.86,-233.88 313.13,-237.7"/>
<polygon fill="midnightblue" stroke="midnightblue" points="525.16,-228.51 535.42,-225.86 525.75,-221.53 525.16,-228.51"/>
</g>
<!-- Node7 -->
<g id="node7" class="node">
<title>Node7</title>
<g id="a_node7"><a xlink:href="group__grp__force__driver.html#ga8ccd6c7d901872702521d0a0edf95412" target="_top" xlink:title="fcn2">
<polygon fill="white" stroke="black" points="87,-260.5 87,-279.5 122,-279.5 122,-260.5 87,-260.5"/>
<text text-anchor="middle" x="104.5" y="-267.5" font-family="Helvetica,sans-Serif" font-size="10.00">fcn2</text>
</a>
</g>
</g>
<!-- Node4&#45;&gt;Node7 -->
<g id="edge15" class="edge">
<title>Node4&#45;&gt;Node7</title>
<path fill="none" stroke="midnightblue" d="M526.05,-239.94C520.66,-242.2 515.14,-244.6 510,-247 493.61,-254.65 491.07,-260.01 474,-266 369.38,-302.72 339.38,-302.51 229,-313 200.24,-315.73 191.45,-322 164,-313 144.12,-306.48 125.42,-290.33 114.74,-279.79"/>
<polygon fill="midnightblue" stroke="midnightblue" points="527.55,-243.11 535.48,-236.08 524.9,-236.63 527.55,-243.11"/>
</g>
<!-- Node9 -->
<g id="node9" class="node">
<title>Node9</title>
<g id="a_node9"><a xlink:href="xspech_8f90.html#aea782eae089760a491c2c54f9903abcc" target="_top" xlink:title="Main program of SPEC.">
<polygon fill="white" stroke="black" points="81,-114.5 81,-133.5 128,-133.5 128,-114.5 81,-114.5"/>
<text text-anchor="middle" x="104.5" y="-121.5" font-family="Helvetica,sans-Serif" font-size="10.00">xspech</text>
</a>
</g>
</g>
<!-- Node4&#45;&gt;Node9 -->
<g id="edge28" class="edge">
<title>Node4&#45;&gt;Node9</title>
<path fill="none" stroke="midnightblue" d="M525.38,-220.97C458.95,-205.94 298.39,-169.49 164,-138 152.21,-135.24 139.09,-132.1 128.27,-129.5"/>
<polygon fill="midnightblue" stroke="midnightblue" points="524.68,-224.4 535.21,-223.19 526.23,-217.57 524.68,-224.4"/>
</g>
<!-- Node4&#45;&gt;Node11 -->
<g id="edge16" class="edge">
<title>Node4&#45;&gt;Node11</title>
<path fill="none" stroke="midnightblue" d="M525.75,-236.44C519.99,-239.1 514.4,-242.55 510,-247 479.42,-277.93 504.83,-307.32 474,-338 467.66,-344.31 459.48,-349 451.16,-352.47"/>
<polygon fill="midnightblue" stroke="midnightblue" points="527.38,-239.57 535.43,-232.68 524.84,-233.04 527.38,-239.57"/>
</g>
<!-- Node12 -->
<g id="node12" class="node">
<title>Node12</title>
<g id="a_node12"><a xlink:href="group__grp__diagnostics.html#ga7401b50ec10c6598ee4a8112717a63ec" target="_top" xlink:title="Computes eigenvalues and eigenvectors of derivative matrix, .">
<polygon fill="white" stroke="black" points="174,-38.5 174,-57.5 219,-57.5 219,-38.5 174,-38.5"/>
<text text-anchor="middle" x="196.5" y="-45.5" font-family="Helvetica,sans-Serif" font-size="10.00">hesian</text>
</a>
</g>
</g>
<!-- Node4&#45;&gt;Node12 -->
<g id="edge18" class="edge">
<title>Node4&#45;&gt;Node12</title>
<path fill="none" stroke="midnightblue" d="M549.06,-208.89C537.38,-181.46 512.05,-131.36 474,-105 393.02,-48.9 268.75,-45.75 219.09,-46.99"/>
<polygon fill="midnightblue" stroke="midnightblue" points="545.84,-210.26 552.87,-218.19 552.32,-207.61 545.84,-210.26"/>
</g>
<!-- Node13 -->
<g id="node13" class="node">
<title>Node13</title>
<g id="a_node13"><a xlink:href="group__grp__conjugate__gradient.html#ga4d8415226e62a9fdb42b0fd0b464251e" target="_top" xlink:title="Returns the energy functional and it&#39;s derivatives with respect to geometry.">
<polygon fill="white" stroke="black" points="387.5,-0.5 387.5,-19.5 435.5,-19.5 435.5,-0.5 387.5,-0.5"/>
<text text-anchor="middle" x="411.5" y="-7.5" font-family="Helvetica,sans-Serif" font-size="10.00">pc00ab</text>
</a>
</g>
</g>
<!-- Node4&#45;&gt;Node13 -->
<g id="edge21" class="edge">
<title>Node4&#45;&gt;Node13</title>
<path fill="none" stroke="midnightblue" d="M553.38,-208.54C546.23,-170.05 525.16,-83.64 474,-34 463.55,-23.86 448.34,-17.88 435.65,-14.42"/>
<polygon fill="midnightblue" stroke="midnightblue" points="549.94,-209.2 555.11,-218.45 556.84,-208 549.94,-209.2"/>
</g>
<!-- Node15 -->
<g id="node15" class="node">
<title>Node15</title>
<g id="a_node15"><a xlink:href="namespaceallglobal.html#ad32ae6194892fe7d876622a6455189e2" target="_top" xlink:title="The master node reads the input namelist and sets various internal variables. The relevant quantities...">
<polygon fill="white" stroke="black" points="370,-114.5 370,-133.5 453,-133.5 453,-114.5 370,-114.5"/>
<text text-anchor="middle" x="411.5" y="-121.5" font-family="Helvetica,sans-Serif" font-size="10.00">allglobal::readin</text>
</a>
</g>
</g>
<!-- Node4&#45;&gt;Node15 -->
<g id="edge23" class="edge">
<title>Node4&#45;&gt;Node15</title>
<path fill="none" stroke="midnightblue" d="M542.17,-210.48C526.87,-192.72 501.12,-165.42 474,-148 464.84,-142.11 454.01,-137.29 444.01,-133.55"/>
<polygon fill="midnightblue" stroke="midnightblue" points="539.69,-212.97 548.81,-218.36 545.04,-208.45 539.69,-212.97"/>
</g>
<!-- Node5&#45;&gt;Node6 -->
<g id="edge5" class="edge">
<title>Node5&#45;&gt;Node6</title>
<path fill="none" stroke="midnightblue" d="M383.51,-241.26C362.38,-239.82 333.31,-239.92 313.22,-241.54"/>
<polygon fill="midnightblue" stroke="midnightblue" points="383.48,-244.77 393.74,-242.16 384.09,-237.8 383.48,-244.77"/>
</g>
<!-- Node6&#45;&gt;Node5 -->
<g id="edge6" class="edge">
<title>Node6&#45;&gt;Node5</title>
<path fill="none" stroke="midnightblue" d="M323.21,-253.11C346.11,-254.27 375.58,-253.85 393.74,-251.84"/>
<polygon fill="midnightblue" stroke="midnightblue" points="323.42,-249.61 313.22,-252.46 322.97,-256.6 323.42,-249.61"/>
</g>
<!-- Node6&#45;&gt;Node7 -->
<g id="edge7" class="edge">
<title>Node6&#45;&gt;Node7</title>
<path fill="none" stroke="midnightblue" d="M254.78,-245.84C215.66,-248.55 152.21,-256.96 122.22,-263.79"/>
<polygon fill="midnightblue" stroke="midnightblue" points="255.11,-249.32 264.89,-245.24 254.7,-242.34 255.11,-249.32"/>
</g>
<!-- Node8 -->
<g id="node8" class="node">
<title>Node8</title>
<g id="a_node8"><a xlink:href="group__grp__force__driver.html#ga382822b303cbf8c56d6f54dcb379caf2" target="_top" xlink:title="read or write force&#45;derivative matrix">
<polygon fill="white" stroke="black" points="164,-284.5 164,-303.5 229,-303.5 229,-284.5 164,-284.5"/>
<text text-anchor="middle" x="196.5" y="-291.5" font-family="Helvetica,sans-Serif" font-size="10.00">writereadgf</text>
</a>
</g>
</g>
<!-- Node6&#45;&gt;Node8 -->
<g id="edge9" class="edge">
<title>Node6&#45;&gt;Node8</title>
<path fill="none" stroke="midnightblue" d="M255.18,-257.53C238.41,-265.6 219.16,-276.28 207.68,-284.25"/>
<polygon fill="midnightblue" stroke="midnightblue" points="257.09,-260.5 264.69,-253.12 254.15,-254.15 257.09,-260.5"/>
</g>
<!-- Node6&#45;&gt;Node9 -->
<g id="edge12" class="edge">
<title>Node6&#45;&gt;Node9</title>
<path fill="none" stroke="midnightblue" d="M259.1,-232.63C233.29,-219.3 194.9,-198.21 164,-176 145.68,-162.83 126.52,-144.88 115.32,-133.88"/>
<polygon fill="midnightblue" stroke="midnightblue" points="257.84,-235.92 268.34,-237.35 261.02,-229.68 257.84,-235.92"/>
</g>
<!-- Node7&#45;&gt;Node6 -->
<g id="edge8" class="edge">
<title>Node7&#45;&gt;Node6</title>
<path fill="none" stroke="midnightblue" d="M132.41,-271.56C168.26,-269.53 231.07,-261.52 264.89,-254.59"/>
<polygon fill="midnightblue" stroke="midnightblue" points="132.06,-268.07 122.22,-271.99 132.36,-275.07 132.06,-268.07"/>
</g>
<!-- Node8&#45;&gt;Node6 -->
<g id="edge11" class="edge">
<title>Node8&#45;&gt;Node6</title>
<path fill="none" stroke="midnightblue" d="M237.61,-279.88C252.5,-272.37 268.14,-263.49 277.97,-256.64"/>
<polygon fill="midnightblue" stroke="midnightblue" points="235.94,-276.8 228.5,-284.35 239.02,-283.09 235.94,-276.8"/>
</g>
<!-- Node8&#45;&gt;Node7 -->
<g id="edge10" class="edge">
<title>Node8&#45;&gt;Node7</title>
<path fill="none" stroke="midnightblue" d="M153.99,-282.93C142.69,-279.92 131.09,-276.82 122.07,-274.42"/>
<polygon fill="midnightblue" stroke="midnightblue" points="153.21,-286.34 163.77,-285.54 155.01,-279.58 153.21,-286.34"/>
</g>
<!-- Node10 -->
<g id="node10" class="node">
<title>Node10</title>
<g id="a_node10"><a xlink:href="xspech_8f90.html#a537af4990058c0b0f2cd8b3669af204f" target="_top" xlink:title="todo remark">
<polygon fill="white" stroke="black" points="0,-114.5 0,-133.5 45,-133.5 45,-114.5 0,-114.5"/>
<text text-anchor="middle" x="22.5" y="-121.5" font-family="Helvetica,sans-Serif" font-size="10.00">ending</text>
</a>
</g>
</g>
<!-- Node9&#45;&gt;Node10 -->
<g id="edge13" class="edge">
<title>Node9&#45;&gt;Node10</title>
<path fill="none" stroke="midnightblue" d="M70.65,-117.35C62.06,-117.11 53.01,-117.3 45.17,-117.92"/>
<polygon fill="midnightblue" stroke="midnightblue" points="70.63,-120.85 80.79,-117.84 70.97,-113.86 70.63,-120.85"/>
</g>
<!-- Node10&#45;&gt;Node9 -->
<g id="edge14" class="edge">
<title>Node10&#45;&gt;Node9</title>
<path fill="none" stroke="midnightblue" d="M55.22,-130.62C63.77,-130.89 72.84,-130.74 80.79,-130.16"/>
<polygon fill="midnightblue" stroke="midnightblue" points="55.34,-127.12 45.17,-130.08 54.96,-134.11 55.34,-127.12"/>
</g>
<!-- Node11&#45;&gt;Node3 -->
<g id="edge17" class="edge">
<title>Node11&#45;&gt;Node3</title>
<path fill="none" stroke="midnightblue" d="M484.08,-357.62C520.52,-351.7 565.37,-342.47 605,-332 622.62,-327.35 642.75,-320.37 654.06,-313.56"/>
<polygon fill="midnightblue" stroke="midnightblue" points="483.38,-354.19 474.04,-359.2 484.46,-361.11 483.38,-354.19"/>
</g>
<!-- Node12&#45;&gt;Node9 -->
<g id="edge19" class="edge">
<title>Node12&#45;&gt;Node9</title>
<path fill="none" stroke="midnightblue" d="M174.49,-63.66C170.95,-66.4 167.34,-69.25 164,-72 146.8,-86.17 127.63,-103.52 116.07,-114.17"/>
<polygon fill="midnightblue" stroke="midnightblue" points="176.62,-66.43 182.45,-57.59 172.38,-60.87 176.62,-66.43"/>
</g>
<!-- Node14 -->
<g id="node14" class="node">
<title>Node14</title>
<g id="a_node14"><a xlink:href="group__grp__conjugate__gradient.html#ga25a3bae2ff2ee0469b045de0d033398b" target="_top" xlink:title="Use preconditioned conjugate gradient method to find minimum of energy functional.">
<polygon fill="white" stroke="black" points="265,-0.5 265,-19.5 313,-19.5 313,-0.5 265,-0.5"/>
<text text-anchor="middle" x="289" y="-7.5" font-family="Helvetica,sans-Serif" font-size="10.00">pc00aa</text>
</a>
</g>
</g>
<!-- Node13&#45;&gt;Node14 -->
<g id="edge22" class="edge">
<title>Node13&#45;&gt;Node14</title>
<path fill="none" stroke="midnightblue" d="M377.16,-10C356.81,-10 331.31,-10 313.16,-10"/>
<polygon fill="midnightblue" stroke="midnightblue" points="377.27,-13.5 387.27,-10 377.27,-6.5 377.27,-13.5"/>
</g>
<!-- Node15&#45;&gt;Node9 -->
<g id="edge27" class="edge">
<title>Node15&#45;&gt;Node9</title>
<path fill="none" stroke="midnightblue" d="M359.65,-124C292.47,-124 176.97,-124 128.24,-124"/>
<polygon fill="midnightblue" stroke="midnightblue" points="360,-127.5 370,-124 360,-120.5 360,-127.5"/>
</g>
<!-- Node16 -->
<g id="node16" class="node">
<title>Node16</title>
<g id="a_node16"><a xlink:href="group__grp__initialization.html#ga28628de0fdb3b3497668007d8d0643bd" target="_top" xlink:title="Allocates and initializes internal arrays.">
<polygon fill="white" stroke="black" points="267,-76.5 267,-95.5 311,-95.5 311,-76.5 267,-76.5"/>
<text text-anchor="middle" x="289" y="-83.5" font-family="Helvetica,sans-Serif" font-size="10.00">preset</text>
</a>
</g>
</g>
<!-- Node15&#45;&gt;Node16 -->
<g id="edge24" class="edge">
<title>Node15&#45;&gt;Node16</title>
<path fill="none" stroke="midnightblue" d="M370.41,-111.36C350.65,-105.13 327.62,-97.86 311.28,-92.71"/>
<polygon fill="midnightblue" stroke="midnightblue" points="369.5,-114.74 380.09,-114.41 371.61,-108.07 369.5,-114.74"/>
</g>
<!-- Node16&#45;&gt;Node9 -->
<g id="edge26" class="edge">
<title>Node16&#45;&gt;Node9</title>
<path fill="none" stroke="midnightblue" d="M256.84,-91.64C231.71,-96.28 195.5,-103.18 164,-110 152.16,-112.56 139.04,-115.68 128.23,-118.32"/>
<polygon fill="midnightblue" stroke="midnightblue" points="257.68,-95.05 266.88,-89.8 256.41,-88.16 257.68,-95.05"/>
</g>
<!-- Node16&#45;&gt;Node12 -->
<g id="edge25" class="edge">
<title>Node16&#45;&gt;Node12</title>
<path fill="none" stroke="midnightblue" d="M256.98,-72.97C244.51,-67.74 230.43,-61.83 219.11,-57.07"/>
<polygon fill="midnightblue" stroke="midnightblue" points="255.98,-76.35 266.55,-76.99 258.69,-69.9 255.98,-76.35"/>
</g>
<!-- Node17&#45;&gt;Node3 -->
<g id="edge30" class="edge">
<title>Node17&#45;&gt;Node3</title>
<path fill="none" stroke="midnightblue" d="M604.93,-310.71C617.42,-310.87 630.35,-310.51 640.84,-309.64"/>
<polygon fill="midnightblue" stroke="midnightblue" points="604.69,-307.21 594.61,-310.46 604.52,-314.2 604.69,-307.21"/>
</g>
<!-- Node18&#45;&gt;Node3 -->
<g id="edge32" class="edge">
<title>Node18&#45;&gt;Node3</title>
<path fill="none" stroke="midnightblue" d="M581.55,-280.09C599.21,-287.92 623.41,-296.7 640.84,-301.58"/>
<polygon fill="midnightblue" stroke="midnightblue" points="582.55,-276.7 572.01,-275.63 579.59,-283.04 582.55,-276.7"/>
</g>
<!-- Node20 -->
<g id="node20" class="node">
<title>Node20</title>
<g id="a_node20"><a xlink:href="mp00ac_8f90.html#a304edac43f63d39dda4419b4d044eac5" target="_top" xlink:title="run GMRES">
<polygon fill="white" stroke="black" points="961,-218.5 961,-237.5 1018,-237.5 1018,-218.5 961,-218.5"/>
<text text-anchor="middle" x="989.5" y="-225.5" font-family="Helvetica,sans-Serif" font-size="10.00">rungmres</text>
</a>
</g>
</g>
<!-- Node19&#45;&gt;Node20 -->
<g id="edge36" class="edge">
<title>Node19&#45;&gt;Node20</title>
<path fill="none" stroke="midnightblue" d="M1043.5,-228C1035.13,-228 1026.28,-228 1018.25,-228"/>
<polygon fill="midnightblue" stroke="midnightblue" points="1043.73,-231.5 1053.73,-228 1043.73,-224.5 1043.73,-231.5"/>
</g>
<!-- Node20&#45;&gt;Node21 -->
<g id="edge37" class="edge">
<title>Node20&#45;&gt;Node21</title>
<path fill="none" stroke="midnightblue" d="M950.46,-228C941.9,-228 933.03,-228 925.19,-228"/>
<polygon fill="midnightblue" stroke="midnightblue" points="950.66,-231.5 960.66,-228 950.66,-224.5 950.66,-231.5"/>
</g>
<!-- Node22 -->
<g id="node22" class="node">
<title>Node22</title>
<g id="a_node22"><a xlink:href="group__grp__solver__driver.html#gacad623d4c5c006e9ad10116372f92ad3" target="_top" xlink:title="Constructs Beltrami field in given volume consistent with flux, helicity, rotational&#45;transform and/or...">
<polygon fill="white" stroke="black" points="755,-218.5 755,-237.5 806,-237.5 806,-218.5 755,-218.5"/>
<text text-anchor="middle" x="780.5" y="-225.5" font-family="Helvetica,sans-Serif" font-size="10.00">ma02aa</text>
</a>
</g>
</g>
<!-- Node21&#45;&gt;Node22 -->
<g id="edge38" class="edge">
<title>Node21&#45;&gt;Node22</title>
<path fill="none" stroke="midnightblue" d="M863.89,-228C845.43,-228 823.14,-228 806.4,-228"/>
<polygon fill="midnightblue" stroke="midnightblue" points="863.97,-231.5 873.97,-228 863.97,-224.5 863.97,-231.5"/>
</g>
<!-- Node23 -->
<g id="node23" class="node">
<title>Node23</title>
<g id="a_node23"><a xlink:href="dfp100_8f90.html#a17a3ac15cc83994394f7b4cc05e5898e" target="_top" xlink:title="Split the work between MPI nodes and evaluate the global constraint.">
<polygon fill="white" stroke="black" points="641,-218.5 641,-237.5 687,-237.5 687,-218.5 641,-218.5"/>
<text text-anchor="middle" x="664" y="-225.5" font-family="Helvetica,sans-Serif" font-size="10.00">dfp100</text>
</a>
</g>
</g>
<!-- Node22&#45;&gt;Node23 -->
<g id="edge39" class="edge">
<title>Node22&#45;&gt;Node23</title>
<path fill="none" stroke="midnightblue" d="M744.72,-228C726.02,-228 703.52,-228 687.2,-228"/>
<polygon fill="midnightblue" stroke="midnightblue" points="744.94,-231.5 754.94,-228 744.94,-224.5 744.94,-231.5"/>
</g>
<!-- Node23&#45;&gt;Node4 -->
<g id="edge40" class="edge">
<title>Node23&#45;&gt;Node4</title>
<path fill="none" stroke="midnightblue" d="M630.46,-228C613.86,-228 594.15,-228 579.56,-228"/>
<polygon fill="midnightblue" stroke="midnightblue" points="630.84,-231.5 640.84,-228 630.84,-224.5 630.84,-231.5"/>
</g>
<!-- Node23&#45;&gt;Node18 -->
<g id="edge41" class="edge">
<title>Node23&#45;&gt;Node18</title>
<path fill="none" stroke="midnightblue" d="M631.04,-239.62C616.19,-245.02 598.75,-251.36 584.69,-256.48"/>
<polygon fill="midnightblue" stroke="midnightblue" points="632.64,-242.77 640.84,-236.06 630.24,-236.19 632.64,-242.77"/>
</g>
</g>
</svg>
