<?xml version="1.0" encoding="UTF-8" standalone="no"?>
<!DOCTYPE svg PUBLIC "-//W3C//DTD SVG 1.1//EN"
 "http://www.w3.org/Graphics/SVG/1.1/DTD/svg11.dtd">
<!-- Generated by graphviz version 2.49.0 (0)
 -->
<!-- Title: allglobal::ismyvolume Pages: 1 -->
<svg width="804pt" height="514pt"
 viewBox="0.00 0.00 804.00 514.22" xmlns="http://www.w3.org/2000/svg" xmlns:xlink="http://www.w3.org/1999/xlink">
<g id="graph0" class="graph" transform="scale(1 1) rotate(0) translate(4 510.22)">
<title>allglobal::ismyvolume</title>
<polygon fill="white" stroke="transparent" points="-4,4 -4,-510.22 800,-510.22 800,4 -4,4"/>
<!-- Node1 -->
<g id="node1" class="node">
<title>Node1</title>
<g id="a_node1"><a xlink:title="Check if volume vvol is associated to the corresponding MPI node.">
<polygon fill="#bfbfbf" stroke="black" points="688,-402.5 688,-421.5 796,-421.5 796,-402.5 688,-402.5"/>
<text text-anchor="middle" x="742" y="-409.5" font-family="Helvetica,sans-Serif" font-size="10.00">allglobal::ismyvolume</text>
</a>
</g>
</g>
<!-- Node2 -->
<g id="node2" class="node">
<title>Node2</title>
<g id="a_node2"><a xlink:href="group__grp__parallel.html#ga5d8e3412e023967dda67b02f358b754a" target="_top" xlink:title="Broadcasts Beltrami fields, profiles, . . .">
<polygon fill="white" stroke="black" points="607,-332.5 607,-351.5 651,-351.5 651,-332.5 607,-332.5"/>
<text text-anchor="middle" x="629" y="-339.5" font-family="Helvetica,sans-Serif" font-size="10.00">brcast</text>
</a>
</g>
</g>
<!-- Node1&#45;&gt;Node2 -->
<g id="edge1" class="edge">
<title>Node1&#45;&gt;Node2</title>
<path fill="none" stroke="midnightblue" d="M716.9,-396.8C695.14,-383.08 663.8,-363.31 645.3,-351.65"/>
<polygon fill="midnightblue" stroke="midnightblue" points="715.24,-399.89 725.57,-402.27 718.97,-393.97 715.24,-399.89"/>
</g>
<!-- Node3 -->
<g id="node3" class="node">
<title>Node3</title>
<g id="a_node3"><a xlink:href="group__grp__global__force.html#ga38c9d3c50bd043707fefa5137c9dbf44" target="_top" xlink:title="Calculates , where &#160;and , and .">
<polygon fill="white" stroke="black" points="526,-257.5 526,-276.5 570,-276.5 570,-257.5 526,-257.5"/>
<text text-anchor="middle" x="548" y="-264.5" font-family="Helvetica,sans-Serif" font-size="10.00">dforce</text>
</a>
</g>
</g>
<!-- Node1&#45;&gt;Node3 -->
<g id="edge48" class="edge">
<title>Node1&#45;&gt;Node3</title>
<path fill="none" stroke="midnightblue" d="M726.36,-394.61C709.68,-375.5 680.97,-344.65 652,-323 625.75,-303.39 591.78,-286.29 570.18,-276.31"/>
<polygon fill="midnightblue" stroke="midnightblue" points="723.76,-396.96 732.94,-402.26 729.07,-392.4 723.76,-396.96"/>
</g>
<!-- Node15 -->
<g id="node15" class="node">
<title>Node15</title>
<g id="a_node15"><a xlink:href="dfp200_8f90.html#a55ea75395f8c71731451e1add3720c7e" target="_top" xlink:title="Given the field consistent with the constraints and the geometry, computes local quantites related to...">
<polygon fill="white" stroke="black" points="282,-374.5 282,-393.5 328,-393.5 328,-374.5 282,-374.5"/>
<text text-anchor="middle" x="305" y="-381.5" font-family="Helvetica,sans-Serif" font-size="10.00">dfp200</text>
</a>
</g>
</g>
<!-- Node1&#45;&gt;Node15 -->
<g id="edge53" class="edge">
<title>Node1&#45;&gt;Node15</title>
<path fill="none" stroke="midnightblue" d="M677.5,-407.91C578.59,-401.55 392.46,-389.57 328.36,-385.44"/>
<polygon fill="midnightblue" stroke="midnightblue" points="677.46,-411.42 687.66,-408.57 677.91,-404.43 677.46,-411.42"/>
</g>
<!-- Node17 -->
<g id="node17" class="node">
<title>Node17</title>
<g id="a_node17"><a xlink:href="dfp200_8f90.html#a73ddf39ecc5228201fb643779e17cd36" target="_top" xlink:title="Evaluate mu and psip derivatives and store them in dmupfdx.">
<polygon fill="white" stroke="black" points="140,-431.5 140,-450.5 235,-450.5 235,-431.5 140,-431.5"/>
<text text-anchor="middle" x="187.5" y="-438.5" font-family="Helvetica,sans-Serif" font-size="10.00">evaluate_dmupfdx</text>
</a>
</g>
</g>
<!-- Node1&#45;&gt;Node17 -->
<g id="edge54" class="edge">
<title>Node1&#45;&gt;Node17</title>
<path fill="none" stroke="midnightblue" d="M725.65,-429.4C709.23,-446.84 681.52,-473.06 652,-487 609.91,-506.88 595.55,-506 549,-506 549,-506 549,-506 426.5,-506 343.4,-506 249.57,-468.67 209,-450.59"/>
<polygon fill="midnightblue" stroke="midnightblue" points="728.59,-431.37 732.77,-421.63 723.43,-426.64 728.59,-431.37"/>
</g>
<!-- Node22 -->
<g id="node22" class="node">
<title>Node22</title>
<g id="a_node22"><a xlink:href="dfp100_8f90.html#a17a3ac15cc83994394f7b4cc05e5898e" target="_top" xlink:title="Split the work between MPI nodes and evaluate the global constraint.">
<polygon fill="white" stroke="black" points="606,-440.5 606,-459.5 652,-459.5 652,-440.5 606,-440.5"/>
<text text-anchor="middle" x="629" y="-447.5" font-family="Helvetica,sans-Serif" font-size="10.00">dfp100</text>
</a>
</g>
</g>
<!-- Node1&#45;&gt;Node22 -->
<g id="edge49" class="edge">
<title>Node1&#45;&gt;Node22</title>
<path fill="none" stroke="midnightblue" d="M703.29,-424.91C686.24,-430.75 666.68,-437.44 652.05,-442.45"/>
<polygon fill="midnightblue" stroke="midnightblue" points="704.66,-428.14 712.99,-421.59 702.4,-421.52 704.66,-428.14"/>
</g>
<!-- Node2&#45;&gt;Node2 -->
<g id="edge2" class="edge">
<title>Node2&#45;&gt;Node2</title>
<path fill="none" stroke="midnightblue" d="M643.73,-361.77C642.58,-366.5 637.66,-370 629,-370 614.78,-370 610.67,-360.57 616.67,-351.76"/>
<polygon fill="midnightblue" stroke="midnightblue" points="647.07,-360.66 641.33,-351.76 640.26,-362.3 647.07,-360.66"/>
</g>
<!-- Node2&#45;&gt;Node3 -->
<g id="edge3" class="edge">
<title>Node2&#45;&gt;Node3</title>
<path fill="none" stroke="midnightblue" d="M610.12,-325.02C594.34,-310.05 571.92,-288.76 559.08,-276.57"/>
<polygon fill="midnightblue" stroke="midnightblue" points="608.01,-327.85 617.67,-332.2 612.83,-322.77 608.01,-327.85"/>
</g>
<!-- Node3&#45;&gt;Node3 -->
<g id="edge14" class="edge">
<title>Node3&#45;&gt;Node3</title>
<path fill="none" stroke="midnightblue" d="M562.73,-286.77C561.58,-291.5 556.66,-295 548,-295 533.78,-295 529.67,-285.57 535.67,-276.76"/>
<polygon fill="midnightblue" stroke="midnightblue" points="566.07,-285.66 560.33,-276.76 559.26,-287.3 566.07,-285.66"/>
</g>
<!-- Node4 -->
<g id="node4" class="node">
<title>Node4</title>
<g id="a_node4"><a xlink:href="namespaceallglobal.html#a7824bc37519fe88336534ce90ab2af16" target="_top" xlink:title=" ">
<polygon fill="white" stroke="black" points="370.5,-98.5 370.5,-117.5 484.5,-117.5 484.5,-98.5 370.5,-98.5"/>
<text text-anchor="middle" x="427.5" y="-105.5" font-family="Helvetica,sans-Serif" font-size="10.00">allglobal::check_inputs</text>
</a>
</g>
</g>
<!-- Node3&#45;&gt;Node4 -->
<g id="edge4" class="edge">
<title>Node3&#45;&gt;Node4</title>
<path fill="none" stroke="midnightblue" d="M544.14,-247.49C538.79,-217.83 524.51,-161.42 490,-129 484.82,-124.13 478.46,-120.39 471.83,-117.51"/>
<polygon fill="midnightblue" stroke="midnightblue" points="540.7,-248.15 545.78,-257.45 547.61,-247.01 540.7,-248.15"/>
</g>
<!-- Node7 -->
<g id="node7" class="node">
<title>Node7</title>
<g id="a_node7"><a xlink:href="xspech_8f90.html#a48f45478dc2c9f70ea8aa1c60ad06503" target="_top" xlink:title="This is the main &quot;driver&quot; for the physics part of SPEC.">
<polygon fill="white" stroke="black" points="168.5,-42.5 168.5,-61.5 206.5,-61.5 206.5,-42.5 168.5,-42.5"/>
<text text-anchor="middle" x="187.5" y="-49.5" font-family="Helvetica,sans-Serif" font-size="10.00">spec</text>
</a>
</g>
</g>
<!-- Node3&#45;&gt;Node7 -->
<g id="edge47" class="edge">
<title>Node3&#45;&gt;Node7</title>
<path fill="none" stroke="midnightblue" d="M547.11,-247.24C546.14,-209.85 538.25,-128.94 490,-89 446.53,-53.02 265.05,-51.34 206.67,-51.76"/>
<polygon fill="midnightblue" stroke="midnightblue" points="543.61,-247.39 547.22,-257.35 550.61,-247.31 543.61,-247.39"/>
</g>
<!-- Node10 -->
<g id="node10" class="node">
<title>Node10</title>
<g id="a_node10"><a xlink:href="group__grp__force__driver.html#gabbc245b3884ee8d8d3e2a52f25149f78" target="_top" xlink:title="fcn1">
<polygon fill="white" stroke="black" points="410,-194.5 410,-213.5 445,-213.5 445,-194.5 410,-194.5"/>
<text text-anchor="middle" x="427.5" y="-201.5" font-family="Helvetica,sans-Serif" font-size="10.00">fcn1</text>
</a>
</g>
</g>
<!-- Node3&#45;&gt;Node10 -->
<g id="edge15" class="edge">
<title>Node3&#45;&gt;Node10</title>
<path fill="none" stroke="midnightblue" d="M520.07,-252.68C497.02,-240.43 464.58,-223.18 445.13,-212.84"/>
<polygon fill="midnightblue" stroke="midnightblue" points="518.53,-255.83 529,-257.43 521.82,-249.65 518.53,-255.83"/>
</g>
<!-- Node11 -->
<g id="node11" class="node">
<title>Node11</title>
<g id="a_node11"><a xlink:href="group__grp__force__driver.html#gaec14f81fbdbedafbc4189489ec8ae178" target="_top" xlink:title="Employs Newton method to find , where &#160;and &#160;is defined in dforce() .">
<polygon fill="white" stroke="black" points="281,-206.5 281,-225.5 329,-225.5 329,-206.5 281,-206.5"/>
<text text-anchor="middle" x="305" y="-213.5" font-family="Helvetica,sans-Serif" font-size="10.00">newton</text>
</a>
</g>
</g>
<!-- Node3&#45;&gt;Node11 -->
<g id="edge42" class="edge">
<title>Node3&#45;&gt;Node11</title>
<path fill="none" stroke="midnightblue" d="M515.83,-265.01C479.18,-262.11 416.78,-255.4 365,-241 351.17,-237.15 336.3,-230.84 324.95,-225.51"/>
<polygon fill="midnightblue" stroke="midnightblue" points="515.66,-268.51 525.89,-265.76 516.18,-261.53 515.66,-268.51"/>
</g>
<!-- Node12 -->
<g id="node12" class="node">
<title>Node12</title>
<g id="a_node12"><a xlink:href="group__grp__force__driver.html#ga8ccd6c7d901872702521d0a0edf95412" target="_top" xlink:title="fcn2">
<polygon fill="white" stroke="black" points="29.5,-226.5 29.5,-245.5 64.5,-245.5 64.5,-226.5 29.5,-226.5"/>
<text text-anchor="middle" x="47" y="-233.5" font-family="Helvetica,sans-Serif" font-size="10.00">fcn2</text>
</a>
</g>
</g>
<!-- Node3&#45;&gt;Node12 -->
<g id="edge27" class="edge">
<title>Node3&#45;&gt;Node12</title>
<path fill="none" stroke="midnightblue" d="M515.79,-273.5C445.61,-286.9 270.47,-313.6 130,-279 103.93,-272.58 76.98,-256.24 61.39,-245.65"/>
<polygon fill="midnightblue" stroke="midnightblue" points="516.61,-276.9 525.75,-271.55 515.27,-270.03 516.61,-276.9"/>
</g>
<!-- Node14 -->
<g id="node14" class="node">
<title>Node14</title>
<g id="a_node14"><a xlink:href="dfp200_8f90.html#a6aca59cf350d7b1941f8389d50945a43" target="_top" xlink:title="get LU Beltrami matrices">
<polygon fill="white" stroke="black" points="365,-326.5 365,-345.5 490,-345.5 490,-326.5 365,-326.5"/>
<text text-anchor="middle" x="427.5" y="-333.5" font-family="Helvetica,sans-Serif" font-size="10.00">get_lu_beltrami_matrices</text>
</a>
</g>
</g>
<!-- Node3&#45;&gt;Node14 -->
<g id="edge28" class="edge">
<title>Node3&#45;&gt;Node14</title>
<path fill="none" stroke="midnightblue" d="M528.96,-283.52C518.22,-292.76 503.98,-303.99 490,-312 480.05,-317.7 468.49,-322.6 458.1,-326.47"/>
<polygon fill="midnightblue" stroke="midnightblue" points="531.58,-285.88 536.76,-276.64 526.94,-280.63 531.58,-285.88"/>
</g>
<!-- Node19 -->
<g id="node19" class="node">
<title>Node19</title>
<g id="a_node19"><a xlink:href="group__grp__diagnostics.html#ga7401b50ec10c6598ee4a8112717a63ec" target="_top" xlink:title="Computes eigenvalues and eigenvectors of derivative matrix, .">
<polygon fill="white" stroke="black" points="282.5,-0.5 282.5,-19.5 327.5,-19.5 327.5,-0.5 282.5,-0.5"/>
<text text-anchor="middle" x="305" y="-7.5" font-family="Helvetica,sans-Serif" font-size="10.00">hesian</text>
</a>
</g>
</g>
<!-- Node3&#45;&gt;Node19 -->
<g id="edge39" class="edge">
<title>Node3&#45;&gt;Node19</title>
<path fill="none" stroke="midnightblue" d="M544.42,-247.47C537.73,-199.8 518.35,-79.38 490,-52 445.34,-8.86 365.97,-6.58 327.76,-8.3"/>
<polygon fill="midnightblue" stroke="midnightblue" points="540.96,-248.02 545.78,-257.45 547.9,-247.07 540.96,-248.02"/>
</g>
<!-- Node20 -->
<g id="node20" class="node">
<title>Node20</title>
<g id="a_node20"><a xlink:href="group__grp__conjugate__gradient.html#ga4d8415226e62a9fdb42b0fd0b464251e" target="_top" xlink:title="Returns the energy functional and it&#39;s derivatives with respect to geometry.">
<polygon fill="white" stroke="black" points="403.5,-138.5 403.5,-157.5 451.5,-157.5 451.5,-138.5 403.5,-138.5"/>
<text text-anchor="middle" x="427.5" y="-145.5" font-family="Helvetica,sans-Serif" font-size="10.00">pc00ab</text>
</a>
</g>
</g>
<!-- Node3&#45;&gt;Node20 -->
<g id="edge43" class="edge">
<title>Node3&#45;&gt;Node20</title>
<path fill="none" stroke="midnightblue" d="M537.25,-248.59C527.16,-230.78 510.08,-203.8 490,-185 477.9,-173.67 461.78,-164.13 449.07,-157.57"/>
<polygon fill="midnightblue" stroke="midnightblue" points="534.22,-250.36 542.11,-257.43 540.36,-246.98 534.22,-250.36"/>
</g>
<!-- Node5 -->
<g id="node5" class="node">
<title>Node5</title>
<g id="a_node5"><a xlink:href="xspech_8f90.html#a9fdc71dffd7c61ee4588a3f80d3ab9ce" target="_top" xlink:title="Main subroutine of SPEC.">
<polygon fill="white" stroke="black" points="281.5,-94.5 281.5,-113.5 328.5,-113.5 328.5,-94.5 281.5,-94.5"/>
<text text-anchor="middle" x="305" y="-101.5" font-family="Helvetica,sans-Serif" font-size="10.00">xspech</text>
</a>
</g>
</g>
<!-- Node4&#45;&gt;Node5 -->
<g id="edge5" class="edge">
<title>Node4&#45;&gt;Node5</title>
<path fill="none" stroke="midnightblue" d="M360.45,-105.81C349.06,-105.43 337.95,-105.06 328.77,-104.76"/>
<polygon fill="midnightblue" stroke="midnightblue" points="360.37,-109.31 370.48,-106.14 360.6,-102.31 360.37,-109.31"/>
</g>
<!-- Node5&#45;&gt;Node5 -->
<g id="edge13" class="edge">
<title>Node5&#45;&gt;Node5</title>
<path fill="none" stroke="midnightblue" d="M326.48,-123.4C325.05,-128.31 317.89,-132 305,-132 284.38,-132 278.42,-122.57 287.12,-113.76"/>
<polygon fill="midnightblue" stroke="midnightblue" points="329.66,-121.9 322.88,-113.76 323.1,-124.35 329.66,-121.9"/>
</g>
<!-- Node6 -->
<g id="node6" class="node">
<title>Node6</title>
<g id="a_node6"><a xlink:href="xspech_8f90.html#a1451823a7b97101a797de616250752c1" target="_top" xlink:title="Final diagnostics.">
<polygon fill="white" stroke="black" points="143,-156.5 143,-175.5 232,-175.5 232,-156.5 143,-156.5"/>
<text text-anchor="middle" x="187.5" y="-163.5" font-family="Helvetica,sans-Serif" font-size="10.00">final_diagnostics</text>
</a>
</g>
</g>
<!-- Node5&#45;&gt;Node6 -->
<g id="edge6" class="edge">
<title>Node5&#45;&gt;Node6</title>
<path fill="none" stroke="midnightblue" d="M272.55,-116.99C263.81,-122.29 254.19,-128.13 245,-133 228.8,-141.58 208.86,-149.46 197.52,-156.44"/>
<polygon fill="midnightblue" stroke="midnightblue" points="274.53,-119.89 281.29,-111.73 270.92,-113.89 274.53,-119.89"/>
</g>
<!-- Node5&#45;&gt;Node7 -->
<g id="edge8" class="edge">
<title>Node5&#45;&gt;Node7</title>
<path fill="none" stroke="midnightblue" d="M289.89,-87.87C278.17,-79 260.9,-69.05 245,-62 232.51,-56.46 217.88,-51.59 206.64,-49.39"/>
<polygon fill="midnightblue" stroke="midnightblue" points="287.74,-90.64 297.66,-94.38 292.24,-85.28 287.74,-90.64"/>
</g>
<!-- Node9 -->
<g id="node9" class="node">
<title>Node9</title>
<g id="a_node9"><a xlink:href="xspech_8f90.html#a95271e8805067f801b5d4e524d6901d4" target="_top" xlink:title="Main program of SPEC.">
<polygon fill="white" stroke="black" points="155.5,-80.5 155.5,-99.5 219.5,-99.5 219.5,-80.5 155.5,-80.5"/>
<text text-anchor="middle" x="187.5" y="-87.5" font-family="Helvetica,sans-Serif" font-size="10.00">spec_main</text>
</a>
</g>
</g>
<!-- Node5&#45;&gt;Node9 -->
<g id="edge12" class="edge">
<title>Node5&#45;&gt;Node9</title>
<path fill="none" stroke="midnightblue" d="M271.36,-100.04C255.17,-98.08 235.72,-95.72 219.73,-93.78"/>
<polygon fill="midnightblue" stroke="midnightblue" points="271.11,-103.54 281.46,-101.27 271.95,-96.59 271.11,-103.54"/>
</g>
<!-- Node6&#45;&gt;Node5 -->
<g id="edge7" class="edge">
<title>Node6&#45;&gt;Node5</title>
<path fill="none" stroke="midnightblue" d="M241.45,-152.84C242.65,-152.23 243.83,-151.62 245,-151 265.24,-140.28 287.57,-124.81 298.01,-113.79"/>
<polygon fill="midnightblue" stroke="midnightblue" points="239.54,-149.87 232.04,-157.35 242.57,-156.18 239.54,-149.87"/>
</g>
<!-- Node7&#45;&gt;Node5 -->
<g id="edge11" class="edge">
<title>Node7&#45;&gt;Node5</title>
<path fill="none" stroke="midnightblue" d="M208.3,-65.61C219.3,-70.06 233.12,-74.73 245,-80 257.34,-85.47 270.5,-92.68 281.25,-98.16"/>
<polygon fill="midnightblue" stroke="midnightblue" points="209.7,-62.4 199.13,-61.57 206.87,-68.8 209.7,-62.4"/>
</g>
<!-- Node8 -->
<g id="node8" class="node">
<title>Node8</title>
<g id="a_node8"><a xlink:href="group__grp__output.html#ga0f962c09cd5d5eba99f1cba043cb3898" target="_top" xlink:title="Initialize the interface to the HDF5 library and open the output file.">
<polygon fill="white" stroke="black" points="0,-80.5 0,-99.5 94,-99.5 94,-80.5 0,-80.5"/>
<text text-anchor="middle" x="47" y="-87.5" font-family="Helvetica,sans-Serif" font-size="10.00">sphdf5::init_outfile</text>
</a>
</g>
</g>
<!-- Node7&#45;&gt;Node8 -->
<g id="edge9" class="edge">
<title>Node7&#45;&gt;Node8</title>
<path fill="none" stroke="midnightblue" d="M158.74,-59.62C136.91,-65.61 106.37,-73.98 82.89,-80.43"/>
<polygon fill="midnightblue" stroke="midnightblue" points="159.68,-62.99 168.39,-56.97 157.82,-56.24 159.68,-62.99"/>
</g>
<!-- Node8&#45;&gt;Node5 -->
<g id="edge10" class="edge">
<title>Node8&#45;&gt;Node5</title>
<path fill="none" stroke="midnightblue" d="M90.93,-101.88C103.42,-104.81 117.17,-107.53 130,-109 180.78,-114.81 193.93,-111.16 245,-109 257.02,-108.49 270.37,-107.4 281.33,-106.37"/>
<polygon fill="midnightblue" stroke="midnightblue" points="91.76,-98.48 81.21,-99.51 90.09,-105.28 91.76,-98.48"/>
</g>
<!-- Node10&#45;&gt;Node10 -->
<g id="edge16" class="edge">
<title>Node10&#45;&gt;Node10</title>
<path fill="none" stroke="midnightblue" d="M450,-221.73C449.8,-227.46 442.3,-232 427.5,-232 405.47,-232 399.62,-221.93 409.94,-212.89"/>
<polygon fill="midnightblue" stroke="midnightblue" points="452.99,-219.91 445.06,-212.89 446.88,-223.33 452.99,-219.91"/>
</g>
<!-- Node10&#45;&gt;Node11 -->
<g id="edge17" class="edge">
<title>Node10&#45;&gt;Node11</title>
<path fill="none" stroke="midnightblue" d="M399.51,-200.95C378.38,-201.62 349.31,-204.6 329.22,-208.23"/>
<polygon fill="midnightblue" stroke="midnightblue" points="399.79,-204.45 409.74,-200.82 399.7,-197.45 399.79,-204.45"/>
</g>
<!-- Node11&#45;&gt;Node7 -->
<g id="edge23" class="edge">
<title>Node11&#45;&gt;Node7</title>
<path fill="none" stroke="midnightblue" d="M282.36,-198.92C281.88,-198.29 281.43,-197.65 281,-197 249.12,-148.26 285.22,-113.12 245,-71 234.99,-60.52 219.03,-55.82 206.63,-53.71"/>
<polygon fill="midnightblue" stroke="midnightblue" points="280.07,-201.59 289.55,-206.32 285.1,-196.71 280.07,-201.59"/>
</g>
<!-- Node11&#45;&gt;Node10 -->
<g id="edge18" class="edge">
<title>Node11&#45;&gt;Node10</title>
<path fill="none" stroke="midnightblue" d="M339.52,-218.78C362.37,-217.66 391.66,-214.31 409.74,-210.51"/>
<polygon fill="midnightblue" stroke="midnightblue" points="339.09,-215.3 329.22,-219.14 339.33,-222.29 339.09,-215.3"/>
</g>
<!-- Node11&#45;&gt;Node11 -->
<g id="edge22" class="edge">
<title>Node11&#45;&gt;Node11</title>
<path fill="none" stroke="midnightblue" d="M326.48,-235.4C325.05,-240.31 317.89,-244 305,-244 284.38,-244 278.42,-234.57 287.12,-225.76"/>
<polygon fill="midnightblue" stroke="midnightblue" points="329.66,-233.9 322.88,-225.76 323.1,-236.35 329.66,-233.9"/>
</g>
<!-- Node11&#45;&gt;Node12 -->
<g id="edge19" class="edge">
<title>Node11&#45;&gt;Node12</title>
<path fill="none" stroke="midnightblue" d="M270.49,-213.88C215.08,-215.18 106.32,-224.07 64.72,-231.14"/>
<polygon fill="midnightblue" stroke="midnightblue" points="270.88,-217.38 280.83,-213.73 270.78,-210.38 270.88,-217.38"/>
</g>
<!-- Node13 -->
<g id="node13" class="node">
<title>Node13</title>
<g id="a_node13"><a xlink:href="group__grp__force__driver.html#ga382822b303cbf8c56d6f54dcb379caf2" target="_top" xlink:title="read or write force&#45;derivative matrix">
<polygon fill="white" stroke="black" points="155,-250.5 155,-269.5 220,-269.5 220,-250.5 155,-250.5"/>
<text text-anchor="middle" x="187.5" y="-257.5" font-family="Helvetica,sans-Serif" font-size="10.00">writereadgf</text>
</a>
</g>
</g>
<!-- Node11&#45;&gt;Node13 -->
<g id="edge24" class="edge">
<title>Node11&#45;&gt;Node13</title>
<path fill="none" stroke="midnightblue" d="M271.19,-222.34C248.19,-229.94 218.66,-241.74 201.83,-250.42"/>
<polygon fill="midnightblue" stroke="midnightblue" points="272.42,-225.62 280.9,-219.27 270.31,-218.95 272.42,-225.62"/>
</g>
<!-- Node12&#45;&gt;Node11 -->
<g id="edge21" class="edge">
<title>Node12&#45;&gt;Node11</title>
<path fill="none" stroke="midnightblue" d="M74.85,-238.24C125.28,-237.6 233.36,-229.07 280.83,-221.89"/>
<polygon fill="midnightblue" stroke="midnightblue" points="74.72,-234.74 64.72,-238.25 74.73,-241.74 74.72,-234.74"/>
</g>
<!-- Node12&#45;&gt;Node12 -->
<g id="edge20" class="edge">
<title>Node12&#45;&gt;Node12</title>
<path fill="none" stroke="midnightblue" d="M72.47,-250.41C76,-257.59 67.51,-264 47,-264 19.66,-264 13.67,-252.61 29.06,-243.17"/>
<polygon fill="midnightblue" stroke="midnightblue" points="74.58,-247.58 64.94,-243.17 69.73,-252.62 74.58,-247.58"/>
</g>
<!-- Node13&#45;&gt;Node11 -->
<g id="edge26" class="edge">
<title>Node13&#45;&gt;Node11</title>
<path fill="none" stroke="midnightblue" d="M229.85,-250.75C251.26,-243.26 275.95,-233.18 290.75,-225.54"/>
<polygon fill="midnightblue" stroke="midnightblue" points="228.64,-247.47 220.29,-253.99 230.88,-254.09 228.64,-247.47"/>
</g>
<!-- Node13&#45;&gt;Node12 -->
<g id="edge25" class="edge">
<title>Node13&#45;&gt;Node12</title>
<path fill="none" stroke="midnightblue" d="M144.76,-252.77C117.8,-248.1 84.2,-242.27 64.52,-238.86"/>
<polygon fill="midnightblue" stroke="midnightblue" points="144.27,-256.24 154.73,-254.49 145.47,-249.34 144.27,-256.24"/>
</g>
<!-- Node14&#45;&gt;Node15 -->
<g id="edge29" class="edge">
<title>Node14&#45;&gt;Node15</title>
<path fill="none" stroke="midnightblue" d="M369.24,-349.31C367.81,-349.88 366.4,-350.44 365,-351 346.92,-358.2 325.81,-366.85 314.39,-374.47"/>
<polygon fill="midnightblue" stroke="midnightblue" points="370.76,-352.48 378.8,-345.58 368.21,-345.96 370.76,-352.48"/>
</g>
<!-- Node15&#45;&gt;Node3 -->
<g id="edge30" class="edge">
<title>Node15&#45;&gt;Node3</title>
<path fill="none" stroke="midnightblue" d="M338.41,-386.51C377.52,-387.93 443.77,-385.04 490,-355 519.61,-335.76 537.08,-295.14 543.8,-276.6"/>
<polygon fill="midnightblue" stroke="midnightblue" points="338.3,-383 328.14,-386.01 337.96,-389.99 338.3,-383"/>
</g>
<!-- Node15&#45;&gt;Node14 -->
<g id="edge36" class="edge">
<title>Node15&#45;&gt;Node14</title>
<path fill="none" stroke="midnightblue" d="M337.67,-379.67C346.51,-376.43 356.12,-372.54 365,-369 383.53,-361.62 405.28,-353.18 417.31,-345.71"/>
<polygon fill="midnightblue" stroke="midnightblue" points="336.39,-376.41 328.1,-383.02 338.7,-383.02 336.39,-376.41"/>
</g>
<!-- Node15&#45;&gt;Node15 -->
<g id="edge31" class="edge">
<title>Node15&#45;&gt;Node15</title>
<path fill="none" stroke="midnightblue" d="M326.48,-403.4C325.05,-408.31 317.89,-412 305,-412 284.38,-412 278.42,-402.57 287.12,-393.76"/>
<polygon fill="midnightblue" stroke="midnightblue" points="329.66,-401.9 322.88,-393.76 323.1,-404.35 329.66,-401.9"/>
</g>
<!-- Node16 -->
<g id="node16" class="node">
<title>Node16</title>
<g id="a_node16"><a xlink:href="dfp200_8f90.html#a7b64c7392b45d0042d8bd7379c0761a5" target="_top" xlink:title="Evaluate the derivative of the square of the magnetic field modulus. Add spectral constraint derivati...">
<polygon fill="white" stroke="black" points="150.5,-384.5 150.5,-403.5 224.5,-403.5 224.5,-384.5 150.5,-384.5"/>
<text text-anchor="middle" x="187.5" y="-391.5" font-family="Helvetica,sans-Serif" font-size="10.00">evaluate_dbb</text>
</a>
</g>
</g>
<!-- Node15&#45;&gt;Node16 -->
<g id="edge32" class="edge">
<title>Node15&#45;&gt;Node16</title>
<path fill="none" stroke="midnightblue" d="M271.66,-380.67C257.08,-381.17 239.81,-382.61 224.79,-384.54"/>
<polygon fill="midnightblue" stroke="midnightblue" points="271.8,-384.17 281.73,-380.47 271.66,-377.17 271.8,-384.17"/>
</g>
<!-- Node15&#45;&gt;Node17 -->
<g id="edge34" class="edge">
<title>Node15&#45;&gt;Node17</title>
<path fill="none" stroke="midnightblue" d="M272.22,-393.58C248,-404.24 216.08,-420.64 199.52,-431.39"/>
<polygon fill="midnightblue" stroke="midnightblue" points="273.9,-396.67 281.73,-389.53 271.16,-390.23 273.9,-396.67"/>
</g>
<!-- Node18 -->
<g id="node18" class="node">
<title>Node18</title>
<g id="a_node18"><a xlink:href="dfp200_8f90.html#a5e56f1f4b1e6df11a9cffa6237c37469" target="_top" xlink:title="This routine evaluates the value of the magnetic field once the interface is perturbed using matrix p...">
<polygon fill="white" stroke="black" points="130,-346.5 130,-365.5 245,-365.5 245,-346.5 130,-346.5"/>
<text text-anchor="middle" x="187.5" y="-353.5" font-family="Helvetica,sans-Serif" font-size="10.00">get_perturbed_solution</text>
</a>
</g>
</g>
<!-- Node15&#45;&gt;Node18 -->
<g id="edge37" class="edge">
<title>Node15&#45;&gt;Node18</title>
<path fill="none" stroke="midnightblue" d="M276.17,-371.38C266.79,-368.5 255.96,-365.58 245.18,-362.99"/>
<polygon fill="midnightblue" stroke="midnightblue" points="275.11,-374.72 285.7,-374.47 277.27,-368.06 275.11,-374.72"/>
</g>
<!-- Node16&#45;&gt;Node15 -->
<g id="edge33" class="edge">
<title>Node16&#45;&gt;Node15</title>
<path fill="none" stroke="midnightblue" d="M235.13,-396.6C251.22,-395.54 268.5,-393.65 281.73,-391.39"/>
<polygon fill="midnightblue" stroke="midnightblue" points="234.58,-393.13 224.79,-397.18 234.97,-400.11 234.58,-393.13"/>
</g>
<!-- Node17&#45;&gt;Node15 -->
<g id="edge35" class="edge">
<title>Node17&#45;&gt;Node15</title>
<path fill="none" stroke="midnightblue" d="M229.54,-427.24C252.11,-416.82 278.4,-403.07 292.93,-393.64"/>
<polygon fill="midnightblue" stroke="midnightblue" points="227.82,-424.18 220.14,-431.48 230.7,-430.56 227.82,-424.18"/>
</g>
<!-- Node18&#45;&gt;Node15 -->
<g id="edge38" class="edge">
<title>Node18&#45;&gt;Node15</title>
<path fill="none" stroke="midnightblue" d="M216.42,-368.64C236.46,-374.79 263.11,-381.12 281.73,-384.06"/>
<polygon fill="midnightblue" stroke="midnightblue" points="217.49,-365.31 206.9,-365.56 215.33,-371.97 217.49,-365.31"/>
</g>
<!-- Node19&#45;&gt;Node7 -->
<g id="edge41" class="edge">
<title>Node19&#45;&gt;Node7</title>
<path fill="none" stroke="midnightblue" d="M272.74,-21.37C251.59,-29.06 224.39,-38.95 206.71,-45.38"/>
<polygon fill="midnightblue" stroke="midnightblue" points="274.07,-24.61 282.28,-17.9 271.68,-18.03 274.07,-24.61"/>
</g>
<!-- Node19&#45;&gt;Node19 -->
<g id="edge40" class="edge">
<title>Node19&#45;&gt;Node19</title>
<path fill="none" stroke="midnightblue" d="M326.48,-29.4C325.05,-34.31 317.89,-38 305,-38 284.38,-38 278.42,-28.57 287.12,-19.76"/>
<polygon fill="midnightblue" stroke="midnightblue" points="329.66,-27.9 322.88,-19.76 323.1,-30.35 329.66,-27.9"/>
</g>
<!-- Node20&#45;&gt;Node20 -->
<g id="edge46" class="edge">
<title>Node20&#45;&gt;Node20</title>
<path fill="none" stroke="midnightblue" d="M449.82,-167.03C448.6,-172.13 441.16,-176 427.5,-176 406.17,-176 400.01,-166.57 409,-157.76"/>
<polygon fill="midnightblue" stroke="midnightblue" points="453.05,-165.67 446,-157.76 446.57,-168.34 453.05,-165.67"/>
</g>
<!-- Node21 -->
<g id="node21" class="node">
<title>Node21</title>
<g id="a_node21"><a xlink:href="group__grp__conjugate__gradient.html#ga25a3bae2ff2ee0469b045de0d033398b" target="_top" xlink:title="Use preconditioned conjugate gradient method to find minimum of energy functional.">
<polygon fill="white" stroke="black" points="281,-150.5 281,-169.5 329,-169.5 329,-150.5 281,-150.5"/>
<text text-anchor="middle" x="305" y="-157.5" font-family="Helvetica,sans-Serif" font-size="10.00">pc00aa</text>
</a>
</g>
</g>
<!-- Node20&#45;&gt;Node21 -->
<g id="edge44" class="edge">
<title>Node20&#45;&gt;Node21</title>
<path fill="none" stroke="midnightblue" d="M393.16,-151.32C372.81,-153.35 347.31,-155.89 329.16,-157.69"/>
<polygon fill="midnightblue" stroke="midnightblue" points="393.66,-154.79 403.27,-150.31 392.97,-147.82 393.66,-154.79"/>
</g>
<!-- Node21&#45;&gt;Node21 -->
<g id="edge45" class="edge">
<title>Node21&#45;&gt;Node21</title>
<path fill="none" stroke="midnightblue" d="M326.48,-179.4C325.05,-184.31 317.89,-188 305,-188 284.38,-188 278.42,-178.57 287.12,-169.76"/>
<polygon fill="midnightblue" stroke="midnightblue" points="329.66,-177.9 322.88,-169.76 323.1,-180.35 329.66,-177.9"/>
</g>
<!-- Node22&#45;&gt;Node3 -->
<g id="edge50" class="edge">
<title>Node22&#45;&gt;Node3</title>
<path fill="none" stroke="midnightblue" d="M619.74,-430.87C603.07,-392.25 565.9,-306.16 553.29,-276.93"/>
<polygon fill="midnightblue" stroke="midnightblue" points="616.69,-432.62 623.86,-440.42 623.11,-429.85 616.69,-432.62"/>
</g>
<!-- Node22&#45;&gt;Node17 -->
<g id="edge52" class="edge">
<title>Node22&#45;&gt;Node17</title>
<path fill="none" stroke="midnightblue" d="M595.88,-449.34C519.17,-447.77 325.02,-443.8 235.29,-441.96"/>
<polygon fill="midnightblue" stroke="midnightblue" points="595.83,-452.84 605.9,-449.55 595.98,-445.84 595.83,-452.84"/>
</g>
<!-- Node22&#45;&gt;Node22 -->
<g id="edge51" class="edge">
<title>Node22&#45;&gt;Node22</title>
<path fill="none" stroke="midnightblue" d="M643.73,-469.77C642.58,-474.5 637.66,-478 629,-478 614.78,-478 610.67,-468.57 616.67,-459.76"/>
<polygon fill="midnightblue" stroke="midnightblue" points="647.07,-468.66 641.33,-459.76 640.26,-470.3 647.07,-468.66"/>
</g>
</g>
</svg>
