<?xml version="1.0" encoding="UTF-8" standalone="no"?>
<!DOCTYPE svg PUBLIC "-//W3C//DTD SVG 1.1//EN"
 "http://www.w3.org/Graphics/SVG/1.1/DTD/svg11.dtd">
<!-- Generated by graphviz version 2.49.3 (20211027.1534)
 -->
<!-- Title: allglobal::build_vector_potential Pages: 1 -->
<svg width="1059pt" height="554pt"
 viewBox="0.00 0.00 1059.00 554.00" xmlns="http://www.w3.org/2000/svg" xmlns:xlink="http://www.w3.org/1999/xlink">
<g id="graph0" class="graph" transform="scale(1 1) rotate(0) translate(4 550)">
<title>allglobal::build_vector_potential</title>
<polygon fill="white" stroke="transparent" points="-4,4 -4,-550 1055,-550 1055,4 -4,4"/>
<!-- Node1 -->
<g id="node1" class="node">
<title>Node1</title>
<g id="a_node1"><a xlink:title=" ">
<polygon fill="#bfbfbf" stroke="black" points="942,-446 942,-476 1051,-476 1051,-446 942,-446"/>
<text text-anchor="start" x="950" y="-464" font-family="Helvetica,sans-Serif" font-size="10.00">allglobal::build_vector</text>
<text text-anchor="middle" x="996.5" y="-453" font-family="Helvetica,sans-Serif" font-size="10.00">_potential</text>
</a>
</g>
</g>
<!-- Node1&#45;&gt;Node1 -->
<g id="edge1" class="edge">
<title>Node1&#45;&gt;Node1</title>
<path fill="none" stroke="midnightblue" d="M1016.4,-486.46C1013.93,-491.18 1007.3,-494.5 996.5,-494.5 978.78,-494.5 972.28,-485.56 976.98,-476.16"/>
<polygon fill="midnightblue" stroke="midnightblue" points="1019.89,-486.02 1016.02,-476.16 1012.89,-486.28 1019.89,-486.02"/>
</g>
<!-- Node2 -->
<g id="node2" class="node">
<title>Node2</title>
<g id="a_node2"><a xlink:href="group__grp__currents.html#gacaf4411e0ba378631dcd2ccb3752e452" target="_top" xlink:title="Computes the plasma current, , and the &quot;linking&quot; current, .">
<polygon fill="white" stroke="black" points="862,-423.5 862,-442.5 906,-442.5 906,-423.5 862,-423.5"/>
<text text-anchor="middle" x="884" y="-430.5" font-family="Helvetica,sans-Serif" font-size="10.00">curent</text>
</a>
</g>
</g>
<!-- Node1&#45;&gt;Node2 -->
<g id="edge2" class="edge">
<title>Node1&#45;&gt;Node2</title>
<path fill="none" stroke="midnightblue" d="M932.11,-444.94C922.81,-442.58 913.83,-440.3 906.24,-438.38"/>
<polygon fill="midnightblue" stroke="midnightblue" points="931.32,-448.35 941.87,-447.41 933.03,-441.56 931.32,-448.35"/>
</g>
<!-- Node25 -->
<g id="node25" class="node">
<title>Node25</title>
<g id="a_node25"><a xlink:href="group__grp__local__force.html#ga7a5316b9e5eeb42811aa6bccd29a132f" target="_top" xlink:title="Computes , and the spectral condensation constraints if required, on the interfaces,...">
<polygon fill="white" stroke="black" points="407,-508.5 407,-527.5 448,-527.5 448,-508.5 407,-508.5"/>
<text text-anchor="middle" x="427.5" y="-515.5" font-family="Helvetica,sans-Serif" font-size="10.00">lforce</text>
</a>
</g>
</g>
<!-- Node1&#45;&gt;Node25 -->
<g id="edge59" class="edge">
<title>Node1&#45;&gt;Node25</title>
<path fill="none" stroke="midnightblue" d="M947.68,-479.3C908.88,-492.49 852.46,-508 801.5,-508 801.5,-508 801.5,-508 628,-508 561.94,-508 483.72,-513.54 448.02,-516.37"/>
<polygon fill="midnightblue" stroke="midnightblue" points="948.85,-482.59 957.15,-476 946.55,-475.98 948.85,-482.59"/>
</g>
<!-- Node2&#45;&gt;Node2 -->
<g id="edge3" class="edge">
<title>Node2&#45;&gt;Node2</title>
<path fill="none" stroke="midnightblue" d="M899.1,-452.77C897.91,-457.5 892.88,-461 884,-461 869.43,-461 865.21,-451.57 871.36,-442.76"/>
<polygon fill="midnightblue" stroke="midnightblue" points="902.43,-451.63 896.64,-442.76 895.63,-453.3 902.43,-451.63"/>
</g>
<!-- Node3 -->
<g id="node3" class="node">
<title>Node3</title>
<g id="a_node3"><a xlink:href="dfp100_8f90.html#a17a3ac15cc83994394f7b4cc05e5898e" target="_top" xlink:title="Split the work between MPI nodes and evaluate the global constraint.">
<polygon fill="white" stroke="black" points="606,-394.5 606,-413.5 652,-413.5 652,-394.5 606,-394.5"/>
<text text-anchor="middle" x="629" y="-401.5" font-family="Helvetica,sans-Serif" font-size="10.00">dfp100</text>
</a>
</g>
</g>
<!-- Node2&#45;&gt;Node3 -->
<g id="edge4" class="edge">
<title>Node2&#45;&gt;Node3</title>
<path fill="none" stroke="midnightblue" d="M852.01,-440.26C812.91,-448.08 744.01,-457.35 688,-441 669.88,-435.71 652.04,-422.86 641.03,-413.79"/>
<polygon fill="midnightblue" stroke="midnightblue" points="852.91,-443.65 861.98,-438.17 851.47,-436.8 852.91,-443.65"/>
</g>
<!-- Node18 -->
<g id="node18" class="node">
<title>Node18</title>
<g id="a_node18"><a xlink:href="dfp200_8f90.html#a73ddf39ecc5228201fb643779e17cd36" target="_top" xlink:title="Evaluate mu and psip derivatives and store them in dmupfdx.">
<polygon fill="white" stroke="black" points="140,-404.5 140,-423.5 235,-423.5 235,-404.5 140,-404.5"/>
<text text-anchor="middle" x="187.5" y="-411.5" font-family="Helvetica,sans-Serif" font-size="10.00">evaluate_dmupfdx</text>
</a>
</g>
</g>
<!-- Node2&#45;&gt;Node18 -->
<g id="edge53" class="edge">
<title>Node2&#45;&gt;Node18</title>
<path fill="none" stroke="midnightblue" d="M867.19,-415.63C856.58,-405.08 841.71,-392.29 826,-385 780.4,-363.85 764.77,-366 714.5,-366 714.5,-366 714.5,-366 426.5,-366 349.57,-366 261.37,-390.39 217.07,-404.4"/>
<polygon fill="midnightblue" stroke="midnightblue" points="864.95,-418.35 874.41,-423.13 870,-413.5 864.95,-418.35"/>
</g>
<!-- Node23 -->
<g id="node23" class="node">
<title>Node23</title>
<g id="a_node23"><a xlink:href="group__grp__solver.html#ga6626839aff500f060beb5bce2b90c447" target="_top" xlink:title="Solves Beltrami/vacuum (linear) system, given matrices.unpacking fluxes, helicity multiplier">
<polygon fill="white" stroke="black" points="775,-394.5 775,-413.5 826,-413.5 826,-394.5 775,-394.5"/>
<text text-anchor="middle" x="800.5" y="-401.5" font-family="Helvetica,sans-Serif" font-size="10.00">mp00ac</text>
</a>
</g>
</g>
<!-- Node2&#45;&gt;Node23 -->
<g id="edge54" class="edge">
<title>Node2&#45;&gt;Node23</title>
<path fill="none" stroke="midnightblue" d="M851.97,-421.96C843.45,-418.93 834.34,-415.69 826.23,-412.8"/>
<polygon fill="midnightblue" stroke="midnightblue" points="850.99,-425.33 861.59,-425.38 853.34,-418.73 850.99,-425.33"/>
</g>
<!-- Node3&#45;&gt;Node3 -->
<g id="edge51" class="edge">
<title>Node3&#45;&gt;Node3</title>
<path fill="none" stroke="midnightblue" d="M643.73,-423.77C642.58,-428.5 637.66,-432 629,-432 614.78,-432 610.67,-422.57 616.67,-413.76"/>
<polygon fill="midnightblue" stroke="midnightblue" points="647.07,-422.66 641.33,-413.76 640.26,-424.3 647.07,-422.66"/>
</g>
<!-- Node4 -->
<g id="node4" class="node">
<title>Node4</title>
<g id="a_node4"><a xlink:href="group__grp__global__force.html#ga38c9d3c50bd043707fefa5137c9dbf44" target="_top" xlink:title="Calculates , where &#160;and , and .">
<polygon fill="white" stroke="black" points="526,-188.5 526,-207.5 570,-207.5 570,-188.5 526,-188.5"/>
<text text-anchor="middle" x="548" y="-195.5" font-family="Helvetica,sans-Serif" font-size="10.00">dforce</text>
</a>
</g>
</g>
<!-- Node3&#45;&gt;Node4 -->
<g id="edge5" class="edge">
<title>Node3&#45;&gt;Node4</title>
<path fill="none" stroke="midnightblue" d="M620.64,-384.82C604.23,-342.03 565.12,-240.02 552.79,-207.88"/>
<polygon fill="midnightblue" stroke="midnightblue" points="617.45,-386.26 624.3,-394.34 623.98,-383.75 617.45,-386.26"/>
</g>
<!-- Node3&#45;&gt;Node18 -->
<g id="edge52" class="edge">
<title>Node3&#45;&gt;Node18</title>
<path fill="none" stroke="midnightblue" d="M595.88,-404.73C519.17,-406.48 325.02,-410.89 235.29,-412.94"/>
<polygon fill="midnightblue" stroke="midnightblue" points="595.99,-408.23 605.9,-404.5 595.83,-401.23 595.99,-408.23"/>
</g>
<!-- Node4&#45;&gt;Node4 -->
<g id="edge17" class="edge">
<title>Node4&#45;&gt;Node4</title>
<path fill="none" stroke="midnightblue" d="M562.73,-217.77C561.58,-222.5 556.66,-226 548,-226 533.78,-226 529.67,-216.57 535.67,-207.76"/>
<polygon fill="midnightblue" stroke="midnightblue" points="566.07,-216.66 560.33,-207.76 559.26,-218.3 566.07,-216.66"/>
</g>
<!-- Node5 -->
<g id="node5" class="node">
<title>Node5</title>
<g id="a_node5"><a xlink:href="namespaceallglobal.html#a7824bc37519fe88336534ce90ab2af16" target="_top" xlink:title=" ">
<polygon fill="white" stroke="black" points="370.5,-235.5 370.5,-254.5 484.5,-254.5 484.5,-235.5 370.5,-235.5"/>
<text text-anchor="middle" x="427.5" y="-242.5" font-family="Helvetica,sans-Serif" font-size="10.00">allglobal::check_inputs</text>
</a>
</g>
</g>
<!-- Node4&#45;&gt;Node5 -->
<g id="edge6" class="edge">
<title>Node4&#45;&gt;Node5</title>
<path fill="none" stroke="midnightblue" d="M516.32,-210.17C496.53,-218.02 471.15,-228.08 452.77,-235.37"/>
<polygon fill="midnightblue" stroke="midnightblue" points="517.81,-213.34 525.81,-206.4 515.23,-206.84 517.81,-213.34"/>
</g>
<!-- Node8 -->
<g id="node8" class="node">
<title>Node8</title>
<g id="a_node8"><a xlink:href="xspech_8f90.html#a48f45478dc2c9f70ea8aa1c60ad06503" target="_top" xlink:title="This is the main &quot;driver&quot; for the physics part of SPEC.">
<polygon fill="white" stroke="black" points="168.5,-154.5 168.5,-173.5 206.5,-173.5 206.5,-154.5 168.5,-154.5"/>
<text text-anchor="middle" x="187.5" y="-161.5" font-family="Helvetica,sans-Serif" font-size="10.00">spec</text>
</a>
</g>
</g>
<!-- Node4&#45;&gt;Node8 -->
<g id="edge50" class="edge">
<title>Node4&#45;&gt;Node8</title>
<path fill="none" stroke="midnightblue" d="M516.01,-191.06C443.47,-180.26 264.41,-163.55 206.73,-162.55"/>
<polygon fill="midnightblue" stroke="midnightblue" points="515.49,-194.52 525.91,-192.61 516.57,-187.6 515.49,-194.52"/>
</g>
<!-- Node11 -->
<g id="node11" class="node">
<title>Node11</title>
<g id="a_node11"><a xlink:href="group__grp__force__driver.html#gabbc245b3884ee8d8d3e2a52f25149f78" target="_top" xlink:title="Objective to be given to the Newton solver, using only function values.">
<polygon fill="white" stroke="black" points="410,-0.5 410,-19.5 445,-19.5 445,-0.5 410,-0.5"/>
<text text-anchor="middle" x="427.5" y="-7.5" font-family="Helvetica,sans-Serif" font-size="10.00">fcn1</text>
</a>
</g>
</g>
<!-- Node4&#45;&gt;Node11 -->
<g id="edge18" class="edge">
<title>Node4&#45;&gt;Node11</title>
<path fill="none" stroke="midnightblue" d="M543.26,-178.5C536.75,-148.62 520.94,-90.9 490,-52 477.93,-36.82 458.89,-25.01 445.19,-17.83"/>
<polygon fill="midnightblue" stroke="midnightblue" points="539.88,-179.4 545.32,-188.49 546.73,-177.99 539.88,-179.4"/>
</g>
<!-- Node12 -->
<g id="node12" class="node">
<title>Node12</title>
<g id="a_node12"><a xlink:href="group__grp__force__driver.html#gaec14f81fbdbedafbc4189489ec8ae178" target="_top" xlink:title="Employs Newton method to find , where &#160;and &#160;is defined in dforce() .">
<polygon fill="white" stroke="black" points="281,-23.5 281,-42.5 329,-42.5 329,-23.5 281,-23.5"/>
<text text-anchor="middle" x="305" y="-30.5" font-family="Helvetica,sans-Serif" font-size="10.00">newton</text>
</a>
</g>
</g>
<!-- Node4&#45;&gt;Node12 -->
<g id="edge45" class="edge">
<title>Node4&#45;&gt;Node12</title>
<path fill="none" stroke="midnightblue" d="M541.75,-178.51C534.25,-154.31 518.15,-113.37 490,-90 477.36,-79.51 375.72,-51.54 329.15,-39.11"/>
<polygon fill="midnightblue" stroke="midnightblue" points="538.46,-179.7 544.61,-188.33 545.18,-177.75 538.46,-179.7"/>
</g>
<!-- Node13 -->
<g id="node13" class="node">
<title>Node13</title>
<g id="a_node13"><a xlink:href="group__grp__force__driver.html#ga8ccd6c7d901872702521d0a0edf95412" target="_top" xlink:title="Objective to be given to the Newton solver, using function values and derivatives.">
<polygon fill="white" stroke="black" points="29.5,-33.5 29.5,-52.5 64.5,-52.5 64.5,-33.5 29.5,-33.5"/>
<text text-anchor="middle" x="47" y="-40.5" font-family="Helvetica,sans-Serif" font-size="10.00">fcn2</text>
</a>
</g>
</g>
<!-- Node4&#45;&gt;Node13 -->
<g id="edge30" class="edge">
<title>Node4&#45;&gt;Node13</title>
<path fill="none" stroke="midnightblue" d="M516.29,-186.03C507.83,-182.91 498.61,-179.68 490,-177 332.31,-127.95 284.45,-143.45 130,-85 106.21,-76 80.34,-61.98 64.15,-52.64"/>
<polygon fill="midnightblue" stroke="midnightblue" points="515.2,-189.36 525.79,-189.6 517.66,-182.81 515.2,-189.36"/>
</g>
<!-- Node15 -->
<g id="node15" class="node">
<title>Node15</title>
<g id="a_node15"><a xlink:href="dfp200_8f90.html#a6aca59cf350d7b1941f8389d50945a43" target="_top" xlink:title="get LU Beltrami matrices">
<polygon fill="white" stroke="black" points="365,-470.5 365,-489.5 490,-489.5 490,-470.5 365,-470.5"/>
<text text-anchor="middle" x="427.5" y="-477.5" font-family="Helvetica,sans-Serif" font-size="10.00">get_lu_beltrami_matrices</text>
</a>
</g>
</g>
<!-- Node4&#45;&gt;Node15 -->
<g id="edge31" class="edge">
<title>Node4&#45;&gt;Node15</title>
<path fill="none" stroke="midnightblue" d="M545.03,-217.81C539.3,-271.78 521.06,-419.72 490,-456 484.56,-462.36 477.22,-467.04 469.51,-470.48"/>
<polygon fill="midnightblue" stroke="midnightblue" points="548.55,-217.84 546.09,-207.54 541.58,-217.12 548.55,-217.84"/>
</g>
<!-- Node20 -->
<g id="node20" class="node">
<title>Node20</title>
<g id="a_node20"><a xlink:href="group__grp__output.html#ga7401b50ec10c6598ee4a8112717a63ec" target="_top" xlink:title="Computes eigenvalues and eigenvectors of derivative matrix, &#160;and saves them to .ext....">
<polygon fill="white" stroke="black" points="282.5,-188.5 282.5,-207.5 327.5,-207.5 327.5,-188.5 282.5,-188.5"/>
<text text-anchor="middle" x="305" y="-195.5" font-family="Helvetica,sans-Serif" font-size="10.00">hesian</text>
</a>
</g>
</g>
<!-- Node4&#45;&gt;Node20 -->
<g id="edge42" class="edge">
<title>Node4&#45;&gt;Node20</title>
<path fill="none" stroke="midnightblue" d="M515.44,-198C465.73,-198 370.43,-198 327.69,-198"/>
<polygon fill="midnightblue" stroke="midnightblue" points="515.61,-201.5 525.61,-198 515.61,-194.5 515.61,-201.5"/>
</g>
<!-- Node21 -->
<g id="node21" class="node">
<title>Node21</title>
<g id="a_node21"><a xlink:href="group__grp__conjugate__gradient.html#ga4d8415226e62a9fdb42b0fd0b464251e" target="_top" xlink:title="Returns the energy functional and it&#39;s derivatives with respect to geometry.">
<polygon fill="white" stroke="black" points="403.5,-291.5 403.5,-310.5 451.5,-310.5 451.5,-291.5 403.5,-291.5"/>
<text text-anchor="middle" x="427.5" y="-298.5" font-family="Helvetica,sans-Serif" font-size="10.00">pc00ab</text>
</a>
</g>
</g>
<!-- Node4&#45;&gt;Node21 -->
<g id="edge46" class="edge">
<title>Node4&#45;&gt;Node21</title>
<path fill="none" stroke="midnightblue" d="M533.84,-216.19C523.07,-230.29 506.91,-249.76 490,-264 477.04,-274.92 460.49,-284.68 447.83,-291.43"/>
<polygon fill="midnightblue" stroke="midnightblue" points="536.92,-217.92 540.09,-207.81 531.31,-213.74 536.92,-217.92"/>
</g>
<!-- Node6 -->
<g id="node6" class="node">
<title>Node6</title>
<g id="a_node6"><a xlink:href="xspech_8f90.html#a9fdc71dffd7c61ee4588a3f80d3ab9ce" target="_top" xlink:title="Main subroutine of SPEC.">
<polygon fill="white" stroke="black" points="281.5,-244.5 281.5,-263.5 328.5,-263.5 328.5,-244.5 281.5,-244.5"/>
<text text-anchor="middle" x="305" y="-251.5" font-family="Helvetica,sans-Serif" font-size="10.00">xspech</text>
</a>
</g>
</g>
<!-- Node5&#45;&gt;Node6 -->
<g id="edge7" class="edge">
<title>Node5&#45;&gt;Node6</title>
<path fill="none" stroke="midnightblue" d="M360.45,-249.93C349.06,-250.78 337.95,-251.61 328.77,-252.3"/>
<polygon fill="midnightblue" stroke="midnightblue" points="360.77,-253.42 370.48,-249.18 360.25,-246.44 360.77,-253.42"/>
</g>
<!-- Node6&#45;&gt;Node6 -->
<g id="edge16" class="edge">
<title>Node6&#45;&gt;Node6</title>
<path fill="none" stroke="midnightblue" d="M326.48,-273.4C325.05,-278.31 317.89,-282 305,-282 284.38,-282 278.42,-272.57 287.12,-263.76"/>
<polygon fill="midnightblue" stroke="midnightblue" points="329.66,-271.9 322.88,-263.76 323.1,-274.35 329.66,-271.9"/>
</g>
<!-- Node7 -->
<g id="node7" class="node">
<title>Node7</title>
<g id="a_node7"><a xlink:href="xspech_8f90.html#a1451823a7b97101a797de616250752c1" target="_top" xlink:title="Final diagnostics.">
<polygon fill="white" stroke="black" points="143,-268.5 143,-287.5 232,-287.5 232,-268.5 143,-268.5"/>
<text text-anchor="middle" x="187.5" y="-275.5" font-family="Helvetica,sans-Serif" font-size="10.00">final_diagnostics</text>
</a>
</g>
</g>
<!-- Node6&#45;&gt;Node7 -->
<g id="edge8" class="edge">
<title>Node6&#45;&gt;Node7</title>
<path fill="none" stroke="midnightblue" d="M271.5,-254.61C251.46,-257.74 226.37,-263.24 209.05,-268.42"/>
<polygon fill="midnightblue" stroke="midnightblue" points="272.05,-258.07 281.46,-253.2 271.06,-251.14 272.05,-258.07"/>
</g>
<!-- Node6&#45;&gt;Node8 -->
<g id="edge10" class="edge">
<title>Node6&#45;&gt;Node8</title>
<path fill="none" stroke="midnightblue" d="M292.48,-236.83C288.67,-233.25 284.5,-229.63 281,-226 262.74,-207.06 265.8,-195.12 245,-179 233.54,-170.12 218.31,-163.9 206.55,-161.37"/>
<polygon fill="midnightblue" stroke="midnightblue" points="290.05,-239.36 299.51,-244.14 295.1,-234.5 290.05,-239.36"/>
</g>
<!-- Node10 -->
<g id="node10" class="node">
<title>Node10</title>
<g id="a_node10"><a xlink:href="xspech_8f90.html#a95271e8805067f801b5d4e524d6901d4" target="_top" xlink:title="Main program of SPEC.">
<polygon fill="white" stroke="black" points="155.5,-230.5 155.5,-249.5 219.5,-249.5 219.5,-230.5 155.5,-230.5"/>
<text text-anchor="middle" x="187.5" y="-237.5" font-family="Helvetica,sans-Serif" font-size="10.00">spec_main</text>
</a>
</g>
</g>
<!-- Node6&#45;&gt;Node10 -->
<g id="edge15" class="edge">
<title>Node6&#45;&gt;Node10</title>
<path fill="none" stroke="midnightblue" d="M271.36,-250.04C255.17,-248.08 235.72,-245.72 219.73,-243.78"/>
<polygon fill="midnightblue" stroke="midnightblue" points="271.11,-253.54 281.46,-251.27 271.95,-246.59 271.11,-253.54"/>
</g>
<!-- Node7&#45;&gt;Node6 -->
<g id="edge9" class="edge">
<title>Node7&#45;&gt;Node6</title>
<path fill="none" stroke="midnightblue" d="M242.22,-273.57C256.95,-270.62 272.04,-267 283.62,-263.53"/>
<polygon fill="midnightblue" stroke="midnightblue" points="241.29,-270.19 232.12,-275.5 242.6,-277.06 241.29,-270.19"/>
</g>
<!-- Node8&#45;&gt;Node4 -->
<g id="edge11" class="edge">
<title>Node8&#45;&gt;Node4</title>
<path fill="none" stroke="midnightblue" d="M216.95,-170.56C286.63,-181.17 464.65,-197.9 525.91,-199.39"/>
<polygon fill="midnightblue" stroke="midnightblue" points="217.15,-167.05 206.73,-168.91 216.04,-173.96 217.15,-167.05"/>
</g>
<!-- Node8&#45;&gt;Node6 -->
<g id="edge14" class="edge">
<title>Node8&#45;&gt;Node6</title>
<path fill="none" stroke="midnightblue" d="M208.97,-177.74C220.35,-182.75 234.32,-188.72 245,-197 265.8,-213.12 262.74,-225.06 281,-244 281.14,-244.15 281.29,-244.3 281.43,-244.45"/>
<polygon fill="midnightblue" stroke="midnightblue" points="210.34,-174.52 199.79,-173.56 207.44,-180.89 210.34,-174.52"/>
</g>
<!-- Node9 -->
<g id="node9" class="node">
<title>Node9</title>
<g id="a_node9"><a xlink:href="group__grp__output.html#ga0f962c09cd5d5eba99f1cba043cb3898" target="_top" xlink:title="Initialize the interface to the HDF5 library and open the output file.">
<polygon fill="white" stroke="black" points="0,-173.5 0,-192.5 94,-192.5 94,-173.5 0,-173.5"/>
<text text-anchor="middle" x="47" y="-180.5" font-family="Helvetica,sans-Serif" font-size="10.00">sphdf5::init_outfile</text>
</a>
</g>
</g>
<!-- Node8&#45;&gt;Node9 -->
<g id="edge12" class="edge">
<title>Node8&#45;&gt;Node9</title>
<path fill="none" stroke="midnightblue" d="M158.31,-167.87C139.87,-170.4 115.36,-173.76 94.12,-176.67"/>
<polygon fill="midnightblue" stroke="midnightblue" points="158.96,-171.31 168.39,-166.48 158.01,-164.38 158.96,-171.31"/>
</g>
<!-- Node9&#45;&gt;Node6 -->
<g id="edge13" class="edge">
<title>Node9&#45;&gt;Node6</title>
<path fill="none" stroke="midnightblue" d="M104.23,-189C144.35,-194.43 199.1,-204.23 245,-221 261.09,-226.88 278.02,-236.79 289.6,-244.21"/>
<polygon fill="midnightblue" stroke="midnightblue" points="104.47,-185.5 94.1,-187.67 103.56,-192.44 104.47,-185.5"/>
</g>
<!-- Node11&#45;&gt;Node11 -->
<g id="edge19" class="edge">
<title>Node11&#45;&gt;Node11</title>
<path fill="none" stroke="midnightblue" d="M450,-27.73C449.8,-33.46 442.3,-38 427.5,-38 405.47,-38 399.62,-27.93 409.94,-18.89"/>
<polygon fill="midnightblue" stroke="midnightblue" points="452.99,-25.91 445.06,-18.89 446.88,-29.33 452.99,-25.91"/>
</g>
<!-- Node11&#45;&gt;Node12 -->
<g id="edge20" class="edge">
<title>Node11&#45;&gt;Node12</title>
<path fill="none" stroke="midnightblue" d="M399.6,-9.4C378.01,-12.05 348.07,-17.89 327.92,-23.47"/>
<polygon fill="midnightblue" stroke="midnightblue" points="400.16,-12.86 409.74,-8.35 399.44,-5.9 400.16,-12.86"/>
</g>
<!-- Node12&#45;&gt;Node8 -->
<g id="edge26" class="edge">
<title>Node12&#45;&gt;Node8</title>
<path fill="none" stroke="midnightblue" d="M288.43,-50.66C263.69,-78.72 216.26,-132.52 196.97,-154.4"/>
<polygon fill="midnightblue" stroke="midnightblue" points="291.33,-52.66 295.32,-42.85 286.08,-48.03 291.33,-52.66"/>
</g>
<!-- Node12&#45;&gt;Node11 -->
<g id="edge21" class="edge">
<title>Node12&#45;&gt;Node11</title>
<path fill="none" stroke="midnightblue" d="M339.21,-32.77C362.11,-29.57 391.58,-23.52 409.74,-18.04"/>
<polygon fill="midnightblue" stroke="midnightblue" points="338.7,-29.3 329.22,-34.03 339.57,-36.25 338.7,-29.3"/>
</g>
<!-- Node12&#45;&gt;Node12 -->
<g id="edge25" class="edge">
<title>Node12&#45;&gt;Node12</title>
<path fill="none" stroke="midnightblue" d="M326.48,-52.4C325.05,-57.31 317.89,-61 305,-61 284.38,-61 278.42,-51.57 287.12,-42.76"/>
<polygon fill="midnightblue" stroke="midnightblue" points="329.66,-50.9 322.88,-42.76 323.1,-53.35 329.66,-50.9"/>
</g>
<!-- Node12&#45;&gt;Node13 -->
<g id="edge22" class="edge">
<title>Node12&#45;&gt;Node13</title>
<path fill="none" stroke="midnightblue" d="M270.49,-29.58C215.08,-28.7 106.32,-33.34 64.72,-38.79"/>
<polygon fill="midnightblue" stroke="midnightblue" points="270.75,-33.08 280.83,-29.82 270.92,-26.08 270.75,-33.08"/>
</g>
<!-- Node14 -->
<g id="node14" class="node">
<title>Node14</title>
<g id="a_node14"><a xlink:href="group__grp__output.html#ga382822b303cbf8c56d6f54dcb379caf2" target="_top" xlink:title="read or write force&#45;derivative matrix .ext.sp.DF">
<polygon fill="white" stroke="black" points="155,-56.5 155,-75.5 220,-75.5 220,-56.5 155,-56.5"/>
<text text-anchor="middle" x="187.5" y="-63.5" font-family="Helvetica,sans-Serif" font-size="10.00">writereadgf</text>
</a>
</g>
</g>
<!-- Node12&#45;&gt;Node14 -->
<g id="edge27" class="edge">
<title>Node12&#45;&gt;Node14</title>
<path fill="none" stroke="midnightblue" d="M271.11,-36.24C249.44,-41.33 222.01,-49.6 204.85,-56.45"/>
<polygon fill="midnightblue" stroke="midnightblue" points="271.9,-39.65 280.9,-34.07 270.38,-32.81 271.9,-39.65"/>
</g>
<!-- Node13&#45;&gt;Node12 -->
<g id="edge24" class="edge">
<title>Node13&#45;&gt;Node12</title>
<path fill="none" stroke="midnightblue" d="M74.85,-46.29C125.28,-47.62 233.36,-43.31 280.83,-37.99"/>
<polygon fill="midnightblue" stroke="midnightblue" points="74.85,-42.78 64.72,-45.9 74.58,-49.78 74.85,-42.78"/>
</g>
<!-- Node13&#45;&gt;Node13 -->
<g id="edge23" class="edge">
<title>Node13&#45;&gt;Node13</title>
<path fill="none" stroke="midnightblue" d="M72.47,-57.41C76,-64.59 67.51,-71 47,-71 19.66,-71 13.67,-59.61 29.06,-50.17"/>
<polygon fill="midnightblue" stroke="midnightblue" points="74.58,-54.58 64.94,-50.17 69.73,-59.62 74.58,-54.58"/>
</g>
<!-- Node14&#45;&gt;Node12 -->
<g id="edge29" class="edge">
<title>Node14&#45;&gt;Node12</title>
<path fill="none" stroke="midnightblue" d="M230.05,-60.64C249.89,-55.57 272.51,-48.58 287.45,-42.63"/>
<polygon fill="midnightblue" stroke="midnightblue" points="229.16,-57.25 220.28,-63.02 230.83,-64.05 229.16,-57.25"/>
</g>
<!-- Node14&#45;&gt;Node13 -->
<g id="edge28" class="edge">
<title>Node14&#45;&gt;Node13</title>
<path fill="none" stroke="midnightblue" d="M144.76,-59.07C117.8,-54.59 84.2,-49.01 64.52,-45.74"/>
<polygon fill="midnightblue" stroke="midnightblue" points="144.29,-62.54 154.73,-60.72 145.43,-55.63 144.29,-62.54"/>
</g>
<!-- Node16 -->
<g id="node16" class="node">
<title>Node16</title>
<g id="a_node16"><a xlink:href="dfp200_8f90.html#a55ea75395f8c71731451e1add3720c7e" target="_top" xlink:title="Given the field consistent with the constraints and the geometry, computes local quantites related to...">
<polygon fill="white" stroke="black" points="282,-452.5 282,-471.5 328,-471.5 328,-452.5 282,-452.5"/>
<text text-anchor="middle" x="305" y="-459.5" font-family="Helvetica,sans-Serif" font-size="10.00">dfp200</text>
</a>
</g>
</g>
<!-- Node15&#45;&gt;Node16 -->
<g id="edge32" class="edge">
<title>Node15&#45;&gt;Node16</title>
<path fill="none" stroke="midnightblue" d="M390.8,-468.44C370.49,-464.49 345.69,-461.07 328.17,-459.94"/>
<polygon fill="midnightblue" stroke="midnightblue" points="390.15,-471.88 400.65,-470.48 391.57,-465.03 390.15,-471.88"/>
</g>
<!-- Node16&#45;&gt;Node4 -->
<g id="edge33" class="edge">
<title>Node16&#45;&gt;Node4</title>
<path fill="none" stroke="midnightblue" d="M337.18,-448.17C377.51,-428.84 447.61,-390.18 490,-338 523.76,-296.45 539.91,-232.22 545.08,-207.84"/>
<polygon fill="midnightblue" stroke="midnightblue" points="335.65,-445.02 328.08,-452.44 338.62,-451.36 335.65,-445.02"/>
</g>
<!-- Node16&#45;&gt;Node15 -->
<g id="edge39" class="edge">
<title>Node16&#45;&gt;Node15</title>
<path fill="none" stroke="midnightblue" d="M338.01,-472.82C346.32,-474.51 355.56,-476.13 364.84,-477.54"/>
<polygon fill="midnightblue" stroke="midnightblue" points="338.56,-469.36 328.04,-470.65 337.07,-476.2 338.56,-469.36"/>
</g>
<!-- Node16&#45;&gt;Node16 -->
<g id="edge34" class="edge">
<title>Node16&#45;&gt;Node16</title>
<path fill="none" stroke="midnightblue" d="M326.48,-481.4C325.05,-486.31 317.89,-490 305,-490 284.38,-490 278.42,-480.57 287.12,-471.76"/>
<polygon fill="midnightblue" stroke="midnightblue" points="329.66,-479.9 322.88,-471.76 323.1,-482.35 329.66,-479.9"/>
</g>
<!-- Node17 -->
<g id="node17" class="node">
<title>Node17</title>
<g id="a_node17"><a xlink:href="dfp200_8f90.html#a7b64c7392b45d0042d8bd7379c0761a5" target="_top" xlink:title="Evaluate the derivative of the square of the magnetic field modulus. Add spectral constraint derivati...">
<polygon fill="white" stroke="black" points="150.5,-490.5 150.5,-509.5 224.5,-509.5 224.5,-490.5 150.5,-490.5"/>
<text text-anchor="middle" x="187.5" y="-497.5" font-family="Helvetica,sans-Serif" font-size="10.00">evaluate_dbb</text>
</a>
</g>
</g>
<!-- Node16&#45;&gt;Node17 -->
<g id="edge35" class="edge">
<title>Node16&#45;&gt;Node17</title>
<path fill="none" stroke="midnightblue" d="M271.95,-466.43C249.52,-472.63 220.6,-482.61 203.36,-490.41"/>
<polygon fill="midnightblue" stroke="midnightblue" points="272.94,-469.79 281.73,-463.87 271.17,-463.01 272.94,-469.79"/>
</g>
<!-- Node16&#45;&gt;Node18 -->
<g id="edge37" class="edge">
<title>Node16&#45;&gt;Node18</title>
<path fill="none" stroke="midnightblue" d="M282.77,-447.81C267.15,-439.93 245.47,-430.58 226.84,-423.53"/>
<polygon fill="midnightblue" stroke="midnightblue" points="281.16,-450.92 291.64,-452.49 284.43,-444.73 281.16,-450.92"/>
</g>
<!-- Node19 -->
<g id="node19" class="node">
<title>Node19</title>
<g id="a_node19"><a xlink:href="dfp200_8f90.html#a5e56f1f4b1e6df11a9cffa6237c37469" target="_top" xlink:title="This routine evaluates the value of the magnetic field once the interface is perturbed using matrix p...">
<polygon fill="white" stroke="black" points="130,-452.5 130,-471.5 245,-471.5 245,-452.5 130,-452.5"/>
<text text-anchor="middle" x="187.5" y="-459.5" font-family="Helvetica,sans-Serif" font-size="10.00">get_perturbed_solution</text>
</a>
</g>
</g>
<!-- Node16&#45;&gt;Node19 -->
<g id="edge40" class="edge">
<title>Node16&#45;&gt;Node19</title>
<path fill="none" stroke="midnightblue" d="M271.51,-455.86C263.3,-455.44 254.25,-455.23 245.23,-455.25"/>
<polygon fill="midnightblue" stroke="midnightblue" points="271.52,-459.37 281.73,-456.54 271.99,-452.38 271.52,-459.37"/>
</g>
<!-- Node17&#45;&gt;Node16 -->
<g id="edge36" class="edge">
<title>Node17&#45;&gt;Node16</title>
<path fill="none" stroke="midnightblue" d="M234.59,-491.46C253.93,-485.52 275.09,-477.92 288.9,-471.7"/>
<polygon fill="midnightblue" stroke="midnightblue" points="233.57,-488.11 224.99,-494.32 235.57,-494.82 233.57,-488.11"/>
</g>
<!-- Node18&#45;&gt;Node16 -->
<g id="edge38" class="edge">
<title>Node18&#45;&gt;Node16</title>
<path fill="none" stroke="midnightblue" d="M209.93,-428.29C230.36,-438.58 261.02,-451.34 281.73,-458.2"/>
<polygon fill="midnightblue" stroke="midnightblue" points="211.55,-425.19 201.07,-423.62 208.28,-431.38 211.55,-425.19"/>
</g>
<!-- Node19&#45;&gt;Node16 -->
<g id="edge41" class="edge">
<title>Node19&#45;&gt;Node16</title>
<path fill="none" stroke="midnightblue" d="M255.23,-468.68C264.76,-468.52 273.95,-468.11 281.73,-467.46"/>
<polygon fill="midnightblue" stroke="midnightblue" points="255.21,-465.18 245.23,-468.75 255.26,-472.18 255.21,-465.18"/>
</g>
<!-- Node20&#45;&gt;Node8 -->
<g id="edge44" class="edge">
<title>Node20&#45;&gt;Node8</title>
<path fill="none" stroke="midnightblue" d="M272.46,-188.71C251.35,-182.5 224.31,-174.54 206.71,-169.36"/>
<polygon fill="midnightblue" stroke="midnightblue" points="271.69,-192.14 282.28,-191.6 273.67,-185.42 271.69,-192.14"/>
</g>
<!-- Node20&#45;&gt;Node20 -->
<g id="edge43" class="edge">
<title>Node20&#45;&gt;Node20</title>
<path fill="none" stroke="midnightblue" d="M326.48,-217.4C325.05,-222.31 317.89,-226 305,-226 284.38,-226 278.42,-216.57 287.12,-207.76"/>
<polygon fill="midnightblue" stroke="midnightblue" points="329.66,-215.9 322.88,-207.76 323.1,-218.35 329.66,-215.9"/>
</g>
<!-- Node21&#45;&gt;Node21 -->
<g id="edge49" class="edge">
<title>Node21&#45;&gt;Node21</title>
<path fill="none" stroke="midnightblue" d="M449.82,-320.03C448.6,-325.13 441.16,-329 427.5,-329 406.17,-329 400.01,-319.57 409,-310.76"/>
<polygon fill="midnightblue" stroke="midnightblue" points="453.05,-318.67 446,-310.76 446.57,-321.34 453.05,-318.67"/>
</g>
<!-- Node22 -->
<g id="node22" class="node">
<title>Node22</title>
<g id="a_node22"><a xlink:href="group__grp__conjugate__gradient.html#ga25a3bae2ff2ee0469b045de0d033398b" target="_top" xlink:title="Use preconditioned conjugate gradient method to find minimum of energy functional.">
<polygon fill="white" stroke="black" points="281,-300.5 281,-319.5 329,-319.5 329,-300.5 281,-300.5"/>
<text text-anchor="middle" x="305" y="-307.5" font-family="Helvetica,sans-Serif" font-size="10.00">pc00aa</text>
</a>
</g>
</g>
<!-- Node21&#45;&gt;Node22 -->
<g id="edge47" class="edge">
<title>Node21&#45;&gt;Node22</title>
<path fill="none" stroke="midnightblue" d="M393.16,-303.49C372.81,-305.01 347.31,-306.91 329.16,-308.27"/>
<polygon fill="midnightblue" stroke="midnightblue" points="393.55,-306.97 403.27,-302.74 393.03,-299.99 393.55,-306.97"/>
</g>
<!-- Node22&#45;&gt;Node22 -->
<g id="edge48" class="edge">
<title>Node22&#45;&gt;Node22</title>
<path fill="none" stroke="midnightblue" d="M326.48,-329.4C325.05,-334.31 317.89,-338 305,-338 284.38,-338 278.42,-328.57 287.12,-319.76"/>
<polygon fill="midnightblue" stroke="midnightblue" points="329.66,-327.9 322.88,-319.76 323.1,-330.35 329.66,-327.9"/>
</g>
<!-- Node23&#45;&gt;Node23 -->
<g id="edge58" class="edge">
<title>Node23&#45;&gt;Node23</title>
<path fill="none" stroke="midnightblue" d="M815.6,-423.77C814.41,-428.5 809.38,-432 800.5,-432 785.93,-432 781.71,-422.57 787.86,-413.76"/>
<polygon fill="midnightblue" stroke="midnightblue" points="818.93,-422.63 813.14,-413.76 812.13,-424.3 818.93,-422.63"/>
</g>
<!-- Node24 -->
<g id="node24" class="node">
<title>Node24</title>
<g id="a_node24"><a xlink:href="group__grp__solver__driver.html#gacad623d4c5c006e9ad10116372f92ad3" target="_top" xlink:title="Constructs Beltrami field in given volume consistent with flux, helicity, rotational&#45;transform and/or...">
<polygon fill="white" stroke="black" points="688,-394.5 688,-413.5 739,-413.5 739,-394.5 688,-394.5"/>
<text text-anchor="middle" x="713.5" y="-401.5" font-family="Helvetica,sans-Serif" font-size="10.00">ma02aa</text>
</a>
</g>
</g>
<!-- Node23&#45;&gt;Node24 -->
<g id="edge55" class="edge">
<title>Node23&#45;&gt;Node24</title>
<path fill="none" stroke="midnightblue" d="M764.72,-404C756.1,-404 747.04,-404 739.03,-404"/>
<polygon fill="midnightblue" stroke="midnightblue" points="764.91,-407.5 774.91,-404 764.91,-400.5 764.91,-407.5"/>
</g>
<!-- Node24&#45;&gt;Node3 -->
<g id="edge56" class="edge">
<title>Node24&#45;&gt;Node3</title>
<path fill="none" stroke="midnightblue" d="M677.56,-404C668.97,-404 660.01,-404 652.21,-404"/>
<polygon fill="midnightblue" stroke="midnightblue" points="677.75,-407.5 687.75,-404 677.75,-400.5 677.75,-407.5"/>
</g>
<!-- Node24&#45;&gt;Node24 -->
<g id="edge57" class="edge">
<title>Node24&#45;&gt;Node24</title>
<path fill="none" stroke="midnightblue" d="M728.97,-423.77C727.75,-428.5 722.6,-432 713.5,-432 698.57,-432 694.25,-422.57 700.55,-413.76"/>
<polygon fill="midnightblue" stroke="midnightblue" points="732.28,-422.6 726.45,-413.76 725.5,-424.31 732.28,-422.6"/>
</g>
<!-- Node25&#45;&gt;Node16 -->
<g id="edge60" class="edge">
<title>Node25&#45;&gt;Node16</title>
<path fill="none" stroke="midnightblue" d="M397.06,-510.6C386.71,-507.56 375.13,-503.65 365,-499 348.29,-491.34 330.63,-479.73 319.03,-471.57"/>
<polygon fill="midnightblue" stroke="midnightblue" points="396.33,-514.03 406.91,-513.35 398.22,-507.29 396.33,-514.03"/>
</g>
<!-- Node25&#45;&gt;Node17 -->
<g id="edge61" class="edge">
<title>Node25&#45;&gt;Node17</title>
<path fill="none" stroke="midnightblue" d="M396.61,-515.74C352.87,-512.43 271.54,-506.28 224.55,-502.73"/>
<polygon fill="midnightblue" stroke="midnightblue" points="396.38,-519.23 406.62,-516.5 396.91,-512.25 396.38,-519.23"/>
</g>
<!-- Node25&#45;&gt;Node25 -->
<g id="edge62" class="edge">
<title>Node25&#45;&gt;Node25</title>
<path fill="none" stroke="midnightblue" d="M449.82,-537.03C448.6,-542.13 441.16,-546 427.5,-546 406.17,-546 400.01,-536.57 409,-527.76"/>
<polygon fill="midnightblue" stroke="midnightblue" points="453.05,-535.67 446,-527.76 446.57,-538.34 453.05,-535.67"/>
</g>
</g>
</svg>
