<?xml version="1.0" encoding="UTF-8" standalone="no"?>
<!DOCTYPE svg PUBLIC "-//W3C//DTD SVG 1.1//EN"
 "http://www.w3.org/Graphics/SVG/1.1/DTD/svg11.dtd">
<!-- Generated by graphviz version 2.49.3 (20211027.1534)
 -->
<!-- Title: allglobal::ismyvolume Pages: 1 -->
<svg width="804pt" height="566pt"
 viewBox="0.00 0.00 804.00 566.00" xmlns="http://www.w3.org/2000/svg" xmlns:xlink="http://www.w3.org/1999/xlink">
<g id="graph0" class="graph" transform="scale(1 1) rotate(0) translate(4 562)">
<title>allglobal::ismyvolume</title>
<polygon fill="white" stroke="transparent" points="-4,4 -4,-562 800,-562 800,4 -4,4"/>
<!-- Node1 -->
<g id="node1" class="node">
<title>Node1</title>
<g id="a_node1"><a xlink:title="Check if volume vvol is associated to the corresponding MPI node.">
<polygon fill="#bfbfbf" stroke="black" points="688,-212.5 688,-231.5 796,-231.5 796,-212.5 688,-212.5"/>
<text text-anchor="middle" x="742" y="-219.5" font-family="Helvetica,sans-Serif" font-size="10.00">allglobal::ismyvolume</text>
</a>
</g>
</g>
<!-- Node2 -->
<g id="node2" class="node">
<title>Node2</title>
<g id="a_node2"><a xlink:href="group__grp__parallel.html#ga5d8e3412e023967dda67b02f358b754a" target="_top" xlink:title="Broadcasts Beltrami fields, profiles, . . .">
<polygon fill="white" stroke="black" points="607,-278.5 607,-297.5 651,-297.5 651,-278.5 607,-278.5"/>
<text text-anchor="middle" x="629" y="-285.5" font-family="Helvetica,sans-Serif" font-size="10.00">brcast</text>
</a>
</g>
</g>
<!-- Node1&#45;&gt;Node2 -->
<g id="edge1" class="edge">
<title>Node1&#45;&gt;Node2</title>
<path fill="none" stroke="midnightblue" d="M715.76,-237.01C694.37,-249.73 664.35,-267.58 646.08,-278.44"/>
<polygon fill="midnightblue" stroke="midnightblue" points="717.81,-239.86 724.62,-231.74 714.24,-233.84 717.81,-239.86"/>
</g>
<!-- Node3 -->
<g id="node3" class="node">
<title>Node3</title>
<g id="a_node3"><a xlink:href="group__grp__global__force.html#ga38c9d3c50bd043707fefa5137c9dbf44" target="_top" xlink:title="Calculates , where &#160;and , and .">
<polygon fill="white" stroke="black" points="526,-269.5 526,-288.5 570,-288.5 570,-269.5 526,-269.5"/>
<text text-anchor="middle" x="548" y="-276.5" font-family="Helvetica,sans-Serif" font-size="10.00">dforce</text>
</a>
</g>
</g>
<!-- Node1&#45;&gt;Node3 -->
<g id="edge49" class="edge">
<title>Node1&#45;&gt;Node3</title>
<path fill="none" stroke="midnightblue" d="M699.18,-234.42C659.41,-246.22 601.2,-263.5 570.23,-272.7"/>
<polygon fill="midnightblue" stroke="midnightblue" points="700.27,-237.74 708.86,-231.54 698.28,-231.03 700.27,-237.74"/>
</g>
<!-- Node6 -->
<g id="node6" class="node">
<title>Node6</title>
<g id="a_node6"><a xlink:href="xspech_8f90.html#a1451823a7b97101a797de616250752c1" target="_top" xlink:title="Final diagnostics.">
<polygon fill="white" stroke="black" points="143,-510.5 143,-529.5 232,-529.5 232,-510.5 143,-510.5"/>
<text text-anchor="middle" x="187.5" y="-517.5" font-family="Helvetica,sans-Serif" font-size="10.00">final_diagnostics</text>
</a>
</g>
</g>
<!-- Node1&#45;&gt;Node6 -->
<g id="edge56" class="edge">
<title>Node1&#45;&gt;Node6</title>
<path fill="none" stroke="midnightblue" d="M739.28,-241.69C731.82,-313.63 695.68,-558 549,-558 549,-558 549,-558 426.5,-558 354.53,-558 271.83,-540.85 225.31,-529.59"/>
<polygon fill="midnightblue" stroke="midnightblue" points="742.77,-241.98 740.24,-231.69 735.8,-241.31 742.77,-241.98"/>
</g>
<!-- Node15 -->
<g id="node15" class="node">
<title>Node15</title>
<g id="a_node15"><a xlink:href="dfp200_8f90.html#a55ea75395f8c71731451e1add3720c7e" target="_top" xlink:title="Given the field consistent with the constraints and the geometry, computes local quantites related to...">
<polygon fill="white" stroke="black" points="282,-151.5 282,-170.5 328,-170.5 328,-151.5 282,-151.5"/>
<text text-anchor="middle" x="305" y="-158.5" font-family="Helvetica,sans-Serif" font-size="10.00">dfp200</text>
</a>
</g>
</g>
<!-- Node1&#45;&gt;Node15 -->
<g id="edge54" class="edge">
<title>Node1&#45;&gt;Node15</title>
<path fill="none" stroke="midnightblue" d="M718.11,-206.77C700.73,-196 675.84,-182.25 652,-175 534.38,-139.23 383.88,-151.67 328.09,-158.13"/>
<polygon fill="midnightblue" stroke="midnightblue" points="716.62,-209.97 726.94,-212.38 720.38,-204.06 716.62,-209.97"/>
</g>
<!-- Node17 -->
<g id="node17" class="node">
<title>Node17</title>
<g id="a_node17"><a xlink:href="dfp200_8f90.html#a73ddf39ecc5228201fb643779e17cd36" target="_top" xlink:title="Evaluate mu and psip derivatives and store them in dmupfdx.">
<polygon fill="white" stroke="black" points="140,-99.5 140,-118.5 235,-118.5 235,-99.5 140,-99.5"/>
<text text-anchor="middle" x="187.5" y="-106.5" font-family="Helvetica,sans-Serif" font-size="10.00">evaluate_dmupfdx</text>
</a>
</g>
</g>
<!-- Node1&#45;&gt;Node17 -->
<g id="edge55" class="edge">
<title>Node1&#45;&gt;Node17</title>
<path fill="none" stroke="midnightblue" d="M726.26,-204.85C696.41,-172.13 625.1,-104 549,-104 549,-104 549,-104 426.5,-104 359.96,-104 282.98,-105.98 235.01,-107.45"/>
<polygon fill="midnightblue" stroke="midnightblue" points="723.68,-207.2 732.94,-212.34 728.9,-202.55 723.68,-207.2"/>
</g>
<!-- Node22 -->
<g id="node22" class="node">
<title>Node22</title>
<g id="a_node22"><a xlink:href="dfp100_8f90.html#a17a3ac15cc83994394f7b4cc05e5898e" target="_top" xlink:title="Split the work between MPI nodes and evaluate the global constraint.">
<polygon fill="white" stroke="black" points="606,-184.5 606,-203.5 652,-203.5 652,-184.5 606,-184.5"/>
<text text-anchor="middle" x="629" y="-191.5" font-family="Helvetica,sans-Serif" font-size="10.00">dfp100</text>
</a>
</g>
</g>
<!-- Node1&#45;&gt;Node22 -->
<g id="edge50" class="edge">
<title>Node1&#45;&gt;Node22</title>
<path fill="none" stroke="midnightblue" d="M693.36,-209.98C679.05,-206.37 664.02,-202.58 652.19,-199.6"/>
<polygon fill="midnightblue" stroke="midnightblue" points="692.56,-213.39 703.11,-212.44 694.27,-206.6 692.56,-213.39"/>
</g>
<!-- Node2&#45;&gt;Node2 -->
<g id="edge2" class="edge">
<title>Node2&#45;&gt;Node2</title>
<path fill="none" stroke="midnightblue" d="M643.73,-307.77C642.58,-312.5 637.66,-316 629,-316 614.78,-316 610.67,-306.57 616.67,-297.76"/>
<polygon fill="midnightblue" stroke="midnightblue" points="647.07,-306.66 641.33,-297.76 640.26,-308.3 647.07,-306.66"/>
</g>
<!-- Node2&#45;&gt;Node3 -->
<g id="edge3" class="edge">
<title>Node2&#45;&gt;Node3</title>
<path fill="none" stroke="midnightblue" d="M596.77,-284.44C587.87,-283.43 578.38,-282.35 570.23,-281.42"/>
<polygon fill="midnightblue" stroke="midnightblue" points="596.5,-287.93 606.83,-285.59 597.29,-280.98 596.5,-287.93"/>
</g>
<!-- Node2&#45;&gt;Node6 -->
<g id="edge48" class="edge">
<title>Node2&#45;&gt;Node6</title>
<path fill="none" stroke="midnightblue" d="M620.66,-307.4C604.21,-347.87 560.27,-441.02 490,-483 409.08,-531.35 294.17,-530.22 232.19,-525.13"/>
<polygon fill="midnightblue" stroke="midnightblue" points="624,-308.47 624.41,-297.88 617.48,-305.9 624,-308.47"/>
</g>
<!-- Node3&#45;&gt;Node3 -->
<g id="edge14" class="edge">
<title>Node3&#45;&gt;Node3</title>
<path fill="none" stroke="midnightblue" d="M562.73,-298.77C561.58,-303.5 556.66,-307 548,-307 533.78,-307 529.67,-297.57 535.67,-288.76"/>
<polygon fill="midnightblue" stroke="midnightblue" points="566.07,-297.66 560.33,-288.76 559.26,-299.3 566.07,-297.66"/>
</g>
<!-- Node4 -->
<g id="node4" class="node">
<title>Node4</title>
<g id="a_node4"><a xlink:href="namespaceallglobal.html#a7824bc37519fe88336534ce90ab2af16" target="_top" xlink:title=" ">
<polygon fill="white" stroke="black" points="370.5,-454.5 370.5,-473.5 484.5,-473.5 484.5,-454.5 370.5,-454.5"/>
<text text-anchor="middle" x="427.5" y="-461.5" font-family="Helvetica,sans-Serif" font-size="10.00">allglobal::check_inputs</text>
</a>
</g>
</g>
<!-- Node3&#45;&gt;Node4 -->
<g id="edge4" class="edge">
<title>Node3&#45;&gt;Node4</title>
<path fill="none" stroke="midnightblue" d="M545.21,-299.13C541.21,-332.66 528.57,-400.18 490,-440 483.94,-446.26 476.06,-450.91 467.97,-454.37"/>
<polygon fill="midnightblue" stroke="midnightblue" points="548.74,-299.1 546.3,-288.79 541.78,-298.37 548.74,-299.1"/>
</g>
<!-- Node7 -->
<g id="node7" class="node">
<title>Node7</title>
<g id="a_node7"><a xlink:href="xspech_8f90.html#a48f45478dc2c9f70ea8aa1c60ad06503" target="_top" xlink:title="This is the main &quot;driver&quot; for the physics part of SPEC.">
<polygon fill="white" stroke="black" points="168.5,-396.5 168.5,-415.5 206.5,-415.5 206.5,-396.5 168.5,-396.5"/>
<text text-anchor="middle" x="187.5" y="-403.5" font-family="Helvetica,sans-Serif" font-size="10.00">spec</text>
</a>
</g>
</g>
<!-- Node3&#45;&gt;Node7 -->
<g id="edge47" class="edge">
<title>Node3&#45;&gt;Node7</title>
<path fill="none" stroke="midnightblue" d="M541.29,-298.19C533.52,-320.8 517.36,-357.71 490,-377 400.39,-440.18 256.75,-419.68 206.53,-409.9"/>
<polygon fill="midnightblue" stroke="midnightblue" points="544.63,-299.25 544.36,-288.66 537.97,-297.1 544.63,-299.25"/>
</g>
<!-- Node10 -->
<g id="node10" class="node">
<title>Node10</title>
<g id="a_node10"><a xlink:href="group__grp__force__driver.html#gabbc245b3884ee8d8d3e2a52f25149f78" target="_top" xlink:title="fcn1">
<polygon fill="white" stroke="black" points="410,-284.5 410,-303.5 445,-303.5 445,-284.5 410,-284.5"/>
<text text-anchor="middle" x="427.5" y="-291.5" font-family="Helvetica,sans-Serif" font-size="10.00">fcn1</text>
</a>
</g>
</g>
<!-- Node3&#45;&gt;Node10 -->
<g id="edge15" class="edge">
<title>Node3&#45;&gt;Node10</title>
<path fill="none" stroke="midnightblue" d="M515.69,-282.96C493.13,-285.82 463.55,-289.56 445.29,-291.87"/>
<polygon fill="midnightblue" stroke="midnightblue" points="516.33,-286.41 525.81,-281.68 515.45,-279.47 516.33,-286.41"/>
</g>
<!-- Node11 -->
<g id="node11" class="node">
<title>Node11</title>
<g id="a_node11"><a xlink:href="group__grp__force__driver.html#gaec14f81fbdbedafbc4189489ec8ae178" target="_top" xlink:title="Employs Newton method to find , where &#160;and &#160;is defined in dforce() .">
<polygon fill="white" stroke="black" points="281,-294.5 281,-313.5 329,-313.5 329,-294.5 281,-294.5"/>
<text text-anchor="middle" x="305" y="-301.5" font-family="Helvetica,sans-Serif" font-size="10.00">newton</text>
</a>
</g>
</g>
<!-- Node3&#45;&gt;Node11 -->
<g id="edge42" class="edge">
<title>Node3&#45;&gt;Node11</title>
<path fill="none" stroke="midnightblue" d="M533.93,-296.4C523.55,-308.66 507.86,-324.08 490,-331 438.2,-351.08 419.28,-342.83 365,-331 349.59,-327.64 333.39,-319.88 321.87,-313.54"/>
<polygon fill="midnightblue" stroke="midnightblue" points="536.69,-298.55 540.22,-288.56 531.23,-294.17 536.69,-298.55"/>
</g>
<!-- Node12 -->
<g id="node12" class="node">
<title>Node12</title>
<g id="a_node12"><a xlink:href="group__grp__force__driver.html#ga8ccd6c7d901872702521d0a0edf95412" target="_top" xlink:title="fcn2">
<polygon fill="white" stroke="black" points="29.5,-308.5 29.5,-327.5 64.5,-327.5 64.5,-308.5 29.5,-308.5"/>
<text text-anchor="middle" x="47" y="-315.5" font-family="Helvetica,sans-Serif" font-size="10.00">fcn2</text>
</a>
</g>
</g>
<!-- Node3&#45;&gt;Node12 -->
<g id="edge27" class="edge">
<title>Node3&#45;&gt;Node12</title>
<path fill="none" stroke="midnightblue" d="M515.78,-273.5C445.58,-262.24 270.42,-240.42 130,-275 103.93,-281.42 76.98,-297.76 61.39,-308.35"/>
<polygon fill="midnightblue" stroke="midnightblue" points="515.31,-276.96 525.75,-275.14 516.45,-270.06 515.31,-276.96"/>
</g>
<!-- Node14 -->
<g id="node14" class="node">
<title>Node14</title>
<g id="a_node14"><a xlink:href="dfp200_8f90.html#a6aca59cf350d7b1941f8389d50945a43" target="_top" xlink:title="get LU Beltrami matrices">
<polygon fill="white" stroke="black" points="365,-208.5 365,-227.5 490,-227.5 490,-208.5 365,-208.5"/>
<text text-anchor="middle" x="427.5" y="-215.5" font-family="Helvetica,sans-Serif" font-size="10.00">get_lu_beltrami_matrices</text>
</a>
</g>
</g>
<!-- Node3&#45;&gt;Node14 -->
<g id="edge28" class="edge">
<title>Node3&#45;&gt;Node14</title>
<path fill="none" stroke="midnightblue" d="M525.43,-263.51C515.03,-256.43 502.18,-248.25 490,-242 479.39,-236.56 467.26,-231.58 456.58,-227.58"/>
<polygon fill="midnightblue" stroke="midnightblue" points="523.66,-266.55 533.87,-269.38 527.66,-260.8 523.66,-266.55"/>
</g>
<!-- Node19 -->
<g id="node19" class="node">
<title>Node19</title>
<g id="a_node19"><a xlink:href="group__grp__diagnostics.html#ga7401b50ec10c6598ee4a8112717a63ec" target="_top" xlink:title="Computes eigenvalues and eigenvectors of derivative matrix, .">
<polygon fill="white" stroke="black" points="282.5,-360.5 282.5,-379.5 327.5,-379.5 327.5,-360.5 282.5,-360.5"/>
<text text-anchor="middle" x="305" y="-367.5" font-family="Helvetica,sans-Serif" font-size="10.00">hesian</text>
</a>
</g>
</g>
<!-- Node3&#45;&gt;Node19 -->
<g id="edge39" class="edge">
<title>Node3&#45;&gt;Node19</title>
<path fill="none" stroke="midnightblue" d="M537.74,-297.79C528.27,-314.81 511.85,-339.01 490,-351 437.5,-379.82 363.84,-376.73 327.71,-372.93"/>
<polygon fill="midnightblue" stroke="midnightblue" points="540.94,-299.22 542.51,-288.75 534.75,-295.96 540.94,-299.22"/>
</g>
<!-- Node20 -->
<g id="node20" class="node">
<title>Node20</title>
<g id="a_node20"><a xlink:href="group__grp__conjugate__gradient.html#ga4d8415226e62a9fdb42b0fd0b464251e" target="_top" xlink:title="Returns the energy functional and it&#39;s derivatives with respect to geometry.">
<polygon fill="white" stroke="black" points="403.5,-0.5 403.5,-19.5 451.5,-19.5 451.5,-0.5 403.5,-0.5"/>
<text text-anchor="middle" x="427.5" y="-7.5" font-family="Helvetica,sans-Serif" font-size="10.00">pc00ab</text>
</a>
</g>
</g>
<!-- Node3&#45;&gt;Node20 -->
<g id="edge43" class="edge">
<title>Node3&#45;&gt;Node20</title>
<path fill="none" stroke="midnightblue" d="M538.72,-260.21C515.47,-207.43 450.17,-59.18 432.79,-19.74"/>
<polygon fill="midnightblue" stroke="midnightblue" points="535.55,-261.69 542.78,-269.43 541.95,-258.86 535.55,-261.69"/>
</g>
<!-- Node5 -->
<g id="node5" class="node">
<title>Node5</title>
<g id="a_node5"><a xlink:href="xspech_8f90.html#a9fdc71dffd7c61ee4588a3f80d3ab9ce" target="_top" xlink:title="Main subroutine of SPEC.">
<polygon fill="white" stroke="black" points="281.5,-454.5 281.5,-473.5 328.5,-473.5 328.5,-454.5 281.5,-454.5"/>
<text text-anchor="middle" x="305" y="-461.5" font-family="Helvetica,sans-Serif" font-size="10.00">xspech</text>
</a>
</g>
</g>
<!-- Node4&#45;&gt;Node5 -->
<g id="edge5" class="edge">
<title>Node4&#45;&gt;Node5</title>
<path fill="none" stroke="midnightblue" d="M360.45,-464C349.06,-464 337.95,-464 328.77,-464"/>
<polygon fill="midnightblue" stroke="midnightblue" points="360.48,-467.5 370.48,-464 360.48,-460.5 360.48,-467.5"/>
</g>
<!-- Node5&#45;&gt;Node5 -->
<g id="edge13" class="edge">
<title>Node5&#45;&gt;Node5</title>
<path fill="none" stroke="midnightblue" d="M326.48,-483.4C325.05,-488.31 317.89,-492 305,-492 284.38,-492 278.42,-482.57 287.12,-473.76"/>
<polygon fill="midnightblue" stroke="midnightblue" points="329.66,-481.9 322.88,-473.76 323.1,-484.35 329.66,-481.9"/>
</g>
<!-- Node5&#45;&gt;Node6 -->
<g id="edge6" class="edge">
<title>Node5&#45;&gt;Node6</title>
<path fill="none" stroke="midnightblue" d="M272.19,-473.3C263.47,-477.7 253.94,-482.69 245,-487 228.3,-495.05 208.2,-503.25 197.04,-510.5"/>
<polygon fill="midnightblue" stroke="midnightblue" points="273.87,-476.38 281.29,-468.81 270.77,-470.1 273.87,-476.38"/>
</g>
<!-- Node5&#45;&gt;Node7 -->
<g id="edge8" class="edge">
<title>Node5&#45;&gt;Node7</title>
<path fill="none" stroke="midnightblue" d="M291.21,-447.04C279.63,-436.55 261.87,-424.24 245,-416 232.63,-409.96 217.86,-405.07 206.53,-403.02"/>
<polygon fill="midnightblue" stroke="midnightblue" points="288.89,-449.68 298.44,-454.28 293.85,-444.73 288.89,-449.68"/>
</g>
<!-- Node9 -->
<g id="node9" class="node">
<title>Node9</title>
<g id="a_node9"><a xlink:href="xspech_8f90.html#a95271e8805067f801b5d4e524d6901d4" target="_top" xlink:title="Main program of SPEC.">
<polygon fill="white" stroke="black" points="155.5,-434.5 155.5,-453.5 219.5,-453.5 219.5,-434.5 155.5,-434.5"/>
<text text-anchor="middle" x="187.5" y="-441.5" font-family="Helvetica,sans-Serif" font-size="10.00">spec_main</text>
</a>
</g>
</g>
<!-- Node5&#45;&gt;Node9 -->
<g id="edge12" class="edge">
<title>Node5&#45;&gt;Node9</title>
<path fill="none" stroke="midnightblue" d="M271.36,-458.35C255.17,-455.54 235.72,-452.18 219.73,-449.41"/>
<polygon fill="midnightblue" stroke="midnightblue" points="271.01,-461.84 281.46,-460.1 272.2,-454.94 271.01,-461.84"/>
</g>
<!-- Node6&#45;&gt;Node5 -->
<g id="edge7" class="edge">
<title>Node6&#45;&gt;Node5</title>
<path fill="none" stroke="midnightblue" d="M241.47,-506.68C242.66,-506.12 243.84,-505.56 245,-505 264.31,-495.69 286.34,-483.23 297.21,-473.62"/>
<polygon fill="midnightblue" stroke="midnightblue" points="239.84,-503.58 232.18,-510.9 242.73,-509.95 239.84,-503.58"/>
</g>
<!-- Node7&#45;&gt;Node5 -->
<g id="edge11" class="edge">
<title>Node7&#45;&gt;Node5</title>
<path fill="none" stroke="midnightblue" d="M209.2,-419.56C220.12,-423.83 233.58,-428.43 245,-434 257.58,-440.14 270.65,-448.55 281.29,-455.19"/>
<polygon fill="midnightblue" stroke="midnightblue" points="210.24,-416.2 199.67,-415.55 207.53,-422.65 210.24,-416.2"/>
</g>
<!-- Node8 -->
<g id="node8" class="node">
<title>Node8</title>
<g id="a_node8"><a xlink:href="group__grp__output.html#ga0f962c09cd5d5eba99f1cba043cb3898" target="_top" xlink:title="Initialize the interface to the HDF5 library and open the output file.">
<polygon fill="white" stroke="black" points="0,-434.5 0,-453.5 94,-453.5 94,-434.5 0,-434.5"/>
<text text-anchor="middle" x="47" y="-441.5" font-family="Helvetica,sans-Serif" font-size="10.00">sphdf5::init_outfile</text>
</a>
</g>
</g>
<!-- Node7&#45;&gt;Node8 -->
<g id="edge9" class="edge">
<title>Node7&#45;&gt;Node8</title>
<path fill="none" stroke="midnightblue" d="M158.74,-413.62C136.91,-419.61 106.37,-427.98 82.89,-434.43"/>
<polygon fill="midnightblue" stroke="midnightblue" points="159.68,-416.99 168.39,-410.97 157.82,-410.24 159.68,-416.99"/>
</g>
<!-- Node8&#45;&gt;Node5 -->
<g id="edge10" class="edge">
<title>Node8&#45;&gt;Node5</title>
<path fill="none" stroke="midnightblue" d="M91.64,-456C103.95,-458.87 117.41,-461.52 130,-463 184.01,-469.33 248.09,-467.25 281.38,-465.46"/>
<polygon fill="midnightblue" stroke="midnightblue" points="92.16,-452.53 81.61,-453.56 90.5,-459.33 92.16,-452.53"/>
</g>
<!-- Node10&#45;&gt;Node10 -->
<g id="edge16" class="edge">
<title>Node10&#45;&gt;Node10</title>
<path fill="none" stroke="midnightblue" d="M450,-311.73C449.8,-317.46 442.3,-322 427.5,-322 405.47,-322 399.62,-311.93 409.94,-302.89"/>
<polygon fill="midnightblue" stroke="midnightblue" points="452.99,-309.91 445.06,-302.89 446.88,-313.33 452.99,-309.91"/>
</g>
<!-- Node10&#45;&gt;Node11 -->
<g id="edge17" class="edge">
<title>Node10&#45;&gt;Node11</title>
<path fill="none" stroke="midnightblue" d="M399.51,-290.5C378.38,-290.82 349.31,-293.32 329.22,-296.62"/>
<polygon fill="midnightblue" stroke="midnightblue" points="399.73,-294 409.74,-290.55 399.76,-287 399.73,-294"/>
</g>
<!-- Node11&#45;&gt;Node7 -->
<g id="edge23" class="edge">
<title>Node11&#45;&gt;Node7</title>
<path fill="none" stroke="midnightblue" d="M288.41,-321.23C276.88,-333.62 260.54,-350.46 245,-364 231.36,-375.88 214.61,-388.06 202.9,-396.23"/>
<polygon fill="midnightblue" stroke="midnightblue" points="291.04,-323.54 295.23,-313.81 285.89,-318.8 291.04,-323.54"/>
</g>
<!-- Node11&#45;&gt;Node10 -->
<g id="edge18" class="edge">
<title>Node11&#45;&gt;Node10</title>
<path fill="none" stroke="midnightblue" d="M339.52,-307.34C362.37,-306.59 391.66,-303.74 409.74,-300.24"/>
<polygon fill="midnightblue" stroke="midnightblue" points="339.15,-303.85 329.22,-307.53 339.28,-310.84 339.15,-303.85"/>
</g>
<!-- Node11&#45;&gt;Node11 -->
<g id="edge22" class="edge">
<title>Node11&#45;&gt;Node11</title>
<path fill="none" stroke="midnightblue" d="M326.48,-323.4C325.05,-328.31 317.89,-332 305,-332 284.38,-332 278.42,-322.57 287.12,-313.76"/>
<polygon fill="midnightblue" stroke="midnightblue" points="329.66,-321.9 322.88,-313.76 323.1,-324.35 329.66,-321.9"/>
</g>
<!-- Node11&#45;&gt;Node12 -->
<g id="edge19" class="edge">
<title>Node11&#45;&gt;Node12</title>
<path fill="none" stroke="midnightblue" d="M270.66,-301.12C262.31,-302.09 253.35,-303.26 245,-304 178.38,-309.9 98.62,-309.71 64.64,-313.29"/>
<polygon fill="midnightblue" stroke="midnightblue" points="271.25,-304.58 280.82,-300.04 270.51,-297.62 271.25,-304.58"/>
</g>
<!-- Node13 -->
<g id="node13" class="node">
<title>Node13</title>
<g id="a_node13"><a xlink:href="group__grp__force__driver.html#ga382822b303cbf8c56d6f54dcb379caf2" target="_top" xlink:title="read or write force&#45;derivative matrix">
<polygon fill="white" stroke="black" points="155,-284.5 155,-303.5 220,-303.5 220,-284.5 155,-284.5"/>
<text text-anchor="middle" x="187.5" y="-291.5" font-family="Helvetica,sans-Serif" font-size="10.00">writereadgf</text>
</a>
</g>
</g>
<!-- Node11&#45;&gt;Node13 -->
<g id="edge24" class="edge">
<title>Node11&#45;&gt;Node13</title>
<path fill="none" stroke="midnightblue" d="M270.96,-294.97C255.05,-292.8 236.05,-291.17 220.3,-290.65"/>
<polygon fill="midnightblue" stroke="midnightblue" points="270.49,-298.44 280.9,-296.47 271.54,-291.52 270.49,-298.44"/>
</g>
<!-- Node12&#45;&gt;Node11 -->
<g id="edge21" class="edge">
<title>Node12&#45;&gt;Node11</title>
<path fill="none" stroke="midnightblue" d="M74.87,-324.37C112.85,-327.69 184.36,-327.37 245,-322 260.89,-320.59 279.02,-317.62 290.93,-313.52"/>
<polygon fill="midnightblue" stroke="midnightblue" points="74.96,-320.86 64.64,-323.28 74.22,-327.82 74.96,-320.86"/>
</g>
<!-- Node12&#45;&gt;Node12 -->
<g id="edge20" class="edge">
<title>Node12&#45;&gt;Node12</title>
<path fill="none" stroke="midnightblue" d="M72.47,-332.41C76,-339.59 67.51,-346 47,-346 19.66,-346 13.67,-334.61 29.06,-325.17"/>
<polygon fill="midnightblue" stroke="midnightblue" points="74.58,-329.58 64.94,-325.17 69.73,-334.62 74.58,-329.58"/>
</g>
<!-- Node13&#45;&gt;Node11 -->
<g id="edge26" class="edge">
<title>Node13&#45;&gt;Node11</title>
<path fill="none" stroke="midnightblue" d="M230.57,-304.17C247.56,-306.14 266.51,-307.45 280.9,-307.53"/>
<polygon fill="midnightblue" stroke="midnightblue" points="230.67,-300.65 220.3,-302.86 229.78,-307.59 230.67,-300.65"/>
</g>
<!-- Node13&#45;&gt;Node12 -->
<g id="edge25" class="edge">
<title>Node13&#45;&gt;Node12</title>
<path fill="none" stroke="midnightblue" d="M144.76,-301.23C117.8,-305.9 84.2,-311.73 64.52,-315.14"/>
<polygon fill="midnightblue" stroke="midnightblue" points="145.47,-304.66 154.73,-299.51 144.27,-297.76 145.47,-304.66"/>
</g>
<!-- Node14&#45;&gt;Node15 -->
<g id="edge29" class="edge">
<title>Node14&#45;&gt;Node15</title>
<path fill="none" stroke="midnightblue" d="M407.48,-203.65C395.18,-197.86 378.93,-191.57 365,-185 352.48,-179.09 338.96,-171.62 328.03,-166.16"/>
<polygon fill="midnightblue" stroke="midnightblue" points="406.24,-206.95 416.74,-208.39 409.43,-200.72 406.24,-206.95"/>
</g>
<!-- Node15&#45;&gt;Node3 -->
<g id="edge30" class="edge">
<title>Node15&#45;&gt;Node3</title>
<path fill="none" stroke="midnightblue" d="M338.29,-160.72C377.28,-161.86 443.42,-168.63 490,-199 517.14,-216.69 535.39,-252.19 543,-269.32"/>
<polygon fill="midnightblue" stroke="midnightblue" points="338.11,-157.22 328.05,-160.54 337.99,-164.22 338.11,-157.22"/>
</g>
<!-- Node15&#45;&gt;Node14 -->
<g id="edge36" class="edge">
<title>Node15&#45;&gt;Node14</title>
<path fill="none" stroke="midnightblue" d="M320.2,-176.93C331.98,-185.69 349.27,-195.57 365,-203 368.94,-204.86 373.06,-206.7 377.23,-208.44"/>
<polygon fill="midnightblue" stroke="midnightblue" points="322.34,-174.16 312.39,-170.51 317.9,-179.56 322.34,-174.16"/>
</g>
<!-- Node15&#45;&gt;Node15 -->
<g id="edge31" class="edge">
<title>Node15&#45;&gt;Node15</title>
<path fill="none" stroke="midnightblue" d="M326.48,-180.4C325.05,-185.31 317.89,-189 305,-189 284.38,-189 278.42,-179.57 287.12,-170.76"/>
<polygon fill="midnightblue" stroke="midnightblue" points="329.66,-178.9 322.88,-170.76 323.1,-181.35 329.66,-178.9"/>
</g>
<!-- Node16 -->
<g id="node16" class="node">
<title>Node16</title>
<g id="a_node16"><a xlink:href="dfp200_8f90.html#a7b64c7392b45d0042d8bd7379c0761a5" target="_top" xlink:title="Evaluate the derivative of the square of the magnetic field modulus. Add spectral constraint derivati...">
<polygon fill="white" stroke="black" points="150.5,-184.5 150.5,-203.5 224.5,-203.5 224.5,-184.5 150.5,-184.5"/>
<text text-anchor="middle" x="187.5" y="-191.5" font-family="Helvetica,sans-Serif" font-size="10.00">evaluate_dbb</text>
</a>
</g>
</g>
<!-- Node15&#45;&gt;Node16 -->
<g id="edge32" class="edge">
<title>Node15&#45;&gt;Node16</title>
<path fill="none" stroke="midnightblue" d="M271.89,-164.05C250.06,-169.15 222.1,-177.55 204.74,-184.49"/>
<polygon fill="midnightblue" stroke="midnightblue" points="272.71,-167.46 281.73,-161.9 271.21,-160.62 272.71,-167.46"/>
</g>
<!-- Node15&#45;&gt;Node17 -->
<g id="edge34" class="edge">
<title>Node15&#45;&gt;Node17</title>
<path fill="none" stroke="midnightblue" d="M283.21,-146.31C266.64,-137.35 243.07,-126.43 223.59,-118.53"/>
<polygon fill="midnightblue" stroke="midnightblue" points="281.65,-149.45 292.07,-151.32 285.09,-143.35 281.65,-149.45"/>
</g>
<!-- Node18 -->
<g id="node18" class="node">
<title>Node18</title>
<g id="a_node18"><a xlink:href="dfp200_8f90.html#a5e56f1f4b1e6df11a9cffa6237c37469" target="_top" xlink:title="This routine evaluates the value of the magnetic field once the interface is perturbed using matrix p...">
<polygon fill="white" stroke="black" points="130,-146.5 130,-165.5 245,-165.5 245,-146.5 130,-146.5"/>
<text text-anchor="middle" x="187.5" y="-153.5" font-family="Helvetica,sans-Serif" font-size="10.00">get_perturbed_solution</text>
</a>
</g>
</g>
<!-- Node15&#45;&gt;Node18 -->
<g id="edge37" class="edge">
<title>Node15&#45;&gt;Node18</title>
<path fill="none" stroke="midnightblue" d="M271.78,-153.48C263.51,-152.69 254.35,-152.09 245.23,-151.71"/>
<polygon fill="midnightblue" stroke="midnightblue" points="271.41,-156.96 281.73,-154.58 272.17,-150 271.41,-156.96"/>
</g>
<!-- Node16&#45;&gt;Node15 -->
<g id="edge33" class="edge">
<title>Node16&#45;&gt;Node15</title>
<path fill="none" stroke="midnightblue" d="M234.43,-187.5C253.15,-182.56 273.6,-176.14 287.45,-170.63"/>
<polygon fill="midnightblue" stroke="midnightblue" points="233.38,-184.16 224.55,-190.01 235.1,-190.94 233.38,-184.16"/>
</g>
<!-- Node17&#45;&gt;Node15 -->
<g id="edge35" class="edge">
<title>Node17&#45;&gt;Node15</title>
<path fill="none" stroke="midnightblue" d="M209.26,-123.67C229.69,-134.73 260.79,-148.77 281.73,-156.43"/>
<polygon fill="midnightblue" stroke="midnightblue" points="210.87,-120.56 200.44,-118.68 207.42,-126.65 210.87,-120.56"/>
</g>
<!-- Node18&#45;&gt;Node15 -->
<g id="edge38" class="edge">
<title>Node18&#45;&gt;Node15</title>
<path fill="none" stroke="midnightblue" d="M255.23,-165.57C264.76,-165.82 273.95,-165.81 281.73,-165.49"/>
<polygon fill="midnightblue" stroke="midnightblue" points="255.35,-162.07 245.23,-165.21 255.1,-169.06 255.35,-162.07"/>
</g>
<!-- Node19&#45;&gt;Node7 -->
<g id="edge41" class="edge">
<title>Node19&#45;&gt;Node7</title>
<path fill="none" stroke="midnightblue" d="M272.46,-379.83C251.35,-386.41 224.31,-394.84 206.71,-400.32"/>
<polygon fill="midnightblue" stroke="midnightblue" points="273.77,-383.09 282.28,-376.77 271.69,-376.41 273.77,-383.09"/>
</g>
<!-- Node19&#45;&gt;Node19 -->
<g id="edge40" class="edge">
<title>Node19&#45;&gt;Node19</title>
<path fill="none" stroke="midnightblue" d="M326.48,-389.4C325.05,-394.31 317.89,-398 305,-398 284.38,-398 278.42,-388.57 287.12,-379.76"/>
<polygon fill="midnightblue" stroke="midnightblue" points="329.66,-387.9 322.88,-379.76 323.1,-390.35 329.66,-387.9"/>
</g>
<!-- Node20&#45;&gt;Node20 -->
<g id="edge46" class="edge">
<title>Node20&#45;&gt;Node20</title>
<path fill="none" stroke="midnightblue" d="M449.82,-29.03C448.6,-34.13 441.16,-38 427.5,-38 406.17,-38 400.01,-28.57 409,-19.76"/>
<polygon fill="midnightblue" stroke="midnightblue" points="453.05,-27.67 446,-19.76 446.57,-30.34 453.05,-27.67"/>
</g>
<!-- Node21 -->
<g id="node21" class="node">
<title>Node21</title>
<g id="a_node21"><a xlink:href="group__grp__conjugate__gradient.html#ga25a3bae2ff2ee0469b045de0d033398b" target="_top" xlink:title="Use preconditioned conjugate gradient method to find minimum of energy functional.">
<polygon fill="white" stroke="black" points="281,-0.5 281,-19.5 329,-19.5 329,-0.5 281,-0.5"/>
<text text-anchor="middle" x="305" y="-7.5" font-family="Helvetica,sans-Serif" font-size="10.00">pc00aa</text>
</a>
</g>
</g>
<!-- Node20&#45;&gt;Node21 -->
<g id="edge44" class="edge">
<title>Node20&#45;&gt;Node21</title>
<path fill="none" stroke="midnightblue" d="M393.16,-10C372.81,-10 347.31,-10 329.16,-10"/>
<polygon fill="midnightblue" stroke="midnightblue" points="393.27,-13.5 403.27,-10 393.27,-6.5 393.27,-13.5"/>
</g>
<!-- Node21&#45;&gt;Node21 -->
<g id="edge45" class="edge">
<title>Node21&#45;&gt;Node21</title>
<path fill="none" stroke="midnightblue" d="M326.48,-29.4C325.05,-34.31 317.89,-38 305,-38 284.38,-38 278.42,-28.57 287.12,-19.76"/>
<polygon fill="midnightblue" stroke="midnightblue" points="329.66,-27.9 322.88,-19.76 323.1,-30.35 329.66,-27.9"/>
</g>
<!-- Node22&#45;&gt;Node3 -->
<g id="edge51" class="edge">
<title>Node22&#45;&gt;Node3</title>
<path fill="none" stroke="midnightblue" d="M612.13,-211.08C595.85,-228.59 571.11,-255.21 557.96,-269.36"/>
<polygon fill="midnightblue" stroke="midnightblue" points="614.69,-213.46 618.94,-203.75 609.57,-208.69 614.69,-213.46"/>
</g>
<!-- Node22&#45;&gt;Node17 -->
<g id="edge53" class="edge">
<title>Node22&#45;&gt;Node17</title>
<path fill="none" stroke="midnightblue" d="M598.58,-180.03C545.95,-155.9 431.59,-107.33 329,-90 291.38,-83.64 247.81,-91.95 219.29,-99.49"/>
<polygon fill="midnightblue" stroke="midnightblue" points="597.42,-183.35 607.96,-184.37 600.36,-177 597.42,-183.35"/>
</g>
<!-- Node22&#45;&gt;Node22 -->
<g id="edge52" class="edge">
<title>Node22&#45;&gt;Node22</title>
<path fill="none" stroke="midnightblue" d="M643.73,-213.77C642.58,-218.5 637.66,-222 629,-222 614.78,-222 610.67,-212.57 616.67,-203.76"/>
<polygon fill="midnightblue" stroke="midnightblue" points="647.07,-212.66 641.33,-203.76 640.26,-214.3 647.07,-212.66"/>
</g>
</g>
</svg>
