<?xml version="1.0" encoding="UTF-8" standalone="no"?>
<!DOCTYPE svg PUBLIC "-//W3C//DTD SVG 1.1//EN"
 "http://www.w3.org/Graphics/SVG/1.1/DTD/svg11.dtd">
<!-- Generated by graphviz version 2.44.1 (0)
 -->
<!-- Title: allglobal::readin Pages: 1 -->
<svg width="247pt" height="66pt"
 viewBox="0.00 0.00 247.00 66.00" xmlns="http://www.w3.org/2000/svg" xmlns:xlink="http://www.w3.org/1999/xlink">
<g id="graph0" class="graph" transform="scale(1 1) rotate(0) translate(4 62)">
<title>allglobal::readin</title>
<polygon fill="white" stroke="transparent" points="-4,4 -4,-62 243,-62 243,4 -4,4"/>
<!-- Node1 -->
<g id="node1" class="node">
<title>Node1</title>
<g id="a_node1"><a xlink:title="The master node reads the input namelist and sets various internal variables. The relevant quantities...">
<polygon fill="#bfbfbf" stroke="black" points="0,-19.5 0,-38.5 95,-38.5 95,-19.5 0,-19.5"/>
<text text-anchor="middle" x="47.5" y="-26.5" font-family="Helvetica,sans-Serif" font-size="10.00">allglobal::readin</text>
</a>
</g>
</g>
<!-- Node2 -->
<g id="node2" class="node">
<title>Node2</title>
<g id="a_node2"><a xlink:href="group__grp__numerics.html#ga02a336a22890e7ae5a5c2d525260666c" target="_top" xlink:title="Assign Fourier mode labels.">
<polygon fill="white" stroke="black" points="160,-38.5 160,-57.5 210,-57.5 210,-38.5 160,-38.5"/>
<text text-anchor="middle" x="185" y="-45.5" font-family="Helvetica,sans-Serif" font-size="10.00">gi00ab</text>
</a>
</g>
</g>
<!-- Node1&#45;&gt;Node2 -->
<g id="edge1" class="edge">
<title>Node1&#45;&gt;Node2</title>
<path fill="none" stroke="midnightblue" d="M95.13,-35.54C112.97,-38.04 132.97,-40.84 149.48,-43.16"/>
<polygon fill="midnightblue" stroke="midnightblue" points="149.37,-46.68 159.76,-44.6 150.34,-39.75 149.37,-46.68"/>
</g>
<!-- Node3 -->
<g id="node3" class="node">
<title>Node3</title>
<g id="a_node3"><a xlink:href="namespacenumerical.html#ac9cf42743694682672a82103c8ffedda" target="_top" xlink:title="Duplicates NAG routine X02AJF (machine precision)">
<polygon fill="white" stroke="black" points="131,-0.5 131,-19.5 239,-19.5 239,-0.5 131,-0.5"/>
<text text-anchor="middle" x="185" y="-7.5" font-family="Helvetica,sans-Serif" font-size="10.00">numerical::myprec</text>
</a>
</g>
</g>
<!-- Node1&#45;&gt;Node3 -->
<g id="edge2" class="edge">
<title>Node1&#45;&gt;Node3</title>
<path fill="none" stroke="midnightblue" d="M95.13,-22.46C103.38,-21.3 112.1,-20.08 120.72,-18.87"/>
<polygon fill="midnightblue" stroke="midnightblue" points="121.35,-22.32 130.77,-17.46 120.38,-15.39 121.35,-22.32"/>
</g>
</g>
</svg>
