<?xml version="1.0" encoding="UTF-8" standalone="no"?>
<!DOCTYPE svg PUBLIC "-//W3C//DTD SVG 1.1//EN"
 "http://www.w3.org/Graphics/SVG/1.1/DTD/svg11.dtd">
<!-- Generated by graphviz version 2.49.0 (0)
 -->
<!-- Title: push_back Pages: 1 -->
<svg width="845pt" height="424pt"
 viewBox="0.00 0.00 845.00 424.00" xmlns="http://www.w3.org/2000/svg" xmlns:xlink="http://www.w3.org/1999/xlink">
<g id="graph0" class="graph" transform="scale(1 1) rotate(0) translate(4 420)">
<title>push_back</title>
<polygon fill="white" stroke="transparent" points="-4,4 -4,-420 841,-420 841,4 -4,4"/>
<!-- Node1 -->
<g id="node1" class="node">
<title>Node1</title>
<g id="a_node1"><a xlink:title="push a new element at the back of the queue">
<polygon fill="#bfbfbf" stroke="black" points="773,-76.5 773,-95.5 837,-95.5 837,-76.5 773,-76.5"/>
<text text-anchor="middle" x="805" y="-83.5" font-family="Helvetica,sans-Serif" font-size="10.00">push_back</text>
</a>
</g>
</g>
<!-- Node2 -->
<g id="node2" class="node">
<title>Node2</title>
<g id="a_node2"><a xlink:href="group__grp__build__matrices.html#ga4d521a46a64530ade50e6b79a33e1452" target="_top" xlink:title="Constructs matrices for the precondtioner.">
<polygon fill="white" stroke="black" points="688,-76.5 688,-95.5 737,-95.5 737,-76.5 688,-76.5"/>
<text text-anchor="middle" x="712.5" y="-83.5" font-family="Helvetica,sans-Serif" font-size="10.00">spsmat</text>
</a>
</g>
</g>
<!-- Node1&#45;&gt;Node2 -->
<g id="edge1" class="edge">
<title>Node1&#45;&gt;Node2</title>
<path fill="none" stroke="midnightblue" d="M762.77,-86C754.03,-86 745.09,-86 737.27,-86"/>
<polygon fill="midnightblue" stroke="midnightblue" points="762.86,-89.5 772.86,-86 762.85,-82.5 762.86,-89.5"/>
</g>
<!-- Node2&#45;&gt;Node2 -->
<g id="edge50" class="edge">
<title>Node2&#45;&gt;Node2</title>
<path fill="none" stroke="midnightblue" d="M727.6,-105.77C726.41,-110.5 721.38,-114 712.5,-114 697.93,-114 693.71,-104.57 699.86,-95.76"/>
<polygon fill="midnightblue" stroke="midnightblue" points="730.93,-104.63 725.14,-95.76 724.13,-106.3 730.93,-104.63"/>
</g>
<!-- Node3 -->
<g id="node3" class="node">
<title>Node3</title>
<g id="a_node3"><a xlink:href="dfp100_8f90.html#a17a3ac15cc83994394f7b4cc05e5898e" target="_top" xlink:title="Split the work between MPI nodes and evaluate the global constraint.">
<polygon fill="white" stroke="black" points="606,-76.5 606,-95.5 652,-95.5 652,-76.5 606,-76.5"/>
<text text-anchor="middle" x="629" y="-83.5" font-family="Helvetica,sans-Serif" font-size="10.00">dfp100</text>
</a>
</g>
</g>
<!-- Node2&#45;&gt;Node3 -->
<g id="edge2" class="edge">
<title>Node2&#45;&gt;Node3</title>
<path fill="none" stroke="midnightblue" d="M677.71,-86C669.07,-86 660.01,-86 652.12,-86"/>
<polygon fill="midnightblue" stroke="midnightblue" points="677.93,-89.5 687.93,-86 677.93,-82.5 677.93,-89.5"/>
</g>
<!-- Node3&#45;&gt;Node3 -->
<g id="edge48" class="edge">
<title>Node3&#45;&gt;Node3</title>
<path fill="none" stroke="midnightblue" d="M643.73,-105.77C642.58,-110.5 637.66,-114 629,-114 614.78,-114 610.67,-104.57 616.67,-95.76"/>
<polygon fill="midnightblue" stroke="midnightblue" points="647.07,-104.66 641.33,-95.76 640.26,-106.3 647.07,-104.66"/>
</g>
<!-- Node4 -->
<g id="node4" class="node">
<title>Node4</title>
<g id="a_node4"><a xlink:href="group__grp__global__force.html#ga38c9d3c50bd043707fefa5137c9dbf44" target="_top" xlink:title="Calculates , where &#160;and , and .">
<polygon fill="white" stroke="black" points="526,-180.5 526,-199.5 570,-199.5 570,-180.5 526,-180.5"/>
<text text-anchor="middle" x="548" y="-187.5" font-family="Helvetica,sans-Serif" font-size="10.00">dforce</text>
</a>
</g>
</g>
<!-- Node3&#45;&gt;Node4 -->
<g id="edge3" class="edge">
<title>Node3&#45;&gt;Node4</title>
<path fill="none" stroke="midnightblue" d="M614.46,-103.82C597.62,-125.99 569.49,-163.03 556.27,-180.43"/>
<polygon fill="midnightblue" stroke="midnightblue" points="617.45,-105.68 620.71,-95.6 611.87,-101.44 617.45,-105.68"/>
</g>
<!-- Node18 -->
<g id="node18" class="node">
<title>Node18</title>
<g id="a_node18"><a xlink:href="dfp200_8f90.html#a73ddf39ecc5228201fb643779e17cd36" target="_top" xlink:title="Evaluate mu and psip derivatives and store them in dmupfdx.">
<polygon fill="white" stroke="black" points="140,-0.5 140,-19.5 235,-19.5 235,-0.5 140,-0.5"/>
<text text-anchor="middle" x="187.5" y="-7.5" font-family="Helvetica,sans-Serif" font-size="10.00">evaluate_dmupfdx</text>
</a>
</g>
</g>
<!-- Node3&#45;&gt;Node18 -->
<g id="edge49" class="edge">
<title>Node3&#45;&gt;Node18</title>
<path fill="none" stroke="midnightblue" d="M597.55,-72.35C570.03,-60.65 528.12,-44.4 490,-36 401.24,-16.45 294.75,-11.45 235.04,-10.26"/>
<polygon fill="midnightblue" stroke="midnightblue" points="596.43,-75.68 607,-76.43 599.21,-69.25 596.43,-75.68"/>
</g>
<!-- Node4&#45;&gt;Node4 -->
<g id="edge14" class="edge">
<title>Node4&#45;&gt;Node4</title>
<path fill="none" stroke="midnightblue" d="M562.73,-209.77C561.58,-214.5 556.66,-218 548,-218 533.78,-218 529.67,-208.57 535.67,-199.76"/>
<polygon fill="midnightblue" stroke="midnightblue" points="566.07,-208.66 560.33,-199.76 559.26,-210.3 566.07,-208.66"/>
</g>
<!-- Node5 -->
<g id="node5" class="node">
<title>Node5</title>
<g id="a_node5"><a xlink:href="namespaceallglobal.html#a7824bc37519fe88336534ce90ab2af16" target="_top" xlink:title=" ">
<polygon fill="white" stroke="black" points="370.5,-322.5 370.5,-341.5 484.5,-341.5 484.5,-322.5 370.5,-322.5"/>
<text text-anchor="middle" x="427.5" y="-329.5" font-family="Helvetica,sans-Serif" font-size="10.00">allglobal::check_inputs</text>
</a>
</g>
</g>
<!-- Node4&#45;&gt;Node5 -->
<g id="edge4" class="edge">
<title>Node4&#45;&gt;Node5</title>
<path fill="none" stroke="midnightblue" d="M542.38,-209.46C535.29,-235.3 519.37,-280.83 490,-308 483.27,-314.23 474.74,-318.9 466.19,-322.39"/>
<polygon fill="midnightblue" stroke="midnightblue" points="545.78,-210.26 544.89,-199.7 539.01,-208.51 545.78,-210.26"/>
</g>
<!-- Node8 -->
<g id="node8" class="node">
<title>Node8</title>
<g id="a_node8"><a xlink:href="xspech_8f90.html#a48f45478dc2c9f70ea8aa1c60ad06503" target="_top" xlink:title="This is the main &quot;driver&quot; for the physics part of SPEC.">
<polygon fill="white" stroke="black" points="168.5,-246.5 168.5,-265.5 206.5,-265.5 206.5,-246.5 168.5,-246.5"/>
<text text-anchor="middle" x="187.5" y="-253.5" font-family="Helvetica,sans-Serif" font-size="10.00">spec</text>
</a>
</g>
</g>
<!-- Node4&#45;&gt;Node8 -->
<g id="edge47" class="edge">
<title>Node4&#45;&gt;Node8</title>
<path fill="none" stroke="midnightblue" d="M531.04,-207.07C520.37,-217.49 505.5,-230.27 490,-238 424.31,-270.79 401.95,-266.73 329,-275 284.98,-279.99 233.4,-268.57 206.66,-261.35"/>
<polygon fill="midnightblue" stroke="midnightblue" points="533.8,-209.26 538.32,-199.68 528.81,-204.35 533.8,-209.26"/>
</g>
<!-- Node11 -->
<g id="node11" class="node">
<title>Node11</title>
<g id="a_node11"><a xlink:href="group__grp__force__driver.html#gabbc245b3884ee8d8d3e2a52f25149f78" target="_top" xlink:title="fcn1">
<polygon fill="white" stroke="black" points="410,-152.5 410,-171.5 445,-171.5 445,-152.5 410,-152.5"/>
<text text-anchor="middle" x="427.5" y="-159.5" font-family="Helvetica,sans-Serif" font-size="10.00">fcn1</text>
</a>
</g>
</g>
<!-- Node4&#45;&gt;Node11 -->
<g id="edge15" class="edge">
<title>Node4&#45;&gt;Node11</title>
<path fill="none" stroke="midnightblue" d="M516,-182.67C493.39,-177.33 463.63,-170.3 445.29,-165.97"/>
<polygon fill="midnightblue" stroke="midnightblue" points="515.28,-186.1 525.81,-184.99 516.89,-179.29 515.28,-186.1"/>
</g>
<!-- Node12 -->
<g id="node12" class="node">
<title>Node12</title>
<g id="a_node12"><a xlink:href="group__grp__force__driver.html#gaec14f81fbdbedafbc4189489ec8ae178" target="_top" xlink:title="Employs Newton method to find , where &#160;and &#160;is defined in dforce() .">
<polygon fill="white" stroke="black" points="281,-162.5 281,-181.5 329,-181.5 329,-162.5 281,-162.5"/>
<text text-anchor="middle" x="305" y="-169.5" font-family="Helvetica,sans-Serif" font-size="10.00">newton</text>
</a>
</g>
</g>
<!-- Node4&#45;&gt;Node12 -->
<g id="edge42" class="edge">
<title>Node4&#45;&gt;Node12</title>
<path fill="none" stroke="midnightblue" d="M515.92,-196.43C479.36,-202.87 417.05,-210.34 365,-199 349.59,-195.64 333.39,-187.88 321.87,-181.54"/>
<polygon fill="midnightblue" stroke="midnightblue" points="516.77,-199.83 525.96,-194.57 515.49,-192.95 516.77,-199.83"/>
</g>
<!-- Node13 -->
<g id="node13" class="node">
<title>Node13</title>
<g id="a_node13"><a xlink:href="group__grp__force__driver.html#ga8ccd6c7d901872702521d0a0edf95412" target="_top" xlink:title="fcn2">
<polygon fill="white" stroke="black" points="29.5,-185.5 29.5,-204.5 64.5,-204.5 64.5,-185.5 29.5,-185.5"/>
<text text-anchor="middle" x="47" y="-192.5" font-family="Helvetica,sans-Serif" font-size="10.00">fcn2</text>
</a>
</g>
</g>
<!-- Node4&#45;&gt;Node13 -->
<g id="edge27" class="edge">
<title>Node4&#45;&gt;Node13</title>
<path fill="none" stroke="midnightblue" d="M532.17,-172.78C521.65,-161.94 506.51,-148.93 490,-143 339.42,-88.92 283.65,-98.39 130,-143 101.51,-151.27 73.43,-172.75 58.67,-185.36"/>
<polygon fill="midnightblue" stroke="midnightblue" points="529.62,-175.17 538.97,-180.15 534.77,-170.42 529.62,-175.17"/>
</g>
<!-- Node15 -->
<g id="node15" class="node">
<title>Node15</title>
<g id="a_node15"><a xlink:href="dfp200_8f90.html#a6aca59cf350d7b1941f8389d50945a43" target="_top" xlink:title="get LU Beltrami matrices">
<polygon fill="white" stroke="black" points="365,-76.5 365,-95.5 490,-95.5 490,-76.5 365,-76.5"/>
<text text-anchor="middle" x="427.5" y="-83.5" font-family="Helvetica,sans-Serif" font-size="10.00">get_lu_beltrami_matrices</text>
</a>
</g>
</g>
<!-- Node4&#45;&gt;Node15 -->
<g id="edge28" class="edge">
<title>Node4&#45;&gt;Node15</title>
<path fill="none" stroke="midnightblue" d="M537.95,-171.58C528.3,-153.65 511.45,-126.71 490,-110 482.13,-103.87 472.51,-99.14 463.24,-95.56"/>
<polygon fill="midnightblue" stroke="midnightblue" points="534.86,-173.22 542.56,-180.5 541.07,-170.01 534.86,-173.22"/>
</g>
<!-- Node20 -->
<g id="node20" class="node">
<title>Node20</title>
<g id="a_node20"><a xlink:href="group__grp__diagnostics.html#ga7401b50ec10c6598ee4a8112717a63ec" target="_top" xlink:title="Computes eigenvalues and eigenvectors of derivative matrix, .">
<polygon fill="white" stroke="black" points="282.5,-228.5 282.5,-247.5 327.5,-247.5 327.5,-228.5 282.5,-228.5"/>
<text text-anchor="middle" x="305" y="-235.5" font-family="Helvetica,sans-Serif" font-size="10.00">hesian</text>
</a>
</g>
</g>
<!-- Node4&#45;&gt;Node20 -->
<g id="edge39" class="edge">
<title>Node4&#45;&gt;Node20</title>
<path fill="none" stroke="midnightblue" d="M519.68,-203.89C510.46,-208.06 499.97,-212.25 490,-215 432.74,-230.78 362.44,-235.76 327.64,-237.31"/>
<polygon fill="midnightblue" stroke="midnightblue" points="521.2,-207.05 528.76,-199.62 518.22,-200.71 521.2,-207.05"/>
</g>
<!-- Node21 -->
<g id="node21" class="node">
<title>Node21</title>
<g id="a_node21"><a xlink:href="group__grp__conjugate__gradient.html#ga4d8415226e62a9fdb42b0fd0b464251e" target="_top" xlink:title="Returns the energy functional and it&#39;s derivatives with respect to geometry.">
<polygon fill="white" stroke="black" points="403.5,-369.5 403.5,-388.5 451.5,-388.5 451.5,-369.5 403.5,-369.5"/>
<text text-anchor="middle" x="427.5" y="-376.5" font-family="Helvetica,sans-Serif" font-size="10.00">pc00ab</text>
</a>
</g>
</g>
<!-- Node4&#45;&gt;Node21 -->
<g id="edge43" class="edge">
<title>Node4&#45;&gt;Node21</title>
<path fill="none" stroke="midnightblue" d="M544.97,-209.9C540.6,-243.09 527.46,-310.13 490,-351 479.85,-362.07 464.48,-369.07 451.64,-373.3"/>
<polygon fill="midnightblue" stroke="midnightblue" points="548.48,-210.01 546.18,-199.67 541.53,-209.19 548.48,-210.01"/>
</g>
<!-- Node6 -->
<g id="node6" class="node">
<title>Node6</title>
<g id="a_node6"><a xlink:href="xspech_8f90.html#a9fdc71dffd7c61ee4588a3f80d3ab9ce" target="_top" xlink:title="Main subroutine of SPEC.">
<polygon fill="white" stroke="black" points="281.5,-322.5 281.5,-341.5 328.5,-341.5 328.5,-322.5 281.5,-322.5"/>
<text text-anchor="middle" x="305" y="-329.5" font-family="Helvetica,sans-Serif" font-size="10.00">xspech</text>
</a>
</g>
</g>
<!-- Node5&#45;&gt;Node6 -->
<g id="edge5" class="edge">
<title>Node5&#45;&gt;Node6</title>
<path fill="none" stroke="midnightblue" d="M360.45,-332C349.06,-332 337.95,-332 328.77,-332"/>
<polygon fill="midnightblue" stroke="midnightblue" points="360.48,-335.5 370.48,-332 360.48,-328.5 360.48,-335.5"/>
</g>
<!-- Node6&#45;&gt;Node6 -->
<g id="edge13" class="edge">
<title>Node6&#45;&gt;Node6</title>
<path fill="none" stroke="midnightblue" d="M326.48,-351.4C325.05,-356.31 317.89,-360 305,-360 284.38,-360 278.42,-350.57 287.12,-341.76"/>
<polygon fill="midnightblue" stroke="midnightblue" points="329.66,-349.9 322.88,-341.76 323.1,-352.35 329.66,-349.9"/>
</g>
<!-- Node7 -->
<g id="node7" class="node">
<title>Node7</title>
<g id="a_node7"><a xlink:href="xspech_8f90.html#a1451823a7b97101a797de616250752c1" target="_top" xlink:title="Final diagnostics.">
<polygon fill="white" stroke="black" points="143,-322.5 143,-341.5 232,-341.5 232,-322.5 143,-322.5"/>
<text text-anchor="middle" x="187.5" y="-329.5" font-family="Helvetica,sans-Serif" font-size="10.00">final_diagnostics</text>
</a>
</g>
</g>
<!-- Node6&#45;&gt;Node7 -->
<g id="edge6" class="edge">
<title>Node6&#45;&gt;Node7</title>
<path fill="none" stroke="midnightblue" d="M271.29,-325.85C259.09,-325.23 245.05,-325.09 232.04,-325.44"/>
<polygon fill="midnightblue" stroke="midnightblue" points="271.25,-329.35 281.46,-326.52 271.71,-322.37 271.25,-329.35"/>
</g>
<!-- Node6&#45;&gt;Node8 -->
<g id="edge8" class="edge">
<title>Node6&#45;&gt;Node8</title>
<path fill="none" stroke="midnightblue" d="M293.29,-313.85C282.09,-300.21 263.58,-282.7 245,-271 232.92,-263.39 218,-257.17 206.53,-254.26"/>
<polygon fill="midnightblue" stroke="midnightblue" points="290.73,-316.26 299.53,-322.16 296.32,-312.06 290.73,-316.26"/>
</g>
<!-- Node10 -->
<g id="node10" class="node">
<title>Node10</title>
<g id="a_node10"><a xlink:href="xspech_8f90.html#a95271e8805067f801b5d4e524d6901d4" target="_top" xlink:title="Main program of SPEC.">
<polygon fill="white" stroke="black" points="155.5,-360.5 155.5,-379.5 219.5,-379.5 219.5,-360.5 155.5,-360.5"/>
<text text-anchor="middle" x="187.5" y="-367.5" font-family="Helvetica,sans-Serif" font-size="10.00">spec_main</text>
</a>
</g>
</g>
<!-- Node6&#45;&gt;Node10 -->
<g id="edge12" class="edge">
<title>Node6&#45;&gt;Node10</title>
<path fill="none" stroke="midnightblue" d="M271.92,-342.55C254.89,-348.16 234.12,-354.99 217.57,-360.44"/>
<polygon fill="midnightblue" stroke="midnightblue" points="273.05,-345.87 281.46,-339.42 270.86,-339.22 273.05,-345.87"/>
</g>
<!-- Node7&#45;&gt;Node6 -->
<g id="edge7" class="edge">
<title>Node7&#45;&gt;Node6</title>
<path fill="none" stroke="midnightblue" d="M242.05,-338.73C255.94,-338.84 270.15,-338.42 281.46,-337.48"/>
<polygon fill="midnightblue" stroke="midnightblue" points="242.09,-335.23 232.04,-338.56 241.98,-342.23 242.09,-335.23"/>
</g>
<!-- Node8&#45;&gt;Node6 -->
<g id="edge11" class="edge">
<title>Node8&#45;&gt;Node6</title>
<path fill="none" stroke="midnightblue" d="M207.58,-270.18C218.9,-275.55 233.28,-281.62 245,-289 260.6,-298.82 276.15,-312.75 287.37,-322.39"/>
<polygon fill="midnightblue" stroke="midnightblue" points="209.07,-267.01 198.57,-265.63 205.92,-273.26 209.07,-267.01"/>
</g>
<!-- Node9 -->
<g id="node9" class="node">
<title>Node9</title>
<g id="a_node9"><a xlink:href="group__grp__output.html#ga0f962c09cd5d5eba99f1cba043cb3898" target="_top" xlink:title="Initialize the interface to the HDF5 library and open the output file.">
<polygon fill="white" stroke="black" points="0,-260.5 0,-279.5 94,-279.5 94,-260.5 0,-260.5"/>
<text text-anchor="middle" x="47" y="-267.5" font-family="Helvetica,sans-Serif" font-size="10.00">sphdf5::init_outfile</text>
</a>
</g>
</g>
<!-- Node8&#45;&gt;Node9 -->
<g id="edge9" class="edge">
<title>Node8&#45;&gt;Node9</title>
<path fill="none" stroke="midnightblue" d="M158.31,-258.85C139.87,-260.71 115.36,-263.19 94.12,-265.34"/>
<polygon fill="midnightblue" stroke="midnightblue" points="158.8,-262.32 168.39,-257.83 158.09,-255.35 158.8,-262.32"/>
</g>
<!-- Node9&#45;&gt;Node6 -->
<g id="edge10" class="edge">
<title>Node9&#45;&gt;Node6</title>
<path fill="none" stroke="midnightblue" d="M104.08,-280.74C143.69,-288.69 197.89,-300.31 245,-313 257.16,-316.28 270.53,-320.53 281.46,-324.18"/>
<polygon fill="midnightblue" stroke="midnightblue" points="104.57,-277.27 94.08,-278.75 103.2,-284.13 104.57,-277.27"/>
</g>
<!-- Node11&#45;&gt;Node11 -->
<g id="edge16" class="edge">
<title>Node11&#45;&gt;Node11</title>
<path fill="none" stroke="midnightblue" d="M450,-179.73C449.8,-185.46 442.3,-190 427.5,-190 405.47,-190 399.62,-179.93 409.94,-170.89"/>
<polygon fill="midnightblue" stroke="midnightblue" points="452.99,-177.91 445.06,-170.89 446.88,-181.33 452.99,-177.91"/>
</g>
<!-- Node11&#45;&gt;Node12 -->
<g id="edge17" class="edge">
<title>Node11&#45;&gt;Node12</title>
<path fill="none" stroke="midnightblue" d="M399.51,-158.5C378.38,-158.82 349.31,-161.32 329.22,-164.62"/>
<polygon fill="midnightblue" stroke="midnightblue" points="399.73,-162 409.74,-158.55 399.76,-155 399.73,-162"/>
</g>
<!-- Node12&#45;&gt;Node8 -->
<g id="edge23" class="edge">
<title>Node12&#45;&gt;Node8</title>
<path fill="none" stroke="midnightblue" d="M290.07,-189.5C278.97,-202.57 262.43,-220.13 245,-232 233.2,-240.04 218.27,-246.24 206.72,-250.32"/>
<polygon fill="midnightblue" stroke="midnightblue" points="292.87,-191.61 296.54,-181.68 287.47,-187.16 292.87,-191.61"/>
</g>
<!-- Node12&#45;&gt;Node11 -->
<g id="edge18" class="edge">
<title>Node12&#45;&gt;Node11</title>
<path fill="none" stroke="midnightblue" d="M339.52,-175.34C362.37,-174.59 391.66,-171.74 409.74,-168.24"/>
<polygon fill="midnightblue" stroke="midnightblue" points="339.15,-171.85 329.22,-175.53 339.28,-178.84 339.15,-171.85"/>
</g>
<!-- Node12&#45;&gt;Node12 -->
<g id="edge22" class="edge">
<title>Node12&#45;&gt;Node12</title>
<path fill="none" stroke="midnightblue" d="M326.48,-191.4C325.05,-196.31 317.89,-200 305,-200 284.38,-200 278.42,-190.57 287.12,-181.76"/>
<polygon fill="midnightblue" stroke="midnightblue" points="329.66,-189.9 322.88,-181.76 323.1,-192.35 329.66,-189.9"/>
</g>
<!-- Node12&#45;&gt;Node13 -->
<g id="edge19" class="edge">
<title>Node12&#45;&gt;Node13</title>
<path fill="none" stroke="midnightblue" d="M270.63,-168.85C262.28,-169.83 253.33,-171.07 245,-172 178.38,-179.44 98.62,-183.68 64.65,-189.28"/>
<polygon fill="midnightblue" stroke="midnightblue" points="271.21,-172.31 280.8,-167.8 270.49,-165.35 271.21,-172.31"/>
</g>
<!-- Node14 -->
<g id="node14" class="node">
<title>Node14</title>
<g id="a_node14"><a xlink:href="group__grp__force__driver.html#ga382822b303cbf8c56d6f54dcb379caf2" target="_top" xlink:title="read or write force&#45;derivative matrix">
<polygon fill="white" stroke="black" points="155,-152.5 155,-171.5 220,-171.5 220,-152.5 155,-152.5"/>
<text text-anchor="middle" x="187.5" y="-159.5" font-family="Helvetica,sans-Serif" font-size="10.00">writereadgf</text>
</a>
</g>
</g>
<!-- Node12&#45;&gt;Node14 -->
<g id="edge24" class="edge">
<title>Node12&#45;&gt;Node14</title>
<path fill="none" stroke="midnightblue" d="M270.96,-162.97C255.05,-160.8 236.05,-159.17 220.3,-158.65"/>
<polygon fill="midnightblue" stroke="midnightblue" points="270.49,-166.44 280.9,-164.47 271.54,-159.52 270.49,-166.44"/>
</g>
<!-- Node13&#45;&gt;Node12 -->
<g id="edge21" class="edge">
<title>Node13&#45;&gt;Node12</title>
<path fill="none" stroke="midnightblue" d="M74.87,-199.75C112.85,-200.89 184.37,-196.77 245,-190 260.65,-188.25 278.52,-185.41 290.45,-181.5"/>
<polygon fill="midnightblue" stroke="midnightblue" points="74.8,-196.25 64.65,-199.26 74.47,-203.24 74.8,-196.25"/>
</g>
<!-- Node13&#45;&gt;Node13 -->
<g id="edge20" class="edge">
<title>Node13&#45;&gt;Node13</title>
<path fill="none" stroke="midnightblue" d="M72.47,-209.41C76,-216.59 67.51,-223 47,-223 19.66,-223 13.67,-211.61 29.06,-202.17"/>
<polygon fill="midnightblue" stroke="midnightblue" points="74.58,-206.58 64.94,-202.17 69.73,-211.62 74.58,-206.58"/>
</g>
<!-- Node14&#45;&gt;Node12 -->
<g id="edge26" class="edge">
<title>Node14&#45;&gt;Node12</title>
<path fill="none" stroke="midnightblue" d="M230.57,-172.17C247.56,-174.14 266.51,-175.45 280.9,-175.53"/>
<polygon fill="midnightblue" stroke="midnightblue" points="230.67,-168.65 220.3,-170.86 229.78,-175.59 230.67,-168.65"/>
</g>
<!-- Node14&#45;&gt;Node13 -->
<g id="edge25" class="edge">
<title>Node14&#45;&gt;Node13</title>
<path fill="none" stroke="midnightblue" d="M144.76,-171.95C117.8,-178.37 84.2,-186.38 64.52,-191.06"/>
<polygon fill="midnightblue" stroke="midnightblue" points="145.81,-175.29 154.73,-169.57 144.19,-168.48 145.81,-175.29"/>
</g>
<!-- Node16 -->
<g id="node16" class="node">
<title>Node16</title>
<g id="a_node16"><a xlink:href="dfp200_8f90.html#a55ea75395f8c71731451e1add3720c7e" target="_top" xlink:title="Given the field consistent with the constraints and the geometry, computes local quantites related to...">
<polygon fill="white" stroke="black" points="282,-38.5 282,-57.5 328,-57.5 328,-38.5 282,-38.5"/>
<text text-anchor="middle" x="305" y="-45.5" font-family="Helvetica,sans-Serif" font-size="10.00">dfp200</text>
</a>
</g>
</g>
<!-- Node15&#45;&gt;Node16 -->
<g id="edge29" class="edge">
<title>Node15&#45;&gt;Node16</title>
<path fill="none" stroke="midnightblue" d="M401.27,-72.43C379.71,-64.04 348.99,-54.43 328.32,-49.66"/>
<polygon fill="midnightblue" stroke="midnightblue" points="400.17,-75.76 410.75,-76.3 402.81,-69.28 400.17,-75.76"/>
</g>
<!-- Node16&#45;&gt;Node4 -->
<g id="edge30" class="edge">
<title>Node16&#45;&gt;Node4</title>
<path fill="none" stroke="midnightblue" d="M338.4,-42.37C377.99,-37.35 445.22,-35.04 490,-67 529.08,-94.89 542.07,-156.44 545.74,-180.29"/>
<polygon fill="midnightblue" stroke="midnightblue" points="337.66,-38.94 328.24,-43.79 338.63,-45.87 337.66,-38.94"/>
</g>
<!-- Node16&#45;&gt;Node15 -->
<g id="edge36" class="edge">
<title>Node16&#45;&gt;Node15</title>
<path fill="none" stroke="midnightblue" d="M330.78,-61.39C343.58,-66.39 359.7,-71.85 375.05,-76.46"/>
<polygon fill="midnightblue" stroke="midnightblue" points="331.88,-58.06 321.3,-57.5 329.22,-64.54 331.88,-58.06"/>
</g>
<!-- Node16&#45;&gt;Node16 -->
<g id="edge31" class="edge">
<title>Node16&#45;&gt;Node16</title>
<path fill="none" stroke="midnightblue" d="M326.48,-67.4C325.05,-72.31 317.89,-76 305,-76 284.38,-76 278.42,-66.57 287.12,-57.76"/>
<polygon fill="midnightblue" stroke="midnightblue" points="329.66,-65.9 322.88,-57.76 323.1,-68.35 329.66,-65.9"/>
</g>
<!-- Node17 -->
<g id="node17" class="node">
<title>Node17</title>
<g id="a_node17"><a xlink:href="dfp200_8f90.html#a7b64c7392b45d0042d8bd7379c0761a5" target="_top" xlink:title="Evaluate the derivative of the square of the magnetic field modulus. Add spectral constraint derivati...">
<polygon fill="white" stroke="black" points="150.5,-76.5 150.5,-95.5 224.5,-95.5 224.5,-76.5 150.5,-76.5"/>
<text text-anchor="middle" x="187.5" y="-83.5" font-family="Helvetica,sans-Serif" font-size="10.00">evaluate_dbb</text>
</a>
</g>
</g>
<!-- Node16&#45;&gt;Node17 -->
<g id="edge32" class="edge">
<title>Node16&#45;&gt;Node17</title>
<path fill="none" stroke="midnightblue" d="M271.95,-52.43C249.52,-58.63 220.6,-68.61 203.36,-76.41"/>
<polygon fill="midnightblue" stroke="midnightblue" points="272.94,-55.79 281.73,-49.87 271.17,-49.01 272.94,-55.79"/>
</g>
<!-- Node16&#45;&gt;Node18 -->
<g id="edge34" class="edge">
<title>Node16&#45;&gt;Node18</title>
<path fill="none" stroke="midnightblue" d="M279.35,-34.24C266.45,-29.03 250.22,-23.36 235.06,-18.68"/>
<polygon fill="midnightblue" stroke="midnightblue" points="278.33,-37.61 288.9,-38.3 281.07,-31.17 278.33,-37.61"/>
</g>
<!-- Node19 -->
<g id="node19" class="node">
<title>Node19</title>
<g id="a_node19"><a xlink:href="dfp200_8f90.html#a5e56f1f4b1e6df11a9cffa6237c37469" target="_top" xlink:title="This routine evaluates the value of the magnetic field once the interface is perturbed using matrix p...">
<polygon fill="white" stroke="black" points="130,-38.5 130,-57.5 245,-57.5 245,-38.5 130,-38.5"/>
<text text-anchor="middle" x="187.5" y="-45.5" font-family="Helvetica,sans-Serif" font-size="10.00">get_perturbed_solution</text>
</a>
</g>
</g>
<!-- Node16&#45;&gt;Node19 -->
<g id="edge37" class="edge">
<title>Node16&#45;&gt;Node19</title>
<path fill="none" stroke="midnightblue" d="M271.51,-41.86C263.3,-41.44 254.25,-41.23 245.23,-41.25"/>
<polygon fill="midnightblue" stroke="midnightblue" points="271.52,-45.37 281.73,-42.54 271.99,-38.38 271.52,-45.37"/>
</g>
<!-- Node17&#45;&gt;Node16 -->
<g id="edge33" class="edge">
<title>Node17&#45;&gt;Node16</title>
<path fill="none" stroke="midnightblue" d="M234.59,-77.46C253.93,-71.52 275.09,-63.92 288.9,-57.7"/>
<polygon fill="midnightblue" stroke="midnightblue" points="233.57,-74.11 224.99,-80.32 235.57,-80.82 233.57,-74.11"/>
</g>
<!-- Node18&#45;&gt;Node16 -->
<g id="edge35" class="edge">
<title>Node18&#45;&gt;Node16</title>
<path fill="none" stroke="midnightblue" d="M212.59,-23.53C232.96,-31.81 261.9,-41.28 281.73,-46.13"/>
<polygon fill="midnightblue" stroke="midnightblue" points="213.93,-20.3 203.36,-19.59 211.19,-26.74 213.93,-20.3"/>
</g>
<!-- Node19&#45;&gt;Node16 -->
<g id="edge38" class="edge">
<title>Node19&#45;&gt;Node16</title>
<path fill="none" stroke="midnightblue" d="M255.23,-54.68C264.76,-54.52 273.95,-54.11 281.73,-53.46"/>
<polygon fill="midnightblue" stroke="midnightblue" points="255.21,-51.18 245.23,-54.75 255.26,-58.18 255.21,-51.18"/>
</g>
<!-- Node20&#45;&gt;Node8 -->
<g id="edge41" class="edge">
<title>Node20&#45;&gt;Node8</title>
<path fill="none" stroke="midnightblue" d="M272.17,-242.96C251.1,-246.24 224.23,-250.43 206.71,-253.16"/>
<polygon fill="midnightblue" stroke="midnightblue" points="272.93,-246.38 282.28,-241.39 271.86,-239.47 272.93,-246.38"/>
</g>
<!-- Node20&#45;&gt;Node20 -->
<g id="edge40" class="edge">
<title>Node20&#45;&gt;Node20</title>
<path fill="none" stroke="midnightblue" d="M326.48,-257.4C325.05,-262.31 317.89,-266 305,-266 284.38,-266 278.42,-256.57 287.12,-247.76"/>
<polygon fill="midnightblue" stroke="midnightblue" points="329.66,-255.9 322.88,-247.76 323.1,-258.35 329.66,-255.9"/>
</g>
<!-- Node21&#45;&gt;Node21 -->
<g id="edge46" class="edge">
<title>Node21&#45;&gt;Node21</title>
<path fill="none" stroke="midnightblue" d="M449.82,-398.03C448.6,-403.13 441.16,-407 427.5,-407 406.17,-407 400.01,-397.57 409,-388.76"/>
<polygon fill="midnightblue" stroke="midnightblue" points="453.05,-396.67 446,-388.76 446.57,-399.34 453.05,-396.67"/>
</g>
<!-- Node22 -->
<g id="node22" class="node">
<title>Node22</title>
<g id="a_node22"><a xlink:href="group__grp__conjugate__gradient.html#ga25a3bae2ff2ee0469b045de0d033398b" target="_top" xlink:title="Use preconditioned conjugate gradient method to find minimum of energy functional.">
<polygon fill="white" stroke="black" points="281,-378.5 281,-397.5 329,-397.5 329,-378.5 281,-378.5"/>
<text text-anchor="middle" x="305" y="-385.5" font-family="Helvetica,sans-Serif" font-size="10.00">pc00aa</text>
</a>
</g>
</g>
<!-- Node21&#45;&gt;Node22 -->
<g id="edge44" class="edge">
<title>Node21&#45;&gt;Node22</title>
<path fill="none" stroke="midnightblue" d="M393.16,-381.49C372.81,-383.01 347.31,-384.91 329.16,-386.27"/>
<polygon fill="midnightblue" stroke="midnightblue" points="393.55,-384.97 403.27,-380.74 393.03,-377.99 393.55,-384.97"/>
</g>
<!-- Node22&#45;&gt;Node22 -->
<g id="edge45" class="edge">
<title>Node22&#45;&gt;Node22</title>
<path fill="none" stroke="midnightblue" d="M326.48,-407.4C325.05,-412.31 317.89,-416 305,-416 284.38,-416 278.42,-406.57 287.12,-397.76"/>
<polygon fill="midnightblue" stroke="midnightblue" points="329.66,-405.9 322.88,-397.76 323.1,-408.35 329.66,-405.9"/>
</g>
</g>
</svg>
