<?xml version="1.0" encoding="UTF-8" standalone="no"?>
<!DOCTYPE svg PUBLIC "-//W3C//DTD SVG 1.1//EN"
 "http://www.w3.org/Graphics/SVG/1.1/DTD/svg11.dtd">
<!-- Generated by graphviz version 2.47.1 (0)
 -->
<!-- Title: push_back Pages: 1 -->
<svg width="845pt" height="388pt"
 viewBox="0.00 0.00 845.00 388.00" xmlns="http://www.w3.org/2000/svg" xmlns:xlink="http://www.w3.org/1999/xlink">
<g id="graph0" class="graph" transform="scale(1 1) rotate(0) translate(4 384)">
<title>push_back</title>
<polygon fill="white" stroke="transparent" points="-4,4 -4,-384 841,-384 841,4 -4,4"/>
<!-- Node1 -->
<g id="node1" class="node">
<title>Node1</title>
<g id="a_node1"><a xlink:title="push a new element at the back of the queue">
<polygon fill="#bfbfbf" stroke="black" points="773,-76.5 773,-95.5 837,-95.5 837,-76.5 773,-76.5"/>
<text text-anchor="middle" x="805" y="-83.5" font-family="Helvetica,sans-Serif" font-size="10.00">push_back</text>
</a>
</g>
</g>
<!-- Node2 -->
<g id="node2" class="node">
<title>Node2</title>
<g id="a_node2"><a xlink:href="group__grp__build__matrices.html#ga4d521a46a64530ade50e6b79a33e1452" target="_top" xlink:title="Constructs matrices for the precondtioner.">
<polygon fill="white" stroke="black" points="688,-76.5 688,-95.5 737,-95.5 737,-76.5 688,-76.5"/>
<text text-anchor="middle" x="712.5" y="-83.5" font-family="Helvetica,sans-Serif" font-size="10.00">spsmat</text>
</a>
</g>
</g>
<!-- Node1&#45;&gt;Node2 -->
<g id="edge1" class="edge">
<title>Node1&#45;&gt;Node2</title>
<path fill="none" stroke="midnightblue" d="M762.77,-86C754.03,-86 745.09,-86 737.27,-86"/>
<polygon fill="midnightblue" stroke="midnightblue" points="762.86,-89.5 772.86,-86 762.85,-82.5 762.86,-89.5"/>
</g>
<!-- Node3 -->
<g id="node3" class="node">
<title>Node3</title>
<g id="a_node3"><a xlink:href="dfp100_8f90.html#a17a3ac15cc83994394f7b4cc05e5898e" target="_top" xlink:title="Split the work between MPI nodes and evaluate the global constraint.">
<polygon fill="white" stroke="black" points="606,-76.5 606,-95.5 652,-95.5 652,-76.5 606,-76.5"/>
<text text-anchor="middle" x="629" y="-83.5" font-family="Helvetica,sans-Serif" font-size="10.00">dfp100</text>
</a>
</g>
</g>
<!-- Node2&#45;&gt;Node3 -->
<g id="edge2" class="edge">
<title>Node2&#45;&gt;Node3</title>
<path fill="none" stroke="midnightblue" d="M677.71,-86C669.07,-86 660.01,-86 652.12,-86"/>
<polygon fill="midnightblue" stroke="midnightblue" points="677.93,-89.5 687.93,-86 677.93,-82.5 677.93,-89.5"/>
</g>
<!-- Node4 -->
<g id="node4" class="node">
<title>Node4</title>
<g id="a_node4"><a xlink:href="group__grp__global__force.html#ga38c9d3c50bd043707fefa5137c9dbf44" target="_top" xlink:title="Calculates , where &#160;and , and .">
<polygon fill="white" stroke="black" points="526,-171.5 526,-190.5 570,-190.5 570,-171.5 526,-171.5"/>
<text text-anchor="middle" x="548" y="-178.5" font-family="Helvetica,sans-Serif" font-size="10.00">dforce</text>
</a>
</g>
</g>
<!-- Node3&#45;&gt;Node4 -->
<g id="edge3" class="edge">
<title>Node3&#45;&gt;Node4</title>
<path fill="none" stroke="midnightblue" d="M613.39,-103.57C596.76,-123.56 570.2,-155.5 556.99,-171.39"/>
<polygon fill="midnightblue" stroke="midnightblue" points="616.14,-105.74 619.84,-95.81 610.76,-101.26 616.14,-105.74"/>
</g>
<!-- Node18 -->
<g id="node18" class="node">
<title>Node18</title>
<g id="a_node18"><a xlink:href="dfp200_8f90.html#a73ddf39ecc5228201fb643779e17cd36" target="_top" xlink:title="Evaluate mu and psip derivatives and store them in dmupfdx.">
<polygon fill="white" stroke="black" points="140,-0.5 140,-19.5 235,-19.5 235,-0.5 140,-0.5"/>
<text text-anchor="middle" x="187.5" y="-7.5" font-family="Helvetica,sans-Serif" font-size="10.00">evaluate_dmupfdx</text>
</a>
</g>
</g>
<!-- Node3&#45;&gt;Node18 -->
<g id="edge39" class="edge">
<title>Node3&#45;&gt;Node18</title>
<path fill="none" stroke="midnightblue" d="M597.55,-72.35C570.03,-60.65 528.12,-44.4 490,-36 401.24,-16.45 294.75,-11.45 235.04,-10.26"/>
<polygon fill="midnightblue" stroke="midnightblue" points="596.43,-75.68 607,-76.43 599.21,-69.25 596.43,-75.68"/>
</g>
<!-- Node5 -->
<g id="node5" class="node">
<title>Node5</title>
<g id="a_node5"><a xlink:href="namespaceallglobal.html#a7824bc37519fe88336534ce90ab2af16" target="_top" xlink:title=" ">
<polygon fill="white" stroke="black" points="370.5,-304.5 370.5,-323.5 484.5,-323.5 484.5,-304.5 370.5,-304.5"/>
<text text-anchor="middle" x="427.5" y="-311.5" font-family="Helvetica,sans-Serif" font-size="10.00">allglobal::check_inputs</text>
</a>
</g>
</g>
<!-- Node4&#45;&gt;Node5 -->
<g id="edge4" class="edge">
<title>Node4&#45;&gt;Node5</title>
<path fill="none" stroke="midnightblue" d="M541.53,-200.35C533.79,-224.44 517.45,-265.41 490,-290 483.09,-296.19 474.39,-300.87 465.73,-304.37"/>
<polygon fill="midnightblue" stroke="midnightblue" points="544.94,-201.17 544.49,-190.59 538.24,-199.14 544.94,-201.17"/>
</g>
<!-- Node8 -->
<g id="node8" class="node">
<title>Node8</title>
<g id="a_node8"><a xlink:href="xspech_8f90.html#a48f45478dc2c9f70ea8aa1c60ad06503" target="_top" xlink:title="This is the main &quot;driver&quot; for the physics part of SPEC.">
<polygon fill="white" stroke="black" points="168.5,-246.5 168.5,-265.5 206.5,-265.5 206.5,-246.5 168.5,-246.5"/>
<text text-anchor="middle" x="187.5" y="-253.5" font-family="Helvetica,sans-Serif" font-size="10.00">spec</text>
</a>
</g>
</g>
<!-- Node4&#45;&gt;Node8 -->
<g id="edge38" class="edge">
<title>Node4&#45;&gt;Node8</title>
<path fill="none" stroke="midnightblue" d="M529.22,-197.21C518.57,-206.09 504.34,-216.57 490,-223 390.78,-267.49 255.45,-261.68 206.83,-257.77"/>
<polygon fill="midnightblue" stroke="midnightblue" points="531.67,-199.72 536.94,-190.53 527.09,-194.43 531.67,-199.72"/>
</g>
<!-- Node11 -->
<g id="node11" class="node">
<title>Node11</title>
<g id="a_node11"><a xlink:href="group__grp__force__driver.html#gabbc245b3884ee8d8d3e2a52f25149f78" target="_top" xlink:title="fcn1">
<polygon fill="white" stroke="black" points="410,-152.5 410,-171.5 445,-171.5 445,-152.5 410,-152.5"/>
<text text-anchor="middle" x="427.5" y="-159.5" font-family="Helvetica,sans-Serif" font-size="10.00">fcn1</text>
</a>
</g>
</g>
<!-- Node4&#45;&gt;Node11 -->
<g id="edge13" class="edge">
<title>Node4&#45;&gt;Node11</title>
<path fill="none" stroke="midnightblue" d="M515.69,-175.98C493.13,-172.36 463.55,-167.62 445.29,-164.69"/>
<polygon fill="midnightblue" stroke="midnightblue" points="515.39,-179.48 525.81,-177.6 516.49,-172.56 515.39,-179.48"/>
</g>
<!-- Node12 -->
<g id="node12" class="node">
<title>Node12</title>
<g id="a_node12"><a xlink:href="group__grp__force__driver.html#gaec14f81fbdbedafbc4189489ec8ae178" target="_top" xlink:title="Employs Newton method to find , where &#160;and &#160;is defined in dforce() .">
<polygon fill="white" stroke="black" points="281,-171.5 281,-190.5 329,-190.5 329,-171.5 281,-171.5"/>
<text text-anchor="middle" x="305" y="-178.5" font-family="Helvetica,sans-Serif" font-size="10.00">newton</text>
</a>
</g>
</g>
<!-- Node4&#45;&gt;Node12 -->
<g id="edge35" class="edge">
<title>Node4&#45;&gt;Node12</title>
<path fill="none" stroke="midnightblue" d="M515.55,-181C466.41,-181 372.53,-181 329.09,-181"/>
<polygon fill="midnightblue" stroke="midnightblue" points="515.61,-184.5 525.61,-181 515.61,-177.5 515.61,-184.5"/>
</g>
<!-- Node13 -->
<g id="node13" class="node">
<title>Node13</title>
<g id="a_node13"><a xlink:href="group__grp__force__driver.html#ga8ccd6c7d901872702521d0a0edf95412" target="_top" xlink:title="fcn2">
<polygon fill="white" stroke="black" points="29.5,-176.5 29.5,-195.5 64.5,-195.5 64.5,-176.5 29.5,-176.5"/>
<text text-anchor="middle" x="47" y="-183.5" font-family="Helvetica,sans-Serif" font-size="10.00">fcn2</text>
</a>
</g>
</g>
<!-- Node4&#45;&gt;Node13 -->
<g id="edge22" class="edge">
<title>Node4&#45;&gt;Node13</title>
<path fill="none" stroke="midnightblue" d="M528.68,-164.72C518.15,-156.47 504.23,-147.31 490,-143 336.87,-96.63 285.36,-104.74 130,-143 103.93,-149.42 76.98,-165.76 61.39,-176.35"/>
<polygon fill="midnightblue" stroke="midnightblue" points="526.71,-167.63 536.65,-171.3 531.17,-162.24 526.71,-167.63"/>
</g>
<!-- Node15 -->
<g id="node15" class="node">
<title>Node15</title>
<g id="a_node15"><a xlink:href="dfp200_8f90.html#a6aca59cf350d7b1941f8389d50945a43" target="_top" xlink:title="get LU Beltrami matrices">
<polygon fill="white" stroke="black" points="365,-76.5 365,-95.5 490,-95.5 490,-76.5 365,-76.5"/>
<text text-anchor="middle" x="427.5" y="-83.5" font-family="Helvetica,sans-Serif" font-size="10.00">get_lu_beltrami_matrices</text>
</a>
</g>
</g>
<!-- Node4&#45;&gt;Node15 -->
<g id="edge23" class="edge">
<title>Node4&#45;&gt;Node15</title>
<path fill="none" stroke="midnightblue" d="M536.09,-162.52C525.91,-146.69 509.42,-124.25 490,-110 481.78,-103.96 471.84,-99.22 462.37,-95.61"/>
<polygon fill="midnightblue" stroke="midnightblue" points="533.34,-164.73 541.57,-171.39 539.29,-161.05 533.34,-164.73"/>
</g>
<!-- Node20 -->
<g id="node20" class="node">
<title>Node20</title>
<g id="a_node20"><a xlink:href="group__grp__diagnostics.html#ga7401b50ec10c6598ee4a8112717a63ec" target="_top" xlink:title="Computes eigenvalues and eigenvectors of derivative matrix, .">
<polygon fill="white" stroke="black" points="282.5,-228.5 282.5,-247.5 327.5,-247.5 327.5,-228.5 282.5,-228.5"/>
<text text-anchor="middle" x="305" y="-235.5" font-family="Helvetica,sans-Serif" font-size="10.00">hesian</text>
</a>
</g>
</g>
<!-- Node4&#45;&gt;Node20 -->
<g id="edge33" class="edge">
<title>Node4&#45;&gt;Node20</title>
<path fill="none" stroke="midnightblue" d="M516.05,-188.67C507.6,-190.74 498.45,-192.97 490,-195 431.3,-209.07 361.93,-225.13 327.55,-233.05"/>
<polygon fill="midnightblue" stroke="midnightblue" points="517.03,-192.03 525.9,-186.24 515.35,-185.24 517.03,-192.03"/>
</g>
<!-- Node21 -->
<g id="node21" class="node">
<title>Node21</title>
<g id="a_node21"><a xlink:href="group__grp__conjugate__gradient.html#ga4d8415226e62a9fdb42b0fd0b464251e" target="_top" xlink:title="Returns the energy functional and it&#39;s derivatives with respect to geometry.">
<polygon fill="white" stroke="black" points="403.5,-342.5 403.5,-361.5 451.5,-361.5 451.5,-342.5 403.5,-342.5"/>
<text text-anchor="middle" x="427.5" y="-349.5" font-family="Helvetica,sans-Serif" font-size="10.00">pc00ab</text>
</a>
</g>
</g>
<!-- Node4&#45;&gt;Node21 -->
<g id="edge36" class="edge">
<title>Node4&#45;&gt;Node21</title>
<path fill="none" stroke="midnightblue" d="M545.11,-200.78C540.96,-233.05 528.16,-297.03 490,-333 479.67,-342.73 464.46,-347.49 451.74,-349.8"/>
<polygon fill="midnightblue" stroke="midnightblue" points="548.59,-201.12 546.24,-190.79 541.63,-200.33 548.59,-201.12"/>
</g>
<!-- Node6 -->
<g id="node6" class="node">
<title>Node6</title>
<g id="a_node6"><a xlink:href="xspech_8f90.html#a9fdc71dffd7c61ee4588a3f80d3ab9ce" target="_top" xlink:title="Main subroutine of SPEC.">
<polygon fill="white" stroke="black" points="281.5,-304.5 281.5,-323.5 328.5,-323.5 328.5,-304.5 281.5,-304.5"/>
<text text-anchor="middle" x="305" y="-311.5" font-family="Helvetica,sans-Serif" font-size="10.00">xspech</text>
</a>
</g>
</g>
<!-- Node5&#45;&gt;Node6 -->
<g id="edge5" class="edge">
<title>Node5&#45;&gt;Node6</title>
<path fill="none" stroke="midnightblue" d="M360.45,-314C349.06,-314 337.95,-314 328.77,-314"/>
<polygon fill="midnightblue" stroke="midnightblue" points="360.48,-317.5 370.48,-314 360.48,-310.5 360.48,-317.5"/>
</g>
<!-- Node7 -->
<g id="node7" class="node">
<title>Node7</title>
<g id="a_node7"><a xlink:href="xspech_8f90.html#a1451823a7b97101a797de616250752c1" target="_top" xlink:title="Final diagnostics.">
<polygon fill="white" stroke="black" points="143,-322.5 143,-341.5 232,-341.5 232,-322.5 143,-322.5"/>
<text text-anchor="middle" x="187.5" y="-329.5" font-family="Helvetica,sans-Serif" font-size="10.00">final_diagnostics</text>
</a>
</g>
</g>
<!-- Node6&#45;&gt;Node7 -->
<g id="edge6" class="edge">
<title>Node6&#45;&gt;Node7</title>
<path fill="none" stroke="midnightblue" d="M271.45,-312.93C253.04,-314.85 230.37,-318.54 213.39,-322.46"/>
<polygon fill="midnightblue" stroke="midnightblue" points="271.81,-316.41 281.46,-312.03 271.18,-309.44 271.81,-316.41"/>
</g>
<!-- Node6&#45;&gt;Node8 -->
<g id="edge8" class="edge">
<title>Node6&#45;&gt;Node8</title>
<path fill="none" stroke="midnightblue" d="M289.77,-297.9C277.98,-288.98 260.68,-278.81 245,-271 232.41,-264.73 217.78,-258.54 206.56,-255.26"/>
<polygon fill="midnightblue" stroke="midnightblue" points="287.67,-300.7 297.59,-304.42 292.15,-295.32 287.67,-300.7"/>
</g>
<!-- Node10 -->
<g id="node10" class="node">
<title>Node10</title>
<g id="a_node10"><a xlink:href="xspech_8f90.html#a95271e8805067f801b5d4e524d6901d4" target="_top" xlink:title="Main program of SPEC.">
<polygon fill="white" stroke="black" points="155.5,-360.5 155.5,-379.5 219.5,-379.5 219.5,-360.5 155.5,-360.5"/>
<text text-anchor="middle" x="187.5" y="-367.5" font-family="Helvetica,sans-Serif" font-size="10.00">spec_main</text>
</a>
</g>
</g>
<!-- Node6&#45;&gt;Node10 -->
<g id="edge12" class="edge">
<title>Node6&#45;&gt;Node10</title>
<path fill="none" stroke="midnightblue" d="M282.07,-329.49C271.25,-336.67 257.81,-344.94 245,-351 236.96,-354.81 227.94,-358.2 219.51,-361.03"/>
<polygon fill="midnightblue" stroke="midnightblue" points="284.16,-332.3 290.46,-323.79 280.22,-326.51 284.16,-332.3"/>
</g>
<!-- Node7&#45;&gt;Node6 -->
<g id="edge7" class="edge">
<title>Node7&#45;&gt;Node6</title>
<path fill="none" stroke="midnightblue" d="M242.05,-330.39C255.94,-328.33 270.15,-325.7 281.46,-322.99"/>
<polygon fill="midnightblue" stroke="midnightblue" points="241.46,-326.94 232.04,-331.78 242.42,-333.87 241.46,-326.94"/>
</g>
<!-- Node8&#45;&gt;Node6 -->
<g id="edge11" class="edge">
<title>Node8&#45;&gt;Node6</title>
<path fill="none" stroke="midnightblue" d="M206.3,-270.65C217.55,-276.45 232.31,-282.68 245,-289 257.27,-295.12 270.54,-302.67 281.38,-308.27"/>
<polygon fill="midnightblue" stroke="midnightblue" points="207.89,-267.53 197.46,-265.69 204.46,-273.64 207.89,-267.53"/>
</g>
<!-- Node9 -->
<g id="node9" class="node">
<title>Node9</title>
<g id="a_node9"><a xlink:href="group__grp__output.html#ga0f962c09cd5d5eba99f1cba043cb3898" target="_top" xlink:title="Initialize the interface to the HDF5 library and open the output file.">
<polygon fill="white" stroke="black" points="0,-265.5 0,-284.5 94,-284.5 94,-265.5 0,-265.5"/>
<text text-anchor="middle" x="47" y="-272.5" font-family="Helvetica,sans-Serif" font-size="10.00">sphdf5::init_outfile</text>
</a>
</g>
</g>
<!-- Node8&#45;&gt;Node9 -->
<g id="edge9" class="edge">
<title>Node8&#45;&gt;Node9</title>
<path fill="none" stroke="midnightblue" d="M158.31,-259.87C139.87,-262.4 115.36,-265.76 94.12,-268.67"/>
<polygon fill="midnightblue" stroke="midnightblue" points="158.96,-263.31 168.39,-258.48 158.01,-256.38 158.96,-263.31"/>
</g>
<!-- Node9&#45;&gt;Node6 -->
<g id="edge10" class="edge">
<title>Node9&#45;&gt;Node6</title>
<path fill="none" stroke="midnightblue" d="M104.27,-283.57C159.79,-292.03 241.88,-304.54 281.28,-310.54"/>
<polygon fill="midnightblue" stroke="midnightblue" points="104.65,-280.09 94.23,-282.04 103.59,-287.01 104.65,-280.09"/>
</g>
<!-- Node11&#45;&gt;Node12 -->
<g id="edge14" class="edge">
<title>Node11&#45;&gt;Node12</title>
<path fill="none" stroke="midnightblue" d="M399.51,-160.52C378.38,-162.41 349.31,-167.09 329.22,-171.88"/>
<polygon fill="midnightblue" stroke="midnightblue" points="400.02,-163.99 409.74,-159.8 399.52,-157.01 400.02,-163.99"/>
</g>
<!-- Node12&#45;&gt;Node8 -->
<g id="edge18" class="edge">
<title>Node12&#45;&gt;Node8</title>
<path fill="none" stroke="midnightblue" d="M287.36,-197.89C276.12,-208.64 260.53,-222.32 245,-232 232.88,-239.55 217.97,-245.77 206.51,-249.99"/>
<polygon fill="midnightblue" stroke="midnightblue" points="290.03,-200.17 294.72,-190.67 285.13,-195.17 290.03,-200.17"/>
</g>
<!-- Node12&#45;&gt;Node11 -->
<g id="edge15" class="edge">
<title>Node12&#45;&gt;Node11</title>
<path fill="none" stroke="midnightblue" d="M339.21,-181.87C362.11,-179.43 391.58,-174.36 409.74,-169.49"/>
<polygon fill="midnightblue" stroke="midnightblue" points="338.85,-178.39 329.22,-182.8 339.5,-185.36 338.85,-178.39"/>
</g>
<!-- Node12&#45;&gt;Node13 -->
<g id="edge16" class="edge">
<title>Node12&#45;&gt;Node13</title>
<path fill="none" stroke="midnightblue" d="M270.84,-176.93C215.53,-174.96 106.41,-177.47 64.72,-182.12"/>
<polygon fill="midnightblue" stroke="midnightblue" points="270.69,-180.43 280.83,-177.37 270.99,-173.44 270.69,-180.43"/>
</g>
<!-- Node14 -->
<g id="node14" class="node">
<title>Node14</title>
<g id="a_node14"><a xlink:href="group__grp__force__driver.html#ga382822b303cbf8c56d6f54dcb379caf2" target="_top" xlink:title="read or write force&#45;derivative matrix">
<polygon fill="white" stroke="black" points="155,-152.5 155,-171.5 220,-171.5 220,-152.5 155,-152.5"/>
<text text-anchor="middle" x="187.5" y="-159.5" font-family="Helvetica,sans-Serif" font-size="10.00">writereadgf</text>
</a>
</g>
</g>
<!-- Node12&#45;&gt;Node14 -->
<g id="edge19" class="edge">
<title>Node12&#45;&gt;Node14</title>
<path fill="none" stroke="midnightblue" d="M270.96,-169.4C255.05,-165.98 236.05,-162.88 220.3,-161.13"/>
<polygon fill="midnightblue" stroke="midnightblue" points="270.38,-172.85 280.9,-171.67 271.94,-166.03 270.38,-172.85"/>
</g>
<!-- Node13&#45;&gt;Node12 -->
<g id="edge17" class="edge">
<title>Node13&#45;&gt;Node12</title>
<path fill="none" stroke="midnightblue" d="M74.85,-189.81C125.28,-192.13 233.36,-189.93 280.83,-185.53"/>
<polygon fill="midnightblue" stroke="midnightblue" points="74.91,-186.31 64.72,-189.23 74.51,-193.3 74.91,-186.31"/>
</g>
<!-- Node14&#45;&gt;Node12 -->
<g id="edge21" class="edge">
<title>Node14&#45;&gt;Node12</title>
<path fill="none" stroke="midnightblue" d="M222.33,-173.77C241.16,-177.78 264.13,-181.33 280.9,-182.73"/>
<polygon fill="midnightblue" stroke="midnightblue" points="222.88,-170.31 212.35,-171.51 221.33,-177.13 222.88,-170.31"/>
</g>
<!-- Node14&#45;&gt;Node13 -->
<g id="edge20" class="edge">
<title>Node14&#45;&gt;Node13</title>
<path fill="none" stroke="midnightblue" d="M144.76,-169.23C117.8,-173.9 84.2,-179.73 64.52,-183.14"/>
<polygon fill="midnightblue" stroke="midnightblue" points="145.47,-172.66 154.73,-167.51 144.27,-165.76 145.47,-172.66"/>
</g>
<!-- Node16 -->
<g id="node16" class="node">
<title>Node16</title>
<g id="a_node16"><a xlink:href="dfp200_8f90.html#a55ea75395f8c71731451e1add3720c7e" target="_top" xlink:title="Given the field consistent with the constraints and the geometry, computes local quantites related to...">
<polygon fill="white" stroke="black" points="282,-38.5 282,-57.5 328,-57.5 328,-38.5 282,-38.5"/>
<text text-anchor="middle" x="305" y="-45.5" font-family="Helvetica,sans-Serif" font-size="10.00">dfp200</text>
</a>
</g>
</g>
<!-- Node15&#45;&gt;Node16 -->
<g id="edge24" class="edge">
<title>Node15&#45;&gt;Node16</title>
<path fill="none" stroke="midnightblue" d="M401.27,-72.43C379.71,-64.04 348.99,-54.43 328.32,-49.66"/>
<polygon fill="midnightblue" stroke="midnightblue" points="400.17,-75.76 410.75,-76.3 402.81,-69.28 400.17,-75.76"/>
</g>
<!-- Node16&#45;&gt;Node4 -->
<g id="edge25" class="edge">
<title>Node16&#45;&gt;Node4</title>
<path fill="none" stroke="midnightblue" d="M338.24,-42.59C377.68,-37.79 444.75,-35.71 490,-67 526.76,-92.42 541,-148.7 545.37,-171.32"/>
<polygon fill="midnightblue" stroke="midnightblue" points="337.57,-39.15 328.13,-43.95 338.51,-46.08 337.57,-39.15"/>
</g>
<!-- Node16&#45;&gt;Node15 -->
<g id="edge30" class="edge">
<title>Node16&#45;&gt;Node15</title>
<path fill="none" stroke="midnightblue" d="M330.78,-61.39C343.58,-66.39 359.7,-71.85 375.05,-76.46"/>
<polygon fill="midnightblue" stroke="midnightblue" points="331.88,-58.06 321.3,-57.5 329.22,-64.54 331.88,-58.06"/>
</g>
<!-- Node17 -->
<g id="node17" class="node">
<title>Node17</title>
<g id="a_node17"><a xlink:href="dfp200_8f90.html#a7b64c7392b45d0042d8bd7379c0761a5" target="_top" xlink:title="Evaluate the derivative of the square of the magnetic field modulus. Add spectral constraint derivati...">
<polygon fill="white" stroke="black" points="150.5,-76.5 150.5,-95.5 224.5,-95.5 224.5,-76.5 150.5,-76.5"/>
<text text-anchor="middle" x="187.5" y="-83.5" font-family="Helvetica,sans-Serif" font-size="10.00">evaluate_dbb</text>
</a>
</g>
</g>
<!-- Node16&#45;&gt;Node17 -->
<g id="edge26" class="edge">
<title>Node16&#45;&gt;Node17</title>
<path fill="none" stroke="midnightblue" d="M271.95,-52.43C249.52,-58.63 220.6,-68.61 203.36,-76.41"/>
<polygon fill="midnightblue" stroke="midnightblue" points="272.94,-55.79 281.73,-49.87 271.17,-49.01 272.94,-55.79"/>
</g>
<!-- Node16&#45;&gt;Node18 -->
<g id="edge28" class="edge">
<title>Node16&#45;&gt;Node18</title>
<path fill="none" stroke="midnightblue" d="M279.35,-34.24C266.45,-29.03 250.22,-23.36 235.06,-18.68"/>
<polygon fill="midnightblue" stroke="midnightblue" points="278.33,-37.61 288.9,-38.3 281.07,-31.17 278.33,-37.61"/>
</g>
<!-- Node19 -->
<g id="node19" class="node">
<title>Node19</title>
<g id="a_node19"><a xlink:href="dfp200_8f90.html#a5e56f1f4b1e6df11a9cffa6237c37469" target="_top" xlink:title="This routine evaluates the value of the magnetic field once the interface is perturbed using matrix p...">
<polygon fill="white" stroke="black" points="130,-38.5 130,-57.5 245,-57.5 245,-38.5 130,-38.5"/>
<text text-anchor="middle" x="187.5" y="-45.5" font-family="Helvetica,sans-Serif" font-size="10.00">get_perturbed_solution</text>
</a>
</g>
</g>
<!-- Node16&#45;&gt;Node19 -->
<g id="edge31" class="edge">
<title>Node16&#45;&gt;Node19</title>
<path fill="none" stroke="midnightblue" d="M271.51,-41.86C263.3,-41.44 254.25,-41.23 245.23,-41.25"/>
<polygon fill="midnightblue" stroke="midnightblue" points="271.52,-45.37 281.73,-42.54 271.99,-38.38 271.52,-45.37"/>
</g>
<!-- Node17&#45;&gt;Node16 -->
<g id="edge27" class="edge">
<title>Node17&#45;&gt;Node16</title>
<path fill="none" stroke="midnightblue" d="M234.59,-77.46C253.93,-71.52 275.09,-63.92 288.9,-57.7"/>
<polygon fill="midnightblue" stroke="midnightblue" points="233.57,-74.11 224.99,-80.32 235.57,-80.82 233.57,-74.11"/>
</g>
<!-- Node18&#45;&gt;Node16 -->
<g id="edge29" class="edge">
<title>Node18&#45;&gt;Node16</title>
<path fill="none" stroke="midnightblue" d="M212.59,-23.53C232.96,-31.81 261.9,-41.28 281.73,-46.13"/>
<polygon fill="midnightblue" stroke="midnightblue" points="213.93,-20.3 203.36,-19.59 211.19,-26.74 213.93,-20.3"/>
</g>
<!-- Node19&#45;&gt;Node16 -->
<g id="edge32" class="edge">
<title>Node19&#45;&gt;Node16</title>
<path fill="none" stroke="midnightblue" d="M255.23,-54.68C264.76,-54.52 273.95,-54.11 281.73,-53.46"/>
<polygon fill="midnightblue" stroke="midnightblue" points="255.21,-51.18 245.23,-54.75 255.26,-58.18 255.21,-51.18"/>
</g>
<!-- Node20&#45;&gt;Node8 -->
<g id="edge34" class="edge">
<title>Node20&#45;&gt;Node8</title>
<path fill="none" stroke="midnightblue" d="M272.17,-242.96C251.1,-246.24 224.23,-250.43 206.71,-253.16"/>
<polygon fill="midnightblue" stroke="midnightblue" points="272.93,-246.38 282.28,-241.39 271.86,-239.47 272.93,-246.38"/>
</g>
<!-- Node22 -->
<g id="node22" class="node">
<title>Node22</title>
<g id="a_node22"><a xlink:href="group__grp__conjugate__gradient.html#ga25a3bae2ff2ee0469b045de0d033398b" target="_top" xlink:title="Use preconditioned conjugate gradient method to find minimum of energy functional.">
<polygon fill="white" stroke="black" points="281,-342.5 281,-361.5 329,-361.5 329,-342.5 281,-342.5"/>
<text text-anchor="middle" x="305" y="-349.5" font-family="Helvetica,sans-Serif" font-size="10.00">pc00aa</text>
</a>
</g>
</g>
<!-- Node21&#45;&gt;Node22 -->
<g id="edge37" class="edge">
<title>Node21&#45;&gt;Node22</title>
<path fill="none" stroke="midnightblue" d="M393.16,-352C372.81,-352 347.31,-352 329.16,-352"/>
<polygon fill="midnightblue" stroke="midnightblue" points="393.27,-355.5 403.27,-352 393.27,-348.5 393.27,-355.5"/>
</g>
</g>
</svg>
