<?xml version="1.0" encoding="UTF-8" standalone="no"?>
<!DOCTYPE svg PUBLIC "-//W3C//DTD SVG 1.1//EN"
 "http://www.w3.org/Graphics/SVG/1.1/DTD/svg11.dtd">
<!-- Generated by graphviz version 2.44.1 (0)
 -->
<!-- Title: ending Pages: 1 -->
<svg width="145pt" height="28pt"
 viewBox="0.00 0.00 145.00 28.00" xmlns="http://www.w3.org/2000/svg" xmlns:xlink="http://www.w3.org/1999/xlink">
<g id="graph0" class="graph" transform="scale(1 1) rotate(0) translate(4 24)">
<title>ending</title>
<polygon fill="white" stroke="transparent" points="-4,4 -4,-24 141,-24 141,4 -4,4"/>
<!-- Node1 -->
<g id="node1" class="node">
<title>Node1</title>
<g id="a_node1"><a xlink:title="todo remark">
<polygon fill="#bfbfbf" stroke="black" points="87,-0.5 87,-19.5 137,-19.5 137,-0.5 87,-0.5"/>
<text text-anchor="middle" x="112" y="-7.5" font-family="Helvetica,sans-Serif" font-size="10.00">ending</text>
</a>
</g>
</g>
<!-- Node2 -->
<g id="node2" class="node">
<title>Node2</title>
<g id="a_node2"><a xlink:href="xspech_8f90.xhtml#aea782eae089760a491c2c54f9903abcc" target="_top" xlink:title="Main program of SPEC.">
<polygon fill="white" stroke="black" points="0,-0.5 0,-19.5 51,-19.5 51,-0.5 0,-0.5"/>
<text text-anchor="middle" x="25.5" y="-7.5" font-family="Helvetica,sans-Serif" font-size="10.00">xspech</text>
</a>
</g>
</g>
<!-- Node1&#45;&gt;Node2 -->
<g id="edge1" class="edge">
<title>Node1&#45;&gt;Node2</title>
<path fill="none" stroke="midnightblue" d="M76.51,-3.35C68.02,-3.13 59.1,-3.27 51.18,-3.8"/>
<polygon fill="midnightblue" stroke="midnightblue" points="76.41,-6.85 86.56,-3.81 76.73,0.14 76.41,-6.85"/>
</g>
<!-- Node2&#45;&gt;Node1 -->
<g id="edge2" class="edge">
<title>Node2&#45;&gt;Node1</title>
<path fill="none" stroke="midnightblue" d="M61.24,-16.65C69.74,-16.87 78.66,-16.72 86.56,-16.19"/>
<polygon fill="midnightblue" stroke="midnightblue" points="61.33,-13.15 51.18,-16.2 61.01,-20.15 61.33,-13.15"/>
</g>
</g>
</svg>
