<?xml version="1.0" encoding="UTF-8" standalone="no"?>
<!DOCTYPE svg PUBLIC "-//W3C//DTD SVG 1.1//EN"
 "http://www.w3.org/Graphics/SVG/1.1/DTD/svg11.dtd">
<!-- Generated by graphviz version 2.44.0 ()
 -->
<!-- Title: ending Pages: 1 -->
<svg width="643pt" height="616pt"
 viewBox="0.00 0.00 643.00 616.00" xmlns="http://www.w3.org/2000/svg" xmlns:xlink="http://www.w3.org/1999/xlink">
<g id="graph0" class="graph" transform="scale(1 1) rotate(0) translate(4 612)">
<title>ending</title>
<polygon fill="white" stroke="transparent" points="-4,4 -4,-612 639,-612 639,4 -4,4"/>
<!-- Node1 -->
<g id="node1" class="node">
<title>Node1</title>
<g id="a_node1"><a xlink:title="todo remark">
<polygon fill="#bfbfbf" stroke="black" points="0,-322.5 0,-341.5 45,-341.5 45,-322.5 0,-322.5"/>
<text text-anchor="middle" x="22.5" y="-329.5" font-family="Helvetica,sans-Serif" font-size="10.00">ending</text>
</a>
</g>
</g>
<!-- Node2 -->
<g id="node2" class="node">
<title>Node2</title>
<g id="a_node2"><a xlink:href="xspech_8f90.html#aea782eae089760a491c2c54f9903abcc" target="_top" xlink:title="Main program of SPEC.">
<polygon fill="white" stroke="black" points="81,-322.5 81,-341.5 128,-341.5 128,-322.5 81,-322.5"/>
<text text-anchor="middle" x="104.5" y="-329.5" font-family="Helvetica,sans-Serif" font-size="10.00">xspech</text>
</a>
</g>
</g>
<!-- Node1&#45;&gt;Node2 -->
<g id="edge1" class="edge">
<title>Node1&#45;&gt;Node2</title>
<path fill="none" stroke="midnightblue" d="M45.36,-325.91C53.19,-325.3 62.19,-325.11 70.74,-325.35"/>
<polygon fill="midnightblue" stroke="midnightblue" points="70.67,-328.85 80.83,-325.85 71.01,-321.86 70.67,-328.85"/>
</g>
<!-- Node2&#45;&gt;Node1 -->
<g id="edge7" class="edge">
<title>Node2&#45;&gt;Node1</title>
<path fill="none" stroke="midnightblue" d="M80.83,-338.15C72.92,-338.73 63.9,-338.89 55.38,-338.62"/>
<polygon fill="midnightblue" stroke="midnightblue" points="55.53,-335.13 45.36,-338.09 55.16,-342.12 55.53,-335.13"/>
</g>
<!-- Node3 -->
<g id="node3" class="node">
<title>Node3</title>
<g id="a_node3"><a xlink:href="group__grp__free-boundary.html#gac0a2cc2241947b27241bb8ef75c5e0ed" target="_top" xlink:title="Computes &#160;on the computational boundary, .">
<polygon fill="white" stroke="black" points="352,-588.5 352,-607.5 398,-607.5 398,-588.5 352,-588.5"/>
<text text-anchor="middle" x="375" y="-595.5" font-family="Helvetica,sans-Serif" font-size="10.00">bnorml</text>
</a>
</g>
</g>
<!-- Node2&#45;&gt;Node3 -->
<g id="edge2" class="edge">
<title>Node2&#45;&gt;Node3</title>
<path fill="none" stroke="midnightblue" d="M105.63,-341.72C106.57,-372.34 113.61,-467.96 164,-521 212.01,-571.54 295.95,-589.06 341.82,-595.02"/>
<polygon fill="midnightblue" stroke="midnightblue" points="341.47,-598.5 351.81,-596.21 342.3,-591.55 341.47,-598.5"/>
</g>
<!-- Node7 -->
<g id="node7" class="node">
<title>Node7</title>
<g id="a_node7"><a xlink:href="group__grp__diagnostics.html#ga7401b50ec10c6598ee4a8112717a63ec" target="_top" xlink:title="Computes eigenvalues and eigenvectors of derivative matrix, .">
<polygon fill="white" stroke="black" points="165.5,-474.5 165.5,-493.5 210.5,-493.5 210.5,-474.5 165.5,-474.5"/>
<text text-anchor="middle" x="188" y="-481.5" font-family="Helvetica,sans-Serif" font-size="10.00">hesian</text>
</a>
</g>
</g>
<!-- Node2&#45;&gt;Node7 -->
<g id="edge8" class="edge">
<title>Node2&#45;&gt;Node7</title>
<path fill="none" stroke="midnightblue" d="M108.62,-341.56C116.08,-363.63 136.42,-419.37 164,-460 165.53,-462.26 167.28,-464.5 169.12,-466.65"/>
<polygon fill="midnightblue" stroke="midnightblue" points="166.95,-469.46 176.34,-474.38 172.07,-464.68 166.95,-469.46"/>
</g>
<!-- Node8 -->
<g id="node8" class="node">
<title>Node8</title>
<g id="a_node8"><a xlink:href="group__grp__packing.html#ga094e630c02686dd178749eb1efbf13fb" target="_top" xlink:title="Packs, and unpacks, geometrical degrees of freedom; and sets coordinate axis.">
<polygon fill="white" stroke="black" points="353,-284.5 353,-303.5 397,-303.5 397,-284.5 353,-284.5"/>
<text text-anchor="middle" x="375" y="-291.5" font-family="Helvetica,sans-Serif" font-size="10.00">packxi</text>
</a>
</g>
</g>
<!-- Node2&#45;&gt;Node8 -->
<g id="edge42" class="edge">
<title>Node2&#45;&gt;Node8</title>
<path fill="none" stroke="midnightblue" d="M128.22,-330.76C164.07,-328.58 235.88,-323.27 296,-313 311.7,-310.32 328.92,-306.25 343.18,-302.56"/>
<polygon fill="midnightblue" stroke="midnightblue" points="344.21,-305.91 352.98,-299.97 342.42,-299.14 344.21,-305.91"/>
</g>
<!-- Node9 -->
<g id="node9" class="node">
<title>Node9</title>
<g id="a_node9"><a xlink:href="group__grp__initialization.html#ga28628de0fdb3b3497668007d8d0643bd" target="_top" xlink:title="Allocates and initializes internal arrays.">
<polygon fill="white" stroke="black" points="250,-474.5 250,-493.5 294,-493.5 294,-474.5 250,-474.5"/>
<text text-anchor="middle" x="272" y="-481.5" font-family="Helvetica,sans-Serif" font-size="10.00">preset</text>
</a>
</g>
</g>
<!-- Node2&#45;&gt;Node9 -->
<g id="edge48" class="edge">
<title>Node2&#45;&gt;Node9</title>
<path fill="none" stroke="midnightblue" d="M105.3,-341.56C105.24,-371.56 109.63,-464.14 164,-503 188.01,-520.16 222.64,-509.25 245.93,-498.17"/>
<polygon fill="midnightblue" stroke="midnightblue" points="247.52,-501.29 254.86,-493.66 244.36,-495.05 247.52,-501.29"/>
</g>
<!-- Node12 -->
<g id="node12" class="node">
<title>Node12</title>
<g id="a_node12"><a xlink:href="group__grp__volume.html#gae4c62d20b8fef07f4471b5b0889ab005" target="_top" xlink:title="Computes volume of each region; and, if required, the derivatives of the volume with respect to the i...">
<polygon fill="white" stroke="black" points="351,-152.5 351,-171.5 399,-171.5 399,-152.5 351,-152.5"/>
<text text-anchor="middle" x="375" y="-159.5" font-family="Helvetica,sans-Serif" font-size="10.00">volume</text>
</a>
</g>
</g>
<!-- Node2&#45;&gt;Node12 -->
<g id="edge51" class="edge">
<title>Node2&#45;&gt;Node12</title>
<path fill="none" stroke="midnightblue" d="M106.28,-322.41C108.95,-296.22 120.18,-223.08 164,-188 214.71,-147.41 295.56,-150.49 340.72,-156.27"/>
<polygon fill="midnightblue" stroke="midnightblue" points="340.46,-159.77 350.85,-157.7 341.44,-152.84 340.46,-159.77"/>
</g>
<!-- Node15 -->
<g id="node15" class="node">
<title>Node15</title>
<g id="a_node15"><a xlink:href="group__grp__output.html#ga08d6a254dbc3d9d40ff1cf0bdfdf2148" target="_top" xlink:title="Writes vector potential to .ext.sp.A .">
<polygon fill="white" stroke="black" points="352,-360.5 352,-379.5 398,-379.5 398,-360.5 352,-360.5"/>
<text text-anchor="middle" x="375" y="-367.5" font-family="Helvetica,sans-Serif" font-size="10.00">ra00aa</text>
</a>
</g>
</g>
<!-- Node2&#45;&gt;Node15 -->
<g id="edge49" class="edge">
<title>Node2&#45;&gt;Node15</title>
<path fill="none" stroke="midnightblue" d="M119.69,-341.52C131.12,-348.62 147.88,-357.78 164,-362 225.21,-378.02 299.85,-376.01 341.64,-373.04"/>
<polygon fill="midnightblue" stroke="midnightblue" points="342.08,-376.52 351.78,-372.26 341.54,-369.54 342.08,-376.52"/>
</g>
<!-- Node16 -->
<g id="node16" class="node">
<title>Node16</title>
<g id="a_node16"><a xlink:href="namespaceallglobal.html#ad32ae6194892fe7d876622a6455189e2" target="_top" xlink:title="The master node reads the input namelist and sets various internal variables. The relevant quantities...">
<polygon fill="white" stroke="black" points="333.5,-322.5 333.5,-341.5 416.5,-341.5 416.5,-322.5 333.5,-322.5"/>
<text text-anchor="middle" x="375" y="-329.5" font-family="Helvetica,sans-Serif" font-size="10.00">allglobal::readin</text>
</a>
</g>
</g>
<!-- Node2&#45;&gt;Node16 -->
<g id="edge50" class="edge">
<title>Node2&#45;&gt;Node16</title>
<path fill="none" stroke="midnightblue" d="M128.06,-338.71C138.83,-341.57 151.97,-344.58 164,-346 222.26,-352.87 237.56,-351.2 296,-346 304.86,-345.21 314.22,-343.93 323.27,-342.45"/>
<polygon fill="midnightblue" stroke="midnightblue" points="324.04,-345.87 333.3,-340.71 322.85,-338.97 324.04,-345.87"/>
</g>
<!-- Node19 -->
<g id="node19" class="node">
<title>Node19</title>
<g id="a_node19"><a xlink:href="group__grp__diagnostics.html#ga6411205c36a7d50002d7f3fb3133c441" target="_top" xlink:title="Measures error in Beltrami equation, .">
<polygon fill="white" stroke="black" points="249.5,-76.5 249.5,-95.5 294.5,-95.5 294.5,-76.5 249.5,-76.5"/>
<text text-anchor="middle" x="272" y="-83.5" font-family="Helvetica,sans-Serif" font-size="10.00">jo00aa</text>
</a>
</g>
</g>
<!-- Node2&#45;&gt;Node19 -->
<g id="edge24" class="edge">
<title>Node2&#45;&gt;Node19</title>
<path fill="none" stroke="midnightblue" d="M106.7,-322.4C111.73,-283.8 132.29,-140.56 164,-110 183.85,-90.87 215.49,-85.7 239.22,-84.82"/>
<polygon fill="midnightblue" stroke="midnightblue" points="239.54,-88.32 249.5,-84.69 239.45,-81.32 239.54,-88.32"/>
</g>
<!-- Node21 -->
<g id="node21" class="node">
<title>Node21</title>
<g id="a_node21"><a xlink:href="group__grp__force__driver.html#gaec14f81fbdbedafbc4189489ec8ae178" target="_top" xlink:title="Employs Newton method to find , where &#160;and &#160;is defined in dforce() .">
<polygon fill="white" stroke="black" points="164,-237.5 164,-256.5 212,-256.5 212,-237.5 164,-237.5"/>
<text text-anchor="middle" x="188" y="-244.5" font-family="Helvetica,sans-Serif" font-size="10.00">newton</text>
</a>
</g>
</g>
<!-- Node2&#45;&gt;Node21 -->
<g id="edge28" class="edge">
<title>Node2&#45;&gt;Node21</title>
<path fill="none" stroke="midnightblue" d="M114.85,-322.25C128.48,-308.03 154.01,-281.4 170.76,-263.94"/>
<polygon fill="midnightblue" stroke="midnightblue" points="173.37,-266.28 177.76,-256.64 168.31,-261.43 173.37,-266.28"/>
</g>
<!-- Node23 -->
<g id="node23" class="node">
<title>Node23</title>
<g id="a_node23"><a xlink:href="namespaceallglobal.html#a282c297c96abdab5e76b5ace440b09a8" target="_top" xlink:title="The restart file is written.">
<polygon fill="white" stroke="black" points="332,-190.5 332,-209.5 418,-209.5 418,-190.5 332,-190.5"/>
<text text-anchor="middle" x="375" y="-197.5" font-family="Helvetica,sans-Serif" font-size="10.00">allglobal::wrtend</text>
</a>
</g>
</g>
<!-- Node2&#45;&gt;Node23 -->
<g id="edge52" class="edge">
<title>Node2&#45;&gt;Node23</title>
<path fill="none" stroke="midnightblue" d="M108.9,-322.27C116.23,-302.41 135.26,-256.68 164,-228 194.28,-197.78 206.6,-191.79 248,-181 278.43,-173.07 313.91,-179.8 339.45,-187.36"/>
<polygon fill="midnightblue" stroke="midnightblue" points="338.47,-190.72 349.06,-190.38 340.57,-184.04 338.47,-190.72"/>
</g>
<!-- Node26 -->
<g id="node26" class="node">
<title>Node26</title>
<g id="a_node26"><a xlink:href="group__grp__diagnostics.html#gad67931244268a09bd077dae8910c7096" target="_top" xlink:title="Constructs Poincaré plot and &quot;approximate&quot; rotational&#45;transform (driver).">
<polygon fill="white" stroke="black" points="164,-38.5 164,-57.5 212,-57.5 212,-38.5 164,-38.5"/>
<text text-anchor="middle" x="188" y="-45.5" font-family="Helvetica,sans-Serif" font-size="10.00">pp00aa</text>
</a>
</g>
</g>
<!-- Node2&#45;&gt;Node26 -->
<g id="edge43" class="edge">
<title>Node2&#45;&gt;Node26</title>
<path fill="none" stroke="midnightblue" d="M105.83,-322.39C107.41,-286.92 116.29,-160.87 164,-72 165.24,-69.69 166.77,-67.44 168.44,-65.3"/>
<polygon fill="midnightblue" stroke="midnightblue" points="171.17,-67.5 175.31,-57.74 165.99,-62.79 171.17,-67.5"/>
</g>
<!-- Node4 -->
<g id="node4" class="node">
<title>Node4</title>
<g id="a_node4"><a xlink:href="group__grp__free-boundary.html#ga180576a10002ebf3840fce98d56316bb" target="_top" xlink:title="Constructs the field created by the plasma currents, at an arbitrary, external location using virtual...">
<polygon fill="white" stroke="black" points="479,-588.5 479,-607.5 524,-607.5 524,-588.5 479,-588.5"/>
<text text-anchor="middle" x="501.5" y="-595.5" font-family="Helvetica,sans-Serif" font-size="10.00">casing</text>
</a>
</g>
</g>
<!-- Node3&#45;&gt;Node4 -->
<g id="edge3" class="edge">
<title>Node3&#45;&gt;Node4</title>
<path fill="none" stroke="midnightblue" d="M398.26,-598C417.85,-598 446.62,-598 468.65,-598"/>
<polygon fill="midnightblue" stroke="midnightblue" points="468.85,-601.5 478.85,-598 468.85,-594.5 468.85,-601.5"/>
</g>
<!-- Node6 -->
<g id="node6" class="node">
<title>Node6</title>
<g id="a_node6"><a xlink:href="group__grp__numerics.html#ga041138109a57e651c57117bb4180409e" target="_top" xlink:title="Forward Fourier transform (fftw wrapper)">
<polygon fill="white" stroke="black" points="487,-550.5 487,-569.5 516,-569.5 516,-550.5 487,-550.5"/>
<text text-anchor="middle" x="501.5" y="-557.5" font-family="Helvetica,sans-Serif" font-size="10.00">tfft</text>
</a>
</g>
</g>
<!-- Node3&#45;&gt;Node6 -->
<g id="edge6" class="edge">
<title>Node3&#45;&gt;Node6</title>
<path fill="none" stroke="midnightblue" d="M398.26,-591.21C420.48,-584.42 454.49,-574.04 477.1,-567.14"/>
<polygon fill="midnightblue" stroke="midnightblue" points="478.35,-570.42 486.89,-564.15 476.31,-563.72 478.35,-570.42"/>
</g>
<!-- Node5 -->
<g id="node5" class="node">
<title>Node5</title>
<g id="a_node5"><a xlink:href="group__grp__free-boundary.html#ga281c12a5de84fddd3db4383b0df8627f" target="_top" xlink:title="Differential virtual casing integrand.">
<polygon fill="white" stroke="black" points="585,-588.5 585,-607.5 635,-607.5 635,-588.5 585,-588.5"/>
<text text-anchor="middle" x="610" y="-595.5" font-family="Helvetica,sans-Serif" font-size="10.00">dvcfield</text>
</a>
</g>
</g>
<!-- Node4&#45;&gt;Node5 -->
<g id="edge4" class="edge">
<title>Node4&#45;&gt;Node5</title>
<path fill="none" stroke="midnightblue" d="M524.05,-592.45C538.51,-591.2 557.87,-590.92 574.46,-591.63"/>
<polygon fill="midnightblue" stroke="midnightblue" points="574.69,-595.15 584.88,-592.24 575.1,-588.17 574.69,-595.15"/>
</g>
<!-- Node5&#45;&gt;Node4 -->
<g id="edge5" class="edge">
<title>Node5&#45;&gt;Node4</title>
<path fill="none" stroke="midnightblue" d="M584.88,-603.76C569.88,-604.9 550.42,-605.06 534.18,-604.23"/>
<polygon fill="midnightblue" stroke="midnightblue" points="534.26,-600.73 524.05,-603.55 533.79,-607.71 534.26,-600.73"/>
</g>
<!-- Node7&#45;&gt;Node8 -->
<g id="edge9" class="edge">
<title>Node7&#45;&gt;Node8</title>
<path fill="none" stroke="midnightblue" d="M196.28,-474.18C220.52,-441.67 298.87,-338.16 332,-313 335.61,-310.26 339.68,-307.8 343.83,-305.63"/>
<polygon fill="midnightblue" stroke="midnightblue" points="345.34,-308.79 352.89,-301.36 342.35,-302.46 345.34,-308.79"/>
</g>
<!-- Node7&#45;&gt;Node9 -->
<g id="edge10" class="edge">
<title>Node7&#45;&gt;Node9</title>
<path fill="none" stroke="midnightblue" d="M210.54,-484C219.47,-484 229.99,-484 239.73,-484"/>
<polygon fill="midnightblue" stroke="midnightblue" points="239.88,-487.5 249.88,-484 239.88,-480.5 239.88,-487.5"/>
</g>
<!-- Node9&#45;&gt;Node3 -->
<g id="edge11" class="edge">
<title>Node9&#45;&gt;Node3</title>
<path fill="none" stroke="midnightblue" d="M277.45,-493.73C285.96,-511.48 306.01,-549.55 332,-574 335.56,-577.35 339.67,-580.41 343.9,-583.15"/>
<polygon fill="midnightblue" stroke="midnightblue" points="342.21,-586.22 352.6,-588.3 345.78,-580.2 342.21,-586.22"/>
</g>
<!-- Node9&#45;&gt;Node6 -->
<g id="edge23" class="edge">
<title>Node9&#45;&gt;Node6</title>
<path fill="none" stroke="midnightblue" d="M286.46,-493.56C298.04,-501.4 315.46,-512.26 332,-519 381.6,-539.22 443.63,-551.13 476.86,-556.52"/>
<polygon fill="midnightblue" stroke="midnightblue" points="476.55,-560.02 486.97,-558.1 477.63,-553.1 476.55,-560.02"/>
</g>
<!-- Node10 -->
<g id="node10" class="node">
<title>Node10</title>
<g id="a_node10"><a xlink:href="group__grp__geometry.html#gaaca20aa60eaf39055f3c9d5c02a24ac2" target="_top" xlink:title="Calculates coordinates, , and metrics, using FFTs.">
<polygon fill="white" stroke="black" points="478.5,-152.5 478.5,-171.5 524.5,-171.5 524.5,-152.5 478.5,-152.5"/>
<text text-anchor="middle" x="501.5" y="-159.5" font-family="Helvetica,sans-Serif" font-size="10.00">coords</text>
</a>
</g>
</g>
<!-- Node9&#45;&gt;Node10 -->
<g id="edge12" class="edge">
<title>Node9&#45;&gt;Node10</title>
<path fill="none" stroke="midnightblue" d="M282.38,-474.34C293.51,-463.21 312.98,-444.82 332,-432 367.44,-408.12 389.57,-420.9 418,-389 421.65,-384.9 474.61,-235.4 493.7,-181.29"/>
<polygon fill="midnightblue" stroke="midnightblue" points="497.11,-182.14 497.14,-171.55 490.51,-179.82 497.11,-182.14"/>
</g>
<!-- Node11 -->
<g id="node11" class="node">
<title>Node11</title>
<g id="a_node11"><a xlink:href="group__grp__numerics.html#ga1fd52accb0646f535f9bcc46cf5a68f3" target="_top" xlink:title="Inverse Fourier transform (fftw wrapper)">
<polygon fill="white" stroke="black" points="591,-152.5 591,-171.5 629,-171.5 629,-152.5 591,-152.5"/>
<text text-anchor="middle" x="610" y="-159.5" font-family="Helvetica,sans-Serif" font-size="10.00">invfft</text>
</a>
</g>
</g>
<!-- Node9&#45;&gt;Node11 -->
<g id="edge17" class="edge">
<title>Node9&#45;&gt;Node11</title>
<path fill="none" stroke="midnightblue" d="M294.33,-476.4C355.92,-454.3 530.81,-390.33 549,-370 598.15,-315.08 607.21,-222.24 608.75,-181.81"/>
<polygon fill="midnightblue" stroke="midnightblue" points="612.26,-181.75 609.02,-171.66 605.26,-181.57 612.26,-181.75"/>
</g>
<!-- Node13 -->
<g id="node13" class="node">
<title>Node13</title>
<g id="a_node13"><a xlink:href="group__grp__numerics.html#ga425e8f1cbf214a3231ab6c874d8fe4be" target="_top" xlink:title="Gauss&#45;Legendre weights and abscissae.">
<polygon fill="white" stroke="black" points="352.5,-474.5 352.5,-493.5 397.5,-493.5 397.5,-474.5 352.5,-474.5"/>
<text text-anchor="middle" x="375" y="-481.5" font-family="Helvetica,sans-Serif" font-size="10.00">gauleg</text>
</a>
</g>
</g>
<!-- Node9&#45;&gt;Node13 -->
<g id="edge16" class="edge">
<title>Node9&#45;&gt;Node13</title>
<path fill="none" stroke="midnightblue" d="M294.42,-484C308.25,-484 326.5,-484 342.03,-484"/>
<polygon fill="midnightblue" stroke="midnightblue" points="342.26,-487.5 352.26,-484 342.26,-480.5 342.26,-487.5"/>
</g>
<!-- Node14 -->
<g id="node14" class="node">
<title>Node14</title>
<g id="a_node14"><a xlink:href="group__grp__build__matrices.html#ga1c52bb6dbffdb432550aae12b096080f" target="_top" xlink:title="Constructs energy and helicity matrices that represent the Beltrami linear system....">
<polygon fill="white" stroke="black" points="480,-493.5 480,-512.5 523,-512.5 523,-493.5 480,-493.5"/>
<text text-anchor="middle" x="501.5" y="-500.5" font-family="Helvetica,sans-Serif" font-size="10.00">matrix</text>
</a>
</g>
</g>
<!-- Node9&#45;&gt;Node14 -->
<g id="edge18" class="edge">
<title>Node9&#45;&gt;Node14</title>
<path fill="none" stroke="midnightblue" d="M294.19,-492.59C305.25,-496.62 319.14,-500.98 332,-503 379.59,-510.47 435.68,-508.33 469.64,-505.85"/>
<polygon fill="midnightblue" stroke="midnightblue" points="470.16,-509.32 479.85,-505.05 469.6,-502.35 470.16,-509.32"/>
</g>
<!-- Node9&#45;&gt;Node15 -->
<g id="edge19" class="edge">
<title>Node9&#45;&gt;Node15</title>
<path fill="none" stroke="midnightblue" d="M283.48,-474.25C287.65,-470.09 292.32,-465.03 296,-460 315.73,-433.04 308.61,-417.86 332,-394 335.26,-390.67 339.09,-387.66 343.07,-384.98"/>
<polygon fill="midnightblue" stroke="midnightblue" points="345.14,-387.82 351.9,-379.66 341.53,-381.82 345.14,-387.82"/>
</g>
<!-- Node9&#45;&gt;Node16 -->
<g id="edge20" class="edge">
<title>Node9&#45;&gt;Node16</title>
<path fill="none" stroke="midnightblue" d="M276.79,-474.41C288.3,-445.48 322.57,-360.5 332,-351 333.4,-349.59 334.91,-348.28 336.52,-347.06"/>
<polygon fill="midnightblue" stroke="midnightblue" points="338.49,-349.96 345.08,-341.67 334.76,-344.03 338.49,-349.96"/>
</g>
<!-- Node10&#45;&gt;Node11 -->
<g id="edge13" class="edge">
<title>Node10&#45;&gt;Node11</title>
<path fill="none" stroke="midnightblue" d="M524.57,-162C540.81,-162 563.04,-162 580.61,-162"/>
<polygon fill="midnightblue" stroke="midnightblue" points="580.85,-165.5 590.85,-162 580.85,-158.5 580.85,-165.5"/>
</g>
<!-- Node10&#45;&gt;Node12 -->
<g id="edge14" class="edge">
<title>Node10&#45;&gt;Node12</title>
<path fill="none" stroke="midnightblue" d="M478.33,-167.31C459.16,-168.94 431.17,-169.19 409.3,-168.05"/>
<polygon fill="midnightblue" stroke="midnightblue" points="409.33,-164.55 399.13,-167.39 408.88,-171.53 409.33,-164.55"/>
</g>
<!-- Node12&#45;&gt;Node10 -->
<g id="edge15" class="edge">
<title>Node12&#45;&gt;Node10</title>
<path fill="none" stroke="midnightblue" d="M399.13,-156.61C418.58,-155.03 446.62,-154.83 468.28,-156"/>
<polygon fill="midnightblue" stroke="midnightblue" points="468.12,-159.5 478.33,-156.69 468.6,-152.52 468.12,-159.5"/>
</g>
<!-- Node17 -->
<g id="node17" class="node">
<title>Node17</title>
<g id="a_node17"><a xlink:href="group__grp__numerics.html#ga02a336a22890e7ae5a5c2d525260666c" target="_top" xlink:title="Assign Fourier mode labels.">
<polygon fill="white" stroke="black" points="479,-341.5 479,-360.5 524,-360.5 524,-341.5 479,-341.5"/>
<text text-anchor="middle" x="501.5" y="-348.5" font-family="Helvetica,sans-Serif" font-size="10.00">gi00ab</text>
</a>
</g>
</g>
<!-- Node16&#45;&gt;Node17 -->
<g id="edge21" class="edge">
<title>Node16&#45;&gt;Node17</title>
<path fill="none" stroke="midnightblue" d="M416.77,-338.22C433.59,-340.79 452.8,-343.72 468.58,-346.13"/>
<polygon fill="midnightblue" stroke="midnightblue" points="468.46,-349.65 478.88,-347.7 469.52,-342.73 468.46,-349.65"/>
</g>
<!-- Node18 -->
<g id="node18" class="node">
<title>Node18</title>
<g id="a_node18"><a xlink:href="namespacenumerical.html#ac9cf42743694682672a82103c8ffedda" target="_top" xlink:title="Duplicates NAG routine X02AJF (machine precision)">
<polygon fill="white" stroke="black" points="454,-303.5 454,-322.5 549,-322.5 549,-303.5 454,-303.5"/>
<text text-anchor="middle" x="501.5" y="-310.5" font-family="Helvetica,sans-Serif" font-size="10.00">numerical::myprec</text>
</a>
</g>
</g>
<!-- Node16&#45;&gt;Node18 -->
<g id="edge22" class="edge">
<title>Node16&#45;&gt;Node18</title>
<path fill="none" stroke="midnightblue" d="M416.77,-325.78C425.32,-324.47 434.49,-323.07 443.51,-321.7"/>
<polygon fill="midnightblue" stroke="midnightblue" points="444.24,-325.13 453.59,-320.16 443.18,-318.21 444.24,-325.13"/>
</g>
<!-- Node19&#45;&gt;Node10 -->
<g id="edge26" class="edge">
<title>Node19&#45;&gt;Node10</title>
<path fill="none" stroke="midnightblue" d="M294.81,-93.29C335.22,-106.79 421.86,-135.73 468.77,-151.4"/>
<polygon fill="midnightblue" stroke="midnightblue" points="467.82,-154.77 478.42,-154.62 470.04,-148.13 467.82,-154.77"/>
</g>
<!-- Node19&#45;&gt;Node11 -->
<g id="edge27" class="edge">
<title>Node19&#45;&gt;Node11</title>
<path fill="none" stroke="midnightblue" d="M294.81,-87.33C323.36,-89.35 374.84,-93.96 418,-103 477.58,-115.48 490.87,-124.92 549,-143 559.56,-146.29 571.16,-149.94 581.31,-153.17"/>
<polygon fill="midnightblue" stroke="midnightblue" points="580.31,-156.52 590.9,-156.21 582.43,-149.85 580.31,-156.52"/>
</g>
<!-- Node20 -->
<g id="node20" class="node">
<title>Node20</title>
<g id="a_node20"><a xlink:href="group__grp__diagnostics.html#ga20985df1b0df0503ca03ca13f1daf642" target="_top" xlink:title="Compute the magnetic field.">
<polygon fill="white" stroke="black" points="355.5,-38.5 355.5,-57.5 394.5,-57.5 394.5,-38.5 355.5,-38.5"/>
<text text-anchor="middle" x="375" y="-45.5" font-family="Helvetica,sans-Serif" font-size="10.00">bfield</text>
</a>
</g>
</g>
<!-- Node19&#45;&gt;Node20 -->
<g id="edge25" class="edge">
<title>Node19&#45;&gt;Node20</title>
<path fill="none" stroke="midnightblue" d="M294.92,-77.75C309.81,-72.15 329.65,-64.69 345.73,-58.64"/>
<polygon fill="midnightblue" stroke="midnightblue" points="347.06,-61.88 355.18,-55.08 344.59,-55.33 347.06,-61.88"/>
</g>
<!-- Node22 -->
<g id="node22" class="node">
<title>Node22</title>
<g id="a_node22"><a xlink:href="group__grp__force__driver.html#gabbc245b3884ee8d8d3e2a52f25149f78" target="_top" xlink:title="fcn1">
<polygon fill="white" stroke="black" points="254.5,-284.5 254.5,-303.5 289.5,-303.5 289.5,-284.5 254.5,-284.5"/>
<text text-anchor="middle" x="272" y="-291.5" font-family="Helvetica,sans-Serif" font-size="10.00">fcn1</text>
</a>
</g>
</g>
<!-- Node21&#45;&gt;Node22 -->
<g id="edge29" class="edge">
<title>Node21&#45;&gt;Node22</title>
<path fill="none" stroke="midnightblue" d="M212.28,-254.19C225.41,-260.78 241.54,-270.19 253.57,-278.37"/>
<polygon fill="midnightblue" stroke="midnightblue" points="251.69,-281.33 261.86,-284.32 255.77,-275.64 251.69,-281.33"/>
</g>
<!-- Node24 -->
<g id="node24" class="node">
<title>Node24</title>
<g id="a_node24"><a xlink:href="group__grp__force__driver.html#ga8ccd6c7d901872702521d0a0edf95412" target="_top" xlink:title="fcn2">
<polygon fill="white" stroke="black" points="254.5,-190.5 254.5,-209.5 289.5,-209.5 289.5,-190.5 254.5,-190.5"/>
<text text-anchor="middle" x="272" y="-197.5" font-family="Helvetica,sans-Serif" font-size="10.00">fcn2</text>
</a>
</g>
</g>
<!-- Node21&#45;&gt;Node24 -->
<g id="edge33" class="edge">
<title>Node21&#45;&gt;Node24</title>
<path fill="none" stroke="midnightblue" d="M198.09,-237.36C209.28,-228.75 228.76,-216.95 244.78,-208.69"/>
<polygon fill="midnightblue" stroke="midnightblue" points="246.76,-211.61 254.19,-204.06 243.67,-205.33 246.76,-211.61"/>
</g>
<!-- Node25 -->
<g id="node25" class="node">
<title>Node25</title>
<g id="a_node25"><a xlink:href="group__grp__force__driver.html#ga382822b303cbf8c56d6f54dcb379caf2" target="_top" xlink:title="read or write force&#45;derivative matrix">
<polygon fill="white" stroke="black" points="342.5,-237.5 342.5,-256.5 407.5,-256.5 407.5,-237.5 342.5,-237.5"/>
<text text-anchor="middle" x="375" y="-244.5" font-family="Helvetica,sans-Serif" font-size="10.00">writereadgf</text>
</a>
</g>
</g>
<!-- Node21&#45;&gt;Node25 -->
<g id="edge41" class="edge">
<title>Node21&#45;&gt;Node25</title>
<path fill="none" stroke="midnightblue" d="M212.06,-242.36C242.07,-239.99 295.07,-239.62 332.24,-241.25"/>
<polygon fill="midnightblue" stroke="midnightblue" points="332.11,-244.75 342.27,-241.76 332.47,-237.76 332.11,-244.75"/>
</g>
<!-- Node22&#45;&gt;Node8 -->
<g id="edge31" class="edge">
<title>Node22&#45;&gt;Node8</title>
<path fill="none" stroke="midnightblue" d="M289.68,-294C303.97,-294 324.95,-294 342.4,-294"/>
<polygon fill="midnightblue" stroke="midnightblue" points="342.73,-297.5 352.73,-294 342.73,-290.5 342.73,-297.5"/>
</g>
<!-- Node22&#45;&gt;Node21 -->
<g id="edge30" class="edge">
<title>Node22&#45;&gt;Node21</title>
<path fill="none" stroke="midnightblue" d="M254.19,-289.94C240.26,-283.5 220.52,-272.21 206.42,-262.63"/>
<polygon fill="midnightblue" stroke="midnightblue" points="208.25,-259.63 198.09,-256.64 204.17,-265.32 208.25,-259.63"/>
</g>
<!-- Node22&#45;&gt;Node23 -->
<g id="edge32" class="edge">
<title>Node22&#45;&gt;Node23</title>
<path fill="none" stroke="midnightblue" d="M280.34,-284.35C290.88,-270.83 311.34,-245.93 332,-228 337.13,-223.55 342.99,-219.23 348.69,-215.37"/>
<polygon fill="midnightblue" stroke="midnightblue" points="350.88,-218.12 357.35,-209.73 347.06,-212.25 350.88,-218.12"/>
</g>
<!-- Node24&#45;&gt;Node8 -->
<g id="edge35" class="edge">
<title>Node24&#45;&gt;Node8</title>
<path fill="none" stroke="midnightblue" d="M280.34,-209.65C290.88,-223.17 311.34,-248.07 332,-266 337.13,-270.45 342.99,-274.77 348.69,-278.63"/>
<polygon fill="midnightblue" stroke="midnightblue" points="347.06,-281.75 357.35,-284.27 350.88,-275.88 347.06,-281.75"/>
</g>
<!-- Node24&#45;&gt;Node12 -->
<g id="edge36" class="edge">
<title>Node24&#45;&gt;Node12</title>
<path fill="none" stroke="midnightblue" d="M289.68,-193.73C303.64,-188.47 323.97,-180.82 341.18,-174.35"/>
<polygon fill="midnightblue" stroke="midnightblue" points="342.75,-177.5 350.87,-170.7 340.28,-170.95 342.75,-177.5"/>
</g>
<!-- Node24&#45;&gt;Node21 -->
<g id="edge34" class="edge">
<title>Node24&#45;&gt;Node21</title>
<path fill="none" stroke="midnightblue" d="M261.86,-209.68C252.1,-217.18 236.08,-227.09 221.54,-234.97"/>
<polygon fill="midnightblue" stroke="midnightblue" points="219.52,-232.08 212.28,-239.81 222.76,-238.28 219.52,-232.08"/>
</g>
<!-- Node24&#45;&gt;Node23 -->
<g id="edge40" class="edge">
<title>Node24&#45;&gt;Node23</title>
<path fill="none" stroke="midnightblue" d="M289.68,-200C298.52,-200 309.92,-200 321.46,-200"/>
<polygon fill="midnightblue" stroke="midnightblue" points="321.58,-203.5 331.58,-200 321.58,-196.5 321.58,-203.5"/>
</g>
<!-- Node24&#45;&gt;Node25 -->
<g id="edge37" class="edge">
<title>Node24&#45;&gt;Node25</title>
<path fill="none" stroke="midnightblue" d="M289.68,-207.76C304.43,-214.62 326.3,-224.8 344.07,-233.07"/>
<polygon fill="midnightblue" stroke="midnightblue" points="342.91,-236.39 353.45,-237.44 345.86,-230.05 342.91,-236.39"/>
</g>
<!-- Node25&#45;&gt;Node14 -->
<g id="edge38" class="edge">
<title>Node25&#45;&gt;Node14</title>
<path fill="none" stroke="midnightblue" d="M395.6,-256.53C403.46,-261.18 412.05,-267.41 418,-275 421.41,-279.35 474.74,-429.99 493.8,-483.98"/>
<polygon fill="midnightblue" stroke="midnightblue" points="490.5,-485.15 497.13,-493.42 497.1,-482.83 490.5,-485.15"/>
</g>
<!-- Node25&#45;&gt;Node21 -->
<g id="edge39" class="edge">
<title>Node25&#45;&gt;Node21</title>
<path fill="none" stroke="midnightblue" d="M342.27,-252.24C308.86,-254.22 256.46,-254.25 222.42,-252.34"/>
<polygon fill="midnightblue" stroke="midnightblue" points="222.27,-248.82 212.06,-251.64 221.8,-255.8 222.27,-248.82"/>
</g>
<!-- Node27 -->
<g id="node27" class="node">
<title>Node27</title>
<g id="a_node27"><a xlink:href="group__grp__diagnostics.html#ga831aed2458140e266ee4d37461dd5350" target="_top" xlink:title="Constructs Poincaré plot and &quot;approximate&quot; rotational&#45;transform (for single field line).">
<polygon fill="white" stroke="black" points="248,-38.5 248,-57.5 296,-57.5 296,-38.5 248,-38.5"/>
<text text-anchor="middle" x="272" y="-45.5" font-family="Helvetica,sans-Serif" font-size="10.00">pp00ab</text>
</a>
</g>
</g>
<!-- Node26&#45;&gt;Node27 -->
<g id="edge44" class="edge">
<title>Node26&#45;&gt;Node27</title>
<path fill="none" stroke="midnightblue" d="M212.28,-48C220.22,-48 229.27,-48 237.84,-48"/>
<polygon fill="midnightblue" stroke="midnightblue" points="237.95,-51.5 247.95,-48 237.95,-44.5 237.95,-51.5"/>
</g>
<!-- Node27&#45;&gt;Node12 -->
<g id="edge47" class="edge">
<title>Node27&#45;&gt;Node12</title>
<path fill="none" stroke="midnightblue" d="M285.56,-57.64C289.06,-60.52 292.78,-63.77 296,-67 320.96,-92.03 346.27,-124.44 361.03,-144.2"/>
<polygon fill="midnightblue" stroke="midnightblue" points="358.27,-146.36 367.03,-152.32 363.9,-142.2 358.27,-146.36"/>
</g>
<!-- Node27&#45;&gt;Node20 -->
<g id="edge45" class="edge">
<title>Node27&#45;&gt;Node20</title>
<path fill="none" stroke="midnightblue" d="M296.17,-48C310.75,-48 329.67,-48 345.2,-48"/>
<polygon fill="midnightblue" stroke="midnightblue" points="345.32,-51.5 355.32,-48 345.32,-44.5 345.32,-51.5"/>
</g>
<!-- Node28 -->
<g id="node28" class="node">
<title>Node28</title>
<g id="a_node28"><a xlink:href="group__grp__diagnostics.html#ga08ad6b6635a598c0d0578e42f46b63c5" target="_top" xlink:title="Calculates coordinates, , and metrics, at given .">
<polygon fill="white" stroke="black" points="353.5,-0.5 353.5,-19.5 396.5,-19.5 396.5,-0.5 353.5,-0.5"/>
<text text-anchor="middle" x="375" y="-7.5" font-family="Helvetica,sans-Serif" font-size="10.00">stzxyz</text>
</a>
</g>
</g>
<!-- Node27&#45;&gt;Node28 -->
<g id="edge46" class="edge">
<title>Node27&#45;&gt;Node28</title>
<path fill="none" stroke="midnightblue" d="M296.17,-39.28C310.31,-33.96 328.55,-27.1 343.81,-21.36"/>
<polygon fill="midnightblue" stroke="midnightblue" points="345.21,-24.57 353.34,-17.77 342.74,-18.02 345.21,-24.57"/>
</g>
</g>
</svg>
