<?xml version="1.0" encoding="UTF-8" standalone="no"?>
<!DOCTYPE svg PUBLIC "-//W3C//DTD SVG 1.1//EN"
 "http://www.w3.org/Graphics/SVG/1.1/DTD/svg11.dtd">
<!-- Generated by graphviz version 2.44.1 (0)
 -->
<!-- Title: ending Pages: 1 -->
<svg width="692pt" height="616pt"
 viewBox="0.00 0.00 692.00 616.00" xmlns="http://www.w3.org/2000/svg" xmlns:xlink="http://www.w3.org/1999/xlink">
<g id="graph0" class="graph" transform="scale(1 1) rotate(0) translate(4 612)">
<title>ending</title>
<polygon fill="white" stroke="transparent" points="-4,4 -4,-612 688,-612 688,4 -4,4"/>
<!-- Node1 -->
<g id="node1" class="node">
<title>Node1</title>
<g id="a_node1"><a xlink:title="todo remark">
<polygon fill="#bfbfbf" stroke="black" points="0,-322.5 0,-341.5 50,-341.5 50,-322.5 0,-322.5"/>
<text text-anchor="middle" x="25" y="-329.5" font-family="Helvetica,sans-Serif" font-size="10.00">ending</text>
</a>
</g>
</g>
<!-- Node2 -->
<g id="node2" class="node">
<title>Node2</title>
<g id="a_node2"><a xlink:href="xspech_8f90.html#aea782eae089760a491c2c54f9903abcc" target="_top" xlink:title="Main program of SPEC.">
<polygon fill="white" stroke="black" points="86,-322.5 86,-341.5 137,-341.5 137,-322.5 86,-322.5"/>
<text text-anchor="middle" x="111.5" y="-329.5" font-family="Helvetica,sans-Serif" font-size="10.00">xspech</text>
</a>
</g>
</g>
<!-- Node1&#45;&gt;Node2 -->
<g id="edge1" class="edge">
<title>Node1&#45;&gt;Node2</title>
<path fill="none" stroke="midnightblue" d="M50.44,-325.81C58.34,-325.28 67.26,-325.13 75.76,-325.35"/>
<polygon fill="midnightblue" stroke="midnightblue" points="75.67,-328.85 85.82,-325.8 75.99,-321.85 75.67,-328.85"/>
</g>
<!-- Node2&#45;&gt;Node1 -->
<g id="edge7" class="edge">
<title>Node2&#45;&gt;Node1</title>
<path fill="none" stroke="midnightblue" d="M85.82,-338.2C77.9,-338.73 68.98,-338.87 60.49,-338.65"/>
<polygon fill="midnightblue" stroke="midnightblue" points="60.59,-335.15 50.44,-338.19 60.27,-342.14 60.59,-335.15"/>
</g>
<!-- Node3 -->
<g id="node3" class="node">
<title>Node3</title>
<g id="a_node3"><a xlink:href="group__grp__free-boundary.html#gac0a2cc2241947b27241bb8ef75c5e0ed" target="_top" xlink:title="Computes &#160;on the computational boundary, .">
<polygon fill="white" stroke="black" points="374.5,-588.5 374.5,-607.5 425.5,-607.5 425.5,-588.5 374.5,-588.5"/>
<text text-anchor="middle" x="400" y="-595.5" font-family="Helvetica,sans-Serif" font-size="10.00">bnorml</text>
</a>
</g>
</g>
<!-- Node2&#45;&gt;Node3 -->
<g id="edge2" class="edge">
<title>Node2&#45;&gt;Node3</title>
<path fill="none" stroke="midnightblue" d="M112.7,-341.77C113.85,-372.57 121.59,-468.63 173,-521 224.94,-573.91 314.63,-590.48 363.96,-595.65"/>
<polygon fill="midnightblue" stroke="midnightblue" points="363.85,-599.16 374.14,-596.62 364.52,-592.19 363.85,-599.16"/>
</g>
<!-- Node7 -->
<g id="node7" class="node">
<title>Node7</title>
<g id="a_node7"><a xlink:href="group__grp__diagnostics.html#ga7401b50ec10c6598ee4a8112717a63ec" target="_top" xlink:title="Computes eigenvalues and eigenvectors of derivative matrix, .">
<polygon fill="white" stroke="black" points="175,-474.5 175,-493.5 224,-493.5 224,-474.5 175,-474.5"/>
<text text-anchor="middle" x="199.5" y="-481.5" font-family="Helvetica,sans-Serif" font-size="10.00">hesian</text>
</a>
</g>
</g>
<!-- Node2&#45;&gt;Node7 -->
<g id="edge8" class="edge">
<title>Node2&#45;&gt;Node7</title>
<path fill="none" stroke="midnightblue" d="M115.65,-341.65C123.22,-363.92 143.95,-420.04 173,-460 174.78,-462.44 176.82,-464.84 178.97,-467.12"/>
<polygon fill="midnightblue" stroke="midnightblue" points="176.78,-469.87 186.4,-474.31 181.64,-464.84 176.78,-469.87"/>
</g>
<!-- Node8 -->
<g id="node8" class="node">
<title>Node8</title>
<g id="a_node8"><a xlink:href="group__grp__packing.html#ga094e630c02686dd178749eb1efbf13fb" target="_top" xlink:title="Packs, and unpacks, geometrical degrees of freedom; and sets coordinate axis.">
<polygon fill="white" stroke="black" points="375.5,-284.5 375.5,-303.5 424.5,-303.5 424.5,-284.5 375.5,-284.5"/>
<text text-anchor="middle" x="400" y="-291.5" font-family="Helvetica,sans-Serif" font-size="10.00">packxi</text>
</a>
</g>
</g>
<!-- Node2&#45;&gt;Node8 -->
<g id="edge42" class="edge">
<title>Node2&#45;&gt;Node8</title>
<path fill="none" stroke="midnightblue" d="M137.25,-330.71C175.54,-328.48 251.36,-323.14 315,-313 331.68,-310.34 349.99,-306.33 365.24,-302.68"/>
<polygon fill="midnightblue" stroke="midnightblue" points="366.38,-306.01 375.26,-300.23 364.72,-299.21 366.38,-306.01"/>
</g>
<!-- Node9 -->
<g id="node9" class="node">
<title>Node9</title>
<g id="a_node9"><a xlink:href="group__grp__initialization.html#ga28628de0fdb3b3497668007d8d0643bd" target="_top" xlink:title="Allocates and initializes internal arrays.">
<polygon fill="white" stroke="black" points="265,-474.5 265,-493.5 312,-493.5 312,-474.5 265,-474.5"/>
<text text-anchor="middle" x="288.5" y="-481.5" font-family="Helvetica,sans-Serif" font-size="10.00">preset</text>
</a>
</g>
</g>
<!-- Node2&#45;&gt;Node9 -->
<g id="edge48" class="edge">
<title>Node2&#45;&gt;Node9</title>
<path fill="none" stroke="midnightblue" d="M112.41,-341.58C112.72,-371.61 118.23,-464.28 173,-503 199.15,-521.48 236.95,-509.7 261.87,-498.1"/>
<polygon fill="midnightblue" stroke="midnightblue" points="263.63,-501.13 271.05,-493.57 260.53,-494.86 263.63,-501.13"/>
</g>
<!-- Node12 -->
<g id="node12" class="node">
<title>Node12</title>
<g id="a_node12"><a xlink:href="group__grp__volume.html#gae4c62d20b8fef07f4471b5b0889ab005" target="_top" xlink:title="Computes volume of each region; and, if required, the derivatives of the volume with respect to the i...">
<polygon fill="white" stroke="black" points="373.5,-152.5 373.5,-171.5 426.5,-171.5 426.5,-152.5 373.5,-152.5"/>
<text text-anchor="middle" x="400" y="-159.5" font-family="Helvetica,sans-Serif" font-size="10.00">volume</text>
</a>
</g>
</g>
<!-- Node2&#45;&gt;Node12 -->
<g id="edge51" class="edge">
<title>Node2&#45;&gt;Node12</title>
<path fill="none" stroke="midnightblue" d="M113.36,-322.29C116.26,-295.77 128.19,-221.8 173,-187 228.19,-144.14 315.11,-148.6 363.49,-155.43"/>
<polygon fill="midnightblue" stroke="midnightblue" points="363.08,-158.91 373.49,-156.96 364.13,-151.99 363.08,-158.91"/>
</g>
<!-- Node15 -->
<g id="node15" class="node">
<title>Node15</title>
<g id="a_node15"><a xlink:href="group__grp__output.html#ga08d6a254dbc3d9d40ff1cf0bdfdf2148" target="_top" xlink:title="Writes vector potential to .ext.sp.A .">
<polygon fill="white" stroke="black" points="375,-360.5 375,-379.5 425,-379.5 425,-360.5 375,-360.5"/>
<text text-anchor="middle" x="400" y="-367.5" font-family="Helvetica,sans-Serif" font-size="10.00">ra00aa</text>
</a>
</g>
</g>
<!-- Node2&#45;&gt;Node15 -->
<g id="edge49" class="edge">
<title>Node2&#45;&gt;Node15</title>
<path fill="none" stroke="midnightblue" d="M127.22,-341.53C139.06,-348.63 156.41,-357.8 173,-362 239.24,-378.76 319.88,-376.43 364.71,-373.22"/>
<polygon fill="midnightblue" stroke="midnightblue" points="365.08,-376.7 374.78,-372.44 364.54,-369.72 365.08,-376.7"/>
</g>
<!-- Node16 -->
<g id="node16" class="node">
<title>Node16</title>
<g id="a_node16"><a xlink:href="namespaceallglobal.html#ad32ae6194892fe7d876622a6455189e2" target="_top" xlink:title="The master node reads the input namelist and sets various internal variables. The relevant quantities...">
<polygon fill="white" stroke="black" points="352.5,-322.5 352.5,-341.5 447.5,-341.5 447.5,-322.5 352.5,-322.5"/>
<text text-anchor="middle" x="400" y="-329.5" font-family="Helvetica,sans-Serif" font-size="10.00">allglobal::readin</text>
</a>
</g>
</g>
<!-- Node2&#45;&gt;Node16 -->
<g id="edge50" class="edge">
<title>Node2&#45;&gt;Node16</title>
<path fill="none" stroke="midnightblue" d="M137,-339.01C147.92,-341.78 161,-344.63 173,-346 235.7,-353.16 252.1,-351.21 315,-346 323.78,-345.27 333.02,-344.13 342.03,-342.8"/>
<polygon fill="midnightblue" stroke="midnightblue" points="342.74,-346.23 352.08,-341.23 341.66,-339.31 342.74,-346.23"/>
</g>
<!-- Node19 -->
<g id="node19" class="node">
<title>Node19</title>
<g id="a_node19"><a xlink:href="group__grp__diagnostics.html#ga6411205c36a7d50002d7f3fb3133c441" target="_top" xlink:title="Measures error in Beltrami equation, .">
<polygon fill="white" stroke="black" points="263.5,-76.5 263.5,-95.5 313.5,-95.5 313.5,-76.5 263.5,-76.5"/>
<text text-anchor="middle" x="288.5" y="-83.5" font-family="Helvetica,sans-Serif" font-size="10.00">jo00aa</text>
</a>
</g>
</g>
<!-- Node2&#45;&gt;Node19 -->
<g id="edge24" class="edge">
<title>Node2&#45;&gt;Node19</title>
<path fill="none" stroke="midnightblue" d="M113.78,-322.38C119.13,-283.72 140.87,-140.27 173,-110 194.21,-90.01 227.62,-84.89 252.89,-84.25"/>
<polygon fill="midnightblue" stroke="midnightblue" points="253.17,-87.75 263.16,-84.22 253.15,-80.75 253.17,-87.75"/>
</g>
<!-- Node21 -->
<g id="node21" class="node">
<title>Node21</title>
<g id="a_node21"><a xlink:href="group__grp__force__driver.html#gaec14f81fbdbedafbc4189489ec8ae178" target="_top" xlink:title="Employs Newton method to find , where &#160;and &#160;is defined in dforce() .">
<polygon fill="white" stroke="black" points="173,-237.5 173,-256.5 226,-256.5 226,-237.5 173,-237.5"/>
<text text-anchor="middle" x="199.5" y="-244.5" font-family="Helvetica,sans-Serif" font-size="10.00">newton</text>
</a>
</g>
</g>
<!-- Node2&#45;&gt;Node21 -->
<g id="edge28" class="edge">
<title>Node2&#45;&gt;Node21</title>
<path fill="none" stroke="midnightblue" d="M122.37,-322.25C136.75,-308.03 163.69,-281.4 181.36,-263.94"/>
<polygon fill="midnightblue" stroke="midnightblue" points="184.1,-266.16 188.75,-256.64 179.18,-261.18 184.1,-266.16"/>
</g>
<!-- Node23 -->
<g id="node23" class="node">
<title>Node23</title>
<g id="a_node23"><a xlink:href="namespaceallglobal.html#a282c297c96abdab5e76b5ace440b09a8" target="_top" xlink:title="The restart file is written.">
<polygon fill="white" stroke="black" points="351,-190.5 351,-209.5 449,-209.5 449,-190.5 351,-190.5"/>
<text text-anchor="middle" x="400" y="-197.5" font-family="Helvetica,sans-Serif" font-size="10.00">allglobal::wrtend</text>
</a>
</g>
</g>
<!-- Node2&#45;&gt;Node23 -->
<g id="edge52" class="edge">
<title>Node2&#45;&gt;Node23</title>
<path fill="none" stroke="midnightblue" d="M116.04,-322.21C123.69,-302.25 143.46,-256.35 173,-228 205.27,-197.02 218.58,-191.76 262,-181 295.73,-172.64 335.11,-179.81 362.97,-187.61"/>
<polygon fill="midnightblue" stroke="midnightblue" points="362.1,-191.01 372.68,-190.49 364.09,-184.29 362.1,-191.01"/>
</g>
<!-- Node26 -->
<g id="node26" class="node">
<title>Node26</title>
<g id="a_node26"><a xlink:href="group__grp__diagnostics.html#gad67931244268a09bd077dae8910c7096" target="_top" xlink:title="Constructs Poincaré plot and &quot;approximate&quot; rotational&#45;transform (driver).">
<polygon fill="white" stroke="black" points="173,-38.5 173,-57.5 226,-57.5 226,-38.5 173,-38.5"/>
<text text-anchor="middle" x="199.5" y="-45.5" font-family="Helvetica,sans-Serif" font-size="10.00">pp00aa</text>
</a>
</g>
</g>
<!-- Node2&#45;&gt;Node26 -->
<g id="edge43" class="edge">
<title>Node2&#45;&gt;Node26</title>
<path fill="none" stroke="midnightblue" d="M112.77,-322.3C114.17,-286.54 122.61,-159.57 173,-72 174.48,-69.43 176.32,-66.97 178.33,-64.67"/>
<polygon fill="midnightblue" stroke="midnightblue" points="180.89,-67.06 185.54,-57.54 175.97,-62.08 180.89,-67.06"/>
</g>
<!-- Node4 -->
<g id="node4" class="node">
<title>Node4</title>
<g id="a_node4"><a xlink:href="group__grp__free-boundary.html#ga180576a10002ebf3840fce98d56316bb" target="_top" xlink:title="Constructs the field created by the plasma currents, at an arbitrary, external location using virtual...">
<polygon fill="white" stroke="black" points="515,-588.5 515,-607.5 563,-607.5 563,-588.5 515,-588.5"/>
<text text-anchor="middle" x="539" y="-595.5" font-family="Helvetica,sans-Serif" font-size="10.00">casing</text>
</a>
</g>
</g>
<!-- Node3&#45;&gt;Node4 -->
<g id="edge3" class="edge">
<title>Node3&#45;&gt;Node4</title>
<path fill="none" stroke="midnightblue" d="M425.81,-598C447.84,-598 480.22,-598 504.54,-598"/>
<polygon fill="midnightblue" stroke="midnightblue" points="504.75,-601.5 514.75,-598 504.75,-594.5 504.75,-601.5"/>
</g>
<!-- Node6 -->
<g id="node6" class="node">
<title>Node6</title>
<g id="a_node6"><a xlink:href="group__grp__numerics.html#ga041138109a57e651c57117bb4180409e" target="_top" xlink:title="Forward Fourier transform (fftw wrapper)">
<polygon fill="white" stroke="black" points="523.5,-550.5 523.5,-569.5 554.5,-569.5 554.5,-550.5 523.5,-550.5"/>
<text text-anchor="middle" x="539" y="-557.5" font-family="Helvetica,sans-Serif" font-size="10.00">tfft</text>
</a>
</g>
</g>
<!-- Node3&#45;&gt;Node6 -->
<g id="edge6" class="edge">
<title>Node3&#45;&gt;Node6</title>
<path fill="none" stroke="midnightblue" d="M425.81,-591.12C450.77,-584.19 489.02,-573.58 513.78,-566.72"/>
<polygon fill="midnightblue" stroke="midnightblue" points="514.78,-570.07 523.48,-564.03 512.91,-563.33 514.78,-570.07"/>
</g>
<!-- Node5 -->
<g id="node5" class="node">
<title>Node5</title>
<g id="a_node5"><a xlink:href="group__grp__free-boundary.html#ga281c12a5de84fddd3db4383b0df8627f" target="_top" xlink:title="Differential virtual casing integrand.">
<polygon fill="white" stroke="black" points="629,-588.5 629,-607.5 684,-607.5 684,-588.5 629,-588.5"/>
<text text-anchor="middle" x="656.5" y="-595.5" font-family="Helvetica,sans-Serif" font-size="10.00">dvcfield</text>
</a>
</g>
</g>
<!-- Node4&#45;&gt;Node5 -->
<g id="edge4" class="edge">
<title>Node4&#45;&gt;Node5</title>
<path fill="none" stroke="midnightblue" d="M563.1,-592.47C579.02,-591.18 600.52,-590.91 618.77,-591.66"/>
<polygon fill="midnightblue" stroke="midnightblue" points="618.63,-595.16 628.8,-592.21 619.01,-588.17 618.63,-595.16"/>
</g>
<!-- Node5&#45;&gt;Node4 -->
<g id="edge5" class="edge">
<title>Node5&#45;&gt;Node4</title>
<path fill="none" stroke="midnightblue" d="M628.8,-603.79C612.34,-604.92 591.08,-605.05 573.5,-604.19"/>
<polygon fill="midnightblue" stroke="midnightblue" points="573.3,-600.67 563.1,-603.53 572.85,-607.66 573.3,-600.67"/>
</g>
<!-- Node7&#45;&gt;Node8 -->
<g id="edge9" class="edge">
<title>Node7&#45;&gt;Node8</title>
<path fill="none" stroke="midnightblue" d="M208.17,-474.13C233.71,-441.45 316.23,-337.46 351,-313 355.58,-309.78 360.79,-307 366.04,-304.63"/>
<polygon fill="midnightblue" stroke="midnightblue" points="367.47,-307.83 375.42,-300.82 364.83,-301.34 367.47,-307.83"/>
</g>
<!-- Node7&#45;&gt;Node9 -->
<g id="edge10" class="edge">
<title>Node7&#45;&gt;Node9</title>
<path fill="none" stroke="midnightblue" d="M224.27,-484C233.68,-484 244.65,-484 254.79,-484"/>
<polygon fill="midnightblue" stroke="midnightblue" points="254.95,-487.5 264.95,-484 254.95,-480.5 254.95,-487.5"/>
</g>
<!-- Node9&#45;&gt;Node3 -->
<g id="edge11" class="edge">
<title>Node9&#45;&gt;Node3</title>
<path fill="none" stroke="midnightblue" d="M293.98,-493.58C302.72,-511.43 323.62,-550.11 351,-574 355.21,-577.68 360.09,-580.95 365.08,-583.8"/>
<polygon fill="midnightblue" stroke="midnightblue" points="363.6,-586.97 374.08,-588.49 366.83,-580.76 363.6,-586.97"/>
</g>
<!-- Node9&#45;&gt;Node6 -->
<g id="edge23" class="edge">
<title>Node9&#45;&gt;Node6</title>
<path fill="none" stroke="midnightblue" d="M303.55,-493.64C315.64,-501.51 333.8,-512.39 351,-519 406.96,-540.49 476.88,-552.05 513.32,-557"/>
<polygon fill="midnightblue" stroke="midnightblue" points="513.13,-560.51 523.5,-558.33 514.04,-553.57 513.13,-560.51"/>
</g>
<!-- Node10 -->
<g id="node10" class="node">
<title>Node10</title>
<g id="a_node10"><a xlink:href="group__grp__geometry.html#gaaca20aa60eaf39055f3c9d5c02a24ac2" target="_top" xlink:title="Calculates coordinates, , and metrics, using FFTs.">
<polygon fill="white" stroke="black" points="514.5,-152.5 514.5,-171.5 563.5,-171.5 563.5,-152.5 514.5,-152.5"/>
<text text-anchor="middle" x="539" y="-159.5" font-family="Helvetica,sans-Serif" font-size="10.00">coords</text>
</a>
</g>
</g>
<!-- Node9&#45;&gt;Node10 -->
<g id="edge12" class="edge">
<title>Node9&#45;&gt;Node10</title>
<path fill="none" stroke="midnightblue" d="M300.21,-474.29C314.83,-461.15 340.44,-438.59 351,-432 391.36,-406.83 416.24,-423.48 449,-389 480.1,-356.26 468.59,-336.06 485,-294 500.78,-253.56 519.88,-206.42 530.3,-180.85"/>
<polygon fill="midnightblue" stroke="midnightblue" points="533.54,-182.16 534.08,-171.58 527.06,-179.52 533.54,-182.16"/>
</g>
<!-- Node11 -->
<g id="node11" class="node">
<title>Node11</title>
<g id="a_node11"><a xlink:href="group__grp__numerics.html#ga1fd52accb0646f535f9bcc46cf5a68f3" target="_top" xlink:title="Inverse Fourier transform (fftw wrapper)">
<polygon fill="white" stroke="black" points="635.5,-152.5 635.5,-171.5 677.5,-171.5 677.5,-152.5 635.5,-152.5"/>
<text text-anchor="middle" x="656.5" y="-159.5" font-family="Helvetica,sans-Serif" font-size="10.00">invfft</text>
</a>
</g>
</g>
<!-- Node9&#45;&gt;Node11 -->
<g id="edge17" class="edge">
<title>Node9&#45;&gt;Node11</title>
<path fill="none" stroke="midnightblue" d="M312.46,-476.68C379.69,-455.07 572.73,-391.69 593,-370 643.49,-315.98 653.3,-222.67 655.13,-181.96"/>
<polygon fill="midnightblue" stroke="midnightblue" points="658.63,-181.85 655.46,-171.74 651.64,-181.62 658.63,-181.85"/>
</g>
<!-- Node13 -->
<g id="node13" class="node">
<title>Node13</title>
<g id="a_node13"><a xlink:href="group__grp__numerics.html#ga425e8f1cbf214a3231ab6c874d8fe4be" target="_top" xlink:title="Gauss&#45;Legendre weights and abscissae.">
<polygon fill="white" stroke="black" points="375,-474.5 375,-493.5 425,-493.5 425,-474.5 375,-474.5"/>
<text text-anchor="middle" x="400" y="-481.5" font-family="Helvetica,sans-Serif" font-size="10.00">gauleg</text>
</a>
</g>
</g>
<!-- Node9&#45;&gt;Node13 -->
<g id="edge16" class="edge">
<title>Node9&#45;&gt;Node13</title>
<path fill="none" stroke="midnightblue" d="M312.19,-484C327.34,-484 347.54,-484 364.64,-484"/>
<polygon fill="midnightblue" stroke="midnightblue" points="364.82,-487.5 374.82,-484 364.82,-480.5 364.82,-487.5"/>
</g>
<!-- Node14 -->
<g id="node14" class="node">
<title>Node14</title>
<g id="a_node14"><a xlink:href="group__grp__build__matrices.html#ga1c52bb6dbffdb432550aae12b096080f" target="_top" xlink:title="Constructs energy and helicity matrices that represent the Beltrami linear system....">
<polygon fill="white" stroke="black" points="514.5,-493.5 514.5,-512.5 563.5,-512.5 563.5,-493.5 514.5,-493.5"/>
<text text-anchor="middle" x="539" y="-500.5" font-family="Helvetica,sans-Serif" font-size="10.00">matrix</text>
</a>
</g>
</g>
<!-- Node9&#45;&gt;Node14 -->
<g id="edge18" class="edge">
<title>Node9&#45;&gt;Node14</title>
<path fill="none" stroke="midnightblue" d="M312.19,-492.79C323.64,-496.77 337.85,-501.02 351,-503 403.88,-510.98 466.14,-508.69 503.81,-506.04"/>
<polygon fill="midnightblue" stroke="midnightblue" points="504.51,-509.5 514.21,-505.26 503.98,-502.52 504.51,-509.5"/>
</g>
<!-- Node9&#45;&gt;Node15 -->
<g id="edge19" class="edge">
<title>Node9&#45;&gt;Node15</title>
<path fill="none" stroke="midnightblue" d="M301.19,-474.42C305.82,-470.28 310.99,-465.2 315,-460 335.42,-433.55 326.96,-417.2 351,-394 355.3,-389.86 360.45,-386.28 365.76,-383.25"/>
<polygon fill="midnightblue" stroke="midnightblue" points="367.41,-386.34 374.72,-378.67 364.22,-380.11 367.41,-386.34"/>
</g>
<!-- Node9&#45;&gt;Node16 -->
<g id="edge20" class="edge">
<title>Node9&#45;&gt;Node16</title>
<path fill="none" stroke="midnightblue" d="M293.46,-474.38C305.46,-445.39 341.2,-360.26 351,-351 352.64,-349.45 354.42,-348.02 356.3,-346.7"/>
<polygon fill="midnightblue" stroke="midnightblue" points="358.16,-349.67 365.04,-341.62 354.64,-343.62 358.16,-349.67"/>
</g>
<!-- Node10&#45;&gt;Node11 -->
<g id="edge13" class="edge">
<title>Node10&#45;&gt;Node11</title>
<path fill="none" stroke="midnightblue" d="M563.65,-162C581.47,-162 606.04,-162 625.28,-162"/>
<polygon fill="midnightblue" stroke="midnightblue" points="625.35,-165.5 635.35,-162 625.35,-158.5 625.35,-165.5"/>
</g>
<!-- Node10&#45;&gt;Node12 -->
<g id="edge14" class="edge">
<title>Node10&#45;&gt;Node12</title>
<path fill="none" stroke="midnightblue" d="M514.18,-167.26C492.9,-168.95 461.42,-169.2 437.06,-168.03"/>
<polygon fill="midnightblue" stroke="midnightblue" points="436.96,-164.51 426.77,-167.41 436.54,-171.5 436.96,-164.51"/>
</g>
<!-- Node12&#45;&gt;Node10 -->
<g id="edge15" class="edge">
<title>Node12&#45;&gt;Node10</title>
<path fill="none" stroke="midnightblue" d="M426.77,-156.59C448.64,-154.99 480.2,-154.82 504.12,-156.08"/>
<polygon fill="midnightblue" stroke="midnightblue" points="503.97,-159.58 514.18,-156.74 504.43,-152.6 503.97,-159.58"/>
</g>
<!-- Node17 -->
<g id="node17" class="node">
<title>Node17</title>
<g id="a_node17"><a xlink:href="group__grp__numerics.html#ga02a336a22890e7ae5a5c2d525260666c" target="_top" xlink:title="Assign Fourier mode labels.">
<polygon fill="white" stroke="black" points="514,-341.5 514,-360.5 564,-360.5 564,-341.5 514,-341.5"/>
<text text-anchor="middle" x="539" y="-348.5" font-family="Helvetica,sans-Serif" font-size="10.00">gi00ab</text>
</a>
</g>
</g>
<!-- Node16&#45;&gt;Node17 -->
<g id="edge21" class="edge">
<title>Node16&#45;&gt;Node17</title>
<path fill="none" stroke="midnightblue" d="M447.76,-338.49C466.12,-341.03 486.81,-343.9 503.73,-346.25"/>
<polygon fill="midnightblue" stroke="midnightblue" points="503.35,-349.73 513.74,-347.63 504.31,-342.79 503.35,-349.73"/>
</g>
<!-- Node18 -->
<g id="node18" class="node">
<title>Node18</title>
<g id="a_node18"><a xlink:href="namespacenumerical.html#ac9cf42743694682672a82103c8ffedda" target="_top" xlink:title="Duplicates NAG routine X02AJF (machine precision)">
<polygon fill="white" stroke="black" points="485,-303.5 485,-322.5 593,-322.5 593,-303.5 485,-303.5"/>
<text text-anchor="middle" x="539" y="-310.5" font-family="Helvetica,sans-Serif" font-size="10.00">numerical::myprec</text>
</a>
</g>
</g>
<!-- Node16&#45;&gt;Node18 -->
<g id="edge22" class="edge">
<title>Node16&#45;&gt;Node18</title>
<path fill="none" stroke="midnightblue" d="M447.76,-325.51C456.44,-324.31 465.63,-323.04 474.7,-321.78"/>
<polygon fill="midnightblue" stroke="midnightblue" points="475.43,-325.21 484.85,-320.37 474.47,-318.28 475.43,-325.21"/>
</g>
<!-- Node19&#45;&gt;Node10 -->
<g id="edge26" class="edge">
<title>Node19&#45;&gt;Node10</title>
<path fill="none" stroke="midnightblue" d="M313.78,-93.43C358.45,-107.09 453.74,-136.23 504.52,-151.76"/>
<polygon fill="midnightblue" stroke="midnightblue" points="503.76,-155.19 514.35,-154.77 505.81,-148.5 503.76,-155.19"/>
</g>
<!-- Node19&#45;&gt;Node11 -->
<g id="edge27" class="edge">
<title>Node19&#45;&gt;Node11</title>
<path fill="none" stroke="midnightblue" d="M313.73,-87.34C345.15,-89.35 401.54,-93.94 449,-103 514.25,-115.45 529.22,-124.45 593,-143 603.62,-146.09 615.21,-149.58 625.5,-152.72"/>
<polygon fill="midnightblue" stroke="midnightblue" points="624.68,-156.13 635.27,-155.71 626.74,-149.44 624.68,-156.13"/>
</g>
<!-- Node20 -->
<g id="node20" class="node">
<title>Node20</title>
<g id="a_node20"><a xlink:href="group__grp__diagnostics.html#ga20985df1b0df0503ca03ca13f1daf642" target="_top" xlink:title="Compute the magnetic field.">
<polygon fill="white" stroke="black" points="378,-38.5 378,-57.5 422,-57.5 422,-38.5 378,-38.5"/>
<text text-anchor="middle" x="400" y="-45.5" font-family="Helvetica,sans-Serif" font-size="10.00">bfield</text>
</a>
</g>
</g>
<!-- Node19&#45;&gt;Node20 -->
<g id="edge25" class="edge">
<title>Node19&#45;&gt;Node20</title>
<path fill="none" stroke="midnightblue" d="M313.53,-77.66C329.63,-72.07 350.98,-64.66 368.31,-58.65"/>
<polygon fill="midnightblue" stroke="midnightblue" points="369.68,-61.88 377.98,-55.29 367.39,-55.27 369.68,-61.88"/>
</g>
<!-- Node22 -->
<g id="node22" class="node">
<title>Node22</title>
<g id="a_node22"><a xlink:href="group__grp__force__driver.html#gabbc245b3884ee8d8d3e2a52f25149f78" target="_top" xlink:title="fcn1">
<polygon fill="white" stroke="black" points="269.5,-284.5 269.5,-303.5 307.5,-303.5 307.5,-284.5 269.5,-284.5"/>
<text text-anchor="middle" x="288.5" y="-291.5" font-family="Helvetica,sans-Serif" font-size="10.00">fcn1</text>
</a>
</g>
</g>
<!-- Node21&#45;&gt;Node22 -->
<g id="edge29" class="edge">
<title>Node21&#45;&gt;Node22</title>
<path fill="none" stroke="midnightblue" d="M226.13,-254.63C240.03,-261.26 256.88,-270.57 269.4,-278.62"/>
<polygon fill="midnightblue" stroke="midnightblue" points="267.77,-281.75 278.01,-284.47 271.71,-275.96 267.77,-281.75"/>
</g>
<!-- Node24 -->
<g id="node24" class="node">
<title>Node24</title>
<g id="a_node24"><a xlink:href="group__grp__force__driver.html#ga8ccd6c7d901872702521d0a0edf95412" target="_top" xlink:title="fcn2">
<polygon fill="white" stroke="black" points="269.5,-190.5 269.5,-209.5 307.5,-209.5 307.5,-190.5 269.5,-190.5"/>
<text text-anchor="middle" x="288.5" y="-197.5" font-family="Helvetica,sans-Serif" font-size="10.00">fcn2</text>
</a>
</g>
</g>
<!-- Node21&#45;&gt;Node24 -->
<g id="edge33" class="edge">
<title>Node21&#45;&gt;Node24</title>
<path fill="none" stroke="midnightblue" d="M210.14,-237.36C222.05,-228.73 242.82,-216.87 259.84,-208.61"/>
<polygon fill="midnightblue" stroke="midnightblue" points="261.73,-211.59 269.33,-204.21 258.79,-205.24 261.73,-211.59"/>
</g>
<!-- Node25 -->
<g id="node25" class="node">
<title>Node25</title>
<g id="a_node25"><a xlink:href="group__grp__force__driver.html#ga382822b303cbf8c56d6f54dcb379caf2" target="_top" xlink:title="read or write force&#45;derivative matrix">
<polygon fill="white" stroke="black" points="363.5,-237.5 363.5,-256.5 436.5,-256.5 436.5,-237.5 363.5,-237.5"/>
<text text-anchor="middle" x="400" y="-244.5" font-family="Helvetica,sans-Serif" font-size="10.00">writereadgf</text>
</a>
</g>
</g>
<!-- Node21&#45;&gt;Node25 -->
<g id="edge41" class="edge">
<title>Node21&#45;&gt;Node25</title>
<path fill="none" stroke="midnightblue" d="M226.04,-242.3C258.05,-240 313.49,-239.64 352.97,-241.2"/>
<polygon fill="midnightblue" stroke="midnightblue" points="353,-244.7 363.15,-241.66 353.32,-237.71 353,-244.7"/>
</g>
<!-- Node22&#45;&gt;Node8 -->
<g id="edge31" class="edge">
<title>Node22&#45;&gt;Node8</title>
<path fill="none" stroke="midnightblue" d="M307.58,-294C323.16,-294 346.08,-294 365.06,-294"/>
<polygon fill="midnightblue" stroke="midnightblue" points="365.14,-297.5 375.14,-294 365.14,-290.5 365.14,-297.5"/>
</g>
<!-- Node22&#45;&gt;Node21 -->
<g id="edge30" class="edge">
<title>Node22&#45;&gt;Node21</title>
<path fill="none" stroke="midnightblue" d="M269.33,-289.79C254.41,-283.26 233.38,-271.89 218.5,-262.32"/>
<polygon fill="midnightblue" stroke="midnightblue" points="220.38,-259.36 210.14,-256.64 216.45,-265.15 220.38,-259.36"/>
</g>
<!-- Node22&#45;&gt;Node23 -->
<g id="edge32" class="edge">
<title>Node22&#45;&gt;Node23</title>
<path fill="none" stroke="midnightblue" d="M297.08,-284.2C308,-270.52 329.22,-245.41 351,-228 357.01,-223.2 363.93,-218.67 370.62,-214.71"/>
<polygon fill="midnightblue" stroke="midnightblue" points="372.5,-217.67 379.48,-209.69 369.05,-211.57 372.5,-217.67"/>
</g>
<!-- Node24&#45;&gt;Node8 -->
<g id="edge35" class="edge">
<title>Node24&#45;&gt;Node8</title>
<path fill="none" stroke="midnightblue" d="M297.08,-209.8C308,-223.48 329.22,-248.59 351,-266 357.01,-270.8 363.93,-275.33 370.62,-279.29"/>
<polygon fill="midnightblue" stroke="midnightblue" points="369.05,-282.43 379.48,-284.31 372.5,-276.33 369.05,-282.43"/>
</g>
<!-- Node24&#45;&gt;Node12 -->
<g id="edge36" class="edge">
<title>Node24&#45;&gt;Node12</title>
<path fill="none" stroke="midnightblue" d="M307.58,-193.73C322.72,-188.47 344.78,-180.82 363.44,-174.34"/>
<polygon fill="midnightblue" stroke="midnightblue" points="364.81,-177.57 373.11,-170.99 362.51,-170.96 364.81,-177.57"/>
</g>
<!-- Node24&#45;&gt;Node21 -->
<g id="edge34" class="edge">
<title>Node24&#45;&gt;Node21</title>
<path fill="none" stroke="midnightblue" d="M278.01,-209.53C267.78,-216.97 250.88,-226.84 235.46,-234.74"/>
<polygon fill="midnightblue" stroke="midnightblue" points="233.54,-231.79 226.13,-239.37 236.65,-238.06 233.54,-231.79"/>
</g>
<!-- Node24&#45;&gt;Node23 -->
<g id="edge40" class="edge">
<title>Node24&#45;&gt;Node23</title>
<path fill="none" stroke="midnightblue" d="M307.58,-200C316.79,-200 328.55,-200 340.56,-200"/>
<polygon fill="midnightblue" stroke="midnightblue" points="340.65,-203.5 350.65,-200 340.65,-196.5 340.65,-203.5"/>
</g>
<!-- Node24&#45;&gt;Node25 -->
<g id="edge37" class="edge">
<title>Node24&#45;&gt;Node25</title>
<path fill="none" stroke="midnightblue" d="M307.58,-207.76C323.79,-214.72 347.95,-225.09 367.36,-233.42"/>
<polygon fill="midnightblue" stroke="midnightblue" points="366.16,-236.71 376.73,-237.44 368.92,-230.28 366.16,-236.71"/>
</g>
<!-- Node25&#45;&gt;Node14 -->
<g id="edge38" class="edge">
<title>Node25&#45;&gt;Node14</title>
<path fill="none" stroke="midnightblue" d="M424.32,-256.53C433.03,-261.05 442.39,-267.19 449,-275 478.17,-309.46 468.64,-327.92 485,-370 500.83,-410.72 519.91,-458.23 530.31,-484"/>
<polygon fill="midnightblue" stroke="midnightblue" points="527.09,-485.38 534.09,-493.34 533.58,-482.76 527.09,-485.38"/>
</g>
<!-- Node25&#45;&gt;Node21 -->
<g id="edge39" class="edge">
<title>Node25&#45;&gt;Node21</title>
<path fill="none" stroke="midnightblue" d="M363.15,-252.34C327.14,-254.23 271.99,-254.22 236.08,-252.32"/>
<polygon fill="midnightblue" stroke="midnightblue" points="236.24,-248.82 226.04,-251.7 235.81,-255.81 236.24,-248.82"/>
</g>
<!-- Node27 -->
<g id="node27" class="node">
<title>Node27</title>
<g id="a_node27"><a xlink:href="group__grp__diagnostics.html#ga831aed2458140e266ee4d37461dd5350" target="_top" xlink:title="Constructs Poincaré plot and &quot;approximate&quot; rotational&#45;transform (for single field line).">
<polygon fill="white" stroke="black" points="262,-38.5 262,-57.5 315,-57.5 315,-38.5 262,-38.5"/>
<text text-anchor="middle" x="288.5" y="-45.5" font-family="Helvetica,sans-Serif" font-size="10.00">pp00ab</text>
</a>
</g>
</g>
<!-- Node26&#45;&gt;Node27 -->
<g id="edge44" class="edge">
<title>Node26&#45;&gt;Node27</title>
<path fill="none" stroke="midnightblue" d="M226.13,-48C234.11,-48 243.07,-48 251.62,-48"/>
<polygon fill="midnightblue" stroke="midnightblue" points="251.75,-51.5 261.75,-48 251.75,-44.5 251.75,-51.5"/>
</g>
<!-- Node27&#45;&gt;Node12 -->
<g id="edge47" class="edge">
<title>Node27&#45;&gt;Node12</title>
<path fill="none" stroke="midnightblue" d="M303.41,-57.56C307.29,-60.44 311.42,-63.71 315,-67 341.96,-91.8 369.36,-124.49 385.24,-144.34"/>
<polygon fill="midnightblue" stroke="midnightblue" points="382.54,-146.57 391.49,-152.24 388.03,-142.23 382.54,-146.57"/>
</g>
<!-- Node27&#45;&gt;Node20 -->
<g id="edge45" class="edge">
<title>Node27&#45;&gt;Node20</title>
<path fill="none" stroke="midnightblue" d="M315.17,-48C330.83,-48 350.96,-48 367.57,-48"/>
<polygon fill="midnightblue" stroke="midnightblue" points="367.9,-51.5 377.9,-48 367.9,-44.5 367.9,-51.5"/>
</g>
<!-- Node28 -->
<g id="node28" class="node">
<title>Node28</title>
<g id="a_node28"><a xlink:href="group__grp__diagnostics.html#ga08ad6b6635a598c0d0578e42f46b63c5" target="_top" xlink:title="Calculates coordinates, , and metrics, at given .">
<polygon fill="white" stroke="black" points="376,-0.5 376,-19.5 424,-19.5 424,-0.5 376,-0.5"/>
<text text-anchor="middle" x="400" y="-7.5" font-family="Helvetica,sans-Serif" font-size="10.00">stzxyz</text>
</a>
</g>
</g>
<!-- Node27&#45;&gt;Node28 -->
<g id="edge46" class="edge">
<title>Node27&#45;&gt;Node28</title>
<path fill="none" stroke="midnightblue" d="M315.17,-39.09C330.35,-33.82 349.74,-27.1 366.04,-21.44"/>
<polygon fill="midnightblue" stroke="midnightblue" points="367.43,-24.66 375.73,-18.08 365.13,-18.05 367.43,-24.66"/>
</g>
</g>
</svg>
