<?xml version="1.0" encoding="UTF-8" standalone="no"?>
<!DOCTYPE svg PUBLIC "-//W3C//DTD SVG 1.1//EN"
 "http://www.w3.org/Graphics/SVG/1.1/DTD/svg11.dtd">
<!-- Generated by graphviz version 2.47.1 (20210421.1823)
 -->
<!-- Title: ending Pages: 1 -->
<svg width="136pt" height="28pt"
 viewBox="0.00 0.00 136.00 28.00" xmlns="http://www.w3.org/2000/svg" xmlns:xlink="http://www.w3.org/1999/xlink">
<g id="graph0" class="graph" transform="scale(1 1) rotate(0) translate(4 24)">
<title>ending</title>
<polygon fill="white" stroke="transparent" points="-4,4 -4,-24 132,-24 132,4 -4,4"/>
<!-- Node1 -->
<g id="node1" class="node">
<title>Node1</title>
<g id="a_node1"><a xlink:title="todo remark">
<polygon fill="#bfbfbf" stroke="black" points="83,-0.5 83,-19.5 128,-19.5 128,-0.5 83,-0.5"/>
<text text-anchor="middle" x="105.5" y="-7.5" font-family="Helvetica,sans-Serif" font-size="10.00">ending</text>
</a>
</g>
</g>
<!-- Node2 -->
<g id="node2" class="node">
<title>Node2</title>
<g id="a_node2"><a xlink:href="xspech_8f90.html#aea782eae089760a491c2c54f9903abcc" target="_top" xlink:title="Main program of SPEC.">
<polygon fill="white" stroke="black" points="0,-0.5 0,-19.5 47,-19.5 47,-0.5 0,-0.5"/>
<text text-anchor="middle" x="23.5" y="-7.5" font-family="Helvetica,sans-Serif" font-size="10.00">xspech</text>
</a>
</g>
</g>
<!-- Node1&#45;&gt;Node2 -->
<g id="edge1" class="edge">
<title>Node1&#45;&gt;Node2</title>
<path fill="none" stroke="midnightblue" d="M72.62,-3.38C64.1,-3.11 55.08,-3.27 47.17,-3.85"/>
<polygon fill="midnightblue" stroke="midnightblue" points="72.47,-6.87 82.64,-3.91 72.84,0.12 72.47,-6.87"/>
</g>
<!-- Node2&#45;&gt;Node1 -->
<g id="edge2" class="edge">
<title>Node2&#45;&gt;Node1</title>
<path fill="none" stroke="midnightblue" d="M57.26,-16.65C65.81,-16.89 74.81,-16.7 82.64,-16.09"/>
<polygon fill="midnightblue" stroke="midnightblue" points="57.33,-13.15 47.17,-16.15 56.99,-20.14 57.33,-13.15"/>
</g>
</g>
</svg>
