<?xml version="1.0" encoding="UTF-8" standalone="no"?>
<!DOCTYPE svg PUBLIC "-//W3C//DTD SVG 1.1//EN"
 "http://www.w3.org/Graphics/SVG/1.1/DTD/svg11.dtd">
<!-- Generated by graphviz version 2.44.1 (0)
 -->
<!-- Title: xspech Pages: 1 -->
<svg width="145pt" height="28pt"
 viewBox="0.00 0.00 145.00 28.00" xmlns="http://www.w3.org/2000/svg" xmlns:xlink="http://www.w3.org/1999/xlink">
<g id="graph0" class="graph" transform="scale(1 1) rotate(0) translate(4 24)">
<title>xspech</title>
<polygon fill="white" stroke="transparent" points="-4,4 -4,-24 141,-24 141,4 -4,4"/>
<!-- Node1 -->
<g id="node1" class="node">
<title>Node1</title>
<g id="a_node1"><a xlink:title="Main program of SPEC.">
<polygon fill="#bfbfbf" stroke="black" points="86,-0.5 86,-19.5 137,-19.5 137,-0.5 86,-0.5"/>
<text text-anchor="middle" x="111.5" y="-7.5" font-family="Helvetica,sans-Serif" font-size="10.00">xspech</text>
</a>
</g>
</g>
<!-- Node2 -->
<g id="node2" class="node">
<title>Node2</title>
<g id="a_node2"><a xlink:href="xspech_8f90.xhtml#a537af4990058c0b0f2cd8b3669af204f" target="_top" xlink:title="todo remark">
<polygon fill="white" stroke="black" points="0,-0.5 0,-19.5 50,-19.5 50,-0.5 0,-0.5"/>
<text text-anchor="middle" x="25" y="-7.5" font-family="Helvetica,sans-Serif" font-size="10.00">ending</text>
</a>
</g>
</g>
<!-- Node1&#45;&gt;Node2 -->
<g id="edge1" class="edge">
<title>Node1&#45;&gt;Node2</title>
<path fill="none" stroke="midnightblue" d="M75.5,-3.34C66.97,-3.13 58.03,-3.29 50.14,-3.83"/>
<polygon fill="midnightblue" stroke="midnightblue" points="75.46,-6.84 85.6,-3.78 75.77,0.15 75.46,-6.84"/>
</g>
<!-- Node2&#45;&gt;Node1 -->
<g id="edge2" class="edge">
<title>Node2&#45;&gt;Node1</title>
<path fill="none" stroke="midnightblue" d="M60.19,-16.64C68.69,-16.88 77.64,-16.73 85.6,-16.22"/>
<polygon fill="midnightblue" stroke="midnightblue" points="60.29,-13.14 50.14,-16.17 59.96,-20.13 60.29,-13.14"/>
</g>
</g>
</svg>
