<?xml version="1.0" encoding="UTF-8" standalone="no"?>
<!DOCTYPE svg PUBLIC "-//W3C//DTD SVG 1.1//EN"
 "http://www.w3.org/Graphics/SVG/1.1/DTD/svg11.dtd">
<!-- Generated by graphviz version 2.44.1 (0)
 -->
<!-- Title: Input namelists and global variables Pages: 1 -->
<svg width="259pt" height="249pt"
 viewBox="0.00 0.00 259.00 249.00" xmlns="http://www.w3.org/2000/svg" xmlns:xlink="http://www.w3.org/1999/xlink">
<g id="graph0" class="graph" transform="scale(1 1) rotate(0) translate(4 245)">
<title>Input namelists and global variables</title>
<polygon fill="white" stroke="transparent" points="-4,4 -4,-245 255,-245 255,4 -4,4"/>
<!-- Node7 -->
<g id="node1" class="node">
<title>Node7</title>
<g id="a_node1"><a xlink:href="group__grp__global__screenlist.xhtml" target="_top" xlink:title="The namelist screenlist controls screen output. Every subroutine, e.g. xy00aa.h, has its own write fl...">
<polygon fill="white" stroke="black" points="232,-241 168,-241 168,-222 232,-222 232,-241"/>
<text text-anchor="middle" x="200" y="-229" font-family="Helvetica,sans-Serif" font-size="10.00">screenlist</text>
</a>
</g>
</g>
<!-- Node3 -->
<g id="node2" class="node">
<title>Node3</title>
<g id="a_node2"><a xlink:href="group__grp__global__numerics.xhtml" target="_top" xlink:title="The namelist numericlist controls internal resolution parameters that the user rarely needs to consid...">
<polygon fill="white" stroke="black" points="235.5,-204 164.5,-204 164.5,-185 235.5,-185 235.5,-204"/>
<text text-anchor="middle" x="200" y="-192" font-family="Helvetica,sans-Serif" font-size="10.00">numericlist</text>
</a>
</g>
</g>
<!-- Node4 -->
<g id="node3" class="node">
<title>Node4</title>
<g id="a_node3"><a xlink:href="group__grp__global__local.xhtml" target="_top" xlink:title="The namelist locallist controls the construction of the Beltrami fields in each volume.">
<polygon fill="white" stroke="black" points="227.5,-167 172.5,-167 172.5,-148 227.5,-148 227.5,-167"/>
<text text-anchor="middle" x="200" y="-155" font-family="Helvetica,sans-Serif" font-size="10.00">locallist</text>
</a>
</g>
</g>
<!-- Node2 -->
<g id="node4" class="node">
<title>Node2</title>
<g id="a_node4"><a xlink:href="group__grp__global__physicslist.xhtml" target="_top" xlink:title="The namelist physicslist controls the geometry, profiles, and numerical resolution.">
<polygon fill="white" stroke="black" points="234,-130 166,-130 166,-111 234,-111 234,-130"/>
<text text-anchor="middle" x="200" y="-118" font-family="Helvetica,sans-Serif" font-size="10.00">physicslist</text>
</a>
</g>
</g>
<!-- Node5 -->
<g id="node5" class="node">
<title>Node5</title>
<g id="a_node5"><a xlink:href="group__grp__global__global.xhtml" target="_top" xlink:title="The namelist globallist controls the search for global force&#45;balance.">
<polygon fill="white" stroke="black" points="231,-93 169,-93 169,-74 231,-74 231,-93"/>
<text text-anchor="middle" x="200" y="-81" font-family="Helvetica,sans-Serif" font-size="10.00">globallist</text>
</a>
</g>
</g>
<!-- Node8 -->
<g id="node6" class="node">
<title>Node8</title>
<g id="a_node6"><a xlink:href="group__grp__internal__vars.xhtml" target="_top" xlink:title=" ">
<polygon fill="white" stroke="black" points="251,-56 149,-56 149,-37 251,-37 251,-56"/>
<text text-anchor="middle" x="200" y="-44" font-family="Helvetica,sans-Serif" font-size="10.00">Internal Variables</text>
</a>
</g>
</g>
<!-- Node1 -->
<g id="node7" class="node">
<title>Node1</title>
<g id="a_node7"><a xlink:title="\definecolor{Orange}{rgb}{1.0,0.5,0.0} &#160;\definecolor{Cerulean}{rgb}{0.0,0.5,1.0}">
<polygon fill="#bfbfbf" stroke="black" points="113,-135.5 0,-135.5 0,-105.5 113,-105.5 113,-135.5"/>
<text text-anchor="start" x="8" y="-123.5" font-family="Helvetica,sans-Serif" font-size="10.00">Input namelists and</text>
<text text-anchor="middle" x="56.5" y="-112.5" font-family="Helvetica,sans-Serif" font-size="10.00"> global variables</text>
</a>
</g>
</g>
<!-- Node1&#45;&gt;Node7 -->
<g id="edge6" class="edge">
<title>Node1&#45;&gt;Node7</title>
<path fill="none" stroke="black" d="M75.29,-143.79C92.24,-164.59 119.49,-194.61 149,-213.5 154.75,-217.18 161.35,-220.24 167.84,-222.72"/>
<polygon fill="black" stroke="black" points="77.86,-141.41 68.89,-135.77 72.39,-145.77 77.86,-141.41"/>
</g>
<!-- Node1&#45;&gt;Node3 -->
<g id="edge2" class="edge">
<title>Node1&#45;&gt;Node3</title>
<path fill="none" stroke="black" d="M87.94,-141.29C105.34,-152.62 127.84,-166.35 149,-176.5 155.4,-179.57 162.48,-182.43 169.24,-184.91"/>
<polygon fill="black" stroke="black" points="89.62,-138.21 79.35,-135.62 85.77,-144.05 89.62,-138.21"/>
</g>
<!-- Node1&#45;&gt;Node4 -->
<g id="edge3" class="edge">
<title>Node1&#45;&gt;Node4</title>
<path fill="none" stroke="black" d="M122.7,-137.55C140.27,-142.14 158.29,-146.86 172.41,-150.55"/>
<polygon fill="black" stroke="black" points="123.58,-134.16 113.02,-135.02 121.81,-140.93 123.58,-134.16"/>
</g>
<!-- Node1&#45;&gt;Node2 -->
<g id="edge1" class="edge">
<title>Node1&#45;&gt;Node2</title>
<path fill="none" stroke="black" d="M123.15,-120.5C137.89,-120.5 152.93,-120.5 165.69,-120.5"/>
<polygon fill="black" stroke="black" points="123.02,-117 113.02,-120.5 123.02,-124 123.02,-117"/>
</g>
<!-- Node1&#45;&gt;Node5 -->
<g id="edge4" class="edge">
<title>Node1&#45;&gt;Node5</title>
<path fill="none" stroke="black" d="M122.95,-103.39C139.02,-99.18 155.45,-94.89 168.91,-91.37"/>
<polygon fill="black" stroke="black" points="121.81,-100.07 113.02,-105.98 123.58,-106.84 121.81,-100.07"/>
</g>
<!-- Node1&#45;&gt;Node8 -->
<g id="edge7" class="edge">
<title>Node1&#45;&gt;Node8</title>
<path fill="none" stroke="black" d="M88.77,-99.81C106.1,-88.83 128.27,-75.57 149,-65.5 156.02,-62.09 163.81,-58.87 171.12,-56.09"/>
<polygon fill="black" stroke="black" points="86.71,-96.97 80.18,-105.31 90.49,-102.86 86.71,-96.97"/>
</g>
<!-- Node6 -->
<g id="node8" class="node">
<title>Node6</title>
<g id="a_node8"><a xlink:href="group__grp__global__diagnostics.xhtml" target="_top" xlink:title="The namelist diagnosticslist controls post&#45;processor diagnostics, such as Poincaré plot resolution,...">
<polygon fill="white" stroke="black" points="243.5,-19 156.5,-19 156.5,0 243.5,0 243.5,-19"/>
<text text-anchor="middle" x="200" y="-7" font-family="Helvetica,sans-Serif" font-size="10.00">diagnosticslist</text>
</a>
</g>
</g>
<!-- Node1&#45;&gt;Node6 -->
<g id="edge5" class="edge">
<title>Node1&#45;&gt;Node6</title>
<path fill="none" stroke="black" d="M75.42,-97.59C92.46,-77.1 119.77,-47.47 149,-28.5 154.69,-24.81 161.2,-21.68 167.6,-19.09"/>
<polygon fill="black" stroke="black" points="72.58,-95.52 68.98,-105.49 78.01,-99.95 72.58,-95.52"/>
</g>
</g>
</svg>
