<?xml version="1.0" encoding="UTF-8" standalone="no"?>
<!DOCTYPE svg PUBLIC "-//W3C//DTD SVG 1.1//EN"
 "http://www.w3.org/Graphics/SVG/1.1/DTD/svg11.dtd">
<!-- Generated by graphviz version 2.44.1 (0)
 -->
<!-- Title: Fourier representation Pages: 1 -->
<svg width="453pt" height="98pt"
 viewBox="0.00 0.00 453.00 97.50" xmlns="http://www.w3.org/2000/svg" xmlns:xlink="http://www.w3.org/1999/xlink">
<g id="graph0" class="graph" transform="scale(1 1) rotate(0) translate(4 93.5)">
<title>Fourier representation</title>
<polygon fill="white" stroke="transparent" points="-4,4 -4,-93.5 449,-93.5 449,4 -4,4"/>
<!-- Node3 -->
<g id="node1" class="node">
<title>Node3</title>
<g id="a_node1"><a xlink:href="group__grp__enh__res__metr.xhtml" target="_top" xlink:title="Enhanced resolution is required for the metric elements, , which is given by mne, ime,...">
<polygon fill="white" stroke="black" points="430,-89.5 314,-89.5 314,-59.5 430,-59.5 430,-89.5"/>
<text text-anchor="start" x="322" y="-77.5" font-family="Helvetica,sans-Serif" font-size="10.00">Enhanced resolution</text>
<text text-anchor="middle" x="372" y="-66.5" font-family="Helvetica,sans-Serif" font-size="10.00"> for metric elements</text>
</a>
</g>
</g>
<!-- Node4 -->
<g id="node2" class="node">
<title>Node4</title>
<g id="a_node2"><a xlink:href="group__grp__enh__res__sfl.xhtml" target="_top" xlink:title="Enhanced resolution is required for the transformation to straight&#45;field line angle on the interfaces...">
<polygon fill="white" stroke="black" points="445,-41 299,-41 299,0 445,0 445,-41"/>
<text text-anchor="start" x="307" y="-29" font-family="Helvetica,sans-Serif" font-size="10.00">Enhanced resolution</text>
<text text-anchor="start" x="307" y="-18" font-family="Helvetica,sans-Serif" font-size="10.00"> for transformation</text>
<text text-anchor="middle" x="372" y="-7" font-family="Helvetica,sans-Serif" font-size="10.00"> to straight&#45;field line angle</text>
</a>
</g>
</g>
<!-- Node1 -->
<g id="node3" class="node">
<title>Node1</title>
<g id="a_node3"><a xlink:title=" ">
<polygon fill="#bfbfbf" stroke="black" points="263,-57 138,-57 138,-38 263,-38 263,-57"/>
<text text-anchor="middle" x="200.5" y="-45" font-family="Helvetica,sans-Serif" font-size="10.00">Fourier representation</text>
</a>
</g>
</g>
<!-- Node1&#45;&gt;Node3 -->
<g id="edge2" class="edge">
<title>Node1&#45;&gt;Node3</title>
<path fill="none" stroke="black" d="M271.4,-58.63C285.5,-60.88 300.17,-63.22 313.77,-65.38"/>
<polygon fill="black" stroke="black" points="271.69,-55.14 261.26,-57.02 270.58,-62.05 271.69,-55.14"/>
</g>
<!-- Node1&#45;&gt;Node4 -->
<g id="edge3" class="edge">
<title>Node1&#45;&gt;Node4</title>
<path fill="none" stroke="black" d="M271.41,-36.36C280.52,-34.91 289.86,-33.43 298.99,-31.97"/>
<polygon fill="black" stroke="black" points="270.58,-32.95 261.26,-37.98 271.69,-39.86 270.58,-32.95"/>
</g>
<!-- Node2 -->
<g id="node4" class="node">
<title>Node2</title>
<g id="a_node4"><a xlink:href="group__grp__internal__vars.xhtml" target="_top" xlink:title=" ">
<polygon fill="white" stroke="black" points="102,-57 0,-57 0,-38 102,-38 102,-57"/>
<text text-anchor="middle" x="51" y="-45" font-family="Helvetica,sans-Serif" font-size="10.00">Internal Variables</text>
</a>
</g>
</g>
<!-- Node2&#45;&gt;Node1 -->
<g id="edge1" class="edge">
<title>Node2&#45;&gt;Node1</title>
<path fill="none" stroke="black" d="M112.44,-47.5C120.84,-47.5 129.48,-47.5 137.89,-47.5"/>
<polygon fill="black" stroke="black" points="112.35,-44 102.35,-47.5 112.35,-51 112.35,-44"/>
</g>
</g>
</svg>
