<?xml version="1.0" encoding="UTF-8" standalone="no"?>
<!DOCTYPE svg PUBLIC "-//W3C//DTD SVG 1.1//EN"
 "http://www.w3.org/Graphics/SVG/1.1/DTD/svg11.dtd">
<!-- Generated by graphviz version 2.44.1 (0)
 -->
<!-- Title: Vector potential and the Beltrami linear system Pages: 1 -->
<svg width="261pt" height="49pt"
 viewBox="0.00 0.00 261.00 49.00" xmlns="http://www.w3.org/2000/svg" xmlns:xlink="http://www.w3.org/1999/xlink">
<g id="graph0" class="graph" transform="scale(1 1) rotate(0) translate(4 45)">
<title>Vector potential and the Beltrami linear system</title>
<polygon fill="white" stroke="transparent" points="-4,4 -4,-45 257,-45 257,4 -4,4"/>
<!-- Node2 -->
<g id="node1" class="node">
<title>Node2</title>
<g id="a_node1"><a xlink:href="group__grp__internal__vars.xhtml" target="_top" xlink:title=" ">
<polygon fill="white" stroke="black" points="102,-30 0,-30 0,-11 102,-11 102,-30"/>
<text text-anchor="middle" x="51" y="-18" font-family="Helvetica,sans-Serif" font-size="10.00">Internal Variables</text>
</a>
</g>
</g>
<!-- Node1 -->
<g id="node2" class="node">
<title>Node1</title>
<g id="a_node2"><a xlink:title=" ">
<polygon fill="#bfbfbf" stroke="black" points="253,-41 138,-41 138,0 253,0 253,-41"/>
<text text-anchor="start" x="146" y="-29" font-family="Helvetica,sans-Serif" font-size="10.00">Vector potential and</text>
<text text-anchor="start" x="146" y="-18" font-family="Helvetica,sans-Serif" font-size="10.00"> the Beltrami linear</text>
<text text-anchor="middle" x="195.5" y="-7" font-family="Helvetica,sans-Serif" font-size="10.00"> system</text>
</a>
</g>
</g>
<!-- Node2&#45;&gt;Node1 -->
<g id="edge1" class="edge">
<title>Node2&#45;&gt;Node1</title>
<path fill="none" stroke="black" d="M112.42,-20.5C120.87,-20.5 129.53,-20.5 137.91,-20.5"/>
<polygon fill="black" stroke="black" points="112.24,-17 102.24,-20.5 112.24,-24 112.24,-17"/>
</g>
</g>
</svg>
