<?xml version="1.0" encoding="UTF-8" standalone="no"?>
<!DOCTYPE svg PUBLIC "-//W3C//DTD SVG 1.1//EN"
 "http://www.w3.org/Graphics/SVG/1.1/DTD/svg11.dtd">
<!-- Generated by graphviz version 2.44.1 (0)
 -->
<!-- Title: pp00ab Pages: 1 -->
<svg width="313pt" height="104pt"
 viewBox="0.00 0.00 313.00 104.00" xmlns="http://www.w3.org/2000/svg" xmlns:xlink="http://www.w3.org/1999/xlink">
<g id="graph0" class="graph" transform="scale(1 1) rotate(0) translate(4 100)">
<title>pp00ab</title>
<polygon fill="white" stroke="transparent" points="-4,4 -4,-100 309,-100 309,4 -4,4"/>
<!-- Node1 -->
<g id="node1" class="node">
<title>Node1</title>
<g id="a_node1"><a xlink:title="Constructs Poincaré plot and &quot;approximate&quot; rotational&#45;transform (for single field line).">
<polygon fill="#bfbfbf" stroke="black" points="0,-38.5 0,-57.5 53,-57.5 53,-38.5 0,-38.5"/>
<text text-anchor="middle" x="26.5" y="-45.5" font-family="Helvetica,sans-Serif" font-size="10.00">pp00ab</text>
</a>
</g>
</g>
<!-- Node2 -->
<g id="node2" class="node">
<title>Node2</title>
<g id="a_node2"><a xlink:href="group__grp__diagnostics.xhtml#ga20985df1b0df0503ca03ca13f1daf642" target="_top" xlink:title="Compute the magnetic field.">
<polygon fill="white" stroke="black" points="93.5,-76.5 93.5,-95.5 137.5,-95.5 137.5,-76.5 93.5,-76.5"/>
<text text-anchor="middle" x="115.5" y="-83.5" font-family="Helvetica,sans-Serif" font-size="10.00">bfield</text>
</a>
</g>
</g>
<!-- Node1&#45;&gt;Node2 -->
<g id="edge1" class="edge">
<title>Node1&#45;&gt;Node2</title>
<path fill="none" stroke="midnightblue" d="M49.45,-57.59C59.99,-62.19 72.79,-67.78 84.24,-72.78"/>
<polygon fill="midnightblue" stroke="midnightblue" points="82.89,-76.01 93.45,-76.81 85.69,-69.6 82.89,-76.01"/>
</g>
<!-- Node3 -->
<g id="node3" class="node">
<title>Node3</title>
<g id="a_node3"><a xlink:href="group__grp__diagnostics.xhtml#ga08ad6b6635a598c0d0578e42f46b63c5" target="_top" xlink:title="Calculates coordinates, , and metrics, at given .">
<polygon fill="white" stroke="black" points="91.5,-38.5 91.5,-57.5 139.5,-57.5 139.5,-38.5 91.5,-38.5"/>
<text text-anchor="middle" x="115.5" y="-45.5" font-family="Helvetica,sans-Serif" font-size="10.00">stzxyz</text>
</a>
</g>
</g>
<!-- Node1&#45;&gt;Node3 -->
<g id="edge2" class="edge">
<title>Node1&#45;&gt;Node3</title>
<path fill="none" stroke="midnightblue" d="M53.13,-48C61.95,-48 71.94,-48 81.27,-48"/>
<polygon fill="midnightblue" stroke="midnightblue" points="81.42,-51.5 91.42,-48 81.42,-44.5 81.42,-51.5"/>
</g>
<!-- Node4 -->
<g id="node4" class="node">
<title>Node4</title>
<g id="a_node4"><a xlink:href="group__grp__volume.xhtml#gae4c62d20b8fef07f4471b5b0889ab005" target="_top" xlink:title="Computes volume of each region; and, if required, the derivatives of the volume with respect to the i...">
<polygon fill="white" stroke="black" points="89,-0.5 89,-19.5 142,-19.5 142,-0.5 89,-0.5"/>
<text text-anchor="middle" x="115.5" y="-7.5" font-family="Helvetica,sans-Serif" font-size="10.00">volume</text>
</a>
</g>
</g>
<!-- Node1&#45;&gt;Node4 -->
<g id="edge3" class="edge">
<title>Node1&#45;&gt;Node4</title>
<path fill="none" stroke="midnightblue" d="M49.45,-38.41C59.65,-33.96 71.97,-28.58 83.13,-23.7"/>
<polygon fill="midnightblue" stroke="midnightblue" points="84.79,-26.8 92.55,-19.59 81.99,-20.38 84.79,-26.8"/>
</g>
<!-- Node5 -->
<g id="node5" class="node">
<title>Node5</title>
<g id="a_node5"><a xlink:href="group__grp__geometry.xhtml#gaaca20aa60eaf39055f3c9d5c02a24ac2" target="_top" xlink:title="Calculates coordinates, , and metrics, using FFTs.">
<polygon fill="white" stroke="black" points="178,-0.5 178,-19.5 227,-19.5 227,-0.5 178,-0.5"/>
<text text-anchor="middle" x="202.5" y="-7.5" font-family="Helvetica,sans-Serif" font-size="10.00">coords</text>
</a>
</g>
</g>
<!-- Node4&#45;&gt;Node5 -->
<g id="edge4" class="edge">
<title>Node4&#45;&gt;Node5</title>
<path fill="none" stroke="midnightblue" d="M142,-3.75C150.07,-3.25 159.11,-3.12 167.67,-3.38"/>
<polygon fill="midnightblue" stroke="midnightblue" points="167.6,-6.88 177.76,-3.87 167.94,0.11 167.6,-6.88"/>
</g>
<!-- Node5&#45;&gt;Node4 -->
<g id="edge6" class="edge">
<title>Node5&#45;&gt;Node4</title>
<path fill="none" stroke="midnightblue" d="M177.76,-16.13C169.85,-16.69 160.85,-16.87 152.23,-16.67"/>
<polygon fill="midnightblue" stroke="midnightblue" points="152.14,-13.17 142,-16.25 151.85,-20.16 152.14,-13.17"/>
</g>
<!-- Node6 -->
<g id="node6" class="node">
<title>Node6</title>
<g id="a_node6"><a xlink:href="group__grp__numerics.xhtml#ga1fd52accb0646f535f9bcc46cf5a68f3" target="_top" xlink:title="Inverse Fourier transform (fftw wrapper)">
<polygon fill="white" stroke="black" points="263,-0.5 263,-19.5 305,-19.5 305,-0.5 263,-0.5"/>
<text text-anchor="middle" x="284" y="-7.5" font-family="Helvetica,sans-Serif" font-size="10.00">invfft</text>
</a>
</g>
</g>
<!-- Node5&#45;&gt;Node6 -->
<g id="edge5" class="edge">
<title>Node5&#45;&gt;Node6</title>
<path fill="none" stroke="midnightblue" d="M227.35,-10C235.33,-10 244.33,-10 252.72,-10"/>
<polygon fill="midnightblue" stroke="midnightblue" points="252.92,-13.5 262.92,-10 252.92,-6.5 252.92,-13.5"/>
</g>
</g>
</svg>
