<?xml version="1.0" encoding="UTF-8" standalone="no"?>
<!DOCTYPE svg PUBLIC "-//W3C//DTD SVG 1.1//EN"
 "http://www.w3.org/Graphics/SVG/1.1/DTD/svg11.dtd">
<!-- Generated by graphviz version 2.44.1 (0)
 -->
<!-- Title: volume Pages: 1 -->
<svg width="224pt" height="28pt"
 viewBox="0.00 0.00 224.00 28.00" xmlns="http://www.w3.org/2000/svg" xmlns:xlink="http://www.w3.org/1999/xlink">
<g id="graph0" class="graph" transform="scale(1 1) rotate(0) translate(4 24)">
<title>volume</title>
<polygon fill="white" stroke="transparent" points="-4,4 -4,-24 220,-24 220,4 -4,4"/>
<!-- Node1 -->
<g id="node1" class="node">
<title>Node1</title>
<g id="a_node1"><a xlink:title="Computes volume of each region; and, if required, the derivatives of the volume with respect to the i...">
<polygon fill="#bfbfbf" stroke="black" points="0,-0.5 0,-19.5 53,-19.5 53,-0.5 0,-0.5"/>
<text text-anchor="middle" x="26.5" y="-7.5" font-family="Helvetica,sans-Serif" font-size="10.00">volume</text>
</a>
</g>
</g>
<!-- Node2 -->
<g id="node2" class="node">
<title>Node2</title>
<g id="a_node2"><a xlink:href="group__grp__geometry.xhtml#gaaca20aa60eaf39055f3c9d5c02a24ac2" target="_top" xlink:title="Calculates coordinates, , and metrics, using FFTs.">
<polygon fill="white" stroke="black" points="89,-0.5 89,-19.5 138,-19.5 138,-0.5 89,-0.5"/>
<text text-anchor="middle" x="113.5" y="-7.5" font-family="Helvetica,sans-Serif" font-size="10.00">coords</text>
</a>
</g>
</g>
<!-- Node1&#45;&gt;Node2 -->
<g id="edge1" class="edge">
<title>Node1&#45;&gt;Node2</title>
<path fill="none" stroke="midnightblue" d="M53,-3.75C61.07,-3.25 70.11,-3.12 78.67,-3.38"/>
<polygon fill="midnightblue" stroke="midnightblue" points="78.6,-6.88 88.76,-3.87 78.94,0.11 78.6,-6.88"/>
</g>
<!-- Node2&#45;&gt;Node1 -->
<g id="edge3" class="edge">
<title>Node2&#45;&gt;Node1</title>
<path fill="none" stroke="midnightblue" d="M88.76,-16.13C80.85,-16.69 71.85,-16.87 63.23,-16.67"/>
<polygon fill="midnightblue" stroke="midnightblue" points="63.14,-13.17 53,-16.25 62.85,-20.16 63.14,-13.17"/>
</g>
<!-- Node3 -->
<g id="node3" class="node">
<title>Node3</title>
<g id="a_node3"><a xlink:href="group__grp__numerics.xhtml#ga1fd52accb0646f535f9bcc46cf5a68f3" target="_top" xlink:title="Inverse Fourier transform (fftw wrapper)">
<polygon fill="white" stroke="black" points="174,-0.5 174,-19.5 216,-19.5 216,-0.5 174,-0.5"/>
<text text-anchor="middle" x="195" y="-7.5" font-family="Helvetica,sans-Serif" font-size="10.00">invfft</text>
</a>
</g>
</g>
<!-- Node2&#45;&gt;Node3 -->
<g id="edge2" class="edge">
<title>Node2&#45;&gt;Node3</title>
<path fill="none" stroke="midnightblue" d="M138.35,-10C146.33,-10 155.33,-10 163.72,-10"/>
<polygon fill="midnightblue" stroke="midnightblue" points="163.92,-13.5 173.92,-10 163.92,-6.5 163.92,-13.5"/>
</g>
</g>
</svg>
