<?xml version="1.0" encoding="UTF-8" standalone="no"?>
<!DOCTYPE svg PUBLIC "-//W3C//DTD SVG 1.1//EN"
 "http://www.w3.org/Graphics/SVG/1.1/DTD/svg11.dtd">
<!-- Generated by graphviz version 2.44.1 (0)
 -->
<!-- Title: invfft Pages: 1 -->
<svg width="603pt" height="295pt"
 viewBox="0.00 0.00 603.00 294.65" xmlns="http://www.w3.org/2000/svg" xmlns:xlink="http://www.w3.org/1999/xlink">
<g id="graph0" class="graph" transform="scale(1 1) rotate(0) translate(4 290.65)">
<title>invfft</title>
<polygon fill="white" stroke="transparent" points="-4,4 -4,-290.65 599,-290.65 599,4 -4,4"/>
<!-- Node1 -->
<g id="node1" class="node">
<title>Node1</title>
<g id="a_node1"><a xlink:title="Inverse Fourier transform (fftw wrapper)">
<polygon fill="#bfbfbf" stroke="black" points="553,-95.5 553,-114.5 595,-114.5 595,-95.5 553,-95.5"/>
<text text-anchor="middle" x="574" y="-102.5" font-family="Helvetica,sans-Serif" font-size="10.00">invfft</text>
</a>
</g>
</g>
<!-- Node2 -->
<g id="node2" class="node">
<title>Node2</title>
<g id="a_node2"><a xlink:href="group__grp__geometry.xhtml#gaaca20aa60eaf39055f3c9d5c02a24ac2" target="_top" xlink:title="Calculates coordinates, , and metrics, using FFTs.">
<polygon fill="white" stroke="black" points="468,-133.5 468,-152.5 517,-152.5 517,-133.5 468,-133.5"/>
<text text-anchor="middle" x="492.5" y="-140.5" font-family="Helvetica,sans-Serif" font-size="10.00">coords</text>
</a>
</g>
</g>
<!-- Node1&#45;&gt;Node2 -->
<g id="edge1" class="edge">
<title>Node1&#45;&gt;Node2</title>
<path fill="none" stroke="midnightblue" d="M543.71,-119C533.67,-123.8 522.69,-129.05 513.55,-133.41"/>
<polygon fill="midnightblue" stroke="midnightblue" points="545.43,-122.06 552.94,-114.59 542.41,-115.74 545.43,-122.06"/>
</g>
<!-- Node3 -->
<g id="node3" class="node">
<title>Node3</title>
<g id="a_node3"><a xlink:href="group__grp__currents.xhtml#gacaf4411e0ba378631dcd2ccb3752e452" target="_top" xlink:title="Computes the plasma current, , and the &quot;linking&quot; current, .">
<polygon fill="white" stroke="black" points="382,-38.5 382,-57.5 429,-57.5 429,-38.5 382,-38.5"/>
<text text-anchor="middle" x="405.5" y="-45.5" font-family="Helvetica,sans-Serif" font-size="10.00">curent</text>
</a>
</g>
</g>
<!-- Node1&#45;&gt;Node3 -->
<g id="edge32" class="edge">
<title>Node1&#45;&gt;Node3</title>
<path fill="none" stroke="midnightblue" d="M543.42,-94.87C510.69,-83.67 458.65,-65.85 429.05,-55.72"/>
<polygon fill="midnightblue" stroke="midnightblue" points="542.32,-98.2 552.92,-98.12 544.59,-91.57 542.32,-98.2"/>
</g>
<!-- Node6 -->
<g id="node6" class="node">
<title>Node6</title>
<g id="a_node6"><a xlink:href="group__grp__diagnostics.xhtml#ga6411205c36a7d50002d7f3fb3133c441" target="_top" xlink:title="Measures error in Beltrami equation, .">
<polygon fill="white" stroke="black" points="380.5,-228.5 380.5,-247.5 430.5,-247.5 430.5,-228.5 380.5,-228.5"/>
<text text-anchor="middle" x="405.5" y="-235.5" font-family="Helvetica,sans-Serif" font-size="10.00">jo00aa</text>
</a>
</g>
</g>
<!-- Node1&#45;&gt;Node6 -->
<g id="edge33" class="edge">
<title>Node1&#45;&gt;Node6</title>
<path fill="none" stroke="midnightblue" d="M563.84,-123.63C554.24,-141.57 537.69,-168.47 517,-186 491.12,-207.93 454.42,-222.76 430.54,-230.8"/>
<polygon fill="midnightblue" stroke="midnightblue" points="566.97,-125.2 568.44,-114.71 560.74,-122 566.97,-125.2"/>
</g>
<!-- Node9 -->
<g id="node9" class="node">
<title>Node9</title>
<g id="a_node9"><a xlink:href="group__grp__local__force.xhtml#ga7a5316b9e5eeb42811aa6bccd29a132f" target="_top" xlink:title="Computes , and the spectral condensation constraints if required, on the interfaces,...">
<polygon fill="white" stroke="black" points="383.5,-76.5 383.5,-95.5 427.5,-95.5 427.5,-76.5 383.5,-76.5"/>
<text text-anchor="middle" x="405.5" y="-83.5" font-family="Helvetica,sans-Serif" font-size="10.00">lforce</text>
</a>
</g>
</g>
<!-- Node1&#45;&gt;Node9 -->
<g id="edge34" class="edge">
<title>Node1&#45;&gt;Node9</title>
<path fill="none" stroke="midnightblue" d="M542.85,-101.56C509.58,-97.76 456.89,-91.75 427.7,-88.42"/>
<polygon fill="midnightblue" stroke="midnightblue" points="542.58,-105.05 552.92,-102.71 543.38,-98.1 542.58,-105.05"/>
</g>
<!-- Node12 -->
<g id="node12" class="node">
<title>Node12</title>
<g id="a_node12"><a xlink:href="group__grp__initialization.xhtml#ga28628de0fdb3b3497668007d8d0643bd" target="_top" xlink:title="Allocates and initializes internal arrays.">
<polygon fill="white" stroke="black" points="382,-190.5 382,-209.5 429,-209.5 429,-190.5 382,-190.5"/>
<text text-anchor="middle" x="405.5" y="-197.5" font-family="Helvetica,sans-Serif" font-size="10.00">preset</text>
</a>
</g>
</g>
<!-- Node1&#45;&gt;Node12 -->
<g id="edge35" class="edge">
<title>Node1&#45;&gt;Node12</title>
<path fill="none" stroke="midnightblue" d="M559.35,-122.76C548.93,-135.25 533.59,-151.54 517,-162 489.2,-179.53 452.34,-190.09 429.01,-195.48"/>
<polygon fill="midnightblue" stroke="midnightblue" points="562.18,-124.82 565.73,-114.83 556.73,-120.43 562.18,-124.82"/>
</g>
<!-- Node21 -->
<g id="node21" class="node">
<title>Node21</title>
<g id="a_node21"><a xlink:href="group__grp__transform.xhtml#ga0e0447653b8da82f06748dd8831bc337" target="_top" xlink:title="Calculates rotational transform given an arbitrary tangential field.">
<polygon fill="white" stroke="black" points="468.5,-0.5 468.5,-19.5 516.5,-19.5 516.5,-0.5 468.5,-0.5"/>
<text text-anchor="middle" x="492.5" y="-7.5" font-family="Helvetica,sans-Serif" font-size="10.00">tr00ab</text>
</a>
</g>
</g>
<!-- Node1&#45;&gt;Node21 -->
<g id="edge36" class="edge">
<title>Node1&#45;&gt;Node21</title>
<path fill="none" stroke="midnightblue" d="M559.57,-86.89C548.53,-72.28 532.28,-51.38 517,-34 512.69,-29.1 507.65,-23.89 503.35,-19.58"/>
<polygon fill="midnightblue" stroke="midnightblue" points="556.91,-89.18 565.71,-95.09 562.51,-84.99 556.91,-89.18"/>
</g>
<!-- Node2&#45;&gt;Node3 -->
<g id="edge2" class="edge">
<title>Node2&#45;&gt;Node3</title>
<path fill="none" stroke="midnightblue" d="M479.44,-124.95C468.2,-108.81 450.44,-85.01 432,-67 428.6,-63.68 424.61,-60.45 420.81,-57.62"/>
<polygon fill="midnightblue" stroke="midnightblue" points="476.73,-127.18 485.26,-133.46 482.51,-123.23 476.73,-127.18"/>
</g>
<!-- Node2&#45;&gt;Node6 -->
<g id="edge5" class="edge">
<title>Node2&#45;&gt;Node6</title>
<path fill="none" stroke="midnightblue" d="M479.44,-161.05C468.2,-177.19 450.44,-200.99 432,-219 428.6,-222.32 424.61,-225.55 420.81,-228.38"/>
<polygon fill="midnightblue" stroke="midnightblue" points="482.51,-162.77 485.26,-152.54 476.73,-158.82 482.51,-162.77"/>
</g>
<!-- Node2&#45;&gt;Node9 -->
<g id="edge9" class="edge">
<title>Node2&#45;&gt;Node9</title>
<path fill="none" stroke="midnightblue" d="M468.67,-127.69C453.4,-117.45 433.78,-104.29 420.71,-95.53"/>
<polygon fill="midnightblue" stroke="midnightblue" points="466.83,-130.67 477.08,-133.33 470.72,-124.85 466.83,-130.67"/>
</g>
<!-- Node10 -->
<g id="node10" class="node">
<title>Node10</title>
<g id="a_node10"><a xlink:href="group__grp__metrics.xhtml#ga254ce8e645c4110d77e3b3dbc3a89885" target="_top" xlink:title="Calculates the metric quantities, , which are required for the energy and helicity integrals.">
<polygon fill="white" stroke="black" points="381,-114.5 381,-133.5 430,-133.5 430,-114.5 381,-114.5"/>
<text text-anchor="middle" x="405.5" y="-121.5" font-family="Helvetica,sans-Serif" font-size="10.00">metrix</text>
</a>
</g>
</g>
<!-- Node2&#45;&gt;Node10 -->
<g id="edge10" class="edge">
<title>Node2&#45;&gt;Node10</title>
<path fill="none" stroke="midnightblue" d="M458.01,-135.51C448.66,-133.42 438.7,-131.2 430.05,-129.26"/>
<polygon fill="midnightblue" stroke="midnightblue" points="457.3,-138.94 467.82,-137.71 458.83,-132.11 457.3,-138.94"/>
</g>
<!-- Node2&#45;&gt;Node12 -->
<g id="edge12" class="edge">
<title>Node2&#45;&gt;Node12</title>
<path fill="none" stroke="midnightblue" d="M468.67,-158.31C453.4,-168.55 433.78,-181.71 420.71,-190.47"/>
<polygon fill="midnightblue" stroke="midnightblue" points="470.72,-161.15 477.08,-152.67 466.83,-155.33 470.72,-161.15"/>
</g>
<!-- Node14 -->
<g id="node14" class="node">
<title>Node14</title>
<g id="a_node14"><a xlink:href="group__grp__volume.xhtml#gae4c62d20b8fef07f4471b5b0889ab005" target="_top" xlink:title="Computes volume of each region; and, if required, the derivatives of the volume with respect to the i...">
<polygon fill="white" stroke="black" points="379,-152.5 379,-171.5 432,-171.5 432,-152.5 379,-152.5"/>
<text text-anchor="middle" x="405.5" y="-159.5" font-family="Helvetica,sans-Serif" font-size="10.00">volume</text>
</a>
</g>
</g>
<!-- Node2&#45;&gt;Node14 -->
<g id="edge16" class="edge">
<title>Node2&#45;&gt;Node14</title>
<path fill="none" stroke="midnightblue" d="M457.63,-143.95C446.16,-146.17 433.81,-149.28 424.12,-152.47"/>
<polygon fill="midnightblue" stroke="midnightblue" points="458.57,-147.33 467.82,-142.17 457.37,-140.44 458.57,-147.33"/>
</g>
<!-- Node4 -->
<g id="node4" class="node">
<title>Node4</title>
<g id="a_node4"><a xlink:href="group__grp__solver.xhtml#ga6626839aff500f060beb5bce2b90c447" target="_top" xlink:title="Solves Beltrami/vacuum (linear) system, given matrices.unpacking fluxes, helicity multiplier">
<polygon fill="white" stroke="black" points="287,-19.5 287,-38.5 343,-38.5 343,-19.5 287,-19.5"/>
<text text-anchor="middle" x="315" y="-26.5" font-family="Helvetica,sans-Serif" font-size="10.00">mp00ac</text>
</a>
</g>
</g>
<!-- Node3&#45;&gt;Node4 -->
<g id="edge3" class="edge">
<title>Node3&#45;&gt;Node4</title>
<path fill="none" stroke="midnightblue" d="M371.85,-40.99C362.4,-38.96 352.19,-36.77 343.12,-34.82"/>
<polygon fill="midnightblue" stroke="midnightblue" points="371.2,-44.43 381.71,-43.11 372.67,-37.59 371.2,-44.43"/>
</g>
<!-- Node5 -->
<g id="node5" class="node">
<title>Node5</title>
<g id="a_node5"><a xlink:href="group__grp__solver__driver.xhtml#gacad623d4c5c006e9ad10116372f92ad3" target="_top" xlink:title="Constructs Beltrami field in given volume consistent with flux, helicity, rotational&#45;transform and/or...">
<polygon fill="white" stroke="black" points="195,-19.5 195,-38.5 251,-38.5 251,-19.5 195,-19.5"/>
<text text-anchor="middle" x="223" y="-26.5" font-family="Helvetica,sans-Serif" font-size="10.00">ma02aa</text>
</a>
</g>
</g>
<!-- Node4&#45;&gt;Node5 -->
<g id="edge4" class="edge">
<title>Node4&#45;&gt;Node5</title>
<path fill="none" stroke="midnightblue" d="M276.84,-29C268.29,-29 259.34,-29 251.29,-29"/>
<polygon fill="midnightblue" stroke="midnightblue" points="277,-32.5 287,-29 277,-25.5 277,-32.5"/>
</g>
<!-- Node7 -->
<g id="node7" class="node">
<title>Node7</title>
<g id="a_node7"><a xlink:href="xspech_8f90.xhtml#aea782eae089760a491c2c54f9903abcc" target="_top" xlink:title="Main program of SPEC.">
<polygon fill="white" stroke="black" points="97,-190.5 97,-209.5 148,-209.5 148,-190.5 97,-190.5"/>
<text text-anchor="middle" x="122.5" y="-197.5" font-family="Helvetica,sans-Serif" font-size="10.00">xspech</text>
</a>
</g>
</g>
<!-- Node6&#45;&gt;Node7 -->
<g id="edge6" class="edge">
<title>Node6&#45;&gt;Node7</title>
<path fill="none" stroke="midnightblue" d="M378.15,-252.11C337.33,-271.94 257.04,-302.81 195,-276 163.24,-262.27 139.07,-226.72 128.84,-209.56"/>
<polygon fill="midnightblue" stroke="midnightblue" points="379.81,-255.19 387.18,-247.58 376.67,-248.93 379.81,-255.19"/>
</g>
<!-- Node8 -->
<g id="node8" class="node">
<title>Node8</title>
<g id="a_node8"><a xlink:href="xspech_8f90.xhtml#a537af4990058c0b0f2cd8b3669af204f" target="_top" xlink:title="todo remark">
<polygon fill="white" stroke="black" points="0,-190.5 0,-209.5 50,-209.5 50,-190.5 0,-190.5"/>
<text text-anchor="middle" x="25" y="-197.5" font-family="Helvetica,sans-Serif" font-size="10.00">ending</text>
</a>
</g>
</g>
<!-- Node7&#45;&gt;Node8 -->
<g id="edge7" class="edge">
<title>Node7&#45;&gt;Node8</title>
<path fill="none" stroke="midnightblue" d="M86.66,-193.47C74.55,-193.04 61.24,-193.23 50.18,-194.04"/>
<polygon fill="midnightblue" stroke="midnightblue" points="86.74,-196.98 96.91,-194.01 87.1,-189.99 86.74,-196.98"/>
</g>
<!-- Node8&#45;&gt;Node7 -->
<g id="edge8" class="edge">
<title>Node8&#45;&gt;Node7</title>
<path fill="none" stroke="midnightblue" d="M60.39,-206.51C72.47,-206.96 85.79,-206.78 96.91,-205.99"/>
<polygon fill="midnightblue" stroke="midnightblue" points="60.35,-203 50.18,-205.96 59.98,-209.99 60.35,-203"/>
</g>
<!-- Node11 -->
<g id="node11" class="node">
<title>Node11</title>
<g id="a_node11"><a xlink:href="group__grp__integrals.xhtml#ga400af9e33dd5465ff9a4bba9fbf91108" target="_top" xlink:title="Calculates volume integrals of Chebyshev polynomials and metric element products.">
<polygon fill="white" stroke="black" points="287,-57.5 287,-76.5 343,-76.5 343,-57.5 287,-57.5"/>
<text text-anchor="middle" x="315" y="-64.5" font-family="Helvetica,sans-Serif" font-size="10.00">ma00aa</text>
</a>
</g>
</g>
<!-- Node10&#45;&gt;Node11 -->
<g id="edge11" class="edge">
<title>Node10&#45;&gt;Node11</title>
<path fill="none" stroke="midnightblue" d="M380.73,-108.69C364.83,-98.45 344.4,-85.29 330.79,-76.53"/>
<polygon fill="midnightblue" stroke="midnightblue" points="379.18,-111.86 389.49,-114.33 382.98,-105.97 379.18,-111.86"/>
</g>
<!-- Node12&#45;&gt;Node7 -->
<g id="edge15" class="edge">
<title>Node12&#45;&gt;Node7</title>
<path fill="none" stroke="midnightblue" d="M371.74,-200C314.79,-200 198.8,-200 148.12,-200"/>
<polygon fill="midnightblue" stroke="midnightblue" points="371.98,-203.5 381.98,-200 371.98,-196.5 371.98,-203.5"/>
</g>
<!-- Node13 -->
<g id="node13" class="node">
<title>Node13</title>
<g id="a_node13"><a xlink:href="group__grp__diagnostics.xhtml#ga7401b50ec10c6598ee4a8112717a63ec" target="_top" xlink:title="Computes eigenvalues and eigenvectors of derivative matrix, .">
<polygon fill="white" stroke="black" points="198.5,-247.5 198.5,-266.5 247.5,-266.5 247.5,-247.5 198.5,-247.5"/>
<text text-anchor="middle" x="223" y="-254.5" font-family="Helvetica,sans-Serif" font-size="10.00">hesian</text>
</a>
</g>
</g>
<!-- Node12&#45;&gt;Node13 -->
<g id="edge13" class="edge">
<title>Node12&#45;&gt;Node13</title>
<path fill="none" stroke="midnightblue" d="M380.74,-214.86C369.63,-221.25 356,-228.32 343,-233 311.08,-244.5 272.24,-251.03 247.81,-254.29"/>
<polygon fill="midnightblue" stroke="midnightblue" points="382.6,-217.83 389.41,-209.72 379.03,-211.81 382.6,-217.83"/>
</g>
<!-- Node13&#45;&gt;Node7 -->
<g id="edge14" class="edge">
<title>Node13&#45;&gt;Node7</title>
<path fill="none" stroke="midnightblue" d="M196.54,-242.26C178.7,-231.95 155.4,-218.46 139.96,-209.53"/>
<polygon fill="midnightblue" stroke="midnightblue" points="194.88,-245.35 205.29,-247.33 198.39,-239.29 194.88,-245.35"/>
</g>
<!-- Node14&#45;&gt;Node2 -->
<g id="edge17" class="edge">
<title>Node14&#45;&gt;Node2</title>
<path fill="none" stroke="midnightblue" d="M441.99,-160.73C453,-158.53 464.65,-155.57 473.89,-152.53"/>
<polygon fill="midnightblue" stroke="midnightblue" points="441.37,-157.29 432.15,-162.52 442.62,-164.18 441.37,-157.29"/>
</g>
<!-- Node14&#45;&gt;Node7 -->
<g id="edge31" class="edge">
<title>Node14&#45;&gt;Node7</title>
<path fill="none" stroke="midnightblue" d="M368.4,-166.88C310.38,-174.73 197.89,-189.94 148.16,-196.67"/>
<polygon fill="midnightblue" stroke="midnightblue" points="369.13,-170.32 378.57,-165.51 368.19,-163.38 369.13,-170.32"/>
</g>
<!-- Node14&#45;&gt;Node11 -->
<g id="edge27" class="edge">
<title>Node14&#45;&gt;Node11</title>
<path fill="none" stroke="midnightblue" d="M381.8,-145.82C380.83,-144.9 379.89,-143.96 379,-143 358.64,-121.01 363.65,-107.71 343,-86 339.76,-82.59 335.83,-79.42 331.97,-76.68"/>
<polygon fill="midnightblue" stroke="midnightblue" points="379.78,-148.69 389.7,-152.4 384.26,-143.31 379.78,-148.69"/>
</g>
<!-- Node15 -->
<g id="node15" class="node">
<title>Node15</title>
<g id="a_node15"><a xlink:href="group__grp__force__driver.xhtml#ga8ccd6c7d901872702521d0a0edf95412" target="_top" xlink:title="fcn2">
<polygon fill="white" stroke="black" points="296,-95.5 296,-114.5 334,-114.5 334,-95.5 296,-95.5"/>
<text text-anchor="middle" x="315" y="-102.5" font-family="Helvetica,sans-Serif" font-size="10.00">fcn2</text>
</a>
</g>
</g>
<!-- Node14&#45;&gt;Node15 -->
<g id="edge18" class="edge">
<title>Node14&#45;&gt;Node15</title>
<path fill="none" stroke="midnightblue" d="M380.73,-146.69C364.83,-136.45 344.4,-123.29 330.79,-114.53"/>
<polygon fill="midnightblue" stroke="midnightblue" points="379.18,-149.86 389.49,-152.33 382.98,-143.97 379.18,-149.86"/>
</g>
<!-- Node19 -->
<g id="node19" class="node">
<title>Node19</title>
<g id="a_node19"><a xlink:href="group__grp__diagnostics.xhtml#ga831aed2458140e266ee4d37461dd5350" target="_top" xlink:title="Constructs Poincaré plot and &quot;approximate&quot; rotational&#45;transform (for single field line).">
<polygon fill="white" stroke="black" points="288.5,-133.5 288.5,-152.5 341.5,-152.5 341.5,-133.5 288.5,-133.5"/>
<text text-anchor="middle" x="315" y="-140.5" font-family="Helvetica,sans-Serif" font-size="10.00">pp00ab</text>
</a>
</g>
</g>
<!-- Node14&#45;&gt;Node19 -->
<g id="edge28" class="edge">
<title>Node14&#45;&gt;Node19</title>
<path fill="none" stroke="midnightblue" d="M368.88,-154.35C359.73,-152.39 350.07,-150.31 341.54,-148.48"/>
<polygon fill="midnightblue" stroke="midnightblue" points="368.39,-157.83 378.9,-156.5 369.86,-150.98 368.39,-157.83"/>
</g>
<!-- Node16 -->
<g id="node16" class="node">
<title>Node16</title>
<g id="a_node16"><a xlink:href="group__grp__force__driver.xhtml#gaec14f81fbdbedafbc4189489ec8ae178" target="_top" xlink:title="Employs Newton method to find , where &#160;and &#160;is defined in dforce() .">
<polygon fill="white" stroke="black" points="196.5,-95.5 196.5,-114.5 249.5,-114.5 249.5,-95.5 196.5,-95.5"/>
<text text-anchor="middle" x="223" y="-102.5" font-family="Helvetica,sans-Serif" font-size="10.00">newton</text>
</a>
</g>
</g>
<!-- Node15&#45;&gt;Node16 -->
<g id="edge19" class="edge">
<title>Node15&#45;&gt;Node16</title>
<path fill="none" stroke="midnightblue" d="M285.77,-98.69C274.23,-98.06 260.96,-98.11 249.69,-98.84"/>
<polygon fill="midnightblue" stroke="midnightblue" points="285.55,-102.18 295.79,-99.45 286.08,-95.2 285.55,-102.18"/>
</g>
<!-- Node16&#45;&gt;Node7 -->
<g id="edge26" class="edge">
<title>Node16&#45;&gt;Node7</title>
<path fill="none" stroke="midnightblue" d="M199.1,-120.62C197.69,-121.73 196.31,-122.86 195,-124 169.96,-145.72 144.18,-175.23 131.52,-190.28"/>
<polygon fill="midnightblue" stroke="midnightblue" points="201.35,-123.3 207.3,-114.54 197.18,-117.68 201.35,-123.3"/>
</g>
<!-- Node16&#45;&gt;Node15 -->
<g id="edge22" class="edge">
<title>Node16&#45;&gt;Node15</title>
<path fill="none" stroke="midnightblue" d="M259.75,-111.62C272.11,-111.97 285.43,-111.61 295.79,-110.55"/>
<polygon fill="midnightblue" stroke="midnightblue" points="259.84,-108.12 249.69,-111.16 259.52,-115.11 259.84,-108.12"/>
</g>
<!-- Node17 -->
<g id="node17" class="node">
<title>Node17</title>
<g id="a_node17"><a xlink:href="group__grp__force__driver.xhtml#gabbc245b3884ee8d8d3e2a52f25149f78" target="_top" xlink:title="fcn1">
<polygon fill="white" stroke="black" points="103.5,-95.5 103.5,-114.5 141.5,-114.5 141.5,-95.5 103.5,-95.5"/>
<text text-anchor="middle" x="122.5" y="-102.5" font-family="Helvetica,sans-Serif" font-size="10.00">fcn1</text>
</a>
</g>
</g>
<!-- Node16&#45;&gt;Node17 -->
<g id="edge20" class="edge">
<title>Node16&#45;&gt;Node17</title>
<path fill="none" stroke="midnightblue" d="M186.24,-98.48C171.06,-97.95 154.02,-98.34 141.54,-99.64"/>
<polygon fill="midnightblue" stroke="midnightblue" points="186.21,-101.98 196.38,-98.99 186.57,-94.99 186.21,-101.98"/>
</g>
<!-- Node18 -->
<g id="node18" class="node">
<title>Node18</title>
<g id="a_node18"><a xlink:href="group__grp__force__driver.xhtml#ga382822b303cbf8c56d6f54dcb379caf2" target="_top" xlink:title="read or write force&#45;derivative matrix">
<polygon fill="white" stroke="black" points="86,-57.5 86,-76.5 159,-76.5 159,-57.5 86,-57.5"/>
<text text-anchor="middle" x="122.5" y="-64.5" font-family="Helvetica,sans-Serif" font-size="10.00">writereadgf</text>
</a>
</g>
</g>
<!-- Node16&#45;&gt;Node18 -->
<g id="edge23" class="edge">
<title>Node16&#45;&gt;Node18</title>
<path fill="none" stroke="midnightblue" d="M199.91,-90.74C187.95,-85.13 172.88,-79.06 159.29,-74.29"/>
<polygon fill="midnightblue" stroke="midnightblue" points="198.61,-94 209.12,-95.3 201.71,-87.73 198.61,-94"/>
</g>
<!-- Node17&#45;&gt;Node16 -->
<g id="edge21" class="edge">
<title>Node17&#45;&gt;Node16</title>
<path fill="none" stroke="midnightblue" d="M151.65,-111.17C165.74,-111.99 182.66,-111.94 196.38,-111.01"/>
<polygon fill="midnightblue" stroke="midnightblue" points="151.78,-107.67 141.54,-110.36 151.23,-114.64 151.78,-107.67"/>
</g>
<!-- Node18&#45;&gt;Node15 -->
<g id="edge24" class="edge">
<title>Node18&#45;&gt;Node15</title>
<path fill="none" stroke="midnightblue" d="M169.27,-72.19C193.69,-75.36 224.15,-79.98 251,-86 266.38,-89.45 283.49,-94.7 295.99,-98.81"/>
<polygon fill="midnightblue" stroke="midnightblue" points="169.56,-68.7 159.2,-70.91 168.69,-75.64 169.56,-68.7"/>
</g>
<!-- Node18&#45;&gt;Node16 -->
<g id="edge25" class="edge">
<title>Node18&#45;&gt;Node16</title>
<path fill="none" stroke="midnightblue" d="M145.18,-81.07C160.28,-88.18 180.48,-96.07 196.38,-101.12"/>
<polygon fill="midnightblue" stroke="midnightblue" points="146.6,-77.87 136.09,-76.54 143.48,-84.13 146.6,-77.87"/>
</g>
<!-- Node20 -->
<g id="node20" class="node">
<title>Node20</title>
<g id="a_node20"><a xlink:href="group__grp__diagnostics.xhtml#gad67931244268a09bd077dae8910c7096" target="_top" xlink:title="Constructs Poincaré plot and &quot;approximate&quot; rotational&#45;transform (driver).">
<polygon fill="white" stroke="black" points="196.5,-133.5 196.5,-152.5 249.5,-152.5 249.5,-133.5 196.5,-133.5"/>
<text text-anchor="middle" x="223" y="-140.5" font-family="Helvetica,sans-Serif" font-size="10.00">pp00aa</text>
</a>
</g>
</g>
<!-- Node19&#45;&gt;Node20 -->
<g id="edge29" class="edge">
<title>Node19&#45;&gt;Node20</title>
<path fill="none" stroke="midnightblue" d="M278.35,-143C268.75,-143 258.55,-143 249.61,-143"/>
<polygon fill="midnightblue" stroke="midnightblue" points="278.45,-146.5 288.45,-143 278.45,-139.5 278.45,-146.5"/>
</g>
<!-- Node20&#45;&gt;Node7 -->
<g id="edge30" class="edge">
<title>Node20&#45;&gt;Node7</title>
<path fill="none" stroke="midnightblue" d="M196.54,-157.74C178.7,-168.05 155.4,-181.54 139.96,-190.47"/>
<polygon fill="midnightblue" stroke="midnightblue" points="198.39,-160.71 205.29,-152.67 194.88,-154.65 198.39,-160.71"/>
</g>
<!-- Node21&#45;&gt;Node4 -->
<g id="edge37" class="edge">
<title>Node21&#45;&gt;Node4</title>
<path fill="none" stroke="midnightblue" d="M458.02,-13.62C424.66,-17.24 374.09,-22.71 343.15,-26.06"/>
<polygon fill="midnightblue" stroke="midnightblue" points="458.63,-17.08 468.19,-12.52 457.88,-10.12 458.63,-17.08"/>
</g>
</g>
</svg>
