<?xml version="1.0" encoding="UTF-8" standalone="no"?>
<!DOCTYPE svg PUBLIC "-//W3C//DTD SVG 1.1//EN"
 "http://www.w3.org/Graphics/SVG/1.1/DTD/svg11.dtd">
<!-- Generated by graphviz version 2.44.1 (0)
 -->
<!-- Title: lforce Pages: 1 -->
<svg width="226pt" height="104pt"
 viewBox="0.00 0.00 226.00 104.00" xmlns="http://www.w3.org/2000/svg" xmlns:xlink="http://www.w3.org/1999/xlink">
<g id="graph0" class="graph" transform="scale(1 1) rotate(0) translate(4 100)">
<title>lforce</title>
<polygon fill="white" stroke="transparent" points="-4,4 -4,-100 222,-100 222,4 -4,4"/>
<!-- Node1 -->
<g id="node1" class="node">
<title>Node1</title>
<g id="a_node1"><a xlink:title="Computes , and the spectral condensation constraints if required, on the interfaces,...">
<polygon fill="#bfbfbf" stroke="black" points="0,-38.5 0,-57.5 44,-57.5 44,-38.5 0,-38.5"/>
<text text-anchor="middle" x="22" y="-45.5" font-family="Helvetica,sans-Serif" font-size="10.00">lforce</text>
</a>
</g>
</g>
<!-- Node2 -->
<g id="node2" class="node">
<title>Node2</title>
<g id="a_node2"><a xlink:href="group__grp__geometry.xhtml#gaaca20aa60eaf39055f3c9d5c02a24ac2" target="_top" xlink:title="Calculates coordinates, , and metrics, using FFTs.">
<polygon fill="white" stroke="black" points="80,-38.5 80,-57.5 129,-57.5 129,-38.5 80,-38.5"/>
<text text-anchor="middle" x="104.5" y="-45.5" font-family="Helvetica,sans-Serif" font-size="10.00">coords</text>
</a>
</g>
</g>
<!-- Node1&#45;&gt;Node2 -->
<g id="edge1" class="edge">
<title>Node1&#45;&gt;Node2</title>
<path fill="none" stroke="midnightblue" d="M44.15,-48C51.97,-48 61.03,-48 69.69,-48"/>
<polygon fill="midnightblue" stroke="midnightblue" points="69.94,-51.5 79.94,-48 69.94,-44.5 69.94,-51.5"/>
</g>
<!-- Node3 -->
<g id="node3" class="node">
<title>Node3</title>
<g id="a_node3"><a xlink:href="group__grp__numerics.xhtml#ga1fd52accb0646f535f9bcc46cf5a68f3" target="_top" xlink:title="Inverse Fourier transform (fftw wrapper)">
<polygon fill="white" stroke="black" points="170.5,-76.5 170.5,-95.5 212.5,-95.5 212.5,-76.5 170.5,-76.5"/>
<text text-anchor="middle" x="191.5" y="-83.5" font-family="Helvetica,sans-Serif" font-size="10.00">invfft</text>
</a>
</g>
</g>
<!-- Node1&#45;&gt;Node3 -->
<g id="edge5" class="edge">
<title>Node1&#45;&gt;Node3</title>
<path fill="none" stroke="midnightblue" d="M44.16,-55.9C54.8,-59.66 67.96,-63.98 80,-67 106.89,-73.75 138.07,-78.87 160.44,-82.09"/>
<polygon fill="midnightblue" stroke="midnightblue" points="159.96,-85.55 170.35,-83.47 160.93,-78.62 159.96,-85.55"/>
</g>
<!-- Node5 -->
<g id="node5" class="node">
<title>Node5</title>
<g id="a_node5"><a xlink:href="group__grp__numerics.xhtml#ga041138109a57e651c57117bb4180409e" target="_top" xlink:title="Forward Fourier transform (fftw wrapper)">
<polygon fill="white" stroke="black" points="89,-0.5 89,-19.5 120,-19.5 120,-0.5 89,-0.5"/>
<text text-anchor="middle" x="104.5" y="-7.5" font-family="Helvetica,sans-Serif" font-size="10.00">tfft</text>
</a>
</g>
</g>
<!-- Node1&#45;&gt;Node5 -->
<g id="edge6" class="edge">
<title>Node1&#45;&gt;Node5</title>
<path fill="none" stroke="midnightblue" d="M43.31,-38.41C54.38,-33.19 68.13,-26.7 79.69,-21.24"/>
<polygon fill="midnightblue" stroke="midnightblue" points="81.23,-24.38 88.78,-16.95 78.24,-18.05 81.23,-24.38"/>
</g>
<!-- Node2&#45;&gt;Node3 -->
<g id="edge2" class="edge">
<title>Node2&#45;&gt;Node3</title>
<path fill="none" stroke="midnightblue" d="M126.95,-57.59C137.22,-62.18 149.68,-67.75 160.84,-72.74"/>
<polygon fill="midnightblue" stroke="midnightblue" points="159.67,-76.05 170.23,-76.94 162.53,-69.66 159.67,-76.05"/>
</g>
<!-- Node4 -->
<g id="node4" class="node">
<title>Node4</title>
<g id="a_node4"><a xlink:href="group__grp__volume.xhtml#gae4c62d20b8fef07f4471b5b0889ab005" target="_top" xlink:title="Computes volume of each region; and, if required, the derivatives of the volume with respect to the i...">
<polygon fill="white" stroke="black" points="165,-38.5 165,-57.5 218,-57.5 218,-38.5 165,-38.5"/>
<text text-anchor="middle" x="191.5" y="-45.5" font-family="Helvetica,sans-Serif" font-size="10.00">volume</text>
</a>
</g>
</g>
<!-- Node2&#45;&gt;Node4 -->
<g id="edge3" class="edge">
<title>Node2&#45;&gt;Node4</title>
<path fill="none" stroke="midnightblue" d="M129.18,-41.88C137.07,-41.32 146.05,-41.13 154.65,-41.32"/>
<polygon fill="midnightblue" stroke="midnightblue" points="154.73,-44.83 164.87,-41.75 155.02,-37.84 154.73,-44.83"/>
</g>
<!-- Node4&#45;&gt;Node2 -->
<g id="edge4" class="edge">
<title>Node4&#45;&gt;Node2</title>
<path fill="none" stroke="midnightblue" d="M164.87,-54.25C156.81,-54.75 147.78,-54.88 139.24,-54.62"/>
<polygon fill="midnightblue" stroke="midnightblue" points="139.34,-51.12 129.18,-54.12 138.99,-58.11 139.34,-51.12"/>
</g>
</g>
</svg>
