<?xml version="1.0" encoding="UTF-8" standalone="no"?>
<!DOCTYPE svg PUBLIC "-//W3C//DTD SVG 1.1//EN"
 "http://www.w3.org/Graphics/SVG/1.1/DTD/svg11.dtd">
<!-- Generated by graphviz version 2.44.1 (0)
 -->
<!-- Title: packxi Pages: 1 -->
<svg width="415pt" height="139pt"
 viewBox="0.00 0.00 415.00 138.61" xmlns="http://www.w3.org/2000/svg" xmlns:xlink="http://www.w3.org/1999/xlink">
<g id="graph0" class="graph" transform="scale(1 1) rotate(0) translate(4 134.61)">
<title>packxi</title>
<polygon fill="white" stroke="transparent" points="-4,4 -4,-134.61 411,-134.61 411,4 -4,4"/>
<!-- Node1 -->
<g id="node1" class="node">
<title>Node1</title>
<g id="a_node1"><a xlink:title="Packs, and unpacks, geometrical degrees of freedom; and sets coordinate axis.">
<polygon fill="#bfbfbf" stroke="black" points="358,-57.5 358,-76.5 407,-76.5 407,-57.5 358,-57.5"/>
<text text-anchor="middle" x="382.5" y="-64.5" font-family="Helvetica,sans-Serif" font-size="10.00">packxi</text>
</a>
</g>
</g>
<!-- Node2 -->
<g id="node2" class="node">
<title>Node2</title>
<g id="a_node2"><a xlink:href="group__grp__force__driver.xhtml#gabbc245b3884ee8d8d3e2a52f25149f78" target="_top" xlink:title="fcn1">
<polygon fill="white" stroke="black" points="284,-76.5 284,-95.5 322,-95.5 322,-76.5 284,-76.5"/>
<text text-anchor="middle" x="303" y="-83.5" font-family="Helvetica,sans-Serif" font-size="10.00">fcn1</text>
</a>
</g>
</g>
<!-- Node1&#45;&gt;Node2 -->
<g id="edge1" class="edge">
<title>Node1&#45;&gt;Node2</title>
<path fill="none" stroke="midnightblue" d="M347.83,-75.25C339.09,-77.4 329.99,-79.63 322.37,-81.5"/>
<polygon fill="midnightblue" stroke="midnightblue" points="348.95,-78.58 357.83,-72.8 347.28,-71.79 348.95,-78.58"/>
</g>
<!-- Node4 -->
<g id="node4" class="node">
<title>Node4</title>
<g id="a_node4"><a xlink:href="group__grp__force__driver.xhtml#ga8ccd6c7d901872702521d0a0edf95412" target="_top" xlink:title="fcn2">
<polygon fill="white" stroke="black" points="6,-104.5 6,-123.5 44,-123.5 44,-104.5 6,-104.5"/>
<text text-anchor="middle" x="25" y="-111.5" font-family="Helvetica,sans-Serif" font-size="10.00">fcn2</text>
</a>
</g>
</g>
<!-- Node1&#45;&gt;Node4 -->
<g id="edge12" class="edge">
<title>Node1&#45;&gt;Node4</title>
<path fill="none" stroke="midnightblue" d="M361.97,-82.73C350.9,-90.77 336.41,-99.92 322,-105 222.8,-140 190.9,-130.82 86,-123 71.82,-121.94 55.91,-119.5 44.04,-117.42"/>
<polygon fill="midnightblue" stroke="midnightblue" points="364.19,-85.44 370.05,-76.61 359.96,-79.86 364.19,-85.44"/>
</g>
<!-- Node6 -->
<g id="node6" class="node">
<title>Node6</title>
<g id="a_node6"><a xlink:href="xspech_8f90.xhtml#aea782eae089760a491c2c54f9903abcc" target="_top" xlink:title="Main program of SPEC.">
<polygon fill="white" stroke="black" points="97,-19.5 97,-38.5 148,-38.5 148,-19.5 97,-19.5"/>
<text text-anchor="middle" x="122.5" y="-26.5" font-family="Helvetica,sans-Serif" font-size="10.00">xspech</text>
</a>
</g>
</g>
<!-- Node1&#45;&gt;Node6 -->
<g id="edge15" class="edge">
<title>Node1&#45;&gt;Node6</title>
<path fill="none" stroke="midnightblue" d="M347.49,-61.99C294.7,-54.22 194.3,-39.43 148,-32.61"/>
<polygon fill="midnightblue" stroke="midnightblue" points="347.29,-65.5 357.69,-63.49 348.31,-58.57 347.29,-65.5"/>
</g>
<!-- Node8 -->
<g id="node8" class="node">
<title>Node8</title>
<g id="a_node8"><a xlink:href="group__grp__diagnostics.xhtml#ga7401b50ec10c6598ee4a8112717a63ec" target="_top" xlink:title="Computes eigenvalues and eigenvectors of derivative matrix, .">
<polygon fill="white" stroke="black" points="197,-0.5 197,-19.5 246,-19.5 246,-0.5 197,-0.5"/>
<text text-anchor="middle" x="221.5" y="-7.5" font-family="Helvetica,sans-Serif" font-size="10.00">hesian</text>
</a>
</g>
</g>
<!-- Node1&#45;&gt;Node8 -->
<g id="edge13" class="edge">
<title>Node1&#45;&gt;Node8</title>
<path fill="none" stroke="midnightblue" d="M358.16,-52.14C347.47,-45.83 334.43,-38.84 322,-34 297,-24.26 266.87,-17.66 246.37,-13.88"/>
<polygon fill="midnightblue" stroke="midnightblue" points="356.52,-55.23 366.88,-57.43 360.15,-49.25 356.52,-55.23"/>
</g>
<!-- Node3 -->
<g id="node3" class="node">
<title>Node3</title>
<g id="a_node3"><a xlink:href="group__grp__force__driver.xhtml#gaec14f81fbdbedafbc4189489ec8ae178" target="_top" xlink:title="Employs Newton method to find , where &#160;and &#160;is defined in dforce() .">
<polygon fill="white" stroke="black" points="195,-76.5 195,-95.5 248,-95.5 248,-76.5 195,-76.5"/>
<text text-anchor="middle" x="221.5" y="-83.5" font-family="Helvetica,sans-Serif" font-size="10.00">newton</text>
</a>
</g>
</g>
<!-- Node2&#45;&gt;Node3 -->
<g id="edge2" class="edge">
<title>Node2&#45;&gt;Node3</title>
<path fill="none" stroke="midnightblue" d="M273.83,-79.51C265.42,-79.12 256.24,-79.17 248,-79.65"/>
<polygon fill="midnightblue" stroke="midnightblue" points="273.74,-83.01 283.96,-80.24 274.24,-76.03 273.74,-83.01"/>
</g>
<!-- Node3&#45;&gt;Node2 -->
<g id="edge3" class="edge">
<title>Node3&#45;&gt;Node2</title>
<path fill="none" stroke="midnightblue" d="M258.23,-92.72C267.14,-92.86 276.32,-92.54 283.96,-91.76"/>
<polygon fill="midnightblue" stroke="midnightblue" points="258.12,-89.21 248,-92.35 257.87,-96.21 258.12,-89.21"/>
</g>
<!-- Node3&#45;&gt;Node4 -->
<g id="edge4" class="edge">
<title>Node3&#45;&gt;Node4</title>
<path fill="none" stroke="midnightblue" d="M184.68,-85.79C143.07,-89.59 76.07,-99.65 44.1,-107.27"/>
<polygon fill="midnightblue" stroke="midnightblue" points="184.99,-89.27 194.67,-84.96 184.42,-82.29 184.99,-89.27"/>
</g>
<!-- Node5 -->
<g id="node5" class="node">
<title>Node5</title>
<g id="a_node5"><a xlink:href="group__grp__force__driver.xhtml#ga382822b303cbf8c56d6f54dcb379caf2" target="_top" xlink:title="read or write force&#45;derivative matrix">
<polygon fill="white" stroke="black" points="86,-57.5 86,-76.5 159,-76.5 159,-57.5 86,-57.5"/>
<text text-anchor="middle" x="122.5" y="-64.5" font-family="Helvetica,sans-Serif" font-size="10.00">writereadgf</text>
</a>
</g>
</g>
<!-- Node3&#45;&gt;Node5 -->
<g id="edge6" class="edge">
<title>Node3&#45;&gt;Node5</title>
<path fill="none" stroke="midnightblue" d="M190.6,-73.86C180.69,-71.4 169.56,-69.13 159.26,-67.47"/>
<polygon fill="midnightblue" stroke="midnightblue" points="189.84,-77.27 200.4,-76.47 191.64,-70.51 189.84,-77.27"/>
</g>
<!-- Node3&#45;&gt;Node6 -->
<g id="edge9" class="edge">
<title>Node3&#45;&gt;Node6</title>
<path fill="none" stroke="midnightblue" d="M196.99,-71C185.61,-63.86 171.7,-55.31 159,-48 153.55,-44.86 147.54,-41.58 142.04,-38.65"/>
<polygon fill="midnightblue" stroke="midnightblue" points="195.17,-73.99 205.49,-76.37 198.9,-68.07 195.17,-73.99"/>
</g>
<!-- Node4&#45;&gt;Node3 -->
<g id="edge5" class="edge">
<title>Node4&#45;&gt;Node3</title>
<path fill="none" stroke="midnightblue" d="M54.39,-114.85C92.13,-111.89 158.27,-102.31 194.67,-94.48"/>
<polygon fill="midnightblue" stroke="midnightblue" points="53.85,-111.38 44.1,-115.52 54.31,-118.36 53.85,-111.38"/>
</g>
<!-- Node5&#45;&gt;Node3 -->
<g id="edge8" class="edge">
<title>Node5&#45;&gt;Node3</title>
<path fill="none" stroke="midnightblue" d="M153.55,-79.18C166.75,-82.45 182.09,-85.37 194.76,-87"/>
<polygon fill="midnightblue" stroke="midnightblue" points="154.08,-75.7 143.51,-76.5 152.27,-82.46 154.08,-75.7"/>
</g>
<!-- Node5&#45;&gt;Node4 -->
<g id="edge7" class="edge">
<title>Node5&#45;&gt;Node4</title>
<path fill="none" stroke="midnightblue" d="M92.81,-81.12C76.96,-88.92 57.75,-98.37 44,-105.14"/>
<polygon fill="midnightblue" stroke="midnightblue" points="94.75,-84.07 102.17,-76.51 91.66,-77.79 94.75,-84.07"/>
</g>
<!-- Node7 -->
<g id="node7" class="node">
<title>Node7</title>
<g id="a_node7"><a xlink:href="xspech_8f90.xhtml#a537af4990058c0b0f2cd8b3669af204f" target="_top" xlink:title="todo remark">
<polygon fill="white" stroke="black" points="0,-19.5 0,-38.5 50,-38.5 50,-19.5 0,-19.5"/>
<text text-anchor="middle" x="25" y="-26.5" font-family="Helvetica,sans-Serif" font-size="10.00">ending</text>
</a>
</g>
</g>
<!-- Node6&#45;&gt;Node7 -->
<g id="edge10" class="edge">
<title>Node6&#45;&gt;Node7</title>
<path fill="none" stroke="midnightblue" d="M86.66,-22.47C74.55,-22.04 61.24,-22.23 50.18,-23.04"/>
<polygon fill="midnightblue" stroke="midnightblue" points="86.74,-25.98 96.91,-23.01 87.1,-18.99 86.74,-25.98"/>
</g>
<!-- Node7&#45;&gt;Node6 -->
<g id="edge11" class="edge">
<title>Node7&#45;&gt;Node6</title>
<path fill="none" stroke="midnightblue" d="M60.39,-35.51C72.47,-35.96 85.79,-35.78 96.91,-34.99"/>
<polygon fill="midnightblue" stroke="midnightblue" points="60.35,-32 50.18,-34.96 59.98,-38.99 60.35,-32"/>
</g>
<!-- Node8&#45;&gt;Node6 -->
<g id="edge14" class="edge">
<title>Node8&#45;&gt;Node6</title>
<path fill="none" stroke="midnightblue" d="M186.37,-16.68C173.8,-19.15 159.8,-21.89 148.21,-24.16"/>
<polygon fill="midnightblue" stroke="midnightblue" points="187.38,-20.05 196.52,-14.7 186.04,-13.18 187.38,-20.05"/>
</g>
</g>
</svg>
