<?xml version="1.0" encoding="UTF-8" standalone="no"?>
<!DOCTYPE svg PUBLIC "-//W3C//DTD SVG 1.1//EN"
 "http://www.w3.org/Graphics/SVG/1.1/DTD/svg11.dtd">
<!-- Generated by graphviz version 2.44.1 (0)
 -->
<!-- Title: xspech Pages: 1 -->
<svg width="606pt" height="683pt"
 viewBox="0.00 0.00 606.00 682.53" xmlns="http://www.w3.org/2000/svg" xmlns:xlink="http://www.w3.org/1999/xlink">
<g id="graph0" class="graph" transform="scale(1 1) rotate(0) translate(4 678.53)">
<title>xspech</title>
<polygon fill="white" stroke="transparent" points="-4,4 -4,-678.53 602,-678.53 602,4 -4,4"/>
<!-- Node1 -->
<g id="node1" class="node">
<title>Node1</title>
<g id="a_node1"><a xlink:title="Main program of SPEC.">
<polygon fill="#bfbfbf" stroke="black" points="0,-389.03 0,-408.03 51,-408.03 51,-389.03 0,-389.03"/>
<text text-anchor="middle" x="25.5" y="-396.03" font-family="Helvetica,sans-Serif" font-size="10.00">xspech</text>
</a>
</g>
</g>
<!-- Node2 -->
<g id="node2" class="node">
<title>Node2</title>
<g id="a_node2"><a xlink:href="group__grp__free-boundary.xhtml#gac0a2cc2241947b27241bb8ef75c5e0ed" target="_top" xlink:title="Computes &#160;on the computational boundary, .">
<polygon fill="white" stroke="black" points="288.5,-579.03 288.5,-598.03 339.5,-598.03 339.5,-579.03 288.5,-579.03"/>
<text text-anchor="middle" x="314" y="-586.03" font-family="Helvetica,sans-Serif" font-size="10.00">bnorml</text>
</a>
</g>
</g>
<!-- Node1&#45;&gt;Node2 -->
<g id="edge1" class="edge">
<title>Node1&#45;&gt;Node2</title>
<path fill="none" stroke="midnightblue" d="M35.36,-408.38C46.68,-420.65 67.18,-441.92 87,-457.53 160.42,-515.37 181.64,-527.27 265,-569.53 269.37,-571.75 274.06,-573.88 278.73,-575.87"/>
<polygon fill="midnightblue" stroke="midnightblue" points="277.61,-579.2 288.2,-579.72 280.25,-572.71 277.61,-579.2"/>
</g>
<!-- Node6 -->
<g id="node6" class="node">
<title>Node6</title>
<g id="a_node6"><a xlink:href="xspech_8f90.xhtml#a537af4990058c0b0f2cd8b3669af204f" target="_top" xlink:title="todo remark">
<polygon fill="white" stroke="black" points="88.5,-541.03 88.5,-560.03 138.5,-560.03 138.5,-541.03 88.5,-541.03"/>
<text text-anchor="middle" x="113.5" y="-548.03" font-family="Helvetica,sans-Serif" font-size="10.00">ending</text>
</a>
</g>
</g>
<!-- Node1&#45;&gt;Node6 -->
<g id="edge6" class="edge">
<title>Node1&#45;&gt;Node6</title>
<path fill="none" stroke="midnightblue" d="M31.57,-408.17C40.36,-429.74 60.12,-480.56 87,-517.53 91.04,-523.09 96.47,-528.41 101.28,-533.39"/>
<polygon fill="midnightblue" stroke="midnightblue" points="98.77,-535.83 108.05,-540.94 103.98,-531.16 98.77,-535.83"/>
</g>
<!-- Node7 -->
<g id="node7" class="node">
<title>Node7</title>
<g id="a_node7"><a xlink:href="group__grp__diagnostics.xhtml#ga7401b50ec10c6598ee4a8112717a63ec" target="_top" xlink:title="Computes eigenvalues and eigenvectors of derivative matrix, .">
<polygon fill="white" stroke="black" points="89,-351.03 89,-370.03 138,-370.03 138,-351.03 89,-351.03"/>
<text text-anchor="middle" x="113.5" y="-358.03" font-family="Helvetica,sans-Serif" font-size="10.00">hesian</text>
</a>
</g>
</g>
<!-- Node1&#45;&gt;Node7 -->
<g id="edge8" class="edge">
<title>Node1&#45;&gt;Node7</title>
<path fill="none" stroke="midnightblue" d="M48.2,-388.95C58.28,-384.49 70.46,-379.11 81.49,-374.24"/>
<polygon fill="midnightblue" stroke="midnightblue" points="83.07,-377.36 90.81,-370.12 80.24,-370.96 83.07,-377.36"/>
</g>
<!-- Node8 -->
<g id="node8" class="node">
<title>Node8</title>
<g id="a_node8"><a xlink:href="group__grp__packing.xhtml#ga094e630c02686dd178749eb1efbf13fb" target="_top" xlink:title="Packs, and unpacks, geometrical degrees of freedom; and sets coordinate axis.">
<polygon fill="white" stroke="black" points="289.5,-275.03 289.5,-294.03 338.5,-294.03 338.5,-275.03 289.5,-275.03"/>
<text text-anchor="middle" x="314" y="-282.03" font-family="Helvetica,sans-Serif" font-size="10.00">packxi</text>
</a>
</g>
</g>
<!-- Node1&#45;&gt;Node8 -->
<g id="edge42" class="edge">
<title>Node1&#45;&gt;Node8</title>
<path fill="none" stroke="midnightblue" d="M34.01,-388.89C44.48,-376.11 64.73,-353.74 87,-341.53 149.71,-307.16 233.55,-293.08 279.45,-287.66"/>
<polygon fill="midnightblue" stroke="midnightblue" points="279.91,-291.13 289.46,-286.54 279.14,-284.17 279.91,-291.13"/>
</g>
<!-- Node9 -->
<g id="node9" class="node">
<title>Node9</title>
<g id="a_node9"><a xlink:href="group__grp__initialization.xhtml#ga28628de0fdb3b3497668007d8d0643bd" target="_top" xlink:title="Allocates and initializes internal arrays.">
<polygon fill="white" stroke="black" points="179,-427.03 179,-446.03 226,-446.03 226,-427.03 179,-427.03"/>
<text text-anchor="middle" x="202.5" y="-434.03" font-family="Helvetica,sans-Serif" font-size="10.00">preset</text>
</a>
</g>
</g>
<!-- Node1&#45;&gt;Node9 -->
<g id="edge48" class="edge">
<title>Node1&#45;&gt;Node9</title>
<path fill="none" stroke="midnightblue" d="M51.2,-404.37C62.15,-406.93 75.21,-409.93 87,-412.53 114.52,-418.6 145.84,-425.14 168.76,-429.86"/>
<polygon fill="midnightblue" stroke="midnightblue" points="168.16,-433.31 178.66,-431.89 169.57,-426.45 168.16,-433.31"/>
</g>
<!-- Node12 -->
<g id="node12" class="node">
<title>Node12</title>
<g id="a_node12"><a xlink:href="group__grp__volume.xhtml#gae4c62d20b8fef07f4471b5b0889ab005" target="_top" xlink:title="Computes volume of each region; and, if required, the derivatives of the volume with respect to the i...">
<polygon fill="white" stroke="black" points="426.5,-199.03 426.5,-218.03 479.5,-218.03 479.5,-199.03 426.5,-199.03"/>
<text text-anchor="middle" x="453" y="-206.03" font-family="Helvetica,sans-Serif" font-size="10.00">volume</text>
</a>
</g>
</g>
<!-- Node1&#45;&gt;Node12 -->
<g id="edge51" class="edge">
<title>Node1&#45;&gt;Node12</title>
<path fill="none" stroke="midnightblue" d="M27.02,-388.85C29.8,-341.13 44.31,-131.43 87,-85.53 171.79,5.64 256.56,27.06 363,-37.53 418.23,-71.05 440.77,-151.25 448.52,-188.67"/>
<polygon fill="midnightblue" stroke="midnightblue" points="445.14,-189.65 450.47,-198.81 452.02,-188.33 445.14,-189.65"/>
</g>
<!-- Node15 -->
<g id="node15" class="node">
<title>Node15</title>
<g id="a_node15"><a xlink:href="group__grp__output.xhtml#ga08d6a254dbc3d9d40ff1cf0bdfdf2148" target="_top" xlink:title="Writes vector potential to .ext.sp.A .">
<polygon fill="white" stroke="black" points="289,-541.03 289,-560.03 339,-560.03 339,-541.03 289,-541.03"/>
<text text-anchor="middle" x="314" y="-548.03" font-family="Helvetica,sans-Serif" font-size="10.00">ra00aa</text>
</a>
</g>
</g>
<!-- Node1&#45;&gt;Node15 -->
<g id="edge49" class="edge">
<title>Node1&#45;&gt;Node15</title>
<path fill="none" stroke="midnightblue" d="M43.31,-408.05C55.37,-414.79 72.07,-423.95 87,-431.53 149.21,-463.15 167.92,-464.79 229,-498.53 245.62,-507.72 248.87,-511.51 265,-521.53 272.44,-526.16 280.58,-531.12 288.01,-535.6"/>
<polygon fill="midnightblue" stroke="midnightblue" points="286.57,-538.81 296.94,-540.97 290.17,-532.81 286.57,-538.81"/>
</g>
<!-- Node16 -->
<g id="node16" class="node">
<title>Node16</title>
<g id="a_node16"><a xlink:href="namespaceallglobal.xhtml#ad32ae6194892fe7d876622a6455189e2" target="_top" xlink:title="The master node reads the input namelist and sets various internal variables. The relevant quantities...">
<polygon fill="white" stroke="black" points="266.5,-617.03 266.5,-636.03 361.5,-636.03 361.5,-617.03 266.5,-617.03"/>
<text text-anchor="middle" x="314" y="-624.03" font-family="Helvetica,sans-Serif" font-size="10.00">allglobal::readin</text>
</a>
</g>
</g>
<!-- Node1&#45;&gt;Node16 -->
<g id="edge50" class="edge">
<title>Node1&#45;&gt;Node16</title>
<path fill="none" stroke="midnightblue" d="M26.9,-408.38C28.63,-437.64 37.88,-524.79 87,-569.53 133.17,-611.6 205.84,-623.66 256.25,-626.61"/>
<polygon fill="midnightblue" stroke="midnightblue" points="256.18,-630.11 266.34,-627.09 256.52,-623.12 256.18,-630.11"/>
</g>
<!-- Node19 -->
<g id="node19" class="node">
<title>Node19</title>
<g id="a_node19"><a xlink:href="group__grp__diagnostics.xhtml#ga6411205c36a7d50002d7f3fb3133c441" target="_top" xlink:title="Measures error in Beltrami equation, .">
<polygon fill="white" stroke="black" points="177.5,-389.03 177.5,-408.03 227.5,-408.03 227.5,-389.03 177.5,-389.03"/>
<text text-anchor="middle" x="202.5" y="-396.03" font-family="Helvetica,sans-Serif" font-size="10.00">jo00aa</text>
</a>
</g>
</g>
<!-- Node1&#45;&gt;Node19 -->
<g id="edge24" class="edge">
<title>Node1&#45;&gt;Node19</title>
<path fill="none" stroke="midnightblue" d="M51.2,-398.53C81.47,-398.53 132.92,-398.53 167.06,-398.53"/>
<polygon fill="midnightblue" stroke="midnightblue" points="167.49,-402.03 177.49,-398.53 167.49,-395.03 167.49,-402.03"/>
</g>
<!-- Node21 -->
<g id="node21" class="node">
<title>Node21</title>
<g id="a_node21"><a xlink:href="group__grp__force__driver.xhtml#gaec14f81fbdbedafbc4189489ec8ae178" target="_top" xlink:title="Employs Newton method to find , where &#160;and &#160;is defined in dforce() .">
<polygon fill="white" stroke="black" points="87,-219.03 87,-238.03 140,-238.03 140,-219.03 87,-219.03"/>
<text text-anchor="middle" x="113.5" y="-226.03" font-family="Helvetica,sans-Serif" font-size="10.00">newton</text>
</a>
</g>
</g>
<!-- Node1&#45;&gt;Node21 -->
<g id="edge28" class="edge">
<title>Node1&#45;&gt;Node21</title>
<path fill="none" stroke="midnightblue" d="M31.37,-388.91C45.21,-361.56 84.92,-283.05 103.15,-247.02"/>
<polygon fill="midnightblue" stroke="midnightblue" points="106.29,-248.56 107.68,-238.06 100.05,-245.4 106.29,-248.56"/>
</g>
<!-- Node23 -->
<g id="node23" class="node">
<title>Node23</title>
<g id="a_node23"><a xlink:href="namespaceallglobal.xhtml#a282c297c96abdab5e76b5ace440b09a8" target="_top" xlink:title="The restart file is written.">
<polygon fill="white" stroke="black" points="265,-161.03 265,-180.03 363,-180.03 363,-161.03 265,-161.03"/>
<text text-anchor="middle" x="314" y="-168.03" font-family="Helvetica,sans-Serif" font-size="10.00">allglobal::wrtend</text>
</a>
</g>
</g>
<!-- Node1&#45;&gt;Node23 -->
<g id="edge52" class="edge">
<title>Node1&#45;&gt;Node23</title>
<path fill="none" stroke="midnightblue" d="M26.87,-388.92C28.52,-358.6 37.6,-263.8 87,-209.53 128.59,-163.85 202.78,-159.22 254.78,-162.66"/>
<polygon fill="midnightblue" stroke="midnightblue" points="254.63,-166.16 264.87,-163.44 255.17,-159.18 254.63,-166.16"/>
</g>
<!-- Node26 -->
<g id="node26" class="node">
<title>Node26</title>
<g id="a_node26"><a xlink:href="group__grp__diagnostics.xhtml#gad67931244268a09bd077dae8910c7096" target="_top" xlink:title="Constructs Poincaré plot and &quot;approximate&quot; rotational&#45;transform (driver).">
<polygon fill="white" stroke="black" points="87,-95.03 87,-114.03 140,-114.03 140,-95.03 87,-95.03"/>
<text text-anchor="middle" x="113.5" y="-102.03" font-family="Helvetica,sans-Serif" font-size="10.00">pp00aa</text>
</a>
</g>
</g>
<!-- Node1&#45;&gt;Node26 -->
<g id="edge43" class="edge">
<title>Node1&#45;&gt;Node26</title>
<path fill="none" stroke="midnightblue" d="M27.33,-388.62C30.59,-353.12 44.52,-229.69 87,-138.53 89.61,-132.93 93.24,-127.36 96.95,-122.39"/>
<polygon fill="midnightblue" stroke="midnightblue" points="99.96,-124.22 103.49,-114.23 94.5,-119.84 99.96,-124.22"/>
</g>
<!-- Node3 -->
<g id="node3" class="node">
<title>Node3</title>
<g id="a_node3"><a xlink:href="group__grp__free-boundary.xhtml#ga180576a10002ebf3840fce98d56316bb" target="_top" xlink:title="Constructs the field created by the plasma currents, at an arbitrary, external location using virtual...">
<polygon fill="white" stroke="black" points="429,-579.03 429,-598.03 477,-598.03 477,-579.03 429,-579.03"/>
<text text-anchor="middle" x="453" y="-586.03" font-family="Helvetica,sans-Serif" font-size="10.00">casing</text>
</a>
</g>
</g>
<!-- Node2&#45;&gt;Node3 -->
<g id="edge2" class="edge">
<title>Node2&#45;&gt;Node3</title>
<path fill="none" stroke="midnightblue" d="M339.81,-588.53C361.84,-588.53 394.22,-588.53 418.54,-588.53"/>
<polygon fill="midnightblue" stroke="midnightblue" points="418.75,-592.03 428.75,-588.53 418.75,-585.03 418.75,-592.03"/>
</g>
<!-- Node5 -->
<g id="node5" class="node">
<title>Node5</title>
<g id="a_node5"><a xlink:href="group__grp__numerics.xhtml#ga041138109a57e651c57117bb4180409e" target="_top" xlink:title="Forward Fourier transform (fftw wrapper)">
<polygon fill="white" stroke="black" points="437.5,-522.03 437.5,-541.03 468.5,-541.03 468.5,-522.03 437.5,-522.03"/>
<text text-anchor="middle" x="453" y="-529.03" font-family="Helvetica,sans-Serif" font-size="10.00">tfft</text>
</a>
</g>
</g>
<!-- Node2&#45;&gt;Node5 -->
<g id="edge5" class="edge">
<title>Node2&#45;&gt;Node5</title>
<path fill="none" stroke="midnightblue" d="M339.47,-578.99C347.03,-576.01 355.37,-572.67 363,-569.53 385.05,-560.46 410.01,-549.77 427.87,-542.04"/>
<polygon fill="midnightblue" stroke="midnightblue" points="429.47,-545.17 437.25,-537.98 426.68,-538.74 429.47,-545.17"/>
</g>
<!-- Node4 -->
<g id="node4" class="node">
<title>Node4</title>
<g id="a_node4"><a xlink:href="group__grp__free-boundary.xhtml#ga281c12a5de84fddd3db4383b0df8627f" target="_top" xlink:title="Differential virtual casing integrand.">
<polygon fill="white" stroke="black" points="543,-579.03 543,-598.03 598,-598.03 598,-579.03 543,-579.03"/>
<text text-anchor="middle" x="570.5" y="-586.03" font-family="Helvetica,sans-Serif" font-size="10.00">dvcfield</text>
</a>
</g>
</g>
<!-- Node3&#45;&gt;Node4 -->
<g id="edge3" class="edge">
<title>Node3&#45;&gt;Node4</title>
<path fill="none" stroke="midnightblue" d="M477.1,-583.01C493.02,-581.72 514.52,-581.45 532.77,-582.2"/>
<polygon fill="midnightblue" stroke="midnightblue" points="532.63,-585.7 542.8,-582.74 533.01,-578.71 532.63,-585.7"/>
</g>
<!-- Node4&#45;&gt;Node3 -->
<g id="edge4" class="edge">
<title>Node4&#45;&gt;Node3</title>
<path fill="none" stroke="midnightblue" d="M542.8,-594.33C526.34,-595.45 505.08,-595.59 487.5,-594.73"/>
<polygon fill="midnightblue" stroke="midnightblue" points="487.3,-591.21 477.1,-594.06 486.85,-598.19 487.3,-591.21"/>
</g>
<!-- Node6&#45;&gt;Node1 -->
<g id="edge7" class="edge">
<title>Node6&#45;&gt;Node1</title>
<path fill="none" stroke="midnightblue" d="M91.47,-541C89.88,-539.25 88.36,-537.4 87,-535.53 59.69,-497.98 39.74,-446.14 31.16,-417.94"/>
<polygon fill="midnightblue" stroke="midnightblue" points="34.45,-416.71 28.35,-408.05 27.72,-418.62 34.45,-416.71"/>
</g>
<!-- Node7&#45;&gt;Node8 -->
<g id="edge9" class="edge">
<title>Node7&#45;&gt;Node8</title>
<path fill="none" stroke="midnightblue" d="M138.08,-359.24C162.12,-357.11 199.91,-351.47 229,-336.53 248.31,-326.62 246.6,-315.05 265,-303.53 269.54,-300.69 274.57,-298.15 279.62,-295.91"/>
<polygon fill="midnightblue" stroke="midnightblue" points="281.29,-299.01 289.22,-291.99 278.64,-292.52 281.29,-299.01"/>
</g>
<!-- Node7&#45;&gt;Node9 -->
<g id="edge10" class="edge">
<title>Node7&#45;&gt;Node9</title>
<path fill="none" stroke="midnightblue" d="M124.22,-370.15C136.1,-381.76 156.97,-401.71 176,-417.53 177.31,-418.63 178.68,-419.73 180.07,-420.83"/>
<polygon fill="midnightblue" stroke="midnightblue" points="177.99,-423.64 188.06,-426.94 182.24,-418.08 177.99,-423.64"/>
</g>
<!-- Node9&#45;&gt;Node2 -->
<g id="edge11" class="edge">
<title>Node9&#45;&gt;Node2</title>
<path fill="none" stroke="midnightblue" d="M207.46,-446.15C219.46,-475.14 255.2,-560.27 265,-569.53 268.89,-573.21 273.58,-576.21 278.48,-578.64"/>
<polygon fill="midnightblue" stroke="midnightblue" points="277.44,-582 288.01,-582.65 280.15,-575.55 277.44,-582"/>
</g>
<!-- Node9&#45;&gt;Node5 -->
<g id="edge23" class="edge">
<title>Node9&#45;&gt;Node5</title>
<path fill="none" stroke="midnightblue" d="M213.62,-446.04C230.68,-462.06 263.47,-492.75 265,-493.53 318.16,-520.8 389.22,-528.51 426.59,-530.68"/>
<polygon fill="midnightblue" stroke="midnightblue" points="426.88,-534.2 437.04,-531.2 427.22,-527.21 426.88,-534.2"/>
</g>
<!-- Node10 -->
<g id="node10" class="node">
<title>Node10</title>
<g id="a_node10"><a xlink:href="group__grp__geometry.xhtml#gaaca20aa60eaf39055f3c9d5c02a24ac2" target="_top" xlink:title="Calculates coordinates, , and metrics, using FFTs.">
<polygon fill="white" stroke="black" points="289.5,-313.03 289.5,-332.03 338.5,-332.03 338.5,-313.03 289.5,-313.03"/>
<text text-anchor="middle" x="314" y="-320.03" font-family="Helvetica,sans-Serif" font-size="10.00">coords</text>
</a>
</g>
</g>
<!-- Node9&#45;&gt;Node10 -->
<g id="edge12" class="edge">
<title>Node9&#45;&gt;Node10</title>
<path fill="none" stroke="midnightblue" d="M217.41,-426.98C221.29,-424.1 225.42,-420.82 229,-417.53 255.96,-392.74 283.36,-360.05 299.24,-340.2"/>
<polygon fill="midnightblue" stroke="midnightblue" points="302.03,-342.31 305.49,-332.29 296.54,-337.96 302.03,-342.31"/>
</g>
<!-- Node11 -->
<g id="node11" class="node">
<title>Node11</title>
<g id="a_node11"><a xlink:href="group__grp__numerics.xhtml#ga1fd52accb0646f535f9bcc46cf5a68f3" target="_top" xlink:title="Inverse Fourier transform (fftw wrapper)">
<polygon fill="white" stroke="black" points="432,-351.03 432,-370.03 474,-370.03 474,-351.03 432,-351.03"/>
<text text-anchor="middle" x="453" y="-358.03" font-family="Helvetica,sans-Serif" font-size="10.00">invfft</text>
</a>
</g>
</g>
<!-- Node9&#45;&gt;Node11 -->
<g id="edge17" class="edge">
<title>Node9&#45;&gt;Node11</title>
<path fill="none" stroke="midnightblue" d="M226.07,-435.81C257.57,-434.21 316.13,-429.07 363,-412.53 387.86,-403.77 413.58,-387.87 430.94,-375.95"/>
<polygon fill="midnightblue" stroke="midnightblue" points="433.04,-378.76 439.21,-370.14 429.01,-373.03 433.04,-378.76"/>
</g>
<!-- Node13 -->
<g id="node13" class="node">
<title>Node13</title>
<g id="a_node13"><a xlink:href="group__grp__numerics.xhtml#ga425e8f1cbf214a3231ab6c874d8fe4be" target="_top" xlink:title="Gauss&#45;Legendre weights and abscissae.">
<polygon fill="white" stroke="black" points="289,-465.03 289,-484.03 339,-484.03 339,-465.03 289,-465.03"/>
<text text-anchor="middle" x="314" y="-472.03" font-family="Helvetica,sans-Serif" font-size="10.00">gauleg</text>
</a>
</g>
</g>
<!-- Node9&#45;&gt;Node13 -->
<g id="edge16" class="edge">
<title>Node9&#45;&gt;Node13</title>
<path fill="none" stroke="midnightblue" d="M226.19,-444.41C241.48,-449.71 261.92,-456.81 279.13,-462.78"/>
<polygon fill="midnightblue" stroke="midnightblue" points="278.23,-466.17 288.82,-466.14 280.52,-459.56 278.23,-466.17"/>
</g>
<!-- Node14 -->
<g id="node14" class="node">
<title>Node14</title>
<g id="a_node14"><a xlink:href="group__grp__build__matrices.xhtml#ga1c52bb6dbffdb432550aae12b096080f" target="_top" xlink:title="Constructs energy and helicity matrices that represent the Beltrami linear system....">
<polygon fill="white" stroke="black" points="428.5,-275.03 428.5,-294.03 477.5,-294.03 477.5,-275.03 428.5,-275.03"/>
<text text-anchor="middle" x="453" y="-282.03" font-family="Helvetica,sans-Serif" font-size="10.00">matrix</text>
</a>
</g>
</g>
<!-- Node9&#45;&gt;Node14 -->
<g id="edge18" class="edge">
<title>Node9&#45;&gt;Node14</title>
<path fill="none" stroke="midnightblue" d="M219.91,-427C248.94,-410.07 311.18,-373.55 363,-341.53 385.46,-327.66 410.8,-311.37 428.68,-299.77"/>
<polygon fill="midnightblue" stroke="midnightblue" points="430.82,-302.55 437.29,-294.16 427,-296.68 430.82,-302.55"/>
</g>
<!-- Node9&#45;&gt;Node15 -->
<g id="edge19" class="edge">
<title>Node9&#45;&gt;Node15</title>
<path fill="none" stroke="midnightblue" d="M215.19,-446.11C219.82,-450.25 224.99,-455.34 229,-460.53 249.42,-486.98 240.96,-503.33 265,-526.53 269.3,-530.68 274.45,-534.25 279.76,-537.28"/>
<polygon fill="midnightblue" stroke="midnightblue" points="278.22,-540.43 288.72,-541.87 281.41,-534.2 278.22,-540.43"/>
</g>
<!-- Node9&#45;&gt;Node16 -->
<g id="edge20" class="edge">
<title>Node9&#45;&gt;Node16</title>
<path fill="none" stroke="midnightblue" d="M204.24,-446.1C206.94,-474.56 218.68,-559.72 265,-607.53 266.4,-608.98 267.93,-610.32 269.55,-611.56"/>
<polygon fill="midnightblue" stroke="midnightblue" points="267.91,-614.67 278.25,-616.97 271.6,-608.72 267.91,-614.67"/>
</g>
<!-- Node10&#45;&gt;Node11 -->
<g id="edge13" class="edge">
<title>Node10&#45;&gt;Node11</title>
<path fill="none" stroke="midnightblue" d="M338.55,-329.07C361.68,-335.48 397.05,-345.29 422.15,-352.25"/>
<polygon fill="midnightblue" stroke="midnightblue" points="421.3,-355.65 431.87,-354.95 423.17,-348.91 421.3,-355.65"/>
</g>
<!-- Node10&#45;&gt;Node12 -->
<g id="edge14" class="edge">
<title>Node10&#45;&gt;Node12</title>
<path fill="none" stroke="midnightblue" d="M325.57,-312.93C335.75,-307.87 351.29,-302.5 363,-294.53 364.01,-293.85 404.34,-250.66 430.36,-225.54"/>
<polygon fill="midnightblue" stroke="midnightblue" points="433.06,-227.8 437.92,-218.39 428.25,-222.72 433.06,-227.8"/>
</g>
<!-- Node12&#45;&gt;Node10 -->
<g id="edge15" class="edge">
<title>Node12&#45;&gt;Node10</title>
<path fill="none" stroke="midnightblue" d="M446.25,-218.3C426.75,-244.63 364.26,-311.68 363,-312.53 358.57,-315.55 353.6,-318.19 348.58,-320.35"/>
<polygon fill="midnightblue" stroke="midnightblue" points="347.15,-317.15 338.98,-323.9 349.58,-323.71 347.15,-317.15"/>
</g>
<!-- Node17 -->
<g id="node17" class="node">
<title>Node17</title>
<g id="a_node17"><a xlink:href="group__grp__numerics.xhtml#ga02a336a22890e7ae5a5c2d525260666c" target="_top" xlink:title="Assign Fourier mode labels.">
<polygon fill="white" stroke="black" points="428,-655.03 428,-674.03 478,-674.03 478,-655.03 428,-655.03"/>
<text text-anchor="middle" x="453" y="-662.03" font-family="Helvetica,sans-Serif" font-size="10.00">gi00ab</text>
</a>
</g>
</g>
<!-- Node16&#45;&gt;Node17 -->
<g id="edge21" class="edge">
<title>Node16&#45;&gt;Node17</title>
<path fill="none" stroke="midnightblue" d="M349.57,-636.12C370.55,-641.94 397.21,-649.34 418.08,-655.13"/>
<polygon fill="midnightblue" stroke="midnightblue" points="417.23,-658.52 427.8,-657.82 419.1,-651.78 417.23,-658.52"/>
</g>
<!-- Node18 -->
<g id="node18" class="node">
<title>Node18</title>
<g id="a_node18"><a xlink:href="namespacenumerical.xhtml#ac9cf42743694682672a82103c8ffedda" target="_top" xlink:title="Duplicates NAG routine X02AJF (machine precision)">
<polygon fill="white" stroke="black" points="399,-617.03 399,-636.03 507,-636.03 507,-617.03 399,-617.03"/>
<text text-anchor="middle" x="453" y="-624.03" font-family="Helvetica,sans-Serif" font-size="10.00">numerical::myprec</text>
</a>
</g>
</g>
<!-- Node16&#45;&gt;Node18 -->
<g id="edge22" class="edge">
<title>Node16&#45;&gt;Node18</title>
<path fill="none" stroke="midnightblue" d="M361.76,-626.53C370.44,-626.53 379.63,-626.53 388.7,-626.53"/>
<polygon fill="midnightblue" stroke="midnightblue" points="388.85,-630.03 398.85,-626.53 388.85,-623.03 388.85,-630.03"/>
</g>
<!-- Node19&#45;&gt;Node10 -->
<g id="edge26" class="edge">
<title>Node19&#45;&gt;Node10</title>
<path fill="none" stroke="midnightblue" d="M213.35,-388.91C225.03,-377.82 245.39,-359.46 265,-346.53 270.18,-343.12 275.92,-339.85 281.57,-336.9"/>
<polygon fill="midnightblue" stroke="midnightblue" points="283.51,-339.84 290.89,-332.23 280.38,-333.58 283.51,-339.84"/>
</g>
<!-- Node19&#45;&gt;Node11 -->
<g id="edge27" class="edge">
<title>Node19&#45;&gt;Node11</title>
<path fill="none" stroke="midnightblue" d="M227.78,-394.82C273.4,-387.85 371.82,-372.79 421.7,-365.17"/>
<polygon fill="midnightblue" stroke="midnightblue" points="422.5,-368.59 431.86,-363.61 421.44,-361.67 422.5,-368.59"/>
</g>
<!-- Node20 -->
<g id="node20" class="node">
<title>Node20</title>
<g id="a_node20"><a xlink:href="group__grp__diagnostics.xhtml#ga20985df1b0df0503ca03ca13f1daf642" target="_top" xlink:title="Compute the magnetic field.">
<polygon fill="white" stroke="black" points="292,-123.03 292,-142.03 336,-142.03 336,-123.03 292,-123.03"/>
<text text-anchor="middle" x="314" y="-130.03" font-family="Helvetica,sans-Serif" font-size="10.00">bfield</text>
</a>
</g>
</g>
<!-- Node19&#45;&gt;Node20 -->
<g id="edge25" class="edge">
<title>Node19&#45;&gt;Node20</title>
<path fill="none" stroke="midnightblue" d="M204.72,-388.85C210.07,-347.8 232.62,-188.53 265,-151.53 269.6,-146.28 275.85,-142.46 282.31,-139.7"/>
<polygon fill="midnightblue" stroke="midnightblue" points="283.52,-142.98 291.78,-136.35 281.18,-136.38 283.52,-142.98"/>
</g>
<!-- Node22 -->
<g id="node22" class="node">
<title>Node22</title>
<g id="a_node22"><a xlink:href="group__grp__force__driver.xhtml#gabbc245b3884ee8d8d3e2a52f25149f78" target="_top" xlink:title="fcn1">
<polygon fill="white" stroke="black" points="183.5,-219.03 183.5,-238.03 221.5,-238.03 221.5,-219.03 183.5,-219.03"/>
<text text-anchor="middle" x="202.5" y="-226.03" font-family="Helvetica,sans-Serif" font-size="10.00">fcn1</text>
</a>
</g>
</g>
<!-- Node21&#45;&gt;Node22 -->
<g id="edge29" class="edge">
<title>Node21&#45;&gt;Node22</title>
<path fill="none" stroke="midnightblue" d="M140.13,-222.32C150.58,-221.66 162.7,-221.61 173.39,-222.18"/>
<polygon fill="midnightblue" stroke="midnightblue" points="173.26,-225.68 183.49,-222.94 173.79,-218.7 173.26,-225.68"/>
</g>
<!-- Node24 -->
<g id="node24" class="node">
<title>Node24</title>
<g id="a_node24"><a xlink:href="group__grp__force__driver.xhtml#ga8ccd6c7d901872702521d0a0edf95412" target="_top" xlink:title="fcn2">
<polygon fill="white" stroke="black" points="183.5,-181.03 183.5,-200.03 221.5,-200.03 221.5,-181.03 183.5,-181.03"/>
<text text-anchor="middle" x="202.5" y="-188.03" font-family="Helvetica,sans-Serif" font-size="10.00">fcn2</text>
</a>
</g>
</g>
<!-- Node21&#45;&gt;Node24 -->
<g id="edge33" class="edge">
<title>Node21&#45;&gt;Node24</title>
<path fill="none" stroke="midnightblue" d="M125.87,-218.84C138,-211.58 157.66,-202.46 173.9,-196.26"/>
<polygon fill="midnightblue" stroke="midnightblue" points="175.24,-199.5 183.46,-192.82 172.87,-192.91 175.24,-199.5"/>
</g>
<!-- Node25 -->
<g id="node25" class="node">
<title>Node25</title>
<g id="a_node25"><a xlink:href="group__grp__force__driver.xhtml#ga382822b303cbf8c56d6f54dcb379caf2" target="_top" xlink:title="read or write force&#45;derivative matrix">
<polygon fill="white" stroke="black" points="277.5,-237.03 277.5,-256.03 350.5,-256.03 350.5,-237.03 277.5,-237.03"/>
<text text-anchor="middle" x="314" y="-244.03" font-family="Helvetica,sans-Serif" font-size="10.00">writereadgf</text>
</a>
</g>
</g>
<!-- Node21&#45;&gt;Node25 -->
<g id="edge41" class="edge">
<title>Node21&#45;&gt;Node25</title>
<path fill="none" stroke="midnightblue" d="M140.13,-230.03C151.02,-233 163.96,-236.72 176,-238.53 206.11,-243.08 240.36,-242.83 267.08,-242.57"/>
<polygon fill="midnightblue" stroke="midnightblue" points="267.33,-246.07 277.3,-242.47 267.27,-239.07 267.33,-246.07"/>
</g>
<!-- Node22&#45;&gt;Node8 -->
<g id="edge31" class="edge">
<title>Node22&#45;&gt;Node8</title>
<path fill="none" stroke="midnightblue" d="M217.78,-238.05C230.01,-245.97 248.25,-257.25 265,-265.53 269.7,-267.86 274.76,-270.11 279.77,-272.21"/>
<polygon fill="midnightblue" stroke="midnightblue" points="278.64,-275.53 289.23,-276.02 281.26,-269.03 278.64,-275.53"/>
</g>
<!-- Node22&#45;&gt;Node21 -->
<g id="edge30" class="edge">
<title>Node22&#45;&gt;Node21</title>
<path fill="none" stroke="midnightblue" d="M183.49,-234.13C173.9,-235.12 161.75,-235.47 150.32,-235.19"/>
<polygon fill="midnightblue" stroke="midnightblue" points="150.27,-231.69 140.13,-234.75 149.97,-238.68 150.27,-231.69"/>
</g>
<!-- Node22&#45;&gt;Node23 -->
<g id="edge32" class="edge">
<title>Node22&#45;&gt;Node23</title>
<path fill="none" stroke="midnightblue" d="M221.58,-218.96C239.1,-209.68 265.88,-195.49 285.93,-184.87"/>
<polygon fill="midnightblue" stroke="midnightblue" points="287.69,-187.9 294.89,-180.13 284.42,-181.71 287.69,-187.9"/>
</g>
<!-- Node24&#45;&gt;Node8 -->
<g id="edge35" class="edge">
<title>Node24&#45;&gt;Node8</title>
<path fill="none" stroke="midnightblue" d="M218.28,-200.15C222,-202.93 225.84,-206.14 229,-209.53 249.19,-231.17 242.15,-246.74 265,-265.53 269.41,-269.16 274.6,-272.16 279.91,-274.62"/>
<polygon fill="midnightblue" stroke="midnightblue" points="278.87,-277.98 289.45,-278.48 281.5,-271.49 278.87,-277.98"/>
</g>
<!-- Node24&#45;&gt;Node12 -->
<g id="edge36" class="edge">
<title>Node24&#45;&gt;Node12</title>
<path fill="none" stroke="midnightblue" d="M221.77,-191.86C262.75,-194.83 362.61,-202.06 416.36,-205.95"/>
<polygon fill="midnightblue" stroke="midnightblue" points="416.23,-209.45 426.46,-206.68 416.74,-202.47 416.23,-209.45"/>
</g>
<!-- Node24&#45;&gt;Node21 -->
<g id="edge34" class="edge">
<title>Node24&#45;&gt;Node21</title>
<path fill="none" stroke="midnightblue" d="M190.25,-200.16C180,-206.31 164.31,-213.8 149.86,-219.74"/>
<polygon fill="midnightblue" stroke="midnightblue" points="148.16,-216.64 140.13,-223.56 150.72,-223.16 148.16,-216.64"/>
</g>
<!-- Node24&#45;&gt;Node23 -->
<g id="edge40" class="edge">
<title>Node24&#45;&gt;Node23</title>
<path fill="none" stroke="midnightblue" d="M221.58,-187.23C230.79,-185.55 242.55,-183.4 254.56,-181.21"/>
<polygon fill="midnightblue" stroke="midnightblue" points="255.44,-184.61 264.65,-179.37 254.18,-177.72 255.44,-184.61"/>
</g>
<!-- Node24&#45;&gt;Node25 -->
<g id="edge37" class="edge">
<title>Node24&#45;&gt;Node25</title>
<path fill="none" stroke="midnightblue" d="M221.76,-200.13C233.97,-206.53 250.42,-215.1 265,-222.53 271.36,-225.78 278.21,-229.23 284.69,-232.47"/>
<polygon fill="midnightblue" stroke="midnightblue" points="283.3,-235.69 293.81,-237.03 286.43,-229.43 283.3,-235.69"/>
</g>
<!-- Node25&#45;&gt;Node14 -->
<g id="edge38" class="edge">
<title>Node25&#45;&gt;Node14</title>
<path fill="none" stroke="midnightblue" d="M349.57,-256.12C370.69,-261.98 397.56,-269.43 418.48,-275.24"/>
<polygon fill="midnightblue" stroke="midnightblue" points="417.65,-278.64 428.22,-277.94 419.52,-271.89 417.65,-278.64"/>
</g>
<!-- Node25&#45;&gt;Node21 -->
<g id="edge39" class="edge">
<title>Node25&#45;&gt;Node21</title>
<path fill="none" stroke="midnightblue" d="M285.53,-256.05C257.74,-260.4 213.63,-262.22 176,-256.53 160.81,-254.24 144.19,-248.93 132.07,-243.11"/>
<polygon fill="midnightblue" stroke="midnightblue" points="133.51,-239.91 123.07,-238.16 130.14,-246.04 133.51,-239.91"/>
</g>
<!-- Node27 -->
<g id="node27" class="node">
<title>Node27</title>
<g id="a_node27"><a xlink:href="group__grp__diagnostics.xhtml#ga831aed2458140e266ee4d37461dd5350" target="_top" xlink:title="Constructs Poincaré plot and &quot;approximate&quot; rotational&#45;transform (for single field line).">
<polygon fill="white" stroke="black" points="176,-90.03 176,-109.03 229,-109.03 229,-90.03 176,-90.03"/>
<text text-anchor="middle" x="202.5" y="-97.03" font-family="Helvetica,sans-Serif" font-size="10.00">pp00ab</text>
</a>
</g>
</g>
<!-- Node26&#45;&gt;Node27 -->
<g id="edge44" class="edge">
<title>Node26&#45;&gt;Node27</title>
<path fill="none" stroke="midnightblue" d="M140.13,-103.06C148.11,-102.6 157.07,-102.09 165.62,-101.6"/>
<polygon fill="midnightblue" stroke="midnightblue" points="165.97,-105.08 175.75,-101.01 165.57,-98.09 165.97,-105.08"/>
</g>
<!-- Node27&#45;&gt;Node12 -->
<g id="edge47" class="edge">
<title>Node27&#45;&gt;Node12</title>
<path fill="none" stroke="midnightblue" d="M229.01,-96.39C261.79,-93.51 319.63,-92.44 363,-113.53 398.03,-130.58 426.24,-167.74 440.93,-190.2"/>
<polygon fill="midnightblue" stroke="midnightblue" points="438.08,-192.24 446.38,-198.83 443.99,-188.5 438.08,-192.24"/>
</g>
<!-- Node27&#45;&gt;Node20 -->
<g id="edge45" class="edge">
<title>Node27&#45;&gt;Node20</title>
<path fill="none" stroke="midnightblue" d="M229.17,-107.27C244.98,-112.04 265.35,-118.17 282.05,-123.21"/>
<polygon fill="midnightblue" stroke="midnightblue" points="281.31,-126.64 291.9,-126.17 283.33,-119.94 281.31,-126.64"/>
</g>
<!-- Node28 -->
<g id="node28" class="node">
<title>Node28</title>
<g id="a_node28"><a xlink:href="group__grp__diagnostics.xhtml#ga08ad6b6635a598c0d0578e42f46b63c5" target="_top" xlink:title="Calculates coordinates, , and metrics, at given .">
<polygon fill="white" stroke="black" points="290,-47.03 290,-66.03 338,-66.03 338,-47.03 290,-47.03"/>
<text text-anchor="middle" x="314" y="-54.03" font-family="Helvetica,sans-Serif" font-size="10.00">stzxyz</text>
</a>
</g>
</g>
<!-- Node27&#45;&gt;Node28 -->
<g id="edge46" class="edge">
<title>Node27&#45;&gt;Node28</title>
<path fill="none" stroke="midnightblue" d="M227.8,-89.99C243.29,-83.91 263.54,-75.96 280.41,-69.33"/>
<polygon fill="midnightblue" stroke="midnightblue" points="281.86,-72.52 289.89,-65.61 279.3,-66.01 281.86,-72.52"/>
</g>
</g>
</svg>
